<?xml version="1.0" ?><svg id="pkft" viewBox="0 0 500 500" xmlns="http://www.w3.org/2000/svg"><defs><style>.cls-1{fill:#4ec045;}.cls-2{fill:#47bfb3;}.cls-3{fill:#44b778;}.cls-4{fill:#4cdeb9;}.cls-5{fill:#fff;}.cls-6{fill:#d2004d;}.cls-7{fill:#00655f;}.cls-8{fill:#4edd92;}.cls-9{fill:#fc8078;}.cls-10{opacity:0.1;}.cls-11{fill:#05ad7d;}</style></defs><title/><path class="cls-1" d="M223.5,147.26h0.82A17,17,0,0,0,241,130.49h0a1.65,1.65,0,0,1,2.26-1.5,16.24,16.24,0,0,0,5.91,1.11,7.62,7.62,0,0,0,.82,0v39.31H227l-19.63,3.8v-9.8A16.09,16.09,0,0,1,223.5,147.26Z"/><path class="cls-2" d="M218,326.29c-0.55,3.49,0,7.09.43,10.52a89.51,89.51,0,0,0,31.53,6v-31.9l-30.91-5S218.27,324.86,218,326.29Z"/><path class="cls-3" d="M169.94,335.31a41,41,0,0,1-1-8.88"/><path class="cls-3" d="M193.5,342.79a40.7,40.7,0,0,1-23.57-7.48"/><path class="cls-3" d="M193.5,342.79l8.93-42.19L187,292.51a40.9,40.9,0,0,0-17.06,42.8,40.7,40.7,0,0,0,23.57,7.48"/><path class="cls-4" d="M241.81,163a74.09,74.09,0,0,0-25.56,8A74.38,74.38,0,0,0,176,147.78a71.46,71.46,0,0,0-7.6,27.57,10.77,10.77,0,1,1,2.41,21.26c-0.32,0-.63,0-0.94,0a75.49,75.49,0,0,0,4.29,13.32,73.23,73.23,0,0,0-10.87,64.8,126.11,126.11,0,0,0,86.26,36.41H250V171A8.5,8.5,0,0,1,241.81,163Z"/><path class="cls-5" d="M194.63,232.11c-4.65,8-7.33,19.1-7.33,19.1-1,4.38,1.78,7.79,6.28,7.79h5.35c-3.23-4-5.42-10.1-5.42-17.83A35.86,35.86,0,0,1,194.63,232.11Z"/><path class="cls-5" d="M220.85,251.21s-2.59-10.77-7.09-18.77a36.41,36.41,0,0,1,1,8.69c0,7.72-2.18,13.87-5.42,17.87h5.21C219.07,259,221.89,255.59,220.85,251.21Z"/><path class="cls-6" d="M213.76,232.53c-2.63-4.67-5.9-8.37-9.69-8.37s-6.86,3.48-9.45,7.95a35.86,35.86,0,0,0-1.12,9.06c0,7.72,2.18,13.83,5.42,17.83h10.44c3.23-4,5.42-10.1,5.42-17.83A36.05,36.05,0,0,0,213.76,232.53Zm-9.62,15.17c-1.81,0-3.27-2.85-3.27-6.36s1.47-6.36,3.27-6.36,3.27,2.85,3.27,6.36S205.95,247.7,204.14,247.7Z"/><ellipse class="cls-5" cx="204.14" cy="241.34" rx="3.27" ry="6.36"/><path class="cls-7" d="M181.58,185.85a10.74,10.74,0,0,0-13.19-10.49c-0.14,1.93-.22,3.88-0.22,5.85a71.06,71.06,0,0,0,1.69,15.36c0.31,0,.62,0,0.94,0A10.77,10.77,0,0,0,181.58,185.85Z"/><path class="cls-7" d="M241.83,163A8.48,8.48,0,0,0,250,171v-8.44A69.77,69.77,0,0,0,241.83,163Z"/><path class="cls-7" d="M210.36,317.65a7.69,7.69,0,0,0,7.69,7.69h0.1c0.47-5,.87-10.28,1.65-15.16A7.67,7.67,0,0,0,210.36,317.65Z"/><path class="cls-8" d="M218.66,336.88c-0.4-3.43-1-6.94-.61-10.46,0-.36.07-0.73,0.1-1.1H218a7.69,7.69,0,1,1,1.75-15.17c0.18-1.11.37-2.21,0.6-3.27l-18.49-6.61a95.18,95.18,0,0,0-7.08,23,90.65,90.65,0,0,0-.46,27.88,8.17,8.17,0,0,1,3.26,14.5,89.46,89.46,0,0,0,3.73,9.85h0.33a69.29,69.29,0,0,0,27.52-5.67A89.39,89.39,0,0,1,218.66,336.88Z"/><path class="cls-7" d="M200.85,359.16a8.18,8.18,0,0,0-6.48-8,89.46,89.46,0,0,0,3.26,14.5A8.16,8.16,0,0,0,200.85,359.16Z"/><path class="cls-9" d="M217.94,280.64l-4.18,1.7a1,1,0,0,1-1.18-.4l-1.33-2.26c-8.23-1.29-12.2-2.34-12.2-2.34C218.17,296.46,250,293.7,250,293.7V283.47C237,282.76,226,281.69,217.94,280.64Z"/><path class="cls-5" d="M213.75,282.34l4.17-1.7q-3.71-.49-6.68-1l1.33,2.26A1,1,0,0,0,213.75,282.34Z"/><path class="cls-7" d="M241.8,200.44a8.16,8.16,0,0,0,4.14,7.12,4.06,4.06,0,0,0,0,.65A4.28,4.28,0,0,0,250,212.3v-20A7.91,7.91,0,0,0,241.8,200.44Z"/><path class="cls-1" d="M276.5,147.26h-0.82A17,17,0,0,1,259,130.49h0a1.65,1.65,0,0,0-2.26-1.5,16.24,16.24,0,0,1-5.91,1.11,7.62,7.62,0,0,1-.82,0v39.31H273l19.63,3.8v-9.8A16.09,16.09,0,0,0,276.5,147.26Z"/><path class="cls-2" d="M282,326.29c0.55,3.49,0,7.09-.43,10.52a89.51,89.51,0,0,1-31.53,6v-31.9l30.91-5S281.73,324.86,282,326.29Z"/><path class="cls-3" d="M330.06,335.31a41,41,0,0,0,1-8.88"/><path class="cls-3" d="M306.5,342.79a40.7,40.7,0,0,0,23.57-7.48"/><path class="cls-3" d="M306.5,342.79l-8.93-42.19L313,292.51a40.9,40.9,0,0,1,17.06,42.8,40.7,40.7,0,0,1-23.57,7.48"/><path class="cls-4" d="M258.19,163a74.09,74.09,0,0,1,25.56,8A74.38,74.38,0,0,1,324,147.78a71.46,71.46,0,0,1,7.6,27.57,10.77,10.77,0,1,0-2.41,21.26c0.32,0,.63,0,0.94,0a75.49,75.49,0,0,1-4.29,13.32,73.23,73.23,0,0,1,10.87,64.8,126.11,126.11,0,0,1-86.26,36.41H250V171A7.84,7.84,0,0,0,258.19,163Z"/><path class="cls-5" d="M305.38,232.11c4.65,8,7.33,19.1,7.33,19.1,1,4.38-1.78,7.79-6.28,7.79h-5.35c3.23-4,5.42-10.1,5.42-17.83A35.86,35.86,0,0,0,305.38,232.11Z"/><path class="cls-5" d="M279.15,251.21s2.59-10.77,7.09-18.77a36.41,36.41,0,0,0-1,8.69c0,7.72,2.18,14.87,5.42,17.87h-5.21C280.93,259,278.11,255.59,279.15,251.21Z"/><path class="cls-6" d="M285.23,241.17c0,7.72,2.18,14.83,5.42,17.83h10.44c3.23-3,5.42-10.1,5.42-17.83a36.55,36.55,0,0,0-1.12-9.15c-2.58-4.47-5.77-7.91-9.45-7.91s-7.06,3.64-9.69,8.3A37,37,0,0,0,285.23,241.17Zm7.36,0.17c0-3.51,1.47-6.36,3.27-6.36s3.27,2.85,3.27,6.36-1.47,6.36-3.27,6.36S292.59,244.85,292.59,241.34Z"/><ellipse class="cls-5" cx="295.86" cy="241.34" rx="3.27" ry="6.36"/><path class="cls-7" d="M318.42,185.85a10.74,10.74,0,0,1,13.19-10.49c0.14,1.93.22,3.88,0.22,5.85a71.06,71.06,0,0,1-1.69,15.36c-0.31,0-.62,0-0.94,0A10.77,10.77,0,0,1,318.42,185.85Z"/><path class="cls-7" d="M258.17,163A7.82,7.82,0,0,1,250,171v-8.44A69.77,69.77,0,0,1,258.17,163Z"/><path class="cls-7" d="M289.64,317.65a7.69,7.69,0,0,1-7.69,7.69h-0.1c-0.47-5-.87-10.28-1.65-15.16A7.67,7.67,0,0,1,289.64,317.65Z"/><path class="cls-8" d="M281.35,336.88c0.4-3.43,1-6.94.61-10.46,0-.36-0.07-0.73-0.1-1.1H282a7.69,7.69,0,1,0-1.75-15.17c-0.18-1.11-.37-2.21-0.6-3.27l18.49-6.61a95.18,95.18,0,0,1,7.08,23,90.65,90.65,0,0,1,.46,27.88,8.17,8.17,0,0,0-3.26,14.5,89.46,89.46,0,0,1-3.73,9.85h-0.33a69.29,69.29,0,0,1-27.52-5.67A89.39,89.39,0,0,0,281.35,336.88Z"/><path class="cls-7" d="M299.15,359.16a8.18,8.18,0,0,1,6.48-8,89.46,89.46,0,0,1-3.26,14.5A8.16,8.16,0,0,1,299.15,359.16Z"/><path class="cls-9" d="M282.06,280.64l4.18,1.7a1,1,0,0,0,1.18-.4l1.33-2.26c8.23-1.29,12.2-2.34,12.2-2.34C281.83,296.46,250,293.7,250,293.7V283.47C263,282.76,274,281.69,282.06,280.64Z"/><path class="cls-5" d="M286.25,282.34l-4.17-1.7q3.71-.49,6.68-1l-1.33,2.26A1,1,0,0,1,286.25,282.34Z"/><path class="cls-7" d="M258.2,200.44a8.16,8.16,0,0,1-4.14,7.12,4.06,4.06,0,0,1,0,.65A4.28,4.28,0,0,1,250,212.3v-20A7.91,7.91,0,0,1,258.2,200.44Z"/><path class="cls-10" d="M336.72,274.69a73.23,73.23,0,0,0-10.87-64.8,75.49,75.49,0,0,0,4.29-13.32h0A72.7,72.7,0,0,0,331.83,181c0-2-.08-4-0.22-6h0a69.92,69.92,0,0,0-7.6-27.4,73.33,73.33,0,0,0-31.45,14.88A16.11,16.11,0,0,0,276.5,147h-0.82A16.77,16.77,0,0,1,259,130.49h0a1.63,1.63,0,0,0-2.24-1.5,16.32,16.32,0,0,1-5.92,1.11,8,8,0,0,1-.83,0v32.5h0V171a8.56,8.56,0,0,0,5-2h0a8.63,8.63,0,0,1-5.06,2V311.11h0v0h0v31.64a83.89,83.89,0,0,0,31-5.91h0a82.82,82.82,0,0,1-10.37,33,69.71,69.71,0,0,0,27.6,5.67h0.37a89.24,89.24,0,0,0,7-24.35q0.6-4.32.78-8.76l0.09,0.39a40.71,40.71,0,0,0,23.57-7.48,40.87,40.87,0,0,0-16.62-42.49c0.86-.52,1.73-1,2.58-1.59A125.41,125.41,0,0,0,336.72,274.69ZM329.19,175h0a10.89,10.89,0,0,0-10.87,10.81A10.76,10.76,0,0,0,329,196.7v0a10.71,10.71,0,0,1-10.68-10.83A10.9,10.9,0,0,1,329.19,175Z"/><path class="cls-11" d="M156.25,465.94V465h5.63v1.88h1.88v1.88h1.88v5.63h-1.87v1.88h-1.87v1.88h-5.62v-1.87h-1.87v-1.87H152.5v-5.62h1.88v-1.87h1.88v-0.94Zm3.75,1.88v-0.94h-3.75v7.5h1.88v1.88h3.75v-7.5H160v-0.94Z"/><path class="cls-11" d="M171.25,465.94V465h5.63v1.88h1.88v1.88h1.88v5.63h-1.87v1.88h-1.87v1.88h-5.62v-1.87h-1.87v-1.87H167.5v-5.62h1.88v-1.87h1.88v-0.94Zm3.75,1.88v-0.94h-3.75v7.5h1.88v1.88h3.75v-7.5H175v-0.94Z"/><path class="cls-11" d="M188.13,465.94V465h3.75v11.25h3.75v1.88H184.38v-1.87h3.75v-7.5h-1.87v-1.87h1.88v-0.94Z"/><path class="cls-11" d="M212.5,471.56V465h11.25v1.88h1.88v3.75h-1.87v1.88h1.88v3.75h-1.87v1.88H212.5v-6.56Zm9.38-2.81v-1.87h-5.62v3.75h5.63v-1.87Zm0,5.63V472.5h-5.62v3.75h5.63v-1.87Z"/><path class="cls-11" d="M227.5,470.63V465h3.75v11.25h5.63V465h3.75v11.25h-1.87v1.88h-9.37v-1.87H227.5v-5.62Z"/><path class="cls-11" d="M244.38,471.56V465h3.75v11.25h7.5v1.88H244.38v-6.56Z"/><path class="cls-11" d="M257.5,471.56V465h11.25v1.88h1.88v3.75h-1.87v1.88h1.88v3.75h-1.87v1.88H257.5v-6.56Zm9.38-2.81v-1.87h-5.62v3.75h5.63v-1.87Zm0,5.63V472.5h-5.62v3.75h5.63v-1.87Z"/><path class="cls-11" d="M276.25,465.94V465h5.63v1.88h1.88v1.88h1.88v9.38h-3.75v-3.75h-5.62v3.75H272.5v-9.37h1.88v-1.87h1.88v-0.94Zm3.75,1.88v-0.94h-1.87v1.88h-1.87v3.75h5.63v-3.75H280v-0.94Z"/><path class="cls-11" d="M289.38,465.94V465h7.5v1.88h1.88v1.88H295v-1.87h-3.75v3.75h7.5v1.88h1.88v3.75h-1.87v1.88h-9.37v-1.87H287.5v-1.87h3.75v1.88h5.63V472.5h-7.5v-1.87H287.5v-3.75h1.88v-0.94Z"/><path class="cls-11" d="M306.25,465.94V465h5.63v1.88h1.88v1.88h1.88v9.38h-3.75v-3.75h-5.62v3.75H302.5v-9.37h1.88v-1.87h1.88v-0.94Zm3.75,1.88v-0.94h-1.87v1.88h-1.87v3.75h5.63v-3.75H310v-0.94Z"/><path class="cls-11" d="M317.5,470.63V465h3.75v11.25h5.63V465h3.75v11.25h-1.87v1.88h-9.37v-1.87H317.5v-5.62Z"/><path class="cls-11" d="M332.5,471.56V465h11.25v1.88h1.88v5.63h-3.75v1.88h1.88v1.88h1.88v1.88H340v-1.87h-1.87v-1.87h-1.87v3.75H332.5v-6.56Zm9.38-2.81v-1.87h-5.62v5.63H340v-1.87h1.88v-1.87Z"/></svg>