<?xml version="1.0" ?><svg id="pkft" viewBox="0 0 500 500" xmlns="http://www.w3.org/2000/svg"><defs><style>.cls-1{fill:#1a1a1a;}.cls-2{fill:none;}.cls-3{fill:#edd288;}.cls-4{fill:#fde597;}.cls-5{fill:#7dbe6a;}.cls-6{fill:#fce799;}.cls-7{fill:#8ac978;}.cls-8{fill:#fff;}.cls-9{fill:#f47c55;}.cls-10{fill:#e2c479;}.cls-11{fill:#85bf73;}.cls-12{fill:#7eb569;}.cls-13{opacity:0.1;}</style></defs><title/><polygon class="cls-1" points="239.75 223 202.75 266.33 215.25 293.5 231.75 284.96 238.5 273 242 238 239.75 223"/><path class="cls-2" d="M249,287c0.17,0,0,0,0,0v-2s0.17,0,0,0V287Z"/><path class="cls-3" d="M218.25,325.91c-0.21-.28-0.4-0.58-0.6-0.86a9.39,9.39,0,0,1-1.9.2,11.6,11.6,0,0,1-4.77-1c-0.06.92-.29,1.84-0.29,2.77,0,21.92,18.31,39.72,39.31,40V341.92A39.74,39.74,0,0,1,218.25,325.91Z"/><path class="cls-4" d="M232.19,278.39c-25.73,5.48-22.19,22.8-22.19,22.8,0,0.53,0,1.06,0,1.58a40.69,40.69,0,0,0,7.61,22.28c0.2,0.29.39,0.58,0.6,0.86a39.74,39.74,0,0,0,31.75,16V276.75A86,86,0,0,0,232.19,278.39Z"/><path class="cls-5" d="M211.63,273c-5.31-13.61-15.79-22.9-23.42-20.74-2.9.82-5,3.18-6.13,6.54,5.75,3.13,11.57,10.27,15.1,19.32,3.29,8.43,3.81,16.54,1.93,22,2.89,1.57,5.76,2.14,8.31,1.42C215,299.42,216.93,286.64,211.63,273Z"/><path class="cls-6" d="M197.18,278.15c-3.53-9.06-9.35-16.19-15.1-19.32a20.23,20.23,0,0,0-1,4.74,42.26,42.26,0,0,1,11.26,16.64,39,39,0,0,1,2.89,17.27,22.83,22.83,0,0,0,3.85,2.69C201,294.69,200.47,286.58,197.18,278.15Z"/><path class="cls-5" d="M184,280.83a42.29,42.29,0,0,0,11.25,16.64,39,39,0,0,0-2.89-17.27,42.26,42.26,0,0,0-11.26-16.64A39.06,39.06,0,0,0,184,280.83Z"/><path class="cls-7" d="M201.61,169.91a7.77,7.77,0,0,1,1.07.28c8.06,2.75,10.1,18.12,4.57,34.33s-16.55,27.12-24.61,24.37a7.85,7.85,0,0,1-1.64-.79,71.73,71.73,0,0,0,6.48,21.9s21.39,36.75,33.39,0l0.28-.07A30.28,30.28,0,0,1,250,225V150A69.07,69.07,0,0,0,201.61,169.91Z"/><path d="M207.25,204.52c5.53-16.21,3.49-31.58-4.57-34.33a7.77,7.77,0,0,0-1.07-.28c-0.49.48-1,1-1.44,1.46,7.26,2.57,9.09,16.48,4.08,31.15s-15,24.63-22.35,22.13a7.16,7.16,0,0,1-1.27-.59q0.13,2,.38,4a7.85,7.85,0,0,0,1.64.79C190.7,231.64,201.72,220.73,207.25,204.52Z"/><path class="cls-6" d="M207.25,204.52c5.53-16.21,3.49-31.58-4.57-34.33a7.77,7.77,0,0,0-1.07-.28c-0.49.48-1,1-1.44,1.46,7.26,2.57,9.09,16.48,4.08,31.15s-15,24.63-22.35,22.13a7.16,7.16,0,0,1-1.27-.59q0.13,2,.38,4a7.85,7.85,0,0,0,1.64.79C190.7,231.64,201.72,220.73,207.25,204.52Z"/><path d="M180.63,224.07a7.16,7.16,0,0,0,1.27.59c7.32,2.5,17.32-7.41,22.35-22.13s3.18-28.58-4.08-31.15A69.92,69.92,0,0,0,180.5,220Q180.5,222,180.63,224.07Z"/><path class="cls-1" d="M180.63,224.07a7.16,7.16,0,0,0,1.27.59c7.32,2.5,17.32-7.41,22.35-22.13s3.18-28.58-4.08-31.15A69.92,69.92,0,0,0,180.5,220Q180.5,222,180.63,224.07Z"/><path class="cls-1" d="M180.63,224.07a7.16,7.16,0,0,0,1.27.59c7.32,2.5,17.32-7.41,22.35-22.13s3.18-28.58-4.08-31.15A69.92,69.92,0,0,0,180.5,220Q180.5,222,180.63,224.07Z"/><ellipse class="cls-8" cx="200" cy="184.38" rx="6.16" ry="4.41" transform="translate(-40.91 310.69) rotate(-70.34)"/><path class="cls-9" d="M250,200h-5c-2.75,0-5-4.5-5-10h0a12.72,12.72,0,0,0-9.81-11.95l-31.13-6.19c-5.39-1.07-7.05-5.47-3.68-9.78s10.47-6.67,15.78-5.24L250,167.25"/><path class="cls-10" d="M214.17,313.9a58.54,58.54,0,0,1-2.4-10.93c-0.33-2.94-2.17-3.62-4.09-1.5a15.29,15.29,0,0,0-3.45,9.56c0,6.3,3.35,12,8.13,14.38a12.42,12.42,0,0,0,5.41,1.58h0.85c0.9-1,.44-2.62-1-5.13A61.49,61.49,0,0,1,214.17,313.9Z"/><path class="cls-11" d="M219.32,249.93a28.13,28.13,0,0,0-.07,5.07c0,5.06.75,9.82,3.15,14A32.27,32.27,0,0,1,250,253V225C234.83,225.25,221.91,235.94,219.32,249.93Z"/><path class="cls-12" d="M250,285V253c-11.92.19-22.39,6.31-27.76,15.69,2.08,3.63,4.91,7.62,8.34,10.17C230.58,278.88,239.69,285,250,285Z"/><polygon class="cls-1" points="260.75 223 297.75 266.33 285.25 293.5 268.75 284.96 262 273 258.5 238 260.75 223"/><path class="cls-3" d="M282,325.91c0.21-.28.52-0.58,0.73-0.86a10,10,0,0,0,2,.2,11.75,11.75,0,0,0,4.8-1c0.06,0.92.06,1.84,0.06,2.77,0,21.92-18.55,39.72-39.55,40V341.92A40.08,40.08,0,0,0,282,325.91Z"/><path class="cls-4" d="M268.06,278.39c25.73,5.48,22.32,22.8,22.32,22.8,0,0.53,0,1.06,0,1.58a40.54,40.54,0,0,1-7.56,22.28c-0.2.29-.64,0.58-0.85,0.86a40.06,40.06,0,0,1-32,16V276.75A82.52,82.52,0,0,1,268.06,278.39Z"/><path class="cls-5" d="M288.87,273c5.31-13.61,15.79-22.9,23.42-20.74,2.9,0.82,5,3.18,6.13,6.54-5.75,3.13-11.57,10.27-15.1,19.32-3.29,8.43-3.81,16.54-1.93,22-2.89,1.57-5.76,2.14-8.31,1.42C285.45,299.42,283.57,286.64,288.87,273Z"/><path class="cls-6" d="M303.32,278.15c3.53-9.06,9.35-16.19,15.1-19.32a20.23,20.23,0,0,1,1,4.74,42.26,42.26,0,0,0-11.26,16.64,39,39,0,0,0-2.89,17.27,22.83,22.83,0,0,1-3.85,2.69C299.51,294.69,300,286.58,303.32,278.15Z"/><path class="cls-5" d="M316.5,280.83a42.29,42.29,0,0,1-11.25,16.64,39,39,0,0,1,2.89-17.27,42.26,42.26,0,0,1,11.26-16.64A39.06,39.06,0,0,1,316.5,280.83Z"/><path class="cls-7" d="M298.64,169.91a6.18,6.18,0,0,0-.94.28c-8.06,2.75-10,18.12-4.51,34.33s16.58,27.12,24.64,24.37a8,8,0,0,0,1.65-.79A71.72,71.72,0,0,1,313,250s-21.38,36.75-33.38,0l-0.53-.07A30.54,30.54,0,0,0,250,225V150A69.13,69.13,0,0,1,298.64,169.91Z"/><path d="M293.25,204.52c-5.53-16.21-3.49-31.58,4.57-34.33a7.77,7.77,0,0,1,1.07-.28c0.49,0.48,1,1,1.44,1.46-7.26,2.57-9.09,16.48-4.08,31.15s15,24.63,22.35,22.13a7.16,7.16,0,0,0,1.27-.59q-0.13,2-.38,4a7.85,7.85,0,0,1-1.64.79C309.8,231.64,298.78,220.73,293.25,204.52Z"/><path class="cls-6" d="M293.25,204.52c-5.53-16.21-3.49-31.58,4.57-34.33a7.77,7.77,0,0,1,1.07-.28c0.49,0.48,1,1,1.44,1.46-7.26,2.57-9.09,16.48-4.08,31.15s15,24.63,22.35,22.13a7.16,7.16,0,0,0,1.27-.59q-0.13,2-.38,4a7.85,7.85,0,0,1-1.64.79C309.8,231.64,298.78,220.73,293.25,204.52Z"/><path d="M319.87,224.07a7.16,7.16,0,0,1-1.27.59c-7.32,2.5-17.32-7.41-22.35-22.13s-3.18-28.58,4.08-31.15A69.92,69.92,0,0,1,320,220Q320,222,319.87,224.07Z"/><path class="cls-1" d="M319.87,224.07a7.16,7.16,0,0,1-1.27.59c-7.32,2.5-17.32-7.41-22.35-22.13s-3.18-28.58,4.08-31.15A69.92,69.92,0,0,1,320,220Q320,222,319.87,224.07Z"/><path class="cls-1" d="M319.87,224.07a7.16,7.16,0,0,1-1.27.59c-7.32,2.5-17.32-7.41-22.35-22.13s-3.18-28.58,4.08-31.15A69.92,69.92,0,0,1,320,220Q320,222,319.87,224.07Z"/><ellipse class="cls-8" cx="300.5" cy="184.38" rx="4.41" ry="6.16" transform="translate(-44.51 111.84) rotate(-19.66)"/><path class="cls-9" d="M250,200h4.5c2.75,0,5-4.5,5-10h0a12.72,12.72,0,0,1,9.81-11.95l31.13-6.19c5.39-1.07,7.05-5.47,3.68-9.78s-10.47-6.67-15.78-5.24l-38.59,10.41"/><path class="cls-10" d="M286.33,313.9a58.54,58.54,0,0,0,2.4-10.93c0.33-2.94,2.17-3.62,4.09-1.5a15.29,15.29,0,0,1,3.45,9.56c0,6.3-3.35,12-8.13,14.38a12.42,12.42,0,0,1-5.41,1.58h-0.85c-0.9-1-.44-2.62,1-5.13A61.49,61.49,0,0,0,286.33,313.9Z"/><path class="cls-11" d="M280.93,249.93A36,36,0,0,1,277.78,269,32.48,32.48,0,0,0,250,253V225C266,225.25,278.34,235.94,280.93,249.93Z"/><path class="cls-12" d="M250,285V253c12,0.19,22.64,6.31,28,15.69a34.14,34.14,0,0,1-8.46,10.17A37.08,37.08,0,0,1,250,285Z"/><path class="cls-13" d="M319.48,228.11h0q0.25-2,.38-4T320,220a69.89,69.89,0,0,0-19.28-48.2c5.17-1.17,6.72-5.48,3.41-9.71s-10.47-6.67-15.78-5.24l-5.43,1.46A68.85,68.85,0,0,0,250,150v17.18l-0.25.07L250,200V341.92a40,40,0,0,0,31.56-15.47h0A40.05,40.05,0,0,1,250,341.92V367c21-.27,39.55-18.06,39.55-40,0-.8,0-1.59,0-2.38A16.41,16.41,0,0,0,296.27,311a15.28,15.28,0,0,0-3.43-9.54l0.24,0.08c2.55,0.72,5.42.16,8.31-1.42a22.83,22.83,0,0,0,3.85-2.69,42.29,42.29,0,0,0,11.25-16.64,39.06,39.06,0,0,0,2.9-17.27,20.24,20.24,0,0,0-1-4.74c-1.16-3.36-3.23-5.72-6.13-6.54l-0.64-.15c0.87-1.3,1.36-2.14,1.36-2.14A71.71,71.71,0,0,0,319.48,228.11Zm-26.29-23.59c-4.44-13-4-25.47.46-31.31l0.14,0c-4.53,5.83-5,18.31-.54,31.34,5,14.67,14.51,25,22.24,24.79C307.75,229.55,298.2,219.22,293.19,204.52Z"/><path class="cls-7" d="M163.75,465.94V465h5.63v1.88h1.88v1.88h1.88v5.63h-1.87v1.88h-1.87v1.88h-5.62v-1.87h-1.87v-1.87H160v-5.62h1.88v-1.87h1.88v-0.94Zm3.75,1.88v-0.94h-3.75v7.5h1.88v1.88h3.75v-7.5H167.5v-0.94Z"/><path class="cls-7" d="M180.63,465.94V465h3.75v11.25h3.75v1.88H176.88v-1.87h3.75v-7.5h-1.87v-1.87h1.88v-0.94Z"/><path class="cls-7" d="M193.75,465.94V465h5.63v1.88h1.88v1.88h1.88v5.63h-1.87v1.88h-1.87v1.88h-5.62v-1.87h-1.87v-1.87H190v-5.62h1.88v-1.87h1.88v-0.94Zm3.75,1.88v-0.94h-3.75v7.5h1.88v1.88h3.75v-7.5H197.5v-0.94Z"/><path class="cls-7" d="M223.75,465.94V465h7.5v1.88h1.88v1.88h-3.75v-1.87h-3.75v1.88h-1.87v5.63h1.88v1.88h3.75v-1.87h3.75v1.88h-1.87v1.88h-7.5v-1.87h-1.87v-1.87H220v-5.62h1.88v-1.87h1.88v-0.94Z"/><path class="cls-7" d="M238.75,465.94V465h5.63v1.88h1.88v1.88h1.88v9.38h-3.75v-3.75h-5.62v3.75H235v-9.37h1.88v-1.87h1.88v-0.94Zm3.75,1.88v-0.94h-1.87v1.88h-1.87v3.75h5.63v-3.75H242.5v-0.94Z"/><path class="cls-7" d="M251.88,465.94V465h11.25v1.88h-3.75v11.25h-3.75V466.88h-3.75v-0.94Z"/><path class="cls-7" d="M265,471.56V465h13.13v1.88h-9.37v3.75h7.5v1.88h-7.5v3.75h9.38v1.88H265v-6.56Z"/><path class="cls-7" d="M280,471.56V465h11.25v1.88h1.88v5.63h-3.75v1.88h1.88v1.88h1.88v1.88H287.5v-1.87h-1.87v-1.87h-1.87v3.75H280v-6.56Zm9.38-2.81v-1.87h-5.62v5.63h3.75v-1.87h1.88v-1.87Z"/><path class="cls-7" d="M295,471.56V465h11.25v1.88h1.88v5.63h-1.87v1.88h-7.5v3.75H295v-6.56Zm9.38-1.87v-2.81h-5.62v5.63h5.63v-2.81Z"/><path class="cls-7" d="M311.88,465.94V465h11.25v1.88h-3.75v9.38h3.75v1.88H311.88v-1.87h3.75v-9.37h-3.75v-0.94Z"/><path class="cls-7" d="M325,471.56V465h13.13v1.88h-9.37v3.75h7.5v1.88h-7.5v3.75h9.38v1.88H325v-6.56Z"/></svg>