<?xml version="1.0" ?><svg id="pkflt" viewBox="0 0 500 500" xmlns="http://www.w3.org/2000/svg"><defs><style>.cls-1{fill:#e6e6e6;}.cls-2{fill:#fd3f3f;}.cls-3{fill:#fff;}.cls-4{fill:#1a1a1a;}.cls-5{opacity:0.1;}</style></defs><title/><path class="cls-1" d="M250,357.67V240.51c-46,2.13-86.52,15.9-106.71,23.85A107.38,107.38,0,0,0,250,357.67Z"/><path class="cls-2" d="M142.31,250a108.62,108.62,0,0,0,1,14.36c20.2-7.95,60.72-21.72,106.72-23.85V142.33A107.34,107.34,0,0,0,142.31,250Zm80.5-22.19c-2.14.5-4.46,0.92-6.86,1.29-12.47,1.9-27.27,2.08-31.66.9-8.67-2.33-4.33-36.67,5.67-36.67s44,25,44,25C237.26,222.69,231.5,225.8,222.81,227.81Z"/><path class="cls-3" d="M190,193.33c-10,0-14.33,34.33-5.67,36.67,4.39,1.18,19.19,1,31.66-.9a25.31,25.31,0,0,1-.32-4.1c0-5.52,1.64-10,3.67-10s3.67,4.48,3.67,10a26.41,26.41,0,0,1-.15,2.81c8.69-2,14.45-5.11,11.15-9.47C234,218.33,200,193.33,190,193.33Z"/><path class="cls-4" d="M219.29,215c-2,0-3.67,4.48-3.67,10a25.31,25.31,0,0,0,.32,4.1c2.4-.37,4.72-0.79,6.86-1.29A26.41,26.41,0,0,0,223,225C223,219.48,221.32,215,219.29,215Z"/><path class="cls-1" d="M250,357.67V240.51c46,2.13,86.52,15.9,106.71,23.85A107.38,107.38,0,0,1,250,357.67Z"/><path class="cls-2" d="M250,142.33v98.18c46,2.13,86.66,15.9,106.86,23.85a108.67,108.67,0,0,0,.88-14.36A107.39,107.39,0,0,0,250,142.33Zm16.29,76s34-25,44-25S324.62,227.67,316,230c-4.39,1.18-19.19,1-31.66-.9-2.4-.37-4.72-0.79-6.86-1.29C268.75,225.8,263,222.69,266.29,218.33Z"/><path class="cls-3" d="M310.29,193.33c10,0,14.33,34.33,5.67,36.67-4.39,1.18-19.19,1-31.66-.9a25.31,25.31,0,0,0,.32-4.1c0-5.52-1.64-10-3.67-10s-3.67,4.48-3.67,10a26.41,26.41,0,0,0,.15,2.81c-8.69-2-14.45-5.11-11.15-9.47C266.29,218.33,300.29,193.33,310.29,193.33Z"/><path class="cls-4" d="M281,215c2,0,3.67,4.48,3.67,10a25.31,25.31,0,0,1-.32,4.1c-2.4-.37-4.72-0.79-6.86-1.29a26.41,26.41,0,0,1-.15-2.81C277.29,219.48,278.93,215,281,215Z"/><g class="cls-5"><path class="cls-4" d="M356.71,264.36C336.52,256.41,296,242.64,250,240.51V357.67A107.38,107.38,0,0,0,356.71,264.36Z"/><path class="cls-4" d="M357.74,250A107.39,107.39,0,0,0,250,142.33v98.18c46,2.13,86.66,15.9,106.86,23.85A108.64,108.64,0,0,0,357.74,250Z"/></g><path class="cls-2" d="M174.13,465.94V465h3.75v11.25h3.75v1.88H170.38v-1.87h3.75v-7.5h-1.87v-1.87h1.88v-0.94Z"/><path class="cls-2" d="M187.25,465.94V465h5.63v1.88h1.88v1.88h1.88v5.63h-1.87v1.88h-1.87v1.88h-5.62v-1.87h-1.87v-1.87H183.5v-5.62h1.88v-1.87h1.88v-0.94Zm3.75,1.88v-0.94h-3.75v7.5h1.88v1.88h3.75v-7.5H191v-0.94Z"/><path class="cls-2" d="M202.25,465.94V465h5.63v1.88h1.88v1.88h1.88v5.63h-1.87v1.88h-1.87v1.88h-5.62v-1.87h-1.87v-1.87H198.5v-5.62h1.88v-1.87h1.88v-0.94Zm3.75,1.88v-0.94h-3.75v7.5h1.88v1.88h3.75v-7.5H206v-0.94Z"/><path class="cls-2" d="M228.5,468.75V465h3.75v5.63h1.88v1.88H236v-1.87h1.88V465h3.75v7.5h-1.87v1.88h-1.87v1.88H236v1.88h-1.87v-1.87h-1.87v-1.87h-1.87V472.5H228.5v-3.75Z"/><path class="cls-2" d="M245.38,465.94V465h9.38v1.88h1.88v9.38h-1.87v1.88h-9.37v-1.87H243.5v-9.37h1.88v-0.94Zm7.5,5.63v-4.69h-5.62v9.38h5.63v-4.69Z"/><path class="cls-2" d="M260.38,471.56V465h3.75v11.25h7.5v1.88H260.38v-6.56Z"/><path class="cls-2" d="M275.38,465.94V465h11.25v1.88h-3.75v11.25h-3.75V466.88h-3.75v-0.94Z"/><path class="cls-2" d="M290.38,465.94V465h9.38v1.88h1.88v9.38h-1.87v1.88h-9.37v-1.87H288.5v-9.37h1.88v-0.94Zm7.5,5.63v-4.69h-5.62v9.38h5.63v-4.69Z"/><path class="cls-2" d="M303.5,471.56V465h11.25v1.88h1.88v5.63h-3.75v1.88h1.88v1.88h1.88v1.88H311v-1.87h-1.87v-1.87h-1.87v3.75H303.5v-6.56Zm9.38-2.81v-1.87h-5.62v5.63H311v-1.87h1.88v-1.87Z"/><path class="cls-2" d="M318.5,471.56V465h11.25v1.88h1.88v3.75h-1.87v1.88h1.88v3.75h-1.87v1.88H318.5v-6.56Zm9.38-2.81v-1.87h-5.62v3.75h5.63v-1.87Zm0,5.63V472.5h-5.62v3.75h5.63v-1.87Z"/></svg>