<?xml version="1.0" ?><svg id="pkflt" viewBox="0 0 500 500" xmlns="http://www.w3.org/2000/svg"><defs><style>.cls-1{fill:#eaf2ec;}.cls-2,.cls-5{fill:#1a1a1a;}.cls-3{fill:#fb5e6d;}.cls-4{fill:#fff;}.cls-5{opacity:0.1;}.cls-6{fill:#fd3f3f;}</style></defs><title/><path class="cls-1" d="M251,120A130,130,0,0,0,122.06,246.18,246.37,246.37,0,0,0,251,283V120Z"/><ellipse class="cls-2" cx="232" cy="230" rx="3.33" ry="16.18"/><path class="cls-2" d="M240,215.32a1.5,1.5,0,0,1-1.38-.92c-10.52-25-72.11-30.19-72.74-30.24a1.5,1.5,0,0,1,.24-3c2.61,0.21,64,5.35,75.26,32.07A1.5,1.5,0,0,1,240,215.32Z"/><path class="cls-3" d="M194.67,310c-3.33-15.33,0-12.67,0-12.67s32.65,6.6,56.33,9.52V283a246.37,246.37,0,0,1-128.94-36.81c0,1.27-.06,2.54-0.06,3.82A130,130,0,0,0,251,380v-43.9C230.28,330.72,197,320.52,194.67,310Z"/><path class="cls-4" d="M194.67,297.33s-3.33-2.67,0,12.67c2.29,10.52,35.62,20.72,56.33,26.09V306.85C227.32,303.93,194.67,297.33,194.67,297.33Z"/><path class="cls-1" d="M251,120A130,130,0,0,1,379.94,246.18,246.37,246.37,0,0,1,251,283V120Z"/><ellipse class="cls-2" cx="270" cy="230" rx="3.33" ry="16.18"/><path class="cls-2" d="M262,215.32a1.5,1.5,0,0,0,1.38-.92c10.52-25,72.11-30.19,72.74-30.24a1.5,1.5,0,0,0-.24-3c-2.61.21-64,5.35-75.26,32.07A1.5,1.5,0,0,0,262,215.32Z"/><path class="cls-3" d="M307.33,310c3.33-15.33,0-12.67,0-12.67s-32.65,6.6-56.33,9.52V283a246.37,246.37,0,0,0,128.94-36.81c0,1.27.06,2.54,0.06,3.82A130,130,0,0,1,251,380v-43.9C271.72,330.72,305,320.52,307.33,310Z"/><path class="cls-4" d="M307.33,297.33s3.33-2.67,0,12.67C305,320.52,271.72,330.72,251,336.09V306.85C274.68,303.93,307.33,297.33,307.33,297.33Z"/><path class="cls-5" d="M379.94,246.18A130,130,0,0,0,251,120V380A130,130,0,0,0,380,250C380,248.72,380,247.45,379.94,246.18Z"/><path class="cls-6" d="M158.13,465.94V465h3.75v11.25h3.75v1.88H154.38v-1.87h3.75v-7.5h-1.87v-1.87h1.88v-0.94Z"/><path class="cls-6" d="M171.25,465.94V465h5.63v1.88h1.88v1.88h1.88v5.63h-1.87v1.88h-1.87v1.88h-5.62v-1.87h-1.87v-1.87H167.5v-5.62h1.88v-1.87h1.88v-0.94Zm3.75,1.88v-0.94h-3.75v7.5h1.88v1.88h3.75v-7.5H175v-0.94Z"/><path class="cls-6" d="M188.13,465.94V465h3.75v11.25h3.75v1.88H184.38v-1.87h3.75v-7.5h-1.87v-1.87h1.88v-0.94Z"/><path class="cls-6" d="M212.5,471.56V465h13.13v1.88h-9.37v3.75h7.5v1.88h-7.5v3.75h9.38v1.88H212.5v-6.56Z"/><path class="cls-6" d="M229.38,471.56V465h3.75v11.25h7.5v1.88H229.38v-6.56Z"/><path class="cls-6" d="M242.5,471.56V465h13.13v1.88h-9.37v3.75h7.5v1.88h-7.5v3.75h9.38v1.88H242.5v-6.56Z"/><path class="cls-6" d="M261.25,465.94V465h7.5v1.88h1.88v1.88h-3.75v-1.87h-3.75v1.88h-1.87v5.63h1.88v1.88h3.75v-1.87h3.75v1.88h-1.87v1.88h-7.5v-1.87h-1.87v-1.87H257.5v-5.62h1.88v-1.87h1.88v-0.94Z"/><path class="cls-6" d="M274.38,465.94V465h11.25v1.88h-3.75v11.25h-3.75V466.88h-3.75v-0.94Z"/><path class="cls-6" d="M287.5,471.56V465h11.25v1.88h1.88v5.63h-3.75v1.88h1.88v1.88h1.88v1.88H295v-1.87h-1.87v-1.87h-1.87v3.75H287.5v-6.56Zm9.38-2.81v-1.87h-5.62v5.63H295v-1.87h1.88v-1.87Z"/><path class="cls-6" d="M304.38,465.94V465h9.38v1.88h1.88v9.38h-1.87v1.88h-9.37v-1.87H302.5v-9.37h1.88v-0.94Zm7.5,5.63v-4.69h-5.62v9.38h5.63v-4.69Z"/><path class="cls-6" d="M317.5,471.56V465h9.38v1.88h1.88v1.88h1.88v5.63h-1.87v1.88h-1.87v1.88H317.5v-6.56Zm7.5-3.75v-0.94h-3.75v9.38H325v-1.87h1.88v-5.62H325v-0.94Z"/><path class="cls-6" d="M332.5,471.56V465h13.13v1.88h-9.37v3.75h7.5v1.88h-7.5v3.75h9.38v1.88H332.5v-6.56Z"/></svg>