<?xml version="1.0" ?><svg id="pkflt" viewBox="0 0 500 500" xmlns="http://www.w3.org/2000/svg"><defs><style>.cls-1{fill:#edccd4;}.cls-2{fill:#efb535;}.cls-3{fill:none;}.cls-4{fill:#44424d;}.cls-5{fill:#e8bcc9;}.cls-6{fill:#f2dadf;}.cls-11,.cls-7{fill:#1a1a1a;}.cls-8{fill:#fff;}.cls-9{fill:#df8081;}.cls-10{fill:#333;}.cls-11{opacity:0.1;}.cls-12{fill:#e5aabd;}</style></defs><title/><path class="cls-1" d="M250,136.17l-0.57.27,0.57,0v-0.25Z"/><path class="cls-1" d="M249.4,136.44l-0.43,0v0.19Z"/><path class="cls-2" d="M168.15,212.32l1,3.53,1.69,6.28L184.22,216H184v2.67l14.39,5.3L201,209.66v-1.43l1.15-2.06C188.15,198.65,173.24,205.62,168.15,212.32Z"/><path class="cls-3" d="M174.18,254.09A36.37,36.37,0,0,0,158,250.17,36.65,36.65,0,0,1,174.18,254.09Z"/><path class="cls-3" d="M214.44,223.59a6.7,6.7,0,0,0-.42.77c-11.14,13.16-18,31.52-18,48.73v0c0-17.2,6.88-35.59,18-48.74C214.21,224.11,214.23,223.84,214.44,223.59Z"/><polygon class="cls-3" points="169.97 218.67 169.97 218.67 184.47 216.17 184.47 216.17 169.97 218.67"/><path class="cls-3" d="M195.8,274a4.2,4.2,0,0,1-.15-0.81c0,0.2,0,.4,0,0.6Z"/><path class="cls-3" d="M195.66,273.77v0L195.8,274v0Z"/><path class="cls-3" d="M158,250h0a37.19,37.19,0,0,1,17.5,4.69c-0.43-.23-0.87-0.5-1.31-0.72A36.69,36.69,0,0,0,158,250Z"/><path class="cls-3" d="M196,274.24v0h0Z"/><path class="cls-1" d="M247.31,161.83l-3.84-.36-2-.18-6.69-.62C239.64,169.5,247.31,161.83,247.31,161.83Z"/><path class="cls-1" d="M250,180.17V136.42l-0.57,0a1,1,0,0,0-.43.22v-0.19c-14,.78-24.26,17.12-24.26,37.2,0,20.57,8.64,43.59,22.59,43.59,0.56,0,.67,0,1.67-0.12V206.19l-0.67,0c0.56,0,.67,0,1.67.06V186h-6C243.47,183,250,180.17,250,180.17Zm-11.37-36-0.59.58Zm8.79-6.66-0.15.08Zm-0.5.29-0.37.23Zm-0.72.44-0.45.28Zm-0.81.52-0.48.32Zm-0.86.58-0.52.36Zm-0.91.64-0.55.4Zm-1,.71-0.56.43Zm-1,.77-0.58.47Zm-1,.84-0.58.51Zm-1,.9-0.59.54Zm-4.13,4.28-0.56.68Zm2.05-2.28-0.58.61Zm-1,1.1L236,147Zm-2,2.41-0.54.72Zm-1,1.31-0.52.75Zm-0.94,1.38-0.5.79Zm-0.9,1.45-0.47.83Zm-0.85,1.53c-0.15.28-.3,0.58-0.44,0.87C230.58,155,230.72,154.68,230.87,154.4Zm-0.8,1.6c-0.14.3-.27,0.6-0.41,0.91C229.8,156.6,229.94,156.29,230.08,156Zm-0.73,1.67c-0.13.31-.25,0.63-0.37,0.95C229.1,158.3,229.22,158,229.34,157.67Zm-0.66,1.75c-0.11.33-.22,0.66-0.33,1C228.46,160.07,228.57,159.74,228.68,159.41Zm-0.59,1.82c-0.1.34-.19,0.69-0.28,1C227.9,161.93,228,161.58,228.09,161.24Zm-0.5,1.9c-0.08.36-.16,0.73-0.23,1.09C227.43,163.86,227.5,163.49,227.59,163.13Zm-0.41,2c-0.07.38-.12,0.76-0.18,1.15C227.05,165.87,227.11,165.49,227.18,165.11Zm-0.31,2.05c-0.05.4-.08,0.81-0.12,1.22C226.78,168,226.81,167.56,226.86,167.16Zm-0.21,2.13c0,0.44,0,.88-0.06,1.33C226.61,170.18,226.62,169.73,226.65,169.29Zm-0.1,2.21c0,0.5,0,1,0,1.53C226.56,172.52,226.55,172,226.56,171.5Zm0,2.29q0,1.17.15,2.37Q226.62,175,226.58,173.8Zm8.23-13.13,6.69,0.62,2,0.18,3.84,0.36S239.64,169.5,234.81,160.67Z"/><path class="cls-3" d="M214.47,223.55c-0.21.26-.42,0.54-0.62,0.82,0.53-.62,1.07-1.22,1.61-1.82A11.1,11.1,0,0,0,214.47,223.55Z"/><path class="cls-4" d="M167.14,207.67l1.2,4.66c5.88-5.2,18.75-13.88,33-6.37l5.93-10-18.08-9.75-4.36,12.5L180,196.42l-5.75,6.6-10.75-6.6-3.5,9.75Z"/><path class="cls-5" d="M175.49,254.77c7.89,4.25,14.81,11.12,20.17,19.29,0-.1,0-0.19,0-0.29C190.34,265.76,183.38,259,175.49,254.77Z"/><path class="cls-5" d="M174.18,254c8.42,4.13,16,11.25,21.65,19.71,0-.2.17-0.35,0.17-0.55v-0.08c0-17.21,6.88-35.57,18-48.73a7.33,7.33,0,0,1,.51-0.77,8.27,8.27,0,0,1,1.28-1.32c3.35-3.63,7-7.26,10.94-9.26h0a0.67,0.67,0,0,0,.18-0.16c-3.11-5.69-16.51-27.3-37.57-26.65l18,9.74-6,10-1.17,2-0.14.81-2.23,14.19H198l-13.39-6.58L170,219h0l-0.74-3-0.92-3.61-1.2-4.7L160,206.19l3.5-9.76a75.32,75.32,0,0,0-5.52,8h0c-6,10.55-14.8,29.51-4.83,46.21v-0.08a35.65,35.65,0,0,1,4.77-.51s0-.08,0-0.08h0A36.45,36.45,0,0,1,174.18,254Z"/><path class="cls-5" d="M196,273.78v0c-6-8.46-13.22-15.53-21.65-19.67,0.44,0.22,1,.44,1.4.68C183.64,259,190,265.76,196,273.78Z"/><path class="cls-5" d="M214.47,223.55a11.1,11.1,0,0,1,1-1l0.3-.33A8.81,8.81,0,0,0,214.47,223.55Z"/><polygon class="cls-5" points="167.14 207.67 168.34 212.32 168.34 212.32 167.14 207.67 159.97 206.17 163.47 196.42 163.47 196.42 163.47 196.42 159.97 206.17 167.14 207.67"/><polygon class="cls-5" points="184.47 216 198 222.92 198 222.91 184.47 216 184.47 216"/><polygon class="cls-5" points="169.25 215.86 169.25 215.86 169.97 218.67 169.97 218.67 169.25 215.86 169.25 215.86"/><polygon class="cls-5" points="168.34 212.32 168.34 212.32 168.34 212.32 169.25 215.86 169.25 215.86 168.34 212.32"/><path class="cls-5" d="M214.44,223.59c-0.21.26-.41,0.52-0.6,0.81v0c0.2-.29.4-0.56,0.62-0.82Z"/><path class="cls-5" d="M215.76,222.22h0a8.88,8.88,0,0,0-1.33,1.37l0,0A8.81,8.81,0,0,1,215.76,222.22Z"/><path class="cls-6" d="M234.24,209a45.66,45.66,0,0,0-7.33,3.86,0.86,0.86,0,0,0,.06.16h0v-0.1h0a55.85,55.85,0,0,0-11.09,9.3l-0.43.36c-0.54.6-1.09,1.2-1.61,1.82v0c-11.14,13.16-18.2,31.56-18.2,48.77a4.23,4.23,0,0,0,.16.81,0.75,0.75,0,0,1,.19.26v0c0,0.7.74,1.42,1.18,2.14a71.61,71.61,0,0,1,9.88,29.38c9.65,11.24,24.54,17.4,41.3,17.4,0.56,0,.64,0,1.64,0V266.21c-10-1.8-22.45-15.34-23.06-15.66a1,1,0,1,1,.94-1.77c0.14,0.08,12.13,6.55,22.13,8.39V206.23c-1,0-1.12-.06-1.68-0.06A37.38,37.38,0,0,0,234.24,209ZM241,240.92s-1.62,0-4,0l-3,0a126.29,126.29,0,0,1-16.52-1c-7.25-1.25-1.49-15.5-1.49-15.5l25,14.25v2.25Z"/><path class="cls-6" d="M195.83,274.25l0.13,0L195.8,274A1.53,1.53,0,0,1,195.83,274.25Z"/><path class="cls-6" d="M195.8,274v0l0.16,0.24h0Z"/><polygon class="cls-6" points="226.97 212.89 226.97 212.9 226.97 212.9 226.97 212.89"/><path class="cls-6" d="M226.73,212.9a57.06,57.06,0,0,0-11,9.31h0l-0.3.33,0.42-.36a55.81,55.81,0,0,1,11.09-9.3l-0.06-.1-0.18.11h0Z"/><path class="cls-6" d="M215.76,222.21a57.06,57.06,0,0,1,11-9.31h0a57.05,57.05,0,0,0-11,9.31h0Z"/><path class="cls-6" d="M195.66,274.07h0q0,0.09,0,.17v0c0-.16,0-0.31,0-0.46h0C195.66,273.87,195.66,274,195.66,274.07Z"/><path class="cls-6" d="M195.64,273.13c0,0.23,0,.43,0,0.63h0c0-.2,0-0.4,0-0.6,0-17.21,7.05-35.61,18.2-48.77v0C202.7,237.54,195.65,255.93,195.64,273.13Z"/><path class="cls-6" d="M195.66,273.76v0h0v0h0Z"/><path class="cls-6" d="M195.64,273.17c0,0.2,0,.4,0,0.59h0c0-.2,0-0.41,0-0.63v0Z"/><path class="cls-6" d="M195.66,273.78h0c0,0.1,0,.19,0,0.29h0C195.66,274,195.66,273.87,195.66,273.78Z"/><path class="cls-6" d="M195.65,273.78h0v0h0v0Z"/><path class="cls-7" d="M237.35,239.26a1,1,0,0,1-.17,0,1.11,1.11,0,0,1-1.11-1.11,1.1,1.1,0,0,1,.59-1,1.57,1.57,0,0,0-1.18-.61c-1,0-1.87,1.2-1.87,2.69a3.46,3.46,0,0,0,.39,1.62l3,0a3.45,3.45,0,0,0,.4-1.64S237.35,239.27,237.35,239.26Z"/><path class="cls-8" d="M217.47,239.92a126.24,126.24,0,0,0,16.52,1,3.46,3.46,0,0,1-.39-1.62c0-1.48.84-2.69,1.88-2.69a1.57,1.57,0,0,1,1.18.61,1.1,1.1,0,0,0-.59,1,1.11,1.11,0,0,0,1.11,1.11,1,1,0,0,0,.17,0s0,0,0,0a3.44,3.44,0,0,1-.39,1.64c2.42,0,4,0,4,0v-2.25l-25-14.25S210.22,238.67,217.47,239.92Z"/><path class="cls-8" d="M226.51,249.2a1,1,0,0,0,.43,1.35c0.61,0.32,13.06,13.86,23.06,15.66v-9c-10-1.85-22-8.32-22.13-8.39A1,1,0,0,0,226.51,249.2Z"/><path class="cls-1" d="M199,275.39l-1,3.31q-0.29-2.65-.34-5.45c-9-13.82-22.56-23.75-37.68-23.75a35.11,35.11,0,0,0-4.82.34h0c-25.37,3.5-48.09,33.62-48.09,61.09,0,29.22,25.7,52.9,52.95,52.9s49.33-23.68,49.33-52.9a60.72,60.72,0,0,0-.33-6.17A71.74,71.74,0,0,0,199,275.39ZM119.8,324.68c-1.11-.38-2.68-0.95-4.15-1.6-2-.9-3.87-2-4-2.91-0.33-2.17-1.33-19-1.33-19L123,321.33l-1.67,3.83S120.7,325,119.8,324.68Zm2.55,10.62s12.17-1.87,16,2.75Zm44.12-15.79c-2.82.82-10.13,2-16.17,3l-4.93.75-4.23.61-2.83-3S165,295,166.47,298.33,171.64,318,166.47,319.5Z"/><path class="cls-1" d="M157.93,250.17h0Z"/><path class="cls-1" d="M153.16,250.67a36.12,36.12,0,0,1,4.77-.5,35.56,35.56,0,0,0-4.77.43v0.08Z"/><path class="cls-1" d="M199,275.39q-0.65-1.08-1.34-2.14,0,2.79.34,5.45Z"/><path class="cls-8" d="M138.31,320.83l2.83,3,4.23-.61c0-.12,0-0.24,0-0.37s0-.3,0-0.45a1.29,1.29,0,0,1-1.12-1.27,1.31,1.31,0,0,1,1.31-1.31h0.05c0.4-2.35,1.24-4,2.23-4,1.32,0,2.4,2.92,2.47,6.6,6-.94,13.35-2.15,16.17-3,5.17-1.5,1.5-17.83,0-21.17S138.31,320.83,138.31,320.83Z"/><path class="cls-8" d="M110.31,301.17s1,16.83,1.33,19c0.14,0.94,2,2,4,2.91,0-.07,0-0.15,0-0.22,0-2.57,1-4.65,2.17-4.65,0.92,0,1.69,1.22,2,2.94a1,1,0,0,1,.16,0,1.05,1.05,0,1,1,0,2.11h0a9.34,9.34,0,0,1-.16,1.46c0.9,0.31,1.51.49,1.51,0.49l1.67-3.83Z"/><path class="cls-7" d="M147.83,315.87c-1,0-1.83,1.62-2.23,4a1.3,1.3,0,0,1-.05,2.6,1.19,1.19,0,0,1-.19,0c0,0.15,0,.3,0,0.45s0,0.25,0,.37l4.93-.75C150.23,318.79,149.15,315.87,147.83,315.87Z"/><path class="cls-7" d="M118.92,322.17a1,1,0,0,1,.9-1c-0.32-1.72-1.1-2.94-2-2.94-1.2,0-2.17,2.08-2.17,4.65,0,0.08,0,.15,0,0.22,1.47,0.65,3,1.22,4.15,1.6a9.34,9.34,0,0,0,.16-1.46A1.05,1.05,0,0,1,118.92,322.17Z"/><path class="cls-8" d="M120,323.22h0a1.05,1.05,0,1,0,0-2.11,1,1,0,0,0-.16,0,9.41,9.41,0,0,1,.16,1.71C120,323,120,323.09,120,323.22Z"/><path class="cls-8" d="M118.92,322.17a1.05,1.05,0,0,0,1,1.05c0-.12,0-0.24,0-0.37a9.41,9.41,0,0,0-.16-1.71A1,1,0,0,0,118.92,322.17Z"/><path class="cls-8" d="M145.56,319.83a1.31,1.31,0,0,0-1.31,1.31,1.29,1.29,0,0,0,1.12,1.27,17.81,17.81,0,0,1,.24-2.56h-0.05Z"/><path class="cls-8" d="M146.86,321.13a1.3,1.3,0,0,0-1.25-1.29,17.81,17.81,0,0,0-.24,2.56,1.19,1.19,0,0,0,.19,0A1.31,1.31,0,0,0,146.86,321.13Z"/><path class="cls-9" d="M122.35,335.29l16,2.75C134.51,333.42,122.35,335.29,122.35,335.29Z"/><path class="cls-8" d="M243.46,161.61a0.59,0.59,0,0,1,0,1.18l-0.11,0a1.27,1.27,0,0,1-.82,1.15c-0.55,0-1-1.13-1-2.53,0,0,0-.06,0-0.09l-6.69-.62c4.83,8.83,12.5,1.17,12.5,1.17l-3.84-.36S243.46,161.57,243.46,161.61Z"/><path class="cls-10" d="M242.48,163.92a1.27,1.27,0,0,0,.82-1.15,0.59,0.59,0,0,1-.49-0.57,0.59,0.59,0,0,1,.59-0.59h0s0-.09,0-0.14l-2-.18s0,0.06,0,.09C241.49,162.78,241.94,163.92,242.48,163.92Z"/><path class="cls-8" d="M243.41,162.79a0.59,0.59,0,0,0,0-1.18,5.55,5.55,0,0,1-.16,1.16Z"/><path class="cls-8" d="M242.82,162.2a0.59,0.59,0,0,0,.49.57,5.55,5.55,0,0,0,.16-1.16h0A0.59,0.59,0,0,0,242.82,162.2Z"/><path class="cls-3" d="M226.74,176.17a124.54,124.54,0,0,0,7.5,32.82,37.36,37.36,0,0,1,14.08-2.82l0.68,0V186h-5c-0.38-2,3-4.53,5-5.39v-44C244,139.09,224.47,150.88,226.74,176.17Z"/><path class="cls-3" d="M250,206.23V186h-1v20.19S250,206.21,250,206.23Z"/><path class="cls-9" d="M249,180.61h0l-0.44.22-0.14.07-0.36.19-0.15.08-0.52.3h0l-0.5.32-0.16.11-0.38.28-0.16.12c-0.17.13-.34,0.27-0.5,0.41l0,0c-0.15.14-.3,0.28-0.44,0.42l-0.13.14-0.29.35-0.11.15a4.51,4.51,0,0,0-.32.51h0a3.55,3.55,0,0,0-.22.52l0,0.16a2.92,2.92,0,0,0-.09.41,0.75,0.75,0,0,0,0,.09,1.62,1.62,0,0,0,0,.5h6v-5.83S249.58,180.32,249,180.61Z"/><path class="cls-2" d="M331.85,212.32l-1,3.53-1.69,6.28L315.78,216H316v2.67L301.61,224,299,209.66v-1.43l-1.15-2.06C311.85,198.65,326.76,205.62,331.85,212.32Z"/><path class="cls-3" d="M325.82,254.09A36.37,36.37,0,0,1,342,250.17,36.65,36.65,0,0,0,325.82,254.09Z"/><path class="cls-3" d="M285.56,223.59a6.7,6.7,0,0,1,.42.77c11.14,13.16,18,31.52,18,48.73v0c0-17.2-6.88-35.59-18-48.74C285.79,224.11,285.77,223.84,285.56,223.59Z"/><polygon class="cls-3" points="330.03 218.67 330.03 218.67 315.53 216.17 315.53 216.17 330.03 218.67"/><path class="cls-3" d="M304.2,274a4.2,4.2,0,0,0,.15-0.81c0,0.2,0,.4,0,0.6Z"/><path class="cls-3" d="M304.34,273.77v0l-0.14.21v0Z"/><path class="cls-3" d="M342,250h0a37.19,37.19,0,0,0-17.5,4.69c0.43-.23.87-0.5,1.31-0.72A36.69,36.69,0,0,1,342,250Z"/><path class="cls-3" d="M304,274.24v0h0Z"/><path class="cls-1" d="M252.69,161.83l3.84-.36,2-.18,6.69-.62C260.36,169.5,252.69,161.83,252.69,161.83Z"/><path class="cls-1" d="M256,186h-6v20.23c1,0,1.11-.06,1.67-0.06l-0.67,0v10.95c1,0.07,1.12.12,1.68,0.12,13.95,0,22.58-23,22.58-43.59,0-20.08-10.26-36.42-24.26-37.2v0.19a1,1,0,0,0-.43-0.22l-0.57,0v43.75S256.53,183,256,186ZM262,144.74l-0.59-.58Zm-9.23-7.15-0.15-.08Zm0.73,0.44-0.37-.23Zm0.79,0.49-0.45-.28Zm0.85,0.56-0.48-.32ZM256,139.7l-0.52-.36Zm0.94,0.68-0.55-.4Zm1,0.74-0.56-.43Zm1,0.81-0.58-.47Zm1,0.87-0.58-.51Zm1,0.94-0.59-.54Zm4.1,4.42-0.56-.68Zm-2-2.35-0.58-.61Zm1,1.14-0.57-.65Zm2,2.49-0.54-.72Zm1,1.35-0.52-.75Zm0.92,1.42-0.5-.79Zm0.87,1.49-0.47-.83Zm0.82,1.57c-0.14-.29-0.29-0.58-0.44-0.87C269.28,154.68,269.42,155,269.57,155.26Zm0.76,1.64c-0.13-.31-0.27-0.61-0.41-0.91C270.06,156.29,270.2,156.6,270.33,156.9Zm0.7,1.71c-0.12-.32-0.24-0.64-0.37-0.95C270.78,158,270.9,158.3,271,158.62Zm0.62,1.79c-0.11-.33-0.21-0.67-0.33-1C271.43,159.74,271.54,160.07,271.65,160.41Zm0.54,1.87c-0.09-.35-0.18-0.7-0.28-1C272,161.58,272.1,161.93,272.19,162.28Zm0.45,1.95c-0.08-.37-0.15-0.73-0.23-1.09C272.5,163.49,272.57,163.86,272.64,164.23Zm0.36,2c-0.06-.38-0.11-0.77-0.18-1.15C272.89,165.49,272.95,165.87,273,166.26Zm0.26,2.13c0-.41-0.07-0.82-0.12-1.22C273.19,167.56,273.22,168,273.26,168.38Zm0.15,2.24c0-.44,0-0.89-0.06-1.33C273.38,169.73,273.39,170.18,273.41,170.62Zm0,2.41c0-.51,0-1,0-1.53C273.45,172,273.44,172.52,273.43,173Zm-0.16,3.13q0.11-1.21.15-2.37Q273.38,175,273.27,176.17Zm-20.58-14.33,3.84-.36,2-.18,6.69-.62C260.36,169.5,252.69,161.83,252.69,161.83Z"/><path class="cls-3" d="M285.53,223.55c0.21,0.26.42,0.54,0.62,0.82-0.53-.62-1.07-1.22-1.61-1.82A11.1,11.1,0,0,1,285.53,223.55Z"/><path class="cls-4" d="M332.86,207.67l-1.2,4.66c-5.87-5.2-18.75-13.88-33-6.37l-5.93-10,18.08-9.75,4.36,12.5,4.89-2.25,5.75,6.6,10.75-6.6,3.5,9.75Z"/><path class="cls-5" d="M324.51,254.77c-7.89,4.25-14.81,11.12-20.17,19.29,0-.1,0-0.19,0-0.29C309.66,265.76,316.62,259,324.51,254.77Z"/><path class="cls-5" d="M325.82,254c-8.42,4.13-16,11.25-21.65,19.71,0-.2-0.17-0.35-0.17-0.55v-0.08c0-17.21-6.88-35.57-18-48.73a7.33,7.33,0,0,0-.51-0.77,8.27,8.27,0,0,0-1.28-1.32c-3.35-3.63-7-7.26-10.94-9.26h0a0.67,0.67,0,0,1-.18-0.16c3.11-5.69,16.51-27.3,37.57-26.65l-18,9.74,6,10,1.17,2,0.14,0.81,2.23,14.19H302l13.39-6.58L330,219h0l0.74-3,0.92-3.61,1.2-4.7,7.17-1.52-3.5-9.76a75.32,75.32,0,0,1,5.52,8h0c6,10.55,14.8,29.51,4.83,46.21v-0.08a35.65,35.65,0,0,0-4.77-.51s0-.08,0-0.08h0A36.45,36.45,0,0,0,325.82,254Z"/><path class="cls-5" d="M304,273.78v0c6-8.46,13.22-15.53,21.65-19.67-0.44.22-1,.44-1.4,0.68C316.36,259,310,265.76,304,273.78Z"/><path class="cls-5" d="M285.53,223.55a11.1,11.1,0,0,0-1-1l-0.3-.33A8.81,8.81,0,0,1,285.53,223.55Z"/><polygon class="cls-5" points="332.86 207.67 331.66 212.32 331.66 212.32 332.86 207.67 340.03 206.17 336.53 196.42 336.53 196.42 336.53 196.42 340.03 206.17 332.86 207.67"/><polygon class="cls-5" points="315.53 216 302 222.92 302 222.91 315.52 216 315.53 216"/><polygon class="cls-5" points="330.75 215.86 330.75 215.86 330.03 218.67 330.03 218.67 330.75 215.86 330.75 215.86"/><polygon class="cls-5" points="331.66 212.32 331.66 212.32 331.66 212.32 330.75 215.86 330.75 215.86 331.66 212.32"/><path class="cls-5" d="M285.56,223.59c0.21,0.26.41,0.52,0.6,0.81v0c-0.2-.29-0.4-0.56-0.62-0.82Z"/><path class="cls-5" d="M284.24,222.22h0a8.88,8.88,0,0,1,1.33,1.37l0,0A8.81,8.81,0,0,0,284.24,222.22Z"/><path class="cls-6" d="M251.68,206.17c-0.56,0-.68,0-1.68.06v50.94c10-1.85,22-8.32,22.13-8.39a1,1,0,1,1,.93,1.77c-0.61.32-13.06,13.86-23.06,15.66v56.92c1,0,1.08,0,1.64,0,16.76,0,31.65-6.16,41.3-17.4a71.61,71.61,0,0,1,9.88-29.38c0.44-.72,1.18-1.44,1.18-2.14v0a0.75,0.75,0,0,1,.19-0.26,4.21,4.21,0,0,0,.16-0.81c0-17.21-7.05-35.61-18.19-48.77v0c-0.53-.62-1.07-1.22-1.61-1.82l-0.42-.36a55.89,55.89,0,0,0-11.1-9.3h0V213h0a0.86,0.86,0,0,0,.06-0.16,46,46,0,0,0-7.33-3.9A37.3,37.3,0,0,0,251.68,206.17Zm7.32,32.5,25-14.25s5.76,14.25-1.49,15.5a126.19,126.19,0,0,1-16.51,1l-3,0c-2.42,0-4,0-4,0v-2.25Z"/><path class="cls-6" d="M304.17,274.25l-0.13,0,0.16-.24A1.53,1.53,0,0,0,304.17,274.25Z"/><path class="cls-6" d="M304.2,274v0l-0.16.24h0Z"/><polygon class="cls-6" points="273.03 212.89 273.03 212.9 273.03 212.9 273.03 212.89"/><path class="cls-6" d="M273.27,212.9a57.06,57.06,0,0,1,11,9.31h0l0.3,0.33-0.42-.36a55.81,55.81,0,0,0-11.09-9.3l0.06-.1,0.18,0.11h0Z"/><path class="cls-6" d="M284.24,222.21a57.06,57.06,0,0,0-11-9.31h0a57.05,57.05,0,0,1,11,9.31h0Z"/><path class="cls-6" d="M304.34,274.07h0q0,0.09,0,.17v0c0-.16,0-0.31,0-0.46h0C304.34,273.87,304.34,274,304.34,274.07Z"/><path class="cls-6" d="M304.36,273.13c0,0.23,0,.43,0,0.63h0c0-.2,0-0.4,0-0.6,0-17.21-7.05-35.61-18.2-48.77v0C297.3,237.54,304.35,255.93,304.36,273.13Z"/><path class="cls-6" d="M304.34,273.76v0h0v0h0Z"/><path class="cls-6" d="M304.36,273.17c0,0.2,0,.4,0,0.59h0c0-.2,0-0.41,0-0.63v0Z"/><path class="cls-6" d="M304.34,273.78h0c0,0.1,0,.19,0,0.29h0C304.34,274,304.34,273.87,304.34,273.78Z"/><path class="cls-6" d="M304.35,273.78h0v0h0v0Z"/><path class="cls-7" d="M262.65,239.26a1,1,0,0,0,.17,0,1.11,1.11,0,0,0,1.11-1.11,1.1,1.1,0,0,0-.59-1,1.57,1.57,0,0,1,1.18-.61c1,0,1.88,1.2,1.88,2.69a3.46,3.46,0,0,1-.39,1.62l-3,0a3.45,3.45,0,0,1-.4-1.64S262.65,239.27,262.65,239.26Z"/><path class="cls-8" d="M282.53,239.92a126.24,126.24,0,0,1-16.52,1,3.46,3.46,0,0,0,.39-1.62c0-1.48-.84-2.69-1.87-2.69a1.57,1.57,0,0,0-1.18.61,1.1,1.1,0,0,1,.59,1,1.11,1.11,0,0,1-1.11,1.11,1,1,0,0,1-.17,0s0,0,0,0a3.44,3.44,0,0,0,.39,1.64c-2.42,0-4,0-4,0v-2.25l25-14.25S289.78,238.67,282.53,239.92Z"/><path class="cls-8" d="M273.49,249.2a1,1,0,0,1-.43,1.35c-0.61.32-13.06,13.86-23.06,15.66v-9c10-1.85,22-8.32,22.13-8.39A1,1,0,0,1,273.49,249.2Z"/><path class="cls-1" d="M291,304.77a60.72,60.72,0,0,0-.33,6.17c0,29.22,22.09,52.9,49.33,52.9S393,340.15,393,310.93c0-27.47-22.73-57.59-48.09-61.09h0a35.11,35.11,0,0,0-4.82-.34c-15.11,0-28.63,9.93-37.68,23.75q0,2.79-.34,5.45l-1-3.31A71.74,71.74,0,0,0,291,304.77Zm87.67,20.4L377,321.33l12.67-20.17s-1,16.83-1.33,19c-0.14.94-2,2-4,2.91-1.47.65-3,1.22-4.15,1.6C379.3,325,378.69,325.17,378.69,325.17Zm-17,12.88c3.79-4.62,16-2.75,16-2.75Zm-28.17-39.71c1.5-3.33,28.17,22.5,28.17,22.5l-2.83,3-4.23-.61-4.93-.75c-6-.94-13.35-2.15-16.17-3C328.36,318,332,301.67,333.53,298.33Z"/><path class="cls-1" d="M342.07,250.17h0Z"/><path class="cls-1" d="M346.84,250.67a36.12,36.12,0,0,0-4.77-.5,35.56,35.56,0,0,1,4.77.43v0.08Z"/><path class="cls-1" d="M301,275.39q0.65-1.08,1.34-2.14,0,2.79-.34,5.45Z"/><path class="cls-8" d="M361.69,320.83l-2.83,3-4.23-.61c0-.12,0-0.24,0-0.37s0-.3,0-0.45a1.29,1.29,0,0,0,1.12-1.27,1.31,1.31,0,0,0-1.31-1.31h-0.05c-0.4-2.35-1.24-4-2.23-4-1.32,0-2.4,2.92-2.47,6.6-6-.94-13.35-2.15-16.17-3-5.17-1.5-1.5-17.83,0-21.17S361.69,320.83,361.69,320.83Z"/><path class="cls-8" d="M389.69,301.17s-1,16.83-1.33,19c-0.14.94-2,2-4,2.91,0-.07,0-0.15,0-0.22,0-2.57-1-4.65-2.17-4.65-0.92,0-1.69,1.22-2,2.94a1,1,0,0,0-.16,0,1.05,1.05,0,1,0,0,2.11h0a9.34,9.34,0,0,0,.16,1.46c-0.9.31-1.51,0.49-1.51,0.49L377,321.33Z"/><path class="cls-7" d="M352.17,315.87c1,0,1.83,1.62,2.23,4a1.3,1.3,0,0,0,.05,2.6,1.19,1.19,0,0,0,.19,0c0,0.15,0,.3,0,0.45s0,0.25,0,.37l-4.93-.75C349.77,318.79,350.85,315.87,352.17,315.87Z"/><path class="cls-7" d="M381.08,322.17a1,1,0,0,0-.9-1c0.32-1.72,1.1-2.94,2-2.94,1.2,0,2.17,2.08,2.17,4.65,0,0.08,0,.15,0,0.22-1.47.65-3,1.22-4.15,1.6a9.34,9.34,0,0,1-.16-1.46A1.05,1.05,0,0,0,381.08,322.17Z"/><path class="cls-8" d="M380,323.22h0a1.05,1.05,0,1,1,0-2.11,1,1,0,0,1,.16,0,9.41,9.41,0,0,0-.16,1.71C380,323,380,323.09,380,323.22Z"/><path class="cls-8" d="M381.08,322.17a1.05,1.05,0,0,1-1,1.05c0-.12,0-0.24,0-0.37a9.41,9.41,0,0,1,.16-1.71A1,1,0,0,1,381.08,322.17Z"/><path class="cls-8" d="M354.44,319.83a1.31,1.31,0,0,1,1.31,1.31,1.29,1.29,0,0,1-1.12,1.27,17.81,17.81,0,0,0-.24-2.56h0.05Z"/><path class="cls-8" d="M353.14,321.13a1.3,1.3,0,0,1,1.25-1.29,17.81,17.81,0,0,1,.24,2.56,1.19,1.19,0,0,1-.19,0A1.31,1.31,0,0,1,353.14,321.13Z"/><path class="cls-9" d="M377.65,335.29l-16,2.75C365.49,333.42,377.65,335.29,377.65,335.29Z"/><path class="cls-8" d="M256.54,161.61a0.59,0.59,0,0,0,0,1.18l0.11,0a1.27,1.27,0,0,0,.82,1.15c0.55,0,1-1.13,1-2.53,0,0,0-.06,0-0.09l6.69-.62c-4.83,8.83-12.5,1.17-12.5,1.17l3.84-.36S256.54,161.57,256.54,161.61Z"/><path class="cls-10" d="M257.52,163.92a1.27,1.27,0,0,1-.82-1.15,0.59,0.59,0,0,0,.49-0.57,0.59,0.59,0,0,0-.59-0.59h0s0-.09,0-0.14l2-.18s0,0.06,0,.09C258.51,162.78,258.06,163.92,257.52,163.92Z"/><path class="cls-8" d="M256.59,162.79a0.59,0.59,0,0,1,0-1.18,5.55,5.55,0,0,0,.16,1.16Z"/><path class="cls-8" d="M257.18,162.2a0.59,0.59,0,0,1-.49.57,5.55,5.55,0,0,1-.16-1.16h0A0.59,0.59,0,0,1,257.18,162.2Z"/><path class="cls-3" d="M273.26,176.17a124.54,124.54,0,0,1-7.5,32.82,37.36,37.36,0,0,0-14.08-2.82l-0.68,0V186h5c0.38-3-3-4.53-5-5.39v-44C256,139.09,275.53,150.88,273.26,176.17Z"/><path class="cls-3" d="M250,206.23V186h1v20.19S250,206.21,250,206.23Z"/><path class="cls-9" d="M251,180.61h0l0.44,0.22,0.14,0.07,0.36,0.19,0.15,0.08,0.52,0.3h0l0.5,0.32,0.16,0.11,0.38,0.28,0.16,0.12c0.17,0.13.34,0.27,0.5,0.41l0,0c0.15,0.14.3,0.28,0.44,0.42l0.13,0.14,0.29,0.35,0.11,0.15a4.51,4.51,0,0,1,.32.51h0a3.55,3.55,0,0,1,.22.52l0,0.16a2.92,2.92,0,0,1,.09.41,0.75,0.75,0,0,1,0,.09,1.62,1.62,0,0,1,0,.5h-6v-5.83S250.42,180.32,251,180.61Z"/><path class="cls-11" d="M347.08,250.22c9.55-16.59.92-35.3-5.08-45.75h0a76.15,76.15,0,0,0-5.5-8v0L325.78,203l-5.75-6.6-4.89,2.25-4.36-12.5-18.08,9.75,5.84,9.9,0,0-5.87-9.88,18-9.72c-20.94-.65-34.32,20.76-37.52,26.59l-0.05,0-0.06.1a46.35,46.35,0,0,0-7.19-3.86c6-8.54,9.41-22.43,9.41-35.36,0-20.08-10.25-36.42-24.25-37.2v0.19a1,1,0,0,0-.43-0.22l-0.57,0v69.81a2.25,2.25,0,0,1,.63-0.23h0a2.29,2.29,0,0,0-.64.23v116.9c1,0,1.08,0,1.64,0,15.56,0,29.5-5.32,39.14-15.07,0,0.95-.08,1.89-0.08,2.84,0,29.22,22.09,52.9,49.33,52.9s53-23.68,53-52.9C393,284.25,371.55,255.08,347.08,250.22Zm-74-37.28,0,0,0,0v0h0ZM340,206.17v0l-7.17,1.53-1.13,4.44,0,0,1.15-4.48ZM284.91,223l0.62,0.7v0l-0.65-.74ZM317,216.73l-1-.2v-0.27Zm13.28,1.2-0.3,1.24h0Zm-49,1.4,0.11,0.11a55.62,55.62,0,0,0-7-5.64l0.16,0.09A55.2,55.2,0,0,1,281.28,219.33Zm-18.43,21.11a3.28,3.28,0,0,1-.12-0.44A3.46,3.46,0,0,0,262.84,240.44Zm-0.69.5c-1.94,0-3.18,0-3.18,0S260.22,240.94,262.16,240.94Zm0.87,0a2.85,2.85,0,0,1-.11-0.29,3.08,3.08,0,0,0,.13.29h0Zm9.47,7.73a1,1,0,0,0-.38.11A1,1,0,0,1,272.5,248.67Z"/><path class="cls-12" d="M158.13,465.94V465h3.75v11.25h3.75v1.88H154.38v-1.87h3.75v-7.5h-1.87v-1.87h1.88v-0.94Z"/><path class="cls-12" d="M171.25,465.94V465h5.63v1.88h1.88v1.88h1.88v5.63h-1.87v1.88h-1.87v1.88h-5.62v-1.87h-1.87v-1.87H167.5v-5.62h1.88v-1.87h1.88v-0.94Zm3.75,1.88v-0.94h-3.75v7.5h1.88v1.88h3.75v-7.5H175v-0.94Z"/><path class="cls-12" d="M184.38,465.94V465h9.38v1.88h1.88v3.75h-1.87v1.88h-1.87v1.88h-3.75v1.88h7.5v1.88H182.5v-3.75h1.88V472.5h1.88v-1.87H190v-1.87h1.88v-1.87h-5.62v1.88H182.5v-1.87h1.88v-0.94Z"/><path class="cls-12" d="M212.5,471.56V465h13.13v1.88h-9.37v3.75h7.5v1.88h-7.5v3.75h9.38v1.88H212.5v-6.56Z"/><path class="cls-12" d="M227.5,466.88V465h3.75v1.88h1.88v1.88H235v-1.87h1.88V465h3.75v3.75h-1.87v1.88h-1.87v1.88h1.88v1.88h1.88v3.75h-3.75v-1.87H235v-1.87h-1.87v1.88h-1.87v1.88H227.5v-3.75h1.88V472.5h1.88v-1.87h-1.87v-1.87H227.5v-1.87Z"/><path class="cls-12" d="M242.5,471.56V465h13.13v1.88h-9.37v3.75h7.5v1.88h-7.5v3.75h9.38v1.88H242.5v-6.56Z"/><path class="cls-12" d="M261.25,465.94V465h9.38v1.88h-7.5v1.88h-1.87v5.63h1.88v1.88h3.75V472.5H265v-1.87h5.63v7.5h-9.37v-1.87h-1.87v-1.87H257.5v-5.62h1.88v-1.87h1.88v-0.94Z"/><path class="cls-12" d="M276.25,465.94V465h9.38v1.88h-7.5v1.88h-1.87v5.63h1.88v1.88h3.75V472.5H280v-1.87h5.63v7.5h-9.37v-1.87h-1.87v-1.87H272.5v-5.62h1.88v-1.87h1.88v-0.94Z"/><path class="cls-12" d="M291.25,465.94V465h7.5v1.88h1.88v1.88h-3.75v-1.87h-3.75v1.88h-1.87v5.63h1.88v1.88h3.75v-1.87h3.75v1.88h-1.87v1.88h-7.5v-1.87h-1.87v-1.87H287.5v-5.62h1.88v-1.87h1.88v-0.94Z"/><path class="cls-12" d="M302.5,470.63V465h3.75v11.25h5.63V465h3.75v11.25h-1.87v1.88h-9.37v-1.87H302.5v-5.62Z"/><path class="cls-12" d="M319.38,465.94V465h11.25v1.88h-3.75v11.25h-3.75V466.88h-3.75v-0.94Z"/><path class="cls-12" d="M332.5,471.56V465h13.13v1.88h-9.37v3.75h7.5v1.88h-7.5v3.75h9.38v1.88H332.5v-6.56Z"/></svg>