<?xml version="1.0" ?><svg id="pkflt" viewBox="0 0 500 500" xmlns="http://www.w3.org/2000/svg"><defs><style>.cls-1{fill:#00a63c;}.cls-2{fill:#b77a51;}.cls-3{fill:#f9eea2;}.cls-4{fill:#fff8b0;}.cls-5{fill:#fff;}.cls-6{fill:#1a1a1a;}.cls-7{fill:#ed8599;}.cls-8{fill:#c18963;}.cls-9{opacity:0.1;}</style></defs><title/><path class="cls-1" d="M52,150.52s44.58,25.34,81.56,49a53.69,53.69,0,0,1,5.06-21.16C111.34,162.67,78.5,147.08,52,150.52Z"/><path class="cls-1" d="M168.48,69s46.38,52.25,59.11,80.1a42.37,42.37,0,0,1,9.05-6.54C227.13,122.91,200.16,73.35,168.48,69Z"/><path class="cls-1" d="M129.67,92.29s68.13,49.8,81.84,80.11a77.65,77.65,0,0,1,13-20.21C211.15,131.76,176.43,87.49,129.67,92.29Z"/><path class="cls-1" d="M215.06,76s21.85,42.52,25.35,64.86a27.22,27.22,0,0,1,9.58-1.79S238.35,83,215.06,76Z"/><path class="cls-1" d="M209.65,176.76l-0.49-.53c0.08,0.37.17,0.75,0.25,1.13Z"/><path class="cls-1" d="M90.85,118.69s33.5,18.71,62.16,40.54c7.64-6.68,16.59-10.91,25.07-11.8C153.89,128.36,121,110,90.85,118.69Z"/><path class="cls-2" d="M175.05,365.91c-9.43,11.79-22.11,28.68-25,37.69-4.81,14.75,22.56,26.4,22.56,26.4s19.21-13.2,19.21-18.63a229.3,229.3,0,0,1,2.83-27c-2.89-1.5-5.84-3.11-8.85-4.85C180.74,376.64,177.29,371.91,175.05,365.91Z"/><path class="cls-3" d="M145.57,182.37q3.43,2,6.71,4C150.46,184.16,148.17,182.35,145.57,182.37Z"/><path class="cls-3" d="M203.42,207.31c0-.22,0-0.45,0-0.67a85.36,85.36,0,0,1,6-29.27c-0.08-.38-0.16-0.75-0.25-1.13-3.88-17.46-12.67-29-27.83-29a31.45,31.45,0,0,0-3.26.19c-8.48.88-17.43,5.12-25.07,11.8a58.23,58.23,0,0,0-14.37,19.11,53.69,53.69,0,0,0-5.06,21.16c0,0.52,0,1,0,1.56,0,30.5,20.38,45.9,41.92,45.9a34.58,34.58,0,0,0,19.14-5.26,33.29,33.29,0,0,0,12.1-14.52q-0.47-1.36-.87-2.75A61.39,61.39,0,0,1,203.42,207.31Zm-11.65-7.2c-11.65-7.2-19.21-6.11-19.21-6.11a82.8,82.8,0,0,1,6.75-11.77C192.66,163.77,191.77,200.11,191.77,200.11ZM158,189.86c-0.34,1.41-.72,2.9-1.16,4.52a33,33,0,0,0-4.57-8q-3.27-2-6.71-4a5.82,5.82,0,0,0-1.92.34s0.3-.38.82-1C148.49,177,165.65,158.1,158,189.86Zm18.44,36c-0.78-.59-1-1.95-0.87-3.62-1.43,1.08-2.94,2.15-4.52,3.18C159.33,233,144.64,237.44,143.31,213c-1.15,1.22-2.26,1.92-3.16,1.56-2.08-.83-0.29-6,1.4-9.93,1.06-2.45,2.09-4.38,2.09-4.38l34.84,10.88,7.27,2.27S179.31,228,176.44,225.82Z"/><path class="cls-4" d="M223.71,221.27a7.37,7.37,0,0,0,6.88,3.67,10.56,10.56,0,0,0,4.24-1.45c3.78-2.15,9.79-3,15.16-3.24V139.07a27.22,27.22,0,0,0-9.58,1.79,32.66,32.66,0,0,0-3.77,1.71,42.37,42.37,0,0,0-9.05,6.54c-1,1-2.06,2-3.05,3.09a77.65,77.65,0,0,0-13,20.21q-1,2.15-1.86,4.37l-0.24.6a85.36,85.36,0,0,0-6,29.27c0,0.22,0,.45,0,0.67a61.39,61.39,0,0,0,2.42,17.11q0.4,1.39.87,2.75c6.84,19.9,23.64,34,43.29,34V237.5c-5.8-1-15.3-3.23-21.3-7.39l-4.32,4.47c-2.69-1.46-1.16-14.19-1.16-14.19Zm-7.3-33.46c-1.56-1.63-2.51-2.75-2.51-2.75l6-2.28,23.53-9C247.61,217.21,224.26,196,216.41,187.81Z"/><path class="cls-5" d="M243.4,173.81l-23.53,9-3.47,5C224.26,196,247.61,217.21,243.4,173.81Zm-5.82,8.9a2.74,2.74,0,1,1-2.74,2.74A2.74,2.74,0,0,1,237.58,182.71Z"/><path class="cls-5" d="M213.9,185.06s1,1.12,2.51,2.75l3.47-5Z"/><circle class="cls-6" cx="237.58" cy="185.45" r="2.74"/><path class="cls-7" d="M230.6,224.94s-0.87,2.63-1.9,5.16c6,4.17,15.5,6.37,21.3,7.39V220.25c-5.37.27-11.38,1.09-15.16,3.24A10.56,10.56,0,0,1,230.6,224.94Z"/><path class="cls-5" d="M223.71,221.27l-0.5-.88s-1.53,12.74,1.16,14.19l4.32-4.47c1-2.53,1.9-5.16,1.9-5.16A7.37,7.37,0,0,1,223.71,221.27Z"/><path class="cls-5" d="M191.77,200.11A49.36,49.36,0,0,0,183.52,187a2.72,2.72,0,0,1-3.25-2.69,2.72,2.72,0,0,1,.15-0.86l-1.11-1.2A82.8,82.8,0,0,0,172.56,194S180.13,192.9,191.77,200.11Z"/><path class="cls-5" d="M183,181.54a2.74,2.74,0,0,1,.51,5.43,49.36,49.36,0,0,1,8.25,13.13s0.89-36.33-12.46-17.88l1.11,1.2A2.73,2.73,0,0,1,183,181.54Z"/><path class="cls-5" d="M144.46,181.72l1.1,0.65c2.61,0,4.89,1.79,6.71,4l5.73,3.48C165.65,158.1,148.49,177,144.46,181.72Zm12.56-.93a2.74,2.74,0,1,1,2.74-2.74A2.74,2.74,0,0,1,157,180.79Z"/><path class="cls-5" d="M143.64,182.71a5.82,5.82,0,0,1,1.92-.34l-1.1-.65C143.94,182.33,143.64,182.71,143.64,182.71Z"/><path class="cls-5" d="M156.84,194.38c0.44-1.61.82-3.11,1.16-4.52l-5.73-3.48A33,33,0,0,1,156.84,194.38Z"/><path class="cls-6" d="M180.27,184.29a2.72,2.72,0,0,0,3.25,2.69q-1.46-1.76-3.1-3.55A2.72,2.72,0,0,0,180.27,184.29Z"/><path class="cls-6" d="M185.76,184.29a2.73,2.73,0,0,0-5.33-.86q1.63,1.79,3.1,3.55A2.74,2.74,0,0,0,185.76,184.29Z"/><circle class="cls-6" cx="157.02" cy="178.05" r="2.74"/><path class="cls-7" d="M143.31,213c1.33,24.43,16,20,27.75,12.37-6.25-5-14.69-10.92-24.23-17.26A30.07,30.07,0,0,1,143.31,213Z"/><path class="cls-7" d="M178.49,211.13l-34.84-10.88,6.36,2s-1.37,2.89-3.17,5.88c9.54,6.34,18,12.29,24.23,17.26,1.57-1,3.09-2.1,4.52-3.18C175.89,217.76,178.49,211.13,178.49,211.13Z"/><path class="cls-5" d="M143.28,205.77l-1.73-1.13c-1.69,3.9-3.49,9.1-1.4,9.93,0.9,0.36,2-.34,3.16-1.56C143.19,210.83,143.18,208.42,143.28,205.77Z"/><path class="cls-5" d="M143.64,200.25s-1,1.93-2.09,4.38l1.73,1.13C143.35,204,143.47,202.2,143.64,200.25Z"/><path class="cls-5" d="M143.28,205.77c-0.1,2.65-.09,5.06,0,7.24a30.07,30.07,0,0,0,3.52-4.89Z"/><path class="cls-5" d="M146.83,208.11c1.8-3,3.17-5.88,3.17-5.88l-6.36-2c-0.17,2-.29,3.78-0.36,5.52Z"/><path class="cls-5" d="M175.58,222.2c-0.12,1.67.08,3,.87,3.62,2.87,2.15,9.32-12.42,9.32-12.42A103.47,103.47,0,0,1,175.58,222.2Z"/><path class="cls-5" d="M185.76,213.4l-7.27-2.27s-2.6,6.63-2.91,11.07A103.47,103.47,0,0,0,185.76,213.4Z"/><path class="cls-8" d="M250,261.15c-19.66,0-36.46-14.08-43.29-34a33.29,33.29,0,0,1-12.1,14.52s-7.19,18.62-13.52,42.33c17.46,8.75,43.39,20.16,68.91,24.77V261.15Z"/><path class="cls-8" d="M172.24,330.43c-1.21,13.51-.71,26.06,2.81,35.48,2.24,6,5.69,10.73,10.71,13.62,3,1.74,6,3.35,8.85,4.85C226.49,401,250,403.6,250,403.6V350.25C229.37,345.78,196.46,338.19,172.24,330.43Z"/><path class="cls-2" d="M250,308.79c-25.53-4.61-51.45-16-68.91-24.77-3.9,14.6-7.47,31.12-8.84,46.41,24.21,7.75,57.13,15.35,77.76,19.82V308.79Z"/><path class="cls-1" d="M448,150.52s-44.58,25.34-81.56,49a53.69,53.69,0,0,0-5.06-21.16C388.69,162.67,421.53,147.08,448,150.52Z"/><path class="cls-1" d="M331.55,69s-46.38,52.25-59.11,80.1a42.37,42.37,0,0,0-9.05-6.54C272.9,122.91,299.87,73.35,331.55,69Z"/><path class="cls-1" d="M370.37,92.29s-68.13,49.8-81.84,80.11a77.65,77.65,0,0,0-13-20.21C288.88,131.76,323.6,87.49,370.37,92.29Z"/><path class="cls-1" d="M285,76s-21.85,42.52-25.35,64.86a27.22,27.22,0,0,0-9.58-1.79S261.68,83,285,76Z"/><path class="cls-1" d="M290.38,176.76l0.49-.53c-0.08.37-.17,0.75-0.25,1.13Z"/><path class="cls-1" d="M409.18,118.69s-33.5,18.71-62.16,40.54c-7.64-6.68-16.59-10.91-25.07-11.8C346.14,128.36,379,110,409.18,118.69Z"/><path class="cls-2" d="M325,365.91c9.43,11.79,22.11,28.68,25,37.69,4.81,14.75-22.56,26.4-22.56,26.4s-19.21-13.2-19.21-18.63a229.3,229.3,0,0,0-2.83-27c2.89-1.5,5.84-3.11,8.85-4.85C319.29,376.64,322.74,371.91,325,365.91Z"/><path class="cls-3" d="M354.47,182.37q-3.43,2-6.71,4C349.58,184.16,351.86,182.35,354.47,182.37Z"/><path class="cls-3" d="M294.2,224.42q-0.4,1.39-.87,2.75a33.29,33.29,0,0,0,12.1,14.52A34.58,34.58,0,0,0,324.56,247c21.55,0,41.92-15.41,41.92-45.9,0-.52,0-1,0-1.56a53.69,53.69,0,0,0-5.06-21.16A58.23,58.23,0,0,0,347,159.23c-7.64-6.68-16.59-10.91-25.07-11.8a31.45,31.45,0,0,0-3.26-.19c-15.16,0-23.94,11.54-27.83,29-0.08.37-.17,0.75-0.25,1.13a85.36,85.36,0,0,1,6,29.27c0,0.22,0,.45,0,0.67A61.39,61.39,0,0,1,294.2,224.42Zm26.52-42.2A82.8,82.8,0,0,1,327.47,194s-7.57-1.09-19.21,6.11C308.26,200.11,307.37,163.77,320.72,182.22Zm34.85-.5c0.52,0.61.82,1,.82,1a5.82,5.82,0,0,0-1.92-.34q-3.43,2-6.71,4a33,33,0,0,0-4.57,8c-0.44-1.61-.82-3.11-1.16-4.52C334.38,158.1,351.54,177,355.57,181.72Zm-41.3,31.68,7.27-2.27,34.84-10.88s1,1.93,2.09,4.38c1.69,3.9,3.49,9.1,1.4,9.93-0.9.36-2-.34-3.16-1.56-1.33,24.43-16,20-27.75,12.37-1.57-1-3.09-2.1-4.52-3.18,0.12,1.67-.08,3-0.87,3.62C320.72,228,314.27,213.4,314.27,213.4Z"/><path class="cls-4" d="M276.82,220.39s1.53,12.74-1.16,14.19l-4.33-4.47c-6,4.17-15.32,6.37-21.32,7.39v23.65c20,0,36.47-14.08,43.31-34,0.31-.9.61-1.82,0.88-2.75a61.39,61.39,0,0,0,2.42-17.11c0-.22,0-0.45,0-0.67a85.36,85.36,0,0,0-6-29.27l-0.24-.6q-0.87-2.21-1.85-4.37a77.65,77.65,0,0,0-13-20.21c-1-1.08-2-2.11-3.05-3.09a42.37,42.37,0,0,0-9.05-6.54,32.88,32.88,0,0,0-3.78-1.71,28.54,28.54,0,0,0-9.6-1.79v81.18c5,0.27,11.4,1.09,15.18,3.24a10.59,10.59,0,0,0,4.25,1.45,7.38,7.38,0,0,0,6.89-3.67Zm-20.19-46.58,23.53,9,6,2.28s-1,1.12-2.51,2.75C275.77,196,252.42,217.21,256.63,173.81Z"/><path class="cls-5" d="M283.62,187.81l-3.47-5-23.53-9C252.42,217.21,275.77,196,283.62,187.81Zm-18.43-2.36a2.74,2.74,0,1,1-2.74-2.74A2.74,2.74,0,0,1,265.2,185.45Z"/><path class="cls-5" d="M286.13,185.06s-1,1.12-2.51,2.75l-3.47-5Z"/><circle class="cls-6" cx="262.45" cy="185.45" r="2.74"/><path class="cls-7" d="M269.43,224.94s0.85,2.63,1.88,5.16c-6,4.17-15.32,6.37-21.32,7.39V220.25c5,0.27,11.4,1.09,15.18,3.24A10.62,10.62,0,0,0,269.43,224.94Z"/><path class="cls-5" d="M276.32,221.27l0.5-.88s1.53,12.74-1.16,14.19l-4.32-4.47c-1-2.53-1.9-5.16-1.9-5.16A7.37,7.37,0,0,0,276.32,221.27Z"/><path class="cls-5" d="M308.26,200.11A49.36,49.36,0,0,1,316.51,187a2.72,2.72,0,0,0,3.25-2.69,2.72,2.72,0,0,0-.15-0.86l1.11-1.2A82.8,82.8,0,0,1,327.47,194S319.9,192.9,308.26,200.11Z"/><path class="cls-5" d="M317,181.54a2.74,2.74,0,0,0-.51,5.43,49.36,49.36,0,0,0-8.25,13.13s-0.89-36.33,12.46-17.88l-1.11,1.2A2.73,2.73,0,0,0,317,181.54Z"/><path class="cls-5" d="M342,189.86l5.73-3.48c1.82-2.22,4.1-4,6.71-4l1.1-.65C351.54,177,334.38,158.1,342,189.86Zm-1.76-11.81a2.74,2.74,0,1,1,2.74,2.74A2.74,2.74,0,0,1,340.27,178.05Z"/><path class="cls-5" d="M356.39,182.71a5.82,5.82,0,0,0-1.92-.34l1.1-.65C356.09,182.33,356.39,182.71,356.39,182.71Z"/><path class="cls-5" d="M343.19,194.38c-0.44-1.61-.82-3.11-1.16-4.52l5.73-3.48A33,33,0,0,0,343.19,194.38Z"/><path class="cls-6" d="M319.76,184.29a2.72,2.72,0,0,1-3.25,2.69q1.46-1.76,3.1-3.55A2.72,2.72,0,0,1,319.76,184.29Z"/><path class="cls-6" d="M314.27,184.29a2.73,2.73,0,0,1,5.33-.86q-1.63,1.79-3.1,3.55A2.74,2.74,0,0,1,314.27,184.29Z"/><circle class="cls-6" cx="343.01" cy="178.05" r="2.74"/><path class="cls-7" d="M356.72,213c-1.33,24.43-16,20-27.75,12.37,6.25-5,14.69-10.92,24.23-17.26A30.07,30.07,0,0,0,356.72,213Z"/><path class="cls-7" d="M321.55,211.13l34.84-10.88-6.36,2s1.37,2.89,3.17,5.88c-9.54,6.34-18,12.29-24.23,17.26-1.57-1-3.09-2.1-4.52-3.18C324.14,217.76,321.55,211.13,321.55,211.13Z"/><path class="cls-5" d="M356.75,205.77l1.73-1.13c1.69,3.9,3.49,9.1,1.4,9.93-0.9.36-2-.34-3.16-1.56C356.84,210.83,356.85,208.42,356.75,205.77Z"/><path class="cls-5" d="M356.39,200.25s1,1.93,2.09,4.38l-1.73,1.13C356.68,204,356.56,202.2,356.39,200.25Z"/><path class="cls-5" d="M356.75,205.77c0.1,2.65.09,5.06,0,7.24a30.07,30.07,0,0,1-3.52-4.89Z"/><path class="cls-5" d="M353.2,208.11c-1.8-3-3.17-5.88-3.17-5.88l6.36-2c0.17,2,.29,3.78.36,5.52Z"/><path class="cls-5" d="M324.46,222.2c0.12,1.67-.08,3-0.87,3.62-2.87,2.15-9.32-12.42-9.32-12.42A103.47,103.47,0,0,0,324.46,222.2Z"/><path class="cls-5" d="M314.27,213.4l7.27-2.27s2.6,6.63,2.91,11.07A103.47,103.47,0,0,1,314.27,213.4Z"/><path class="cls-8" d="M250,261.15c20,0,36.47-14.08,43.31-34a33.3,33.3,0,0,0,12.11,14.52s7.18,18.62,13.51,42.33C301.46,292.77,276,304.18,250,308.79V261.15Z"/><path class="cls-8" d="M327.77,330.43c1.21,13.51.72,26.06-2.8,35.48-2.24,6-5.69,10.73-10.7,13.62-3,1.74-6,3.35-8.86,4.85C273.52,401,250,403.6,250,403.6V350.25C271,345.78,303.56,338.19,327.77,330.43Z"/><path class="cls-2" d="M250,308.79c26-4.61,51.47-16,68.93-24.77,3.9,14.6,7.46,31.12,8.84,46.41C303.55,338.19,271,345.78,250,350.25V308.79Z"/><g class="cls-9"><path class="cls-6" d="M448,150.52c-26.47-3.44-59.31,12.15-86.62,27.82A58.23,58.23,0,0,0,347,159.23c28.67-21.83,62.16-40.54,62.16-40.54-30.15-8.67-63,9.67-87.23,28.74a31.46,31.46,0,0,0-3.26-.19c-15.16,0-23.94,11.54-27.83,29l-0.49.53,0.24,0.6a85.36,85.36,0,0,1,6,29.27c0,0.22,0,.45,0,0.67a61.4,61.4,0,0,1-2.42,17.11q-0.4,1.39-.87,2.75a33.29,33.29,0,0,0,12.1,14.52A34.58,34.58,0,0,0,324.56,247c21.55,0,41.92-15.41,41.92-45.9,0-.52,0-1,0-1.56C403.42,175.86,448,150.52,448,150.52Z"/><path class="cls-6" d="M272.43,149.1C285.17,121.25,331.55,69,331.55,69c-31.68,4.35-58.65,53.91-68.17,73.56A42.37,42.37,0,0,1,272.43,149.1Z"/><path class="cls-6" d="M275.49,152.18a77.65,77.65,0,0,1,13,20.21c13.71-30.31,81.84-80.11,81.84-80.11C323.6,87.49,288.88,131.76,275.49,152.18Z"/><path class="cls-6" d="M285,76C261.68,83,250,139.07,250,139.07a27.22,27.22,0,0,1,9.58,1.79C263.11,118.51,285,76,285,76Z"/><path class="cls-6" d="M325,365.91c-2.24,6-5.69,10.73-10.71,13.62-3,1.74-6,3.35-8.85,4.85a229.29,229.29,0,0,1,2.83,27c0,5.43,19.21,18.63,19.21,18.63s27.37-11.65,22.56-26.4C347.09,394.6,334.41,377.71,325,365.91Z"/><path class="cls-6" d="M305.42,241.69a33.3,33.3,0,0,1-12.11-14.52c0.31-.9.61-1.82,0.88-2.75a61.4,61.4,0,0,0,2.42-17.11c0-.22,0-0.45,0-0.67a85.37,85.37,0,0,0-6-29.27l-0.24-.6q-0.87-2.21-1.85-4.37a77.65,77.65,0,0,0-13-20.21c-1-1.08-2-2.11-3.05-3.09a42.37,42.37,0,0,0-9.05-6.54,32.82,32.82,0,0,0-3.78-1.71,28.54,28.54,0,0,0-9.6-1.79V261.15h0v47.65c26-4.61,51.46-16,68.93-24.77C312.59,260.31,305.42,241.69,305.42,241.69ZM270.12,225a7.49,7.49,0,0,0,6.2-3.71l0.5-.88-0.5.88A7.48,7.48,0,0,1,270.12,225Zm-0.68,0h0s0.87,2.63,1.9,5.16l4.32,4.47-4.33-4.47C270.29,227.57,269.44,224.95,269.43,224.94Z"/><path class="cls-6" d="M325,365.91c3.52-9.42,4-22,2.8-35.48C304.32,337.94,273,345.3,252,349.83c21-4.52,52.31-11.88,75.76-19.39-1.37-15.3-4.94-31.82-8.84-46.41C301.47,292.77,276,304.18,250,308.79V403.6s23.52-2.62,55.41-19.22c2.89-1.5,5.85-3.11,8.86-4.85C319.28,376.64,322.73,371.91,325,365.91Z"/></g><path class="cls-8" d="M158.13,465.94V465h3.75v11.25h3.75v1.88H154.38v-1.87h3.75v-7.5h-1.87v-1.87h1.88v-0.94Z"/><path class="cls-8" d="M171.25,465.94V465h5.63v1.88h1.88v1.88h1.88v5.63h-1.87v1.88h-1.87v1.88h-5.62v-1.87h-1.87v-1.87H167.5v-5.62h1.88v-1.87h1.88v-0.94Zm3.75,1.88v-0.94h-3.75v7.5h1.88v1.88h3.75v-7.5H175v-0.94Z"/><path class="cls-8" d="M184.38,465.94V465h11.25v1.88h-1.87v1.88h-1.87v1.88h1.88v1.88h1.88v3.75h-1.87v1.88h-9.37v-1.87H182.5v-1.87h3.75v1.88h5.63V472.5h-5.62v-1.87h1.88v-1.87H190v-1.87h-5.62v-0.94Z"/><path class="cls-8" d="M212.5,471.56V465h13.13v1.88h-9.37v3.75h7.5v1.88h-7.5v3.75h9.38v1.88H212.5v-6.56Z"/><path class="cls-8" d="M227.5,466.88V465h3.75v1.88h1.88v1.88H235v-1.87h1.88V465h3.75v3.75h-1.87v1.88h-1.87v1.88h1.88v1.88h1.88v3.75h-3.75v-1.87H235v-1.87h-1.87v1.88h-1.87v1.88H227.5v-3.75h1.88V472.5h1.88v-1.87h-1.87v-1.87H227.5v-1.87Z"/><path class="cls-8" d="M242.5,471.56V465h13.13v1.88h-9.37v3.75h7.5v1.88h-7.5v3.75h9.38v1.88H242.5v-6.56Z"/><path class="cls-8" d="M261.25,465.94V465h9.38v1.88h-7.5v1.88h-1.87v5.63h1.88v1.88h3.75V472.5H265v-1.87h5.63v7.5h-9.37v-1.87h-1.87v-1.87H257.5v-5.62h1.88v-1.87h1.88v-0.94Z"/><path class="cls-8" d="M276.25,465.94V465h9.38v1.88h-7.5v1.88h-1.87v5.63h1.88v1.88h3.75V472.5H280v-1.87h5.63v7.5h-9.37v-1.87h-1.87v-1.87H272.5v-5.62h1.88v-1.87h1.88v-0.94Z"/><path class="cls-8" d="M287.5,470.63V465h3.75v11.25h5.63V465h3.75v11.25h-1.87v1.88h-9.37v-1.87H287.5v-5.62Z"/><path class="cls-8" d="M304.38,465.94V465h11.25v1.88h-3.75v11.25h-3.75V466.88h-3.75v-0.94Z"/><path class="cls-8" d="M319.38,465.94V465h9.38v1.88h1.88v9.38h-1.87v1.88h-9.37v-1.87H317.5v-9.37h1.88v-0.94Zm7.5,5.63v-4.69h-5.62v9.38h5.63v-4.69Z"/><path class="cls-8" d="M332.5,471.56V465h11.25v1.88h1.88v5.63h-3.75v1.88h1.88v1.88h1.88v1.88H340v-1.87h-1.87v-1.87h-1.87v3.75H332.5v-6.56Zm9.38-2.81v-1.87h-5.62v5.63H340v-1.87h1.88v-1.87Z"/></svg>