<?xml version="1.0" ?><svg id="pkflt" viewBox="0 0 500 500" xmlns="http://www.w3.org/2000/svg"><defs><style>.cls-1{fill:#e6e6e6;}.cls-2{fill:#a37035;}.cls-10,.cls-3{fill:#1a1a1a;}.cls-4{fill:#fff;}.cls-5{fill:#333;}.cls-6{fill:#e6aa46;}.cls-7{fill:#f6e2b5;}.cls-8{fill:#ccc;}.cls-9{fill:#fca547;}.cls-10{opacity:0.1;}</style></defs><title/><path class="cls-1" d="M215,132.12c-9.67,6-20-12.33-31-11.67s-20,20.67-20,20.67,15.33,23,14.33,31.67-1.67,44.51,3,49.25c2.78,2.83,10.54,10.73,17.13,17.5,4.46,4.58,8.38,8.63,9.86,10.25,3.68,4,8.79,14.67,8.79,14.67l0.59,0.49a10.28,10.28,0,0,1,6.89-2.65c0.27,0,.54,0,0.81,0a10.31,10.31,0,0,1,8.06,15.57l9.19,7.56,7.33,4.67v-162S224.67,126.12,215,132.12Zm-15,96c-6-9.25-23.56-35.59-5.22-35.55a28.69,28.69,0,0,1,5.22.55,29.48,29.48,0,0,1,16.24,9.06,46,46,0,0,1,8.36,13c0.66,1.5,1.25,3,1.76,4.44A71.82,71.82,0,0,1,230,235.12S206.5,238.12,200,228.12Z"/><path class="cls-2" d="M220.82,222.92a3.91,3.91,0,1,1-7.63,1.21s0,0,0,0c-10.89-.68-19.54-11.06-19.54-23.78a27.06,27.06,0,0,1,1.12-7.74c-18.33,0-.79,26.31,5.22,35.55,6.5,10,30,7,30,7a71.82,71.82,0,0,0-3.64-15.46A19.78,19.78,0,0,1,220.82,222.92Z"/><path class="cls-3" d="M213.2,224.09a3.91,3.91,0,0,1,7.63-1.17,19.78,19.78,0,0,0,5.54-3.25c-0.51-1.45-1.1-2.94-1.76-4.44a7.77,7.77,0,0,1-8.36-13A29.48,29.48,0,0,0,200,193.12a28.69,28.69,0,0,0-5.22-.55,27.06,27.06,0,0,0-1.12,7.74C193.65,213,202.31,223.41,213.2,224.09Z"/><path class="cls-4" d="M213.19,208.35a7.77,7.77,0,0,0,11.41,6.88,46,46,0,0,0-8.36-13A7.76,7.76,0,0,0,213.19,208.35Z"/><path class="cls-4" d="M213.2,224.09s0,0,0,0a3.92,3.92,0,1,0,7.63-1.21,18.14,18.14,0,0,1-6.5,1.21C213.95,224.12,213.57,224.11,213.2,224.09Z"/><path class="cls-4" d="M217.11,220.2a3.92,3.92,0,0,0-3.92,3.88c0.37,0,.75,0,1.13,0a18.14,18.14,0,0,0,6.5-1.21A3.91,3.91,0,0,0,217.11,220.2Z"/><path class="cls-5" d="M233.47,277.9a10.32,10.32,0,0,0-8.06-15.57c-0.27,0-.54,0-0.81,0a10.28,10.28,0,0,0-6.89,2.65l3,2.49Z"/><path class="cls-6" d="M202.21,309c0.64-2,1.3-4.36,2-6.54a127.2,127.2,0,0,1-9.54-8.61c-16.54-16.54-9.46-18-4.19-23.26s6.74-12.35,23.28,4.2l1.14,1.16a45.61,45.61,0,0,1,5.84-8.51l-3-2.49-0.59-.48s-5.11-10.67-8.79-14.67c-1.48-1.61-5.41-5.67-9.86-10.25l-1.38-1.17s-16.3,34.72-17.61,67.75A10.94,10.94,0,0,1,180,309h22.23Z"/><path class="cls-6" d="M196.65,330.68c0.2-.87.4-1.68,0.61-2.68h-16c0.22,1,.46,1.92.72,2.83l-9.09,17.26s-3.93,7-5.93,10-20,15.51-10.5,20,46.47-3,46.47-3,2.14-.93,7-7c1.15-1.42,1.2-4.09.61-7.32a44.28,44.28,0,0,1-18-11C193.67,344.35,195,337.75,196.65,330.68Z"/><polygon class="cls-6" points="220.74 267.44 217.71 264.94 220.74 267.44 220.74 267.44"/><path class="cls-7" d="M202.21,309h11c-2.9-2-5.95-4.08-9-6.61C203.52,304.57,202.85,307,202.21,309Z"/><path class="cls-7" d="M233.47,277.9l-12.73-10.47a45,45,0,0,0-5.84,8.45C227.14,288.42,235.05,301,235.61,309H250V290.12l-7.33-4.67Z"/><polygon class="cls-7" points="220.74 267.44 233.47 277.9 220.74 267.44 220.74 267.44"/><path class="cls-7" d="M197.27,328c-0.21,1-.41,1.82-0.61,2.68-1.63,7.07-3,13.67-4,19.09a44.26,44.26,0,0,0,18,11c10,3.37,22.9,4.59,39.39,2.84V328H197.27Z"/><path class="cls-8" d="M235.61,309a6.62,6.62,0,0,1-1.46,5.16c-3.27,3.27-11.32.84-20.91-5.16H180a10.94,10.94,0,0,0-.51-2.88,11.23,11.23,0,1,0-16.93,12.64,11.2,11.2,0,0,0,6.21,20.55A11.45,11.45,0,0,0,180,328h70V309H235.61Z"/><path class="cls-9" d="M235.61,309.12c-0.56-7.63-8.48-20.64-20.72-33.18l-1.14-1.16c-16.54-16.54-18-9.46-23.28-4.19s-12.35,6.74,4.19,23.28a127.82,127.82,0,0,0,9.54,8.64,98.8,98.8,0,0,0,9,6.61c9.59,6.15,17.64,8.43,20.91,5.16C235.32,313.12,235.78,311.35,235.61,309.12Z"/><path class="cls-1" d="M250,128.12v162l7.21-4.67,9.13-7.56a10.27,10.27,0,0,1,8-15.57c0.27,0,.53,0,0.81,0a10.28,10.28,0,0,1,6.89,2.65l0.59-.49s5.11-10.67,8.79-14.67c1.48-1.61,5.41-5.67,9.86-10.25,6.59-6.77,14.34-14.67,17.13-17.5,4.67-4.75,4-40.59,3-49.25s14.33-31.67,14.33-31.67-9-20-20-20.67-21.21,17.67-30.87,11.67S250,128.12,250,128.12Zm19.75,107a71.82,71.82,0,0,1,3.64-15.46c0.51-1.45,1.1-2.94,1.76-4.44a46,46,0,0,1,8.36-13,29.48,29.48,0,0,1,16.24-9.06,28.69,28.69,0,0,1,5.22-.55c18.33,0,.79,26.31-5.22,35.55C293.25,238.12,269.75,235.12,269.75,235.12Z"/><path class="cls-2" d="M278.92,222.92a3.91,3.91,0,1,0,7.63,1.21s0,0,0,0c10.89-.68,19.54-11.06,19.54-23.78a27.06,27.06,0,0,0-1.12-7.74c18.33,0,.79,26.31-5.22,35.55-6.5,10-30,7-30,7a71.82,71.82,0,0,1,3.64-15.46A19.78,19.78,0,0,0,278.92,222.92Z"/><path class="cls-3" d="M286.55,224.09a3.91,3.91,0,0,0-7.63-1.17,19.78,19.78,0,0,1-5.54-3.25c0.51-1.45,1.1-2.94,1.76-4.44a7.77,7.77,0,0,0,8.36-13,29.48,29.48,0,0,1,16.24-9.06,28.69,28.69,0,0,1,5.22-.55,27.06,27.06,0,0,1,1.12,7.74C306.09,213,297.44,223.41,286.55,224.09Z"/><path class="cls-4" d="M286.56,208.35a7.77,7.77,0,0,1-11.41,6.88,46,46,0,0,1,8.36-13A7.76,7.76,0,0,1,286.56,208.35Z"/><path class="cls-4" d="M286.55,224.09s0,0,0,0a3.92,3.92,0,1,1-7.63-1.21,18.14,18.14,0,0,0,6.5,1.21C285.8,224.12,286.18,224.11,286.55,224.09Z"/><path class="cls-4" d="M282.64,220.2a3.92,3.92,0,0,1,3.92,3.88c-0.37,0-.75,0-1.13,0a18.14,18.14,0,0,1-6.5-1.21A3.91,3.91,0,0,1,282.64,220.2Z"/><path class="cls-5" d="M266.28,277.9a10.32,10.32,0,0,1,8.06-15.57c0.27,0,.54,0,0.81,0a10.28,10.28,0,0,1,6.89,2.65l-3,2.49Z"/><path class="cls-6" d="M297.54,309c-0.64-2-1.3-4.36-2-6.54a127.2,127.2,0,0,0,9.54-8.61c16.54-16.54,9.46-18,4.19-23.26s-6.74-12.35-23.28,4.2l-1.14,1.16a45.61,45.61,0,0,0-5.84-8.51l3-2.49,0.59-.48s5.11-10.67,8.79-14.67c1.48-1.61,5.41-5.67,9.86-10.25l1.38-1.17s16.3,34.72,17.61,67.75a10.94,10.94,0,0,0-.51,2.88H297.54Z"/><path class="cls-6" d="M303.1,330.68c-0.2-.87-0.4-1.68-0.61-2.68h16c-0.22,1-.46,1.92-0.72,2.83l9.09,17.26s3.93,7,5.93,10,20,15.51,10.5,20-46.47-3-46.47-3-2.14-.93-7-7c-1.15-1.42-1.2-4.09-.61-7.32a44.28,44.28,0,0,0,18-11C306.08,344.35,304.72,337.75,303.1,330.68Z"/><polygon class="cls-6" points="279.01 267.44 282.05 264.94 279.01 267.44 279.01 267.44"/><path class="cls-7" d="M297.54,309h-11c2.9-2,5.95-4.08,9-6.61C296.23,304.57,296.9,307,297.54,309Z"/><path class="cls-7" d="M266.28,277.9L279,267.43a45,45,0,0,1,5.84,8.45C272.61,288.42,264.7,301,264.14,309H250V290.12l7.21-4.67Z"/><polygon class="cls-7" points="279.01 267.44 266.28 277.9 279.01 267.44 279.01 267.44"/><path class="cls-7" d="M302.48,328c0.21,1,.41,1.82.61,2.68,1.63,7.07,3,13.67,4,19.09a43.76,43.76,0,0,1-17.87,11c-10,3.37-23.26,4.59-39.26,2.84V328h52.48Z"/><path class="cls-8" d="M264.14,309a6.62,6.62,0,0,0,1.46,5.16c3.27,3.27,11.32.84,20.91-5.16h33.27a10.94,10.94,0,0,1,.51-2.88,11.23,11.23,0,1,1,16.93,12.64A11.2,11.2,0,0,1,331,339.31,11.45,11.45,0,0,1,319.75,328H250V309h14.14Z"/><path class="cls-9" d="M264.14,309.12c0.56-7.63,8.48-20.64,20.72-33.18l1.14-1.16c16.54-16.54,18-9.46,23.28-4.19s12.35,6.74-4.19,23.28a127.82,127.82,0,0,1-9.54,8.64,98.8,98.8,0,0,1-9,6.61c-9.59,6.15-17.64,8.43-20.91,5.16C264.43,313.12,264,311.35,264.14,309.12Z"/><path class="cls-10" d="M332.75,358.12c-2-3-5.93-10-5.93-10l-9.09-17.3c0.26-.91.5-1.83,0.72-2.83h1.3A11.45,11.45,0,0,0,331,339.32a11.21,11.21,0,0,0,6.21-20.56,11.21,11.21,0,1,0-16.93-12.57,11.41,11.41,0,0,0-.51,2.94,11.25,11.25,0,0,1,.51-2.94c-1.31-33-17.61-67.81-17.61-67.81l-1.38,1.17c6.59-6.77,14.34-14.67,17.13-17.5,4.67-4.75,4-40.59,3-49.25s14.33-31.67,14.33-31.67-9-20-20-20.67-21.21,17.67-30.87,11.67-34.87-4-34.87-4v235.5c15.93,1.75,29.15.55,39.13-2.78-0.58,3.21-.52,5.87.62,7.28,4.89,6.06,7,7,7,7s37,7.5,46.47,3S334.75,361.12,332.75,358.12Zm-57.6-96h0Zm-11,47c0.56-8,8.48-20.64,20.72-33.18C272.61,288.49,264.7,301.5,264.14,309.12Zm32.24-3.85c0.39,1.28.78,2.56,1.16,3.85C297.16,307.94,296.77,306.61,296.38,305.28Zm6.1,22.85c0.21,0.88.41,1.75,0.61,2.62C302.9,329.88,302.69,329.12,302.48,328.12Z"/><path class="cls-6" d="M180.63,465.94V465h3.75v11.25h3.75v1.88H176.88v-1.87h3.75v-7.5h-1.87v-1.87h1.88v-0.94Z"/><path class="cls-6" d="M193.75,465.94V465h5.63v1.88h1.88v1.88h1.88v5.63h-1.87v1.88h-1.87v1.88h-5.62v-1.87h-1.87v-1.87H190v-5.62h1.88v-1.87h1.88v-0.94Zm3.75,1.88v-0.94h-3.75v7.5h1.88v1.88h3.75v-7.5H197.5v-0.94Z"/><path class="cls-6" d="M210.63,465.94V465h5.63v7.5h1.88v1.88h-1.87v3.75H212.5v-3.75H205v-3.75h1.88v-1.87h1.88v-1.87h1.88v-0.94Zm1.88,4.69v-1.87h-1.87v1.88h-1.87v1.88h3.75v-1.87Z"/><path class="cls-6" d="M238.75,465.94V465h7.5v1.88h1.88v1.88h-3.75v-1.87h-3.75v1.88h-1.87v5.63h1.88v1.88h3.75v-1.87h3.75v1.88h-1.87v1.88h-7.5v-1.87h-1.87v-1.87H235v-5.62h1.88v-1.87h1.88v-0.94Z"/><path class="cls-6" d="M250,470.63V465h3.75v11.25h5.63V465h3.75v11.25h-1.87v1.88h-9.37v-1.87H250v-5.62Z"/><path class="cls-6" d="M265,471.56V465h11.25v1.88h1.88v3.75h-1.87v1.88h1.88v3.75h-1.87v1.88H265v-6.56Zm9.38-2.81v-1.87h-5.62v3.75h5.63v-1.87Zm0,5.63V472.5h-5.62v3.75h5.63v-1.87Z"/><path class="cls-6" d="M281.88,465.94V465h9.38v1.88h1.88v9.38h-1.87v1.88h-9.37v-1.87H280v-9.37h1.88v-0.94Zm7.5,5.63v-4.69h-5.62v9.38h5.63v-4.69Z"/><path class="cls-6" d="M295,471.56V465h3.75v1.88h1.88v1.88h1.88v1.88h1.88V465h3.75v13.13h-3.75v-1.87H302.5v-1.87h-1.87V472.5h-1.87v5.63H295v-6.56Z"/><path class="cls-6" d="M310,471.56V465h13.13v1.88h-9.37v3.75h7.5v1.88h-7.5v3.75h9.38v1.88H310v-6.56Z"/></svg>