<?xml version="1.0" ?><svg id="pkflt" viewBox="0 0 500 500" xmlns="http://www.w3.org/2000/svg"><defs><style>.cls-1{fill:none;}.cls-2{fill:#dddbd7;}.cls-3{fill:#666;}.cls-4{fill:#fff;}.cls-5{fill:#7e685d;}.cls-6,.cls-9{fill:#1a1a1a;}.cls-7{fill:#f9f0ab;}.cls-8{fill:#cf7100;}.cls-9{opacity:0.1;}</style></defs><title/><path class="cls-1" d="M224.69,215.86c-0.19-.59-0.38-1.19-0.56-1.75-0.27-.8-0.54-1.55-0.81-2.27,0.27,0.74.54,1.5,0.81,2.3C224.32,214.7,224.51,215.27,224.69,215.86Z"/><path class="cls-1" d="M204.49,358.93q-0.1-1.51-.17-3.07Q204.39,357.43,204.49,358.93Z"/><path class="cls-1" d="M204.72,361.88c-0.05-.6-0.1-1.23-0.15-1.85C204.62,360.65,204.67,361.27,204.72,361.88Z"/><path class="cls-1" d="M206.42,374.34l0-.14Z"/><path class="cls-1" d="M205.32,367.35c0-.38-0.09-0.78-0.14-1.17C205.23,366.56,205.27,367,205.32,367.35Z"/><path class="cls-1" d="M229.31,233.4c0.23,1.06.46,2.14,0.69,3.26,0,0,10.72,5.1,17.42,5.26-6.7-.16-17.41-5.26-17.41-5.26-0.23-1.12-.45-2.2-0.68-3.26s-0.46-2.16-.7-3.2c0-.05,0-0.11,0-0.16s0,0.11,0,.16C228.83,231.24,229.07,232.3,229.31,233.4Z"/><path class="cls-1" d="M228,227.12a13.76,13.76,0,0,0,.62,2.92A13.8,13.8,0,0,1,228,227.12Z"/><path class="cls-1" d="M206,372.18l-0.07-.41Z"/><path class="cls-1" d="M205,364.69c-0.05-.49-0.1-1-0.15-1.51C204.9,363.68,204.95,364.2,205,364.69Z"/><path class="cls-1" d="M205.67,369.85c0-.26-0.07-0.53-0.11-0.8C205.6,369.31,205.63,369.59,205.67,369.85Z"/><path class="cls-2" d="M138.3,300.2a11.87,11.87,0,0,1-5-.68l4.31,30.56a10,10,0,1,0,10.15,14.71,10,10,0,1,0,5.69-16.94l-4.15-29.41a11.87,11.87,0,0,1-4.34,1.22Z"/><path class="cls-2" d="M141.7,259.8a11.89,11.89,0,0,1,2.14,0l-11.43-81.07a10,10,0,1,0-10.15-14.71A10,10,0,1,0,116.57,181l11.6,82.27a11.9,11.9,0,0,1,6.88-2.93Z"/><path class="cls-1" d="M229.31,233.4c-0.24-1.1-.48-2.16-0.72-3.2Q228.95,231.76,229.31,233.4Z"/><path class="cls-2" d="M215.72,110L167.5,67l20.83,75.67L180,160l2.67,1.68,5.67-1.68-6,9.64,7.67,15,8.33-4.67s7.67,9,6.67,11.67,3.75,3,3.75,3,5-2.63,11.24,9.37l0.3,0.66a72.78,72.78,0,0,1,3,7.18c0.27,0.72.54,1.46,0.81,2.27,0.19,0.55.38,1.16,0.56,1.75l0.19,0.6,0.38,1.21,0.23,0.74q0.25,0.82.49,1.68l0.33,1.17,0.2,0.72c0.12,0.45.25,0.9,0.37,1.36l0.11,0.4c0.28,1.07.56,2.14,0.84,3.28a0.1,0.1,0,0,0,0,0H228v0.12h0a13.8,13.8,0,0,0,.62,2.92c0,0.05,0,.11,0,0.16,0.24,1,.46,2.1.7,3.2s0.45,2.14.68,3.26c0,0,10.71,5.1,17.41,5.26a10,10,0,0,0,2-.13l0.59-.13V101S226.44,98,215.72,110ZM233,176.5L224.24,172l-2.55-1.31-10.07-5.18-1.87-19,8.92,7.29,4.54,3.71,2.05,1.68,4.41,3.6L233,165.5v11Zm5.62,41H238.5a1,1,0,0,1-1-.88l-4.5-37a1,1,0,0,1,2-.24l4.5,37A1,1,0,0,1,238.62,217.49Z"/><path class="cls-3" d="M233.88,178.51a1,1,0,0,0-.87,1.11l4.5,37a1,1,0,0,0,1,.88h0.12a1,1,0,0,0,.87-1.11l-4.5-37A1,1,0,0,0,233.88,178.51Z"/><path class="cls-4" d="M218.67,153.79l-8.92-7.29,1.88,19,10.07,5.18c-2-2.19-3.35-6.91-3.35-12.39A30.85,30.85,0,0,1,218.67,153.79Z"/><path class="cls-4" d="M224.24,172L233,176.5v-11l-3.33-2.72C228.89,168.1,226.76,171.93,224.24,172Z"/><path class="cls-5" d="M229.67,162.78l-4.41-3.6L224,165.85l-0.8-8.35-4.54-3.71a30.85,30.85,0,0,0-.33,4.49c0,5.48,1.37,10.2,3.35,12.39l2.55,1.31C226.76,171.93,228.89,168.1,229.67,162.78Z"/><polygon class="cls-6" points="225.27 159.18 223.21 157.5 224.01 165.85 225.27 159.18"/><path class="cls-1" d="M205.37,333.53a100.71,100.71,0,0,1,3.38-15.2c8.73-28.38,18-72.45,20.56-84.93-2.56,12.48-11.83,56.54-20.56,84.92A100.54,100.54,0,0,0,205.37,333.53Z"/><path class="cls-7" d="M247.42,241.93c-6.7-.16-17.42-5.26-17.42-5.26-0.23-1.12-.46-2.2-0.69-3.26-2.56,12.48-11.83,56.55-20.56,84.93a100.71,100.71,0,0,0-3.38,15.2,119.79,119.79,0,0,0-1,22.35,134.3,134.3,0,0,0,2.5,20.46l0.1,0.08a0.83,0.83,0,0,1,0,.11A68.94,68.94,0,0,0,220,384.65a107.75,107.75,0,0,0,30,8.85V241.67l-0.59.13A10,10,0,0,1,247.42,241.93Z"/><path class="cls-7" d="M249.41,241.8a10,10,0,0,1-2,.13A10,10,0,0,0,249.41,241.8Z"/><path class="cls-2" d="M172.05,420s-45.5,27.35,28,13.68C200,430.18,172.05,420,172.05,420Z"/><path class="cls-8" d="M227.93,227.12H228a13.76,13.76,0,0,0,.62,2.92c0,0.05,0,.11,0,0.16s0-.11,0-0.16a13.83,13.83,0,0,1-.64-2.92h0l0,0Z"/><path class="cls-8" d="M206.91,376.53l-0.08-.06v-0.05c-0.13-.66-0.27-1.35-0.4-2.08l0-.14c-0.12-.65-0.24-1.32-0.36-2l-0.07-.41c-0.1-.63-0.21-1.26-0.3-1.92,0-.26-0.07-0.53-0.11-0.8-0.08-.56-0.16-1.12-0.24-1.71,0-.38-0.09-0.78-0.14-1.17s-0.12-1-.18-1.49-0.1-1-.15-1.51-0.09-.86-0.13-1.3c-0.05-.6-0.1-1.23-0.15-1.85,0-.37-0.06-0.72-0.09-1.09q-0.1-1.51-.17-3.07a120,120,0,0,1,1-22.33,100.54,100.54,0,0,1,3.38-15.21c8.73-28.38,18-72.44,20.56-84.92q-0.36-1.65-.72-3.2c0-.05,0-0.11,0-0.16a13.76,13.76,0,0,1-.62-2.92h0s-0.08,0-.08,0c-0.28-1.14-.6-2.24-0.88-3.31,0-.14-0.09-0.28-0.13-0.41-0.12-.46-0.26-0.92-0.38-1.37l-0.2-.72L226,220.1c-0.17-.57-0.33-1.13-0.5-1.68l-0.23-.74-0.38-1.21-0.19-.6c-0.19-.59-0.38-1.16-0.56-1.71-0.27-.8-0.54-1.56-0.81-2.3-1-2.75-2-5-3-7.18l-0.3-.6c-0.12,0-10.88.24-35.37,29.34-15.56,18.49-27,26.62-33.26,30.11a12,12,0,0,0-7.52-3.68,11.89,11.89,0,0,0-2.14,0l-6.64.54a12.07,12.07,0,0,0-11,12.94l1.3,15.95a12,12,0,0,0,7.91,10.3,11.87,11.87,0,0,0,5,.68l6.64-.54a11.87,11.87,0,0,0,4.34-1.22,12,12,0,0,0,6.65-11.72l-0.18-2.19L198.5,264h0c-6.93,17.23-12.81,37.06-13.75,56,0,0.15,0,.31,0,0.46-2.47,5-24.1,49.72-14.66,69.54,10,21,1.95,30,1.95,30s28,10.18,28,13.68S209.51,384,220,385c-5-3-9.31-5.32-13.11-8.35A0.88,0.88,0,0,1,206.91,376.53Z"/><path class="cls-8" d="M227.84,227.09c-0.28-1.14-.56-2.24-0.84-3.31C227.28,224.84,227.56,225.94,227.84,227.09Z"/><path class="cls-8" d="M225.26,217.67l0.23,0.74c0.16,0.55.33,1.11,0.49,1.68l0.33,1.18,0.2,0.72,0.37,1.37,0.11,0.41c0.28,1.07.56,2.17,0.84,3.31v0h0l0.07,0,0.07,0V227h-0.15a0.1,0.1,0,0,1,0,0c-0.28-1.14-.56-2.21-0.84-3.28l-0.11-.4c-0.12-.46-0.25-0.91-0.37-1.36l-0.2-.72L226,220.1q-0.25-.86-0.49-1.68l-0.23-.74-0.38-1.21-0.19-.6,0.19,0.6Z"/><path class="cls-8" d="M220.29,204.66c1,2.2,2,4.43,3,7.18A72.78,72.78,0,0,0,220.29,204.66Z"/><path class="cls-8" d="M206.83,376.34l0,0.1,0,0v0.05l0.08,0.06a0.83,0.83,0,0,0,0-.11Z"/><path class="cls-8" d="M204.32,355.86v0a119.79,119.79,0,0,1,1-22.35A120,120,0,0,0,204.32,355.86Z"/><path class="cls-8" d="M204.49,358.93c0,0.37.06,0.73,0.09,1.09,0,0.62.09,1.25,0.15,1.85,0,0.44.09,0.87,0.13,1.3s0.1,1,.15,1.51,0.12,1,.18,1.49,0.09,0.79.14,1.17c0.08,0.59.16,1.14,0.24,1.71,0,0.26.07,0.54,0.11,0.8,0.1,0.66.2,1.3,0.3,1.92l0.07,0.41c0.12,0.7.24,1.37,0.36,2l0,0.14q0.19,1,.38,2l0,0a134.3,134.3,0,0,1-2.5-20.46v0Q204.39,357.43,204.49,358.93Z"/><path class="cls-8" d="M205.18,366.18c-0.06-.49-0.12-1-0.18-1.49C205.06,365.2,205.12,365.68,205.18,366.18Z"/><path class="cls-8" d="M204.57,360c0-.37-0.06-0.72-0.09-1.09C204.51,359.3,204.55,359.66,204.57,360Z"/><path class="cls-8" d="M204.85,363.18c0-.44-0.09-0.86-0.13-1.3C204.76,362.32,204.81,362.74,204.85,363.18Z"/><path class="cls-8" d="M206.42,374.34c0.13,0.73.27,1.42,0.4,2.08l0,0,0-.1,0,0Q206.61,375.38,206.42,374.34Z"/><path class="cls-8" d="M206,371.77c-0.1-.63-0.21-1.26-0.3-1.92C205.77,370.51,205.87,371.14,206,371.77Z"/><path class="cls-8" d="M205.56,369.05c-0.08-.56-0.16-1.12-0.24-1.71C205.4,367.93,205.48,368.49,205.56,369.05Z"/><path class="cls-8" d="M206.4,374.2c-0.12-.65-0.24-1.32-0.36-2C206.16,372.88,206.28,373.55,206.4,374.2Z"/><path class="cls-1" d="M275.47,215.86c0.19-.59.38-1.19,0.56-1.75,0.27-.8.54-1.55,0.81-2.27-0.27.74-.54,1.5-0.81,2.3C275.85,214.7,275.66,215.27,275.47,215.86Z"/><path class="cls-1" d="M295.68,358.93q0.1-1.51.17-3.07Q295.78,357.43,295.68,358.93Z"/><path class="cls-1" d="M295.45,361.88c0.05-.6.1-1.23,0.15-1.85C295.55,360.65,295.5,361.27,295.45,361.88Z"/><path class="cls-1" d="M293.75,374.34l0-.14Z"/><path class="cls-1" d="M294.85,367.35c0-.38.09-0.78,0.14-1.17C294.94,366.56,294.9,367,294.85,367.35Z"/><path class="cls-1" d="M270.86,233.4c-0.23,1.06-.46,2.14-0.69,3.26,0,0-10.72,5.1-17.42,5.26,6.7-.16,17.41-5.26,17.41-5.26,0.23-1.12.45-2.2,0.68-3.26s0.46-2.16.7-3.2c0-.05,0-0.11,0-0.16s0,0.11,0,.16C271.34,231.24,271.1,232.3,270.86,233.4Z"/><path class="cls-1" d="M272.17,227.12a13.76,13.76,0,0,1-.62,2.92A13.8,13.8,0,0,0,272.17,227.12Z"/><path class="cls-1" d="M294.13,372.18l0.07-.41Z"/><path class="cls-1" d="M295.17,364.69c0.05-.49.1-1,0.15-1.51C295.27,363.68,295.22,364.2,295.17,364.69Z"/><path class="cls-1" d="M294.5,369.85c0-.26.07-0.53,0.11-0.8C294.57,369.31,294.54,369.59,294.5,369.85Z"/><path class="cls-2" d="M361.87,300.2a11.87,11.87,0,0,0,5-.68l-4.31,30.56a10,10,0,1,1-10.15,14.71,10,10,0,1,1-5.69-16.94l4.15-29.41a11.87,11.87,0,0,0,4.34,1.22Z"/><path class="cls-2" d="M358.47,259.8a11.89,11.89,0,0,0-2.14,0l11.43-81.07a10,10,0,1,1,10.15-14.71A10,10,0,1,1,383.6,181L372,263.26a11.9,11.9,0,0,0-6.88-2.93Z"/><path class="cls-1" d="M270.86,233.4c0.24-1.1.48-2.16,0.72-3.2Q271.22,231.76,270.86,233.4Z"/><path class="cls-2" d="M250,101V241.67a2.71,2.71,0,0,0,.67.13,10.49,10.49,0,0,0,2,.13c6.7-.16,17.43-5.26,17.43-5.26,0.23-1.12.46-2.2,0.69-3.26s0.47-2.16.71-3.2c0-.05-0.09-0.11-0.08-0.16a13.49,13.49,0,0,0,.54-2.92h0V227h0.32a0.1,0.1,0,0,0,0,0c0.28-1.14.56-2.21,0.84-3.28l0.11-.4c0.12-.46.25-0.91,0.37-1.36l0.2-.72,0.33-1.17q0.25-.86.49-1.68l0.23-.74,0.38-1.21,0.19-.6c0.19-.59.38-1.19,0.56-1.75,0.27-.8.54-1.55,0.81-2.27a72.78,72.78,0,0,1,3-7.18l0.3-.66c6.27-12,11.24-9.37,11.24-9.37s4.75-.3,3.75-3S301.84,180,301.84,180l8.33,4.67,7.67-15-6-9.64,5.67,1.68,2.67-1.68-8.33-17.33L332.67,67l-48.31,43C273.64,98,250,101,250,101Zm17,64.5,3.41-2.72,4.45-3.6,2.07-1.68,4.55-3.71,8.93-7.29-1.87,19-10.07,5.18L275.84,172,267,176.5v-11Zm-6.32,50.88,4.5-37a1,1,0,0,1,2,.24l-4.5,37a1,1,0,0,1-1,.88h-0.12A1,1,0,0,1,260.68,216.38Z"/><path class="cls-3" d="M266.29,178.51a1,1,0,0,1,.87,1.11l-4.5,37a1,1,0,0,1-1,.88h-0.12a1,1,0,0,1-.87-1.11l4.5-37A1,1,0,0,1,266.29,178.51Z"/><path class="cls-4" d="M281.49,153.79l8.92-7.29-1.87,19-10.07,5.18c2-2.19,3.35-6.91,3.35-12.39A30.85,30.85,0,0,0,281.49,153.79Z"/><path class="cls-4" d="M275.84,172L267,176.5v-11l3.37-2.72C271.15,168.1,273.33,171.93,275.84,172Z"/><path class="cls-5" d="M270.5,162.78l4.41-3.6,1.26,6.67,0.8-8.35,4.54-3.71a30.85,30.85,0,0,1,.33,4.49c0,5.48-1.37,10.2-3.35,12.39L275.93,172C273.41,171.93,271.28,168.1,270.5,162.78Z"/><polygon class="cls-6" points="274.9 159.18 276.95 157.5 276.16 165.85 274.9 159.18"/><path class="cls-1" d="M294.8,333.53a100.71,100.71,0,0,0-3.38-15.2c-8.73-28.38-18-72.45-20.56-84.93,2.56,12.48,11.83,56.54,20.56,84.92A100.54,100.54,0,0,1,294.8,333.53Z"/><path class="cls-7" d="M252.75,241.93c6.7-.16,17.42-5.26,17.42-5.26,0.23-1.12.46-2.2,0.69-3.26,2.56,12.48,11.83,56.55,20.56,84.93a100.71,100.71,0,0,1,3.38,15.2,119.79,119.79,0,0,1,1,22.35,134.3,134.3,0,0,1-2.5,20.46l-0.1.08a0.83,0.83,0,0,0,0,.11,69.7,69.7,0,0,1-13.17,8.11c-8.22,4-18.09,7-30.09,8.85V241.67a2.71,2.71,0,0,0,.67.13A10.93,10.93,0,0,0,252.75,241.93Z"/><path class="cls-7" d="M250.75,241.8a10,10,0,0,0,2,.13A10,10,0,0,1,250.75,241.8Z"/><path class="cls-2" d="M328.12,420s45.5,27.35-28,13.68C300.14,430.18,328.12,420,328.12,420Z"/><path class="cls-8" d="M272.16,227.12H272a13.44,13.44,0,0,1-.54,2.92c0,0.05.05,0.11,0,.16s-0.09-.11-0.08-0.16a13.59,13.59,0,0,0,.58-2.92h0l0.08,0Z"/><path class="cls-8" d="M293.26,376.53l0.08-.06v-0.05c0.13-.66.27-1.35,0.4-2.08l0-.14c0.12-.65.24-1.32,0.36-2l0.07-.41c0.1-.63.21-1.26,0.3-1.92,0-.26.07-0.53,0.11-0.8,0.08-.56.16-1.12,0.24-1.71,0-.38.09-0.78,0.14-1.17s0.12-1,.18-1.49,0.1-1,.15-1.51,0.09-.86.13-1.3c0.05-.6.1-1.23,0.15-1.85,0-.37.06-0.72,0.09-1.09q0.1-1.51.17-3.07a120,120,0,0,0-1-22.33,100.54,100.54,0,0,0-3.38-15.21c-8.73-28.38-18-72.44-20.56-84.92q0.36-1.65.72-3.2c0-.05-0.13-0.11-0.12-0.16a13.44,13.44,0,0,0,.54-2.92h0s0.16,0,.17,0c0.28-1.14.64-2.24,0.92-3.31,0-.14.11-0.28,0.15-0.41,0.12-.46.27-0.92,0.39-1.37,0.07-.24.14-0.48,0.21-0.72l0.34-1.18c0.17-.57.33-1.13,0.5-1.68l0.23-.74,0.38-1.21,0.19-.6c0.19-.59.38-1.16,0.57-1.71,0.27-.8.54-1.56,0.81-2.3,1-2.75,2-5,3-7.18l0.3-.6c0.12,0,10.88.24,35.37,29.34,15.56,18.49,27,26.62,33.26,30.11a12,12,0,0,1,7.52-3.68,11.89,11.89,0,0,1,2.14,0l6.64,0.54a12.07,12.07,0,0,1,11,12.94l-1.3,15.95a12,12,0,0,1-7.91,10.3,11.87,11.87,0,0,1-5,.68l-6.64-.54a11.87,11.87,0,0,1-4.34-1.22,12,12,0,0,1-6.65-11.72l0.18-2.19L301.67,264h0c6.93,17,12.81,37.06,13.75,56,0,0.15,0,.31,0,0.46,2.47,5,24.1,49.72,14.66,69.54-10,21-1.95,30-1.95,30s-28,10.18-28,13.68-9.48-49.65-20-48.68c5-3,9.31-5.32,13.11-8.35A0.88,0.88,0,0,0,293.26,376.53Z"/><path class="cls-8" d="M272.33,227.09c0.28-1.14.56-2.24,0.84-3.31C272.89,224.84,272.61,225.94,272.33,227.09Z"/><path class="cls-8" d="M274.91,217.67l-0.23.74c-0.16.55-.33,1.11-0.49,1.68l-0.33,1.18-0.2.72-0.37,1.37-0.11.41c-0.28,1.07-.56,2.17-0.84,3.31v0h0l-0.16,0-0.16,0V227h0.32a0.1,0.1,0,0,0,0,0c0.28-1.14.56-2.21,0.84-3.28l0.11-.4c0.12-.46.25-0.91,0.37-1.36l0.2-.72,0.33-1.17q0.25-.86.49-1.68l0.23-.74,0.38-1.21,0.19-.6-0.19.6Z"/><path class="cls-8" d="M279.88,204.66c-1,2.2-2,4.43-3,7.18A72.78,72.78,0,0,1,279.88,204.66Z"/><path class="cls-8" d="M293.34,376.34l0,0.1,0,0v0.05l-0.08.06a0.83,0.83,0,0,1,0-.11Z"/><path class="cls-8" d="M295.85,355.86v0a119.79,119.79,0,0,0-1-22.35A120,120,0,0,1,295.85,355.86Z"/><path class="cls-8" d="M295.68,358.93c0,0.37-.06.73-0.09,1.09,0,0.62-.09,1.25-0.15,1.85,0,0.44-.09.87-0.13,1.3s-0.1,1-.15,1.51-0.12,1-.18,1.49-0.09.79-.14,1.17c-0.08.59-.16,1.14-0.24,1.71,0,0.26-.07.54-0.11,0.8-0.1.66-.2,1.3-0.3,1.92l-0.07.41c-0.12.7-.24,1.37-0.36,2l0,0.14q-0.19,1-.38,2l0,0a134.3,134.3,0,0,0,2.5-20.46v0Q295.78,357.43,295.68,358.93Z"/><path class="cls-8" d="M295,366.18c0.06-.49.12-1,0.18-1.49C295.11,365.2,295.05,365.68,295,366.18Z"/><path class="cls-8" d="M295.59,360c0-.37.06-0.72,0.09-1.09C295.65,359.3,295.62,359.66,295.59,360Z"/><path class="cls-8" d="M295.32,363.18c0-.44.09-0.86,0.13-1.3C295.41,362.32,295.36,362.74,295.32,363.18Z"/><path class="cls-8" d="M293.75,374.34c-0.13.73-.27,1.42-0.4,2.08l0,0,0-.1,0,0Q293.56,375.38,293.75,374.34Z"/><path class="cls-8" d="M294.19,371.77c0.1-.63.21-1.26,0.3-1.92C294.4,370.51,294.3,371.14,294.19,371.77Z"/><path class="cls-8" d="M294.61,369.05c0.08-.56.16-1.12,0.24-1.71C294.77,367.93,294.69,368.49,294.61,369.05Z"/><path class="cls-8" d="M293.77,374.2c0.12-.65.24-1.32,0.36-2C294,372.88,293.89,373.55,293.77,374.2Z"/><path class="cls-9" d="M386.4,161.19a10,10,0,0,0-8.48,2.86,10,10,0,1,0-10.15,14.71l-11.43,81.07a12,12,0,0,0-7.52,3.68c-6.3-3.49-17.7-11.62-33.26-30.11-24.49-29.1-35.25-29.34-35.37-29.34l-0.3.6,0.3-.66c6.27-12,11.24-9.37,11.24-9.37s4.75-.3,3.75-3S301.84,180,301.84,180l8.33,4.67,7.67-15-6-9.64,5.67,1.68,2.67-1.68-8.33-17.33L332.67,67l-48.31,43C273.64,98,250,101,250,101V393.5c12-1.87,21.86-4.9,30.09-8.85a69.7,69.7,0,0,0,13.17-8.11,0.85,0.85,0,0,1,0,.12c-3.8,3-8.12,5.35-13.11,8.35,10.5-1,20,52.17,20,48.68,73.47,13.68,28-13.68,28-13.68s-8.05-9,1.95-30c9.44-19.81-12.19-64.55-14.66-69.54,0-.15,0-0.31,0-0.46-0.95-18.94-6.82-39-13.75-56h0l42.75,20.54-0.18,2.19a12,12,0,0,0,6.65,11.72l-4.15,29.41a10,10,0,1,0,5.69,16.94,10,10,0,1,0,10.15-14.71l4.31-30.56a12,12,0,0,0,7.91-10.3l1.3-15.95a12,12,0,0,0-4.1-10L383.6,181A10,10,0,0,0,386.4,161.19ZM271.46,230.05h0a0,0,0,0,0,0,0h0Zm3.4-70.87,2.07-1.68,4.34-3.71L290,146.5h0l-8.71,7.29-4.44,3.71-2,1.68-4.38,3.6c0.78,5.27,2.89,9.07,5.38,9.2h0c-2.51-.07-4.68-3.88-5.47-9.18l0,0ZM252.72,242h0c6.7,0,17.42-5.3,17.42-5.3,0.23-1.12.46-2.22,0.69-3.28s0.47-2.17.71-3.21a0.2,0.2,0,0,0-.06-0.12l0.06,0.05a0.18,0.18,0,0,1,0,.06c-0.24,1-.46,2.1-0.7,3.2s-0.45,2.18-.68,3.3c0,0-10.71,5.3-17.41,5.3h0Z"/><path class="cls-8" d="M173.13,465.94V465h3.75v11.25h3.75v1.88H169.38v-1.87h3.75v-7.5h-1.87v-1.87h1.88v-0.94Z"/><path class="cls-8" d="M186.25,465.94V465h5.63v1.88h1.88v1.88h1.88v5.63h-1.87v1.88h-1.87v1.88h-5.62v-1.87h-1.87v-1.87H182.5v-5.62h1.88v-1.87h1.88v-0.94Zm3.75,1.88v-0.94h-3.75v7.5h1.88v1.88h3.75v-7.5H190v-0.94Z"/><path class="cls-8" d="M197.5,467.81V465h11.25v1.88h-7.5v1.88h7.5v1.88h1.88v5.63h-1.87v1.88h-9.37v-1.87H197.5v-1.87h3.75v1.88h5.63v-5.62H197.5v-2.81Z"/><path class="cls-8" d="M227.5,471.56V465h3.75v1.88h1.88v1.88H235v-1.87h1.88V465h3.75v13.13h-3.75V472.5H235v1.88h-1.87V472.5h-1.87v5.63H227.5v-6.56Z"/><path class="cls-8" d="M246.25,465.94V465h5.63v1.88h1.88v1.88h1.88v9.38h-3.75v-3.75h-5.62v3.75H242.5v-9.37h1.88v-1.87h1.88v-0.94Zm3.75,1.88v-0.94h-1.87v1.88h-1.87v3.75h5.63v-3.75H250v-0.94Z"/><path class="cls-8" d="M257.5,471.56V465h11.25v1.88h1.88v5.63h-3.75v1.88h1.88v1.88h1.88v1.88H265v-1.87h-1.87v-1.87h-1.87v3.75H257.5v-6.56Zm9.38-2.81v-1.87h-5.62v5.63H265v-1.87h1.88v-1.87Z"/><path class="cls-8" d="M274.38,465.94V465h9.38v1.88h1.88v9.38h-1.87v1.88h-9.37v-1.87H272.5v-9.37h1.88v-0.94Zm7.5,5.63v-4.69h-5.62v9.38h5.63v-4.69Z"/><path class="cls-8" d="M287.5,471.56V465h3.75v5.63h1.88v-1.87H295v1.88h1.88V465h3.75v13.13h-3.75v-1.87H295v-1.87h-1.87v1.88h-1.87v1.88H287.5v-6.56Z"/><path class="cls-8" d="M306.25,465.94V465h5.63v1.88h1.88v1.88h1.88v9.38h-3.75v-3.75h-5.62v3.75H302.5v-9.37h1.88v-1.87h1.88v-0.94Zm3.75,1.88v-0.94h-1.87v1.88h-1.87v3.75h5.63v-3.75H310v-0.94Z"/><path class="cls-8" d="M317.5,471.56V465h3.75v5.63h1.88v-1.87H325v-1.87h1.88V465h3.75v1.88h-1.87v1.88h-1.87v1.88H325v1.88h1.88v1.88h1.88v1.88h1.88v1.88H325v-1.87h-1.87v-1.87h-1.87v3.75H317.5v-6.56Z"/></svg>