<?xml version="1.0" ?><svg id="pkflt" viewBox="0 0 500 500" xmlns="http://www.w3.org/2000/svg"><defs><style>.cls-1{fill:#1a1a1a;}.cls-2{fill:#fff;}.cls-3{fill:none;}.cls-4{fill:#a97e5c;}.cls-5{fill:#eee6b4;}.cls-6{fill:#e2d69f;}.cls-7{fill:#ccc;}.cls-8{opacity:0.1;}</style></defs><title/><path class="cls-1" d="M230,139.33a15,15,0,0,1-12.95-22.55A12,12,0,0,0,210,120s-7,16.33,2.67,20,32,0,32,0-1.35-2.35-3.61-5.55A14.94,14.94,0,0,1,230,139.33Z"/><path class="cls-2" d="M230,139.33a14.94,14.94,0,0,0,11.05-4.88c-5-7.12-14.6-18.46-24-17.67A15,15,0,0,0,230,139.33ZM232.5,126c0.83,0,1.5,1.79,1.5,4s-0.67,4-1.5,4-1.5-1.79-1.5-4S231.67,126,232.5,126Z"/><ellipse class="cls-1" cx="232.5" cy="130" rx="1.5" ry="4"/><path class="cls-3" d="M217.05,116.78A12,12,0,0,0,210,120s-7,16.33,2.67,20,32,0,32,0-1.35-2.35-3.61-5.55C236,127.33,226.45,116,217.05,116.78Z"/><path class="cls-3" d="M217.05,116.78A12,12,0,0,0,210,120s-7,16.33,2.67,20,32,0,32,0-1.35-2.35-3.61-5.55C236,127.33,226.45,116,217.05,116.78Z"/><path class="cls-4" d="M114,139.82l-8.91,7.78,0,0.06,8.92-7.79Z"/><polygon class="cls-4" points="119.67 145.42 109.53 154.29 109.56 154.35 119.72 145.47 119.67 145.42"/><path class="cls-4" d="M196.45,130.13a15.66,15.66,0,0,0-1.9-.13,15.5,15.5,0,0,0-15.19,12.45l-23.2,29.67c-3.39,4.33-8.17,3.85-10.63-1.07L131,156.62l-12.57,11,16.05,24.08a12.71,12.71,0,0,0,14.79,4.5l47.48-19.65C199.6,194.06,205.36,215,215,240l-9.67,20S234,267.33,234,270s16-13.33,16-13.33v-170S206.41,83.66,196.45,130.13ZM212.67,140C203,136.33,210,120,210,120a12,12,0,0,1,7.05-3.22c9.39-.79,19,10.55,24,17.67,2.27,3.2,3.61,5.55,3.61,5.55S222.33,143.67,212.67,140Z"/><polygon class="cls-4" points="125.32 151.02 113.96 160.95 114 161 125.37 151.07 125.32 151.02"/><path class="cls-5" d="M110.28,136.11A2.47,2.47,0,0,1,109,136a6.55,6.55,0,0,1-5.31,6.21,12,12,0,0,0,1.45,5.39l8.91-7.78Z"/><path class="cls-6" d="M114.07,139.87l-8.92,7.79c0.13,0.22.25,0.44,0.39,0.66l4,6,10.15-8.87Z"/><polygon class="cls-5" points="119.72 145.47 109.56 154.35 113.96 160.95 125.32 151.02 119.72 145.47"/><polygon class="cls-6" points="125.37 151.07 114 161 118.4 167.6 130.97 156.62 125.37 151.07"/><path class="cls-4" d="M111.16,123.13c-2.9-10.26-7-18.1-9.07-17.51s-1.46,9.4,1.44,19.66c0.48,1.7.94,3.14,1.38,4.37a6.62,6.62,0,0,0-2.33-.49l-0.61-.88c-6.18-8.7-12.63-14.71-14.42-13.45s1.78,9.35,8,18l0.63,0.87a6.62,6.62,0,0,0-.28,2.69c-1-.87-2.21-1.83-3.66-2.91-8.55-6.37-16.55-10.11-17.86-8.36s4.56,8.35,13.12,14.72,10.9,5.91,12.21,4.15a2.55,2.55,0,0,0,.55-2.07,6.63,6.63,0,0,0,3.47.25A6.55,6.55,0,0,0,109,136a2.47,2.47,0,0,0,1.3.11l0.4-.09C112.79,135.43,114.06,133.4,111.16,123.13Z"/><path class="cls-6" d="M234,270c10.67-2.67-28.67-10-28.67-10s-0.89,3.65-2.14,9.69l28.44,2.84C232.34,271.11,233.12,270.22,234,270Z"/><path class="cls-5" d="M229,282.31a38.22,38.22,0,0,1,2.66-9.78l-28.44-2.84c-0.58,2.81-1.24,6.14-1.92,9.86Z"/><path class="cls-6" d="M199.57,289.43l28.13,2.81c0.36-3.64.78-7,1.28-9.92l-27.71-2.77C200.71,282.6,200.13,285.91,199.57,289.43Z"/><path class="cls-5" d="M198.09,299.33l28.82,2.88c0.22-3.49.48-6.84,0.79-10l-28.13-2.81C199.06,292.58,198.56,295.9,198.09,299.33Z"/><path class="cls-6" d="M196.86,309.25l29.53,2.95c0.14-3.41.31-6.76,0.52-10l-28.82-2.88C197.65,302.56,197.23,305.88,196.86,309.25Z"/><path class="cls-5" d="M195.93,319.21l30.13,3c0.09-3.35.19-6.71,0.33-10l-29.53-2.95C196.5,312.54,196.19,315.87,195.93,319.21Z"/><path class="cls-6" d="M195.35,329.2l30.52,3c0-3.3.1-6.66,0.19-10l-30.13-3C195.67,322.54,195.47,325.89,195.35,329.2Z"/><path class="cls-5" d="M195.22,339.24l30.57,3.05c0-3.24,0-6.6.08-10l-30.52-3C195.22,332.59,195.17,335.95,195.22,339.24Z"/><path class="cls-6" d="M195.68,349.34l30.12,3c0-3.13,0-6.51,0-10.05l-30.57-3.05C195.26,342.69,195.41,346.08,195.68,349.34Z"/><path class="cls-5" d="M197,359.52l28.87,2.88c0-2.9-.08-6.3-0.1-10.06l-30.12-3A97.54,97.54,0,0,0,197,359.52Z"/><path class="cls-7" d="M178.51,413.74l-6,5.26,14.08-5.16A42.07,42.07,0,0,1,178.51,413.74Z"/><path class="cls-7" d="M168.11,408.46L154.5,419l21.28-5.73C172.11,412.42,169.43,410.83,168.11,408.46Z"/><path class="cls-7" d="M168.58,399.55L154.5,407h13C166.84,404.8,167.26,402.26,168.58,399.55Z"/><path class="cls-4" d="M228.9,381.21a37.46,37.46,0,0,0-3.73-7.38c-6.36,7.13-15.67,2.83-21-.67-1,.41-2.11.85-3.25,1.34-16.11,7-28.35,16.85-32.34,25.06-1.32,2.71-1.74,5.25-1.1,7.45a7.08,7.08,0,0,0,.3.84,7,7,0,0,0,.32.63c1.33,2.36,4,4,7.68,4.81a25.93,25.93,0,0,0,2.73.47,42.07,42.07,0,0,0,8.07.1c8.13-.61,18-3.14,28.19-7.56C236.89,396.64,232.72,390,228.9,381.21Z"/><path class="cls-6" d="M225.91,362.41L197,359.52a57.74,57.74,0,0,0,2.91,10.34l10.83,1.08,12.94,1.29,2.38,0.24C226.08,371.65,226,368,225.91,362.41Z"/><path class="cls-5" d="M225.17,373.82c0.32-.36.63-0.74,0.94-1.16v-0.19l-2.38-.24A10.38,10.38,0,0,1,225.17,373.82Z"/><path class="cls-5" d="M223.71,372.24l-12.94-1.29-10.83-1.08L200,370a37.26,37.26,0,0,0,4.17,3.15c5.33,3.51,14.64,7.8,21,.67A10.36,10.36,0,0,0,223.71,372.24Z"/><path class="cls-1" d="M270.14,139.33a15,15,0,0,0,12.95-22.55,12,12,0,0,1,7.05,3.22s7,16.33-2.67,20-32,0-32,0,1.35-2.35,3.61-5.55A14.94,14.94,0,0,0,270.14,139.33Z"/><path class="cls-2" d="M285.14,124.33a14.91,14.91,0,0,0-2.05-7.55c-9.39-.79-19,10.55-24,17.67A15,15,0,0,0,285.14,124.33Zm-16,5.67c0,2.21-.67,4-1.5,4s-1.5-1.79-1.5-4,0.67-4,1.5-4S269.14,127.79,269.14,130Z"/><ellipse class="cls-1" cx="267.64" cy="130" rx="1.5" ry="4"/><path class="cls-3" d="M283.09,116.78a12,12,0,0,1,7.05,3.22s7,16.33-2.67,20-32,0-32,0,1.35-2.35,3.61-5.55C264.12,127.33,273.69,116,283.09,116.78Z"/><path class="cls-3" d="M283.09,116.78a12,12,0,0,1,7.05,3.22s7,16.33-2.67,20-32,0-32,0,1.35-2.35,3.61-5.55C264.12,127.33,273.69,116,283.09,116.78Z"/><path class="cls-4" d="M386.12,139.82L395,147.6l0,0.06-8.92-7.79Z"/><polygon class="cls-4" points="380.47 145.42 390.62 154.29 390.58 154.35 380.42 145.47 380.47 145.42"/><path class="cls-4" d="M250,86.67v170s16.07,16,16.07,13.33,28.7-10,28.7-10l-9.65-20c9.64-25,15.41-45.94,18.28-63.47l47.49,19.65a12.72,12.72,0,0,0,14.79-4.5l16.05-24.08-12.57-11-14.56,14.43c-2.46,4.92-7.24,5.4-10.63,1.07l-23.2-29.67A15.5,15.5,0,0,0,305.59,130a16.85,16.85,0,0,0-2,.13C293.66,83.66,250,86.67,250,86.67ZM255.47,140s1.35-2.35,3.61-5.55c5-7.12,14.6-18.46,24-17.67a12,12,0,0,1,7.05,3.22s7,16.33-2.67,20S255.47,140,255.47,140Z"/><polygon class="cls-4" points="374.82 151.02 386.18 160.95 386.14 161 374.77 151.07 374.82 151.02"/><path class="cls-5" d="M389.86,136.11a2.47,2.47,0,0,0,1.3-.11,6.55,6.55,0,0,0,5.31,6.21A12,12,0,0,1,395,147.6l-8.91-7.78Z"/><path class="cls-6" d="M386.07,139.87l8.92,7.79c-0.13.22-.25,0.44-0.39,0.66l-4,6-10.15-8.87Z"/><polygon class="cls-5" points="380.42 145.47 390.58 154.35 386.18 160.95 374.82 151.02 380.42 145.47"/><polygon class="cls-6" points="374.77 151.07 386.14 161 381.74 167.6 369.17 156.62 374.77 151.07"/><path class="cls-4" d="M389,123.13c2.9-10.26,7-18.1,9.07-17.51s1.46,9.4-1.44,19.66c-0.48,1.7-.94,3.14-1.38,4.37a6.62,6.62,0,0,1,2.33-.49l0.61-.88c6.18-8.7,12.63-14.71,14.42-13.45s-1.78,9.35-8,18l-0.63.87a6.62,6.62,0,0,1,.28,2.69c1-.87,2.21-1.83,3.66-2.91,8.55-6.37,16.55-10.11,17.86-8.36s-4.56,8.35-13.12,14.72-10.9,5.91-12.21,4.15a2.55,2.55,0,0,1-.55-2.07,6.63,6.63,0,0,1-3.47.25,6.55,6.55,0,0,1-5.31-6.21,2.47,2.47,0,0,1-1.3.11l-0.4-.09C387.35,135.43,386.08,133.4,389,123.13Z"/><path class="cls-6" d="M266.14,270c-10.67-2.67,28.67-10,28.67-10s0.89,3.65,2.14,9.69l-28.44,2.84C267.8,271.11,267,270.22,266.14,270Z"/><path class="cls-5" d="M271.16,282.31a38.22,38.22,0,0,0-2.66-9.78l28.44-2.84c0.58,2.81,1.24,6.14,1.92,9.86Z"/><path class="cls-6" d="M300.57,289.43l-28.13,2.81c-0.36-3.64-.78-7-1.28-9.92l27.71-2.77C299.43,282.6,300,285.91,300.57,289.43Z"/><path class="cls-5" d="M302.05,299.33l-28.82,2.88c-0.22-3.49-.48-6.84-0.79-10l28.13-2.81C301.08,292.58,301.58,295.9,302.05,299.33Z"/><path class="cls-6" d="M303.28,309.25l-29.53,2.95c-0.14-3.41-.31-6.76-0.52-10l28.82-2.88C302.49,302.56,302.91,305.88,303.28,309.25Z"/><path class="cls-5" d="M304.21,319.21l-30.13,3c-0.09-3.35-.19-6.71-0.33-10l29.53-2.95C303.64,312.54,304,315.87,304.21,319.21Z"/><path class="cls-6" d="M304.79,329.2l-30.52,3c0-3.3-.1-6.66-0.19-10l30.13-3C304.47,322.54,304.67,325.89,304.79,329.2Z"/><path class="cls-5" d="M304.92,339.24l-30.57,3.05c0-3.24,0-6.6-.08-10l30.52-3C304.92,332.59,305,335.95,304.92,339.24Z"/><path class="cls-6" d="M304.46,349.34l-30.12,3c0-3.13,0-6.51,0-10.05l30.57-3.05C304.88,342.69,304.73,346.08,304.46,349.34Z"/><path class="cls-5" d="M303.1,359.52l-28.87,2.88c0-2.9.08-6.3,0.1-10.06l30.12-3A97.54,97.54,0,0,1,303.1,359.52Z"/><path class="cls-7" d="M321.63,413.74l6,5.26-14.08-5.16A42.07,42.07,0,0,0,321.63,413.74Z"/><path class="cls-7" d="M332,408.46L345.64,419l-21.28-5.73C328,412.42,330.71,410.83,332,408.46Z"/><path class="cls-7" d="M331.56,399.55L345.64,407h-13C333.3,404.8,332.88,402.26,331.56,399.55Z"/><path class="cls-4" d="M271.24,381.21a37.46,37.46,0,0,1,3.73-7.38c6.36,7.13,15.67,2.83,21-.67,1,0.41,2.11.85,3.25,1.34,16.11,7,28.35,16.85,32.34,25.06,1.32,2.71,1.74,5.25,1.1,7.45a7.08,7.08,0,0,1-.3.84,7,7,0,0,1-.32.63c-1.33,2.36-4,4-7.68,4.81a25.93,25.93,0,0,1-2.73.47,42.07,42.07,0,0,1-8.07.1c-8.13-.61-18-3.14-28.19-7.56C263.25,396.64,267.42,390,271.24,381.21Z"/><path class="cls-6" d="M274.23,362.41l28.87-2.88a57.74,57.74,0,0,1-2.91,10.34l-10.83,1.08-12.94,1.29-2.38.24C274.06,371.65,274.15,368,274.23,362.41Z"/><path class="cls-5" d="M275,373.82c-0.32-.36-0.63-0.74-0.94-1.16v-0.19l2.38-.24A10.38,10.38,0,0,0,275,373.82Z"/><path class="cls-5" d="M276.43,372.24l12.94-1.29,10.83-1.08-0.05.14a37.26,37.26,0,0,1-4.17,3.15c-5.33,3.51-14.64,7.8-21,.67A10.36,10.36,0,0,1,276.43,372.24Z"/><g class="cls-8"><path class="cls-1" d="M354.61,171.06c-2.46,4.92-7.24,5.4-10.63,1.07l-23.2-29.67A15.5,15.5,0,0,0,305.59,130a16.85,16.85,0,0,0-2,.13C293.66,83.66,250,86.67,250,86.67v170s16.07,16,16.07,13.33v0l0.06,0c0.88,0.22,1.66,1.11,2.36,2.53a38.22,38.22,0,0,1,2.66,9.78c0.5,2.94.92,6.28,1.28,9.92,0.31,3.13.57,6.48,0.79,10,0.21,3.24.38,6.59,0.52,10s0.25,6.66.33,10,0.15,6.73.19,10,0.07,6.81.08,10c0,3.54,0,6.92,0,10.05,0,3.76-.06,7.16-0.1,10.06-0.08,5.55-.17,9.24-0.2,10.07v0.19c0.3,0.42.62,0.8,0.94,1.16a10.38,10.38,0,0,1,1.45-1.59l12.94-1.29,10.83-1.08a57.74,57.74,0,0,0,2.91-10.34,97.54,97.54,0,0,0,1.36-10.19c0.27-3.26.42-6.64,0.47-10.1,0-3.29,0-6.65-.13-10s-0.32-6.66-.58-10-0.57-6.68-.93-10-0.79-6.7-1.23-9.93c-0.47-3.43-1-6.74-1.48-9.9-0.57-3.51-1.14-6.83-1.71-9.88-0.68-3.72-1.34-7-1.92-9.86-1.25-6-2.14-9.69-2.14-9.69l-0.13,0,0.1,0-9.65-20c9.64-25,15.41-45.94,18.28-63.47l47.49,19.65a12.72,12.72,0,0,0,14.79-4.5l16.05-24.08-12.57-11Z"/><path class="cls-1" d="M425.82,125.17c-1.31-1.76-9.3,2-17.86,8.36-1.45,1.08-2.65,2-3.66,2.91a6.62,6.62,0,0,0-.28-2.69l0.63-.87c6.18-8.7,9.74-16.77,8-18s-8.24,4.75-14.42,13.45l-0.61.88a6.62,6.62,0,0,0-2.33.49c0.44-1.23.9-2.67,1.38-4.37,2.9-10.26,3.54-19.07,1.44-19.66s-6.17,7.24-9.07,17.51-1.63,12.29.48,12.89l0.4,0.09-3.74,3.71,0,0-5.6,5.55,0,0-5.6,5.55,0,0-5.6,5.55,12.57,11,4.4-6.6,0-.06,4.4-6.6,0-.06,4-6c0.14-.21.27-0.43,0.39-0.66l0-.06a12,12,0,0,0,1.45-5.39,6.63,6.63,0,0,0,3.47-.25,2.55,2.55,0,0,0,.55,2.07c1.31,1.76,3.66,2.22,12.21-4.15S427.13,126.93,425.82,125.17Z"/><path class="cls-1" d="M285.38,406.27c10.14,4.42,20.05,7,28.19,7.56L327.64,419l-6-5.26a25.93,25.93,0,0,0,2.73-.47L345.64,419,332,408.46a7,7,0,0,0,.32-0.63,7.08,7.08,0,0,0,.3-0.84h13l-14.08-7.45c-4-8.21-16.22-18-32.34-25.06-1.14-.5-2.21-0.94-3.25-1.34h0a37.25,37.25,0,0,0,4.17-3.15l0.05-.14-10.83,1.08-12.94,1.29a10.36,10.36,0,0,0-1.45,1.59c3.58,4,8.09,4.41,12.3,3.36-4.21,1-8.72.65-12.3-3.36a37.46,37.46,0,0,0-3.73,7.38C267.42,390,263.25,396.64,285.38,406.27ZM288,377l-0.24.06Z"/></g><path class="cls-4" d="M158.13,465.94V465h3.75v11.25h3.75v1.88H154.38v-1.87h3.75v-7.5h-1.87v-1.87h1.88v-0.94Z"/><path class="cls-4" d="M171.25,465.94V465h5.63v1.88h1.88v1.88h1.88v5.63h-1.87v1.88h-1.87v1.88h-5.62v-1.87h-1.87v-1.87H167.5v-5.62h1.88v-1.87h1.88v-0.94Zm3.75,1.88v-0.94h-3.75v7.5h1.88v1.88h3.75v-7.5H175v-0.94Z"/><path class="cls-4" d="M186.25,465.94V465h7.5v1.88h-5.62v1.88h-1.87v1.88h7.5v1.88h1.88v3.75h-1.87v1.88h-9.37v-1.87H182.5v-7.5h1.88v-1.87h1.88v-0.94Zm5.63,8.44V472.5h-5.62v3.75h5.63v-1.87Z"/><path class="cls-4" d="M212.5,471.56V465h3.75v5.63h5.63V465h3.75v13.13h-3.75V472.5h-5.62v5.63H212.5v-6.56Z"/><path class="cls-4" d="M229.38,465.94V465h11.25v1.88h-3.75v9.38h3.75v1.88H229.38v-1.87h3.75v-9.37h-3.75v-0.94Z"/><path class="cls-4" d="M244.38,465.94V465h11.25v1.88h-3.75v11.25h-3.75V466.88h-3.75v-0.94Z"/><path class="cls-4" d="M257.5,471.56V465h3.75v1.88h1.88v1.88H265v-1.87h1.88V465h3.75v13.13h-3.75V472.5H265v1.88h-1.87V472.5h-1.87v5.63H257.5v-6.56Z"/><path class="cls-4" d="M274.38,465.94V465h9.38v1.88h1.88v9.38h-1.87v1.88h-9.37v-1.87H272.5v-9.37h1.88v-0.94Zm7.5,5.63v-4.69h-5.62v9.38h5.63v-4.69Z"/><path class="cls-4" d="M287.5,471.56V465h3.75v1.88h1.88v1.88H295v1.88h1.88V465h3.75v13.13h-3.75v-1.87H295v-1.87h-1.87V472.5h-1.87v5.63H287.5v-6.56Z"/><path class="cls-4" d="M304.38,471.56V465h3.75v11.25h7.5v1.88H304.38v-6.56Z"/><path class="cls-4" d="M317.5,471.56V465h13.13v1.88h-9.37v3.75h7.5v1.88h-7.5v3.75h9.38v1.88H317.5v-6.56Z"/><path class="cls-4" d="M332.5,471.56V465h13.13v1.88h-9.37v3.75h7.5v1.88h-7.5v3.75h9.38v1.88H332.5v-6.56Z"/></svg>