<?xml version="1.0" ?><svg id="pkflt" viewBox="0 0 500 500" xmlns="http://www.w3.org/2000/svg"><defs><style>.cls-1{fill:#b68b6e;}.cls-2{fill:#fff;}.cls-3,.cls-9{fill:#1a1a1a;}.cls-4{fill:#333;}.cls-5{fill:none;}.cls-6{fill:#b6a7c6;}.cls-7{fill:#beb0cb;}.cls-8{fill:#ce3739;}.cls-9{opacity:0.1;}</style></defs><title/><path class="cls-1" d="M247,74c-2,0-4,4.57-4.5,10.05l-1,12.11c-0.46,5.48-2.5,6.46-4.53,2.15s-8.07-6.73-13.4-5.39l-3.2.81A11.5,11.5,0,0,0,212,106.08l0,0.18c0.73,5.45-.4,8.34-2.51,6.41s-6.81-.13-10.45,4l-1.77,2c-3.64,4.12-4.78,11.61-2.54,16.63l10.93,24.49c2.28,18.54,12,29.81,21.74,36.59A60.88,60.88,0,0,0,251,206.17V74h-4Z"/><path class="cls-2" d="M229.71,154l-11.53-7.64,2.5,26.66h6.72a22.47,22.47,0,0,1-1-6.91A23.06,23.06,0,0,1,229.71,154Z"/><path class="cls-3" d="M239.56,160.33c0,0.06-.06.12-0.06,0.18a3.1,3.1,0,0,1-6.2,0,3.05,3.05,0,0,1,2-2.87L229.72,154a23.06,23.06,0,0,0-3.36,12.11,22.48,22.48,0,0,0,1,6.91H241V161.17Z"/><path class="cls-2" d="M233.28,160.51a3.07,3.07,0,0,0,6.14,0c0-.06,0-0.12,0-0.18l-4.11-2.69A3.06,3.06,0,0,0,233.28,160.51Z"/><path class="cls-4" d="M245.69,190h-12a0.5,0.5,0,0,0,0,1H251v-1h-5.31Z"/><path class="cls-5" d="M232.85,270.74c-0.87-.35-1.72-0.73-2.56-1.12l2.78,1.44Z"/><path class="cls-6" d="M233.23,271.05l-2.85-1.44c-1.12-.53-2.25-1.09-3.32-1.7l-0.68-.34-31.14,49.08a3.9,3.9,0,0,0,.52,4.64l2.8,2.77a3.4,3.4,0,0,0,4.45.2l4.67-3.85a1.68,1.68,0,0,1,1.23-.55c0.38,0.08.48,0.6,0.21,1.51l-1.2,3.93a4,4,0,0,0,1.71,4.38l7.87,4.61,0.62,0.36a3.45,3.45,0,0,0,4.39-.88l2.4-3.2c1-1.32,2.12-1.09,2.5.52l1.33,5.5a5.35,5.35,0,0,0,3.63,3.6l4.16,1a4.09,4.09,0,0,0,4.31-2l1.49-2.85c0.76-1.46,1.79-1.37,2.29.2l0.87,2.78a4.06,4.06,0,0,0,3.22,2.86c1.19,0,2.32-1.35,2.32-3V280.44A20.64,20.64,0,0,1,233.23,271.05Z"/><path class="cls-7" d="M227.42,196.39a45.82,45.82,0,0,0-9.16,3.12c-9.52,4.57-15.54,12.69-15.54,26.66A47.94,47.94,0,0,0,227,267.91l3.27,1.7c0.84,0.4,1.68.77,2.55,1.12A21.43,21.43,0,0,1,251,237.91V206.17A60.87,60.87,0,0,1,227.42,196.39Z"/><path class="cls-7" d="M227,267.91q1.6,0.91,3.28,1.7Z"/><path class="cls-4" d="M229.58,259.17a21.09,21.09,0,0,0,3.36,11.56c0.07,0.11.27,0.21,0.34,0.32A20.57,20.57,0,0,0,251,280.44V237.91A21.24,21.24,0,0,0,229.58,259.17Z"/><path class="cls-1" d="M217.48,334.3l-7.87-4.61a4,4,0,0,1-1.71-4.38l1.2-3.93c0.28-.91.17-1.43-0.21-1.51-4.17,8.7-14.21,30.07-14.21,34.3,0,5.33-12.67,39.33-16,42l5.67,8,3,12s6-3,5-3.33,3-32.33,6-41.33C200.87,363.94,213.5,341.34,217.48,334.3Z"/><path class="cls-6" d="M184.35,404.17l-5.67-8s-40.33-20-45.33,23.67c0,0,37.33,15.67,54-3.67Z"/><path class="cls-1" d="M155.69,169.67c-31.71,6.79-2.7,28.46,21.73,42.9l-32,11.87a4.42,4.42,0,0,1-5.93-3.11l-14.52-56.62L113,168.51l16.42,62.83a5.07,5.07,0,0,0,6.11,3.61L192,220.71c6.36,3.38,10.71,5.46,10.71,5.46,0-14,6-22.09,15.5-26.66h0S204.69,159.17,155.69,169.67Z"/><path class="cls-8" d="M154.5,142.71L152.68,137a12,12,0,0,0-13.11-8.23l-5.51-17.33a12,12,0,0,0-15.07-7.8L84.67,114.56a12,12,0,0,0-7.8,15.07l10.92,34.31a12,12,0,0,0,15.07,7.8L113,168.51l11.93-3.79,12.24-3.9A11.93,11.93,0,0,0,139,160a11.91,11.91,0,0,0,2-.43l5.72-1.82A12,12,0,0,0,154.5,142.71Z"/><path class="cls-1" d="M253,74c2,0,4,4.57,4.5,10.05l1,12.11c0.46,5.48,2.5,6.46,4.53,2.15s8.07-6.73,13.4-5.39l3.2,0.81A11.5,11.5,0,0,1,288,106.08l0,0.18c-0.73,5.45.4,8.34,2.51,6.41s6.81-.13,10.45,4l1.77,2c3.64,4.12,4.78,11.61,2.54,16.63L294.31,159.8c-2.28,18.54-11.51,29.81-21.24,36.59A60.33,60.33,0,0,1,250,206.17V74h3Z"/><path class="cls-2" d="M270.28,154l11.53-7.64L279.31,173H272.6a22.47,22.47,0,0,0,1-6.91A23.06,23.06,0,0,0,270.28,154Z"/><path class="cls-3" d="M260.94,160.33c0,0.06-.19.12-0.19,0.18a3,3,0,0,0,3,3.07,3,3,0,0,0,3-3.07,3.08,3.08,0,0,0-2-2.87L270.3,154a23.05,23.05,0,0,1,3.36,12.11A22.47,22.47,0,0,1,272.6,173H260V161.17Z"/><path class="cls-2" d="M266.72,160.51a3.07,3.07,0,0,1-6.14,0c0-.06,0-0.12,0-0.18l4.11-2.69A3.06,3.06,0,0,1,266.72,160.51Z"/><path class="cls-4" d="M254.31,190h12a0.5,0.5,0,0,1,0,1H250v-1h4.31Z"/><path class="cls-5" d="M267.14,270.74c0.87-.35,1.72-0.73,2.56-1.12l-2.78,1.44Z"/><path class="cls-6" d="M267.27,271.05l2.6-1.44c1.12-.53,2.13-1.09,3.2-1.7l0.62-.34,31.11,49.08a3.9,3.9,0,0,1-.54,4.64l-2.81,2.77a3.4,3.4,0,0,1-4.45.2l-4.67-3.85a1.68,1.68,0,0,0-1.23-.55c-0.38.08-.49,0.6-0.21,1.51l1.2,3.93a4,4,0,0,1-1.71,4.38l-7.87,4.61-0.62.36a3.45,3.45,0,0,1-4.39-.88l-2.4-3.2c-1-1.32-2.12-1.09-2.5.52l-1.33,5.5a5.35,5.35,0,0,1-3.63,3.6l-4.16,1a4.09,4.09,0,0,1-4.31-2l-1.49-2.85c-0.76-1.46-1.79-1.37-2.29.2l-0.87,2.78c-0.49,1.57-1.53,2.86-2.72,2.86s-1.82-1.35-1.82-3V280.44A21.07,21.07,0,0,0,267.27,271.05Z"/><path class="cls-7" d="M273.08,196.39a43.44,43.44,0,0,1,8.91,3.12c9.52,4.57,15.41,12.69,15.41,26.66A48,48,0,0,1,273,267.91l-3.31,1.7c-0.84.4-1.7,0.77-2.57,1.12a21.44,21.44,0,0,0,3.77-11.56c0-11.74-9.93-21.26-20.93-21.26V206.17A60.33,60.33,0,0,0,273.08,196.39Z"/><path class="cls-7" d="M273,267.91q-1.6.91-3.28,1.7Z"/><path class="cls-4" d="M270.92,259.17a21.29,21.29,0,0,1-3.61,11.56c-0.07.11,0.11,0.21,0,.32A21.22,21.22,0,0,1,250,280.44V237.91C261,237.91,270.92,247.43,270.92,259.17Z"/><path class="cls-1" d="M282.52,334.3l7.87-4.61a4,4,0,0,0,1.71-4.38l-1.2-3.93c-0.28-.91-0.17-1.43.21-1.51,4.17,8.7,14.21,30.07,14.21,34.3,0,5.33,12.67,39.33,16,42l-5.67,8-3,12s-6-3-5-3.33-3-32.33-6-41.33C299.13,363.94,286.5,341.34,282.52,334.3Z"/><path class="cls-6" d="M315.65,404.17l5.67-8s40.33-20,45.33,23.67c0,0-37.33,15.67-54-3.67Z"/><path class="cls-1" d="M344.31,169.67c31.71,6.79,2.7,28.46-21.73,42.9l32,11.87a4.42,4.42,0,0,0,5.93-3.11l14.52-56.62L387,168.51l-16.42,62.83a5.07,5.07,0,0,1-6.11,3.61L308,220.71c-6.36,3.38-10.71,5.46-10.71,5.46,0-14-6-22.09-15.5-26.66h0S295.31,159.17,344.31,169.67Z"/><path class="cls-8" d="M345.5,142.71l1.82-5.72a12,12,0,0,1,13.11-8.23l5.51-17.33a12,12,0,0,1,15.07-7.8l34.31,10.92a12,12,0,0,1,7.8,15.07l-10.92,34.31a12,12,0,0,1-15.07,7.8L387,168.51l-11.93-3.79-12.24-3.9A11.93,11.93,0,0,1,361,160a11.91,11.91,0,0,1-2-.43l-5.72-1.82A12,12,0,0,1,345.5,142.71Z"/><path class="cls-9" d="M415.33,114.56L381,103.64a12,12,0,0,0-15.07,7.8l-5.51,17.33A12,12,0,0,0,347.32,137l-1.82,5.72a12,12,0,0,0,7.8,15.07L359,159.6a11.91,11.91,0,0,0,2,.43,11.93,11.93,0,0,0,1.85.78l12.24,3.9-14.52,56.62a4.42,4.42,0,0,1-5.93,3.11l-32-11.87c24.42-14.44,53.44-36.1,21.73-42.9-48.2-10.33-62.05,28.53-62.49,29.8a44.22,44.22,0,0,0-8.9-3.09c9.73-6.78,19.11-18.06,21.39-36.59l10.93-24.49c2.24-5,1.1-12.51-2.54-16.63l-1.77-2c-3.64-4.12-8.34-5.92-10.45-4s-3.24-1-2.51-6.41l0-.18a11.5,11.5,0,0,0-8.38-12.34l-3.2-.8c-5.33-1.34-11.37,1.09-13.4,5.4s-4.08,3.35-4.53-2.13l-1-12.15C257,78.57,255,74,253,74h-3V339.17c0,1.65.63,3,1.82,3s2.31-1.29,2.8-2.86l0.83-2.78c0.49-1.57,1.5-1.67,2.27-.2l1.48,2.85a4.08,4.08,0,0,0,4.31,2l4.15-1a5.34,5.34,0,0,0,3.62-3.6l1.33-5.5c0.39-1.6,1.51-1.84,2.5-.52l2.4,3.2a3.45,3.45,0,0,0,4.39.88l0.62-.36c4,7,16.61,29.65,19.13,37.21,3,9,7,41,6,41.33s5,3.33,5,3.33c16.67,19.33,54,3.67,54,3.67-5-43.67-45.33-23.67-45.33-23.67-3.33-2.67-16-36.67-16-42,0-4.23-10-25.6-14.21-34.3h0a1.68,1.68,0,0,1,1.23.55l4.67,3.85a3.4,3.4,0,0,0,4.45-.2l2.81-2.77a3.9,3.9,0,0,0,.53-4.64l-31.12-49.08-0.64.34c-1.07.61-2.12,1.17-3.24,1.7L267.16,271a0.3,0.3,0,0,0,0-.11l2.44-1.27,0.07,0,0.26-.13q1.3-.62,2.56-1.32l0.8-.25A48.27,48.27,0,0,0,298,226.17v0c0-.22,4.34-2.26,10.34-5.44l56.28,14.24a5,5,0,0,0,6-3.61L387,168.51l10.12,3.23a12,12,0,0,0,15.06-7.8l10.91-34.31A12,12,0,0,0,415.33,114.56ZM270.77,259.17c0,0.41,0,.81-0.05,1.21,0-.4,0-0.8,0-1.21a21.64,21.64,0,0,0-20.05-21.24A21.64,21.64,0,0,1,270.77,259.17Z"/><path class="cls-8" d="M150.63,465.94V465h3.75v11.25h3.75v1.88H146.88v-1.87h3.75v-7.5h-1.87v-1.87h1.88v-0.94Z"/><path class="cls-8" d="M163.75,465.94V465h5.63v1.88h1.88v1.88h1.88v5.63h-1.87v1.88h-1.87v1.88h-5.62v-1.87h-1.87v-1.87H160v-5.62h1.88v-1.87h1.88v-0.94Zm3.75,1.88v-0.94h-3.75v7.5h1.88v1.88h3.75v-7.5H167.5v-0.94Z"/><path class="cls-8" d="M175,466.88V465h13.13v3.75h-1.87v1.88h-1.87v1.88H182.5v5.63h-3.75V472.5h1.88v-1.87h1.88v-1.87h1.88v-1.87h-5.62v1.88H175v-1.87Z"/><path class="cls-8" d="M205,471.56V465h3.75v5.63h5.63V465h3.75v13.13h-3.75V472.5h-5.62v5.63H205v-6.56Z"/><path class="cls-8" d="M221.88,465.94V465h11.25v1.88h-3.75v9.38h3.75v1.88H221.88v-1.87h3.75v-9.37h-3.75v-0.94Z"/><path class="cls-8" d="M236.88,465.94V465h11.25v1.88h-3.75v11.25h-3.75V466.88h-3.75v-0.94Z"/><path class="cls-8" d="M250,471.56V465h3.75v1.88h1.88v1.88h1.88v-1.87h1.88V465h3.75v13.13h-3.75V472.5H257.5v1.88h-1.87V472.5h-1.87v5.63H250v-6.56Z"/><path class="cls-8" d="M266.88,465.94V465h9.38v1.88h1.88v9.38h-1.87v1.88h-9.37v-1.87H265v-9.37h1.88v-0.94Zm7.5,5.63v-4.69h-5.62v9.38h5.63v-4.69Z"/><path class="cls-8" d="M280,471.56V465h3.75v1.88h1.88v1.88h1.88v1.88h1.88V465h3.75v13.13h-3.75v-1.87H287.5v-1.87h-1.87V472.5h-1.87v5.63H280v-6.56Z"/><path class="cls-8" d="M298.75,465.94V465h7.5v1.88h1.88v1.88h-3.75v-1.87h-3.75v1.88h-1.87v5.63h1.88v1.88h3.75v-1.87h3.75v1.88h-1.87v1.88h-7.5v-1.87h-1.87v-1.87H295v-5.62h1.88v-1.87h1.88v-0.94Z"/><path class="cls-8" d="M310,471.56V465h3.75v5.63h5.63V465h3.75v13.13h-3.75V472.5h-5.62v5.63H310v-6.56Z"/><path class="cls-8" d="M328.75,465.94V465h5.63v1.88h1.88v1.88h1.88v9.38h-3.75v-3.75h-5.62v3.75H325v-9.37h1.88v-1.87h1.88v-0.94Zm3.75,1.88v-0.94h-1.87v1.88h-1.87v3.75h5.63v-3.75H332.5v-0.94Z"/><path class="cls-8" d="M340,471.56V465h3.75v1.88h1.88v1.88h1.88v1.88h1.88V465h3.75v13.13h-3.75v-1.87H347.5v-1.87h-1.87V472.5h-1.87v5.63H340v-6.56Z"/></svg>