<?xml version="1.0" ?><svg id="pkflt" viewBox="0 0 500 500" xmlns="http://www.w3.org/2000/svg"><defs><style>.cls-1{fill:none;}.cls-2{fill:#8a2e3a;}.cls-3{fill:#333;}.cls-4{fill:#fff;}.cls-5{fill:#eb95a5;}.cls-6{fill:#f1e6bc;}.cls-7{fill:#de8081;}.cls-8{fill:#e88b9f;}.cls-9{fill:#e6e6e6;}.cls-10{fill:#1a1a1a;opacity:0.1;}</style></defs><title/><path class="cls-1" d="M176.5,190s7.1,6.88,22.91,11.68h0C183.56,196.86,176.51,190,176.51,190h0Z"/><path class="cls-1" d="M160.61,254.5l0,0C161.2,255.39,178,278.39,193,287h0C178,278.2,160.61,254.5,160.61,254.5Z"/><path class="cls-2" d="M212,142.41c-34.5-2.5-17.33,27.74-17.33,27.74h0.09l-0.09-.14c4.67-20,30-14.67,42-10l1.65,0.64c10.47,4,11.69,4.08,11.69,4.08v-13s-3.67,0-20-4.46S212,142.41,212,142.41Z"/><path class="cls-3" d="M210,104a10,10,0,1,0,10,10A10,10,0,0,0,210,104Zm2,8.38a3.38,3.38,0,1,1,3.38-3.37A3.38,3.38,0,0,1,212,112.38Z"/><circle class="cls-4" cx="212" cy="109" r="3.38"/><path class="cls-5" d="M173,116c-1.33,9.33-2.67,2.63-11.33,28.62-3.26,9.78,1.33,18,8.33,24.53l0.13,0.11,0.05-.11c11.46,10.63,29.2,16.54,29.62,16.68-0.06-.6-0.13-1.18-0.21-1.75a34,34,0,0,0-4.83-13.9h-0.09S177.5,139.91,212,142.41c0,0,1.67.3,18,4.8s20,4.46,20,4.46v-103C190,40.33,174.33,106.63,173,116Zm37,8a10,10,0,1,1,10-10A10,10,0,0,1,210,124Z"/><path class="cls-6" d="M195,260.95c1.76-22.93,3.5-45.64,4.38-59.26C183.6,196.88,176.55,190,176.5,190,164.55,221.48,184.43,249.16,195,260.95Z"/><path class="cls-6" d="M160.63,254.54c-12.23,31.39,15.07,60.82,29.6,73.67,0.45-8.83,1.53-24,2.82-41.21C177.92,278.39,161.24,255.39,160.63,254.54Z"/><path class="cls-7" d="M236.67,160c-12-4.67-37.33-10-42,10l0.09,0.14a34,34,0,0,1,4.83,13.9c0.08,0.57.15,1.15,0.21,1.75h0c0.13,1.33.2,2.89,0.2,4.37,0,1.86-.22,5.84-0.58,11.84H199v-0.16c0,13.62-2.42,36.25-4.18,59.18l0.11,0c-0.68,8.82-1.31,17.65-1.94,26a0.05,0.05,0,0,1,0,0h0c-1,17.19-2.34,32.37-2.8,41.21l0.1,0.08c-0.14,2.83-.13,5-0.13,6.38,0,6-2.17,20.18-.17,35.33h0l-0.38-.23c0,0.07,0,.15,0,0.22,2.77,23.84,15.11,50,60.35,50V341.5c-0.83,0-2-.67-2-1.5V169c0-.83,1.17-1.5,2-1.5v-2.79s-1.22,0-11.69-4.08Z"/><path class="cls-3" d="M248,169V340c0,0.83,1.17,1.5,2,1.5v-174C249.17,167.5,248,168.17,248,169Z"/><path class="cls-8" d="M190,334.67c0-1.37.08-3.55,0.23-6.38C175.71,315.47,148.31,286,160.6,254.5l0,0,0,0s17,23.7,32.41,32.49c0.63-8.37,1.3-17.22,2-26-10.6-11.79-30.49-39.47-18.53-71h0s7,6.86,22.91,11.69c0.37-5.7.59-9.83,0.59-11.69,0-1.48-.07-2.88-0.2-4.21-0.41-.13-18.2-6-29.67-16.56-0.21.48-1.08,2.49-2.38,5.74a11.89,11.89,0,0,0-2.41-1.19l-82.91-29.5a12,12,0,0,0-15.33,7.28l-9.72,27.32a12,12,0,0,0,7.28,15.33l82.91,29.5a11.89,11.89,0,0,0,4.77.66c-5.76,24.9-9.55,54.78-4.67,82a18.66,18.66,0,0,0-7-1.45,45,45,0,0,0-45,45c0,18.92,11.68,56.09,28.21,72.78,10.28-8.81,31.5-11.4,37.83-12.76,4-.85,9.33,2.65,14,7.3,8.63-7.95,14.29-18.69,14.29-30.63a76,76,0,0,0-2.83-18.37q1.2,0.75,2.45,1.48C187.91,354.7,190,340.6,190,334.67Z"/><path class="cls-8" d="M199.8,185.79c-0.42-.14-18.16-6-29.62-16.68l-0.05.11c11.47,10.56,29.26,16.43,29.67,16.56h0Z"/><path class="cls-8" d="M176.49,190h0c-12,31.49,7.52,59.17,18.52,71h0C184,249.16,164.53,221.48,176.49,190Z"/><path class="cls-8" d="M160.63,254.54l0,0c-12.29,31.47,15.11,61,29.63,73.79v-0.08C175.7,315.36,148.4,285.93,160.63,254.54Z"/><path class="cls-8" d="M193,287h0c0.63-8.38,1.28-17.23,2-26h0C194,269.77,193.66,278.62,193,287Z"/><path class="cls-8" d="M190,370c-2-15.15.18-29.37,0.18-35.33,0-1.37,0-3.55.14-6.38l-0.08-.08v0.08c-0.14,2.83-.23,5-0.23,6.38,0,5.93-2.09,20-.38,35.11L190,370h0Z"/><path class="cls-8" d="M200.1,190.16c0,1.86-.32,5.84-0.69,11.84h0c0.37-6,.68-10,0.68-11.84,0-1.48-.1-3-0.1-4.29v0h0C200,187.23,200.1,188.68,200.1,190.16Z"/><path class="cls-9" d="M161.67,410c-6.33,1.36-27.55,3.95-37.83,12.76-4.87,4.17-7.29,9.74-4.5,17.24,3,8.12,65.33-.67,67-5.33,1-2.68-4.25-11.08-10.62-17.37C171,412.65,165.64,409.15,161.67,410Z"/><path class="cls-1" d="M323.18,190s-7.1,6.88-22.91,11.68h0c15.86-4.82,22.91-11.69,22.91-11.69h0Z"/><path class="cls-1" d="M339.23,254.5s0.1,0,.11,0C338.72,255.39,322,278.39,307,287h0C322,278.2,339.23,254.5,339.23,254.5Z"/><path class="cls-2" d="M287.69,142.41c34.5-2.5,17.33,27.74,17.33,27.74h-0.09L305,170c-4.67-20-30-14.67-42-10-0.58.22-1,.43-1.49,0.64-10.47,4-11.53,4.08-11.53,4.08v-13s3.51,0,19.84-4.46S287.69,142.41,287.69,142.41Z"/><path class="cls-3" d="M279.69,114a10,10,0,1,0,10-10A10,10,0,0,0,279.69,114Zm4.63-5a3.38,3.38,0,1,1,3.38,3.38A3.38,3.38,0,0,1,284.31,109Z"/><circle class="cls-4" cx="287.69" cy="109" r="3.38"/><path class="cls-5" d="M250,48.67v103s3.51,0,19.84-4.46,17.92-4.8,17.92-4.8c34.5-2.5,17.29,27.74,17.29,27.74h-0.11a34,34,0,0,0-4.84,13.9c-0.08.57-.15,1.15-0.21,1.75,0.42-.14,18.15-6,29.62-16.68l0,0.11,0.13-.11c7-6.49,11.59-14.75,8.33-24.53-8.67-26-9.84-19.29-11.18-28.62S310,40.33,250,48.67ZM279.69,114a10,10,0,1,1,10,10A10,10,0,0,1,279.69,114Z"/><path class="cls-6" d="M304.66,260.95c-1.76-22.93-3.5-45.64-4.38-59.26,15.81-4.81,22.87-11.64,22.91-11.68C335.14,221.48,315.26,249.16,304.66,260.95Z"/><path class="cls-6" d="M339.06,254.54c12.23,31.39-15.07,60.82-29.6,73.67-0.45-8.83-1.53-24-2.82-41.21C321.77,278.39,338.45,255.39,339.06,254.54Z"/><path class="cls-7" d="M263,160c12-4.67,37.33-10,42,10l-0.09.14A34,34,0,0,0,300.1,184c-0.08.57-.15,1.15-0.21,1.75h0c-0.13,1.33-.2,2.89-0.2,4.37,0,1.86.22,5.84,0.58,11.84H301v-0.16c0,13.62,2.27,36.25,4,59.18l-0.19,0c0.68,8.82,1.43,17.65,2.06,26l0.11,0h0c1,17.19,2.19,32.37,2.64,41.21,0,0-.15.05-0.18,0.08,0.14,2.83.25,5,.25,6.38,0,6,2.29,20.18.29,35.33h0a0.37,0.37,0,0,1,.22-0.23c0,0.07.06,0.15,0.06,0.22C307.51,393.84,295,420,250,420V341.5a1.88,1.88,0,0,0,2-1.5V169a1.88,1.88,0,0,0-2-1.5v-2.79s1.06,0,11.53-4.08C262.06,160.43,262.45,160.22,263,160Z"/><path class="cls-3" d="M252,169V340a1.88,1.88,0,0,1-2,1.5v-174A1.88,1.88,0,0,1,252,169Z"/><path class="cls-8" d="M309.69,334.67c0-1.37-.08-3.55-0.23-6.38C324,315.47,351.38,286,339.09,254.5l0,0,0,0s-17,23.7-32.41,32.49c-0.63-8.37-1.3-17.22-2-26,10.6-11.79,30.49-39.47,18.53-71h0s-7,6.86-22.91,11.69c-0.37-5.7-.59-9.83-0.59-11.69,0-1.48.07-2.88,0.2-4.21,0.41-.13,18.2-6,29.67-16.56,0.21,0.48,1.08,2.49,2.38,5.74a11.89,11.89,0,0,1,2.41-1.19l82.91-29.5a12,12,0,0,1,15.33,7.28l9.72,27.32A12,12,0,0,1,435,194.22l-82.91,29.5a11.89,11.89,0,0,1-4.77.66c5.76,24.9,9.55,54.78,4.67,82a18.66,18.66,0,0,1,7-1.45,45,45,0,0,1,45,45c0,18.92-11.68,56.09-28.21,72.78-10.28-8.81-31.5-11.4-37.83-12.76-4-.85-9.33,2.65-14,7.3-8.63-7.95-14.29-18.69-14.29-30.63a76,76,0,0,1,2.83-18.37q-1.2.75-2.45,1.48C311.78,354.7,309.69,340.6,309.69,334.67Z"/><path class="cls-8" d="M299.89,185.79c0.42-.14,18.16-6,29.62-16.68l0.05,0.11c-11.47,10.56-29.26,16.43-29.67,16.56h0Z"/><path class="cls-8" d="M323.35,190h0.09c12,31.49-7.44,59.17-18.44,71h0C316,249.16,335.31,221.48,323.35,190Z"/><path class="cls-8" d="M339.06,254.54l0,0c12.29,31.47-15.11,61-29.63,73.79v-0.08C324,315.36,351.29,285.93,339.06,254.54Z"/><path class="cls-8" d="M306.81,287H306.7c-0.63-8.38-1.16-17.23-1.84-26H305C306,269.77,306.18,278.62,306.81,287Z"/><path class="cls-8" d="M310,370c2-15.15-.33-29.37-0.33-35.33,0-1.37-.07-3.55-0.21-6.38,0,0,0-.05,0-0.08s0,0.05,0,.08c0.14,2.83.22,5,.22,6.38,0,5.93,2.24,20,.53,35.11a0.38,0.38,0,0,0-.23.23h0Z"/><path class="cls-8" d="M299.74,190.16c0,1.86.16,5.84,0.53,11.84h0c-0.37-6-.53-10-0.53-11.84,0-1.48.26-3,.26-4.29v0h0C300,187.23,299.74,188.68,299.74,190.16Z"/><path class="cls-9" d="M338,410c6.33,1.36,27.55,3.95,37.83,12.76,4.87,4.17,7.29,9.74,4.5,17.24-3,8.12-65.33-.67-67-5.33-1-2.68,4.25-11.08,10.62-17.37C328.69,412.65,334.05,409.15,338,410Z"/><path class="cls-10" d="M442.31,178.89l-9.72-27.32a12,12,0,0,0-15.33-7.28l-82.91,29.5a11.89,11.89,0,0,0-2.41,1.19c-1.3-3.26-2.17-5.27-2.38-5.74l0-.11h0l0,0.11,0.13-.11c7-6.49,11.59-14.75,8.33-24.53-8.67-26-9.84-19.29-11.18-28.62S310,40.33,250,48.67V420c45,0,57.51-26.16,60.28-50,0-.07-0.06-0.15-0.05-0.22h0v-0.1c0.77-.45,1.54-0.91,2.28-1.37a76,76,0,0,0-2.83,18.37c0,11.94,5.66,22.69,14.29,30.63-6.37,6.29-11.58,14.68-10.62,17.37,1.67,4.67,64,13.46,67,5.33,2.79-7.5.37-13.07-4.5-17.24,16.54-16.69,28.21-53.86,28.21-72.78a45,45,0,0,0-45-45,18.66,18.66,0,0,0-7,1.45c4.87-27.25,1.09-57.12-4.67-82a11.89,11.89,0,0,0,4.77-.66L435,194.22A12,12,0,0,0,442.31,178.89ZM323.19,190h0C335,221.17,316,248.61,305,260.59h0C316,248.59,335,221.17,323.19,190ZM339,254.5l0,0c-0.61.84-17.12,23.6-32.19,32.32h0C322.23,278,339,254.5,339,254.5Zm-39.16-68.71h0c0.06-.6.13-1.18,0.21-1.75a34,34,0,0,1,4.83-13.9h0a34,34,0,0,0-4.84,13.9c-0.08.57-.15,1.15-0.21,1.75h0c-0.06.59-.1,1.19-0.13,1.81C299.79,187,299.83,186.36,299.89,185.79ZM299.74,188c0,0.64,0,1.29,0,2C299.69,189.31,299.71,188.65,299.74,188Zm5.32-17.85h0c0.06-.11,15.53-27.47-12.81-27.88C320.72,142.63,305.06,170.14,305.06,170.14Zm-5.37,20s0-.09,0-0.14c0,1.35.12,3.89,0.32,7.34,0.07,1.39.16,2.92,0.26,4.64C299.9,196,299.69,192,299.69,190.16Zm0.34,7.59c0.07,1.21.15,2.53,0.25,3.95h0l0,0.31h0C300.18,200.44,300.1,199,300,197.74Z"/><path class="cls-7" d="M158.13,465.94V465h3.75v11.25h3.75v1.88H154.38v-1.87h3.75v-7.5h-1.87v-1.87h1.88v-0.94Z"/><path class="cls-7" d="M171.25,465.94V465h5.63v1.88h1.88v1.88h1.88v5.63h-1.87v1.88h-1.87v1.88h-5.62v-1.87h-1.87v-1.87H167.5v-5.62h1.88v-1.87h1.88v-0.94Zm3.75,1.88v-0.94h-3.75v7.5h1.88v1.88h3.75v-7.5H175v-0.94Z"/><path class="cls-7" d="M184.38,465.94V465h7.5v1.88h1.88v3.75h-1.87v1.88h3.75v3.75h-1.87v1.88h-9.37v-1.87H182.5V472.5h1.88v-1.87H182.5v-3.75h1.88v-0.94Zm3.75,7.5V472.5h-3.75v3.75h7.5v-1.87h-3.75v-0.94Zm3.75-4.69v-1.87h-5.62v1.88h1.88v1.88h3.75v-1.87Z"/><path class="cls-7" d="M214.38,471.56V465h3.75v11.25h7.5v1.88H214.38v-6.56Z"/><path class="cls-7" d="M229.38,465.94V465h11.25v1.88h-3.75v9.38h3.75v1.88H229.38v-1.87h3.75v-9.37h-3.75v-0.94Z"/><path class="cls-7" d="M246.25,465.94V465h7.5v1.88h1.88v1.88h-3.75v-1.87h-3.75v1.88h-1.87v5.63h1.88v1.88h3.75v-1.87h3.75v1.88h-1.87v1.88h-7.5v-1.87h-1.87v-1.87H242.5v-5.62h1.88v-1.87h1.88v-0.94Z"/><path class="cls-7" d="M257.5,471.56V465h3.75v5.63h1.88v-1.87H265v-1.87h1.88V465h3.75v1.88h-1.87v1.88h-1.87v1.88H265v1.88h1.88v1.88h1.88v1.88h1.88v1.88H265v-1.87h-1.87v-1.87h-1.87v3.75H257.5v-6.56Z"/><path class="cls-7" d="M274.38,465.94V465h11.25v1.88h-3.75v9.38h3.75v1.88H274.38v-1.87h3.75v-9.37h-3.75v-0.94Z"/><path class="cls-7" d="M289.38,465.94V465h11.25v1.88h-3.75v11.25h-3.75V466.88h-3.75v-0.94Z"/><path class="cls-7" d="M302.5,470.63V465h3.75v11.25h5.63V465h3.75v11.25h-1.87v1.88h-9.37v-1.87H302.5v-5.62Z"/><path class="cls-7" d="M317.5,471.56V465h3.75v1.88h1.88v1.88H325v1.88h1.88V465h3.75v13.13h-3.75v-1.87H325v-1.87h-1.87V472.5h-1.87v5.63H317.5v-6.56Z"/><path class="cls-7" d="M336.25,465.94V465h9.38v1.88h-7.5v1.88h-1.87v5.63h1.88v1.88h3.75V472.5H340v-1.87h5.63v7.5h-9.37v-1.87h-1.87v-1.87H332.5v-5.62h1.88v-1.87h1.88v-0.94Z"/></svg>