<?xml version="1.0" ?><svg id="pkflt" viewBox="0 0 500 500" xmlns="http://www.w3.org/2000/svg"><defs><style>.cls-1{fill:#ab93ad;}.cls-2{fill:#fff;}.cls-3,.cls-6{fill:#1a1a1a;}.cls-4{fill:#d57880;}.cls-5{fill:#dbd076;}.cls-6{opacity:0.1;}</style></defs><title/><path class="cls-1" d="M238,307.37c0-3.4,5-6.28,12-7.27v-0.37c-10,0-17.29,3.42-17.29,7.65S240,315,250,315v-0.37C243,313.65,238,310.77,238,307.37Z"/><path class="cls-2" d="M176.87,211h63.84S206.79,150,176.87,211Zm49.21-1.06a3.66,3.66,0,1,1,3.66-3.66A3.66,3.66,0,0,1,226.08,209.94Z"/><circle class="cls-3" cx="226.08" cy="206.29" r="3.66"/><path class="cls-4" d="M200.37,244.53L191.5,233h-8c10.2,45,66.48,45.11,66.48,45.11V233H208.79Z"/><polygon class="cls-2" points="208.79 233 191.5 233 200.37 244.53 208.79 233"/><path class="cls-1" d="M238,307.37c0,3.4,5,6.28,12,7.27V300.09C243,301.09,238,304,238,307.37Z"/><path class="cls-5" d="M232.71,307.37c0-4.22,7.29-7.65,17.29-7.65V293.4c-17,0-31.58,6.26-31.58,14,0,5.44,7,10.15,17.31,12.46,0,0.06,0,.12,0,0.18,0,3.21,2,5.81,4.49,5.81,2.18,0,4-2,4.4-4.69l0.93,0.07s0,0.09,0,.14c0,3.21,2.48,5.81,4.48,5.81V315C240,315,232.71,311.59,232.71,307.37Z"/><path class="cls-5" d="M225.58,330.91c0.89-2.56.58-5.17-1.08-6.83-2.6-2.6-7.49-1.91-10.93,1.53s-4.13,8.34-1.53,10.93c2.14,2.14,5.85,2,9,0L242,345.82l-9.42,4.7a4.92,4.92,0,0,0-4.83-.74c-2.61,1.13-3.61,4.64-2.23,7.84s4.62,4.88,7.24,3.76c2.2-1,3.23-3.59,2.69-6.32l13.24-6.28,1.34,0.6v-7.56l-0.1.05Z"/><path class="cls-1" d="M246.36,118c-2,0-4.2,3.25-4.87,6.85l-3.62,19.68a113,113,0,0,0-49.4,17.78l-11.68-1.8a15.82,15.82,0,0,0-11.5,3.45L161,167.9a12.76,12.76,0,0,0-3.51,11l2.25,10.35a113.08,113.08,0,0,0-22.86,68.35,114.78,114.78,0,0,0,.69,12.43l-11.94,8.3a16,16,0,0,0-6,10.42s-0.8,10,3.41,11c2.37,0.56,13.65,1.79,23.06,2.76a113.75,113.75,0,0,0,19.63,30.76L160,339.64a9.81,9.81,0,0,0-1.07,10.71l1.06,1.81a9.45,9.45,0,0,0,9.81,4.15L187.27,352a113.27,113.27,0,0,0,24,12.22l-5.39,11.14a3,3,0,0,0,2.17,4.38l9.69,2a8.07,8.07,0,0,0,6.67-2.09l9.23-9.68A109.56,109.56,0,0,0,250,371.2V349.38l-1.34-.6-13.24,6.28c0.55,2.72-.48,5.37-2.68,6.32-2.61,1.13-5.85-.55-7.24-3.76s-0.39-6.71,2.23-7.84a4.92,4.92,0,0,1,4.83.74l9.42-4.7-20.93-9.27c-3.17,2-6.87,2.13-9,0-2.6-2.6-1.91-7.49,1.53-10.93s8.34-4.13,10.93-1.53c1.66,1.66,2,4.27,1.08,6.83l24.32,11,0.1-.05V327.15c-2,0-4.48-2.6-4.48-5.81,0,0,0-.09,0-0.14l-0.93-.07c-0.4,2.67-2.22,4.69-4.4,4.69-2.48,0-4.49-2.6-4.49-5.81,0-.06,0-0.12,0-0.18-10.27-2.31-17.31-7-17.31-12.46,0-7.72,14.58-14,31.58-14V278.11S193.72,278,183.52,233H250V118h-3.64Zm-69.49,93c29.92-61,63.84,0,63.84,0H176.87Z"/><path class="cls-1" d="M262,307.37c0-3.4-5-6.28-12-7.27v-0.37c9,0,17.29,3.42,17.29,7.65S259,315,250,315v-0.37C257,313.65,262,310.77,262,307.37Z"/><path class="cls-2" d="M259.18,211H323C293.1,150,259.18,211,259.18,211Zm11-4.71a3.66,3.66,0,1,1,3.66,3.66A3.66,3.66,0,0,1,270.15,206.29Z"/><circle class="cls-3" cx="273.81" cy="206.29" r="3.66"/><path class="cls-4" d="M299.52,244.53L308.39,233h8C306.17,278,250,278.11,250,278.11V233h41.1Z"/><polygon class="cls-2" points="291.1 233 308.39 233 299.52 244.53 291.1 233"/><path class="cls-1" d="M262,307.37c0,3.4-5,6.28-12,7.27V300.09C257,301.09,262,304,262,307.37Z"/><path class="cls-5" d="M267.29,307.37c0-4.22-8.29-7.65-17.29-7.65V293.4c17,0,31.52,6.26,31.52,14,0,5.44-7.07,10.15-17.34,12.46,0,0.06,0,.12,0,0.18,0,3.21-2,5.81-4.5,5.81-2.18,0-4-2-4.41-4.69l-0.93.07s0.07,0.09.07,0.14c0,3.21-1.43,5.81-4.43,5.81V315C259,315,267.29,311.59,267.29,307.37Z"/><path class="cls-5" d="M274.31,330.91c-0.89-2.56-.58-5.17,1.08-6.83,2.6-2.6,7.49-1.91,10.93,1.53s4.13,8.34,1.53,10.93c-2.14,2.14-5.85,2-9,0l-20.93,9.27,9.42,4.7a4.92,4.92,0,0,1,4.83-.74c2.61,1.13,3.61,4.64,2.23,7.84s-4.62,4.88-7.24,3.76c-2.2-1-3.23-3.59-2.69-6.32l-13.18-6.28-1.28.6v-7.56l0,0.05Z"/><path class="cls-1" d="M250,118V233h66.37C306.17,278,250,278.11,250,278.11V293.4c17,0,31.52,6.26,31.52,14,0,5.44-7.07,10.15-17.34,12.46,0,0.06,0,.12,0,0.18,0,3.21-2,5.81-4.5,5.81-2.18,0-4-2-4.41-4.69l-0.93.07s0.07,0.09.07,0.14c0,3.21-1.43,5.81-4.43,5.81v14.67l0,0.05,24.3-11c-0.89-2.56-.59-5.17,1.07-6.83,2.6-2.6,7.48-1.91,10.92,1.53s4.12,8.34,1.52,10.93c-2.14,2.14-5.85,2-9,0l-20.93,9.27,9.42,4.7a4.92,4.92,0,0,1,4.83-.74c2.61,1.13,3.61,4.64,2.23,7.84s-4.62,4.88-7.24,3.76c-2.2-1-3.23-3.59-2.69-6.32l-13.18-6.28-1.28.6V371.2a120,120,0,0,0,16.32-1.25l9.21,9.68a8,8,0,0,0,6.65,2.09l9.68-2a3,3,0,0,0,2.17-4.38l-5.39-11.14a113.27,113.27,0,0,0,24-12.22l17.46,4.31a9.45,9.45,0,0,0,9.81-4.15l1.06-1.81a9.81,9.81,0,0,0-1.07-10.71l-5.69-6.41a113.75,113.75,0,0,0,19.63-30.76c9.41-1,20.69-2.19,23.06-2.76,4.21-1,3.41-11,3.41-11a16,16,0,0,0-6-10.42L362.37,270a114.77,114.77,0,0,0,.69-12.43,113.08,113.08,0,0,0-22.86-68.35l2.25-10.35a12.75,12.75,0,0,0-3.51-11L334.6,164a15.81,15.81,0,0,0-11.5-3.44l-11.68,1.83A113,113,0,0,0,262,144.66l-3.62-19.81c-0.67-3.6-2.86-6.85-4.87-6.85H250Zm9.18,93s33.91-61,63.84,0H259.18Z"/><path class="cls-6" d="M380.3,288.73a16,16,0,0,0-6-10.42L362.37,270a114.77,114.77,0,0,0,.69-12.43,113.08,113.08,0,0,0-22.86-68.35l2.25-10.35a12.75,12.75,0,0,0-3.51-11L334.6,164a15.81,15.81,0,0,0-11.5-3.44l-11.68,1.83A113,113,0,0,0,262,144.66l-3.62-19.81c-0.67-3.6-2.86-6.85-4.87-6.85H250V349.38l1.27-.6h0l-1.27.6V371.2a120,120,0,0,0,16.32-1.25l9.21,9.68a8,8,0,0,0,6.65,2.09l9.68-2a3,3,0,0,0,2.17-4.38l-5.39-11.14a113.27,113.27,0,0,0,24-12.22l17.46,4.31a9.45,9.45,0,0,0,9.81-4.15l1.06-1.81a9.81,9.81,0,0,0-1.07-10.71l-5.69-6.41a113.75,113.75,0,0,0,19.63-30.76c9.41-1,20.69-2.19,23.06-2.76C381.1,298.72,380.3,288.73,380.3,288.73Zm-105.91,68.9a7.08,7.08,0,0,1-3.16,3.5,5.24,5.24,0,0,1-2,.59,5.24,5.24,0,0,0,2-.59,7.08,7.08,0,0,0,3.16-3.5c1.38-3.2.39-6.71-2.23-7.84a4.25,4.25,0,0,0-1.83-.34,4.25,4.25,0,0,1,1.83.34C274.77,350.91,275.77,354.42,274.39,357.62Zm-16.48-11.8,9.42,4.7h0l-9.42-4.7,20.93-9.27h0Zm30-9.28a5.66,5.66,0,0,1-4.13,1.57,5.66,5.66,0,0,0,4.12-1.57c2.6-2.6,1.91-7.49-1.53-10.93a10.12,10.12,0,0,0-6.52-3.1,10.11,10.11,0,0,1,6.53,3.1C289.78,329,290.46,333.94,287.86,336.54ZM259.18,211.61s33.91-61.84,63.84,0C293.1,150.43,259.18,211.61,259.18,211.61Z"/><path class="cls-1" d="M173.13,465.94V465h3.75v11.25h3.75v1.88H169.38v-1.87h3.75v-7.5h-1.87v-1.87h1.88v-0.94Z"/><path class="cls-1" d="M186.25,465.94V465h5.63v1.88h1.88v1.88h1.88v5.63h-1.87v1.88h-1.87v1.88h-5.62v-1.87h-1.87v-1.87H182.5v-5.62h1.88v-1.87h1.88v-0.94Zm3.75,1.88v-0.94h-3.75v7.5h1.88v1.88h3.75v-7.5H190v-0.94Z"/><path class="cls-1" d="M199.38,465.94V465h9.38v1.88h1.88v7.5h-1.87v1.88h-1.87v1.88h-7.5v-1.87H205v-1.87h1.88V472.5h-7.5v-1.87H197.5v-3.75h1.88v-0.94Zm7.5,2.81v-1.87h-5.62v3.75h5.63v-1.87Z"/><path class="cls-1" d="M227.5,471.56V465h3.75v5.63h1.88v-1.87H235v-1.87h1.88V465h3.75v1.88h-1.87v1.88h-1.87v1.88H235v1.88h1.88v1.88h1.88v1.88h1.88v1.88H235v-1.87h-1.87v-1.87h-1.87v3.75H227.5v-6.56Z"/><path class="cls-1" d="M244.38,465.94V465h9.38v1.88h1.88v9.38h-1.87v1.88h-9.37v-1.87H242.5v-9.37h1.88v-0.94Zm7.5,5.63v-4.69h-5.62v9.38h5.63v-4.69Z"/><path class="cls-1" d="M257.5,471.56V465h13.13v1.88h-9.37v3.75h7.5v1.88h-7.5v5.63H257.5v-6.56Z"/><path class="cls-1" d="M272.5,471.56V465h13.13v1.88h-9.37v3.75h7.5v1.88h-7.5v5.63H272.5v-6.56Z"/><path class="cls-1" d="M289.38,465.94V465h11.25v1.88h-3.75v9.38h3.75v1.88H289.38v-1.87h3.75v-9.37h-3.75v-0.94Z"/><path class="cls-1" d="M302.5,471.56V465h3.75v1.88h1.88v1.88H310v1.88h1.88V465h3.75v13.13h-3.75v-1.87H310v-1.87h-1.87V472.5h-1.87v5.63H302.5v-6.56Z"/><path class="cls-1" d="M321.25,465.94V465h9.38v1.88h-7.5v1.88h-1.87v5.63h1.88v1.88h3.75V472.5H325v-1.87h5.63v7.5h-9.37v-1.87h-1.87v-1.87H317.5v-5.62h1.88v-1.87h1.88v-0.94Z"/></svg>