<?xml version="1.0" ?><svg id="pkft" viewBox="0 0 500 500" xmlns="http://www.w3.org/2000/svg"><defs><style>.cls-1{fill:#8ca56b;}.cls-2{fill:#91ad71;}.cls-3{fill:#99b779;}.cls-4{fill:#9cbf7c;}.cls-5{fill:#9ec67f;}.cls-6{fill:#9dc97b;}.cls-7{fill:#a2ce83;}.cls-8{fill:#a2ce96;}.cls-9{fill:#97c6a6;}.cls-10{fill:#97c691;}.cls-11{fill:#fff;}.cls-12,.cls-14{fill:#1a1a1a;}.cls-13{fill:#a2ce92;}.cls-14{opacity:0.1;}.cls-15{fill:#97bf8a;}</style></defs><title/><path class="cls-1" d="M250,396h-6.27a7.07,7.07,0,0,1-6.46-4.66L234,380.7c-0.8-2.63.79-4.7,3.54-4.7H250"/><path class="cls-2" d="M250,368.84l-12.19-.41c-2.75-.09-6,1-7.19,2.37s-2,3.09-1.86,3.77,1,2.8,1.78,4.72,3.6,2.83,6.24,2l13.21-4"/><path class="cls-3" d="M250,362.16l-14.41-.49c-2.75-.09-6.11,1.12-7.47,2.7s-2.3,3.49-2.1,4.26,1.11,3.16,2,5.33,3.79,3.28,6.42,2.48L250,371.73"/><path class="cls-4" d="M250,351l-18.8-.64a11.46,11.46,0,0,0-8,3.35c-1.67,1.93-2.83,4.29-2.57,5.23s1.33,3.79,2.38,6.32l0.17,0.42a5.66,5.66,0,0,0,6.71,3.16L250,362.77"/><path class="cls-5" d="M250,339.9l-22.8-.77a11.87,11.87,0,0,0-8.26,3.62l-0.55.64c-1.8,2.08-3,4.68-2.73,5.78s1.4,4.07,2.46,6.61l0.85,2a5.66,5.66,0,0,0,6.71,3.16L250,353.61"/><path class="cls-6" d="M250,257.64V339.9s-23.67,0-33.81,11.27L196.75,279l39.44-19.72Z"/><path class="cls-7" d="M244.93,108.32l-3.1,3.1a23.94,23.94,0,0,0-4.72,8.5l-30.57,101.9a40.33,40.33,0,0,0-1.67,5.44,1.16,1.16,0,0,0,.05.71c0.65,1.28,3.83-1,5.63-1h33.81a5.47,5.47,0,0,0,5.63-5.42V103.25Z"/><path class="cls-8" d="M244.37,227H210.56c-1.81,0-5,2.24-5.63,1a1.34,1.34,0,0,1-.05-0.76c-1.22.9-2.8,3.39-3.56,4.3,0,0-15.26,18.23-30.19,18.23l19.41,29.13a11.8,11.8,0,0,0,8.76,4.69,21.92,21.92,0,0,0,10.32-3.12L234,264.13A21.94,21.94,0,0,1,244.37,261H250V221.58A5.47,5.47,0,0,1,244.37,227Z"/><path class="cls-9" d="M250,268h-7.89a2.41,2.41,0,0,1-2.35-3.33L244.2,251a4.12,4.12,0,0,1,3.42-3H250"/><path class="cls-10" d="M250,221.7l-9,14.91a4.78,4.78,0,0,0-.23,4l3.22,7.27a3.92,3.92,0,0,0,3.18,2.16H250"/><path class="cls-11" d="M219.57,221.58c7.42,0,13.63-5.5,15.31-12.9a18.79,18.79,0,0,0-17.55-11.33,19.38,19.38,0,0,0-13.42,5.28,18.2,18.2,0,0,0-.13,2C203.8,214,210.86,221.58,219.57,221.58Z"/><path class="cls-12" d="M219.46,206.79a8.39,8.39,0,0,0,8-6.75,9.83,9.83,0,0,0-9.18-5.93,10.14,10.14,0,0,0-7,2.76,9.52,9.52,0,0,0-.07,1.07C211.21,202.83,214.9,206.79,219.46,206.79Z"/><path class="cls-13" d="M234.89,208.68a18,18,0,0,0,.46-4c0-9.34-7.06-16.9-15.78-16.9-8.07,0-14.71,6.49-15.65,14.86a19.38,19.38,0,0,1,13.42-5.28A18.79,18.79,0,0,1,234.89,208.68Z"/><path class="cls-1" d="M250,396h6.27a7.07,7.07,0,0,0,6.46-4.66L266,380.7c0.8-2.63-.79-4.7-3.54-4.7H250"/><path class="cls-2" d="M250,368.84l12.19-.41c2.75-.09,6,1,7.19,2.37s2,3.09,1.86,3.77-1,2.8-1.78,4.72-3.6,2.83-6.24,2l-13.21-4"/><path class="cls-3" d="M250,362.16l14.41-.49c2.75-.09,6.11,1.12,7.47,2.7s2.3,3.49,2.1,4.26-1.11,3.16-2,5.33-3.79,3.28-6.42,2.48L250,371.73"/><path class="cls-4" d="M250,351l18.8-.64a11.46,11.46,0,0,1,8,3.35c1.67,1.93,2.83,4.29,2.57,5.23s-1.33,3.79-2.38,6.32l-0.17.42a5.66,5.66,0,0,1-6.71,3.16L250,362.77"/><path class="cls-5" d="M250,339.9l22.8-.77a11.87,11.87,0,0,1,8.26,3.62l0.55,0.64c1.8,2.08,3,4.68,2.73,5.78s-1.4,4.07-2.46,6.61l-0.85,2a5.66,5.66,0,0,1-6.71,3.16L250,353.61"/><path class="cls-6" d="M250,257.64V339.9s23.67,0,33.81,11.27L303.25,279,263.8,259.33Z"/><path class="cls-7" d="M255.07,108.32l3.1,3.1a23.94,23.94,0,0,1,4.72,8.5l30.57,101.9a40.33,40.33,0,0,1,1.67,5.44,1.16,1.16,0,0,1-.05.71c-0.65,1.28-3.83-1-5.63-1H255.63a5.47,5.47,0,0,1-5.63-5.42V103.25Z"/><path class="cls-8" d="M255.63,227h33.81c1.81,0,5,2.24,5.63,1a1.34,1.34,0,0,0,.05-0.76c1.22,0.9,2.8,3.39,3.56,4.3,0,0,15.26,18.23,30.19,18.23l-19.41,29.13a11.8,11.8,0,0,1-8.76,4.69,21.92,21.92,0,0,1-10.32-3.12L266,264.13A21.94,21.94,0,0,0,255.63,261H250V221.58A5.47,5.47,0,0,0,255.63,227Z"/><path class="cls-9" d="M250,268h7.89a2.41,2.41,0,0,0,2.35-3.33L255.8,251a4.12,4.12,0,0,0-3.42-3H250"/><path class="cls-10" d="M250,221.7l9,14.91a4.78,4.78,0,0,1,.23,4L256,247.84a3.92,3.92,0,0,1-3.18,2.16H250"/><path class="cls-11" d="M280.43,221.58c-7.42,0-13.63-5.5-15.31-12.9a18.79,18.79,0,0,1,17.55-11.33,19.38,19.38,0,0,1,13.42,5.28,18.2,18.2,0,0,1,.13,2C296.2,214,289.14,221.58,280.43,221.58Z"/><path class="cls-12" d="M280.54,206.79a8.39,8.39,0,0,1-8-6.75,9.83,9.83,0,0,1,9.18-5.93,10.14,10.14,0,0,1,7,2.76,9.52,9.52,0,0,1,.07,1.07C288.79,202.83,285.1,206.79,280.54,206.79Z"/><path class="cls-13" d="M265.11,208.68a18,18,0,0,1-.46-4c0-9.34,7.06-16.9,15.78-16.9,8.07,0,14.71,6.49,15.65,14.86a19.38,19.38,0,0,0-13.42-5.28A18.79,18.79,0,0,0,265.11,208.68Z"/><path class="cls-14" d="M298.69,231.53c-0.76-.91-2.35-3.38-3.56-4.27a40.33,40.33,0,0,0-1.67-5.44l-1.64-5.47a17.48,17.48,0,0,0,4.39-11.68,18.19,18.19,0,0,0-.13-2c-0.83-7.34-6-13.23-12.75-14.57l-20.44-68.14a23.94,23.94,0,0,0-4.72-8.5l-3.1-3.1L250,103.25V397h11.27l4.32-14.58L268,383l2.07-5.06,0.26,0L273.6,370l0-.1,1.29,0.39,3.39-8.14,0.8,0.24,4.7-11.27,18.26-67.75a12,12,0,0,0,7.4-4.56l19.41-29.12C314,249.75,298.69,231.53,298.69,231.53Z"/><path class="cls-15" d="M171.25,465.94V465h5.63v1.88h1.88v1.88h1.88v5.63h-1.87v1.88h-1.87v1.88h-5.62v-1.87h-1.87v-1.87H167.5v-5.62h1.88v-1.87h1.88v-0.94Zm3.75,1.88v-0.94h-3.75v7.5h1.88v1.88h3.75v-7.5H175v-0.94Z"/><path class="cls-15" d="M188.13,465.94V465h3.75v11.25h3.75v1.88H184.38v-1.87h3.75v-7.5h-1.87v-1.87h1.88v-0.94Z"/><path class="cls-15" d="M203.13,465.94V465h3.75v11.25h3.75v1.88H199.38v-1.87h3.75v-7.5h-1.87v-1.87h1.88v-0.94Z"/><path class="cls-15" d="M227.5,471.56V465h3.75v1.88h1.88v1.88H235v-1.87h1.88V465h3.75v13.13h-3.75V472.5H235v1.88h-1.87V472.5h-1.87v5.63H227.5v-6.56Z"/><path class="cls-15" d="M242.5,471.56V465h13.13v1.88h-9.37v3.75h7.5v1.88h-7.5v3.75h9.38v1.88H242.5v-6.56Z"/><path class="cls-15" d="M259.38,465.94V465h11.25v1.88h-3.75v11.25h-3.75V466.88h-3.75v-0.94Z"/><path class="cls-15" d="M276.25,465.94V465h5.63v1.88h1.88v1.88h1.88v9.38h-3.75v-3.75h-5.62v3.75H272.5v-9.37h1.88v-1.87h1.88v-0.94Zm3.75,1.88v-0.94h-1.87v1.88h-1.87v3.75h5.63v-3.75H280v-0.94Z"/><path class="cls-15" d="M287.5,471.56V465h11.25v1.88h1.88v5.63h-1.87v1.88h-7.5v3.75H287.5v-6.56Zm9.38-1.87v-2.81h-5.62v5.63h5.63v-2.81Z"/><path class="cls-15" d="M304.38,465.94V465h9.38v1.88h1.88v9.38h-1.87v1.88h-9.37v-1.87H302.5v-9.37h1.88v-0.94Zm7.5,5.63v-4.69h-5.62v9.38h5.63v-4.69Z"/><path class="cls-15" d="M317.5,471.56V465h9.38v1.88h1.88v1.88h1.88v5.63h-1.87v1.88h-1.87v1.88H317.5v-6.56Zm7.5-3.75v-0.94h-3.75v9.38H325v-1.87h1.88v-5.62H325v-0.94Z"/></svg>