<?xml version="1.0" ?><svg id="pkflt" viewBox="0 0 500 500" xmlns="http://www.w3.org/2000/svg"><defs><style>.cls-1{fill:#333;}.cls-2{fill:#fff;}.cls-3{fill:#8a2e3a;}.cls-4{fill:#a997ac;}.cls-5{fill:#cdb098;}.cls-6{fill:none;}.cls-10,.cls-7{fill:#1a1a1a;}.cls-8{fill:#d6bdaa;}.cls-9{fill:#9b84a0;}.cls-10{opacity:0.1;}</style></defs><title/><path class="cls-1" d="M211.71,271.63c1.46,0,2.74-2.22,3.52-5.6a1.87,1.87,0,0,1,.36-3.71l0.24,0c0-.13,0-0.27,0-0.4-2.63-.17-5.46-0.2-8.32-0.13C208,267.46,209.7,271.63,211.71,271.63Z"/><path class="cls-2" d="M228.42,265.46c-2.24-2.14-7-3.16-12.56-3.52,0,0.14,0,.27,0,0.4l-0.24,0a1.87,1.87,0,0,0-.36,3.71c-0.78,3.38-2.06,5.6-3.52,5.6-2,0-3.68-4.17-4.17-9.82a217.33,217.33,0,0,0-25.85,2.48C210.45,302.29,228.42,265.46,228.42,265.46Z"/><path class="cls-3" d="M197.25,324.23C194.31,338.73,204,339,211,337V319.23C204,321.57,197.25,324.23,197.25,324.23Z"/><path class="cls-2" d="M212.67,310.33c-0.88-1.55-1.67-1.36-1.67.42v8.48c2-.57,3.82-1.12,5.77-1.61Z"/><path class="cls-2" d="M216.81,317.62c-2,.49-3.81,1-5.81,1.61V337a26.83,26.83,0,0,0,6.55-2.54c1.32-.73,4.28-1.07,7.82-1.16l0.3-.1Z"/><path class="cls-2" d="M229,318.3c0,1.19,2,1.7,3.74,1.7H236a3.05,3.05,0,0,0,3.14-2.26c-1.07-.35-2.24-0.65-3.54-1.17a17.79,17.79,0,0,0-6.18-.88l-0.38.46v2.16Z"/><path class="cls-4" d="M239.87,349.75c0,3.64,4.13,6.59,10.13,6.59V343.17C244,343.17,239.87,346.12,239.87,349.75Z"/><path class="cls-5" d="M232,349.75c0,6.45,8,11.68,18,11.68v-5.1c-6,0-10.13-2.95-10.13-6.59s4.13-6.59,10.13-6.59v-5.1C240,338.07,232,343.3,232,349.75Z"/><path class="cls-6" d="M239.15,318c-1.07-.35-2.27-0.77-3.56-1.29a16.36,16.36,0,0,0-5.94-.94,54.59,54.59,0,0,0-12.75,1.88l-4.22-7.29c-0.88-1.55-1.68-1.36-1.68.42v8.48c-7,2.34-13.67,5-13.67,5-2.94,14.5,6.55,14.76,13.79,12.78a31.55,31.55,0,0,0,6.49-2.54c1.32-.73,4.29-1.07,7.83-1.16A230.44,230.44,0,0,1,249,334.48V318.84S247,320.5,239.15,318Z"/><path class="cls-6" d="M228.42,265.46c-2.24-2.14-7-3.16-12.56-3.52-2.63-.17-5.46-0.2-8.32-0.13a217.33,217.33,0,0,0-25.85,2.48C210.45,302.29,228.42,265.46,228.42,265.46Z"/><path class="cls-5" d="M234.19,363c-0.81-2-2.12-2.11-3.61-2.11a4.35,4.35,0,0,0-4.45,4.33A4.42,4.42,0,0,0,234,368h9.4l-7.3,7.28a2.66,2.66,0,0,0-3,.15c-1,1-.59,3.07.94,4.6s3.6,1.95,4.61.93a2.06,2.06,0,0,0,.55-1.55L250,368.54V363H234.19Z"/><path class="cls-6" d="M229.63,315.74a54.54,54.54,0,0,0-12.74,1.88l-4.22-7.29c-0.88-1.55-1.67-1.36-1.67.42v8.48c-7,2.34-13.67,5-13.67,5-2.94,14.5,6.55,14.76,13.79,12.78a31.55,31.55,0,0,0,6.49-2.54c1.32-.73,4.29-1.07,7.83-1.16A230.44,230.44,0,0,1,249,334.48V318.84s-2,1.66-9.85-.87c-1.07-.35-2.27-0.77-3.56-1.29A16.42,16.42,0,0,0,229.63,315.74Z"/><path class="cls-6" d="M228.42,265.46c-2.24-2.14-7-3.16-12.56-3.52-2.63-.17-5.46-0.2-8.32-0.13a217.33,217.33,0,0,0-25.85,2.48C210.45,302.29,228.42,265.46,228.42,265.46Z"/><path class="cls-4" d="M231.93,190.57q-2.95.56-5.83,1.28l-5.3-5a5.72,5.72,0,0,0-5.38-1.12l-19.54,7.13a4.48,4.48,0,0,0-2.77,4.33l0.81,9.47A95.65,95.65,0,0,0,160.55,248H148.62a3.71,3.71,0,0,0-3.53,3.32l-2.65,29.35a4.34,4.34,0,0,0,2.78,4.27l7.74,2.6a96.85,96.85,0,0,0,34.51,72.62l-2.68,9a4.14,4.14,0,0,0,1.92,4.63l14.46,7.73a8.53,8.53,0,0,0,5.91.48l11.58-4a96.62,96.62,0,0,0,23.34,4.8v29.81a2.76,2.76,0,0,1-1.09.71L240,411.45l-6,3.91,2.31,2.4a15,15,0,0,0-2.52,7.88L230,427.76l3.37,8.09,3.23-.93a15.08,15.08,0,0,0,12.28,6.32,8.49,8.49,0,0,0,1.08-.05V368.54l-10.79,10.87a2.05,2.05,0,0,1-.55,1.55c-1,1-3.08.59-4.61-.94s-2-3.6-.94-4.61a2.66,2.66,0,0,1,3-.13l7.3-7.28H234a4.35,4.35,0,0,1-3.42,1.59,4.47,4.47,0,0,1-4.45-4.47,4.26,4.26,0,0,1,4.45-4.22c1.49,0,2.81.1,3.61,2.1H250v-1.56c-10,0-18-5.23-18-11.68s8-11.68,18-11.68V188.89A99,99,0,0,0,231.93,190.57Zm-50.24,73.71a217.33,217.33,0,0,1,25.85-2.48c2.86-.07,5.69,0,8.32.13,5.61,0.37,10.32,1.39,12.56,3.52C228.42,265.46,210.45,302.29,181.69,264.28ZM249,334.48a230.15,230.15,0,0,0-23.54-1.16c-3.54.1-6.48,0.43-7.8,1.16a31.43,31.43,0,0,1-6.48,2.54c-7.25,2-16.78,1.71-13.84-12.78,0,0,6.66-2.66,13.66-5v-8.48c0-1.78.8-2,1.67-.42l4.18,7.29a54.71,54.71,0,0,1,12.76-1.88,16.36,16.36,0,0,1,5.94.94c1.3,0.52,2.52.94,3.59,1.29,7.82,2.53,9.85.87,9.85,0.87v15.64Z"/><path class="cls-2" d="M234.08,109.19c0,2.33-.43,4.21-1,4.21s-1-1.91-1-4.26c0,0,0,0,0-.07a184.36,184.36,0,0,1-19.39-3c14.56,32.35,27.5,2.43,27.5,2.43C239.19,109.16,236.9,109.31,234.08,109.19Z"/><path class="cls-7" d="M233.13,113.4c0.52,0,.95-1.88,1-4.21-0.61,0-1.25-.07-1.91-0.12,0,0,0,0,0,.07C232.17,111.49,232.6,113.4,233.13,113.4Z"/><path class="cls-6" d="M240.28,108.55c-1.09.61-3.38,0.76-6.2,0.64-0.61,0-1.25-.07-1.91-0.12a184.36,184.36,0,0,1-19.39-3C227.34,138.47,240.28,108.55,240.28,108.55Z"/><path class="cls-8" d="M238.05,165.16c0-3.11,4.95-5.62,11.95-5.62v-3c-10,0-18.33,3.86-18.33,8.63s8.33,8.63,18.33,8.63v-3C243,170.79,238.05,168.27,238.05,165.16Z"/><path class="cls-9" d="M238.05,165.16c0,3.11,4.95,5.62,11.95,5.62V159.54C243,159.54,238.05,162.06,238.05,165.16Z"/><path class="cls-2" d="M219.52,155.32L222.3,148c-2.41.65-4.4,1.23-5.78,1.64Z"/><path class="cls-7" d="M213.81,148.23a1.08,1.08,0,1,0,.66,2.05l2.06-.63c1.37-.41,3.37-1,5.78-1.64,7.29-2,18.7-4.61,27.7-5.22v-2.17C235,141.58,214.86,147.89,213.81,148.23Z"/><path class="cls-9" d="M213.81,148.23c1-.34,21.19-6.65,36.19-7.61v-74a64.4,64.4,0,0,0-20.76,3.5l-5.38-2.25a8.25,8.25,0,0,0-5.9.15L211,71.38A5.38,5.38,0,0,0,208.22,76l0.22,6.23a63.31,63.31,0,0,0-18.69,28.34l-5.62,1.34a4.3,4.3,0,0,0-3.13,4v13.66a5.73,5.73,0,0,0,2.88,4.68l3.13,1.57A62.81,62.81,0,0,0,193.3,158l-1.85,2.29a5.08,5.08,0,0,0-.4,5.32l4.48,7.71a5.55,5.55,0,0,0,4.85,2.5l5.57-.51a63.26,63.26,0,0,0,26,15.24A99,99,0,0,1,250,188.89v-15.1c-10,0-18.33-3.86-18.33-8.63s8.33-8.63,18.33-8.63V142.79c-15,1-35.28,7.41-35.53,7.49a1.09,1.09,0,0,1-.33.05A1.08,1.08,0,0,1,213.81,148.23Zm-1-42.11a184.36,184.36,0,0,0,19.39,3c0.66,0,1.29.09,1.91,0.12,2.82,0.12,5.11,0,6.2-.64C240.28,108.55,227.34,138.47,212.78,106.12Z"/><path class="cls-3" d="M250,318.24s-3,2-10.85-.5A3.1,3.1,0,0,1,236,320h-3.24c-1.78,0-3.74-.51-3.74-1.7v-2.16l0.38-.4a53.56,53.56,0,0,0-12.62,1.88l8.91,15.59-0.25.1c9.49-.26,24.57,1.82,24.57,1.82V318.24Z"/><path class="cls-1" d="M288.72,271.63c-1.46,0-2.74-2.22-3.52-5.6a1.87,1.87,0,0,0-.36-3.71l-0.24,0c0-.13,0-0.27,0-0.4,2.63-.17,5.46-0.2,8.32-0.13C292.4,267.46,290.72,271.63,288.72,271.63Z"/><path class="cls-2" d="M272,265.46c2.24-2.14,7-3.16,12.56-3.52,0,0.14,0,.27,0,0.4l0.24,0a1.87,1.87,0,0,1,.36,3.71c0.78,3.38,2.06,5.6,3.52,5.6,2,0,3.68-4.17,4.17-9.82a217.33,217.33,0,0,1,25.85,2.48C290,302.29,272,265.46,272,265.46Z"/><path class="cls-3" d="M302.75,324.23C305.69,338.73,296,339,289,337V319.23C296,321.57,302.75,324.23,302.75,324.23Z"/><path class="cls-2" d="M287.54,310.33c0.88-1.55,1.46-1.36,1.46.42v8.48c-2-.57-3.71-1.12-5.66-1.61Z"/><path class="cls-2" d="M283.4,317.62c2,0.49,3.6,1,5.6,1.61V337a24.6,24.6,0,0,1-6.34-2.54c-1.32-.73-4.17-1.07-7.71-1.16l-0.36-.1Z"/><path class="cls-2" d="M271,318.3c0,1.19-1.53,1.7-3.31,1.7h-3.24a3.05,3.05,0,0,1-3.14-2.26c1.07-.35,2.24-0.65,3.54-1.17a16.57,16.57,0,0,1,6-.88l0.17,0.46v2.16Z"/><path class="cls-4" d="M260.13,349.75c0,3.64-4.13,6.59-10.13,6.59V343.17C256,343.17,260.13,346.12,260.13,349.75Z"/><path class="cls-5" d="M268,349.75c0,6.45-8,11.68-18,11.68v-5.1c6,0,10.13-2.95,10.13-6.59S256,343.17,250,343.17v-5.1C260,338.07,268,343.3,268,349.75Z"/><path class="cls-6" d="M261.06,318c1.07-.35,2.37-0.77,3.67-1.29a16.66,16.66,0,0,1,6-.94,54.8,54.8,0,0,1,12.77,1.88l4-7.29c0.88-1.55,1.48-1.36,1.48.42v8.48c7,2.34,13.88,5,13.88,5,2.94,14.5-6.44,14.76-13.69,12.78a30.88,30.88,0,0,1-6.44-2.54c-1.32-.73-4.48-1.07-8-1.16-9.49-.26-23.74,1.16-23.74,1.16V318.84S253.24,320.5,261.06,318Z"/><path class="cls-6" d="M272,265.46c2.24-2.14,7-3.16,12.56-3.52,2.63-.17,5.46-0.2,8.32-0.13a217.33,217.33,0,0,1,25.85,2.48C290,302.29,272,265.46,272,265.46Z"/><path class="cls-5" d="M266.23,363c0.81-2,2.12-2.11,3.61-2.11a4.35,4.35,0,0,1,4.45,4.33,4.42,4.42,0,0,1-7.87,2.78H257l7.3,7.28a2.66,2.66,0,0,1,3,.15c1,1,.59,3.07-0.94,4.6s-3.6,1.95-4.61.93a2.24,2.24,0,0,1-.76-1.55l-11-10.87V363h16.23Z"/><path class="cls-6" d="M270.79,315.74a54.54,54.54,0,0,1,12.74,1.88l4-7.29c0.88-1.55,1.46-1.36,1.46.42v8.48c7,2.34,13.88,5,13.88,5,2.94,14.5-6.44,14.76-13.69,12.78a30.88,30.88,0,0,1-6.44-2.54c-1.32-.73-4.48-1.07-8-1.16-9.49-.26-23.74,1.16-23.74,1.16V318.84s2.24,1.66,10.06-.87c1.07-.35,2.37-0.77,3.67-1.29A17,17,0,0,1,270.79,315.74Z"/><path class="cls-6" d="M272,265.46c2.24-2.14,7-3.16,12.56-3.52,2.63-.17,5.46-0.2,8.32-0.13a217.33,217.33,0,0,1,25.85,2.48C290,302.29,272,265.46,272,265.46Z"/><path class="cls-4" d="M250,188.89V338.07c10,0,18,5.23,18,11.68s-8,11.68-18,11.68V363h16.23c0.81-2,2.12-2.1,3.61-2.1a4.26,4.26,0,0,1,4.45,4.22,4.47,4.47,0,0,1-4.45,4.47,4.35,4.35,0,0,1-3.42-1.59H257l7.3,7.28a2.66,2.66,0,0,1,3,.13c1,1,.59,3.08-0.94,4.61s-3.6,2-4.61.94a2.23,2.23,0,0,1-.76-1.55l-11-10.87v72.65s0.93,0.05,1.3.05a15.28,15.28,0,0,0,12.38-6.32l3.29,0.93,3.4-8.09-3.77-2.12a15,15,0,0,0-2.52-7.88l2.32-2.4-6-3.91-1.08,1.78a4.24,4.24,0,0,1-1.3-.71V382.71a98.32,98.32,0,0,0,23.56-4.8l11.68,4a8.67,8.67,0,0,0,6-.48l14.49-7.73a4.14,4.14,0,0,0,1.94-4.63l-2.68-9a96.85,96.85,0,0,0,34.51-72.62l7.74-2.6a4.34,4.34,0,0,0,2.78-4.27l-2.65-29.35a3.71,3.71,0,0,0-3.53-3.32H339.88a95.65,95.65,0,0,0-33.37-41.38l0.81-9.47a4.48,4.48,0,0,0-2.77-4.33L285,185.68a5.72,5.72,0,0,0-5.38,1.12l-5.3,5c-1.92-.49-4.08-0.91-6-1.28A101.3,101.3,0,0,0,250,188.89Zm22,76.57c2.24-2.14,7-3.16,12.56-3.52,2.63-.17,5.46-0.2,8.32-0.13a217.33,217.33,0,0,1,25.85,2.48C290,302.29,272,265.46,272,265.46Zm-21,53.38s2.25,1.66,10.06-.87c1.07-.35,2.4-0.77,3.7-1.29a16.66,16.66,0,0,1,6-.94,54.92,54.92,0,0,1,12.79,1.88l4-7.29c0.88-1.55,1.48-1.36,1.48.42v8.48c7,2.34,13.87,5,13.87,5,2.94,14.5-6.49,14.76-13.73,12.78a30.76,30.76,0,0,1-6.43-2.54c-1.32-.73-4.44-1.07-8-1.16-9.49-.26-23.73,1.16-23.73,1.16V318.84Z"/><path class="cls-2" d="M266.34,109.19c0,2.33.43,4.21,1,4.21s1-1.91,1-4.26c0,0,0,0,0-.07a184.36,184.36,0,0,0,19.39-3c-14.56,32.35-27.5,2.43-27.5,2.43C261.23,109.16,263.52,109.31,266.34,109.19Z"/><path class="cls-7" d="M267.3,113.4c-0.52,0-.95-1.88-1-4.21,0.61,0,1.25-.07,1.91-0.12,0,0,0,0,0,.07C268.25,111.49,267.82,113.4,267.3,113.4Z"/><path class="cls-6" d="M260.14,108.55c1.09,0.61,3.38.76,6.2,0.64,0.61,0,1.25-.07,1.91-0.12a184.36,184.36,0,0,0,19.39-3C273.08,138.47,260.14,108.55,260.14,108.55Z"/><path class="cls-8" d="M261.95,165.16c0-3.11-4.95-5.62-11.95-5.62v-3c10,0,18.33,3.86,18.33,8.63S260,173.79,250,173.79v-3C257,170.79,261.95,168.27,261.95,165.16Z"/><path class="cls-9" d="M261.95,165.16c0,3.11-4.95,5.62-11.95,5.62V159.54C257,159.54,261.95,162.06,261.95,165.16Z"/><path class="cls-2" d="M280.9,155.32L278.13,148c2.41,0.65,4.4,1.23,5.78,1.64Z"/><path class="cls-7" d="M286.41,148.23a1.14,1.14,0,0,1,.8,1.36,1,1,0,0,1-1,.75,0.92,0.92,0,0,1-.3-0.05s-0.77-.25-2-0.63-3.58-1-6-1.64c-7.29-2-18.91-4.61-27.91-5.22v-2.17C265,141.58,285.36,147.89,286.41,148.23Z"/><path class="cls-9" d="M287.32,149.59a1.08,1.08,0,0,1-1,.75,2.86,2.86,0,0,1-.55-0.05c-0.25-.08-20.74-6.5-35.74-7.49v13.75c10,0,18.33,3.86,18.33,8.63S260,173.79,250,173.79v15.1a101.3,101.3,0,0,1,18.28,1.68,63.64,63.64,0,0,0,26.1-15.24l5.62,0.51a5.59,5.59,0,0,0,4.87-2.5l4.49-7.71a5.08,5.08,0,0,0-.4-5.32L307.12,158a62.81,62.81,0,0,0,6.29-22.19l2.92-1.57a5.53,5.53,0,0,0,2.67-4.68V115.92a4.11,4.11,0,0,0-2.92-4l-5.51-1.34a63.2,63.2,0,0,0-18.64-28.34L292.17,76a5.37,5.37,0,0,0-2.79-4.63l-6.92-3.32a8.25,8.25,0,0,0-5.9-.15L271,70.17a65.67,65.67,0,0,0-21-3.5v74c15,1,35.36,7.27,36.41,7.61A1.22,1.22,0,0,1,287.32,149.59Zm-27.17-41c1.09,0.61,3.38.76,6.2,0.64,0.61,0,1.25-.07,1.91-0.12a184.36,184.36,0,0,0,19.39-3C273.08,138.47,260.14,108.55,260.14,108.55Z"/><path class="cls-3" d="M250,318.24s3.24,2,11.06-.5a3.36,3.36,0,0,0,3.4,2.26h3.24c1.78,0,3.31-.51,3.31-1.7v-2.16l-0.17-.4a54.39,54.39,0,0,1,12.72,1.88l-8.85,15.59,0.06,0.1c-9.49-.26-24.76,1.82-24.76,1.82V318.24Z"/><path class="cls-10" d="M355.33,251.32a3.71,3.71,0,0,0-3.53-3.32H339.88a95.65,95.65,0,0,0-33.37-41.38l0.81-9.47a4.48,4.48,0,0,0-2.77-4.33L285,185.68a5.72,5.72,0,0,0-5.38,1.12l-5.3,5c-1.92-.49-4.08-0.91-6-1.29h0a63.64,63.64,0,0,0,26.1-15.24l5.62,0.51a5.59,5.59,0,0,0,4.87-2.5l4.49-7.71a5.08,5.08,0,0,0-.4-5.32L307.12,158a62.81,62.81,0,0,0,6.29-22.19l2.92-1.57a5.53,5.53,0,0,0,2.67-4.68V115.92a4.11,4.11,0,0,0-2.92-4l-5.51-1.34a63.2,63.2,0,0,0-18.64-28.34L292.17,76a5.37,5.37,0,0,0-2.79-4.63l-6.92-3.32a8.25,8.25,0,0,0-5.9-.15L271,70.17a65.67,65.67,0,0,0-21-3.5V441.19s0.93,0.05,1.3.05a15.28,15.28,0,0,0,12.38-6.32l3.29,0.93,3.4-8.09-3.77-2.12a15,15,0,0,0-2.52-7.88l2.32-2.4-6-3.91-1.08,1.78a4.24,4.24,0,0,1-1.3-.71V382.71a98.33,98.33,0,0,0,23.56-4.8l11.68,4a8.67,8.67,0,0,0,6-.48l14.49-7.73a4.14,4.14,0,0,0,1.94-4.63l-2.68-9a96.86,96.86,0,0,0,34.51-72.62l7.74-2.6a4.34,4.34,0,0,0,2.78-4.27Zm-66.74,58h0ZM278.15,148.07v0c-4.35-1.17-10.1-2.59-16-3.69,5.8,1.07,11.5,2.43,15.74,3.58Zm5.72,1.64,0-.06c1.26,0.38,2,.61,2,0.63a0.92,0.92,0,0,0,.29.05,2.53,2.53,0,0,1-.48-0.05Zm3.44-.13a1.08,1.08,0,0,1-1,.75h0a1,1,0,0,0,1-.75,1.14,1.14,0,0,0-.8-1.36A1.22,1.22,0,0,1,287.32,149.59ZM261,144.22l-0.2,0Zm6.85,232.69a2,2,0,0,0-.55-1.48,2.66,2.66,0,0,0-3-.15h0a2.66,2.66,0,0,1,3,.13A2,2,0,0,1,267.87,376.91Zm6.42-11.74a4.27,4.27,0,0,0-3.09-4.06,4.13,4.13,0,0,1,3.1,4S274.29,365.15,274.29,365.17Zm0.15-31.86h0.3a40.83,40.83,0,0,1,5.83.5l0.61,0.14a35.33,35.33,0,0,0-6.45-.64h-0.29Zm20.27,4.58h0Z"/><path class="cls-9" d="M173.13,465.94V465h3.75v11.25h3.75v1.88H169.38v-1.87h3.75v-7.5h-1.87v-1.87h1.88v-0.94Z"/><path class="cls-9" d="M188.13,465.94V465h3.75v11.25h3.75v1.88H184.38v-1.87h3.75v-7.5h-1.87v-1.87h1.88v-0.94Z"/><path class="cls-9" d="M201.25,465.94V465h5.63v1.88h1.88v1.88h1.88v5.63h-1.87v1.88h-1.87v1.88h-5.62v-1.87h-1.87v-1.87H197.5v-5.62h1.88v-1.87h1.88v-0.94Zm3.75,1.88v-0.94h-3.75v7.5h1.88v1.88h3.75v-7.5H205v-0.94Z"/><path class="cls-9" d="M227.5,471.56V465h3.75v5.63h1.88v-1.87H235v1.88h1.88V465h3.75v13.13h-3.75v-1.87H235v-1.87h-1.87v1.88h-1.87v1.88H227.5v-6.56Z"/><path class="cls-9" d="M242.5,471.56V465h13.13v1.88h-9.37v3.75h7.5v1.88h-7.5v3.75h9.38v1.88H242.5v-6.56Z"/><path class="cls-9" d="M257.5,471.56V465h13.13v1.88h-9.37v3.75h7.5v1.88h-7.5v3.75h9.38v1.88H257.5v-6.56Z"/><path class="cls-9" d="M272.5,465.94V465h13.13v3.75h-1.87v1.88h-1.87v1.88H280v1.88h-1.87v1.88h7.5v1.88H272.5v-3.75h1.88V472.5h1.88v-1.87h1.88v-1.87H280v-1.87h-7.5v-0.94Z"/><path class="cls-9" d="M289.38,465.94V465h11.25v1.88h-3.75v9.38h3.75v1.88H289.38v-1.87h3.75v-9.37h-3.75v-0.94Z"/><path class="cls-9" d="M302.5,471.56V465h3.75v1.88h1.88v1.88H310v1.88h1.88V465h3.75v13.13h-3.75v-1.87H310v-1.87h-1.87V472.5h-1.87v5.63H302.5v-6.56Z"/><path class="cls-9" d="M321.25,465.94V465h9.38v1.88h-7.5v1.88h-1.87v5.63h1.88v1.88h3.75V472.5H325v-1.87h5.63v7.5h-9.37v-1.87h-1.87v-1.87H317.5v-5.62h1.88v-1.87h1.88v-0.94Z"/></svg>