<?xml version="1.0" ?><svg id="pkflt" viewBox="0 0 500 500" xmlns="http://www.w3.org/2000/svg"><defs><style>.cls-1{fill:#abd0ef;}.cls-2{fill:#ccc;}.cls-3{fill:#74a1ba;}.cls-4{fill:#fff;}.cls-5{fill:red;}.cls-6{fill:#9bbddf;}.cls-7{fill:#8eb1ce;}.cls-8{fill:none;}.cls-9{fill:#b3b3b3;}.cls-10{fill:#7daccc;}.cls-11{fill:#1a1a1a;opacity:0.1;}</style></defs><title/><path class="cls-1" d="M217.26,333l0.74,0.8A5,5,0,0,0,217.26,333Z"/><path class="cls-2" d="M195,396.46V403l6.47-8.35a12.1,12.1,0,0,1-6,1.85A3.76,3.76,0,0,1,195,396.46Z"/><path class="cls-2" d="M203.54,393.29l8.77,3.21-3.55-8.11A34.5,34.5,0,0,1,203.54,393.29Z"/><path class="cls-2" d="M215.08,387.67l-2.22-4.74c-0.53.84-1.13,1.71-1.79,2.59Z"/><path class="cls-3" d="M201.47,394.65a21.89,21.89,0,0,0,2.06-1.36l-0.79-.29Z"/><path class="cls-3" d="M213.79,372.11l-0.68-.44c-6.88-4.67-11.12-17.33-23.12-29a30.22,30.22,0,0,0-8.28-5.57,126.82,126.82,0,0,1-14.22,6.4c-9,3.5-.5,10-5,13.5,0,0,22.7,38.16,32.5,39.46a3.76,3.76,0,0,0,.5,0,12.1,12.1,0,0,0,6-1.85l1.28-1.65,0.79,0.29a34.5,34.5,0,0,0,5.22-4.9c0.83-.94,1.61-1.91,2.33-2.87s1.25-1.75,1.79-2.59c1.73-2.71,2.77-5.07,2.76-6.18A18,18,0,0,0,213.79,372.11Z"/><path class="cls-4" d="M190,303.5l2.1,8.9,1.15,4.85s5.63,3.34,11.53,7.07l0.2-.25a16.4,16.4,0,0,1,2-2.22,16.16,16.16,0,0,1,3.11-2.28C205.35,313.32,198.6,306.73,190,303.5Z"/><path class="cls-5" d="M207,321.84l5.78,6.24a28.86,28.86,0,0,0,.9-3.34c-1-1.64-2.21-3.39-3.57-5.18A16.16,16.16,0,0,0,207,321.84Z"/><path class="cls-5" d="M204.78,324.32l1.61,1L205,324.07Z"/><path class="cls-5" d="M212.76,328.08L207,321.84a16.4,16.4,0,0,0-2,2.22l1.41,1.27c2.07,1.32,4.12,2.66,5.91,3.89C212.47,328.88,212.61,328.49,212.76,328.08Z"/><path class="cls-5" d="M215.08,327.11a10.76,10.76,0,0,1-1.36,2c-0.2.24-.41,0.46-0.61,0.66a42.85,42.85,0,0,1,4.14,3.16,5,5,0,0,1,.74.8l0.13-.32A40.46,40.46,0,0,0,215.08,327.11Z"/><path class="cls-5" d="M218.13,333.43l-0.13.32C218.28,334.17,218.32,334,218.13,333.43Z"/><path d="M213.66,324.74a28.86,28.86,0,0,1-.9,3.34c-0.14.4-.29,0.79-0.45,1.14l0.81,0.56c0.2-.19.4-0.42,0.61-0.66a10.76,10.76,0,0,0,1.36-2C214.65,326.36,214.17,325.56,213.66,324.74Z"/><path class="cls-6" d="M240,120c-5,7.33-7.67,24.67-12.33,30s-9.33,5.33-9.33,5.33c-0.26-18-20.43-5.85-30.82,1C204.86,164.49,235.7,177,250,170V113S245,112.67,240,120Z"/><path class="cls-7" d="M187.51,156.3C180,152.75,175,150,175,150c-10.14,93,44.71,128.79,61.95,137.65,6-14.18,11.95-27.65,13.05-27.65V170C235.7,177,204.86,164.49,187.51,156.3Z"/><path class="cls-8" d="M213.66,324.74c-1-1.64-2.21-3.39-3.57-5.18-4.74-6.24-11.49-12.84-20.09-16.06l2.1,8.9,1.15,4.85s5.63,3.34,11.53,7.07l1.61,1c2.07,1.32,4.12,2.66,5.91,3.89l0.81,0.56a42.85,42.85,0,0,1,4.14,3.16l0.74,0.8c0.28,0.42.32,0.27,0.13-.32a40.46,40.46,0,0,0-3-6.32C214.65,326.36,214.17,325.56,213.66,324.74Z"/><path class="cls-8" d="M151.21,284.42l0.13-.75-2.45-3.75-0.15.24Z"/><polygon class="cls-3" points="148.74 280.15 148.89 279.91 146.31 275.95 148.74 280.15"/><path class="cls-9" d="M129.16,318.4C120,313.84,110,318,110,318s-8.33,8.28-6.33,11.23,25.17,7.44,31.33,6.27a3.25,3.25,0,0,0,2.54-2.08c-6.23-7.5-11.14-13.86-11.14-13.86Z"/><path class="cls-7" d="M127.47,247.05l0.65-2.25L127,246.33Z"/><path class="cls-7" d="M106.5,260s6.48-5.07,10.56-6.12a217.68,217.68,0,0,1,9.51-23.19c-3.35-6.91-7.9-17-7.9-17L110,215.45c0,25.45-11.33,53.89-13.33,60.51-1.48,4.91,7.3,15.58,11.94,20.76a132.46,132.46,0,0,1,2.76-22.18A123.74,123.74,0,0,1,106.5,260Z"/><path class="cls-3" d="M127.47,247.05l-0.47-.72,1.11-1.53,14.22-19.47c-2.3-3.11-2.78-10.55-2.41-19a241.58,241.58,0,0,0-13.36,24.35,217.68,217.68,0,0,0-9.51,23.19c1.36-.35,2.45-0.25,2.94.62a24,24,0,0,0,4.06,4.06c7.45,6.47,22.25,17.4,22.25,17.4Z"/><path class="cls-3" d="M116,284.86c-1.81-3.64-3.34-7.16-4.61-10.33a132.46,132.46,0,0,0-2.76,22.18A101.52,101.52,0,0,0,110,318s10-4.16,19.16.4l3.34-1.4,0-.23,1-6.77C125.95,302.58,120.19,293.36,116,284.86Z"/><path class="cls-10" d="M164.5,332c-6.58-1.36-12.18-2.37-14.5-4.72-4.9-5,.32-37.55,1.21-42.85l-2.47-4.26-2.43-4.2h0s-14.8-10.93-22.25-17.4A24,24,0,0,1,120,254.5c-0.5-.87-1.59-1-2.94-0.62-4.08,1-10.56,6.12-10.56,6.12a123.74,123.74,0,0,0,4.86,14.53c1.26,3.18,2.8,6.69,4.61,10.33,4.22,8.5,10,17.72,17.53,25.14l-1,6.77,0,0.23-3.34,1.4-2.75,1.16s4.91,6.37,11.14,13.86c9.57,11.51,22.23,25.7,25,23.58,4.5-3.5-4-10,5-13.5a126.82,126.82,0,0,0,14.22-6.4C176.2,334.5,170,333.12,164.5,332Z"/><path class="cls-7" d="M231.47,327.92a18,18,0,0,1-7.8-7.92l-5.54,13.43c0.19,0.59.15,0.74-.13,0.32l-0.74-.8a42.85,42.85,0,0,0-4.14-3.16l-0.81-.56c-1.79-1.23-3.84-2.56-5.91-3.89l-1.61-1c-5.9-3.73-11.53-7.07-11.53-7.07l-1.15-4.85-2.1-8.9-14.33-9.83S156.89,247.19,147,230.89c-2-3.37-3.69-5.45-4.71-5.56l-15.33,21L146.31,276h0l2.58,4,2.45,3.75-0.13.75c-0.89,5.29-6.1,37.89-1.21,42.85,2.32,2.35,7.93,3.37,14.5,4.72,5.51,1.14,11.69,2.51,17.21,5.11a30.22,30.22,0,0,1,8.28,5.57c12,11.67,16.23,24.33,23.12,29l0.68,0.44c7.71,4.9,31.36,15.56,36.21,15.56V330S239.8,332.32,231.47,327.92Z"/><path class="cls-1" d="M175,150s-29.55,14.69-30.5,20c0,0-3.87,20-4.58,36.34-0.37,8.44.11,15.88,2.41,19,1,0.11,2.68,2.19,4.71,5.56,9.84,16.3,28.62,62.77,28.62,62.77L190,303.5c8.6,3.23,15.35,9.82,20.09,16.06,1.36,1.79,2.54,3.54,3.57,5.18,0.52,0.82,1,1.62,1.42,2.37a40.46,40.46,0,0,1,3,6.32L223.67,320s4.62-11.55,10-24.51c1.07-2.58,2.17-5.22,3.28-7.84C219.71,278.79,164.86,243,175,150Z"/><path class="cls-6" d="M236.95,287.65c-1.1,2.62-2.2,5.25-3.28,7.84-5.38,13-10,24.51-10,24.51a18,18,0,0,0,7.8,7.92C239.8,332.32,250,330,250,330V260C248.89,260,242.92,273.48,236.95,287.65Z"/><path class="cls-1" d="M283.24,333l-0.74.8A5,5,0,0,1,283.24,333Z"/><path class="cls-2" d="M305,396.46V403l-6.22-8.35a11.67,11.67,0,0,0,5.85,1.85A1.11,1.11,0,0,0,305,396.46Z"/><path class="cls-2" d="M297,393.29l-8.77,3.21,3.55-8.11A34.5,34.5,0,0,0,297,393.29Z"/><path class="cls-2" d="M285.42,387.67l2.22-4.74c0.53,0.84,1.13,1.71,1.79,2.59Z"/><path class="cls-3" d="M299,394.65a21.89,21.89,0,0,1-2.06-1.36l0.79-.29Z"/><path class="cls-3" d="M286.71,372.11l0.68-.44c6.88-4.67,11.12-17.33,23.12-29a30.22,30.22,0,0,1,8.28-5.57A126.82,126.82,0,0,0,333,343.5c9,3.5.5,10,5,13.5,0,0-22.7,38.16-32.5,39.46a3.76,3.76,0,0,1-.5,0,12.1,12.1,0,0,1-6-1.85L297.75,393l-0.79.29a34.5,34.5,0,0,1-5.22-4.9c-0.83-.94-1.61-1.91-2.33-2.87s-1.25-1.75-1.79-2.59c-1.73-2.71-2.77-5.07-2.76-6.18A18,18,0,0,1,286.71,372.11Z"/><path class="cls-4" d="M310.5,303.5l-2.1,8.9-1.15,4.85s-5.63,3.34-11.53,7.07l-0.2-.25a16.4,16.4,0,0,0-2-2.22,16.16,16.16,0,0,0-3.11-2.28C295.15,313.32,301.9,306.73,310.5,303.5Z"/><path class="cls-5" d="M293.52,321.84l-5.78,6.24a28.86,28.86,0,0,1-.9-3.34c1-1.64,2.21-3.39,3.57-5.18A16.16,16.16,0,0,1,293.52,321.84Z"/><path class="cls-5" d="M295.72,324.32l-1.61,1,1.41-1.27Z"/><path class="cls-5" d="M287.74,328.08l5.78-6.24a16.4,16.4,0,0,1,2,2.22l-1.41,1.27c-2.07,1.32-4.12,2.66-5.91,3.89C288,328.88,287.89,328.49,287.74,328.08Z"/><path class="cls-5" d="M285.42,327.11a10.76,10.76,0,0,0,1.36,2c0.2,0.24.41,0.46,0.61,0.66a42.85,42.85,0,0,0-4.14,3.16,5,5,0,0,0-.74.8l-0.13-.32A40.46,40.46,0,0,1,285.42,327.11Z"/><path class="cls-5" d="M282.37,333.43l0.13,0.32C282.22,334.17,282.18,334,282.37,333.43Z"/><path d="M286.84,324.74a28.86,28.86,0,0,0,.9,3.34c0.14,0.4.29,0.79,0.45,1.14l-0.81.56c-0.2-.19-0.4-0.42-0.61-0.66a10.76,10.76,0,0,1-1.36-2C285.85,326.36,286.33,325.56,286.84,324.74Z"/><path class="cls-6" d="M260.25,120c5,7.33,7.79,24.67,12.46,30s9.4,5.33,9.4,5.33c0.26-18,20.21-5.85,30.6,1C295.36,164.49,265,177,250,170V113S255.25,112.67,260.25,120Z"/><path class="cls-7" d="M312.74,156.3c7.52-3.55,12.64-6.3,12.64-6.3,10.14,93-44.9,128.79-62.13,137.65C257.27,273.48,252,260,250,260V170C265,177,295.39,164.49,312.74,156.3Z"/><path class="cls-8" d="M286.84,324.74c1-1.64,2.21-3.39,3.57-5.18,4.74-6.24,11.49-12.84,20.09-16.06l-2.1,8.9-1.15,4.85s-5.63,3.34-11.53,7.07l-1.61,1c-2.07,1.32-4.12,2.66-5.91,3.89l-0.81.56a42.85,42.85,0,0,0-4.14,3.16l-0.74.8c-0.28.42-.32,0.27-0.13-0.32a40.46,40.46,0,0,1,3-6.32C285.85,326.36,286.33,325.56,286.84,324.74Z"/><path class="cls-8" d="M349.29,284.42l-0.13-.75,2.45-3.75,0.15,0.24Z"/><polygon class="cls-3" points="351.76 280.15 351.61 279.91 354.19 275.95 351.76 280.15"/><path class="cls-9" d="M371.34,318.4c9.14-4.56,19.16-.4,19.16-0.4s8.33,8.28,6.33,11.23-25.17,7.44-31.33,6.27a3.25,3.25,0,0,1-2.54-2.08c6.23-7.5,11.14-13.86,11.14-13.86Z"/><path class="cls-7" d="M373,247.05l-0.65-2.25,1.11,1.53Z"/><path class="cls-7" d="M394,260s-6.48-5.07-10.56-6.12a217.68,217.68,0,0,0-9.51-23.19c3.35-6.91,7.9-17,7.9-17l8.67,1.78c0,25.45,11.33,53.89,13.33,60.51,1.48,4.91-7.3,15.58-11.94,20.76a132.46,132.46,0,0,0-2.76-22.18A123.74,123.74,0,0,0,394,260Z"/><path class="cls-3" d="M373,247.05l0.47-.72-1.11-1.53-14.22-19.47c2.3-3.11,2.78-10.55,2.41-19a241.58,241.58,0,0,1,13.36,24.35,217.68,217.68,0,0,1,9.51,23.19c-1.36-.35-2.45-0.25-2.94.62a24,24,0,0,1-4.06,4.06C369,265,354.19,276,354.19,276Z"/><path class="cls-3" d="M384.53,284.86c1.81-3.64,3.34-7.16,4.61-10.33a132.46,132.46,0,0,1,2.76,22.18A101.52,101.52,0,0,1,390.5,318s-10-4.16-19.16.4L368,317l0-.23L367,310C374.55,302.58,380.31,293.36,384.53,284.86Z"/><path class="cls-10" d="M336,332c6.58-1.36,12.18-2.37,14.5-4.72,4.9-5-.32-37.55-1.21-42.85l2.47-4.26,2.43-4.2h0S369,265,376.44,258.56a24,24,0,0,0,4.06-4.06c0.5-.87,1.59-1,2.94-0.62,4.08,1,10.56,6.12,10.56,6.12a123.74,123.74,0,0,1-4.86,14.53c-1.26,3.18-2.8,6.69-4.61,10.33-4.22,8.5-10,17.72-17.53,25.14l1,6.77,0,0.23,3.34,1.4,2.75,1.16s-4.91,6.37-11.14,13.86c-9.57,11.51-22.23,25.7-25,23.58-4.5-3.5,4-10-5-13.5a126.82,126.82,0,0,1-14.22-6.4C324.3,334.5,330.49,333.12,336,332Z"/><path class="cls-7" d="M268.78,327.92a18.27,18.27,0,0,0,7.92-7.92l5.6,13.43c-0.19.59-.12,0.74,0.16,0.32l0.76-.8a43.15,43.15,0,0,1,4.15-3.16l0.82-.56c1.79-1.23,3.84-2.56,5.91-3.89l1.61-1c5.9-3.73,11.53-7.07,11.53-7.07l1.15-4.85,2.1-8.9,14.33-9.83s18.77-46.48,28.62-62.77c2-3.37,3.69-5.45,4.71-5.56l15.33,21L354.19,276h0l-2.58,4-2.45,3.75,0.13,0.75c0.89,5.29,6.1,37.89,1.21,42.85-2.32,2.35-7.93,3.37-14.5,4.72-5.51,1.14-11.69,2.51-17.21,5.11a30.22,30.22,0,0,0-8.28,5.57c-12,11.67-16.23,24.33-23.12,29-0.21.14-.69,0.29-0.93,0.44C278.75,377,255,387.67,250,387.67V330S260.45,332.32,268.78,327.92Z"/><path class="cls-1" d="M325.5,150s29.55,14.69,30.5,20c0,0,3.87,20,4.58,36.34,0.37,8.44-.11,15.88-2.41,19-1,.11-2.68,2.19-4.71,5.56-9.84,16.3-28.62,62.77-28.62,62.77L310.5,303.5c-8.6,3.23-15.35,9.82-20.09,16.06-1.36,1.79-2.54,3.54-3.57,5.18-0.52.82-1,1.62-1.42,2.37a40.46,40.46,0,0,0-3,6.32L276.83,320s-4.62-11.55-10-24.51c-1.07-2.58-2.17-5.22-3.28-7.84C280.79,278.79,335.64,243,325.5,150Z"/><path class="cls-6" d="M263.3,287.65c1.1,2.62,2.33,5.25,3.4,7.84,5.38,13,10.06,24.51,10.06,24.51a18.45,18.45,0,0,1-8,7.92C260.42,332.32,250,330,250,330V260C252,260,257.33,273.48,263.3,287.65Z"/><path class="cls-11" d="M391.9,296.72c4.64-5.19,13.42-15.85,11.94-20.76-2-6.62-13.33-35.06-13.33-60.51l-8.67-1.78s-4.54,10.11-7.9,17a241.56,241.56,0,0,0-13.36-24.35C359.87,190,356,170,356,170c-0.95-5.31-30.5-20-30.5-20,10.14,93-44.71,128.79-61.95,137.65,1.1,2.62,2.2,5.25,3.28,7.84,5.38,13,10,24.51,10,24.51l5.54,13.43a1.37,1.37,0,0,0-.11.53c-0.08,0-.07-0.16,0-0.53l-5.57-13.37,0-.06s-4.68-11.55-10.06-24.51c-1.07-2.58-2.3-5.22-3.4-7.84v0c17.29-8.91,72.21-44.75,62.08-137.63,0,0-5.11,2.75-12.64,6.3-13.55,6.4-35.07,15.42-51,15.74,15.91-.31,37.4-9.34,51-15.74-10.4-6.81-30.34-18.92-30.6-1,0,0-4.73,0-9.4-5.33s-7.46-22.67-12.46-30S250,113,250,113V387.67c5,0,28.75-10.66,36.46-15.56,0.24-.15.72-0.3,0.93-0.44l-0.68.44a18,18,0,0,0-1.83,4.64c0,1.11,1,3.47,2.76,6.18l-2.22,4.74,4-2.15c0.71,1,1.49,1.93,2.33,2.87l-3.55,8.11,8.77-3.21a21.91,21.91,0,0,0,2.06,1.36,12.24,12.24,0,0,0,5.81,1.84h-0.21a11.67,11.67,0,0,1-5.85-1.85L305,403v-6.5h0a3.76,3.76,0,0,0,.5,0C315.3,395.16,338,357,338,357c2.73,2.12,15.39-12.06,25-23.58a3.25,3.25,0,0,0,2.54,2.08c6.17,1.17,29.33-3.33,31.33-6.27S390.5,318,390.5,318A101.51,101.51,0,0,0,391.9,296.72ZM256.26,330.61a26.67,26.67,0,0,0,12.49-2.69,20.49,20.49,0,0,0,3.45-2.29,19.6,19.6,0,0,1-3.42,2.29A26.71,26.71,0,0,1,256.26,330.61Zm116.12-85.8h0l-14.22-19.47Zm0.65,2.25h0L354.19,276Z"/><path class="cls-7" d="M173.13,465.94V465h3.75v11.25h3.75v1.88H169.38v-1.87h3.75v-7.5h-1.87v-1.87h1.88v-0.94Z"/><path class="cls-7" d="M188.13,465.94V465h3.75v11.25h3.75v1.88H184.38v-1.87h3.75v-7.5h-1.87v-1.87h1.88v-0.94Z"/><path class="cls-7" d="M203.13,465.94V465h3.75v11.25h3.75v1.88H199.38v-1.87h3.75v-7.5h-1.87v-1.87h1.88v-0.94Z"/><path class="cls-7" d="M227.5,471.56V465h11.25v1.88h1.88v5.63h-3.75v1.88h1.88v1.88h1.88v1.88H235v-1.87h-1.87v-1.87h-1.87v3.75H227.5v-6.56Zm9.38-2.81v-1.87h-5.62v5.63H235v-1.87h1.88v-1.87Z"/><path class="cls-7" d="M242.5,471.56V465h3.75v5.63h5.63V465h3.75v13.13h-3.75V472.5h-5.62v5.63H242.5v-6.56Z"/><path class="cls-7" d="M259.38,467.81V465h3.75v5.63h3.75V465h3.75v5.63h-1.87v1.88h-1.87v5.63h-3.75V472.5h-1.87v-1.87h-1.87v-2.81Z"/><path class="cls-7" d="M272.5,471.56V465h3.75v5.63h5.63V465h3.75v13.13h-3.75V472.5h-5.62v5.63H272.5v-6.56Z"/><path class="cls-7" d="M289.38,465.94V465h9.38v1.88h1.88v9.38h-1.87v1.88h-9.37v-1.87H287.5v-9.37h1.88v-0.94Zm7.5,5.63v-4.69h-5.62v9.38h5.63v-4.69Z"/><path class="cls-7" d="M302.5,471.56V465h11.25v1.88h1.88v5.63h-3.75v1.88h1.88v1.88h1.88v1.88H310v-1.87h-1.87v-1.87h-1.87v3.75H302.5v-6.56Zm9.38-2.81v-1.87h-5.62v5.63H310v-1.87h1.88v-1.87Z"/><path class="cls-7" d="M317.5,471.56V465h3.75v1.88h1.88v1.88H325v1.88h1.88V465h3.75v13.13h-3.75v-1.87H325v-1.87h-1.87V472.5h-1.87v5.63H317.5v-6.56Z"/></svg>