<?xml version="1.0" ?><svg id="pkflt" viewBox="0 0 500 500" xmlns="http://www.w3.org/2000/svg"><defs><style>.cls-1{fill:#939baa;}.cls-2{fill:#858c9d;}.cls-3{fill:#fff;}.cls-4{fill:#c1272d;}.cls-11,.cls-5{fill:#1a1a1a;}.cls-6{fill:#b4ad9c;}.cls-7{fill:#bcb5a6;}.cls-8{fill:#a1a8b2;}.cls-9{fill:#3f4249;}.cls-10{fill:#ccc;}.cls-11{opacity:0.1;}</style></defs><title/><path class="cls-1" d="M229.4,87.33S218,82.33,218,90c0,0-30.67-37.67-58-37.67,0,0-17.67,5-15.33,9.67S181,97.67,178.33,110c-1.48,6.84-1.42,13.77-2.44,19-0.82,4.21-2.33,7.35-5.89,8.47-8,2.52-15-1.15-16.33,4.85s-5.33,3.67,1.33,10,11.67,7.13,6.67,11.57c-3.83,3.39-14.49,7.32-19.28,11.81-1.47,1.38-2.39,2.8-2.39,4.29,0,6.33-2,6,2.67,7.33,3.11,0.89,8.57-.87,12.66-1.18,2.06-.15,3.78.06,4.67,1.18,2.67,3.33-7.33,17-7.33,17,0.33,7.33,4.67,11.33,7.33,10.67,2.21-.55,9-9.09,12.95-16.36a38.56,38.56,0,0,0,2.05-4.3,8.17,8.17,0,0,1,1.38-2.3c3.91-4.63,12.76-5.18,18.2-1.34A11,11,0,0,1,197,193c0.62,0.81,1.49,1.84,2.53,3,7.92,8.86,26.34,26.3,30.47,28.66a73.28,73.28,0,0,0,12.33,5.5L250,233V191.17c-3.83,1-24.17-11.17-24.17-11.17-1.87-3.84-1.8-9.28-.56-15.44a91.7,91.7,0,0,1,4.13-13.83c1.67-4.45,3.63-8.94,5.66-13.25,2.11-4.47,4.29-8.73,6.32-12.5,4.74-8.82,8.62-15,8.62-15V40S230.8,78.67,229.4,87.33ZM213,168c-0.78.31-5.28-1.42-10.59-4.1-0.78-.39-1.57-0.8-2.38-1.23-2.71-1.45-5.51-3.08-8.06-4.78a44.45,44.45,0,0,1-6.63-5.22c-7.33-7.33,2.33-20.33,2.33-20.33a102.68,102.68,0,0,1,16,14.26c1.11,1.25,2.09,2.45,3,3.61a46.35,46.35,0,0,1,4,6.1C214.48,163.33,213.89,167.65,213,168Z"/><path class="cls-2" d="M155,152.33c-6.67-6.33-2.67-4-1.33-10S162,140,170,137.48c3.56-1.12,5.07-4.25,5.89-8.47-6-1.13-17-2.85-23.23-4-8.67-1.65-18,.35-12.67,9.35S153.67,140,148.33,150s-16,4.79-13.33,14.56c1.27,4.65,4.43,8.45,7.39,11.15,4.79-4.49,15.45-8.42,19.28-11.81C166.67,159.47,161.67,158.67,155,152.33Z"/><path class="cls-3" d="M203.71,146.59a102.68,102.68,0,0,0-16-14.26s-9.67,13-2.33,20.33a44.45,44.45,0,0,0,6.63,5.22A23.42,23.42,0,0,1,203.71,146.59Z"/><path class="cls-4" d="M203.71,146.59A23.42,23.42,0,0,0,192,157.89c2.55,1.7,5.36,3.34,8.06,4.78,3.44-3.42,5.64-8.86,6.66-12.47C205.8,149,204.82,147.84,203.71,146.59Z"/><path class="cls-4" d="M202.41,163.9c5.32,2.68,9.81,4.41,10.59,4.1s1.48-4.67-2.31-11.69A24.51,24.51,0,0,1,202.41,163.9Z"/><path class="cls-5" d="M210.69,156.31a46.35,46.35,0,0,0-4-6.1c-1,3.61-3.22,9-6.66,12.47,0.8,0.43,1.6.84,2.38,1.23A24.51,24.51,0,0,0,210.69,156.31Z"/><path class="cls-6" d="M225.83,180s20.33,12.17,24.17,11.17V171a228.33,228.33,0,0,1-24.73-6.44C224,170.72,224,176.16,225.83,180Z"/><path class="cls-6" d="M250,127.75V110s-3.88,6.17-8.62,15C244.37,126,247.31,127,250,127.75Z"/><path class="cls-6" d="M229.4,150.73c6.34,2.33,14.21,5.12,20.6,7V141c-4.44-.94-9.82-2.16-14.94-3.52C233,141.79,231.07,146.29,229.4,150.73Z"/><path class="cls-7" d="M225.27,164.56A228.33,228.33,0,0,0,250,171V157.75c-6.38-1.9-14.26-4.69-20.6-7A91.7,91.7,0,0,0,225.27,164.56Z"/><path class="cls-7" d="M235.06,137.48c5.13,1.35,10.5,2.57,14.94,3.52V127.75c-2.69-.8-5.63-1.76-8.62-2.77C239.35,128.76,237.16,133,235.06,137.48Z"/><path class="cls-2" d="M194.93,213.29a40.94,40.94,0,0,1,2.74,10.38c4,31-45,46.33-45,46.33S183,300,192,288.67,250,241,250,241v-4.67C240.53,239.88,211.15,223.23,194.93,213.29Z"/><path class="cls-8" d="M197.67,223.67a40.94,40.94,0,0,0-2.74-10.38c-6.62-4.06-11.05-7-11.05-7l0.19-.28a44.71,44.71,0,0,1-8.25,4.07c-1.1.33-1.87,0.34-2.14-.08-1-1.55-1-6.69-.72-11.36-4,7.27-10.74,15.81-12.95,16.36-2.67.67-7-3.33-7.33-10.67,0,0,10-13.67,7.33-17-0.89-1.12-2.61-1.33-4.67-1.18-9.1,6.07-33.25,23.5-27,33.84,0,0,40,11,24.33,50C152.67,270,201.67,254.67,197.67,223.67Z"/><path class="cls-9" d="M230,224.67c-4.12-2.36-22.55-19.8-30.47-28.66-2.58,1.78-6.58,4.49-10.68,7.07l-0.73.46c-1.37.86-2.74,1.69-4.06,2.47l-0.19.28s4.44,2.94,11.05,7c16.23,9.95,45.6,26.6,55.07,23V233l-7.67-2.83A73.28,73.28,0,0,1,230,224.67Z"/><path class="cls-3" d="M173.67,210c0.28,0.42,1,.4,2.14.08a44.71,44.71,0,0,0,8.25-4.07c1.32-.78,2.69-1.61,4.06-2.47l0.73-.46c4.1-2.59,8.1-5.29,10.68-7.07-1-1.17-1.91-2.19-2.53-3a11,11,0,0,0-2.42-2.31c-5.44-3.84-14.29-3.29-18.2,1.34a8.17,8.17,0,0,0-1.38,2.3,38.56,38.56,0,0,1-2.05,4.3C172.67,203.31,172.63,208.45,173.67,210Z"/><path class="cls-10" d="M65.19,264.72L40,267.2l19.08,5.17A28.51,28.51,0,0,1,65.19,264.72Z"/><path class="cls-10" d="M50,317.33l13.59-11.59A28.35,28.35,0,0,1,56.47,293Z"/><path class="cls-10" d="M80.46,314.18L90,334l3.07-21.08A28.29,28.29,0,0,1,80.46,314.18Z"/><path class="cls-1" d="M128.33,220S118,222.5,115,230s4.5,5-8,16a62.09,62.09,0,0,1-19.94,11.76A28.7,28.7,0,0,0,84,257.6a28.4,28.4,0,0,0-3.54,56.58,28.36,28.36,0,0,0,31.72-24.59c2.14-3.53,5.94-8.12,11.83-9.59,10-2.5,28.67-10,28.67-10C168.33,231,128.33,220,128.33,220Z"/><path class="cls-10" d="M132.24,446.56l-4.48-1.12c-4.27-1.07-5.13-4.39-1.91-7.39,0,0-23.83,15-24.84,16.62s43.66-7.06,43.67-7.07A48.69,48.69,0,0,1,132.24,446.56Z"/><path class="cls-10" d="M112.49,436.09L109,427.41a10.17,10.17,0,0,1-.21-6.6C98,427.1,80,439,80,447.65L116.65,440A6.32,6.32,0,0,1,112.49,436.09Z"/><path class="cls-8" d="M122,438.87L116.65,440A6.36,6.36,0,0,0,122,438.87Z"/><path class="cls-7" d="M250,287.72V241l-80,33.5s-1.19,3.21-2.8,8.05C184.8,288,229.86,288,250,287.72Z"/><path class="cls-7" d="M164,321.68a50.7,50.7,0,0,1,7.2,8.48,37.2,37.2,0,0,1,2.41,4l12.69,24.82c19.42,10,42,19.71,63.67,24.22V337.27c-31.39-3.09-70.07-13.67-90.73-19.82Z"/><path class="cls-6" d="M200.36,386.38a10.53,10.53,0,0,1,.71,1.82S228,403.75,250,400V383.16c-21.65-4.51-44.25-14.18-63.67-24.22Z"/><path class="cls-6" d="M167.2,282.55c-3,9.1-7.56,24-8.59,34.3l0.66,0.59c20.65,6.15,59.34,16.73,90.73,19.82V287.72C229.86,288,184.8,288,167.2,282.55Z"/><path class="cls-1" d="M205.76,431.22l-9-14.43a13.16,13.16,0,0,1,.33-13.35l2.35-3.37a14.92,14.92,0,0,0,1.64-11.86l-28.9,8.87a12.16,12.16,0,0,1-14-6L144.41,363a12.71,12.71,0,0,1,3.54-15l16.34-12.48,6.94-5.3a50.7,50.7,0,0,0-7.2-8.48l-4.75-4.23-0.7-.21c0-.12,0-0.25,0-0.38l-7.14-6.36a7.44,7.44,0,0,0-10.91,1l-33.13,42.24A23.64,23.64,0,0,0,103.16,368L105.3,394A17,17,0,0,0,112.9,406L113,406c3.82,2.18,4,6,.43,8.6l-1,.72A10.64,10.64,0,0,0,109,427.41l3.53,8.68a6.32,6.32,0,0,0,4.16,3.9l5.37-1.12,6-4.23c3.59-2.55,3.89-2.18.67,0.82l-2.79,2.6c-3.22,3-2.36,6.32,1.91,7.39l4.48,1.12a48.69,48.69,0,0,0,12.44,1h0a31.3,31.3,0,0,0,3.23-.29l54.18-8.13C206.44,438.53,208.09,434.95,205.76,431.22Z"/><path class="cls-1" d="M159.27,317.44l-0.66-.59c0,0.12,0,.25,0,0.38Z"/><path class="cls-8" d="M200.36,386.38l-14-27.44-12.69-24.82a37.2,37.2,0,0,0-2.41-4l-6.94,5.3-16.34,12.48a12.71,12.71,0,0,0-3.54,15L158.19,391a12.16,12.16,0,0,0,14,6l28.9-8.87A10.53,10.53,0,0,0,200.36,386.38Z"/><path class="cls-1" d="M250,40v70s3.88,6.17,8.62,15c2,3.77,4.21,8,6.32,12.5,2,4.3,4,8.8,5.66,13.25a91.7,91.7,0,0,1,4.13,13.83c1.24,6.16,1.3,11.6-.56,15.44,0,0-20.17,12.17-24.17,11.17V233l7.67-2.83a73.28,73.28,0,0,0,12.33-5.5c4.12-2.36,22.55-19.8,30.47-28.66,1-1.17,1.91-2.19,2.53-3a11,11,0,0,1,2.42-2.31c5.44-3.84,14.29-3.29,18.2,1.34a8.17,8.17,0,0,1,1.38,2.3,38.56,38.56,0,0,0,2.05,4.3c4,7.27,10.74,15.81,12.95,16.36,2.67,0.67,7-3.33,7.33-10.67,0,0-10-13.67-7.33-17,0.89-1.12,2.61-1.33,4.67-1.18,4.1,0.3,9.56,2.06,12.66,1.18C362,186,360,186.33,360,180c0-1.48-.92-2.91-2.39-4.29-4.79-4.49-15.45-8.42-19.28-11.81-5-4.43,0-5.23,6.67-11.57s2.67-4,1.33-10S338,140,330,137.48c-3.56-1.12-5.07-4.25-5.89-8.47-1-5.25-1-12.18-2.44-19C319,97.67,353,66.67,355.33,62S340,52.33,340,52.33C312.67,52.33,282,90,282,90c0-7.67-11.4-2.67-11.4-2.67C269.2,78.67,250,40,250,40Zm39.31,116.31a46.35,46.35,0,0,1,4-6.1c0.89-1.16,1.87-2.36,3-3.61a102.68,102.68,0,0,1,16-14.26s9.67,13,2.33,20.33a44.45,44.45,0,0,1-6.63,5.22c-2.55,1.7-5.36,3.34-8.06,4.78-0.8.43-1.6,0.84-2.38,1.23-5.32,2.68-9.81,4.41-10.59,4.1S285.52,163.33,289.31,156.31Z"/><path class="cls-2" d="M345,152.33c6.67-6.33,2.67-4,1.33-10S338,140,330,137.48c-3.56-1.12-5.07-4.25-5.89-8.47,6-1.13,17-2.85,23.23-4,8.67-1.65,18,.35,12.67,9.35S346.33,140,351.67,150s16,4.79,13.33,14.56c-1.27,4.65-4.43,8.45-7.39,11.15-4.79-4.49-15.45-8.42-19.28-11.81C333.33,159.47,338.33,158.67,345,152.33Z"/><path class="cls-3" d="M296.29,146.59a102.68,102.68,0,0,1,16-14.26s9.67,13,2.33,20.33a44.45,44.45,0,0,1-6.63,5.22A23.42,23.42,0,0,0,296.29,146.59Z"/><path class="cls-4" d="M296.29,146.59A23.42,23.42,0,0,1,308,157.89c-2.55,1.7-5.36,3.34-8.06,4.78-3.44-3.42-5.64-8.86-6.66-12.47C294.2,149,295.18,147.84,296.29,146.59Z"/><path class="cls-4" d="M297.59,163.9c-5.32,2.68-9.81,4.41-10.59,4.1s-1.48-4.67,2.31-11.69A24.51,24.51,0,0,0,297.59,163.9Z"/><path class="cls-5" d="M289.31,156.31a46.35,46.35,0,0,1,4-6.1c1,3.61,3.22,9,6.66,12.47-0.8.43-1.6,0.84-2.38,1.23A24.51,24.51,0,0,1,289.31,156.31Z"/><path class="cls-6" d="M274.17,180S254,192.17,250,191.17V171c7-1.59,17.61-4,24.73-6.44C276,170.72,276,176.16,274.17,180Z"/><path class="cls-6" d="M250,127.75V110s3.88,6.17,8.62,15C255.63,126,253,127,250,127.75Z"/><path class="cls-6" d="M270.6,150.73c-6.34,2.33-14.6,5.12-20.6,7V141c4-.94,9.82-2.16,14.94-3.52C267,141.79,268.93,146.29,270.6,150.73Z"/><path class="cls-7" d="M274.73,164.56C267.61,167,257,169.41,250,171V157.75c6-1.9,14.26-4.69,20.6-7A91.7,91.7,0,0,1,274.73,164.56Z"/><path class="cls-7" d="M264.94,137.48C259.82,138.84,254,140.05,250,141V127.75c3-.8,5.63-1.76,8.62-2.77C260.65,128.76,262.84,133,264.94,137.48Z"/><path class="cls-2" d="M305.07,213.29a40.94,40.94,0,0,0-2.74,10.38c-4,31,45,46.33,45,46.33S317,300,308,288.67,250,241,250,241v-4.67C259,239.88,288.85,223.23,305.07,213.29Z"/><path class="cls-8" d="M302.33,223.67a40.94,40.94,0,0,1,2.74-10.38c6.62-4.06,11.05-7,11.05-7l-0.19-.28a44.71,44.71,0,0,0,8.25,4.07c1.1,0.33,1.87.34,2.14-.08,1-1.55,1-6.69.72-11.36,4,7.27,10.74,15.81,12.95,16.36,2.67,0.67,7-3.33,7.33-10.67,0,0-10-13.67-7.33-17,0.89-1.12,2.61-1.33,4.67-1.18,9.1,6.07,33.25,23.5,27,33.84,0,0-40,11-24.33,50C347.33,270,298.33,254.67,302.33,223.67Z"/><path class="cls-9" d="M270,224.67c4.12-2.36,22.55-19.8,30.47-28.66,2.58,1.78,6.58,4.49,10.68,7.07l0.73,0.46c1.37,0.86,2.74,1.69,4.06,2.47l0.19,0.28s-4.44,2.94-11.05,7c-16.23,9.95-46.07,26.6-55.07,23V233l7.67-2.83A73.28,73.28,0,0,0,270,224.67Z"/><path class="cls-3" d="M326.33,210c-0.28.42-1,.4-2.14,0.08a44.71,44.71,0,0,1-8.25-4.07c-1.32-.78-2.69-1.61-4.06-2.47l-0.73-.46c-4.1-2.59-8.1-5.29-10.68-7.07,1-1.17,1.91-2.19,2.53-3a11,11,0,0,1,2.42-2.31c5.44-3.84,14.29-3.29,18.2,1.34a8.17,8.17,0,0,1,1.38,2.3,38.56,38.56,0,0,0,2.05,4.3C327.33,203.31,327.37,208.45,326.33,210Z"/><path class="cls-10" d="M434.81,264.72L460,267.2l-19.08,5.17A28.51,28.51,0,0,0,434.81,264.72Z"/><path class="cls-10" d="M450,317.33l-13.59-11.59A28.35,28.35,0,0,0,443.53,293Z"/><path class="cls-10" d="M419.54,314.18L410,334l-3.07-21.08A28.29,28.29,0,0,0,419.54,314.18Z"/><path class="cls-1" d="M371.67,220S382,222.5,385,230s-4.5,5,8,16a62.09,62.09,0,0,0,19.94,11.76,28.7,28.7,0,0,1,3.06-.17,28.4,28.4,0,0,1,3.54,56.58,28.36,28.36,0,0,1-31.72-24.59c-2.14-3.53-5.94-8.12-11.83-9.59-10-2.5-28.67-10-28.67-10C331.67,231,371.67,220,371.67,220Z"/><path class="cls-10" d="M367.76,446.56l4.48-1.12c4.27-1.07,5.13-4.39,1.91-7.39,0,0,23.83,15,24.84,16.62s-43.66-7.06-43.67-7.07A48.69,48.69,0,0,0,367.76,446.56Z"/><path class="cls-10" d="M387.51,436.09l3.53-8.68a10.17,10.17,0,0,0,.21-6.6C402,427.1,420,439,420,447.65L383.35,440A6.32,6.32,0,0,0,387.51,436.09Z"/><path class="cls-8" d="M378,438.87l5.37,1.12A6.36,6.36,0,0,1,378,438.87Z"/><path class="cls-7" d="M250,287.72V241l80,33.5s1.19,3.21,2.8,8.05C315.2,288,270.14,288,250,287.72Z"/><path class="cls-7" d="M336,321.68a50.7,50.7,0,0,0-7.2,8.48,37.2,37.2,0,0,0-2.41,4l-12.69,24.82c-19.42,10-42,19.71-63.67,24.22V337.27c31.39-3.09,70.07-13.67,90.73-19.82Z"/><path class="cls-6" d="M299.64,386.38a10.53,10.53,0,0,0-.71,1.82S272,403.75,250,400V383.16c21.65-4.51,44.25-14.18,63.67-24.22Z"/><path class="cls-6" d="M332.8,282.55c3,9.1,7.56,24,8.59,34.3l-0.66.59c-20.65,6.15-59.34,16.73-90.73,19.82V287.72C270.14,288,315.2,288,332.8,282.55Z"/><path class="cls-1" d="M294.24,431.22l9-14.43a13.16,13.16,0,0,0-.33-13.35l-2.35-3.37a14.92,14.92,0,0,1-1.64-11.86l28.9,8.87a12.16,12.16,0,0,0,14-6L355.59,363a12.71,12.71,0,0,0-3.54-15l-16.34-12.48-6.94-5.3a50.7,50.7,0,0,1,7.2-8.48l4.75-4.23,0.7-.21c0-.12,0-0.25,0-0.38l7.14-6.36a7.44,7.44,0,0,1,10.91,1l33.13,42.24A23.64,23.64,0,0,1,396.84,368L394.7,394A17,17,0,0,1,387.1,406L387,406c-3.82,2.18-4,6-.43,8.6l1,0.72A10.64,10.64,0,0,1,391,427.41l-3.53,8.68a6.32,6.32,0,0,1-4.16,3.9L378,438.87l-6-4.23c-3.59-2.55-3.89-2.18-.67.82l2.79,2.6c3.22,3,2.36,6.32-1.91,7.39l-4.48,1.12a48.69,48.69,0,0,1-12.44,1h0a31.3,31.3,0,0,1-3.23-.29l-54.18-8.13C293.56,438.53,291.91,434.95,294.24,431.22Z"/><path class="cls-1" d="M340.73,317.44l0.66-.59c0,0.12,0,.25,0,0.38Z"/><path class="cls-8" d="M299.64,386.38l14-27.44,12.69-24.82a37.2,37.2,0,0,1,2.41-4l6.94,5.3,16.34,12.48a12.71,12.71,0,0,1,3.54,15L341.81,391a12.16,12.16,0,0,1-14,6l-28.9-8.87A10.53,10.53,0,0,1,299.64,386.38Z"/><path class="cls-11" d="M444.4,286a28.27,28.27,0,0,0-3.48-13.63L460,267.2l-25.19-2.48A28.29,28.29,0,0,0,416,257.6a28.7,28.7,0,0,0-3.06.17A62.09,62.09,0,0,1,393,246c-12.5-11-5-8.5-8-16s-13.33-10-13.33-10c6.26-10.34-17.9-27.78-27-33.84,4.1,0.3,9.56,2.06,12.66,1.18C362,186,360,186.33,360,180c0-1.48-.92-2.91-2.39-4.29,3-2.7,6.12-6.5,7.39-11.15,2.67-9.77-8-4.56-13.33-14.56s3-6.67,8.33-15.67-4-11-12.67-9.35c-6.22,1.18-17.25,2.91-23.23,4-1-5.25-1-12.18-2.44-19C319,97.67,353,66.67,355.33,62S340,52.33,340,52.33C312.67,52.33,282,90,282,90c0-7.67-11.4-2.67-11.4-2.67C269.2,78.67,250,40,250,40V400c22,3.75,48.93-11.8,48.93-11.8a14.92,14.92,0,0,0,1.64,11.86l2.35,3.37a13.16,13.16,0,0,1,.33,13.35l-9,14.43c-2.33,3.73-.68,7.32,3.67,8l54.18,8.13a31.3,31.3,0,0,0,3.23.29h0S400,456.33,399,454.67,374.14,438,374.14,438l-2.79-2.6c-3.22-3-2.92-3.37.67-.82l6,4.23a6.36,6.36,0,0,0,5.37,1.12L420,447.65c0-8.69-18-20.55-28.75-26.83a10.17,10.17,0,0,0-3.72-5.46l-1-.72c-3.58-2.55-3.39-6.42.43-8.6l0.15-.08A17,17,0,0,0,394.7,394L396.84,368a23.64,23.64,0,0,0-4.28-14.27l-33.13-42.24a7.44,7.44,0,0,0-10.91-1l-7.14,6.36c-1-10.32-5.56-25.2-8.59-34.3l-0.06-.18A145.78,145.78,0,0,0,347.33,270S366,277.5,376,280c5.89,1.47,9.69,6.06,11.83,9.59a28.44,28.44,0,0,0,19.1,23.33L410,334l9.54-19.82a28.32,28.32,0,0,0,16.87-8.43L450,317.33,443.53,293A28.45,28.45,0,0,0,444.4,286Z"/><path class="cls-1" d="M180.63,465.94V465h3.75v11.25h3.75v1.88H176.88v-1.87h3.75v-7.5h-1.87v-1.87h1.88v-0.94Z"/><path class="cls-1" d="M195.63,465.94V465h3.75v11.25h3.75v1.88H191.88v-1.87h3.75v-7.5h-1.87v-1.87h1.88v-0.94Z"/><path class="cls-1" d="M206.88,465.94V465h9.38v1.88h1.88v3.75h-1.87v1.88h-1.87v1.88h-3.75v1.88h7.5v1.88H205v-3.75h1.88V472.5h1.88v-1.87h3.75v-1.87h1.88v-1.87h-5.62v1.88H205v-1.87h1.88v-0.94Z"/><path class="cls-1" d="M235,471.56V465h11.25v1.88h1.88v5.63h-3.75v1.88h1.88v1.88h1.88v1.88H242.5v-1.87h-1.87v-1.87h-1.87v3.75H235v-6.56Zm9.38-2.81v-1.87h-5.62v5.63h3.75v-1.87h1.88v-1.87Z"/><path class="cls-1" d="M250,471.56V465h3.75v5.63h5.63V465h3.75v13.13h-3.75V472.5h-5.62v5.63H250v-6.56Z"/><path class="cls-1" d="M266.88,467.81V465h3.75v5.63h3.75V465h3.75v5.63h-1.87v1.88h-1.87v5.63h-3.75V472.5h-1.87v-1.87h-1.87v-2.81Z"/><path class="cls-1" d="M280,471.56V465h9.38v1.88h1.88v1.88h1.88v5.63h-1.87v1.88h-1.87v1.88H280v-6.56Zm7.5-3.75v-0.94h-3.75v9.38h3.75v-1.87h1.88v-5.62H287.5v-0.94Z"/><path class="cls-1" d="M296.88,465.94V465h9.38v1.88h1.88v9.38h-1.87v1.88h-9.37v-1.87H295v-9.37h1.88v-0.94Zm7.5,5.63v-4.69h-5.62v9.38h5.63v-4.69Z"/><path class="cls-1" d="M310,471.56V465h3.75v1.88h1.88v1.88h1.88v1.88h1.88V465h3.75v13.13h-3.75v-1.87H317.5v-1.87h-1.87V472.5h-1.87v5.63H310v-6.56Z"/></svg>