<?xml version="1.0" ?><svg id="pkflt" viewBox="0 0 500 500" xmlns="http://www.w3.org/2000/svg"><defs><style>.cls-1{fill:#f6c8d6;}.cls-2,.cls-8{fill:#1a1a1a;}.cls-3{fill:#fff;}.cls-4{fill:#922f00;}.cls-5{fill:#ed8599;}.cls-6{fill:#efafc5;}.cls-7{fill:#f09ba5;}.cls-8{opacity:0.1;}</style></defs><title/><path class="cls-1" d="M200,100c-10,10-26.67,20-26.67,20S140,126.67,130,126a90.44,90.44,0,0,0-11.43-.15c5.09,1.81,8.43,4.78,8.43,8.15,0,2.42-1.71,4.63-4.56,6.36,5.52,0.77,19.14,2.43,27.06,1.37-9.47,4.53-28.23,13.78-36.84,13.17l-0.92,0c2.65,1.7,4.25,3.83,4.25,6.15,0,3.9-4.47,7.27-11,8.92,10.25,2.3,25.09,2.2,30.18.73-4.37,2.58-15.87,10.07-21.74,15.33,5-.09,8.77,1.37,10,4.3a6.84,6.84,0,0,1-.65,5.83c1.19-.19,2.47-0.42,3.87-0.71-20.2,29.53-23.33,89.94-23.33,89.94,3.24,48.38,25.84,77.08,52.36,94.1l-1.76.6c-22.2,7.89-37.2,22.73-33.5,33.14s24.7,12.44,46.9,4.55c17.57-6.25,23.15-14.18,22.88-22.38A190.43,190.43,0,0,0,250,404V380c-56.67-2.33-60-74.33-60-74.33a17.23,17.23,0,0,0,2.35,1.19S207.75,238.5,250,242.5V159c-2,.25-4.94-1.68-7.75-4.1-4.74-4.09-9.05-9.61-7.59-8.57,2.33,1.67,15.33,0,15.33,0V81.85S210,90,200,100Zm24.67,20a3.69,3.69,0,0,1,2.7,1.38,12.14,12.14,0,0,1,2.55,6.84c0.06,0.58.09,1.17,0.09,1.77,0,5.52-2.39,10-5.33,10s-5.33-4.48-5.33-10S221.72,120,224.67,120Zm20.08,69.26c5.47,5.47-2,21.82-16.73,36.53s-19.28,10.42-24.75,4.95-9.76-10,4.95-24.75S239.27,183.79,244.74,189.26Z"/><path class="cls-2" d="M224.67,140c2.95,0,5.33-4.48,5.33-10,0-.61,0-1.2-0.09-1.77a3.37,3.37,0,0,1-2.91,2.44c-1.84,0-3.33-2.09-3.33-4.67s1.49-4.67,3.33-4.67a2.41,2.41,0,0,1,.37.05,3.69,3.69,0,0,0-2.7-1.38c-2.95,0-5.33,4.48-5.33,10S221.72,140,224.67,140Z"/><path class="cls-3" d="M223.67,126c0,2.58,1.49,4.67,3.33,4.67a3.37,3.37,0,0,0,2.91-2.44,12.14,12.14,0,0,0-2.55-6.84,2.41,2.41,0,0,0-.37-0.05C225.16,121.33,223.67,123.42,223.67,126Z"/><path class="cls-4" d="M234.67,146.33c-1.46-1,2.85,4.48,7.59,8.57A39.46,39.46,0,0,1,250,153v-6.62S237,148,234.67,146.33Z"/><path class="cls-5" d="M250,159v-6a39.46,39.46,0,0,0-7.75,1.94C245.06,157.32,248,159.25,250,159Z"/><path class="cls-6" d="M203.26,230.74c5.47,5.47,10,9.76,24.75-4.95s22.2-31.07,16.73-36.53-21.82,2-36.53,16.73S197.79,225.27,203.26,230.74Z"/><path class="cls-3" d="M192.35,306.86c15.09,6.4,57.65,5.81,57.65,5.81V242.5C207.75,238.5,192.35,306.86,192.35,306.86Z"/><path class="cls-7" d="M192.35,306.86a17.23,17.23,0,0,1-2.35-1.19s3.33,72,60,74.33V312.67S207.44,313.26,192.35,306.86Z"/><path class="cls-7" d="M127,134c0-3.36-3.33-6.33-8.43-8.15-8.81.59-15.17,3.54,1.43,14.15,0,0,.91.15,2.44,0.36C125.29,138.63,127,136.42,127,134Z"/><path class="cls-7" d="M116,161c0-2.32-1.6-4.45-4.25-6.15-12.29-.52-22.89,6-15.08,11.82,1.86,1.39,4.84,2.46,8.35,3.25C111.53,168.27,116,164.9,116,161Z"/><path class="cls-7" d="M123.45,190.28c-1.22-2.92-5-4.38-10-4.3a13.39,13.39,0,0,0-3.45,4c-1.73,4.61-.46,8.21,12.8,6.1A6.84,6.84,0,0,0,123.45,190.28Z"/><path class="cls-1" d="M250,81.85v64.48s13,1.67,15.33,0c1.46-1-2.85,4.48-7.59,8.57-2.81,2.43-5.75,4.35-7.75,4.1v83.5c42-4,57.65,64.36,57.65,64.36a17.25,17.25,0,0,0,2.35-1.19s-3,72-60,74.33v24a190.42,190.42,0,0,0,59.78-8.66c-0.27,8.2,5.31,16.14,22.88,22.38,22.2,7.89,43.2,5.86,46.9-4.55s-11.3-25.24-33.5-33.14l-1.76-.6c26.52-17,49.12-45.72,52.36-94.1,0,0-3.14-60.4-23.33-89.94,1.39,0.29,2.67.52,3.87,0.71a6.84,6.84,0,0,1-.65-5.83c1.22-2.92,5-4.38,10-4.3-5.87-5.27-17.37-12.75-21.74-15.33,5.08,1.47,19.92,1.57,30.18-.73-6.51-1.65-11-5-11-8.92,0-2.32,1.6-4.45,4.25-6.15l-0.92,0c-8.61.61-27.36-8.64-36.84-13.17,7.93,1.06,21.54-.6,27.06-1.37-2.85-1.73-4.56-3.94-4.56-6.36,0-3.36,3.33-6.33,8.43-8.15A90.44,90.44,0,0,0,370,126c-10,.67-43.33-6-43.33-6S310,110,300,100,250,81.85,250,81.85ZM280.66,130c0,5.52-2.39,10-5.33,10S270,135.52,270,130c0-.61,0-1.2.09-1.77a12.14,12.14,0,0,1,2.55-6.84,3.69,3.69,0,0,1,2.7-1.38C278.27,120,280.66,124.48,280.66,130Zm11.13,76c14.71,14.71,10.42,19.28,4.95,24.75s-10,9.76-24.75-4.95-22.2-31.07-16.73-36.53S277.08,191.28,291.79,206Z"/><path class="cls-2" d="M275.33,140c-2.95,0-5.33-4.48-5.33-10,0-.61,0-1.2.09-1.77a3.37,3.37,0,0,0,2.91,2.44c1.84,0,3.33-2.09,3.33-4.67s-1.49-4.67-3.33-4.67a2.41,2.41,0,0,0-.37.05,3.69,3.69,0,0,1,2.7-1.38c2.95,0,5.33,4.48,5.33,10S278.27,140,275.33,140Z"/><path class="cls-3" d="M276.33,126c0,2.58-1.49,4.67-3.33,4.67a3.37,3.37,0,0,1-2.91-2.44,12.14,12.14,0,0,1,2.55-6.84,2.41,2.41,0,0,1,.37-0.05C274.84,121.33,276.33,123.42,276.33,126Z"/><path class="cls-4" d="M265.33,146.33c1.46-1-2.85,4.48-7.59,8.57A46.51,46.51,0,0,0,250,153v-6.62S263,148,265.33,146.33Z"/><path class="cls-5" d="M250,159v-6a46.53,46.53,0,0,1,7.75,1.94C254.94,157.32,252,159.25,250,159Z"/><path class="cls-6" d="M296.74,230.74c-5.47,5.47-10,9.76-24.75-4.95s-22.2-31.07-16.73-36.53,21.82,2,36.53,16.73S302.2,225.27,296.74,230.74Z"/><path class="cls-3" d="M307.65,306.86c-15.09,6.4-57.65,5.81-57.65,5.81V242.5C292,238.5,307.65,306.86,307.65,306.86Z"/><path class="cls-7" d="M307.65,306.86a17.25,17.25,0,0,0,2.35-1.19s-3,72-60,74.33V312.67S292.56,313.26,307.65,306.86Z"/><path class="cls-7" d="M373,134c0-3.36,3.33-6.33,8.43-8.15,8.81,0.59,15.17,3.54-1.43,14.15,0,0-.91.15-2.44,0.36C374.71,138.63,373,136.42,373,134Z"/><path class="cls-7" d="M384,161c0-2.32,1.6-4.45,4.25-6.15,12.29-.52,22.89,6,15.08,11.82-1.86,1.39-4.84,2.46-8.35,3.25C388.47,168.27,384,164.9,384,161Z"/><path class="cls-7" d="M376.55,190.28c1.22-2.92,5-4.38,10-4.3a13.39,13.39,0,0,1,3.45,4c1.73,4.61.46,8.21-12.8,6.1A6.84,6.84,0,0,1,376.55,190.28Z"/><path class="cls-8" d="M388.25,154.85l-0.92,0c-8.61.61-27.36-8.64-36.84-13.17,7.93,1.06,21.54-.6,27.06-1.37,1.53-.21,2.44-0.36,2.44-0.36,16.6-10.6,10.24-13.56,1.43-14.15A90.44,90.44,0,0,0,370,126c-10,.67-43.33-6-43.33-6S310,110,300,100s-50-18.15-50-18.15V404a190.42,190.42,0,0,0,59.78-8.66c-0.27,8.2,5.31,16.14,22.88,22.38,22.2,7.89,43.2,5.86,46.9-4.55s-11.3-25.24-33.5-33.14l-1.76-.6c26.52-17,49.12-45.72,52.36-94.1,0,0-3.14-60.4-23.33-89.94,1.39,0.29,2.67.52,3.87,0.71h0c13.26,2.11,14.53-1.5,12.8-6.1a13.39,13.39,0,0,0-3.45-4c-5.87-5.27-17.37-12.75-21.74-15.33,5.08,1.47,19.92,1.57,30.18-.73,3.51-.79,6.49-1.86,8.35-3.25C411.14,160.81,400.53,154.33,388.25,154.85ZM252.85,312.68h0Z"/><path class="cls-7" d="M173.13,465.94V465h3.75v11.25h3.75v1.88H169.38v-1.87h3.75v-7.5h-1.87v-1.87h1.88v-0.94Z"/><path class="cls-7" d="M188.13,465.94V465h3.75v11.25h3.75v1.88H184.38v-1.87h3.75v-7.5h-1.87v-1.87h1.88v-0.94Z"/><path class="cls-7" d="M199.38,465.94V465h11.25v1.88h-1.87v1.88h-1.87v1.88h1.88v1.88h1.88v3.75h-1.87v1.88h-9.37v-1.87H197.5v-1.87h3.75v1.88h5.63V472.5h-5.62v-1.87h1.88v-1.87H205v-1.87h-5.62v-0.94Z"/><path class="cls-7" d="M231.25,465.94V465h7.5v1.88h1.88v1.88h-3.75v-1.87h-3.75v1.88h-1.87v5.63h1.88v1.88h3.75v-1.87h3.75v1.88h-1.87v1.88h-7.5v-1.87h-1.87v-1.87H227.5v-5.62h1.88v-1.87h1.88v-0.94Z"/><path class="cls-7" d="M242.5,471.56V465h3.75v5.63h5.63V465h3.75v13.13h-3.75V472.5h-5.62v5.63H242.5v-6.56Z"/><path class="cls-7" d="M261.25,465.94V465h5.63v1.88h1.88v1.88h1.88v9.38h-3.75v-3.75h-5.62v3.75H257.5v-9.37h1.88v-1.87h1.88v-0.94Zm3.75,1.88v-0.94h-1.87v1.88h-1.87v3.75h5.63v-3.75H265v-0.94Z"/><path class="cls-7" d="M272.5,471.56V465h3.75v1.88h1.88v1.88H280v1.88h1.88V465h3.75v13.13h-3.75v-1.87H280v-1.87h-1.87V472.5h-1.87v5.63H272.5v-6.56Z"/><path class="cls-7" d="M289.38,465.94V465h7.5v1.88h1.88v1.88H295v-1.87h-3.75v3.75h7.5v1.88h1.88v3.75h-1.87v1.88h-9.37v-1.87H287.5v-1.87h3.75v1.88h5.63V472.5h-7.5v-1.87H287.5v-3.75h1.88v-0.94Z"/><path class="cls-7" d="M302.5,471.56V465h13.13v1.88h-9.37v3.75h7.5v1.88h-7.5v3.75h9.38v1.88H302.5v-6.56Z"/><path class="cls-7" d="M319.38,467.81V465h3.75v5.63h3.75V465h3.75v5.63h-1.87v1.88h-1.87v5.63h-3.75V472.5h-1.87v-1.87h-1.87v-2.81Z"/></svg>