<?xml version="1.0" ?><svg id="pkflt" viewBox="0 0 500 500" xmlns="http://www.w3.org/2000/svg"><defs><style>.cls-1{fill:none;}.cls-2{fill:#8157ad;}.cls-3{fill:#4769c9;}.cls-4{fill:#96a2ce;}.cls-5{fill:#fff;}.cls-11,.cls-6{fill:#1a1a1a;}.cls-7{fill:#5666ae;}.cls-8{fill:#ee627e;}.cls-9{fill:#6957aa;}.cls-10{fill:#9185cc;}.cls-11{opacity:0.1;}</style></defs><title/><path class="cls-1" d="M158.56,172l5.34,2.69,0.43-.24Q161.49,173.16,158.56,172Z"/><path class="cls-1" d="M231.67,171.48a19.94,19.94,0,0,1-2.27-1.05l0.32,0.93c1,0.44,1.92.88,2.76,1.31A1.91,1.91,0,0,0,231.67,171.48Z"/><path class="cls-2" d="M157.85,154.85c13.3,4.09,25.55,11.12,35.65,18.25a114.79,114.79,0,0,1-9.53-14c-14.81-5-22-10.35-22.11-10.4a8,8,0,0,0-12.5,8.71A8,8,0,0,1,157.85,154.85Z"/><path class="cls-2" d="M209.48,165.42l-2-.4c1.57,2,3.27,4.11,5.08,6.32A60,60,0,0,0,209.48,165.42Z"/><path class="cls-3" d="M229.39,170.43a16.56,16.56,0,0,1-7.75-8.44,19.94,19.94,0,0,1-1.27-9.19,79.74,79.74,0,0,0-6.42-8.14,8,8,0,1,0-11.89,10.7,63.41,63.41,0,0,1,7.42,10.07,104.86,104.86,0,0,1,20.24,5.93Z"/><path class="cls-3" d="M221.65,162a16.56,16.56,0,0,0,7.75,8.44,75.79,75.79,0,0,0-9-17.64A19.94,19.94,0,0,0,221.65,162Z"/><path class="cls-4" d="M164.32,174.47a30.81,30.81,0,0,1,7.39-2.89c-12.77-5.11-19.16-9.92-19.58-10.24a8,8,0,0,1-2.77-4,8,8,0,0,0-.18,10c2.91,1.42,6.07,3,9.37,4.62Q161.48,173.15,164.32,174.47Z"/><path class="cls-4" d="M152.13,161.35c0.42,0.32,6.81,5.13,19.58,10.24,7.46-1.85,15-.74,22,1.75l-0.18-.23c-10.1-7.13-22.35-14.16-35.65-18.25a8,8,0,0,0-8.49,2.51A8,8,0,0,0,152.13,161.35Z"/><path class="cls-2" d="M207.49,165c-5.22-6.64-8.94-11.85-9.74-14a8,8,0,0,0-15.54,3.82,18.67,18.67,0,0,0,1.76,4.22,155.89,155.89,0,0,0,21.53,5.58Z"/><path class="cls-2" d="M193.5,173.1l0.18,0.23,0.3,0.11Z"/><path class="cls-2" d="M153.15,170.15c1.82,0.56,3.63,1.19,5.41,1.88-3.31-1.65-6.47-3.2-9.37-4.62A8,8,0,0,0,153.15,170.15Z"/><path class="cls-5" d="M240,230a20,20,0,1,0-20,20A20,20,0,0,0,240,230Zm-25.33,0a5.33,5.33,0,1,1,5.33,5.33A5.33,5.33,0,0,1,214.67,230Z"/><circle class="cls-6" cx="220" cy="230" r="5.33"/><path class="cls-2" d="M234.51,193.5a8,8,0,0,1-7.63-5.58c-1.57-1.15-7.22-4.36-24.32-7.56-33.52-6.28-49.75-18.5-50.43-19a8,8,0,1,1,9.73-12.7c0.1,0.08,14.24,10.48,43.64,16,26,4.87,32.48,10.73,35.11,14.73a10.16,10.16,0,0,1,1.7,7.88A8,8,0,0,1,234.51,193.5Z"/><path class="cls-2" d="M140,254.5a8,8,0,0,1-.72-16c5.51-.5,7.61-3.83,12.65-14,3-6,6.35-12.81,11.88-19.58,7.3-8.92,14.79-10.89,19.78-11,10.52-.17,17.43,7.41,18.18,8.27l-12,10.54,0.07,0.08s-2.88-3-6-2.89c-2.9.09-5.73,2.83-7.59,5.11-4.39,5.36-7.21,11.05-9.93,16.55-5,10.08-10.65,21.5-25.54,22.85Q140.35,254.5,140,254.5Z"/><path class="cls-2" d="M139.54,282.29c-8.06,0-14.15-2.28-18.39-6.84-15.08-16.19-17.48-33.69-17.58-34.43a8,8,0,0,1,15.87-2c0,0.08,2,13.3,13.42,25.57,2.25,2.41,10.94,3.1,28.06-2.91a195.48,195.48,0,0,0,25.26-11.16,8,8,0,0,1,7.66,14,209.54,209.54,0,0,1-27.62,12.21C155.66,280.44,146.8,282.29,139.54,282.29Z"/><path class="cls-2" d="M183.5,348c-6.29,0-12-8.39-13.56-14.18-1.64-6.16-1.74-18,16.07-28.25,7.69-4.42,13.39-7.54,16.94-9.29,3-1.49,9.38-4.6,13.6,1a8.18,8.18,0,0,1-1,10.89,8,8,0,0,1-5.08,2.25c-2,1-6.59,3.34-16.52,9-5.34,3.07-8.52,6.32-8.72,8.92-0.15,2,1.48,4,2.19,4.68A8,8,0,0,1,183.5,348Z"/><path class="cls-2" d="M140,313.5a8,8,0,0,1-7.53-5.31c-0.84-2.36-1.62-7.09,2.64-12.33,6.86-8.45,26.7-16.19,44.18-13.79,5.12,0.7,7.62.22,8.62-.11a8,8,0,0,1,15.83,1,13.59,13.59,0,0,1-4.42,10.54c-4.7,4.4-12,5.85-22.21,4.45-11.91-1.64-25.66,4.05-29.1,7.46A8,8,0,0,1,140,313.5Z"/><path class="cls-7" d="M135,208V192a2.41,2.41,0,0,0-.6,0c0.07,0,7.46-1.17,25.85-14.93,27.38-20.49,61.56,14.36,63,15.85a8,8,0,0,1-11.5,11.12h0c-0.26-.26-26.05-26-41.91-14.16C148,206.24,138.21,208,135,208Z"/><path class="cls-7" d="M193.73,232.67l-0.69,0c-1.32-.11-32.49-2.84-52.74-10.11a8,8,0,0,1,5.41-15.06c18.31,6.57,48.4,9.2,48.7,9.23A8,8,0,0,1,193.73,232.67Z"/><path class="cls-7" d="M125,298a8,8,0,0,1-3.73-15.08c0.16-.08,17.2-9.26,26.37-24.54,12.44-20.73,36.58-23.25,37.6-23.35A8,8,0,0,1,186.79,251c-0.39,0-17.27,2.06-25.43,15.66-11.52,19.2-31.78,30-32.63,30.46A8,8,0,0,1,125,298Z"/><path class="cls-7" d="M167.49,316a8,8,0,0,1-6.27-13c8.55-10.83,38.2-18.67,47.08-20.82a8,8,0,0,1,3.76,15.55c-15.7,3.8-34.83,10.81-38.29,15.18A8,8,0,0,1,167.49,316Z"/><path class="cls-7" d="M240,197.36a8,8,0,0,1-7.8-9.82c1.79-7.76.93-15.51-.54-16.07a16.94,16.94,0,0,1-10-9.49c-3.29-8.07.33-16.69,1.09-18.34a8,8,0,0,1,14.53,6.71c-0.75,1.69-1.26,4.48-.8,5.59a1.58,1.58,0,0,0,.89.58c16.58,6.31,11.11,31.78,10.43,34.67A8,8,0,0,1,240,197.36Z"/><path class="cls-3" d="M125,316a8,8,0,0,1-3.77-15.06c22.23-11.85,70.24-37.72,70.73-38A8,8,0,0,1,199.55,277c-0.48.26-48.53,26.15-70.79,38A8,8,0,0,1,125,316Z"/><path class="cls-3" d="M186,241a8.12,8.12,0,0,1-.88,0c-1.39-.15-34.31-3.79-52.19-8.56a8,8,0,1,1,4.12-15.46c16.72,4.46,49.48,8.07,49.81,8.11A8,8,0,0,1,186,241Z"/><path class="cls-3" d="M225.34,199.17h-0.26a8,8,0,0,1-7.75-8.2c0-.85.11-18.5-15.28-35.61a8,8,0,1,1,11.89-10.7c19.92,22.14,19.41,45.78,19.38,46.77A8,8,0,0,1,225.34,199.17Z"/><path class="cls-4" d="M193.71,223a8,8,0,0,1-4-1.06c-15.49-8.84-44.43-20.66-56.17-14.79a8,8,0,0,1-7.16-14.31c23.16-11.58,66.41,12.43,71.27,15.21A8,8,0,0,1,193.71,223Z"/><path class="cls-4" d="M214.67,210a8,8,0,0,1-5.93-2.63c-0.32-.35-25.7-28-55.59-37.18a8,8,0,1,1,4.71-15.29c34.21,10.53,61.6,40.47,62.74,41.73A8,8,0,0,1,214.67,210Z"/><path class="cls-4" d="M135,265.14a8,8,0,0,1-.4-16c4.83-.25,32.1-4.35,49.25-7.05a8,8,0,0,1,2.49,15.81c-4.45.7-43.71,6.85-50.92,7.23H135Z"/><path class="cls-2" d="M228.3,210a8,8,0,0,1-6-2.66c-14.06-15.68-38-43.34-40.13-52.47A8,8,0,0,1,197.75,151c1.91,5.17,20.39,27.65,36.5,45.61A8,8,0,0,1,228.3,210Z"/><path class="cls-2" d="M153.05,250.92c-11.59,0-23.49-2.3-31.18-9.9a8,8,0,1,1,11.25-11.37c8.8,8.7,35.13,5,49.66.69a8,8,0,0,1,4.61,15.32C184.62,246.5,169.13,250.92,153.05,250.92Z"/><path class="cls-2" d="M153,318a8,8,0,0,1-4.81-14.4c9.06-6.8,31.27-22.6,41.8-22.6a8,8,0,0,1,.08,16c-4,.42-19,9.46-32.28,19.4A8,8,0,0,1,153,318Z"/><path class="cls-2" d="M185.09,229.46a8,8,0,0,1-2.3-.34c-0.82-.25-20.34-6.16-36.86-15.92-8.37-5-31.92,2.29-46,9A8,8,0,0,1,93,207.79c6.93-3.32,42.43-19.35,61-8.35,14.85,8.78,33.13,14.31,33.31,14.37A8,8,0,0,1,185.09,229.46Z"/><path class="cls-2" d="M203.76,216a8,8,0,0,1-6.41-3.2c-4-4.86-36-21.92-63.29-34.92a8,8,0,1,1,6.88-14.45c18.43,8.78,62.07,30.22,69.22,39.77A8,8,0,0,1,203.76,216Z"/><path class="cls-1" d="M183.35,307.2c-4.73,2.08-8.27,4.11-9.57,5.76a8,8,0,0,1-3.58,2.57c1.39-.15,2.79-0.32,4.2-0.52A38.07,38.07,0,0,1,183.35,307.2Z"/><path class="cls-1" d="M161.72,313.52q-1.73,1.24-3.43,2.51c1.16,0,2.34,0,3.57,0,1.38,0,2.8-.05,4.22-0.13A7.77,7.77,0,0,1,161.72,313.52Z"/><path class="cls-1" d="M135.41,265.13H135a8,8,0,0,1-1.66-.18c1.39,1,4.2,1.58,8.58,1.24q0.83-1,1.63-2C139.84,264.72,136.92,265.05,135.41,265.13Z"/><path class="cls-1" d="M149.7,281.27a100.71,100.71,0,0,1-17.78,14c10.68-5.72,23.61-12.67,34.73-18.65l-0.44.16A109.75,109.75,0,0,1,149.7,281.27Z"/><path class="cls-1" d="M165.06,193.38l-0.43.3,2.5,0.79Z"/><path class="cls-8" d="M227,341.25c-5.22-2.4-5.89-7.81-5.42-12.63a29,29,0,0,1-6.56,2.88v17.34a66.22,66.22,0,0,0-9,1.29c-24.7,5.11-43,18-40.75,28.83s24,15.45,48.73,10.34,30.87-13.49,28.63-24.31a20.56,20.56,0,0,0-2.59-6.65V337.72c-3.82,3.34-6.81,4.42-9.22,4.42A9,9,0,0,1,227,341.25Z"/><path class="cls-6" d="M240,197.36a8,8,0,0,1-6.92-4H233a7.91,7.91,0,0,1-.5,1.32l1.73,1.94a8,8,0,0,1-11.91,10.68l-0.93-1a8,8,0,0,1-9.77,3.1,8,8,0,0,1-1.24,3.1A20,20,0,1,1,200,230c0-.14,0-0.27,0-0.41a8,8,0,0,1-6,3.06,7.75,7.75,0,0,1-1,4.22,7.94,7.94,0,0,1,0,2.25,8,8,0,0,1-.34,8.32,7.51,7.51,0,0,1,.42,2.68,8,8,0,0,1,3.5,11.92,8,8,0,0,1,3.46,14.7,8,8,0,0,1,3.7,6.2c0,0.14,0,.29,0,0.43,1.82-.48,3.37-0.87,4.55-1.15a8,8,0,0,1,7.9,13c1.92,0.81,3.93,1.76,6.07,2.86,1.21,0.63,2.39,1.27,3.54,1.91l0.32,0c-1-1.44-1.84-2.6-2.34-3.33a7.5,7.5,0,0,1,12.4-8.44c0.83,1.21,1.74,2.5,2.7,3.81a7.35,7.35,0,0,1,6.19,1.91,34.1,34.1,0,0,1,4.91-1.67V180.38l-0.84,0a58.11,58.11,0,0,1-1.37,10.79A8,8,0,0,1,240,197.36Z"/><path class="cls-6" d="M200.09,219.84a8,8,0,0,1,1.35,2.75,20,20,0,0,1,4.66-6.94,7.74,7.74,0,0,1-4.41.07,8,8,0,0,1-1,3.26A8,8,0,0,1,200.09,219.84Z"/><path class="cls-5" d="M208.55,214.4a8,8,0,0,1-2.46,1.24,20,20,0,0,0-4.66,6.94,7.94,7.94,0,0,1-1.42,7c0,0.14,0,.27,0,0.41a20,20,0,1,0,10.39-17.54A8,8,0,0,1,208.55,214.4ZM220,224.67a5.33,5.33,0,1,1-5.33,5.33A5.33,5.33,0,0,1,220,224.67Z"/><circle class="cls-6" cx="220" cy="230" r="5.33"/><path class="cls-2" d="M232.47,172.67c-0.84-.43-1.75-0.87-2.76-1.31a71.37,71.37,0,0,1,2.83,11.17l0.48-.11C233.43,178.18,233.12,174.49,232.47,172.67Z"/><path class="cls-2" d="M233,182.42l-0.48.11c0.1,0.6.19,1.18,0.27,1.73Q232.95,183.32,233,182.42Z"/><path class="cls-2" d="M233,193.35h0.06l0-.08Z"/><path class="cls-2" d="M136.58,249a41.59,41.59,0,0,1-4.51-1.48,8,8,0,0,0,.52,2,8,8,0,0,1,2-.37C135.05,249.13,135.73,249.07,136.58,249Z"/><path class="cls-2" d="M178.53,259.12c-3.61.56-8.09,1.24-12.82,2a28.54,28.54,0,0,0-4.35,5.55,75.85,75.85,0,0,1-11.66,14.65,109.75,109.75,0,0,0,16.51-4.53l0.44-.16,13.58-7.31A71.57,71.57,0,0,1,178.53,259.12Z"/><path class="cls-2" d="M141.91,266.2c-4.38.34-7.19-.23-8.58-1.24a8,8,0,0,1-6.32-7.41c0-.16,0-0.31,0-0.47a50.15,50.15,0,0,1-7.58-18.1,8,8,0,0,0-15.87,2c0.1,0.74,2.5,18.23,17.58,34.43a19.6,19.6,0,0,0,5.49,4.13A81,81,0,0,0,141.91,266.2Z"/><path class="cls-2" d="M186.33,257.9l-7.8,1.21a71.57,71.57,0,0,0,1.71,10.15L192,263a8,8,0,0,1,4.62-.91,8,8,0,0,0-3.5-11.92A8,8,0,0,1,186.33,257.9Z"/><path class="cls-2" d="M189,304.9c-2,.76-3.9,1.54-5.64,2.3a38.07,38.07,0,0,0-9,7.81,146.52,146.52,0,0,0,15.36-3.17A27.65,27.65,0,0,1,189,304.9Z"/><path class="cls-2" d="M169.94,333.82c1.55,5.8,7.26,14.18,13.56,14.18a8,8,0,0,0,4-15,7.74,7.74,0,0,1-2.13-3.75,133.14,133.14,0,0,1-15.83,2.37A20.64,20.64,0,0,0,169.94,333.82Z"/><path class="cls-2" d="M204.16,307.53l0.08,0-0.1-.08Z"/><path class="cls-2" d="M204.05,306.89c0,0.16.06,0.35,0.09,0.53l0.1,0.08,1-.34C204.81,307.05,204.41,307,204.05,306.89Z"/><path class="cls-2" d="M146.27,305.69l-11.26,6a7.9,7.9,0,0,0,10.16-.14A8,8,0,0,1,146.27,305.69Z"/><path class="cls-2" d="M191.81,281.21a8,8,0,0,1,5.26,4c2.46-.73,4.73-1.36,6.69-1.87,0-.15,0-0.29,0-0.43a8,8,0,0,0-3.7-6.2c-0.16.1-.32,0.2-0.49,0.29Z"/><path class="cls-7" d="M163.9,174.71c4.89,2.48,9.95,5.11,14.86,7.77a120.49,120.49,0,0,0-14.43-8Z"/><path class="cls-7" d="M164.64,193.69l0.43-.3c-5.22-2.74-10.74-5.56-16.3-8.33a87.89,87.89,0,0,1-8.34,4.69C148.17,189.55,156.63,191.24,164.64,193.69Z"/><path class="cls-7" d="M154,220.45q0.58-1.13,1.2-2.28c-3.09-1.52-6.21-3.17-9.23-5-2.37-1.4-5.95-1.82-10.19-1.56-0.1.21-.19,0.43-0.27,0.65a8,8,0,0,0-.29,4.38,8,8,0,0,1,1.88.26C141.78,218.2,147.78,219.39,154,220.45Z"/><path class="cls-7" d="M200.09,219.84a8,8,0,0,1-6.37,3.16c-0.26,0-.51,0-0.77,0a8.12,8.12,0,0,1-.2.81,7.93,7.93,0,0,1-1.72,3,8,8,0,0,1,3,5.87,8,8,0,0,0,6-3.06,19.91,19.91,0,0,1,1.42-7A8,8,0,0,0,200.09,219.84Z"/><path class="cls-7" d="M201.44,222.58a19.91,19.91,0,0,0-1.42,7A7.94,7.94,0,0,0,201.44,222.58Z"/><path class="cls-7" d="M155.16,218.17q-0.62,1.15-1.2,2.28c3.17,0.54,6.38,1.05,9.5,1.52C160.79,220.83,158,219.55,155.16,218.17Z"/><path class="cls-7" d="M141.91,266.2c4.4-.34,10.41-1.61,18.23-4.3-6,.88-11.91,1.73-16.59,2.34Q142.74,265.24,141.91,266.2Z"/><path class="cls-7" d="M149.7,281.27a57.16,57.16,0,0,1-10.16,1,28.11,28.11,0,0,1-12.9-2.71c-3.16,2.15-5.31,3.31-5.36,3.34a8,8,0,0,0,6.26,14.65l4.39-2.35A100.71,100.71,0,0,0,149.7,281.27Z"/><path class="cls-7" d="M190.37,244a8,8,0,0,1,2.29,3.44,8,8,0,0,0,.34-8.32A8,8,0,0,1,190.37,244Z"/><path class="cls-7" d="M149.7,281.27a75.85,75.85,0,0,0,11.66-14.65,28.54,28.54,0,0,1,4.35-5.55l-5.57.83c-7.81,2.69-13.82,4-18.23,4.3a81,81,0,0,1-15.28,13.38,28.11,28.11,0,0,0,12.9,2.71A57.16,57.16,0,0,0,149.7,281.27Z"/><path class="cls-7" d="M173.78,313c1.3-1.65,4.83-3.67,9.57-5.76,0.84-.55,1.73-1.1,2.67-1.64l3-1.73a13.75,13.75,0,0,1,1.89-6.1,28.45,28.45,0,0,1-4.81.65c-5.59,2.59-15.12,8.47-24.4,15.14a7.77,7.77,0,0,0,4.36,2.34q2-.12,4.12-0.34A8,8,0,0,0,173.78,313Z"/><path class="cls-7" d="M200.78,291.88c4.14-.38,9.23.74,15.43,3.37a8,8,0,0,0-7.9-13c-1.18.29-2.74,0.67-4.55,1.15A13.49,13.49,0,0,1,200.78,291.88Z"/><path class="cls-7" d="M186,305.56c-0.94.54-1.82,1.09-2.67,1.64,1.73-.76,3.63-1.53,5.64-2.3,0-.36,0-0.72.06-1.07Z"/><path class="cls-7" d="M190.08,297a14.84,14.84,0,0,0-4,1.39,28.45,28.45,0,0,0,4.81-.65c0.19-.3.38-0.6,0.59-0.88A8,8,0,0,1,190.08,297Z"/><path class="cls-7" d="M198,289a8,8,0,0,1-.92,3.71,14.13,14.13,0,0,1,3.7-.83,13.49,13.49,0,0,0,3-8.5c-2,.52-4.23,1.15-6.69,1.87A8,8,0,0,1,198,289Z"/><path class="cls-7" d="M231.67,171.48a1.91,1.91,0,0,1,.8,1.19c4.73,2.45,6.88,4.79,8.14,6.7a12.47,12.47,0,0,1,.87,1.54,72.52,72.52,0,0,1,7.68-.5c0.28-8.69-1.53-20-11.8-23.88a1.58,1.58,0,0,1-.89-0.58c-0.46-1.11.05-3.9,0.8-5.59a8,8,0,0,0-14.53-6.71,28.63,28.63,0,0,0-2.37,9.14,75.79,75.79,0,0,1,9,17.64A19.94,19.94,0,0,0,231.67,171.48Z"/><path class="cls-7" d="M242.31,187.24a7.92,7.92,0,0,1-9.23,6.12,8,8,0,0,0,14.7-2.17,58.11,58.11,0,0,0,1.37-10.79,72.52,72.52,0,0,0-7.68.5A9.8,9.8,0,0,1,242.31,187.24Z"/><path class="cls-7" d="M233,182.42a71.62,71.62,0,0,1,8.45-1.51,12.47,12.47,0,0,0-.87-1.54c-1.26-1.91-3.41-4.25-8.14-6.7C233.12,174.49,233.43,178.18,233,182.42Z"/><path class="cls-7" d="M232.81,184.26a46,46,0,0,1,.52,7.16,8,8,0,0,1-.29,1.87l0,0.08a7.92,7.92,0,0,0,9.23-6.12,9.8,9.8,0,0,0-.83-6.34,71.62,71.62,0,0,0-8.45,1.51Q232.94,183.32,232.81,184.26Z"/><path class="cls-3" d="M132.47,308.19c-0.84-2.36-1.62-7.09,2.64-12.33,6.86-8.45,26.7-16.19,44.18-13.79a37.32,37.32,0,0,0,4,.35q0.72-.25,1.4-0.46a71.2,71.2,0,0,1-4-11c-4.13,1.85-9,3.84-14,5.64-11.12,6-24,12.93-34.73,18.65-1.83,1.12-3,1.75-3.2,1.85a8,8,0,0,1-1.19.5l-6.3,3.37a8,8,0,1,0,7.53,14.12l6.24-3.34A7.94,7.94,0,0,1,132.47,308.19Z"/><path class="cls-3" d="M195.2,275.52a7.94,7.94,0,0,1,4.84,1.23,8,8,0,0,0-3.46-14.7,8,8,0,0,1-2.75,2.48c-0.34.18-5.61,3-13.16,6.42a71.2,71.2,0,0,0,4,11,23.27,23.27,0,0,1,3.46-.81A8,8,0,0,1,195.2,275.52Z"/><path class="cls-3" d="M166.65,276.58c5.07-1.8,9.88-3.79,14-5.64-0.15-.55-0.3-1.11-0.44-1.67Z"/><path class="cls-3" d="M196.58,262A8,8,0,0,0,192,263l-11.73,6.31c0.14,0.56.29,1.11,0.44,1.67,7.55-3.37,12.82-6.23,13.16-6.42A8,8,0,0,0,196.58,262Z"/><path class="cls-3" d="M148.2,303.6c7.41-5.56,23.63-17.15,35-21.18a37.32,37.32,0,0,1-4-.35c-17.48-2.4-37.32,5.34-44.18,13.79-4.25,5.24-3.48,10-2.64,12.33a7.94,7.94,0,0,0,2.54,3.53l11.26-6A8,8,0,0,1,148.2,303.6Z"/><path class="cls-3" d="M195.2,275.52a8,8,0,0,0-7.09,5.63A13.36,13.36,0,0,1,190,281a8,8,0,0,1,1.81.21l7.74-4.17c0.17-.09.33-0.19,0.49-0.29A7.94,7.94,0,0,0,195.2,275.52Z"/><path class="cls-3" d="M131.93,295.23l-4.39,2.35a8,8,0,0,0,1.19-.5C128.92,297,130.1,296.35,131.93,295.23Z"/><path class="cls-3" d="M166.26,231.62L165,234.07a121.17,121.17,0,0,0,14.87-2.93c-3.72-.5-8-1.13-12.46-1.91Z"/><path class="cls-3" d="M146.21,234.6a55.43,55.43,0,0,0,5.06-8.78c-3.84-1-7.56-2.07-11-3.29a8,8,0,0,1-5.11-5.85,8,8,0,0,0-7.73,10.66,8,8,0,0,1,5.67,2.31C136,232.47,140.68,234,146.21,234.6Z"/><path class="cls-3" d="M193,232.64l-2.22-.21a7.79,7.79,0,0,1,2.18,4.45,7.75,7.75,0,0,0,1-4.22h-0.25Z"/><path class="cls-3" d="M165,234.07l1.22-2.46,1.19-2.38c-5.27-.92-10.83-2-16.18-3.41a55.43,55.43,0,0,1-5.06,8.78A80.37,80.37,0,0,0,165,234.07Z"/><path class="cls-3" d="M140.3,222.53c3.41,1.22,7.14,2.32,11,3.29l0.65-1.31c0.65-1.32,1.33-2.68,2-4.07-6.19-1.06-12.18-2.25-16.9-3.51a8,8,0,0,0-1.88-.26A8,8,0,0,0,140.3,222.53Z"/><path class="cls-3" d="M182.07,228.91c-1.72-.54-6.3-2-12.19-4.31-0.85,1.55-1.66,3.1-2.43,4.64,4.49,0.78,8.74,1.42,12.46,1.91l1.55-.42C181.65,230.11,181.87,229.51,182.07,228.91Z"/><path class="cls-3" d="M191,226.79a7.94,7.94,0,0,1-8.24,2.34l-0.71-.22c-0.21.6-.42,1.21-0.61,1.82l1.33-.39a8,8,0,0,1,8,2.09l2.22,0.21,0.69,0H194A8,8,0,0,0,191,226.79Z"/><path class="cls-3" d="M169.88,224.59c-2-.78-4.17-1.66-6.42-2.62-3.12-.47-6.33-1-9.5-1.52-0.71,1.39-1.39,2.75-2,4.07l-0.65,1.31c5.35,1.36,10.91,2.49,16.18,3.41C168.22,227.69,169,226.14,169.88,224.59Z"/><path class="cls-3" d="M230.53,192.43l2,2.24a7.91,7.91,0,0,0,.5-1.32l-0.26,0A8,8,0,0,1,230.53,192.43Z"/><path class="cls-3" d="M226.88,187.93c-0.18-.13-0.41-0.29-0.7-0.47l0.95,1.09C227,188.34,226.94,188.14,226.88,187.93Z"/><path class="cls-3" d="M224.2,185.18a71.2,71.2,0,0,1,8.35-2.65,71.37,71.37,0,0,0-2.83-11.17,104.86,104.86,0,0,0-20.24-5.93,60,60,0,0,1,3.09,5.92C216.15,175.73,220.13,180.45,224.2,185.18Z"/><path class="cls-3" d="M226.88,187.93c0.07,0.21.16,0.42,0.24,0.62l3.41,3.88a8,8,0,0,0,2.23.88l0.26,0,0-.07a8,8,0,0,1-.83-5.74c0.25-1.1.45-2.2,0.6-3.28-0.08-.55-0.17-1.13-0.27-1.73a71.2,71.2,0,0,0-8.35,2.65l2,2.28C226.46,187.64,226.7,187.8,226.88,187.93Z"/><path class="cls-3" d="M232.81,184.26c-0.15,1.08-.35,2.18-0.6,3.28a8,8,0,0,0,.83,5.74,8,8,0,0,0,.29-1.87A46,46,0,0,0,232.81,184.26Z"/><path class="cls-4" d="M135,192a2.41,2.41,0,0,0-.6,0,24.84,24.84,0,0,0,6-2.29,32.93,32.93,0,0,0-14,3.11,8,8,0,0,0-4,4.64A77.32,77.32,0,0,1,135,195.71V192Z"/><path class="cls-4" d="M188.92,214.44c0.45-.73.91-1.46,1.39-2.17l-0.57.5,0.07,0.08s-2.88-3-6-2.89a7.1,7.1,0,0,0-3.69,1.38c4.35,1.57,7.21,2.44,7.28,2.46A8,8,0,0,1,188.92,214.44Z"/><path class="cls-4" d="M172.41,197.3q-2.57-1.39-5.28-2.82l-2.5-.79c-3.56,2.51-6.76,4.59-9.61,6.3,2.94,1.69,6,3.26,9,4.69A33.06,33.06,0,0,1,172.41,197.3Z"/><path class="cls-4" d="M197.35,212.8a21.76,21.76,0,0,0-4-3.22l-3.07,2.69c-0.48.71-.94,1.44-1.39,2.17a8,8,0,0,1,2.35,1.95c1.93,0.2,3.07.3,3.13,0.31a8,8,0,0,1,5.69,3.14,8,8,0,0,0,.58-0.87,8,8,0,0,0,1-3.26A8,8,0,0,1,197.35,212.8Z"/><path class="cls-4" d="M189.81,212.85l-0.07-.08,0.57-.5q1.1-1.64,2.29-3.22c-4.53-3-11.71-7.17-20.18-11.75a33.06,33.06,0,0,0-8.39,7.38c6,2.83,11.75,5.09,16.07,6.66a7.1,7.1,0,0,1,3.69-1.38C186.93,209.86,189.78,212.82,189.81,212.85Z"/><path class="cls-4" d="M192.6,209q-1.19,1.58-2.29,3.22l3.07-2.69Z"/><path class="cls-4" d="M135,192v3.71c7-.35,13.75.58,19.07,3.73l1,0.56c2.85-1.72,6-3.79,9.61-6.3-8-2.44-16.46-4.13-24.22-3.95a24.84,24.84,0,0,1-6,2.29A2.41,2.41,0,0,1,135,192Z"/><path class="cls-4" d="M194.4,216.7c-0.06,0-1.2-.1-3.13-0.31a8,8,0,0,1,1.68,6.56c0.26,0,.51,0,0.77,0a8,8,0,0,0,6.37-3.16A8,8,0,0,0,194.4,216.7Z"/><path class="cls-4" d="M192.45,190.2c4.28,2.55,8.09,5,11.15,7.2l0.18-.15A68,68,0,0,0,192.45,190.2Z"/><path class="cls-4" d="M211.75,204.06a82.89,82.89,0,0,0-8-6.82l-0.18.15a32.31,32.31,0,0,1,6.55,5.8,8,8,0,0,1,1.47,6.15,8,8,0,0,0,9.77-3.1l-0.48-.53A8,8,0,0,1,211.75,204.06Z"/><path class="cls-4" d="M203.78,197.25a72.14,72.14,0,0,1,5.83-4.43c-3.72-4.34-7.51-8.85-11-13.24a161.62,161.62,0,0,1-26.87-8,30.81,30.81,0,0,0-7.39,2.89,120.49,120.49,0,0,1,14.43,8c4.81,2.59,9.47,5.2,13.7,7.72A68,68,0,0,1,203.78,197.25Z"/><path class="cls-4" d="M220.93,205.72c-3.42-3.83-7.33-8.27-11.31-12.91a72.14,72.14,0,0,0-5.83,4.43,82.89,82.89,0,0,1,8,6.82A8,8,0,0,0,220.93,205.72Z"/><path class="cls-4" d="M193.68,173.34c-6.95-2.49-14.51-3.6-22-1.75a161.62,161.62,0,0,0,26.87,8C196.87,177.45,195.23,175.36,193.68,173.34Z"/><path class="cls-4" d="M133.33,265a8,8,0,0,0,1.66.18h0.42c1.51-.08,4.43-0.41,8.13-0.89a53.49,53.49,0,0,0,4.09-5.85,44.57,44.57,0,0,1,5.63-7.46h-0.21l-1.31,0a24.72,24.72,0,0,1-11,3.56q-0.37,0-.73,0a8,8,0,0,1-7.4-5,8,8,0,0,0-5.58,7.56,55.7,55.7,0,0,0,5.85,7.47A3.23,3.23,0,0,0,133.33,265Z"/><path class="cls-4" d="M168.17,258.88c3.76-1.53,7.21-3.08,10.06-4.43,0-.41,0-0.82,0-1.23A37.26,37.26,0,0,0,168.17,258.88Z"/><path class="cls-4" d="M190.62,249.53a8,8,0,0,1,2.46.59,7.51,7.51,0,0,0-.42-2.68A8,8,0,0,1,190.62,249.53Z"/><path class="cls-4" d="M178.21,253.22c0,0.41,0,.82,0,1.23,2.71-1.28,4.88-2.38,6.26-3.09A42.68,42.68,0,0,0,178.21,253.22Z"/><path class="cls-4" d="M140,254.5q0.36,0,.73,0a24.72,24.72,0,0,0,11-3.56A62.48,62.48,0,0,1,136.58,249c-0.85.09-1.53,0.15-2,.18a8,8,0,0,0-2,.37A8,8,0,0,0,140,254.5Z"/><path class="cls-4" d="M178.23,254.45c-2.85,1.35-6.3,2.9-10.06,4.43a30.84,30.84,0,0,0-2.46,2.19c4.73-.71,9.21-1.4,12.82-2C178.38,257.58,178.28,256,178.23,254.45Z"/><path class="cls-4" d="M133.33,265a3.23,3.23,0,0,1-.48-0.41,55.7,55.7,0,0,1-5.85-7.47c0,0.16,0,.31,0,0.47A8,8,0,0,0,133.33,265Z"/><path class="cls-4" d="M186.79,251c-0.08,0-.94.11-2.3,0.4-1.38.71-3.55,1.81-6.26,3.09,0,1.57.15,3.12,0.3,4.67l7.8-1.21a8,8,0,0,0,6.75-7.78,8,8,0,0,0-2.46-.59A8,8,0,0,1,186.79,251Z"/><path class="cls-4" d="M168.17,258.88a37.26,37.26,0,0,1,10-5.66c0-.34,0-0.69,0-1,0-1.42.05-2.83,0.13-4.23a122.83,122.83,0,0,1-25.06,3,44.57,44.57,0,0,0-5.63,7.46,53.49,53.49,0,0,1-4.09,5.85c4.68-.61,10.62-1.46,16.59-2.34l0.77-.26C163.4,260.76,165.85,259.83,168.17,258.88Z"/><path class="cls-4" d="M190.37,244a8,8,0,0,1-3,1.66c-1.14.34-4.45,1.3-9.06,2.3-0.08,1.4-.13,2.81-0.13,4.23,0,0.34,0,.69,0,1a42.68,42.68,0,0,1,6.28-1.86c1.06-.55,1.65-0.87,1.68-0.88a8,8,0,0,1,4.45-.95,8,8,0,0,0,2-2.09A8,8,0,0,0,190.37,244Z"/><path class="cls-4" d="M168.17,258.88c-2.32.95-4.76,1.88-7.26,2.76l-0.77.26,5.57-.83A30.84,30.84,0,0,1,168.17,258.88Z"/><path class="cls-4" d="M190.62,249.53a8,8,0,0,0-4.45.95s-0.62.34-1.68,0.88c1.36-.29,2.22-0.39,2.3-0.4A8,8,0,0,0,190.62,249.53Z"/><path class="cls-4" d="M174.39,315c-1.41.21-2.8,0.38-4.2,0.52a7.8,7.8,0,0,1-4.12.34c-1.43.08-2.84,0.13-4.22,0.13-1.23,0-2.41,0-3.57,0l-0.49.36a8,8,0,0,1-9.39.13c-16.35,1.44-22.71,5.5-25.06,9a8,8,0,0,0,12.43,10c1-.58,7-3.54,26.09-3.54,2.5,0,5.06-.12,7.63-0.34C168.82,327.33,169.32,321.27,174.39,315Z"/><path class="cls-4" d="M185.27,328.36a3.81,3.81,0,0,0,.06.94c3.9-.81,7.73-1.75,11.4-2.75a25.55,25.55,0,0,1-4.1-6.29C188.11,323.08,185.45,326,185.27,328.36Z"/><path class="cls-4" d="M209,311.14c-0.84.43-1.91,1-3.26,1.71,1.06,2.6,2.31,4.3,3.35,4.45,1.45,0.21,3.52-.66,5.9-2.24v-0.18Q211.91,313.16,209,311.14Z"/><path class="cls-4" d="M215,314.89v0.18l0.15-.1Z"/><path class="cls-4" d="M226.14,300l-0.32,0,0.51,0.29Z"/><path class="cls-4" d="M209,311.14q2.9,2,6,3.75l0.15,0.08q1.38-.93,2.87-2.14c-1.92-1.05-3.77-2-5.52-2.82a8,8,0,0,1-2,.38Z"/><path class="cls-4" d="M204.24,307.5l-0.08,0a28.44,28.44,0,0,0,1,3.63c0.2,0.6.41,1.15,0.62,1.69,1.34-.72,2.42-1.28,3.26-1.71C207.36,310,205.78,308.78,204.24,307.5Z"/><path class="cls-4" d="M192.63,320.25a37.8,37.8,0,0,1-1.75-4.41c-0.46-1.39-.82-2.72-1.12-4A146.52,146.52,0,0,1,174.39,315c-5.07,6.26-5.57,12.33-4.9,16.65a133.14,133.14,0,0,0,15.83-2.37,3.81,3.81,0,0,1-.06-0.94C185.45,326,188.11,323.08,192.63,320.25Z"/><path class="cls-4" d="M204.24,307.5c1.54,1.27,3.12,2.49,4.77,3.64l1.5-.74a8,8,0,0,0,2-.38,46.92,46.92,0,0,0-7.27-2.84Z"/><path class="cls-4" d="M167.49,316a8,8,0,0,0,2.7-.47q-2.08.22-4.12,0.34A8,8,0,0,0,167.49,316Z"/><path class="cls-2" d="M216.52,183.61c-1.87-.55-4-1.12-6.57-1.71,2.74,1.88,5.15,3.76,7.15,5.43C217,186.28,216.8,185,216.52,183.61Z"/><path class="cls-2" d="M225.46,199.16a7.87,7.87,0,0,1-3.44,5.93,8,8,0,0,1-.61,1.17l0.93,1a8,8,0,0,0,11.91-10.68l-1.73-1.94A8,8,0,0,1,225.46,199.16Z"/><path class="cls-2" d="M194,173.45a72.73,72.73,0,0,1,16,8.46c2.53,0.59,4.7,1.16,6.57,1.71a56.26,56.26,0,0,0-4-12.27c-1.8-2.21-3.51-4.33-5.08-6.32l-2-.38A155.89,155.89,0,0,1,184,159.06a114.79,114.79,0,0,0,9.53,14Z"/><path class="cls-2" d="M214.08,190q1.54-.89,3.13-1.71c0-.3-0.06-0.63-0.1-1-2-1.66-4.41-3.54-7.15-5.43-2-.47-4.24-0.94-6.72-1.41C207.59,184,211.25,187.33,214.08,190Z"/><path class="cls-2" d="M225.08,199.17a8,8,0,0,1-3.29-.83,8,8,0,0,1,.23,6.75,7.87,7.87,0,0,0,3.44-5.93h-0.38Z"/><path class="cls-2" d="M217.71,193.57a8,8,0,0,1-.37-2.61c0-.18,0-1.12-0.13-2.65q-1.59.82-3.12,1.71C215.51,191.38,216.73,192.58,217.71,193.57Z"/><path class="cls-2" d="M210,181.9a72.73,72.73,0,0,0-16-8.46c3.34,2.38,6.44,4.76,9.25,7C205.71,181,207.95,181.44,210,181.9Z"/><path class="cls-2" d="M217.87,188q2.38-1.19,4.85-2.22a61.78,61.78,0,0,0-6.2-2.15c0.28,1.42.46,2.67,0.58,3.72Z"/><path class="cls-2" d="M227.12,188.55l-0.95-1.09a25,25,0,0,0-3.45-1.7q-2.48,1-4.85,2.22c3.12,2.65,5.07,4.64,5.39,5a8,8,0,0,1,2.21,6.22,8,8,0,0,0,7.05-4.49l-2-2.24A8,8,0,0,1,227.12,188.55Z"/><path class="cls-2" d="M224.2,185.18c-4.07-4.72-8-9.45-11.63-13.84a56.26,56.26,0,0,1,4,12.27,61.78,61.78,0,0,1,6.2,2.15Z"/><path class="cls-2" d="M230.53,192.43l-3.41-3.88A8,8,0,0,0,230.53,192.43Z"/><path class="cls-2" d="M226.17,187.46l-2-2.28-1.47.58A25,25,0,0,1,226.17,187.46Z"/><path class="cls-2" d="M217.11,187.33c0,0.35.07,0.68,0.1,1l0.66-.34Z"/><path class="cls-2" d="M217.34,191a8,8,0,0,0,.37,2.61c1.68,1.7,2.69,2.8,2.89,3a8,8,0,0,1,1.19,1.75,8,8,0,0,0,3.29.83h0.38a8,8,0,0,0-2.21-6.22c-0.32-.33-2.26-2.31-5.39-5l-0.66.34C217.34,189.84,217.34,190.78,217.34,191Z"/><path class="cls-2" d="M220.93,205.72l0.48,0.53a8,8,0,0,0,.61-1.17A7.93,7.93,0,0,1,220.93,205.72Z"/><path class="cls-2" d="M203.23,180.49l-0.68-.13c-1.36-.25-2.68-0.52-4-0.79,3.53,4.39,7.32,8.91,11,13.24,1.45-1,2.94-1.91,4.47-2.79C211.25,187.33,207.59,184,203.23,180.49Z"/><path class="cls-2" d="M222,205.09a8,8,0,0,0-.23-6.75,8,8,0,0,1-4.08-4.77c-1-1-2.19-2.19-3.63-3.55-1.52.88-3,1.8-4.47,2.79,4,4.64,7.89,9.08,11.31,12.91A7.93,7.93,0,0,0,222,205.09Z"/><path class="cls-2" d="M202.56,180.36l0.68,0.13c-2.81-2.29-5.91-4.67-9.25-7l-0.3-.11c1.55,2,3.19,4.11,4.9,6.23C199.88,179.84,201.2,180.11,202.56,180.36Z"/><path class="cls-2" d="M217.71,193.57a8,8,0,0,0,4.08,4.77,8,8,0,0,0-1.19-1.75C220.4,196.37,219.39,195.27,217.71,193.57Z"/><path class="cls-2" d="M170.38,239.12c-2.34-.32-4.84-0.67-7.45-1.05a44.35,44.35,0,0,1-5.57,8.06l1.35-.2A52.53,52.53,0,0,1,170.38,239.12Z"/><path class="cls-2" d="M139.28,238.53a8.81,8.81,0,0,0,6.44-3.31c-4.63-.88-9-1.82-12.78-2.82a8,8,0,0,1-5.48-5.06A8,8,0,0,0,121.87,241a30,30,0,0,0,10.2,6.48c0-.09,0-0.18,0-0.28A8,8,0,0,1,139.28,238.53Z"/><path class="cls-2" d="M193,239.12a7.94,7.94,0,0,0,0-2.25,8,8,0,0,1-.75,1.12A8,8,0,0,1,193,239.12Z"/><path class="cls-2" d="M157.36,246.14a44.35,44.35,0,0,0,5.57-8.06c-5.57-.82-11.56-1.78-17.21-2.85a8.81,8.81,0,0,1-6.44,3.31,8,8,0,0,0-7.24,8.69c0,0.09,0,.18,0,0.28a41.59,41.59,0,0,0,4.51,1.48C140.58,248.55,148.5,247.44,157.36,246.14Z"/><path class="cls-2" d="M170.38,239.12a52.53,52.53,0,0,0-11.67,6.81c6.68-1,13.79-2.07,20.1-3.05,0.11-.88.24-1.76,0.38-2.63C176.78,240,173.76,239.58,170.38,239.12Z"/><path class="cls-2" d="M186,241a8.12,8.12,0,0,1-.88,0c-0.34,0-2.55-.28-5.93-0.69-0.15.87-.27,1.75-0.38,2.63l5-.79a8,8,0,0,1,6.53,1.9,8,8,0,0,0,2.63-4.87,8,8,0,0,0-.75-1.12A8,8,0,0,1,186,241Z"/><path class="cls-2" d="M180.06,236c0.36-1.56.76-3.11,1.22-4.63l-1.37-.18A121.17,121.17,0,0,1,165,234.07c-0.67,1.33-1.37,2.68-2.11,4,2.61,0.38,5.11.73,7.45,1.05A58.87,58.87,0,0,1,180.06,236Z"/><path class="cls-2" d="M132.94,232.4c3.74,1,8.15,1.95,12.78,2.82,0.17-.19.33-0.4,0.5-0.62-5.54-.62-10.24-2.14-13.09-5a8,8,0,0,0-5.67-2.31A8,8,0,0,0,132.94,232.4Z"/><path class="cls-2" d="M190.81,232.43c-2.06-.2-5.4-0.56-9.53-1.1-0.46,1.52-.86,3.07-1.22,4.63a42.75,42.75,0,0,1,5.18-.92,8,8,0,0,1,7,3,8,8,0,0,0,.75-1.12A7.79,7.79,0,0,0,190.81,232.43Z"/><path class="cls-2" d="M146.21,234.6c-0.17.21-.33,0.42-0.5,0.62,5.65,1.07,11.65,2,17.21,2.85,0.74-1.32,1.44-2.67,2.11-4A80.37,80.37,0,0,1,146.21,234.6Z"/><path class="cls-2" d="M179.91,231.15l1.37,0.18c0.06-.2.12-0.4,0.18-0.61Z"/><path class="cls-2" d="M182.78,230.34l-1.33.39c-0.06.2-.12,0.4-0.18,0.61,4.14,0.54,7.48.9,9.53,1.1A8,8,0,0,0,182.78,230.34Z"/><path class="cls-2" d="M180.06,236a58.87,58.87,0,0,0-9.68,3.17c3.39,0.46,6.4.84,8.82,1.13C179.44,238.81,179.73,237.37,180.06,236Z"/><path class="cls-2" d="M185.13,241a8.12,8.12,0,0,0,.88,0,8,8,0,0,0,6.23-3,8,8,0,0,0-7-3,42.75,42.75,0,0,0-5.18.92c-0.33,1.42-.62,2.85-0.86,4.3C182.58,240.67,184.79,240.92,185.13,241Z"/><path class="cls-2" d="M158.71,245.94l-1.35.2a25.88,25.88,0,0,1-5.62,4.77l1.31,0h0.21A46.41,46.41,0,0,1,158.71,245.94Z"/><path class="cls-2" d="M157.36,246.14c-8.86,1.31-16.78,2.41-20.78,2.84a62.48,62.48,0,0,0,15.16,1.93A25.88,25.88,0,0,0,157.36,246.14Z"/><path class="cls-2" d="M178.81,242.88c-6.31,1-13.43,2.07-20.1,3.05a46.41,46.41,0,0,0-5.44,5,122.83,122.83,0,0,0,25.06-3C178.42,246.25,178.59,244.56,178.81,242.88Z"/><path class="cls-2" d="M190.37,244a8,8,0,0,0-6.53-1.9l-5,.79c-0.22,1.68-.39,3.37-0.49,5.08,4.61-1,7.92-2,9.06-2.3A8,8,0,0,0,190.37,244Z"/><path class="cls-2" d="M161.72,313.52a8,8,0,0,1-.5-10.48,25.47,25.47,0,0,1,5.56-5c-8.57,1.26-16.31,4.86-18.77,7.3a8,8,0,0,1-2.83,6.2,7.86,7.86,0,0,0,3.24,4.95c3-.26,6.24-0.43,9.88-0.5Q160,314.77,161.72,313.52Z"/><path class="cls-2" d="M148,305.39c2.47-2.44,10.21-6,18.77-7.3,5.64-3.89,13.54-7.24,21.1-9.88q-1.08-1.86-2.05-3.78c-10.77,5.8-26.14,14.06-39.56,21.26a8,8,0,0,0-1.1,5.89A8,8,0,0,0,148,305.39Z"/><path class="cls-2" d="M191.81,281.21l-6,3.22q1,1.92,2.05,3.78c3.19-1.12,6.31-2.1,9.18-3A8,8,0,0,0,191.81,281.21Z"/><path class="cls-2" d="M177.1,297.93a37.08,37.08,0,0,0-10.33.16,25.47,25.47,0,0,0-5.56,5,8,8,0,0,0,.5,10.48c9.28-6.67,18.8-12.55,24.4-15.14A47.62,47.62,0,0,1,177.1,297.93Z"/><path class="cls-2" d="M177.1,297.93a47.62,47.62,0,0,0,9,.46,14.84,14.84,0,0,1,4-1.39,8,8,0,0,0,1.44-.15,11.77,11.77,0,0,1,1.2-1.36,71.92,71.92,0,0,1-4.85-7.28c-7.56,2.64-15.46,6-21.1,9.88A37.08,37.08,0,0,1,177.1,297.93Z"/><path class="cls-2" d="M194,294.36a12.4,12.4,0,0,1,3.06-1.65,8,8,0,0,0,0-7.46c-2.87.85-6,1.84-9.18,3a71.92,71.92,0,0,0,4.85,7.28A12.59,12.59,0,0,1,194,294.36Z"/><path class="cls-2" d="M184.86,282.42l-0.21-.46q-0.69.21-1.4,0.46C183.84,282.44,184.38,282.44,184.86,282.42Z"/><path class="cls-2" d="M187.9,282a8,8,0,0,1,.21-0.82,23.27,23.27,0,0,0-3.46.81l0.21,0.46A11.47,11.47,0,0,0,187.9,282Z"/><path class="cls-2" d="M183.24,282.42c-11.42,4-27.63,15.62-35,21.18a8,8,0,0,0-1.93,2.09c13.42-7.2,28.79-15.46,39.56-21.26q-0.5-1-1-2C184.38,282.44,183.84,282.44,183.24,282.42Z"/><path class="cls-2" d="M190,281a13.36,13.36,0,0,0-1.89.15,8,8,0,0,0-.21.82,11.47,11.47,0,0,1-3,.45q0.47,1,1,2l6-3.22A8,8,0,0,0,190,281Z"/><path class="cls-2" d="M157.8,316.4l0.49-.36c-3.64.07-6.93,0.24-9.88,0.5A8,8,0,0,0,157.8,316.4Z"/><path class="cls-2" d="M145.7,207.47a118.53,118.53,0,0,0,13.5,3.81q0.69-1.06,1.43-2.13a72.81,72.81,0,0,0-16.58-3.49c-4.74,2-7.59,2.33-9.05,2.33v-1.43a12.2,12.2,0,0,0-1.42.59,8,8,0,0,1-11.17-9.67A145.07,145.07,0,0,0,93,207.79,8,8,0,0,0,100,222.21c10.08-4.82,25-9.91,35.79-10.57A8,8,0,0,1,145.7,207.47Z"/><path class="cls-2" d="M160.64,209.16q-0.75,1.07-1.43,2.13c4.88,1.11,9.89,2,14.54,2.78C169.48,212.24,165,210.54,160.64,209.16Z"/><path class="cls-2" d="M135,206.57V208c1.46,0,4.31-.37,9.05-2.33A23.26,23.26,0,0,0,135,206.57Z"/><path class="cls-2" d="M145.93,213.21c3,1.79,6.14,3.44,9.23,5,1.2-2.24,2.53-4.55,4-6.88a118.53,118.53,0,0,1-13.5-3.81,8,8,0,0,0-10,4.17C140,211.38,143.56,211.81,145.93,213.21Z"/><path class="cls-2" d="M185.9,219.84c-3-1.57-6.27-3.18-9.74-4.73a59.37,59.37,0,0,0-5.39,7.91c5.38,0.74,10,1.31,12.9,1.66C184.35,223,185.1,221.42,185.9,219.84Z"/><path class="cls-2" d="M185.9,219.84c-0.8,1.58-1.55,3.19-2.24,4.84l3.21,0.37a8,8,0,0,1,4.16,1.74,7.93,7.93,0,0,0,1.72-3,8.12,8.12,0,0,0,.2-0.81,8,8,0,0,1-3.19-1C188.54,221.26,187.25,220.55,185.9,219.84Z"/><path class="cls-2" d="M170.76,223a59.37,59.37,0,0,1,5.39-7.91l-2.41-1c-4.66-.75-9.66-1.67-14.54-2.78-1.51,2.33-2.84,4.64-4,6.88,2.83,1.39,5.63,2.66,8.3,3.81C166,222.35,168.44,222.7,170.76,223Z"/><path class="cls-2" d="M183.66,224.68c-2.89-.34-7.52-0.91-12.9-1.66-0.3.52-.59,1-0.88,1.57,5.89,2.29,10.47,3.78,12.19,4.31C182.56,227.48,183.09,226.06,183.66,224.68Z"/><path class="cls-2" d="M183.66,224.68c-0.58,1.39-1.1,2.8-1.59,4.23l0.71,0.22a7.94,7.94,0,0,0,8.24-2.34,8,8,0,0,0-4.16-1.74Z"/><path class="cls-2" d="M163.46,222c2.25,1,4.41,1.84,6.42,2.62,0.29-.52.58-1,0.88-1.57C168.44,222.7,166,222.35,163.46,222Z"/><path class="cls-2" d="M164,204.68c-3-1.42-6.06-3-9-4.69a83.22,83.22,0,0,1-11,5.68,72.81,72.81,0,0,1,16.58,3.49c1-1.4,2-2.81,3.17-4.22Z"/><path class="cls-2" d="M122.84,203.58a8,8,0,0,0,10.73,3.58,12.2,12.2,0,0,1,1.42-.59V195.71a77.32,77.32,0,0,0-12.59,1.78A8,8,0,0,0,122.84,203.58Z"/><path class="cls-2" d="M188.92,214.44a8,8,0,0,0-1.53-.64c-0.07,0-2.94-.89-7.28-2.46a18.38,18.38,0,0,0-3.44,3.18c4.35,0.66,8.27,1.16,11.32,1.51C188.28,215.49,188.59,215,188.92,214.44Z"/><path class="cls-2" d="M188.92,214.44c-0.32.52-.63,1.05-0.94,1.58l3.3,0.36A8,8,0,0,0,188.92,214.44Z"/><path class="cls-2" d="M176.66,214.52a18.38,18.38,0,0,1,3.44-3.18c-4.32-1.56-10.09-3.82-16.07-6.66l-0.22.26c-1.15,1.41-2.19,2.82-3.17,4.22,4.39,1.39,8.85,3.08,13.11,4.91Z"/><path class="cls-2" d="M154.07,199.43c-5.33-3.15-12-4.08-19.07-3.73v10.86a23.26,23.26,0,0,1,9.05-.9A83.22,83.22,0,0,0,155,200Z"/><path class="cls-2" d="M188,216c-3-.35-7-0.85-11.32-1.51l-0.46.55,0,0c3.47,1.55,6.76,3.16,9.74,4.73Q186.88,217.9,188,216Z"/><path class="cls-2" d="M191.27,216.39L188,216q-1.09,1.87-2.08,3.81c1.35,0.71,2.65,1.42,3.85,2.11a8,8,0,0,0,3.19,1A8,8,0,0,0,191.27,216.39Z"/><path class="cls-2" d="M176.66,214.52l-2.91-.45,2.41,1,0,0Z"/><path class="cls-2" d="M163.9,174.71L158.56,172c-1.78-.69-3.59-1.32-5.41-1.88a8,8,0,0,1-4-2.74c-3.08-1.5-5.87-2.84-8.25-4a8,8,0,0,0-6.88,14.45c4.81,2.29,9.77,4.71,14.7,7.17,3.22-2,7-4.61,11.49-8A34.15,34.15,0,0,1,163.9,174.71Z"/><path class="cls-2" d="M173.45,196.7A22.11,22.11,0,0,1,183.59,194c7.91-.13,13.77,4.12,16.52,6.61l0.88-.84a176.08,176.08,0,0,0-14.37-11.83c-5.84-1.74-11.8-1.72-16.78,2-1.66,1.25-3.25,2.4-4.78,3.48l2.07,1.09C169.29,195.18,171.4,195.93,173.45,196.7Z"/><path class="cls-2" d="M201,199.73l-0.88.84a20.89,20.89,0,0,1,1.66,1.66l-5.65,4.95,1.57,0.88a8,8,0,0,1,4,7.66,7.74,7.74,0,0,0,4.41-.07,20.06,20.06,0,0,1,4.3-3.18,8,8,0,0,0,1.24-3.1,8,8,0,0,1-2.9-2C208.63,207.21,205.8,204.13,201,199.73Z"/><path class="cls-2" d="M208.55,214.4a8,8,0,0,0,1.84-1.94,20.06,20.06,0,0,0-4.3,3.18A8,8,0,0,0,208.55,214.4Z"/><path class="cls-2" d="M200.11,200.57c-2.75-2.48-8.61-6.73-16.52-6.61a22.11,22.11,0,0,0-10.14,2.74,185.48,185.48,0,0,1,21.24,9.7A72.21,72.21,0,0,1,200.11,200.57Z"/><path class="cls-2" d="M194.69,206.4l1.44,0.78,5.65-4.95a20.89,20.89,0,0,0-1.66-1.66A72.21,72.21,0,0,0,194.69,206.4Z"/><path class="cls-2" d="M169.84,189.9c5-3.73,10.94-3.74,16.78-2-2.47-1.82-5.1-3.65-7.86-5.42-4.92-2.65-10-5.28-14.86-7.77a34.15,34.15,0,0,0-3.64,2.38c-4.46,3.34-8.27,5.93-11.49,8,5.56,2.77,11.08,5.59,16.3,8.33C166.59,192.3,168.18,191.15,169.84,189.9Z"/><path class="cls-2" d="M167.14,194.48q2.71,1.43,5.28,2.82c0.35-.21.69-0.41,1-0.59C171.4,195.93,169.29,195.18,167.14,194.48Z"/><path class="cls-2" d="M197.35,212.8a8,8,0,0,0,4.33,2.92,8,8,0,0,0-4-7.66l-1.57-.88-2.74,2.4A21.76,21.76,0,0,1,197.35,212.8Z"/><path class="cls-2" d="M194.69,206.4a185.48,185.48,0,0,0-21.24-9.7c-0.34.18-.69,0.38-1,0.59,8.47,4.58,15.65,8.72,20.18,11.75Q193.61,207.7,194.69,206.4Z"/><path class="cls-2" d="M192.6,209l0.78,0.53,2.74-2.4-1.44-.78Q193.61,207.7,192.6,209Z"/><path class="cls-2" d="M203.61,197.4c-3.06-2.22-6.87-4.66-11.15-7.2a39.92,39.92,0,0,0-5.83-2.29A176.08,176.08,0,0,1,201,199.73Q202.27,198.53,203.61,197.4Z"/><path class="cls-2" d="M210.16,203.2a32.31,32.31,0,0,0-6.55-5.8q-1.34,1.13-2.62,2.33c4.81,4.4,7.64,7.48,7.75,7.6a8,8,0,0,0,2.9,2A8,8,0,0,0,210.16,203.2Z"/><path class="cls-2" d="M178.76,182.48c2.76,1.77,5.39,3.6,7.86,5.42a39.92,39.92,0,0,1,5.83,2.29C188.23,187.68,183.56,185.07,178.76,182.48Z"/><path class="cls-2" d="M196.73,326.54A16.86,16.86,0,0,0,207,332.15a17.63,17.63,0,0,0,2.49.18,19.9,19.9,0,0,0,5.52-.82V320.71C209.85,322.58,203.56,324.67,196.73,326.54Z"/><path class="cls-2" d="M222.69,322.32c0.27-1.16.57-2.27,0.9-3.36-0.64-.25-1.26-0.52-1.89-0.79-1.91.76-4.18,1.62-6.7,2.54v10.79a29,29,0,0,0,6.56-2.88A49.4,49.4,0,0,1,222.69,322.32Z"/><path class="cls-2" d="M215.43,296a9.07,9.07,0,0,1,1.12,1.22,8,8,0,0,1,1.63,5.09c2.4-1,3.81-1.6,3.88-1.63a8,8,0,0,1,3.75-.68c-1.14-.64-2.33-1.28-3.54-1.91-2.14-1.1-4.15-2-6.07-2.86A8,8,0,0,1,215.43,296Z"/><path class="cls-2" d="M221.7,318.18c0.63,0.27,1.25.54,1.89,0.79q0.28-.91.58-1.78Z"/><path class="cls-2" d="M245.09,294a7.35,7.35,0,0,0-6.19-1.91c0.87,1.18,1.78,2.39,2.73,3.62A36.18,36.18,0,0,1,245.09,294Z"/><path class="cls-2" d="M204.14,307.42a72.34,72.34,0,0,1-6.1-5.69c-3.15,1-6.22,2.08-9.06,3.16a27.65,27.65,0,0,0,.77,6.93c5.14-1.33,10-2.84,14.4-4.31Z"/><path class="cls-2" d="M216.55,297.25a9.07,9.07,0,0,0-1.12-1.22,8,8,0,0,1-3.37,1.75c-4.54,1.1-9.37,2.47-14,4a72.34,72.34,0,0,0,6.1,5.69c0-.18-0.07-0.37-0.09-0.53,0.36,0.07.76,0.16,1.18,0.27,5.45-1.86,10-3.62,12.95-4.83A8,8,0,0,0,216.55,297.25Z"/><path class="cls-2" d="M193.8,296.87a21.37,21.37,0,0,1-2.87.86,13.75,13.75,0,0,0-1.89,6.1q4-2.3,7.22-4C195.42,298.84,194.59,297.87,193.8,296.87Z"/><path class="cls-2" d="M200.78,291.88a14.41,14.41,0,0,1-1.47,1.6,16.71,16.71,0,0,1-5.52,3.39c0.8,1,1.62,2,2.47,2.93,2.72-1.49,5-2.67,6.69-3.52,2.79-1.37,8.33-4.07,12.48-.25a8,8,0,0,0,.78-0.78C210,292.62,204.92,291.5,200.78,291.88Z"/><path class="cls-2" d="M189,303.83c0,0.35,0,.71-0.06,1.07,2.85-1.08,5.91-2.15,9.06-3.16q-0.91-1-1.78-1.94Q193.09,301.53,189,303.83Z"/><path class="cls-2" d="M215.43,296c-4.15-3.82-9.69-1.12-12.48.25-1.73.85-4,2-6.69,3.52q0.87,1,1.78,1.94c4.65-1.49,9.48-2.86,14-4A8,8,0,0,0,215.43,296Z"/><path class="cls-2" d="M193.33,296.27a7.91,7.91,0,0,1-1.81.58c-0.21.28-.41,0.58-0.59,0.88a21.37,21.37,0,0,0,2.87-.86Z"/><path class="cls-2" d="M193.33,296.27l0.47,0.6a16.71,16.71,0,0,0,5.52-3.39,14.41,14.41,0,0,0,1.47-1.6,14.13,14.13,0,0,0-3.7.83A8,8,0,0,1,193.33,296.27Z"/><path class="cls-2" d="M215,315.06c-2.38,1.58-4.45,2.44-5.9,2.24-1-.15-2.29-1.85-3.35-4.45-2.67,1.44-6.44,3.53-11.77,6.59-0.47.27-.92,0.54-1.36,0.82a25.55,25.55,0,0,0,4.1,6.29c6.83-1.87,13.12-4,18.27-5.83v-5.65Z"/><path class="cls-2" d="M215,315.06v5.65c2.53-.92,4.79-1.78,6.7-2.54a71.43,71.43,0,0,1-6.56-3.21Z"/><path class="cls-2" d="M230.29,305.59c-1.54-2-2.88-3.78-4-5.28l-0.51-.29a8,8,0,0,0-3.75.68c-0.07,0-1.48.66-3.88,1.63a8.44,8.44,0,0,1-2.6,5.8A8,8,0,0,1,212.5,310c1.75,0.82,3.6,1.76,5.52,2.82q-1.49,1.22-2.87,2.14a71.43,71.43,0,0,0,6.56,3.21l2.46-1A41.34,41.34,0,0,1,230.29,305.59Z"/><path class="cls-2" d="M204.16,307.53c-4.37,1.47-9.27,3-14.4,4.31,0.29,1.28.66,2.61,1.12,4a37.8,37.8,0,0,0,1.75,4.41c0.44-.27.89-0.55,1.36-0.82,5.32-3.06,9.09-5.15,11.77-6.59-0.22-.53-0.43-1.08-0.62-1.69A28.44,28.44,0,0,1,204.16,307.53Z"/><path class="cls-2" d="M212.5,310a8,8,0,0,0,3.09-1.87,8.44,8.44,0,0,0,2.6-5.8c-3,1.21-7.5,3-12.95,4.83A46.92,46.92,0,0,1,212.5,310Z"/><path class="cls-2" d="M192.73,295.48a11.77,11.77,0,0,0-1.2,1.36,7.91,7.91,0,0,0,1.81-.58Z"/><path class="cls-2" d="M197.08,292.71a12.4,12.4,0,0,0-3.06,1.65,12.59,12.59,0,0,0-1.3,1.13l0.6,0.79A8,8,0,0,0,197.08,292.71Z"/><path class="cls-9" d="M249.67,325.84L250,326.1V324A7.47,7.47,0,0,1,249.67,325.84Z"/><path class="cls-9" d="M233.81,295.26a7.47,7.47,0,0,1,5.09-3.17c-1-1.32-1.88-2.6-2.7-3.81a7.5,7.5,0,0,0-12.4,8.44c0.5,0.73,1.3,1.89,2.34,3.33a8,8,0,0,1,3.27,1.07C231,299.19,232.47,297.21,233.81,295.26Z"/><path class="cls-9" d="M241.08,316.24a7.5,7.5,0,0,1,8.92,6.92v-15A21.11,21.11,0,0,0,241.08,316.24Z"/><path class="cls-9" d="M228.88,301.78l0.53-.66a8,8,0,0,0-3.27-1.07l0.19,0.26C227.2,300.8,228.06,301.3,228.88,301.78Z"/><path class="cls-9" d="M233.81,295.26c-1.34,2-2.84,3.93-4.41,5.86a8,8,0,0,1,2.55,2.41,36.65,36.65,0,0,1,9.67-7.82c-1-1.22-1.86-2.43-2.73-3.62A7.47,7.47,0,0,0,233.81,295.26Z"/><path class="cls-9" d="M229.41,301.12l-0.53.66c-0.81-.48-1.67-1-2.55-1.47,1.09,1.5,2.43,3.31,4,5.28,0.54-.72,1.1-1.41,1.67-2.06A8,8,0,0,0,229.41,301.12Z"/><path class="cls-10" d="M240,323.29v14.43a60.77,60.77,0,0,0,8.55-9.67,7.47,7.47,0,0,0,1.12-2.21q-1.17-.91-2.33-1.89A73.55,73.55,0,0,1,240,323.29Z"/><path class="cls-10" d="M231,321.42a54.35,54.35,0,0,1-9.42,7.2c-0.47,4.82.2,10.23,5.42,12.63a9,9,0,0,0,3.8.89c2.41,0,5.4-1.08,9.22-4.42V323.29A71.46,71.46,0,0,1,231,321.42Z"/><path class="cls-10" d="M240,316.94a7.46,7.46,0,0,1-8.35,3.87l-0.66.61a71.46,71.46,0,0,0,9,1.87,73.55,73.55,0,0,0,7.33.65A95.37,95.37,0,0,1,240,316.94Z"/><path class="cls-10" d="M247,302.24c1,1.16,2,2.29,3,3.4V292.33a34.1,34.1,0,0,0-4.91,1.67A7.49,7.49,0,0,1,247,302.24Z"/><path class="cls-10" d="M222.69,322.32a49.4,49.4,0,0,0-1.13,6.3,54.35,54.35,0,0,0,9.42-7.2,71.24,71.24,0,0,1-7.39-2.46C223.26,320,223,321.16,222.69,322.32Z"/><path class="cls-10" d="M239.49,317.8a7.55,7.55,0,0,0,.51-0.85c-2.43-2.56-4.71-5.18-6.76-7.68a8,8,0,0,1-4.62,6c-0.29.13-1.88,0.84-4.45,1.89q-0.3.87-.58,1.78a71.24,71.24,0,0,0,7.39,2.46l0.66-.61A7.5,7.5,0,0,0,239.49,317.8Z"/><path class="cls-10" d="M247,302.24a7.49,7.49,0,0,0-1.89-8.24,36.18,36.18,0,0,0-3.46,1.7C243.32,297.88,245.13,300.1,247,302.24Z"/><path class="cls-10" d="M224.17,317.18c2.56-1,4.15-1.76,4.45-1.89a8,8,0,0,0,4.62-6c-1-1.27-2-2.5-2.94-3.68A41.34,41.34,0,0,0,224.17,317.18Z"/><path class="cls-10" d="M250,324c-0.89,0-1.78,0-2.67-.05q1.16,1,2.33,1.89A7.47,7.47,0,0,0,250,324h0Z"/><path class="cls-10" d="M250,308.18c0.6-.28,1.17-0.52,1.72-0.71q-0.86-.89-1.72-1.83v2.54Z"/><path class="cls-10" d="M250,324a7.55,7.55,0,0,0,0-.85V324h0Z"/><path class="cls-10" d="M247,302.24a7.51,7.51,0,0,1-.79,1.5c-0.14.2-2.31,3.36-5.7,7.49a7.49,7.49,0,0,1-.49,5.72,95.37,95.37,0,0,0,7.33,7c0.89,0,1.77.05,2.67,0.05v-0.84a7.5,7.5,0,0,0-8.92-6.92,21.11,21.11,0,0,1,8.92-8.06v-2.54C249,304.54,248,303.4,247,302.24Z"/><path class="cls-10" d="M232,303.53a7.87,7.87,0,0,1,1.27,5.73c2.05,2.5,4.34,5.12,6.76,7.68a7.49,7.49,0,0,0,.49-5.72c3.39-4.12,5.57-7.29,5.7-7.49a7.51,7.51,0,0,0,.79-1.5c-1.85-2.15-3.65-4.36-5.34-6.53A36.65,36.65,0,0,0,232,303.53Z"/><path class="cls-10" d="M232.63,304.73a8,8,0,0,0-.67-1.19c-0.57.65-1.13,1.34-1.67,2.06,0.92,1.18,1.9,2.41,2.94,3.68A8,8,0,0,0,232.63,304.73Z"/><path class="cls-5" d="M280.22,250a20,20,0,1,0-20-20A20,20,0,0,0,280.22,250Zm0-14.67a5.33,5.33,0,1,1,5.33-5.33A5.33,5.33,0,0,1,280.22,235.33Z"/><circle class="cls-6" cx="280.22" cy="230" r="5.33"/><path class="cls-2" d="M265.71,193.5a8,8,0,0,0,7.63-5.58c1.57-1.15,7.22-4.36,24.32-7.56,33.52-6.28,49.75-18.5,50.43-19a8,8,0,0,0-9.73-12.7c-0.1.08-14.24,10.48-43.64,16-26,4.87-32.48,10.73-35.11,14.73a10.16,10.16,0,0,0-1.7,7.88A8,8,0,0,0,265.71,193.5Z"/><path class="cls-2" d="M360.23,254.5a8,8,0,0,0,.72-16c-5.51-.5-7.61-3.83-12.65-14-3-6-6.35-12.81-11.88-19.58-7.3-8.92-14.79-10.89-19.78-11-10.52-.17-17.43,7.41-18.18,8.27l12,10.54-0.07.08s2.88-3,6-2.89c2.9,0.09,5.73,2.83,7.59,5.11,4.39,5.36,7.21,11.05,9.93,16.55,5,10.08,10.65,21.5,25.54,22.85Q359.86,254.5,360.23,254.5Z"/><path class="cls-2" d="M360.68,282.29c8.06,0,14.15-2.28,18.39-6.84,15.08-16.19,17.48-33.69,17.58-34.43a8,8,0,0,0-15.87-2c0,0.08-2,13.3-13.42,25.57-2.25,2.41-10.94,3.1-28.06-2.91a195.48,195.48,0,0,1-25.26-11.16,8,8,0,0,0-7.66,14A209.54,209.54,0,0,0,334,276.74C344.56,280.44,353.42,282.29,360.68,282.29Z"/><path class="cls-2" d="M316.72,348c6.29,0,12-8.39,13.56-14.18,1.64-6.16,1.74-18-16.07-28.25-7.69-4.42-13.39-7.54-16.94-9.29-3-1.49-9.38-4.6-13.6,1a8.18,8.18,0,0,0,1,10.89,8,8,0,0,0,5.08,2.25c2,1,6.59,3.34,16.52,9,5.34,3.07,8.52,6.32,8.72,8.92,0.15,2-1.48,4-2.19,4.68A8,8,0,0,0,316.72,348Z"/><path class="cls-2" d="M360.22,313.5a8,8,0,0,0,7.53-5.31c0.84-2.36,1.62-7.09-2.64-12.33-6.86-8.45-26.7-16.19-44.18-13.79-5.12.7-7.62,0.22-8.62-.11a8,8,0,0,0-15.83,1,13.59,13.59,0,0,0,4.42,10.54c4.7,4.4,12,5.85,22.21,4.45,11.91-1.64,25.66,4.05,29.1,7.46A8,8,0,0,0,360.22,313.5Z"/><path class="cls-7" d="M365,208V192a3.43,3.43,0,0,1,.71,0c-0.07,0-7.41-1.17-25.8-14.93-27.38-20.49-61.53,14.36-63,15.85a8,8,0,0,0,11.52,11.12h0c0.26-.26,25.94-26,41.81-14.16C352.09,206.24,362,208,365,208Z"/><path class="cls-7" d="M306.49,232.67l0.69,0c1.32-.11,32.49-2.84,52.74-10.11a8,8,0,1,0-5.41-15.06c-18.31,6.57-48.4,9.2-48.7,9.23A8,8,0,0,0,306.49,232.67Z"/><path class="cls-7" d="M375.21,298a8,8,0,0,0,3.73-15.08c-0.16-.08-17.2-9.26-26.37-24.54C340.14,237.66,316,235.13,315,235A8,8,0,0,0,313.43,251c0.39,0,17.27,2.06,25.43,15.66,11.52,19.2,31.78,30,32.63,30.46A8,8,0,0,0,375.21,298Z"/><path class="cls-7" d="M332.72,316A8,8,0,0,0,339,303c-8.55-10.83-38.2-18.67-47.08-20.82a8,8,0,0,0-3.76,15.55c15.7,3.8,34.83,10.81,38.29,15.18A8,8,0,0,0,332.72,316Z"/><path class="cls-7" d="M260.21,197.36a8,8,0,0,0,7.8-9.82c-1.79-7.76-.93-15.51.54-16.07a16.94,16.94,0,0,0,10-9.49c3.29-8.07-.33-16.69-1.09-18.34A8,8,0,0,0,263,150.35c0.75,1.69,1.26,4.48.8,5.59a1.58,1.58,0,0,1-.89.58c-16.58,6.31-11.11,31.78-10.43,34.67A8,8,0,0,0,260.21,197.36Z"/><path class="cls-3" d="M375.21,316A8,8,0,0,0,379,300.94c-22.23-11.85-70.24-37.72-70.73-38A8,8,0,0,0,300.67,277c0.48,0.26,48.53,26.15,70.79,38A8,8,0,0,0,375.21,316Z"/><path class="cls-3" d="M314.21,241a8.12,8.12,0,0,0,.88,0c1.39-.15,34.31-3.79,52.19-8.56a8,8,0,0,0-4.12-15.46c-16.72,4.46-49.48,8.07-49.81,8.11A8,8,0,0,0,314.21,241Z"/><path class="cls-3" d="M274.88,199.17h0.26a8,8,0,0,0,7.75-8.2c0-.85-0.11-18.5,15.28-35.61a8,8,0,1,0-11.89-10.7c-19.92,22.14-19.41,45.78-19.38,46.77A8,8,0,0,0,274.88,199.17Z"/><path class="cls-4" d="M306.51,223a8,8,0,0,0,4-1.06c15.49-8.84,44.43-20.66,56.17-14.79a8,8,0,0,0,7.16-14.31c-23.16-11.58-66.41,12.43-71.27,15.21A8,8,0,0,0,306.51,223Z"/><path class="cls-4" d="M285.55,210a8,8,0,0,0,5.93-2.63c0.32-.35,25.7-28,55.59-37.18a8,8,0,1,0-4.71-15.29c-34.21,10.53-61.6,40.47-62.74,41.73A8,8,0,0,0,285.55,210Z"/><path class="cls-4" d="M365.23,265.14a8,8,0,0,0,.4-16c-4.83-.25-32.1-4.35-49.25-7.05a8,8,0,1,0-2.49,15.81c4.45,0.7,43.71,6.85,50.92,7.23h0.42Z"/><path class="cls-2" d="M271.92,210a8,8,0,0,0,6-2.66c14.06-15.68,38-43.34,40.13-52.47A8,8,0,0,0,302.47,151c-1.91,5.17-20.39,27.65-36.5,45.61A8,8,0,0,0,271.92,210Z"/><path class="cls-2" d="M347.17,250.92c11.59,0,23.49-2.3,31.18-9.9a8,8,0,0,0-11.25-11.37c-8.8,8.7-35.13,5-49.66.69a8,8,0,0,0-4.61,15.32C315.6,246.5,331.09,250.92,347.17,250.92Z"/><path class="cls-2" d="M347.21,318A8,8,0,0,0,352,303.6c-9.06-6.8-31.27-22.6-41.8-22.6a8,8,0,0,0-.08,16c4,0.42,19,9.46,32.28,19.4A8,8,0,0,0,347.21,318Z"/><path class="cls-2" d="M315.13,229.46a8,8,0,0,0,2.3-.34c0.82-.25,20.34-6.16,36.86-15.92,8.37-5,31.92,2.29,46,9a8,8,0,0,0,6.92-14.43c-6.93-3.32-42.43-19.35-61-8.35-14.85,8.78-33.13,14.31-33.31,14.37A8,8,0,0,0,315.13,229.46Z"/><path class="cls-2" d="M296.46,216a8,8,0,0,0,6.41-3.2c4-4.86,36-21.92,63.29-34.92a8,8,0,1,0-6.88-14.45c-18.43,8.78-62.07,30.22-69.22,39.77A8,8,0,0,0,296.46,216Z"/><path class="cls-1" d="M316.87,307.2c4.73,2.08,8.27,4.11,9.57,5.76a8,8,0,0,0,3.58,2.57c-1.39-.15-2.79-0.32-4.2-0.52A38.07,38.07,0,0,0,316.87,307.2Z"/><path class="cls-1" d="M338.5,313.52q1.73,1.24,3.43,2.51c-1.16,0-2.34,0-3.57,0-1.38,0-2.8-.05-4.22-0.13A7.77,7.77,0,0,0,338.5,313.52Z"/><path class="cls-1" d="M364.81,265.13h0.42a8,8,0,0,0,1.66-.18c-1.39,1-4.2,1.58-8.58,1.24q-0.83-1-1.63-2C360.38,264.72,363.3,265.05,364.81,265.13Z"/><path class="cls-1" d="M350.52,281.27a100.71,100.71,0,0,0,17.78,14c-10.68-5.72-23.61-12.67-34.73-18.65l0.44,0.16A109.75,109.75,0,0,0,350.52,281.27Z"/><path class="cls-1" d="M335.16,193.38l0.43,0.3-2.5.79Z"/><path class="cls-8" d="M273.24,341.25c5.22-2.4,5.78-7.81,5.31-12.63a31,31,0,0,0,6.45,2.88v17.34a67.74,67.74,0,0,1,9.12,1.29c24.7,5.11,43,18,40.81,28.83s-24,15.45-48.7,10.34-31-13.49-28.73-24.31a29,29,0,0,1,2.49-6.65V337.72c4,3.34,6.92,4.42,9.33,4.42A9.46,9.46,0,0,0,273.24,341.25Z"/><path class="cls-6" d="M260.21,197.36a8,8,0,0,0,6.92-4h0.06a7.91,7.91,0,0,0,.5,1.32L266,196.62a8,8,0,0,0,11.91,10.68l0.93-1a8,8,0,0,0,9.77,3.1,8,8,0,0,0,1.24,3.1A20,20,0,1,0,300.22,230c0-.14,0-0.27,0-0.41a8,8,0,0,0,6,3.06,7.75,7.75,0,0,0,1,4.22,7.94,7.94,0,0,0,0,2.25,8,8,0,0,0,.34,8.32,7.51,7.51,0,0,0-.42,2.68,8,8,0,0,0-3.5,11.92,8,8,0,0,0-3.46,14.7,8,8,0,0,0-3.7,6.2c0,0.14,0,.29,0,0.43-1.82-.48-3.37-0.87-4.55-1.15a8,8,0,0,0-7.9,13c-1.92.81-3.93,1.76-6.07,2.86-1.21.63-2.39,1.27-3.54,1.91l-0.32,0c1-1.44,1.84-2.6,2.34-3.33a7.5,7.5,0,0,0-12.4-8.44c-0.83,1.21-1.74,2.5-2.7,3.81a7.46,7.46,0,0,0-5.34,1.22,8.88,8.88,0,0,0-1,.69,23,23,0,0,0-5-1.67V180.38l0.95,0a56.31,56.31,0,0,0,1.43,10.79A8.06,8.06,0,0,0,260.21,197.36Z"/><path class="cls-6" d="M300.13,219.84a8,8,0,0,0-1.35,2.75,20,20,0,0,0-4.66-6.94,7.74,7.74,0,0,0,4.41.07,8,8,0,0,0,1,3.26A8,8,0,0,0,300.13,219.84Z"/><path class="cls-5" d="M289.83,212.46A20,20,0,1,0,300.22,230c0-.14,0-0.27,0-0.41a7.94,7.94,0,0,1-1.42-7,20,20,0,0,0-4.66-6.94A7.87,7.87,0,0,1,289.83,212.46ZM285.55,230a5.33,5.33,0,1,1-5.33-5.33A5.33,5.33,0,0,1,285.55,230Z"/><circle class="cls-6" cx="280.22" cy="230" r="5.33"/><path class="cls-2" d="M267.75,172.67c0.84-.43,1.75-0.87,2.76-1.31a71.37,71.37,0,0,0-2.83,11.17l-0.48-.11C266.78,178.18,267.1,174.49,267.75,172.67Z"/><path class="cls-2" d="M267.19,182.42l0.48,0.11c-0.1.6-.19,1.18-0.27,1.73Q267.27,183.32,267.19,182.42Z"/><path class="cls-2" d="M267.2,193.35h-0.06l0-.08Z"/><path class="cls-2" d="M363.64,249a41.59,41.59,0,0,0,4.51-1.48,8,8,0,0,1-.52,2,8,8,0,0,0-2-.37C365.17,249.13,364.49,249.07,363.64,249Z"/><path class="cls-2" d="M321.69,259.12c3.61,0.56,8.09,1.24,12.82,2a28.54,28.54,0,0,1,4.35,5.55,75.85,75.85,0,0,0,11.66,14.65A109.75,109.75,0,0,1,334,276.74l-0.44-.16L320,269.27A71.57,71.57,0,0,0,321.69,259.12Z"/><path class="cls-2" d="M358.31,266.2c4.38,0.34,7.19-.23,8.58-1.24a8,8,0,0,0,6.32-7.41c0-.16,0-0.31,0-0.47a50.15,50.15,0,0,0,7.58-18.1,8,8,0,0,1,15.87,2c-0.1.74-2.5,18.23-17.58,34.43a19.6,19.6,0,0,1-5.49,4.13A81,81,0,0,1,358.31,266.2Z"/><path class="cls-2" d="M313.89,257.9l7.8,1.21A71.57,71.57,0,0,1,320,269.27L308.26,263a8,8,0,0,0-4.62-.91,8,8,0,0,1,3.5-11.92A8,8,0,0,0,313.89,257.9Z"/><path class="cls-2" d="M311.23,304.9c2,0.76,3.9,1.54,5.64,2.3a38.07,38.07,0,0,1,9,7.81,146.52,146.52,0,0,1-15.36-3.17A27.65,27.65,0,0,0,311.23,304.9Z"/><path class="cls-2" d="M330.28,333.82C328.73,339.61,323,348,316.72,348a8,8,0,0,1-4-15,7.74,7.74,0,0,0,2.13-3.75,133.14,133.14,0,0,0,15.83,2.37A20.64,20.64,0,0,1,330.28,333.82Z"/><path class="cls-2" d="M296.06,307.53l-0.08,0,0.1-.08Z"/><path class="cls-2" d="M296.17,306.89c0,0.16-.06.35-0.09,0.53l-0.1.08-1-.34C295.41,307.05,295.81,307,296.17,306.89Z"/><path class="cls-2" d="M354,305.69l11.26,6a7.9,7.9,0,0,1-10.16-.14A8,8,0,0,0,354,305.69Z"/><path class="cls-2" d="M308.41,281.21a8,8,0,0,0-5.26,4c-2.46-.73-4.73-1.36-6.69-1.87,0-.15,0-0.29,0-0.43a8,8,0,0,1,3.7-6.2c0.16,0.1.32,0.2,0.49,0.29Z"/><path class="cls-7" d="M336.32,174.71c-4.89,2.48-9.95,5.11-14.86,7.77a120.49,120.49,0,0,1,14.43-8Z"/><path class="cls-7" d="M335.58,193.69l-0.43-.3c5.22-2.74,10.74-5.56,16.3-8.33a87.89,87.89,0,0,0,8.34,4.69C352,189.55,343.59,191.24,335.58,193.69Z"/><path class="cls-7" d="M346.25,220.45q-0.58-1.13-1.2-2.28c3.09-1.52,6.21-3.17,9.23-5,2.37-1.4,5.95-1.82,10.19-1.56,0.1,0.21.19,0.43,0.27,0.65a8,8,0,0,1,.29,4.38,8,8,0,0,0-1.88.26C358.44,218.2,352.44,219.39,346.25,220.45Z"/><path class="cls-7" d="M300.13,219.84a8,8,0,0,0,6.37,3.16c0.26,0,.51,0,0.77,0a8.12,8.12,0,0,0,.2.81,7.93,7.93,0,0,0,1.72,3,8,8,0,0,0-3,5.87,8,8,0,0,1-6-3.06,19.91,19.91,0,0,0-1.42-7A8,8,0,0,1,300.13,219.84Z"/><path class="cls-7" d="M298.78,222.58a19.91,19.91,0,0,1,1.42,7A7.94,7.94,0,0,1,298.78,222.58Z"/><path class="cls-7" d="M345.06,218.17q0.62,1.15,1.2,2.28c-3.17.54-6.38,1.05-9.5,1.52C339.43,220.83,342.23,219.55,345.06,218.17Z"/><path class="cls-7" d="M358.31,266.2c-4.4-.34-10.41-1.61-18.23-4.3,6,0.88,11.91,1.73,16.59,2.34Q357.48,265.24,358.31,266.2Z"/><path class="cls-7" d="M350.52,281.27a57.16,57.16,0,0,0,10.16,1,28.11,28.11,0,0,0,12.9-2.71c3.16,2.15,5.31,3.31,5.36,3.34a8,8,0,0,1-6.26,14.65l-4.39-2.35A100.71,100.71,0,0,1,350.52,281.27Z"/><path class="cls-7" d="M309.85,244a8,8,0,0,0-2.29,3.44,8,8,0,0,1-.34-8.32A8,8,0,0,0,309.85,244Z"/><path class="cls-7" d="M350.52,281.27a75.85,75.85,0,0,1-11.66-14.65,28.54,28.54,0,0,0-4.35-5.55l5.57,0.83c7.81,2.69,13.82,4,18.23,4.3a81,81,0,0,0,15.28,13.38,28.11,28.11,0,0,1-12.9,2.71A57.16,57.16,0,0,1,350.52,281.27Z"/><path class="cls-7" d="M326.44,313c-1.3-1.65-4.83-3.67-9.57-5.76-0.84-.55-1.73-1.1-2.67-1.64l-3-1.73a13.75,13.75,0,0,0-1.89-6.1,28.45,28.45,0,0,0,4.81.65c5.59,2.59,15.12,8.47,24.4,15.14a7.77,7.77,0,0,1-4.36,2.34q-2-.12-4.12-0.34A8,8,0,0,1,326.44,313Z"/><path class="cls-7" d="M299.44,291.88c-4.14-.38-9.23.74-15.43,3.37a8,8,0,0,1,7.9-13c1.18,0.29,2.74.67,4.55,1.15A13.49,13.49,0,0,0,299.44,291.88Z"/><path class="cls-7" d="M314.2,305.56c0.94,0.54,1.82,1.09,2.67,1.64-1.73-.76-3.63-1.53-5.64-2.3,0-.36,0-0.72-0.06-1.07Z"/><path class="cls-7" d="M310.14,297a14.84,14.84,0,0,1,4,1.39,28.45,28.45,0,0,1-4.81-.65c-0.19-.3-0.38-0.6-0.59-0.88A8,8,0,0,0,310.14,297Z"/><path class="cls-7" d="M302.22,289a8,8,0,0,0,.92,3.71,14.13,14.13,0,0,0-3.7-.83,13.49,13.49,0,0,1-3-8.5c2,0.52,4.23,1.15,6.69,1.87A8,8,0,0,0,302.22,289Z"/><path class="cls-7" d="M268.55,171.48a1.91,1.91,0,0,0-.8,1.19c-4.73,2.45-6.88,4.79-8.14,6.7a12.47,12.47,0,0,0-.87,1.54,72.52,72.52,0,0,0-7.68-.5c-0.28-8.69,1.53-20,11.8-23.88a1.58,1.58,0,0,0,.89-0.58c0.46-1.11-.05-3.9-0.8-5.59a8,8,0,0,1,14.53-6.71,28.63,28.63,0,0,1,2.37,9.14,75.79,75.79,0,0,0-9,17.64A19.94,19.94,0,0,1,268.55,171.48Z"/><path class="cls-7" d="M257.91,187.24a7.92,7.92,0,0,0,9.23,6.12,8,8,0,0,1-14.7-2.17,58.11,58.11,0,0,1-1.37-10.79,72.52,72.52,0,0,1,7.68.5A9.8,9.8,0,0,0,257.91,187.24Z"/><path class="cls-7" d="M267.19,182.42a71.62,71.62,0,0,0-8.45-1.51,12.47,12.47,0,0,1,.87-1.54c1.26-1.91,3.41-4.25,8.14-6.7C267.1,174.49,266.78,178.18,267.19,182.42Z"/><path class="cls-7" d="M267.41,184.26a46,46,0,0,0-.52,7.16,8,8,0,0,0,.29,1.87l0,0.08a7.92,7.92,0,0,1-9.23-6.12,9.8,9.8,0,0,1,.83-6.34,71.62,71.62,0,0,1,8.45,1.51Q267.28,183.32,267.41,184.26Z"/><path class="cls-3" d="M367.75,308.19c0.84-2.36,1.62-7.09-2.64-12.33-6.86-8.45-26.7-16.19-44.18-13.79a37.32,37.32,0,0,1-4,.35q-0.72-.25-1.4-0.46a71.2,71.2,0,0,0,4-11c4.13,1.85,9,3.84,14,5.64,11.12,6,24,12.93,34.73,18.65,1.83,1.12,3,1.75,3.2,1.85a8,8,0,0,0,1.19.5l6.3,3.37a8,8,0,1,1-7.53,14.12l-6.24-3.34A7.94,7.94,0,0,0,367.75,308.19Z"/><path class="cls-3" d="M305,275.52a7.94,7.94,0,0,0-4.84,1.23,8,8,0,0,1,3.46-14.7,8,8,0,0,0,2.75,2.48c0.34,0.18,5.61,3,13.16,6.42a71.2,71.2,0,0,1-4,11,23.27,23.27,0,0,0-3.46-.81A8,8,0,0,0,305,275.52Z"/><path class="cls-3" d="M333.57,276.58c-5.07-1.8-9.88-3.79-14-5.64,0.15-.55.3-1.11,0.44-1.67Z"/><path class="cls-3" d="M303.64,262a8,8,0,0,1,4.62.91L320,269.27c-0.14.56-.29,1.11-0.44,1.67-7.55-3.37-12.82-6.23-13.16-6.42A8,8,0,0,1,303.64,262Z"/><path class="cls-3" d="M352,303.6c-7.41-5.56-23.63-17.15-35-21.18a37.32,37.32,0,0,0,4-.35c17.48-2.4,37.32,5.34,44.18,13.79,4.25,5.24,3.48,10,2.64,12.33a7.94,7.94,0,0,1-2.54,3.53l-11.26-6A8,8,0,0,0,352,303.6Z"/><path class="cls-3" d="M305,275.52a8,8,0,0,1,7.09,5.63,13.36,13.36,0,0,0-1.89-.15,8,8,0,0,0-1.81.21L300.67,277c-0.17-.09-0.33-0.19-0.49-0.29A7.94,7.94,0,0,1,305,275.52Z"/><path class="cls-3" d="M368.29,295.23l4.39,2.35a8,8,0,0,1-1.19-.5C371.3,297,370.12,296.35,368.29,295.23Z"/><path class="cls-3" d="M334,231.62l1.22,2.46a121.17,121.17,0,0,1-14.87-2.93c3.72-.5,8-1.13,12.46-1.91Z"/><path class="cls-3" d="M354,234.6a55.43,55.43,0,0,1-5.06-8.78c3.84-1,7.56-2.07,11-3.29a8,8,0,0,0,5.11-5.85,8,8,0,0,1,7.73,10.66,8,8,0,0,0-5.67,2.31C364.24,232.47,359.54,234,354,234.6Z"/><path class="cls-3" d="M307.18,232.64l2.22-.21a7.79,7.79,0,0,0-2.18,4.45,7.75,7.75,0,0,1-1-4.22h0.25Z"/><path class="cls-3" d="M335.18,234.07L334,231.62l-1.19-2.38c5.27-.92,10.83-2,16.18-3.41A55.43,55.43,0,0,0,354,234.6,80.37,80.37,0,0,1,335.18,234.07Z"/><path class="cls-3" d="M359.92,222.53c-3.41,1.22-7.14,2.32-11,3.29l-0.65-1.31c-0.65-1.32-1.33-2.68-2-4.07,6.19-1.06,12.18-2.25,16.9-3.51a8,8,0,0,1,1.88-.26A8,8,0,0,1,359.92,222.53Z"/><path class="cls-3" d="M318.15,228.91c1.72-.54,6.3-2,12.19-4.31,0.85,1.55,1.66,3.1,2.43,4.64-4.49.78-8.74,1.42-12.46,1.91l-1.55-.42C318.57,230.11,318.35,229.51,318.15,228.91Z"/><path class="cls-3" d="M309.19,226.79a7.94,7.94,0,0,0,8.24,2.34l0.71-.22c0.21,0.6.42,1.21,0.61,1.82l-1.33-.39a8,8,0,0,0-8,2.09l-2.22.21-0.69,0h-0.25A8,8,0,0,1,309.19,226.79Z"/><path class="cls-3" d="M330.34,224.59c2-.78,4.17-1.66,6.42-2.62,3.12-.47,6.33-1,9.5-1.52,0.71,1.39,1.39,2.75,2,4.07l0.65,1.31c-5.35,1.36-10.91,2.49-16.18,3.41C332,227.69,331.19,226.14,330.34,224.59Z"/><path class="cls-3" d="M269.69,192.43l-2,2.24a7.91,7.91,0,0,1-.5-1.32l0.26,0A8,8,0,0,0,269.69,192.43Z"/><path class="cls-3" d="M273.34,187.93c0.18-.13.41-0.29,0.7-0.47l-0.95,1.09C273.19,188.34,273.28,188.14,273.34,187.93Z"/><path class="cls-3" d="M276,185.18a71.2,71.2,0,0,0-8.35-2.65,71.37,71.37,0,0,1,2.83-11.17,104.86,104.86,0,0,1,20.24-5.93,60,60,0,0,0-3.09,5.92C284.07,175.73,280.09,180.45,276,185.18Z"/><path class="cls-3" d="M273.34,187.93c-0.07.21-.16,0.42-0.24,0.62l-3.41,3.88a8,8,0,0,1-2.23.88l-0.26,0,0-.07a8,8,0,0,0,.83-5.74c-0.25-1.1-.45-2.2-0.6-3.28,0.08-.55.17-1.13,0.27-1.73a71.2,71.2,0,0,1,8.35,2.65l-2,2.28C273.76,187.64,273.52,187.8,273.34,187.93Z"/><path class="cls-3" d="M267.41,184.26c0.15,1.08.35,2.18,0.6,3.28a8,8,0,0,1-.83,5.74,8,8,0,0,1-.29-1.87A46,46,0,0,1,267.41,184.26Z"/><path class="cls-4" d="M365,192a3.43,3.43,0,0,1,.71,0,25.15,25.15,0,0,1-6-2.29,33.06,33.06,0,0,1,14,3.11,7.81,7.81,0,0,1,3.92,4.64A81,81,0,0,0,365,195.71V192Z"/><path class="cls-4" d="M311.3,214.44c-0.45-.73-0.91-1.46-1.39-2.17l0.57,0.5-0.07.08s2.88-3,6-2.89a7.1,7.1,0,0,1,3.69,1.38c-4.35,1.57-7.21,2.44-7.28,2.46A8,8,0,0,0,311.3,214.44Z"/><path class="cls-4" d="M327.8,197.3q2.57-1.39,5.28-2.82l2.5-.79c3.56,2.51,6.76,4.59,9.61,6.3-2.94,1.69-6,3.26-9,4.69A33.06,33.06,0,0,0,327.8,197.3Z"/><path class="cls-4" d="M302.86,212.8a21.76,21.76,0,0,1,4-3.22l3.07,2.69c0.48,0.71.94,1.44,1.39,2.17a8,8,0,0,0-2.35,1.95c-1.93.2-3.07,0.3-3.13,0.31a8,8,0,0,0-5.69,3.14,8,8,0,0,1-.58-0.87,8,8,0,0,1-1-3.26A8,8,0,0,0,302.86,212.8Z"/><path class="cls-4" d="M310.41,212.85l0.07-.08-0.57-.5q-1.1-1.64-2.29-3.22c4.53-3,11.71-7.17,20.18-11.75a33.06,33.06,0,0,1,8.39,7.38c-6,2.83-11.75,5.09-16.07,6.66a7.1,7.1,0,0,0-3.69-1.38C313.29,209.86,310.44,212.82,310.41,212.85Z"/><path class="cls-4" d="M307.62,209q1.19,1.58,2.29,3.22l-3.07-2.69Z"/><path class="cls-4" d="M365,192v3.71c-7-.35-13.64.58-19,3.73-0.32.19-.58,0.37-0.9,0.56-2.85-1.72-6-3.79-9.58-6.3,8-2.44,16.48-4.13,24.23-3.95A25.45,25.45,0,0,0,365.7,192,3.36,3.36,0,0,0,365,192Z"/><path class="cls-4" d="M305.82,216.7c0.06,0,1.2-.1,3.13-0.31a8,8,0,0,0-1.68,6.56c-0.26,0-.51,0-0.77,0a8,8,0,0,1-6.37-3.16A8,8,0,0,1,305.82,216.7Z"/><path class="cls-4" d="M307.77,190.2c-4.28,2.55-8.09,5-11.15,7.2l-0.18-.15A68,68,0,0,1,307.77,190.2Z"/><path class="cls-4" d="M288.47,204.06a82.89,82.89,0,0,1,8-6.82l0.18,0.15a32.31,32.31,0,0,0-6.55,5.8,8,8,0,0,0-1.47,6.15,8,8,0,0,1-9.77-3.1l0.48-.53A8,8,0,0,0,288.47,204.06Z"/><path class="cls-4" d="M296.44,197.25a72.14,72.14,0,0,0-5.83-4.43c3.72-4.34,7.51-8.85,11-13.24a161.62,161.62,0,0,0,26.87-8,30.81,30.81,0,0,1,7.39,2.89,120.49,120.49,0,0,0-14.43,8c-4.81,2.59-9.47,5.2-13.7,7.72A68,68,0,0,0,296.44,197.25Z"/><path class="cls-4" d="M279.29,205.72c3.42-3.83,7.33-8.27,11.31-12.91a72.14,72.14,0,0,1,5.83,4.43,82.89,82.89,0,0,0-8,6.82A8,8,0,0,1,279.29,205.72Z"/><path class="cls-4" d="M306.54,173.34c6.95-2.49,14.51-3.6,22-1.75a161.62,161.62,0,0,1-26.87,8C303.35,177.45,305,175.36,306.54,173.34Z"/><path class="cls-4" d="M366.89,265a8,8,0,0,1-1.66.18h-0.42c-1.51-.08-4.43-0.41-8.13-0.89a53.49,53.49,0,0,1-4.09-5.85,44.57,44.57,0,0,0-5.63-7.46h0.21l1.31,0a24.72,24.72,0,0,0,11,3.56q0.37,0,.73,0a8,8,0,0,0,7.4-5,8,8,0,0,1,5.58,7.56,55.7,55.7,0,0,1-5.85,7.47A3.23,3.23,0,0,1,366.89,265Z"/><path class="cls-4" d="M332.05,258.88c-3.76-1.53-7.21-3.08-10.06-4.43,0-.41,0-0.82,0-1.23A37.26,37.26,0,0,1,332.05,258.88Z"/><path class="cls-4" d="M309.6,249.53a8,8,0,0,0-2.46.59,7.51,7.51,0,0,1,.42-2.68A8,8,0,0,0,309.6,249.53Z"/><path class="cls-4" d="M322,253.22c0,0.41,0,.82,0,1.23-2.71-1.28-4.88-2.38-6.26-3.09A42.68,42.68,0,0,1,322,253.22Z"/><path class="cls-4" d="M360.23,254.5q-0.36,0-.73,0a24.72,24.72,0,0,1-11-3.56A62.48,62.48,0,0,0,363.64,249c0.85,0.09,1.53.15,2,.18a8,8,0,0,1,2,.37A8,8,0,0,1,360.23,254.5Z"/><path class="cls-4" d="M322,254.45c2.85,1.35,6.3,2.9,10.06,4.43a30.84,30.84,0,0,1,2.46,2.19c-4.73-.71-9.21-1.4-12.82-2C321.84,257.58,321.94,256,322,254.45Z"/><path class="cls-4" d="M366.89,265a3.23,3.23,0,0,0,.48-0.41,55.7,55.7,0,0,0,5.85-7.47c0,0.16,0,.31,0,0.47A8,8,0,0,1,366.89,265Z"/><path class="cls-4" d="M313.43,251c0.08,0,.94.11,2.3,0.4,1.38,0.71,3.55,1.81,6.26,3.09,0,1.57-.15,3.12-0.3,4.67l-7.8-1.21a8,8,0,0,1-6.75-7.78,8,8,0,0,1,2.46-.59A8,8,0,0,0,313.43,251Z"/><path class="cls-4" d="M332.05,258.88a37.26,37.26,0,0,0-10-5.66c0-.34,0-0.69,0-1,0-1.42-.05-2.83-0.13-4.23a122.83,122.83,0,0,0,25.06,3,44.57,44.57,0,0,1,5.63,7.46,53.49,53.49,0,0,0,4.09,5.85c-4.68-.61-10.62-1.46-16.59-2.34l-0.77-.26C336.81,260.76,334.37,259.83,332.05,258.88Z"/><path class="cls-4" d="M309.85,244a8,8,0,0,0,3,1.66c1.14,0.34,4.45,1.3,9.06,2.3,0.08,1.4.13,2.81,0.13,4.23,0,0.34,0,.69,0,1a42.68,42.68,0,0,0-6.28-1.86c-1.06-.55-1.65-0.87-1.68-0.88a8,8,0,0,0-4.45-.95,8,8,0,0,1-2-2.09A8,8,0,0,1,309.85,244Z"/><path class="cls-4" d="M332.05,258.88c2.32,0.95,4.76,1.88,7.26,2.76l0.77,0.26-5.57-.83A30.84,30.84,0,0,0,332.05,258.88Z"/><path class="cls-4" d="M309.6,249.53a8,8,0,0,1,4.45.95s0.62,0.34,1.68.88c-1.36-.29-2.22-0.39-2.3-0.4A8,8,0,0,1,309.6,249.53Z"/><path class="cls-4" d="M325.83,315c1.41,0.21,2.8.38,4.2,0.52a7.8,7.8,0,0,0,4.12.34c1.43,0.08,2.84.13,4.22,0.13,1.23,0,2.41,0,3.57,0l0.49,0.36a8,8,0,0,0,9.39.13c16.35,1.44,22.71,5.5,25.06,9a8,8,0,0,1-12.43,10c-1-.58-7-3.54-26.09-3.54-2.5,0-5.06-.12-7.63-0.34C331.4,327.33,330.9,321.27,325.83,315Z"/><path class="cls-4" d="M315,328.36a3.81,3.81,0,0,1-.06.94c-3.9-.81-7.73-1.75-11.4-2.75a25.55,25.55,0,0,0,4.1-6.29C312.11,323.08,314.77,326,315,328.36Z"/><path class="cls-4" d="M291.1,311.14c0.84,0.43,2,1,3.31,1.71-1.06,2.6-2.39,4.3-3.43,4.45-1.45.21-3-.66-6-2.24v-0.18C287,313.74,289.17,312.48,291.1,311.14Z"/><path class="cls-4" d="M285.22,314.89v0.18l-0.15-.1Z"/><path class="cls-4" d="M274.08,300l0.32,0-0.51.29Z"/><path class="cls-4" d="M291.21,311.14q-2.9,2-6,3.75l-0.15.08q-1.38-.93-2.87-2.14c1.92-1.05,3.77-2,5.52-2.82a8,8,0,0,0,2,.38Z"/><path class="cls-4" d="M296,307.5l0.08,0a28.44,28.44,0,0,1-1,3.63c-0.2.6-.41,1.15-0.62,1.69-1.34-.72-2.42-1.28-3.26-1.71C292.85,310,294.44,308.78,296,307.5Z"/><path class="cls-4" d="M307.59,320.25a37.8,37.8,0,0,0,1.75-4.41c0.46-1.39.82-2.72,1.12-4A146.52,146.52,0,0,0,325.83,315c5.07,6.26,5.57,12.33,4.9,16.65a133.14,133.14,0,0,1-15.83-2.37,3.81,3.81,0,0,0,.06-0.94C314.77,326,312.11,323.08,307.59,320.25Z"/><path class="cls-4" d="M296,307.5c-1.54,1.27-3.12,2.49-4.77,3.64l-1.5-.74a8,8,0,0,1-2-.38,46.92,46.92,0,0,1,7.27-2.84Z"/><path class="cls-4" d="M332.72,316a8,8,0,0,1-2.7-.47q2.08,0.22,4.12.34A8,8,0,0,1,332.72,316Z"/><path class="cls-2" d="M283.7,183.61c1.87-.55,4-1.12,6.57-1.71-2.74,1.88-5.15,3.76-7.15,5.43C283.23,186.28,283.42,185,283.7,183.61Z"/><path class="cls-2" d="M274.75,199.16a7.87,7.87,0,0,0,3.44,5.93,8,8,0,0,0,.61,1.17l-0.93,1A8,8,0,0,1,266,196.62l1.73-1.94A8,8,0,0,0,274.75,199.16Z"/><path class="cls-2" d="M306.24,173.45a72.73,72.73,0,0,0-16,8.46c-2.53.59-4.7,1.16-6.57,1.71a56.26,56.26,0,0,1,4-12.27c1.8-2.21,3.51-4.33,5.08-6.32l2-.38a155.89,155.89,0,0,0,21.53-5.58,114.79,114.79,0,0,1-9.53,14Z"/><path class="cls-2" d="M286.14,190q-1.54-.89-3.12-1.71c0-.3.06-0.63,0.1-1,2-1.66,4.41-3.54,7.15-5.43,2-.47,4.24-0.94,6.72-1.41C292.63,184,289,187.33,286.14,190Z"/><path class="cls-2" d="M275.14,199.17a8,8,0,0,0,3.29-.83,8,8,0,0,0-.23,6.75,7.87,7.87,0,0,1-3.44-5.93h0.38Z"/><path class="cls-2" d="M282.51,193.57a8,8,0,0,0,.37-2.61c0-.18,0-1.12.13-2.65q1.59,0.82,3.13,1.71C284.7,191.38,283.49,192.58,282.51,193.57Z"/><path class="cls-2" d="M290.27,181.9a72.73,72.73,0,0,1,16-8.46c-3.34,2.38-6.44,4.76-9.25,7C294.51,181,292.27,181.44,290.27,181.9Z"/><path class="cls-2" d="M282.35,188q-2.38-1.19-4.85-2.22a61.78,61.78,0,0,1,6.2-2.15c-0.28,1.42-.46,2.67-0.58,3.72Z"/><path class="cls-2" d="M273.1,188.55l0.95-1.09a25,25,0,0,1,3.45-1.7q2.48,1,4.85,2.22c-3.12,2.65-5.07,4.64-5.39,5a8,8,0,0,0-2.21,6.22,8,8,0,0,1-7.05-4.49l2-2.24A8,8,0,0,0,273.1,188.55Z"/><path class="cls-2" d="M276,185.18c4.07-4.72,8-9.45,11.63-13.84a56.26,56.26,0,0,0-4,12.27,61.78,61.78,0,0,0-6.2,2.15Z"/><path class="cls-2" d="M269.69,192.43l3.41-3.88A8,8,0,0,1,269.69,192.43Z"/><path class="cls-2" d="M274,187.46l2-2.28,1.47,0.58A25,25,0,0,0,274,187.46Z"/><path class="cls-2" d="M283.11,187.33c0,0.35-.07.68-0.1,1l-0.66-.34Z"/><path class="cls-2" d="M282.88,191a8,8,0,0,1-.37,2.61c-1.68,1.7-2.69,2.8-2.89,3a8,8,0,0,0-1.19,1.75,8,8,0,0,1-3.29.83h-0.38a8,8,0,0,1,2.21-6.22c0.32-.33,2.26-2.31,5.39-5l0.66,0.34C282.87,189.84,282.88,190.78,282.88,191Z"/><path class="cls-2" d="M279.29,205.72l-0.48.53a8,8,0,0,1-.61-1.17A7.93,7.93,0,0,0,279.29,205.72Z"/><path class="cls-2" d="M297,180.49l0.68-.13c1.36-.25,2.68-0.52,4-0.79-3.53,4.39-7.32,8.91-11,13.24-1.45-1-2.94-1.91-4.47-2.79C289,187.33,292.63,184,297,180.49Z"/><path class="cls-2" d="M278.2,205.09a8,8,0,0,1,.23-6.75,8,8,0,0,0,4.08-4.77c1-1,2.19-2.19,3.63-3.55,1.52,0.88,3,1.8,4.47,2.79-4,4.64-7.89,9.08-11.31,12.91A7.93,7.93,0,0,1,278.2,205.09Z"/><path class="cls-2" d="M297.66,180.36l-0.68.13c2.81-2.29,5.91-4.67,9.25-7l0.3-.11c-1.55,2-3.19,4.11-4.9,6.23C300.34,179.84,299,180.11,297.66,180.36Z"/><path class="cls-2" d="M282.51,193.57a8,8,0,0,1-4.08,4.77,8,8,0,0,1,1.19-1.75C279.82,196.37,280.83,195.27,282.51,193.57Z"/><path class="cls-2" d="M329.84,239.12c2.34-.32,4.84-0.67,7.45-1.05a44.35,44.35,0,0,0,5.57,8.06l-1.35-.2A52.53,52.53,0,0,0,329.84,239.12Z"/><path class="cls-2" d="M360.94,238.53a8.81,8.81,0,0,1-6.44-3.31c4.63-.88,9-1.82,12.78-2.82a8,8,0,0,0,5.48-5.06A8,8,0,0,1,378.35,241a30,30,0,0,1-10.2,6.48c0-.09,0-0.18,0-0.28A8,8,0,0,0,360.94,238.53Z"/><path class="cls-2" d="M307.22,239.12a7.94,7.94,0,0,1,0-2.25A8,8,0,0,0,308,238,8,8,0,0,0,307.22,239.12Z"/><path class="cls-2" d="M342.86,246.14a44.35,44.35,0,0,1-5.57-8.06c5.57-.82,11.56-1.78,17.21-2.85a8.81,8.81,0,0,0,6.44,3.31,8,8,0,0,1,7.24,8.69c0,0.09,0,.18,0,0.28a41.59,41.59,0,0,1-4.51,1.48C359.64,248.55,351.72,247.44,342.86,246.14Z"/><path class="cls-2" d="M329.84,239.12a52.53,52.53,0,0,1,11.67,6.81c-6.68-1-13.79-2.07-20.1-3.05-0.11-.88-0.24-1.76-0.38-2.63C323.44,240,326.46,239.58,329.84,239.12Z"/><path class="cls-2" d="M314.21,241a8.12,8.12,0,0,0,.88,0c0.34,0,2.55-.28,5.93-0.69,0.15,0.87.27,1.75,0.38,2.63l-5-.79a8,8,0,0,0-6.53,1.9,8,8,0,0,1-2.63-4.87A8,8,0,0,1,308,238,8,8,0,0,0,314.21,241Z"/><path class="cls-2" d="M320.16,236c-0.36-1.56-.76-3.11-1.22-4.63l1.37-.18a121.17,121.17,0,0,0,14.87,2.93c0.67,1.33,1.37,2.68,2.11,4-2.61.38-5.11,0.73-7.45,1.05A58.87,58.87,0,0,0,320.16,236Z"/><path class="cls-2" d="M367.28,232.4c-3.74,1-8.15,1.95-12.78,2.82-0.17-.19-0.33-0.4-0.5-0.62,5.54-.62,10.24-2.14,13.09-5a8,8,0,0,1,5.67-2.31A8,8,0,0,1,367.28,232.4Z"/><path class="cls-2" d="M309.4,232.43c2.06-.2,5.4-0.56,9.53-1.1,0.46,1.52.86,3.07,1.22,4.63A42.75,42.75,0,0,0,315,235a8,8,0,0,0-7,3,8,8,0,0,1-.75-1.12A7.79,7.79,0,0,1,309.4,232.43Z"/><path class="cls-2" d="M354,234.6c0.17,0.21.33,0.42,0.5,0.62-5.65,1.07-11.65,2-17.21,2.85-0.74-1.32-1.44-2.67-2.11-4A80.37,80.37,0,0,0,354,234.6Z"/><path class="cls-2" d="M320.31,231.15l-1.37.18c-0.06-.2-0.12-0.4-0.18-0.61Z"/><path class="cls-2" d="M317.44,230.34l1.33,0.39c0.06,0.2.12,0.4,0.18,0.61-4.14.54-7.48,0.9-9.53,1.1A8,8,0,0,1,317.44,230.34Z"/><path class="cls-2" d="M320.16,236a58.87,58.87,0,0,1,9.68,3.17c-3.39.46-6.4,0.84-8.82,1.13C320.78,238.81,320.49,237.37,320.16,236Z"/><path class="cls-2" d="M315.09,241a8.12,8.12,0,0,1-.88,0,8,8,0,0,1-6.23-3,8,8,0,0,1,7-3,42.75,42.75,0,0,1,5.18.92c0.33,1.42.62,2.85,0.86,4.3C317.63,240.67,315.43,240.92,315.09,241Z"/><path class="cls-2" d="M341.51,245.94l1.35,0.2a25.88,25.88,0,0,0,5.62,4.77l-1.31,0H347A46.41,46.41,0,0,0,341.51,245.94Z"/><path class="cls-2" d="M342.86,246.14c8.86,1.31,16.78,2.41,20.78,2.84a62.48,62.48,0,0,1-15.16,1.93A25.88,25.88,0,0,1,342.86,246.14Z"/><path class="cls-2" d="M321.41,242.88c6.31,1,13.43,2.07,20.1,3.05a46.41,46.41,0,0,1,5.44,5,122.83,122.83,0,0,1-25.06-3C321.8,246.25,321.63,244.56,321.41,242.88Z"/><path class="cls-2" d="M309.85,244a8,8,0,0,1,6.53-1.9l5,0.79c0.22,1.68.39,3.37,0.49,5.08-4.61-1-7.92-2-9.06-2.3A8,8,0,0,1,309.85,244Z"/><path class="cls-2" d="M338.5,313.52A8,8,0,0,0,339,303a25.47,25.47,0,0,0-5.56-5c8.57,1.26,16.31,4.86,18.77,7.3a8,8,0,0,0,2.83,6.2,7.86,7.86,0,0,1-3.24,4.95c-3-.26-6.24-0.43-9.88-0.5Q340.23,314.77,338.5,313.52Z"/><path class="cls-2" d="M352.22,305.39c-2.47-2.44-10.21-6-18.77-7.3-5.64-3.89-13.54-7.24-21.1-9.88q1.08-1.86,2.05-3.78c10.77,5.8,26.14,14.06,39.56,21.26a8,8,0,0,1,1.1,5.89A8,8,0,0,1,352.22,305.39Z"/><path class="cls-2" d="M308.41,281.21l6,3.22q-1,1.92-2.05,3.78c-3.19-1.12-6.31-2.1-9.18-3A8,8,0,0,1,308.41,281.21Z"/><path class="cls-2" d="M323.12,297.93a37.08,37.08,0,0,1,10.33.16,25.47,25.47,0,0,1,5.56,5,8,8,0,0,1-.5,10.48c-9.28-6.67-18.8-12.55-24.4-15.14A47.62,47.62,0,0,0,323.12,297.93Z"/><path class="cls-2" d="M323.12,297.93a47.62,47.62,0,0,1-9,.46,14.84,14.84,0,0,0-4-1.39,8,8,0,0,1-1.44-.15,11.77,11.77,0,0,0-1.2-1.36,71.92,71.92,0,0,0,4.85-7.28c7.56,2.64,15.46,6,21.1,9.88A37.08,37.08,0,0,0,323.12,297.93Z"/><path class="cls-2" d="M306.2,294.36a12.4,12.4,0,0,0-3.06-1.65,8,8,0,0,1,0-7.46c2.87,0.85,6,1.84,9.18,3a71.92,71.92,0,0,1-4.85,7.28A12.59,12.59,0,0,0,306.2,294.36Z"/><path class="cls-2" d="M315.36,282.42l0.21-.46q0.69,0.21,1.4.46C316.38,282.44,315.84,282.44,315.36,282.42Z"/><path class="cls-2" d="M312.32,282a8,8,0,0,0-.21-0.82,23.27,23.27,0,0,1,3.46.81l-0.21.46A11.47,11.47,0,0,1,312.32,282Z"/><path class="cls-2" d="M317,282.42c11.42,4,27.63,15.62,35,21.18a8,8,0,0,1,1.93,2.09c-13.42-7.2-28.79-15.46-39.56-21.26q0.5-1,1-2C315.84,282.44,316.38,282.44,317,282.42Z"/><path class="cls-2" d="M310.22,281a13.36,13.36,0,0,1,1.89.15,8,8,0,0,1,.21.82,11.47,11.47,0,0,0,3,.45q-0.47,1-1,2l-6-3.22A8,8,0,0,1,310.22,281Z"/><path class="cls-2" d="M342.42,316.4l-0.49-.36c3.64,0.07,6.93.24,9.88,0.5A8,8,0,0,1,342.42,316.4Z"/><path class="cls-2" d="M354.52,207.47a118.53,118.53,0,0,1-13.5,3.81q-0.69-1.06-1.43-2.13a72,72,0,0,1,16.47-3.49A26.82,26.82,0,0,0,365,208v-1.43a3.53,3.53,0,0,1,1.53.59,8.06,8.06,0,0,0,10.79-3.58,8,8,0,0,0,.47-6.09,145.29,145.29,0,0,1,29.38,10.3,8,8,0,0,1-6.91,14.43c-10.08-4.82-25-9.91-35.78-10.57A8,8,0,0,0,354.52,207.47Z"/><path class="cls-2" d="M339.58,209.16q0.75,1.07,1.43,2.13c-4.88,1.11-9.89,2-14.54,2.78C330.74,212.24,335.19,210.54,339.58,209.16Z"/><path class="cls-2" d="M365,206.57V208a27.17,27.17,0,0,1-9.05-2.33C359.41,205.44,363,205.69,365,206.57Z"/><path class="cls-2" d="M354.29,213.21c-3,1.79-6.14,3.44-9.23,5-1.2-2.24-2.53-4.55-4-6.88a118.53,118.53,0,0,0,13.5-3.81,8,8,0,0,1,10,4.17C360.24,211.38,356.66,211.81,354.29,213.21Z"/><path class="cls-2" d="M314.32,219.84c3-1.57,6.27-3.18,9.74-4.73a59.37,59.37,0,0,1,5.39,7.91c-5.38.74-10,1.31-12.9,1.66C315.87,223,315.12,221.42,314.32,219.84Z"/><path class="cls-2" d="M314.32,219.84c0.8,1.58,1.55,3.19,2.24,4.84l-3.21.37a8,8,0,0,0-4.16,1.74,7.93,7.93,0,0,1-1.72-3,8.12,8.12,0,0,1-.2-0.81,8,8,0,0,0,3.19-1C311.67,221.26,313,220.55,314.32,219.84Z"/><path class="cls-2" d="M329.46,223a59.37,59.37,0,0,0-5.39-7.91l2.41-1c4.66-.75,9.66-1.67,14.54-2.78,1.51,2.33,2.84,4.64,4,6.88-2.83,1.39-5.63,2.66-8.3,3.81C334.23,222.35,331.78,222.7,329.46,223Z"/><path class="cls-2" d="M316.56,224.68c2.89-.34,7.52-0.91,12.9-1.66,0.3,0.52.59,1,.88,1.57-5.89,2.29-10.47,3.78-12.19,4.31C317.66,227.48,317.13,226.06,316.56,224.68Z"/><path class="cls-2" d="M316.56,224.68c0.58,1.39,1.1,2.8,1.59,4.23l-0.71.22a7.94,7.94,0,0,1-8.24-2.34,8,8,0,0,1,4.16-1.74Z"/><path class="cls-2" d="M336.76,222c-2.25,1-4.41,1.84-6.42,2.62-0.29-.52-0.58-1-0.88-1.57C331.78,222.7,334.23,222.35,336.76,222Z"/><path class="cls-2" d="M336.19,204.68c3-1.42,6.06-3,9-4.69a83.22,83.22,0,0,0,11,5.68,72.81,72.81,0,0,0-16.58,3.49c-1-1.4-2-2.81-3.17-4.22Z"/><path class="cls-2" d="M377.37,203.58a8.13,8.13,0,0,1-10.84,3.58,3.53,3.53,0,0,0-1.53-.59V195.71a81.21,81.21,0,0,1,12.7,1.78A7.94,7.94,0,0,1,377.37,203.58Z"/><path class="cls-2" d="M311.3,214.44a8,8,0,0,1,1.53-.64c0.07,0,2.94-.89,7.28-2.46a18.38,18.38,0,0,1,3.44,3.18c-4.35.66-8.27,1.16-11.32,1.51C311.94,215.49,311.63,215,311.3,214.44Z"/><path class="cls-2" d="M311.3,214.44c0.32,0.52.63,1.05,0.94,1.58l-3.3.36A8,8,0,0,1,311.3,214.44Z"/><path class="cls-2" d="M323.56,214.52a18.38,18.38,0,0,0-3.44-3.18c4.32-1.56,10.09-3.82,16.07-6.66l0.22,0.26c1.15,1.41,2.19,2.82,3.17,4.22-4.39,1.39-8.85,3.08-13.11,4.91Z"/><path class="cls-2" d="M346,199.43c5.33-3.15,12-4.08,19-3.73v10.86c-2-.88-5.48-1.13-8.94-0.9a83.22,83.22,0,0,1-11-5.68Z"/><path class="cls-2" d="M312.25,216c3-.35,7-0.85,11.32-1.51l0.46,0.55,0,0c-3.47,1.55-6.76,3.16-9.74,4.73Q313.34,217.9,312.25,216Z"/><path class="cls-2" d="M309,216.39l3.3-.36q1.09,1.87,2.08,3.81c-1.35.71-2.65,1.42-3.85,2.11a8,8,0,0,1-3.19,1A8,8,0,0,1,309,216.39Z"/><path class="cls-2" d="M323.56,214.52l2.91-.45-2.41,1,0,0Z"/><path class="cls-2" d="M336.32,174.71l5.34-2.69c1.78-.69,3.59-1.32,5.41-1.88a8,8,0,0,0,4-2.74c3.08-1.5,5.87-2.84,8.25-4a8,8,0,0,1,6.88,14.45c-4.81,2.29-9.77,4.71-14.7,7.17-3.22-2-7-4.61-11.49-8A34.15,34.15,0,0,0,336.32,174.71Z"/><path class="cls-2" d="M326.77,196.7A22.11,22.11,0,0,0,316.63,194c-7.91-.13-13.77,4.12-16.52,6.61l-0.88-.84A176.08,176.08,0,0,1,313.6,187.9c5.84-1.74,11.8-1.72,16.78,2,1.66,1.25,3.25,2.4,4.78,3.48l-2.07,1.09C330.93,195.18,328.82,195.93,326.77,196.7Z"/><path class="cls-2" d="M299.23,199.73l0.88,0.84a20.89,20.89,0,0,0-1.66,1.66l5.65,4.95-1.57.88a8,8,0,0,0-4,7.66,7.74,7.74,0,0,1-4.41-.07,20.06,20.06,0,0,0-4.3-3.18,8,8,0,0,1-1.24-3.1,8,8,0,0,0,2.9-2C291.59,207.21,294.42,204.13,299.23,199.73Z"/><path class="cls-2" d="M291.67,214.4a8,8,0,0,1-1.84-1.94,20.06,20.06,0,0,1,4.3,3.18A8,8,0,0,1,291.67,214.4Z"/><path class="cls-2" d="M300.11,200.57c2.75-2.48,8.61-6.73,16.52-6.61a22.11,22.11,0,0,1,10.14,2.74,185.48,185.48,0,0,0-21.24,9.7A72.21,72.21,0,0,0,300.11,200.57Z"/><path class="cls-2" d="M305.53,206.4l-1.44.78-5.65-4.95a20.89,20.89,0,0,1,1.66-1.66A72.21,72.21,0,0,1,305.53,206.4Z"/><path class="cls-2" d="M330.38,189.9c-5-3.73-10.94-3.74-16.78-2,2.47-1.82,5.1-3.65,7.86-5.42,4.92-2.65,10-5.28,14.86-7.77A34.15,34.15,0,0,1,340,177.1c4.46,3.34,8.27,5.93,11.49,8-5.56,2.77-11.08,5.59-16.3,8.33C333.63,192.3,332,191.15,330.38,189.9Z"/><path class="cls-2" d="M333.08,194.48q-2.71,1.43-5.28,2.82c-0.35-.21-0.69-0.41-1-0.59C328.82,195.93,330.93,195.18,333.08,194.48Z"/><path class="cls-2" d="M302.86,212.8a8,8,0,0,1-4.33,2.92,8,8,0,0,1,4-7.66l1.57-.88,2.74,2.4A21.76,21.76,0,0,0,302.86,212.8Z"/><path class="cls-2" d="M305.53,206.4a185.48,185.48,0,0,1,21.24-9.7c0.34,0.18.69,0.38,1,.59-8.47,4.58-15.65,8.72-20.18,11.75Q306.61,207.7,305.53,206.4Z"/><path class="cls-2" d="M307.62,209l-0.78.53-2.74-2.4,1.44-.78Q306.61,207.7,307.62,209Z"/><path class="cls-2" d="M296.61,197.4c3.06-2.22,6.87-4.66,11.15-7.2a39.92,39.92,0,0,1,5.83-2.29,176.08,176.08,0,0,0-14.37,11.83Q297.95,198.53,296.61,197.4Z"/><path class="cls-2" d="M290.06,203.2a32.31,32.31,0,0,1,6.55-5.8q1.34,1.13,2.62,2.33c-4.81,4.4-7.64,7.48-7.75,7.6a8,8,0,0,1-2.9,2A8,8,0,0,1,290.06,203.2Z"/><path class="cls-2" d="M321.46,182.48c-2.76,1.77-5.39,3.6-7.86,5.42a39.92,39.92,0,0,0-5.83,2.29C312,187.68,316.66,185.07,321.46,182.48Z"/><path class="cls-2" d="M303.38,326.54a16.74,16.74,0,0,1-10.2,5.61,18.81,18.81,0,0,1-2.58.18,21.13,21.13,0,0,1-5.61-.82V320.71C290,322.58,296.55,324.67,303.38,326.54Z"/><path class="cls-2" d="M277.53,322.32c-0.27-1.16-.57-2.27-0.9-3.36,0.64-.25,1.15-0.52,1.78-0.79,1.91,0.76,4.59,1.62,6.59,2.54v10.79a31,31,0,0,1-6.45-2.88A51.35,51.35,0,0,0,277.53,322.32Z"/><path class="cls-2" d="M284.79,296a9.07,9.07,0,0,0-1.12,1.22,8,8,0,0,0-1.63,5.09c-2.4-1-3.81-1.6-3.88-1.63a8,8,0,0,0-3.75-.68c1.14-.64,2.33-1.28,3.54-1.91,2.14-1.1,4.15-2,6.07-2.86A8,8,0,0,0,284.79,296Z"/><path class="cls-2" d="M278.52,318.18c-0.63.27-1.25,0.54-1.89,0.79q-0.28-.91-0.58-1.78Z"/><path class="cls-2" d="M255.13,294a7.35,7.35,0,0,1,6.19-1.91c-0.87,1.18-1.78,2.39-2.73,3.62A36.18,36.18,0,0,0,255.13,294Z"/><path class="cls-2" d="M296.08,307.42a72.34,72.34,0,0,0,6.1-5.69c3.15,1,6.22,2.08,9.06,3.16a27.65,27.65,0,0,1-.77,6.93c-5.14-1.33-10-2.84-14.4-4.31Z"/><path class="cls-2" d="M283.67,297.25a9.07,9.07,0,0,1,1.12-1.22,8,8,0,0,0,3.37,1.75c4.54,1.1,9.37,2.47,14,4a72.34,72.34,0,0,1-6.1,5.69c0-.18.07-0.37,0.09-0.53-0.36.07-.76,0.16-1.18,0.27-5.45-1.86-10-3.62-12.95-4.83A8,8,0,0,1,283.67,297.25Z"/><path class="cls-2" d="M306.42,296.87a21.37,21.37,0,0,0,2.87.86,13.75,13.75,0,0,1,1.89,6.1q-4-2.3-7.22-4C304.8,298.84,305.63,297.87,306.42,296.87Z"/><path class="cls-2" d="M299.44,291.88a14.41,14.41,0,0,0,1.47,1.6,16.71,16.71,0,0,0,5.52,3.39c-0.8,1-1.62,2-2.47,2.93-2.72-1.49-5-2.67-6.69-3.52-2.79-1.37-8.33-4.07-12.48-.25a8,8,0,0,1-.78-0.78C290.21,292.62,295.3,291.5,299.44,291.88Z"/><path class="cls-2" d="M311.18,303.83c0,0.35,0,.71.06,1.07-2.85-1.08-5.91-2.15-9.06-3.16q0.91-1,1.78-1.94Q307.13,301.53,311.18,303.83Z"/><path class="cls-2" d="M284.79,296c4.15-3.82,9.69-1.12,12.48.25,1.73,0.85,4,2,6.69,3.52q-0.87,1-1.78,1.94c-4.65-1.49-9.48-2.86-14-4A8,8,0,0,1,284.79,296Z"/><path class="cls-2" d="M306.89,296.27a7.91,7.91,0,0,0,1.81.58c0.21,0.28.41,0.58,0.59,0.88a21.37,21.37,0,0,1-2.87-.86Z"/><path class="cls-2" d="M306.89,296.27l-0.47.6a16.71,16.71,0,0,1-5.52-3.39,14.41,14.41,0,0,1-1.47-1.6,14.13,14.13,0,0,1,3.7.83A8,8,0,0,0,306.89,296.27Z"/><path class="cls-2" d="M285,315.06c3,1.58,4.56,2.44,6,2.24,1-.15,2.34-1.85,3.4-4.45,2.67,1.44,6.47,3.53,11.79,6.59,0.47,0.27.93,0.54,1.37,0.82a25.67,25.67,0,0,1-4.2,6.29c-6.83-1.87-13.37-4-18.37-5.83v-5.65Z"/><path class="cls-2" d="M285,315.06v5.65c-2-.92-4.68-1.78-6.59-2.54a70.46,70.46,0,0,0,6.5-3.21A0.17,0.17,0,0,1,285,315.06Z"/><path class="cls-2" d="M269.93,305.59c1.54-2,2.88-3.78,4-5.28l0.51-.29a8,8,0,0,1,3.75.68c0.07,0,1.48.66,3.88,1.63a8.44,8.44,0,0,0,2.6,5.8,8,8,0,0,0,3.09,1.87c-1.75.82-3.6,1.76-5.52,2.82q1.49,1.22,2.87,2.14a71.43,71.43,0,0,1-6.56,3.21l-2.46-1A41.34,41.34,0,0,0,269.93,305.59Z"/><path class="cls-2" d="M296.06,307.53c4.37,1.47,9.27,3,14.4,4.31-0.29,1.28-.66,2.61-1.12,4a37.8,37.8,0,0,1-1.75,4.41c-0.44-.27-0.89-0.55-1.36-0.82-5.32-3.06-9.09-5.15-11.77-6.59,0.22-.53.43-1.08,0.62-1.69A28.44,28.44,0,0,0,296.06,307.53Z"/><path class="cls-2" d="M287.72,310a8,8,0,0,1-3.09-1.87,8.44,8.44,0,0,1-2.6-5.8c3,1.21,7.5,3,12.95,4.83A46.92,46.92,0,0,0,287.72,310Z"/><path class="cls-2" d="M307.49,295.48a11.77,11.77,0,0,1,1.2,1.36,7.91,7.91,0,0,1-1.81-.58Z"/><path class="cls-2" d="M303.13,292.71a12.4,12.4,0,0,1,3.06,1.65,12.59,12.59,0,0,1,1.3,1.13l-0.6.79A8,8,0,0,1,303.13,292.71Z"/><path class="cls-9" d="M250.33,325.84a0.88,0.88,0,0,0-.33.26V324A6.17,6.17,0,0,0,250.33,325.84Z"/><path class="cls-9" d="M266.4,295.26a7.47,7.47,0,0,0-5.09-3.17c1-1.32,1.88-2.6,2.7-3.81a7.5,7.5,0,0,1,12.4,8.44c-0.5.73-1.3,1.89-2.34,3.33a8,8,0,0,0-3.27,1.07C269.24,299.19,267.75,297.21,266.4,295.26Z"/><path class="cls-9" d="M259,316.24a7.61,7.61,0,0,0-5.95,1.33,7.17,7.17,0,0,0-3.08,5.59v-15A20.49,20.49,0,0,1,259,316.24Z"/><path class="cls-9" d="M271.34,301.78l-0.53-.66a8,8,0,0,1,3.27-1.07l-0.19.26C273,300.8,272.16,301.3,271.34,301.78Z"/><path class="cls-9" d="M266.4,295.26c1.34,2,2.84,3.93,4.41,5.86a8,8,0,0,0-2.55,2.41,36.65,36.65,0,0,0-9.67-7.82c1-1.22,1.86-2.43,2.73-3.62A7.47,7.47,0,0,1,266.4,295.26Z"/><path class="cls-9" d="M270.81,301.12l0.53,0.66c0.81-.48,1.67-1,2.55-1.47-1.09,1.5-2.43,3.31-4,5.28-0.54-.72-1.1-1.41-1.67-2.06A8,8,0,0,1,270.81,301.12Z"/><path class="cls-10" d="M260,323.29v14.43a101.52,101.52,0,0,1-8.44-9.67,7.3,7.3,0,0,1-1.06-2.21c0.78-.61,1.48-1.24,2.25-1.89A62.43,62.43,0,0,0,260,323.29Z"/><path class="cls-10" d="M269.13,321.42a54.58,54.58,0,0,0,9.48,7.2c0.47,4.82-.17,10.23-5.39,12.63a9.4,9.4,0,0,1-3.89.89c-2.41,0-5.32-1.08-9.32-4.42V323.29A76,76,0,0,0,269.13,321.42Z"/><path class="cls-10" d="M260.22,316.94a7.46,7.46,0,0,0,8.35,3.87l0.66,0.61a71.46,71.46,0,0,1-9,1.87,73.55,73.55,0,0,1-7.33.65A95.37,95.37,0,0,0,260.22,316.94Z"/><path class="cls-10" d="M253.13,302.24c-1,1.16-2.13,2.29-3.13,3.4V292.33a22.53,22.53,0,0,1,5,1.67A7.47,7.47,0,0,0,253.13,302.24Z"/><path class="cls-10" d="M277.53,322.32a49.4,49.4,0,0,1,1.13,6.3,54.35,54.35,0,0,1-9.42-7.2,71.24,71.24,0,0,0,7.39-2.46C277,320,277.26,321.16,277.53,322.32Z"/><path class="cls-10" d="M260.73,317.8a7.55,7.55,0,0,1-.51-0.85c2.43-2.56,4.71-5.18,6.76-7.68a8,8,0,0,0,4.62,6c0.29,0.13,1.88.84,4.45,1.89q0.3,0.87.58,1.78a71.24,71.24,0,0,1-7.39,2.46l-0.66-.61A7.5,7.5,0,0,1,260.73,317.8Z"/><path class="cls-10" d="M253.24,302.24a7.49,7.49,0,0,1,1.89-8.24,36.18,36.18,0,0,1,3.46,1.7C256.9,297.88,255.09,300.1,253.24,302.24Z"/><path class="cls-10" d="M276.05,317.18c-2.56-1-4.15-1.76-4.45-1.89a8,8,0,0,1-4.62-6c1-1.27,2-2.5,2.94-3.68A41.34,41.34,0,0,1,276.05,317.18Z"/><path class="cls-10" d="M250,324c1,0,1.89,0,2.78-.05-0.77.66-1.61,1.29-2.39,1.89A6.26,6.26,0,0,1,250,324h0Z"/><path class="cls-10" d="M250,308.18c0-.28-1.17-0.52-1.72-0.71,0.57-.6,1.72-1.21,1.72-1.83v2.54Z"/><path class="cls-10" d="M250.22,324a7.55,7.55,0,0,1,0-.85V324h0Z"/><path class="cls-10" d="M253.13,302.24a7.78,7.78,0,0,0,.84,1.5c0.14,0.2,2.34,3.36,5.73,7.49a7.49,7.49,0,0,0,.5,5.72,96.63,96.63,0,0,1-7.44,7c-0.89,0-1.77.05-2.77,0.05v-0.84a7.23,7.23,0,0,1,3.14-5.59,7.35,7.35,0,0,1,5.84-1.33,20.4,20.4,0,0,0-9-8.06v-2.54C251,304.54,252.14,303.4,253.13,302.24Z"/><path class="cls-10" d="M268.26,303.53a7.87,7.87,0,0,0-1.27,5.73c-2.05,2.5-4.34,5.12-6.76,7.68a7.49,7.49,0,0,1-.49-5.72c-3.39-4.12-5.57-7.29-5.7-7.49a7.51,7.51,0,0,1-.79-1.5c1.85-2.15,3.65-4.36,5.34-6.53A36.65,36.65,0,0,1,268.26,303.53Z"/><path class="cls-10" d="M267.59,304.73a8,8,0,0,1,.67-1.19c0.57,0.65,1.13,1.34,1.67,2.06C269,306.76,268,308,267,309.27A8,8,0,0,1,267.59,304.73Z"/><path class="cls-11" d="M407.18,207.79a145.06,145.06,0,0,0-29.37-10.3,8,8,0,0,0-4-4.64c-0.27-.13-0.55-0.24-0.82-0.36s-0.65-.3-1-0.43-0.73-.28-1.1-0.41l-0.83-.28a31.8,31.8,0,0,0-4.54-1.09l-0.31-.05a41.2,41.2,0,0,0-5.41-.5c-2.14-1-4.91-2.71-8.34-4.71h0c2.45-1,4.91-2.41,7.36-3.6l0.08,0c2.43-1.19,4.84-2.34,7.22-3.48h0a8,8,0,0,0-6.88-14.44c-2.37,1.13-5.17,2.47-8.25,4a8,8,0,0,0-.18-10,8,8,0,0,0-12.5-8.71c-0.07.06-7.3,5.37-22.11,10.4a18.68,18.68,0,0,0,1.76-4.22A8,8,0,0,0,302.47,151c-0.8,2.17-4.52,7.38-9.74,14h0l-2,.4a63.41,63.41,0,0,1,7.43-10.07,8,8,0,1,0-11.89-10.7,79.67,79.67,0,0,0-6.42,8.14c0-.53-0.1-1-0.18-1.55l0-.24q-0.1-.68-0.23-1.31l0-.1c-0.15-.71-0.31-1.37-0.48-2l0-.15q-0.15-.53-0.31-1l0-.12-0.16-.47-0.09-.25-0.21-.56-0.12-.3-0.09-.22-0.17-.42-0.05-.12-0.14-.32A8,8,0,0,0,263,150.35a11.14,11.14,0,0,1,.51,1.43,11.55,11.55,0,0,1,.47,3.06,3.06,3.06,0,0,1-.18,1.1,0.45,0.45,0,0,1-.1.14,2.34,2.34,0,0,1-.79.44,17.47,17.47,0,0,0-1.68.75l-0.49.27c-0.36.2-.71,0.4-1,0.62l-0.5.34c-0.32.23-.62,0.46-0.92,0.7l-0.42.35q-0.54.48-1,1l-0.14.14c-0.37.4-.71,0.82-1,1.25l-0.28.39c-0.22.31-.44,0.63-0.64,1l-0.29.48q-0.28.48-.53,1l-0.23.47q-0.29.61-.54,1.24l-0.1.24c-0.2.51-.37,1-0.54,1.56l-0.1.36c-0.12.41-.23,0.82-0.33,1.24l-0.11.49q-0.13.59-.24,1.18l-0.08.45q-0.12.71-.21,1.42l0,0.19q-0.1.85-.17,1.69v0.11q-0.06.76-.09,1.52c0,0.11,0,.22,0,0.33,0,0.45,0,.89,0,1.33v1.82h0c0,0.26,0,.51.06,0.77s0,0.23,0,.34,0,0.5.05,0.75c0,0.09,0,.18,0,0.26,0.06,0.84.14,1.64,0.22,2.4l0,0.17c0,0.24.06,0.48,0.09,0.71l0,0.17c0.09,0.72.19,1.38,0.29,2l0,0.15,0.09,0.5,0,0.22,0.08,0.43,0,0.17,0.12,0.62,0.05,0.25,0,0.21,0.05,0.25,0,0.13,0.07,0.29a8,8,0,0,0,7.78,6.17,8.07,8.07,0,0,1-7.84-6.17,56.32,56.32,0,0,1-1.43-10.79l-0.95,0V292.33a23,23,0,0,1,5,1.67,8.88,8.88,0,0,1,1-.69A7.52,7.52,0,0,0,254,303.74c0.14,0.2,2.31,3.36,5.7,7.49a7.49,7.49,0,0,0,.49,5.72,95.47,95.47,0,0,1-7.33,7h-0.12a96.65,96.65,0,0,0,7.44-7,7.5,7.5,0,0,1-.5-5.72c-3.39-4.12-5.6-7.29-5.73-7.49a7.8,7.8,0,0,1-.84-1.5A7.47,7.47,0,0,1,255,294a22.54,22.54,0,0,0-5-1.67v13.31c0,0.62-1.15,1.23-1.72,1.83,0.54,0.2,1.72.43,1.72,0.71v15a7.17,7.17,0,0,1,3.08-5.59,7.49,7.49,0,0,1,2.89-1.3,7.45,7.45,0,0,0-2.83,1.3,7.23,7.23,0,0,0-3.14,5.59V324c1,0,1.87,0,2.75-.05h0c-0.88,0-1.76.05-2.75,0.05h0v2.08a0.88,0.88,0,0,1,.33-0.26,7.61,7.61,0,0,1-.27-1.21,10.1,10.1,0,0,0,.32,1.21c0.63-.48,1.28-1,1.91-1.51-0.6.52-1.18,1-1.8,1.51a7.31,7.31,0,0,0,1.06,2.21,101.52,101.52,0,0,0,8.44,9.67v20.62a29,29,0,0,0-2.49,6.65c-2.24,10.82,4,19.2,28.73,24.31s46.46,0.48,48.7-10.34-16.11-23.73-40.81-28.83a67.74,67.74,0,0,0-9.12-1.29V331.51a21.13,21.13,0,0,0,5.61.82,18.81,18.81,0,0,0,2.58-.18,16.74,16.74,0,0,0,10.2-5.61h0a25.67,25.67,0,0,0,4.2-6.28c-0.44-.27-0.9-0.55-1.37-0.82-5.32-3.06-9.12-5.15-11.79-6.59-1.06,2.6-2.37,4.3-3.4,4.45a3.09,3.09,0,0,1-.56,0,3.07,3.07,0,0,0,.53,0c1-.15,2.37-1.85,3.43-4.45-1.31-.71-2.41-1.26-3.25-1.68l0,0,0.65,0.34,0.09,0,0.68,0.35,0.06,0,0.81,0.43,0,0,0.92,0.49,0,0,1,0.54,0.07,0,1,0.57,0.15,0.08,1.08,0.6L298,314.8l1.08,0.6,0.35,0.2,1.08,0.61,0.43,0.24,1.18,0.67,0.44,0.25,1.36,0.77,0.39,0.22,1.88,1.08c0.47,0.27.92,0.54,1.35,0.81h0a25.5,25.5,0,0,1-4,6.29c3.67,1,7.46,1.95,11.46,2.75h0a4.56,4.56,0,0,1-1,2.24l-0.06.06c-0.09.14-.19,0.27-0.28,0.39l-0.1.12-0.23.3-0.14.17-0.16.18-0.27.28a8,8,0,0,0,4,15c6.29,0,12-8.39,13.56-14.18,0.08-.32.16-0.65,0.24-1v-0.05q0.11-.53.2-1.11h0c2.58,0.22,5.13.34,7.63,0.34,19.05,0,25.09,3,26.09,3.54a8,8,0,0,0,12.43-10c-2.35-3.52-8.71-7.59-25.06-9h0a7.92,7.92,0,0,0,.88-0.72l0.12-.11a8,8,0,0,0,.8-0.9h0l0,0a8.06,8.06,0,0,0,.47-0.71l0.08-.15c0.12-.21.23-0.43,0.33-0.64l0-.1q0.16-.36.28-0.74v0a7.89,7.89,0,0,0,.21-0.82h0c0.16,0.14.33,0.27,0.5,0.39s0.44,0.31.67,0.44l0.31,0.16a7.54,7.54,0,0,0,1,.45h0l0.54,0.17a8,8,0,0,0,1.48.27l0.67,0h0a7.72,7.72,0,0,0,1.09-.08l0.21,0a7.88,7.88,0,0,0,.89-0.21l0.41-.13c0.23-.08.46-0.17,0.68-0.27s0.39-.19.58-0.29l0.07,0a8,8,0,0,0,1.07-.72h0l3.22,1.72,0.1,0.05,1.3,0.7,0.26,0.14,1.36,0.73a8,8,0,0,0,10-12.1q-0.25-.3-0.52-0.58a8,8,0,0,0-1.23-1,8.07,8.07,0,0,0-.7-0.42l-6.07-3.24-0.23-.12h0a7.93,7.93,0,0,0,1.16.29l0.17,0a8,8,0,0,0,4.93-15l-0.1-.06h0c-0.5-.28-2.49-1.4-5.24-3.27h0c0.6-.31,1.17-0.65,1.73-1l0.58-.4q0.6-.42,1.17-0.88l0.51-.42a19.57,19.57,0,0,0,1.5-1.43,71.77,71.77,0,0,0,10.74-15q0.38-.71.74-1.42,0.71-1.4,1.32-2.74a67.67,67.67,0,0,0,3.44-9.29c0.36-1.27.64-2.37,0.84-3.27,0.35-1.58.48-2.54,0.5-2.7a8,8,0,0,0-6.91-9,8.09,8.09,0,0,0-.82-0.06,8,8,0,0,0-8.14,7,51.71,51.71,0,0,1-7.68,18.1H373a7.11,7.11,0,0,0-5.29-7.08H368v-0.48a3.81,3.81,0,0,1,.13-1l-0.09.22c0.09-.33.1-0.77,0.15-0.77h0c0-1,0-.27.06-0.28,0.55-.22,1.08-0.58,1.61-0.82,0.17-.08.34-0.22,0.51-0.3,0.4-.19.8-0.42,1.19-0.63l0.49-.28c0.53-.29,1.05-0.6,1.56-0.92l0,0c0.5-.31,1-0.65,1.46-1l0.44-.33q0.53-.4,1-0.82l0.42-.35c0.45-.39.9-0.79,1.33-1.22h0a8,8,0,0,0-.94-12.16l-0.25-.18-0.15-.09c-0.17-.11-0.35-0.22-0.53-0.32l-0.27-.13-0.44-.21-0.25-.09-0.49-.17-0.27-.07-0.48-.12-0.18,0-0.58-.09h-0.28l-0.49,0h0a8,8,0,0,0,.29-1c0-.06-0.08-0.13-0.07-0.19a5.91,5.91,0,0,0,0-1.07h0c0-.36.11-0.72,0.07-1.08,0-.08,0-0.17,0-0.25a8,8,0,0,0-.18-1.09c-0.07-.25-0.13-0.49-0.22-0.73l-0.09-.23c-0.06-.16-0.13-0.31-0.2-0.46l-0.13-.26-0.22-.38-0.17-.27-0.24-.34-0.2-.26-0.25-.29-0.23-.26-0.23-.22a8.05,8.05,0,0,0-.65-0.56l-0.14-.11-0.41-.28-0.16-.1-0.45-.25-0.15-.08-0.49-.23-0.1,0a8,8,0,0,0-3.18-.58h0a8,8,0,0,0,.17-2.15v-0.07a8,8,0,0,0-.12-0.93l0-.23a8,8,0,0,0-.28-1c0-.11-0.09-0.22-0.14-0.33s-0.09-.22-0.13-0.32c0.61,0,1.24.09,1.88,0.16l0.39,0c0.62,0.07,1.26.15,1.9,0.24h0.05c0.68,0.1,1.37.21,2.07,0.34l0.37,0.07,1.86,0.36,0.27,0.06,2.16,0.48,0.27,0.06,2,0.49L378,214c1.47,0.39,2.94.81,4.41,1.26l0.39,0.12c1.47,0.46,2.94.94,4.39,1.45l0.33,0.12,2,0.74,0.11,0,2.18,0.83,0.19,0.08,1.95,0.78,0.2,0.08c1.38,0.57,2.72,1.14,4,1.72l0.2,0.09,1.85,0.86A8,8,0,0,0,407.18,207.79ZM259,316.23h0a7.48,7.48,0,0,0-1.48-.14A7.59,7.59,0,0,1,259,316.23Zm19.57,12.36a54.63,54.63,0,0,1-9.39-7.14l0.09,0a54.58,54.58,0,0,0,9.3,7.13v0ZM268,172.18a2.71,2.71,0,0,1,.14-0.25l0.1-.14,0.11-.13a0.75,0.75,0,0,1,.24-0.17c0.46-.17.89-0.37,1.32-0.57s0.64-.31,1-0.48h0l-0.32.93h0l-1.33.61-0.2.09-1.2.6c0-.14.1-0.26,0.16-0.38Zm72.88,0.26-4.51,2.28-0.43-.24h0c1.89-.88,3.81-1.7,5.76-2.45Zm-81.48,151c-0.81.12-1.72,0.22-2.66,0.31C257.59,323.61,258.48,323.5,259.36,323.39Zm-2.9.33c-1.08.09-2.19,0.16-3.26,0.21C254.29,323.88,255.38,323.81,256.46,323.72Zm16.78,17.46a9.46,9.46,0,0,1-3.91.82h0a9.37,9.37,0,0,0,3.89-.82,8.66,8.66,0,0,0,4.19-3.93A8.53,8.53,0,0,1,273.24,341.18ZM285,315h0v0.06A0.07,0.07,0,0,0,285,315Z"/><path class="cls-2" d="M173.13,465.94V465h3.75v11.25h3.75v1.88H169.38v-1.87h3.75v-7.5h-1.87v-1.87h1.88v-0.94Z"/><path class="cls-2" d="M188.13,465.94V465h3.75v11.25h3.75v1.88H184.38v-1.87h3.75v-7.5h-1.87v-1.87h1.88v-0.94Z"/><path class="cls-2" d="M203.13,465.94V465h5.63v7.5h1.88v1.88h-1.87v3.75H205v-3.75h-7.5v-3.75h1.88v-1.87h1.88v-1.87h1.88v-0.94Zm1.88,4.69v-1.87h-1.87v1.88h-1.87v1.88H205v-1.87Z"/><path class="cls-2" d="M229.38,465.94V465h11.25v1.88h-3.75v11.25h-3.75V466.88h-3.75v-0.94Z"/><path class="cls-2" d="M246.25,465.94V465h5.63v1.88h1.88v1.88h1.88v9.38h-3.75v-3.75h-5.62v3.75H242.5v-9.37h1.88v-1.87h1.88v-0.94Zm3.75,1.88v-0.94h-1.87v1.88h-1.87v3.75h5.63v-3.75H250v-0.94Z"/><path class="cls-2" d="M257.5,471.56V465h3.75v1.88h1.88v1.88H265v1.88h1.88V465h3.75v13.13h-3.75v-1.87H265v-1.87h-1.87V472.5h-1.87v5.63H257.5v-6.56Z"/><path class="cls-2" d="M276.25,465.94V465h9.38v1.88h-7.5v1.88h-1.87v5.63h1.88v1.88h3.75V472.5H280v-1.87h5.63v7.5h-9.37v-1.87h-1.87v-1.87H272.5v-5.62h1.88v-1.87h1.88v-0.94Z"/><path class="cls-2" d="M287.5,471.56V465h13.13v1.88h-9.37v3.75h7.5v1.88h-7.5v3.75h9.38v1.88H287.5v-6.56Z"/><path class="cls-2" d="M304.38,471.56V465h3.75v11.25h7.5v1.88H304.38v-6.56Z"/><path class="cls-2" d="M321.25,465.94V465h5.63v1.88h1.88v1.88h1.88v9.38h-3.75v-3.75h-5.62v3.75H317.5v-9.37h1.88v-1.87h1.88v-0.94Zm3.75,1.88v-0.94h-1.87v1.88h-1.87v3.75h5.63v-3.75H325v-0.94Z"/></svg>