<?xml version="1.0" ?><svg id="pkflt" viewBox="0 0 500 500" xmlns="http://www.w3.org/2000/svg"><defs><style>.cls-1{fill:#b3917d;}.cls-2{fill:none;}.cls-3{fill:#fbe3ad;}.cls-4{fill:#c9a08f;}.cls-5{fill:#596b4c;}.cls-6{fill:#fff;}.cls-7{fill:#ad2a5a;}.cls-8{fill:#1a1a1a;}.cls-9{fill:#efafde;}.cls-10{fill:#fef6ca;}.cls-11{fill:#bfbfed;}.cls-12{fill:#838d5d;}.cls-13{fill:#acace2;}.cls-14{fill:#f9f1c5;}.cls-15{fill:#e5e4c3;}.cls-16{fill:#f4d295;}.cls-17{opacity:0.1;}</style></defs><title/><path class="cls-1" d="M218.85,114.41l1.18,2.1Z"/><path class="cls-1" d="M217.46,112l1.25,2.2Z"/><path class="cls-1" d="M216.49,110.25l0.5,0.87Z"/><path class="cls-1" d="M224,123.71l1.28,2.36c-1.06-2-2.24-4.13-3.45-6.32l1.65,3Z"/><path class="cls-1" d="M220.18,116.78l1.62,2.9Z"/><path class="cls-2" d="M212,120a15.76,15.76,0,0,0,4,2.84c2,1.13,4.35,2.39,6.61,3.54,1.39,0.7,2.72,1.36,3.86,1.92l-1.18-2.23c-1.06-2-2.24-4.13-3.45-6.32l0-.08-1.62-2.9-0.08-.14-0.06-.11-1.18-2.1-0.07-.13-0.08-.13-1.25-2.2-0.47-.84-0.5-.87-1.09-1.91C213.58,112.27,211,118.49,212,120Z"/><path class="cls-2" d="M243.65,159.23a1,1,0,0,0,1.36-1.47l-6.67-6.18A1,1,0,1,0,237,153Z"/><path class="cls-3" d="M210,90s-15.33-10-20-10-20,2.33-20,2.33S178.67,90,184.33,90s5,11.33,10.33,14.33,12.83,4,12.83,4C209,102.91,210,99,210,99V90Z"/><path class="cls-2" d="M243.65,159.23a1,1,0,0,0,1.36-1.47l-6.67-6.18A1,1,0,1,0,237,153Z"/><path class="cls-4" d="M225.88,153.74c0.2,0.17.4,0.33,0.59,0.51A72.56,72.56,0,0,0,242.75,165a39.37,39.37,0,0,0,7.25,2.25V136H230c-0.17-1-1.56-3.93-3.53-7.7-1.14-.56-2.47-1.22-3.86-1.92-2.26-1.15-4.65-2.41-6.61-3.54a15.76,15.76,0,0,1-4-2.84c-1-1.51,1.58-7.73,3.4-11.67l-1.86-3.24C211.44,101.45,210,99,210,99s-1,3.91-2.5,9.33c-2.37,8.57-6,20.93-8.83,27.67-4.67,11,0,16.32,0,16.32l4.63,7.18,1,0.55c6,3.36,38.11,21,45.74,18.12V170s-14.57-3.53-26.19-11l-1.19,3-0.81-4.37c-4.21-3-7.86-6.51-10-10.63a34.09,34.09,0,0,1,8.62,3.08A28.45,28.45,0,0,1,225.88,153.74Zm11.05-2.11a1,1,0,0,1,1.41-.05l6.67,6.18a1,1,0,0,1-1.36,1.47L237,153A1,1,0,0,1,236.93,151.64Z"/><path class="cls-5" d="M210,90v9s1.44,2.45,3.53,6.09l1.86,3.24,1.09,1.91,0.5,0.87,0.47,0.84,1.25,2.2,0.08,0.13,0.07,0.13,1.18,2.1,0.06,0.11,0.08,0.14,1.62,2.9,0,0.08c1.21,2.18,2.39,4.33,3.45,6.32l1.18,2.23c2,3.76,3.36,6.68,3.53,7.7h20V70C221.5,69,210,90,210,90Z"/><path class="cls-6" d="M222.61,126.38c1.39,0.7,2.72,1.36,3.86,1.92l-1.18-2.23L224,123.71A13.05,13.05,0,0,1,222.61,126.38Z"/><path class="cls-6" d="M225.29,126.07l1.18,2.23Z"/><path class="cls-6" d="M212,120a15.76,15.76,0,0,0,4,2.84,16.09,16.09,0,0,1,.44-3.33,14.21,14.21,0,0,1,2.33-5.22l-0.08-.13-1.25-2.2-0.47-.84-0.5-.87-1.09-1.91C213.58,112.27,211,118.49,212,120Z"/><path class="cls-6" d="M217,111.12l0.47,0.84Z"/><path class="cls-6" d="M218.78,114.29l-0.08-.13,0.08,0.13h0Z"/><path class="cls-6" d="M215.4,108.33l1.09,1.91Z"/><path class="cls-7" d="M216.45,119.51a16.09,16.09,0,0,0-.44,3.33c2,1.13,4.35,2.39,6.61,3.54a13.05,13.05,0,0,0,1.4-2.67l-0.52-.95c-0.86,1.62-2.07,2.6-3.14,2.34-1.47-.37-2.1-2.94-1.4-5.76v0a1.18,1.18,0,0,1-.83-1.12,1.19,1.19,0,0,1,1.19-1.19,1.17,1.17,0,0,1,.5.12c0.09-.17.18-0.33,0.28-0.48l-0.06-.12-1.18-2.1-0.07-.13A14.21,14.21,0,0,0,216.45,119.51Z"/><path class="cls-7" d="M218.85,114.41l-0.07-.13h0Z"/><path class="cls-7" d="M220.1,116.63l-0.06-.11,0.06,0.12h0Z"/><path class="cls-8" d="M219.82,117.11a1.19,1.19,0,0,1-.5,2.27,1.17,1.17,0,0,1-.36-0.07v0c-0.7,2.81-.07,5.39,1.4,5.76,1.07,0.27,2.28-.71,3.14-2.34l-1.65-3,0-.08-1.62-2.9-0.08-.14C220,116.78,219.91,116.94,219.82,117.11Z"/><path class="cls-8" d="M220.18,116.78l-0.08-.14h0Z"/><path class="cls-8" d="M221.8,119.67l0,0.08Z"/><path class="cls-6" d="M220.52,118.18a1.19,1.19,0,0,0-.69-1.08,1.17,1.17,0,0,0-.5-0.12,1.19,1.19,0,0,0-1.19,1.19,1.26,1.26,0,0,0,1.19,1.19A1.19,1.19,0,0,0,220.52,118.18Z"/><path class="cls-9" d="M211.78,147c2.17,4.12,5.82,7.65,10,10.63l-1.4-7.55A34.09,34.09,0,0,0,211.78,147Z"/><path class="cls-9" d="M226.47,154.25c-0.19-.18-0.39-0.34-0.59-0.51L223.81,159c11.62,7.48,26.19,11,26.19,11v-2.75a39.37,39.37,0,0,1-7.25-2.25A72.56,72.56,0,0,1,226.47,154.25Z"/><path class="cls-6" d="M220.4,150.08l1.4,7.55,0.81,4.37,1.19-3,2.08-5.24A28.45,28.45,0,0,0,220.4,150.08Z"/><path class="cls-8" d="M243.65,159.23a1,1,0,0,0,1.36-1.47l-6.67-6.18A1,1,0,1,0,237,153Z"/><path class="cls-10" d="M237.09,229.43a7.85,7.85,0,0,1,1.14-2.68h0L230,225.17l4.84,10.06h0C235.87,232.32,236.8,230.1,237.09,229.43Z"/><path class="cls-11" d="M234.84,235.23l2.2-5.51c0-.1,0-0.2,0-0.29C236.8,230.1,235.87,232.32,234.84,235.23Z"/><path class="cls-12" d="M237.18,229.22l0,0.06,1-2.53a7.85,7.85,0,0,0-1.14,2.68Z"/><path class="cls-12" d="M237.09,229.43c0,0.09,0,.19,0,0.29l0.18-.44,0-.06Z"/><polygon class="cls-1" points="237.04 229.72 237.22 229.28 238.23 226.75 238.23 226.74 230 225.17 234.84 235.23 234.84 235.23 237.04 229.72"/><path class="cls-1" d="M204.26,160l-1-.3s-0.42.74-1.16,2.12a345.24,345.24,0,0,0-27.23,68.32,218.07,218.07,0,0,0-7.23,40.15c0.12,0,2.68.31,6.85,0.75,0.59-4,8.68-57.3,22.07-66,13.91-9,41.41-18.62,53.41-17.62v-9.33C242.38,181,210.26,163.4,204.26,160Z"/><path class="cls-3" d="M196.59,205.13c-13.38,8.66-21.48,62-22.07,66,12.16,1.31,38,3.94,57.14,4.84l1.18-11.48s-5.16,2.45-8.66,2.89-5.82-.21-5.65-3.88,13.33-9.59,13.33-9.59h0a5.18,5.18,0,0,1-.41-1.31c-0.75-4.51,1.46-12,3.34-17.33L230,225.17l8.23,1.57h0c3.34-5,11.77-5.5,11.77-5.5V187.5C238,186.5,210.5,196.13,196.59,205.13Z"/><path class="cls-13" d="M241.12,259.69c-3.89-1.09-7.87-2.88-9.22-5.82h0s-13.16,5.93-13.33,9.59,2.15,4.32,5.65,3.88,8.66-2.89,8.66-2.89l-1.18,11.48,3.93,0.17C235.1,271.84,234.95,263.08,241.12,259.69Z"/><path class="cls-14" d="M241.12,259.69c-6.18,3.39-6,12.14-5.53,16.4,2.52,0.09,4.87.14,7,.15,2.9,0,5.41-.06,7.39-0.24V261.25a50.07,50.07,0,0,1-5.26-.72C243.61,260.31,242.37,260,241.12,259.69Z"/><path class="cls-11" d="M244.41,258.56a10.9,10.9,0,0,0-3.29,1.13c1.25,0.35,2.48.62,3.62,0.84Z"/><path class="cls-15" d="M90.5,433h34.85l-9.85,6H167l24.5-6.09-57.1-22.57S95,428,90.5,433Z"/><path class="cls-1" d="M187,383.5c0.13-2.15.32-4.23,0.55-6.23-13.88-20.7-23.66-52.44-20.34-101.09-5,2.66-48.94,26.53-52.72,38.32-4,12.5-24.5,32-5.5,63S134.36,410,134.36,410l57.14,22.91L196.59,419S186,400,187,383.5Z"/><path class="cls-16" d="M242.61,276.24c-2.15,0-4.5-.06-7-0.15l-3.93-.17c-19.12-.91-45-3.54-57.14-4.84-4.17-.45-6.73-0.74-6.85-0.75h0c-0.17,2-.32,3.92-0.45,5.84-3.32,48.65,6.45,80.39,20.34,101.09C212.27,414.12,250,416,250,416V276C248,276.18,245.51,276.25,242.61,276.24Z"/><path class="cls-11" d="M243.41,248.94c-1,.75-2.9,0-4.14-1.74s-1.4-3.72-.35-4.47a1.69,1.69,0,0,1,1.23-.25c-1.74-3.66-3.07-7.38-3.25-10.47a9.43,9.43,0,0,1,.14-2.28l-2.2,5.51h0c-1.88,5.29-4.09,12.82-3.34,17.33a5.18,5.18,0,0,0,.41,1.31c1.34,2.93,5.33,4.73,9.22,5.82a10.9,10.9,0,0,1,3.29-1.13l0.33,2a50.07,50.07,0,0,0,5.26.72V258.5a114.9,114.9,0,0,1-6.45-9.72A1.33,1.33,0,0,1,243.41,248.94Z"/><path class="cls-12" d="M238.23,226.75l-1,2.53-0.18.44a9.43,9.43,0,0,0-.14,2.28c0.18,3.09,1.51,6.81,3.25,10.47a4.62,4.62,0,0,1,2.9,2c0.11,0.15.19,0.3,0.29,0.45a4.32,4.32,0,0,1,.69,3,1.76,1.76,0,0,1-.48.9A114.9,114.9,0,0,0,250,258.5V221.25S241.57,221.71,238.23,226.75Z"/><path class="cls-8" d="M243.06,247.95l0.49,0.84a1.76,1.76,0,0,0,.48-0.9A1.48,1.48,0,0,1,243.06,247.95Z"/><path class="cls-8" d="M238.92,242.73c-1,.75-0.89,2.76.35,4.47s3.09,2.5,4.14,1.74a1.33,1.33,0,0,0,.14-0.16l-0.49-.84a1.54,1.54,0,0,1-1.16-1.49A1.52,1.52,0,0,1,242,246a1.54,1.54,0,0,1,1.37-1.09c-0.09-.15-0.18-0.3-0.29-0.45a4.62,4.62,0,0,0-2.9-2A1.69,1.69,0,0,0,238.92,242.73Z"/><path class="cls-6" d="M241.9,246.45a1.54,1.54,0,0,0,1.16,1.49c-0.37-.63-0.73-1.28-1.09-1.94A1.52,1.52,0,0,0,241.9,246.45Z"/><path class="cls-6" d="M242,246c0.36,0.66.72,1.3,1.09,1.94a1.48,1.48,0,0,0,1-.06,4.32,4.32,0,0,0-.69-3A1.54,1.54,0,0,0,242,246Z"/><path class="cls-15" d="M123.7,144L121,120.88,113,140A12,12,0,0,1,123.7,144Z"/><polygon class="cls-15" points="91.67 114.41 96.68 144.43 107.98 141.24 91.67 114.41"/><path class="cls-15" d="M92.64,145.85L66.33,134.67l20,22.42A12.07,12.07,0,0,1,92.64,145.85Z"/><path class="cls-4" d="M180,156c-11,5-25,8.46-26,11.46s5,4.5,5,7.5c0,1.65-11.28,7.05-21.8,12.67l-11-39.09A11.87,11.87,0,0,0,123.7,144,12,12,0,0,0,113,140a11.92,11.92,0,0,0-1.68.33l-3.39,1-11.3,3.18L95,144.9a11.93,11.93,0,0,0-2.37,1,12.07,12.07,0,0,0-6.35,11.23,11.91,11.91,0,0,0,.42,2.62l21.57,76.53a12,12,0,0,0,14.81,8.29l14.76-4.16a6.49,6.49,0,0,0,2.15-.49c11-4.53,26.88-8,34.91-9.69a345.24,345.24,0,0,1,27.23-68.32S191,151.08,180,156Z"/><path class="cls-1" d="M281.48,114.41l-1.18,2.1Z"/><path class="cls-1" d="M282.87,112l-1.25,2.2Z"/><path class="cls-1" d="M283.84,110.25l-0.5.87Z"/><path class="cls-1" d="M276.32,123.71L275,126.07c1.06-2,2.24-4.13,3.45-6.32l-1.65,3Z"/><path class="cls-1" d="M280.15,116.78l-1.62,2.9Z"/><path class="cls-2" d="M288.33,120a15.76,15.76,0,0,1-4,2.84c-2,1.13-4.35,2.39-6.61,3.54-1.39.7-2.72,1.36-3.86,1.92l1.18-2.23c1.06-2,2.24-4.13,3.45-6.32l0-.08,1.62-2.9,0.08-.14,0.06-.11,1.18-2.1,0.07-.13,0.08-.13,1.25-2.2,0.47-.84,0.5-.87,1.09-1.91C286.75,112.27,289.34,118.49,288.33,120Z"/><path class="cls-2" d="M256.68,159.23a1,1,0,0,1-1.36-1.47l6.67-6.18a1,1,0,1,1,1.36,1.47Z"/><path class="cls-3" d="M290,90s15.5-10,20.17-10,20.08,2.33,20.08,2.33S321.63,90,316,90s-5,11.33-10.31,14.33-13,4-13,4C291.16,102.91,290,99,290,99V90Z"/><path class="cls-2" d="M256.68,159.23a1,1,0,0,1-1.36-1.47l6.67-6.18a1,1,0,1,1,1.36,1.47Z"/><path class="cls-4" d="M279.93,150.08a34.09,34.09,0,0,1,8.62-3.08c-2.17,4.12-5.82,7.65-10,10.63L277.72,162l-1.36-3C264.74,166.47,250,170,250,170v8.17c8,2.87,39.91-14.77,45.9-18.12,0.63-.35,1.05-0.55,1.05-0.55l4.67-7.18s4.69-5.32,0-16.32c-2.86-6.74-6.45-19.1-8.82-27.67-1.5-5.42-2.5-9.33-2.5-9.33s-1.43,2.45-3.53,6.09l-1.86,3.24c1.82,3.94,4.4,10.16,3.4,11.67a15.76,15.76,0,0,1-4,2.84c-2,1.13-4.35,2.39-6.61,3.54-1.39.7-2.72,1.36-3.86,1.92-2,3.76-3.36,6.7-3.53,7.7H250v31.25a39.64,39.64,0,0,0,7.42-2.25,72.54,72.54,0,0,0,16.36-10.75c0.19-.18.44-0.34,0.63-0.51A28.7,28.7,0,0,1,279.93,150.08Zm-16.59,3-6.67,6.18a1,1,0,0,1-1.36-1.47l6.67-6.18A1,1,0,1,1,263.35,153Z"/><path class="cls-5" d="M290,90v9s-1.27,2.45-3.37,6.09c-0.58,1-1.12,2.09-1.78,3.24-0.35.62-.68,1.26-1.05,1.91-0.17.29-.31,0.58-0.48,0.87l-0.46.84-1.24,2.2-0.07.13-0.07.13-1.18,2.1-0.06.11-0.08.14-1.62,2.9,0,0.08c-1.21,2.18-2.39,4.33-3.45,6.32l-1.18,2.23c-2,3.76-3.36,6.7-3.53,7.7H250V70C279,69,290,90,290,90Z"/><path class="cls-6" d="M277.72,126.38c-1.39.7-2.72,1.36-3.86,1.92l1.18-2.23,1.28-2.36A13.05,13.05,0,0,0,277.72,126.38Z"/><path class="cls-6" d="M275,126.07l-1.18,2.23Z"/><path class="cls-6" d="M288.33,120a15.76,15.76,0,0,1-4,2.84,16.09,16.09,0,0,0-.44-3.33,14.21,14.21,0,0,0-2.33-5.22l0.08-.13,1.25-2.2,0.47-.84,0.5-.87,1.09-1.91C286.75,112.27,289.34,118.49,288.33,120Z"/><path class="cls-6" d="M283.35,111.12l-0.47.84Z"/><path class="cls-6" d="M281.55,114.29l0.08-.13-0.08.13h0Z"/><path class="cls-6" d="M284.94,108.33l-1.09,1.91Z"/><path class="cls-7" d="M283.89,119.51a16.09,16.09,0,0,1,.44,3.33c-2,1.13-4.35,2.39-6.61,3.54a13.05,13.05,0,0,1-1.4-2.67l0.52-.95c0.86,1.62,2.07,2.6,3.14,2.34,1.47-.37,2.1-2.94,1.4-5.76v0a1.18,1.18,0,0,0,.83-1.12A1.19,1.19,0,0,0,281,117a1.17,1.17,0,0,0-.5.12c-0.09-.17-0.18-0.33-0.28-0.48l0.06-.12,1.18-2.1,0.07-.13A14.21,14.21,0,0,1,283.89,119.51Z"/><path class="cls-7" d="M281.48,114.41l0.07-.13h0Z"/><path class="cls-7" d="M280.23,116.63l0.06-.11-0.06.12h0Z"/><path class="cls-8" d="M280.51,117.11a1.19,1.19,0,0,0,.5,2.27,1.17,1.17,0,0,0,.36-0.07v0c0.7,2.81.07,5.39-1.4,5.76-1.07.27-2.28-.71-3.14-2.34l1.65-3,0-.08,1.62-2.9,0.08-.14C280.33,116.78,280.42,116.94,280.51,117.11Z"/><path class="cls-8" d="M280.15,116.78l0.08-.14h0Z"/><path class="cls-8" d="M278.53,119.67l0,0.08Z"/><path class="cls-6" d="M279.82,118.18a1.19,1.19,0,0,1,.69-1.08A1.17,1.17,0,0,1,281,117a1.19,1.19,0,0,1,1.19,1.19,1.26,1.26,0,0,1-1.19,1.19A1.19,1.19,0,0,1,279.82,118.18Z"/><path class="cls-9" d="M288.56,147c-2.17,4.12-5.82,7.65-10,10.63l1.4-7.55A34.09,34.09,0,0,1,288.56,147Z"/><path class="cls-9" d="M273.86,154.25c0.19-.18.39-0.34,0.59-0.51l1.91,5.24C264.74,166.47,250,170,250,170v-2.75a39.64,39.64,0,0,0,7.42-2.25C259.92,163.75,267.58,160,273.86,154.25Z"/><path class="cls-6" d="M279.93,150.08l-1.4,7.55L277.72,162l-1.19-3-2.08-5.24A28.45,28.45,0,0,1,279.93,150.08Z"/><path class="cls-8" d="M256.68,159.23a1,1,0,0,1-1.36-1.47l6.67-6.18a1,1,0,1,1,1.36,1.47Z"/><path class="cls-10" d="M263.24,229.43a7.85,7.85,0,0,0-1.14-2.68h0l8.23-1.57-4.84,10.06h0C264.46,232.32,263.53,230.1,263.24,229.43Z"/><path class="cls-11" d="M265.5,235.23l-2.2-5.51c0-.1,0-0.2,0-0.29C263.53,230.1,264.46,232.32,265.5,235.23Z"/><path class="cls-12" d="M263.15,229.22l0,0.06-1-2.53a7.85,7.85,0,0,1,1.14,2.68Z"/><path class="cls-12" d="M263.24,229.43c0,0.09,0,.19,0,0.29l-0.18-.44,0-.06Z"/><polygon class="cls-1" points="263.29 229.72 263.12 229.28 262.11 226.75 262.1 226.74 270.33 225.17 265.5 235.23 265.5 235.23 263.29 229.72"/><path class="cls-1" d="M295.9,160l1.05-.3s0.46,0.74,1.2,2.12a344.85,344.85,0,0,1,27.25,68.32,218.08,218.08,0,0,1,7.24,40.15c-0.12,0-2.68.31-6.84,0.75-0.59-4-8.85-57.3-22.23-66-13.91-9-41.57-18.62-53.57-17.62v-9.33C258,181,289.91,163.4,295.9,160Z"/><path class="cls-3" d="M303.57,205.13c13.38,8.66,21.56,62,22.15,66-12.16,1.31-38,3.94-57.1,4.84l-1.16-11.48s5.17,2.45,8.67,2.89,5.83-.21,5.66-3.88-13.33-9.59-13.33-9.59h0a5.18,5.18,0,0,0,.41-1.31c0.75-4.51-1.46-12-3.34-17.33l4.84-10.06-8.23,1.57h-0.16c-3.34-5-11.94-5.5-11.94-5.5V187.5C262,186.5,289.67,196.13,303.57,205.13Z"/><path class="cls-13" d="M259.21,259.69c3.89-1.09,7.87-2.88,9.22-5.82h0s13.16,5.93,13.33,9.59-2.15,4.32-5.65,3.88-8.66-2.89-8.66-2.89l1.18,11.48-3.93.17C265.23,271.84,265.39,263.08,259.21,259.69Z"/><path class="cls-14" d="M259.21,259.69c6.18,3.39,6,12.14,5.53,16.4-2.52.09-5,.14-7.19,0.15-2.9,0-5.55-.06-7.55-0.24V261.25a49.88,49.88,0,0,0,5.42-.72C256.56,260.31,258,260,259.21,259.69Z"/><path class="cls-11" d="M255.92,258.56a10.9,10.9,0,0,1,3.29,1.13c-1.25.35-2.48,0.62-3.62,0.84Z"/><path class="cls-15" d="M409.83,433H375l9.85,6h-51.5l-24.5-6.09,57.1-22.57S405.33,428,409.83,433Z"/><path class="cls-1" d="M313.33,383.5c-0.13-2.15-.32-4.23-0.55-6.23,13.88-20.7,23.66-52.44,20.34-101.09,5,2.66,48.94,26.53,52.72,38.32,4,12.5,24.5,32,5.5,63S366,410,366,410l-57.14,22.91L303.74,419S314.33,400,313.33,383.5Z"/><path class="cls-16" d="M257.55,276.24c2.15,0,4.58-.06,7.11-0.15l4-.17c19.12-.91,45-3.54,57.16-4.84,4.17-.45,6.74-0.74,6.86-0.75h0c0.17,2,.32,3.92.45,5.84,3.32,48.65-6.62,80.39-20.5,101.09C287.89,414.12,250,416,250,416V276C252,276.18,254.66,276.25,257.55,276.24Z"/><path class="cls-11" d="M256.92,248.94c1,0.75,2.9,0,4.14-1.74s1.4-3.72.35-4.47a1.69,1.69,0,0,0-1.23-.25c1.74-3.66,3.07-7.38,3.25-10.47a9.43,9.43,0,0,0-.14-2.28l2.2,5.51h0c1.88,5.29,4.09,12.82,3.34,17.33a5.18,5.18,0,0,1-.41,1.31c-1.34,2.93-5.33,4.73-9.22,5.82a10.9,10.9,0,0,0-3.29-1.13l-0.5,2a49.88,49.88,0,0,1-5.42.72V258.5a95.4,95.4,0,0,0,6.62-9.72S256.87,248.9,256.92,248.94Z"/><path class="cls-12" d="M261.94,226.75l1.09,2.53,0.22,0.44a9.39,9.39,0,0,1,.16,2.28c-0.18,3.09-1.5,6.81-3.24,10.47a4.61,4.61,0,0,0-2.9,2c-0.11.15-.19,0.3-0.28,0.45a4.32,4.32,0,0,0-.69,3,1.6,1.6,0,0,0,.32.9A95.46,95.46,0,0,1,250,258.5V221.25S258.6,221.71,261.94,226.75Z"/><path class="cls-8" d="M257.28,247.95l-0.49.84a1.76,1.76,0,0,1-.48-0.9A1.48,1.48,0,0,0,257.28,247.95Z"/><path class="cls-8" d="M261.41,242.73c1,0.75.89,2.76-.35,4.47s-3.09,2.5-4.14,1.74a1.33,1.33,0,0,1-.14-0.16l0.49-.84a1.54,1.54,0,0,0,1.16-1.49,1.52,1.52,0,0,0-.07-0.44,1.54,1.54,0,0,0-1.37-1.09c0.09-.15.18-0.3,0.29-0.45a4.62,4.62,0,0,1,2.9-2A1.69,1.69,0,0,1,261.41,242.73Z"/><path class="cls-6" d="M258.44,246.45a1.54,1.54,0,0,1-1.16,1.49c0.37-.63.73-1.28,1.09-1.94A1.52,1.52,0,0,1,258.44,246.45Z"/><path class="cls-6" d="M258.36,246c-0.36.66-.72,1.3-1.09,1.94a1.48,1.48,0,0,1-1-.06,4.32,4.32,0,0,1,.69-3A1.54,1.54,0,0,1,258.36,246Z"/><path class="cls-15" d="M376.64,144l2.7-23.12,8,19.07A12,12,0,0,0,376.64,144Z"/><polygon class="cls-15" points="408.67 114.41 403.65 144.43 392.36 141.24 408.67 114.41"/><path class="cls-15" d="M407.69,145.85L434,134.67l-20,22.42A12.07,12.07,0,0,0,407.69,145.85Z"/><path class="cls-4" d="M320.33,156c11,5,25,8.46,26,11.46s-5,4.5-5,7.5c0,1.65,11.28,7.05,21.8,12.67l11-39.09a11.87,11.87,0,0,1,2.48-4.57A12,12,0,0,1,387.29,140a11.92,11.92,0,0,1,1.68.33l3.39,1,11.3,3.18,1.67,0.47a11.93,11.93,0,0,1,2.37,1A12.07,12.07,0,0,1,414,157.09a11.91,11.91,0,0,1-.42,2.62L392,236.24a12,12,0,0,1-14.81,8.29l-14.76-4.16a6.49,6.49,0,0,1-2.15-.49c-11-4.53-26.88-8-34.91-9.69a345.24,345.24,0,0,0-27.23-68.32S309.33,151.08,320.33,156Z"/><g class="cls-17"><path class="cls-8" d="M365.93,410.34l-57.1,22.57,24.5,6.09h51.5L375,433h34.85C405.33,428,365.93,410.34,365.93,410.34Z"/><path class="cls-8" d="M391.33,377.5c19-31-1.5-50.5-5.5-63-3.77-11.79-47.76-35.67-52.72-38.32,3.32,48.65-6.45,80.39-20.34,101.09,0.23,2,.42,4.08.55,6.23,1,16.5-9.59,35.5-9.59,35.5l5.09,13.91L366,410S372.33,408.5,391.33,377.5Z"/><path class="cls-8" d="M333.11,276.18c-0.13-1.92-.28-3.87-0.45-5.84h0a218.08,218.08,0,0,0-7.24-40.15,344.84,344.84,0,0,0-27.25-68.32c-0.74-1.38-1.2-2.12-1.2-2.12l-1.05.3c0.63-.35,1.05-0.55,1.05-0.55l4.67-7.18s4.69-5.32,0-16.32c-2.86-6.74-6.45-19.1-8.82-27.67v0c1.08-.15,7.93-1.22,12.83-4C311,101.33,310.29,90,316,90s14.29-7.67,14.29-7.67S314.83,80,310.17,80,290,90,290,90s-11-21-40-20V416s37.9-1.88,62.61-38.73C326.5,356.57,336.44,324.83,333.11,276.18Zm-64.69-22.3h0ZM267,264.45s5.41,2.45,8.91,2.89a15.29,15.29,0,0,0,2,.12,16.18,16.18,0,0,1-2-.12c-3.42-.43-7.83-2.77-8.83-2.88h0Zm11.53-144.77,1.62-2.9,0.08-.14,0.06-.11,1.18-2.1,0.07-.13,0.07-.13,1.24-2.2,0.46-.84c0.17-.29.31-0.58,0.48-0.87,0.37-.65.7-1.3,1.05-1.91,0.66-1.15,1.2-2.24,1.78-3.24C288.73,101.45,290,99,290,99l0.11,0.37c-0.47.81-1.69,2.91-3.31,5.72l-1.86,3.24h0l-1.09,1.91-0.5.87-0.47.84-1.25,2.2-0.08.13-0.07.13-1.18,2.1-0.06.11-0.08.14-1.62,2.9,0,0.08Zm-4.08,34.07c-0.2.17-.4,0.33-0.59,0.51-6.28,5.75-13.94,9.5-16.44,10.75a72.54,72.54,0,0,0,16.36-10.75c0.19-.18.44-0.34,0.63-0.51a28.7,28.7,0,0,1,5.52-3.66,28.45,28.45,0,0,0-5.48,3.66l2.08,5.24,1.19,3-1.36-3ZM256.3,247.88a4.32,4.32,0,0,1,.69-3c0.09-.15.18-0.3,0.28-0.45a4.61,4.61,0,0,1,2.9-2c1.74-3.66,3.06-7.38,3.24-10.47a9.39,9.39,0,0,0-.16-2.28l-0.22-.44-1.09-2.53h0.16l8.23-1.57h0l-8.23,1.57h0l1,2.53,0.18,0.44a9.43,9.43,0,0,1,.14,2.28c-0.18,3.09-1.51,6.81-3.25,10.47a4.62,4.62,0,0,0-2.9,2c-0.11.15-.19,0.3-0.29,0.45a4.32,4.32,0,0,0-.69,3,1.76,1.76,0,0,0,.48.9,1.33,1.33,0,0,0,.14.16c-0.06,0-.26-0.11-0.31-0.16a96.73,96.73,0,0,1-6.47,9.52,96.8,96.8,0,0,0,6.47-9.52A1.6,1.6,0,0,1,256.3,247.88Zm-0.37,10.67-0.33,1.94-0.17,0Zm3.29,1.13-1.15.29Zm9.46,16.24h0c19.11-.91,44.91-3.53,57.05-4.84-0.53-3.57-7.11-46.5-18.05-61.78,11,15.28,17.6,58.2,18.13,61.78h0C313.64,272.39,287.78,275,268.67,275.93Z"/><path class="cls-8" d="M407.69,145.85a11.93,11.93,0,0,0-2.37-1l-1.67-.47,5-30-16.31,26.83-3.39-1a11.92,11.92,0,0,0-1.68-.33l-8-19.07L376.64,144a11.87,11.87,0,0,0-2.48,4.57l-11,39.09c-10.52-5.62-21.8-11-21.8-12.67,0-3,6-4.5,5-7.5s-15-6.5-26-11.46-22.14,5.83-22.14,5.83a345.24,345.24,0,0,1,27.23,68.32c8,1.64,24,5.16,34.91,9.69a6.49,6.49,0,0,0,2.15.49l14.76,4.16A12,12,0,0,0,392,236.24l21.57-76.53a11.91,11.91,0,0,0,.42-2.62l20-22.42Z"/></g><path class="cls-1" d="M150.63,465.94V465h3.75v11.25h3.75v1.88H146.88v-1.87h3.75v-7.5h-1.87v-1.87h1.88v-0.94Z"/><path class="cls-1" d="M165.63,465.94V465h3.75v11.25h3.75v1.88H161.88v-1.87h3.75v-7.5h-1.87v-1.87h1.88v-0.94Z"/><path class="cls-1" d="M175,467.81V465h11.25v1.88h-7.5v1.88h7.5v1.88h1.88v5.63h-1.87v1.88h-9.37v-1.87H175v-1.87h3.75v1.88h5.63v-5.62H175v-2.81Z"/><path class="cls-1" d="M205,471.56V465h3.75v5.63h1.88v-1.87h1.88v-1.87h1.88V465h3.75v1.88h-1.87v1.88h-1.87v1.88H212.5v1.88h1.88v1.88h1.88v1.88h1.88v1.88H212.5v-1.87h-1.87v-1.87h-1.87v3.75H205v-6.56Z"/><path class="cls-1" d="M223.75,465.94V465h5.63v1.88h1.88v1.88h1.88v9.38h-3.75v-3.75h-5.62v3.75H220v-9.37h1.88v-1.87h1.88v-0.94Zm3.75,1.88v-0.94h-1.87v1.88h-1.87v3.75h5.63v-3.75H227.5v-0.94Z"/><path class="cls-1" d="M235,471.56V465h3.75v1.88h1.88v1.88h1.88v1.88h1.88V465h3.75v13.13h-3.75v-1.87H242.5v-1.87h-1.87V472.5h-1.87v5.63H235v-6.56Z"/><path class="cls-1" d="M253.75,465.94V465h9.38v1.88h-7.5v1.88h-1.87v5.63h1.88v1.88h3.75V472.5H257.5v-1.87h5.63v7.5h-9.37v-1.87h-1.87v-1.87H250v-5.62h1.88v-1.87h1.88v-0.94Z"/><path class="cls-1" d="M268.75,465.94V465h5.63v1.88h1.88v1.88h1.88v9.38h-3.75v-3.75h-5.62v3.75H265v-9.37h1.88v-1.87h1.88v-0.94Zm3.75,1.88v-0.94h-1.87v1.88h-1.87v3.75h5.63v-3.75H272.5v-0.94Z"/><path class="cls-1" d="M281.88,465.94V465h7.5v1.88h1.88v1.88H287.5v-1.87h-3.75v3.75h7.5v1.88h1.88v3.75h-1.87v1.88h-9.37v-1.87H280v-1.87h3.75v1.88h5.63V472.5h-7.5v-1.87H280v-3.75h1.88v-0.94Z"/><path class="cls-1" d="M295,471.56V465h3.75v5.63h1.88v-1.87h1.88v-1.87h1.88V465h3.75v1.88h-1.87v1.88h-1.87v1.88H302.5v1.88h1.88v1.88h1.88v1.88h1.88v1.88H302.5v-1.87h-1.87v-1.87h-1.87v3.75H295v-6.56Z"/><path class="cls-1" d="M310,471.56V465h3.75v5.63h5.63V465h3.75v13.13h-3.75V472.5h-5.62v5.63H310v-6.56Z"/><path class="cls-1" d="M328.75,465.94V465h5.63v1.88h1.88v1.88h1.88v9.38h-3.75v-3.75h-5.62v3.75H325v-9.37h1.88v-1.87h1.88v-0.94Zm3.75,1.88v-0.94h-1.87v1.88h-1.87v3.75h5.63v-3.75H332.5v-0.94Z"/><path class="cls-1" d="M340,471.56V465h3.75v1.88h1.88v1.88h1.88v1.88h1.88V465h3.75v13.13h-3.75v-1.87H347.5v-1.87h-1.87V472.5h-1.87v5.63H340v-6.56Z"/></svg>