<?xml version="1.0" ?><svg id="pkflt" viewBox="0 0 500 500" xmlns="http://www.w3.org/2000/svg"><defs><style>.cls-1{fill:#fff;}.cls-2{fill:#ef5a4a;}.cls-3,.cls-8{fill:#1a1a1a;}.cls-4{fill:#42bde7;}.cls-5{fill:#63c9e5;}.cls-6{fill:#fff7d6;}.cls-7{fill:#f9eec2;}.cls-8{opacity:0.1;}</style></defs><title/><path class="cls-1" d="M230.27,224.53c-4.89,0-8.85-5.34-8.85-11.92s4-11.92,8.85-11.92a7.83,7.83,0,0,1,6.13,3.34c-2.2-5.33-6.86-9-12.26-9-7.52,0-13.62,7.11-13.62,15.89s6.1,15.89,13.62,15.89a12.1,12.1,0,0,0,6.93-2.24l0.07-.1A6.56,6.56,0,0,1,230.27,224.53Z"/><path class="cls-2" d="M230.27,200.7c-4.89,0-8.85,5.34-8.85,11.92s4,11.92,8.85,11.92a6.56,6.56,0,0,0,.88-0.07,23.06,23.06,0,0,1,4.22-4.62,17.59,17.59,0,0,0,2.39-8.93,18,18,0,0,0-1.36-6.88A7.83,7.83,0,0,0,230.27,200.7ZM232.64,211a2.17,2.17,0,0,1-.74-0.14c0,0.57.07,1.17,0.07,1.79,0,3.57-.76,6.47-1.7,6.47s-1.7-2.9-1.7-6.47,0.76-6.47,1.7-6.47a1.33,1.33,0,0,1,.91,1A2.18,2.18,0,1,1,232.64,211Z"/><path class="cls-3" d="M230.46,208.78a2.17,2.17,0,0,1,.72-1.61,1.33,1.33,0,0,0-.91-1c-0.94,0-1.7,2.9-1.7,6.47s0.76,6.47,1.7,6.47,1.7-2.9,1.7-6.47c0-.63,0-1.22-0.07-1.79A2.18,2.18,0,0,1,230.46,208.78Z"/><path class="cls-1" d="M232.64,206.59a2.19,2.19,0,1,0,2.19,2.19A2.17,2.17,0,0,0,232.64,206.59Z"/><path class="cls-4" d="M231.15,224.47l-0.07.1,0.16-.11h-0.09Z"/><path class="cls-5" d="M235.37,219.84a23.06,23.06,0,0,0-4.22,4.62h0.09l-0.16.11A22.91,22.91,0,0,0,250,260.4v-4.54a18.39,18.39,0,1,1,0-36.77v-4.54a23.63,23.63,0,0,0-11.78,3.29A22.87,22.87,0,0,0,235.37,219.84Z"/><path class="cls-3" d="M231.61,237.47A18.49,18.49,0,0,0,250,255.86V219.09A18.49,18.49,0,0,0,231.61,237.47Z"/><path class="cls-6" d="M242.52,269c2.44,0.09,4.48.28,7.48,0.63v-0.15l-2.56-.55c-1.68-.09-3.35-0.23-5-0.48Z"/><path class="cls-6" d="M231.76,269.32a84.43,84.43,0,0,1,10.77-.32l-0.07-.55c1.64,0.25,3.31.39,5,.48l-17-3.66A17,17,0,0,1,231.76,269.32Z"/><path class="cls-6" d="M244.68,286.83c1.75,0.11,3.32.26,5.32,0.51v-6.54a60.21,60.21,0,0,0-6.15-.8Z"/><path class="cls-6" d="M244.69,286.83L243.86,280a59.15,59.15,0,0,0-15.29.83c-1.33,1.87-3.08,4.36-4.84,7.31A87.33,87.33,0,0,1,244.69,286.83Z"/><path class="cls-7" d="M243.85,280a60.1,60.1,0,0,1,6.15.8V269.63c-3-.35-5.05-0.54-7.49-0.63Z"/><path class="cls-7" d="M243.86,280l-1.33-11a84.43,84.43,0,0,0-10.77.32,12.13,12.13,0,0,1-1.31,8.78c-0.4.64-1.06,1.56-1.88,2.72A59.15,59.15,0,0,1,243.86,280Z"/><path class="cls-6" d="M246.85,304.69c1,0.1,2.15.21,3.15,0.35V298.5a40.14,40.14,0,0,0-4-.6Z"/><path class="cls-6" d="M246.86,304.69L246,297.9a60.93,60.93,0,0,0-28.29,3.62,35.51,35.51,0,0,0-1.14,5.91A88.67,88.67,0,0,1,246.86,304.69Z"/><path class="cls-7" d="M246,297.9a40,40,0,0,1,4,.6V287.33c-2-.25-3.57-0.4-5.32-0.51Z"/><path class="cls-7" d="M246,297.9l-1.34-11.07a87.33,87.33,0,0,0-21,1.31q-0.67,1.13-1.34,2.33a52.57,52.57,0,0,0-4.65,11.06A60.93,60.93,0,0,1,246,297.9Z"/><path class="cls-4" d="M238.22,217.84A23.63,23.63,0,0,1,250,214.55v-45.4a50,50,0,0,0-39.5,19.42c-7.46-7.88-15.19-15.86-22.16-22.83-24.29-24.29-30-27.13-31.78-25.36s1.07,7.49,25.36,31.78c7.34,7.34,15.8,15.53,24.08,23.35a49.58,49.58,0,0,0-5.19,15.13c-8.89-.26-18.44-0.4-26.57-0.4-30.61,0-36.07,2-36.07,4.54s5.49,4.54,36.1,4.54c7.9,0,17.14-.14,25.81-0.38,0,0.05,0,.1,0,0.15a50,50,0,0,0,1.54,12.32c-6.7,6.3-13.88,13.26-19.86,19.24-21.65,21.65-24.07,26.94-22.3,28.72s7.09-.67,28.74-22.32c5.13-5.13,11-11.14,16.51-17A50.15,50.15,0,0,0,224,261.69l-0.56,0s5.23,5.78-5.56,19.29-11.81,33.22-7.38,38.81c2.92,3.68,6,16,16.4,25.22a24.55,24.55,0,0,1-1.38-14.54,33.5,33.5,0,0,1-3.91-4.37q-0.69-.94-1.28-1.88a25.53,25.53,0,0,1-3.9-14q0-1.39.15-2.76a35.51,35.51,0,0,1,1.14-5.91,52.57,52.57,0,0,1,4.65-11.06q0.66-1.21,1.34-2.33c1.76-2.94,3.51-5.44,4.84-7.31,0.83-1.16,1.49-2.09,1.88-2.72a12.13,12.13,0,0,0,1.31-8.78,17,17,0,0,0-1.31-4.05l17,3.66c0.85,0,1.56.1,2.56,0.1V260.4a22.92,22.92,0,0,1-18.93-35.83,12.1,12.1,0,0,1-6.93,2.24c-7.52,0-13.62-7.11-13.62-15.89S216.62,195,224.14,195c5.41,0,10.06,3.68,12.26,9a18,18,0,0,1,1.36,6.88,17.6,17.6,0,0,1-2.4,8.93A22.93,22.93,0,0,1,238.22,217.84Z"/><path class="cls-6" d="M235.61,315.37a63.38,63.38,0,0,0-17.7,3.81,26.07,26.07,0,0,0,2.44,5.05c2.37-.53,5.17-1,8.26-1.44A24.62,24.62,0,0,1,235.61,315.37Z"/><path class="cls-7" d="M249.52,311l0.48,0v-6c-1-.14-2.11-0.26-3.15-0.35l0.78,6.43C248.25,311.07,248.88,311,249.52,311Z"/><path class="cls-7" d="M217.91,319.18a63.38,63.38,0,0,1,17.7-3.81,24.36,24.36,0,0,1,12-4.25l-0.78-6.43a88.67,88.67,0,0,0-30.26,2.75q-0.14,1.37-.15,2.76A25.9,25.9,0,0,0,217.91,319.18Z"/><path class="cls-7" d="M220.35,324.23q0.59,0.95,1.28,1.88a33.5,33.5,0,0,0,3.91,4.37,24.33,24.33,0,0,1,3.08-7.69C225.52,323.19,222.72,323.7,220.35,324.23Z"/><path class="cls-5" d="M249.15,323.55c0.21,0,.42,0,0.63,0H250v-0.79l-1-.12Z"/><path class="cls-5" d="M249.52,311c-0.64,0-1.26,0-1.88.1a24.35,24.35,0,0,0-12,4.25,24.61,24.61,0,0,0-7,7.43,24.33,24.33,0,0,0-3.08,7.69,24.51,24.51,0,0,0,24,29.56l0.48,0V347.54h-0.23a12,12,0,0,1-.62-24l-0.12-.93a6.82,6.82,0,0,1,1,.12V311Z"/><path class="cls-4" d="M238.44,339.47a12,12,0,0,0,11.33,8.09H250v-0.77l-8.93-5.64Z"/><path class="cls-4" d="M249.14,323.55l0.86,7.22v-7.24h-0.24C249.55,323.52,249.35,323.54,249.14,323.55Z"/><path class="cls-4" d="M238,333a54.19,54.19,0,0,1,12,1v-3.14l-0.87-7.22A12,12,0,0,0,238,333Z"/><path class="cls-4" d="M238,333a11.9,11.9,0,0,0,.4,6.51l2.64,1.67,8.93,5.64V333.91A54.19,54.19,0,0,0,238,333Z"/><path class="cls-1" d="M269.6,224.53c4.89,0,8.85-5.34,8.85-11.92s-4-11.92-8.85-11.92a7.83,7.83,0,0,0-6.13,3.34c2.2-5.33,6.86-9,12.26-9,7.52,0,13.62,7.11,13.62,15.89s-6.1,15.89-13.62,15.89a12.1,12.1,0,0,1-6.93-2.24l-0.07-.1A6.56,6.56,0,0,0,269.6,224.53Z"/><path class="cls-2" d="M263.47,204a18,18,0,0,0-1.36,6.88,17.59,17.59,0,0,0,2.39,8.93,23.06,23.06,0,0,1,4.22,4.62,6.56,6.56,0,0,0,.88.07c4.89,0,8.85-5.34,8.85-11.92s-4-11.92-8.85-11.92A7.83,7.83,0,0,0,263.47,204Zm1.58,4.74a2.18,2.18,0,0,1,3.65-1.61,1.33,1.33,0,0,1,.91-1c0.94,0,1.7,2.9,1.7,6.47s-0.76,6.47-1.7,6.47-1.7-2.9-1.7-6.47c0-.63,0-1.22.07-1.79A2.17,2.17,0,0,1,265,208.78Z"/><path class="cls-3" d="M269.42,208.78a2.17,2.17,0,0,0-.72-1.61,1.33,1.33,0,0,1,.91-1c0.94,0,1.7,2.9,1.7,6.47s-0.76,6.47-1.7,6.47-1.7-2.9-1.7-6.47c0-.63,0-1.22.07-1.79A2.18,2.18,0,0,0,269.42,208.78Z"/><path class="cls-1" d="M267.23,206.59a2.19,2.19,0,1,1-2.19,2.19A2.17,2.17,0,0,1,267.23,206.59Z"/><path class="cls-4" d="M268.72,224.47l0.07,0.1-0.16-.11h0.09Z"/><path class="cls-5" d="M264.5,219.84a23.06,23.06,0,0,1,4.22,4.62h-0.09l0.16,0.11a22.87,22.87,0,0,1,4.05,12.91A23.3,23.3,0,0,1,250,260.4v-4.54a18.39,18.39,0,1,0,0-36.77v-4.54a23.4,23.4,0,0,1,11.72,3.29A22.2,22.2,0,0,1,264.5,219.84Z"/><path class="cls-3" d="M268.39,237.47A18.49,18.49,0,0,1,250,255.86V219.09A18.49,18.49,0,0,1,268.39,237.47Z"/><path class="cls-6" d="M257.42,269c-2.44.09-4.42,0.28-7.42,0.63v-0.15l2.5-.55c1.68-.09,3.35-0.23,5-0.48Z"/><path class="cls-6" d="M268.11,269.32a84.43,84.43,0,0,0-10.77-.32l0.07-.55c-1.64.25-3.31,0.39-5,.48l17-3.66A17,17,0,0,0,268.11,269.32Z"/><path class="cls-6" d="M255.26,286.83a44.43,44.43,0,0,0-5.26.51v-6.54a36.45,36.45,0,0,1,6.12-.8Z"/><path class="cls-6" d="M255.18,286.83L256,280a59.15,59.15,0,0,1,15.29.83c1.33,1.87,3.08,4.36,4.84,7.31A87.33,87.33,0,0,0,255.18,286.83Z"/><path class="cls-7" d="M256.08,280a35.92,35.92,0,0,0-6.08.8V269.63c3-.35,5-0.54,7.46-0.63Z"/><path class="cls-7" d="M256,280l1.33-11a84.43,84.43,0,0,1,10.77.32,12.13,12.13,0,0,0,1.31,8.78c0.4,0.64,1.06,1.56,1.88,2.72A59.15,59.15,0,0,0,256,280Z"/><path class="cls-6" d="M253.09,304.69c-1,.1-2.09.21-3.09,0.35V298.5a39.39,39.39,0,0,1,3.95-.6Z"/><path class="cls-6" d="M253,304.69l0.82-6.78a60.93,60.93,0,0,1,28.29,3.62,35.51,35.51,0,0,1,1.14,5.91A88.67,88.67,0,0,0,253,304.69Z"/><path class="cls-7" d="M253.91,297.9a38.53,38.53,0,0,0-3.91.6V287.33a45.16,45.16,0,0,1,5.29-.51Z"/><path class="cls-7" d="M253.84,297.9l1.34-11.07a87.33,87.33,0,0,1,21,1.31q0.67,1.13,1.34,2.33a52.57,52.57,0,0,1,4.65,11.06A60.93,60.93,0,0,0,253.84,297.9Z"/><path class="cls-4" d="M261.72,217.84A23.4,23.4,0,0,0,250,214.55v-45.4a49.82,49.82,0,0,1,39.44,19.42c7.46-7.88,15.16-15.86,22.13-22.83,24.29-24.29,30-27.13,31.76-25.36s-1.08,7.49-25.37,31.78c-7.34,7.34-15.8,15.53-24.08,23.35a49.58,49.58,0,0,1,5.18,15.13c8.89-.26,18.44-0.4,26.57-0.4,30.61,0,36.07,2,36.07,4.54s-5.49,4.54-36.1,4.54c-7.9,0-17.14-.14-25.81-0.38,0,0.05,0,.1,0,0.15a50,50,0,0,1-1.54,12.32c6.7,6.3,13.88,13.26,19.86,19.24,21.65,21.65,24.07,26.94,22.3,28.72s-7.09-.67-28.74-22.32c-5.13-5.13-11-11.14-16.51-17a50.15,50.15,0,0,1-19.31,21.61l0.56,0S271.18,267.49,282,281s11.81,33.22,7.38,38.81c-2.92,3.68-6,16-16.4,25.22a24.55,24.55,0,0,0,1.38-14.54,33.5,33.5,0,0,0,3.91-4.37q0.69-.94,1.28-1.88a25.53,25.53,0,0,0,3.9-14q0-1.39-.15-2.76a35.51,35.51,0,0,0-1.14-5.91,52.57,52.57,0,0,0-4.65-11.06q-0.66-1.21-1.34-2.33c-1.76-2.94-3.51-5.44-4.84-7.31-0.83-1.16-1.49-2.09-1.88-2.72a12.13,12.13,0,0,1-1.31-8.78,17,17,0,0,1,1.31-4.05l-16.92,3.66c-0.85,0-1.5.1-2.5,0.1V260.4a23.3,23.3,0,0,0,22.85-22.93,22.84,22.84,0,0,0-4-12.91,12,12,0,0,0,6.91,2.24c7.52,0,13.61-7.11,13.61-15.89S283.26,195,275.74,195c-5.41,0-10.07,3.68-12.27,9a18,18,0,0,0-1.36,6.88,17.62,17.62,0,0,0,2.43,8.93A22.6,22.6,0,0,0,261.72,217.84Z"/><path class="cls-6" d="M264.27,315.37a63.38,63.38,0,0,1,17.7,3.81,26.07,26.07,0,0,1-2.44,5.05c-2.37-.53-5.17-1-8.26-1.44A24.62,24.62,0,0,0,264.27,315.37Z"/><path class="cls-7" d="M250.42,311L250,311v-6c1-.14,2-0.26,3.09-0.35l-0.78,6.43C251.68,311.07,251.06,311,250.42,311Z"/><path class="cls-7" d="M282,319.18a63.38,63.38,0,0,0-17.7-3.81,24.36,24.36,0,0,0-12-4.25l0.78-6.43a88.67,88.67,0,0,1,30.26,2.75q0.14,1.37.15,2.76A25.9,25.9,0,0,1,282,319.18Z"/><path class="cls-7" d="M279.52,324.23q-0.59.95-1.28,1.88a33.5,33.5,0,0,1-3.91,4.37,24.33,24.33,0,0,0-3.08-7.69C274.36,323.19,277.15,323.7,279.52,324.23Z"/><path class="cls-5" d="M250.73,323.55c-0.21,0-.42,0-0.63,0h-0.24v-0.79l1-.12Z"/><path class="cls-5" d="M250.42,311c0.64,0,1.23,0,1.85.1a24.29,24.29,0,0,1,12,4.25,24.59,24.59,0,0,1,7,7.43,24.32,24.32,0,0,1,3.07,7.69,24.51,24.51,0,0,1-23.92,29.56L250,360V347.54h0.17a12,12,0,0,0,.56-24l0.18-.93a5.64,5.64,0,0,0-.92.12V311Z"/><path class="cls-4" d="M261.44,339.47a11.92,11.92,0,0,1-11.27,8.09H250v-0.77l8.87-5.64Z"/><path class="cls-4" d="M250.8,323.55l-0.8,7.22v-7.24h0.21C250.42,323.52,250.59,323.54,250.8,323.55Z"/><path class="cls-4" d="M261.9,333a53.59,53.59,0,0,0-11.9,1v-3.14l0.84-7.22A12,12,0,0,1,261.9,333Z"/><path class="cls-4" d="M261.9,333a12.26,12.26,0,0,1-.44,6.51l-2.58,1.67L250,346.77V333.91A53.59,53.59,0,0,1,261.9,333Z"/><path class="cls-8" d="M361.71,214.77c0-2.51-5.46-4.54-36.07-4.54-8.12,0-17.68.14-26.57,0.4a49.58,49.58,0,0,0-5.18-15.13c8.28-7.82,16.74-16,24.08-23.35,24.29-24.29,27.14-30,25.37-31.78s-7.47,1.07-31.76,25.36c-7,7-14.68,15-22.14,22.83A49.82,49.82,0,0,0,250,169.15V269c1,0,1.64-.05,2.5-0.1h-0.16c1.64-.09,2.66-0.22,4.66-0.47h0c-2,.24-3.06.38-4.71,0.47l-2.29.55v0.15c3-.34,5-0.54,7-0.63h0c-2,.09-4,0.28-7,0.62v11.17a46.8,46.8,0,0,1,5-.79h0a47.47,47.47,0,0,0-5,.79v6.54c1-.24,4-0.39,5-0.5h0c-1,.11-4,0.26-5,0.5V298.5c1-.23,3-0.43,4-0.59h0c-1,.16-3,0.35-4,0.58v25h0v7.24l0.8-7.21h0L250,330.77V360l0.44,0c10.17,0,18.56-6.2,22.56-15h0c10-9.23,13.46-21.53,16.37-25.22,4.43-5.59,3.39-25.31-7.39-38.81s-5.56-19.29-5.56-19.29l-0.56,0a50.15,50.15,0,0,0,19.31-21.61c5.54,5.83,11.38,11.84,16.51,17,21.65,21.65,27,24.09,28.74,22.32s-0.65-7.07-22.3-28.72c-6-6-13.16-12.94-19.86-19.24a50,50,0,0,0,1.54-12.32c0-.05,0-0.1,0-0.15,8.67,0.24,17.91.38,25.81,0.38C356.22,219.31,361.71,217.28,361.71,214.77Zm-88.84,22.7a22.88,22.88,0,0,0-4.07-12.91l0.07,0A22.84,22.84,0,0,1,272.86,237.47Zm-21.94,85.15-0.19.92h0l0.11-.91h0.09Zm1.25-11.52h0Zm12.3-91.32,0,0.06a22.08,22.08,0,0,0-2.77-2A22.52,22.52,0,0,1,264.47,219.79ZM250.4,322.68l-0.27,0Zm11.08,16.79a12,12,0,0,1-11.3,8.09,11.9,11.9,0,0,0,11.25-8.07l0,0a12.9,12.9,0,0,0,.51-1.91A11.66,11.66,0,0,1,261.48,339.47ZM275.75,227h0c7.52,0,13.61-7.23,13.61-16s-6.1-16-13.62-16h0c7.52,0,13.63,7.22,13.63,16S283.27,227,275.75,227Z"/><path class="cls-4" d="M180.63,465.94V465h3.75v11.25h3.75v1.88H176.88v-1.87h3.75v-7.5h-1.87v-1.87h1.88v-0.94Z"/><path class="cls-4" d="M195.63,465.94V465h3.75v11.25h3.75v1.88H191.88v-1.87h3.75v-7.5h-1.87v-1.87h1.88v-0.94Z"/><path class="cls-4" d="M208.75,465.94V465h7.5v1.88h-5.62v1.88h-1.87v1.88h7.5v1.88h1.88v3.75h-1.87v1.88h-9.37v-1.87H205v-7.5h1.88v-1.87h1.88v-0.94Zm5.63,8.44V472.5h-5.62v3.75h5.63v-1.87Z"/><path class="cls-4" d="M235,471.56V465h3.75v5.63h5.63V465h3.75v13.13h-3.75V472.5h-5.62v5.63H235v-6.56Z"/><path class="cls-4" d="M251.88,465.94V465h9.38v1.88h1.88v9.38h-1.87v1.88h-9.37v-1.87H250v-9.37h1.88v-0.94Zm7.5,5.63v-4.69h-5.62v9.38h5.63v-4.69Z"/><path class="cls-4" d="M265,471.56V465h11.25v1.88h1.88v5.63h-3.75v1.88h1.88v1.88h1.88v1.88H272.5v-1.87h-1.87v-1.87h-1.87v3.75H265v-6.56Zm9.38-2.81v-1.87h-5.62v5.63h3.75v-1.87h1.88v-1.87Z"/><path class="cls-4" d="M281.88,465.94V465h7.5v1.88h1.88v1.88H287.5v-1.87h-3.75v3.75h7.5v1.88h1.88v3.75h-1.87v1.88h-9.37v-1.87H280v-1.87h3.75v1.88h5.63V472.5h-7.5v-1.87H280v-3.75h1.88v-0.94Z"/><path class="cls-4" d="M295,471.56V465h13.13v1.88h-9.37v3.75h7.5v1.88h-7.5v3.75h9.38v1.88H295v-6.56Z"/><path class="cls-4" d="M313.75,465.94V465h5.63v1.88h1.88v1.88h1.88v9.38h-3.75v-3.75h-5.62v3.75H310v-9.37h1.88v-1.87h1.88v-0.94Zm3.75,1.88v-0.94h-1.87v1.88h-1.87v3.75h5.63v-3.75H317.5v-0.94Z"/></svg>