<?xml version="1.0" ?><svg id="pkflt" viewBox="0 0 500 500" xmlns="http://www.w3.org/2000/svg"><defs><style>.cls-1{fill:none;}.cls-2{fill:#67bbd5;}.cls-3{fill:#fdeebf;}.cls-4{fill:#f9e5af;}.cls-5{fill:#fff;}.cls-6{fill:#1a1a1a;}.cls-7{fill:#55b3c9;}.cls-8{fill:#6fcde2;}.cls-9{opacity:0.1;}</style></defs><title/><path class="cls-1" d="M222.33,208.33c0.67-1,9.67-9.67,9.67-9.67s-3.7-4.52-7.7-10l-1.48-2.06-1.08-1.54c-3.2-4.6-6.14-9.34-7.06-12.4A105.84,105.84,0,0,0,210,160s-7.16,13.25-8.49,23.74l0.6,8a7.59,7.59,0,0,0,.89,1.63,48.66,48.66,0,0,0,8.78,8.86c0.66,0.53,1.32,1,2,1.5C218.16,207,222,208.88,222.33,208.33Z"/><path class="cls-2" d="M218.65,271.1c-1.31-2.35-1.11-5.56.93-9.09l4.61-8,18.31-31.72c2.06-3.57,4.78-5.36,7.5-5.36V127.5a79.2,79.2,0,0,0-14.26.61q-2.61.36-5,.91c6.31,18.46,11.53,40.63,11.26,63l-6,5.39S218.87,164,206.26,144.15a50.31,50.31,0,0,0-8.09,16.78L144,80s24.35,72.25,28.71,83.51c-4.69-5.3-32.71-6.18-32.71-6.18l1.15,1.16,28.15,20.2L175,194.38l-2.29-.86c1.67,2.41,2.58,4.22,2.29,5-1.67,4.54-3,27.9-3,27.9l24.71-11a56.49,56.49,0,0,0,17.18,30.74,172.77,172.77,0,0,0-12.81,25.59c-5.58,14.12-9.69,31-6.07,45.74a39.35,39.35,0,0,0,7.67,15.31C196.69,299.71,211.86,278.63,218.65,271.1Zm-4.9-67.4c-0.64-.48-1.3-1-2-1.5a48.66,48.66,0,0,1-8.78-8.86,7.59,7.59,0,0,1-.89-1.63l-0.6-8C202.84,173.25,210,160,210,160a105.84,105.84,0,0,1,4.67,12.67c0.93,3.05,3.87,7.79,7.06,12.4l1.08,1.54,1.48,2.06c4,5.49,7.7,10,7.7,10s-9,8.67-9.67,9.67C222,208.88,218.16,207,213.75,203.7Z"/><path class="cls-3" d="M250,309.65c-13.16-.54-36-1.77-47.66-4.16a75.9,75.9,0,0,0-.85,17.6c8.84,2.34,30.72,7.71,48.52,8.81V309.65Z"/><path class="cls-3" d="M250,275H227.08c-4.17,0-7.09-1.5-8.43-3.9A66.07,66.07,0,0,0,209.13,285c10.73,2.59,27,6,40.87,6.88V275Z"/><path class="cls-4" d="M250,291.91c-13.84-.85-30.14-4.29-40.87-6.88a70.28,70.28,0,0,0-6.79,20.47c11.69,2.39,34.5,3.62,47.66,4.16V291.91Z"/><path class="cls-3" d="M221.9,348l1.39,0.72-0.12-.61Z"/><path class="cls-3" d="M242.81,349.33c-6-.3-12.94-0.71-19.63-1.25l0.12,0.61a104.06,104.06,0,0,0,26.7,9v-8C247.83,349.57,245.4,349.46,242.81,349.33Z"/><path class="cls-4" d="M201.48,323.1a85.64,85.64,0,0,0,1.19,9.71c5.25,6.55,12.24,11.48,19.23,15.16l1.27,0.11c6.69,0.55,13.61,1,19.63,1.25,2.6,0.13,5,.24,7.19.32V331.91C232.2,330.81,210.33,325.44,201.48,323.1Z"/><path class="cls-5" d="M214.54,192.32c2.27-3.89,5.12-6.67,7.19-7.25-3.2-4.6-6.14-9.34-7.06-12.4A105.84,105.84,0,0,0,210,160s-13.33,24.67-7,33.33a48.66,48.66,0,0,0,8.78,8.86C211.24,200.13,212.25,196.24,214.54,192.32Z"/><path class="cls-5" d="M221.85,195.63c-0.13.24-.26,0.48-0.4,0.72-2.47,4.23-5.62,7.15-7.71,7.35,4.42,3.25,8.23,5.17,8.59,4.63,0.67-1,9.67-9.67,9.67-9.67s-3.7-4.52-7.7-10A20.06,20.06,0,0,1,221.85,195.63Z"/><path class="cls-6" d="M221.46,196.35c0.14-.24.27-0.48,0.4-0.72-1.33,1.4-2.69,2.08-3.5,1.61-1.22-.71-0.79-3.74,1-6.76a11,11,0,0,1,3.49-3.87l-1.08-1.54c-2.07.58-4.92,3.36-7.19,7.25s-3.31,7.81-2.76,9.88c0.66,0.53,1.32,1,2,1.5C215.83,203.5,219,200.58,221.46,196.35Z"/><path class="cls-5" d="M219.33,190.48c-1.76,3-2.2,6-1,6.76,0.82,0.48,2.17-.2,3.5-1.61a20.06,20.06,0,0,0,2.44-7l-1.48-2.06A11,11,0,0,0,219.33,190.48Z"/><path class="cls-1" d="M222.81,186.61l-1.08-1.54c-3.2-4.6-6.14-9.34-7.06-12.4A105.84,105.84,0,0,0,210,160s-7.16,13.25-8.49,23.74l0.6,8a7.59,7.59,0,0,0,.89,1.63,48.66,48.66,0,0,0,8.78,8.86c0.66,0.53,1.32,1,2,1.5,4.42,3.25,8.23,5.17,8.59,4.63,0.67-1,9.67-9.67,9.67-9.67s-3.7-4.52-7.7-10Z"/><path class="cls-7" d="M235.73,128.11h0A79.2,79.2,0,0,1,250,127.5V90C242,97.33,235.73,128.11,235.73,128.11Z"/><path class="cls-8" d="M230.74,129A261.22,261.22,0,0,0,210,83c5,43-15,47-15,47,2.3,1,6.45,6.6,11.26,14.15C211.67,137,219.5,131.58,230.74,129Z"/><path class="cls-8" d="M230.74,129c-11.23,2.56-19.07,8-24.48,15.13C218.87,164,236,197.39,236,197.39l6-5.39C242.27,169.66,237,147.48,230.74,129Z"/><path class="cls-1" d="M222.81,186.61l-1.08-1.54c-3.2-4.6-6.14-9.34-7.06-12.4A105.84,105.84,0,0,0,210,160s-7.16,13.25-8.49,23.74l0.6,8a7.59,7.59,0,0,0,.89,1.63,48.66,48.66,0,0,0,8.78,8.86c0.66,0.53,1.32,1,2,1.5,4.42,3.25,8.23,5.17,8.59,4.63,0.67-1,9.67-9.67,9.67-9.67s-3.7-4.52-7.7-10Z"/><path class="cls-7" d="M196.71,215.43l-24.71,11s1.33-23.36,3-27.9c0.29-.8-0.62-2.61-2.29-5L150,185l13,31.95L143.25,220,160,235.5l-25.5,2L150,264l-20,11,13.25,7L126,285l10.32,8.77,64.75-22a172.77,172.77,0,0,1,12.81-25.59A56.49,56.49,0,0,1,196.71,215.43Z"/><path class="cls-6" d="M244.78,230.11l-0.11.17-14.37,25L243,268h7V226.45a5.08,5.08,0,0,0-3.09,1.17Z"/><path class="cls-6" d="M233.73,268H243l-12.71-12.75-1.91,3.31C225.47,263.64,227.87,268,233.73,268Z"/><path class="cls-6" d="M244.78,230.11l2.12-2.49A9,9,0,0,0,244.78,230.11Z"/><path class="cls-8" d="M250,226.45V224l-3.09,3.62A5.08,5.08,0,0,1,250,226.45Z"/><path class="cls-8" d="M230.31,255.25l14.37-25,0.11-.17a9,9,0,0,1,2.12-2.49L250,224v-7.05c-2.72,0-5.44,1.79-7.5,5.36L224.19,254l-4.61,8c-4.12,7.14-.75,13,7.5,13H250v-7H233.73c-5.86,0-8.25-4.36-5.32-9.43Z"/><path class="cls-3" d="M143.25,282L130,275l20-11-15.5-26.5,25.5-2L143.25,220,163,216.95,150,185l22.71,8.52c-6.83-9.86-26.61-30-31.56-35L87.5,120,138,216.95,70,220l61.5,40-65,57.5,69.82-23.73L126,285Z"/><path class="cls-3" d="M175,194.38l-5.69-15.69-28.15-20.2c5,5,24.73,25.17,31.56,35Z"/><path class="cls-2" d="M223.3,348.69c1.43,7.32,3.72,17.5,5.89,26.88A25.3,25.3,0,0,1,250,364.67v-7A104.06,104.06,0,0,1,223.3,348.69Z"/><path class="cls-8" d="M250,381.33V364.67a25.33,25.33,0,1,0,0,50.67V398.67A8.67,8.67,0,0,1,250,381.33Z"/><path class="cls-2" d="M241.33,390a8.67,8.67,0,0,0,8.67,8.67V381.33A8.67,8.67,0,0,0,241.33,390Z"/><path class="cls-1" d="M277.17,208.33c-0.67-1-9.67-9.67-9.67-9.67s3.7-4.52,7.7-10l1.48-2.06,1.08-1.54c3.2-4.6,6.14-9.34,7.06-12.4A105.84,105.84,0,0,1,289.5,160s7.16,13.25,8.49,23.74l-0.6,8a7.59,7.59,0,0,1-.89,1.63,48.66,48.66,0,0,1-8.78,8.86c-0.66.53-1.32,1-2,1.5C281.34,207,277.53,208.88,277.17,208.33Z"/><path class="cls-2" d="M296.83,332.81a39.35,39.35,0,0,0,7.67-15.31c3.62-14.7-.49-31.62-6.07-45.74a172.77,172.77,0,0,0-12.81-25.59,56.49,56.49,0,0,0,17.18-30.74l24.71,11s-1.33-23.36-3-27.9c-0.29-.8.62-2.61,2.29-5l-2.29.86,5.69-15.69,28.15-20.2,1.15-1.16s-28,.88-32.71,6.18C331.15,152.25,355.5,80,355.5,80l-54.17,80.93a50.31,50.31,0,0,0-8.09-16.78C280.63,164,263.5,197.39,263.5,197.39l-6-5.39c-0.27-22.34,5-44.52,11.26-63-1.6-.36-3.51-0.67-5.25-0.91A78.66,78.66,0,0,0,249,127.5v89.45c3,0,5.69,1.79,7.75,5.36L275.19,254l4.67,8c2,3.53,2.27,6.74,1,9.09C287.61,278.63,302.81,299.71,296.83,332.81ZM277.17,208.33c-0.67-1-9.67-9.67-9.67-9.67s3.7-4.52,7.7-10l1.48-2.06,1.08-1.54c3.2-4.6,6.14-9.34,7.06-12.4A105.84,105.84,0,0,1,289.5,160s7.16,13.25,8.49,23.74l-0.6,8a7.59,7.59,0,0,1-.89,1.63,48.66,48.66,0,0,1-8.78,8.86c-0.66.53-1.32,1-2,1.5C281.34,207,277.53,208.88,277.17,208.33Z"/><path class="cls-3" d="M249,309.65c14-.54,36.23-1.77,47.91-4.16a76.25,76.25,0,0,1,.73,17.6c-8.84,2.34-30.64,7.71-48.64,8.81V309.65Z"/><path class="cls-3" d="M249,275h23.42c4.17,0,7.09-1.5,8.43-3.9A67,67,0,0,1,290.12,285c-10.73,2.59-27.12,6-41.12,6.88V275Z"/><path class="cls-4" d="M249,291.91c14-.85,30.39-4.29,41.12-6.88a70.37,70.37,0,0,1,6.66,20.47c-11.69,2.39-33.79,3.62-47.79,4.16V291.91Z"/><path class="cls-3" d="M277.6,348l-1.39.72,0.12-.61Z"/><path class="cls-3" d="M256.44,349.33c6-.3,13.07-0.71,19.76-1.25,0,0.2-.27.4-0.31,0.61a104.11,104.11,0,0,1-26.89,9v-8C252,349.57,253.85,349.46,256.44,349.33Z"/><path class="cls-4" d="M297.77,323.1a84.54,84.54,0,0,1-1.06,9.71c-5.25,6.55-12.18,11.48-19.17,15.16l-1.24.11c-6.69.55-13.84,1-19.86,1.25-2.6.13-4.43,0.24-7.43,0.32V331.91C267,330.81,288.92,325.44,297.77,323.1Z"/><path class="cls-5" d="M285,192.32c-2.27-3.89-5.12-6.67-7.19-7.25,3.2-4.6,6.14-9.34,7.06-12.4A105.84,105.84,0,0,1,289.5,160s13.33,24.67,7,33.33a48.66,48.66,0,0,1-8.78,8.86C288.26,200.13,287.25,196.24,285,192.32Z"/><path class="cls-5" d="M277.65,195.63c0.13,0.24.26,0.48,0.4,0.72,2.47,4.23,5.62,7.15,7.71,7.35-4.42,3.25-8.23,5.17-8.59,4.63-0.67-1-9.67-9.67-9.67-9.67s3.7-4.52,7.7-10A20.06,20.06,0,0,0,277.65,195.63Z"/><path class="cls-6" d="M278,196.35c-0.14-.24-0.27-0.48-0.4-0.72,1.33,1.4,2.69,2.08,3.5,1.61,1.22-.71.79-3.74-1-6.76a11,11,0,0,0-3.49-3.87l1.08-1.54c2.07,0.58,4.92,3.36,7.19,7.25s3.31,7.81,2.76,9.88c-0.66.53-1.32,1-2,1.5C283.67,203.5,280.51,200.58,278,196.35Z"/><path class="cls-5" d="M280.17,190.48c1.76,3,2.2,6,1,6.76-0.82.48-2.17-.2-3.5-1.61a20.06,20.06,0,0,1-2.44-7l1.48-2.06A11,11,0,0,1,280.17,190.48Z"/><path class="cls-1" d="M276.69,186.61l1.08-1.54c3.2-4.6,6.14-9.34,7.06-12.4A105.84,105.84,0,0,1,289.5,160s7.16,13.25,8.49,23.74l-0.6,8a7.59,7.59,0,0,1-.89,1.63,48.66,48.66,0,0,1-8.78,8.86c-0.66.53-1.32,1-2,1.5-4.42,3.25-8.23,5.17-8.59,4.63-0.67-1-9.67-9.67-9.67-9.67s3.7-4.52,7.7-10Z"/><path class="cls-7" d="M263.52,128.11h-0.13A77.25,77.25,0,0,0,249,127.5V90C257,97.33,263.52,128.11,263.52,128.11Z"/><path class="cls-8" d="M268.76,129A261.22,261.22,0,0,1,289.5,83c-5,43,15,47,15,47-2.3,1-6.45,6.6-11.26,14.15C287.83,137,280,131.58,268.76,129Z"/><path class="cls-8" d="M268.76,129c11.23,2.56,19.07,8,24.48,15.13C280.63,164,263.5,197.39,263.5,197.39l-6-5.39C257.23,169.66,262.46,147.48,268.76,129Z"/><path class="cls-1" d="M276.69,186.61l1.08-1.54c3.2-4.6,6.14-9.34,7.06-12.4A105.84,105.84,0,0,1,289.5,160s7.16,13.25,8.49,23.74l-0.6,8a7.59,7.59,0,0,1-.89,1.63,48.66,48.66,0,0,1-8.78,8.86c-0.66.53-1.32,1-2,1.5-4.42,3.25-8.23,5.17-8.59,4.63-0.67-1-9.67-9.67-9.67-9.67s3.7-4.52,7.7-10Z"/><path class="cls-7" d="M302.79,215.43l24.71,11s-1.33-23.36-3-27.9c-0.29-.8.62-2.61,2.29-5L349.5,185l-13,31.95L356.25,220,339.5,235.5l25.5,2L349.5,264l20,11-13.25,7,17.25,3-10.32,8.77-64.75-22a172.77,172.77,0,0,0-12.81-25.59A56.49,56.49,0,0,0,302.79,215.43Z"/><path class="cls-6" d="M254.72,230.11l0.11,0.17,14.37,25L256.48,268H249V226.45a4.09,4.09,0,0,1,3.34,1.17Z"/><path class="cls-6" d="M265.77,268h-9.29l12.71-12.75,1.91,3.31C274,263.64,271.63,268,265.77,268Z"/><path class="cls-6" d="M254.72,230.11l-2.12-2.49A9,9,0,0,1,254.72,230.11Z"/><path class="cls-8" d="M249,226.45V224l3.09,3.62A3.53,3.53,0,0,0,249,226.45Z"/><path class="cls-8" d="M269.19,255.25l-14.37-25-0.11-.17a9.58,9.58,0,0,0-2.37-2.49L249,224v-7.05c3,0,5.69,1.79,7.75,5.36L275.19,254l4.67,8c4.13,7.14.81,13-7.44,13H249v-7h16.77c5.86,0,8.25-4.36,5.32-9.43Z"/><path class="cls-3" d="M356.25,282l13.25-7-20-11L365,237.5l-25.5-2L356.25,220l-19.75-3.05,13-31.95-22.71,8.52c6.83-9.86,26.61-30,31.56-35L412,120l-50.5,96.95,68,3.05L368,260l65,57.5-69.82-23.73L373.5,285Z"/><path class="cls-3" d="M324.5,194.38l5.69-15.69,28.15-20.2c-5,5-24.73,25.17-31.56,35Z"/><path class="cls-2" d="M276,348.69c-1.43,7.32-3.84,17.5-6,26.88A25,25,0,0,0,249,364.67v-7A104.14,104.14,0,0,0,276,348.69Z"/><path class="cls-8" d="M249,381.33V364.67a25.33,25.33,0,1,1,0,50.67V398.67A8.67,8.67,0,0,0,249,381.33Z"/><path class="cls-2" d="M257.67,390a8.53,8.53,0,0,1-8.67,8.67V381.33A8.53,8.53,0,0,1,257.67,390Z"/><g class="cls-9"><path class="cls-6" d="M297.64,323.1a76.25,76.25,0,0,0-.73-17.6c-11.69,2.39-33.91,3.62-47.91,4.16v22.26C267,330.81,288.8,325.44,297.64,323.1Z"/><path class="cls-6" d="M276.2,348.69l1.39-.72-1.27.11Z"/><path class="cls-6" d="M256.43,349.33l4.42-.23-4.41.23c-2.6.13-4.44,0.24-7.44,0.32v8a104.11,104.11,0,0,0,26.89-9c0-.2.26-0.4,0.3-0.6h0.1l1.24-.11c7-3.68,13.91-8.61,19.17-15.16a84.54,84.54,0,0,0,1.06-9.71c-8.84,2.34-30.77,7.71-48.77,8.81v17.74C252,349.57,253.83,349.46,256.43,349.33Z"/><path class="cls-6" d="M433,317.5L368,260l61.5-40-68-3.05L412,120l-53.65,38.49,1.15-1.16s-28,.88-32.71,6.18C331.15,152.25,355.5,80,355.5,80l-54.17,80.93a50.31,50.31,0,0,0-8.09-16.78C298,136.6,302.2,131,304.5,130c0,0-20-4-15-47a261.22,261.22,0,0,0-20.74,46c-1.6-.36-3.51-0.72-5.25-1,0,0,0-.06,0-0.06h0S257,97.33,249,90v37.5c1.5-.05,2.89-0.08,4.18-0.08-1.3,0-2.69,0-4.18.08V224l3.34,3.62c0.28,0.22.59,0.48,0.91,0.77l1.47,1.72-2.37-2.49c-0.27-.21-0.49-0.39-0.72-0.55L249,224v85.65c14-.54,36.1-1.77,47.79-4.16A70.37,70.37,0,0,0,290.12,285a71.49,71.49,0,0,0-7.73-12.11c7.28,8.77,20,29.15,14.44,59.89a39.35,39.35,0,0,0,7.67-15.31c3.62-14.7-.49-31.62-6.07-45.74l64.75,22ZM281.62,268.18a8.25,8.25,0,0,0,0-1.11A8.17,8.17,0,0,1,281.62,268.18Zm0-1.13a10.47,10.47,0,0,0-.53-2.41A10.42,10.42,0,0,1,281.6,267.05Zm-0.54-2.43c-0.13-.38-0.29-0.77-0.46-1.16C280.77,263.85,280.93,264.24,281.06,264.62Zm-0.52-1.29q-0.3-.65-0.69-1.32Q280.25,262.68,280.54,263.33Zm-6.24,11.55-0.39.06Zm4.33-1.45a6.52,6.52,0,0,0,2.2-2.37l0,0,0,0A6.62,6.62,0,0,1,278.64,273.42Zm-3.34,1.31,0.5-.13Zm1.25-.32c0.23-.07.43-0.17,0.65-0.25C277,274.24,276.77,274.33,276.54,274.41Zm1.12-.44a8.09,8.09,0,0,0,.84-0.47A8.12,8.12,0,0,1,277.66,274Zm3.94-5.6a7.18,7.18,0,0,1-.11.87A7.27,7.27,0,0,0,281.6,268.36Zm-0.23,1.34c0,0.17-.08.34-0.14,0.5C281.29,270,281.32,269.87,281.37,269.7Z"/><path class="cls-6" d="M249,381.33v34A25.43,25.43,0,0,0,274.46,390a25.11,25.11,0,0,0-4.4-14.44l-0.09-.13c2.17-9.34,4.56-19.46,6-26.75a104.14,104.14,0,0,1-27,9v23.67Z"/></g><path class="cls-2" d="M180.63,465.94V465h3.75v11.25h3.75v1.88H176.88v-1.87h3.75v-7.5h-1.87v-1.87h1.88v-0.94Z"/><path class="cls-2" d="M195.63,465.94V465h3.75v11.25h3.75v1.88H191.88v-1.87h3.75v-7.5h-1.87v-1.87h1.88v-0.94Z"/><path class="cls-2" d="M205,466.88V465h13.13v3.75h-1.87v1.88h-1.87v1.88H212.5v5.63h-3.75V472.5h1.88v-1.87h1.88v-1.87h1.88v-1.87h-5.62v1.88H205v-1.87Z"/><path class="cls-2" d="M236.88,465.94V465h7.5v1.88h1.88v1.88H242.5v-1.87h-3.75v3.75h7.5v1.88h1.88v3.75h-1.87v1.88h-9.37v-1.87H235v-1.87h3.75v1.88h5.63V472.5h-7.5v-1.87H235v-3.75h1.88v-0.94Z"/><path class="cls-2" d="M250,471.56V465h13.13v1.88h-9.37v3.75h7.5v1.88h-7.5v3.75h9.38v1.88H250v-6.56Z"/><path class="cls-2" d="M268.75,465.94V465h5.63v1.88h1.88v1.88h1.88v9.38h-3.75v-3.75h-5.62v3.75H265v-9.37h1.88v-1.87h1.88v-0.94Zm3.75,1.88v-0.94h-1.87v1.88h-1.87v3.75h5.63v-3.75H272.5v-0.94Z"/><path class="cls-2" d="M280,471.56V465h9.38v1.88h1.88v1.88h1.88v5.63h-1.87v1.88h-1.87v1.88H280v-6.56Zm7.5-3.75v-0.94h-3.75v9.38h3.75v-1.87h1.88v-5.62H287.5v-0.94Z"/><path class="cls-2" d="M295,471.56V465h11.25v1.88h1.88v5.63h-3.75v1.88h1.88v1.88h1.88v1.88H302.5v-1.87h-1.87v-1.87h-1.87v3.75H295v-6.56Zm9.38-2.81v-1.87h-5.62v5.63h3.75v-1.87h1.88v-1.87Z"/><path class="cls-2" d="M313.75,465.94V465h5.63v1.88h1.88v1.88h1.88v9.38h-3.75v-3.75h-5.62v3.75H310v-9.37h1.88v-1.87h1.88v-0.94Zm3.75,1.88v-0.94h-1.87v1.88h-1.87v3.75h5.63v-3.75H317.5v-0.94Z"/></svg>