<?xml version="1.0" ?><svg id="pkflt" viewBox="0 0 500 500" xmlns="http://www.w3.org/2000/svg"><defs><style>.cls-1{fill:#e6e6e6;}.cls-2{fill:#de4c31;}.cls-3{fill:none;}.cls-4{fill:#e97963;}.cls-5{fill:#e3f1e1;}.cls-6{fill:#f97f6e;}.cls-7{fill:#ed4c37;}.cls-8{fill:#fff;}.cls-9{fill:#edd7cc;}.cls-10{fill:#8dc6bb;}.cls-11,.cls-14{fill:#1a1a1a;}.cls-12{fill:#f3849b;}.cls-13{fill:#df8081;}.cls-14{opacity:0.1;}</style></defs><title/><path class="cls-1" d="M184.39,312.75h0l-0.11-3-0.84.49Z"/><path class="cls-2" d="M185.22,309.24l-1.11-4.37,0.18,4.92Z"/><path class="cls-3" d="M222.12,265c-0.31-.27-0.61-0.54-0.94-0.79a16.46,16.46,0,0,0-10-3.34c-7.25,0-13.66,4.29-17.58,10.87a29.43,29.43,0,0,0-4,15c0,14.31,7.51,25.92,19.44,25.92a18.52,18.52,0,0,0,8.77-2.23,22.66,22.66,0,0,0,8-7.31,29.09,29.09,0,0,0,4.87-16.37,37.47,37.47,0,0,0-.92-8.36A24.8,24.8,0,0,0,222.12,265Z"/><path class="cls-3" d="M143.91,295.75c0-.61,0-1.36,0-2.31C143.91,294.39,143.91,295.14,143.91,295.75Z"/><path class="cls-3" d="M222.12,265c-0.31-.27-0.61-0.54-0.94-0.79a16.46,16.46,0,0,0-10-3.34c-7.25,0-13.66,4.29-17.58,10.87a29.43,29.43,0,0,0-4,15c0,14.31,7.51,25.92,19.44,25.92a18.52,18.52,0,0,0,8.77-2.23,22.66,22.66,0,0,0,8-7.31,29.09,29.09,0,0,0,4.87-16.37,37.47,37.47,0,0,0-.92-8.36A24.8,24.8,0,0,0,222.12,265Z"/><path class="cls-3" d="M149.06,314c0-1.11.19-2.13,0.16-3.41C149.25,311.86,149.05,312.89,149.06,314Z"/><path class="cls-1" d="M150.12,318a8.4,8.4,0,0,1-1.06-4c0-1.11.18-2.14,0.16-3.41a15.07,15.07,0,0,0-1.8-6.41c-3.31-6.85-3.51-4.14-3.51-8.42,0-.61,0-1.36,0-2.31,0-5.08,5.62-10.71,9.29-13.86-5.57-1.51-10.18-3.49-11.18-6-1.07-2.69-1.24-3.81-1.21-4.74a10.44,10.44,0,0,0-3.38.93c-4.86,2.29-5.94,2-8.64,8.74s0.54,7.22-5.94,12.91-10.26,10.45-7,15.49,5.13,0.64,7.83,11.07,1.08,13.67,1.08,13.67,1.89,11.34,12.15,7c4.15-1.75,12.7-6.31,21.41-11.13C153.21,325.9,152.78,323.22,150.12,318Z"/><path class="cls-4" d="M165.51,317.3c-0.27-3.55.27-7.25-1.89-11.57s-3.78-1.62-4.86-10.8,2.16-3.24,5.94-8.1a9.36,9.36,0,0,0,2.05-4.53,123.55,123.55,0,0,1-13.55-2.71c-3.68,3.14-9.29,8.77-9.29,13.86,0,0.94,0,1.7,0,2.31,0,4.27.21,1.51,3.51,8.36a15,15,0,0,1,1.8,6.48c0,1.29-.17,2.31-0.16,3.41a8.44,8.44,0,0,0,1.06,4c2.66,5.22,3.09,7.92,8.21,9.55h0c8.73-4.83,17.62-9.91,22.43-12.68-0.34-.84-0.66-1.68-1-2.54C174,315.47,165.69,319.61,165.51,317.3Z"/><path class="cls-4" d="M147.42,304.17a15.07,15.07,0,0,1,1.8,6.41,15,15,0,0,0-1.8-6.48c-3.31-6.85-3.51-4.09-3.51-8.36C143.91,300,144.12,297.32,147.42,304.17Z"/><path class="cls-4" d="M150.12,318a8.44,8.44,0,0,1-1.06-4,8.4,8.4,0,0,0,1.06,4c2.66,5.22,3.09,7.89,8.19,9.52h0C153.21,325.89,152.78,323.2,150.12,318Z"/><path class="cls-2" d="M173.05,283.13l3.55,9.27a57.77,57.77,0,0,1,.81-8.81h0S175.7,283.44,173.05,283.13Z"/><path class="cls-2" d="M176.6,292.4l-3.55-9.27c-1.75-.21-3.92-0.48-6.3-0.84a9.36,9.36,0,0,1-2.05,4.53c-3.78,4.86-7-1.08-5.94,8.1s2.7,6.48,4.86,10.8,1.62,8,1.89,11.57c0.18,2.31,8.51-1.83,14.29-5a57.77,57.77,0,0,1-3.22-19C176.58,293,176.6,292.7,176.6,292.4Z"/><polygon class="cls-5" points="171.42 279.15 165.76 277.11 171.48 279.31 171.42 279.15"/><path class="cls-4" d="M177.8,281.51v0l-0.12,0Z"/><path class="cls-5" d="M177.74,283.21l0.94-1.06c-0.26-.18-0.56-0.39-0.88-0.64-0.11.53-.21,1.07-0.3,1.6Z"/><path class="cls-5" d="M177.41,283.59l0.33-.38-0.24-.1C177.47,283.27,177.43,283.43,177.41,283.59Z"/><path class="cls-3" d="M222.12,265c-0.31-.27-0.61-0.54-0.94-0.79a16.46,16.46,0,0,0-10-3.34c-7.25,0-13.66,4.29-17.58,10.87a29.43,29.43,0,0,0-4,15c0,14.31,7.51,25.92,19.44,25.92a18.52,18.52,0,0,0,8.77-2.23,22.66,22.66,0,0,0,8-7.31,29.09,29.09,0,0,0,4.87-16.37,37.47,37.47,0,0,0-.92-8.36A24.8,24.8,0,0,0,222.12,265Z"/><path class="cls-3" d="M178.68,282.15c-0.26-.18-0.56-0.39-0.88-0.64-0.11.53-.21,1.07-0.3,1.6,0,0.16-.06.32-0.09,0.48l0.33-.38Z"/><polygon class="cls-3" points="238.49 246.34 243.96 229.64 243.96 229.64 238.49 246.34"/><polygon class="cls-3" points="165.76 277.11 171.48 279.31 171.42 279.15 165.76 277.11"/><path class="cls-3" d="M177.8,281.51v0l-0.12,0Z"/><path class="cls-1" d="M223,147.52c-5.4,1.62-6.75,15.12-11.41,20.79s-15.59,2.16-26.38,2.81-14.83,15.19-14.83,15.2c1.6,0.23,3,.39,4,0.45,3.7,0.21,17.18,10.59,28.7,22.42,2.29,2.35,4.49,4.75,6.53,7.14a55.33,55.33,0,0,1,5.18-3.68c2.88-1.67,5.64-.05,6-5.72s-3.59-10.37.53-18c3.89-7.23,5.65-19,28.65-17.7V139.14C237,138.46,227.74,146.1,223,147.52Z"/><path class="cls-6" d="M223.13,233l-0.2-.08a19.05,19.05,0,0,1-1.53-5.09l-3.3.2a25.68,25.68,0,0,1,2.5,5.9Q221.86,233.47,223.13,233Z"/><path class="cls-6" d="M219.67,237.61c0.06,0.19.12,0.37,0.19,0.54C219.8,238,219.73,237.8,219.67,237.61Z"/><path class="cls-6" d="M220.38,239.31a8,8,0,0,1-.38-0.81A7.77,7.77,0,0,0,220.38,239.31Z"/><path class="cls-6" d="M221.35,188.91c-4.12,7.64-.18,12.34-0.53,18s-3.11,4-6,5.72a55.32,55.32,0,0,0-5.18,3.68A75.73,75.73,0,0,1,218.1,228l3.3-.2c-0.2-1.75,0-3.44,1.53-4.15,3.6-1.73,5.81.46,6.73-4.94s-2.6-4.4-1.25-9.75S235,186.94,250,189.1V171.21C227,169.94,225.24,181.68,221.35,188.91Z"/><path class="cls-7" d="M223.13,233a79.07,79.07,0,0,1,8.63-2.49c1.44-.32,2.89-0.59,4.36-0.84h-0.7a17.91,17.91,0,0,1-.08-2.68l-13.94.83a19.05,19.05,0,0,0,1.53,5.09Z"/><path class="cls-7" d="M228.41,209c-1.35,5.35,2.16,4.35,1.24,9.75s-3.13,3.21-6.72,4.94c-1.48.71-1.73,2.41-1.53,4.15l13.94-.83c0.1-2.66.81-6.57,3.88-8.28,4.86-2.7,3.3-5.83,4.62-7.63S250,205.3,250,205.3V189.1C235,186.94,229.76,203.66,228.41,209Z"/><polygon class="cls-8" points="243.96 229.64 244.25 228.73 243.96 229.64 243.96 229.64"/><path class="cls-8" d="M243.83,211.12c-1.32,1.8.24,4.93-4.62,7.63-3.07,1.7-3.77,5.62-3.87,8.28a17.83,17.83,0,0,0,.08,2.68h0.7q1.33-.22,2.68-0.4l0.92-.12c1.36-.17,2.73-0.31,4.11-0.41l0.74-2.29,0.77-2.38c0.62-1.89,1.21-3.68,1.75-5.3l0.82-2.47c1.26-3.77,2.09-6.17,2.09-6.17V205.3S245.15,209.32,243.83,211.12Z"/><path class="cls-9" d="M247.52,218.77l1.15-3.51-0.74,1.06-0.82,2.47Z"/><path class="cls-9" d="M248.66,215.27l1.34-4.12v-1s-0.83,2.4-2.09,6.17Z"/><path class="cls-2" d="M207,228.71l-6.09.36-6.72-9.43c-4.25-2.52-3.46.21-12.54,1.31-11.88,1.44-2.52,3.6,3.6,13.66s0.72,2.54,0,11.73c-0.57,7.33,1.83,6.05,6.31,7.8a72.1,72.1,0,0,1,23.56-17.8l-2.47-5.07C210.57,230.73,208.18,230.45,207,228.71Z"/><path class="cls-2" d="M207,228.71c0-.07-0.1-0.13-0.15-0.2-0.15-.25-0.25-0.44-0.32-0.59-0.71-.25-2.48-1.28-6.52-4.23-2.72-2-4.51-3.26-5.82-4l6.72,9.43Z"/><path class="cls-2" d="M216.18,234.61c-0.17-2.18-1.73-2.87-3.56-3.35l2.47,5.07,0.5-.25Z"/><path class="cls-2" d="M206.5,227.92c1.17,0.42-.62-1.31,0,0h0Z"/><path class="cls-5" d="M177.8,281.51l-0.11-.09C173.3,278,164.35,268.66,173,253c0,0-5.4-20.16-9.36-24.48s-0.72-23.76,5-25.2,8.28-.72,14.76,1.8l0.54,0.23-13.57-19h0c-8.26-1.2-22.56-4.52-29.8-7.83-8.64-4-14,5.4-17.64,14s12.6,5,2.52,22-2.52,28.25-2.52,28.25,13.32,4.87,16.56,16.3c2,7.2,1.37,8.22,1.31,9.8,0,0.93.14,2.05,1.21,4.74,1,2.53,5.61,4.51,11.18,6a123.55,123.55,0,0,0,13.55,2.71c2.38,0.36,4.54.63,6.3,0.84,2.65,0.31,4.35.46,4.35,0.46h0c0-.16.06-0.32,0.09-0.48C177.59,282.57,177.69,282,177.8,281.51Zm-12-4.4,5.66,2,0.06,0.16Z"/><path class="cls-5" d="M184,205.34c5.82,2.46,4.38,5.16,12.06,4.81a40.63,40.63,0,0,0,7.1-1c-11.52-11.83-25-22.21-28.69-22.42-1.05-.06-2.43-0.21-4-0.45h0Z"/><path class="cls-4" d="M218.1,228a75.72,75.72,0,0,0-8.46-11.73c-2-2.39-4.24-4.79-6.53-7.14a40.63,40.63,0,0,1-7.1,1c-7.68.35-6.24-2.35-12.06-4.81l-0.54-.23c-6.48-2.52-9-3.24-14.76-1.8s-9,20.88-5,25.2S173,253,173,253c-8.63,15.67.31,25,4.7,28.43l0.12,0a61,61,0,0,1,13.72-27.33c-4.47-1.75-6.88-.47-6.31-7.8,0.72-9.18,6.12-1.67,0-11.73s-15.48-12.22-3.6-13.66c9.08-1.1,8.28-3.83,12.54-1.31,1.31,0.78,3.1,2.06,5.82,4,4,2.95,5.81,4,6.52,4.23-0.62-1.31,1.17.42,0,0,0.07,0.15.17,0.34,0.32,0.59,0,0.07.1,0.13,0.15,0.2,1.21,1.74,3.6,2,5.65,2.55,1.84,0.48,3.39,1.17,3.56,3.35l-0.59,1.48c1.09-.51,2.2-1,3.32-1.48,0.56-.23,1.13-0.44,1.69-0.66A25.68,25.68,0,0,0,218.1,228Z"/><path class="cls-5" d="M237.84,278.37c-1.38-4.14-1.86-4.86-6.21-8.68s-3.57-5.18-3.21-8.78-0.36-9.88,0-11-5.4-6-8-11h-3.85l-1.45-2.82a72.3,72.3,0,0,0-23.56,17.88,61.18,61.18,0,0,0-13.72,27.36v0.06c0.32,0.25.62,0.47,0.88,0.65l-0.94,1.07-0.33.38a57.79,57.79,0,0,0-.81,8.81c0,0.3,0,.61,0,0.91a57.78,57.78,0,0,0,3.22,19c0.3,0.85.61,1.7,0.95,2.54C190.82,340,218,358.1,250,358.1V324.84s-9.24-2.06-14-4.36-3.65-8.73-3.65-8.73,1.82-5.08,4-4.84,13.61,1,13.61,1V287.51c-1-.18-2.51-0.4-4-0.69C231.29,283.95,239.21,282.51,237.84,278.37ZM225.7,303.2a22.66,22.66,0,0,1-8,7.31,18.52,18.52,0,0,1-8.77,2.23c-11.93,0-19.44-11.6-19.44-25.92a29.43,29.43,0,0,1,4-15c3.92-6.58,10.33-10.87,17.58-10.87a16.46,16.46,0,0,1,10,3.34c0.32,0.24.63,0.52,0.94,0.79a24.8,24.8,0,0,1,7.54,13.43,37.47,37.47,0,0,1,.92,8.36A29.09,29.09,0,0,1,225.7,303.2Z"/><path class="cls-5" d="M219.86,238.15c-0.07-.17-0.13-0.36-0.19-0.54a23.79,23.79,0,0,1-.76-3c-1.13.47-2.23,1-3.32,1.48-0.17.08-.33,0-0.5,0.09l1.45,2.82h3.85a1.16,1.16,0,0,1-.38-0.65C220,238.23,219.91,238.27,219.86,238.15Z"/><path class="cls-4" d="M243.19,269.08a21.14,21.14,0,0,1-5.36-3.63,7.28,7.28,0,0,1-2.4-4.54c-0.17-2.16,1.15-7.8,3.06-14.57,0,0-3.37-2.73-5.38-8.94-0.18-.56-0.35-1.16-0.51-1.78a31.18,31.18,0,0,1-.84-5.08,79.07,79.07,0,0,0-8.63,2.49q-1.27.44-2.52,0.93c-0.56.22-1.13,0.43-1.69,0.66,0.11,0.59.24,1.14,0.38,1.68s0.25,0.9.38,1.32c0.06,0.19.12,0.37,0.19,0.54L220,238.5a8,8,0,0,0,.38.81c2.63,4.68,8.39,9.72,8,10.8s0.36,7.2,0,10.8-1.15,5,3.21,8.78,4.83,4.54,6.21,8.68-6.55,5.58,8.21,8.46c1.44,0.28,3,.51,4,0.69v-15.8A41.55,41.55,0,0,1,243.19,269.08Z"/><path class="cls-4" d="M219.86,238.15L220,238.5Z"/><path class="cls-4" d="M219.29,236.29c-0.14-.54-0.26-1.09-0.38-1.68a23.79,23.79,0,0,0,.76,3C219.54,237.19,219.41,236.76,219.29,236.29Z"/><path class="cls-2" d="M239.18,229.67l-1.75,1.58-4.32,6.15c2,6.21,5.38,8.94,5.38,8.94h0c1.48-5.25,3.3-11.18,5.07-16.7Z"/><path class="cls-2" d="M232.6,235.61c0.16,0.62.32,1.22,0.51,1.78l4.32-6.15Z"/><polygon class="cls-2" points="237.43 231.25 239.18 229.67 238.54 229.68 237.43 231.25"/><path class="cls-2" d="M237.43,231.25l1.11-1.57-2.41,0c-1.47.25-2.93,0.52-4.36,0.84a31.18,31.18,0,0,0,.84,5.08Z"/><path class="cls-2" d="M243.56,229.64l0.28-.88c-1.38.1-2.75,0.25-4.11,0.41l-0.55.5Z"/><path class="cls-2" d="M239.18,229.67l0.55-.5-0.92.12-0.27.39h0.64Z"/><path class="cls-2" d="M238.81,229.29q-1.35.18-2.68,0.4l2.41,0Z"/><polygon class="cls-9" points="247.51 218.77 250 218.65 250 213.35 248.65 215.27 247.51 218.77"/><polygon class="cls-9" points="250 213.35 250 211.14 248.65 215.27 250 213.35"/><polygon class="cls-9" points="248.66 215.27 248.66 215.27 247.51 218.77 248.66 215.27"/><polygon class="cls-9" points="248.66 215.27 250.01 211.14 248.66 215.27 248.66 215.27"/><path class="cls-9" d="M247.51,218.77l-0.42,0c-0.54,1.62-1.13,3.41-1.74,5.3l-0.77,2.38-0.74,2.29,0.42,0-0.3.91h-0.4c-1.76,5.52-3.59,11.45-5.07,16.7h0c-1.9,6.77-3.22,12.41-3.06,14.57a7.28,7.28,0,0,0,2.4,4.54,21.12,21.12,0,0,0,5.36,3.63,41.55,41.55,0,0,0,6.81,2.63V218.65Z"/><path class="cls-9" d="M243.56,229.64H244l0.3-.91-0.42,0Z"/><path class="cls-8" d="M196,287.37a23.11,23.11,0,0,1,5.6-15.09c-2.84-.24-5.56-0.4-8.06-0.5a29.43,29.43,0,0,0-4,15c0,14.31,7.51,25.92,19.44,25.92a18.52,18.52,0,0,0,8.77-2.23A23.2,23.2,0,0,1,196,287.37Z"/><path class="cls-10" d="M210.19,288.74a5.15,5.15,0,0,1-.68.07,5.22,5.22,0,1,1,.68-10.37,20.05,20.05,0,0,1,2-4.88c-3.57-.58-7.18-1-10.62-1.28a23.18,23.18,0,0,0,16.14,38.23,22.66,22.66,0,0,0,8-7.31A20,20,0,0,1,210.19,288.74Z"/><path class="cls-11" d="M212.24,273.56a20.05,20.05,0,0,0-2,4.88,5.19,5.19,0,0,1,0,10.3A20,20,0,0,0,225.7,303.2a29.09,29.09,0,0,0,4.87-16.37,37.47,37.47,0,0,0-.92-8.36A67.4,67.4,0,0,0,212.24,273.56Z"/><path class="cls-4" d="M212.24,273.56a67.4,67.4,0,0,1,17.42,4.9A24.8,24.8,0,0,0,222.12,265c-0.31-.27-0.61-0.54-0.94-0.79a16.46,16.46,0,0,0-10-3.34c-7.25,0-13.66,4.29-17.58,10.87,2.49,0.1,5.22.26,8.06,0.5C205.06,272.57,208.66,273,212.24,273.56Z"/><path class="cls-8" d="M204.3,283.59a5.22,5.22,0,0,0,5.22,5.22,5.22,5.22,0,0,0,0-10.44A5.22,5.22,0,0,0,204.3,283.59Z"/><path class="cls-12" d="M232.35,311.74s-1.12,6.43,3.64,8.73,14,4.36,14,4.36V317.3l-13.85-5.63A86.78,86.78,0,0,0,250,313.72v-5.86s-11.38-.71-13.61-1S232.35,311.74,232.35,311.74Z"/><path class="cls-13" d="M250,317.3v-3.58a86.78,86.78,0,0,1-13.85-2.05Z"/><path class="cls-1" d="M315.26,312.75h0l0.11-3,0.84,0.49Z"/><path class="cls-2" d="M314.44,309.24l1.11-4.37-0.18,4.92Z"/><path class="cls-3" d="M277.54,265c0.31-.27.61-0.54,0.94-0.79a16.46,16.46,0,0,1,10-3.34c7.25,0,13.66,4.29,17.58,10.87a29.43,29.43,0,0,1,4,15c0,14.31-7.51,25.92-19.44,25.92a18.52,18.52,0,0,1-8.77-2.23,22.66,22.66,0,0,1-8-7.31,29.09,29.09,0,0,1-4.87-16.37,37.47,37.47,0,0,1,.92-8.36A24.8,24.8,0,0,1,277.54,265Z"/><path class="cls-3" d="M355.75,295.75c0-.61,0-1.36,0-2.31C355.74,294.39,355.75,295.14,355.75,295.75Z"/><path class="cls-3" d="M277.54,265c0.31-.27.61-0.54,0.94-0.79a16.46,16.46,0,0,1,10-3.34c7.25,0,13.66,4.29,17.58,10.87a29.43,29.43,0,0,1,4,15c0,14.31-7.51,25.92-19.44,25.92a18.52,18.52,0,0,1-8.77-2.23,22.66,22.66,0,0,1-8-7.31,29.09,29.09,0,0,1-4.87-16.37,37.47,37.47,0,0,1,.92-8.36A24.8,24.8,0,0,1,277.54,265Z"/><path class="cls-3" d="M350.6,314c0-1.11-.19-2.13-0.16-3.41C350.41,311.86,350.6,312.89,350.6,314Z"/><path class="cls-1" d="M349.53,318a8.4,8.4,0,0,0,1.06-4c0-1.11-.18-2.14-0.16-3.41a15.07,15.07,0,0,1,1.8-6.41c3.31-6.85,3.51-4.14,3.51-8.42,0-.61,0-1.36,0-2.31,0-5.08-5.62-10.71-9.29-13.86,5.57-1.51,10.18-3.49,11.18-6,1.07-2.69,1.24-3.81,1.21-4.74a10.44,10.44,0,0,1,3.38.93c4.86,2.29,5.94,2,8.64,8.74s-0.54,7.22,5.94,12.91,10.26,10.45,7,15.49-5.13.64-7.83,11.07-1.08,13.67-1.08,13.67-1.89,11.34-12.15,7c-4.15-1.75-12.7-6.31-21.41-11.13C346.45,325.9,346.88,323.22,349.53,318Z"/><path class="cls-4" d="M334.14,317.3c0.27-3.55-.27-7.25,1.89-11.57s3.78-1.62,4.86-10.8-2.16-3.24-5.94-8.1a9.36,9.36,0,0,1-2.05-4.53,123.55,123.55,0,0,0,13.55-2.71c3.68,3.14,9.29,8.77,9.29,13.86,0,0.94,0,1.7,0,2.31,0,4.27-.21,1.51-3.51,8.36a15,15,0,0,0-1.8,6.48c0,1.29.17,2.31,0.16,3.41a8.44,8.44,0,0,1-1.06,4c-2.66,5.22-3.09,7.92-8.21,9.55h0c-8.73-4.83-17.62-9.91-22.43-12.68,0.34-.84.66-1.68,1-2.54C325.63,315.47,334,319.61,334.14,317.3Z"/><path class="cls-4" d="M352.23,304.17a15.07,15.07,0,0,0-1.8,6.41,15,15,0,0,1,1.8-6.48c3.31-6.85,3.51-4.09,3.51-8.36C355.75,300,355.54,297.32,352.23,304.17Z"/><path class="cls-4" d="M349.53,318a8.44,8.44,0,0,0,1.06-4,8.4,8.4,0,0,1-1.06,4c-2.66,5.22-3.09,7.89-8.19,9.52h0C346.45,325.89,346.87,323.2,349.53,318Z"/><path class="cls-2" d="M326.6,283.13l-3.55,9.27a57.77,57.77,0,0,0-.81-8.81h0S324,283.44,326.6,283.13Z"/><path class="cls-2" d="M323.06,292.4l3.55-9.27c1.75-.21,3.92-0.48,6.3-0.84a9.36,9.36,0,0,0,2.05,4.53c3.78,4.86,7-1.08,5.94,8.1s-2.7,6.48-4.86,10.8-1.62,8-1.89,11.57c-0.18,2.31-8.51-1.83-14.29-5a57.77,57.77,0,0,0,3.22-19C323.08,293,323.06,292.7,323.06,292.4Z"/><polygon class="cls-5" points="328.23 279.15 333.89 277.11 328.17 279.31 328.23 279.15"/><path class="cls-4" d="M321.86,281.51v0l0.12,0Z"/><path class="cls-5" d="M321.92,283.21L321,282.15c0.26-.18.56-0.39,0.88-0.64,0.11,0.53.21,1.07,0.3,1.6Z"/><path class="cls-5" d="M322.25,283.59l-0.33-.38,0.24-.1C322.19,283.27,322.22,283.43,322.25,283.59Z"/><path class="cls-3" d="M277.54,265c0.31-.27.61-0.54,0.94-0.79a16.46,16.46,0,0,1,10-3.34c7.25,0,13.66,4.29,17.58,10.87a29.43,29.43,0,0,1,4,15c0,14.31-7.51,25.92-19.44,25.92a18.52,18.52,0,0,1-8.77-2.23,22.66,22.66,0,0,1-8-7.31,29.09,29.09,0,0,1-4.87-16.37,37.47,37.47,0,0,1,.92-8.36A24.8,24.8,0,0,1,277.54,265Z"/><path class="cls-3" d="M321,282.15c0.26-.18.56-0.39,0.88-0.64,0.11,0.53.21,1.07,0.3,1.6,0,0.16.06,0.32,0.09,0.48l-0.33-.38Z"/><polygon class="cls-3" points="261.17 246.34 255.7 229.64 255.7 229.64 261.17 246.34"/><polygon class="cls-3" points="333.89 277.11 328.17 279.31 328.23 279.15 333.89 277.11"/><path class="cls-3" d="M321.86,281.51v0l0.12,0Z"/><path class="cls-1" d="M276.82,147.52c5.4,1.62,6.66,15.12,11.32,20.79s15.54,2.16,26.34,2.81,14.81,15.19,14.81,15.2c-1.6.23-3,.39-4,0.45-3.7.21-17.18,10.59-28.7,22.42-2.29,2.35-4.49,4.75-6.53,7.14a55.33,55.33,0,0,0-5.19-3.68c-2.88-1.67-5.64-.05-6-5.72s3.76-10.37-.35-18c-3.89-7.23-5.48-19-28.48-17.7V139.14C263,138.46,272.08,146.1,276.82,147.52Z"/><path class="cls-6" d="M276.53,233l0.2-.08a19.05,19.05,0,0,0,1.53-5.09l3.3,0.2a25.68,25.68,0,0,0-2.5,5.9Q277.8,233.47,276.53,233Z"/><path class="cls-6" d="M280,237.61c-0.06.19-.12,0.37-0.19,0.54C279.86,238,279.92,237.8,280,237.61Z"/><path class="cls-6" d="M279.27,239.31a8,8,0,0,0,.38-0.81A7.77,7.77,0,0,1,279.27,239.31Z"/><path class="cls-6" d="M278.48,188.91c4.12,7.64.09,12.34,0.44,18s3.07,4,5.95,5.72a55.24,55.24,0,0,1,5.16,3.68A75.85,75.85,0,0,0,281.57,228l-3.3-.2c0.2-1.75-.05-3.44-1.53-4.15-3.6-1.73-5.81.46-6.73-4.94s2.77-4.4,1.42-9.75S264,186.94,250,189.1V171.21C273,169.94,274.59,181.68,278.48,188.91Z"/><path class="cls-7" d="M276.53,233a79.07,79.07,0,0,0-8.63-2.49c-1.44-.32-2.89-0.59-4.36-0.84h0.7a17.91,17.91,0,0,0,.08-2.68l13.94,0.83a19.05,19.05,0,0,1-1.53,5.09Z"/><path class="cls-7" d="M271.42,209c1.35,5.35-2.25,4.35-1.33,9.75s3.08,3.21,6.68,4.94c1.48,0.71,1.71,2.41,1.51,4.15l-14-.83c-0.1-2.66-.81-6.57-3.88-8.28-4.86-2.7-3.13-5.83-4.45-7.63a60.11,60.11,0,0,0-6-5.82V189.1C264,186.94,270.07,203.66,271.42,209Z"/><polygon class="cls-8" points="255.7 229.64 255.4 228.73 255.7 229.64 255.7 229.64"/><path class="cls-8" d="M256,211.12c1.32,1.8-.33,4.93,4.53,7.63,3.07,1.7,3.73,5.62,3.83,8.28a16,16,0,0,1-.1,2.68h-0.72c-0.89-.15-1.79-0.28-2.69-0.4l-0.92-.12c-1.36-.17-2.73-0.31-4.11-0.41l-0.74-2.29-0.77-2.38c-0.62-1.89-1.21-3.68-1.75-5.3-0.29-.88-0.39-1.7-0.65-2.47-1.26-3.77-1.92-6.17-1.92-6.17V205.3A60.16,60.16,0,0,1,256,211.12Z"/><path class="cls-9" d="M252.14,218.77L251,215.27l0.74,1.06,0.82,2.47Z"/><path class="cls-9" d="M251.17,215.27L250,211.14v-1s0.74,2.4,2,6.17Z"/><path class="cls-2" d="M292.69,228.71l6.09,0.36,6.72-9.43c4.25-2.52,3.46.21,12.54,1.31,11.88,1.44,2.52,3.6-3.6,13.66s-0.72,2.54,0,11.73c0.57,7.33-1.83,6.05-6.31,7.8a72.1,72.1,0,0,0-23.56-17.8l2.47-5.07C289.09,230.73,291.48,230.45,292.69,228.71Z"/><path class="cls-2" d="M292.69,228.71c0-.07.1-0.13,0.15-0.2,0.15-.25.25-0.44,0.32-0.59,0.71-.25,2.48-1.28,6.52-4.23,2.72-2,4.51-3.26,5.82-4l-6.72,9.43Z"/><path class="cls-2" d="M283.48,234.61c0.17-2.18,1.73-2.87,3.56-3.35l-2.47,5.07-0.5-.25Z"/><path class="cls-2" d="M293.16,227.92c-1.17.42,0.62-1.31,0,0h0Z"/><path class="cls-5" d="M322.16,283.11c0,0.16.06,0.32,0.09,0.48h0s1.7-.15,4.35-0.46c1.75-.21,3.92-0.48,6.3-0.84a123.55,123.55,0,0,0,13.55-2.71c5.57-1.51,10.18-3.49,11.18-6,1.07-2.69,1.24-3.81,1.21-4.74-0.06-1.58-.73-2.6,1.31-9.8,3.24-11.43,16.56-16.3,16.56-16.3s7.56-11.33-2.52-28.25,6.12-13.32,2.52-22-9-18-17.64-14c-7.24,3.32-21.54,6.63-29.8,7.83h0l-13.57,19,0.54-.23c6.48-2.52,9-3.24,14.76-1.8s9,20.88,5,25.2S326.67,253,326.67,253c8.63,15.67-.31,25-4.7,28.43l-0.11.09C322,282,322.06,282.57,322.16,283.11Zm6-3.8,0.06-.16,5.66-2Z"/><path class="cls-5" d="M315.7,205.34c-5.82,2.46-4.38,5.16-12.06,4.81a40.63,40.63,0,0,1-7.1-1c11.52-11.83,25-22.21,28.69-22.42,1.05-.06,2.43-0.21,4-0.45h0Z"/><path class="cls-4" d="M281.55,228A75.72,75.72,0,0,1,290,216.32c2-2.39,4.24-4.79,6.53-7.14a40.63,40.63,0,0,0,7.1,1c7.68,0.35,6.24-2.35,12.06-4.81l0.54-.23c6.48-2.52,9-3.24,14.76-1.8s9,20.88,5,25.2S326.67,253,326.67,253c8.63,15.67-.31,25-4.7,28.43l-0.12,0a61,61,0,0,0-13.72-27.33c4.47-1.75,6.88-.47,6.31-7.8-0.72-9.18-6.12-1.67,0-11.73S329.91,222.39,318,221c-9.08-1.1-8.28-3.83-12.54-1.31-1.31.78-3.1,2.06-5.82,4-4,2.95-5.81,4-6.52,4.23,0.62-1.31-1.17.42,0,0-0.07.15-.17,0.34-0.32,0.59,0,0.07-.1.13-0.15,0.2-1.21,1.74-3.6,2-5.65,2.55-1.84.48-3.39,1.17-3.56,3.35l0.59,1.48c-1.09-.51-2.2-1-3.32-1.48-0.56-.23-1.13-0.44-1.69-0.66A25.68,25.68,0,0,1,281.55,228Z"/><path class="cls-5" d="M253.78,286.83c-1.44.28-2.78,0.51-3.78,0.69v20.34s11.21-.71,13.43-1,4,4.84,4,4.84,1.24,6.43-3.52,8.73S250,324.84,250,324.84V358.1c31,0,59-18.06,69.08-43.25,0.34-.84.57-1.68,0.87-2.54a57.75,57.75,0,0,0,3.17-19c0-.3,0-0.61,0-0.91a57.78,57.78,0,0,0-.82-8.81l-0.34-.38L321,282.15c0.26-.18.56-0.39,0.88-0.64v0a61,61,0,0,0-13.72-27.33,72.51,72.51,0,0,0-23.56-18L283.12,239h-3.85c-2.63,5-8.39,9.88-8,11s-0.36,7.28,0,10.88,1.15,5-3.21,8.82-4.74,4.56-6.12,8.7S268.54,283.95,253.78,286.83Zm15.3,0a37.47,37.47,0,0,1,.92-8.36A24.8,24.8,0,0,1,277.54,265c0.31-.27.61-0.54,0.94-0.79a16.46,16.46,0,0,1,10-3.34c7.25,0,13.66,4.29,17.58,10.87a29.43,29.43,0,0,1,4,15c0,14.31-7.51,25.92-19.44,25.92a18.52,18.52,0,0,1-8.77-2.23,22.66,22.66,0,0,1-8-7.31A29.09,29.09,0,0,1,269.08,286.83Z"/><path class="cls-5" d="M279.79,238.15c0.07-.17.13-0.36,0.19-0.54a23.79,23.79,0,0,0,.76-3c1.13,0.47,2.23,1,3.32,1.48,0.17,0.08.33,0,.5,0.09L283.12,239h-3.85a1.16,1.16,0,0,0,.38-0.65C279.7,238.23,279.75,238.27,279.79,238.15Z"/><path class="cls-4" d="M256.64,269.08a20.66,20.66,0,0,0,5.27-3.63,7.22,7.22,0,0,0,2.36-4.54c0.17-2.16-1.17-7.8-3.08-14.57,0,0,3.36-2.73,5.37-8.94,0.18-.56.35-1.16,0.5-1.78a31.19,31.19,0,0,0,.84-5.08,79,79,0,0,1,8.63,2.49q1.27,0.44,2.52.93c0.56,0.22,1.13.43,1.69,0.66-0.11.59-.24,1.14-0.38,1.68s-0.25.9-.38,1.32c-0.06.19-.12,0.37-0.19,0.54l-0.14.35a8,8,0,0,1-.38.81c-2.63,4.68-8.39,9.72-8,10.8s-0.36,7.2,0,10.8,1.15,5-3.21,8.78-4.83,4.54-6.21,8.68,6.72,5.58-8,8.46c-1.44.28-2.78,0.51-3.78,0.69v-15.8A43.44,43.44,0,0,0,256.64,269.08Z"/><path class="cls-4" d="M279.79,238.15l-0.14.35Z"/><path class="cls-4" d="M280.37,236.29c0.14-.54.26-1.09,0.38-1.68a23.79,23.79,0,0,1-.76,3C280.12,237.19,280.25,236.76,280.37,236.29Z"/><path class="cls-2" d="M260.48,229.67l1.75,1.58,4.32,6.15c-2,6.21-5.38,8.94-5.38,8.94h0c-1.48-5.25-3.3-11.18-5.07-16.7Z"/><path class="cls-2" d="M267.05,235.61c-0.16.62-.32,1.22-0.51,1.78l-4.32-6.15Z"/><polygon class="cls-2" points="262.23 231.25 260.48 229.67 261.12 229.68 262.23 231.25"/><path class="cls-2" d="M262.23,231.25l-1.11-1.57,2.41,0c1.47,0.25,2.93.52,4.36,0.84a31.18,31.18,0,0,1-.84,5.08Z"/><path class="cls-2" d="M256.1,229.64l-0.28-.88c1.38,0.1,2.75.25,4.11,0.41l0.55,0.5Z"/><path class="cls-2" d="M260.48,229.67l-0.55-.5,0.92,0.12,0.27,0.39h-0.64Z"/><path class="cls-2" d="M260.85,229.29q1.35,0.18,2.68.4l-2.41,0Z"/><polygon class="cls-9" points="252.32 218.77 250 218.65 250 213.35 251.26 215.27 252.32 218.77"/><polygon class="cls-9" points="250 213.35 250 211.14 251.35 215.27 250 213.35"/><polygon class="cls-9" points="250.99 215.27 250.99 215.27 252.14 218.77 250.99 215.27"/><polygon class="cls-9" points="250.99 215.27 249.64 211.14 250.99 215.27 250.99 215.27"/><path class="cls-9" d="M252.32,218.77l0.33,0c0.54,1.62,1.08,3.41,1.7,5.3,0.25,0.78.49,1.57,0.75,2.38s0.48,1.52.73,2.29l-0.42,0,0.29,0.91h0.4c1.76,5.52,3.59,11.45,5.06,16.7h0c1.9,6.77,3.22,12.41,3.06,14.57a7.28,7.28,0,0,1-2.4,4.54,20.17,20.17,0,0,1-5.18,3.63,43.44,43.44,0,0,1-6.64,2.63V218.65Z"/><path class="cls-9" d="M256.1,229.64h-0.4l-0.3-.91,0.42,0Z"/><path class="cls-8" d="M303.64,287.37a23.11,23.11,0,0,0-5.6-15.09c2.84-.24,5.56-0.4,8.06-0.5a29.43,29.43,0,0,1,4,15c0,14.31-7.51,25.92-19.44,25.92a18.52,18.52,0,0,1-8.77-2.23A23.2,23.2,0,0,0,303.64,287.37Z"/><path class="cls-10" d="M289.46,288.74a5.15,5.15,0,0,0,.68.07,5.22,5.22,0,1,0-.68-10.37,20.05,20.05,0,0,0-2-4.88c3.57-.58,7.18-1,10.62-1.28a23.18,23.18,0,0,1-16.14,38.23,22.66,22.66,0,0,1-8-7.31A20,20,0,0,0,289.46,288.74Z"/><path class="cls-11" d="M287.42,273.56a20.05,20.05,0,0,1,2,4.88,5.19,5.19,0,0,0,0,10.3A20,20,0,0,1,274,303.2a29.09,29.09,0,0,1-4.87-16.37,37.47,37.47,0,0,1,.92-8.36A67.4,67.4,0,0,1,287.42,273.56Z"/><path class="cls-4" d="M287.42,273.56a67.4,67.4,0,0,0-17.42,4.9A24.8,24.8,0,0,1,277.54,265c0.31-.27.61-0.54,0.94-0.79a16.46,16.46,0,0,1,10-3.34c7.25,0,13.66,4.29,17.58,10.87-2.49.1-5.22,0.26-8.06,0.5C294.6,272.57,291,273,287.42,273.56Z"/><path class="cls-8" d="M295.36,283.59a5.22,5.22,0,0,1-5.22,5.22,5.22,5.22,0,0,1,0-10.44A5.22,5.22,0,0,1,295.36,283.59Z"/><path class="cls-12" d="M267.3,311.74s1.29,6.43-3.47,8.73S250,324.84,250,324.84V317.3l13.85-5.63A106.21,106.21,0,0,1,250,313.72v-5.86s11.21-.71,13.43-1S267.3,311.74,267.3,311.74Z"/><path class="cls-13" d="M250,317.3v-3.58a106.21,106.21,0,0,0,13.85-2.05Z"/><path class="cls-14" d="M376.8,291.41c-6.48-5.69-3.24-6.17-5.94-12.91s-3.78-6.45-8.64-8.74a10.44,10.44,0,0,0-3.38-.93c-0.06-1.58-.73-2.6,1.31-9.8,3.24-11.43,16.56-16.3,16.56-16.3s7.56-11.33-2.52-28.25,6.12-13.32,2.52-22-9-18-17.64-14c-7.23,3.31-21.51,6.63-29.78,7.83,0-.08-4-14.55-14.81-15.19s-21.68,2.86-26.34-2.81-5.92-19.17-11.32-20.79c-4.73-1.42-13.82-9.07-26.82-8.38V205.3a60.11,60.11,0,0,1,6,5.82,2.56,2.56,0,0,1,.32.6,2.64,2.64,0,0,0-.32-0.6,60.19,60.19,0,0,0-6-5.82v7l-0.37-1.13,0.37,1.13v1.07l0.66,0.93,0,0.14-0.7-1.07V324.84s9.07-2.06,13.83-4.36,3.47-8.73,3.47-8.73-1.64-5.08-3.86-4.84c2.22-.24,4,4.84,4,4.84s1.24,6.43-3.52,8.73S250,324.84,250,324.84V358.1c31,0,58.95-18,69-43.16,4.84,2.79,13.64,7.81,22.28,12.6h0c8.72,4.82,17.27,9.39,21.41,11.13,10.26,4.32,12.15-7,12.15-7S373.29,328.41,376,318s4.59-6,7.83-11.07S383.28,297.1,376.8,291.41Zm-112.53-30.5a7.22,7.22,0,0,1-2.35,4.54,20.63,20.63,0,0,1-5.26,3.62,20.12,20.12,0,0,0,5.17-3.62,7.28,7.28,0,0,0,2.4-4.54c0.17-2.16-1.15-7.8-3.06-14.57h0s3.37-2.73,5.38-8.94c0.18-.56.35-0.93,0.51-1.55a26.27,26.27,0,0,0,.84-4.85h0a26.3,26.3,0,0,1-.84,4.85c-0.16.62-.32,1.1-0.5,1.67-2,6.21-5.37,8.88-5.37,8.88C263.09,253.17,264.43,258.75,264.27,260.91ZM278,227.85h0l3.42,0.15h0.07l-3.26-.18L264.35,227h-0.12Zm6.57,8.49-1.45,3,1.45-3h0Zm-4.91,2.17a1.88,1.88,0,0,1-.38.81A8.06,8.06,0,0,0,279.65,238.5Zm-20.45-67q1.57,0.22,2.94.56c11.47,2.8,13.3,11.2,16.34,16.84,0.1,0.19.18,0.37,0.27,0.56-0.09-.19-0.17-0.37-0.27-0.56-3-5.64-4.87-14-16.34-16.84q-1.38-.34-2.94-0.56t-3.35-.32Q257.64,171.28,259.21,171.5Zm-4.3,17.61c10.58,1.83,15.34,15.21,16.52,19.9,0.06,0.23.09,0.43,0.13,0.64,0-.21-0.08-0.41-0.14-0.64C270.24,204.33,265.49,190.94,254.91,189.11Zm5,40.06,0.92,0.12c0.9,0.12,1.8.25,2.69,0.4h0q-1.33-.22-2.68-0.4l-0.92-.12c-1.36-.17-2.73-0.31-4.11-0.41l-0.41,0h0l0.41,0h0C257.2,228.86,258.57,229,259.93,229.17Zm-8-12.85c0.26,0.77.35,1.59,0.64,2.46h0l-0.82-2.46-0.26-.37-0.15-.5,0.53,0.67Zm-1.25-2,0.38,0.55,0.05,0.19-0.39-.6Zm11.24,64.09c-1.38,4.14,6.63,5.58-8.13,8.46,14.76-2.88,6.65-4.32,8-8.46s1.86-4.86,6.21-8.68C263.68,273.51,263.29,274.23,261.91,278.37Z"/><path class="cls-2" d="M173.13,465.94V465h3.75v11.25h3.75v1.88H169.38v-1.87h3.75v-7.5h-1.87v-1.87h1.88v-0.94Z"/><path class="cls-2" d="M188.13,465.94V465h3.75v11.25h3.75v1.88H184.38v-1.87h3.75v-7.5h-1.87v-1.87h1.88v-0.94Z"/><path class="cls-2" d="M199.38,465.94V465h7.5v1.88h1.88v3.75h-1.87v1.88h3.75v3.75h-1.87v1.88h-9.37v-1.87H197.5V472.5h1.88v-1.87H197.5v-3.75h1.88v-0.94Zm3.75,7.5V472.5h-3.75v3.75h7.5v-1.87h-3.75v-0.94Zm3.75-4.69v-1.87h-5.62v1.88h1.88v1.88h3.75v-1.87Z"/><path class="cls-2" d="M231.25,465.94V465h9.38v1.88h-7.5v1.88h-1.87v5.63h1.88v1.88h3.75V472.5H235v-1.87h5.63v7.5h-9.37v-1.87h-1.87v-1.87H227.5v-5.62h1.88v-1.87h1.88v-0.94Z"/><path class="cls-2" d="M244.38,465.94V465h9.38v1.88h1.88v9.38h-1.87v1.88h-9.37v-1.87H242.5v-9.37h1.88v-0.94Zm7.5,5.63v-4.69h-5.62v9.38h5.63v-4.69Z"/><path class="cls-2" d="M259.38,471.56V465h3.75v11.25h7.5v1.88H259.38v-6.56Z"/><path class="cls-2" d="M272.5,471.56V465h9.38v1.88h1.88v1.88h1.88v5.63h-1.87v1.88h-1.87v1.88H272.5v-6.56Zm7.5-3.75v-0.94h-3.75v9.38H280v-1.87h1.88v-5.62H280v-0.94Z"/><path class="cls-2" d="M287.5,471.56V465h13.13v1.88h-9.37v3.75h7.5v1.88h-7.5v3.75h9.38v1.88H287.5v-6.56Z"/><path class="cls-2" d="M302.5,471.56V465h13.13v1.88h-9.37v3.75h7.5v1.88h-7.5v3.75h9.38v1.88H302.5v-6.56Z"/><path class="cls-2" d="M317.5,471.56V465h3.75v1.88h1.88v1.88H325v1.88h1.88V465h3.75v13.13h-3.75v-1.87H325v-1.87h-1.87V472.5h-1.87v5.63H317.5v-6.56Z"/></svg>