<?xml version="1.0" ?><svg id="pkflt" viewBox="0 0 500 500" xmlns="http://www.w3.org/2000/svg"><defs><style>.cls-1{fill:none;}.cls-2{fill:#e5f2e2;}.cls-3{fill:#e26252;}.cls-4{fill:#e6e6e6;}.cls-5{fill:#dce9ea;}.cls-6{fill:#fff;}.cls-7{fill:#1a1a1a;}.cls-8{fill:#e25941;}.cls-9{fill:#f2ddd3;}.cls-10{fill:#f3849b;}.cls-11{fill:#dd97a7;}.cls-12{fill:#333;}.cls-13{opacity:0.1;}</style></defs><title/><path class="cls-1" d="M226.79,288.87a0.14,0.14,0,0,0,.05-0.06l-0.05,0a0.68,0.68,0,0,1-.41,0h0A0.69,0.69,0,0,0,226.79,288.87Z"/><path class="cls-1" d="M226.38,288.84h0a0.39,0.39,0,0,0-.44.21h0A0.38,0.38,0,0,1,226.38,288.84Z"/><path class="cls-1" d="M229.4,296.15L224,290.76v0h0a1.47,1.47,0,0,1,.75-0.71c0.05,0-.18,0-0.13,0s-0.11-.15-0.16-0.11c-0.36.25-.71,0.51-1.05,0.79h0l5.68,5.43h0.29Z"/><path class="cls-1" d="M225.94,289.05a1.12,1.12,0,0,0-.1.17,1.09,1.09,0,0,1,.1-0.17h0Z"/><path class="cls-1" d="M229.14,288.09a0.38,0.38,0,0,1,.18.06,0.4,0.4,0,0,0-.18-0.16,7.83,7.83,0,0,0-1.05.22v0h0A7.54,7.54,0,0,1,229.14,288.09Z"/><path class="cls-1" d="M224.91,289.88a1.62,1.62,0,0,1,.8-0.27A1.62,1.62,0,0,0,224.91,289.88Z"/><path class="cls-1" d="M231.39,288.38c0.08,0,.15-0.11.23-0.09-0.08,0-.15.06-0.23,0a3.91,3.91,0,0,0-1,0A3.87,3.87,0,0,1,231.39,288.38Z"/><path class="cls-2" d="M233,155.86v0a32.65,32.65,0,0,1,5.79-1.1c5.94-17.24,11.21-31.13,11.21-31.13V77.42C232,83.61,233,155.86,233,155.86Z"/><path class="cls-3" d="M218.86,296.26h0Z"/><path class="cls-4" d="M218.86,296.27h0c-0.13.24-.25,0.48-0.36,0.72Q218.67,296.63,218.86,296.27Z"/><path class="cls-4" d="M225.24,317.68c-7,2.89-16.09-8.26-16.09-14.45,0-2,1.47-4.38,3.72-6.9,0,0-5.57-3-12.38,4.42-4.09,4.46-16.66,25.64-26,41.87C192.61,367.39,220,383.11,250,383.11v-67.5S232.26,314.79,225.24,317.68Z"/><path class="cls-1" d="M162,320.7v0.07l0,0.06Z"/><path class="cls-4" d="M152.84,247.52c7.12-44.95,36.69-80.65,75.69-90.67l1.05-2.07s-46.44-85.62-91-55.9-32.82,57-32.82,57,48.3,39.6,42.11,54.46-22.29,27.87-29.72,44a28,28,0,0,0-1.59,4.36c19.34-6.26,36.31-11.17,36.31-11.17v0Z"/><path class="cls-5" d="M162,320.7a127.18,127.18,0,0,1-10-37.79,134,134,0,0,1,.87-35.39v0s-17,4.91-36.31,11.17c-20.63,6.68-44,14.91-52.28,20.37-16.1,10.57-24.15,11.48-14.86,22.48s19.82,1.09,19.82,25.86-13.62,28.48,3.1,44,44,35.92,50.78,11.77,10.64-47.88,24.77-55.11L162,320.77V320.7Z"/><path class="cls-4" d="M162,320.83l0-.06s-33.32,33.86-28.37,50.58,2.44,28.48,22,32.82,35-26.33,44.91-36.39l-23.72-28.95-2.2,3.79A116.38,116.38,0,0,1,162,320.83Z"/><path class="cls-6" d="M195.34,235.22c-1.12-.14-2.2-0.32-3.25-0.53a57.26,57.26,0,0,1-1.38,7.82c-3.5,14-11.61,24.72-19.9,27.45a12.16,12.16,0,0,1-6.82.35c-3.5-.87-6.35-3.38-8.42-7,1.56,7.8,5.38,13.56,10.86,15.24,0.19,0.06.38,0.12,0.57,0.17,10.29,2.57,22.25-9.88,26.72-27.79A54,54,0,0,0,195.34,235.22Z"/><path class="cls-7" d="M189.17,234a34.42,34.42,0,0,1-20.31-15.12c-5.35,5-10,13.07-12.39,22.76a50.4,50.4,0,0,0-.9,21.68c2.07,3.62,4.92,6.13,8.42,7a12.16,12.16,0,0,0,6.82-.35c8.29-2.73,16.4-13.41,19.9-27.45a57.26,57.26,0,0,0,1.38-7.82C191.08,234.48,190.11,234.23,189.17,234Z"/><path class="cls-8" d="M193.58,225.33a24.89,24.89,0,0,0-2-4.51c-2.07-3.62-4.92-6.13-8.42-7-4.72-1.18-9.79.81-14.33,5A34.42,34.42,0,0,0,189.17,234c0.94,0.26,1.91.51,2.92,0.71s2.12,0.39,3.25.53A37.69,37.69,0,0,0,193.58,225.33Z"/><path class="cls-9" d="M238.39,154.78c-0.52,1.52-1,3.07-1.57,4.64-6.71,20-13.15,43.06-11.58,54.06,3.1,21.63,24.76,24.73,24.76,24.73V123.65S244.33,137.55,238.39,154.78Z"/><polygon class="cls-10" points="233.92 289.18 233.92 289.18 233.92 289.18 233.92 289.18"/><path class="cls-10" d="M219.19,305.11a4.92,4.92,0,0,1-.6-0.61l-0.16-.21a4.59,4.59,0,0,1-.31-0.47l-0.13-.25a4.76,4.76,0,0,1-.22-0.51c0-.08-0.06-0.16-0.09-0.24a5.33,5.33,0,0,1-.16-0.73V302a6.29,6.29,0,0,1-.05-0.84c0-.08,0-0.17,0-0.26s0-.42,0-0.63,0-.2,0-0.3,0.08-.42.12-0.64,0-.18.06-0.28c0.07-.28.16-0.56,0.26-0.85l0-.07c0.11-.32.24-0.63,0.38-0.95l0.1-.21c0.11-.24.23-0.48,0.36-0.72l-6,.07c-2.25,2.52-3.72,4.9-3.72,6.9,0,6.19,9.07,17.34,16.09,14.45S250,315.62,250,315.62v-11a42.27,42.27,0,0,0-10.76-1.32C229.71,303.44,225.54,310.46,219.19,305.11Z"/><path class="cls-11" d="M244,291.11c0.67,0,1.34,0,2,0,0,0,0-.09.06-0.09h-2.08s-0.05.19-.08,0.19c-3.56-.2-7.19-0.34-9.94-1.58,2.75,1.24,6.39,1.39,9.94,1.6C243.9,291.21,243.93,291.1,244,291.11Z"/><path class="cls-11" d="M250,291.09c-0.58,0-1.19-.24-1.81-0.24C248.83,290.85,249.44,291.1,250,291.09Z"/><path class="cls-11" d="M246,291.08H246a0.24,0.24,0,0,1,.13-0.1c0.64,0,1.27-.13,1.88-0.13-0.61,0-1.24.12-1.88,0.11-0.06,0-.13.06-0.19,0.06-0.66,0-1.33,0-2,0,0,0,0,0,0,0h0C244.63,291,245.3,291.06,246,291.08Z"/><path class="cls-11" d="M248.21,291H248c-0.61,0-1.24.07-1.88,0.06a0.16,0.16,0,0,0-.13.06,0.08,0.08,0,0,1-.06,0c-0.66,0-1.33,0-2,0,0,0-.07-0.21-0.1-0.21-3.55-.21-7.19.09-9.94-1.91H234v11.75l-4.85-4.6-5.7-5.43h0c-0.28.23-.56,0.47-0.83,0.72l-0.17.16c-0.22.21-.43,0.42-0.64,0.64l-0.17.18q-0.33.36-.65,0.73l-0.09.1c-0.25.3-.48,0.6-0.71,0.91h0c-0.21.29-.41,0.59-0.6,0.88l-0.14.22q-0.22.35-.42,0.7l-0.14.26h0q-0.19.36-.36,0.72l-0.1.21c-0.14.32-.27,0.63-0.38,0.95l0,0.07c-0.1.28-.18,0.57-0.26,0.85,0,0.09,0,.18-0.06.28s-0.09.43-.12,0.64,0,0.2,0,.3,0,0.42,0,.63,0,0.17,0,.26a6.29,6.29,0,0,0,.05.84v0.06a5.33,5.33,0,0,0,.16.73c0,0.08.06,0.16,0.09,0.24a4.76,4.76,0,0,0,.22.51l0.13,0.25a4.59,4.59,0,0,0,.31.47l0.16,0.21a4.92,4.92,0,0,0,.6.61c6.35,5.35,10.52-1.67,20.05-1.84A42.27,42.27,0,0,1,250,304.58V291.09C249,291.1,248.83,291,248.21,291Z"/><path class="cls-11" d="M243.86,291a33.55,33.55,0,0,1-9.94-1.81A33.47,33.47,0,0,0,243.86,291Z"/><path class="cls-6" d="M224.77,290a1.46,1.46,0,0,0-.75.71l5.42,5.39,4.56-.05V289h-0.08a3.24,3.24,0,0,1-1.36-.62,2.18,2.18,0,0,0-.94-0.38h0a1,1,0,0,1-.23.05,3.86,3.86,0,0,0-1-.05h0c-0.33,0-.67,0-1,0a0.19,0.19,0,0,1-.06.06,0.32,0.32,0,0,0-.18,0,7.62,7.62,0,0,0-1.05.17h0v0a10.13,10.13,0,0,0-1.06.42,0.65,0.65,0,0,0-.15.15,0.15,0.15,0,0,1-.05.06,0.69,0.69,0,0,1-.42,0l-0.43.21a0.63,0.63,0,0,0-.1-0.13,0.1,0.1,0,0,1-.13.08h0a2.5,2.5,0,0,0-.8.57c-0.09.05-.18,0.26-0.26,0.32S224.83,290,224.77,290Z"/><path class="cls-6" d="M225.94,289.05l0.43-.21A0.38,0.38,0,0,0,225.94,289.05Z"/><path class="cls-6" d="M224,290.78v0h0v0Z"/><path class="cls-6" d="M232.56,288.68a3.86,3.86,0,0,0,1.36.85,3.7,3.7,0,0,1-1.36-.8,6.58,6.58,0,0,0-.94-0.61V288h0A3.17,3.17,0,0,1,232.56,288.68Z"/><path class="cls-6" d="M228.06,288.25v0h0a9.47,9.47,0,0,0-1.06.35,0.83,0.83,0,0,0-.15.24,0.64,0.64,0,0,1,.15-0.14A10.11,10.11,0,0,1,228.06,288.25Z"/><path class="cls-6" d="M225.71,289.61a3,3,0,0,1,.13-0.38A3,3,0,0,0,225.71,289.61Z"/><path class="cls-6" d="M229.37,288.18c0.34,0,.68.19,1,0.19-0.33,0-.67-0.23-1-0.19l-0.06,0A0.08,0.08,0,0,0,229.37,288.18Z"/><polygon class="cls-6" points="229.4 296.15 229.15 296.15 234 300.75 234 296.1 229.44 296.15 229.4 296.15"/><polygon class="cls-6" points="229.4 296.15 233.92 296.1 229.4 296.15 229.4 296.15"/><circle class="cls-12" cx="175.71" cy="116.65" r="7"/><circle class="cls-12" cx="154.78" cy="163.28" r="4.33"/><circle class="cls-12" cx="159.11" cy="188.67" r="3.72"/><circle class="cls-12" cx="101.4" cy="284.65" r="12.38"/><circle class="cls-12" cx="175.71" cy="358.96" r="5.2"/><path class="cls-1" d="M193.58,225.33a24.89,24.89,0,0,0-2-4.51c-2.07-3.62-4.92-6.13-8.42-7-4.72-1.18-9.79.81-14.33,5-5.35,5-10,13.07-12.39,22.76a50.4,50.4,0,0,0-.9,21.68c1.56,7.8,5.38,13.56,10.86,15.24,0.19,0.06.38,0.12,0.57,0.17,10.29,2.57,22.25-9.88,26.72-27.79a54,54,0,0,0,1.62-15.69A37.69,37.69,0,0,0,193.58,225.33Z"/><path class="cls-3" d="M225.24,213.48c-1.58-11,5.12-34.06,11.82-54.06,0.53-1.57,1.18-3.12,1.7-4.64a42.44,42.44,0,0,0-6.09,1.1c-1.4.29-2.78,0.61-4.15,1-39,10-68.57,45.72-75.69,90.67a134,134,0,0,0-.87,35.39c0.16,1.48.35,2.95,0.56,4.41,9.54,2.43,22.17,5.26,28.69,5.54,7.55,0.32-10.5,6.45-25.9,8.53q1.38,5.4,3.19,10.57c8.57-.61,17.9-1.59,23-2.95,6.66-1.79-5.53,7.42-18.4,14.07a115.75,115.75,0,0,0,11.48,19.54l2.2-3.79c9.05-15.57,20-34,23.78-38.08,6.81-7.43,12.35-4.42,12.35-4.42,4.74-5.3,13-11.2,18.55-15.4,8.26-6.19,18.55,0,18.55,0V238.21S228.34,235.12,225.24,213.48Zm-31.52,37.43c-4.47,17.92-16.44,30.36-26.72,27.79-0.19,0-.38-0.11-0.57-0.17-5.48-1.68-9.3-7.44-10.86-15.24a50.4,50.4,0,0,1,.9-21.68c2.42-9.69,7-17.78,12.39-22.76,4.54-4.22,9.61-6.21,14.33-5,3.5,0.87,6.35,3.38,8.42,7a24.89,24.89,0,0,1,2,4.51,37.69,37.69,0,0,1,1.75,9.89A54,54,0,0,1,193.72,250.91Z"/><path class="cls-12" d="M181.22,292.85c-6.53-.28-19.15-3.11-28.69-5.54a129.52,129.52,0,0,0,2.79,14.07C170.72,299.31,188.77,293.18,181.22,292.85Z"/><path class="cls-12" d="M181.49,309c-5.07,1.36-14.4,2.34-23,2.95q1.57,4.47,3.45,8.74l0.06,0.13c0.34,0.76.71,1.5,1.07,2.25C176,316.43,188.14,307.22,181.49,309Z"/><path class="cls-10" d="M243.86,291.21c-3.55-.21-7.19-0.36-9.94-1.6C236.67,290.85,240.31,291,243.86,291.21Z"/><path class="cls-10" d="M231.43,280.94c-5.6,4.2-13.84,10.1-18.57,15.4l6-.07h0L219,296q0.2-.35.42-0.7l0.14-.22c0.19-.3.39-0.59,0.6-0.88h0q0.34-.46.71-0.91l0.09-.1q0.32-.38.65-0.73l0.17-.18q0.31-.33.64-0.64l0.17-.16c0.27-.25.54-0.49,0.82-0.72h0c0.19-.16.39-0.3,0.59-0.44,2.24-.53,5.86-1.36,8.09-1.75,0.15,0.09.31-.1,0.46,0a3,3,0,0,0,1.36.49h0c2.75,2,6.38,1.68,9.94,1.89a0.36,0.36,0,0,0,0,.09,0.92,0.92,0,0,1,0,.15s0.05-.07.08-0.06a0.27,0.27,0,0,1,0-.07c0.67,0,1.34,0,2,0h0.19c0.64,0,1.27,0,1.88,0h0.18c0.62,0,.79.1,1.79,0.09V280.94S239.69,274.75,231.43,280.94Zm0.75,7.58,0.32,0.22-0.37-.21h0Z"/><path class="cls-1" d="M273,288.87a0.14,0.14,0,0,1-.05-0.06l0.05,0a0.68,0.68,0,0,0,.41,0h0A0.69,0.69,0,0,1,273,288.87Z"/><path class="cls-1" d="M273.45,288.84h0a0.39,0.39,0,0,1,.44.21h0A0.38,0.38,0,0,0,273.45,288.84Z"/><path class="cls-1" d="M270.43,296.15l5.47-5.39,0.1,0v0h-0.1a1.6,1.6,0,0,0-.8-0.71c-0.05,0,.16,0,0.1,0s0.1,0,.15,0a3.69,3.69,0,0,0,1,.92h0l-5.68,5.29Z"/><path class="cls-1" d="M273.88,289.05a1.12,1.12,0,0,1,.1.17,1.09,1.09,0,0,0-.1-0.17h0Z"/><path class="cls-1" d="M270.69,288.09a0.38,0.38,0,0,0-.18.06,0.4,0.4,0,0,1,.18-0.16,7.83,7.83,0,0,1,1.05.22v0h0A7.54,7.54,0,0,0,270.69,288.09Z"/><path class="cls-1" d="M274.92,289.88a1.62,1.62,0,0,0-.8-0.27A1.62,1.62,0,0,1,274.92,289.88Z"/><path class="cls-1" d="M268.44,288.38c-0.08,0-.15-0.11-0.23-0.09,0.08,0,.15.06,0.23,0a3.91,3.91,0,0,1,1,0A3.87,3.87,0,0,0,268.44,288.38Z"/><path class="cls-2" d="M267,155.86v0a32.65,32.65,0,0,0-5.79-1.1C255.26,137.55,250,123.65,250,123.65V77.42C267,83.61,267,155.86,267,155.86Z"/><path class="cls-3" d="M281,296.26h0Z"/><path class="cls-4" d="M281,296.27h0c0.13,0.24.25,0.48,0.36,0.72Q281.16,296.63,281,296.27Z"/><path class="cls-4" d="M274.67,317.68c7,2.89,16.05-8.26,16.05-14.45,0-2-1.49-4.38-3.74-6.9,0,0,5.56-3,12.37,4.42,4.09,4.46,16.74,25.64,26.13,41.87C307.31,367.39,280,383.11,250,383.11v-67.5S267.65,314.79,274.67,317.68Z"/><path class="cls-1" d="M337.86,320.7v0.07l0,0.06Z"/><path class="cls-4" d="M347,247.52c-7.12-44.95-36.69-80.65-75.69-90.67l-1.05-2.07s46.44-85.62,91-55.9,32.82,57,32.82,57-48.3,39.6-42.11,54.46,22.29,27.87,29.72,44a28,28,0,0,1,1.59,4.36C364,252.41,347,247.5,347,247.5v0Z"/><path class="cls-5" d="M337.86,320.7a127.18,127.18,0,0,0,10-37.79,134,134,0,0,0-.87-35.39v0s17,4.91,36.31,11.17c20.63,6.68,44,14.91,52.28,20.37,16.1,10.57,24.15,11.48,14.86,22.48s-19.82,1.09-19.82,25.86,13.62,28.48-3.1,44-44,35.92-50.78,11.77S366.1,335.23,352,328l-14.13-7.23V320.7Z"/><path class="cls-4" d="M337.8,320.83l0-.06s33.32,33.86,28.37,50.58-2.44,28.48-22,32.82-35-26.33-44.91-36.39l23.72-28.95,2.2,3.79A116.38,116.38,0,0,0,337.8,320.83Z"/><path class="cls-6" d="M304.49,235.22c1.12-.14,2.2-0.32,3.25-0.53a57.26,57.26,0,0,0,1.38,7.82c3.5,14,11.61,24.72,19.9,27.45a12.16,12.16,0,0,0,6.82.35c3.5-.87,6.35-3.38,8.42-7-1.56,7.8-5.38,13.56-10.86,15.24-0.19.06-.38,0.12-0.57,0.17-10.29,2.57-22.25-9.88-26.72-27.79A54,54,0,0,1,304.49,235.22Z"/><path class="cls-7" d="M310.65,234A34.42,34.42,0,0,0,331,218.85c5.35,5,10,13.07,12.39,22.76a50.4,50.4,0,0,1,.9,21.68c-2.07,3.62-4.92,6.13-8.42,7a12.16,12.16,0,0,1-6.82-.35c-8.29-2.73-16.4-13.41-19.9-27.45a57.26,57.26,0,0,1-1.38-7.82C308.75,234.48,309.71,234.23,310.65,234Z"/><path class="cls-8" d="M306.24,225.33a24.89,24.89,0,0,1,2-4.51c2.07-3.62,4.92-6.13,8.42-7,4.72-1.18,9.79.81,14.33,5A34.42,34.42,0,0,1,310.65,234c-0.94.26-1.91,0.51-2.92,0.71s-2.12.39-3.25,0.53A37.69,37.69,0,0,1,306.24,225.33Z"/><path class="cls-9" d="M261.52,154.78c0.52,1.52,1,3.07,1.53,4.64,6.71,20,13.22,43.06,11.64,54.06-3.1,21.63-24.7,24.73-24.7,24.73V123.65S255.58,137.55,261.52,154.78Z"/><polygon class="cls-10" points="265.9 289.18 265.9 289.18 265.9 289.18 265.9 289.18"/><path class="cls-10" d="M280.64,305.11a4.92,4.92,0,0,0,.6-0.61l0.16-.21a4.59,4.59,0,0,0,.31-0.47l0.13-.25a4.76,4.76,0,0,0,.22-0.51c0-.08.06-0.16,0.09-0.24a5.33,5.33,0,0,0,.16-0.73V302a6.29,6.29,0,0,0,.05-0.84c0-.08,0-0.17,0-0.26s0-.42,0-0.63,0-.2,0-0.3-0.08-.42-0.12-0.64,0-.18-0.06-0.28c-0.07-.28-0.16-0.56-0.26-0.85l0-.07c-0.11-.32-0.24-0.63-0.38-0.95l-0.1-.21c-0.11-.24-0.23-0.48-0.36-0.72l6,0.07c2.25,2.52,3.72,4.9,3.72,6.9,0,6.19-9,17.34-16,14.45S250,315.62,250,315.62v-11a36.32,36.32,0,0,1,10.67-1.32C270.2,303.44,274.28,310.46,280.64,305.11Z"/><path class="cls-11" d="M255.86,291.11c-0.67,0-1.34,0-2,0,0,0,0-.09-0.06-0.09h2.08s0.05,0.19.08,0.19c3.56-.2,7.19-0.34,9.94-1.58-2.75,1.24-6.39,1.39-9.94,1.6C255.93,291.21,255.9,291.1,255.86,291.11Z"/><path class="cls-11" d="M249.8,291.09c0.58,0,1.19-.24,1.81-0.24C251,290.85,250.38,291.1,249.8,291.09Z"/><path class="cls-11" d="M253.87,291.08H253.8a0.24,0.24,0,0,0-.13-0.1c-0.64,0-1.27-.13-1.88-0.13,0.61,0,1.24.12,1.88,0.11,0.06,0,.13.06,0.19,0.06,0.66,0,1.33,0,2,0,0,0,0,0,0,0h0C255.19,291,254.52,291.06,253.87,291.08Z"/><path class="cls-11" d="M251.61,291h0.18c0.61,0,1.24.07,1.88,0.06a0.16,0.16,0,0,1,.13.06,0.08,0.08,0,0,0,.06,0c0.66,0,1.33,0,2,0,0,0,.07-0.21.1-0.21,3.55-.21,7.19.09,9.94-1.91H266v11.75l4.77-4.6,5.66-5.43h0c0.28,0.23.55,0.47,0.82,0.72l0.16,0.16c0.22,0.21.43,0.42,0.64,0.64l0.17,0.18q0.33,0.36.65,0.73l0.09,0.1q0.37,0.45.71,0.91h0c0.21,0.29.41,0.59,0.6,0.88l0.14,0.22q0.22,0.35.42,0.7l0.14,0.26h0q0.19,0.36.36,0.72l0.1,0.21c0.14,0.32.27,0.63,0.38,0.95l0,0.07c0.1,0.28.18,0.57,0.26,0.85,0,0.09,0,.18.06,0.28s0.09,0.43.12,0.64,0,0.2,0,.3,0,0.42,0,.63,0,0.17,0,.26a6.29,6.29,0,0,1-.05.84v0.06a5.33,5.33,0,0,1-.16.73c0,0.08-.06.16-0.09,0.24a4.76,4.76,0,0,1-.22.51l-0.13.25a4.59,4.59,0,0,1-.31.47l-0.16.21a4.92,4.92,0,0,1-.6.61c-6.35,5.35-10.43-1.67-20-1.84A36.32,36.32,0,0,0,250,304.58V291.09S251,291,251.61,291Z"/><path class="cls-11" d="M256,291a33.55,33.55,0,0,0,9.94-1.81A33.47,33.47,0,0,1,256,291Z"/><path class="cls-6" d="M275.05,290a1.46,1.46,0,0,1,.75.71l-5.33,5.39L266,296.1V289h-0.09a3.24,3.24,0,0,0,1.36-.62,2.18,2.18,0,0,1,.94-0.38h0a1,1,0,0,0,.23.05,3.86,3.86,0,0,1,1-.05h0c0.33,0,.67,0,1,0a0.19,0.19,0,0,0,.06.06,0.32,0.32,0,0,1,.18,0,7.62,7.62,0,0,1,1.05.17h0v0a10.13,10.13,0,0,1,1.06.42,0.65,0.65,0,0,1,.15.15,0.15,0.15,0,0,0,.05.06,0.69,0.69,0,0,0,.42,0l0.43,0.21a0.63,0.63,0,0,1,.1-0.13,0.1,0.1,0,0,0,.13.08h0a2.51,2.51,0,0,1,.8.57c0.09,0.05.18,0.26,0.26,0.32S275,290,275.05,290Z"/><path class="cls-6" d="M273.88,289.05l-0.43-.21A0.38,0.38,0,0,1,273.88,289.05Z"/><path class="cls-6" d="M275.81,290.78v0h0v0Z"/><path class="cls-6" d="M267.26,288.68a3.86,3.86,0,0,1-1.36.85,3.7,3.7,0,0,0,1.36-.8,6.58,6.58,0,0,1,.94-0.61V288h0A3.17,3.17,0,0,0,267.26,288.68Z"/><path class="cls-6" d="M271.77,288.25v0h0a9.47,9.47,0,0,1,1.06.35,0.83,0.83,0,0,1,.15.24,0.64,0.64,0,0,0-.15-0.14A10.11,10.11,0,0,0,271.77,288.25Z"/><path class="cls-6" d="M274.11,289.61a3,3,0,0,0-.13-0.38A3,3,0,0,1,274.11,289.61Z"/><path class="cls-6" d="M270.45,288.18c-0.34,0-.68.19-1,0.19,0.33,0,.67-0.23,1-0.19l0.06,0A0.08,0.08,0,0,1,270.45,288.18Z"/><polygon class="cls-6" points="270.43 296.15 270.77 296.15 266 300.75 266 296.1 270.47 296.15 270.43 296.15"/><polygon class="cls-6" points="270.43 296.15 265.9 296.1 270.43 296.15 270.43 296.15"/><circle class="cls-12" cx="324.11" cy="116.65" r="7"/><circle class="cls-12" cx="345.04" cy="163.28" r="4.33"/><circle class="cls-12" cx="340.71" cy="188.67" r="3.72"/><circle class="cls-12" cx="398.42" cy="284.65" r="12.38"/><circle class="cls-12" cx="324.11" cy="358.96" r="5.2"/><path class="cls-1" d="M306.24,225.33a24.89,24.89,0,0,1,2-4.51c2.07-3.62,4.92-6.13,8.42-7,4.72-1.18,9.79.81,14.33,5,5.35,5,10,13.07,12.39,22.76a50.4,50.4,0,0,1,.9,21.68c-1.56,7.8-5.38,13.56-10.86,15.24-0.19.06-.38,0.12-0.57,0.17-10.29,2.57-22.25-9.88-26.72-27.79a54,54,0,0,1-1.62-15.69A37.69,37.69,0,0,1,306.24,225.33Z"/><path class="cls-3" d="M250,238.21v42.73s10.21-6.19,18.46,0c5.6,4.2,13.78,10.1,18.51,15.4,0,0,5.52-3,12.33,4.42,3.78,4.12,14.71,22.5,23.76,38.08l2.19,3.79a115.73,115.73,0,0,0,11.48-19.54c-12.86-6.65-25.06-15.86-18.4-14.07,5.07,1.36,14.4,2.34,23,2.95q1.82-5.16,3.19-10.57c-15.4-2.08-33.46-8.21-25.9-8.53,6.53-.28,19.15-3.11,28.69-5.54,0.21-1.46.4-2.93,0.56-4.41a134,134,0,0,0-.87-35.39c-7.12-44.95-36.69-80.65-75.69-90.67-1.37-.35-2.76-0.68-4.15-1a42.46,42.46,0,0,0-6.09-1.1c0.52,1.52,1.17,3.07,1.7,4.64,6.71,20,13.49,43.06,11.92,54.06C271.57,235.12,250,238.21,250,238.21Zm54.49-3a37.69,37.69,0,0,1,1.75-9.89,24.89,24.89,0,0,1,2-4.51c2.07-3.62,4.92-6.13,8.42-7,4.72-1.18,9.79.81,14.33,5,5.35,5,10,13.07,12.39,22.76a50.4,50.4,0,0,1,.9,21.68c-1.56,7.8-5.38,13.56-10.86,15.24-0.19.06-.38,0.12-0.57,0.17-10.29,2.57-22.25-9.88-26.72-27.79A54,54,0,0,1,304.49,235.22Z"/><path class="cls-12" d="M318.6,292.85c6.53-.28,19.15-3.11,28.69-5.54a129.52,129.52,0,0,1-2.79,14.07C329.1,299.31,311,293.18,318.6,292.85Z"/><path class="cls-12" d="M318.34,309c5.07,1.36,14.4,2.34,23,2.95q-1.57,4.47-3.45,8.74l-0.06.13c-0.34.76-.71,1.5-1.07,2.25C323.87,316.43,311.68,307.22,318.34,309Z"/><path class="cls-10" d="M256,291.21c3.55-.21,7.19-0.36,9.94-1.6C263.15,290.85,259.52,291,256,291.21Z"/><path class="cls-10" d="M250,280.94v10.15s1-.09,1.61-0.09h0.18c0.61,0,1.24.06,1.88,0,0.06,0,.13,0,0.19,0,0.66,0,1.33,0,2,0a0.38,0.38,0,0,1,0,.08s0.05,0.1.08,0.1a0.14,0.14,0,0,1,0-.08s0-.25,0-0.25c3.56-.2,7.19.11,9.94-1.89h0a3,3,0,0,0,1.36-.49c0.15-.08.3,0,0.46-0.13,2.22,0.39,5.65,1.3,7.89,1.83a0.84,0.84,0,0,1,.39.5h0.2c0.28,0.23.65,0.47,0.92,0.72,0.06,0.05.16,0.11,0.22,0.16,0.22,0.21.46,0.42,0.67,0.64l0.18,0.18c0.22,0.24.45,0.48,0.66,0.73l0.09,0.1c0.25,0.3.49,0.6,0.71,0.91h0c0.21,0.29.41,0.59,0.6,0.88l0.14,0.22q0.22,0.35.42,0.7l0.14,0.26h0l6,0.07c-4.74-5.3-12.88-11.2-18.48-15.4C260.22,274.75,250,280.94,250,280.94Zm17.68,7.59-0.37.21,0.32-.22h0Z"/><g class="cls-13"><path class="cls-7" d="M435.57,279c-8.31-5.45-31.65-13.68-52.28-20.37a28,28,0,0,0-1.59-4.36c-7.43-16.1-23.53-29.1-29.72-44s42.11-54.46,42.11-54.46,11.77-27.28-32.82-57-91,55.9-91,55.9l1.05,2.07c-1.37-.35-2.76-0.68-4.15-1a38.12,38.12,0,0,0-5.58-1s-0.19,0-.2,0a31.9,31.9,0,0,1,5.64,1.08v0s0-72.25-17-78.45V280.94a21.56,21.56,0,0,1,9.75-2.75,21.62,21.62,0,0,0-9.75,2.75v10.14l-0.22,0,0.22,0v92c18,0,34.69-5.59,49.35-15.36v0c9.91,10.05,25.39,40.72,44.92,36.39s17-16.1,22-32.82-28.37-50.58-28.37-50.58L352,328c14.13,7.23,18,31,24.77,55.11s34.06,3.72,50.78-11.77,3.1-19.2,3.1-44,10.53-14.86,19.82-25.86S451.67,289.61,435.57,279Zm-98.91,44.2c-0.77,1.65-1.57,3.28-2.41,4.87Q335.5,325.72,336.66,323.24ZM334,328.61c-0.79,1.48-1.59,2.95-2.43,4.38Q332.81,330.84,334,328.61ZM330.36,335c-0.58.94-1.15,1.9-1.75,2.82C329.21,336.85,329.78,335.9,330.36,335Zm14.15-33.57c0.51-2,1-4,1.39-6q-0.63,3.05-1.39,6h0Zm2.79-14.07c-0.11.8-.24,1.6-0.37,2.39C347.05,288.91,347.18,288.12,347.3,287.32Zm-0.67,4.2q-0.22,1.29-.47,2.57C346.32,293.23,346.48,292.37,346.63,291.52ZM256,291.21s-0.07-.1-0.1-0.1a0.11,0.11,0,0,1,.06.05,0.08,0.08,0,0,0,0,0v0h0c3.56-.2,7.19-0.34,9.94-1.58C263.15,290.85,259.51,291,256,291.21Zm11.35-2.47,0.32-.22h0Zm2.69,7.41V296l0.44,0h0v0.07l-1.81,0h-2.71Zm5.19-6,0.09,0a1.12,1.12,0,0,1,.62.6H276v0l-0.1,0-2.74,2.69,2.64-2.69A1.13,1.13,0,0,0,275.19,290.14Zm-4.4,5.86,2.17-2-2.12,2h0Zm5.57-5.17a1.78,1.78,0,0,1-.72-0.58l0.17,0c0.2,0.15.4,0.29,0.59,0.44h0l0,0Zm-9.09-2c0.14-.07.28-0.17,0.42-0.27l0,0h0c-0.17.11-.33,0.24-0.49,0.33a3.53,3.53,0,0,1-1.36.74A3.65,3.65,0,0,0,267.26,288.83ZM253.68,291h0a0.22,0.22,0,0,1,.1.07l0,0h0a0.1,0.1,0,0,1,0,0,0.24,0.24,0,0,0-.13-0.1c-0.64,0-1.27-.13-1.88-0.13C252.41,290.85,253,291,253.68,291Zm-2.84,0a4.92,4.92,0,0,1,.78-0.08,4.92,4.92,0,0,0-.78.08l-0.47.09Zm26.55,27.22c6.42-.28,13.29-9.49,13.29-14.91,0-2-1.46-4.38-3.72-6.9a83.28,83.28,0,0,0-10.3-9.21A82.8,82.8,0,0,1,287,296.33a6.54,6.54,0,0,1,2.83-.6,6.62,6.62,0,0,0-2.82.6c2.25,2.52,3.74,4.9,3.74,6.9C290.73,308.65,283.81,317.86,277.38,318.14Zm59.35,4.93h0c0.35-.75.73-1.48,1.06-2.25C337.47,321.59,337.09,322.33,336.74,323.08ZM318.34,309a5,5,0,0,0-1.39-.22,5,5,0,0,1,1.39.22c5.07,1.36,14.4,2.34,23,2.95q-1.57,4.47-3.45,8.74,1.88-4.27,3.45-8.74C332.74,311.35,323.41,310.37,318.34,309Zm26.17-7.61q-1.38,5.39-3.18,10.55Q343.13,306.79,344.51,301.4Z"/><path class="cls-7" d="M275.81,290.76h0v0Z"/></g><path class="cls-3" d="M173.13,465.94V465h3.75v11.25h3.75v1.88H169.38v-1.87h3.75v-7.5h-1.87v-1.87h1.88v-0.94Z"/><path class="cls-3" d="M188.13,465.94V465h3.75v11.25h3.75v1.88H184.38v-1.87h3.75v-7.5h-1.87v-1.87h1.88v-0.94Z"/><path class="cls-3" d="M199.38,465.94V465h9.38v1.88h1.88v7.5h-1.87v1.88h-1.87v1.88h-7.5v-1.87H205v-1.87h1.88V472.5h-7.5v-1.87H197.5v-3.75h1.88v-0.94Zm7.5,2.81v-1.87h-5.62v3.75h5.63v-1.87Z"/><path class="cls-3" d="M229.38,465.94V465h7.5v1.88h1.88v1.88H235v-1.87h-3.75v3.75h7.5v1.88h1.88v3.75h-1.87v1.88h-9.37v-1.87H227.5v-1.87h3.75v1.88h5.63V472.5h-7.5v-1.87H227.5v-3.75h1.88v-0.94Z"/><path class="cls-3" d="M242.5,471.56V465h13.13v1.88h-9.37v3.75h7.5v1.88h-7.5v3.75h9.38v1.88H242.5v-6.56Z"/><path class="cls-3" d="M261.25,465.94V465h5.63v1.88h1.88v1.88h1.88v9.38h-3.75v-3.75h-5.62v3.75H257.5v-9.37h1.88v-1.87h1.88v-0.94Zm3.75,1.88v-0.94h-1.87v1.88h-1.87v3.75h5.63v-3.75H265v-0.94Z"/><path class="cls-3" d="M272.5,471.56V465h3.75v5.63h1.88v-1.87H280v-1.87h1.88V465h3.75v1.88h-1.87v1.88h-1.87v1.88H280v1.88h1.88v1.88h1.88v1.88h1.88v1.88H280v-1.87h-1.87v-1.87h-1.87v3.75H272.5v-6.56Z"/><path class="cls-3" d="M289.38,465.94V465h11.25v1.88h-3.75v9.38h3.75v1.88H289.38v-1.87h3.75v-9.37h-3.75v-0.94Z"/><path class="cls-3" d="M302.5,471.56V465h3.75v1.88h1.88v1.88H310v1.88h1.88V465h3.75v13.13h-3.75v-1.87H310v-1.87h-1.87V472.5h-1.87v5.63H302.5v-6.56Z"/><path class="cls-3" d="M321.25,465.94V465h9.38v1.88h-7.5v1.88h-1.87v5.63h1.88v1.88h3.75V472.5H325v-1.87h5.63v7.5h-9.37v-1.87h-1.87v-1.87H317.5v-5.62h1.88v-1.87h1.88v-0.94Z"/></svg>