<?xml version="1.0" ?><svg id="pkft" viewBox="0 0 500 500" xmlns="http://www.w3.org/2000/svg"><defs><style>.cls-1{fill:#e6e6e6;}.cls-2,.cls-8{fill:#1a1a1a;}.cls-3{fill:#5dc1cf;}.cls-4{fill:#fff;}.cls-5{fill:#7c70a2;}.cls-6{fill:#ed85a7;}.cls-7{fill:#ffe2ff;}.cls-8{opacity:0.1;}</style></defs><title/><polygon class="cls-1" points="229.83 228.57 119.25 97.96 83.51 108.41 72.81 126.36 49 188.38 49 203.71 52.67 216.38 47.67 244.72 63.33 271.92 57.67 305.21 72.33 327.05 115 345.97 128.67 348.71 179 328.71 211.45 315.05 227.33 277.16 229.83 228.57"/><path class="cls-2" d="M152.23,148.26a26.71,26.71,0,0,0,7.27,1l68.35,81.3,4.59-3.86L125.87,99.94a15.93,15.93,0,0,0-19-3.73L83.56,108.45C78,111.37,72.06,118.32,70,124.27l-14.1,41.59a173.07,173.07,0,0,1-7.52,18l-1.32,2.63c-2.88,5.77-2.88,14.8,0,20.57l1.32,2.63c2.07,4.15,2.5,11.62.92,16l-3.43,9.42c-2.22,6.12-.93,15,2.94,20.24L57.47,267c2.7,3.65,4,10.69,2.76,15.06L55.4,299.23c-1.79,6.35.46,15,5.13,19.63l6.38,6.38a60.67,60.67,0,0,0,17.36,11.45L117,349.78a27.38,27.38,0,0,0,9.87,1.67,28.19,28.19,0,0,0,10.9-2L214.27,316l-2.4-5.5L135.36,344c-4.27,1.87-11.81,2-16.13.25L86.5,331.12A41.42,41.42,0,0,1,81,328.35c17.32-10.11,87.78-50.12,128.07-56.15a1.5,1.5,0,1,0-.44-3c-42,6.28-115.74,48.66-130.49,57.32a48.11,48.11,0,0,1-7-5.55l-6.38-6.38c-3.1-3.1-4.78-9.53-3.59-13.76L66,283.69a22.24,22.24,0,0,0,.59-7.82C82.2,271.08,167,245.53,198.27,246.74l7.8,6.72c4.17,3.59,4.34,3.4.38-.41l-8.09-7.81a2.18,2.18,0,0,0-.67-0.64l-54.06-52.14a56.1,56.1,0,0,1-10.94-16.21s-8.06-20-1-27.56C136,144,152.23,148.26,152.23,148.26Zm-65.88-34.5,23.33-12.25a10,10,0,0,1,11.6,2.28l32.77,39c-2.4-.55-16.7-3.62-24.14-0.06-11.23-11.34-42.73-19.84-51.18-22A24.81,24.81,0,0,1,86.34,113.77Zm40.89,30.84a17.67,17.67,0,0,0-3.34,5.27c-12.69-10.5-41.65-18.25-49.36-20.18l1.19-3.51A16.79,16.79,0,0,1,77,123.42c6.17,1.53,39.07,10.09,50.4,21Zm-53.66-12c7.3,1.84,37.89,10,49.33,20.42-2.21,9.19,1.31,19.85,3.12,24.43-25.86-9.64-60.87-2.95-67.45-1.55,1.19-2.92,2.29-5.78,3.06-8.08ZM66.18,272.84a23.8,23.8,0,0,0-3.88-9.42L53.68,251.8C51,248.21,50,241.37,51.55,237.17l2.84-7.8c10.13-4,52.3-17.43,123.37-.32l17.35,15C163.24,242.88,82.91,267.59,66.18,272.84Zm73-77.06,36.11,31.13c-66.93-15.87-106.5-5.85-119.69-1.19,1.42-5.84.73-13.62-1.79-18.68l-1.32-2.63c-2-4.05-2-11.16,0-15.21l1.32-2.63c1.06-2.11,2.29-4.82,3.49-7.65a1.49,1.49,0,0,0,.92.08c0.43-.1,42.3-9.53,69.59,2.35l3.66,7.63C131.52,189.13,135,192.19,139.16,195.78Z"/><path class="cls-2" d="M240.82,224.17c-0.47-3.37-11.78-82.65-40.23-94.84a1.49,1.49,0,0,0-1-.06c-1-2.43-3.86-4.52-7.54-5.15-4.9-.84-9.34,1.22-9.92,4.6s2.92,6.8,7.82,7.64c4.66,0.8,8.9-1,9.8-4.12,26.66,12.06,38,91.53,38.1,92.33a1.5,1.5,0,0,0,1.48,1.29h0.21A1.5,1.5,0,0,0,240.82,224.17Z"/><ellipse class="cls-3" cx="230" cy="375.71" rx="30" ry="9" transform="translate(-173.76 551.88) rotate(-82.1)"/><path class="cls-4" d="M238,282.13c-0.53-.16-0.8.13-0.6,0.64l2.29,6c0.2,0.51.56,0.54,0.82,0l2.2-4.23a0.8,0.8,0,0,0-.49-1.18Z"/><path class="cls-5" d="M207.5,317c0,24,19.5,43.46,42.5,43.74V293.32a59.36,59.36,0,0,1-29.41-7.81A43.73,43.73,0,0,0,207.5,317Z"/><path class="cls-5" d="M208.88,262.71a41.21,41.21,0,0,0,4,17.16,47.2,47.2,0,0,0,7.59,5.64A60.08,60.08,0,0,0,250,293.32V221.11C228,221.38,208.88,239.9,208.88,262.71Z"/><path class="cls-6" d="M209.32,250.85v0a9.44,9.44,0,0,0,4.93,6.41c5.59,2.62,13.13-1.69,16.84-9.63,2.64-5.65,2.62-11.6.38-15.51,7.94,2.75,12.24,13.84,9.68,25.67-2.71,12.48-12,21-20.82,19.14S206.61,263.33,209.32,250.85Z"/><path class="cls-7" d="M231.1,247.6c-3.71,7.93-11.26,12.24-16.84,9.63a9.44,9.44,0,0,1-4.93-6.41c2.72-12.46,12-21,20.82-19.11a11.57,11.57,0,0,1,1.34.38C233.72,236,233.74,242,231.1,247.6Z"/><path class="cls-3" d="M234.67,279.21c0,4,7.33,7.3,15.33,7.3V271.92C242,271.92,234.67,275.18,234.67,279.21Z"/><path class="cls-3" d="M229.17,333.54c-5,0-9-6.34-9-14.17s4-14.17,9-14.17l11,3.44c1.57,0.49,1.64,1.48.16,2.19l-6.46,3.08c-1.49.71-1.4,1.64,0.19,2.07l6.08,1.62c1.59,0.43,1.67,1.33.17,2l-7.71,3.51c-1.5.68-1.44,1.65,0.13,2.15l7.45,2.36c1.57,0.5,1.59,1.36,0,1.92Z"/><polygon class="cls-1" points="269.99 228.57 380.58 97.96 416.31 108.41 427.1 126.36 451 188.38 451 203.71 447.25 216.38 452.2 244.72 436.52 271.92 442.17 305.21 427.5 327.05 384.83 345.97 371.16 348.71 320.83 328.71 288.38 315.05 272.49 277.16 269.99 228.57"/><path class="cls-2" d="M368.19,148.68c7,7.61-1,27.56-1,27.56a56.1,56.1,0,0,1-10.94,16.21l-54.06,52.14a2.18,2.18,0,0,0-.67.64L293.39,253c-4,3.82-3.79,4,.38.41l7.8-6.72c31.23-1.2,116.07,24.34,131.66,29.13a22.24,22.24,0,0,0,.59,7.82l4.84,17.17c1.19,4.23-.49,10.66-3.59,13.76L428.68,321a48.11,48.11,0,0,1-7,5.55c-14.75-8.66-88.53-51-130.49-57.32a1.5,1.5,0,0,0-.44,3c40.29,6,110.75,46,128.07,56.15a41.42,41.42,0,0,1-5.46,2.77L380.6,344.21c-4.33,1.73-11.86,1.61-16.13-.25L288,310.51l-2.4,5.5,76.51,33.44a28.19,28.19,0,0,0,10.9,2,27.38,27.38,0,0,0,9.87-1.67l32.73-13.09a60.67,60.67,0,0,0,17.36-11.45l6.38-6.38c4.66-4.66,6.91-13.28,5.13-19.63l-4.84-17.17c-1.23-4.37.06-11.41,2.76-15.06L451,255.37c3.88-5.23,5.17-14.12,2.94-20.24l-3.43-9.42c-1.58-4.36-1.16-11.83.92-16l1.32-2.63c2.88-5.77,2.88-14.8,0-20.57l-1.32-2.63a173.07,173.07,0,0,1-7.52-18l-14.1-41.59c-2-5.95-8-12.89-13.51-15.81L392.94,96.2a15.93,15.93,0,0,0-19,3.73L267.39,226.69l4.59,3.86,68.35-81.3a26.71,26.71,0,0,0,7.27-1S363.83,144,368.19,148.68Zm52.91-27.92c-8.44,2.12-39.94,10.62-51.18,22-7.45-3.57-21.75-.49-24.14.06l32.77-39a10,10,0,0,1,11.6-2.28l23.33,12.25A24.81,24.81,0,0,1,421.1,120.75Zm-48.67,23.7c11.33-10.95,44.24-19.5,50.4-21a16.79,16.79,0,0,1,1.27,2.77l1.19,3.51c-7.71,1.93-36.67,9.68-49.36,20.18a17.67,17.67,0,0,0-3.34-5.27Zm65.77,23.33c0.78,2.29,1.87,5.16,3.06,8.08-6.58-1.4-41.59-8.09-67.45,1.55,1.81-4.58,5.33-15.23,3.12-24.43,11.43-10.42,42-18.58,49.33-20.42ZM304.72,244l17.35-15c71.07-17.11,113.24-3.65,123.37.32l2.84,7.8c1.53,4.2.53,11-2.13,14.62l-8.62,11.63a23.8,23.8,0,0,0-3.88,9.42C416.92,267.59,336.59,242.88,304.72,244Zm63.66-55,3.66-7.63c27.28-11.88,69.16-2.44,69.59-2.35a1.49,1.49,0,0,0,.92-0.08c1.21,2.83,2.44,5.54,3.49,7.65l1.32,2.63c2,4,2,11.15,0,15.21L446,207c-2.53,5.05-3.21,12.83-1.79,18.68-13.18-4.66-52.76-14.68-119.69,1.19l36.11-31.13C364.84,192.19,368.31,189.13,368.38,189Z"/><path class="cls-2" d="M259,224.17c0.47-3.37,11.78-82.65,40.23-94.84a1.49,1.49,0,0,1,1-.06c1-2.43,3.86-4.52,7.54-5.15,4.9-.84,9.34,1.22,9.92,4.6s-2.92,6.8-7.82,7.64c-4.66.8-8.9-1-9.8-4.12-26.66,12.06-38,91.53-38.1,92.33a1.5,1.5,0,0,1-1.48,1.29h-0.21A1.5,1.5,0,0,1,259,224.17Z"/><ellipse class="cls-3" cx="269.83" cy="375.71" rx="9" ry="30" transform="translate(-49.08 40.66) rotate(-7.9)"/><path class="cls-4" d="M261.87,282.13c0.53-.16.8,0.13,0.6,0.64l-2.29,6c-0.2.51-.56,0.54-0.82,0l-2.2-4.23a0.8,0.8,0,0,1,.49-1.18Z"/><path class="cls-5" d="M292.41,317c0,24-19.41,43.46-42.41,43.74V293.32a59.2,59.2,0,0,0,29.37-7.81A43.69,43.69,0,0,1,292.41,317Z"/><path class="cls-5" d="M291,262.71a41.24,41.24,0,0,1-4,17.16,46.65,46.65,0,0,1-7.53,5.64A59.83,59.83,0,0,1,250,293.32V221.11C272,221.38,291,239.9,291,262.71Z"/><path class="cls-6" d="M290.51,250.85v0a9.44,9.44,0,0,1-4.93,6.41c-5.59,2.62-13.13-1.69-16.84-9.63-2.64-5.65-2.62-11.6-.38-15.51-7.94,2.75-12.24,13.84-9.68,25.67,2.71,12.48,12,21,20.82,19.14S293.22,263.33,290.51,250.85Z"/><path class="cls-7" d="M268.73,247.6c3.71,7.93,11.26,12.24,16.84,9.63a9.44,9.44,0,0,0,4.93-6.41c-2.72-12.46-12-21-20.82-19.11a11.57,11.57,0,0,0-1.34.38C266.11,236,266.08,242,268.73,247.6Z"/><path class="cls-3" d="M265.33,279.21c0,4-7.33,7.3-15.33,7.3V271.92C258,271.92,265.33,275.18,265.33,279.21Z"/><path class="cls-3" d="M270.66,333.54c5,0,9-6.34,9-14.17s-4-14.17-9-14.17l-11,3.44c-1.57.49-1.64,1.48-.16,2.19l6.46,3.08c1.49,0.71,1.4,1.64-.19,2.07l-6.08,1.62c-1.59.43-1.67,1.33-.17,2l7.71,3.51c1.5,0.68,1.44,1.65-.13,2.15l-7.45,2.36c-1.57.5-1.59,1.36,0,1.92Z"/><path class="cls-8" d="M451,255.37c3.88-5.23,5.17-14.12,2.94-20.24l-3.43-9.42c-1.58-4.36-1.16-11.83.92-16l1.32-2.63c2.88-5.77,2.88-14.8,0-20.57l-1.32-2.63a173.07,173.07,0,0,1-7.52-18l-14.1-41.59c-2-5.91-7.88-12.8-13.41-15.75l-0.06-.1-0.27-.08L392.94,96.2a15.93,15.93,0,0,0-19,3.73L268.2,225.72a41.59,41.59,0,0,0-6-2.55c1.65-10.74,13.19-79.75,37.89-90.92,0.9,3.09,5.14,4.92,9.8,4.12,4.9-.84,8.4-4.26,7.82-7.64s-5-5.44-9.92-4.6c-3.68.63-6.57,2.71-7.54,5.15a1.49,1.49,0,0,0-1,.06c-26.42,11.32-38.06,80.49-40,93a40,40,0,0,0-9.28-1.22v72.21a62.61,62.61,0,0,0,10.35-.94,62.59,62.59,0,0,1-10.35.94V360.7a41.23,41.23,0,0,0,10.19-1.41,84.64,84.64,0,0,0,.72,17.66c2.28,16.41,8.11,29.16,13,28.48s7.07-14.54,4.79-31c-1.17-8.43-3.28-15.9-5.73-21.07A44.07,44.07,0,0,0,292.36,319l69.7,30.47a28.19,28.19,0,0,0,10.9,2,27.38,27.38,0,0,0,9.87-1.67l32.73-13.09a60.67,60.67,0,0,0,17.36-11.45l6.38-6.38c4.66-4.66,6.91-13.28,5.13-19.63l-4.84-17.17c-1.23-4.37.06-11.41,2.76-15.06Z"/><path class="cls-5" d="M148.75,465.94V465h5.63v1.88h1.88v1.88h1.88v5.63h-1.87v1.88h-1.87v1.88h-5.62v-1.87h-1.87v-1.87H145v-5.62h1.88v-1.87h1.88v-0.94Zm3.75,1.88v-0.94h-3.75v7.5h1.88v1.88h3.75v-7.5H152.5v-0.94Z"/><path class="cls-5" d="M165.63,465.94V465h3.75v11.25h3.75v1.88H161.88v-1.87h3.75v-7.5h-1.87v-1.87h1.88v-0.94Z"/><path class="cls-5" d="M176.88,465.94V465h9.38v1.88h1.88v3.75h-1.87v1.88h-1.87v1.88h-3.75v1.88h7.5v1.88H175v-3.75h1.88V472.5h1.88v-1.87h3.75v-1.87h1.88v-1.87h-5.62v1.88H175v-1.87h1.88v-0.94Z"/><path class="cls-5" d="M205,471.56V465h11.25v1.88h1.88v3.75h-1.87v1.88h1.88v3.75h-1.87v1.88H205v-6.56Zm9.38-2.81v-1.87h-5.62v3.75h5.63v-1.87Zm0,5.63V472.5h-5.62v3.75h5.63v-1.87Z"/><path class="cls-5" d="M220,470.63V465h3.75v11.25h5.63V465h3.75v11.25h-1.87v1.88h-9.37v-1.87H220v-5.62Z"/><path class="cls-5" d="M236.88,465.94V465h11.25v1.88h-3.75v11.25h-3.75V466.88h-3.75v-0.94Z"/><path class="cls-5" d="M251.88,465.94V465h11.25v1.88h-3.75v11.25h-3.75V466.88h-3.75v-0.94Z"/><path class="cls-5" d="M265,471.56V465h13.13v1.88h-9.37v3.75h7.5v1.88h-7.5v3.75h9.38v1.88H265v-6.56Z"/><path class="cls-5" d="M280,471.56V465h11.25v1.88h1.88v5.63h-3.75v1.88h1.88v1.88h1.88v1.88H287.5v-1.87h-1.87v-1.87h-1.87v3.75H280v-6.56Zm9.38-2.81v-1.87h-5.62v5.63h3.75v-1.87h1.88v-1.87Z"/><path class="cls-5" d="M295,471.56V465h13.13v1.88h-9.37v3.75h7.5v1.88h-7.5v5.63H295v-6.56Z"/><path class="cls-5" d="M310,471.56V465h11.25v1.88h1.88v5.63h-3.75v1.88h1.88v1.88h1.88v1.88H317.5v-1.87h-1.87v-1.87h-1.87v3.75H310v-6.56Zm9.38-2.81v-1.87h-5.62v5.63h3.75v-1.87h1.88v-1.87Z"/><path class="cls-5" d="M325,471.56V465h13.13v1.88h-9.37v3.75h7.5v1.88h-7.5v3.75h9.38v1.88H325v-6.56Z"/><path class="cls-5" d="M340,471.56V465h13.13v1.88h-9.37v3.75h7.5v1.88h-7.5v3.75h9.38v1.88H340v-6.56Z"/></svg>