<?xml version="1.0" ?><svg id="pkflt" viewBox="0 0 500 500" xmlns="http://www.w3.org/2000/svg"><defs><style>.cls-1{fill:#c99836;}.cls-2{fill:#e8e800;}.cls-3{fill:#c9293f;}.cls-4{fill:#f24659;}.cls-5{fill:#f4fa00;}.cls-6{fill:#1a1a1a;opacity:0.1;}</style></defs><title/><path class="cls-1" d="M232.67,318l-28.74,17.25-14.14-14.14,13.54-22.57a60.29,60.29,0,0,1-7-10.68l0.08,0.2-12.75-5.17,7.84-7.48L170,270V250l21.48-5.37a60.24,60.24,0,0,1,9.71-20.36l-11.72-19.54L122,213.09c-8.19,1-10.2,6.71-4.48,12.65l57.61,59.78-14.83,81.83c-1.47,8.12,3.36,11.74,10.74,8L250,335.88v-9.54l-8.63-6.46A60.13,60.13,0,0,1,232.67,318Z"/><path class="cls-1" d="M250,326.34V320.5a60.94,60.94,0,0,1-8.63-.62Z"/><path class="cls-1" d="M243.29,125.42l-33.53,67.07,18.46,11.07A60.32,60.32,0,0,1,250,199.5V119.88C247.57,119.88,245.14,121.73,243.29,125.42Z"/><path class="cls-2" d="M215,260a34.88,34.88,0,0,0,2.54,13.09l6,1.1A30,30,0,0,1,250,230v-5A35,35,0,0,0,215,260Z"/><path class="cls-2" d="M223.56,274.18l-6-1.1A35,35,0,0,0,250,295v-5A30,30,0,0,1,223.56,274.18Z"/><path class="cls-3" d="M220,260a29.86,29.86,0,0,0,3.56,14.18l18.61,3.39A19.24,19.24,0,0,1,250,240.75V230A30,30,0,0,0,220,260Z"/><path class="cls-3" d="M223.56,274.18A30,30,0,0,0,250,290V279.25a19.15,19.15,0,0,1-7.83-1.68Z"/><path class="cls-4" d="M230.75,260a19.24,19.24,0,0,0,11.42,17.57L250,279V240.75A19.25,19.25,0,0,0,230.75,260Z"/><path class="cls-4" d="M250,279.25V279l-7.83-1.43A19.15,19.15,0,0,0,250,279.25Z"/><polygon class="cls-5" points="198.72 330 203.93 335.21 212.62 330 198.72 330"/><path class="cls-5" d="M228.22,203.56l-18.46-11.07-7.83-4.7-14.14,14.14,1.68,2.8,11.72,19.54a60.24,60.24,0,0,0-9.71,20.36L170,250v20l21.48,5.37,4.83,12.45a60.29,60.29,0,0,0,7,10.68l-13.54,22.57,14.14,14.14L198.72,330h13.9l-8.69,5.21L232.67,318a60.13,60.13,0,0,0,8.7,1.91,60.94,60.94,0,0,0,8.63.62V295a35,35,0,0,1,0-70V199.5A60.32,60.32,0,0,0,228.22,203.56Z"/><path class="cls-1" d="M196.38,288l-0.08-.2c-0.46-.9-0.93-1.79-1.35-2.71l-5.19-3.89,1.87-5.28c-0.05-.19-0.11-0.38-0.16-0.57l-7.84,7.48Z"/><path class="cls-1" d="M189.77,281.22l5.19,3.89c0.42,0.92.88,1.82,1.35,2.71l-4.83-12.45c0.05,0.19.11,0.38,0.16,0.57Z"/><path class="cls-1" d="M267.63,318l28.74,17.25,14.14-14.14L297,298.5a60.29,60.29,0,0,0,7-10.68l-0.08.2,12.75-5.17-8-7.48L330,270V250l-21.33-5.37A60.08,60.08,0,0,0,299,224.27l11.76-19.54,67.45,8.36c8.19,1,10.21,6.71,4.49,12.65l-57.6,59.78L340,367.35c1.47,8.12-3.51,11.74-10.89,8L250,335.88v-9.54l8.78-6.46A62.15,62.15,0,0,0,267.63,318Z"/><path class="cls-1" d="M250,326.34V320.5a60.19,60.19,0,0,0,8.63-.62Z"/><path class="cls-1" d="M256.86,125.42l33.61,67.07L271.9,203.56A59.66,59.66,0,0,0,250,199.5V119.88C253,119.88,255,121.73,256.86,125.42Z"/><path class="cls-2" d="M285.15,260a34.84,34.84,0,0,1-2.46,13.09l-6,1.1A30.2,30.2,0,0,0,250,230v-5A34.71,34.71,0,0,1,285.15,260Z"/><path class="cls-2" d="M276.59,274.18l5.95-1.1A34.8,34.8,0,0,1,250,295v-5A29.58,29.58,0,0,0,276.59,274.18Z"/><path class="cls-3" d="M280.15,260a29.81,29.81,0,0,1-3.49,14.18l-18.57,3.39A19.28,19.28,0,0,0,250,240.75V230A29.85,29.85,0,0,1,280.15,260Z"/><path class="cls-3" d="M276.59,274.18A29.58,29.58,0,0,1,250,290V279.25a18.78,18.78,0,0,0,7.9-1.68Z"/><path class="cls-4" d="M269.4,260a19.31,19.31,0,0,1-11.49,17.57L250,279V240.75A19.14,19.14,0,0,1,269.4,260Z"/><path class="cls-4" d="M250,279.25V279l7.83-1.43A18.44,18.44,0,0,1,250,279.25Z"/><polygon class="cls-5" points="301.58 330 296.37 335.21 287.68 330 301.58 330"/><path class="cls-5" d="M271.93,203.56l18.53-11.07,7.87-4.7,14.16,14.14-1.67,2.8-11.72,19.54a59.93,59.93,0,0,1,9.57,20.36L330,250v20l-21.33,5.37-4.76,12.45a60.11,60.11,0,0,1-7,10.68l13.56,22.57-14.13,14.14,5.22-5.21h-13.9l8.69,5.21L267.63,318A63.08,63.08,0,0,1,250,320.5V295a35,35,0,1,0,0-70V199.5A59.86,59.86,0,0,1,271.93,203.56Z"/><path class="cls-1" d="M303.92,288l0.08-.2c0.46-.9.93-1.79,1.35-2.71l5.19-3.89-1.87-5.28c0.05-.19.11-0.38,0.16-0.57l7.84,7.48Z"/><path class="cls-1" d="M310.53,281.22l-5.19,3.89c-0.42.92-.88,1.82-1.35,2.71l4.83-12.45c-0.05.19-.11,0.38-0.16,0.57Z"/><path class="cls-6" d="M378.24,213.09l-67.42-8.36h0l1.67-2.8-14.16-14.14-7.87,4.7-18.53,11.07h0l18.56-11.07-33.61-67.07c-1.84-3.69-3.86-5.53-6.86-5.53V279.25a18.42,18.42,0,0,0,7.77-1.65l0.13,0a19.42,19.42,0,0,0,11-13.35,19,19,0,0,1-10.72,13.29l-0.3.05a18.78,18.78,0,0,1-7.9,1.68V295a34.8,34.8,0,0,0,32.52-21.88h0.08A34.9,34.9,0,0,1,250,295v31.34l8.6-6.44,0.18,0L250,326.34v9.54l79.08,39.52c7.38,3.69,12.36.07,10.89-8l-14.83-81.83,57.6-59.78C388.46,219.8,386.43,214.11,378.24,213.09ZM296.37,335.21h0Zm-19.65-61h0a29.06,29.06,0,0,0,2.94-8.38A28.52,28.52,0,0,1,276.71,274.16Zm19.66,61.05,5.21-5.21h0l8.92-8.93L296.93,298.5a60.11,60.11,0,0,0,7-10.68l4.76-12.45,0.11,0.1L304,287.82a60.29,60.29,0,0,1-7,10.68l13.54,22.57Zm12.3-90.58c-0.18-.69-0.39-1.38-0.59-2.06,0.2,0.68.41,1.37,0.59,2.06L330,250Z"/><path class="cls-1" d="M180.63,465.94V465h3.75v11.25h3.75v1.88H176.88v-1.87h3.75v-7.5h-1.87v-1.87h1.88v-0.94Z"/><path class="cls-1" d="M191.88,465.94V465h9.38v1.88h1.88v3.75h-1.87v1.88h-1.87v1.88h-3.75v1.88h7.5v1.88H190v-3.75h1.88V472.5h1.88v-1.87h3.75v-1.87h1.88v-1.87h-5.62v1.88H190v-1.87h1.88v-0.94Z"/><path class="cls-1" d="M208.75,465.94V465h5.63v1.88h1.88v1.88h1.88v5.63h-1.87v1.88h-1.87v1.88h-5.62v-1.87h-1.87v-1.87H205v-5.62h1.88v-1.87h1.88v-0.94Zm3.75,1.88v-0.94h-3.75v7.5h1.88v1.88h3.75v-7.5H212.5v-0.94Z"/><path class="cls-1" d="M236.88,465.94V465h7.5v1.88h1.88v1.88H242.5v-1.87h-3.75v3.75h7.5v1.88h1.88v3.75h-1.87v1.88h-9.37v-1.87H235v-1.87h3.75v1.88h5.63V472.5h-7.5v-1.87H235v-3.75h1.88v-0.94Z"/><path class="cls-1" d="M251.88,465.94V465h11.25v1.88h-3.75v11.25h-3.75V466.88h-3.75v-0.94Z"/><path class="cls-1" d="M268.75,465.94V465h5.63v1.88h1.88v1.88h1.88v9.38h-3.75v-3.75h-5.62v3.75H265v-9.37h1.88v-1.87h1.88v-0.94Zm3.75,1.88v-0.94h-1.87v1.88h-1.87v3.75h5.63v-3.75H272.5v-0.94Z"/><path class="cls-1" d="M280,471.56V465h11.25v1.88h1.88v5.63h-3.75v1.88h1.88v1.88h1.88v1.88H287.5v-1.87h-1.87v-1.87h-1.87v3.75H280v-6.56Zm9.38-2.81v-1.87h-5.62v5.63h3.75v-1.87h1.88v-1.87Z"/><path class="cls-1" d="M296.88,467.81V465h3.75v5.63h3.75V465h3.75v5.63h-1.87v1.88h-1.87v5.63h-3.75V472.5h-1.87v-1.87h-1.87v-2.81Z"/><path class="cls-1" d="M310,470.63V465h3.75v11.25h5.63V465h3.75v11.25h-1.87v1.88h-9.37v-1.87H310v-5.62Z"/></svg>