<?xml version="1.0" ?><svg id="pkflt" viewBox="0 0 500 500" xmlns="http://www.w3.org/2000/svg"><defs><style>.cls-1{fill:none;}.cls-2{fill:#9b8bcc;}.cls-3{fill:#b8a9dc;}.cls-4{fill:#ff0;}.cls-5{fill:#ede603;}.cls-6{fill:#ff007f;}.cls-7{fill:#ff5e8f;}.cls-8{opacity:0.1;}.cls-9{fill:#1a1a1a;}</style></defs><title/><polygon class="cls-1" points="250 159 250 100 248.77 159 250 159"/><polygon class="cls-1" points="250 360.52 250 358 249.77 358 250 360.52"/><polygon class="cls-2" points="169.04 174.13 177.62 165.55 193.79 177.1 201.48 176.16 222.85 128.1 131.74 94.29 158.23 181.47 172.99 179.66 169.04 174.13"/><polygon class="cls-2" points="243.94 358 211.94 378.34 250 443 250 360.52 249.77 358 243.94 358"/><polygon class="cls-2" points="134.42 262.88 68.06 345.97 141.15 356.08 159.03 288.96 134.42 262.88"/><polygon class="cls-3" points="222.85 128.1 228.17 129.85 233.22 183 236.46 183 243.58 140.49 247.15 147.14 250 138.56 250 67 222.85 128.1"/><polygon class="cls-3" points="141 252.57 141 242.87 146.21 241.99 165.14 204.06 158.25 181.47 68.08 192.53 134.43 262.88 137.89 258.64 141 252.57"/><polygon class="cls-3" points="141.15 356.08 119.61 436.94 211.94 378.39 203.91 364.77 141.15 356.08"/><polygon class="cls-3" points="193.79 177.1 214.42 191.62 222.82 183 233.22 183 228.17 129.85 222.85 127.99 201.48 176.11 193.79 177.1"/><polygon class="cls-3" points="146.38 241.99 185 235.59 185 221.76 195.58 210.93 173.12 179.66 158.29 181.47 165.25 204.06 146.38 241.99"/><polygon class="cls-3" points="236.66 314 222.82 314 214.52 305.92 181.25 329.79 172.68 321.26 196.69 288.02 185 276.11 185 262.28 141 255 141 252.57 137.89 258.64 134.46 262.88 159.05 288.96 141.16 356.08 203.91 364.77 211.94 378.39 243.94 357.88 236.66 314"/><polygon class="cls-4" points="247.32 196 250 196 250 139 248.51 139 247.32 196"/><polygon class="cls-4" points="245.1 302 244.99 307.41 249.77 358 250 358 250 302 245.1 302"/><polygon class="cls-4" points="177.62 165.55 169.04 174.13 172.99 179.66 193.79 177.1 177.62 165.55"/><polygon class="cls-4" points="249.77 358 244.99 307.51 243.94 358 249.77 358"/><polygon class="cls-4" points="247.32 196 248.51 139 243.94 139 236.46 183 233.22 183 234.37 196 247.32 196"/><polygon class="cls-4" points="141 242.87 141 252.57 146.29 241.99 141 242.87"/><polygon class="cls-4" points="244.99 307.31 245.1 302 244.48 302 244.99 307.31"/><polygon class="cls-4" points="227.86 302 197 271.08 197 226.79 227.86 196 234.37 196 233.22 183 222.82 183 214.42 191.62 193.79 177 172.99 179.6 195.58 210.91 185 221.76 185 235.59 146.46 241.99 141 252.57 141 255 185 262.28 185 276.11 196.69 288.05 172.8 321.32 181.32 329.89 214.56 305.92 222.82 314 236.66 314 243.94 357.88 244.99 307.35 244.48 302 227.86 302"/><polygon class="cls-5" points="245.25 295 245.1 302 250 302 250 295 245.25 295"/><polygon class="cls-5" points="247.15 204 250 204 250 196 247.32 196 247.15 204"/><polygon class="cls-5" points="243.79 295 244.48 302 245.1 302 245.25 295 243.79 295"/><polygon class="cls-5" points="235.18 204 247.15 204 247.32 196 234.37 196 235.18 204"/><polygon class="cls-5" points="204 267.81 204 230.06 231.13 204 235.18 204 234.37 196 227.86 196 197 226.79 197 271.08 227.86 302 244.48 302 243.79 295 231.13 295 204 267.81"/><polygon class="cls-6" points="247.15 204 235.18 204 231.13 204 204 230.06 204 267.81 231.13 295 243.79 295 245.25 295 250 295 250 279.26 250 218.61 250 204 247.15 204"/><polygon class="cls-7" points="248.18 221 240.53 221 237.94 221 221 237.1 221 261.21 237.94 278 246.04 278 246.97 278 250 278 250 268.52 250 229.78 250 221 248.18 221"/><polygon class="cls-1" points="250 360.52 250 358 250.23 358 250 360.52"/><polygon class="cls-2" points="330.96 174.13 322.38 165.55 306.21 177.1 298.52 176.16 277.15 128.1 368.26 94.29 341.77 181.47 327.01 179.66 330.96 174.13"/><polygon class="cls-2" points="256.06 358 288.06 378.34 250 443 250 360.52 250.23 358 256.06 358"/><polygon class="cls-2" points="365.58 262.88 431.94 345.97 358.85 356.08 340.97 288.96 365.58 262.88"/><polygon class="cls-3" points="277.15 128.1 271.83 129.85 266.78 183 263.54 183 256.42 140.49 252.85 147.14 250 138.56 250 67 277.15 128.1"/><polygon class="cls-3" points="359 252.57 359 242.87 353.79 241.99 334.86 204.06 341.75 181.47 431.93 192.53 365.57 262.88 362.11 258.64 359 252.57"/><polygon class="cls-3" points="358.85 356.08 380.39 436.94 288.06 378.39 296.09 364.77 358.85 356.08"/><polygon class="cls-3" points="306.21 177.1 285.58 191.62 277.18 183 266.78 183 271.83 129.85 277.15 127.99 298.52 176.11 306.21 177.1"/><polygon class="cls-3" points="353.62 241.99 315 235.59 315 221.76 304.42 210.93 326.88 179.66 341.7 181.47 334.75 204.06 353.62 241.99"/><polygon class="cls-3" points="263.34 314 277.18 314 285.48 305.92 318.75 329.79 327.32 321.26 303.31 288.02 315 276.11 315 262.28 359 255 359 252.57 362.11 258.64 365.54 262.88 340.95 288.96 358.84 356.08 296.08 364.77 288.06 378.39 256.06 357.88 263.34 314"/><polygon class="cls-4" points="252.68 196 250 196 250 139 251.49 139 252.68 196"/><polygon class="cls-4" points="254.9 302 255.01 307.41 250.23 358 250 358 250 302 254.9 302"/><polygon class="cls-4" points="322.38 165.55 330.96 174.13 327.01 179.66 306.21 177.1 322.38 165.55"/><polygon class="cls-4" points="250.23 358 255.01 307.51 256.06 358 250.23 358"/><polygon class="cls-4" points="252.68 196 251.49 139 256.06 139 263.54 183 266.78 183 265.63 196 252.68 196"/><polygon class="cls-4" points="359 242.87 359 252.57 353.71 241.99 359 242.87"/><polygon class="cls-4" points="255.01 307.31 254.9 302 255.52 302 255.01 307.31"/><polygon class="cls-4" points="272.14 302 303 271.08 303 226.79 272.14 196 265.63 196 266.78 183 277.18 183 285.58 191.62 306.21 177 327.01 179.6 304.42 210.91 315 221.76 315 235.59 353.54 241.99 359 252.57 359 255 315 262.28 315 276.11 303.31 288.05 327.2 321.32 318.68 329.89 285.44 305.92 277.18 314 263.34 314 256.06 357.88 255.01 307.35 255.52 302 272.14 302"/><polygon class="cls-5" points="254.75 295 254.9 302 250 302 250 295 254.75 295"/><polygon class="cls-5" points="252.85 204 250 204 250 196 252.68 196 252.85 204"/><polygon class="cls-5" points="256.2 295 255.52 302 254.9 302 254.75 295 256.2 295"/><polygon class="cls-5" points="264.82 204 252.85 204 252.68 196 265.63 196 264.82 204"/><polygon class="cls-5" points="296 267.81 296 230.06 268.87 204 264.82 204 265.63 196 272.14 196 303 226.79 303 271.08 272.14 302 255.52 302 256.2 295 268.87 295 296 267.81"/><polygon class="cls-6" points="252.85 204 264.82 204 268.87 204 296 230.06 296 267.81 268.87 295 256.2 295 254.75 295 250 295 250 279.26 250 218.61 250 204 252.85 204"/><polygon class="cls-7" points="251.82 221 259.47 221 262.06 221 279 237.1 279 261.21 262.06 278 253.96 278 253.03 278 250 278 250 268.52 250 229.78 250 221 251.82 221"/><g class="cls-8"><polygon class="cls-9" points="250 360.52 250 358 250.23 358 250 360.52"/><polygon class="cls-9" points="330.96 174.13 322.38 165.55 306.21 177.1 298.52 176.16 277.15 128.1 368.26 94.29 341.77 181.47 327.01 179.66 330.96 174.13"/><polygon class="cls-9" points="256.06 358 288.06 378.34 250 443 250 360.52 250.23 358 256.06 358"/><polygon class="cls-9" points="365.58 262.88 431.94 345.97 358.85 356.08 340.97 288.96 365.58 262.88"/><polygon class="cls-9" points="277.15 128.1 271.83 129.85 266.78 183 263.54 183 256.42 140.49 252.85 147.14 250 138.56 250 67 277.15 128.1"/><polygon class="cls-9" points="359 252.57 359 242.87 353.79 241.99 334.86 204.06 341.75 181.47 431.93 192.53 365.57 262.88 362.11 258.64 359 252.57"/><polygon class="cls-9" points="358.85 356.08 380.39 436.94 288.06 378.39 296.09 364.77 358.85 356.08"/><polygon class="cls-9" points="306.21 177.1 285.58 191.62 277.18 183 266.78 183 271.83 129.85 277.15 127.99 298.52 176.11 306.21 177.1"/><polygon class="cls-9" points="353.62 241.99 315 235.59 315 221.76 304.42 210.93 326.88 179.66 341.7 181.47 334.75 204.06 353.62 241.99"/><polygon class="cls-9" points="263.34 314 277.18 314 285.48 305.92 318.75 329.79 327.32 321.26 303.31 288.02 315 276.11 315 262.28 359 255 359 252.57 362.11 258.64 365.54 262.88 340.95 288.96 358.84 356.08 296.08 364.77 288.06 378.39 256.06 357.88 263.34 314"/><polygon class="cls-9" points="252.68 196 250 196 250 139 251.49 139 252.68 196"/><polygon class="cls-9" points="254.9 302 255.01 307.41 250.23 358 250 358 250 302 254.9 302"/><polygon class="cls-9" points="322.38 165.55 330.96 174.13 327.01 179.66 306.21 177.1 322.38 165.55"/><polygon class="cls-9" points="250.23 358 255.01 307.51 256.06 358 250.23 358"/><polygon class="cls-9" points="252.68 196 251.49 139 256.06 139 263.54 183 266.78 183 265.63 196 252.68 196"/><polygon class="cls-9" points="359 242.87 359 252.57 353.71 241.99 359 242.87"/><polygon class="cls-9" points="255.01 307.31 254.9 302 255.52 302 255.01 307.31"/><polygon class="cls-9" points="272.14 302 303 271.08 303 226.79 272.14 196 265.63 196 266.78 183 277.18 183 285.58 191.62 306.21 177 327.01 179.6 304.42 210.91 315 221.76 315 235.59 353.54 241.99 359 252.57 359 255 315 262.28 315 276.11 303.31 288.05 327.2 321.32 318.68 329.89 285.44 305.92 277.18 314 263.34 314 256.06 357.88 255.01 307.35 255.52 302 272.14 302"/><polygon class="cls-9" points="254.75 295 254.9 302 250 302 250 295 254.75 295"/><polygon class="cls-9" points="252.85 204 250 204 250 196 252.68 196 252.85 204"/><polygon class="cls-9" points="256.2 295 255.52 302 254.9 302 254.75 295 256.2 295"/><polygon class="cls-9" points="264.82 204 252.85 204 252.68 196 265.63 196 264.82 204"/><polygon class="cls-9" points="296 267.81 296 230.06 268.87 204 264.82 204 265.63 196 272.14 196 303 226.79 303 271.08 272.14 302 255.52 302 256.2 295 268.87 295 296 267.81"/><polygon class="cls-9" points="252.85 204 264.82 204 268.87 204 296 230.06 296 267.81 268.87 295 256.2 295 254.75 295 250 295 250 279.26 250 218.61 250 204 252.85 204"/><polygon class="cls-9" points="251.82 221 259.47 221 262.06 221 279 237.1 279 261.21 262.06 278 253.96 278 253.03 278 250 278 250 268.52 250 229.78 250 221 251.82 221"/></g><path class="cls-2" d="M173.13,465.94V465h3.75v11.25h3.75v1.88H169.38v-1.87h3.75v-7.5h-1.87v-1.87h1.88v-0.94Z"/><path class="cls-2" d="M184.38,465.94V465h9.38v1.88h1.88v3.75h-1.87v1.88h-1.87v1.88h-3.75v1.88h7.5v1.88H182.5v-3.75h1.88V472.5h1.88v-1.87H190v-1.87h1.88v-1.87h-5.62v1.88H182.5v-1.87h1.88v-0.94Z"/><path class="cls-2" d="M203.13,465.94V465h3.75v11.25h3.75v1.88H199.38v-1.87h3.75v-7.5h-1.87v-1.87h1.88v-0.94Z"/><path class="cls-2" d="M229.38,465.94V465h7.5v1.88h1.88v1.88H235v-1.87h-3.75v3.75h7.5v1.88h1.88v3.75h-1.87v1.88h-9.37v-1.87H227.5v-1.87h3.75v1.88h5.63V472.5h-7.5v-1.87H227.5v-3.75h1.88v-0.94Z"/><path class="cls-2" d="M244.38,465.94V465h11.25v1.88h-3.75v11.25h-3.75V466.88h-3.75v-0.94Z"/><path class="cls-2" d="M261.25,465.94V465h5.63v1.88h1.88v1.88h1.88v9.38h-3.75v-3.75h-5.62v3.75H257.5v-9.37h1.88v-1.87h1.88v-0.94Zm3.75,1.88v-0.94h-1.87v1.88h-1.87v3.75h5.63v-3.75H265v-0.94Z"/><path class="cls-2" d="M272.5,471.56V465h11.25v1.88h1.88v5.63h-3.75v1.88h1.88v1.88h1.88v1.88H280v-1.87h-1.87v-1.87h-1.87v3.75H272.5v-6.56Zm9.38-2.81v-1.87h-5.62v5.63H280v-1.87h1.88v-1.87Z"/><path class="cls-2" d="M287.5,471.56V465h3.75v1.88h1.88v1.88H295v-1.87h1.88V465h3.75v13.13h-3.75V472.5H295v1.88h-1.87V472.5h-1.87v5.63H287.5v-6.56Z"/><path class="cls-2" d="M304.38,465.94V465h11.25v1.88h-3.75v9.38h3.75v1.88H304.38v-1.87h3.75v-9.37h-3.75v-0.94Z"/><path class="cls-2" d="M317.5,471.56V465h13.13v1.88h-9.37v3.75h7.5v1.88h-7.5v3.75h9.38v1.88H317.5v-6.56Z"/></svg>