<?xml version="1.0" ?><svg id="pkflt" viewBox="0 0 500 500" xmlns="http://www.w3.org/2000/svg"><defs><style>.cls-1{fill:#ee848c;}.cls-2{fill:#f7c6bd;}.cls-3{fill:#f2b9b1;}.cls-4{fill:#e6e6e6;}.cls-5{fill:#00568a;}.cls-6{fill:#fff;}.cls-7{fill:#1a1a1a;}.cls-8{fill:#842c02;}.cls-9{fill:#ed8599;}.cls-10{fill:#d3e7ef;}.cls-11{opacity:0.1;}</style></defs><title/><circle class="cls-1" cx="120" cy="190" r="6"/><rect class="cls-2" height="52" rx="6" ry="6" transform="translate(253.06 -42.38) rotate(40.69)" width="12" x="177.67" y="294"/><rect class="cls-2" height="52" rx="6" ry="6" transform="translate(556.5 508.59) rotate(139.74)" width="12" x="179.04" y="330.28"/><circle class="cls-1" cx="202" cy="292.67" r="21.67"/><rect class="cls-3" height="55.29" rx="9.17" ry="9.17" transform="translate(96.92 -36.39) rotate(18.87)" width="18.33" x="148.79" y="245.8"/><path class="cls-4" d="M221.33,277.33A28.67,28.67,0,0,1,250,248.67V230s-25.81,3.33-43.75-10a21.82,21.82,0,0,1-6.27-7.11,24.94,24.94,0,0,1-9.38,18.64L186.67,240s10.67,54,31.33,67,32,9.67,32,9.67V306A28.67,28.67,0,0,1,221.33,277.33Z"/><path class="cls-1" d="M199.6,212.14a24.43,24.43,0,0,1-2.33-11.48,25,25,0,1,0,2.7,12.24C199.84,212.64,199.73,212.39,199.6,212.14Z"/><path class="cls-5" d="M227.75,138.5S176,102.33,169.38,94.33s-33.37,18-50.37,41V143l24.42-13s6.79,20.67,9.46,20,20.69-3.33,20.69-3.33S176,170.33,180,170s20-1.33,20-1.33l5.62,5.06h0c5.43-11,18.14-27.87,21.73-34Z"/><path class="cls-2" d="M250,203V131s-19.25,1.75-22,7.5c-0.16.33-.38,0.74-0.65,1.2-3.59,6.14-16.3,23-21.73,34a25.76,25.76,0,0,0-2.37,6.29s-5.71,9.87-6,20.65a24.43,24.43,0,0,0,2.33,11.48l0.06-.14,0.33,0.12c0,0.26,0,.52,0,0.77a21.82,21.82,0,0,0,6.27,7.11C224.19,233.33,250,230,250,230V214.5c-8.1,0-15-1.62-17.47-3.87a2.61,2.61,0,0,1-1-1.87C231.5,205.57,239.78,203,250,203Zm-40-14.5c4.42,0,8,5.82,8,13s-3.58,13-8,13-8-5.82-8-13S205.58,188.5,210,188.5Zm16.85-14.22c1-5.85,5-10,9-9.37s6.33,6,5.33,11.82-5,10-9,9.37S225.85,180.13,226.85,174.28Z"/><path class="cls-2" d="M199.67,212l-0.06.14c0.12,0.25.24,0.51,0.37,0.75,0-.26,0-0.51,0-0.77Z"/><path class="cls-6" d="M232.18,186.1c3.95,0.68,8-3.52,9-9.37s-1.38-11.14-5.33-11.82-8,3.52-9,9.37S228.24,185.42,232.18,186.1Zm1.07-10.72c0.13-1.79,1-3.19,2-3.12l0.1,0a1.88,1.88,0,0,1,1.22-.46,2,2,0,0,1,2,1.9A1.76,1.76,0,0,1,237,175.6v0c0,1.79-1.14,3.19-2.1,3.12S233.13,177.17,233.25,175.38Z"/><path class="cls-7" d="M234.9,178.74c1,0.07,2.1-1.33,2.1-3.12v0l-0.32,0a2,2,0,0,1-2-1.9,1.86,1.86,0,0,1,.64-1.44l-0.12,0c-1-.07-1.79,1.33-1.92,3.12S233.93,178.67,234.9,178.74Z"/><path class="cls-6" d="M236.75,175.6a1.89,1.89,0,1,0-1.41-3.32C236.24,172.45,236.86,173.89,236.75,175.6Z"/><path class="cls-6" d="M234.66,173.73a1.9,1.9,0,0,0,1.9,1.9l0.19,0c0.12-1.72-.51-3.16-1.41-3.32A1.89,1.89,0,0,0,234.66,173.73Z"/><ellipse class="cls-1" cx="210" cy="201.5" rx="8" ry="13"/><path class="cls-8" d="M231.5,208.75a2.61,2.61,0,0,0,1,1.88c2.5-2.25,9.37-3.87,17.47-3.87V203C239.78,203,231.5,205.57,231.5,208.75Z"/><path class="cls-9" d="M250,214.5v-7.75c-8.1,0-15,1.62-17.47,3.88C235,212.88,241.9,214.5,250,214.5Z"/><path class="cls-1" d="M221.33,277.33A28.67,28.67,0,0,0,250,306V248.67A28.67,28.67,0,0,0,221.33,277.33Z"/><rect class="cls-2" height="55.29" rx="9.17" ry="9.17" transform="translate(29.85 -13.78) rotate(5.84)" width="18.33" x="140.83" y="258.04"/><path class="cls-10" d="M151.76,268.91c-4.54-1.33-11-6-14.41-10.3,0,0-9.26-11.86-9.6-38.53L115.14,198.8c-2.8-4.73-4-10.67-2.62-13.2S117.7,181,121,181s7.81,4.12,10,9.16l5,11.31c2.21,5,3.22,4.73,2.24-.68l-3.45-19.12c-1-5.41-.2-11.68,1.72-13.92s6.05-2.66,9.17-.91,6,7.65,6.4,13.14l1.53,20.68c0.41,5.49,1.36,5.52,2.12.07l2.9-20.82c0.76-5.45,4.39-11.78,8.07-14.07s8.55-1.88,10.83.91,3,9.42,1.51,14.73l-6.39,23.38c-1.45,5.31-.74,5.57,1.59.58l8.22-17.63c2.32-5,6.32-9.77,8.89-10.62s6.39,0.81,8.5,3.71,2.08,9.41-.07,14.48l-13.25,31.24c-2.15,5.06,0,8,4.79,6.48s10.95-1.23,13.7.59,4.63,6.24,4.17,9.81-5.3,7.08-10.75,7.79l-3.17.41a46.8,46.8,0,0,0-18,7.16l-9.11,6.6C163.67,268.69,156.3,270.24,151.76,268.91Z"/><circle class="cls-1" cx="142.33" cy="175.62" r="6"/><circle class="cls-1" cx="170" cy="175.29" r="6"/><circle class="cls-1" cx="192.67" cy="187" r="6"/><circle class="cls-1" cx="200" cy="242.67" r="6"/><circle class="cls-4" cx="168.5" cy="339" r="9.83"/><path class="cls-5" d="M215.33,387S185,400,170,400s-25-30-11.33-35c0,0-9.67,18,1.33,21s26.67-7.67,26.67-7.67,5.33-8,9.33-8.33,13.24,4.33,13.24,4.33Z"/><rect class="cls-2" height="52" rx="6" ry="6" transform="translate(764.74 356.4) rotate(139.31)" width="12" x="310.29" y="294"/><rect class="cls-2" height="52" rx="6" ry="6" transform="translate(304.83 -119.12) rotate(40.26)" width="12" x="308.91" y="330.28"/><circle class="cls-1" cx="297.95" cy="292.67" r="21.67"/><rect class="cls-3" height="55.29" rx="9.17" ry="9.17" transform="translate(754.06 421.6) rotate(161.13)" width="18.33" x="332.83" y="245.8"/><path class="cls-4" d="M278.67,277.33A28.56,28.56,0,0,0,250,248.67V230s25.79,3.33,43.73-10a21.78,21.78,0,0,0,6.26-7.11,24.94,24.94,0,0,0,9.37,18.64l3.93,8.47S302.64,294,282,307s-32,9.67-32,9.67V306A28.56,28.56,0,0,0,278.67,277.33Z"/><path class="cls-1" d="M300.35,212.14a24.43,24.43,0,0,0,2.33-11.48,25,25,0,1,1-2.7,12.24C300.11,212.64,300.23,212.39,300.35,212.14Z"/><path class="cls-5" d="M272.2,138.5s51.73-36.17,58.4-44.17,33.4,18,50.4,41V143l-24.44-13s-6.8,20.67-9.47,20-20.69-3.33-20.69-3.33S324,170.33,320,170s-20-1.33-20-1.33l-5.62,5.06h0c-5.43-11-18.14-27.87-21.73-34Z"/><path class="cls-2" d="M268.48,208.75a2.59,2.59,0,0,1-1,1.88C265,212.88,258,214.5,250,214.5V230s25.79,3.33,43.73-10a21.78,21.78,0,0,0,6.26-7.11c0-.26,0-0.51,0-0.77l0.33-.12,0.06,0.14a24.43,24.43,0,0,0,2.33-11.48c-0.26-10.78-6-20.65-6-20.65a25.76,25.76,0,0,0-2.37-6.29c-5.43-11-18.14-27.87-21.73-34-0.27-.46-0.47-0.87-0.63-1.2-2.75-5.75-22-7.5-22-7.5v72C260,203,268.48,205.57,268.48,208.75ZM298,201.5c0,7.18-3.58,13-8,13s-8-5.82-8-13,3.58-13,8-13S298,194.32,298,201.5Zm-30.18-15.4c-3.95.68-8-3.52-9-9.37s1.38-11.14,5.33-11.82,8,3.52,9,9.37S271.72,185.42,267.77,186.1Z"/><path class="cls-2" d="M300.29,212l0.06,0.14c-0.12.25-.24,0.51-0.37,0.75,0-.26,0-0.51,0-0.77Z"/><path class="cls-6" d="M273.1,174.28c-1-5.85-5-10-9-9.37s-6.33,6-5.33,11.82,5,10,9,9.37S274.1,180.13,273.1,174.28Zm-8,4.47c-1,.07-2.08-1.33-2.08-3.12v0a1.77,1.77,0,0,1-1.6-1.88,2,2,0,0,1,2-1.9,1.87,1.87,0,0,1,1.22.46l0.1,0c1-.07,1.86,1.33,2,3.12S266,178.67,265.08,178.74Z"/><path class="cls-7" d="M265.08,178.74c-1,.07-2.08-1.33-2.08-3.12v0l0.3,0a1.94,1.94,0,0,0,2-1.9,1.86,1.86,0,0,0-.65-1.44l0.11,0c1-.07,1.8,1.33,1.93,3.12S266,178.67,265.08,178.74Z"/><path class="cls-6" d="M263.21,175.6a1.89,1.89,0,1,1,1.41-3.32C263.72,172.45,263.09,173.89,263.21,175.6Z"/><path class="cls-6" d="M265.3,173.73a1.9,1.9,0,0,1-1.9,1.9l-0.19,0c-0.12-1.72.51-3.16,1.41-3.32A1.89,1.89,0,0,1,265.3,173.73Z"/><ellipse class="cls-1" cx="289.95" cy="201.5" rx="8" ry="13"/><path class="cls-8" d="M268.48,208.75a2.59,2.59,0,0,1-1,1.88c-2.5-2.25-9.46-3.87-17.46-3.87V203C260,203,268.48,205.57,268.48,208.75Z"/><path class="cls-9" d="M250,214.5v-7.75c8,0,15,1.62,17.47,3.88C265,212.88,258,214.5,250,214.5Z"/><path class="cls-1" d="M278.67,277.33A28.56,28.56,0,0,1,250,306V248.67A28.56,28.56,0,0,1,278.67,277.33Z"/><rect class="cls-2" height="55.29" rx="9.17" ry="9.17" transform="translate(727.16 534.28) rotate(174.16)" width="18.33" x="340.79" y="258.04"/><path class="cls-10" d="M348.19,268.91c4.54-1.33,11-6,14.41-10.3,0,0,9.26-11.86,9.6-38.53l12.61-21.28c2.8-4.73,4-10.67,2.62-13.2S382.25,181,379,181s-7.81,4.12-10,9.16l-5,11.31c-2.21,5-3.22,4.73-2.24-.68l3.45-19.12c1-5.41.2-11.68-1.72-13.92s-6.05-2.66-9.17-.91-6,7.65-6.4,13.14l-1.53,20.68c-0.41,5.49-1.36,5.52-2.12.07l-2.9-20.82c-0.76-5.45-4.39-11.78-8.07-14.07s-8.55-1.88-10.83.91-3,9.42-1.51,14.73l6.39,23.38c1.45,5.31.74,5.57-1.59,0.58l-8.22-17.63c-2.32-5-6.32-9.77-8.89-10.62s-6.39.81-8.5,3.71-2.08,9.41.07,14.48l13.25,31.24c2.15,5.06,0,8-4.79,6.48s-10.95-1.23-13.7.59-4.62,6.24-4.17,9.81,5.3,7.08,10.75,7.79l3.17,0.41a46.8,46.8,0,0,1,18,7.16l9.11,6.6C336.29,268.69,343.65,270.24,348.19,268.91Z"/><circle class="cls-1" cx="357.62" cy="175.62" r="6"/><circle class="cls-1" cx="329.95" cy="175.29" r="6"/><circle class="cls-1" cx="307.29" cy="187" r="6"/><circle class="cls-1" cx="299.95" cy="242.67" r="6"/><circle class="cls-4" cx="331.45" cy="339" r="9.83"/><path class="cls-5" d="M284.62,387S315,400,330,400s25-30,11.33-35c0,0,9.67,18-1.33,21s-26.67-7.67-26.67-7.67-5.33-8-9.33-8.33-13.24,4.33-13.24,4.33Z"/><g class="cls-11"><rect class="cls-7" height="52" rx="6" ry="6" transform="translate(764.74 356.4) rotate(139.31)" width="12" x="310.29" y="294"/><rect class="cls-7" height="52" rx="6" ry="6" transform="translate(304.83 -119.12) rotate(40.26)" width="12" x="308.91" y="330.28"/><circle class="cls-7" cx="297.95" cy="292.67" r="21.67"/><rect class="cls-7" height="55.29" rx="9.17" ry="9.17" transform="translate(754.06 421.6) rotate(161.13)" width="18.33" x="332.83" y="245.8"/><path class="cls-7" d="M278.67,277.33A28.56,28.56,0,0,0,250,248.67V230s25.79,3.33,43.73-10a21.78,21.78,0,0,0,6.26-7.11,24.94,24.94,0,0,0,9.37,18.64l3.93,8.47S302.64,294,282,307s-32,9.67-32,9.67V306A28.56,28.56,0,0,0,278.67,277.33Z"/><path class="cls-7" d="M300.35,212.14a24.43,24.43,0,0,0,2.33-11.48,25,25,0,1,1-2.7,12.24C300.11,212.64,300.23,212.39,300.35,212.14Z"/><path class="cls-7" d="M272.2,138.5s51.73-36.17,58.4-44.17,33.4,18,50.4,41V143l-24.44-13s-6.8,20.67-9.47,20-20.69-3.33-20.69-3.33S324,170.33,320,170s-20-1.33-20-1.33l-5.62,5.06h0c-5.43-11-18.14-27.87-21.73-34Z"/><path class="cls-7" d="M268.48,208.75a2.59,2.59,0,0,1-1,1.88C265,212.88,258,214.5,250,214.5V230s25.79,3.33,43.73-10a21.78,21.78,0,0,0,6.26-7.11c0-.26,0-0.51,0-0.77l0.33-.12,0.06,0.14a24.43,24.43,0,0,0,2.33-11.48c-0.26-10.78-6-20.65-6-20.65a25.76,25.76,0,0,0-2.37-6.29c-5.43-11-18.14-27.87-21.73-34-0.27-.46-0.47-0.87-0.63-1.2-2.75-5.75-22-7.5-22-7.5v72C260,203,268.48,205.57,268.48,208.75ZM298,201.5c0,7.18-3.58,13-8,13s-8-5.82-8-13,3.58-13,8-13S298,194.32,298,201.5Zm-30.18-15.4c-3.95.68-8-3.52-9-9.37s1.38-11.14,5.33-11.82,8,3.52,9,9.37S271.72,185.42,267.77,186.1Z"/><path class="cls-7" d="M300.29,212l0.06,0.14c-0.12.25-.24,0.51-0.37,0.75,0-.26,0-0.51,0-0.77Z"/><path class="cls-7" d="M273.1,174.28c-1-5.85-5-10-9-9.37s-6.33,6-5.33,11.82,5,10,9,9.37S274.1,180.13,273.1,174.28Zm-8,4.47c-1,.07-2.08-1.33-2.08-3.12v0a1.77,1.77,0,0,1-1.6-1.88,2,2,0,0,1,2-1.9,1.87,1.87,0,0,1,1.22.46l0.1,0c1-.07,1.86,1.33,2,3.12S266,178.67,265.08,178.74Z"/><path class="cls-7" d="M265.08,178.74c-1,.07-2.08-1.33-2.08-3.12v0l0.3,0a1.94,1.94,0,0,0,2-1.9,1.86,1.86,0,0,0-.65-1.44l0.11,0c1-.07,1.8,1.33,1.93,3.12S266,178.67,265.08,178.74Z"/><path class="cls-7" d="M263.21,175.6a1.89,1.89,0,1,1,1.41-3.32C263.72,172.45,263.09,173.89,263.21,175.6Z"/><path class="cls-7" d="M265.3,173.73a1.9,1.9,0,0,1-1.9,1.9l-0.19,0c-0.12-1.72.51-3.16,1.41-3.32A1.89,1.89,0,0,1,265.3,173.73Z"/><ellipse class="cls-7" cx="289.95" cy="201.5" rx="8" ry="13"/><path class="cls-7" d="M268.48,208.75a2.59,2.59,0,0,1-1,1.88c-2.5-2.25-9.46-3.87-17.46-3.87V203C260,203,268.48,205.57,268.48,208.75Z"/><path class="cls-7" d="M250,214.5v-7.75c8,0,15,1.62,17.47,3.88C265,212.88,258,214.5,250,214.5Z"/><path class="cls-7" d="M278.67,277.33A28.56,28.56,0,0,1,250,306V248.67A28.56,28.56,0,0,1,278.67,277.33Z"/><rect class="cls-7" height="55.29" rx="9.17" ry="9.17" transform="translate(727.16 534.28) rotate(174.16)" width="18.33" x="340.79" y="258.04"/><path class="cls-7" d="M348.19,268.91c4.54-1.33,11-6,14.41-10.3,0,0,9.26-11.86,9.6-38.53l12.61-21.28c2.8-4.73,4-10.67,2.62-13.2S382.25,181,379,181s-7.81,4.12-10,9.16l-5,11.31c-2.21,5-3.22,4.73-2.24-.68l3.45-19.12c1-5.41.2-11.68-1.72-13.92s-6.05-2.66-9.17-.91-6,7.65-6.4,13.14l-1.53,20.68c-0.41,5.49-1.36,5.52-2.12.07l-2.9-20.82c-0.76-5.45-4.39-11.78-8.07-14.07s-8.55-1.88-10.83.91-3,9.42-1.51,14.73l6.39,23.38c1.45,5.31.74,5.57-1.59,0.58l-8.22-17.63c-2.32-5-6.32-9.77-8.89-10.62s-6.39.81-8.5,3.71-2.08,9.41.07,14.48l13.25,31.24c2.15,5.06,0,8-4.79,6.48s-10.95-1.23-13.7.59-4.62,6.24-4.17,9.81,5.3,7.08,10.75,7.79l3.17,0.41a46.8,46.8,0,0,1,18,7.16l9.11,6.6C336.29,268.69,343.65,270.24,348.19,268.91Z"/><circle class="cls-7" cx="357.62" cy="175.62" r="6"/><circle class="cls-7" cx="329.95" cy="175.29" r="6"/><circle class="cls-7" cx="307.29" cy="187" r="6"/><circle class="cls-7" cx="299.95" cy="242.67" r="6"/><circle class="cls-7" cx="331.45" cy="339" r="9.83"/><path class="cls-7" d="M284.62,387S315,400,330,400s25-30,11.33-35c0,0,9.67,18-1.33,21s-26.67-7.67-26.67-7.67-5.33-8-9.33-8.33-13.24,4.33-13.24,4.33Z"/></g><path class="cls-1" d="M165.63,465.94V465h3.75v11.25h3.75v1.88H161.88v-1.87h3.75v-7.5h-1.87v-1.87h1.88v-0.94Z"/><path class="cls-1" d="M176.88,465.94V465h9.38v1.88h1.88v3.75h-1.87v1.88h-1.87v1.88h-3.75v1.88h7.5v1.88H175v-3.75h1.88V472.5h1.88v-1.87h3.75v-1.87h1.88v-1.87h-5.62v1.88H175v-1.87h1.88v-0.94Z"/><path class="cls-1" d="M191.88,465.94V465h9.38v1.88h1.88v3.75h-1.87v1.88h-1.87v1.88h-3.75v1.88h7.5v1.88H190v-3.75h1.88V472.5h1.88v-1.87h3.75v-1.87h1.88v-1.87h-5.62v1.88H190v-1.87h1.88v-0.94Z"/><path class="cls-1" d="M220,471.56V465h3.75v1.88h1.88v1.88h1.88v-1.87h1.88V465h3.75v13.13h-3.75V472.5H227.5v1.88h-1.87V472.5h-1.87v5.63H220v-6.56Z"/><path class="cls-1" d="M235,471.56V465h11.25v1.88h1.88v5.63h-3.75v1.88h1.88v1.88h1.88v1.88H242.5v-1.87h-1.87v-1.87h-1.87v3.75H235v-6.56Zm9.38-2.81v-1.87h-5.62v5.63h3.75v-1.87h1.88v-1.87Z"/><path class="cls-1" d="M253.75,476.25v-1.87h3.75v3.75h-3.75v-1.87Z"/><path class="cls-1" d="M280,471.56V465h3.75v1.88h1.88v1.88h1.88v-1.87h1.88V465h3.75v13.13h-3.75V472.5H287.5v1.88h-1.87V472.5h-1.87v5.63H280v-6.56Z"/><path class="cls-1" d="M296.88,465.94V465h11.25v1.88h-3.75v9.38h3.75v1.88H296.88v-1.87h3.75v-9.37h-3.75v-0.94Z"/><path class="cls-1" d="M310,471.56V465h3.75v1.88h1.88v1.88h1.88v-1.87h1.88V465h3.75v13.13h-3.75V472.5H317.5v1.88h-1.87V472.5h-1.87v5.63H310v-6.56Z"/><path class="cls-1" d="M325,471.56V465h13.13v1.88h-9.37v3.75h7.5v1.88h-7.5v3.75h9.38v1.88H325v-6.56Z"/></svg>