<?xml version="1.0" ?><svg id="pkflt" viewBox="0 0 500 500" xmlns="http://www.w3.org/2000/svg"><defs><style>.cls-1{fill:#f6f2d2;}.cls-2{fill:#b8e063;}.cls-3{fill:#ccfff8;}.cls-4{fill:#f4edc6;}.cls-5{fill:#a3c950;}.cls-6{fill:#add95d;}.cls-7{fill:#fff;}.cls-8{fill:#1a1a1a;}.cls-9{opacity:0.1;}</style></defs><title/><path class="cls-1" d="M82.5,60s50.17,87,55.83,90c0,0-12.33-5.33-18.33-10s16.33,33.67,16,45.33,22,43.88,38,43.77,28.67-11.44,28.67-11.44l25.22,3.94,5.44-3.94L200,167.5l-37-41.17"/><path class="cls-2" d="M233,212.89C218.49,151.78,82.5,60,82.5,60S186,142,196,167.5,233,212.89,233,212.89Z"/><path class="cls-3" d="M30,94.5S105,215,95,230s-13,11.75-13,11.75l72.42,43.94,3.58-37-18-2.33L120,210l-20-50.5L78,131,64,118"/><rect class="cls-4" height="31" rx="5.96" ry="5.96" width="11.91" x="199.79" y="323.8"/><circle class="cls-5" cx="198" cy="221" r="25.33"/><circle class="cls-5" cx="208.09" cy="305.33" r="25.33"/><path class="cls-1" d="M235,274l11.16,9.72L250,284V274H235Z"/><path class="cls-1" d="M237,248.25V252s9,3,13,2.25v-12.5l-16.67-10.5s-4.71-8.46-5.74-16.25H227.5S228,242.75,237,248.25Z"/><path class="cls-6" d="M250,241.75V215H227.59c1,7.79,5.74,16.25,5.74,16.25Z"/><path class="cls-2" d="M235,274h0l-11,1-2.07.18c0.76,1.09,1.07,2,2.07,2.75a5.94,5.94,0,0,0,2.07,2.09c1.71,0,8.59-5.69,8.93-6l0,0h0Z"/><path class="cls-2" d="M237,252v-3.75c-9-5.5-9.5-33.25-9.5-33.25L214,207.25v1.39c-14,27.78.25,55.6,7.92,66.53L224,275l11-1h15V254.25C246,255,237,252,237,252Z"/><path class="cls-6" d="M233,156.25c-1.76,0-27.24-11.25-27.24-11.25l13,25-6,23.25s14.75,10.25,14.64,18.69a21.27,21.27,0,0,0,.2,3.06H250V120S234.75,156.25,233,156.25Zm-9.14,43.16a20.13,20.13,0,0,1,.9-19.41s4.42,8.28,8.24,16.53c0.77,1.67,1.51,3.33,2.2,4.92a3,3,0,0,0,2.2,5.6,27.91,27.91,0,0,1,.86,2.95C239.38,215.17,228.52,209.48,223.85,199.41Z"/><path class="cls-7" d="M224.75,180a20.13,20.13,0,0,0-.9,19.41,17.4,17.4,0,0,1,9.14-2.88C229.17,188.28,224.75,180,224.75,180Z"/><path class="cls-8" d="M237.39,207.05a3,3,0,0,1-2.2-5.6c-0.68-1.6-1.42-3.26-2.2-4.92a17.4,17.4,0,0,0-9.14,2.88c4.67,10.07,15.53,15.76,14.4,10.59A27.91,27.91,0,0,0,237.39,207.05Z"/><path class="cls-7" d="M233.33,204.23a3,3,0,0,0,4.06,2.82c-0.57-1.66-1.33-3.58-2.2-5.6A3,3,0,0,0,233.33,204.23Z"/><rect class="cls-5" height="45.83" rx="7.33" ry="7.33" transform="translate(227.74 -49.81) rotate(45)" width="14.67" x="166.67" y="227.08"/><path class="cls-3" d="M167,401.79l-0.11,0s-11.66,17.72-12.41,21.63c-0.42,2.17,7.53-2.77,15.51-7.7C166.44,409.92,166.87,402.83,167,401.79Z"/><path class="cls-3" d="M166.89,426l0.61,15.75s9.26-12.59,14.72-18.61a16.49,16.49,0,0,1-9.73-4.28Z"/><path class="cls-3" d="M195,442l11.93-25.45A34.23,34.23,0,0,1,195,422.16V442Z"/><path class="cls-6" d="M216.09,399.42S209.75,365,211.71,360s3-6.91,3-6.91a5.27,5.27,0,0,0-2-6.94s-8.31-4.82-20.49-.49c0,0,3.15,1.67-3.52,17.33s-18,29.77-18,29.77a20.05,20.05,0,0,0-3.67,8.87v0.15c-0.09,1-.52,8.14,3,13.91a15.46,15.46,0,0,0,2.54,3.16,16.49,16.49,0,0,0,9.73,4.28,25.87,25.87,0,0,0,3.11.19,39.06,39.06,0,0,0,9.67-1.18,34.23,34.23,0,0,0,11.93-5.61,29.4,29.4,0,0,0,7.56-7.89A15.76,15.76,0,0,0,216.09,399.42Z"/><path class="cls-6" d="M160,273V246s-31-5.53-35.5-41.77S72,120,72,120L30,94.5l51,45s36,63.74,39,77.37,20.5,38.87,25.5,37.5a52.34,52.34,0,0,0,8.92-3.37s-3.08,30.87,0,34.69S160,273,160,273Z"/><path class="cls-6" d="M250,347.15V284l-3.87-.25L235,274c-0.34.28-7.19,6-8.89,6a5.94,5.94,0,0,1-2.07-2.09,10.1,10.1,0,0,1-2.14-2.75h-0.07s-14.16,42.08,28.09,81.33l0.12,0.11v-9.47Z"/><path class="cls-1" d="M417.5,60s-50.17,87-55.83,90c0,0,12.33-5.33,18.33-10s-16.33,33.67-16,45.33-22,43.88-38,43.77-28.67-11.44-28.67-11.44l-25.22,3.94-5.44-3.94L300,167.5l37-41.17"/><path class="cls-2" d="M267,212.89C281.51,151.78,417.5,60,417.5,60S314,142,304,167.5,267,212.89,267,212.89Z"/><path class="cls-3" d="M470,94.5S395,215,405,230s13,11.75,13,11.75l-72.42,43.94-3.58-37,18-2.33L380,210l20-50.5L422,131l14-13"/><rect class="cls-4" height="31" rx="5.96" ry="5.96" transform="translate(588.5 678.59) rotate(-180)" width="11.91" x="288.29" y="323.8"/><circle class="cls-5" cx="302" cy="221" r="25.33"/><circle class="cls-5" cx="291.91" cy="305.33" r="25.33"/><path class="cls-1" d="M265,274l-11.16,9.72L250,284V274h15Z"/><path class="cls-1" d="M263,248.25V252s-9,3-13,2.25v-12.5l16.67-10.5s4.71-8.25,5.74-16.25h0.09S272,242.75,263,248.25Z"/><path class="cls-6" d="M250,241.75V215h22.41c-1,8-5.74,16.25-5.74,16.25Z"/><path class="cls-2" d="M265,274h0l11,1,2.07,0.18c-0.76,1.09-1.07,2-2.07,2.75a5.94,5.94,0,0,1-2.07,2.09c-1.71,0-8.59-5.69-8.93-6l0,0h0Z"/><path class="cls-2" d="M263,252v-3.75c9-5.5,9.5-33.25,9.5-33.25l13.5-7.75v1.39c14,27.78-.25,55.6-7.92,66.53L276,275l-11-1H250V254.25C254,255,263,252,263,252Z"/><path class="cls-6" d="M250,120v95h22.41a20.92,20.92,0,0,0,.2-3.06c-0.11-8.44,14.64-18.69,14.64-18.69l-6-23.25,13-25S268.76,156.25,267,156.25,250,120,250,120Zm11.75,90a27.91,27.91,0,0,1,.86-2.95,3,3,0,0,0,2.2-5.6c0.68-1.6,1.42-3.26,2.2-4.92,3.82-8.25,8.24-16.53,8.24-16.53a20.13,20.13,0,0,1,.9,19.41C271.48,209.48,260.62,215.17,261.75,210Z"/><path class="cls-7" d="M275.25,180a20.13,20.13,0,0,1,.9,19.41,17.4,17.4,0,0,0-9.14-2.88C270.83,188.28,275.25,180,275.25,180Z"/><path class="cls-8" d="M262.61,207.05a3,3,0,0,0,2.2-5.6c0.68-1.6,1.42-3.26,2.2-4.92a17.4,17.4,0,0,1,9.14,2.88c-4.67,10.07-15.53,15.76-14.4,10.59A27.91,27.91,0,0,1,262.61,207.05Z"/><path class="cls-7" d="M266.67,204.23a3,3,0,0,1-4.06,2.82c0.57-1.66,1.33-3.58,2.2-5.6A3,3,0,0,1,266.67,204.23Z"/><rect class="cls-5" height="45.83" rx="7.33" ry="7.33" transform="translate(733.29 196.26) rotate(135)" width="14.67" x="318.67" y="227.08"/><path class="cls-3" d="M333,401.79l0.11,0s11.66,17.72,12.41,21.63c0.42,2.17-7.53-2.77-15.51-7.7C333.56,409.92,333.13,402.83,333,401.79Z"/><path class="cls-3" d="M333.11,426l-0.61,15.75s-9.26-12.59-14.72-18.61a16.49,16.49,0,0,0,9.73-4.28Z"/><path class="cls-3" d="M305,442l-11.93-25.45A34.23,34.23,0,0,0,305,422.16V442Z"/><path class="cls-6" d="M283.91,399.42S290.25,365,288.29,360s-3-6.91-3-6.91a5.27,5.27,0,0,1,2-6.94s8.31-4.82,20.49-.49c0,0-3.15,1.67,3.52,17.33s18,29.77,18,29.77a20.05,20.05,0,0,1,3.67,8.87v0.15c0.09,1,.52,8.14-3,13.91a15.46,15.46,0,0,1-2.54,3.16,16.49,16.49,0,0,1-9.73,4.28,25.87,25.87,0,0,1-3.11.19,39.06,39.06,0,0,1-9.67-1.18,34.23,34.23,0,0,1-11.93-5.61,29.4,29.4,0,0,1-7.56-7.89A15.76,15.76,0,0,1,283.91,399.42Z"/><path class="cls-6" d="M340,273V246s31-5.53,35.5-41.77S428,120,428,120l42-25.5-51,45s-36,63.74-39,77.37-20.5,38.87-25.5,37.5a52.34,52.34,0,0,1-8.92-3.37s3.08,30.87,0,34.69S340,273,340,273Z"/><path class="cls-6" d="M250,347.15V284l3.88-.25L265,274c0.34,0.28,7.19,6,8.89,6a5.94,5.94,0,0,0,2.07-2.09,10.1,10.1,0,0,0,2.14-2.75h0.07s14.16,42.08-28.09,81.33l-0.12.11v-9.47Z"/><g class="cls-9"><path class="cls-8" d="M417.69,241.94a0.92,0.92,0,0,0,.31-0.19Z"/><path class="cls-8" d="M405,230c-10-15,65-135.5,65-135.5L428,120s-48,48-52.5,84.23S340,246,340,246v7.63L322.4,236a25.25,25.25,0,0,0,3.6-6.92h0c16,0.11,38.33-32.11,38-43.77s22-50,16-45.33-18.33,10-18.33,10c5.67-3,55.83-90,55.83-90L378.36,92.25C399.81,74,417.5,60,417.5,60s-93.6,63.18-133.77,119.6l-2.48-9.6,13-25S268.76,156.25,267,156.25,250,120,250,120V356.61l0.12-.11c12-11.17,19.32-22.56,23.84-33.15a26.5,26.5,0,0,0,14,7.06v15.28a1.29,1.29,0,0,1-.82.47,5.25,5.25,0,0,0-1.92,6.94,69.54,69.54,0,0,1,3,6.91c2,5-4.37,39.42-4.37,39.42a15.77,15.77,0,0,0,1.61,9.24,29.47,29.47,0,0,0,7.57,7.89L305,442V422.16a39.06,39.06,0,0,0,9.67,1.18,25.87,25.87,0,0,0,3.11-.19c5.46,6,14.72,18.61,14.72,18.61L333.11,426l-5.6-7.15a15.46,15.46,0,0,0,2.54-3.16c8,4.93,15.93,9.87,15.51,7.7-0.75-3.92-12.41-21.63-12.41-21.63l-0.11,0v-0.15a20.05,20.05,0,0,0-3.67-8.87S318,378.67,311.33,363s-3.62-17.33-3.62-17.33A25.81,25.81,0,0,0,300,344V329.75c0-.16.09-0.32,0.08-0.47A25.32,25.32,0,1,0,279.85,283a47.6,47.6,0,0,0-1.64-7.88h-0.06a10.15,10.15,0,0,1-2.14,2.74c1-.74,1.3-1.65,2.06-2.74l-2-.18,2,0.18a79.78,79.78,0,0,0,13-31.32,25.38,25.38,0,0,0,19.45,1l21.34,21.34a7.35,7.35,0,0,0,8.17,1.5V273s2.5,16.5,5.58,12.69l72.12-43.75C416.72,242.33,413.23,242.35,405,230ZM265,274h0l10.86,1Z"/></g><path class="cls-5" d="M173.13,465.94V465h3.75v11.25h3.75v1.88H169.38v-1.87h3.75v-7.5h-1.87v-1.87h1.88v-0.94Z"/><path class="cls-5" d="M184.38,465.94V465h9.38v1.88h1.88v3.75h-1.87v1.88h-1.87v1.88h-3.75v1.88h7.5v1.88H182.5v-3.75h1.88V472.5h1.88v-1.87H190v-1.87h1.88v-1.87h-5.62v1.88H182.5v-1.87h1.88v-0.94Z"/><path class="cls-5" d="M199.38,465.94V465h11.25v1.88h-1.87v1.88h-1.87v1.88h1.88v1.88h1.88v3.75h-1.87v1.88h-9.37v-1.87H197.5v-1.87h3.75v1.88h5.63V472.5h-5.62v-1.87h1.88v-1.87H205v-1.87h-5.62v-0.94Z"/><path class="cls-5" d="M229.38,465.94V465h7.5v1.88h1.88v1.88H235v-1.87h-3.75v3.75h7.5v1.88h1.88v3.75h-1.87v1.88h-9.37v-1.87H227.5v-1.87h3.75v1.88h5.63V472.5h-7.5v-1.87H227.5v-3.75h1.88v-0.94Z"/><path class="cls-5" d="M246.25,465.94V465h7.5v1.88h1.88v1.88h-3.75v-1.87h-3.75v1.88h-1.87v5.63h1.88v1.88h3.75v-1.87h3.75v1.88h-1.87v1.88h-7.5v-1.87h-1.87v-1.87H242.5v-5.62h1.88v-1.87h1.88v-0.94Z"/><path class="cls-5" d="M259.38,467.81V465h3.75v5.63h3.75V465h3.75v5.63h-1.87v1.88h-1.87v5.63h-3.75V472.5h-1.87v-1.87h-1.87v-2.81Z"/><path class="cls-5" d="M274.38,465.94V465h11.25v1.88h-3.75v11.25h-3.75V466.88h-3.75v-0.94Z"/><path class="cls-5" d="M287.5,471.56V465h3.75v5.63h5.63V465h3.75v13.13h-3.75V472.5h-5.62v5.63H287.5v-6.56Z"/><path class="cls-5" d="M302.5,471.56V465h13.13v1.88h-9.37v3.75h7.5v1.88h-7.5v3.75h9.38v1.88H302.5v-6.56Z"/><path class="cls-5" d="M317.5,471.56V465h11.25v1.88h1.88v5.63h-3.75v1.88h1.88v1.88h1.88v1.88H325v-1.87h-1.87v-1.87h-1.87v3.75H317.5v-6.56Zm9.38-2.81v-1.87h-5.62v5.63H325v-1.87h1.88v-1.87Z"/></svg>