<?xml version="1.0" ?><svg id="pkflt" viewBox="0 0 500 500" xmlns="http://www.w3.org/2000/svg"><defs><style>.cls-1{fill:#69308d;}.cls-2{fill:#e50020;}.cls-3{fill:#ffe100;}.cls-4{fill:#fff;}.cls-5{fill:#1a1a1a;}.cls-6{fill:#f3b3cf;}.cls-7{fill:#ed8599;}.cls-8{fill:#f4f4b3;}.cls-9{opacity:0.1;}</style></defs><title/><path class="cls-1" d="M211,140c-10,7.64-20.19,39.14-20.17,80.91A38.48,38.48,0,0,1,234,223.5c5.67,2.11,12.61,4.35,16,4.17V210s-34.33-1.33-26-20,26-8.67,26-8.67V137.5S232,124,211,140Zm32.5,20a16,16,0,1,1-16-16A16,16,0,0,1,243.5,160Z"/><path class="cls-2" d="M210.5,292.5a38.52,38.52,0,0,1-10.3-1.4A263.34,263.34,0,0,0,240.95,377s-18.45-13-25.45-27c-6.66-13.32,10,26.29,15.62,33.2,1,0.92,1.35,1.24.77,0.8a4.91,4.91,0,0,1-.77-0.8c-5.62-5.06-32.19-28.33-43-43.44,3.76,12.25,9.41,30,15.39,33.74,0,0-29.45-11.46-51.27-34.8C139,349.26,124.91,357.83,112.33,360c0,0,43.67-.67,45.67-4.67l0.56-1.12L158,355.33l-2,4s-56,38-76,40.67,23.67,20,65,0c0,0,15,14.67,35,2.67s30,2,30,2,20-9.33,30-2L250,410V277h-8.62A38.44,38.44,0,0,1,210.5,292.5Z"/><path class="cls-3" d="M240.5,254a29.94,29.94,0,0,1-11,23.18L250,270V247H239.67A30.06,30.06,0,0,1,240.5,254Z"/><path class="cls-3" d="M192.23,230.21l-1.25-.69c0,0.56,0,1.11.05,1.67Q191.62,230.68,192.23,230.21Z"/><path class="cls-3" d="M200.08,290.66c2.3-2.77,3.58-4.4,3.58-4.4l6.46-2.27a29.87,29.87,0,0,1-12.41-2.85Q198.81,285.88,200.08,290.66Z"/><path class="cls-3" d="M234,223.5a38.48,38.48,0,0,0-43.15-2.59q0,4.24.15,8.61l1.25,0.69A30,30,0,0,1,239.67,247H250V227.67C246.58,227.85,239.65,225.6,234,223.5Z"/><path class="cls-3" d="M210.5,284h-0.37l-6.46,2.27s-1.28,1.63-3.58,4.4l0.12,0.44A38.5,38.5,0,0,0,241.38,277H250v-7l-20.45,7.18A29.87,29.87,0,0,1,210.5,284Z"/><path class="cls-4" d="M211.5,160a16,16,0,1,0,16-16A16,16,0,0,0,211.5,160Zm18,0a2,2,0,1,1-2-2A2,2,0,0,1,229.53,160Z"/><circle class="cls-5" cx="227.5" cy="160" r="2.03"/><path class="cls-6" d="M224,190c-8.33,18.67,26,20,26,20v-7.75s-19.75-3.34-18-7.92,4.25-8.83,8.25-6.33a41.67,41.67,0,0,0,9.75,4V181.33S232.33,171.33,224,190Z"/><path class="cls-7" d="M232,194.33c-1.75,4.58,18,7.92,18,7.92V192a41.67,41.67,0,0,1-9.75-4C236.25,185.5,233.75,189.75,232,194.33Z"/><path class="cls-2" d="M197.72,281.14A29.87,29.87,0,0,0,210.13,284l19.42-6.81A30,30,0,0,0,239.67,247h-17l-30.47-16.79q-0.61.47-1.2,1A272.86,272.86,0,0,0,197.72,281.14Z"/><path class="cls-2" d="M239.67,247a30,30,0,0,0-47.44-16.79L222.7,247h17Z"/><path class="cls-2" d="M210.5,284a29.87,29.87,0,0,0,19-6.82L210.13,284h0.37Z"/><path class="cls-8" d="M137.74,249H141V218.54q-1.56,6.49-3,13v17.26C138,248.84,137.74,248.92,137.74,249Z"/><path class="cls-8" d="M231.89,384c0.58,0.44.25,0.12-.77-0.8A4.91,4.91,0,0,0,231.89,384Z"/><path class="cls-8" d="M203.5,373.5c-6-3.7-11.63-21.5-15.39-33.74-2.85-4-4.61-7.39-4.61-9.76,0-5.6,1.76.49,4.61,9.76,10.82,15.11,37.38,38.38,43,43.44-5.61-6.92-22.27-46.52-15.62-33.2,7,14,25.45,27,25.45,27a263.34,263.34,0,0,1-40.74-85.9l-0.39-.11c-7.84,9.41-26.7,31-47.59,47.71C174.05,362,203.5,373.5,203.5,373.5Z"/><path class="cls-8" d="M183.5,330c0,2.37,1.76,5.78,4.61,9.76C185.26,330.49,183.5,324.4,183.5,330Z"/><path class="cls-8" d="M190.83,220.91a38.64,38.64,0,0,0-6.56,4.92l6.7,3.69Q190.83,225.15,190.83,220.91Z"/><path class="cls-8" d="M200.08,290.66l-0.27.32,0.39,0.11Z"/><path class="cls-8" d="M189.58,100c-13.43,6.58-30.64,50.78-43.69,99.33a7,7,0,0,1,9.11,6.42V244l6.24-16.23a4.75,4.75,0,0,1,6.25-2.79,5,5,0,0,1,2.79,6.5S161,259.32,161,261c0,0-5.4,28-12,28H129.28c1.14,20.25,10.88,36.79,22.95,49.7C173.11,322,192,300.4,199.81,291l0.27-.32q-1.28-4.78-2.36-9.52a272.86,272.86,0,0,1-6.69-50c0-.56,0-1.11-0.05-1.67l-6.7-3.69a38.64,38.64,0,0,1,6.56-4.92c0-41.77,10.14-73.26,20.17-80.91,21-16,39-2.5,39-2.5V90C210,70,210,90,189.58,100Z"/><path class="cls-1" d="M141,205.75v12.78c1.55-6.43,3.18-12.85,4.89-19.2A6.9,6.9,0,0,0,141,205.75Z"/><path class="cls-1" d="M130,274c2-13.29,4.72-27.77,8-42.51V197.75a7,7,0,0,0-14,0v51c0,0.08.26,0.16,0.26,0.25H121V206.5a7,7,0,0,0-14,0v39.27L92.24,214.45a6.64,6.64,0,0,0-8.89-3.17,6.75,6.75,0,0,0-3.11,9L96,253.06A30.37,30.37,0,0,1,98,261s5.9,28,12.5,28h18.78A73.44,73.44,0,0,1,130,274Z"/><path class="cls-1" d="M161,261c0-1.68,9.28-29.5,9.28-29.5a5,5,0,0,0-2.79-6.5,4.75,4.75,0,0,0-6.25,2.79L155,244V205.75a7,7,0,0,0-9.11-6.42c-1.71,6.35-3.34,12.78-4.89,19.2V249h-3.26c0-.08.26-0.16,0.26-0.25V231.49c-3.28,14.74-6,29.22-8,42.51a73.44,73.44,0,0,0-.72,15H149C155.6,289,161,261,161,261Z"/><path class="cls-1" d="M250,137.5v43.83s17.67-10,26,8.67-26,20-26,20v17.67c3,0.18,10.35-2.06,16-4.17a38.47,38.47,0,0,1,43.15-2.59c0-41.77-10.14-73.26-20.17-80.91C268,124,250,137.5,250,137.5Zm22.49,6.5a16,16,0,1,1-16,16A16,16,0,0,1,272.49,144Z"/><path class="cls-2" d="M289.49,292.5a38.52,38.52,0,0,0,10.3-1.4A263.34,263.34,0,0,1,259,377s18.45-13,25.45-27c6.66-13.32-10,26.29-15.62,33.2-1,.92-1.35,1.24-0.77.8a4.91,4.91,0,0,0,.77-0.8c5.62-5.06,32.19-28.33,43-43.44-3.76,12.25-9.41,30-15.39,33.74,0,0,29.45-11.46,51.27-34.8,13.25,10.57,27.31,19.14,39.89,21.3,0,0-43.67-.67-45.67-4.67l-0.56-1.12,0.56,1.12,2,4s56,38,76,40.67-23.67,20-65,0c0,0-15,14.67-35,2.67s-30,2-30,2-20-9.33-30-2L250,410V277h8.62C265.64,286,276.85,292.5,289.49,292.5Z"/><path class="cls-3" d="M259.49,254a29.94,29.94,0,0,0,11,23.18L250,270V247h10.32A28.54,28.54,0,0,0,259.49,254Z"/><path class="cls-3" d="M307.77,230.21l1.25-.69c0,0.56,0,1.11-.05,1.67Q308.38,230.68,307.77,230.21Z"/><path class="cls-3" d="M299.91,290.66c-2.3-2.77-3.58-4.4-3.58-4.4L289.86,284a29.87,29.87,0,0,0,12.41-2.85Q301.19,285.88,299.91,290.66Z"/><path class="cls-3" d="M266,223.5a38.47,38.47,0,0,1,43.15-2.59q0,4.24-.15,8.61l-1.25.69A29.86,29.86,0,0,0,289.49,224a30.21,30.21,0,0,0-29.17,23H250V227.67C253,227.85,260.35,225.6,266,223.5Z"/><path class="cls-3" d="M289.49,284h0.37l6.46,2.27s1.28,1.63,3.58,4.4l-0.12.44a38.52,38.52,0,0,1-10.3,1.4c-12.64,0-23.86-6.5-30.88-15.5H250v-7l20.45,7.18A29.87,29.87,0,0,0,289.49,284Z"/><path class="cls-4" d="M272.49,144a16,16,0,1,0,16,16A16,16,0,0,0,272.49,144Zm0,14a2,2,0,1,1-2,2A2,2,0,0,1,272.49,158Z"/><circle class="cls-5" cx="272.49" cy="160" r="2.03"/><path class="cls-6" d="M276,190c8.33,18.67-26,20-26,20v-7.75s19.75-3.34,18-7.92-4.25-8.83-8.25-6.33a41.67,41.67,0,0,1-9.75,4V181.33S267.67,171.33,276,190Z"/><path class="cls-7" d="M268,194.33c1.75,4.58-18,7.92-18,7.92V192a41.67,41.67,0,0,0,9.75-4C263.75,185.5,266.25,189.75,268,194.33Z"/><path class="cls-2" d="M302.27,281.14A29.87,29.87,0,0,1,289.86,284l-19.42-6.81a29.94,29.94,0,0,1-11-23.18,28.54,28.54,0,0,1,.83-7h17l30.47-16.79q0.61,0.47,1.2,1A272.86,272.86,0,0,1,302.27,281.14Z"/><path class="cls-2" d="M260.32,247a30.21,30.21,0,0,1,29.17-23,29.86,29.86,0,0,1,18.27,6.21L277.3,247h-17Z"/><path class="cls-2" d="M289.49,284a29.87,29.87,0,0,1-19-6.82L289.86,284h-0.37Z"/><path class="cls-8" d="M362.25,249H359V218.54q1.5,6.49,3,13v17.26C362,248.84,362.25,248.92,362.25,249Z"/><path class="cls-8" d="M268.1,384c-0.58.44-.25,0.12,0.77-0.8A4.91,4.91,0,0,1,268.1,384Z"/><path class="cls-8" d="M296.49,373.5c6-3.7,11.63-21.5,15.39-33.74,2.85-4,4.61-7.39,4.61-9.76,0-5.6-1.76.49-4.61,9.76-10.82,15.11-37.38,38.38-43,43.44,5.61-6.92,22.27-46.52,15.62-33.2-7,14-25.45,27-25.45,27a263.34,263.34,0,0,0,40.74-85.9l0.39-.11c7.84,9.41,26.7,31,47.59,47.71C325.94,362,296.49,373.5,296.49,373.5Z"/><path class="cls-8" d="M316.49,330c0,2.37-1.76,5.78-4.61,9.76C314.73,330.49,316.49,324.4,316.49,330Z"/><path class="cls-8" d="M309.17,220.91a38.64,38.64,0,0,1,6.56,4.92l-6.7,3.69Q309.17,225.15,309.17,220.91Z"/><path class="cls-8" d="M299.91,290.66l0.27,0.32-0.39.11Z"/><path class="cls-8" d="M310.41,100c13.43,6.58,30.64,50.78,43.69,99.33a7,7,0,0,0-9.11,6.42V244l-6.24-16.23a4.75,4.75,0,0,0-6.25-2.79,5,5,0,0,0-2.79,6.5S339,259.32,339,261c0,0,5.4,28,12,28h19.72c-1.14,20.25-10.88,36.79-22.95,49.7C326.88,322,308,300.4,300.18,291l-0.27-.32q1.28-4.78,2.36-9.52a272.86,272.86,0,0,0,6.69-50c0-.56,0-1.11.05-1.67l6.7-3.69a38.64,38.64,0,0,0-6.56-4.92c0-41.77-10.14-73.26-20.17-80.91-21-16-39-2.5-39-2.5V90C290,70,290,90,310.41,100Z"/><path class="cls-1" d="M359,205.75v12.78c-2-6.43-3.18-12.85-4.89-19.2A6.9,6.9,0,0,1,359,205.75Z"/><path class="cls-1" d="M370,274c-2-13.29-5-27.77-8-42.51V197.75a7,7,0,0,1,14,0v51c0,0.08-.26.16-0.26,0.25H379V206.5a7,7,0,0,1,14,0v39.27l14.75-31.32a6.63,6.63,0,0,1,8.89-3.17,6.75,6.75,0,0,1,3.11,9L404,253.06a30.37,30.37,0,0,0-2,7.94s-5.9,28-12.5,28H370.71A73.43,73.43,0,0,0,370,274Z"/><path class="cls-1" d="M339,261c0-1.68-9.28-29.5-9.28-29.5a5,5,0,0,1,2.79-6.5,4.75,4.75,0,0,1,6.26,2.79L345,244V205.75a7,7,0,0,1,9.11-6.42c1.71,6.35,2.89,12.78,4.89,19.2V249h3.25c0-.08-0.25-0.16-0.25-0.25V231.49c3,14.74,6,29.22,8,42.51a73.43,73.43,0,0,1,.72,15H351C344.39,289,339,261,339,261Z"/><g class="cls-9"><path class="cls-5" d="M420,400c-20-2.67-76-40.67-76-40.67l-2-4c2,4,45.67,4.67,45.67,4.67-12.58-2.17-26.64-10.74-39.89-21.3,12.07-12.91,21.81-29.45,22.95-49.7h18.78c6.6,0,12.5-28,12.5-28a30.37,30.37,0,0,1,2-7.94l15.73-32.77a6.75,6.75,0,0,0-3.11-9,6.63,6.63,0,0,0-8.89,3.17L393,245.77V206.5a7,7,0,0,0-14,0V249h-3.26c0-.08.26-0.16,0.26-0.25v-51a7,7,0,0,0-14,0v33.74c-1-4.3-2-8.8-3-13.12-2-6.43-3.18-12.37-4.89-19.37h0c-13.06-48-30.27-92.59-43.69-99.17C290,89.83,290,70,250,90V410l10-7.33c10-7.33,30,2,30,2s10-14,30-2S355,400,355,400C396.33,420,440,402.67,420,400ZM289.49,224h0a29.86,29.86,0,0,1,18.27,6.21h0A29.86,29.86,0,0,0,289.49,224Zm62.94-25c-0.15,0-.29,0-0.44,0h0C352.15,199,352.29,199,352.44,199Zm-13.68,28.75a4.82,4.82,0,0,0-4.34-3.14A4.82,4.82,0,0,1,338.76,227.79Zm-71.33-95.61a32.38,32.38,0,0,0-15.63,4.18A32.38,32.38,0,0,1,267.43,132.18ZM250.81,137l-0.61.4Z"/><path class="cls-5" d="M354.11,199.33c1.71,6.35,2.89,12.78,4.89,19.2V205.75A6.9,6.9,0,0,0,354.11,199.33Z"/></g><path class="cls-1" d="M195.63,465.94V465h3.75v11.25h3.75v1.88H191.88v-1.87h3.75v-7.5h-1.87v-1.87h1.88v-0.94Z"/><path class="cls-1" d="M206.88,465.94V465h9.38v1.88h1.88v3.75h-1.87v1.88h-1.87v1.88h-3.75v1.88h7.5v1.88H205v-3.75h1.88V472.5h1.88v-1.87h3.75v-1.87h1.88v-1.87h-5.62v1.88H205v-1.87h1.88v-0.94Z"/><path class="cls-1" d="M225.63,465.94V465h5.63v7.5h1.88v1.88h-1.87v3.75H227.5v-3.75H220v-3.75h1.88v-1.87h1.88v-1.87h1.88v-0.94Zm1.88,4.69v-1.87h-1.87v1.88h-1.87v1.88h3.75v-1.87Z"/><path class="cls-1" d="M259.38,470.63V465h3.75v11.25h-1.87v1.88h-9.37v-1.87H250v-1.87h3.75v1.88h5.63v-5.62Z"/><path class="cls-1" d="M266.88,467.81V465h3.75v5.63h3.75V465h3.75v5.63h-1.87v1.88h-1.87v5.63h-3.75V472.5h-1.87v-1.87h-1.87v-2.81Z"/><path class="cls-1" d="M280,471.56V465h3.75v1.88h1.88v1.88h1.88v1.88h1.88V465h3.75v13.13h-3.75v-1.87H287.5v-1.87h-1.87V472.5h-1.87v5.63H280v-6.56Z"/><path class="cls-1" d="M295,466.88V465h3.75v1.88h1.88v1.88h1.88v-1.87h1.88V465h3.75v3.75h-1.87v1.88h-1.87v1.88h1.88v1.88h1.88v3.75h-3.75v-1.87H302.5v-1.87h-1.87v1.88h-1.87v1.88H295v-3.75h1.88V472.5h1.88v-1.87h-1.87v-1.87H295v-1.87Z"/></svg>