<?xml version="1.0" ?><svg id="pkflt" viewBox="0 0 500 500" xmlns="http://www.w3.org/2000/svg"><defs><style>.cls-1{fill:none;}.cls-2{fill:#1a1a1a;}.cls-3{fill:#fcd82e;}.cls-4{fill:#fff;}.cls-5{fill:#ccc;}.cls-6{fill:#f7ce23;}.cls-7{opacity:0.1;}.cls-8{fill:#e5b900;}</style></defs><title/><path class="cls-1" d="M196.75,291.75a4,4,0,0,0,1,.55C197,291.8,196.57,291.57,196.75,291.75Z"/><path class="cls-2" d="M241.11,228l-12.68,35H242l-17.37,27.11,20.7-2.56-4.67,15.79L250,320.67V229C248.28,229.59,245,229.11,241.11,228Z"/><path class="cls-2" d="M202.25,301c4.25,2.25,17.5,3,13.66,2-3.14-.82-14.6-8.48-18.15-10.7a4,4,0,0,1-1-.55c-0.18-.18.22,0,1,0.55,3.26,1.41,12.86,4.2,12.86,4.2-8-2.59-18.45-12.06-24.84-18.44a110.25,110.25,0,0,0-3.64,19.18c9.16,6.58,32.06,11.77,32.06,11.77S198,298.75,202.25,301Z"/><path class="cls-2" d="M211.12,255.47a6.82,6.82,0,0,0,1.19.71C211.38,255.56,210.92,255.27,211.12,255.47Z"/><path class="cls-2" d="M216.49,264c5,2.94,21.7,7.39,17,5.51-3.84-1.54-17.07-10.65-21.18-13.37a6.82,6.82,0,0,1-1.19-.71c-0.2-.19.27,0.1,1.19,0.71,3.89,2,15.6,6.94,15.6,6.94-9.57-4.23-21-14.19-28-20.86-2.18,4.4-4.4,9.2-6.51,14.23,11.56,7.5,36.92,17.06,36.92,17.06S211.49,261.09,216.49,264Z"/><path class="cls-3" d="M224.22,209.22a1.39,1.39,0,0,1,.41.78c0.15,1.52-2.5,5.05-4.62,7.6l20,2.9,10,5.17v-9.79l-0.15,0C240,212.78,231.05,210.64,224.22,209.22Z"/><path class="cls-3" d="M220,217.6c-0.45.55-.88,1.05-1.25,1.48A147.12,147.12,0,0,0,241.11,228l0.73-2,8.17,3v-3.33l-10-5.17Z"/><path class="cls-3" d="M241.11,228c3.94,1.1,7.18,1.58,8.89,1l-8.17-3Z"/><path class="cls-3" d="M246,136.5s-21.33,8-26,12c0,0-17-16.76-23-20.45a10,10,0,1,0-4.73,4l18.6,28s-6.83,23.33-15,26.33-14,5.33-15.83,6.92-3.67,10.08,4.33,11.08S204,209.17,208.17,213a36,36,0,0,0,6,3.76l2.72,0.39-1.61-9.62c-2.67-.45-4.21-0.66-4.26-0.66a0.5,0.5,0,0,1,.13-1s1.47,0.2,4,.61c1.48,0.25,3.34.58,5.52,1A275.76,275.76,0,0,1,250,214.85V191s-20.12-31.75-26.75-36.12c0,0,3.88-7,6.75-4S250,170,250,170V80Zm-17.47,45c1.61,1,3.28,2.16,4.85,3.39,2.91,2.27,5.47,4.82,6.62,7.37,0,0-23,2.25-22.5,0s2.5-15.5,2.5-15.5A87.24,87.24,0,0,1,228.53,181.49Z"/><path class="cls-3" d="M216.93,217.16l-2.72-.39q1.36,0.73,2.91,1.51Z"/><path class="cls-4" d="M217.5,192.25c-0.5,2.25,22.5,0,22.5,0-1.15-2.55-3.71-5.1-6.62-7.37-0.33,2.32-1.28,4-2.41,4-1.4,0-2.54-2.58-2.54-5.77a12.71,12.71,0,0,1,.1-1.61,87.24,87.24,0,0,0-8.53-4.74S218,190,217.5,192.25Z"/><path class="cls-2" d="M231,188.88c1.13,0,2.08-1.68,2.41-4-1.57-1.22-3.24-2.37-4.85-3.39a12.71,12.71,0,0,0-.1,1.61C228.43,186.29,229.56,188.88,231,188.88Z"/><path class="cls-2" d="M230,150.88c-2.87-3-6.75,4-6.75,4C229.88,159.25,250,191,250,191V170S232.88,153.88,230,150.88Z"/><path class="cls-4" d="M217.49,220.5s0.52-.56,1.26-1.42l-1.64-.81Z"/><path class="cls-4" d="M224.63,210a1.39,1.39,0,0,0-.41-0.78c-3.64-.76-6.67-1.31-8.9-1.69l1.61,9.62L220,217.6C222.12,215.05,224.78,211.52,224.63,210Z"/><path class="cls-4" d="M218.75,219.08c0.37-.43.8-0.93,1.25-1.48l-3.08-.45,0.19,1.11Z"/><path class="cls-2" d="M215.14,206.49c-2.49-.42-3.91-0.61-4-0.61a0.5,0.5,0,0,0-.13,1c0.05,0,1.59.21,4.26,0.66,2.23,0.38,5.26.93,8.9,1.69,6.83,1.42,15.8,3.56,25.63,6.63l0.15,0v-1a275.76,275.76,0,0,0-29.34-7.36C218.49,207.07,216.62,206.74,215.14,206.49Z"/><path class="cls-2" d="M196.75,291.75a4,4,0,0,0,1,.55C197,291.8,196.57,291.57,196.75,291.75Z"/><path class="cls-5" d="M164,420.53l-17,21.65,30.64-11.3-7.92-4.05A11.93,11.93,0,0,1,164,420.53Z"/><path class="cls-5" d="M179.82,432l-2.15,23.35,20.16-14.17c-0.22-.1-0.45-0.19-0.66-0.3Z"/><polygon class="cls-6" points="177.64 430.87 179.82 431.99 180 430 177.64 430.87"/><path class="cls-6" d="M172.33,410L164,420.53a11.93,11.93,0,0,0,5.67,6.29l7.92,4.05L180,430l-0.18,2,17.35,8.88c0.22,0.11.44,0.2,0.66,0.3l8.77-6.16Z"/><path class="cls-6" d="M140,220a10,10,0,0,0,0,20h12c-1.88-5.87-4.43-13.69-6.61-20H140Z"/><path class="cls-6" d="M213.25,220H188.18l-2.75,20h27.82A10,10,0,0,0,213.25,220Z"/><path class="cls-6" d="M170.74,220a57.41,57.41,0,0,1,1.76,9.25c0.25,5.5-8.25-.25-8.25-0.25l-3.12-9h-7.2l5.67,20H174l3.43-20h-6.65Z"/><path class="cls-2" d="M145.37,220c2.19,6.31,4.74,14.13,6.61,20h7.62l-5.67-20h-8.56Z"/><polygon class="cls-2" points="177.39 220 173.96 240 185.43 240 188.18 220 177.39 220"/><path class="cls-2" d="M164.25,229s8.5,5.75,8.25.25a57.41,57.41,0,0,0-1.76-9.25h-9.61Z"/><path class="cls-1" d="M134.42,131.48l5.75-3.33-0.41-1.37-6.17,1.74Z"/><path class="cls-6" d="M113.87,198c-1.13-2.67,16.13-20.33,14.46-18.67s-14.46,9.54-14.46,9.54c-0.08-3,17.24-14.83,30.12-23.2L137.94,144c-15.14,10-35.77,26.37-46.61,35.14,17.23,27.44,37,57.39,40.19,55.68L159.21,220l-10.27-36.68C136.58,187.61,113.87,198,113.87,198Z"/><path class="cls-2" d="M134.42,131.48c-13.71,8-37.25,21.94-52.58,32.45,3,4.83,6.19,10,9.49,15.26,10.83-8.78,31.46-25.15,46.61-35.14Z"/><path class="cls-2" d="M113.87,188.88s12.79-7.87,14.46-9.54-15.59,16-14.46,18.67c0,0,22.71-10.39,35.06-14.68L144,165.68C131.12,174,113.79,185.86,113.87,188.88Z"/><path class="cls-2" d="M90,137.33c0.23,2.81,27.4-4.32,43.59-8.82l-3.63-13C117.66,121.16,89.74,134.21,90,137.33Z"/><path class="cls-6" d="M133.59,112.52a7.37,7.37,0,0,0,2.18-14.4,39,39,0,1,0-76-12.45c0,12.53,1.69,44.13,4.81,49.95,0,0,7.36,12.34,17.21,28.31,15.32-10.51,38.87-24.47,52.58-32.45l-0.83-3C117.4,133,90.23,140.14,90,137.33c-0.26-3.12,27.66-16.17,40-21.77l-1.34-4.77,0.1-.12A7.33,7.33,0,0,0,133.59,112.52Z"/><polygon class="cls-6" points="201.23 368.28 223.04 374.89 223.98 369.64 202.37 361.95 201.23 368.28"/><path class="cls-6" d="M199.09,380.25L194.7,378c-5.88-3-30.2,32.66-30.2,32.66a12,12,0,0,0-.46,9.86L172.33,410l34.26,25-8.77,6.16a12,12,0,0,0,15.48-5.51s14.71-40.59,8.83-43.6c0,0-1.56-3.47-1.34-4.7l0.77-4.29-21.8-6.62Z"/><path class="cls-6" d="M250,358.33V320.67l-9.33-17.33,4.67-15.79-20.7,2.56L242,263H228.43l12.68-35a147.12,147.12,0,0,1-22.35-8.92c-0.75.86-1.26,1.42-1.26,1.42l-0.37-2.11c-1-.52-2-1.39-2.91-1.39h0a250.79,250.79,0,0,0-14.34,25.37c7,6.67,18.46,16.57,28,20.8,0,0-11.71-5-15.6-7,4.11,2.71,17.34,11.82,21.18,13.35,4.7,1.88-12-2.58-17-5.52s13.79,9.51,13.79,9.51-25.36-9.56-36.92-17.06a181.4,181.4,0,0,0-7.57,21.57c6.39,6.38,16.84,15.86,24.84,18.44,0,0-9.61-2.8-12.86-4.2,3.54,2.23,15,9.89,18.15,10.7,3.84,1-9.41.25-13.66-2s12,8,12,8-22.9-5.18-32.06-11.77C180.56,314.69,184.61,330.7,200,340a41.68,41.68,0,0,0,5.6,3.9l-1.8,10c6.07,1.83,15.13,4.6,21.8,6.65l1.32-7.38A146.34,146.34,0,0,0,250,358.33Z"/><path class="cls-2" d="M202.37,362L224,369.65l1.63-9.07c-6.67-2-15.73-4.82-21.8-6.65Z"/><polygon class="cls-2" points="199.77 376.45 221.57 383.07 223.04 374.89 201.23 368.28 199.77 376.45"/><path class="cls-1" d="M303.06,291.75a4,4,0,0,1-1,.55C302.85,291.8,303.25,291.57,303.06,291.75Z"/><path class="cls-2" d="M258.8,228l12.59,35H257.81l17.37,27.11-20.7-2.56,4.76,15.79L250,320.67V229C252,229.59,254.86,229.11,258.8,228Z"/><path class="cls-2" d="M297.56,301c-4.25,2.25-17.5,3-13.66,2,3.14-.82,14.6-8.48,18.15-10.7a4,4,0,0,0,1-.55c0.18-.18-0.22,0-1,0.55-3.26,1.41-12.86,4.2-12.86,4.2,8-2.59,18.45-12.06,24.84-18.44a110.25,110.25,0,0,1,3.64,19.18C308.5,303.82,285.6,309,285.6,309S301.81,298.75,297.56,301Z"/><path class="cls-2" d="M288.7,255.47a6.82,6.82,0,0,1-1.19.71C288.43,255.56,288.9,255.27,288.7,255.47Z"/><path class="cls-2" d="M283.32,264c-5,2.94-21.7,7.39-17,5.51,3.84-1.54,17.07-10.65,21.18-13.37a6.82,6.82,0,0,0,1.19-.71c0.2-.19-0.27.1-1.19,0.71-3.89,2-15.6,6.94-15.6,6.94,9.57-4.23,21-14.19,28-20.86,2.18,4.4,4.4,9.2,6.51,14.23-11.56,7.5-36.92,17.06-36.92,17.06S288.33,261.09,283.32,264Z"/><path class="cls-3" d="M275.59,209.22a1.39,1.39,0,0,0-.41.78c-0.15,1.52,2.5,5.05,4.62,7.6l-19.9,2.9L250,225.67v-9.79l0.06,0C259.89,212.78,268.76,210.64,275.59,209.22Z"/><path class="cls-3" d="M279.8,217.6c0.45,0.55.88,1.05,1.25,1.48A147.12,147.12,0,0,1,258.71,228l-0.63-2L250,229v-3.33l9.91-5.17Z"/><path class="cls-3" d="M258.71,228c-3.94,1.1-7.18,1.58-8.89,1l8.17-3Z"/><path class="cls-3" d="M250,80v90s17-16.12,19.91-19.12,6.8,4,6.8,4C270.08,159.25,250,191,250,191v23.85a292.36,292.36,0,0,1,29.24-7.36c2.18-.42,4-0.75,5.47-1,2.49-.42,3.88-0.61,3.93-0.61a0.49,0.49,0,0,1,.55.43,0.51,0.51,0,0,1-.44.56c-0.05,0-1.59.21-4.26,0.66l-1.61,9.62,2.72-.39a36,36,0,0,0,6-3.76c4.17-3.83,15.83-7.67,23.83-8.67s6.17-9.5,4.33-11.08-7.67-3.92-15.83-6.92S289,160,289,160l18.6-28a10,10,0,1,0-4.73-4c-6,3.68-23,20.45-23,20.45-4.67-4-25.91-12-25.91-12Zm29.81,96.75s2,13.25,2.5,15.5-22.5,0-22.5,0c1.15-2.55,3.71-5.1,6.62-7.37,1.57-1.22,3.24-2.37,4.85-3.39A87.24,87.24,0,0,1,279.81,176.75Z"/><path class="cls-3" d="M282.88,217.16l2.72-.39q-1.36.73-2.91,1.51Z"/><path class="cls-4" d="M282.31,192.25c0.5,2.25-22.5,0-22.5,0,1.15-2.55,3.71-5.1,6.62-7.37,0.33,2.32,1.28,4,2.41,4,1.4,0,2.54-2.58,2.54-5.77a12.71,12.71,0,0,0-.1-1.61,87.24,87.24,0,0,1,8.53-4.74S281.81,190,282.31,192.25Z"/><path class="cls-2" d="M268.85,188.88c-1.13,0-2.08-1.68-2.41-4,1.57-1.22,3.24-2.37,4.85-3.39a12.71,12.71,0,0,1,.1,1.61C271.39,186.29,270.25,188.88,268.85,188.88Z"/><path class="cls-2" d="M269.91,150.88c2.88-3,6.8,4,6.8,4C270.08,159.25,250,191,250,191V170S267,153.88,269.91,150.88Z"/><path class="cls-4" d="M282.32,220.5s-0.52-.56-1.26-1.42l1.64-.81Z"/><path class="cls-4" d="M275.19,210a1.39,1.39,0,0,1,.41-0.78c3.64-.76,6.67-1.31,8.9-1.69l-1.61,9.62-3.08.45C277.69,215.05,275,211.52,275.19,210Z"/><path class="cls-4" d="M281.06,219.08c-0.37-.43-0.8-0.93-1.25-1.48l3.08-.45-0.19,1.11Z"/><path class="cls-2" d="M284.67,206.49c2.49-.42,3.91-0.61,4-0.61a0.5,0.5,0,1,1,.13,1c-0.05,0-1.59.21-4.26,0.66-2.23.38-5.26,0.93-8.9,1.69-6.83,1.42-15.71,3.56-25.54,6.63l-0.06,0v-1a292.36,292.36,0,0,1,29.24-7.36C281.42,207.07,283.19,206.74,284.67,206.49Z"/><path class="cls-2" d="M303.06,291.75a4,4,0,0,1-1,.55C302.85,291.8,303.25,291.57,303.06,291.75Z"/><path class="cls-5" d="M335.77,420.53l17,21.65-30.64-11.3,7.92-4.05A11.93,11.93,0,0,0,335.77,420.53Z"/><path class="cls-5" d="M320,432l2.15,23.35L302,441.16c0.22-.1.45-0.19,0.66-0.3Z"/><polygon class="cls-6" points="322.18 430.87 320 431.99 319.81 430 322.18 430.87"/><path class="cls-6" d="M327.48,410l8.29,10.53a11.93,11.93,0,0,1-5.67,6.29l-7.92,4.05-2.36-.87,0.18,2-17.35,8.88c-0.22.11-.44,0.2-0.66,0.3L293.22,435Z"/><path class="cls-6" d="M359.81,220a10,10,0,1,1,0,20h-12c1.88-5.87,4.43-13.69,6.61-20h5.37Z"/><path class="cls-6" d="M286.56,220h25.07l2.75,20H286.56A10,10,0,0,1,286.56,220Z"/><path class="cls-6" d="M329.07,220a65.53,65.53,0,0,0-1.76,9.25c-0.25,5.5,8.25-.25,8.25-0.25l3.13-9h7.2l-5.67,20H325.85l-3.43-20h6.65Z"/><path class="cls-2" d="M354.45,220c-2.19,6.31-4.74,14.13-6.61,20h-7.62l5.67-20h8.56Z"/><polygon class="cls-2" points="322.43 220 325.85 240 314.38 240 311.63 220 322.43 220"/><path class="cls-2" d="M335.56,229s-8.5,5.75-8.25.25a65.53,65.53,0,0,1,1.76-9.25h9.61Z"/><path class="cls-1" d="M365.4,131.48l-5.75-3.33,0.41-1.37,6.17,1.74Z"/><path class="cls-6" d="M385.94,198c1.13-2.67-16.13-20.33-14.46-18.67s14.46,9.54,14.46,9.54c0.08-3-17.24-14.83-30.12-23.2L361.88,144c15.14,10,35.77,26.37,46.61,35.14-17.23,27.44-37,57.39-40.19,55.68L340.6,220l10.27-36.68C363.23,187.61,385.94,198,385.94,198Z"/><path class="cls-2" d="M365.4,131.48c13.71,8,37.25,21.94,52.58,32.45-3,4.83-6.19,10-9.49,15.26C397.65,170.41,377,154,361.88,144Z"/><path class="cls-2" d="M385.94,188.88s-12.79-7.87-14.46-9.54,15.59,16,14.46,18.67c0,0-22.71-10.39-35.06-14.68l4.94-17.64C368.7,174,386,185.86,385.94,188.88Z"/><path class="cls-2" d="M409.81,137.33c-0.23,2.81-27.4-4.32-43.59-8.82l3.63-13C382.16,121.16,410.07,134.21,409.81,137.33Z"/><path class="cls-6" d="M366.22,112.52A7.37,7.37,0,0,1,364,98.12a39,39,0,1,1,76-12.45c0,12.53-1.69,44.13-4.81,49.95,0,0-7.36,12.34-17.21,28.31-15.32-10.51-38.87-24.47-52.58-32.45l0.83-3c16.19,4.5,43.35,11.62,43.59,8.82,0.26-3.12-27.66-16.17-40-21.77l1.34-4.77-0.1-.12A7.33,7.33,0,0,1,366.22,112.52Z"/><polygon class="cls-6" points="298.58 368.28 276.77 374.89 275.83 369.64 297.45 361.95 298.58 368.28"/><path class="cls-6" d="M300.73,380.25l4.39-2.25c5.88-3,30.2,32.66,30.2,32.66a12,12,0,0,1,.46,9.86L327.48,410l-34.26,25,8.77,6.16a12,12,0,0,1-15.48-5.51s-14.71-40.59-8.83-43.6c0,0,1.56-3.47,1.34-4.7l-0.77-4.29,21.8-6.62Z"/><path class="cls-6" d="M250,358.33V320.67l9.24-17.33-4.71-15.79,20.68,2.56L257.81,263h13.57l-12.68-35a147.12,147.12,0,0,0,22.35-8.92c0.75,0.86,1.26,1.42,1.26,1.42l0.37-2.11c1-.52,2-1.39,2.91-1.39h0a250.79,250.79,0,0,1,14.34,25.37c-7,6.67-18.46,16.57-28,20.8,0,0,11.71-5,15.6-7-4.11,2.71-17.34,11.82-21.18,13.35-4.7,1.88,12-2.58,17-5.52s-13.79,9.51-13.79,9.51,25.36-9.56,36.92-17.06A181.4,181.4,0,0,1,314,278.06c-6.39,6.38-16.84,15.86-24.84,18.44,0,0,9.61-2.8,12.86-4.2-3.54,2.23-15,9.89-18.15,10.7-3.84,1,9.41.25,13.66-2s-12,8-12,8,22.9-5.18,32.06-11.77c1.59,17.46-2.46,33.47-17.85,42.77a41.68,41.68,0,0,1-5.6,3.9l1.8,10c-6.07,1.83-15.13,4.6-21.8,6.65L273,353.2A144.56,144.56,0,0,1,250,358.33Z"/><path class="cls-2" d="M297.45,362l-21.61,7.69-1.63-9.07c6.67-2,15.73-4.82,21.8-6.65Z"/><polygon class="cls-2" points="300.05 376.45 278.24 383.07 276.77 374.89 298.58 368.28 300.05 376.45"/><g class="cls-7"><path class="cls-2" d="M303.06,291.75a4,4,0,0,1-1,.55C302.85,291.8,303.25,291.57,303.06,291.75Z"/><path class="cls-2" d="M258.8,228l12.59,35H257.81l17.37,27.11-20.7-2.56,4.76,15.79L250,320.67V229C252,229.59,254.86,229.11,258.8,228Z"/><path class="cls-2" d="M297.56,301c-4.25,2.25-17.5,3-13.66,2,3.14-.82,14.6-8.48,18.15-10.7a4,4,0,0,0,1-.55c0.18-.18-0.22,0-1,0.55-3.26,1.41-12.86,4.2-12.86,4.2,8-2.59,18.45-12.06,24.84-18.44a110.25,110.25,0,0,1,3.64,19.18C308.5,303.82,285.6,309,285.6,309S301.81,298.75,297.56,301Z"/><path class="cls-2" d="M288.7,255.47a6.82,6.82,0,0,1-1.19.71C288.43,255.56,288.9,255.27,288.7,255.47Z"/><path class="cls-2" d="M283.32,264c-5,2.94-21.7,7.39-17,5.51,3.84-1.54,17.07-10.65,21.18-13.37a6.82,6.82,0,0,0,1.19-.71c0.2-.19-0.27.1-1.19,0.71-3.89,2-15.6,6.94-15.6,6.94,9.57-4.23,21-14.19,28-20.86,2.18,4.4,4.4,9.2,6.51,14.23-11.56,7.5-36.92,17.06-36.92,17.06S288.33,261.09,283.32,264Z"/><path class="cls-2" d="M275.59,209.22a1.39,1.39,0,0,0-.41.78c-0.15,1.52,2.5,5.05,4.62,7.6l-19.9,2.9L250,225.67v-9.79l0.06,0C259.89,212.78,268.76,210.64,275.59,209.22Z"/><path class="cls-2" d="M279.8,217.6c0.45,0.55.88,1.05,1.25,1.48A147.12,147.12,0,0,1,258.71,228l-0.63-2L250,229v-3.33l9.91-5.17Z"/><path class="cls-2" d="M258.71,228c-3.94,1.1-7.18,1.58-8.89,1l8.17-3Z"/><path class="cls-2" d="M250,80v90s17-16.12,19.91-19.12,6.8,4,6.8,4C270.08,159.25,250,191,250,191v23.85a292.36,292.36,0,0,1,29.24-7.36c2.18-.42,4-0.75,5.47-1,2.49-.42,3.88-0.61,3.93-0.61a0.49,0.49,0,0,1,.55.43,0.51,0.51,0,0,1-.44.56c-0.05,0-1.59.21-4.26,0.66l-1.61,9.62,2.72-.39a36,36,0,0,0,6-3.76c4.17-3.83,15.83-7.67,23.83-8.67s6.17-9.5,4.33-11.08-7.67-3.92-15.83-6.92S289,160,289,160l18.6-28a10,10,0,1,0-4.73-4c-6,3.68-23,20.45-23,20.45-4.67-4-25.91-12-25.91-12Zm29.81,96.75s2,13.25,2.5,15.5-22.5,0-22.5,0c1.15-2.55,3.71-5.1,6.62-7.37,1.57-1.22,3.24-2.37,4.85-3.39A87.24,87.24,0,0,1,279.81,176.75Z"/><path class="cls-2" d="M282.88,217.16l2.72-.39q-1.36.73-2.91,1.51Z"/><path class="cls-2" d="M282.31,192.25c0.5,2.25-22.5,0-22.5,0,1.15-2.55,3.71-5.1,6.62-7.37,0.33,2.32,1.28,4,2.41,4,1.4,0,2.54-2.58,2.54-5.77a12.71,12.71,0,0,0-.1-1.61,87.24,87.24,0,0,1,8.53-4.74S281.81,190,282.31,192.25Z"/><path class="cls-2" d="M268.85,188.88c-1.13,0-2.08-1.68-2.41-4,1.57-1.22,3.24-2.37,4.85-3.39a12.71,12.71,0,0,1,.1,1.61C271.39,186.29,270.25,188.88,268.85,188.88Z"/><path class="cls-2" d="M269.91,150.88c2.88-3,6.8,4,6.8,4C270.08,159.25,250,191,250,191V170S267,153.88,269.91,150.88Z"/><path class="cls-2" d="M282.32,220.5s-0.52-.56-1.26-1.42l1.64-.81Z"/><path class="cls-2" d="M275.19,210a1.39,1.39,0,0,1,.41-0.78c3.64-.76,6.67-1.31,8.9-1.69l-1.61,9.62-3.08.45C277.69,215.05,275,211.52,275.19,210Z"/><path class="cls-2" d="M281.06,219.08c-0.37-.43-0.8-0.93-1.25-1.48l3.08-.45-0.19,1.11Z"/><path class="cls-2" d="M284.67,206.49c2.49-.42,3.91-0.61,4-0.61a0.5,0.5,0,1,1,.13,1c-0.05,0-1.59.21-4.26,0.66-2.23.38-5.26,0.93-8.9,1.69-6.83,1.42-15.71,3.56-25.54,6.63l-0.06,0v-1a292.36,292.36,0,0,1,29.24-7.36C281.42,207.07,283.19,206.74,284.67,206.49Z"/><path class="cls-2" d="M303.06,291.75a4,4,0,0,1-1,.55C302.85,291.8,303.25,291.57,303.06,291.75Z"/><path class="cls-2" d="M335.77,420.53l17,21.65-30.64-11.3,7.92-4.05A11.93,11.93,0,0,0,335.77,420.53Z"/><path class="cls-2" d="M320,432l2.15,23.35L302,441.16c0.22-.1.45-0.19,0.66-0.3Z"/><polygon class="cls-2" points="322.18 430.87 320 431.99 319.81 430 322.18 430.87"/><path class="cls-2" d="M327.48,410l8.29,10.53a11.93,11.93,0,0,1-5.67,6.29l-7.92,4.05-2.36-.87,0.18,2-17.35,8.88c-0.22.11-.44,0.2-0.66,0.3L293.22,435Z"/><path class="cls-2" d="M359.81,220a10,10,0,1,1,0,20h-12c1.88-5.87,4.43-13.69,6.61-20h5.37Z"/><path class="cls-2" d="M286.56,220h25.07l2.75,20H286.56A10,10,0,0,1,286.56,220Z"/><path class="cls-2" d="M329.07,220a65.53,65.53,0,0,0-1.76,9.25c-0.25,5.5,8.25-.25,8.25-0.25l3.13-9h7.2l-5.67,20H325.85l-3.43-20h6.65Z"/><path class="cls-2" d="M354.45,220c-2.19,6.31-4.74,14.13-6.61,20h-7.62l5.67-20h8.56Z"/><polygon class="cls-2" points="322.43 220 325.85 240 314.38 240 311.63 220 322.43 220"/><path class="cls-2" d="M335.56,229s-8.5,5.75-8.25.25a65.53,65.53,0,0,1,1.76-9.25h9.61Z"/><path class="cls-2" d="M365.4,131.48l-5.75-3.33,0.41-1.37,6.17,1.74Z"/><path class="cls-2" d="M385.94,198c1.13-2.67-16.13-20.33-14.46-18.67s14.46,9.54,14.46,9.54c0.08-3-17.24-14.83-30.12-23.2L361.88,144c15.14,10,35.77,26.37,46.61,35.14-17.23,27.44-37,57.39-40.19,55.68L340.6,220l10.27-36.68C363.23,187.61,385.94,198,385.94,198Z"/><path class="cls-2" d="M365.4,131.48c13.71,8,37.25,21.94,52.58,32.45-3,4.83-6.19,10-9.49,15.26C397.65,170.41,377,154,361.88,144Z"/><path class="cls-2" d="M385.94,188.88s-12.79-7.87-14.46-9.54,15.59,16,14.46,18.67c0,0-22.71-10.39-35.06-14.68l4.94-17.64C368.7,174,386,185.86,385.94,188.88Z"/><path class="cls-2" d="M409.81,137.33c-0.23,2.81-27.4-4.32-43.59-8.82l3.63-13C382.16,121.16,410.07,134.21,409.81,137.33Z"/><path class="cls-2" d="M366.22,112.52A7.37,7.37,0,0,1,364,98.12a39,39,0,1,1,76-12.45c0,12.53-1.69,44.13-4.81,49.95,0,0-7.36,12.34-17.21,28.31-15.32-10.51-38.87-24.47-52.58-32.45l0.83-3c16.19,4.5,43.35,11.62,43.59,8.82,0.26-3.12-27.66-16.17-40-21.77l1.34-4.77-0.1-.12A7.33,7.33,0,0,1,366.22,112.52Z"/><polygon class="cls-2" points="298.58 368.28 276.77 374.89 275.83 369.64 297.45 361.95 298.58 368.28"/><path class="cls-2" d="M300.73,380.25l4.39-2.25c5.88-3,30.2,32.66,30.2,32.66a12,12,0,0,1,.46,9.86L327.48,410l-34.26,25,8.77,6.16a12,12,0,0,1-15.48-5.51s-14.71-40.59-8.83-43.6c0,0,1.56-3.47,1.34-4.7l-0.77-4.29,21.8-6.62Z"/><path class="cls-2" d="M250,358.33V320.67l9.24-17.33-4.71-15.79,20.68,2.56L257.81,263h13.57l-12.68-35a147.12,147.12,0,0,0,22.35-8.92c0.75,0.86,1.26,1.42,1.26,1.42l0.37-2.11c1-.52,2-1.39,2.91-1.39h0a250.79,250.79,0,0,1,14.34,25.37c-7,6.67-18.46,16.57-28,20.8,0,0,11.71-5,15.6-7-4.11,2.71-17.34,11.82-21.18,13.35-4.7,1.88,12-2.58,17-5.52s-13.79,9.51-13.79,9.51,25.36-9.56,36.92-17.06A181.4,181.4,0,0,1,314,278.06c-6.39,6.38-16.84,15.86-24.84,18.44,0,0,9.61-2.8,12.86-4.2-3.54,2.23-15,9.89-18.15,10.7-3.84,1,9.41.25,13.66-2s-12,8-12,8,22.9-5.18,32.06-11.77c1.59,17.46-2.46,33.47-17.85,42.77a41.68,41.68,0,0,1-5.6,3.9l1.8,10c-6.07,1.83-15.13,4.6-21.8,6.65L273,353.2A144.56,144.56,0,0,1,250,358.33Z"/><path class="cls-2" d="M297.45,362l-21.61,7.69-1.63-9.07c6.67-2,15.73-4.82,21.8-6.65Z"/><polygon class="cls-2" points="300.05 376.45 278.24 383.07 276.77 374.89 298.58 368.28 300.05 376.45"/></g><path class="cls-8" d="M150.63,465.94V465h3.75v11.25h3.75v1.88H146.88v-1.87h3.75v-7.5h-1.87v-1.87h1.88v-0.94Z"/><path class="cls-8" d="M161.88,465.94V465h9.38v1.88h1.88v3.75h-1.87v1.88h-1.87v1.88h-3.75v1.88h7.5v1.88H160v-3.75h1.88V472.5h1.88v-1.87h3.75v-1.87h1.88v-1.87h-5.62v1.88H160v-1.87h1.88v-0.94Z"/><path class="cls-8" d="M175,467.81V465h11.25v1.88h-7.5v1.88h7.5v1.88h1.88v5.63h-1.87v1.88h-9.37v-1.87H175v-1.87h3.75v1.88h5.63v-5.62H175v-2.81Z"/><path class="cls-8" d="M205,471.56V465h13.13v1.88h-9.37v3.75h7.5v1.88h-7.5v3.75h9.38v1.88H205v-6.56Z"/><path class="cls-8" d="M221.88,471.56V465h3.75v11.25h7.5v1.88H221.88v-6.56Z"/><path class="cls-8" d="M235,471.56V465h13.13v1.88h-9.37v3.75h7.5v1.88h-7.5v3.75h9.38v1.88H235v-6.56Z"/><path class="cls-8" d="M253.75,465.94V465h7.5v1.88h1.88v1.88h-3.75v-1.87h-3.75v1.88h-1.87v5.63h1.88v1.88h3.75v-1.87h3.75v1.88h-1.87v1.88h-7.5v-1.87h-1.87v-1.87H250v-5.62h1.88v-1.87h1.88v-0.94Z"/><path class="cls-8" d="M266.88,465.94V465h11.25v1.88h-3.75v11.25h-3.75V466.88h-3.75v-0.94Z"/><path class="cls-8" d="M283.75,465.94V465h5.63v1.88h1.88v1.88h1.88v9.38h-3.75v-3.75h-5.62v3.75H280v-9.37h1.88v-1.87h1.88v-0.94Zm3.75,1.88v-0.94h-1.87v1.88h-1.87v3.75h5.63v-3.75H287.5v-0.94Z"/><path class="cls-8" d="M295,471.56V465h11.25v1.88h1.88v3.75h-1.87v1.88h1.88v3.75h-1.87v1.88H295v-6.56Zm9.38-2.81v-1.87h-5.62v3.75h5.63v-1.87Zm0,5.63V472.5h-5.62v3.75h5.63v-1.87Z"/><path class="cls-8" d="M310,470.63V465h3.75v11.25h5.63V465h3.75v11.25h-1.87v1.88h-9.37v-1.87H310v-5.62Z"/><path class="cls-8" d="M325,465.94V465h13.13v3.75h-1.87v1.88h-1.87v1.88H332.5v1.88h-1.87v1.88h7.5v1.88H325v-3.75h1.88V472.5h1.88v-1.87h1.88v-1.87h1.88v-1.87H325v-0.94Z"/><path class="cls-8" d="M340,465.94V465h13.13v3.75h-1.87v1.88h-1.87v1.88H347.5v1.88h-1.87v1.88h7.5v1.88H340v-3.75h1.88V472.5h1.88v-1.87h1.88v-1.87h1.88v-1.87H340v-0.94Z"/></svg>