<?xml version="1.0" ?><svg id="pkflt" viewBox="0 0 500 500" xmlns="http://www.w3.org/2000/svg"><defs><style>.cls-1{fill:#333;}.cls-2{fill:#efc100;}.cls-3{fill:#fde53e;}.cls-4{fill:#fc3e06;}.cls-5{fill:#fff;}.cls-6{fill:#39b54a;}.cls-7{fill:#fdcd06;}.cls-8{fill:#edc107;}.cls-9{fill:#ed2e03;}.cls-10{fill:#ccc;}.cls-11{opacity:0.1;}.cls-12{fill:#1a1a1a;}</style></defs><title/><path class="cls-1" d="M185,377v18.55c5-3.25,26,1.25,29,0V375a30.94,30.94,0,0,1-16.34,4.79A30.49,30.49,0,0,1,185,377Z"/><path class="cls-2" d="M197.19,352h5c0.11,0,.22,0,0.33.05a116.66,116.66,0,0,1-6.61-41.39c0.09-3.37.34-6.63,0.71-9.82-18.29.77-33,18.14-33,39.47C163.56,357,173,371.21,185,377V364.07A12.26,12.26,0,0,1,197.19,352Z"/><path class="cls-2" d="M214,372.28V375a4.83,4.83,0,0,0,1.68-1.14A6.05,6.05,0,0,0,214,372.28Z"/><path class="cls-2" d="M206.43,362.38c-1.52-3.48-2.83-6.95-4-10.33-0.11,0-.18-0.05-0.29-0.05h-5A12.26,12.26,0,0,0,185,364.07V377a30.49,30.49,0,0,0,12.66,2.8A30.94,30.94,0,0,0,214,375v-2.75A72.88,72.88,0,0,1,206.43,362.38Z"/><path class="cls-3" d="M235.14,97.72h0c0.66,0.32,1.29.68,1.92,1.05,0,0-7.06-6.45-5.9-7.79S231,87,230,82.32s-4.33-2.33-6.62-5.82-1-5.18,0-11.18-8.84-10.81-8.84-10.81c-2.47-1.21-3.56-.15-2.41,2.35l1.18,2.57c1.14,2.5,2.08,4.55.16,6.88s0.58,8,0,13-2.75,5-7.08,8-2.25,13.35-2.25,13.35A29.66,29.66,0,0,1,235.14,97.72Z"/><path class="cls-4" d="M244.58,105.09a29.81,29.81,0,0,0-7.52-6.32c-0.63-.37-1.26-0.73-1.92-1.05h0a29.67,29.67,0,0,0-42.81,26.6,29.91,29.91,0,0,0,.17,3.16,20.72,20.72,0,0,1-6.17,7.53C180,139.34,200,194.87,203,196.2c2.56,1.14,9.3,9.88,11.23,12.42-2.09-4.76.52-14.55,0.52-14.55,24.5-1.5,35.25-21.75,35.25-21.75v-63Zm-45.25,50.23c25.33,8,42.67,0,42.67,0C222,168.32,199.33,155.32,199.33,155.32Zm30,30.17c-16.15-1-20.4-15.42-20.4-15.42s14.67,2.58,35.17.83C244.08,170.9,245.46,186.49,229.31,185.49Z"/><path class="cls-5" d="M208.92,170.07s4.25,14.42,20.4,15.42,14.77-14.58,14.77-14.58C223.58,172.65,208.92,170.07,208.92,170.07Zm20.4,10.44c-1.79,0-3.25-1.82-3.25-4.06s1.46-4.06,3.25-4.06,3.25,1.82,3.25,4.06S231.11,180.51,229.31,180.51Z"/><path class="cls-6" d="M229.31,172.38c-1.79,0-3.25,1.82-3.25,4.06s1.46,4.06,3.25,4.06,3.25-1.82,3.25-4.06S231.11,172.38,229.31,172.38Zm0.69,3.85a1.17,1.17,0,1,1,1.17-1.17A1.17,1.17,0,0,1,230,176.24Z"/><circle class="cls-5" cx="230" cy="175.07" r="1.17"/><path class="cls-7" d="M219.67,240a28,28,0,0,0-33.24-27.5l0,0a28.3,28.3,0,0,0-21.95,20.69h0a28,28,0,0,0,43.45,29.55,127.5,127.5,0,0,1,11.45-18.91A28.23,28.23,0,0,0,219.67,240Z"/><path class="cls-4" d="M231.33,232l-2.33.28a100.16,100.16,0,0,0-9.6,11.48,128.13,128.13,0,0,0-11.45,18.95,117,117,0,0,0-11.38,38.12l1.26,0a29.91,29.91,0,0,1,9.59,1.59c-0.88-2.33-3.56-5,.08-4.09,2.67,0.7,2.73,2.35,2.68,5.17a35.28,35.28,0,0,1,14.94,13.06c0.67-.59,1.39-1.24,2.17-2,5-4.75-1.54-5.5-2.79-8.5s1.25-11.75,1.25-11.75,1,4,1.54,8,5.46,7.5,4.42,9.5-0.21,5.25,0,6,2.79,3,1.79,5.25,1,6.25,2.75,9.25,4-3.75,5.5-9-1.76-5-3.11-6.75,3.59-5.25,6.34-6.5,1.72-4.25,1.72-9.5c0-2.55,1.63-2.91,3.31-2.62V242.32L240.55,232h-9.22Z"/><path class="cls-4" d="M198.88,313.73c0.75,2.92,5.13,8.83,7.38,8.33s0.75-4.5-1.25-6.25-3-10.5-3-10.5a23.27,23.27,0,0,0,3.64,5.25c2.64,3,.61-4,1.86-6.25a2.3,2.3,0,0,0-.08-1.91,29.9,29.9,0,0,0-9.59-1.59c-0.42,0-.84,0-1.26,0-0.37,3.19-.62,6.46-0.71,9.83C197.25,311.46,198.55,312.49,198.88,313.73Z"/><path class="cls-4" d="M211,312.32c2.25,8.5,1.5,2.75,4.5,7s-3,3-5.5,10.25,14,1.25,14,1.25-4.5-6-4.5-8c0-1.69,2-3,5.62-6.27a35.27,35.27,0,0,0-14.94-13.06A29.27,29.27,0,0,0,211,312.32Z"/><polygon class="cls-1" points="240.11 231.69 229.58 220.63 229 220.32 229 232 231.33 232 240.55 232 240.11 231.69"/><path class="cls-8" d="M227.29,218.28l2.29,2.43,10.53,11.14,0.44,0.47,9.45,10V231.07s-12.54-6.71-22.71-12.79h0Z"/><path class="cls-7" d="M214.75,194.07s-2.61,9.79-.52,14.55a5.37,5.37,0,0,0,.52.95c1.13,1.6,6.4,5,12.54,8.71,10.17,6.08,22.71,12.79,22.71,12.79V172.32S239.25,192.57,214.75,194.07Z"/><path class="cls-9" d="M242,155.32s-17.33,8-42.67,0C199.33,155.32,222,168.32,242,155.32Z"/><path class="cls-7" d="M207.5,298.32c-3.64-1-1,1.76-.08,4.09q1.41,0.47,2.76,1.08C210.23,300.67,210.17,299,207.5,298.32Z"/><path class="cls-7" d="M246.69,300.57c0,5.25,1,8.25-1.72,9.5s-7.69,4.75-6.34,6.5,4.61,1.5,3.11,6.75-3.75,12-5.5,9-3.75-7-2.75-9.25-1.58-4.5-1.79-5.25-1-4,0-6-3.88-5.5-4.42-9.5-1.54-8-1.54-8-2.5,8.75-1.25,11.75,7.83,3.75,2.79,8.5c-0.78.74-1.5,1.39-2.17,2A43.47,43.47,0,0,1,232,340.32c0,14.18-6.47,26.61-16.18,33.58,6.65,6.17,17.44,13.5,34.18,18.42V298C248.32,297.66,246.69,298,246.69,300.57Z"/><path class="cls-7" d="M232,340.32a43.47,43.47,0,0,0-6.88-23.77c-3.65,3.24-5.62,4.58-5.62,6.27,0,2,4.5,8,4.5,8s-16.5,6-14-1.25,8.5-6,5.5-10.25-2.25,1.5-4.5-7a29.27,29.27,0,0,1-.82-8.83q-1.35-.61-2.76-1.08a2.3,2.3,0,0,1,.08,1.91c-1.25,2.25.78,9.25-1.86,6.25a23.27,23.27,0,0,1-3.64-5.25s1,8.75,3,10.5,3.5,5.75,1.25,6.25-6.62-5.42-7.37-8.33c-0.32-1.25-1.62-2.28-3-3.05a116.57,116.57,0,0,0,6.53,41.4,12,12,0,0,1,11.6,12v8.21a6.45,6.45,0,0,1,1.75,1.61C225.46,366.93,232,354.5,232,340.32Z"/><path class="cls-7" d="M214,372.28v-8.21a12,12,0,0,0-11.6-12c1.17,3.38,2.47,6.81,4,10.3A75.47,75.47,0,0,0,214,372.28Z"/><path class="cls-10" d="M144.56,166.14L161.25,154H137.42A21.6,21.6,0,0,1,144.56,166.14Z"/><path class="cls-10" d="M101.34,165.44l-35.59.89L100.9,174a22.27,22.27,0,0,1-.23-3.2A21.82,21.82,0,0,1,101.34,165.44Z"/><path class="cls-10" d="M130,150l-10-41.7-2.58,41.16A22.13,22.13,0,0,1,130,150Z"/><path class="cls-10" d="M111.06,152.19L92,125.38l11.36,34.93A22.24,22.24,0,0,1,111.06,152.19Z"/><path class="cls-10" d="M101.5,176.81l-38,15.51,45.43-4.3A22,22,0,0,1,101.5,176.81Z"/><path class="cls-4" d="M186.23,212.52l0.19,0L145,170.85v0a21.68,21.68,0,0,0-.44-4.36,22,22,0,0,0-7.14-12.14,22.31,22.31,0,0,0-14.64-5.5,22.2,22.2,0,0,0-19.42,11.49,21.82,21.82,0,0,0-2.69,10.51,22.27,22.27,0,0,0,.23,3.2,22,22,0,0,0,21.71,18.8c0.5,0,1,0,1.46-.06L164.5,233.2A28,28,0,0,1,186.23,212.52Z"/><path class="cls-4" d="M186.46,212.52l0,0-0.19,0A28,28,0,0,0,164.5,233.2h0A28.3,28.3,0,0,1,186.46,212.52Z"/><path class="cls-4" d="M202.14,407h-5a11.79,11.79,0,0,1-12-11.72C180,398.53,185,411.68,170,415.18a59.29,59.29,0,0,0-1.54,10.63L172,419l6.67,11.68-4.45,2.79a98.2,98.2,0,0,0,12.63,0L191.67,419l9.67,8.67L196,432.92c4.47-.31,8.13-0.6,9.53-0.6,4.5,0,17.43-17,17.43-17s-5.64-21.28-8.79-20A11.79,11.79,0,0,1,202.14,407Z"/><path class="cls-4" d="M185.19,395.28a11.79,11.79,0,0,0,12,11.72h5a11.91,11.91,0,0,0,12-11.86C211,396.39,190.38,392,185.19,395.28Z"/><path class="cls-10" d="M168.46,425.88L160,442.32l14.21-8.88c-2-.2-3.56-0.55-4.21-1.12C168.73,431.23,168.38,428.68,168.46,425.88Z"/><path class="cls-10" d="M172,419l-3.54,6.89c-0.07,2.8.27,5.35,1.54,6.44,0.66,0.56,2.17.92,4.21,1.12l4.45-2.78Z"/><path class="cls-10" d="M182.67,446L196,432.92c-2.84.2-6,.4-9.13,0.54Z"/><path class="cls-10" d="M191.67,419l-4.83,14.48c3.12-.14,6.29-0.35,9.13-0.54l5.37-5.27Z"/><path class="cls-1" d="M315,377v18.55c-5-3.25-26,1.25-29,0V375a30.94,30.94,0,0,0,16.34,4.79A30.49,30.49,0,0,0,315,377Z"/><path class="cls-2" d="M303.31,352h-5c-0.11,0-.22,0-0.33.05a116.66,116.66,0,0,0,6.61-41.39c-0.09-3.37-.34-6.63-0.71-9.82,18.29,0.77,32.76,18.14,32.76,39.47C336.69,357,327,371.21,315,377V364.07A11.83,11.83,0,0,0,303.31,352Z"/><path class="cls-2" d="M286,372.28V375a4.83,4.83,0,0,1-1.68-1.14A6.05,6.05,0,0,1,286,372.28Z"/><path class="cls-2" d="M293.82,362.38c1.52-3.48,3-6.95,4.12-10.33,0.11,0,.31-0.05.42-0.05h5A11.83,11.83,0,0,1,315,364.07V377a30.49,30.49,0,0,1-12.66,2.8A30.94,30.94,0,0,1,286,375v-2.75A94.72,94.72,0,0,0,293.82,362.38Z"/><path class="cls-3" d="M265.36,97.72h0c-0.66.32-1.29,0.68-1.92,1.05,0,0,7.06-6.45,5.9-7.79s0.17-4,1.17-8.67,4.33-2.33,6.62-5.82,1-5.18,0-11.18S286,54.51,286,54.51c2.47-1.21,3.56-.15,2.41,2.35l-1.18,2.57c-1.14,2.5-2.08,4.55-.16,6.88s-0.58,8,0,13,2.75,5,7.08,8,2.25,13.35,2.25,13.35A29.66,29.66,0,0,0,265.36,97.72Z"/><path class="cls-4" d="M250,109.32v63s11,20.25,35.5,21.75c0,0,2.73,9.79.65,14.55,1.92-2.54,8.73-11.28,11.29-12.42,3-1.33,23-56.86,16.7-61.2a20.68,20.68,0,0,1-6.15-7.53,29.53,29.53,0,0,0-11.57-26.81,29.66,29.66,0,0,0-31-3h0c-0.66.32-1.29,0.68-1.92,1.05a31,31,0,0,0-7.77,6.32Zm8.5,46s17.33,8,42.67,0C301.17,155.32,278.5,168.32,258.5,155.32Zm-2.08,15.58c20.5,1.75,35.17-.83,35.17-0.83s-4.25,14.42-20.4,15.42S256.42,170.9,256.42,170.9Z"/><path class="cls-5" d="M256.42,170.9s-1.37,15.58,14.77,14.58,20.4-15.42,20.4-15.42S276.92,172.65,256.42,170.9Zm11.52,5.54c0-2.24,1.46-4.06,3.25-4.06s3.25,1.82,3.25,4.06-1.46,4.06-3.25,4.06S267.94,178.69,267.94,176.44Z"/><path class="cls-6" d="M267.94,176.44c0,2.24,1.46,4.06,3.25,4.06s3.25-1.82,3.25-4.06-1.46-4.06-3.25-4.06S267.94,174.2,267.94,176.44Zm1.4-1.37a1.17,1.17,0,1,1,1.17,1.17A1.17,1.17,0,0,1,269.33,175.07Z"/><circle class="cls-5" cx="270.5" cy="175.07" r="1.17"/><path class="cls-7" d="M280.83,240a28,28,0,0,1,33.24-27.5l0,0A28.3,28.3,0,0,1,336,233.21h0a28,28,0,0,1-43.45,29.55,127.5,127.5,0,0,0-11.45-18.91A28.23,28.23,0,0,1,280.83,240Z"/><path class="cls-4" d="M269.17,232l2.33,0.28a100.16,100.16,0,0,1,9.6,11.48,128.13,128.13,0,0,1,11.45,18.95,117,117,0,0,1,11.38,38.12l-1.26,0a29.91,29.91,0,0,0-9.59,1.59c0.88-2.33,3.56-5-.08-4.09-2.67.7-2.73,2.35-2.68,5.17a35.28,35.28,0,0,0-14.94,13.06c-0.67-.59-1.39-1.24-2.17-2-5-4.75,1.54-5.5,2.79-8.5s-1.25-11.75-1.25-11.75-1,4-1.54,8-5.46,7.5-4.42,9.5,0.21,5.25,0,6-2.79,3-1.79,5.25-1,6.25-2.75,9.25-4-3.75-5.5-9,1.76-5,3.11-6.75-3.59-5.25-6.34-6.5-2-4.25-2-9.5c0-2.55-1.56-2.91-3.56-2.62V242.32L259.95,232h9.22Z"/><path class="cls-4" d="M301.63,313.73c-0.75,2.92-5.12,8.83-7.37,8.33s-0.75-4.5,1.25-6.25,3-10.5,3-10.5a23.27,23.27,0,0,1-3.64,5.25c-2.64,3-.61-4-1.86-6.25a2.3,2.3,0,0,1,.08-1.91,29.9,29.9,0,0,1,9.59-1.59c0.42,0,.84,0,1.26,0,0.37,3.19.62,6.46,0.71,9.83C303.25,311.46,301.95,312.49,301.63,313.73Z"/><path class="cls-4" d="M289.5,312.32c-2.25,8.5-1.5,2.75-4.5,7s3,3,5.5,10.25-14,1.25-14,1.25,4.5-6,4.5-8c0-1.69-2-3-5.62-6.27a35.27,35.27,0,0,1,14.94-13.06A29.27,29.27,0,0,1,289.5,312.32Z"/><polygon class="cls-1" points="260.39 231.69 270.67 220.63 271 220.32 271 232 269.17 232 259.95 232 260.39 231.69"/><path class="cls-8" d="M273.21,218l-2.29,2.57-10.53,11.21-0.69.51-9.7,10V231.07S262.79,224,273,218h0.25Z"/><path class="cls-7" d="M285.5,194.07s2.73,9.79.65,14.55a5.18,5.18,0,0,1-.46.95c-1.13,1.6-6.62,5-12.76,8.71C262.76,224.36,250,231.07,250,231.07V172.32S261,192.57,285.5,194.07Z"/><path class="cls-9" d="M258.5,155.32s17.33,8,42.67,0C301.17,155.32,278.5,168.32,258.5,155.32Z"/><path class="cls-7" d="M293,298.32c3.64-1,1,1.76.08,4.09q-1.41.47-2.76,1.08C290.27,300.67,290.33,299,293,298.32Z"/><path class="cls-7" d="M253.56,300.57c0,5.25-.91,8.25,1.84,9.5s7.76,4.75,6.4,6.5-4.58,1.5-3.08,6.75,3.76,12,5.51,9,3.76-7,2.76-9.25,1.58-4.5,1.79-5.25,1-4,0-6,3.88-5.5,4.42-9.5,1.54-8,1.54-8,2.5,8.75,1.25,11.75-7.83,3.75-2.79,8.5c0.78,0.74,1.5,1.39,2.17,2a43.47,43.47,0,0,0-6.88,23.77c0,14.18,6.22,26.61,15.93,33.58-6.65,6.17-17.43,13.5-34.43,18.42V298C252,297.66,253.56,298,253.56,300.57Z"/><path class="cls-7" d="M268.5,340.32a43.47,43.47,0,0,1,6.88-23.77c3.65,3.24,5.62,4.58,5.62,6.27,0,2-4.5,8-4.5,8s16.5,6,14-1.25-8.5-6-5.5-10.25,2.25,1.5,4.5-7a29.27,29.27,0,0,0,.82-8.83q1.35-.61,2.76-1.08a2.3,2.3,0,0,0-.08,1.91c1.25,2.25-.78,9.25,1.86,6.25a23.27,23.27,0,0,0,3.64-5.25s-1,8.75-3,10.5-3.5,5.75-1.25,6.25,6.63-5.42,7.38-8.33c0.32-1.25,1.62-2.28,3-3.05a117.19,117.19,0,0,1-6.78,41.4,12.18,12.18,0,0,0-11.85,12v8.21c-1,.53-0.91,1.07-1.5,1.61C274.79,366.93,268.5,354.5,268.5,340.32Z"/><path class="cls-7" d="M286,372.28v-8.21a12.18,12.18,0,0,1,11.85-12c-1.17,3.38-2.59,6.81-4.12,10.3A85.79,85.79,0,0,1,286,372.28Z"/><path class="cls-10" d="M355.94,166.14L339.25,154h23.83A21.6,21.6,0,0,0,355.94,166.14Z"/><path class="cls-10" d="M399.16,165.44l35.59,0.89L399.6,174a22.27,22.27,0,0,0,.23-3.2A21.82,21.82,0,0,0,399.16,165.44Z"/><path class="cls-10" d="M370.53,150l10-41.7,2.58,41.16A22.13,22.13,0,0,0,370.53,150Z"/><path class="cls-10" d="M389.44,152.19l19.06-26.8-11.36,34.93A22.24,22.24,0,0,0,389.44,152.19Z"/><path class="cls-10" d="M399,176.81l38,15.51L391.57,188A22,22,0,0,0,399,176.81Z"/><path class="cls-4" d="M314.27,212.52l-0.44,0L355,170.85v0a21.81,21.81,0,0,1,.69-4.36A22.18,22.18,0,0,1,363,154.32a22.68,22.68,0,0,1,7.51-4.3,22.3,22.3,0,0,1,12.6-.54,22.24,22.24,0,0,1,14.07,10.84,21.81,21.81,0,0,1,2.69,10.51,22.27,22.27,0,0,1-.23,3.2,22,22,0,0,1-21.71,18.8c-0.5,0-1,0-1.46-.06L336,233.2A28,28,0,0,0,314.27,212.52Z"/><path class="cls-4" d="M314,212.52l0,0,0.19,0A28,28,0,0,1,336,233.2h0A28.3,28.3,0,0,0,314,212.52Z"/><path class="cls-4" d="M298.36,407h5a11.79,11.79,0,0,0,12-11.72c5.19,3.25.19,16.39,15.19,19.89A59.29,59.29,0,0,1,332,425.81L328.5,419l-6.67,11.68,4.45,2.79a98.2,98.2,0,0,1-12.62,0L308.83,419l-9.67,8.67,5.37,5.27c-4.47-.31-8.13-0.6-9.53-0.6-4.5,0-17.43-17-17.43-17s5.64-21.28,8.79-20A11.79,11.79,0,0,0,298.36,407Z"/><path class="cls-4" d="M315.31,395.28a11.79,11.79,0,0,1-12,11.72h-5a11.91,11.91,0,0,1-12-11.86C289.5,396.39,310.12,392,315.31,395.28Z"/><path class="cls-10" d="M332,425.88l8.46,16.44-14.21-8.88c2-.2,3.56-0.55,4.21-1.12C331.77,431.23,332.12,428.68,332,425.88Z"/><path class="cls-10" d="M328.5,419l3.54,6.89c0.07,2.8-.27,5.35-1.54,6.44-0.66.56-2.17,0.92-4.21,1.12l-4.45-2.78Z"/><path class="cls-10" d="M317.83,446l-13.3-13.06c2.84,0.2,6,.4,9.13.54Z"/><path class="cls-10" d="M308.83,419l4.83,14.48c-3.12-.14-6.29-0.35-9.13-0.54l-5.37-5.27Z"/><g class="cls-11"><path class="cls-12" d="M315,377v18.55c-5-3.25-26,1.25-29,0V375a30.94,30.94,0,0,0,16.34,4.79A30.49,30.49,0,0,0,315,377Z"/><path class="cls-12" d="M303.31,352h-5c-0.11,0-.22,0-0.33.05a116.66,116.66,0,0,0,6.61-41.39c-0.09-3.37-.34-6.63-0.71-9.82,18.29,0.77,32.76,18.14,32.76,39.47C336.69,357,327,371.21,315,377V364.07A11.83,11.83,0,0,0,303.31,352Z"/><path class="cls-12" d="M286,372.28V375a4.83,4.83,0,0,1-1.68-1.14A6.05,6.05,0,0,1,286,372.28Z"/><path class="cls-12" d="M293.82,362.38c1.52-3.48,3-6.95,4.12-10.33,0.11,0,.31-0.05.42-0.05h5A11.83,11.83,0,0,1,315,364.07V377a30.49,30.49,0,0,1-12.66,2.8A30.94,30.94,0,0,1,286,375v-2.75A94.72,94.72,0,0,0,293.82,362.38Z"/><path class="cls-12" d="M265.36,97.72h0c-0.66.32-1.29,0.68-1.92,1.05,0,0,7.06-6.45,5.9-7.79s0.17-4,1.17-8.67,4.33-2.33,6.62-5.82,1-5.18,0-11.18S286,54.51,286,54.51c2.47-1.21,3.56-.15,2.41,2.35l-1.18,2.57c-1.14,2.5-2.08,4.55-.16,6.88s-0.58,8,0,13,2.75,5,7.08,8,2.25,13.35,2.25,13.35A29.66,29.66,0,0,0,265.36,97.72Z"/><path class="cls-12" d="M250,109.32v63s11,20.25,35.5,21.75c0,0,2.73,9.79.65,14.55,1.92-2.54,8.73-11.28,11.29-12.42,3-1.33,23-56.86,16.7-61.2a20.68,20.68,0,0,1-6.15-7.53,29.53,29.53,0,0,0-11.57-26.81,29.66,29.66,0,0,0-31-3h0c-0.66.32-1.29,0.68-1.92,1.05a31,31,0,0,0-7.77,6.32Zm8.5,46s17.33,8,42.67,0C301.17,155.32,278.5,168.32,258.5,155.32Zm-2.08,15.58c20.5,1.75,35.17-.83,35.17-0.83s-4.25,14.42-20.4,15.42S256.42,170.9,256.42,170.9Z"/><path class="cls-12" d="M256.42,170.9s-1.37,15.58,14.77,14.58,20.4-15.42,20.4-15.42S276.92,172.65,256.42,170.9Zm11.52,5.54c0-2.24,1.46-4.06,3.25-4.06s3.25,1.82,3.25,4.06-1.46,4.06-3.25,4.06S267.94,178.69,267.94,176.44Z"/><path class="cls-12" d="M267.94,176.44c0,2.24,1.46,4.06,3.25,4.06s3.25-1.82,3.25-4.06-1.46-4.06-3.25-4.06S267.94,174.2,267.94,176.44Zm1.4-1.37a1.17,1.17,0,1,1,1.17,1.17A1.17,1.17,0,0,1,269.33,175.07Z"/><circle class="cls-12" cx="270.5" cy="175.07" r="1.17"/><path class="cls-12" d="M280.83,240a28,28,0,0,1,33.24-27.5l0,0A28.3,28.3,0,0,1,336,233.21h0a28,28,0,0,1-43.45,29.55,127.5,127.5,0,0,0-11.45-18.91A28.23,28.23,0,0,1,280.83,240Z"/><path class="cls-12" d="M269.17,232l2.33,0.28a100.16,100.16,0,0,1,9.6,11.48,128.13,128.13,0,0,1,11.45,18.95,117,117,0,0,1,11.38,38.12l-1.26,0a29.91,29.91,0,0,0-9.59,1.59c0.88-2.33,3.56-5-.08-4.09-2.67.7-2.73,2.35-2.68,5.17a35.28,35.28,0,0,0-14.94,13.06c-0.67-.59-1.39-1.24-2.17-2-5-4.75,1.54-5.5,2.79-8.5s-1.25-11.75-1.25-11.75-1,4-1.54,8-5.46,7.5-4.42,9.5,0.21,5.25,0,6-2.79,3-1.79,5.25-1,6.25-2.75,9.25-4-3.75-5.5-9,1.76-5,3.11-6.75-3.59-5.25-6.34-6.5-2-4.25-2-9.5c0-2.55-1.56-2.91-3.56-2.62V242.32L259.95,232h9.22Z"/><path class="cls-12" d="M301.63,313.73c-0.75,2.92-5.12,8.83-7.37,8.33s-0.75-4.5,1.25-6.25,3-10.5,3-10.5a23.27,23.27,0,0,1-3.64,5.25c-2.64,3-.61-4-1.86-6.25a2.3,2.3,0,0,1,.08-1.91,29.9,29.9,0,0,1,9.59-1.59c0.42,0,.84,0,1.26,0,0.37,3.19.62,6.46,0.71,9.83C303.25,311.46,301.95,312.49,301.63,313.73Z"/><path class="cls-12" d="M289.5,312.32c-2.25,8.5-1.5,2.75-4.5,7s3,3,5.5,10.25-14,1.25-14,1.25,4.5-6,4.5-8c0-1.69-2-3-5.62-6.27a35.27,35.27,0,0,1,14.94-13.06A29.27,29.27,0,0,1,289.5,312.32Z"/><polygon class="cls-12" points="260.39 231.69 270.67 220.63 271 220.32 271 232 269.17 232 259.95 232 260.39 231.69"/><path class="cls-12" d="M273.21,218l-2.29,2.57-10.53,11.21-0.69.51-9.7,10V231.07S262.79,224,273,218h0.25Z"/><path class="cls-12" d="M285.5,194.07s2.73,9.79.65,14.55a5.18,5.18,0,0,1-.46.95c-1.13,1.6-6.62,5-12.76,8.71C262.76,224.36,250,231.07,250,231.07V172.32S261,192.57,285.5,194.07Z"/><path class="cls-12" d="M258.5,155.32s17.33,8,42.67,0C301.17,155.32,278.5,168.32,258.5,155.32Z"/><path class="cls-12" d="M293,298.32c3.64-1,1,1.76.08,4.09q-1.41.47-2.76,1.08C290.27,300.67,290.33,299,293,298.32Z"/><path class="cls-12" d="M253.56,300.57c0,5.25-.91,8.25,1.84,9.5s7.76,4.75,6.4,6.5-4.58,1.5-3.08,6.75,3.76,12,5.51,9,3.76-7,2.76-9.25,1.58-4.5,1.79-5.25,1-4,0-6,3.88-5.5,4.42-9.5,1.54-8,1.54-8,2.5,8.75,1.25,11.75-7.83,3.75-2.79,8.5c0.78,0.74,1.5,1.39,2.17,2a43.47,43.47,0,0,0-6.88,23.77c0,14.18,6.22,26.61,15.93,33.58-6.65,6.17-17.43,13.5-34.43,18.42V298C252,297.66,253.56,298,253.56,300.57Z"/><path class="cls-12" d="M268.5,340.32a43.47,43.47,0,0,1,6.88-23.77c3.65,3.24,5.62,4.58,5.62,6.27,0,2-4.5,8-4.5,8s16.5,6,14-1.25-8.5-6-5.5-10.25,2.25,1.5,4.5-7a29.27,29.27,0,0,0,.82-8.83q1.35-.61,2.76-1.08a2.3,2.3,0,0,0-.08,1.91c1.25,2.25-.78,9.25,1.86,6.25a23.27,23.27,0,0,0,3.64-5.25s-1,8.75-3,10.5-3.5,5.75-1.25,6.25,6.63-5.42,7.38-8.33c0.32-1.25,1.62-2.28,3-3.05a117.19,117.19,0,0,1-6.78,41.4,12.18,12.18,0,0,0-11.85,12v8.21c-1,.53-0.91,1.07-1.5,1.61C274.79,366.93,268.5,354.5,268.5,340.32Z"/><path class="cls-12" d="M286,372.28v-8.21a12.18,12.18,0,0,1,11.85-12c-1.17,3.38-2.59,6.81-4.12,10.3A85.79,85.79,0,0,1,286,372.28Z"/><path class="cls-12" d="M355.94,166.14L339.25,154h23.83A21.6,21.6,0,0,0,355.94,166.14Z"/><path class="cls-12" d="M399.16,165.44l35.59,0.89L399.6,174a22.27,22.27,0,0,0,.23-3.2A21.82,21.82,0,0,0,399.16,165.44Z"/><path class="cls-12" d="M370.53,150l10-41.7,2.58,41.16A22.13,22.13,0,0,0,370.53,150Z"/><path class="cls-12" d="M389.44,152.19l19.06-26.8-11.36,34.93A22.24,22.24,0,0,0,389.44,152.19Z"/><path class="cls-12" d="M399,176.81l38,15.51L391.57,188A22,22,0,0,0,399,176.81Z"/><path class="cls-12" d="M314.27,212.52l-0.44,0L355,170.85v0a21.81,21.81,0,0,1,.69-4.36A22.18,22.18,0,0,1,363,154.32a22.68,22.68,0,0,1,7.51-4.3,22.3,22.3,0,0,1,12.6-.54,22.24,22.24,0,0,1,14.07,10.84,21.81,21.81,0,0,1,2.69,10.51,22.27,22.27,0,0,1-.23,3.2,22,22,0,0,1-21.71,18.8c-0.5,0-1,0-1.46-.06L336,233.2A28,28,0,0,0,314.27,212.52Z"/><path class="cls-12" d="M314,212.52l0,0,0.19,0A28,28,0,0,1,336,233.2h0A28.3,28.3,0,0,0,314,212.52Z"/><path class="cls-12" d="M298.36,407h5a11.79,11.79,0,0,0,12-11.72c5.19,3.25.19,16.39,15.19,19.89A59.29,59.29,0,0,1,332,425.81L328.5,419l-6.67,11.68,4.45,2.79a98.2,98.2,0,0,1-12.62,0L308.83,419l-9.67,8.67,5.37,5.27c-4.47-.31-8.13-0.6-9.53-0.6-4.5,0-17.43-17-17.43-17s5.64-21.28,8.79-20A11.79,11.79,0,0,0,298.36,407Z"/><path class="cls-12" d="M315.31,395.28a11.79,11.79,0,0,1-12,11.72h-5a11.91,11.91,0,0,1-12-11.86C289.5,396.39,310.12,392,315.31,395.28Z"/><path class="cls-12" d="M332,425.88l8.46,16.44-14.21-8.88c2-.2,3.56-0.55,4.21-1.12C331.77,431.23,332.12,428.68,332,425.88Z"/><path class="cls-12" d="M328.5,419l3.54,6.89c0.07,2.8-.27,5.35-1.54,6.44-0.66.56-2.17,0.92-4.21,1.12l-4.45-2.78Z"/><path class="cls-12" d="M317.83,446l-13.3-13.06c2.84,0.2,6,.4,9.13.54Z"/><path class="cls-12" d="M308.83,419l4.83,14.48c-3.12-.14-6.29-0.35-9.13-0.54l-5.37-5.27Z"/></g><path class="cls-4" d="M180.63,465.94V465h3.75v11.25h3.75v1.88H176.88v-1.87h3.75v-7.5h-1.87v-1.87h1.88v-0.94Z"/><path class="cls-4" d="M191.88,465.94V465h9.38v1.88h1.88v3.75h-1.87v1.88h-1.87v1.88h-3.75v1.88h7.5v1.88H190v-3.75h1.88V472.5h1.88v-1.87h3.75v-1.87h1.88v-1.87h-5.62v1.88H190v-1.87h1.88v-0.94Z"/><path class="cls-4" d="M208.75,465.94V465h7.5v1.88h-5.62v1.88h-1.87v1.88h7.5v1.88h1.88v3.75h-1.87v1.88h-9.37v-1.87H205v-7.5h1.88v-1.87h1.88v-0.94Zm5.63,8.44V472.5h-5.62v3.75h5.63v-1.87Z"/><path class="cls-4" d="M235,471.56V465h3.75v1.88h1.88v1.88h1.88v-1.87h1.88V465h3.75v13.13h-3.75V472.5H242.5v1.88h-1.87V472.5h-1.87v5.63H235v-6.56Z"/><path class="cls-4" d="M253.75,465.94V465h5.63v1.88h1.88v1.88h1.88v9.38h-3.75v-3.75h-5.62v3.75H250v-9.37h1.88v-1.87h1.88v-0.94Zm3.75,1.88v-0.94h-1.87v1.88h-1.87v3.75h5.63v-3.75H257.5v-0.94Z"/><path class="cls-4" d="M268.75,465.94V465h9.38v1.88h-7.5v1.88h-1.87v5.63h1.88v1.88h3.75V472.5H272.5v-1.87h5.63v7.5h-9.37v-1.87h-1.87v-1.87H265v-5.62h1.88v-1.87h1.88v-0.94Z"/><path class="cls-4" d="M280,471.56V465h3.75v1.88h1.88v1.88h1.88v-1.87h1.88V465h3.75v13.13h-3.75V472.5H287.5v1.88h-1.87V472.5h-1.87v5.63H280v-6.56Z"/><path class="cls-4" d="M298.75,465.94V465h5.63v1.88h1.88v1.88h1.88v9.38h-3.75v-3.75h-5.62v3.75H295v-9.37h1.88v-1.87h1.88v-0.94Zm3.75,1.88v-0.94h-1.87v1.88h-1.87v3.75h5.63v-3.75H302.5v-0.94Z"/><path class="cls-4" d="M310,471.56V465h11.25v1.88h1.88v5.63h-3.75v1.88h1.88v1.88h1.88v1.88H317.5v-1.87h-1.87v-1.87h-1.87v3.75H310v-6.56Zm9.38-2.81v-1.87h-5.62v5.63h3.75v-1.87h1.88v-1.87Z"/></svg>