<?xml version="1.0" ?><svg id="pkflt" viewBox="0 0 500 500" xmlns="http://www.w3.org/2000/svg"><defs><style>.cls-1{fill:#c9c9c4;}.cls-2{fill:none;}.cls-3{fill:#ad7663;}.cls-4{fill:#fff;}.cls-5{fill:#333;}.cls-6{fill:#9b5848;}.cls-10,.cls-7{fill:#1a1a1a;}.cls-8{fill:#b1826f;}.cls-9{fill:#a56655;}.cls-10{opacity:0.1;}</style></defs><title/><path class="cls-1" d="M75.66,230c-6.38-.16-21.91-2.08-21.91-2.08C64,235.85,77.28,239,77.28,239h0A10.4,10.4,0,0,1,75.66,230Z"/><path class="cls-2" d="M242.17,362.54l1.08-.07Z"/><path class="cls-2" d="M240.37,362.71l1-.11Z"/><path class="cls-2" d="M244,362.43l1.16,0Z"/><path class="cls-2" d="M238.53,363l1.14-.16Z"/><path class="cls-2" d="M193.83,294.56c-0.72-.66-3.66-3.74-5.62-11.75h0C190.17,290.81,193.11,293.9,193.83,294.56Z"/><path class="cls-2" d="M233.58,364l0.58-.15Z"/><path class="cls-2" d="M232.24,364.39l0.48-.15Z"/><path class="cls-2" d="M231,364.79l0.33-.12Z"/><path class="cls-2" d="M236.5,363.31l1-.18Z"/><path class="cls-2" d="M235,363.64l0.68-.15Z"/><path class="cls-2" d="M245.94,362.38h0Z"/><path class="cls-2" d="M250,362.46c-0.7,0-1.39-.06-2.07-0.08C248.61,362.4,249.3,362.42,250,362.46Z"/><path class="cls-3" d="M226.95,296.36c-1.89,2-1.58,2.36.69,0.8l1.41-1q-0.28-.73-0.53-1.49Z"/><path class="cls-3" d="M232.8,303.43q-0.67-1-1.27-2l-0.19.26C229.69,303.87,230.35,304.66,232.8,303.43Z"/><path class="cls-3" d="M237.42,313.09l2.49-2.54c-0.52-.34-1-0.7-1.52-1.09l-1.83,3C235.11,314.75,235.5,315.06,237.42,313.09Z"/><path class="cls-4" d="M231.53,301.42l7.08-9.42h-3.49L229,296.19A35.77,35.77,0,0,0,231.53,301.42Z"/><path class="cls-4" d="M239.37,291c1.65-2.2,1.15-2.72-1.11-1.16L235.12,292h3.49Z"/><path class="cls-4" d="M231.06,292H231l0.3-.25-4.08-2a41.3,41.3,0,0,0,1.3,4.93Z"/><path class="cls-4" d="M238.94,283.64c1.89-2,1.32-2.85-1.25-1.89L231,284.26l7.12,0.28Z"/><polygon class="cls-4" points="231.06 292 231.3 291.75 231 292 231.06 292"/><path class="cls-4" d="M238.09,284.54l-7.12-.28-4.37,1.63c0.14,1.32.36,2.61,0.61,3.87l4.08,2Z"/><path class="cls-4" d="M239.29,262.09l-8-1.07a39.43,39.43,0,0,0-4.57,14.2l13.47-9.58C242.42,264.05,242,262.45,239.29,262.09Z"/><path class="cls-4" d="M246,312v-2.67c0-2.75-1.57-3.39-3.5-1.43l-2.59,2.65a19.22,19.22,0,0,0,6,2.61A7.41,7.41,0,0,0,246,312Z"/><path class="cls-4" d="M238.32,275.64c2.22-1.62,1.88-2.32-.76-1.54l-10.95,3.21-0.12,0c-0.1,1.2-.15,2.42-0.15,3.66,0,1,0,2.07.11,3.09h0.29Z"/><path class="cls-4" d="M226.44,284.09c0,0.07,0,.15,0,0.22l0.28-.21h-0.29Z"/><path class="cls-4" d="M238.39,309.47l5.3-8.55c1.45-2.34.62-3.24-1.84-2l-9.06,4.53h0A26.79,26.79,0,0,0,238.39,309.47Z"/><path class="cls-5" d="M231.53,301.42q0.61,1,1.27,2h0l9.06-4.53c2.46-1.23,3.29-.32,1.84,2l-5.3,8.55c0.5,0.39,1,.75,1.52,1.09l2.59-2.65c1.92-2,3.5-1.32,3.5,1.43V312a7.41,7.41,0,0,1-.1,1.17,17.45,17.45,0,0,0,4.1.5V292H238.61Z"/><path class="cls-5" d="M229,296.19l6.07-4.19h-4.06l-2.55,2.7Q228.77,295.45,229,296.19Z"/><path class="cls-5" d="M231.28,261l8,1.07c2.73,0.36,3.12,2,.88,3.56l-13.47,9.58c-0.09.7-.17,1.4-0.22,2.11l0.12,0,10.95-3.21c2.64-.77,3-0.08.76,1.54l-11.58,8.46,4.24,0.16,6.71-2.51c2.58-1,3.14-.11,1.25,1.89l-0.84.9L250,285V248.33C242.38,248.33,235.61,253.31,231.28,261Z"/><path class="cls-5" d="M226.74,284.1l-0.28.21q0.06,0.8.15,1.59l4.37-1.63Z"/><path class="cls-5" d="M231.3,291.75l-0.24.25h4.06l3.13-2.16c2.26-1.56,2.76-1,1.11,1.16l-0.75,1H250v-7l-11.91-.46Z"/><path class="cls-6" d="M247.27,362.38h-1.33l-0.76,0-1.16,0-0.77,0-1.08.07-0.75.06-1,.11-0.7.08-1.14.16-1.05.17-1,.18-0.82.18-0.68.15-0.84.21-0.58.15-0.86.24-0.48.15-0.88.28-0.33.12a35.41,35.41,0,0,0-4.2,1.77l1.68,2.19a9.2,9.2,0,0,0-2,.64A59.14,59.14,0,0,0,250,378V362.46c-0.7,0-1.39-.06-2.07-0.08h-0.66Z"/><path class="cls-3" d="M239.91,310.55l-2.49,2.54c-1.92,2-2.31,1.66-.86-0.68l1.83-3a26.79,26.79,0,0,1-5.59-6c-2.46,1.23-3.12.44-1.47-1.76l0.19-.26a35.77,35.77,0,0,1-2.48-5.23l-1.41,1c-2.26,1.56-2.57,1.2-.69-0.8l1.57-1.66a41.3,41.3,0,0,1-1.3-4.93l-1.72-.83c-5.8-2.81-9,1.56-12.49,5.76-1.3,1.57-4.28,2-7.49,1.85a26.27,26.27,0,0,1-15.27,6.66,147.39,147.39,0,0,0,6.15,24.5c1.21,3.47,2.6,7,4.2,10.4l3.87-.71c14.31-2.58,31.41-5.2,45.54-6v-17.7a17.45,17.45,0,0,1-4.1-.5A19.22,19.22,0,0,1,239.91,310.55Z"/><path class="cls-3" d="M194,294.7l0,0-0.13-.11c-0.72-.66-3.66-3.81-5.62-11.82a150.9,150.9,0,0,0,2,20.26h0s0,0.12,0,.14a26.24,26.24,0,0,0,15.27-6.63A61.59,61.59,0,0,1,194,294.7Z"/><path class="cls-1" d="M229.81,186.73a66,66,0,0,1-9.58-4.82l6-1.91-9.62-.38A99,99,0,0,1,190,153.75l8.71-9.08-14,.64c-6.67-11.93-11.82-26.92-13.33-45.58L184,90l-13.12-3.75A173.81,173.81,0,0,1,173.33,60s-19,22-22.2,57.14l-16.8-1.47L150.68,128c0.13,16.81,4.12,36,15.05,56.91-4.8,6.72-10.66,15.09-10.06,15.09s10.22-.2,18.79-0.38A205.38,205.38,0,0,0,192.62,223h0C200.26,200.69,216.53,191,229.81,186.73Z"/><path class="cls-4" d="M231.37,229.23c-0.68,4.33-2.49,7.43-4.61,7.43-2.71,0-4.91-5-4.91-11.23a24.56,24.56,0,0,1,.28-3.68c-6.52-5.12-12.13-9.26-12.13-9.26s0,30,3,32,27,0,27,0,3.5,0.5,2-4.5C241.44,238.14,236.88,233.87,231.37,229.23Z"/><path class="cls-7" d="M226.76,236.67c2.13,0,3.93-3.1,4.61-7.43l-1.56-1.31c-0.45,2.87-1.64,4.92-3,4.92-1.79,0-3.24-3.32-3.24-7.41a16.24,16.24,0,0,1,.18-2.44l-1.57-1.24a24.56,24.56,0,0,0-.28,3.68C221.85,231.64,224.05,236.67,226.76,236.67Z"/><path class="cls-4" d="M226.76,232.85c1.41,0,2.6-2.06,3-4.92-2-1.65-4.08-3.33-6.11-4.93a16.24,16.24,0,0,0-.18,2.44C223.52,229.53,225,232.85,226.76,232.85Z"/><path class="cls-1" d="M96.19,233.8c8.05-2.13,11.06-9.8,11.06-9.8s-6.89,3.69-12.71,3.13a10.44,10.44,0,0,1,1.7,5.72A9.49,9.49,0,0,1,96.19,233.8Z"/><path class="cls-1" d="M86.74,222.41C80.08,215.6,70,202.75,70,202.75c-2.15,3.13,5.18,16.76,8.47,22.55a10.45,10.45,0,0,1,7.28-2.94C86.09,222.36,86.42,222.38,86.74,222.41Z"/><path class="cls-8" d="M229.81,186.73c-13.27,4.23-29.54,14-37.18,36.25a74.43,74.43,0,0,0-2.63,9.86,194.69,194.69,0,0,0-3.28,23.83c-0.21,3-.3,5.72-0.31,8.26,0-2.58.1-5.36,0.31-8.37-11.84.38-21.62,8.42-24,18.42H136.51L96.09,234.58c0-.26.08-0.52,0.1-0.78a9.49,9.49,0,0,0,.05-0.95,10.51,10.51,0,0,0-9.5-10.44c-0.33,0-.66-0.05-1-0.05a10.49,10.49,0,0,0,0,21H86L128.63,286a6.67,6.67,0,0,0,6.16,1.78,6.5,6.5,0,0,0,1.74.24h27.35c3.63,9,12.89,15.2,23.74,15.2,0.88,0,1.76,0,2.62-.06a148.21,148.21,0,0,1-2-20.34h0c2,8,4.9,11.09,5.62,11.75l0.13,0.11,0,0a60.17,60.17,0,0,0,11.51,1.85c3.21,0.12,6.19-.28,7.49-1.85,3.5-4.2,6.69-8.57,12.49-5.76l1.72,0.83c-0.26-1.26-.47-2.55-0.61-3.87q-0.09-.79-0.15-1.59c0-.07,0-0.15,0-0.22-0.07-1-.11-2-0.11-3.09,0-1.24.05-2.46,0.15-3.66,0.06-.71.13-1.41,0.22-2.11a39.43,39.43,0,0,1,4.57-14.2c4.33-7.72,11.1-12.69,18.72-12.69V183.5A65.89,65.89,0,0,0,229.81,186.73ZM240,244.5s-24,2-27,0-3-32-3-32,5.61,4.14,12.13,9.26L223.7,223c2,1.61,4.11,3.28,6.11,4.93l1.56,1.31c5.51,4.64,10.07,8.91,10.63,10.77C243.5,245,240,244.5,240,244.5Z"/><path class="cls-8" d="M193.83,294.56l0.13,0.11Z"/><path class="cls-8" d="M188.21,282.74v0a148,148,0,0,0,2,20.31h0A150.9,150.9,0,0,1,188.21,282.74Z"/><path class="cls-1" d="M198.25,416.5c1.75,7,5.25-18.21,0-20.61L186.67,410S196.5,409.5,198.25,416.5Z"/><path class="cls-9" d="M200.59,338.11c-1.6-3.44-3-6.93-4.2-10.4-4.52,2.05-40.22,19.66-37.13,61.52,0.62-.33,1-0.48,1-0.48s6.76,17.66,3.27,18.36l6.71,0.84-0.23-1.2,6.75-7.75c1.43,1.61,3.87,7.28,5.16,10.41l4.76,0.59s27.22-35.1,39.86-40.61c-0.74-.47-1.48-0.95-2.19-1.45a34.13,34.13,0,0,1,6.69-3.15l0.33-.12,0.88-.28,0.48-.15,0.86-.24,0.58-.15,0.84-.21,0.68-.15,0.82-.18,1-.18,1.05-.17,1.14-.16,0.7-.08,1-.11,0.75-.06,1.08-.07,0.77,0,1.16,0,0.76,0h2c0.68,0,1.36,0,2.07.08V331.37c-14.13.83-31.23,3.45-45.54,6Z"/><path class="cls-9" d="M245.19,362.39l0.76,0Z"/><path class="cls-9" d="M243.25,362.47l0.77,0Z"/><path class="cls-9" d="M226.83,366.56a35.41,35.41,0,0,1,4.2-1.77,34.13,34.13,0,0,0-6.69,3.15c0.71,0.5,1.45,1,2.19,1.45a9.2,9.2,0,0,1,2-.64Z"/><path class="cls-9" d="M247.27,362.38h0Z"/><path class="cls-9" d="M241.42,362.6l0.75-.06Z"/><path class="cls-9" d="M239.67,362.79l0.7-.08Z"/><path class="cls-9" d="M232.72,364.24l0.86-.24Z"/><path class="cls-9" d="M231.36,364.68l0.88-.28Z"/><path class="cls-9" d="M234.16,363.85l0.84-.21Z"/><path class="cls-9" d="M235.68,363.48l0.82-.18Z"/><path class="cls-9" d="M237.48,363.13l1.05-.17Z"/><path class="cls-1" d="M163.52,407.11l-0.9-.11A1.64,1.64,0,0,0,163.52,407.11Z"/><path class="cls-1" d="M160.25,388.75s-0.37.15-1,.48C155.85,391,145,398.1,146.5,415c0,0,10.76-10,16.13-8l0.9,0.11C167,406.41,160.25,388.75,160.25,388.75Z"/><path class="cls-1" d="M170,406.75l0.23,1.2L173.38,424l9.38-12.5s-0.33-.84-0.84-2.09c-1.28-3.12-3.73-8.8-5.16-10.41Z"/><path class="cls-2" d="M257.44,362.54l-1.08-.07Z"/><path class="cls-2" d="M259.24,362.71l-1-.11Z"/><path class="cls-2" d="M255.59,362.43l-1.16,0Z"/><path class="cls-2" d="M261.08,363l-1.14-.16Z"/><path class="cls-2" d="M305.78,294.56c0.72-.66,3.66-3.74,5.62-11.75h0C309.44,290.81,306.5,293.9,305.78,294.56Z"/><path class="cls-2" d="M266,364l-0.58-.15Z"/><path class="cls-2" d="M267.37,364.39l-0.48-.15Z"/><path class="cls-2" d="M268.58,364.79l-0.33-.12Z"/><path class="cls-2" d="M263.11,363.31l-1-.18Z"/><path class="cls-2" d="M264.61,363.64l-0.68-.15Z"/><path class="cls-2" d="M253.67,362.38h0Z"/><path class="cls-2" d="M249.61,362.46c0.7,0,1.39-.06,2.07-0.08C251,362.4,250.31,362.42,249.61,362.46Z"/><path class="cls-3" d="M272.66,296.36c1.89,2,1.58,2.36-.69.8l-1.41-1q0.28-.73.53-1.49Z"/><path class="cls-3" d="M266.81,303.43q0.67-1,1.27-2l0.19,0.26C269.93,303.87,269.27,304.66,266.81,303.43Z"/><path class="cls-3" d="M262.19,313.09l-2.49-2.54c0.52-.34,1-0.7,1.52-1.09l1.83,3C264.5,314.75,264.11,315.06,262.19,313.09Z"/><path class="cls-4" d="M268.08,301.42L261,292h3.49l6.07,4.19A35.77,35.77,0,0,1,268.08,301.42Z"/><path class="cls-4" d="M260.24,291c-1.65-2.2-1.15-2.72,1.11-1.16l3.13,2.16H261Z"/><path class="cls-4" d="M268.55,292h0.06l-0.3-.25,4.08-2a41.3,41.3,0,0,1-1.3,4.93Z"/><path class="cls-4" d="M260.67,283.64c-1.89-2-1.32-2.85,1.25-1.89l6.71,2.51-7.12.28Z"/><polygon class="cls-4" points="268.55 292 268.31 291.75 268.61 292 268.55 292"/><path class="cls-4" d="M261.52,284.54l7.12-.28L273,285.9c-0.14,1.32-.36,2.61-0.61,3.87l-4.08,2Z"/><path class="cls-4" d="M260.32,262.09l8-1.07a39.43,39.43,0,0,1,4.57,14.2l-13.47-9.58C257.19,264.05,257.59,262.45,260.32,262.09Z"/><path class="cls-4" d="M254,312v-2.67c0-2.75,1.38-3.39,3.3-1.43l2.49,2.65a18.46,18.46,0,0,1-5.84,2.61A7,7,0,0,1,254,312Z"/><path class="cls-4" d="M261.3,275.64c-2.22-1.62-1.88-2.32.76-1.54L273,277.3l0.12,0c0.1,1.2.15,2.42,0.15,3.66,0,1,0,2.07-.11,3.09h-0.29Z"/><path class="cls-4" d="M273.17,284.09c0,0.07,0,.15,0,0.22l-0.28-.21h0.29Z"/><path class="cls-4" d="M261.22,309.47l-5.3-8.55c-1.45-2.34-.62-3.24,1.84-2l9.06,4.53h0A26.79,26.79,0,0,1,261.22,309.47Z"/><path class="cls-5" d="M268.08,301.42q-0.61,1-1.27,2h0l-9.06-4.53c-2.46-1.23-3.29-.32-1.84,2l5.3,8.55c-0.5.39-1,.75-1.52,1.09l-2.4-2.65c-1.92-2-3.3-1.32-3.3,1.43V312a7.41,7.41,0,0,0,.1,1.17,20.36,20.36,0,0,1-4.1.5V292h11Z"/><path class="cls-5" d="M270.56,296.19L264.49,292h4.06l2.55,2.7Q270.84,295.45,270.56,296.19Z"/><path class="cls-5" d="M268.53,261l-8.11,1.07c-2.73.36-3.17,2-.93,3.56l13.44,9.58c0.09,0.7.15,1.4,0.21,2.11l-0.13,0-10.95-3.21c-2.64-.77-3-0.08-0.76,1.54l11.58,8.46-4.24.16-6.71-2.51c-2.58-1-3.14-.11-1.25,1.89l1,0.9L250,285V248.33C257,248.33,264.2,253.31,268.53,261Z"/><path class="cls-5" d="M272.88,284.1l0.28,0.21q-0.06.8-.15,1.59l-4.37-1.63Z"/><path class="cls-5" d="M268.32,291.75l0.24,0.25h-4.06l-3.13-2.16c-2.26-1.56-2.76-1-1.11,1.16l0.75,1H250v-7l11.71-.46Z"/><path class="cls-6" d="M252.34,362.38h1.33l0.76,0,1.16,0,0.77,0,1.08,0.07,0.75,0.06,1,0.11,0.7,0.08,1.14,0.16,1.05,0.17,1,0.18,0.82,0.18,0.68,0.15,0.84,0.21L266,364l0.86,0.24,0.48,0.15,0.88,0.28,0.33,0.12a35.41,35.41,0,0,1,4.2,1.77l-1.68,2.19a10.63,10.63,0,0,1,2.18.64A58.84,58.84,0,0,1,250,378V362.46s1.2-.06,1.87-0.08h0.47Z"/><path class="cls-3" d="M259.7,310.55l2.49,2.54c1.92,2,2.31,1.66.86-.68l-1.83-3a26.79,26.79,0,0,0,5.59-6c2.46,1.23,3.12.44,1.47-1.76l-0.19-.26a35.77,35.77,0,0,0,2.48-5.23l1.41,1c2.26,1.56,2.57,1.2.69-.8l-1.57-1.66a41.3,41.3,0,0,0,1.3-4.93l1.72-.83c5.8-2.81,9,1.56,12.49,5.76,1.3,1.57,4.28,2,7.49,1.85a26.27,26.27,0,0,0,15.27,6.66,147.39,147.39,0,0,1-6.15,24.5c-1.21,3.47-2.6,7-4.2,10.4-1.26-.23-2.36-0.47-3.67-0.71-14.31-2.58-31.35-5.2-45.35-6v-17.7a18.65,18.65,0,0,0,3.91-.5A18.22,18.22,0,0,0,259.7,310.55Z"/><path class="cls-3" d="M305.61,294.7l0,0,0.13-.11c0.72-.66,3.66-3.81,5.62-11.82a150.9,150.9,0,0,1-2,20.26h0s0,0.12,0,.14a26.24,26.24,0,0,1-15.27-6.63A61.59,61.59,0,0,0,305.61,294.7Z"/><path class="cls-1" d="M269.8,186.73a66,66,0,0,0,9.58-4.82l-6-1.91,9.62-.38a99,99,0,0,0,26.61-25.87l-8.71-9.08,14,0.64c6.67-11.93,11.82-26.92,13.33-45.58L315.61,90l13.12-3.75A173.81,173.81,0,0,0,326.28,60s19,22,22.2,57.14l16.8-1.47L348.94,128c-0.13,16.81-4.12,36-15.05,56.91,4.8,6.72,10.66,15.09,10.06,15.09s-10.22-.2-18.79-0.38A205.38,205.38,0,0,1,307,223h0C299.35,200.69,283.08,191,269.8,186.73Z"/><path class="cls-4" d="M268.24,229.23c0.68,4.33,2.49,7.43,4.61,7.43,2.71,0,4.91-5,4.91-11.23a24.56,24.56,0,0,0-.28-3.68c6.52-5.12,12.13-9.26,12.13-9.26s0,30-3,32-27,0-27,0-3.5.5-2-4.5C258.17,238.14,262.73,233.87,268.24,229.23Z"/><path class="cls-7" d="M272.85,236.67c-2.13,0-3.93-3.1-4.61-7.43l1.56-1.31c0.45,2.87,1.64,4.92,3,4.92,1.79,0,3.24-3.32,3.24-7.41a16.24,16.24,0,0,0-.18-2.44l1.57-1.24a24.56,24.56,0,0,1,.28,3.68C277.76,231.64,275.56,236.67,272.85,236.67Z"/><path class="cls-4" d="M272.85,232.85c-1.41,0-2.6-2.06-3-4.92,2-1.65,4.08-3.33,6.11-4.93a16.24,16.24,0,0,1,.18,2.44C276.09,229.53,274.64,232.85,272.85,232.85Z"/><path class="cls-1" d="M403.42,233.8c-8.05-2.13-11.06-9.8-11.06-9.8s6.89,3.69,12.71,3.13a10.44,10.44,0,0,0-1.7,5.72A9.49,9.49,0,0,0,403.42,233.8Z"/><path class="cls-1" d="M412.87,222.41c6.67-6.81,16.74-19.66,16.74-19.66,2.15,3.13-5.18,16.76-8.47,22.55a10.45,10.45,0,0,0-7.28-2.94C413.53,222.36,413.19,222.38,412.87,222.41Z"/><path class="cls-8" d="M250,183.5v64.83c7,0,14.2,5,18.53,12.69a39.36,39.36,0,0,1,4.47,14.2c0.09,0.7.12,1.4,0.18,2.11,0.1,1.2.13,2.42,0.13,3.66,0,1-.05,2.07-0.12,3.09,0,0.07,0,.15,0,0.22,0,0.53-.09,1.07-0.15,1.59-0.14,1.32-.36,2.61-0.62,3.87l1.72-.83c5.8-2.81,9,1.56,12.49,5.76,1.3,1.57,4.28,2,7.49,1.85a60.16,60.16,0,0,0,11.51-1.85l0,0,0.13-.11c0.72-.66,3.66-3.74,5.62-11.75h0a148.21,148.21,0,0,1-2,20.34c0.86,0.08,1.73.06,2.62,0.06,10.85,0,20.11-6.2,23.74-15.2h27.35a6.5,6.5,0,0,0,1.74-.24A6.67,6.67,0,0,0,371,286l42.64-42.64h0.23a10.49,10.49,0,0,0,0-21c-0.34,0-.67,0-1,0.05a10.51,10.51,0,0,0-9.5,10.44,9.49,9.49,0,0,0,.05.95c0,0.26.06,0.53,0.1,0.78L363.11,275H336.85c-2.34-10-12.12-18-24-18.42,0.21,3,.31,5.8.31,8.37,0-2.54-.11-5.29-0.31-8.26a194.69,194.69,0,0,0-3.28-23.83A74.43,74.43,0,0,0,307,223c-7.64-22.3-23.71-32-37-36.25A65,65,0,0,0,250,183.5Zm7.61,56.5c0.56-1.86,5.12-6.13,10.63-10.77l1.56-1.31c2-1.65,4.08-3.33,6.11-4.93l1.57-1.24c6.52-5.12,12.13-9.26,12.13-9.26s0,30-3,32-27,0-27,0S256.11,245,257.61,240Z"/><path class="cls-8" d="M305.78,294.56l-0.13.11Z"/><path class="cls-8" d="M311.4,282.74v0a148,148,0,0,1-2,20.31h0A150.9,150.9,0,0,0,311.4,282.74Z"/><path class="cls-1" d="M301.36,416.5c-1.75,7-5.25-18.21,0-20.61L312.94,410S303.11,409.5,301.36,416.5Z"/><path class="cls-9" d="M299,338.11c1.6-3.44,3-6.93,4.2-10.4,4.52,2.05,40.22,19.66,37.13,61.52-0.62-.33-1-0.48-1-0.48s-6.76,17.66-3.27,18.36l-6.71.84,0.23-1.2L322.86,399c-1.43,1.61-3.87,7.28-5.16,10.41l-4.76.59s-27.22-35.1-39.86-40.61c0.74-.47,1.48-0.95,2.19-1.45a34.13,34.13,0,0,0-6.69-3.15l-0.33-.12-0.88-.28-0.48-.15L266,364l-0.58-.15-0.84-.21-0.68-.15-0.82-.18-1-.18-1.05-.17-1.14-.16-0.7-.08-1-.11-0.75-.06-1.08-.07-0.77,0-1.16,0-0.76,0h-1.8c-0.68,0-1.87,0-1.87.08V331.37c14,0.83,31,3.45,45.35,6C296.66,337.64,297.76,337.87,299,338.11Z"/><path class="cls-9" d="M254.43,362.39l-0.76,0Z"/><path class="cls-9" d="M256.36,362.47l-0.77,0Z"/><path class="cls-9" d="M272.78,366.56a35.41,35.41,0,0,0-4.2-1.77,34.13,34.13,0,0,1,6.69,3.15c-0.71.5-1.45,1-2.19,1.45a9.2,9.2,0,0,0-2-.64Z"/><path class="cls-9" d="M252.34,362.38h0Z"/><path class="cls-9" d="M258.19,362.6l-0.75-.06Z"/><path class="cls-9" d="M259.94,362.79l-0.7-.08Z"/><path class="cls-9" d="M266.89,364.24L266,364Z"/><path class="cls-9" d="M268.25,364.68l-0.88-.28Z"/><path class="cls-9" d="M265.45,363.85l-0.84-.21Z"/><path class="cls-9" d="M263.93,363.48l-0.82-.18Z"/><path class="cls-9" d="M262.13,363.13l-1.05-.17Z"/><path class="cls-1" d="M336.09,407.11L337,407A1.64,1.64,0,0,1,336.09,407.11Z"/><path class="cls-1" d="M339.36,388.75s0.37,0.15,1,.48c3.4,1.79,14.23,8.87,12.75,25.77,0,0-10.76-10-16.13-8l-0.9.11C332.6,406.41,339.36,388.75,339.36,388.75Z"/><path class="cls-1" d="M329.61,406.75l-0.23,1.2L326.24,424l-9.37-12.5s0.33-.84.84-2.09c1.28-3.12,3.73-8.8,5.16-10.41Z"/><path class="cls-10" d="M421.14,225.3c3.3-5.8,10.62-19.42,8.47-22.55,0,0-10.08,12.85-16.74,19.66a10.48,10.48,0,0,0-7.8,4.73c-5.82.55-12.71-3.13-12.71-3.13s3,7.67,11.06,9.8c0,0.26.06,0.53,0.1,0.78L363.11,275H336.85c-2.34-10-12.12-18-24-18.42,0.21,3,.31,5.8.31,8.37,0-2.54-.11-5.29-0.31-8.26a194.69,194.69,0,0,0-3.28-23.83A74.43,74.43,0,0,0,307,223h0a205.35,205.35,0,0,0,18.16-23.38c8.57,0.18,18.24.38,18.79,0.38s-5.26-8.38-10.06-15.09C344.82,164,348.81,144.8,348.94,128l16.34-12.33-16.8,1.47C345.27,82,326.28,60,326.28,60a173.81,173.81,0,0,1,2.45,26.25L315.61,90l12.67,9.73c-1.51,18.65-6.66,33.65-13.33,45.58l-14-.64,8.71,9.08A99,99,0,0,1,283,179.62l-9.62.38,6,1.91a67.67,67.67,0,0,1-9.49,4.79A65,65,0,0,0,250,183.5V378a58.84,58.84,0,0,0,23.19-8.56c7.27,3.24,19.25,16.07,28.17,26.45-5.25,2.4-1.75,27.6,0,20.6s11.58-6.5,11.58-6.5l-11.53-14c6.62,7.71,11.53,14,11.53,14l4.76-.59c-0.51,1.25-.84,2.09-0.84,2.09l9.38,12.5,3.14-16.05,6.71-.84A1.64,1.64,0,0,0,337,407c5.37-2,16.13,8,16.13,8,1.48-16.9-9.35-24-12.75-25.77,3.09-41.86-32.62-59.47-37.13-61.52a147.39,147.39,0,0,0,6.15-24.5,26.28,26.28,0,0,1-15.27-6.66h0a26.24,26.24,0,0,0,15.23,6.59s0-.14,0-0.14a148.73,148.73,0,0,0,2-20.19h0a148.21,148.21,0,0,1-2,20.34c0.86,0.08,1.73.06,2.62,0.06,10.85,0,20.11-6.2,23.74-15.2h27.35a6.5,6.5,0,0,0,1.74-.24A6.67,6.67,0,0,0,371,286l42.64-42.64h0.23A10.49,10.49,0,0,0,421.14,225.3ZM273,275.22c0.09,0.7.12,1.4,0.18,2.11,0.1,1.2.13,2.42,0.13,3.66,0,1-.05,2.07-0.12,3.09,0,0.07,0,.15,0,0.22,0,0.53-.09,1.18-0.15,1.71a33.94,33.94,0,0,1-.61,4h0a34,34,0,0,0,.61-4c0.06-.53.11-1.11,0.15-1.65,0-.07,0-0.17,0-0.25,0.07-1,.11-2.06.11-3.1,0-1.24-.05-2.47-0.15-3.67l-0.12,0-10.95-3.21a7.15,7.15,0,0,0-1.54-.31,7.1,7.1,0,0,1,1.55.31L273,277.3l0.13,0c-0.06-.71-0.12-1.41-0.21-2.11l0,0A39.44,39.44,0,0,0,268.34,261l0.18,0A39.36,39.36,0,0,1,273,275.22Zm-11.07,6.53a5.72,5.72,0,0,0-1.55-.39,5.73,5.73,0,0,1,1.55.39l6.71,2.51h0Zm24.69,12.94c1.14,1.37,3.56,1.85,6.3,1.87-2.74,0-5.16-.5-6.3-1.87-2.62-3.15-5.08-6.4-8.58-6.64C281.54,288.3,284,291.55,286.61,294.7Z"/><path class="cls-3" d="M180.63,465.94V465h3.75v11.25h3.75v1.88H176.88v-1.87h3.75v-7.5h-1.87v-1.87h1.88v-0.94Z"/><path class="cls-3" d="M191.88,465.94V465h9.38v1.88h1.88v3.75h-1.87v1.88h-1.87v1.88h-3.75v1.88h7.5v1.88H190v-3.75h1.88V472.5h1.88v-1.87h3.75v-1.87h1.88v-1.87h-5.62v1.88H190v-1.87h1.88v-0.94Z"/><path class="cls-3" d="M205,466.88V465h13.13v3.75h-1.87v1.88h-1.87v1.88H212.5v5.63h-3.75V472.5h1.88v-1.87h1.88v-1.87h1.88v-1.87h-5.62v1.88H205v-1.87Z"/><path class="cls-3" d="M235,471.56V465h11.25v1.88h1.88v5.63h-1.87v1.88h-7.5v3.75H235v-6.56Zm9.38-1.87v-2.81h-5.62v5.63h5.63v-2.81Z"/><path class="cls-3" d="M251.88,465.94V465h11.25v1.88h-3.75v9.38h3.75v1.88H251.88v-1.87h3.75v-9.37h-3.75v-0.94Z"/><path class="cls-3" d="M265,471.56V465h3.75v1.88h1.88v1.88h1.88v1.88h1.88V465h3.75v13.13h-3.75v-1.87H272.5v-1.87h-1.87V472.5h-1.87v5.63H265v-6.56Z"/><path class="cls-3" d="M281.88,465.94V465h7.5v1.88h1.88v1.88H287.5v-1.87h-3.75v3.75h7.5v1.88h1.88v3.75h-1.87v1.88h-9.37v-1.87H280v-1.87h3.75v1.88h5.63V472.5h-7.5v-1.87H280v-3.75h1.88v-0.94Z"/><path class="cls-3" d="M296.88,465.94V465h11.25v1.88h-3.75v9.38h3.75v1.88H296.88v-1.87h3.75v-9.37h-3.75v-0.94Z"/><path class="cls-3" d="M310,471.56V465h11.25v1.88h1.88v5.63h-3.75v1.88h1.88v1.88h1.88v1.88H317.5v-1.87h-1.87v-1.87h-1.87v3.75H310v-6.56Zm9.38-2.81v-1.87h-5.62v5.63h3.75v-1.87h1.88v-1.87Z"/></svg>