<?xml version="1.0" ?><svg id="pkflt" viewBox="0 0 500 500" xmlns="http://www.w3.org/2000/svg"><defs><style>.cls-1{fill:#9aaed8;}.cls-2{fill:#e3aa63;}.cls-3{fill:#d89955;}.cls-4{fill:#897864;}.cls-5{fill:#afbde1;}.cls-6{fill:#fff;}.cls-7{fill:#333;}.cls-8{fill:#84615e;}.cls-9{opacity:0.1;}.cls-10{fill:#1a1a1a;}</style></defs><title/><path class="cls-1" d="M199.51,408l-19.19-4.23-3.94-.85S168,414,167.67,420H200V408l-0.49-.11V408Z"/><path class="cls-2" d="M199.51,407.89l-19.19-4.15L199.51,408v-0.07Z"/><polygon class="cls-1" points="240 420 233.33 406 220 406 216.25 420 240 420"/><path class="cls-3" d="M230.56,334.84c-7.44-5.17-16-10.91-23.69-16a17.16,17.16,0,0,1-.79,1.9C207.73,347.21,220,406,220,406h13.33C225.51,386.2,228.44,351.79,230.56,334.84Z"/><path class="cls-2" d="M184.33,304a203.69,203.69,0,0,1-15.67-18.94c-5.83,9.28-9.55,29-7.73,34.68,2.29,7.18,21.16,70.06,15.45,83.14l3.94,0.87,19.19,4.15c0.1-2.43,2.82-68.86-7-78.17-10-9.49,5,1.57,5,1.57s5.83-4.81,8.64-10.59c-0.05-.87-0.1-1.71-0.13-2.51C194,310.27,184.33,304,184.33,304Z"/><path class="cls-2" d="M206,318.19c0,0.8.08,1.64,0.13,2.51a17.16,17.16,0,0,0,.79-1.9Z"/><path class="cls-4" d="M247.3,90.25c-2.14.24-5.46,0.69-9.66,1.51l-1.9.38C212.86,96.94,168,112.22,143,160c-24.06,46,5.53,97.88,25.65,125.06A203.69,203.69,0,0,0,184.33,304S194,310.27,206,318.19c-0.07-1.72-.07-3.26,0-4.6l1.62,1.66a11.75,11.75,0,0,1-.68,3.55c7.71,5.12,16.25,10.87,23.69,16C241.47,342.41,250,348.74,250,350V90S249,90.05,247.3,90.25Z"/><path class="cls-4" d="M206,318.19l0.92,0.61a11.75,11.75,0,0,0,.68-3.55l-1.62-1.66C205.88,314.93,205.89,316.47,206,318.19Z"/><path class="cls-5" d="M245.33,200c0,4.69,2.09,8.5,4.67,8.5v-17C247.42,191.5,245.33,195.31,245.33,200Z"/><path class="cls-5" d="M247.5,182.17c0,2.51,1.12,4.55,2.5,4.55v-9.11C248.62,177.61,247.5,179.65,247.5,182.17Z"/><path class="cls-5" d="M248.46,170c0,1.55.69,2.81,1.54,2.81v-5.62C249.15,167.19,248.46,168.45,248.46,170Z"/><path class="cls-6" d="M227.44,220c-1.11,0-2-3.7-2.4-8.86L218.25,206s-0.25,12.5,0,14,17.25,4,17.25,4l1.25-4-7.25-5.48C229,217.84,228.29,220,227.44,220Z"/><path class="cls-7" d="M227.44,220c0.85,0,1.6-2.16,2.06-5.48l-0.81-.61c-0.35,1.31-.79,2.09-1.25,2.09-0.69,0-1.31-1.7-1.7-4.33l-0.7-.53C225.4,216.3,226.34,220,227.44,220Z"/><path class="cls-6" d="M227.44,216c0.47,0,.9-0.78,1.25-2.09l-3-2.24C226.14,214.3,226.75,216,227.44,216Z"/><path class="cls-2" d="M211.61,174.52l2.18-3.36A25.44,25.44,0,0,0,211.61,174.52Z"/><path class="cls-2" d="M214.75,170c-0.33.37-.64,0.76-0.94,1.15C223.94,180,208.33,206,208.33,206l-1.2-2.75c0.26,3.22.62,5.25,0.62,5.25S221.5,234.75,222,240c0.44,4.62,4.15,15.82,5,18.44C222.22,240.32,250,248,250,248V208.5c-2.58,0-4.67-3.81-4.67-8.5s2.09-8.5,4.67-8.5v-4.78c-1.38,0-2.5-2-2.5-4.55s1.12-4.55,2.5-4.55v-4.8c-0.85,0-1.54-1.26-1.54-2.81s0.69-2.81,1.54-2.81V164.5S226.25,157,214.75,170Zm20.75,54s-17-2.5-17.25-4,0-14,0-14l6.79,5.14,0.7,0.53,3,2.24,0.81,0.61,7.25,5.48Z"/><path class="cls-8" d="M227,258.44c0.07,0.25.11,0.48,0.19,0.73,0,0,4,10.58,22.78,10.83V248S222.22,240.32,227,258.44Zm11.15,0c0.27-.32,1.31.11,2.32,1s1.6,1.8,1.33,2.13-1.31-.11-2.32-1S237.9,258.78,238.18,258.46Z"/><ellipse class="cls-7" cx="240" cy="260" rx="0.76" ry="2.39" transform="translate(-113.52 274.97) rotate(-49.72)"/><path class="cls-1" d="M211.61,174.52l0,0h0Z"/><path class="cls-1" d="M206.88,202.67l0.25,0.58c0-.29,0-0.6-0.07-0.91Z"/><path class="cls-1" d="M213.81,171.14v0h0Z"/><path class="cls-1" d="M213.81,171.15h0l-2.18,3.36,0,0c4.52,10.61-3.23,25.43-4.53,27.78,0,0.31,0,.62.07,0.91l1.2,2.75S223.94,180,213.81,171.15Z"/><polygon class="cls-5" points="211.6 174.56 211.59 174.55 211.59 174.56 211.6 174.56"/><path class="cls-5" d="M207,201.77l-0.15.9,0.19-.33C207.06,202.15,207,202,207,201.77Z"/><path class="cls-5" d="M211.6,174.56h0S184.83,179,176.17,164,173,133,173,133s-25.5,19.17-14.67,49.17,48.55,20.5,48.55,20.5l0.15-.9c0,0.19,0,.38,0,0.56C208.37,200,216.12,185.16,211.6,174.56Z"/><path class="cls-8" d="M247.3,90.25C249,90.05,250,90,250,90V61.25a11.29,11.29,0,0,1-1.58-.24Z"/><path class="cls-1" d="M248.14,49.86a0.8,0.8,0,0,0-.84-1c1.3,3.25.2,6.5,0,4.75s-3.3-2.5-1.92-1.87S246,57.5,245,55.5a5.58,5.58,0,0,1-.47-1.19c-0.76,2.79-.59,2.13.22,4.32,0.53,1.43,2.32,2.09,3.67,2.39a11.29,11.29,0,0,0,1.58.24V40S248.4,48.4,248.14,49.86Z"/><path class="cls-8" d="M226.52,63.15a11.25,11.25,0,0,1-1.26.93c3.09,5.88,8.5,17.22,10.49,28.05l1.9-.38c-1.51-8.42-4.78-21.81-11-28.73Z"/><path class="cls-1" d="M228.39,57.56c-1-2.11-.39-1.77-2.88-3.21a5.62,5.62,0,0,1,.51,1.16c0.71,2.12-3.45-1-2.91-2.39s-1.13,1.3,0,2.68-2-.14-3.36-3.36a0.82,0.82,0,0,0,.1,1.32c-1.18-.83-8.32-5.65-8.32-5.65s4.8,7.07,5.66,8.29a0.8,0.8,0,0,0-1.29-.1c3.22,1.38,4.74,4.45,3.36,3.36s-4.1.56-2.69,0,4.51,3.62,2.39,2.92a5.59,5.59,0,0,1-1.17-.51c1.44,2.51,1.09,1.92,3.21,2.9,1.39,0.64,3.14-.18,4.3-0.92a11.25,11.25,0,0,0,1.26-.93l0.11-.12C227.13,62.42,229.33,59.6,228.39,57.56Z"/><path class="cls-1" d="M300.5,408l19.19-4.23,3.94-.85S332,414,332.33,420H300V408l0.49-.11V408Z"/><path class="cls-2" d="M300.49,407.89l19.19-4.15L300.5,408v-0.07Z"/><polygon class="cls-1" points="260 420 266.67 406 280 406 283.75 420 260 420"/><path class="cls-3" d="M269.44,334.84c7.44-5.17,16-10.91,23.69-16a17.16,17.16,0,0,0,.79,1.9C292.27,347.21,280,406,280,406H266.67C274.49,386,271.56,351.79,269.44,334.84Z"/><path class="cls-2" d="M315.68,304a203.69,203.69,0,0,0,15.67-18.94c5.83,9.28,9.55,29,7.73,34.68-2.29,7.18-21.16,70.06-15.45,83.14l-3.94.87-19.19,4.15c-0.1-2.43-2.82-68.86,7-78.17,10-9.49-5,1.57-5,1.57s-5.83-4.81-8.64-10.59c0.05-.87.1-1.71,0.13-2.51C306,310.27,315.68,304,315.68,304Z"/><path class="cls-2" d="M294,318.19c0,0.8-.08,1.64-0.13,2.51a17.16,17.16,0,0,1-.79-1.9Z"/><path class="cls-4" d="M252.7,90.25c2.14,0.24,5.46.69,9.66,1.51l1.9,0.38C287.14,96.94,332,112.22,357,160c24.06,46-5.53,97.88-25.65,125.06A203.69,203.69,0,0,1,315.68,304S306,310.27,294,318.19c0.07-1.72.07-3.26,0-4.6l-1.62,1.66a11.75,11.75,0,0,0,.68,3.55c-7.71,5.12-16.25,10.87-23.69,16C258.53,342.41,250,348.74,250,350V90S251,90.05,252.7,90.25Z"/><path class="cls-4" d="M294,318.19l-0.92.61a11.75,11.75,0,0,1-.68-3.55l1.62-1.66C294.12,314.93,294.12,316.47,294,318.19Z"/><path class="cls-5" d="M254.67,200c0,4.69-1.67,8.5-4.67,8.5v-17C253,191.5,254.67,195.31,254.67,200Z"/><path class="cls-5" d="M252.5,182.17c0,2.51-1.5,4.55-2.5,4.55v-9.11C251,177.61,252.5,179.65,252.5,182.17Z"/><path class="cls-5" d="M251.54,170c0,1.55-.54,2.81-1.54,2.81v-5.62C251,167.19,251.54,168.45,251.54,170Z"/><path class="cls-6" d="M272.56,220c1.11,0,2-3.7,2.4-8.86l6.79-5.14s0.25,12.5,0,14-17.25,4-17.25,4l-1.25-4,7.25-5.48C271,217.84,271.71,220,272.56,220Z"/><path class="cls-7" d="M272.56,220c-0.85,0-1.6-2.16-2.06-5.48l0.81-.61c0.35,1.31.79,2.09,1.25,2.09,0.69,0,1.31-1.7,1.7-4.33l0.7-.53C274.61,216.3,273.66,220,272.56,220Z"/><path class="cls-6" d="M272.56,216c-0.47,0-.9-0.78-1.25-2.09l3-2.24C273.86,214.3,273.25,216,272.56,216Z"/><path class="cls-2" d="M288.39,174.52l-2.18-3.36A25.44,25.44,0,0,1,288.39,174.52Z"/><path class="cls-2" d="M250,164.5v2.69c1,0,1.54,1.26,1.54,2.81s-0.54,2.81-1.54,2.81v4.8c1,0,2.5,2,2.5,4.55s-1.5,4.55-2.5,4.55v4.78c3,0,4.67,3.81,4.67,8.5s-1.67,8.5-4.67,8.5V248s27.78-7.68,23,10.44c0.88-2.62,4.59-13.82,5-18.44,0.5-5.25,14.25-31.5,14.25-31.5s0.36-2,.62-5.25l-1.2,2.75s-15.61-26-5.47-34.85c-0.3-.39-0.61-0.77-0.94-1.15C273.75,157,250,164.5,250,164.5ZM263.25,220l7.25-5.48,0.81-.61,3-2.24,0.7-.53,6.79-5.14s0.25,12.5,0,14-17.25,4-17.25,4Z"/><path class="cls-8" d="M250,248v22c19-.25,22.78-10.83,22.78-10.83,0.08-.26.12-0.49,0.19-0.73C277.78,240.32,250,248,250,248Zm10.49,12.58c-1,.85-2,1.28-2.32,1s0.32-1.27,1.33-2.13,2-1.28,2.32-1S261.5,259.73,260.49,260.58Z"/><ellipse class="cls-7" cx="260" cy="260" rx="2.39" ry="0.76" transform="translate(-106.45 229.78) rotate(-40.28)"/><path class="cls-1" d="M288.39,174.52l0,0h0Z"/><path class="cls-1" d="M293.12,202.67l-0.25.58c0-.29,0-0.6.07-0.91Z"/><path class="cls-1" d="M286.2,171.14v0h0Z"/><path class="cls-1" d="M286.19,171.15h0l2.18,3.36,0,0c-4.52,10.61,3.23,25.43,4.53,27.78,0,0.31,0,.62-0.07.91l-1.2,2.75S276.06,180,286.19,171.15Z"/><polygon class="cls-5" points="288.4 174.56 288.41 174.55 288.41 174.56 288.4 174.56"/><path class="cls-5" d="M293,201.77l0.15,0.9-0.19-.33C292.95,202.15,293,202,293,201.77Z"/><path class="cls-5" d="M288.4,174.56h0S315.17,179,323.83,164,327,133,327,133s25.5,19.17,14.67,49.17-48.55,20.5-48.55,20.5l-0.15-.9c0,0.19,0,.38,0,0.56C291.63,200,283.88,185.16,288.4,174.56Z"/><path class="cls-8" d="M252.7,90.25C251,90.05,250,90,250,90V61.25a11.29,11.29,0,0,0,1.58-.24Z"/><path class="cls-1" d="M251.86,49.86a0.8,0.8,0,0,1,.84-1c-1.3,3.25-.2,6.5,0,4.75s3.3-2.5,1.92-1.87S254,57.5,255,55.5a5.58,5.58,0,0,0,.47-1.19c0.76,2.79.59,2.13-.22,4.32-0.53,1.43-2.32,2.09-3.67,2.39a11.29,11.29,0,0,1-1.58.24V40S251.6,48.4,251.86,49.86Z"/><path class="cls-8" d="M273.48,63.15a11.25,11.25,0,0,0,1.26.93c-3.09,5.88-8.5,17.22-10.49,28.05l-1.9-.38c1.51-8.42,4.78-21.81,11-28.73Z"/><path class="cls-1" d="M271.61,57.56c1-2.11.39-1.77,2.88-3.21a5.62,5.62,0,0,0-.51,1.16c-0.71,2.12,3.45-1,2.91-2.39s1.13,1.3,0,2.68,2-.14,3.36-3.36a0.82,0.82,0,0,1-.1,1.32c1.18-.83,8.32-5.65,8.32-5.65s-4.8,7.07-5.66,8.29a0.8,0.8,0,0,1,1.29-.1c-3.22,1.38-4.74,4.45-3.36,3.36s4.1,0.56,2.69,0-4.51,3.62-2.39,2.92a5.59,5.59,0,0,0,1.17-.51c-1.44,2.51-1.09,1.92-3.21,2.9-1.39.64-3.14-.18-4.3-0.92a11.25,11.25,0,0,1-1.26-.93L273.38,63C272.87,62.42,270.67,59.6,271.61,57.56Z"/><g class="cls-9"><path class="cls-10" d="M300.5,408l19.19-4.23,3.94-.85S332,414,332.33,420H300V408l0.49-.11V408Z"/><path class="cls-10" d="M300.49,407.89l19.19-4.15L300.5,408v-0.07Z"/><polygon class="cls-10" points="260 420 266.67 406 280 406 283.75 420 260 420"/><path class="cls-10" d="M269.44,334.84c7.44-5.17,16-10.91,23.69-16a17.16,17.16,0,0,0,.79,1.9C292.27,347.21,280,406,280,406H266.67C274.49,386,271.56,351.79,269.44,334.84Z"/><path class="cls-10" d="M315.68,304a203.69,203.69,0,0,0,15.67-18.94c5.83,9.28,9.55,29,7.73,34.68-2.29,7.18-21.16,70.06-15.45,83.14l-3.94.87-19.19,4.15c-0.1-2.43-2.82-68.86,7-78.17,10-9.49-5,1.57-5,1.57s-5.83-4.81-8.64-10.59c0.05-.87.1-1.71,0.13-2.51C306,310.27,315.68,304,315.68,304Z"/><path class="cls-10" d="M294,318.19c0,0.8-.08,1.64-0.13,2.51a17.16,17.16,0,0,1-.79-1.9Z"/><path class="cls-10" d="M252.7,90.25c2.14,0.24,5.46.69,9.66,1.51l1.9,0.38C287.14,96.94,332,112.22,357,160c24.06,46-5.53,97.88-25.65,125.06A203.69,203.69,0,0,1,315.68,304S306,310.27,294,318.19c0.07-1.72.07-3.26,0-4.6l-1.62,1.66a11.75,11.75,0,0,0,.68,3.55c-7.71,5.12-16.25,10.87-23.69,16C258.53,342.41,250,348.74,250,350V90S251,90.05,252.7,90.25Z"/><path class="cls-10" d="M294,318.19l-0.92.61a11.75,11.75,0,0,1-.68-3.55l1.62-1.66C294.12,314.93,294.12,316.47,294,318.19Z"/><path class="cls-10" d="M254.67,200c0,4.69-1.67,8.5-4.67,8.5v-17C253,191.5,254.67,195.31,254.67,200Z"/><path class="cls-10" d="M252.5,182.17c0,2.51-1.5,4.55-2.5,4.55v-9.11C251,177.61,252.5,179.65,252.5,182.17Z"/><path class="cls-10" d="M251.54,170c0,1.55-.54,2.81-1.54,2.81v-5.62C251,167.19,251.54,168.45,251.54,170Z"/><path class="cls-10" d="M272.56,220c1.11,0,2-3.7,2.4-8.86l6.79-5.14s0.25,12.5,0,14-17.25,4-17.25,4l-1.25-4,7.25-5.48C271,217.84,271.71,220,272.56,220Z"/><path class="cls-10" d="M272.56,220c-0.85,0-1.6-2.16-2.06-5.48l0.81-.61c0.35,1.31.79,2.09,1.25,2.09,0.69,0,1.31-1.7,1.7-4.33l0.7-.53C274.61,216.3,273.66,220,272.56,220Z"/><path class="cls-10" d="M272.56,216c-0.47,0-.9-0.78-1.25-2.09l3-2.24C273.86,214.3,273.25,216,272.56,216Z"/><path class="cls-10" d="M288.39,174.52l-2.18-3.36A25.44,25.44,0,0,1,288.39,174.52Z"/><path class="cls-10" d="M250,164.5v2.69c1,0,1.54,1.26,1.54,2.81s-0.54,2.81-1.54,2.81v4.8c1,0,2.5,2,2.5,4.55s-1.5,4.55-2.5,4.55v4.78c3,0,4.67,3.81,4.67,8.5s-1.67,8.5-4.67,8.5V248s27.78-7.68,23,10.44c0.88-2.62,4.59-13.82,5-18.44,0.5-5.25,14.25-31.5,14.25-31.5s0.36-2,.62-5.25l-1.2,2.75s-15.61-26-5.47-34.85c-0.3-.39-0.61-0.77-0.94-1.15C273.75,157,250,164.5,250,164.5ZM263.25,220l7.25-5.48,0.81-.61,3-2.24,0.7-.53,6.79-5.14s0.25,12.5,0,14-17.25,4-17.25,4Z"/><path class="cls-10" d="M250,248v22c19-.25,22.78-10.83,22.78-10.83,0.08-.26.12-0.49,0.19-0.73C277.78,240.32,250,248,250,248Zm10.49,12.58c-1,.85-2,1.28-2.32,1s0.32-1.27,1.33-2.13,2-1.28,2.32-1S261.5,259.73,260.49,260.58Z"/><ellipse class="cls-10" cx="260" cy="260" rx="2.39" ry="0.76" transform="translate(-106.45 229.78) rotate(-40.28)"/><path class="cls-10" d="M288.39,174.52l0,0h0Z"/><path class="cls-10" d="M293.12,202.67l-0.25.58c0-.29,0-0.6.07-0.91Z"/><path class="cls-10" d="M286.2,171.14v0h0Z"/><path class="cls-10" d="M286.19,171.15h0l2.18,3.36,0,0c-4.52,10.61,3.23,25.43,4.53,27.78,0,0.31,0,.62-0.07.91l-1.2,2.75S276.06,180,286.19,171.15Z"/><polygon class="cls-10" points="288.4 174.56 288.41 174.55 288.41 174.56 288.4 174.56"/><path class="cls-10" d="M293,201.77l0.15,0.9-0.19-.33C292.95,202.15,293,202,293,201.77Z"/><path class="cls-10" d="M288.4,174.56h0S315.17,179,323.83,164,327,133,327,133s25.5,19.17,14.67,49.17-48.55,20.5-48.55,20.5l-0.15-.9c0,0.19,0,.38,0,0.56C291.63,200,283.88,185.16,288.4,174.56Z"/><path class="cls-10" d="M252.7,90.25C251,90.05,250,90,250,90V61.25a11.29,11.29,0,0,0,1.58-.24Z"/><path class="cls-10" d="M251.86,49.86a0.8,0.8,0,0,1,.84-1c-1.3,3.25-.2,6.5,0,4.75s3.3-2.5,1.92-1.87S254,57.5,255,55.5a5.58,5.58,0,0,0,.47-1.19c0.76,2.79.59,2.13-.22,4.32-0.53,1.43-2.32,2.09-3.67,2.39a11.29,11.29,0,0,1-1.58.24V40S251.6,48.4,251.86,49.86Z"/><path class="cls-10" d="M273.48,63.15a11.25,11.25,0,0,0,1.26.93c-3.09,5.88-8.5,17.22-10.49,28.05l-1.9-.38c1.51-8.42,4.78-21.81,11-28.73Z"/><path class="cls-10" d="M271.61,57.56c1-2.11.39-1.77,2.88-3.21a5.62,5.62,0,0,0-.51,1.16c-0.71,2.12,3.45-1,2.91-2.39s1.13,1.3,0,2.68,2-.14,3.36-3.36a0.82,0.82,0,0,1-.1,1.32c1.18-.83,8.32-5.65,8.32-5.65s-4.8,7.07-5.66,8.29a0.8,0.8,0,0,1,1.29-.1c-3.22,1.38-4.74,4.45-3.36,3.36s4.1,0.56,2.69,0-4.51,3.62-2.39,2.92a5.59,5.59,0,0,0,1.17-.51c-1.44,2.51-1.09,1.92-3.21,2.9-1.39.64-3.14-.18-4.3-0.92a11.25,11.25,0,0,1-1.26-.93L273.38,63C272.87,62.42,270.67,59.6,271.61,57.56Z"/></g><path class="cls-4" d="M180.63,465.94V465h3.75v11.25h3.75v1.88H176.88v-1.87h3.75v-7.5h-1.87v-1.87h1.88v-0.94Z"/><path class="cls-4" d="M191.88,465.94V465h9.38v1.88h1.88v3.75h-1.87v1.88h-1.87v1.88h-3.75v1.88h7.5v1.88H190v-3.75h1.88V472.5h1.88v-1.87h3.75v-1.87h1.88v-1.87h-5.62v1.88H190v-1.87h1.88v-0.94Z"/><path class="cls-4" d="M206.88,465.94V465h7.5v1.88h1.88v3.75h-1.87v1.88h3.75v3.75h-1.87v1.88h-9.37v-1.87H205V472.5h1.88v-1.87H205v-3.75h1.88v-0.94Zm3.75,7.5V472.5h-3.75v3.75h7.5v-1.87h-3.75v-0.94Zm3.75-4.69v-1.87h-5.62v1.88h1.88v1.88h3.75v-1.87Z"/><path class="cls-4" d="M236.88,465.94V465h11.25v1.88h-3.75v11.25h-3.75V466.88h-3.75v-0.94Z"/><path class="cls-4" d="M253.75,465.94V465h5.63v1.88h1.88v1.88h1.88v9.38h-3.75v-3.75h-5.62v3.75H250v-9.37h1.88v-1.87h1.88v-0.94Zm3.75,1.88v-0.94h-1.87v1.88h-1.87v3.75h5.63v-3.75H257.5v-0.94Z"/><path class="cls-4" d="M265,470.63V465h3.75v11.25h5.63V465h3.75v11.25h-1.87v1.88h-9.37v-1.87H265v-5.62Z"/><path class="cls-4" d="M280,471.56V465h11.25v1.88h1.88v5.63h-3.75v1.88h1.88v1.88h1.88v1.88H287.5v-1.87h-1.87v-1.87h-1.87v3.75H280v-6.56Zm9.38-2.81v-1.87h-5.62v5.63h3.75v-1.87h1.88v-1.87Z"/><path class="cls-4" d="M296.88,465.94V465h9.38v1.88h1.88v9.38h-1.87v1.88h-9.37v-1.87H295v-9.37h1.88v-0.94Zm7.5,5.63v-4.69h-5.62v9.38h5.63v-4.69Z"/><path class="cls-4" d="M311.88,465.94V465h7.5v1.88h1.88v1.88H317.5v-1.87h-3.75v3.75h7.5v1.88h1.88v3.75h-1.87v1.88h-9.37v-1.87H310v-1.87h3.75v1.88h5.63V472.5h-7.5v-1.87H310v-3.75h1.88v-0.94Z"/></svg>