<?xml version="1.0" ?><svg id="pkflt" viewBox="0 0 500 500" xmlns="http://www.w3.org/2000/svg"><defs><style>.cls-1{fill:#e25941;}.cls-2{fill:#f1f2b9;}.cls-3{fill:#fff;}.cls-4{fill:#333;}.cls-5{fill:#f598a3;}.cls-6{fill:#4e2830;}.cls-7{fill:#e6e6e6;}.cls-8{fill:#1a1a1a;opacity:0.1;}</style></defs><title/><path class="cls-1" d="M74.33,192.33s6.53,1.13,16.4,3.54c-1.35-1-2.11-1.57-2.11-1.57C80,193,74.33,192.33,74.33,192.33Z"/><path class="cls-2" d="M241,135.67l-16.17-11,16.69,46A23.59,23.59,0,0,1,250,169V94Z"/><path class="cls-2" d="M236.5,318.87L233,352.33,241.5,340l8.5,30V323a26,26,0,0,1-13.43-4.11Z"/><path class="cls-1" d="M241.63,171a20.83,20.83,0,0,1,8.37-2,23.59,23.59,0,0,0-8.48,1.66Z"/><path class="cls-1" d="M241.75,171.28l-0.12-.32-0.72.31h0.84Z"/><path class="cls-3" d="M217.5,213.5c-5.8,0-10.5,8.39-10.5,18.75S211.7,251,217.5,251s10.5-8.39,10.5-18.75S223.3,213.5,217.5,213.5Zm2.5,18a1.5,1.5,0,1,1,1.5-1.5A1.5,1.5,0,0,1,220,231.5Z"/><circle class="cls-4" cx="220" cy="230" r="1.5"/><path class="cls-5" d="M233,266c0,13.91,7.61,25.19,17,25.19V286c-7.46,0-13.5-9-13.5-20s6-20,13.5-20v-5.19C240.61,240.81,233,252.09,233,266Z"/><path class="cls-6" d="M236.5,266c0,11,6,20,13.5,20V246C242.54,246,236.5,255,236.5,266Z"/><path class="cls-7" d="M166,227.83c-20.86-16.73-54.86-27-75.07-31.91,11.32,8.7,59.88,49.34,45.41,95.08h0a16.14,16.14,0,0,1,4.57-3.76c8.75-5,47.75-13.29,49.09-17.29a19.08,19.08,0,0,0,1.3-6.5C191.36,256.58,187.4,245,166,227.83Z"/><path class="cls-1" d="M166,227.81c-20.93-16.79-55.09-27.12-75.27-32l0.2,0.15c20.21,4.94,54.21,15.18,75.07,31.91,21.4,17.17,25.36,28.75,25.3,35.62C191.37,256.6,187.44,245,166,227.81Z"/><path class="cls-2" d="M191.07,301.44c-1.07,1.79-1.09,3.86-.16,20.09,0.76,13.32,2,35.61-.06,40.34a268,268,0,0,1-14.74,27c-11.86,19-15.85,27.61-15.71,27.6,14.46-1.45,37.54-50.86,37.76-51.36,2.68-6,2-22.77.74-44-0.36-6.34-.77-13.46-0.65-15.86,1.91-2.07,8.63-8.15,15.9-14.51q-1.69-3.79-3.11-7.91C201.95,290.68,192.39,299.24,191.07,301.44Z"/><path class="cls-2" d="M220.53,279.89a4,4,0,0,0-5.64-.42L211,282.8q1.42,4.11,3.11,7.91c2-1.73,4-3.48,6-5.18A4,4,0,0,0,220.53,279.89Z"/><path class="cls-1" d="M250,240.81V169a20.83,20.83,0,0,0-8.37,2l0.12,0.32h-0.84l0.72-.31-0.11-.3c-0.5.19-1,.39-1.49,0.61-17.94,8.06-34,36.74-35,71.36h0c-4.9-1.9-18.38-8-32.71-22.64-13.22-13.46-59.86-22.07-83.71-25.7,0,0,.77.54,2.11,1.57l0.2,0-0.2-.15c20.18,4.92,54.34,15.25,75.27,32,21.44,17.2,25.37,28.79,25.3,35.65A19.08,19.08,0,0,1,190,270c-1.33,4-40.33,12.33-49.09,17.33a13.37,13.37,0,0,0-4.57,3.85c-2.25,3.31-.26,5.82-0.26,5.82L207,270h0c-0.24-1.82.1-1.86,0.49,0A107.38,107.38,0,0,0,211,282.8l3.86-3.33a4,4,0,0,1,5.22,6.06c-2,1.7-4,3.45-6,5.18,5.78,13,13.77,22.94,22.42,28.18A26,26,0,0,0,250,323V291.19c-9.39,0-17-11.28-17-25.19S240.61,240.81,250,240.81ZM217.5,251c-5.8,0-10.5-8.39-10.5-18.75s4.7-18.75,10.5-18.75,10.5,8.39,10.5,18.75S223.3,251,217.5,251Z"/><path class="cls-2" d="M258.81,135.67l16.07-11-16.55,46A26.7,26.7,0,0,0,250,169V94Z"/><path class="cls-2" d="M263.12,318.87l3.5,33.46L258.31,340,250,370V323a26.84,26.84,0,0,0,13.24-4.11Z"/><path class="cls-1" d="M258,171a20.83,20.83,0,0,0-8.37-2,23.59,23.59,0,0,1,8.48,1.66Z"/><path class="cls-1" d="M257.87,171.28L258,171l0.72,0.31h-0.84Z"/><path class="cls-3" d="M271.62,232.25c0,10.36,4.7,18.75,10.5,18.75s10.5-8.39,10.5-18.75-4.7-18.75-10.5-18.75S271.62,221.89,271.62,232.25Zm6.5-2.25a1.5,1.5,0,1,1,1.5,1.5A1.5,1.5,0,0,1,278.12,230Z"/><circle class="cls-4" cx="279.62" cy="230" r="1.5"/><path class="cls-5" d="M267,266c0,13.91-8,25.19-17,25.19V286c7,0,13.5-9,13.5-20S257,246,250,246v-5.19C259,240.81,267,252.09,267,266Z"/><path class="cls-6" d="M263.5,266c0,11-6.5,20-13.5,20V246C257,246,263.5,255,263.5,266Z"/><path class="cls-7" d="M333.62,227.83c20.86-16.73,54.86-27,75.07-31.91-11.32,8.7-59.88,49.34-45.41,95.08h0a16.14,16.14,0,0,0-4.57-3.76C350,282.24,311,274,309.62,270a19.08,19.08,0,0,1-1.3-6.5C308.26,256.58,312.22,245,333.62,227.83Z"/><path class="cls-1" d="M333.62,227.81c20.93-16.79,55.09-27.12,75.27-32l-0.2.15c-20.21,4.94-54.21,15.18-75.07,31.91-21.4,17.17-25.36,28.75-25.3,35.62C308.25,256.6,312.18,245,333.62,227.81Z"/><path class="cls-2" d="M308.55,301.44c1.07,1.79,1.09,3.86.16,20.09-0.76,13.32-2,35.61.06,40.34a268,268,0,0,0,14.74,27c11.86,19,15.85,27.61,15.71,27.6-14.46-1.45-37.54-50.86-37.76-51.36-2.68-6-2-22.77-.74-44,0.36-6.34.77-13.46,0.65-15.86-1.91-2.07-8.63-8.15-15.9-14.51q1.69-3.79,3.11-7.91C297.67,290.68,307.23,299.24,308.55,301.44Z"/><path class="cls-2" d="M279.09,279.89a4,4,0,0,1,5.64-.42l3.86,3.33q-1.42,4.11-3.11,7.91c-2-1.73-4-3.48-6-5.18A4,4,0,0,1,279.09,279.89Z"/><path class="cls-1" d="M267,266c0,13.91-8,25.19-17,25.19V323a26.84,26.84,0,0,0,13.24-4.11c8.65-5.24,16.55-15.21,22.33-28.18-2-1.73-4-3.48-6-5.18a4,4,0,1,1,5.18-6.06l3.85,3.33a107.52,107.52,0,0,0,3.73-12.8c0.39-1.86.68-1.82,0.68,0h0l70.72,27s1.9-2.51-.35-5.82a13.63,13.63,0,0,0-4.61-3.85C350,282.33,311,274,309.64,270a19,19,0,0,1-1.31-6.54c-0.07-6.86,3.85-18.45,25.3-35.65,20.93-16.79,55.08-27.12,75.26-32l-0.2.15,0.2,0c1.35-1,2.11-1.57,2.11-1.57-23.86,3.63-70.5,12.23-83.71,25.7-14.34,14.6-27.82,20.74-32.71,22.64h0c-1-34.62-17.05-63.31-35-71.36-0.49-.22-1-0.42-1.49-0.61L258,171l0.72,0.31h-0.84l0.31-.32a23.27,23.27,0,0,0-8.18-2v71.81C259,240.81,267,252.09,267,266Zm4.62-33.75c0-10.36,4.7-18.75,10.5-18.75s10.5,8.39,10.5,18.75S287.92,251,282.12,251,271.62,242.61,271.62,232.25Z"/><path class="cls-8" d="M327.29,220c-14.34,14.6-27.82,20.74-32.71,22.64,0,0.38,0,.39,0,0-1-34.62-17.05-63.31-35-71.36-0.49-.22-1-0.42-1.49-0.61l-0.09.24h0l0.09-.24a25.69,25.69,0,0,0-4.22-1.23,26.46,26.46,0,0,1,4.45,1.23l16.55-46-16.07,11L250,94v75a22.15,22.15,0,0,1,3.85.42,22.37,22.37,0,0,0-2.55-.34A12.28,12.28,0,0,0,250,169h-0.38l0.38,0V370l8.31-30,8.31,12.33L263.13,319l0.11-.06c8.64-5.23,16.52-15.18,22.3-28.12,7.24,6.34,13.93,12.38,15.83,14.45,0.13,2.4-.28,9.51-0.65,15.86-1.22,21.28-1.94,38,.74,44,0.22,0.5,23.29,49.91,37.76,51.36,0.14,0-3.85-8.63-15.71-27.6a268,268,0,0,1-14.74-27c-2.1-4.73-.83-27-0.06-40.34,0.93-16.23.91-18.3-.16-20.09-1.32-2.21-10.88-10.76-20-18.64l-3.86-3.33a4,4,0,0,0-2.89-1,4,4,0,0,1,2.9,1l3.85,3.33a107.52,107.52,0,0,0,3.73-12.8c0.39-1.86.68-1.82,0.68,0h0l70.72,27s1.9-2.51-.35-5.82a8,8,0,0,0-.6-0.76c0.19,0.2.36,0.4,0.5,0.58h0c-14.47-45.74,34.09-86.38,45.41-95.08l0.2-.15h0l-0.2.15,0.2,0c1.35-1,2.11-1.57,2.11-1.57C387.14,197.93,340.5,206.54,327.29,220Zm-73.43-50.46c-0.58-.14-1.13-0.25-1.66-0.33C252.75,169.29,253.3,169.4,253.86,169.54ZM361.6,289.28a19,19,0,0,0-2.85-1.95C350,282.33,311,274,309.64,270v0c1.51,4,40.34,12.27,49.07,17.26A17.79,17.79,0,0,1,361.6,289.28Z"/><path class="cls-1" d="M165.63,465.94V465h3.75v11.25h3.75v1.88H161.88v-1.87h3.75v-7.5h-1.87v-1.87h1.88v-0.94Z"/><path class="cls-1" d="M176.88,465.94V465h9.38v1.88h1.88v3.75h-1.87v1.88h-1.87v1.88h-3.75v1.88h7.5v1.88H175v-3.75h1.88V472.5h1.88v-1.87h3.75v-1.87h1.88v-1.87h-5.62v1.88H175v-1.87h1.88v-0.94Z"/><path class="cls-1" d="M191.88,465.94V465h9.38v1.88h1.88v7.5h-1.87v1.88h-1.87v1.88h-7.5v-1.87h5.63v-1.87h1.88V472.5h-7.5v-1.87H190v-3.75h1.88v-0.94Zm7.5,2.81v-1.87h-5.62v3.75h5.63v-1.87Z"/><path class="cls-1" d="M220,471.56V465h3.75v1.88h1.88v1.88h1.88v-1.87h1.88V465h3.75v13.13h-3.75V472.5H227.5v1.88h-1.87V472.5h-1.87v5.63H220v-6.56Z"/><path class="cls-1" d="M238.75,465.94V465h5.63v1.88h1.88v1.88h1.88v9.38h-3.75v-3.75h-5.62v3.75H235v-9.37h1.88v-1.87h1.88v-0.94Zm3.75,1.88v-0.94h-1.87v1.88h-1.87v3.75h5.63v-3.75H242.5v-0.94Z"/><path class="cls-1" d="M253.75,465.94V465h9.38v1.88h-7.5v1.88h-1.87v5.63h1.88v1.88h3.75V472.5H257.5v-1.87h5.63v7.5h-9.37v-1.87h-1.87v-1.87H250v-5.62h1.88v-1.87h1.88v-0.94Z"/><path class="cls-1" d="M266.88,465.94V465h11.25v1.88h-3.75v9.38h3.75v1.88H266.88v-1.87h3.75v-9.37h-3.75v-0.94Z"/><path class="cls-1" d="M280,471.56V465h3.75v5.63h1.88v-1.87h1.88v-1.87h1.88V465h3.75v1.88h-1.87v1.88h-1.87v1.88H287.5v1.88h1.88v1.88h1.88v1.88h1.88v1.88H287.5v-1.87h-1.87v-1.87h-1.87v3.75H280v-6.56Z"/><path class="cls-1" d="M298.75,465.94V465h5.63v1.88h1.88v1.88h1.88v9.38h-3.75v-3.75h-5.62v3.75H295v-9.37h1.88v-1.87h1.88v-0.94Zm3.75,1.88v-0.94h-1.87v1.88h-1.87v3.75h5.63v-3.75H302.5v-0.94Z"/><path class="cls-1" d="M310,471.56V465h11.25v1.88h1.88v5.63h-3.75v1.88h1.88v1.88h1.88v1.88H317.5v-1.87h-1.87v-1.87h-1.87v3.75H310v-6.56Zm9.38-2.81v-1.87h-5.62v5.63h3.75v-1.87h1.88v-1.87Z"/><path class="cls-1" d="M325,471.56V465h11.25v1.88h1.88v5.63h-1.87v1.88h-7.5v3.75H325v-6.56Zm9.38-1.87v-2.81h-5.62v5.63h5.63v-2.81Z"/></svg>