<?xml version="1.0" ?><svg id="pkft" viewBox="0 0 500 500" xmlns="http://www.w3.org/2000/svg"><defs><style>.cls-1{fill:#d3a863;}.cls-2{fill:#ddb368;}.cls-3{fill:#e8bd69;}.cls-4{fill:#f2c968;}.cls-5{fill:#def0e6;}.cls-6{fill:#c86ca2;}.cls-7{fill:#221e1f;}.cls-8{fill:#fff;}.cls-9{fill:#1a1a1a;opacity:0.1;}.cls-10{fill:#f2ab68;}</style></defs><title/><path class="cls-1" d="M209.24,342.26c0,0.66-.06,1.33-0.06,2,0,21.38,18.82,38.73,41.82,39V364C234,363.83,217.91,355.18,209.24,342.26Z"/><path class="cls-2" d="M218.13,320.3a56.48,56.48,0,0,1-14.67-13.61,42.42,42.42,0,0,0-1.6,11.56,42.9,42.9,0,0,0,7.38,24C217.91,355.18,234,363.83,251,364V330A62,62,0,0,1,218.13,320.3Z"/><path class="cls-3" d="M227.91,278a70.29,70.29,0,0,1-31.07-20.46,49.87,49.87,0,0,0-3.64,18.71,50.59,50.59,0,0,0,10.27,30.44,56.47,56.47,0,0,0,14.67,13.61A62,62,0,0,0,251,330V281.76A75.71,75.71,0,0,1,227.91,278Z"/><path class="cls-4" d="M242.5,162.85l1.18-9.69c-35,3.59-62.2,30.91-62.2,64.1a61.16,61.16,0,0,0,15.35,40.29A70.27,70.27,0,0,0,227.91,278,75.71,75.71,0,0,0,251,281.76V173.27l-4.87-.25C243.38,172.88,241.82,168.3,242.5,162.85Z"/><path class="cls-5" d="M243.67,153.16l-1.17,9.69c-0.68,5.46.88,10,3.63,10.17l4.87,0.25V92.77Z"/><path class="cls-6" d="M250.26,215.77c-14.64,0-26.62,7.61-26.62,17s12,17,26.68,17H251v-34h-0.74Z"/><path class="cls-7" d="M226.78,190.3a6.27,6.27,0,0,1-.37,5.71c-1.58,2.87-4.68,4.19-6.92,3s-2.79-4.56-1.21-7.43a6.52,6.52,0,0,1,4.06-3.29c-3.26-.13-6.81,2-8.86,5.75-2.66,4.84-1.75,10.45,2,12.54s9-.14,11.69-5C229.44,197.5,229.15,192.91,226.78,190.3Z"/><path class="cls-8" d="M218.28,191.53c-1.58,2.87-1,6.19,1.21,7.43s5.34-.09,6.92-3a4.34,4.34,0,0,0-1.24-7,6.34,6.34,0,0,0-2.83-.77A6.52,6.52,0,0,0,218.28,191.53Z"/><circle class="cls-6" cx="200.51" cy="292.77" r="10"/><circle class="cls-6" cx="207.51" cy="332.77" r="7"/><circle class="cls-6" cx="215.51" cy="366.77" r="5.98"/><path class="cls-1" d="M291.26,342.26c0,0.66.31,1.33,0.31,2,0,21.38-18.57,38.73-41.57,39V364C267,363.83,282.59,355.18,291.26,342.26Z"/><path class="cls-2" d="M282.37,320.3a55.43,55.43,0,0,0,14.42-13.61,45.29,45.29,0,0,1-5.47,35.57C282.66,355.18,267,363.83,250,364V330A60.32,60.32,0,0,0,282.37,320.3Z"/><path class="cls-3" d="M272.59,278a69.49,69.49,0,0,0,30.82-20.46,49.78,49.78,0,0,1,3.51,18.71A50.65,50.65,0,0,1,296.6,306.7a54.52,54.52,0,0,1-14.2,13.61A60.43,60.43,0,0,1,250,330V281.76A72.53,72.53,0,0,0,272.59,278Z"/><path class="cls-4" d="M257.5,162.85l-1.18-9.69c35,3.59,62.2,30.91,62.2,64.1a61.16,61.16,0,0,1-15.35,40.29A68.69,68.69,0,0,1,272.59,278,72.53,72.53,0,0,1,250,281.76V173.27s1.62-.11,4.37-0.25S258.18,168.3,257.5,162.85Z"/><path class="cls-5" d="M256.83,153.16l0.92,9.69c0.68,5.46-.5,10-3.25,10.17s-4.49.25-4.49,0.25V92.77Z"/><path class="cls-6" d="M250.24,215.77c14.64,0,26.37,7.61,26.37,17s-11.67,17-26.31,17H250v-34h0.24Z"/><path class="cls-7" d="M273.22,190.3a6.27,6.27,0,0,0,.37,5.71c1.58,2.87,4.68,4.19,6.92,3s2.79-4.56,1.21-7.43a6.52,6.52,0,0,0-4.06-3.29c3.26-.13,6.81,2,8.86,5.75,2.66,4.84,1.75,10.45-2,12.54s-9-.14-11.69-5C270.56,197.5,270.85,192.91,273.22,190.3Z"/><path class="cls-8" d="M281.72,191.53c1.58,2.87,1,6.19-1.21,7.43s-5.34-.09-6.92-3a4.34,4.34,0,0,1,1.24-7,6.34,6.34,0,0,1,2.83-.77A6.52,6.52,0,0,1,281.72,191.53Z"/><circle class="cls-6" cx="299.49" cy="292.77" r="10"/><circle class="cls-6" cx="292.49" cy="332.77" r="7"/><circle class="cls-6" cx="284.49" cy="366.77" r="5.98"/><path class="cls-9" d="M306,285.23a50.22,50.22,0,0,0-2.75-27.69A69.87,69.87,0,0,1,272.35,278a69.45,69.45,0,0,0,30.81-20.46,61.16,61.16,0,0,0,15.35-40.29c0-33.1-27.07-60.37-61.93-64.07l0.24,0L250,92.77V383.23a43.15,43.15,0,0,0,30.22-12.54,5.7,5.7,0,0,0,4.38,2.06,5.92,5.92,0,0,0,5.92-6,6,6,0,0,0-3.56-5.45,36.33,36.33,0,0,0,4.25-17.07c0-.66-0.15-1.31-0.19-2l0,0c0.55-.82,1.06-1.65,1.54-2.5a7,7,0,0,0,4.63-12.14,44.82,44.82,0,0,0,1-9.37,42.39,42.39,0,0,0-1.54-11.56A56.31,56.31,0,0,1,286,317.55a56.71,56.71,0,0,0,10.56-10.85c1-1.27,1.84-2.59,2.67-3.94h0.25A10,10,0,0,0,306,285.23Z"/><path class="cls-10" d="M178.75,465.94V465h5.63v1.88h1.88v1.88h1.88v5.63h-1.87v1.88h-1.87v1.88h-5.62v-1.87h-1.87v-1.87H175v-5.62h1.88v-1.87h1.88v-0.94Zm3.75,1.88v-0.94h-3.75v7.5h1.88v1.88h3.75v-7.5H182.5v-0.94Z"/><path class="cls-10" d="M195.63,465.94V465h3.75v11.25h3.75v1.88H191.88v-1.87h3.75v-7.5h-1.87v-1.87h1.88v-0.94Z"/><path class="cls-10" d="M206.88,465.94V465h11.25v1.88h-1.87v1.88h-1.87v1.88h1.88v1.88h1.88v3.75h-1.87v1.88h-9.37v-1.87H205v-1.87h3.75v1.88h5.63V472.5h-5.62v-1.87h1.88v-1.87h1.88v-1.87h-5.62v-0.94Z"/><path class="cls-10" d="M235,471.56V465h3.75v5.63h1.88v-1.87h1.88v1.88h1.88V465h3.75v13.13h-3.75v-1.87H242.5v-1.87h-1.87v1.88h-1.87v1.88H235v-6.56Z"/><path class="cls-10" d="M250,471.56V465h13.13v1.88h-9.37v3.75h7.5v1.88h-7.5v3.75h9.38v1.88H250v-6.56Z"/><path class="cls-10" d="M265,471.56V465h13.13v1.88h-9.37v3.75h7.5v1.88h-7.5v3.75h9.38v1.88H265v-6.56Z"/><path class="cls-10" d="M280,471.56V465h9.38v1.88h1.88v1.88h1.88v5.63h-1.87v1.88h-1.87v1.88H280v-6.56Zm7.5-3.75v-0.94h-3.75v9.38h3.75v-1.87h1.88v-5.62H287.5v-0.94Z"/><path class="cls-10" d="M296.88,471.56V465h3.75v11.25h7.5v1.88H296.88v-6.56Z"/><path class="cls-10" d="M310,471.56V465h13.13v1.88h-9.37v3.75h7.5v1.88h-7.5v3.75h9.38v1.88H310v-6.56Z"/></svg>