<?xml version="1.0" ?><svg id="pkflt" viewBox="0 0 500 500" xmlns="http://www.w3.org/2000/svg"><defs><style>.cls-1{fill:#78bde0;}.cls-2{fill:#cae5e0;}.cls-3{fill:#54b0c6;}.cls-4{fill:#ddc38a;}.cls-5{fill:#63b4d3;}.cls-6{fill:#e8d197;}.cls-7{fill:none;}.cls-8{fill:#f1dda5;}.cls-9{fill:#852c37;}.cls-10{fill:#de8081;}.cls-11{fill:#fff;}.cls-12{fill:#538c90;}.cls-13{fill:#615461;}.cls-14{fill:#1a1a1a;}.cls-15{fill:#6bb8d6;}.cls-16{opacity:0.1;}</style></defs><title/><path class="cls-1" d="M223,458.75s0.14-.84.41-2.3A8.45,8.45,0,0,0,223,458.75Z"/><polygon class="cls-2" points="224.72 449.37 224.72 449.37 224.72 449.37 224.72 449.37"/><path class="cls-2" d="M226.43,447.93l6.37-5.35,3.92,6.79,2.62-8.93,5.35,7.15,2.85-9.51c-1.52-6.61-3.4-14.3-4.64-17.64C241.21,415.84,231.67,434.93,226.43,447.93Z"/><path class="cls-1" d="M223.39,456.45a86.51,86.51,0,0,1,3-8.51l-1.71,1.44C224.15,452.33,223.69,454.79,223.39,456.45Z"/><path class="cls-1" d="M245.71,409a9.26,9.26,0,0,1-7.43-3.74c-4.87,2.93-10.71,28.74-13.56,44.74H225v-0.53l1.57-1.49c5.24-13,14.71-32.12,16.41-27.53,1.22,3.3,3.26,10.82,4.77,17.37l0.25,0.26h0c1,6.11,2,11.3,2,11.3V409h-4.29Z"/><path class="cls-3" d="M247.76,380h2.05a1.4,1.4,0,0,1,.19.52V377h-4.29c-4.53,0-9.71,3.73-9.71,7.71v16.21c0,1.35,1,2.86,1.8,4a10.49,10.49,0,0,0,7.91,4.06H250v-4.49a1.37,1.37,0,0,0-.19-0.51h-2.05c-4.53,0-7.76-2.71-7.76-6.68v-9.6A7.76,7.76,0,0,1,247.76,380Z"/><path class="cls-4" d="M247.76,380a7.76,7.76,0,0,0-7.76,7.71v9.6c0,4,3.23,6.68,7.76,6.68h2.05a1.38,1.38,0,0,1,.19.51v-24a1.41,1.41,0,0,0-.19-0.52h-2.05Z"/><path class="cls-3" d="M249.8,386h-2.17c-4.8,0-8.63-4.15-8.63-9.26V364.39c0-5.12,3.83-9.39,8.63-9.39h2.17a0.4,0.4,0,0,1,.2.14V351h-4.54a9.88,9.88,0,0,0-9.46,9.53v20.84a10,10,0,0,0,9.46,9.63H250v-5h-0.2Z"/><path class="cls-4" d="M247.63,355c-4.8,0-8.63,4.27-8.63,9.39v12.35c0,5.12,3.83,9.26,8.63,9.26H250V355.14a0.4,0.4,0,0,0-.2-0.14h-2.17Z"/><path class="cls-5" d="M249.78,365H247.4c-5.26,0-11.4-4.76-11.4-9.88V342.77c0-5.12,6.14-9.77,11.4-9.77h2.38a1.32,1.32,0,0,1,.22.52V330h-5c-5.26,0-10,3.8-10,8.92v20.84c0,5.12,4.75,10.24,10,10.24h5v-5.63A1.75,1.75,0,0,1,249.78,365Z"/><path class="cls-6" d="M247.4,333c-5.26,0-11.4,4.66-11.4,9.77v12.35c0,5.12,6.14,9.88,11.4,9.88h2.38a1.75,1.75,0,0,0,.22-0.63V333.52a1.32,1.32,0,0,0-.22-0.52H247.4Z"/><path class="cls-3" d="M249.76,342h-2.56c-5.66,0-11.19-5.48-11.19-10.46v-12c0-5,5.53-8.54,11.19-8.54h2.56a1.06,1.06,0,0,0,.24-0.45V307h-5.37C239,307,234,310.82,234,315.79V336c0,5,5,10,10.63,10H250v-5.47A7.75,7.75,0,0,1,249.76,342Z"/><path class="cls-4" d="M247.19,311c-5.66,0-11.19,3.57-11.19,8.54v12c0,5,5.53,10.46,11.19,10.46h2.56a7.75,7.75,0,0,0,.24-1.47v-30a1.06,1.06,0,0,1-.24.45h-2.56Z"/><path class="cls-3" d="M249.74,322h-2.68c-5.93,0-12.06-3.47-12.06-7.89V303.44c0-4.42,6.14-7.44,12.06-7.44h2.68a1.39,1.39,0,0,0,.26-0.56V292h-5.62c-5.93,0-11.38,3.68-11.38,8.1v18c0,4.42,5.45,7.89,11.38,7.89H250v-3.9A0.7,0.7,0,0,0,249.74,322Z"/><path class="cls-4" d="M247.06,296c-5.93,0-12.06,3-12.06,7.44v10.67c0,4.42,6.14,7.89,12.06,7.89h2.68a0.7,0.7,0,0,1,.26.1V295.44a1.39,1.39,0,0,1-.26.56h-2.68Z"/><path class="cls-3" d="M249.73,302h-2.84c-6.27,0-12.89-5.08-12.89-10.76V277.52c0-5.68,6.61-10.52,12.89-10.52h2.84a0.61,0.61,0,0,1,.27.24V263h-6c-6.27,0-11,4.55-11,10.23v23.16A10.84,10.84,0,0,0,244,307h6v-5.48A1.1,1.1,0,0,1,249.73,302Z"/><path class="cls-4" d="M246.89,267c-6.27,0-12.89,4.83-12.89,10.52v13.72c0,5.68,6.61,10.76,12.89,10.76h2.84a1.1,1.1,0,0,0,.27-0.48V267.24a0.61,0.61,0,0,0-.27-0.24h-2.84Z"/><path class="cls-5" d="M249.7,278h-3.11c-6.88,0-13.58-5.09-13.58-10.77V253.5c0-5.68,6.7-9.5,13.58-9.5h3.11a2.16,2.16,0,0,0,.3-0.77V239h-6.53c-6.88,0-12.47,4.53-12.47,10.22v23.16c0,5.68,5.59,10.63,12.47,10.63H250v-5.5A1.13,1.13,0,0,1,249.7,278Z"/><path class="cls-6" d="M246.58,244c-6.88,0-13.58,3.82-13.58,9.5v13.72c0,5.68,6.7,10.77,13.58,10.77h3.11a1.13,1.13,0,0,0,.3-0.5V243.23a2.16,2.16,0,0,1-.3.77h-3.11Z"/><path class="cls-3" d="M249.67,251h-3.35c-7.41,0-14.32-4.45-14.32-10V227.69c0-5.52,6.91-9.69,14.32-9.69h3.35a0.8,0.8,0,0,0,.33-0.3V214h-7c-7.41,0-13,4-13,9.52V246c0,5.52,5.56,11,13,11h7v-6h-0.33Z"/><path class="cls-4" d="M246.32,218c-7.41,0-14.32,4.16-14.32,9.69V241c0,5.52,6.91,10,14.32,10H250V217.7a0.8,0.8,0,0,1-.33.3h-3.35Z"/><path class="cls-3" d="M249.65,222H246.1c-7.84,0-15.1-5.67-15.1-12.77V192.07C231,185,238.25,179,246.1,179h3.55a0.77,0.77,0,0,1,.35.23V174h-7.45c-7.84,0-14.55,5.61-14.55,12.71v28.95c0,7.11,6.7,12.34,14.55,12.34H250v-5.93A1.66,1.66,0,0,0,249.65,222Z"/><path class="cls-4" d="M246.1,179c-7.84,0-15.1,6-15.1,13.07v17.15c0,7.11,7.25,12.77,15.1,12.77h3.55a1.66,1.66,0,0,1,.35.07V179.23a0.77,0.77,0,0,0-.35-0.23H246.1Z"/><path class="cls-5" d="M249.61,186h-3.89c-8.6,0-15.72-5-15.72-12.15V156.7c0-7.11,7.12-13.7,15.72-13.7h3.89a2.2,2.2,0,0,1,.39.85V138h-8.18c-8.6,0-15.82,6.23-15.82,13.34v28.95c0,7.11,7.22,12.72,15.82,12.72H250v-6.3A1.71,1.71,0,0,0,249.61,186Z"/><path class="cls-6" d="M245.72,143c-8.6,0-15.72,6.59-15.72,13.7v17.15C230,181,237.12,186,245.72,186h3.89a1.71,1.71,0,0,1,.39.7V143.85a2.2,2.2,0,0,0-.39-0.85h-3.89Z"/><path class="cls-7" d="M249.13,125.19a13.37,13.37,0,0,1-4.27-.75c-0.21-.07-0.44-0.12-0.67-0.18l0.6,0.18A13.51,13.51,0,0,0,249.13,125.19Z"/><path class="cls-7" d="M242.73,124a12.25,12.25,0,0,1,1.22.24A11.19,11.19,0,0,0,242.73,124Z"/><path class="cls-7" d="M238.34,158.92l0,0a2.5,2.5,0,0,0,1.93,1,3.57,3.57,0,0,1-.77-0.2A2,2,0,0,1,238.34,158.92Z"/><path class="cls-7" d="M239.69,123.43a3.16,3.16,0,0,0-2.43,1.18l0.14-.09A3.12,3.12,0,0,1,239.69,123.43Z"/><path class="cls-7" d="M240.62,123.81a8.41,8.41,0,0,0-2,.23A9.18,9.18,0,0,1,240.62,123.81Z"/><path class="cls-7" d="M240.85,123.81l0.72,0,0.55,0.05-0.41-.05Z"/><path class="cls-8" d="M243.54,120.37c-3.42-1.21-9-1.13-9.89.92s-1.46,12.63-.73,15.28a50.69,50.69,0,0,1,1.84,12.59,16,16,0,0,1-.13,1.74c-0.61,4.52-2.22,14,4.87,13.22s10.49,0,10.49,0v-4.22s-2.75-.66-8.5,0a6.37,6.37,0,0,1-.78,0l-0.32,0-0.16,0a2.5,2.5,0,0,1-1.93-1,3.53,3.53,0,0,1-.43-0.61c-1.33-2.35-.65-6.63-0.32-9.09a25.67,25.67,0,0,0-.4-7.08c-0.32-1.89-.72-3.58-1-4.53-0.59-2.14-.1-10.72.59-12.38,0.07-.13.15-0.23,0.22-0.34a1.8,1.8,0,0,1,.27-0.24,3.43,3.43,0,0,1,2.57-1.18,5.8,5.8,0,0,1,2.17.4h0a0.94,0.94,0,0,0,.27.05L242.8,124a10.54,10.54,0,0,1,1.19.24l0.22,0.06c0.22,0.06.45,0.11,0.66,0.18a13.23,13.23,0,0,0,4.24.75,8.14,8.14,0,0,0,.89,0v-3.9A16.18,16.18,0,0,1,243.54,120.37Z"/><path class="cls-9" d="M249.11,125.19a13.46,13.46,0,0,1-4.33-.75l-0.59-.18L244,124.2a12.22,12.22,0,0,0-1.22-.24l-0.61-.08-0.55-.05-1.1,6.91-3.71-5.53c-0.69,1.7-1.16,10.23-.57,12.37,0.26,0.94.66,2.58,1,4.44,4.48-8.21,9.82-9.45,12.82-9.37v-7.48A7.9,7.9,0,0,1,249.11,125.19Z"/><path class="cls-9" d="M242.12,123.88l0.61,0.08Z"/><path class="cls-9" d="M236.2,137.58c-0.59-2.14-.12-10.67.57-12.37v0c-0.69,1.66-1.19,10.24-.59,12.38,0.26,1,.67,2.64,1,4.53l0.05-.09C236.89,140.16,236.46,138.52,236.2,137.58Z"/><path class="cls-9" d="M244,124.2l0.24,0.06Z"/><path class="cls-9" d="M250,125.16a9,9,0,0,1-.91,0A8.56,8.56,0,0,0,250,125.16Z"/><path class="cls-10" d="M237.18,142s0,0.06,0,.09a25.87,25.87,0,0,1,.47,7.08c-0.31,2.31-.66,6.18.27,8.59,0.64-1.84,5-5.47,5-5.47l-1.47,7.59c5.75-.63,8.5,0,8.5,0v-27.3C247,132.57,241.66,133.81,237.18,142Z"/><path class="cls-10" d="M237.69,149.19a25.85,25.85,0,0,0-.47-7.08l0-.09-0.05.09a25.67,25.67,0,0,1,.4,7.08c-0.33,2.46-1,6.74.32,9.09a1.16,1.16,0,0,1,.09-0.49C237,155.37,237.38,151.5,237.69,149.19Z"/><path class="cls-11" d="M237.39,124.51a3.93,3.93,0,0,1,1.2-.47,8.41,8.41,0,0,1,2-.23H241c0.27,0,0,0,1,0h0a6.06,6.06,0,0,0-2.17-.4A3.41,3.41,0,0,0,237.39,124.51Z"/><path class="cls-11" d="M239.69,123.43a4.94,4.94,0,0,1,2,.4A4.74,4.74,0,0,0,239.69,123.43Z"/><path class="cls-11" d="M236.78,125.19v0l3.71,5.53,1.1-6.91-0.72,0h-0.24a9.18,9.18,0,0,0-2,.23,2.83,2.83,0,0,0-1.46.81,3.7,3.7,0,0,1,.27-0.34l-0.14.09c-0.06.08-.13,0.15-0.19,0.24A1.56,1.56,0,0,0,236.78,125.19Z"/><path class="cls-11" d="M236.78,125.19a1.56,1.56,0,0,1,.29-0.34c0.06-.09.13-0.16,0.19-0.24a1.8,1.8,0,0,0-.27.24c-0.08.11-.15,0.22-0.22,0.34v0Z"/><path class="cls-11" d="M237.12,124.85a2.83,2.83,0,0,1,1.46-.81,3.93,3.93,0,0,0-1.2.47A3.7,3.7,0,0,0,237.12,124.85Z"/><path class="cls-11" d="M240.62,123.81h0Z"/><path class="cls-12" d="M239.46,159.68a3,3,0,0,1-1.13-.76A2,2,0,0,0,239.46,159.68Z"/><path class="cls-12" d="M241.52,159.91a5.44,5.44,0,0,1-.79,0A6.55,6.55,0,0,0,241.52,159.91Z"/><path class="cls-11" d="M238.34,158.92a1.14,1.14,0,0,1-.19-0.62,1.22,1.22,0,0,0,.16.59Z"/><path class="cls-11" d="M238,157.79c0.06,0.17.12,0.34,0.19,0.49,0,0.89,1.31,1.5,2.53,1.63a5.49,5.49,0,0,1-1.21-.23,3.57,3.57,0,0,0,.77.2l0.3,0,0.19,0a5.44,5.44,0,0,0,.79,0l1.45-7.59S238.6,155.94,238,157.79Z"/><path class="cls-11" d="M238.15,158.28c-0.08-.15-0.13-0.33-0.19-0.49a1.16,1.16,0,0,0-.09.49,3.53,3.53,0,0,0,.43.61,1.22,1.22,0,0,1-.16-0.59h0Z"/><path class="cls-11" d="M240.24,159.88l0.16,0,0.33,0-0.19,0Z"/><path class="cls-11" d="M238.76,158.92a2.26,2.26,0,0,0,.92.76,8.58,8.58,0,0,0,1.53.23c-1.22-.13-2.21-0.74-2.21-1.63h0A1.79,1.79,0,0,0,238.76,158.92Z"/><path class="cls-11" d="M228.43,113.64c0.2,1.79,15.66,3.39,15.66,1.25,0-.49-0.83-1.36-2.09-2.4q-1.27-.74-2.54-1.55c-0.47,2.59-1.5,4.4-2.72,4.4-1.65,0-3-3.33-3-7.43,0-.27,0-0.53,0-0.79-2.15-1.5-4-2.84-5.35-3.66C228.43,103.45,228.24,111.85,228.43,113.64Z"/><path class="cls-13" d="M236.75,115.33c1.21,0,2.25-1.81,2.72-4.4l-1.2-.77a0.81,0.81,0,0,1,.19.49,0.94,0.94,0,0,1-1,.89,1,1,0,0,1-.23,0,0.89,0.89,0,0,1-.59.7c-0.56,0-1-1.61-1-3.59,0-.08,0-0.15,0-0.22l-1.85-1.29c0,0.26,0,.52,0,0.79C233.76,112,235.1,115.33,236.75,115.33Z"/><path class="cls-13" d="M237.75,109.82l-0.15-.1v0.07Z"/><path class="cls-14" d="M236.64,112.21a0.89,0.89,0,0,0,.59-0.7,0.9,0.9,0,0,1-.75-0.85,0.94,0.94,0,0,1,1-.89l0.12,0v-0.07l-2-1.32c0,0.07,0,.15,0,0.22C235.64,110.6,236.09,112.21,236.64,112.21Z"/><path class="cls-11" d="M237.24,111.5a1,1,0,0,0,.23,0,0.94,0.94,0,0,0,1-.89,0.81,0.81,0,0,0-.19-0.49l-0.52-.34-0.16,0A6.84,6.84,0,0,1,237.24,111.5Z"/><path class="cls-11" d="M237.47,109.77a0.94,0.94,0,0,0-1,.89,0.9,0.9,0,0,0,.75.85,6.84,6.84,0,0,0,.36-1.71Z"/><path class="cls-1" d="M244.1,79.11c0-1.25,0-2.42,0-3.56-6.94.2-11.91,4.45-15.63,8.87-2,2.37-3.65,4.79-5,6.66,7.83,4,15.79,8.53,15.79,8.53s3.8,2.47,4.75-10.45C244.12,86.5,244.2,83.22,244.1,79.11Z"/><path class="cls-2" d="M249.75,52.87L250,27.25s-4.31.27-3.27,9.38,2.68,13.13.45,12.86S237.11,36,235.47,36.76c-1.42.7,2.68,19.8,4.35,26a33.72,33.72,0,0,1,5.91-2.69C247.14,54.93,249,53.31,249.75,52.87Z"/><path class="cls-15" d="M242.61,65.44s-1.34,1.21-2.23-.8a16.9,16.9,0,0,1-.56-1.83c-6,3.51-12.36,10-11.39,21.61,3.73-4.42,8.69-8.67,15.63-8.87a78.72,78.72,0,0,1,.62-10Z"/><path class="cls-15" d="M242.61,65.44l2.07,0.11a42.15,42.15,0,0,1,1.05-5.43,33.72,33.72,0,0,0-5.91,2.69,16.9,16.9,0,0,0,.56,1.83C241.27,66.64,242.61,65.44,242.61,65.44Z"/><path class="cls-12" d="M249.72,52.87c-0.72.45-2.6,2.07-4,7.24a42.24,42.24,0,0,0-1,5.43,78.78,78.78,0,0,0-.62,10c0,1.13,0,2.31,0,3.56,0.1,4.11,0,7.4-.17,10.05-1,12.93-4.75,10.45-4.75,10.45s-8-4.5-15.79-8.53c-6.4-3.29-12.72-6.27-14.52-6.21-2.31.08,3.05,5.32,8.87,10.27a118.49,118.49,0,0,0,10.71,8.31c1.33,0.82,3.21,2.15,5.35,3.66l1.85,1.29,2,1.32,0.15,0.1a1,1,0,0,1,.52.34l1.2,0.77c0.85,0.54,1.67,1.06,2.52,1.55a30.09,30.09,0,0,0,8,3.42V52.71Z"/><path class="cls-12" d="M237.75,109.82l0.52,0.34A1,1,0,0,0,237.75,109.82Z"/><path class="cls-1" d="M242,112.49c1.26,1,2.1,1.91,2.1,2.4,0,2.14-15.46.54-15.66-1.25s0-10.18,0-10.18a118.52,118.52,0,0,1-10.71-8.31,10,10,0,0,1-5.74-1l-0.8,5.9,8.34,6.26s-7.93-.53-8.32.81,9.72,13.51,9.72,13.51l-1.77,4.85c3,1.33,6.84,7.21,10,12.79-3.94,1.84-11.38,5.86-12.51,10.42a18.06,18.06,0,0,0-.07,6.07c0.37,3.83.76,7.8-2.81,11.76-2,2.19-3.45,4.11-4.63,5.66a23.86,23.86,0,0,1-2.61,3.1l0,0c-2.1-1.46-2.29-3-2.19-3.27a2,2,0,0,0-.32-3,2.56,2.56,0,0,0-3.35.29,4.39,4.39,0,0,0-1,3.58,8.78,8.78,0,0,0,4,5.82,5.15,5.15,0,0,0,3,1,4.53,4.53,0,0,0,.63,0c2.28-.32,3.71-2.18,5.87-5,1.14-1.49,2.55-3.33,4.41-5.39,4.79-5.31,4.28-10.6,3.86-14.84a15.22,15.22,0,0,1,0-4.76c0.56-2.28,5.66-5.46,10-7.5,1.87,3.54,3.22,6.41,3.51,7a41.6,41.6,0,0,0-.87-8.35,2,2,0,0,0,.46-2.39,2.27,2.27,0,0,0-1.23-1.07c-0.07-.29-0.14-0.55-0.21-0.78-0.73-2.65-.12-13.22.73-15.28s6.46-2.13,9.88-.92a16.18,16.18,0,0,0,6.46.88v-5.34A30.09,30.09,0,0,1,242,112.49Z"/><path class="cls-1" d="M276.57,458.75s-0.14-.84-0.41-2.3A8.45,8.45,0,0,1,276.57,458.75Z"/><polygon class="cls-2" points="274.83 449.37 274.83 449.37 274.83 449.37 274.83 449.37"/><path class="cls-2" d="M273.12,447.93l-6.37-5.35-3.92,6.79-2.62-8.93-5.35,7.15L252,438.07c1.52-6.61,3.4-14.3,4.64-17.64C258.34,415.84,267.88,434.93,273.12,447.93Z"/><path class="cls-1" d="M276.16,456.45a86.51,86.51,0,0,0-3-8.51l1.71,1.44C275.41,452.33,275.86,454.79,276.16,456.45Z"/><path class="cls-1" d="M253.84,409a9.26,9.26,0,0,0,7.43-3.74C266.14,408.18,272,434,274.83,450H275v-0.53L273.21,448c-5.24-13-14.82-32.12-16.52-27.53-1.22,3.3-3.09,10.78-4.6,17.34L252,438h0.27c-1.4,6-2.28,11.37-2.28,11.37V409h3.84Z"/><path class="cls-3" d="M251.79,380h-2.05a1.69,1.69,0,0,0,.26.52V377h3.84c4.53,0,10.16,3.73,10.16,7.71v16.21c0,1.35-1.2,2.86-2,4a11,11,0,0,1-8.13,4.06H250v-4.49a1.59,1.59,0,0,1-.26-0.51h2.05c4.53,0,8.21-2.71,8.21-6.68v-9.6C260,383.73,256.32,380,251.79,380Z"/><path class="cls-4" d="M251.79,380c4.53,0,8.21,3.73,8.21,7.71v9.6c0,4-3.68,6.68-8.21,6.68h-2.05a1.59,1.59,0,0,0,.26.51v-24a1.69,1.69,0,0,1-.26-0.52h2.05Z"/><path class="cls-3" d="M249.75,386h2.17a9.31,9.31,0,0,0,9.08-9.26V364.39a9.43,9.43,0,0,0-9.08-9.39h-2.17a0.72,0.72,0,0,0,.25.14V351h4.09c4.8,0,9.91,4.41,9.91,9.53v20.84c0,5.12-5.11,9.63-9.91,9.63H250v-5h-0.25Z"/><path class="cls-4" d="M251.92,355a9.43,9.43,0,0,1,9.08,9.39v12.35a9.31,9.31,0,0,1-9.08,9.26H250V355.14a0.72,0.72,0,0,1-.25-0.14h2.17Z"/><path class="cls-5" d="M249.77,365h2.38c5.26,0,11.85-4.76,11.85-9.88V342.77c0-5.12-6.58-9.77-11.85-9.77h-2.38a1.36,1.36,0,0,0,.23.52V330h4.54c5.26,0,10.46,3.8,10.46,8.92v20.84c0,5.12-5.2,10.24-10.46,10.24H250v-5.63A1.79,1.79,0,0,0,249.77,365Z"/><path class="cls-6" d="M252.15,333c5.26,0,11.85,4.66,11.85,9.77v12.35c0,5.12-6.58,9.88-11.85,9.88h-2.38a1.79,1.79,0,0,1,.23-0.63V333.52a1.36,1.36,0,0,1-.23-0.52h2.38Z"/><path class="cls-3" d="M249.79,342h2.56C258,342,264,336.52,264,331.54v-12c0-5-6-8.54-11.64-8.54h-2.56a0.94,0.94,0,0,1,.21-0.45V307h4.92c5.66,0,11.08,3.82,11.08,8.79V336c0,5-5.41,10-11.08,10H250v-5.47A7.73,7.73,0,0,0,249.79,342Z"/><path class="cls-4" d="M252.36,311c5.66,0,11.64,3.57,11.64,8.54v12c0,5-6,10.46-11.64,10.46h-2.56a7.73,7.73,0,0,1,.21-1.47v-30a0.94,0.94,0,0,0-.21.45h2.56Z"/><path class="cls-3" d="M249.81,322h2.68c5.93,0,12.51-3.47,12.51-7.89V303.44c0-4.42-6.59-7.44-12.51-7.44h-2.68a1.23,1.23,0,0,1,.19-0.56V292h5.17c5.93,0,11.83,3.68,11.83,8.1v18c0,4.42-5.9,7.89-11.83,7.89H250v-3.9S249.71,322,249.81,322Z"/><path class="cls-4" d="M252.49,296c5.93,0,12.51,3,12.51,7.44v10.67c0,4.42-6.59,7.89-12.51,7.89h-2.68c-0.1,0,.19.1,0.19,0.1V295.44a1.23,1.23,0,0,0-.19.56h2.68Z"/><path class="cls-3" d="M249.82,302h2.84c6.27,0,13.34-5.08,13.34-10.76V277.52c0-5.68-7.06-10.52-13.34-10.52h-2.84c-0.11,0,.18.24,0.18,0.24V263h5.5c6.27,0,11.5,4.55,11.5,10.23v23.16c0,5.68-5.22,10.61-11.5,10.61H250v-5.48A0.9,0.9,0,0,0,249.82,302Z"/><path class="cls-4" d="M252.66,267c6.27,0,13.34,4.83,13.34,10.52v13.72c0,5.68-7.06,10.76-13.34,10.76h-2.84a0.9,0.9,0,0,1,.18-0.48V267.24s-0.28-.24-0.18-0.24h2.84Z"/><path class="cls-5" d="M249.85,278H253c6.88,0,14-5.09,14-10.77V253.5c0-5.68-7.15-9.5-14-9.5h-3.11a1.81,1.81,0,0,1,.15-0.77V239h6.08C263,239,269,243.53,269,249.22v23.16c0,5.68-6,10.63-12.92,10.63H250v-5.5A0.82,0.82,0,0,0,249.85,278Z"/><path class="cls-6" d="M253,244c6.88,0,14,3.82,14,9.5v13.72c0,5.68-7.15,10.77-14,10.77h-3.11a0.82,0.82,0,0,1,.15-0.5V243.23a1.81,1.81,0,0,0-.15.77H253Z"/><path class="cls-3" d="M249.88,251h3.35c7.41,0,14.77-4.45,14.77-10V227.69c0-5.52-7.36-9.69-14.77-9.69h-3.35c-0.13,0,.12-0.3.12-0.3V214h6.59c7.41,0,13.41,4,13.41,9.52V246c0,5.52-6,11-13.41,11H250v-6S249.76,251,249.88,251Z"/><path class="cls-4" d="M253.23,218c7.41,0,14.77,4.16,14.77,9.69V241c0,5.52-7.36,10-14.77,10h-3.35c-0.13,0,.12,0,0.12,0V217.7s-0.24.3-.12,0.3h3.35Z"/><path class="cls-3" d="M249.9,222h3.55c7.84,0,15.55-5.67,15.55-12.77V192.07C269,185,261.3,179,253.45,179H249.9c-0.13,0,.1.22,0.1,0.23V174h7c7.84,0,15,5.61,15,12.71v28.95c0,7.11-7.15,12.34-15,12.34h-7v-5.93S249.77,222,249.9,222Z"/><path class="cls-4" d="M253.45,179c7.84,0,15.55,6,15.55,13.07v17.15c0,7.11-7.7,12.77-15.55,12.77H249.9c-0.13,0,.1.08,0.1,0.07V179.23s-0.23-.23-0.1-0.23h3.55Z"/><path class="cls-5" d="M249.94,186h3.89c8.6,0,16.17-5,16.17-12.15V156.7c0-7.11-7.57-13.7-16.17-13.7h-3.89a1.69,1.69,0,0,0,.06.85V138h7.73c8.6,0,16.27,6.23,16.27,13.34v28.95c0,7.11-7.67,12.72-16.27,12.72H250v-6.3A1.15,1.15,0,0,1,249.94,186Z"/><path class="cls-6" d="M253.83,143c8.6,0,16.17,6.59,16.17,13.7v17.15C270,181,262.43,186,253.83,186h-3.89a1.15,1.15,0,0,0,.06.7V143.85a1.69,1.69,0,0,1-.06-0.85h3.89Z"/><path class="cls-7" d="M250.42,125.19a13.37,13.37,0,0,0,4.27-.75c0.21-.07.44-0.12,0.67-0.18l-0.6.18A13.51,13.51,0,0,1,250.42,125.19Z"/><path class="cls-7" d="M256.82,124a12.25,12.25,0,0,0-1.22.24A11.19,11.19,0,0,1,256.82,124Z"/><path class="cls-7" d="M261.22,158.92l0,0a2.5,2.5,0,0,1-1.93,1,3.57,3.57,0,0,0,.77-0.2A2,2,0,0,0,261.22,158.92Z"/><path class="cls-7" d="M259.86,123.43a3.16,3.16,0,0,1,2.43,1.18l-0.14-.09A3.12,3.12,0,0,0,259.86,123.43Z"/><path class="cls-7" d="M258.93,123.81a8.41,8.41,0,0,1,2,.23A9.18,9.18,0,0,0,258.93,123.81Z"/><path class="cls-7" d="M258.7,123.81l-0.72,0-0.55.05,0.41-.05Z"/><path class="cls-8" d="M256.23,120.37c3.42-1.21,8.93-1.13,9.78.92s1.41,12.63.67,15.28a50.52,50.52,0,0,0-1.87,12.59,16.11,16.11,0,0,0,.11,1.74c0.61,4.52,2.44,14-4.65,13.22s-10.28,0-10.28,0v-4.22s2.53-.66,8.28,0a4.63,4.63,0,0,0,.67,0l0.27,0,0.13,0a2.47,2.47,0,0,0,1.92-1,3.5,3.5,0,0,0,.43-0.61c1.33-2.35.65-6.63,0.31-9.09a25.67,25.67,0,0,1,.4-7.08c0.32-1.89.72-3.58,1-4.53,0.59-2.14.1-10.72-.6-12.38-0.07-.13-0.15-0.23-0.23-0.34a1.8,1.8,0,0,0-.27-0.24,3,3,0,0,0-2.35-1.18,4.19,4.19,0,0,0-1.94.4h0c-1,0-.35,0-0.49.05l-0.65.08a11.58,11.58,0,0,0-1.24.24l-0.25.06c-0.22.06-.46,0.11-0.67,0.18a12.14,12.14,0,0,1-4,.75,2.84,2.84,0,0,1-.67,0v-3.9A15.23,15.23,0,0,0,256.23,120.37Z"/><path class="cls-9" d="M250.67,125.19a12.88,12.88,0,0,0,4.22-.75c0.19-.07.33-0.13,0.53-0.18l0.21-.06a11.94,11.94,0,0,1,1.21-.24l0.6-.08,0.54-.05,1.1,6.91,3.7-5.53c0.69,1.7,1.16,10.23.57,12.37-0.26.94-.44,2.58-0.76,4.44-4.48-8.21-10.59-9.45-12.59-9.37v-7.48A2.68,2.68,0,0,0,250.67,125.19Z"/><path class="cls-9" d="M257.43,123.88l-0.61.08Z"/><path class="cls-9" d="M263.35,137.58c0.59-2.14.12-10.67-.57-12.37v0c0.69,1.66,1.19,10.24.59,12.38-0.26,1-.67,2.64-1,4.53l-0.05-.09C262.66,140.16,263.09,138.52,263.35,137.58Z"/><path class="cls-9" d="M255.59,124.2l-0.24.06Z"/><path class="cls-9" d="M249.51,125.16a9,9,0,0,0,.91,0A8.56,8.56,0,0,1,249.51,125.16Z"/><path class="cls-10" d="M262.59,142s-0.13.06-.14,0.09a26,26,0,0,0-.53,7.08c0.31,2.31.63,6.18-.29,8.59-0.64-1.84-5-5.47-5-5.47l1.69,7.59c-5.75-.63-8.29,0-8.29,0v-27.3C252,132.57,258.11,133.81,262.59,142Z"/><path class="cls-10" d="M261.86,149.19a25.85,25.85,0,0,1,.47-7.08l0-.09,0.05,0.09a25.67,25.67,0,0,0-.4,7.08c0.33,2.46,1,6.74-.32,9.09a1.16,1.16,0,0,0-.09-0.49C262.52,155.37,262.17,151.5,261.86,149.19Z"/><path class="cls-11" d="M262.16,124.51A3.93,3.93,0,0,0,261,124a8.41,8.41,0,0,0-2-.23h-0.15c-0.27,0-.78,0-0.78,0h0a4.35,4.35,0,0,1,1.94-.4A3,3,0,0,1,262.16,124.51Z"/><path class="cls-11" d="M259.86,123.43a4.94,4.94,0,0,0-2,.4A4.74,4.74,0,0,1,259.86,123.43Z"/><path class="cls-11" d="M262.77,125.19v0l-3.71,5.53-1.1-6.91,0.72,0h0.24a9.18,9.18,0,0,1,2,.23,2.83,2.83,0,0,1,1.46.81,3.7,3.7,0,0,0-.27-0.34l0.14,0.09c0.06,0.08.13,0.15,0.19,0.24A1.56,1.56,0,0,1,262.77,125.19Z"/><path class="cls-11" d="M262.77,125.19a1.56,1.56,0,0,0-.29-0.34c-0.06-.09-0.13-0.16-0.19-0.24a1.8,1.8,0,0,1,.27.24c0.08,0.11.15,0.22,0.22,0.34v0Z"/><path class="cls-11" d="M262.43,124.85A2.83,2.83,0,0,0,261,124a3.93,3.93,0,0,1,1.2.47A3.7,3.7,0,0,1,262.43,124.85Z"/><path class="cls-11" d="M258.93,123.81h0Z"/><path class="cls-12" d="M260.09,159.68a3,3,0,0,0,1.13-.76A2,2,0,0,1,260.09,159.68Z"/><path class="cls-12" d="M258,159.91a5.44,5.44,0,0,0,.79,0A6.55,6.55,0,0,1,258,159.91Z"/><path class="cls-11" d="M261.22,158.92a1.14,1.14,0,0,0,.19-0.62,1.22,1.22,0,0,1-.16.59Z"/><path class="cls-11" d="M261.6,157.79c-0.06.17-.12,0.34-0.19,0.49,0,0.89-1.31,1.5-2.53,1.63a5.49,5.49,0,0,0,1.21-.23,3.57,3.57,0,0,1-.77.2l-0.3,0-0.19,0a5.44,5.44,0,0,1-.79,0l-1.45-7.59S261,155.94,261.6,157.79Z"/><path class="cls-11" d="M261.4,158.28c0.08-.15.13-0.33,0.19-0.49a1.16,1.16,0,0,1,.09.49,3.53,3.53,0,0,1-.43.61,1.22,1.22,0,0,0,.16-0.59h0Z"/><path class="cls-11" d="M259.31,159.88l-0.16,0-0.33,0,0.19,0Z"/><path class="cls-11" d="M261,158.92a2.61,2.61,0,0,1-1,.76,6.86,6.86,0,0,1-1.36.23c1.22-.13,2.38-0.74,2.38-1.63h0A1.18,1.18,0,0,1,261,158.92Z"/><path class="cls-11" d="M271.12,113.64c-0.2,1.79-15.66,3.39-15.66,1.25,0-.49.83-1.36,2.09-2.4q1.27-.74,2.54-1.55c0.47,2.59,1.5,4.4,2.72,4.4,1.65,0,3-3.33,3-7.43,0-.27,0-0.53,0-0.79,2.15-1.5,4-2.84,5.35-3.66C271.12,103.45,271.32,111.85,271.12,113.64Z"/><path class="cls-13" d="M262.8,115.33c-1.21,0-2.25-1.81-2.72-4.4l1.2-.77a0.81,0.81,0,0,0-.19.49,0.94,0.94,0,0,0,1,.89,1,1,0,0,0,.23,0,0.89,0.89,0,0,0,.59.7c0.56,0,1-1.61,1-3.59,0-.08,0-0.15,0-0.22l1.85-1.29c0,0.26,0,.52,0,0.79C265.79,112,264.45,115.33,262.8,115.33Z"/><path class="cls-13" d="M261.8,109.82l0.15-.1v0.07Z"/><path class="cls-14" d="M262.91,112.21a0.89,0.89,0,0,1-.59-0.7,0.9,0.9,0,0,0,.75-0.85,0.94,0.94,0,0,0-1-.89l-0.12,0v-0.07l2-1.32c0,0.07,0,.15,0,0.22C263.92,110.6,263.46,112.21,262.91,112.21Z"/><path class="cls-11" d="M262.31,111.5a1,1,0,0,1-.23,0,0.94,0.94,0,0,1-1-.89,0.81,0.81,0,0,1,.19-0.49l0.52-.34,0.16,0A6.84,6.84,0,0,0,262.31,111.5Z"/><path class="cls-11" d="M262.08,109.77a0.94,0.94,0,0,1,1,.89,0.9,0.9,0,0,1-.75.85,6.84,6.84,0,0,1-.36-1.71Z"/><path class="cls-1" d="M255.46,79.11c0-1.25,0-2.42,0-3.56,6.94,0.2,11.91,4.45,15.63,8.87,2,2.37,3.65,4.79,5,6.66-7.83,4-15.79,8.53-15.79,8.53s-3.8,2.47-4.75-10.45C255.43,86.5,255.35,83.22,255.46,79.11Z"/><path class="cls-2" d="M249.8,52.87l-0.3-25.62s4.31,0.27,3.27,9.38-2.68,13.13-.45,12.86S262.44,36,264.08,36.76c1.42,0.7-2.68,19.8-4.35,26a33.72,33.72,0,0,0-5.91-2.69C252.41,54.93,250.52,53.31,249.8,52.87Z"/><path class="cls-15" d="M256.94,65.44s1.34,1.21,2.23-.8a16.9,16.9,0,0,0,.56-1.83c6,3.51,12.36,10,11.39,21.61-3.73-4.42-8.69-8.67-15.63-8.87a78.72,78.72,0,0,0-.62-10Z"/><path class="cls-15" d="M256.94,65.44l-2.07.11a42.15,42.15,0,0,0-1.05-5.43,33.72,33.72,0,0,1,5.91,2.69,16.9,16.9,0,0,1-.56,1.83C258.28,66.64,256.94,65.44,256.94,65.44Z"/><path class="cls-12" d="M250.05,52.87c0.72,0.45,2.48,2.07,3.89,7.24a43.17,43.17,0,0,1,1,5.43,79.41,79.41,0,0,1,.59,10c0,1.13,0,2.31,0,3.56-0.1,4.11,0,7.4.17,10.05,1,12.93,4.75,10.45,4.75,10.45s8-4.5,15.79-8.53c6.4-3.29,12.72-6.27,14.52-6.21,2.31,0.08-3.05,5.32-8.87,10.27a118.49,118.49,0,0,1-10.71,8.31c-1.33.82-3.21,2.15-5.35,3.66l-1.85,1.29-2,1.32-0.15.1a1,1,0,0,0-.52.34l-1.2.77c-0.85.54-1.45,1.06-2.3,1.55a55.42,55.42,0,0,1-7.79,3.42V52.71S249.87,52.75,250.05,52.87Z"/><path class="cls-12" d="M261.8,109.82l-0.52.34A1,1,0,0,1,261.8,109.82Z"/><path class="cls-1" d="M257.79,112.49c-1.26,1-2.21,1.91-2.21,2.4,0,2.14,15.4.54,15.6-1.25s0-10.18,0-10.18a118.84,118.84,0,0,0,10.69-8.31,10,10,0,0,0,5.74-1l0.8,5.9L280,106.32s7.92-.53,8.32.81-9.72,13.51-9.72,13.51l1.77,4.85c-3,1.33-6.84,7.21-10,12.79,3.94,1.84,11.38,5.86,12.51,10.42a18.06,18.06,0,0,1,.07,6.07c-0.37,3.83-.76,7.8,2.81,11.76,2,2.19,3.45,4.11,4.63,5.66a23.86,23.86,0,0,0,2.61,3.1l0,0c2.1-1.46,2.29-3,2.19-3.27a2,2,0,0,1,.32-3,2.56,2.56,0,0,1,3.35.29,4.39,4.39,0,0,1,1,3.58,8.78,8.78,0,0,1-4,5.82,5.15,5.15,0,0,1-3,1,4.53,4.53,0,0,1-.63,0c-2.28-.32-3.71-2.18-5.87-5-1.14-1.49-2.55-3.33-4.41-5.39-4.79-5.31-4.28-10.6-3.86-14.84a15.22,15.22,0,0,0,0-4.76c-0.56-2.28-5.66-5.46-10-7.5-1.87,3.54-3.22,6.41-3.51,7a41.6,41.6,0,0,1,.87-8.35,2,2,0,0,1-.46-2.39,2.27,2.27,0,0,1,1.23-1.07c0.07-.29.14-0.55,0.21-0.78,0.73-2.65.12-13.22-.73-15.28s-6.23-2.13-9.66-.92a15.23,15.23,0,0,1-6.23.88v-5.34A55.42,55.42,0,0,0,257.79,112.49Z"/><g class="cls-16"><path class="cls-14" d="M276.57,458.75s-0.14-.84-0.41-2.3A8.45,8.45,0,0,1,276.57,458.75Z"/><polygon class="cls-14" points="274.83 449.37 274.83 449.37 274.83 449.37 274.83 449.37"/><path class="cls-14" d="M273.12,447.93l-6.37-5.35-3.92,6.79-2.62-8.93-5.35,7.15L252,438.07c1.52-6.61,3.4-14.3,4.64-17.64C258.34,415.84,267.88,434.93,273.12,447.93Z"/><path class="cls-14" d="M276.16,456.45a86.51,86.51,0,0,0-3-8.51l1.71,1.44C275.41,452.33,275.86,454.79,276.16,456.45Z"/><path class="cls-14" d="M253.84,409a9.26,9.26,0,0,0,7.43-3.74C266.14,408.18,272,434,274.83,450H275v-0.53L273.21,448c-5.24-13-14.82-32.12-16.52-27.53-1.22,3.3-3.09,10.78-4.6,17.34L252,438h0.27c-1.4,6-2.28,11.37-2.28,11.37V409h3.84Z"/><path class="cls-14" d="M251.79,380h-2.05a1.69,1.69,0,0,0,.26.52V377h3.84c4.53,0,10.16,3.73,10.16,7.71v16.21c0,1.35-1.2,2.86-2,4a11,11,0,0,1-8.13,4.06H250v-4.49a1.59,1.59,0,0,1-.26-0.51h2.05c4.53,0,8.21-2.71,8.21-6.68v-9.6C260,383.73,256.32,380,251.79,380Z"/><path class="cls-14" d="M251.79,380c4.53,0,8.21,3.73,8.21,7.71v9.6c0,4-3.68,6.68-8.21,6.68h-2.05a1.59,1.59,0,0,0,.26.51v-24a1.69,1.69,0,0,1-.26-0.52h2.05Z"/><path class="cls-14" d="M249.75,386h2.17a9.31,9.31,0,0,0,9.08-9.26V364.39a9.43,9.43,0,0,0-9.08-9.39h-2.17a0.72,0.72,0,0,0,.25.14V351h4.09c4.8,0,9.91,4.41,9.91,9.53v20.84c0,5.12-5.11,9.63-9.91,9.63H250v-5h-0.25Z"/><path class="cls-14" d="M251.92,355a9.43,9.43,0,0,1,9.08,9.39v12.35a9.31,9.31,0,0,1-9.08,9.26H250V355.14a0.72,0.72,0,0,1-.25-0.14h2.17Z"/><path class="cls-14" d="M249.77,365h2.38c5.26,0,11.85-4.76,11.85-9.88V342.77c0-5.12-6.58-9.77-11.85-9.77h-2.38a1.36,1.36,0,0,0,.23.52V330h4.54c5.26,0,10.46,3.8,10.46,8.92v20.84c0,5.12-5.2,10.24-10.46,10.24H250v-5.63A1.79,1.79,0,0,0,249.77,365Z"/><path class="cls-14" d="M252.15,333c5.26,0,11.85,4.66,11.85,9.77v12.35c0,5.12-6.58,9.88-11.85,9.88h-2.38a1.79,1.79,0,0,1,.23-0.63V333.52a1.36,1.36,0,0,1-.23-0.52h2.38Z"/><path class="cls-14" d="M249.79,342h2.56C258,342,264,336.52,264,331.54v-12c0-5-6-8.54-11.64-8.54h-2.56a0.94,0.94,0,0,1,.21-0.45V307h4.92c5.66,0,11.08,3.82,11.08,8.79V336c0,5-5.41,10-11.08,10H250v-5.47A7.73,7.73,0,0,0,249.79,342Z"/><path class="cls-14" d="M252.36,311c5.66,0,11.64,3.57,11.64,8.54v12c0,5-6,10.46-11.64,10.46h-2.56a7.73,7.73,0,0,1,.21-1.47v-30a0.94,0.94,0,0,0-.21.45h2.56Z"/><path class="cls-14" d="M249.81,322h2.68c5.93,0,12.51-3.47,12.51-7.89V303.44c0-4.42-6.59-7.44-12.51-7.44h-2.68a1.23,1.23,0,0,1,.19-0.56V292h5.17c5.93,0,11.83,3.68,11.83,8.1v18c0,4.42-5.9,7.89-11.83,7.89H250v-3.9S249.71,322,249.81,322Z"/><path class="cls-14" d="M252.49,296c5.93,0,12.51,3,12.51,7.44v10.67c0,4.42-6.59,7.89-12.51,7.89h-2.68c-0.1,0,.19.1,0.19,0.1V295.44a1.23,1.23,0,0,0-.19.56h2.68Z"/><path class="cls-14" d="M249.82,302h2.84c6.27,0,13.34-5.08,13.34-10.76V277.52c0-5.68-7.06-10.52-13.34-10.52h-2.84c-0.11,0,.18.24,0.18,0.24V263h5.5c6.27,0,11.5,4.55,11.5,10.23v23.16c0,5.68-5.22,10.61-11.5,10.61H250v-5.48A0.9,0.9,0,0,0,249.82,302Z"/><path class="cls-14" d="M252.66,267c6.27,0,13.34,4.83,13.34,10.52v13.72c0,5.68-7.06,10.76-13.34,10.76h-2.84a0.9,0.9,0,0,1,.18-0.48V267.24s-0.28-.24-0.18-0.24h2.84Z"/><path class="cls-14" d="M249.85,278H253c6.88,0,14-5.09,14-10.77V253.5c0-5.68-7.15-9.5-14-9.5h-3.11a1.81,1.81,0,0,1,.15-0.77V239h6.08C263,239,269,243.53,269,249.22v23.16c0,5.68-6,10.63-12.92,10.63H250v-5.5A0.82,0.82,0,0,0,249.85,278Z"/><path class="cls-14" d="M253,244c6.88,0,14,3.82,14,9.5v13.72c0,5.68-7.15,10.77-14,10.77h-3.11a0.82,0.82,0,0,1,.15-0.5V243.23a1.81,1.81,0,0,0-.15.77H253Z"/><path class="cls-14" d="M249.88,251h3.35c7.41,0,14.77-4.45,14.77-10V227.69c0-5.52-7.36-9.69-14.77-9.69h-3.35c-0.13,0,.12-0.3.12-0.3V214h6.59c7.41,0,13.41,4,13.41,9.52V246c0,5.52-6,11-13.41,11H250v-6S249.76,251,249.88,251Z"/><path class="cls-14" d="M253.23,218c7.41,0,14.77,4.16,14.77,9.69V241c0,5.52-7.36,10-14.77,10h-3.35c-0.13,0,.12,0,0.12,0V217.7s-0.24.3-.12,0.3h3.35Z"/><path class="cls-14" d="M249.9,222h3.55c7.84,0,15.55-5.67,15.55-12.77V192.07C269,185,261.3,179,253.45,179H249.9c-0.13,0,.1.22,0.1,0.23V174h7c7.84,0,15,5.61,15,12.71v28.95c0,7.11-7.15,12.34-15,12.34h-7v-5.93S249.77,222,249.9,222Z"/><path class="cls-14" d="M253.45,179c7.84,0,15.55,6,15.55,13.07v17.15c0,7.11-7.7,12.77-15.55,12.77H249.9c-0.13,0,.1.08,0.1,0.07V179.23s-0.23-.23-0.1-0.23h3.55Z"/><path class="cls-14" d="M249.94,186h3.89c8.6,0,16.17-5,16.17-12.15V156.7c0-7.11-7.57-13.7-16.17-13.7h-3.89a1.69,1.69,0,0,0,.06.85V138h7.73c8.6,0,16.27,6.23,16.27,13.34v28.95c0,7.11-7.67,12.72-16.27,12.72H250v-6.3A1.15,1.15,0,0,1,249.94,186Z"/><path class="cls-14" d="M253.83,143c8.6,0,16.17,6.59,16.17,13.7v17.15C270,181,262.43,186,253.83,186h-3.89a1.15,1.15,0,0,0,.06.7V143.85a1.69,1.69,0,0,1-.06-0.85h3.89Z"/><path class="cls-14" d="M250.42,125.19a13.37,13.37,0,0,0,4.27-.75c0.21-.07.44-0.12,0.67-0.18l-0.6.18A13.51,13.51,0,0,1,250.42,125.19Z"/><path class="cls-14" d="M256.82,124a12.25,12.25,0,0,0-1.22.24A11.19,11.19,0,0,1,256.82,124Z"/><path class="cls-14" d="M261.22,158.92l0,0a2.5,2.5,0,0,1-1.93,1,3.57,3.57,0,0,0,.77-0.2A2,2,0,0,0,261.22,158.92Z"/><path class="cls-14" d="M259.86,123.43a3.16,3.16,0,0,1,2.43,1.18l-0.14-.09A3.12,3.12,0,0,0,259.86,123.43Z"/><path class="cls-14" d="M258.93,123.81a8.41,8.41,0,0,1,2,.23A9.18,9.18,0,0,0,258.93,123.81Z"/><path class="cls-14" d="M258.7,123.81l-0.72,0-0.55.05,0.41-.05Z"/><path class="cls-14" d="M256.23,120.37c3.42-1.21,8.93-1.13,9.78.92s1.41,12.63.67,15.28a50.52,50.52,0,0,0-1.87,12.59,16.11,16.11,0,0,0,.11,1.74c0.61,4.52,2.44,14-4.65,13.22s-10.28,0-10.28,0v-4.22s2.53-.66,8.28,0a4.63,4.63,0,0,0,.67,0l0.27,0,0.13,0a2.47,2.47,0,0,0,1.92-1,3.5,3.5,0,0,0,.43-0.61c1.33-2.35.65-6.63,0.31-9.09a25.67,25.67,0,0,1,.4-7.08c0.32-1.89.72-3.58,1-4.53,0.59-2.14.1-10.72-.6-12.38-0.07-.13-0.15-0.23-0.23-0.34a1.8,1.8,0,0,0-.27-0.24,3,3,0,0,0-2.35-1.18,4.19,4.19,0,0,0-1.94.4h0c-1,0-.35,0-0.49.05l-0.65.08a11.58,11.58,0,0,0-1.24.24l-0.25.06c-0.22.06-.46,0.11-0.67,0.18a12.14,12.14,0,0,1-4,.75,2.84,2.84,0,0,1-.67,0v-3.9A15.23,15.23,0,0,0,256.23,120.37Z"/><path class="cls-14" d="M250.67,125.19a12.88,12.88,0,0,0,4.22-.75c0.19-.07.33-0.13,0.53-0.18l0.21-.06a11.94,11.94,0,0,1,1.21-.24l0.6-.08,0.54-.05,1.1,6.91,3.7-5.53c0.69,1.7,1.16,10.23.57,12.37-0.26.94-.44,2.58-0.76,4.44-4.48-8.21-10.59-9.45-12.59-9.37v-7.48A2.68,2.68,0,0,0,250.67,125.19Z"/><path class="cls-14" d="M257.43,123.88l-0.61.08Z"/><path class="cls-14" d="M263.35,137.58c0.59-2.14.12-10.67-.57-12.37v0c0.69,1.66,1.19,10.24.59,12.38-0.26,1-.67,2.64-1,4.53l-0.05-.09C262.66,140.16,263.09,138.52,263.35,137.58Z"/><path class="cls-14" d="M255.59,124.2l-0.24.06Z"/><path class="cls-14" d="M249.51,125.16a9,9,0,0,0,.91,0A8.56,8.56,0,0,1,249.51,125.16Z"/><path class="cls-14" d="M262.59,142s-0.13.06-.14,0.09a26,26,0,0,0-.53,7.08c0.31,2.31.63,6.18-.29,8.59-0.64-1.84-5-5.47-5-5.47l1.69,7.59c-5.75-.63-8.29,0-8.29,0v-27.3C252,132.57,258.11,133.81,262.59,142Z"/><path class="cls-14" d="M261.86,149.19a25.85,25.85,0,0,1,.47-7.08l0-.09,0.05,0.09a25.67,25.67,0,0,0-.4,7.08c0.33,2.46,1,6.74-.32,9.09a1.16,1.16,0,0,0-.09-0.49C262.52,155.37,262.17,151.5,261.86,149.19Z"/><path class="cls-14" d="M262.16,124.51A3.93,3.93,0,0,0,261,124a8.41,8.41,0,0,0-2-.23h-0.15c-0.27,0-.78,0-0.78,0h0a4.35,4.35,0,0,1,1.94-.4A3,3,0,0,1,262.16,124.51Z"/><path class="cls-14" d="M259.86,123.43a4.94,4.94,0,0,0-2,.4A4.74,4.74,0,0,1,259.86,123.43Z"/><path class="cls-14" d="M262.77,125.19v0l-3.71,5.53-1.1-6.91,0.72,0h0.24a9.18,9.18,0,0,1,2,.23,2.83,2.83,0,0,1,1.46.81,3.7,3.7,0,0,0-.27-0.34l0.14,0.09c0.06,0.08.13,0.15,0.19,0.24A1.56,1.56,0,0,1,262.77,125.19Z"/><path class="cls-14" d="M262.77,125.19a1.56,1.56,0,0,0-.29-0.34c-0.06-.09-0.13-0.16-0.19-0.24a1.8,1.8,0,0,1,.27.24c0.08,0.11.15,0.22,0.22,0.34v0Z"/><path class="cls-14" d="M262.43,124.85A2.83,2.83,0,0,0,261,124a3.93,3.93,0,0,1,1.2.47A3.7,3.7,0,0,1,262.43,124.85Z"/><path class="cls-14" d="M258.93,123.81h0Z"/><path class="cls-14" d="M260.09,159.68a3,3,0,0,0,1.13-.76A2,2,0,0,1,260.09,159.68Z"/><path class="cls-14" d="M258,159.91a5.44,5.44,0,0,0,.79,0A6.55,6.55,0,0,1,258,159.91Z"/><path class="cls-14" d="M261.22,158.92a1.14,1.14,0,0,0,.19-0.62,1.22,1.22,0,0,1-.16.59Z"/><path class="cls-14" d="M261.6,157.79c-0.06.17-.12,0.34-0.19,0.49,0,0.89-1.31,1.5-2.53,1.63a5.49,5.49,0,0,0,1.21-.23,3.57,3.57,0,0,1-.77.2l-0.3,0-0.19,0a5.44,5.44,0,0,1-.79,0l-1.45-7.59S261,155.94,261.6,157.79Z"/><path class="cls-14" d="M261.4,158.28c0.08-.15.13-0.33,0.19-0.49a1.16,1.16,0,0,1,.09.49,3.53,3.53,0,0,1-.43.61,1.22,1.22,0,0,0,.16-0.59h0Z"/><path class="cls-14" d="M259.31,159.88l-0.16,0-0.33,0,0.19,0Z"/><path class="cls-14" d="M261,158.92a2.61,2.61,0,0,1-1,.76,6.86,6.86,0,0,1-1.36.23c1.22-.13,2.38-0.74,2.38-1.63h0A1.18,1.18,0,0,1,261,158.92Z"/><path class="cls-14" d="M271.12,113.64c-0.2,1.79-15.66,3.39-15.66,1.25,0-.49.83-1.36,2.09-2.4q1.27-.74,2.54-1.55c0.47,2.59,1.5,4.4,2.72,4.4,1.65,0,3-3.33,3-7.43,0-.27,0-0.53,0-0.79,2.15-1.5,4-2.84,5.35-3.66C271.12,103.45,271.32,111.85,271.12,113.64Z"/><path class="cls-14" d="M262.8,115.33c-1.21,0-2.25-1.81-2.72-4.4l1.2-.77a0.81,0.81,0,0,0-.19.49,0.94,0.94,0,0,0,1,.89,1,1,0,0,0,.23,0,0.89,0.89,0,0,0,.59.7c0.56,0,1-1.61,1-3.59,0-.08,0-0.15,0-0.22l1.85-1.29c0,0.26,0,.52,0,0.79C265.79,112,264.45,115.33,262.8,115.33Z"/><path class="cls-14" d="M261.8,109.82l0.15-.1v0.07Z"/><path class="cls-14" d="M262.91,112.21a0.89,0.89,0,0,1-.59-0.7,0.9,0.9,0,0,0,.75-0.85,0.94,0.94,0,0,0-1-.89l-0.12,0v-0.07l2-1.32c0,0.07,0,.15,0,0.22C263.92,110.6,263.46,112.21,262.91,112.21Z"/><path class="cls-14" d="M262.31,111.5a1,1,0,0,1-.23,0,0.94,0.94,0,0,1-1-.89,0.81,0.81,0,0,1,.19-0.49l0.52-.34,0.16,0A6.84,6.84,0,0,0,262.31,111.5Z"/><path class="cls-14" d="M262.08,109.77a0.94,0.94,0,0,1,1,.89,0.9,0.9,0,0,1-.75.85,6.84,6.84,0,0,1-.36-1.71Z"/><path class="cls-14" d="M255.46,79.11c0-1.25,0-2.42,0-3.56,6.94,0.2,11.91,4.45,15.63,8.87,2,2.37,3.65,4.79,5,6.66-7.83,4-15.79,8.53-15.79,8.53s-3.8,2.47-4.75-10.45C255.43,86.5,255.35,83.22,255.46,79.11Z"/><path class="cls-14" d="M249.8,52.87l-0.3-25.62s4.31,0.27,3.27,9.38-2.68,13.13-.45,12.86S262.44,36,264.08,36.76c1.42,0.7-2.68,19.8-4.35,26a33.72,33.72,0,0,0-5.91-2.69C252.41,54.93,250.52,53.31,249.8,52.87Z"/><path class="cls-14" d="M256.94,65.44s1.34,1.21,2.23-.8a16.9,16.9,0,0,0,.56-1.83c6,3.51,12.36,10,11.39,21.61-3.73-4.42-8.69-8.67-15.63-8.87a78.72,78.72,0,0,0-.62-10Z"/><path class="cls-14" d="M256.94,65.44l-2.07.11a42.15,42.15,0,0,0-1.05-5.43,33.72,33.72,0,0,1,5.91,2.69,16.9,16.9,0,0,1-.56,1.83C258.28,66.64,256.94,65.44,256.94,65.44Z"/><path class="cls-14" d="M250.05,52.87c0.72,0.45,2.48,2.07,3.89,7.24a43.17,43.17,0,0,1,1,5.43,79.41,79.41,0,0,1,.59,10c0,1.13,0,2.31,0,3.56-0.1,4.11,0,7.4.17,10.05,1,12.93,4.75,10.45,4.75,10.45s8-4.5,15.79-8.53c6.4-3.29,12.72-6.27,14.52-6.21,2.31,0.08-3.05,5.32-8.87,10.27a118.49,118.49,0,0,1-10.71,8.31c-1.33.82-3.21,2.15-5.35,3.66l-1.85,1.29-2,1.32-0.15.1a1,1,0,0,0-.52.34l-1.2.77c-0.85.54-1.45,1.06-2.3,1.55a55.42,55.42,0,0,1-7.79,3.42V52.71S249.87,52.75,250.05,52.87Z"/><path class="cls-14" d="M261.8,109.82l-0.52.34A1,1,0,0,1,261.8,109.82Z"/><path class="cls-14" d="M257.79,112.49c-1.26,1-2.21,1.91-2.21,2.4,0,2.14,15.4.54,15.6-1.25s0-10.18,0-10.18a118.84,118.84,0,0,0,10.69-8.31,10,10,0,0,0,5.74-1l0.8,5.9L280,106.32s7.92-.53,8.32.81-9.72,13.51-9.72,13.51l1.77,4.85c-3,1.33-6.84,7.21-10,12.79,3.94,1.84,11.38,5.86,12.51,10.42a18.06,18.06,0,0,1,.07,6.07c-0.37,3.83-.76,7.8,2.81,11.76,2,2.19,3.45,4.11,4.63,5.66a23.86,23.86,0,0,0,2.61,3.1l0,0c2.1-1.46,2.29-3,2.19-3.27a2,2,0,0,1,.32-3,2.56,2.56,0,0,1,3.35.29,4.39,4.39,0,0,1,1,3.58,8.78,8.78,0,0,1-4,5.82,5.15,5.15,0,0,1-3,1,4.53,4.53,0,0,1-.63,0c-2.28-.32-3.71-2.18-5.87-5-1.14-1.49-2.55-3.33-4.41-5.39-4.79-5.31-4.28-10.6-3.86-14.84a15.22,15.22,0,0,0,0-4.76c-0.56-2.28-5.66-5.46-10-7.5-1.87,3.54-3.22,6.41-3.51,7a41.6,41.6,0,0,1,.87-8.35,2,2,0,0,1-.46-2.39,2.27,2.27,0,0,1,1.23-1.07c0.07-.29.14-0.55,0.21-0.78,0.73-2.65.12-13.22-.73-15.28s-6.23-2.13-9.66-.92a15.23,15.23,0,0,1-6.23.88v-5.34A55.42,55.42,0,0,0,257.79,112.49Z"/></g><path class="cls-12" d="M158.13,465.94V465h3.75v11.25h3.75v1.88H154.38v-1.87h3.75v-7.5h-1.87v-1.87h1.88v-0.94Z"/><path class="cls-12" d="M169.38,465.94V465h11.25v1.88h-1.87v1.88h-1.87v1.88h1.88v1.88h1.88v3.75h-1.87v1.88h-9.37v-1.87H167.5v-1.87h3.75v1.88h5.63V472.5h-5.62v-1.87h1.88v-1.87H175v-1.87h-5.62v-0.94Z"/><path class="cls-12" d="M186.25,465.94V465h5.63v1.88h1.88v1.88h1.88v5.63h-1.87v1.88h-1.87v1.88h-5.62v-1.87h-1.87v-1.87H182.5v-5.62h1.88v-1.87h1.88v-0.94Zm3.75,1.88v-0.94h-3.75v7.5h1.88v1.88h3.75v-7.5H190v-0.94Z"/><path class="cls-12" d="M231.25,465.94V465h9.38v1.88h-7.5v1.88h-1.87v5.63h1.88v1.88h3.75V472.5H235v-1.87h5.63v7.5h-9.37v-1.87h-1.87v-1.87H227.5v-5.62h1.88v-1.87h1.88v-0.94Z"/><path class="cls-12" d="M244.38,467.81V465h3.75v5.63h3.75V465h3.75v5.63h-1.87v1.88h-1.87v5.63h-3.75V472.5h-1.87v-1.87h-1.87v-2.81Z"/><path class="cls-12" d="M261.25,465.94V465h5.63v1.88h1.88v1.88h1.88v9.38h-3.75v-3.75h-5.62v3.75H257.5v-9.37h1.88v-1.87h1.88v-0.94Zm3.75,1.88v-0.94h-1.87v1.88h-1.87v3.75h5.63v-3.75H265v-0.94Z"/><path class="cls-12" d="M272.5,471.56V465h11.25v1.88h1.88v5.63h-3.75v1.88h1.88v1.88h1.88v1.88H280v-1.87h-1.87v-1.87h-1.87v3.75H272.5v-6.56Zm9.38-2.81v-1.87h-5.62v5.63H280v-1.87h1.88v-1.87Z"/><path class="cls-12" d="M291.25,465.94V465h5.63v1.88h1.88v1.88h1.88v9.38h-3.75v-3.75h-5.62v3.75H287.5v-9.37h1.88v-1.87h1.88v-0.94Zm3.75,1.88v-0.94h-1.87v1.88h-1.87v3.75h5.63v-3.75H295v-0.94Z"/><path class="cls-12" d="M302.5,471.56V465h9.38v1.88h1.88v1.88h1.88v5.63h-1.87v1.88h-1.87v1.88H302.5v-6.56Zm7.5-3.75v-0.94h-3.75v9.38H310v-1.87h1.88v-5.62H310v-0.94Z"/><path class="cls-12" d="M319.38,465.94V465h9.38v1.88h1.88v9.38h-1.87v1.88h-9.37v-1.87H317.5v-9.37h1.88v-0.94Zm7.5,5.63v-4.69h-5.62v9.38h5.63v-4.69Z"/><path class="cls-12" d="M334.38,465.94V465h7.5v1.88h1.88v1.88H340v-1.87h-3.75v3.75h7.5v1.88h1.88v3.75h-1.87v1.88h-9.37v-1.87H332.5v-1.87h3.75v1.88h5.63V472.5h-7.5v-1.87H332.5v-3.75h1.88v-0.94Z"/></svg>