<?xml version="1.0" ?><svg id="pkflt" viewBox="0 0 500 500" xmlns="http://www.w3.org/2000/svg"><defs><style>.cls-1{fill:none;}.cls-2{fill:#fff;}.cls-3{fill:#333;}.cls-4{fill:#fffac6;}.cls-5{fill:#59bdec;}.cls-6{fill:#bcb2ba;}.cls-7{fill:#4ec9f9;}.cls-8{opacity:0.1;}.cls-9{fill:#1a1a1a;}.cls-10{fill:#32afe0;}</style></defs><title/><path class="cls-1" d="M209.87,114a19,19,0,0,0-8.2-4S194,134.33,217,138a37,37,0,0,0,0-8.89C216.47,124.1,214.69,118.06,209.87,114Z"/><path class="cls-2" d="M212.5,131.5c-3.73,0-6.75-4.08-6.75-9.12,0-3.77,1.7-7,4.11-8.4a19,19,0,0,0-8.2-4S194,134.33,217,138a37,37,0,0,0,0-8.89A5.89,5.89,0,0,1,212.5,131.5Z"/><path class="cls-3" d="M205.76,122.38c0,5,3,9.12,6.75,9.12a5.89,5.89,0,0,0,4.54-2.39c-0.57-5-2.35-11.05-7.17-15.14C207.45,115.36,205.76,118.6,205.76,122.38Zm4.24-5.11a2.74,2.74,0,1,1-2.74,2.74A2.74,2.74,0,0,1,210,117.26Z"/><circle class="cls-2" cx="210" cy="120" r="2.74"/><path class="cls-1" d="M209.87,114a19,19,0,0,0-8.2-4S194,134.33,217,138a37,37,0,0,0,0-8.89C216.47,124.1,214.69,118.06,209.87,114Z"/><path class="cls-4" d="M214.67,201.75c0-15.9-.72-28.84-1.26-36.66h0C213.94,172.87,214.63,185.82,214.67,201.75Z"/><path class="cls-5" d="M187.86,421.16c-1.19.92-2,1.55-2.36,1.84-3.09,2.78-51.17,12.44-71.3,16.22C120,444.47,127.87,450,135.5,450c14.5,0,57.89-16.09,57.89-16.09S191.61,426.45,187.86,421.16Z"/><path class="cls-1" d="M169.83,360l0,0.08c8-2.68,13.21-4.06,13.21-4.06,26.86-43.41,31.77-110.21,31.67-154.25,0.09,44.05-4.83,110.8-31.67,154.17C183,355.92,177.77,357.31,169.83,360Z"/><path class="cls-1" d="M214.67,201.75c0-15.9-.72-28.84-1.26-36.66h0C213.94,172.87,214.63,185.82,214.67,201.75Z"/><path class="cls-6" d="M169.79,360.06l0-.08a275.26,275.26,0,0,0-29.67,11.88c2.85-43.23,45.35-62,45.35-62,10.38-20.35,16.37-48.81,19.82-75.4l-25.38-24.37s-14-1.06-7,19.94,12.51,36.4,12.51,36.4S156,283.52,152,290s-37.8-10-37.8-10-7.55,1-4.05,6.5,23.86,30,23.86,30V323l-8.5-3s-8,20-5.5,20h7s-9,22.81-4.08,41.22a178.11,178.11,0,0,1,17.24-9.31A273.39,273.39,0,0,1,169.79,360.06Z"/><path class="cls-4" d="M223.5,173.75a72.58,72.58,0,0,1-6.73-5.42c-1.18-1.07-2.32-2.15-3.36-3.24,0.54,7.82,1.23,20.76,1.26,36.66,0.1,44-4.81,110.85-31.67,154.25,19,7.83,27,16.74,29,25.46,3.86,17.41-16.77,34-24.1,39.69,3.75,5.29,5.53,12.75,5.53,12.75,11.86,1.43,51.1,6.09,56.61,6.09V186.5C247.5,185.5,223.5,173.75,223.5,173.75Z"/><path class="cls-7" d="M212,381.46c-1.93-8.72-10-17.64-29-25.46,0,0-5.24,1.39-13.21,4.06a273.39,273.39,0,0,0-29.64,11.86,178.11,178.11,0,0,0-17.24,9.31A99.37,99.37,0,0,0,105,395c-25,25-50,35-50,35s38.5,13,55,10l4.2-.78c20.14-3.78,68.22-13.44,71.3-16.22,0,0,.86-0.74,2.25-2l0.12,0.16C195.19,415.51,215.82,398.88,212,381.46Z"/><path class="cls-7" d="M185.5,423c0.33-.29,1.17-0.93,2.36-1.84l-0.12-.16C186.36,422.26,185.5,423,185.5,423Z"/><path class="cls-1" d="M209.87,114a19,19,0,0,0-8.2-4S194,134.33,217,138a37,37,0,0,0,0-8.89C216.47,124.1,214.69,118.06,209.87,114Z"/><path class="cls-5" d="M205.32,234.49c-3.45,26.59-9.44,55-19.82,75.4,0,0-42.5,18.74-45.35,62A275.26,275.26,0,0,1,169.83,360c7.95-2.68,13.17-4.06,13.17-4.06,26.83-43.37,31.76-110.12,31.67-154.17,0-15.93-.73-28.88-1.27-36.67h0V165c-1.22-1.28-2.35-2-3.39-4h0A595.8,595.8,0,0,1,205.32,234.49Z"/><path class="cls-5" d="M238.25,71.5s-12,3.5-13.75,5c0,0-34.25-28.5-53,0s22,43.39,24.5,43.39c2.06,0-2.33,21.11,14,41.11,1,2,2.17,2.63,3.39,3.91,1,1.09,2.19,2.23,3.37,3.31a72.9,72.9,0,0,0,6.73,5.48s24,11.78,26.5,12.78V40S240.25,43,238.25,71.5ZM217,138c-23-3.67-15.33-28-15.33-28a19,19,0,0,1,8.2,4c4.82,4.08,6.6,10.13,7.17,15.14A37,37,0,0,1,217,138Z"/><path class="cls-1" d="M290.13,114a19,19,0,0,1,8.2-4S306,134.33,283,138a37,37,0,0,1,0-8.89C283.53,124.1,285.31,118.06,290.13,114Z"/><path class="cls-2" d="M287.5,131.5c3.73,0,6.75-4.08,6.75-9.12,0-3.77-1.7-7-4.11-8.4a19,19,0,0,1,8.2-4S306,134.33,283,138a37,37,0,0,1,0-8.89A5.89,5.89,0,0,0,287.5,131.5Z"/><path class="cls-3" d="M290.13,114c-4.82,4.08-6.6,10.13-7.17,15.14a5.89,5.89,0,0,0,4.54,2.39c3.73,0,6.75-4.08,6.75-9.12C294.24,118.6,292.55,115.36,290.13,114Zm2.61,6a2.74,2.74,0,1,1-2.74-2.74A2.74,2.74,0,0,1,292.74,120Z"/><circle class="cls-2" cx="290" cy="120" r="2.74"/><path class="cls-1" d="M290.13,114a19,19,0,0,1,8.2-4S306,134.33,283,138a37,37,0,0,1,0-8.89C283.53,124.1,285.31,118.06,290.13,114Z"/><path class="cls-4" d="M285.33,201.75c0-15.9.72-28.84,1.26-36.66h0C286.06,172.87,285.37,185.82,285.33,201.75Z"/><path class="cls-5" d="M312.14,421.16c1.19,0.92,2,1.55,2.36,1.84,3.09,2.78,51.17,12.44,71.3,16.22C380,444.47,372.13,450,364.5,450c-14.5,0-57.89-16.09-57.89-16.09S308.39,426.45,312.14,421.16Z"/><path class="cls-1" d="M330.17,360l0,0.08C322.24,357.39,317,356,317,356c-26.86-43.41-31.77-110.21-31.67-154.25-0.09,44.05,4.83,110.8,31.67,154.17C317,355.92,322.23,357.31,330.17,360Z"/><path class="cls-1" d="M285.33,201.75c0-15.9.72-28.84,1.26-36.66h0C286.06,172.87,285.37,185.82,285.33,201.75Z"/><path class="cls-6" d="M330.21,360.06l0-.08a275.26,275.26,0,0,1,29.67,11.88c-2.85-43.23-45.35-62-45.35-62-10.38-20.35-16.37-48.81-19.82-75.4l25.38-24.37s14-1.06,7,19.94-12.51,36.4-12.51,36.4S344,283.52,348,290s37.8-10,37.8-10,7.55,1,4.05,6.5-23.86,30-23.86,30V323l8.5-3s8,20,5.5,20h-7s9,22.81,4.08,41.22a178.11,178.11,0,0,0-17.24-9.31A273.39,273.39,0,0,0,330.21,360.06Z"/><path class="cls-4" d="M276.5,173.75a72.58,72.58,0,0,0,6.73-5.42c1.18-1.07,2.32-2.15,3.36-3.24-0.54,7.82-1.23,20.76-1.26,36.66-0.1,44,4.81,110.85,31.67,154.25-19,7.83-27,16.74-29,25.46-3.86,17.41,16.77,34,24.1,39.69-3.75,5.29-5.53,12.75-5.53,12.75C294.75,435.33,255.51,440,250,440V186.5C252.5,185.5,276.5,173.75,276.5,173.75Z"/><path class="cls-7" d="M288,381.46c1.93-8.72,10-17.64,29-25.46,0,0,5.24,1.39,13.21,4.06a273.39,273.39,0,0,1,29.64,11.86,178.11,178.11,0,0,1,17.24,9.31A99.37,99.37,0,0,1,395,395c25,25,50,35,50,35s-38.5,13-55,10l-4.2-.78c-20.14-3.78-68.22-13.44-71.3-16.22,0,0-.86-0.74-2.25-2l-0.12.16C304.81,415.51,284.18,398.88,288,381.46Z"/><path class="cls-7" d="M314.5,423c-0.33-.29-1.17-0.93-2.36-1.84l0.12-.16C313.64,422.26,314.5,423,314.5,423Z"/><path class="cls-1" d="M290.13,114a19,19,0,0,1,8.2-4S306,134.33,283,138a37,37,0,0,1,0-8.89C283.53,124.1,285.31,118.06,290.13,114Z"/><path class="cls-5" d="M294.68,234.49c3.45,26.59,9.44,55,19.82,75.4,0,0,42.5,18.74,45.35,62A275.26,275.26,0,0,0,330.17,360c-7.95-2.68-13.17-4.06-13.17-4.06-26.83-43.37-31.76-110.12-31.67-154.17,0-15.93.73-28.88,1.27-36.67h0V165c1.22-1.28,2.35-2,3.39-4h0A595.8,595.8,0,0,0,294.68,234.49Z"/><path class="cls-5" d="M250,40V186.47c2-1,26.5-12.78,26.5-12.78a72.9,72.9,0,0,0,6.73-5.48c1.19-1.08,2.33-2.21,3.37-3.31C287.83,163.63,289,163,290,161c16.33-20,11.94-41.11,14-41.11,2.5,0,43.25-14.89,24.5-43.39s-53,0-53,0c-1.75-1.5-13.75-5-13.75-5C259.75,43,250,40,250,40Zm33,89.11c0.57-5,2.35-11.05,7.17-15.14a19,19,0,0,1,8.2-4S306,134.33,283,138A37,37,0,0,1,283,129.11Z"/><g class="cls-8"><path class="cls-9" d="M395,395a99.37,99.37,0,0,0-17.92-13.78C382,362.81,373,340,373,340h7c2.5,0-5.5-20-5.5-20l-8.5,3v-6.5s20.36-24.5,23.86-30-4.05-6.5-4.05-6.5S352,296.52,348,290s-33.49-23.55-33.49-23.55,5.51-15.4,12.51-36.4-7-19.94-7-19.94l-25.38,24.37A595.8,595.8,0,0,1,290,161h0c-1,2-2.17,2.69-3.39,4v0.12c-1,1.09-2.18,2.17-3.36,3.24a72.58,72.58,0,0,1-6.73,5.42s-24,11.75-26.5,12.75V440c5.51,0,44.75-4.67,56.61-6.09,0,0,43.39,16.09,57.89,16.09,7.63,0,15.53-5.53,21.3-10.78L390,440c16.5,3,55-10,55-10S420,420,395,395Z"/><path class="cls-9" d="M304,119.89c2.5,0,43.25-14.89,24.5-43.39s-53,0-53,0c-1.75-1.5-13.75-5-13.75-5C259.75,43,250,40,250,40V186.47c2-1,26.5-12.78,26.5-12.78a72.9,72.9,0,0,0,6.73-5.48c1.19-1.08,2.33-2.21,3.37-3.31C287.83,163.63,289,163,290,161,306.33,141,301.94,119.89,304,119.89Z"/></g><path class="cls-10" d="M180.63,465.94V465h3.75v11.25h3.75v1.88H176.88v-1.87h3.75v-7.5h-1.87v-1.87h1.88v-0.94Z"/><path class="cls-10" d="M191.88,465.94V465h11.25v1.88h-1.87v1.88h-1.87v1.88h1.88v1.88h1.88v3.75h-1.87v1.88h-9.37v-1.87H190v-1.87h3.75v1.88h5.63V472.5h-5.62v-1.87h1.88v-1.87h1.88v-1.87h-5.62v-0.94Z"/><path class="cls-10" d="M210.63,465.94V465h3.75v11.25h3.75v1.88H206.88v-1.87h3.75v-7.5h-1.87v-1.87h1.88v-0.94Z"/><path class="cls-10" d="M236.88,471.56V465h3.75v11.25h7.5v1.88H236.88v-6.56Z"/><path class="cls-10" d="M253.75,465.94V465h5.63v1.88h1.88v1.88h1.88v9.38h-3.75v-3.75h-5.62v3.75H250v-9.37h1.88v-1.87h1.88v-0.94Zm3.75,1.88v-0.94h-1.87v1.88h-1.87v3.75h5.63v-3.75H257.5v-0.94Z"/><path class="cls-10" d="M265,471.56V465h11.25v1.88h1.88v5.63h-1.87v1.88h-7.5v3.75H265v-6.56Zm9.38-1.87v-2.81h-5.62v5.63h5.63v-2.81Z"/><path class="cls-10" d="M280,471.56V465h11.25v1.88h1.88v5.63h-3.75v1.88h1.88v1.88h1.88v1.88H287.5v-1.87h-1.87v-1.87h-1.87v3.75H280v-6.56Zm9.38-2.81v-1.87h-5.62v5.63h3.75v-1.87h1.88v-1.87Z"/><path class="cls-10" d="M298.75,465.94V465h5.63v1.88h1.88v1.88h1.88v9.38h-3.75v-3.75h-5.62v3.75H295v-9.37h1.88v-1.87h1.88v-0.94Zm3.75,1.88v-0.94h-1.87v1.88h-1.87v3.75h5.63v-3.75H302.5v-0.94Z"/><path class="cls-10" d="M311.88,465.94V465h7.5v1.88h1.88v1.88H317.5v-1.87h-3.75v3.75h7.5v1.88h1.88v3.75h-1.87v1.88h-9.37v-1.87H310v-1.87h3.75v1.88h5.63V472.5h-7.5v-1.87H310v-3.75h1.88v-0.94Z"/></svg>