<?xml version="1.0" ?><svg id="pkflt" viewBox="0 0 500 500" xmlns="http://www.w3.org/2000/svg"><defs><style>.cls-1{fill:#db93c0;}.cls-2{fill:#333;}.cls-3{fill:#dc7a86;}.cls-4{fill:#c86ca4;}.cls-5{fill:#1a1a1a;opacity:0.1;}</style></defs><title/><path class="cls-1" d="M206.61,118.71c-26,13-34.71,45.56-34.71,45.56S85.13,117.41,86,153s72.89,82.87,59.87,108.9c-4.12,8.24-12.15,22.47-20.37,38.37-3.7,18.66-3,37.93,17.12,35.16,37.75-5.21,62.52-9.19,65.75-2.68,2.74,5.51,26.63,15,41.63,16.54V214.64l-40.57-7.81s-2.39-4.77,0-2.82S250,211.6,250,211.6V118.71S232.65,105.7,206.61,118.71ZM224,178.41a6.51,6.51,0,1,1,6.51-6.51A6.51,6.51,0,0,1,224,178.41Z"/><circle class="cls-2" cx="223.97" cy="171.91" r="6.51"/><path class="cls-3" d="M209.43,206.83L250,214.64v-3S211.82,206,209.43,204,209.43,206.83,209.43,206.83Z"/><path class="cls-4" d="M208.37,332.73c-3.23-6.51-28-2.52-65.75,2.68-20.08,2.77-20.82-16.51-17.12-35.16C107.73,334.59,89,376.7,106.83,382.93c26,9.11,83.3-22,91.11-15.33,4.63,3.94,31.06,12.86,52.06,19.47v-37.8C235,347.7,211.11,338.25,208.37,332.73Z"/><path class="cls-1" d="M250,118.71V211.6S288.18,206,290.56,204s0,2.82,0,2.82L250,214.64V349.27c16-1.57,38.89-11,41.62-16.54,3.23-6.51,28-2.52,65.75,2.68,20.08,2.77,20.82-16.51,17.12-35.16-8.23-15.9-16.25-30.13-20.37-38.37-13-26,59-73.32,59.87-108.9s-85.9,11.28-85.9,11.28-8.67-32.54-34.71-45.56S250,118.71,250,118.71Zm19.52,53.19a6.51,6.51,0,1,1,6.51,6.51A6.51,6.51,0,0,1,269.52,171.91Z"/><circle class="cls-2" cx="276.03" cy="171.91" r="6.51"/><path class="cls-3" d="M290.56,206.83L250,214.64v-3S288.18,206,290.56,204,290.56,206.83,290.56,206.83Z"/><path class="cls-4" d="M291.62,332.73c3.23-6.51,28-2.52,65.75,2.68,20.08,2.77,20.82-16.51,17.12-35.16,17.77,34.34,36.47,76.45,18.67,82.68-26,9.11-83.3-22-91.11-15.33-4.63,3.94-31.06,12.86-52.06,19.47v-37.8C266,347.7,288.89,338.25,291.62,332.73Z"/><path class="cls-5" d="M354.12,261.89c-13-26,59-73.32,59.87-108.9s-85.9,11.28-85.9,11.28-8.67-32.54-34.71-45.56-43.38,0-43.38,0V211.6l0.43-.06-0.43.06v3l40.56-7.81a17.84,17.84,0,0,0,.9-2.14,17.8,17.8,0,0,1-.89,2.14L250,214.64V387.07c21-6.61,47.43-15.53,52.06-19.47,7.81-6.65,65.08,24.44,91.11,15.33,17.79-6.23-.9-48.34-18.67-82.68C366.27,284.36,358.24,270.12,354.12,261.89ZM251.65,211.35c7.34-1.11,36.83-5.63,38.92-7.34a1.41,1.41,0,0,1,.89-0.46,1.42,1.42,0,0,0-.88.46C288.48,205.72,259,210.25,251.65,211.35Z"/><path class="cls-4" d="M188.13,465.94V465h3.75v11.25h3.75v1.88H184.38v-1.87h3.75v-7.5h-1.87v-1.87h1.88v-0.94Z"/><path class="cls-4" d="M199.38,465.94V465h11.25v1.88h-1.87v1.88h-1.87v1.88h1.88v1.88h1.88v3.75h-1.87v1.88h-9.37v-1.87H197.5v-1.87h3.75v1.88h5.63V472.5h-5.62v-1.87h1.88v-1.87H205v-1.87h-5.62v-0.94Z"/><path class="cls-4" d="M214.38,465.94V465h9.38v1.88h1.88v3.75h-1.87v1.88h-1.87v1.88h-3.75v1.88h7.5v1.88H212.5v-3.75h1.88V472.5h1.88v-1.87H220v-1.87h1.88v-1.87h-5.62v1.88H212.5v-1.87h1.88v-0.94Z"/><path class="cls-4" d="M242.5,471.56V465h9.38v1.88h1.88v1.88h1.88v5.63h-1.87v1.88h-1.87v1.88H242.5v-6.56Zm7.5-3.75v-0.94h-3.75v9.38H250v-1.87h1.88v-5.62H250v-0.94Z"/><path class="cls-4" d="M259.38,465.94V465h11.25v1.88h-3.75v9.38h3.75v1.88H259.38v-1.87h3.75v-9.37h-3.75v-0.94Z"/><path class="cls-4" d="M274.38,465.94V465h11.25v1.88h-3.75v11.25h-3.75V466.88h-3.75v-0.94Z"/><path class="cls-4" d="M289.38,465.94V465h11.25v1.88h-3.75v11.25h-3.75V466.88h-3.75v-0.94Z"/><path class="cls-4" d="M304.38,465.94V465h9.38v1.88h1.88v9.38h-1.87v1.88h-9.37v-1.87H302.5v-9.37h1.88v-0.94Zm7.5,5.63v-4.69h-5.62v9.38h5.63v-4.69Z"/></svg>