<?xml version="1.0" ?><svg id="pkflt" viewBox="0 0 500 500" xmlns="http://www.w3.org/2000/svg"><defs><style>.cls-1{fill:#ead5b0;}.cls-2{fill:#cfa156;}.cls-3{fill:#733a3c;}.cls-11,.cls-4{fill:#1a1a1a;}.cls-5{fill:#fff;}.cls-6{fill:#db79cd;}.cls-7{fill:#efb1e4;}.cls-8{fill:#7a403f;}.cls-9{fill:none;}.cls-10{fill:#c48f43;}.cls-11{opacity:0.1;}</style></defs><title/><path class="cls-1" d="M227.61,225.26s-0.11-30.26,9.64-43.76L247,168l3-8.75V238"/><path class="cls-2" d="M250,310V226l-5.33-18L242,226l-12-10.67L229.58,228,220,214.67l-0.75,15L210,221l-2.32,9.8h0S181.5,194.26,167,188s-59.75-23.75-61.5-23.75,36.75,57.5,43,63.75c5.39,5.39,43.45,21,53.87,25.19l0,0.14S192,292.67,196,308a31.12,31.12,0,0,0,1.9,5.19c6.62,14.3,25.39,30.15,52.1,30.15v-9.18a40.38,40.38,0,0,1-16.06-15.57A45.48,45.48,0,0,1,229.53,308s4.87,0.52,10.57,1.08C243.38,309.41,246.93,309.75,250,310Zm-48-69-5.74-1.48,3.77,5.78s-35.47-17.19-41.72-20.69-34.69-45.13-34.69-45.13C147.25,178,205,236,205,236h-5Zm27.52,40.39c-0.05,1-.14,2.06-0.28,3.12-1.36,10.22-6.45,18-11.38,17.32s-7.82-9.47-6.46-19.69a38.21,38.21,0,0,1,.72-3.88c2-8.23,6.38-14,10.66-13.44S230,272.57,229.53,281.41Z"/><path class="cls-3" d="M218.87,294.84c-4.42-.59-7.19-7.74-6.74-16.57a38.21,38.21,0,0,0-.72,3.88c-1.36,10.22,1.53,19,6.46,19.69s10-7.1,11.38-17.32c0.14-1.06.23-2.1,0.28-3.12C227.56,289.63,223.15,295.41,218.87,294.84Z"/><path class="cls-4" d="M222.79,264.84c-4.28-.57-8.69,5.21-10.66,13.44-0.45,8.83,2.32,16,6.74,16.57s8.69-5.21,10.66-13.44C230,272.57,227.21,265.42,222.79,264.84ZM223.43,282c-2.31,0-4.18-3-4.18-6.75s1.87-6.75,4.18-6.75,4.18,3,4.18,6.75S225.74,282,223.43,282Z"/><ellipse class="cls-5" cx="223.43" cy="275.26" rx="4.18" ry="6.75"/><path class="cls-6" d="M229.53,308a45.48,45.48,0,0,0,4.41,10.58c1.9-3.7,4.14-7.52,6.16-9.5C234.4,308.52,229.53,308,229.53,308Z"/><path class="cls-7" d="M233.94,318.59A40.38,40.38,0,0,0,250,334.16V310c-3.07-.27-6.62-0.61-9.9-0.93C238.09,311.07,235.84,314.89,233.94,318.59Z"/><path class="cls-8" d="M123.63,179.5s28.44,41.63,34.69,45.13S200,245.32,200,245.32l-3.77-5.78L202,241l-2-5h5S147.25,178,123.63,179.5Z"/><path class="cls-9" d="M201.68,362.24a1,1,0,0,0-1.18.27c-0.48.43-.72,1.56-0.79,3.1l2.57,4.25A58.44,58.44,0,0,1,201.68,362.24Z"/><path class="cls-10" d="M213.67,442.51a5.53,5.53,0,0,1,4.68-5.45c-3.35-11.6-13-46-15.87-65.71a4.67,4.67,0,1,0-2.61-.53c0.67,8.14,2.88,19.2,2.88,19.2-1.63-.73-3.28-2.7-4.84-5.3A5,5,0,0,1,196,388c-3.33,2.17-21.89,22.5-18.28,28.91,3.48,6.18,10.4,18.08,17,20.08H193.5a5,5,0,1,0,0,10h21a5.07,5.07,0,0,0,1.26-.17A5.6,5.6,0,0,1,213.67,442.51Z"/><path class="cls-10" d="M244.91,413.37l1.4,27.44,3.69,0.57V416.76C248.43,416.76,246.69,415.43,244.91,413.37Z"/><path class="cls-1" d="M197.9,313.19c-0.63.9-8.71,11.9-27.9,10,0,0,5.5,9.54,12.5,8a21.51,21.51,0,0,0-8.75,23s5.44-13,10.22-15c0,0-13,28.76,4.53,38.76,0,0-3.75-12-.5-18.75,0,0,4.5,16.51,9.91,25.46,1.57,2.6,3.21,4.56,4.84,5.3,0,0-3.41-17.06-3-24.4,0.08-1.54.32-2.67,0.79-3.1a1,1,0,0,1,1.18-.27c1.79,1,2.32,8.52,2.32,8.52l4.5-9s9.11,37.25,14.93,40.75c0,0-5.32-12.25,0-21s3.57,15,6.57,16.5c0,0-.5-7,0-10,0.37-2.24,7,14.85,13.57,23.68,0.45,0.6.89,1.17,1.34,1.68,1.78,2.06,3.52,3.39,5.09,3.39V343.34C223.29,343.34,204.52,327.49,197.9,313.19Z"/><path class="cls-2" d="M246.5,442.51a5.41,5.41,0,0,0-.18-1.34l0-.35-1.4-27.44c-0.44-.52-0.89-1.08-1.34-1.68C237,402.86,230.37,385.77,230,388c-0.5,3,0,10,0,10-3-1.5-1.25-25.25-6.57-16.5s0,21,0,21c-5.82-3.5-14.93-40.75-14.93-40.75l-4.5,9s-0.53-7.56-2.32-8.52a58.44,58.44,0,0,0,.59,7.62c2.55,19.44,12.64,55.3,16.07,67.2a5.53,5.53,0,0,0-4.68,5.45,5.6,5.6,0,0,0,2.09,4.32A5.14,5.14,0,0,0,219,448h22.17a5.46,5.46,0,0,0,5.25-4.57h0v-0.12A5.36,5.36,0,0,0,246.5,442.51Z"/><path class="cls-7" d="M258.14,307.38c-0.26.38,6.8,13.38,6.8,13.38l3.69-.5-6.25-15.75"/><polyline class="cls-2" points="253.81 440.81 258.63 441.38 257 408.63 253.13 413.37"/><path class="cls-1" d="M272.61,225.26s0.22-30.26-9.53-43.76-9.92-13.5-9.92-13.5L250,159.26V238"/><path class="cls-2" d="M260.12,309.09c5.7-.56,10.68-1.08,10.68-1.08a45.56,45.56,0,0,1-4.58,10.58c-5,8.63-11.22,13.3-16.22,15.57v9.18c27,0,45.7-15.85,52.32-30.15a31.94,31.94,0,0,0,2-5.19c4-15.33-6.28-54.67-6.28-54.67V253.2c10.42-4.21,48.49-19.81,53.88-25.19,6.25-6.25,44.76-63.75,43-63.75s-47,17.5-61.5,23.75-40.67,42.8-40.67,42.8h0l-2.32-9.8-9.25,8.67-0.75-15L270.86,228l-0.42-12.67-12,10.67-2.92-18L250,226v84C254,309.75,256.84,309.41,260.12,309.09ZM300.44,236h-5s57.75-58,81.38-56.5c0,0-28.44,41.63-34.69,45.13s-41.72,20.69-41.72,20.69l3.77-5.78L298.43,241Zm-22.79,28.84c4.28-.57,8.69,5.21,10.66,13.44a38.21,38.21,0,0,1,.72,3.88c1.36,10.22-1.53,19-6.46,19.69s-10-7.1-11.38-17.32c-0.14-1.06-.23-2.1-0.28-3.12C270.46,272.57,273.23,265.42,277.65,264.84Z"/><path class="cls-3" d="M281.57,294.84c4.42-.59,7.19-7.74,6.74-16.57a38.21,38.21,0,0,1,.72,3.88c1.36,10.22-1.53,19-6.46,19.69s-10-7.1-11.38-17.32c-0.14-1.06-.23-2.1-0.28-3.12C272.88,289.63,277.29,295.41,281.57,294.84Z"/><path class="cls-4" d="M270.91,281.41c2,8.23,6.38,14,10.66,13.44s7.19-7.74,6.74-16.57c-2-8.23-6.38-14-10.66-13.44S270.46,272.57,270.91,281.41Zm1.92-6.15c0-3.73,1.87-6.75,4.18-6.75s4.18,3,4.18,6.75S279.32,282,277,282,272.83,279,272.83,275.26Z"/><ellipse class="cls-5" cx="277.01" cy="275.26" rx="4.18" ry="6.75"/><path class="cls-6" d="M270.91,308a45.48,45.48,0,0,1-4.41,10.58c-1.9-3.7-4.14-7.52-6.16-9.5C266,308.52,270.91,308,270.91,308Z"/><path class="cls-7" d="M266.28,318.59c-5,8.63-11.28,13.3-16.28,15.57V310c4-.27,6.73-0.61,10-0.93C262,311.07,264.38,314.89,266.28,318.59Z"/><path class="cls-8" d="M376.82,179.5s-28.44,41.63-34.69,45.13-41.72,20.69-41.72,20.69l3.77-5.78L298.43,241l2-5h-5S353.19,178,376.82,179.5Z"/><path class="cls-9" d="M298.76,362.24a1,1,0,0,1,1.18.27c0.48,0.43.72,1.56,0.79,3.1l-2.57,4.25A58.44,58.44,0,0,0,298.76,362.24Z"/><path class="cls-10" d="M286.78,442.51a5.53,5.53,0,0,0-4.68-5.45c3.35-11.6,13-46,15.87-65.71a4.67,4.67,0,1,1,2.61-.53c-0.67,8.14-2.88,19.2-2.88,19.2,1.63-.73,3.28-2.7,4.84-5.3a5,5,0,0,0,1.91,3.3c3.33,2.17,21.89,22.5,18.28,28.91-3.48,6.18-10.4,18.08-17,20.08h1.23a5,5,0,1,1,0,10h-21a5.07,5.07,0,0,1-1.26-.17A5.6,5.6,0,0,0,286.78,442.51Z"/><path class="cls-10" d="M255.31,413.37l-1.51,27.44-3.8.57V416.76C252,416.76,253.54,415.43,255.31,413.37Z"/><path class="cls-1" d="M302.32,313.19c0.63,0.9,8.82,11.9,28,10,0,0-5.44,9.54-12.44,8a21.51,21.51,0,0,1,8.78,23s-5.43-13-10.21-15c0,0,13,28.76-4.52,38.76,0,0,3.75-12,.5-18.75,0,0-4.5,16.51-9.9,25.46-1.57,2.6-3.21,4.56-4.84,5.3,0,0,3.41-17.06,3-24.4-0.08-1.54-.32-2.67-0.79-3.1a1,1,0,0,0-1.18-.27c-1.79,1-2.32,8.52-2.32,8.52l-4.5-9S282.83,399,277,402.51c0,0,5.32-12.25,0-21s-3.57,15-6.57,16.5c0,0,.5-7,0-10-0.37-2.24-7,14.85-13.57,23.68-0.45.6-1.12,1.17-1.56,1.68-1.78,2.06-3.31,3.39-5.31,3.39V343.34C277,343.34,295.7,327.49,302.32,313.19Z"/><path class="cls-2" d="M253.94,442.51a5.41,5.41,0,0,1,.18-1.34l0-.35,1.4-27.44c0.44-.52.89-1.08,1.34-1.68,6.56-8.83,13.2-25.92,13.57-23.68,0.5,3,0,10,0,10,3-1.5,1.25-25.25,6.57-16.5s0,21,0,21c5.82-3.5,14.93-40.75,14.93-40.75l4.5,9s0.53-7.56,2.32-8.52a58.44,58.44,0,0,1-.59,7.62c-2.55,19.44-12.64,55.3-16.07,67.2a5.53,5.53,0,0,1,4.68,5.45,5.6,5.6,0,0,1-2.09,4.32,5.14,5.14,0,0,1-3.24,1.17H259.28a5.46,5.46,0,0,1-5.25-4.57h0v-0.12A5.36,5.36,0,0,1,253.94,442.51Z"/><path class="cls-11" d="M394.94,164.26c-1.75,0-47,17.5-61.5,23.75s-40.66,42.78-40.67,42.8l-2.32-9.8-9.25,8.67-0.75-15L270.86,228l-0.06-1.72,1.8-1s0.22-30.26-9.53-43.76-9.92-13.5-9.92-13.5L250,159.26V441.38l3.8-.57,0.33,0,0,0.31a5.07,5.07,0,0,0-.11,2.15v0.12h0a5.46,5.46,0,0,0,5.25,4.57h22.17a5.15,5.15,0,0,0,3.24-1.17,5.08,5.08,0,0,0,1.26.17h21a5,5,0,1,0,0-10h-1.23c6.61-2,13.53-13.9,17-20.08,3.61-6.42-14.95-26.75-18.28-28.91a5,5,0,0,1-1.91-3.3c-1.57,2.6-3.21,4.57-4.84,5.3h0c1.63-.73,3.27-2.7,4.84-5.3,5.4-8.95,9.9-25.46,9.9-25.46,3.25,6.75-.5,18.75-0.5,18.75,17.5-10,4.52-38.76,4.52-38.76,4.78,2,10.21,15,10.21,15a21.51,21.51,0,0,0-8.78-23c7,1.5,12.44-8,12.44-8-19.19,1.92-27.38-9.08-28-10a31.94,31.94,0,0,0,2-5.19c4-15.33-6.28-54.67-6.28-54.67V253.2c10.42-4.21,48.49-19.81,53.88-25.19C358.18,221.76,396.69,164.26,394.94,164.26ZM270.8,308l-6.75.7v0l6.76-.69h0Zm24,80.21,0,0.12Zm-0.52,2.34,0,0.12Zm-0.53,2.33,0,0.17Zm4-19.67h0Zm-0.32,1.94v0Zm-0.36,2v0Zm-0.39,2.11v0Zm-0.42,2.14,0,0.12Zm-0.45,2.22,0,0.12Zm-0.47,2.25,0,0.15ZM277,402.51h0c5.82-3.5,14.93-40.75,14.93-40.75h0S282.83,399,277,402.51Zm5.42,33.38-0.34,1.17Zm10.74-40.63,0,0.2Zm-0.57,2.38-0.05.22ZM292,400l0,0.2Zm-0.59,2.4,0,0.16Zm-0.6,2.38,0,0.15Zm-0.59,2.35,0,0.19Zm-0.6,2.32-0.06.24Zm-0.6,2.32L289,412Zm-0.59,2.24-0.08.3Zm-0.59,2.24-0.07.27Zm-0.58,2.16-0.08.31Zm-0.57,2.12-0.08.3Zm-0.56,2.06-0.08.3Zm-0.54,2-0.12.44Zm-0.53,1.91-0.12.42Zm-0.51,1.83-0.12.44ZM284.1,430l-0.16.58Zm-0.46,1.64-0.21.72Zm-0.43,1.5-0.21.75Zm-0.41,1.44-0.17.59Zm16.69-55,0-.33ZM299,382.51l0-.13Zm0.14-.86,0-.21Zm0.14-.9,0-.24Zm1.23-9.65q0,0.52-.1,1.06Q300.5,371.62,300.55,371.1Zm-0.12,1.28-0.06.55Zm-0.09.9-0.06.53Zm-0.1.91-0.06.53Zm-0.11.89L300,376Zm-0.18,1.37-0.06.47Zm-0.13.93-0.06.45Zm-0.13,1-0.06.41Z"/><path class="cls-10" d="M188.13,465.94V465h3.75v11.25h3.75v1.88H184.38v-1.87h3.75v-7.5h-1.87v-1.87h1.88v-0.94Z"/><path class="cls-10" d="M199.38,465.94V465h11.25v1.88h-1.87v1.88h-1.87v1.88h1.88v1.88h1.88v3.75h-1.87v1.88h-9.37v-1.87H197.5v-1.87h3.75v1.88h5.63V472.5h-5.62v-1.87h1.88v-1.87H205v-1.87h-5.62v-0.94Z"/><path class="cls-10" d="M214.38,465.94V465h11.25v1.88h-1.87v1.88h-1.87v1.88h1.88v1.88h1.88v3.75h-1.87v1.88h-9.37v-1.87H212.5v-1.87h3.75v1.88h5.63V472.5h-5.62v-1.87h1.88v-1.87H220v-1.87h-5.62v-0.94Z"/><path class="cls-10" d="M242.5,471.56V465h13.13v1.88h-9.37v3.75h7.5v1.88h-7.5v3.75h9.38v1.88H242.5v-6.56Z"/><path class="cls-10" d="M257.5,471.56V465h13.13v1.88h-9.37v3.75h7.5v1.88h-7.5v3.75h9.38v1.88H257.5v-6.56Z"/><path class="cls-10" d="M272.5,468.75V465h3.75v5.63h1.88v1.88H280v-1.87h1.88V465h3.75v7.5h-1.87v1.88h-1.87v1.88H280v1.88h-1.87v-1.87h-1.87v-1.87h-1.87V472.5H272.5v-3.75Z"/><path class="cls-10" d="M287.5,471.56V465h13.13v1.88h-9.37v3.75h7.5v1.88h-7.5v3.75h9.38v1.88H287.5v-6.56Z"/><path class="cls-10" d="M302.5,471.56V465h13.13v1.88h-9.37v3.75h7.5v1.88h-7.5v3.75h9.38v1.88H302.5v-6.56Z"/></svg>