<?xml version="1.0" ?><svg id="pkflt" viewBox="0 0 500 500" xmlns="http://www.w3.org/2000/svg"><defs><style>.cls-1{fill:#d7fff8;}.cls-2{fill:#3a5d83;}.cls-3{fill:#77b6b7;}.cls-4{fill:#87c2c6;}.cls-5{fill:#f5f1b9;}.cls-6{fill:#1a1a1a;}.cls-7{fill:#5e3387;}.cls-8{fill:#fff;}.cls-9{fill:#333;}.cls-10{opacity:0.1;}</style></defs><title/><path class="cls-1" d="M229,100.76a2.14,2.14,0,0,0,.57.79c0.29-.5.43-0.79,0.43-0.79S227.75,97.26,229,100.76Z"/><path class="cls-1" d="M204.75,152.08c9-16,35.25-15.79,35.25-15.79l3.22-30.37c-4.46-.79-11.52-2.33-13.65-4.36-2,3.45-11.26,16.93-31.57,12.78,0,0-5.29,16.66-15.77,18.66h0A152.69,152.69,0,0,1,204.75,152.08Z"/><path class="cls-2" d="M243.22,105.9L240,136.26S213.75,136,204.75,152a180.24,180.24,0,0,0-22.52-19.16c-21.8-15.93-57.43-35.54-97.85-32.51,0,0,2.35.53,6.36,1.67,21.54,6.08,91.16,29.42,104,80a25,25,0,0,1,1.06-4.09c4.93-14.2,21.52-23.41,21.52-23.41l32.67,25V42Z"/><path class="cls-3" d="M211,434.51a12.26,12.26,0,0,1,11.13-11.94c0.27-6.57,1.06-18.68,1.53-23.89,0.67-7.33-3.67-12.33-5-16.67-0.76-2.49-3.94-22.85-6.26-41.84-9.55,9.15-32.92,37.27-4.07,71.84l1.35,1.62-5,8.37H194.33a10,10,0,1,0,0,20h11.33a9.93,9.93,0,0,0,6.2-2.17,11.59,11.59,0,0,1-.87-4.32v-1Z"/><path class="cls-4" d="M223.75,293.76c2.38-8-1.5-13.85-7.37-18-1.75,7.63-5.38,24-6.38,32.22-0.57,4.69.68,18,2.41,32.16,2.32,19,5.5,39.35,6.26,41.84,1.33,4.33,5.67,9.33,5,16.67-0.47,5.21-1.26,17.32-1.53,23.89A12.26,12.26,0,0,0,211,434.51v1a11.59,11.59,0,0,0,.87,4.32A13,13,0,0,0,223.5,448h13c6.6,0,11.5-5.9,11.5-12.5l2-7.16V284Z"/><path class="cls-1" d="M208.93,235.26c-1.23-2.08-7-14.72-10.88-28.09-2.14-7.37-3.71-15-3.63-21.13l-0.05,0c-0.16,6.16,1.21,13.74,3.64,21.1h0c-3.63-3.13-21.89,1.23-35.74,5.15,1.48,6.31,4.38,20.48,1.49,24.27,0,0,25.25,7.17,26.25,29.92,0,0,16.19,2.11,26.38,9.28,5.87,4.13,9.75,9.93,7.37,18L250,284V250.76C240,249.51,211,238.76,208.93,235.26Z"/><path class="cls-5" d="M194.36,186.08a29.55,29.55,0,0,1,.37-4.07c-12.86-50.58-82.46-73.92-104-80,0,0,14.94,25.33,12.94,34,0,0,44.67,23.86,42.34,53.76,0,0,8.82,22.75.07,27.49,0,0,7.16-2.38,16.19-4.94,13.85-3.93,32.11-8.28,35.74-5.15h0C195.57,199.81,194.2,192.24,194.36,186.08Z"/><path class="cls-4" d="M250,243v-6.57a10.25,10.25,0,0,1-6,2.74Z"/><path class="cls-4" d="M217.33,154.51s-16.59,9.21-21.52,23.41a25,25,0,0,0-1.06,4.09,26.79,26.79,0,0,0-.34,4c-0.08,6.17,1.49,13.76,3.63,21.13,3.88,13.37,9.65,26,10.88,28.09,2.07,3.5,31.07,14.25,41.07,15.5V243l-6-3.83a27.77,27.77,0,0,1-4.44.33,52.57,52.57,0,0,1-9.73-1,1,1,0,1,1,.4-2,48.35,48.35,0,0,0,11,.91c3.61-.19,6.84-1,7.87-3.19a1,1,0,0,1,.9-0.56v-6.14c-1.45-1.88-3-3.54-3-4.54s3,0,3,0V179.51ZM204,192c1.67-2.67,16-2.67,19-2.67a1.81,1.81,0,0,1,.93.43c2.06,1.51,5.87,6.88,9,12.35,3.3,5.77,5.84,11.64,4.73,13.22-1.28,1.83-7.36,2.15-13.75,1.8a100.13,100.13,0,0,1-11.39-1.28c-0.94-.17-1.8-0.34-2.53-0.51C203,213.67,204,192,204,192Z"/><path class="cls-6" d="M228.86,203.3a7.66,7.66,0,0,1-4.93-13.53,1.81,1.81,0,0,0-.93-0.43c-3,0-17.33,0-19,2.67,0,0-1,21.67,6,23.33,0.73,0.17,1.58.35,2.53,0.51-2.61-1.64-4.07-3.92-3.46-5.84,0.82-2.64,5.2-3.61,9.76-2.19s7.6,4.72,6.78,7.36a3.47,3.47,0,0,1-1.69,1.95c6.39,0.35,12.47,0,13.75-1.8,1.1-1.57-1.43-7.45-4.73-13.22A7.62,7.62,0,0,1,228.86,203.3Z"/><path class="cls-7" d="M225.61,215.19c0.82-2.64-2.21-5.93-6.78-7.36s-8.94-.45-9.76,2.19c-0.6,1.92.86,4.2,3.46,5.84a100.13,100.13,0,0,0,11.39,1.28A3.47,3.47,0,0,0,225.61,215.19Z"/><path class="cls-8" d="M221.19,195.64a7.66,7.66,0,0,0,11.74,6.49c-3.13-5.48-6.95-10.84-9-12.35A7.65,7.65,0,0,0,221.19,195.64Z"/><path class="cls-9" d="M247,223c0,1,1.55,2.66,3,4.54V223S247,222,247,223Z"/><path class="cls-9" d="M249.1,234.25c-1,2.16-4.26,3-7.87,3.19l2.74,1.74a10.25,10.25,0,0,0,6-2.74v-2.75A1,1,0,0,0,249.1,234.25Z"/><path class="cls-9" d="M230.2,236.53a1,1,0,1,0-.4,2,52.57,52.57,0,0,0,9.73,1,27.77,27.77,0,0,0,4.44-.33l-2.74-1.74A48.35,48.35,0,0,1,230.2,236.53Z"/><path class="cls-1" d="M271.38,100.76a2.14,2.14,0,0,1-.57.79c-0.29-.5-0.43-0.79-0.43-0.79S272.63,97.26,271.38,100.76Z"/><path class="cls-1" d="M295.63,152.08c-9-16-35.25-15.79-35.25-15.79l-3.22-30.37c4.46-.79,11.52-2.33,13.65-4.36,2,3.45,11.26,16.93,31.57,12.78,0,0,5.29,16.66,15.77,18.66h0A152.69,152.69,0,0,0,295.63,152.08Z"/><path class="cls-2" d="M257,105.9l3.32,30.35s26.3-.25,35.3,15.75a181.77,181.77,0,0,1,22.54-19.16c21.8-15.93,57.44-35.54,97.86-32.51,0,0-2.34.53-6.35,1.67-21.54,6.08-91.15,29.42-104,80a25,25,0,0,0-1.06-4.09c-4.93-14.2-21.71-23.41-21.71-23.41l-32.86,25V42Z"/><path class="cls-3" d="M289,434.51a12.09,12.09,0,0,0-10.94-11.94c-0.27-6.57-1-18.68-1.44-23.89-0.67-7.33,3.71-12.33,5-16.67,0.76-2.49,4-22.85,6.29-41.84,9.55,9.15,32.94,37.27,4.08,71.84l-1.35,1.62,5,8.37H306a10,10,0,1,1,0,20H294.71a10.47,10.47,0,0,1-6.39-2.17,11.44,11.44,0,0,0,.68-4.32v-1Z"/><path class="cls-4" d="M276.44,293.76c-2.38-8,1.59-13.85,7.47-18,1.75,7.63,5.43,24,6.43,32.22,0.57,4.69-.66,18-2.38,32.16-2.32,19-5.48,39.35-6.25,41.84-1.33,4.33-5.66,9.33-5,16.67,0.47,5.21,1.07,17.32,1.35,23.89A12.09,12.09,0,0,1,289,434.51v1a11.44,11.44,0,0,1-.68,4.32A12.7,12.7,0,0,1,276.88,448h-13c-6.6,0-11.69-5.9-11.69-12.5L250,428.34V284Z"/><path class="cls-1" d="M291.26,235.26a170.06,170.06,0,0,0,11-28.09c2.14-7.37,3.76-15,3.68-21.13l-0.11,0a53.21,53.21,0,0,1-3.81,21.1h0c4-3.13,22.08,1.23,35.93,5.15-1.48,6.31-4.29,20.48-1.4,24.27,0,0-25.2,7.17-26.2,29.92,0,0-16.17,2.11-26.36,9.28-5.87,4.13-9.92,9.93-7.55,18L250,284V250.76C260,249.51,289.19,238.76,291.26,235.26Z"/><path class="cls-5" d="M305.83,186.08a30,30,0,0,0-.27-4.07c12.86-50.58,82.51-73.92,104.05-80,0,0-14.91,25.33-12.91,34,0,0-44.66,23.86-42.32,53.76,0,0-8.82,22.75-.06,27.49,0,0-7.35-2.38-16.38-4.94C324.08,208.4,306,204,302,207.17h0A53.26,53.26,0,0,0,305.83,186.08Z"/><path class="cls-4" d="M250,243v-6.57a12.4,12.4,0,0,0,6,2.74Z"/><path class="cls-4" d="M250,179.51V223s3.38-1,3.38,0-1.38,2.66-3.38,4.54v6.14c1,0,.92.2,1.09,0.56,1,2.16,4.35,3,8,3.19a48.8,48.8,0,0,0,11.07-.91,1,1,0,0,1,1.2.78,1,1,0,0,1-.77,1.18,52.48,52.48,0,0,1-9.72,1,30.16,30.16,0,0,1-4.63-.33L250,243v7.75c10-1.25,39.19-12,41.26-15.5a170.06,170.06,0,0,0,11-28.09c2.14-7.37,3.76-15,3.68-21.13a26.89,26.89,0,0,0-.31-4,24.94,24.94,0,0,0-1-4.09c-4.93-14.2-21.71-23.41-21.71-23.41Zm40.38,35.83c-0.73.17-1.58,0.35-2.53,0.51a100.13,100.13,0,0,1-11.39,1.28c-6.39.35-12.47,0-13.75-1.8-1.1-1.57,1.43-7.45,4.73-13.22,3.13-5.48,6.95-10.84,9-12.35a1.81,1.81,0,0,1,.93-0.43c3,0,17.33,0,19,2.67C296.38,192,297.38,213.67,290.38,215.34Z"/><path class="cls-6" d="M271.52,203.3a7.66,7.66,0,0,0,4.93-13.53,1.81,1.81,0,0,1,.93-0.43c3,0,17.33,0,19,2.67,0,0,1,21.67-6,23.33-0.73.17-1.58,0.35-2.53,0.51,2.61-1.64,4.07-3.92,3.46-5.84-0.82-2.64-5.2-3.61-9.76-2.19s-7.6,4.72-6.78,7.36a3.47,3.47,0,0,0,1.69,1.95c-6.39.35-12.47,0-13.75-1.8-1.1-1.57,1.43-7.45,4.73-13.22A7.62,7.62,0,0,0,271.52,203.3Z"/><path class="cls-7" d="M274.77,215.19c-0.82-2.64,2.21-5.93,6.78-7.36s8.94-.45,9.76,2.19c0.6,1.92-.86,4.2-3.46,5.84a100.13,100.13,0,0,1-11.39,1.28A3.47,3.47,0,0,1,274.77,215.19Z"/><path class="cls-8" d="M279.19,195.64a7.66,7.66,0,0,1-11.74,6.49c3.13-5.48,6.95-10.84,9-12.35A7.65,7.65,0,0,1,279.19,195.64Z"/><path class="cls-9" d="M253.38,223c0,1-1.38,2.66-3.38,4.54V223S253.38,222,253.38,223Z"/><path class="cls-9" d="M251.09,234.25c1,2.16,4.35,3,8,3.19l-2.88,1.74a12.88,12.88,0,0,1-6.18-2.74v-2.75C251,233.68,250.92,233.89,251.09,234.25Z"/><path class="cls-9" d="M270.18,236.53a1,1,0,0,1,.4,2,52.57,52.57,0,0,1-9.73,1,27.77,27.77,0,0,1-4.44-.33l2.74-1.74A48.35,48.35,0,0,0,270.18,236.53Z"/><g class="cls-10"><path class="cls-6" d="M271.38,100.76c1.25-3.5-1,0-1,0s0.14,0.29.43,0.79A2.14,2.14,0,0,0,271.38,100.76Z"/><path class="cls-6" d="M409.64,102c4-1.13,6.35-1.67,6.35-1.67-40.42-3-76.06,16.58-97.86,32.51L318,133c-10.36-2.16-15.59-18.62-15.59-18.62-20.31,4.15-29.55-9.33-31.57-12.78-2.14,2-9.2,3.44-13.65,4.23l3.22,30.2h-0.09L257,105.78,250,42V236.43a12.88,12.88,0,0,0,6.18,2.74l2.88-1.74h0.09l-2.74,1.49a28,28,0,0,0,4.44.08h0a30.37,30.37,0,0,1-4.63-.08L250,243V428.34l2.19,7.16c0,6.6,5.09,12.5,11.69,12.5h13a12.71,12.71,0,0,0,11.44-8.18,10.48,10.48,0,0,0,6.39,2.18H306a10,10,0,1,0,0-20H295.71l-5-8.37L292,412c28.85-34.57,5.46-62.68-4.08-71.84,1.72-14.11,2.95-27.47,2.38-32.16-1-8.24-4.67-24.53-6.42-32.18l0.06,0c10.19-7.16,26.36-9.28,26.36-9.28,1-22.75,26.2-29.92,26.2-29.92-2.89-3.79-.09-18,1.4-24.27,9,2.56,16.38,4.94,16.38,4.94-8.76-4.74.06-27.49,0.06-27.49C352,159.87,396.69,136,396.69,136c-2-8.63,12.77-33.76,12.91-34h0ZM303,204.57a53.41,53.41,0,0,0,2.76-14.38c0-.22,0-0.44.05-0.66A53.57,53.57,0,0,1,303,204.58h0Zm-20.12-50.06s16.78,9.21,21.71,23.41a25.08,25.08,0,0,1,1,3.94v0a25,25,0,0,0-1-4c-4.92-14.18-21.64-23.38-21.71-23.41h0Zm-22.19,83a50.77,50.77,0,0,0,9.47-.95,1,1,0,0,1,.4,0,1,1,0,0,0-.35,0A50.23,50.23,0,0,1,260.66,237.48Zm15.76,56.28a15.52,15.52,0,0,1-.66-5.34,15.72,15.72,0,0,0,.67,5.35h0ZM289,434.51a12.09,12.09,0,0,0-10.95-11.94c0-.69-0.06-1.45-0.1-2.25,0,0.8.07,1.56,0.1,2.25A12.09,12.09,0,0,1,289,434.51Zm18.35-228.4a12.42,12.42,0,0,0-4.44.57A12.41,12.41,0,0,1,307.35,206.11Z"/><path class="cls-6" d="M250,236.43V243l6-3.83A12.4,12.4,0,0,1,250,236.43Z"/></g><path class="cls-3" d="M165.63,465.94V465h3.75v11.25h3.75v1.88H161.88v-1.87h3.75v-7.5h-1.87v-1.87h1.88v-0.94Z"/><path class="cls-3" d="M176.88,465.94V465h11.25v1.88h-1.87v1.88h-1.87v1.88h1.88v1.88h1.88v3.75h-1.87v1.88h-9.37v-1.87H175v-1.87h3.75v1.88h5.63V472.5h-5.62v-1.87h1.88v-1.87h1.88v-1.87h-5.62v-0.94Z"/><path class="cls-3" d="M195.63,465.94V465h5.63v7.5h1.88v1.88h-1.87v3.75H197.5v-3.75H190v-3.75h1.88v-1.87h1.88v-1.87h1.88v-0.94Zm1.88,4.69v-1.87h-1.87v1.88h-1.87v1.88h3.75v-1.87Z"/><path class="cls-3" d="M220,468.75V465h3.75v5.63h1.88v1.88h1.88v-1.87h1.88V465h3.75v7.5h-1.87v1.88h-1.87v1.88H227.5v1.88h-1.87v-1.87h-1.87v-1.87h-1.87V472.5H220v-3.75Z"/><path class="cls-3" d="M238.75,465.94V465h5.63v1.88h1.88v1.88h1.88v9.38h-3.75v-3.75h-5.62v3.75H235v-9.37h1.88v-1.87h1.88v-0.94Zm3.75,1.88v-0.94h-1.87v1.88h-1.87v3.75h5.63v-3.75H242.5v-0.94Z"/><path class="cls-3" d="M250,471.56V465h11.25v1.88h1.88v5.63h-1.87v1.88h-7.5v3.75H250v-6.56Zm9.38-1.87v-2.81h-5.62v5.63h5.63v-2.81Z"/><path class="cls-3" d="M266.88,465.94V465h9.38v1.88h1.88v9.38h-1.87v1.88h-9.37v-1.87H265v-9.37h1.88v-0.94Zm7.5,5.63v-4.69h-5.62v9.38h5.63v-4.69Z"/><path class="cls-3" d="M280,471.56V465h11.25v1.88h1.88v5.63h-3.75v1.88h1.88v1.88h1.88v1.88H287.5v-1.87h-1.87v-1.87h-1.87v3.75H280v-6.56Zm9.38-2.81v-1.87h-5.62v5.63h3.75v-1.87h1.88v-1.87Z"/><path class="cls-3" d="M295,471.56V465h13.13v1.88h-9.37v3.75h7.5v1.88h-7.5v3.75h9.38v1.88H295v-6.56Z"/><path class="cls-3" d="M311.88,465.94V465h9.38v1.88h1.88v9.38h-1.87v1.88h-9.37v-1.87H310v-9.37h1.88v-0.94Zm7.5,5.63v-4.69h-5.62v9.38h5.63v-4.69Z"/><path class="cls-3" d="M325,471.56V465h3.75v1.88h1.88v1.88h1.88v1.88h1.88V465h3.75v13.13h-3.75v-1.87H332.5v-1.87h-1.87V472.5h-1.87v5.63H325v-6.56Z"/></svg>