<?xml version="1.0" ?><svg id="pkflt" viewBox="0 0 500 500" xmlns="http://www.w3.org/2000/svg"><defs><style>.cls-1{fill:#e9e4f4;}.cls-2{fill:none;}.cls-3{fill:#f3c400;}.cls-4{fill:#ffd00b;}.cls-5{fill:#e2b703;}.cls-6{fill:#333;}.cls-7,.cls-9{fill:#1a1a1a;}.cls-8{fill:#fff;}.cls-9{opacity:0.1;}</style></defs><title/><path class="cls-1" d="M218,166.68l10,5,2.1-22.32L212,139.68l-1.41,32.93c3.35,2.27,6.55,4.32,7.41,4.32C220,176.93,218,166.68,218,166.68Z"/><polygon class="cls-1" points="244.62 153.13 241.67 131.68 235.79 142.97 242.5 166.18 244.62 153.13"/><path class="cls-2" d="M191.67,295.55c-0.71-2.63-1.75-6.47-2.69-10l-18.21,9.1,19.87,3.78Z"/><path class="cls-3" d="M196.67,281.68L189,285.52c0.94,3.56,2,7.4,2.69,10Z"/><path class="cls-1" d="M192.54,298.76l-0.87-3.21-1,2.85Z"/><polygon class="cls-1" points="164.27 293.39 166.53 296.75 170.78 294.63 164.27 293.39"/><polygon class="cls-2" points="242.03 410.46 242.31 416.68 242.14 410.51 242.03 410.46"/><path class="cls-2" d="M192.54,298.76l-0.87-3.21,5-13.87L189,285.52l-18.21,9.1,19.87,3.78Z"/><polygon class="cls-2" points="164.27 293.39 166.53 296.75 170.78 294.63 164.27 293.39"/><path class="cls-3" d="M238.35,328.81L242,410.46l0.11,0L240,331.68A5.42,5.42,0,0,0,238.35,328.81Z"/><path class="cls-3" d="M242,301.68l-4.63,5.39,0.76,16.86,0.22,4.88a5.42,5.42,0,0,1,1.65,2.87l2.14,79L242.3,417H250V331.68Z"/><path class="cls-4" d="M236.74,327.47l0.34-4,1,0.42-0.76-16.86-13.24,15.41C228.65,323.44,233.58,325.22,236.74,327.47Z"/><path class="cls-5" d="M213.8,424.77l6.88-1.77a11.22,11.22,0,0,1-.76-2.62l-5.17-32.62,0,0L210,381.68,203.12,387,200,381.68l-9.71,8.56c1.31,6.38,5.06,22.63,9.6,24.77,5.67,2.67-19.95,2-19.95,8.33s4.7,16.67,11.7,16.67c2.73,0,8.56-2.23,14.67-4.95A10,10,0,0,1,213.8,424.77Z"/><polygon class="cls-3" points="212.97 376.5 207.48 341.87 197.33 353.68 204.37 293.68 185.5 312.68 190.64 298.4 170.78 294.63 166.53 296.75 189.18 330.37 154.98 331.69 179.99 347.35 148.66 366.35 182 364.51 176.33 372 185 372 167.5 410.51 190.29 390.32 200 381.72 203.12 387.03 210 381.69 214.72 387.74 214.75 387.77 212.97 376.5"/><polygon class="cls-4" points="230.02 405.55 230.1 405.58 230.03 405.5 230.02 405.55"/><path class="cls-4" d="M243,431.38l-0.91-3.55c-0.3-1.17.62-8.17,0.17-11v-0.16L242,410.46l-3.68-81.65a12.25,12.25,0,0,0-1.61-1.34c-3.16-2.25-8.1-4-12.61-5l-16.65,19.39L213,376.5l1.79,11.27,5.17,32.62a11.22,11.22,0,0,0,.76,2.62l-6.88,1.77a10,10,0,0,0-7.2,12.17l0.91,3.55a10,10,0,0,0,12.17,7.2l16.16-4.15A10,10,0,0,0,243,431.38Zm-13-25.83V405.5l0.07,0.08Z"/><path class="cls-4" d="M236.74,327.47a12.25,12.25,0,0,1,1.61,1.34l-0.22-4.88-1-.42Z"/><path class="cls-1" d="M240,270.44c-4.75-1-34.5-16.75-34.5-18.75s-2.38,4-2.38,4a76,76,0,0,1-1.12-8c0-2-11.25,1-13.5,4s7-14.25,7-14.25l-12.25-3.5s6.75-6.78,11.75-6.51-8.25-8-9.5-10,10.75,2.25,13.25,0L200,196.18l-22-12.5,13.65,0.77A185.47,185.47,0,0,1,174,171.06l-26-2.71L175,195l-13.33,1.67,12,9-7.27-1.33,3.61,5-41.58,4.81L170,231.68l-30,21,38,2-32.67,52.67,21.2-10.6-2.26-3.36,6.51,1.24,18.21-9.1,7.68-3.84-5,13.87,0.87,3.21-1.9-.36-5.14,14.28,18.87-19-7,60,10.15-11.81L219.56,316c7.07,1.5,16.84-19.86,17.51-15.67l0.3,6.72,4.63-5.39,8,30v-60A74,74,0,0,1,240,270.44Z"/><path class="cls-1" d="M237.37,307.07l-0.3-6.72c-0.66-4.19-10.44,17.17-17.51,15.67l-12.08,25.85,16.65-19.39Z"/><path class="cls-6" d="M201.5,166.68c0-.21,1.16.52,2.87,1.67-3-8.53-15.53-44.24-20.37-48.42-5.5-4.75-54-42-55.5-40.75s18,52.5,29.75,62.5c10.18,8.66,37.77,29.68,45,35.16C202.39,172.12,201.5,167.07,201.5,166.68Z"/><path class="cls-3" d="M250,271.68v-7.87l-0.35-.29Z"/><path class="cls-3" d="M249.46,259.29l0.54,0.14V119.93l-5.38,33.2-2.12,13.05L235.79,143l-3.84-13.29-1.85,19.68L228,171.68l-10-5s2,10.25,0,10.25c-0.86,0-4.06-2.05-7.41-4.32l-0.59-.4S198.33,120,192,116s-81.33-63.19-84.67-60.26,30.33,70.59,30.33,70.59l-12.67-2s25.88,27.26,49,46.71a185.47,185.47,0,0,0,17.62,13.39L178,183.68l22,12.5-1.25,21.25c-2.5,2.25-14.5-2-13.25,0s14.5,10.25,9.5,10-11.75,6.51-11.75,6.51l12.25,3.5s-9.25,17.25-7,14.25,13.5-6,13.5-4a76,76,0,0,0,1.12,8s2.38-6,2.38-4,29.75,17.75,34.5,18.75a74,74,0,0,0,10,1.26v0l-0.35-8.16c-1.2-1-5.07-4.18-4.65-4.71S248.26,259,249.46,259.29ZM158.25,141.68c-11.75-10-31.25-61.25-29.75-62.5s50,36,55.5,40.75c4.84,4.18,17.41,39.89,20.37,48.42-1.71-1.15-2.87-1.88-2.87-1.67,0,0.39.89,5.44,1.74,10.16C196,171.36,168.43,150.34,158.25,141.68Zm52.5,100c-9.25-3.25-7.5-23.75-7.5-23.75,0.13-3.75,4-3,4-3a15.85,15.85,0,0,1,16.24,3.89c3.8,3.58,6.53,8.73,8.45,13.7A76.37,76.37,0,0,1,236,247.68S220,244.93,210.75,241.68Z"/><path class="cls-7" d="M225,236a8.66,8.66,0,0,1-1.51-17.19,15.85,15.85,0,0,0-16.24-3.89s-3.87-.75-4,3c0,0-1.75,20.5,7.5,23.75s25.25,6,25.25,6a76.37,76.37,0,0,0-4.05-15.17A8.64,8.64,0,0,1,225,236Z"/><path class="cls-8" d="M216.33,227.35a8.66,8.66,0,0,0,15.61,5.17c-1.92-5-4.66-10.12-8.45-13.7A8.66,8.66,0,0,0,216.33,227.35Z"/><path class="cls-6" d="M249.65,263.52l0.35,0.29v-4.37l-0.54-.14Z"/><path class="cls-6" d="M245,258.81c-0.42.53,3.45,3.74,4.65,4.71l-0.18-4.23C248.26,259,245.39,258.31,245,258.81Z"/><path class="cls-1" d="M282,166.68l-9.95,5L270,149.36l18.11-9.68,1.37,32.93c-3.35,2.27-6.46,4.32-7.46,4.32C280,176.93,282,166.68,282,166.68Z"/><polygon class="cls-1" points="255.48 153.13 258.43 131.68 264.31 142.97 257.6 166.18 255.48 153.13"/><path class="cls-2" d="M308.43,295.55c0.71-2.63,1.75-6.47,2.69-10l18.21,9.1-19.87,3.78Z"/><path class="cls-3" d="M303.43,281.68l7.68,3.84c-0.94,3.56-2,7.4-2.69,10Z"/><path class="cls-1" d="M307.56,298.76l0.87-3.21,1,2.85Z"/><polygon class="cls-1" points="335.83 293.39 333.57 296.75 329.32 294.63 335.83 293.39"/><polygon class="cls-2" points="258.08 410.46 257.8 416.68 257.96 410.51 258.08 410.46"/><path class="cls-2" d="M307.56,298.76l0.87-3.21-5-13.87,7.68,3.84,18.21,9.1-19.87,3.78Z"/><polygon class="cls-2" points="335.83 293.39 333.57 296.75 329.32 294.63 335.83 293.39"/><path class="cls-3" d="M261.75,328.81l-3.68,81.65-0.11,0,2.14-78.83A5.42,5.42,0,0,1,261.75,328.81Z"/><path class="cls-3" d="M258.05,301.68l4.66,5.39L262,323.93l-0.21,4.88a5.42,5.42,0,0,0-1.65,2.87l-2.14,79L257.8,417H250V331.68Z"/><path class="cls-4" d="M263.36,327.47l-0.34-4-1,.42,0.76-16.86L276,322.48C271.46,323.44,266.52,325.22,263.36,327.47Z"/><path class="cls-5" d="M286.3,424.77L279.42,423a11.22,11.22,0,0,0,.76-2.62l5.17-32.62,0,0,4.72-6.05L297,387l3.12-5.33,9.71,8.56c-1.31,6.38-5.06,22.63-9.6,24.77-5.67,2.67,19.95,2,19.95,8.33S315.45,440,308.46,440c-2.73,0-8.56-2.23-14.67-4.95A10,10,0,0,0,286.3,424.77Z"/><polygon class="cls-3" points="287.13 376.5 292.62 341.87 302.77 353.68 295.73 293.68 314.6 312.68 309.46 298.4 329.32 294.63 333.57 296.75 310.92 330.37 345.12 331.69 320.11 347.35 351.44 366.35 318.1 364.51 323.77 372 315.1 372 332.6 410.51 309.81 390.32 300.1 381.72 296.98 387.03 290.1 381.69 285.38 387.74 285.35 387.77 287.13 376.5"/><polygon class="cls-4" points="270.08 405.55 270 405.58 270.07 405.5 270.08 405.55"/><path class="cls-4" d="M264.26,443.55l16.16,4.15a10,10,0,0,0,12.17-7.2l0.91-3.55a10,10,0,0,0-7.2-12.17L279.42,423a11.22,11.22,0,0,0,.76-2.62l5.17-32.62,1.79-11.27,5.49-34.63L276,322.48c-4.51,1-9.45,2.74-12.61,5a12.25,12.25,0,0,0-1.61,1.34l-3.68,81.65-0.28,6.22v0.16c-0.45,2.82.47,9.82,0.17,11l-0.91,3.55A10,10,0,0,0,264.26,443.55Zm5.75-38,0.07-.08v0.05Z"/><path class="cls-4" d="M263.36,327.47a12.25,12.25,0,0,0-1.61,1.34l0.22-4.88,1-.42Z"/><path class="cls-1" d="M260.05,270.44c4.75-1,34.53-16.75,34.53-18.75s2.39,4,2.39,4a75.6,75.6,0,0,0,1.12-8c0-2,11.25,1,13.5,4s-7-14.25-7-14.25l12.25-3.5s-6.75-6.78-11.75-6.51,8.25-8,9.5-10-10.75,2.25-13.25,0l-1.25-21.25,22-12.5-13.65.77a185.47,185.47,0,0,0,17.62-13.39l26-2.71L325.1,195l13.33,1.67-12,9,7.27-1.33-3.61,5,41.58,4.81L330.1,231.68l30,21-38,2,32.67,52.67-21.2-10.6,2.26-3.36-6.51,1.24-18.21-9.1-7.68-3.84,5,13.87-0.87,3.21,1.9-.36,5.14,14.28-18.87-19,7,60-10.15-11.81L280.54,316c-7.07,1.5-16.84-19.86-17.51-15.67l-0.3,6.72-4.68-5.39-8.05,30v-60A74.29,74.29,0,0,0,260.05,270.44Z"/><path class="cls-1" d="M262.73,307.07l0.3-6.72c0.66-4.19,10.44,17.17,17.51,15.67l12.08,25.85L276,322.48Z"/><path class="cls-6" d="M298.6,166.68c0-.21-1.16.52-2.87,1.67,3-8.53,15.53-44.24,20.37-48.42,5.5-4.75,54-42,55.5-40.75s-18,52.5-29.75,62.5c-10.18,8.66-37.77,29.68-45,35.16C297.71,172.12,298.6,167.07,298.6,166.68Z"/><path class="cls-3" d="M250,271.68v-7.87l0.35-.29Z"/><path class="cls-3" d="M255.1,258.81c0.42,0.53-3.5,3.74-4.7,4.71l-0.4,8.16v0a74.29,74.29,0,0,0,10.05-1.26c4.75-1,34.53-16.75,34.53-18.75s2.39,4,2.39,4a75.6,75.6,0,0,0,1.12-8c0-2,11.25,1,13.5,4s-7-14.25-7-14.25l12.25-3.5s-6.75-6.78-11.75-6.51,8.25-8,9.5-10-10.75,2.25-13.25,0l-1.25-21.25,22-12.5-13.65.77a185.47,185.47,0,0,0,17.62-13.39c23.15-19.46,49-46.71,49-46.71l-12.67,2s33.67-67.67,30.33-70.59S314.43,112,308.1,116s-18,56.19-18,56.19c-0.2.13-.44,0.27-0.64,0.4-3.35,2.27-6.46,4.32-7.46,4.32-2,0,0-10.25,0-10.25l-9.95,5L270,149.36l-1.84-19.68L264.31,143l-6.71,23.21-2.17-13.05L250,119.93v139.5l0.59-.14C251.79,259,254.71,258.31,255.1,258.81Zm41.76-82c0.85-4.72,1.74-9.77,1.74-10.16,0-.21-1.16.52-2.87,1.67,3-8.53,15.53-44.24,20.37-48.42,5.5-4.75,54-42,55.5-40.75s-18,52.5-29.75,62.5C331.68,150.34,304.08,171.36,296.86,176.84ZM264.1,247.68a76.37,76.37,0,0,1,4.05-15.17c1.92-5,4.66-10.12,8.45-13.7a15.85,15.85,0,0,1,16.24-3.89s3.87-.75,4,3c0,0,1.75,20.5-7.5,23.75S264.1,247.68,264.1,247.68Z"/><path class="cls-7" d="M275.1,236a8.66,8.66,0,0,0,1.51-17.19,15.85,15.85,0,0,1,16.24-3.89s3.87-.75,4,3c0,0,1.75,20.5-7.5,23.75s-25.25,6-25.25,6a76.37,76.37,0,0,1,4.05-15.17A8.64,8.64,0,0,0,275.1,236Z"/><path class="cls-8" d="M283.77,227.35a8.66,8.66,0,0,1-15.61,5.17c1.92-5,4.66-10.12,8.45-13.7A8.66,8.66,0,0,1,283.77,227.35Z"/><path class="cls-6" d="M250.4,263.52a3.61,3.61,0,0,1-.4.29v-4.37l0.56-.14Z"/><path class="cls-6" d="M255.1,258.81c0.42,0.53-3.45,3.74-4.65,4.71l0.18-4.23C251.84,259,254.71,258.31,255.1,258.81Z"/><path class="cls-9" d="M375.1,124.35l-12.67,2s33.67-67.67,30.33-70.59S314.43,112,308.1,116s-18,56.19-18,56.19c-0.2.13-.44,0.27-0.64,0.4-3.35,2.27-6.46,4.32-7.46,4.32,1,0,4.1-2.05,7.46-4.32l-1.37-32.93L270,149.36l-1.84-19.68L264.31,143l-5.87-11.28-3,21.45,2.12,13h0l-2.17-13.05L250,119.93V271.68l0.35-8.12,0.05,0,0.16-4.22h0a19.5,19.5,0,0,1,3.81-.66,19.32,19.32,0,0,0-3.76.66l-0.18,4.19-0.05,0-0.4,8.16V417h7.8l0.17-6.33,2.14-78.91a5.52,5.52,0,0,1,1.65-2.91L262,324l0.75-16.87-4.66-5.4,4.68,5.39L262,323.93l-0.22,4.88a5.42,5.42,0,0,0-1.65,2.87L258,410.51l-0.17,6.17v0.16c-0.45,2.82.47,9.82,0.17,11l-0.91,3.55a10,10,0,0,0,7.2,12.17l16.16,4.15a10,10,0,0,0,12.17-7.2l0.91-3.55a9.94,9.94,0,0,0,.29-1.88c6.11,2.72,11.94,4.95,14.67,4.95,7,0,11.7-10.33,11.7-16.67s-25.61-5.67-19.95-8.33c4.54-2.14,8.29-18.39,9.6-24.77l22.79,20.26L315.1,372h8.67l-5.66-7.49,33.34,1.92-31.33-19,25-15.68-34.19-1.33,22.64-33.63,21.2,10.6L322.1,254.68l38-2-30-21,41.58-17.53-41.58-4.81,3.61-5-7.27,1.33,12-9L325.1,195l27-26.67-26,2.71C349.22,151.6,375.1,124.35,375.1,124.35Z"/><path class="cls-3" d="M173.13,465.94V465h3.75v11.25h3.75v1.88H169.38v-1.87h3.75v-7.5h-1.87v-1.87h1.88v-0.94Z"/><path class="cls-3" d="M184.38,465.94V465h11.25v1.88h-1.87v1.88h-1.87v1.88h1.88v1.88h1.88v3.75h-1.87v1.88h-9.37v-1.87H182.5v-1.87h3.75v1.88h5.63V472.5h-5.62v-1.87h1.88v-1.87H190v-1.87h-5.62v-0.94Z"/><path class="cls-3" d="M197.5,467.81V465h11.25v1.88h-7.5v1.88h7.5v1.88h1.88v5.63h-1.87v1.88h-9.37v-1.87H197.5v-1.87h3.75v1.88h5.63v-5.62H197.5v-2.81Z"/><path class="cls-3" d="M236.88,470.63V465h3.75v11.25h-1.87v1.88h-9.37v-1.87H227.5v-1.87h3.75v1.88h5.63v-5.62Z"/><path class="cls-3" d="M244.38,465.94V465h9.38v1.88h1.88v9.38h-1.87v1.88h-9.37v-1.87H242.5v-9.37h1.88v-0.94Zm7.5,5.63v-4.69h-5.62v9.38h5.63v-4.69Z"/><path class="cls-3" d="M259.38,471.56V465h3.75v11.25h7.5v1.88H259.38v-6.56Z"/><path class="cls-3" d="M274.38,465.94V465h11.25v1.88h-3.75v11.25h-3.75V466.88h-3.75v-0.94Z"/><path class="cls-3" d="M287.5,471.56V465h13.13v1.88h-9.37v3.75h7.5v1.88h-7.5v3.75h9.38v1.88H287.5v-6.56Z"/><path class="cls-3" d="M304.38,465.94V465h9.38v1.88h1.88v9.38h-1.87v1.88h-9.37v-1.87H302.5v-9.37h1.88v-0.94Zm7.5,5.63v-4.69h-5.62v9.38h5.63v-4.69Z"/><path class="cls-3" d="M317.5,471.56V465h3.75v1.88h1.88v1.88H325v1.88h1.88V465h3.75v13.13h-3.75v-1.87H325v-1.87h-1.87V472.5h-1.87v5.63H317.5v-6.56Z"/></svg>