<?xml version="1.0" ?><svg id="pkflt" viewBox="0 0 500 500" xmlns="http://www.w3.org/2000/svg"><defs><style>.cls-1{fill:#e9785a;}.cls-2{fill:#d65f47;}.cls-3{fill:#f6ec70;}.cls-4{fill:#333;}.cls-5{fill:#1a1a1a;}.cls-6{fill:#fff;}.cls-7{opacity:0.1;}</style></defs><title/><path class="cls-1" d="M80,54L80.05,54Z"/><path class="cls-2" d="M242.19,372.08l-0.68.16,0.32,0.24A1.05,1.05,0,0,1,242.19,372.08Z"/><path class="cls-2" d="M246,381.5v35c0,0.07,0,.15,0,0.22l4-.47V375a14.25,14.25,0,0,0-5,1.54A12,12,0,0,1,246,381.5Z"/><path class="cls-2" d="M215.42,420.07a11.86,11.86,0,0,1-.42-3.57v-35a11.58,11.58,0,0,1,1.38-5.57c-7,2.47-14.43,5.46-16.38,7.73-3.2,3.73,2-9.81,7.78-15-5.28,1-12.86,1.71-15.5.83a14.34,14.34,0,0,0,3.38-3.13c1.54-1.74-1.12-3.73-5.56-5.73,0.45,10,2.62,44.51,11.14,51.33,0,0,2,8-7.75,8s-17.75-3.73-18.5,4.27-6,13,3.25,15.76c7.09,2.11,21.38-.78,28.12-3L205.84,434A12.08,12.08,0,0,1,215.42,420.07Z"/><path class="cls-1" d="M245,376.54a4.56,4.56,0,0,0-2.54,3.46c-0.38,3.87-1.87-5.27-.59-7.52l-0.32-.24c-3,.73-11,2.92-11.51,6.42-0.67,4.67.81-7.33,0.81-7.33s-7,2-14.42,4.6A11.58,11.58,0,0,0,215,381.5v35a11.86,11.86,0,0,0,.42,3.57,12.08,12.08,0,0,0-9.58,14l0.52,2.92,0.22,1.24a12,12,0,0,0,14,9.6L235.88,445a12,12,0,0,0,9.6-14l-0.78-4.16c-0.18-1,1.22-7.14,1.29-10.08,0-.07,0-0.15,0-0.22v-35A12,12,0,0,0,245,376.54Z"/><path class="cls-3" d="M249.72,295.46C187,287.88,190,250,190,240c0-9.52,1.36-5.92,5.09-29.31-4-1.88-10-5.1-16.76-8.85l-7,18.49L167.5,212s-0.25,5.18-.34,8.89c-2-5.38-11.76-10.89-11.76-10.89,3.74,1.33,4.59,40,4.59,40l-10-16.33L153.33,254s-2,6-3.33,3.33-13-3-10-2S158.67,293,154,299s-9.33-6.33-9.33-6.33C144,296,168,332.67,161.33,335c-4.49,1.57-5.65,1.48-5.93,1.25,1.25,3.23,19.86,6.19,17.26,10.41S160,350,160,350c0.92,1.62,20.08,6.11,30.11,10.61-0.08-1.73-.11-2.73-0.11-2.73L250,366V296Z"/><path class="cls-3" d="M190.11,360.61c4.45,2,7.1,4,5.56,5.73a14.34,14.34,0,0,1-3.38,3.13c2.64,0.87,10.22.12,15.5-.83-5.76,5.22-11,18.77-7.78,15,2-2.28,9.33-5.27,16.38-7.73A11.59,11.59,0,0,1,226.75,370h7.75a11.65,11.65,0,0,1,7,2.25l0.68-.16a1.05,1.05,0,0,0-.36.4,10.88,10.88,0,0,1,3.12,4.06,14.25,14.25,0,0,1,5-1.54v-9l-60-8.12S190,358.88,190.11,360.61Z"/><path class="cls-3" d="M234.5,370h-7.75a11.59,11.59,0,0,0-10.37,5.93c7.4-2.59,14.42-4.6,14.42-4.6s-1.47,12-.81,7.33c0.5-3.5,8.5-5.69,11.51-6.42A11.65,11.65,0,0,0,234.5,370Z"/><path class="cls-3" d="M242.42,380a4.56,4.56,0,0,1,2.54-3.46,10.88,10.88,0,0,0-3.12-4.06C240.55,374.73,242,383.87,242.42,380Z"/><path class="cls-3" d="M155.4,336.25a1,1,0,0,1-.07-0.25A0.21,0.21,0,0,0,155.4,336.25Z"/><path class="cls-4" d="M114.5,80s22,84.5,25.5,90,52.82,27.44,52.82,27.44c-5.35-8.14-10.83-16.89-8.32-14.94,1.91,1.49,6.79,2.79,11.78,3.8C196.87,170.47,191.22,124.25,114.5,80Z"/><path class="cls-1" d="M250,276.83v-48.5a34,34,0,0,1-26.76-55,35,35,0,0,0-8.46,3.89C209.46,165.45,188.14,118.81,180,113c0,0,0-10.67-10-20,0,0,4.67,18.67,0,17,0,0-13.2-21.33-50-35.67S110,40,110,40,93.33,46,96.67,63c0,0-15.59-8.17-16.61-9,1.51,1.82,38.25,53.4,52.61,121.14,0,0,25.91,15.65,45.67,26.68,6.72,3.75,12.72,7,16.76,8.85C191.36,234.08,190,230.48,190,240c0,10-3,47.88,59.72,55.46l0.28,0V282.83s-4.67-2.08-7.17-5.17S250,276.83,250,276.83ZM140,170c-3.5-5.5-25.5-90-25.5-90,76.72,44.25,82.37,90.47,81.78,106.3-5-1-9.87-2.31-11.78-3.8-2.51-1.95,3,6.8,8.32,14.94C192.82,197.44,143.5,175.5,140,170Zm83.67,95.33c-26.33,9-28-25.33-28-25.33,8.4-4,14.72-4.19,19.55-2.49a18,18,0,0,1,6.39,4,32.7,32.7,0,0,1,6.66,9.71c0.66,1.38,1.23,2.68,1.73,3.81a8,8,0,0,1,.77,4.07C230.24,264,223.67,265.33,223.67,265.33Z"/><path class="cls-5" d="M230.77,259.07A8,8,0,0,0,230,255c-0.5-1.13-1.07-2.43-1.73-3.81a9.51,9.51,0,0,1-1.11.95Z"/><path class="cls-5" d="M221.54,254a9.46,9.46,0,0,1-6.32-16.49c-4.83-1.7-11.15-1.47-19.55,2.49,0,0,1.67,34.33,28,25.33,0,0,6.58-1.32,7.11-6.26l-3.61-6.94A9.4,9.4,0,0,1,221.54,254Z"/><path class="cls-6" d="M228.27,251.19a32.7,32.7,0,0,0-6.66-9.71l5.55,10.66A9.51,9.51,0,0,0,228.27,251.19Z"/><path class="cls-6" d="M212.08,244.53a9.45,9.45,0,0,0,15.08,7.6l-5.55-10.66a18,18,0,0,0-6.39-4A9.43,9.43,0,0,0,212.08,244.53Z"/><path class="cls-4" d="M242.83,277.67c2.5,3.08,7.17,5.17,7.17,5.17v-6S240.33,274.58,242.83,277.67Z"/><path class="cls-3" d="M240,149.92c-1.3,7.83-6.75,13.91-10.38,17.2q-1.36,1-2.6,2.16c-0.48.36-.76,0.55-0.76,0.55l0.2,0a34.3,34.3,0,0,0-3.22,3.56,34,34,0,0,0,26.76,55V100S242,137.92,240,149.92Z"/><path class="cls-2" d="M257.86,372.08l0.68,0.16-0.32.24A1.05,1.05,0,0,0,257.86,372.08Z"/><path class="cls-2" d="M254,381.5v35c0,0.07,0,.15,0,0.22l-4-.47V375a14.25,14.25,0,0,1,5,1.54A12,12,0,0,0,254,381.5Z"/><path class="cls-2" d="M284.61,420.07a11.85,11.85,0,0,0,.39-3.57v-35a11.57,11.57,0,0,0-1.36-5.57c7,2.47,14.45,5.46,16.4,7.73,3.2,3.73-2-9.81-7.78-15,5.28,1,12.86,1.71,15.5.83a14.34,14.34,0,0,1-3.38-3.13c-1.54-1.74,1.12-3.73,5.56-5.73-0.45,10-2.62,44.51-11.14,51.33,0,0-2,8,7.75,8s17.75-3.73,18.5,4.27,6,13-3.25,15.76c-7.09,2.11-21.38-.78-28.12-3L294.2,434A12.09,12.09,0,0,0,284.61,420.07Z"/><path class="cls-1" d="M255.07,376.54a4.58,4.58,0,0,1,2.55,3.46c0.38,3.87,1.87-5.27.59-7.52l0.33-.24c3,0.73,11,2.92,11.51,6.42,0.67,4.67-.81-7.33-0.81-7.33s7,2,14.4,4.6A11.57,11.57,0,0,1,285,381.5v35a11.85,11.85,0,0,1-.39,3.57,12.09,12.09,0,0,1,9.59,14L293.68,437l-0.22,1.24a12,12,0,0,1-14,9.6L264.17,445a12,12,0,0,1-9.6-14l0.78-4.16c0.18-1-1.25-7.14-1.31-10.08,0-.07,0-0.15,0-0.22v-35A12.05,12.05,0,0,1,255.07,376.54Z"/><path class="cls-3" d="M250.31,295.46C313,287.88,310,250,310,240c0-9.52-1.36-5.92-5.09-29.31,4-1.88,10-5.1,16.76-8.85l7,18.49,3.83-8.33s0.25,5.18.34,8.89c2-5.38,11.76-10.89,11.76-10.89-3.74,1.33-4.59,40-4.59,40l10-16.33L346.72,254s2,6,3.33,3.33,13-3,10-2S341.39,293,346.05,299s9.33-6.33,9.33-6.33c0.67,3.33-23.33,40-16.67,42.33,4.49,1.57,5.65,1.48,5.93,1.25-1.25,3.23-19.86,6.19-17.26,10.41S340.05,350,340.05,350c-0.92,1.62-20.08,6.11-30.11,10.61,0.08-1.73.08-2.73,0.08-2.73L250,366V296Z"/><path class="cls-3" d="M309.95,360.61c-4.45,2-7.1,4-5.56,5.73a14.34,14.34,0,0,0,3.38,3.13c-2.64.87-10.22,0.12-15.5-.83,5.76,5.22,11,18.77,7.78,15-2-2.28-9.33-5.27-16.38-7.73A11.59,11.59,0,0,0,273.3,370h-7.75a11.65,11.65,0,0,0-7,2.25l-0.68-.16a1.05,1.05,0,0,1,.36.4,11,11,0,0,0-3.15,4.06A14.32,14.32,0,0,0,250,375v-9l60-8.12S310,358.88,309.95,360.61Z"/><path class="cls-3" d="M265.55,370h7.75a11.59,11.59,0,0,1,10.37,5.93c-7.4-2.59-14.42-4.6-14.42-4.6s1.47,12,.81,7.33c-0.5-3.5-8.5-5.69-11.51-6.42A11.65,11.65,0,0,1,265.55,370Z"/><path class="cls-3" d="M257.63,380a4.56,4.56,0,0,0-2.54-3.46,10.88,10.88,0,0,1,3.12-4.06C259.5,374.73,258,383.87,257.63,380Z"/><path class="cls-3" d="M344.65,336.25a1,1,0,0,0,.07-0.25A0.21,0.21,0,0,1,344.65,336.25Z"/><path class="cls-4" d="M385.55,80s-22,84.5-25.5,90-52.82,27.44-52.82,27.44c5.35-8.14,10.83-16.89,8.32-14.94-1.91,1.49-6.79,2.79-11.78,3.8C303.19,170.47,308.83,124.25,385.55,80Z"/><path class="cls-1" d="M257.17,277.67c-2.5,3.08-7.17,5.17-7.17,5.17V295.5a2.8,2.8,0,0,1,.31,0C313,287.88,310,250,310,240c0-9.52-1.36-5.92-5.09-29.31,4-1.88,10-5.1,16.76-8.85,19.76-11,45.67-26.68,45.67-26.68C381.75,107.42,418.49,55.85,420,54c-1,.81-16.61,9-16.61,9,3.33-17-13.33-23-13.33-23s26.8,20-10,34.33-50,35.67-50,35.67c-4.67,1.67,0-17,0-17-10,9.33-10,20-10,20-8.14,5.81-29.46,52.45-34.78,64.28a35,35,0,0,0-8.46-3.89,34,34,0,0,1-26.82,55v48.5S259.67,274.58,257.17,277.67Zm50.06-80.22c5.35-8.14,10.83-16.89,8.32-14.94-1.91,1.49-6.79,2.79-11.78,3.8-0.59-15.82,5.05-62,81.78-106.3,0,0-22,84.5-25.5,90S307.23,197.44,307.23,197.44Zm-37.95,61.63a8,8,0,0,1,.77-4.07c0.5-1.13,1.07-2.43,1.73-3.81a32.7,32.7,0,0,1,6.66-9.71,18,18,0,0,1,6.39-4c4.83-1.7,11.15-1.47,19.55,2.49,0,0-1.67,34.33-28,25.33C276.39,265.33,269.81,264,269.28,259.07Z"/><path class="cls-5" d="M269.28,259.07a8,8,0,0,1,.77-4.07c0.5-1.13,1.07-2.43,1.73-3.81a9.51,9.51,0,0,0,1.11.95Z"/><path class="cls-5" d="M278.51,254a9.46,9.46,0,0,0,6.32-16.49c4.83-1.7,11.15-1.47,19.55,2.49,0,0-1.67,34.33-28,25.33,0,0-6.58-1.32-7.11-6.26l3.61-6.94A9.4,9.4,0,0,0,278.51,254Z"/><path class="cls-6" d="M271.78,251.19a32.7,32.7,0,0,1,6.66-9.71l-5.55,10.66A9.51,9.51,0,0,1,271.78,251.19Z"/><path class="cls-6" d="M288,244.53a9.45,9.45,0,0,1-15.08,7.6l5.55-10.66a18,18,0,0,1,6.39-4A9.43,9.43,0,0,1,288,244.53Z"/><path class="cls-4" d="M257.17,277.67c-2.5,3.08-7.17,5.17-7.17,5.17v-6S259.67,274.58,257.17,277.67Z"/><path class="cls-3" d="M260,149.92c1.3,7.83,6.76,13.91,10.4,17.2,0.9,0.68,1.78,1.4,2.61,2.16,0.48,0.36.76,0.55,0.76,0.55l-0.19,0a34.3,34.3,0,0,1,3.22,3.56,34,34,0,0,1-26.81,55V100S258,137.92,260,149.92Z"/><g class="cls-7"><path class="cls-5" d="M344.72,336a1,1,0,0,1-.07.25A0.21,0.21,0,0,0,344.72,336Z"/><path class="cls-5" d="M420,54c-1,.81-16.61,9-16.61,9,3.33-17-13.33-23-13.33-23s26.8,20-10,34.33-50,35.67-50,35.67c-4.67,1.67,0-17,0-17-10,9.33-10,20-10,20-8.14,5.81-29.46,52.45-34.78,64.28a35,35,0,0,0-8.46-3.89,34,34,0,0,1-19.9,54.26,34,34,0,0,0,19.9-54.26,34.3,34.3,0,0,0-3.22-3.56l0.19,0s-0.28-.19-0.76-0.55c-0.83-.76-1.7-1.49-2.61-2.16-3.63-3.29-9.09-9.38-10.4-17.2-2-12-10-49.92-10-49.92V295.5a2.8,2.8,0,0,1,.31,0L250,296v79a14.32,14.32,0,0,1,5.07,1.54,11,11,0,0,1,3.14-4.05h0a10.88,10.88,0,0,0-3.12,4.05,4.56,4.56,0,0,1,2.54,3.46,1.5,1.5,0,0,0,.24.94,1.32,1.32,0,0,1-.26-0.94,4.58,4.58,0,0,0-2.55-3.46,12.05,12.05,0,0,0-1.07,5,12,12,0,0,1,1-5,14.25,14.25,0,0,0-5-1.54v41.25l4,0.47c0-.07,0-0.15,0-0.22s0,0.15,0,.22c0.07,2.94,1.49,9.13,1.31,10.08L254.57,431a12,12,0,0,0,9.6,14l15.32,2.85a12,12,0,0,0,14-9.6l0.22-1.24L294.2,434,293.69,437c6.73,2.25,21,5.14,28.12,3,9.25-2.75,4-7.76,3.25-15.76S316.3,420,306.55,420s-7.75-8-7.75-8c8.53-6.82,10.69-41.32,11.14-51.33h0c10-4.49,29.18-9,30.11-10.61,0,0-10,1-12.67-3.33s16-7.18,17.26-10.41c-0.28.23-1.44,0.32-5.93-1.25-6.67-2.33,17.33-39,16.67-42.33,0,0-4.67,12.33-9.33,6.33s11-42.67,14-43.67-8.67-.67-10,2-3.33-3.33-3.33-3.33l3.33-20.33-10,16.33s0.85-38.67,4.59-40c0,0-9.72,5.52-11.76,10.89-0.09-3.72-.34-8.89-0.34-8.89l-3.83,8.33-7-18.49c19.76-11,45.67-26.68,45.67-26.68C381.75,107.42,418.49,55.85,420,54ZM270.05,378.67c-0.5-3.5-8.5-5.69-11.51-6.42h0c3,0.73,11,2.92,11.51,6.42,0.1,0.72.15,1,.17,1.07S270.16,379.42,270.05,378.67Zm30,5c-2-2.28-9.35-5.27-16.4-7.73A11.57,11.57,0,0,1,285,381.5a11.57,11.57,0,0,0-1.36-5.57c-7.39-2.59-14.39-4.6-14.4-4.6h0s7,2,14.42,4.6c7,2.47,14.43,5.46,16.38,7.73a1.45,1.45,0,0,0,.81.64A1.37,1.37,0,0,1,300,383.67Zm-7.77-15h0a74.19,74.19,0,0,0,11.79,1.22A74.16,74.16,0,0,1,292.27,368.63Z"/></g><path class="cls-1" d="M173.13,465.94V465h3.75v11.25h3.75v1.88H169.38v-1.87h3.75v-7.5h-1.87v-1.87h1.88v-0.94Z"/><path class="cls-1" d="M184.38,465.94V465h11.25v1.88h-1.87v1.88h-1.87v1.88h1.88v1.88h1.88v3.75h-1.87v1.88h-9.37v-1.87H182.5v-1.87h3.75v1.88h5.63V472.5h-5.62v-1.87h1.88v-1.87H190v-1.87h-5.62v-0.94Z"/><path class="cls-1" d="M201.25,465.94V465h7.5v1.88h-5.62v1.88h-1.87v1.88h7.5v1.88h1.88v3.75h-1.87v1.88h-9.37v-1.87H197.5v-7.5h1.88v-1.87h1.88v-0.94Zm5.63,8.44V472.5h-5.62v3.75h5.63v-1.87Z"/><path class="cls-1" d="M227.5,471.56V465h13.13v1.88h-9.37v3.75h7.5v1.88h-7.5v5.63H227.5v-6.56Z"/><path class="cls-1" d="M244.38,471.56V465h3.75v11.25h7.5v1.88H244.38v-6.56Z"/><path class="cls-1" d="M261.25,465.94V465h5.63v1.88h1.88v1.88h1.88v9.38h-3.75v-3.75h-5.62v3.75H257.5v-9.37h1.88v-1.87h1.88v-0.94Zm3.75,1.88v-0.94h-1.87v1.88h-1.87v3.75h5.63v-3.75H265v-0.94Z"/><path class="cls-1" d="M272.5,471.56V465h11.25v1.88h1.88v5.63h-3.75v1.88h1.88v1.88h1.88v1.88H280v-1.87h-1.87v-1.87h-1.87v3.75H272.5v-6.56Zm9.38-2.81v-1.87h-5.62v5.63H280v-1.87h1.88v-1.87Z"/><path class="cls-1" d="M287.5,471.56V465h13.13v1.88h-9.37v3.75h7.5v1.88h-7.5v3.75h9.38v1.88H287.5v-6.56Z"/><path class="cls-1" d="M304.38,465.94V465h9.38v1.88h1.88v9.38h-1.87v1.88h-9.37v-1.87H302.5v-9.37h1.88v-0.94Zm7.5,5.63v-4.69h-5.62v9.38h5.63v-4.69Z"/><path class="cls-1" d="M317.5,471.56V465h3.75v1.88h1.88v1.88H325v1.88h1.88V465h3.75v13.13h-3.75v-1.87H325v-1.87h-1.87V472.5h-1.87v5.63H317.5v-6.56Z"/></svg>