<?xml version="1.0" ?><svg id="pkflt" viewBox="0 0 500 500" xmlns="http://www.w3.org/2000/svg"><defs><style>.cls-1{fill:none;}.cls-2{fill:#7dd8d6;}.cls-3{fill:#5fa69f;}.cls-4{fill:#ff9b9c;}.cls-5{fill:#fff;}.cls-6{fill:#333;}.cls-7{fill:#1a1a1a;opacity:0.1;}</style></defs><title/><polygon class="cls-1" points="208 150 202.6 153.25 201.5 161.25 208 155 208 150"/><polygon class="cls-2" points="179.29 295.68 130.33 316.67 102 366 102 400 170 400 188.72 362.01 170 320 179.29 295.68"/><polygon class="cls-3" points="186.6 320 170 320 188.72 362.01 193.17 372 250 372 250 320 186.6 320"/><polygon class="cls-2" points="213.91 237 212.33 237.33 212.19 237 212 237 209.39 237 201.5 237.58 179.29 295.68 170 320 186.6 320 250 320 250 317 250 237 213.91 237"/><path class="cls-4" d="M220,130l-20,17.67-12,39V228l5,9V191l0.17,0.07L207,170h43V130H220Zm-6.95,22.5L190,184.17,201.25,150l20.34-18Z"/><polygon class="cls-3" points="212.19 237 212.11 236.8 209.39 237 212 237 212.19 237"/><polygon class="cls-3" points="206.51 223.49 193 191.33 193 237 209.39 237 212.11 236.8 206.51 223.49"/><polygon class="cls-3" points="193 191 193 191.33 193.17 191.07 193 191"/><polygon class="cls-3" points="213.91 237 250 237 250 234 250 230 216.69 236.46 213.91 237"/><polygon class="cls-2" points="212.33 237.33 213.91 237 212.19 237 212.33 237.33"/><polygon class="cls-2" points="213.91 237 216.69 236.46 212.11 236.8 212.19 237 213.91 237"/><polygon class="cls-2" points="193.17 191.07 193 191.33 206.51 223.49 212.11 236.8 216.69 236.46 250 230 250 214 250 180 250 170 207 170 193.17 191.07"/><path class="cls-5" d="M190,184.17l23.05-31.67,8.53-20.5-20.34,18Zm12.6-30.92L208,150v5l-6.5,6.25Z"/><polygon class="cls-6" points="208 150 202.6 153.25 201.5 161.25 208 155 208 150"/><polygon class="cls-1" points="292 150 297.4 153.25 298.5 161.25 292 155 292 150"/><polygon class="cls-2" points="320.71 295.68 369.67 316.67 398 366 398 400 330 400 311.28 362.01 330 320 320.71 295.68"/><polygon class="cls-3" points="313.4 320 330 320 311.28 362.01 306.83 372 250 372 250 320 313.4 320"/><polygon class="cls-2" points="286.09 237 287.67 237.33 287.81 237 288 237 290.61 237 298.5 237.58 320.71 295.68 330 320 313.4 320 250 320 250 317 250 237 286.09 237"/><path class="cls-4" d="M250,130v40h43l13.83,21.07L307,191v46l5-9V186.67l-12-39L280,130H250Zm28.41,2,20.34,18L310,184.17,286.95,152.5Z"/><polygon class="cls-3" points="287.81 237 287.89 236.8 290.61 237 288 237 287.81 237"/><polygon class="cls-3" points="293.49 223.49 307 191.33 307 237 290.61 237 287.89 236.8 293.49 223.49"/><polygon class="cls-3" points="307 191 307 191.33 306.83 191.07 307 191"/><polygon class="cls-3" points="286.09 237 250 237 250 234 250 230 283.31 236.46 286.09 237"/><polygon class="cls-2" points="287.67 237.33 286.09 237 287.81 237 287.67 237.33"/><polygon class="cls-2" points="286.09 237 283.31 236.46 287.89 236.8 287.81 237 286.09 237"/><polygon class="cls-2" points="306.83 191.07 307 191.33 293.49 223.49 287.89 236.8 283.31 236.46 250 230 250 214 250 180 250 170 293 170 306.83 191.07"/><path class="cls-5" d="M298.75,150l-20.34-18,8.53,20.5L310,184.17Zm-0.25,11.25L292,155v-5l5.4,3.25Z"/><polygon class="cls-6" points="292 150 297.4 153.25 298.5 161.25 292 155 292 150"/><polygon class="cls-7" points="369.67 316.67 320.71 295.68 298.5 237.58 290.61 237 307 237 312 228 312 186.67 300 147.67 280 130 250 130 250 170 250 180 250 214 250 230 250 234 250 237 250 317 250 320 250 372 306.83 372 311.28 362.01 330 400 398 400 398 366 369.67 316.67"/><path class="cls-3" d="M173.13,465.94V465h3.75v11.25h3.75v1.88H169.38v-1.87h3.75v-7.5h-1.87v-1.87h1.88v-0.94Z"/><path class="cls-3" d="M184.38,465.94V465h11.25v1.88h-1.87v1.88h-1.87v1.88h1.88v1.88h1.88v3.75h-1.87v1.88h-9.37v-1.87H182.5v-1.87h3.75v1.88h5.63V472.5h-5.62v-1.87h1.88v-1.87H190v-1.87h-5.62v-0.94Z"/><path class="cls-3" d="M197.5,466.88V465h13.13v3.75h-1.87v1.88h-1.87v1.88H205v5.63h-3.75V472.5h1.88v-1.87H205v-1.87h1.88v-1.87h-5.62v1.88H197.5v-1.87Z"/><path class="cls-3" d="M227.5,471.56V465h11.25v1.88h1.88v5.63h-1.87v1.88h-7.5v3.75H227.5v-6.56Zm9.38-1.87v-2.81h-5.62v5.63h5.63v-2.81Z"/><path class="cls-3" d="M244.38,465.94V465h9.38v1.88h1.88v9.38h-1.87v1.88h-9.37v-1.87H242.5v-9.37h1.88v-0.94Zm7.5,5.63v-4.69h-5.62v9.38h5.63v-4.69Z"/><path class="cls-3" d="M257.5,471.56V465h11.25v1.88h1.88v5.63h-3.75v1.88h1.88v1.88h1.88v1.88H265v-1.87h-1.87v-1.87h-1.87v3.75H257.5v-6.56Zm9.38-2.81v-1.87h-5.62v5.63H265v-1.87h1.88v-1.87Z"/><path class="cls-3" d="M274.38,467.81V465h3.75v5.63h3.75V465h3.75v5.63h-1.87v1.88h-1.87v5.63h-3.75V472.5h-1.87v-1.87h-1.87v-2.81Z"/><path class="cls-3" d="M291.25,465.94V465h9.38v1.88h-7.5v1.88h-1.87v5.63h1.88v1.88h3.75V472.5H295v-1.87h5.63v7.5h-9.37v-1.87h-1.87v-1.87H287.5v-5.62h1.88v-1.87h1.88v-0.94Z"/><path class="cls-3" d="M304.38,465.94V465h9.38v1.88h1.88v9.38h-1.87v1.88h-9.37v-1.87H302.5v-9.37h1.88v-0.94Zm7.5,5.63v-4.69h-5.62v9.38h5.63v-4.69Z"/><path class="cls-3" d="M317.5,471.56V465h3.75v1.88h1.88v1.88H325v1.88h1.88V465h3.75v13.13h-3.75v-1.87H325v-1.87h-1.87V472.5h-1.87v5.63H317.5v-6.56Z"/></svg>