<?xml version="1.0" ?><svg id="pkflt" viewBox="0 0 500 500" xmlns="http://www.w3.org/2000/svg"><defs><style>.cls-1{fill:#4d4d4d;}.cls-2{fill:#6dbcc5;}.cls-3{fill:#ddc997;}.cls-4{fill:#e6d6a6;}.cls-5{fill:#efdeb4;}.cls-6{fill:#fff;}.cls-7{fill:#333;}.cls-8{opacity:0.1;}.cls-9{fill:#1a1a1a;}</style></defs><title/><path class="cls-1" d="M240.5,303a21.4,21.4,0,0,1-1.49,7.83c6.42-.57,11-0.83,11-0.83V290s-5.94-.45-14.41-0.67A21.41,21.41,0,0,1,240.5,303Z"/><path class="cls-1" d="M202.62,316.91a21.42,21.42,0,0,1-1.06-26.45,84.23,84.23,0,0,0-10.94,2c0.73,6.36,2.15,16.19,4.58,23.48,3,1.47,4.79,2.25,4.79,2.25A16.4,16.4,0,0,1,202.62,316.91Z"/><path class="cls-2" d="M219,324.5a21.41,21.41,0,0,1-7.28-1.29L200,324.5c-1.91-1.54-3.49-4.71-4.79-8.6-17-8.33-73.06-38.92-63.71-75.9,0,0-24.5,60,28.5,100,0,0-12,14-23.5,10,0,0,15.5,10,19.5,7.5l4-2.5-23,19.5,43-8S165,388,162.5,390,192,381.8,193,376.72a1.88,1.88,0,1,1,0-.22,1.34,1.34,0,0,1,0,.22c-0.12,4.18-.46,23.28-0.46,23.28s11.23-29.29,11.34-36.1c-0.06-1.18-.06-1.46,0-0.4,0,0.12,0,.26,0,0.4,0.29,5.5,2,30.69,6.16,31.1,0,0,.5-23.5,3.5-29s3.5,38.5,3.5,38.5S235,380,235.5,370,250,404.5,250,404.5V319l-19.5,2.15A21.37,21.37,0,0,1,219,324.5Z"/><path class="cls-2" d="M203.84,363.9c0-.14,0-0.28,0-0.4C203.78,362.44,203.78,362.72,203.84,363.9Z"/><path class="cls-2" d="M193,376.72a1.34,1.34,0,0,0,0-.22A1.88,1.88,0,1,0,193,376.72Z"/><path class="cls-2" d="M200,324.5l11.72-1.29a21.51,21.51,0,0,1-9.11-6.31,16.4,16.4,0,0,0-2.62,1.25s-1.79-.78-4.79-2.25C196.51,319.79,198.09,323,200,324.5Z"/><path class="cls-2" d="M230.5,321.15L250,319v-9s-4.57.26-11,.83A21.54,21.54,0,0,1,230.5,321.15Z"/><path class="cls-3" d="M184.75,237.5c-21.5,34-6.25,62.5-6.25,62.5,1.23-3.52,5.82-5.94,12.13-7.58C190.19,288.58,190,286,190,286l16.61-.55a21.39,21.39,0,0,1,23.57-.79L250,284V199.68c-26.82.68-52.72,11.42-64.45,17C185,228.54,184.75,237.5,184.75,237.5Z"/><path class="cls-3" d="M206.61,285.45L190,286s0.19,2.58.63,6.42a84.23,84.23,0,0,1,10.94-2A21.59,21.59,0,0,1,206.61,285.45Z"/><path class="cls-3" d="M235.59,289.33C244.06,289.55,250,290,250,290v-6l-19.82.66A21.6,21.6,0,0,1,235.59,289.33Z"/><path class="cls-4" d="M190.14,169.15c-2.42,11.85-3.83,32.13-4.59,47.53,11.73-5.58,37.64-16.32,64.45-17v-55.5C225.5,141.95,202.4,158.4,190.14,169.15Z"/><path class="cls-5" d="M193.38,160c-1.24,1.33-2.31,4.63-3.24,9.15,12.26-10.75,35.36-27.21,59.86-25V120C212,120,200.38,152.5,193.38,160Z"/><path class="cls-6" d="M201.56,290.46a21.42,21.42,0,0,0,1.06,26.45,47.47,47.47,0,0,1,6-1.78,13.17,13.17,0,1,1,19.56-3.19c3.86-.45,7.59-0.82,10.84-1.1a21.43,21.43,0,0,0-3.42-21.5C225.85,289.07,212.78,289.1,201.56,290.46Z"/><path class="cls-6" d="M219,324.5a21.37,21.37,0,0,0,11.5-3.35l-18.77,2.07A21.41,21.41,0,0,0,219,324.5Z"/><path class="cls-6" d="M217,318.15a13.1,13.1,0,0,1-8.4-3,47.47,47.47,0,0,0-6,1.78,21.51,21.51,0,0,0,9.11,6.31l18.77-2.07A21.54,21.54,0,0,0,239,310.83c-3.25.29-7,.65-10.84,1.1A13.13,13.13,0,0,1,217,318.15Z"/><path class="cls-6" d="M219,281.5a21.38,21.38,0,0,0-12.39,3.95l23.57-.79A21.37,21.37,0,0,0,219,281.5Z"/><path class="cls-6" d="M201.56,290.46c11.22-1.35,24.29-1.39,34-1.13a21.6,21.6,0,0,0-5.41-4.67l-23.57.79A21.59,21.59,0,0,0,201.56,290.46Z"/><path class="cls-7" d="M230.15,305a13.15,13.15,0,1,0-21.55,10.12,179.39,179.39,0,0,1,19.56-3.19A13.07,13.07,0,0,0,230.15,305Z"/><path class="cls-7" d="M228.17,311.93a179.39,179.39,0,0,0-19.56,3.19A13.14,13.14,0,0,0,228.17,311.93Z"/><path class="cls-1" d="M259.35,303a21.45,21.45,0,0,0,1.57,7.83C254.49,310.26,250,310,250,310V290s5.87-.45,14.33-0.67A21.48,21.48,0,0,0,259.35,303Z"/><path class="cls-1" d="M297.23,316.91a21.42,21.42,0,0,0,1.06-26.45,84.23,84.23,0,0,1,10.94,2c-0.73,6.36-2.15,16.19-4.58,23.48-3,1.47-4.79,2.25-4.79,2.25A16.4,16.4,0,0,0,297.23,316.91Z"/><path class="cls-2" d="M280.85,324.5a21.41,21.41,0,0,0,7.28-1.29l11.72,1.29c1.91-1.54,3.49-4.71,4.79-8.6,17-8.33,73.06-38.92,63.71-75.9,0,0,24.5,60-28.5,100,0,0,12,14,23.5,10,0,0-15.5,10-19.5,7.5l-4-2.5,23,19.5-43-8s15,21.5,17.5,23.5-29.54-8.2-30.46-13.28a1.88,1.88,0,1,0,0-.22,1.34,1.34,0,0,0,0,.22c0.12,4.18.46,23.28,0.46,23.28S296.12,370.71,296,363.9c0.06-1.18.06-1.46,0-.4,0,0.12,0,.26,0,0.4-0.29,5.5-2,30.69-6.16,31.1,0,0-.5-23.5-3.5-29s-3.5,38.5-3.5,38.5S264.92,380,264.42,370,250,404.5,250,404.5V319l19.42,2.15A21.11,21.11,0,0,0,280.85,324.5Z"/><path class="cls-2" d="M296,363.9c0-.14,0-0.28,0-0.4C296.06,362.44,296.06,362.72,296,363.9Z"/><path class="cls-2" d="M306.89,376.72a1.34,1.34,0,0,1,0-.22A1.88,1.88,0,1,1,306.89,376.72Z"/><path class="cls-2" d="M299.85,324.5l-11.72-1.29a21.51,21.51,0,0,0,9.11-6.31,16.4,16.4,0,0,1,2.62,1.25s1.79-.78,4.79-2.25C303.34,319.79,301.76,323,299.85,324.5Z"/><path class="cls-2" d="M269.42,321.15L250,319v-9s4.53,0.26,11,.83A21.47,21.47,0,0,0,269.42,321.15Z"/><path class="cls-3" d="M315.1,237.5c21.5,34,6.25,62.5,6.25,62.5-1.23-3.52-5.82-5.94-12.13-7.58,0.44-3.84.63-6.42,0.63-6.42l-16.61-.55a21.38,21.38,0,0,0-12.39-3.95,21.1,21.1,0,0,0-11.1,3.16L250,284V199.68c27,0.68,52.64,11.42,64.38,17C315,228.54,315.1,237.5,315.1,237.5Z"/><path class="cls-3" d="M293.23,285.45L309.85,286s-0.19,2.58-.63,6.42a84.23,84.23,0,0,0-10.94-2A21.59,21.59,0,0,0,293.23,285.45Z"/><path class="cls-3" d="M264.33,289.33C255.87,289.55,250,290,250,290v-6l19.78,0.66A21.78,21.78,0,0,0,264.33,289.33Z"/><path class="cls-4" d="M309.78,169.15c2.42,11.85,3.87,32.13,4.63,47.53-11.73-5.58-37.42-16.32-64.42-17v-55.5C274,141.95,297.52,158.4,309.78,169.15Z"/><path class="cls-5" d="M306.55,160c1.24,1.33,2.35,4.63,3.28,9.15-12.26-10.75-35.82-27.21-59.82-25V120C288,120,299.55,152.5,306.55,160Z"/><path class="cls-6" d="M298.28,290.46a21.42,21.42,0,0,1-1.06,26.45,47.47,47.47,0,0,0-6-1.78,13.17,13.17,0,1,0-19.56-3.19c-3.86-.45-7.59-0.82-10.84-1.1a21.43,21.43,0,0,1,3.42-21.5C274,289.07,287.07,289.1,298.28,290.46Z"/><path class="cls-6" d="M280.85,324.5a21.37,21.37,0,0,1-11.5-3.35l18.77,2.07A21.41,21.41,0,0,1,280.85,324.5Z"/><path class="cls-6" d="M282.85,318.15a13.1,13.1,0,0,0,8.4-3,47.47,47.47,0,0,1,6,1.78,21.51,21.51,0,0,1-9.11,6.31l-18.77-2.07a21.54,21.54,0,0,1-8.51-10.32c3.25,0.29,7,.65,10.84,1.1A13.13,13.13,0,0,0,282.85,318.15Z"/><path class="cls-6" d="M280.85,281.5a21.38,21.38,0,0,1,12.39,3.95l-23.57-.79A21.37,21.37,0,0,1,280.85,281.5Z"/><path class="cls-6" d="M298.28,290.46c-11.22-1.35-24.29-1.39-34-1.13a21.6,21.6,0,0,1,5.41-4.67l23.57,0.79A21.59,21.59,0,0,1,298.28,290.46Z"/><path class="cls-7" d="M269.69,305a13.15,13.15,0,1,1,21.55,10.12,179.39,179.39,0,0,0-19.56-3.19A13.07,13.07,0,0,1,269.69,305Z"/><path class="cls-7" d="M271.68,311.93a179.39,179.39,0,0,1,19.56,3.19A13.14,13.14,0,0,1,271.68,311.93Z"/><g class="cls-8"><path class="cls-9" d="M363.35,350c-11.5,4-23.5-10-23.5-10,53-40,28.5-100,28.5-100,9.35,37-46.7,67.57-63.71,75.9,2.43-7.29,3.86-17.12,4.58-23.48,6.3,1.64,10.89,4.06,12.13,7.58,0,0,15.25-28.5-6.25-62.5,0,0-.13-9-0.72-20.81-11.73-5.58-37.38-16.32-64.38-17V404.5S263.92,360,264.42,370s18.42,34.5,18.42,34.5,0.5-44,3.5-38.5,3.5,29,3.5,29c4.12-.41,5.86-25.6,6.16-31.1,0.12,6.81,11.34,36.1,11.34,36.1s-0.34-19.1-.46-23.28c0.92,5.08,32.92,15.25,30.46,13.28s-17.5-23.5-17.5-23.5l43,8-23-19.5,4,2.5C347.85,360,363.35,350,363.35,350ZM259.43,304.68c0-.56-0.08-1.12-0.08-1.68C259.35,303.57,259.38,304.13,259.43,304.68Z"/><path class="cls-9" d="M309.78,169.15C298.29,159.07,276.9,144,254.49,144c22.41,0,43.83,15.1,55.33,25.18-0.92-4.52-2-7.82-3.28-9.15-7-7.5-18.55-40-56.55-40v79.68c27,0.68,52.68,11.42,64.42,17C313.65,201.29,312.21,181,309.78,169.15Z"/></g><path class="cls-2" d="M173.13,465.94V465h3.75v11.25h3.75v1.88H169.38v-1.87h3.75v-7.5h-1.87v-1.87h1.88v-0.94Z"/><path class="cls-2" d="M184.38,465.94V465h11.25v1.88h-1.87v1.88h-1.87v1.88h1.88v1.88h1.88v3.75h-1.87v1.88h-9.37v-1.87H182.5v-1.87h3.75v1.88h5.63V472.5h-5.62v-1.87h1.88v-1.87H190v-1.87h-5.62v-0.94Z"/><path class="cls-2" d="M199.38,465.94V465h7.5v1.88h1.88v3.75h-1.87v1.88h3.75v3.75h-1.87v1.88h-9.37v-1.87H197.5V472.5h1.88v-1.87H197.5v-3.75h1.88v-0.94Zm3.75,7.5V472.5h-3.75v3.75h7.5v-1.87h-3.75v-0.94Zm3.75-4.69v-1.87h-5.62v1.88h1.88v1.88h3.75v-1.87Z"/><path class="cls-2" d="M229.38,465.94V465h9.38v1.88h1.88v9.38h-1.87v1.88h-9.37v-1.87H227.5v-9.37h1.88v-0.94Zm7.5,5.63v-4.69h-5.62v9.38h5.63v-4.69Z"/><path class="cls-2" d="M242.5,471.56V465h3.75v1.88h1.88v1.88H250v-1.87h1.88V465h3.75v13.13h-3.75V472.5H250v1.88h-1.87V472.5h-1.87v5.63H242.5v-6.56Z"/><path class="cls-2" d="M261.25,465.94V465h5.63v1.88h1.88v1.88h1.88v9.38h-3.75v-3.75h-5.62v3.75H257.5v-9.37h1.88v-1.87h1.88v-0.94Zm3.75,1.88v-0.94h-1.87v1.88h-1.87v3.75h5.63v-3.75H265v-0.94Z"/><path class="cls-2" d="M272.5,471.56V465h3.75v1.88h1.88v1.88H280v1.88h1.88V465h3.75v13.13h-3.75v-1.87H280v-1.87h-1.87V472.5h-1.87v5.63H272.5v-6.56Z"/><path class="cls-2" d="M289.38,467.81V465h3.75v5.63h3.75V465h3.75v5.63h-1.87v1.88h-1.87v5.63h-3.75V472.5h-1.87v-1.87h-1.87v-2.81Z"/><path class="cls-2" d="M304.38,465.94V465h11.25v1.88h-3.75v11.25h-3.75V466.88h-3.75v-0.94Z"/><path class="cls-2" d="M317.5,471.56V465h13.13v1.88h-9.37v3.75h7.5v1.88h-7.5v3.75h9.38v1.88H317.5v-6.56Z"/></svg>