<?xml version="1.0" ?><svg id="pkflt" viewBox="0 0 500 500" xmlns="http://www.w3.org/2000/svg"><defs><style>.cls-1{fill:#e3c582;}.cls-2{fill:#efd195;}.cls-3{fill:#fffac6;}.cls-4{fill:#333;}.cls-5{fill:#fff;}.cls-6{fill:#02939e;}.cls-7{fill:#00a0b6;}.cls-8{fill:#1a1a1a;opacity:0.1;}</style></defs><title/><path class="cls-1" d="M250,110c-7.5,1-10-10-10-10l2.63-10.53c-27.39,0-53.12,21.35-58.63,30.53-6,10-14,161.5-14,161.5l13,8.5s1.7-2.05,4.23-4.84a23.5,23.5,0,0,1,45.65.49C238.64,289.73,243,293,243,293h7v-6c-7.5,1-10-10-10-10l10-40v-9c-7.5,1-10-10-10-10l10-40v-9c-7.5,1-10-10-10-10l10-40v-9Z"/><path class="cls-2" d="M250,60l-7.37,29.47A50,50,0,0,1,250,90V60Z"/><path class="cls-2" d="M250,110V90a50,50,0,0,0-7.37-.53L240,100S242.5,111,250,110Z"/><path class="cls-2" d="M250,169V119l-10,40S242.5,170,250,169Z"/><path class="cls-2" d="M250,228V178l-10,40S242.5,229,250,228Z"/><path class="cls-2" d="M250,287V237l-10,40S242.5,288,250,287Z"/><path class="cls-3" d="M232.89,285.55c-2.37-1.68-5-3.44-7.62-5.36l5.53-.13a23.5,23.5,0,0,0-42.09,1l2.44-.06a83.08,83.08,0,0,1,8.38-7.66,87.14,87.14,0,0,0-8.25,7.61c-1.42,1.46-2.82,2.91-4,4.19a23.48,23.48,0,1,0,46.21,5.81A24,24,0,0,0,232.89,285.55ZM215,288.26v14a5,5,0,1,1-10,0v-22.5a5.12,5.12,0,0,1,9.8-2.22c0.17,0,.3-0.21.48-0.21,2,0,3.79,1.68,4.7,2.68h0a6.57,6.57,0,0,1,.55,2.71A5.62,5.62,0,0,1,215,288.26Z"/><path class="cls-3" d="M188.71,281.05a23.31,23.31,0,0,0-1.48,4.11c1.16-1.28,2.49-2.7,3.91-4.16Z"/><path class="cls-3" d="M225,280.2c2.73,1.84,5.43,3.72,7.89,5.45a23.32,23.32,0,0,0-2.08-5.59Z"/><path class="cls-4" d="M214.74,277.53a5.07,5.07,0,0,0-4.61-3,5.16,5.16,0,0,0-5.12,5.25v0.93l5.53-.13A5.17,5.17,0,0,1,214.74,277.53Z"/><path class="cls-4" d="M209.74,282.87a5.52,5.52,0,0,1,.74-2.33l-5.47.13v21.57a5,5,0,1,0,10,0v-14A5.27,5.27,0,0,1,209.74,282.87Z"/><path class="cls-5" d="M215.25,277.48c-0.18,0-.47,0-0.64.05a5.1,5.1,0,0,1,.39,2.22v0.68l4.84-.11A5.17,5.17,0,0,0,215.25,277.48Z"/><path class="cls-5" d="M215,288.26a5.48,5.48,0,0,0,5.51-5.39,5.38,5.38,0,0,0-.73-2.55l-4.78.11v7.83Z"/><path class="cls-5" d="M210.28,280.54l4.72-.11v-0.68a5.13,5.13,0,0,0-.45-2.22A5.26,5.26,0,0,0,210.28,280.54Z"/><path class="cls-5" d="M210.28,280.54a5.39,5.39,0,0,0-.61,2.33,5.32,5.32,0,0,0,5.33,5.39v-7.83Z"/><path class="cls-3" d="M237,380.55V359H215.45A36.68,36.68,0,0,0,237,380.55Z"/><path class="cls-3" d="M237,311.45A36.68,36.68,0,0,0,215.45,333H237V311.45Z"/><path class="cls-4" d="M237,359v21.55A35.1,35.1,0,0,0,250,383V359H237Z"/><path class="cls-4" d="M237,333h13V309a35.1,35.1,0,0,0-13,2.45V333Z"/><path class="cls-4" d="M215.45,333a35.67,35.67,0,0,0,0,26H237V333H215.45Z"/><rect class="cls-4" height="26" width="13" x="237" y="333"/><path class="cls-6" d="M171,346c-1.77-1.12-4-3.93-6.56-7.79h0S122.5,352,120,366s-24,17.5-32,17,26,3,32,0,6-15.56,20-21.78c9.56-4.25,24.7-9.79,33.35-12.88A8,8,0,0,0,171,346Z"/><path class="cls-6" d="M153.58,405.14c-13.07-.94-31.56-2.65-38.08-5.14-9.65-3.68,23.19,17.56,36.41,19.86A48.73,48.73,0,0,1,153.58,405.14Z"/><path class="cls-7" d="M237,311.45A35.1,35.1,0,0,1,250,309V293h-7s-4.36-3.27-10.12-7.35a23.5,23.5,0,1,1-45.65-.49C184.7,287.95,183,290,183,290l-13-8.5s-34.33-19.83-43-15.5c0,0,13,6,13,15.53,0,3.49,3,12.47,7.16,22.47h0l7.73,17a174.36,174.36,0,0,0,9.54,17.22h0c2.5,3.85,4.77,6.65,6.54,7.76a8,8,0,0,1,2.35,2.34c3.94-1.41,6.53-2.3,6.64-2.34h0s-2.62.9-6.65,2.34c5.52,8.15,1,27.65,1,27.65s-15.51,10-20.75,29.14h0a48.73,48.73,0,0,0-1.67,14.72,9.73,9.73,0,0,0,3,.14l12.59-14h0l-12.59,14a9.73,9.73,0,0,1-3-.14A57.08,57.08,0,0,0,154,433s62-38.33,96-33V383a35.1,35.1,0,0,1-13-2.45A36.68,36.68,0,0,1,215.45,359a35.67,35.67,0,0,1,0-26A36.68,36.68,0,0,1,237,311.45Z"/><path class="cls-6" d="M95,251s-9.18,43,59.91,70v0c-2.76-5.6-5.43-11.51-7.74-17C147.06,303.89,97,285.47,95,251Z"/><path class="cls-6" d="M147.16,304c2.3,5,5,11.44,7.74,17l-7.73-17h0Z"/><path class="cls-1" d="M250,110c7,1,10-10,10-10l-2.63-10.53c27.39,0,53.12,21.35,58.63,30.53,6,10,14,161.5,14,161.5L317,290s-1.7-2.05-4.23-4.84a23.5,23.5,0,0,0-45.65.49C261.36,289.73,257,293,257,293h-7v-6c7.5,1,10-10,10-10l-10-40v-9c7,1,10-10,10-10l-10-40v-9c7,1,10-10,10-10l-10-40v-9Z"/><path class="cls-2" d="M250,60l7.37,29.47A45.75,45.75,0,0,0,250,90V60Z"/><path class="cls-2" d="M250,110V90a45.75,45.75,0,0,1,7.37-.53L260,100S257,111,250,110Z"/><path class="cls-2" d="M250,169V119l10,40S257,170,250,169Z"/><path class="cls-2" d="M250,228V178l10,40S257,229,250,228Z"/><path class="cls-2" d="M250,287V237l10,40S257.5,288,250,287Z"/><path class="cls-3" d="M266.49,290.95a23.49,23.49,0,1,0,46.21-5.81c-1.16-1.28-2.55-2.73-4-4.19a87.14,87.14,0,0,0-8.25-7.61,83.08,83.08,0,0,1,8.38,7.66l2.44,0.06a23.5,23.5,0,0,0-42.09-1l5.53,0.13c-2.64,1.92-5.25,3.68-7.62,5.36A24,24,0,0,0,266.49,290.95Zm13-8.23A6.57,6.57,0,0,1,280,280h0c0.91-1,2.66-2.68,4.7-2.68,0.18,0,.31.19,0.48,0.21a5.12,5.12,0,0,1,9.8,2.22v22.5a5,5,0,1,1-10,0v-14A5.62,5.62,0,0,1,279.49,282.71Z"/><path class="cls-3" d="M311.29,281.05a23.31,23.31,0,0,1,1.48,4.11c-1.16-1.28-2.49-2.7-3.91-4.16Z"/><path class="cls-3" d="M275,280.2c-2.73,1.84-5.43,3.72-7.89,5.45a23.32,23.32,0,0,1,2.08-5.59Z"/><path class="cls-4" d="M285.26,277.53a5.07,5.07,0,0,1,4.61-3,5.16,5.16,0,0,1,5.13,5.25v0.93l-5.53-.13A5.17,5.17,0,0,0,285.26,277.53Z"/><path class="cls-4" d="M290.26,282.87a5.52,5.52,0,0,0-.74-2.33l5.47,0.13v21.57a5,5,0,1,1-10,0v-14A5.27,5.27,0,0,0,290.26,282.87Z"/><path class="cls-5" d="M284.75,277.48c0.18,0,.47,0,0.64.05a5.1,5.1,0,0,0-.39,2.22v0.68l-4.84-.11A5.17,5.17,0,0,1,284.75,277.48Z"/><path class="cls-5" d="M285,288.26a5.48,5.48,0,0,1-5.51-5.39,5.38,5.38,0,0,1,.73-2.55l4.78,0.11v7.83Z"/><path class="cls-5" d="M289.72,280.54l-4.72-.11v-0.68a5.13,5.13,0,0,1,.45-2.22A5.26,5.26,0,0,1,289.72,280.54Z"/><path class="cls-5" d="M289.72,280.54a5.39,5.39,0,0,1,.61,2.33,5.32,5.32,0,0,1-5.33,5.39v-7.83Z"/><path class="cls-3" d="M263,380.55V359h21.55A36.68,36.68,0,0,1,263,380.55Z"/><path class="cls-3" d="M263,311.45A36.68,36.68,0,0,1,284.55,333H263V311.45Z"/><path class="cls-4" d="M263,359v21.55A35.1,35.1,0,0,1,250,383V359h13Z"/><path class="cls-4" d="M263,333H250V309a35.1,35.1,0,0,1,13,2.45V333Z"/><path class="cls-4" d="M284.55,333a35.67,35.67,0,0,1,0,26H263V333h21.55Z"/><rect class="cls-4" height="26" width="13" x="250" y="333"/><path class="cls-6" d="M329,346c1.77-1.12,4-3.93,6.56-7.79h0S377.5,352,380,366s24,17.5,32,17-26,3-32,0-6-15.56-20-21.78c-9.56-4.25-24.7-9.79-33.35-12.88A8,8,0,0,1,329,346Z"/><path class="cls-6" d="M346.42,405.14c13.07-.94,31.56-2.65,38.08-5.14,9.65-3.68-23.19,17.56-36.41,19.86A48.73,48.73,0,0,0,346.42,405.14Z"/><path class="cls-7" d="M263,311.45A35.1,35.1,0,0,0,250,309V293h7s4.36-3.27,10.12-7.35a23.5,23.5,0,1,0,45.65-.49C315.3,287.95,317,290,317,290l13-8.5s34.33-19.83,43-15.5c0,0-13,6-13,15.53,0,3.49-3,12.47-7.16,22.47h0l-7.73,17a174.36,174.36,0,0,1-9.54,17.22h0c-2.5,3.85-4.77,6.65-6.54,7.76a8,8,0,0,0-2.35,2.34c-3.94-1.41-6.53-2.3-6.64-2.34h0s2.62,0.9,6.65,2.34c-5.52,8.15-1,27.65-1,27.65s15.51,10,20.75,29.14h0a48.73,48.73,0,0,1,1.67,14.72,9.73,9.73,0,0,1-3,.14L332.5,406h0l12.59,14a9.73,9.73,0,0,0,3-.14A57.08,57.08,0,0,1,346,433s-62-38.33-96-33V383a35.1,35.1,0,0,0,13-2.45A36.68,36.68,0,0,0,284.55,359a35.67,35.67,0,0,0,0-26A36.68,36.68,0,0,0,263,311.45Z"/><path class="cls-6" d="M405,251s9.18,43-59.91,70v0c2.76-5.6,5.43-11.51,7.74-17C352.94,303.89,403,285.47,405,251Z"/><path class="cls-6" d="M352.84,304c-2.3,5-5,11.44-7.74,17l7.73-17h0Z"/><path class="cls-8" d="M326.65,348.34c8.65,3.09,23.8,8.63,33.35,12.88,14,6.22,14,18.78,20,21.78s40-.5,32,0-29.5-3-32-17-44-27.66-44.43-27.78A174.42,174.42,0,0,0,345.1,321v0h0l0,0.06,0-.06c69-27,59.87-70,59.87-70-2,34-50.77,52.41-52.13,52.92C357.05,294,360,285,360,281.53,360,272,373,266,373,266c-8.67-4.33-43,15.5-43,15.5S322,130,316,120c-5.51-9.18-31.24-30.56-58.63-30.53L250,60V400c34-5.33,96,33,96,33a57.08,57.08,0,0,0,2.09-13.14,9.73,9.73,0,0,1-3,.14L332.5,406h0l12.59,14a9.73,9.73,0,0,0,3-.14c13.22-2.3,46.06-23.54,36.41-19.86-6.52,2.49-25,4.2-38.08,5.14h0C341.18,386,325.67,376,325.67,376s-4.54-19.51,1-27.65c-4-1.44-6.65-2.34-6.65-2.34h0C320.12,346,322.71,346.94,326.65,348.34Zm18.73-27.93,7-15.49v0l-6.78,14.94Zm7-15.39c-1.64,3.89-3.43,7.92-5.32,11.9C348.94,312.84,350.74,308.63,352.37,305Zm-16.83,33.22a39.23,39.23,0,0,1-5.13,6.62,39.24,39.24,0,0,0,5.13-6.62h0Zm-5.21,6.7c-0.22.21-.44,0.4-0.64,0.57C329.89,345.34,330.11,345.14,330.33,344.93Zm-50.84-62.12s0-.06,0-0.1A6.57,6.57,0,0,1,280,280h0c0.91-1,2.66-2.68,4.7-2.68a1.16,1.16,0,0,1,.4.18l-0.36,0a5.17,5.17,0,0,0-4.59,2.84h0.06A5.43,5.43,0,0,0,279.49,282.81Zm5.89-5.26h0.06a5.15,5.15,0,0,0-.44,2.19A5.13,5.13,0,0,1,285.38,277.55Zm-0.11,0h-0.06a5.16,5.16,0,0,1,4.67-3A5.07,5.07,0,0,0,285.27,277.52Zm4.73,37a23.5,23.5,0,0,1-23.23-19.95,23.48,23.48,0,1,0,45.94-9.42c-1.16-1.28-2.55-2.73-4-4.19a87.14,87.14,0,0,0-8.25-7.61,83.08,83.08,0,0,1,8.38,7.66c1.42,1.46,2.75,2.89,3.91,4.16A23.52,23.52,0,0,1,290,314.5Z"/><path class="cls-7" d="M173.13,465.94V465h3.75v11.25h3.75v1.88H169.38v-1.87h3.75v-7.5h-1.87v-1.87h1.88v-0.94Z"/><path class="cls-7" d="M184.38,465.94V465h11.25v1.88h-1.87v1.88h-1.87v1.88h1.88v1.88h1.88v3.75h-1.87v1.88h-9.37v-1.87H182.5v-1.87h3.75v1.88h5.63V472.5h-5.62v-1.87h1.88v-1.87H190v-1.87h-5.62v-0.94Z"/><path class="cls-7" d="M199.38,465.94V465h9.38v1.88h1.88v7.5h-1.87v1.88h-1.87v1.88h-7.5v-1.87H205v-1.87h1.88V472.5h-7.5v-1.87H197.5v-3.75h1.88v-0.94Zm7.5,2.81v-1.87h-5.62v3.75h5.63v-1.87Z"/><path class="cls-7" d="M229.38,465.94V465h9.38v1.88h1.88v9.38h-1.87v1.88h-9.37v-1.87H227.5v-9.37h1.88v-0.94Zm7.5,5.63v-4.69h-5.62v9.38h5.63v-4.69Z"/><path class="cls-7" d="M242.5,471.56V465h3.75v1.88h1.88v1.88H250v-1.87h1.88V465h3.75v13.13h-3.75V472.5H250v1.88h-1.87V472.5h-1.87v5.63H242.5v-6.56Z"/><path class="cls-7" d="M261.25,465.94V465h5.63v1.88h1.88v1.88h1.88v9.38h-3.75v-3.75h-5.62v3.75H257.5v-9.37h1.88v-1.87h1.88v-0.94Zm3.75,1.88v-0.94h-1.87v1.88h-1.87v3.75h5.63v-3.75H265v-0.94Z"/><path class="cls-7" d="M274.38,465.94V465h7.5v1.88h1.88v1.88H280v-1.87h-3.75v3.75h7.5v1.88h1.88v3.75h-1.87v1.88h-9.37v-1.87H272.5v-1.87h3.75v1.88h5.63V472.5h-7.5v-1.87H272.5v-3.75h1.88v-0.94Z"/><path class="cls-7" d="M289.38,465.94V465h11.25v1.88h-3.75v11.25h-3.75V466.88h-3.75v-0.94Z"/><path class="cls-7" d="M306.25,465.94V465h5.63v1.88h1.88v1.88h1.88v9.38h-3.75v-3.75h-5.62v3.75H302.5v-9.37h1.88v-1.87h1.88v-0.94Zm3.75,1.88v-0.94h-1.87v1.88h-1.87v3.75h5.63v-3.75H310v-0.94Z"/><path class="cls-7" d="M317.5,471.56V465h11.25v1.88h1.88v5.63h-3.75v1.88h1.88v1.88h1.88v1.88H325v-1.87h-1.87v-1.87h-1.87v3.75H317.5v-6.56Zm9.38-2.81v-1.87h-5.62v5.63H325v-1.87h1.88v-1.87Z"/></svg>