<?xml version="1.0" ?><svg id="pkft" viewBox="0 0 500 500" xmlns="http://www.w3.org/2000/svg"><defs><style>.cls-1{fill:#bfa94f;}.cls-2{fill:#b29e47;}.cls-3{fill:#c9b14f;}.cls-4{fill:#a59241;}.cls-5{fill:none;}.cls-6{fill:#f2ab68;}.cls-7{fill:#bfa94c;}.cls-8{fill:#d1bd66;}.cls-9{fill:#d3be59;}.cls-10{fill:#ff7bac;}.cls-11{fill:#ccb65a;}.cls-12{fill:#1a1a1a;}.cls-13{fill:#f2f2f2;}.cls-14{opacity:0.1;}</style></defs><title/><path class="cls-1" d="M203.42,351.1c11-6.77,27.77-11.1,46.58-11.1V320c-23.14,0-43.21,6.55-53.22,16.15A159.36,159.36,0,0,0,203.42,351.1Z"/><path class="cls-2" d="M212.83,366.47C223,362.42,236,360,250,360V340c-18.8,0-35.58,4.33-46.58,11.1A109.6,109.6,0,0,0,212.83,366.47Z"/><path class="cls-3" d="M250,390V380a110,110,0,0,1-28.42-3.58C229.5,383.88,238.88,388.91,250,390Z"/><path class="cls-4" d="M221.58,376.42A110,110,0,0,0,250,380V360c-14,0-27,2.42-37.17,6.47A74.76,74.76,0,0,0,221.58,376.42Z"/><polygon class="cls-5" points="248.88 219.65 248.87 219.65 248.88 219.66 248.88 219.65"/><polygon class="cls-6" points="248.87 219.65 223.34 205.08 233.91 211.38 248.87 219.65"/><path class="cls-3" d="M210.94,260a9.17,9.17,0,1,0-17.54,0H180s2.94,40.36,16.78,76.15c10-9.59,30.08-16.15,53.22-16.15V260H210.94Z"/><path class="cls-7" d="M228.79,214.31l1.39-.79-0.53-.21-40.75,23.32A33,33,0,0,1,175.75,241l-1.92,7.58c-3.6,10.1-3.1,20.66,1.11,23.46s14.26-.68,22.34-7.74l8.51-7.43,8.58-34.31Z"/><path class="cls-8" d="M248.88,220h0l-15.74-9.09,0.78,0.46-3.74,2.14-1.39.79-14.43,8.26-8.58,34.31-2.14,8.58c-2,8,1.13,19.33,7,25.16L250,330V220.28Z"/><path class="cls-9" d="M233,113c-9.33,0-22.83,8.06-30,17.67l-19.09,25.73c-7.09,9.49-4.52,22.22,5.67,28.59l0.39,0.25,32.66,19.6,0.68,0.41L248.87,220h0l1.12,0.28V113H233Z"/><polygon class="cls-10" points="233.14 210.91 223.34 205.08 233.91 211.38 233.14 210.91"/><path class="cls-3" d="M190,185.24l-0.39-.25L172.77,220.2c-4.59,7.66-5.92,16.36-2.94,19.34,1.32,1.32,3.78,1.82,6.78,1.58a31.93,31.93,0,0,0,12.73-4.23l25-14.32,14.43-8.26,0.45-.26-5.89-9Z"/><polygon class="cls-11" points="248.88 219.65 248.88 219.66 248.87 219.65 233.91 211.38 223.34 205.08 229.23 214.06 229.61 214.63 238.36 227.95 250 245.67 250 220.28 248.88 219.65"/><path class="cls-12" d="M206.89,164.54l3.51-7.19c2-4.08,6.12-4.67,9.17-1.3l12.67,14a5.78,5.78,0,1,0,7.51,8.28l1.47,1.62c3.05,3.37,4.9,6.95,4.1,8s-4.86.34-9-1.48l-25.46-11.13A7.88,7.88,0,0,1,206.89,164.54Z"/><path class="cls-13" d="M235.57,180.91A5.78,5.78,0,0,1,232.25,170l7.51,8.28A5.77,5.77,0,0,1,235.57,180.91Z"/><path class="cls-1" d="M296.7,351.1C285.7,344.33,269,340,250,340V320c23,0,43.27,6.55,53.28,16.15A159,159,0,0,1,296.7,351.1Z"/><path class="cls-2" d="M287.29,366.47C277.07,362.42,264,360,250,360V340c19,0,35.64,4.33,46.64,11.1A109.32,109.32,0,0,1,287.29,366.47Z"/><path class="cls-3" d="M250,390V380a106.07,106.07,0,0,0,28.42-3.58C270.5,383.88,261,388.91,250,390Z"/><path class="cls-4" d="M278.54,376.42A107,107,0,0,1,250,380V360c14,0,27,2.42,37.23,6.47A74.39,74.39,0,0,1,278.54,376.42Z"/><polygon class="cls-5" points="251.36 219.65 251.36 219.65 251.36 219.66 251.36 219.65"/><polygon class="cls-6" points="251.36 219.65 276.9 205.08 266.32 211.38 251.36 219.65"/><path class="cls-3" d="M289.3,260a10,10,0,0,1-.4-2.67A9.17,9.17,0,1,1,306.84,260h13.4s-3.05,40.36-16.9,76.15C293.33,326.55,273,320,250,320V260h39.3Z"/><path class="cls-7" d="M271.45,214.31l-1.39-.79,0.53-.21,40.75,23.32A33,33,0,0,0,324.49,241l1.92,7.58c3.6,10.1,3.1,20.66-1.11,23.46S311,271.36,303,264.3l-8.51-7.43-8.58-34.31Z"/><path class="cls-8" d="M251.36,220h0l15.74-9.09-0.78.46,3.74,2.14,1.39,0.79,14.43,8.26,8.58,34.31,2.14,8.58c2,8-1.25,19.33-7.09,25.16L250,330V220.28Z"/><path class="cls-9" d="M267.19,113c9.33,0,22.83,8.06,30,17.67l19.09,25.73c7.09,9.49,4.52,22.22-5.67,28.59l-0.39.25-32.66,19.6-0.68.41L251.36,220h0l-1.36.28V113h17.19Z"/><polygon class="cls-10" points="267.1 210.91 276.9 205.08 266.32 211.38 267.1 210.91"/><path class="cls-3" d="M310.24,185.24l0.39-.25,16.84,35.21c4.59,7.66,5.92,16.36,2.94,19.34-1.32,1.32-3.78,1.82-6.78,1.58a31.93,31.93,0,0,1-12.73-4.23l-25-14.32-14.43-8.26-0.45-.26,5.89-9Z"/><polygon class="cls-11" points="251.24 220 251.3 220 251.33 219.83 266.31 211.46 276.89 205.13 271 214.08 270.62 214.64 261.76 227.95 250 245.67 250 220.28 251.24 220"/><path class="cls-12" d="M293.35,164.54l-3.51-7.19c-2-4.08-6.12-4.67-9.17-1.3L268,170a5.78,5.78,0,1,1-7.51,8.28L259,179.93c-3.05,3.37-4.9,6.95-4.1,8s4.86,0.34,9-1.48l25.46-11.13A7.88,7.88,0,0,0,293.35,164.54Z"/><path class="cls-13" d="M264.67,180.91A5.78,5.78,0,0,0,268,170l-7.51,8.28A5.77,5.77,0,0,0,264.67,180.91Z"/><g class="cls-14"><path class="cls-12" d="M287.29,366.47a109.32,109.32,0,0,0,9.35-15.37C285.64,344.33,269,340,250,340v20C264,360,277.07,362.42,287.29,366.47Z"/><path class="cls-12" d="M250,390c11-1.09,20.46-6.1,28.38-13.54l0.16,0a74.39,74.39,0,0,0,8.69-9.95C277,362.42,264,360,250,360v30Z"/><path class="cls-12" d="M330.41,239.54c3-3,1.65-11.68-2.94-19.34L310.63,185c10.19-6.37,12.77-19.1,5.67-28.59l-19.09-25.73c-7.18-9.61-20.69-17.67-30-17.67H250V340c19,0,35.7,4.33,46.7,11.1a159,159,0,0,0,6.58-14.95c-8.58-8.23-24.71-14.22-43.64-15.76h0c18.94,1.54,35.12,7.53,43.7,15.76,9-23.35,13.48-48.66,15.47-63.42,2.68,0.5,5,.32,6.49-0.69,4.21-2.8,4.71-13.36,1.11-23.46l-1.88-7.42C327.12,241.24,329.23,240.72,330.41,239.54Zm-64.09-28.16,0.78-.46,3.49-2-4.2,2.52Z"/></g><path class="cls-3" d="M178.75,465.94V465h5.63v1.88h1.88v1.88h1.88v5.63h-1.87v1.88h-1.87v1.88h-5.62v-1.87h-1.87v-1.87H175v-5.62h1.88v-1.87h1.88v-0.94Zm3.75,1.88v-0.94h-3.75v7.5h1.88v1.88h3.75v-7.5H182.5v-0.94Z"/><path class="cls-3" d="M195.63,465.94V465h3.75v11.25h3.75v1.88H191.88v-1.87h3.75v-7.5h-1.87v-1.87h1.88v-0.94Z"/><path class="cls-3" d="M210.63,465.94V465h5.63v7.5h1.88v1.88h-1.87v3.75H212.5v-3.75H205v-3.75h1.88v-1.87h1.88v-1.87h1.88v-0.94Zm1.88,4.69v-1.87h-1.87v1.88h-1.87v1.88h3.75v-1.87Z"/><path class="cls-3" d="M235,471.56V465h3.75v5.63h1.88v-1.87h1.88v-1.87h1.88V465h3.75v1.88h-1.87v1.88h-1.87v1.88H242.5v1.88h1.88v1.88h1.88v1.88h1.88v1.88H242.5v-1.87h-1.87v-1.87h-1.87v3.75H235v-6.56Z"/><path class="cls-3" d="M253.75,465.94V465h5.63v1.88h1.88v1.88h1.88v9.38h-3.75v-3.75h-5.62v3.75H250v-9.37h1.88v-1.87h1.88v-0.94Zm3.75,1.88v-0.94h-1.87v1.88h-1.87v3.75h5.63v-3.75H257.5v-0.94Z"/><path class="cls-3" d="M265,471.56V465h3.75v5.63h1.88v-1.87h1.88v-1.87h1.88V465h3.75v1.88h-1.87v1.88h-1.87v1.88H272.5v1.88h1.88v1.88h1.88v1.88h1.88v1.88H272.5v-1.87h-1.87v-1.87h-1.87v3.75H265v-6.56Z"/><path class="cls-3" d="M280,470.63V465h3.75v11.25h5.63V465h3.75v11.25h-1.87v1.88h-9.37v-1.87H280v-5.62Z"/><path class="cls-3" d="M295,471.56V465h3.75v1.88h1.88v1.88h1.88v1.88h1.88V465h3.75v13.13h-3.75v-1.87H302.5v-1.87h-1.87V472.5h-1.87v5.63H295v-6.56Z"/><path class="cls-3" d="M313.75,465.94V465h5.63v1.88h1.88v1.88h1.88v9.38h-3.75v-3.75h-5.62v3.75H310v-9.37h1.88v-1.87h1.88v-0.94Zm3.75,1.88v-0.94h-1.87v1.88h-1.87v3.75h5.63v-3.75H317.5v-0.94Z"/></svg>