<?xml version="1.0" ?><svg id="pkflt" viewBox="0 0 500 500" xmlns="http://www.w3.org/2000/svg"><defs><style>.cls-1{fill:#bf8008;}.cls-2{fill:#865100;}.cls-3,.cls-6{fill:#1a1a1a;}.cls-4{fill:#fb8fe8;}.cls-5{fill:#fada31;}.cls-6{opacity:0.1;}</style></defs><title/><path class="cls-1" d="M249,354h0a248.11,248.11,0,0,1-33.31-2L223,363.6a174.45,174.45,0,0,0,27,1.4V354h-1Z"/><path class="cls-1" d="M160,174.49C130,224.33,140,307,140,307s11.33,34,55.29,49.94a100.53,100.53,0,0,1-7.47-11.87A35.18,35.18,0,0,1,178,339h-5.54s-36.94-64.95,0-151.44c0,0,16.49-26.37,46.79-4.2L249,200.14v14.55l1,0.56V130S190,124.65,160,174.49Zm55-.63c-2.64,2.64-8.1,1.45-12.2-2.65s-5.29-9.56-2.65-12.2,8.1-1.45,12.2,2.65S217.65,171.23,215,173.86Z"/><path class="cls-2" d="M185,340h-5s-33.33-58.33,0-136.33c0,0,15.33-23.67,42.67-3.67L249,214.69V200.14l-29.79-16.78c-30.29-22.18-46.79,4.2-46.79,4.2-36.94,86.49,0,151.44,0,151.44H178a35.18,35.18,0,0,0,9.86,6.07c-0.86-1.6-1.66-3.17-2.39-4.69Z"/><polygon class="cls-2" points="250 215 250 200 248 200 248.5 214.41 250 215"/><path class="cls-2" d="M215.69,352A248.11,248.11,0,0,0,249,354h0a231.84,231.84,0,0,1-33.78-2.78Z"/><path class="cls-3" d="M249,354h1V215.25l-1-.56V354Z"/><path class="cls-3" d="M180,203.67c-33.33,78,0,136.33,0,136.33h5l0.44,0.38A109.76,109.76,0,0,1,179,324c10.33-10,25-2.14,25-2.14L218,334l-7.33,10,4.55,7.22A231.84,231.84,0,0,0,249,354V214.69L222.67,200C195.33,180,180,203.67,180,203.67ZM175,270c10.33-10,25-2.14,25-2.14L214,280l-7.33,10L230,327C190,324,175,270,175,270Zm28.55-12.25c-12.78,1.67-24.87-10.3-27-26.73s6.48-31.1,19.26-32.77,24.87,10.3,27,26.73S216.33,256.08,203.55,257.75Z"/><ellipse class="cls-4" cx="199.67" cy="228" rx="23.33" ry="30" transform="translate(-27.81 27.74) rotate(-7.43)"/><path class="cls-5" d="M214,280l-14-12.14S185.33,260,175,270c0,0,15,54,55,57l-23.33-37Z"/><path class="cls-5" d="M234,381l-11-17.4a132.22,132.22,0,0,1-27.74-6.66C204,368.84,216.68,379.7,234,381Z"/><path class="cls-5" d="M187.82,345.07a100.53,100.53,0,0,0,7.47,11.87A132.22,132.22,0,0,0,223,363.6L215.69,352C206,350.67,195.83,348.54,187.82,345.07Z"/><path class="cls-5" d="M215.22,351.22c-11.66-1.94-23.32-5.24-29.78-10.84,0.73,1.51,1.52,3.08,2.39,4.69,8,3.47,18.15,5.6,27.87,6.9Z"/><path class="cls-5" d="M218,334l-14-12.14S189.33,314,179,324a109.76,109.76,0,0,0,6.44,16.38c6.47,5.59,18.13,8.89,29.78,10.84L210.67,344Z"/><ellipse class="cls-3" cx="207.59" cy="166.44" rx="6.75" ry="10.5" transform="translate(-56.89 195.54) rotate(-45)"/><path class="cls-1" d="M251,354h0a250.38,250.38,0,0,0,33.51-2l-7.44,11.63A174.4,174.4,0,0,1,250,365V354h1Z"/><path class="cls-1" d="M250,130v85.25l1-.56V200.14l30-16.78c30.29-22.18,46.89,4.2,46.89,4.2C364.82,274.05,328,339,328,339h-5.54a35.18,35.18,0,0,1-9.86,6.07,100.53,100.53,0,0,1-7.47,11.87c44-16,55.29-49.94,55.29-49.94s9.8-82.67-20.2-132.51S250,130,250,130Zm38,31.67c4.1-4.1,9.56-5.29,12.2-2.65s1.45,8.1-2.65,12.2-9.56,5.29-12.2,2.65S283.93,165.77,288,161.67Z"/><path class="cls-2" d="M315.4,340h5s33.33-58.33,0-136.33c0,0-15.53-23.67-42.87-3.67L251,214.69V200.14l30-16.78c30.29-22.18,46.89,4.2,46.89,4.2C364.82,274.05,328,339,328,339h-5.54a35.18,35.18,0,0,1-9.86,6.07c0.86-1.6,1.66-3.17,2.39-4.69Z"/><polygon class="cls-2" points="250 215 250 200 252.4 200 251.7 214.41 250 215"/><path class="cls-2" d="M284.51,352A250.38,250.38,0,0,1,251,354h0a232.14,232.14,0,0,0,33.88-2.78Z"/><path class="cls-3" d="M251,354h-1V215.25l1-.56V354Z"/><path class="cls-3" d="M277.53,200L251,214.69V354a233.19,233.19,0,0,0,34-2.78l4.65-7.22-7.28-10,14-12.14s14.68-7.86,25,2.14A109.24,109.24,0,0,1,315,340.38l0.44-.38h5s33.23-58.33-.1-136.33C320.3,203.67,304.87,180,277.53,200ZM270.4,327l23.33-37-7.33-10,14-12.14s14.67-7.86,25,2.14C325.4,270,310.4,324,270.4,327Zm7.2-102c2.14-16.43,14.24-28.4,27-26.73S326,214.59,323.87,231s-14.24,28.4-27,26.73S275.45,241.41,277.6,225Z"/><ellipse class="cls-4" cx="300.73" cy="228" rx="30" ry="23.33" transform="translate(35.75 496.72) rotate(-82.57)"/><path class="cls-5" d="M286.4,280l14-12.14s14.67-7.86,25,2.14c0,0-15,54-55,57l23.33-37Z"/><path class="cls-5" d="M266.4,381l11-17.4a132.22,132.22,0,0,0,27.74-6.66C296.35,368.84,283.72,379.7,266.4,381Z"/><path class="cls-5" d="M312.58,345.07a100.53,100.53,0,0,1-7.47,11.87,132.22,132.22,0,0,1-27.74,6.66L284.71,352C294.43,350.67,304.57,348.54,312.58,345.07Z"/><path class="cls-5" d="M285.18,351.22c11.66-1.94,23.32-5.24,29.78-10.84-0.73,1.51-1.52,3.08-2.39,4.69-8,3.47-18.15,5.6-27.87,6.9Z"/><path class="cls-5" d="M282.4,334l14-12.14s14.67-7.86,25,2.14A109.76,109.76,0,0,1,315,340.38c-6.47,5.59-18.13,8.89-29.78,10.84l4.55-7.22Z"/><ellipse class="cls-3" cx="292.81" cy="166.44" rx="10.5" ry="6.75" transform="translate(-31.93 255.8) rotate(-45)"/><path class="cls-6" d="M340.2,174.49C310.2,124.65,250,130,250,130V365a174.4,174.4,0,0,0,27.07-1.4L284.51,352l0.37-.74,0.11,0,4.65-7.22-7.28-10,14-12.14a28.43,28.43,0,0,1,12.56-2.93,28.4,28.4,0,0,0-12.53,2.93L282.4,334l7.33,10-4.55,7.22-0.48.75-7.34,11.63-11,17.4c17.32-1.3,30-12.16,38.71-24.06,44-16,55.29-49.94,55.29-49.94S370.2,224.33,340.2,174.49Zm-19.9,29.17S312.67,192,298.65,192c14.07,0,21.75,11.7,21.75,11.7,33.33,78,0,136.33,0,136.33S353.63,281.67,320.3,203.67ZM315,340.37l0.43-.37-0.44.38h0Z"/><path class="cls-2" d="M180.63,465.94V465h3.75v11.25h3.75v1.88H176.88v-1.87h3.75v-7.5h-1.87v-1.87h1.88v-0.94Z"/><path class="cls-2" d="M195.63,465.94V465h5.63v7.5h1.88v1.88h-1.87v3.75H197.5v-3.75H190v-3.75h1.88v-1.87h1.88v-1.87h1.88v-0.94Zm1.88,4.69v-1.87h-1.87v1.88h-1.87v1.88h3.75v-1.87Z"/><path class="cls-2" d="M208.75,465.94V465h5.63v1.88h1.88v1.88h1.88v5.63h-1.87v1.88h-1.87v1.88h-5.62v-1.87h-1.87v-1.87H205v-5.62h1.88v-1.87h1.88v-0.94Zm3.75,1.88v-0.94h-3.75v7.5h1.88v1.88h3.75v-7.5H212.5v-0.94Z"/><path class="cls-2" d="M235,471.56V465h3.75v5.63h1.88v-1.87h1.88v-1.87h1.88V465h3.75v1.88h-1.87v1.88h-1.87v1.88H242.5v1.88h1.88v1.88h1.88v1.88h1.88v1.88H242.5v-1.87h-1.87v-1.87h-1.87v3.75H235v-6.56Z"/><path class="cls-2" d="M253.75,465.94V465h5.63v1.88h1.88v1.88h1.88v9.38h-3.75v-3.75h-5.62v3.75H250v-9.37h1.88v-1.87h1.88v-0.94Zm3.75,1.88v-0.94h-1.87v1.88h-1.87v3.75h5.63v-3.75H257.5v-0.94Z"/><path class="cls-2" d="M265,471.56V465h11.25v1.88h1.88v3.75h-1.87v1.88h1.88v3.75h-1.87v1.88H265v-6.56Zm9.38-2.81v-1.87h-5.62v3.75h5.63v-1.87Zm0,5.63V472.5h-5.62v3.75h5.63v-1.87Z"/><path class="cls-2" d="M280,470.63V465h3.75v11.25h5.63V465h3.75v11.25h-1.87v1.88h-9.37v-1.87H280v-5.62Z"/><path class="cls-2" d="M296.88,465.94V465h11.25v1.88h-3.75v11.25h-3.75V466.88h-3.75v-0.94Z"/><path class="cls-2" d="M311.88,465.94V465h9.38v1.88h1.88v9.38h-1.87v1.88h-9.37v-1.87H310v-9.37h1.88v-0.94Zm7.5,5.63v-4.69h-5.62v9.38h5.63v-4.69Z"/></svg>