<?xml version="1.0" ?><svg id="pkflt" viewBox="0 0 500 500" xmlns="http://www.w3.org/2000/svg"><defs><style>.cls-1{fill:#fff;}.cls-2{fill:none;}.cls-3{fill:#8c5104;}.cls-4{fill:#333;}.cls-5{fill:#b3b3b3;}.cls-6{fill:#ccc;}.cls-7{fill:#e6e6e6;}.cls-10,.cls-8{fill:#1a1a1a;}.cls-9{fill:#955e0c;}.cls-10{opacity:0.1;}</style></defs><title/><path class="cls-1" d="M227,172.22c0.4,0.39,1.7-.26,3.1-1.47l-0.86-2.45-0.07.06C227.49,170,226.52,171.75,227,172.22Z"/><path class="cls-2" d="M227,172.22c0.4,0.39,1.7-.26,3.1-1.47l-0.86-2.45-0.07.06C227.49,170,226.52,171.75,227,172.22Z"/><path class="cls-2" d="M246.77,260.36A4.21,4.21,0,0,0,246,260a3.4,3.4,0,0,0,.42.7,4.17,4.17,0,0,0,1.46,1.16A1.87,1.87,0,0,0,246.77,260.36Z"/><path class="cls-3" d="M222.54,239.59c-0.73-5.66-2.31-16.1-4.29-18.09-2.75-2.75-7.75-6.75-8.25-11.5s-4.6-20.81-2.37-23.43a49,49,0,0,0-5.32,3.43c-2.25,1.75-1.28,7.33-1.28,7.33s-10,5.21-14.26,5.69-10.76-.8-10.76,1,1.74,20.28,5.74,19.39S184,214.5,188.5,213s15.35-9.32,19.25-4-6.63,24-6.63,24L219,228.3V233l-11.15,10.93h0a32.9,32.9,0,0,1,13.4-3.93S221.76,239.81,222.54,239.59Z"/><path class="cls-4" d="M235.37,241.81c-4.63-1.5-8.5-10.05-8.5-10.05l0.12,0c-1.59-1.21-3-2.46-3.69-3.12l-0.49-.46c-0.46-1.44-.84-2.8-1.18-4.09-0.42-1.6-.76-3.11-1-4.5l-0.87-.69c-2.14-1.74-3.74-3.29-3.74-3.29a81,81,0,0,1-3.66-16.93c-0.88-9.79,1.58-13.64,2.07-14.3l-0.15-.1c-0.92,0-4.36.31-6.51,2.18a1.29,1.29,0,0,0-.12.14c-2.23,2.63,1.88,18.77,2.37,23.43s5.5,8.75,8.25,11.5c2,2,3.56,12.42,4.29,18.09a14.4,14.4,0,0,1,4.55-.62c2.27,0.15,4.07,1.34,2.91,5.29-2.5,8.5-3.25,10.25,0,13s5.75,5,10,5.25a6.6,6.6,0,0,0,6-2.47C245,257.78,240,243.31,235.37,241.81Z"/><path class="cls-5" d="M237.35,233.1a14.29,14.29,0,0,1-4.57,1.53c-1.56,0-3.82-1.4-5.8-2.9l-0.12,0s3.87,8.55,8.5,10.05S245,257.78,246,260a4.21,4.21,0,0,1,.77.33,1.87,1.87,0,0,1,1.11,1.52,6.42,6.42,0,0,0,2.12.61V228.58C248.67,227.25,242.18,230.9,237.35,233.1Z"/><path class="cls-6" d="M232.39,222.49a12.09,12.09,0,0,1-3.92,1.14c-2.11,0-5.26-2-7.87-4.07,0.27,1.39.61,2.9,1,4.5l1.67,4.55c0.7,0.65,2.09,1.91,3.69,3.12,2,1.5,4.24,2.9,5.8,2.9a14.29,14.29,0,0,0,4.57-1.53c4.83-2.2,11.31-5.85,12.65-4.52V216C248.16,214.16,238.48,219.94,232.39,222.49Z"/><path class="cls-6" d="M223.3,228.61l-1.67-4.55c0.34,1.29.72,2.65,1.18,4.09Z"/><path class="cls-7" d="M238.67,197.33a176.13,176.13,0,0,1-24.05-12.86l-0.2-.13c-0.49.66-3,4.52-2.07,14.3A81,81,0,0,0,216,215.58s1.6,1.55,3.74,3.29l0.87,0.69c2.61,2,5.75,4.07,7.87,4.07a12.09,12.09,0,0,0,3.92-1.14c6.08-2.54,15.77-8.32,17.61-6.49V203S240,203.67,238.67,197.33Z"/><path class="cls-3" d="M214.5,184.24h-0.24l0.15,0.1Z"/><path class="cls-3" d="M214.61,184.48a176.13,176.13,0,0,0,24.05,12.86c-0.16-.78-0.65-2.5-1.39-4.91-0.52-1.69-1.16-3.71-1.9-6h0c-24-11.63-14.12-26.89-10.8-31-6.57-17.69-13.69-34.65-17.24-36.74-5.1-3-7.94-7.64-5.38-9.06a35.33,35.33,0,0,1-5-4.36l-2.25-2.5s-0.5-6.75-11-8.5-21-20.25-21-20.25S146,140.07,214.26,184.25h0.24Z"/><path class="cls-3" d="M214.42,184.35l0.2,0.13-0.11-.24Z"/><path class="cls-1" d="M235.37,186.43h0c-1.16-3.58-2.57-7.81-4.14-12.37-3.4,2.58-6.56,3.69-7.76,2.48-1.53-1.53.67-6.23,4.93-10.59-1.23-3.47-2.52-7-3.82-10.54C221.26,159.54,211.42,174.8,235.37,186.43Z"/><path class="cls-8" d="M223.46,176.54c1.2,1.2,4.36.1,7.76-2.48l-1.15-3.31c-1.4,1.22-2.7,1.87-3.1,1.47s0.51-2.2,2.17-3.86l0.07-.06-0.83-2.35C224.13,170.3,221.93,175,223.46,176.54Z"/><path class="cls-9" d="M208.67,110c-3.44-1-5.59-1-6.71-.39-2.57,1.41.27,6,5.38,9.06,3.54,2.09,10.67,19.06,17.24,36.74,1.31,3.52,2.59,7.07,3.82,10.54l0.83,2.35,0.86,2.45,1.15,3.31c1.57,4.56,3,8.79,4.14,12.37,0.74,2.29,1.39,4.32,1.9,6,0.74,2.41,1.23,4.13,1.39,4.91C240,203.67,250,203,250,203V120C241.33,123.33,220,113.33,208.67,110Z"/><path class="cls-9" d="M246.77,260.36l-0.35.37a4.17,4.17,0,0,0,1.46,1.16A1.87,1.87,0,0,0,246.77,260.36Z"/><path class="cls-9" d="M246.42,260.73l0.35-.37A4.21,4.21,0,0,0,246,260,3.4,3.4,0,0,0,246.42,260.73Z"/><path class="cls-6" d="M181.75,208.75s-8.25,1.75-13.25-1.25S142,191,135.75,191.25s-7.25-16.75-7.25-17.5,0.75-8-3.25-6.5-5,3.5-8.25,6.25-14.25.54-17,3.52c0,0-80,78.48,16,203l9.25,4S107,348.5,107.5,335.5s0-57.2,32.5-90.1c0,0-21.5-20.9-18-30.15S132,195.5,140,200s17,20,17,20,18.13-5.37,22.75-3.5S181.75,208.75,181.75,208.75Z"/><path class="cls-4" d="M196.25,296.25c-1.36-.68-3.07-1.32-4.83-2.07l-0.14,1a9.18,9.18,0,0,1,3.28,4c0.14,0.31.25,0.61,0.36,0.92a5.24,5.24,0,0,1,5.08-1.37c0.62,0.13,1.17.22,1.68,0.28l0.52-2.72C199.8,296.9,197.69,297,196.25,296.25Z"/><path class="cls-9" d="M246.42,260.73A3.4,3.4,0,0,1,246,260a6.6,6.6,0,0,1-6,2.47c-4.25-.25-6.75-2.5-10-5.25s-2.5-4.5,0-13c1.16-3.95-.65-5.14-2.91-5.29a14.4,14.4,0,0,0-4.55.62c-0.78.22-1.29,0.41-1.29,0.41a32.9,32.9,0,0,0-13.4,3.93c-19.82,10.75-26.1,39.32-26.1,39.32-0.18,6.19,4.94,8.93,9.67,10.93,1.76,0.75,3.47,1.39,4.83,2.07s3.55,0.65,5.95.06c5.93-1.47,13.63-6.25,17.54-11.06,5.49-6.75,22-17.5,26.26-20.75,1.43-1.09,1.88-1.95,1.88-2.61A4.17,4.17,0,0,1,246.42,260.73Z"/><path class="cls-6" d="M202.17,413.83c-2.19-.58-3.23-1.51-3.47-2.63h0s-0.35,2.3-6.35,3.64S186.44,427,186.44,427A63.59,63.59,0,0,1,210,414.84l-0.15,0A22.93,22.93,0,0,1,202.17,413.83Z"/><path class="cls-7" d="M187.67,408.16h0Z"/><path class="cls-6" d="M188.95,396.74c-16.19-5.6-25.78,11.42-25.78,11.42,15.89-4.43,21.91-1.94,23.78-.64C185.49,405.4,187.57,399.87,188.95,396.74Z"/><path class="cls-3" d="M186.95,407.52a1.85,1.85,0,0,0,.71.61A3.51,3.51,0,0,0,186.95,407.52Z"/><path class="cls-3" d="M232.83,396.5a10.53,10.53,0,0,1,2.1-9.89A6.77,6.77,0,0,1,233,387c-6.06.35-13.55-1.71-17.59-3,0,0-14.75,15.5-25.41,10.5,0,0-.46.9-1.05,2.24-1.38,3.13-3.46,8.66-2,10.79a3.51,3.51,0,0,1,.71.61h0c0.77,0.37,1.94.34,3.66-.31,10.17-3.83,16.36-11.67,21.18-10.67,0,0-14.92,9-13.82,14,0.24,1.12,1.28,2,3.47,2.63a22.93,22.93,0,0,0,7.68,1c4.77-.42,5.45-3.47,6.65-4.79,1.67-1.83,3.33-2.17,7.33-1.67s12.33,1.5,12.5-3.83S234.67,402.17,232.83,396.5Z"/><path class="cls-9" d="M240,364.5c0-8-26.25-31.75-30-49.75-3.35-16.07-4.11-15.2-8.32-15.72-0.51-.06-1.06-0.14-1.68-0.28a5.24,5.24,0,0,0-5.08,1.37,7.5,7.5,0,0,1-.34,6.32,3.73,3.73,0,0,1-1.6,1.42c-2.23,1-5.14-.49-6.91-3.39-2.46,1.29-.31,4-0.31,4S203.5,332,207,340s5.54,43,5.54,43,1.11,0.43,2.9,1c4,1.29,11.52,3.35,17.59,3a6.77,6.77,0,0,0,1.93-.39C241.47,384.25,240,371.85,240,364.5Z"/><path class="cls-3" d="M194.92,300.12c-0.1-.31-0.22-0.61-0.36-0.92a9.18,9.18,0,0,0-3.28-4,4.45,4.45,0,0,0-4.25-.59c-2.52,1.13-3.23,5-1.58,8.66a10.4,10.4,0,0,0,.62,1.17c1.77,2.9,4.68,4.39,6.91,3.39a3.73,3.73,0,0,0,1.6-1.42A7.5,7.5,0,0,0,194.92,300.12Z"/><path class="cls-1" d="M272.77,172.22c-0.4.39-1.7-.26-3.1-1.47l0.86-2.45,0.07,0.06C272.26,170,273.23,171.75,272.77,172.22Z"/><path class="cls-2" d="M272.77,172.22c-0.4.39-1.7-.26-3.1-1.47l0.86-2.45,0.07,0.06C272.26,170,273.23,171.75,272.77,172.22Z"/><path class="cls-2" d="M253,260.36a4.21,4.21,0,0,1,.77-0.33,3.4,3.4,0,0,1-.42.7,4.17,4.17,0,0,1-1.46,1.16A1.87,1.87,0,0,1,253,260.36Z"/><path class="cls-3" d="M277.21,239.59c0.73-5.66,2.31-16.1,4.29-18.09,2.75-2.75,7.75-6.75,8.25-11.5s4.6-20.81,2.37-23.43a49,49,0,0,1,5.32,3.43c2.25,1.75,1.28,7.33,1.28,7.33s10,5.21,14.26,5.69,10.76-.8,10.76,1S322,224.26,318,223.38s-2.25-8.88-6.75-10.38-15.35-9.32-19.25-4,6.75,24,6.75,24L281,228.3V233l11,10.93h0A33.2,33.2,0,0,0,278.56,240S278,239.81,277.21,239.59Z"/><path class="cls-4" d="M264.38,241.81c4.63-1.5,8.5-10.05,8.5-10.05l-0.12,0c1.59-1.21,3-2.46,3.69-3.12l0.49-.46c0.46-1.44.84-2.8,1.18-4.09,0.42-1.6.76-3.11,1-4.5l0.87-.69c2.14-1.74,3.74-3.29,3.74-3.29a81,81,0,0,0,3.66-16.93c0.88-9.79-1.58-13.64-2.07-14.3l0.15-.1c0.92,0,4.36.31,6.51,2.18a1.29,1.29,0,0,1,.12.14c2.23,2.63-1.88,18.77-2.37,23.43s-5.5,8.75-8.25,11.5c-2,2-3.56,12.42-4.29,18.09a14.4,14.4,0,0,0-4.55-.62c-2.27.15-4.07,1.34-2.91,5.29,2.5,8.5,3.25,10.25,0,13s-5.75,5-10,5.25a6.6,6.6,0,0,1-6-2.47C254.75,257.78,259.75,243.31,264.38,241.81Z"/><path class="cls-5" d="M262.52,233.1a14.06,14.06,0,0,0,4.5,1.53c1.56,0,3.79-1.4,5.77-2.9l0.11,0s-3.88,8.55-8.51,10.05-9.63,16-10.63,18.22a4.19,4.19,0,0,0-.77.33,1.75,1.75,0,0,0-1,1.52,6.16,6.16,0,0,1-2,.61V228.58C251,227.25,257.7,230.9,262.52,233.1Z"/><path class="cls-6" d="M267.48,222.49a11.83,11.83,0,0,0,3.85,1.14c2.11,0,5.23-2,7.84-4.07-0.27,1.39-.63,2.9-1,4.5l-1.67,4.55c-0.7.65-2.1,1.91-3.69,3.12-2,1.5-4.24,2.9-5.8,2.9a13.84,13.84,0,0,1-4.44-1.53c-4.83-2.2-11.52-5.85-12.52-4.52V216C252,214.16,261.4,219.94,267.48,222.49Z"/><path class="cls-6" d="M276.45,228.61l1.67-4.55c-0.34,1.29-.72,2.65-1.18,4.09Z"/><path class="cls-7" d="M261.21,197.33a175.23,175.23,0,0,0,24-12.86l0.17-.13c0.49,0.66,2.94,4.52,2.06,14.3a81.13,81.13,0,0,1-3.66,16.93s-1.6,1.55-3.74,3.29l-0.87.69c-2.61,2-5.76,4.07-7.87,4.07a11.58,11.58,0,0,1-3.79-1.14C261.4,219.94,252,214.16,250,216V203S259.88,203.67,261.21,197.33Z"/><path class="cls-3" d="M285.25,184.24h0.24l-0.15.1Z"/><path class="cls-3" d="M285.14,184.48a176.13,176.13,0,0,1-24.05,12.86c0.16-.78.65-2.5,1.39-4.91,0.52-1.69,1.16-3.71,1.9-6h0c24-11.63,14.12-26.89,10.8-31,6.57-17.69,13.69-34.65,17.24-36.74,5.1-3,7.94-7.64,5.38-9.06a35.33,35.33,0,0,0,5-4.36l2.25-2.5s0.5-6.75,11-8.5S337,74,337,74s16.72,66.07-51.51,110.25h-0.24Z"/><path class="cls-3" d="M285.33,184.35l-0.2.13,0.11-.24Z"/><path class="cls-1" d="M264.38,186.43h0c1.16-3.58,2.57-7.81,4.14-12.37,3.4,2.58,6.56,3.69,7.76,2.48,1.53-1.53-.67-6.23-4.93-10.59,1.23-3.47,2.52-7,3.82-10.54C278.49,159.54,288.33,174.8,264.38,186.43Z"/><path class="cls-8" d="M276.29,176.54c-1.2,1.2-4.36.1-7.76-2.48l1.15-3.31c1.4,1.22,2.7,1.87,3.1,1.47s-0.51-2.2-2.17-3.86l-0.07-.06,0.83-2.35C275.62,170.3,277.82,175,276.29,176.54Z"/><path class="cls-9" d="M291.21,110c3.44-1,5.53-1,6.65-.39,2.57,1.41-.3,6-5.41,9.06-3.54,2.09-10.68,19.06-17.25,36.74-1.31,3.52-2.6,7.07-3.83,10.54l-0.83,2.35-0.86,2.45-1.15,3.31c-1.57,4.56-3,8.79-4.14,12.37-0.74,2.29-1.39,4.32-1.9,6-0.74,2.41-1.11,4.13-1.27,4.91C259.88,203.67,250,203,250,203V120C258,123.33,279.88,113.33,291.21,110Z"/><path class="cls-9" d="M253,260.36l0.35,0.37a4.17,4.17,0,0,1-1.46,1.16A1.87,1.87,0,0,1,253,260.36Z"/><path class="cls-9" d="M253.33,260.73l-0.35-.37a4.21,4.21,0,0,1,.77-0.33A3.4,3.4,0,0,1,253.33,260.73Z"/><path class="cls-6" d="M318,208.75s8.25,1.75,13.25-1.25S357.75,191,364,191.25s7.25-16.75,7.25-17.5-0.75-8,3.25-6.5,5,3.5,8.25,6.25S397,174,399.75,177c0,0,80,78.48-16,203l-9.25,4s18.25-35.5,17.75-48.5,0-57.2-32.5-90.1c0,0,21.5-20.9,18-30.15s-10-19.75-18-15.25-17,20-17,20-18.12-5.37-22.75-3.5S318,208.75,318,208.75Z"/><path class="cls-4" d="M303.5,296.25c1.36-.68,3.07-1.32,4.83-2.07l0.14,1a9.18,9.18,0,0,0-3.28,4c-0.14.31-.25,0.61-0.36,0.92a5.24,5.24,0,0,0-5.08-1.37c-0.62.13-1.17,0.22-1.68,0.28l-0.52-2.72C299.95,296.9,302.06,297,303.5,296.25Z"/><path class="cls-9" d="M253.33,260.73a3.4,3.4,0,0,0,.42-0.7,6.6,6.6,0,0,0,6,2.47c4.25-.25,6.75-2.5,10-5.25s2.5-4.5,0-13c-1.16-3.95.65-5.14,2.91-5.29a14.4,14.4,0,0,1,4.55.62c0.78,0.22,1.29.41,1.29,0.41a32.9,32.9,0,0,1,13.4,3.93c19.82,10.75,26.1,39.32,26.1,39.32,0.18,6.19-4.94,8.93-9.67,10.93-1.76.75-3.47,1.39-4.83,2.07s-3.55.65-5.95,0.06c-5.93-1.47-13.63-6.25-17.54-11.06-5.49-6.75-22-17.5-26.26-20.75-1.43-1.09-1.88-1.95-1.88-2.61A4.17,4.17,0,0,0,253.33,260.73Z"/><path class="cls-6" d="M297.58,413.83c2.19-.58,3.23-1.51,3.47-2.63h0s0.35,2.3,6.35,3.64S313.31,427,313.31,427a63.59,63.59,0,0,0-23.56-12.16l0.15,0A22.93,22.93,0,0,0,297.58,413.83Z"/><path class="cls-7" d="M312.08,408.16h0Z"/><path class="cls-6" d="M310.8,396.74c16.19-5.6,25.78,11.42,25.78,11.42-15.89-4.43-21.91-1.94-23.78-.64C314.26,405.4,312.18,399.87,310.8,396.74Z"/><path class="cls-3" d="M312.8,407.52a1.85,1.85,0,0,1-.71.61A3.51,3.51,0,0,1,312.8,407.52Z"/><path class="cls-3" d="M266.92,396.5a10.53,10.53,0,0,0-2.1-9.89,6.77,6.77,0,0,0,1.93.39c6.06,0.35,13.55-1.71,17.59-3,0,0,14.75,15.5,25.41,10.5,0,0,.46.9,1.05,2.24,1.38,3.13,3.46,8.66,2,10.79a3.51,3.51,0,0,0-.71.61h0c-0.77.37-1.94,0.34-3.66-.31-10.17-3.83-16.36-11.67-21.18-10.67,0,0,14.92,9,13.82,14-0.24,1.12-1.28,2-3.47,2.63a22.93,22.93,0,0,1-7.68,1c-4.77-.42-5.45-3.47-6.65-4.79-1.67-1.83-3.33-2.17-7.33-1.67s-12.33,1.5-12.5-3.83S265.08,402.17,266.92,396.5Z"/><path class="cls-9" d="M259.75,364.5c0-8,26.25-31.75,30-49.75,3.35-16.07,4.11-15.2,8.32-15.72,0.51-.06,1.06-0.14,1.68-0.28a5.24,5.24,0,0,1,5.08,1.37,7.5,7.5,0,0,0,.34,6.32,3.73,3.73,0,0,0,1.6,1.42c2.23,1,5.14-.49,6.91-3.39,2.46,1.29.31,4,.31,4S296.25,332,292.78,340s-5.54,43-5.54,43-1.11.43-2.9,1c-4,1.29-11.52,3.35-17.59,3a6.77,6.77,0,0,1-1.93-.39C258.28,384.25,259.75,371.85,259.75,364.5Z"/><path class="cls-3" d="M304.83,300.12c0.1-.31.22-0.61,0.36-0.92a9.18,9.18,0,0,1,3.28-4,4.45,4.45,0,0,1,4.25-.59c2.52,1.13,3.23,5,1.58,8.66a10.4,10.4,0,0,1-.62,1.17c-1.77,2.9-4.68,4.39-6.91,3.39a3.73,3.73,0,0,1-1.6-1.42A7.5,7.5,0,0,1,304.83,300.12Z"/><path class="cls-10" d="M400.75,177c-2.75-3-13.75-.77-17-3.52s-4.25-4.75-8.25-6.25-3.25,5.75-3.25,6.5-1,17.75-7.25,17.5-27.75,13.25-32.75,16.25a15.78,15.78,0,0,1-8,1.75c0.34-2.63.5-4.73,0.5-5.26,0-1.76-6.51-.49-10.76-1s-14.26-5.69-14.26-5.69,1-5.58-1.28-7.33a49,49,0,0,0-5.32-3.43,1.29,1.29,0,0,0-.12-0.14c-2.15-1.87-5.59-2.14-6.51-2.18C354.72,140.07,338,74,338,74s-10.5,18.5-21,20.25-11,8.5-11,8.5l-2.25,2.5a35.25,35.25,0,0,1-4.94,4.34c-1.13-.6-3.7-0.59-7.11.41C280.38,113.33,258,123.33,250,120V262.5a7.58,7.58,0,0,0,2.38-.56c0,0.66.73,1.5,2.12,2.56,4.25,3.25,20.89,14,26.38,20.75,3.91,4.81,11.68,9.59,17.6,11.06L299,299c-4.21.52-5-.34-8.31,15.72-3.75,18-30,41.75-30,49.75,0,7.35-1.47,19.75,5.07,22.11a10.52,10.52,0,0,1,2.1,9.89c-1.83,5.67-3.67,2.67-3.5,8s8.5,4.33,12.5,3.83,5.67-.17,7.33,1.67c1.2,1.32,1.88,4.37,6.65,4.79l-0.15,0A63.59,63.59,0,0,1,314.31,427s0.11-10.82-5.89-12.16-6.35-3.64-6.35-3.64h0c1.09-5-13.82-14-13.82-14,4.82-1,11,6.83,21.18,10.67,1.73,0.65,2.9.69,3.66,0.31h0l0,0a1.85,1.85,0,0,0,.71-0.61c1.87-1.3,7.89-3.8,23.78.64,0,0-9.59-17-25.78-11.42-0.59-1.34-1.05-2.24-1.05-2.24-10.67,5-25.41-10.5-25.41-10.5,1.79-.57,2.9-1,2.9-1s2.07-35,5.54-43S315,308.5,315,308.5s2.14-2.74-.31-4a10.4,10.4,0,0,0,.62-1.17c1.64-3.65.93-7.53-1.58-8.66a4.45,4.45,0,0,0-4.25.59l-0.14-1c4.73-2,9.85-4.74,9.67-10.93,0,0-6.28-28.57-26.1-39.32A32.9,32.9,0,0,0,279.5,240s-0.51-.19-1.29-0.41c0.78,0.22,1.35.41,1.35,0.41a30.9,30.9,0,0,1,13,3.93L281,233v-4.7l18.25,4.7s-10.4-18.68-6.5-24,14.87,2.5,19.37,4,2.81,9.5,6.82,10.38c1.8,0.4,3.17-3.11,4.1-7.25,6.46-.34,20.7,3.87,20.7,3.87s9-15.5,17-20,14.5,6,18,15.25-18,30.15-18,30.15c32.5,32.9,32,77.1,32.5,90.1S375.5,384,375.5,384l9.25-4C480.75,255.5,400.75,177,400.75,177ZM268.48,222.49l0.06,0-0.06,0c-5.32-2.22-13.19-6.93-16.41-6.84C255.3,215.56,263.16,220.26,268.48,222.49ZM268,234.63h0c1.56,0,3.81-1.41,5.77-2.9h0C271.81,233.23,269.58,234.63,268,234.63Zm4.31-11h0c2.11,0,5.24-2,7.83-4.06v0C277.54,221.6,274.44,223.63,272.34,223.63Zm-8.82,9.47,0.26,0.12-0.26-.12c-4.22-1.92-9.88-5-11.89-4.79C253.65,228.14,259.3,231.17,263.52,233.1Zm22.82-48.73-0.14.11a175.23,175.23,0,0,1-24,12.86v-0.06a176,176,0,0,0,23.91-12.79l0.2-.13v0Z"/><path class="cls-9" d="M165.63,465.94V465h3.75v11.25h3.75v1.88H161.88v-1.87h3.75v-7.5h-1.87v-1.87h1.88v-0.94Z"/><path class="cls-9" d="M180.63,465.94V465h5.63v7.5h1.88v1.88h-1.87v3.75H182.5v-3.75H175v-3.75h1.88v-1.87h1.88v-1.87h1.88v-0.94Zm1.88,4.69v-1.87h-1.87v1.88h-1.87v1.88h3.75v-1.87Z"/><path class="cls-9" d="M195.63,465.94V465h3.75v11.25h3.75v1.88H191.88v-1.87h3.75v-7.5h-1.87v-1.87h1.88v-0.94Z"/><path class="cls-9" d="M220,471.56V465h3.75v5.63h1.88v-1.87h1.88v-1.87h1.88V465h3.75v1.88h-1.87v1.88h-1.87v1.88H227.5v1.88h1.88v1.88h1.88v1.88h1.88v1.88H227.5v-1.87h-1.87v-1.87h-1.87v3.75H220v-6.56Z"/><path class="cls-9" d="M238.75,465.94V465h5.63v1.88h1.88v1.88h1.88v9.38h-3.75v-3.75h-5.62v3.75H235v-9.37h1.88v-1.87h1.88v-0.94Zm3.75,1.88v-0.94h-1.87v1.88h-1.87v3.75h5.63v-3.75H242.5v-0.94Z"/><path class="cls-9" d="M250,471.56V465h11.25v1.88h1.88v3.75h-1.87v1.88h1.88v3.75h-1.87v1.88H250v-6.56Zm9.38-2.81v-1.87h-5.62v3.75h5.63v-1.87Zm0,5.63V472.5h-5.62v3.75h5.63v-1.87Z"/><path class="cls-9" d="M265,470.63V465h3.75v11.25h5.63V465h3.75v11.25h-1.87v1.88h-9.37v-1.87H265v-5.62Z"/><path class="cls-9" d="M281.88,465.94V465h11.25v1.88h-3.75v11.25h-3.75V466.88h-3.75v-0.94Z"/><path class="cls-9" d="M296.88,465.94V465h9.38v1.88h1.88v9.38h-1.87v1.88h-9.37v-1.87H295v-9.37h1.88v-0.94Zm7.5,5.63v-4.69h-5.62v9.38h5.63v-4.69Z"/><path class="cls-9" d="M310,471.56V465h11.25v1.88h1.88v5.63h-1.87v1.88h-7.5v3.75H310v-6.56Zm9.38-1.87v-2.81h-5.62v5.63h5.63v-2.81Z"/><path class="cls-9" d="M326.88,465.94V465h7.5v1.88h1.88v1.88H332.5v-1.87h-3.75v3.75h7.5v1.88h1.88v3.75h-1.87v1.88h-9.37v-1.87H325v-1.87h3.75v1.88h5.63V472.5h-7.5v-1.87H325v-3.75h1.88v-0.94Z"/></svg>