<?xml version="1.0" ?><svg id="pkflt" viewBox="0 0 500 500" xmlns="http://www.w3.org/2000/svg"><defs><style>.cls-1{fill:#ad8dcc;}.cls-2{fill:#b95ec1;}.cls-3{fill:#c4b6ce;}.cls-4{fill:#fff;}.cls-5{fill:#4e2830;}.cls-6{fill:#bba1d1;}.cls-7{fill:#333;}.cls-8{fill:#dc7f80;}.cls-9{fill:#1a1a1a;opacity:0.1;}</style></defs><title/><path class="cls-1" d="M230,162.83l15.57-1.43c-0.4,8-2.49,47.85-5,62.89a49.44,49.44,0,0,1,9.4-.63V131Z"/><path class="cls-2" d="M218.53,303.37a90.2,90.2,0,0,1,.22-23.68c-0.47-.66-0.94-1.38-1.42-2.2-2-3.51-2.62-9.32-2.45-15.64-30.56-63.5-58.88-68.2-58.88-68.2L162.33,182s-4.67-74.67-9.33-75.33-4.67-11.33-3-13.33-3-3.67-8-7c-3.61-2.41-3.74-2.22-3-3.68-12.86-8.3-64-39-101.63-28,0,0,101.67,65.33,65,175.33,0,0,94.45,26.95,105.56,87.31q1.57-2.57,3.39-5.13A82.18,82.18,0,0,1,218.53,303.37Z"/><path class="cls-3" d="M250,240.12V240c-0.33,0-.65,0-1,0C249.35,240.06,249.68,240.08,250,240.12Z"/><path class="cls-4" d="M230.29,285.75l-0.18.27c0,0.29,0,.58,0,0.86Z"/><path class="cls-5" d="M230.11,286c0-.5,0-1-0.05-1.49a8.84,8.84,0,0,1-5.18.21l1.46,7Z"/><path class="cls-5" d="M221.75,289a84,84,0,0,0,.67,10.58q0.78-.7,1.56-1.37a3.58,3.58,0,0,1-.47-2.12l2.83-4.31-1.46-7a8.73,8.73,0,0,1-2.92-1.55C221.82,285.1,221.75,287,221.75,289Z"/><path class="cls-5" d="M230.6,293.37q-0.3-3.17-.45-6.48l-1,7.39Q229.89,293.81,230.6,293.37Z"/><path class="cls-5" d="M248.38,336.25s-4.05.49-5.47-2.14l-0.39.56c-0.28.39-.57,0.76-0.86,1.15A17.55,17.55,0,0,0,250,338v-5a8,8,0,0,1-2.1-.29Z"/><path class="cls-5" d="M228.33,300.76l-0.15,0,0.65,3.14,2.5-4.42q-0.43-3-.73-6.08-0.71.43-1.42,0.91Z"/><path class="cls-5" d="M225.87,314.47c3.55,10.1,9.14,17.8,15.78,21.36,0.28-.38.58-0.75,0.86-1.15l0.39-.56a3.83,3.83,0,0,1-.4-1.11l0.95-2.87a20,20,0,0,1-2.61-2.93l0.54,4.05s-5.12.63-5.87-3.25l2.08-6.31q-1-2-1.86-4.38l0.66,4.94s-5.12.63-5.87-3.25l2.95-8.94c-0.7-2.7-1.31-5.57-1.81-8.6l-0.78,12.22Z"/><path class="cls-5" d="M225.73,309.35l3.1-5.48-0.65-3.14c-0.64-.12-3.14-0.7-4.2-2.52q-0.78.66-1.56,1.37a72.66,72.66,0,0,0,3.45,14.89l5-.79S225.71,313.29,225.73,309.35Z"/><path class="cls-1" d="M237.25,341.28a68.1,68.1,0,0,1-9.68,9.12A65.25,65.25,0,0,0,250,355.67v-11a17.72,17.72,0,0,1-1.95.12A19.38,19.38,0,0,1,237.25,341.28Z"/><path class="cls-6" d="M237.25,341.28c-0.56-.37-1.11-0.78-1.65-1.2-6.41-5-11.63-13.87-14.7-24.83l-13,2.05h0c-9.41,15.42-12,31-5.47,37.54a4.12,4.12,0,0,1,.87,1.24,35.5,35.5,0,0,0,1.83,3.6C191.63,364.07,193.25,387,193.25,387s10-11.75,16.75-10.19S208.34,395,208.34,395c14.59,2.5,15.15-32,15.15-32a5.06,5.06,0,0,0-2.3-2.79,10,10,0,0,0,.81-4,3.75,3.75,0,0,1,1.76-3.19c1.27-.79,2.54-1.69,3.82-2.66A68.1,68.1,0,0,0,237.25,341.28Z"/><path class="cls-6" d="M220.89,315.25a80.44,80.44,0,0,1-2.36-11.88,82.18,82.18,0,0,0-7.25,8.81q-1.82,2.55-3.39,5.13h0Z"/><path class="cls-7" d="M238.28,259.32a6.12,6.12,0,0,1,4.06,5.69,0.67,0.67,0,0,0,.67.62h0.05a0.67,0.67,0,0,0,.61-0.72,7.5,7.5,0,0,0-5.06-6.88A0.67,0.67,0,0,0,238.28,259.32Z"/><path class="cls-3" d="M235.53,244.72l-0.18.14,0.09,0.11Z"/><path class="cls-4" d="M232.33,245.68c0.15-1.33.34-2.61,0.55-3.81l-4.63-5.62s-11.75,11.5-4,17a12.74,12.74,0,0,0,2.81,1.5,40.82,40.82,0,0,1,5.06-6.86C232.17,247.17,232.24,246.43,232.33,245.68Z"/><path class="cls-4" d="M232.12,247.89a40.82,40.82,0,0,0-5.06,6.86,13.59,13.59,0,0,0,2.38.67,44.34,44.34,0,0,1,2.5-4.09C232,250.25,232,249.1,232.12,247.89Z"/><path class="cls-4" d="M231.94,251.33a44.34,44.34,0,0,0-2.5,4.09,15.75,15.75,0,0,0,2.66.27A33.56,33.56,0,0,1,231.94,251.33Z"/><path class="cls-4" d="M242.25,253.25l-4.92-6a48,48,0,0,1-1.69,8.14A24,24,0,0,0,242.25,253.25Z"/><path class="cls-7" d="M232.12,247.89a30.48,30.48,0,0,1,3.23-3l-2.47-3c-0.21,1.2-.4,2.48-0.55,3.81C232.24,246.43,232.17,247.17,232.12,247.89Z"/><path class="cls-7" d="M232.12,247.89c-0.1,1.2-.16,2.36-0.18,3.43a36.78,36.78,0,0,1,2.43-3.14c0.21-.7.43-1.39,0.66-2.07a6.93,6.93,0,0,1,.25-0.74l0.15-.42-0.09-.11A30.48,30.48,0,0,0,232.12,247.89Z"/><path class="cls-7" d="M231.94,251.33a33.56,33.56,0,0,0,.16,4.36h0.35q0.83-4,1.91-7.49A36.78,36.78,0,0,0,231.94,251.33Z"/><path class="cls-7" d="M234.71,247.8c0-.23,0-0.46.09-0.7a8.92,8.92,0,0,1,.23-1c-0.23.67-.45,1.36-0.66,2.07Z"/><path class="cls-7" d="M235.28,250.31c-0.47-.08-0.69-1.15-0.56-2.51l-0.35.39q-1.07,3.51-1.91,7.49a19.69,19.69,0,0,0,3.18-.27,48,48,0,0,0,1.69-8.14l-0.45-.55c0,0.23,0,.47-0.09.71C236.5,249.12,235.82,250.41,235.28,250.31Z"/><path class="cls-7" d="M235.46,245l0,0-0.15.42C235.34,245.25,235.4,245.12,235.46,245Z"/><path class="cls-4" d="M235.28,245.39a6.93,6.93,0,0,0-.25.74,8.92,8.92,0,0,0-.23,1c0,0.24-.07.48-0.09,0.7,0.54-.6,1.08-1.17,1.64-1.71l-0.9-1.09C235.4,245.12,235.34,245.25,235.28,245.39Z"/><path class="cls-4" d="M235.28,250.31c0.55,0.09,1.22-1.19,1.51-2.88,0-.25.07-0.48,0.09-0.71l-0.52-.63c-0.56.54-1.11,1.11-1.64,1.71C234.59,249.17,234.81,250.24,235.28,250.31Z"/><path class="cls-3" d="M71.5,50L130,70l9.93,10.21L140,80a3.17,3.17,0,0,1,2.33-2.49C96.51,36.12,33.67,47.33,33.67,47.33s-39.67,20,3.67,7.33C45.67,49.33,71.5,50,71.5,50Z"/><path class="cls-3" d="M139,82.66a15.34,15.34,0,0,0,1-2.45L130,70,71.5,50s-25.83-.67-34.17,4.67C74.95,43.67,126.11,74.36,139,82.66Z"/><path class="cls-6" d="M140,80l-0.07.21L154.33,95,170,191.57l46.34,55.16c0.29-1.93.6-3.79,0.9-5.47-5.35-8.59-29-45.67-42.24-51.26,0,0-12.33-74.33-13.67-80,0,0,12-9.33,10.33-14.67s-1-4.33-6.33-1.67,6.67-6.67.67-12-2.67-5-6-5.33-6.67,5-5,8,1.78,5-.44,5.67-1.22-8-4.56-10c-2.26-1.36-5.44-3-7.67-2.49A3.17,3.17,0,0,0,140,80Z"/><path class="cls-6" d="M154.33,95l-14.4-14.79a15.34,15.34,0,0,1-1,2.45c-0.71,1.46-.58,1.27,3,3.68,5,3.33,9.67,5,8,7s-1.67,12.67,3,13.33S162.33,182,162.33,182L156,193.67s28.32,4.7,58.88,68.2a127.56,127.56,0,0,1,1.45-15.13L170,191.57Z"/><path class="cls-3" d="M238.94,230c0.56-.33,1.12-2.43,1.66-5.71a29.29,29.29,0,0,0-3.73.87S219.67,208,212.67,208c0,0-2.5,8,6.5,23.83,0,0-.93,3.87-1.93,9.43-0.3,1.68-.61,3.54-0.9,5.47l0.9,1.07,7.64,36.93a8.84,8.84,0,0,0,5.18-.21c1.07-.32,2-0.7,2.82-0.86l3.29-.67s4.67-1.4,6.83,2,7,4,7,4V240.12c-0.32,0-.65-0.06-1-0.08-4.59.27-8.89,2.43-12.67,6l0.52,0.63,0.45,0.55,4.92,6a24,24,0,0,1-6.62,2.16,19.69,19.69,0,0,1-3.18.27H232.1a15.75,15.75,0,0,1-2.66-.27,13.59,13.59,0,0,1-2.38-.67,12.74,12.74,0,0,1-2.81-1.5c-7.75-5.5,4-17,4-17l4.63,5.62,2.47,3,0.18-.14A20.09,20.09,0,0,1,248.05,240c0.33,0,.65,0,1,0s0.65,0,1,0V228.5S235.5,232,238.94,230Zm-1.14,28.5a0.67,0.67,0,0,1,.82-0.48,7.5,7.5,0,0,1,5.06,6.88,0.67,0.67,0,0,1-.61.72H243a0.67,0.67,0,0,1-.67-0.62,6.12,6.12,0,0,0-4.06-5.69A0.67,0.67,0,0,1,237.8,258.5Z"/><path class="cls-3" d="M225.87,314.47l-5,.79c3.08,11,8.29,19.78,14.7,24.83,0.54,0.43,1.09.83,1.65,1.2a19.38,19.38,0,0,0,10.8,3.47,17.72,17.72,0,0,0,1.95-.12V338a17.55,17.55,0,0,1-8.35-2.18C235,332.26,229.42,324.57,225.87,314.47Z"/><path class="cls-3" d="M240.6,224.29c-0.54,3.28-1.1,5.38-1.66,5.71-3.44,2,11.06-1.5,11.06-1.5v-4.83A49.44,49.44,0,0,0,240.6,224.29Z"/><path class="cls-3" d="M217.33,277.5c0.48,0.82,1,1.54,1.42,2.2a90.2,90.2,0,0,0-.22,23.68,80.44,80.44,0,0,0,2.36,11.88l5-.79a72.66,72.66,0,0,1-3.45-14.89,84,84,0,0,1-.67-10.58c0-2,.07-3.9.2-5.81a8.73,8.73,0,0,0,2.92,1.55l-7.64-36.93-0.9-1.07a127.56,127.56,0,0,0-1.45,15.13C214.71,268.18,215.29,274,217.33,277.5Z"/><path class="cls-3" d="M235.53,244.72l-0.09.25,0,0,0.9,1.09c3.78-3.62,8.09-5.78,12.67-6-0.32,0-.65,0-1,0A20.09,20.09,0,0,0,235.53,244.72Z"/><path class="cls-8" d="M247.9,332.71a8,8,0,0,0,2.1.29V321.87q-1.25,2.72-2.81,5.47Z"/><path class="cls-8" d="M243,285c-2.17-3.45-6.83-2-6.83-2l-3.29.67c-0.8.16-1.75,0.54-2.82,0.86,0,0.5,0,1,.05,1.49l0.18-.27-0.15,1.14q0.15,3.31.45,6.48c7.58-4.65,14.71-5.93,19.4-2.72V289S245.17,288.5,243,285Z"/><path class="cls-8" d="M230.6,293.37q0.3,3.12.73,6.08l0.49-.87-0.18,2.88c0.5,3,1.11,5.9,1.81,8.6l0.93-2.81,1.34,10.06q0.88,2.34,1.86,4.38l1.79-5.44,1.46,10.95a20,20,0,0,0,2.61,2.93l2.93-8.88,0.81,6.1q1.56-2.75,2.81-5.47V290.65C245.3,287.44,238.18,288.72,230.6,293.37Z"/><path class="cls-4" d="M227.14,295.71c0.68-.5,1.36-1,2-1.43l1-7.39c0-.29,0-0.58,0-0.86l-3.78,5.76Z"/><path class="cls-4" d="M226.33,291.79l-2.83,4.31a3.58,3.58,0,0,0,.47,2.12c1.05-.89,2.11-1.72,3.17-2.5Z"/><path class="cls-4" d="M228.33,300.76l0.85-6.48c-0.68.45-1.36,0.93-2,1.43l1,5Z"/><path class="cls-4" d="M228.18,300.73l-1-5c-1.05.78-2.11,1.6-3.17,2.5C225,300,227.54,300.61,228.18,300.73Z"/><path class="cls-4" d="M230.86,313.68l0.78-12.22c-0.11-.66-0.21-1.33-0.31-2l-2.5,4.42Z"/><path class="cls-4" d="M230.86,313.68l-2-9.81-3.1,5.48C225.71,313.29,230.86,313.68,230.86,313.68Z"/><path class="cls-4" d="M231.82,298.58l-0.49.87c0.1,0.67.2,1.35,0.31,2Z"/><path class="cls-4" d="M242.9,334.11c1.42,2.62,5.47,2.14,5.47,2.14l-0.47-3.54a10,10,0,0,1-3.05-1.48C244.23,332.19,243.58,333.16,242.9,334.11Z"/><path class="cls-4" d="M242.9,334.11c0.67-1,1.33-1.92,1.95-2.89a13.64,13.64,0,0,1-1.4-1.1L242.5,333A3.83,3.83,0,0,0,242.9,334.11Z"/><path class="cls-4" d="M247.9,332.71l-0.72-5.36q-1.1,1.94-2.34,3.88A10,10,0,0,0,247.9,332.71Z"/><path class="cls-4" d="M247.19,327.35l-0.81-6.1-2.93,8.88a13.64,13.64,0,0,0,1.4,1.1Q246.09,329.29,247.19,327.35Z"/><path class="cls-4" d="M241.38,331.25l-0.54-4.05a34.34,34.34,0,0,1-3.25-5.51L235.5,328C236.25,331.88,241.38,331.25,241.38,331.25Z"/><path class="cls-4" d="M239.38,316.25l-1.79,5.44a34.34,34.34,0,0,0,3.25,5.51Z"/><path class="cls-4" d="M236.38,322.25l-0.66-4.94a73.09,73.09,0,0,1-2.27-7.25L230.5,319C231.25,322.88,236.38,322.25,236.38,322.25Z"/><path class="cls-4" d="M234.38,307.25l-0.93,2.81a73.09,73.09,0,0,0,2.27,7.25Z"/><path class="cls-1" d="M270,162.83l-15.55-1.43c0.4,8,2.46,47.85,4.94,62.89a49.69,49.69,0,0,0-9.42-.63V131Z"/><path class="cls-2" d="M281.54,303.37a90.2,90.2,0,0,0-.22-23.68c0.47-.66.94-1.38,1.42-2.2,2-3.51,2.62-9.32,2.45-15.64,30.56-63.5,58.88-68.2,58.88-68.2L337.74,182s4.67-74.67,9.33-75.33,4.67-11.33,3-13.33,3-3.67,8-7c3.61-2.41,3.74-2.22,3-3.68,12.86-8.3,64-39,101.63-28,0,0-101.67,65.33-65,175.33,0,0-94.45,26.95-105.56,87.31q-1.57-2.57-3.39-5.13A82.18,82.18,0,0,0,281.54,303.37Z"/><path class="cls-3" d="M250.08,240.12V240c0.33,0,.65,0,1,0C250.72,240.06,250.4,240.08,250.08,240.12Z"/><path class="cls-4" d="M269.78,285.75L270,286c0,0.29,0,.58,0,0.86Z"/><path class="cls-5" d="M270,286c0-.5,0-1,0.05-1.49a8.84,8.84,0,0,0,5.18.21l-1.46,7Z"/><path class="cls-5" d="M278.33,289a84,84,0,0,1-.67,10.58q-0.78-.7-1.56-1.37a3.58,3.58,0,0,0,.47-2.12l-2.83-4.31,1.46-7a8.73,8.73,0,0,0,2.92-1.55C278.25,285.1,278.33,287,278.33,289Z"/><path class="cls-5" d="M269.48,293.37q0.3-3.17.45-6.48l1,7.39Q270.18,293.81,269.48,293.37Z"/><path class="cls-5" d="M251.7,336.25s4.05,0.49,5.47-2.14l0.39,0.56c0.28,0.39.53,0.76,0.82,1.15A17.42,17.42,0,0,1,250,338v-5a6.76,6.76,0,0,0,2.13-.29Z"/><path class="cls-5" d="M271.74,300.76l0.15,0-0.65,3.14-2.5-4.42q0.43-3,.73-6.08,0.71,0.43,1.42.91Z"/><path class="cls-5" d="M274.2,314.47c-3.55,10.1-9.14,17.8-15.78,21.36-0.28-.38-0.58-0.75-0.86-1.15l-0.39-.56a3.83,3.83,0,0,0,.4-1.11l-0.95-2.87a20,20,0,0,0,2.61-2.93l-0.54,4.05s5.13,0.63,5.88-3.25l-2.08-6.31q1-2,1.86-4.38l-0.66,4.94s5.13,0.63,5.88-3.25l-2.95-8.94c0.7-2.7,1.31-5.57,1.81-8.6l0.78,12.22Z"/><path class="cls-5" d="M274.34,309.35l-3.1-5.48,0.65-3.14c0.64-.12,3.14-0.7,4.2-2.52q0.78,0.66,1.56,1.37a72.66,72.66,0,0,1-3.45,14.89l-5-.79S274.36,313.29,274.34,309.35Z"/><path class="cls-1" d="M262.83,341.28a67.92,67.92,0,0,0,9.64,9.12A63.18,63.18,0,0,1,250,355.67v-11c1,0.07,1.33.12,2,.12A19.5,19.5,0,0,0,262.83,341.28Z"/><path class="cls-6" d="M262.83,341.28c0.56-.37,1.11-0.78,1.65-1.2,6.41-5,11.63-13.87,14.7-24.83l13,2.05h0c9.41,15.42,12,31,5.47,37.54a4.12,4.12,0,0,0-.87,1.24,35.5,35.5,0,0,1-1.83,3.6c13.49,4.39,11.87,27.32,11.87,27.32s-10-11.75-16.75-10.19S291.73,395,291.73,395c-14.59,2.5-15.15-32-15.15-32a5.06,5.06,0,0,1,2.3-2.79,10,10,0,0,1-.81-4,3.75,3.75,0,0,0-1.76-3.19c-1.27-.79-2.54-1.69-3.82-2.66A68.1,68.1,0,0,1,262.83,341.28Z"/><path class="cls-6" d="M279.18,315.25a80.44,80.44,0,0,0,2.36-11.88,82.18,82.18,0,0,1,7.25,8.81q1.82,2.55,3.39,5.13h0Z"/><path class="cls-7" d="M261.8,259.32a6.12,6.12,0,0,0-4.06,5.69,0.67,0.67,0,0,1-.67.62H257a0.67,0.67,0,0,1-.61-0.72,7.5,7.5,0,0,1,5.06-6.88A0.67,0.67,0,0,1,261.8,259.32Z"/><path class="cls-3" d="M264.55,244.72l0.18,0.14-0.09.11Z"/><path class="cls-4" d="M267.75,245.68c-0.15-1.33-.34-2.61-0.55-3.81l4.63-5.62s11.75,11.5,4,17a12.74,12.74,0,0,1-2.81,1.5,40.82,40.82,0,0,0-5.06-6.86C267.9,247.17,267.83,246.43,267.75,245.68Z"/><path class="cls-4" d="M268,247.89a40.82,40.82,0,0,1,5.06,6.86,13.59,13.59,0,0,1-2.38.67,44.34,44.34,0,0,0-2.5-4.09C268.12,250.25,268.06,249.1,268,247.89Z"/><path class="cls-4" d="M268.14,251.33a44.34,44.34,0,0,1,2.5,4.09,15.75,15.75,0,0,1-2.66.27A33.56,33.56,0,0,0,268.14,251.33Z"/><path class="cls-4" d="M257.83,253.25l4.92-6a48,48,0,0,0,1.69,8.14A24,24,0,0,1,257.83,253.25Z"/><path class="cls-7" d="M268,247.89a30.48,30.48,0,0,0-3.23-3l2.47-3c0.21,1.2.4,2.48,0.55,3.81C267.83,246.43,267.9,247.17,268,247.89Z"/><path class="cls-7" d="M268,247.89c0.1,1.2.16,2.36,0.18,3.43a36.78,36.78,0,0,0-2.43-3.14c-0.21-.7-0.43-1.39-0.66-2.07a6.93,6.93,0,0,0-.25-0.74l-0.15-.42,0.09-.11A30.48,30.48,0,0,1,268,247.89Z"/><path class="cls-7" d="M268.14,251.33a33.56,33.56,0,0,1-.16,4.36h-0.35q-0.83-4-1.91-7.49A36.78,36.78,0,0,1,268.14,251.33Z"/><path class="cls-7" d="M265.36,247.8c0-.23,0-0.46-0.09-0.7a8.92,8.92,0,0,0-.23-1c0.23,0.67.45,1.36,0.66,2.07Z"/><path class="cls-7" d="M264.8,250.31c0.47-.08.69-1.15,0.56-2.51l0.35,0.39q1.07,3.51,1.91,7.49a19.69,19.69,0,0,1-3.18-.27,48,48,0,0,1-1.69-8.14l0.45-.55c0,0.23,0,.47.09,0.71C263.58,249.12,264.25,250.41,264.8,250.31Z"/><path class="cls-7" d="M264.62,245l0,0,0.15,0.42C264.74,245.25,264.68,245.12,264.62,245Z"/><path class="cls-4" d="M264.8,245.39a6.93,6.93,0,0,1,.25.74,8.92,8.92,0,0,1,.23,1c0,0.24.07,0.48,0.09,0.7-0.54-.6-1.08-1.17-1.64-1.71l0.9-1.09C264.68,245.12,264.74,245.25,264.8,245.39Z"/><path class="cls-4" d="M264.8,250.31c-0.55.09-1.22-1.19-1.51-2.88,0-.25-0.07-0.48-0.09-0.71l0.52-.63c0.56,0.54,1.11,1.11,1.64,1.71C265.49,249.17,265.27,250.24,264.8,250.31Z"/><path class="cls-3" d="M428.58,50l-58.5,20-9.93,10.21L360.08,80a3.17,3.17,0,0,0-2.33-2.49c45.81-41.4,108.66-30.18,108.66-30.18s39.67,20-3.67,7.33C454.41,49.33,428.58,50,428.58,50Z"/><path class="cls-3" d="M361.11,82.66a15.34,15.34,0,0,1-1-2.45L370.08,70l58.5-20s25.83-.67,34.17,4.67C425.13,43.67,374,74.36,361.11,82.66Z"/><path class="cls-6" d="M360.08,80l0.07,0.21L345.74,95l-15.67,96.57-46.34,55.16c-0.29-1.93-.6-3.79-0.9-5.47,5.35-8.59,29-45.67,42.24-51.26,0,0,12.33-74.33,13.67-80,0,0-12-9.33-10.33-14.67s1-4.33,6.33-1.67-6.67-6.67-.67-12,2.67-5,6-5.33,6.67,5,5,8-1.78,5,.44,5.67,1.22-8,4.56-10c2.26-1.36,5.44-3,7.67-2.49A3.17,3.17,0,0,1,360.08,80Z"/><path class="cls-6" d="M345.74,95l14.4-14.79a15.34,15.34,0,0,0,1,2.45c0.71,1.46.58,1.27-3,3.68-5,3.33-9.67,5-8,7s1.67,12.67-3,13.33S337.74,182,337.74,182l6.33,11.67s-28.32,4.7-58.88,68.2a127.56,127.56,0,0,0-1.45-15.13l46.34-55.16Z"/><path class="cls-3" d="M250,228.5V240l1,0c0.32,0,.67,0,1,0a20.11,20.11,0,0,1,12.54,4.72l0.19,0.14,2.47-3,4.63-5.62s11.75,11.5,4,17a12.74,12.74,0,0,1-2.81,1.5,13.59,13.59,0,0,1-2.38.67,15.75,15.75,0,0,1-2.66.27h-0.35a19.69,19.69,0,0,1-3.18-.27,24,24,0,0,1-6.62-2.16l4.92-6,0.45-.55,0.52-.63c-3.78-3.62-8.12-5.78-12.71-6a7.6,7.6,0,0,0-1,.08V289s4.87-.5,7-4,6.85-2,6.85-2l3.3,0.67c0.8,0.16,1.76.54,2.83,0.86a8.85,8.85,0,0,0,5.19.21l7.64-36.93,0.9-1.07c-0.29-1.93-.6-3.79-0.9-5.47-1-5.56-1.93-9.43-1.93-9.43,9-15.83,6.5-23.83,6.5-23.83-7,0-24.21,17.17-24.21,17.17a29.29,29.29,0,0,0-3.73-.87c0.54,3.28,1.06,5.38,1.62,5.71C264.54,232,250,228.5,250,228.5Zm11.8,30.82a6.12,6.12,0,0,0-4.06,5.69,0.67,0.67,0,0,1-.67.62H257a0.67,0.67,0,0,1-.61-0.72,7.5,7.5,0,0,1,5.06-6.88A0.67,0.67,0,0,1,261.8,259.32Z"/><path class="cls-3" d="M274.2,314.47l5,0.79c-3.08,11-8.29,19.78-14.7,24.83-0.54.43-1.09,0.83-1.65,1.2A19.5,19.5,0,0,1,252,344.75c-0.65,0-1,0-2-.12V338a17.42,17.42,0,0,0,8.38-2.18C265,332.26,270.66,324.57,274.2,314.47Z"/><path class="cls-3" d="M259.43,224.29c0.54,3.28,1.08,5.38,1.64,5.71,3.44,2-11.08-1.5-11.08-1.5v-4.83A49.78,49.78,0,0,1,259.43,224.29Z"/><path class="cls-3" d="M282.74,277.5c-0.48.82-1,1.54-1.42,2.2a90.2,90.2,0,0,1,.22,23.68,80.44,80.44,0,0,1-2.36,11.88l-5-.79a72.66,72.66,0,0,0,3.45-14.89,84,84,0,0,0,.67-10.58c0-2-.07-3.9-0.2-5.81a8.73,8.73,0,0,1-2.92,1.55l7.64-36.93,0.9-1.07a127.56,127.56,0,0,1,1.45,15.13C285.36,268.18,284.78,274,282.74,277.5Z"/><path class="cls-3" d="M264.55,244.72l0.09,0.25,0,0-0.9,1.09c-3.78-3.62-8.09-5.78-12.67-6,0.32,0,.65,0,1,0A20.09,20.09,0,0,1,264.55,244.72Z"/><path class="cls-8" d="M252.13,332.71A6.76,6.76,0,0,1,250,333V321.87c1,1.81,1.79,3.64,2.83,5.47Z"/><path class="cls-8" d="M257,285c2.17-3.45,6.85-2,6.85-2l3.3,0.67c0.8,0.16,1.76.54,2.83,0.86,0,0.5,0,1-.05,1.49l-0.18-.27,0.15,1.14c-0.1,2.21-.29,4.37-0.49,6.48-7.58-4.65-14.44-5.93-19.44-2.72V289S254.87,288.5,257,285Z"/><path class="cls-8" d="M269.44,293.37c-0.2,2.08-.42,4.11-0.71,6.08l-0.49-.87,0.19,2.88c-0.5,3-1.11,5.9-1.81,8.6l-0.93-2.81-1.34,10.06q-0.88,2.34-1.86,4.38l-1.79-5.44-1.46,10.95a20,20,0,0,1-2.61,2.93l-2.93-8.88-0.85,6.1c-1-1.83-1.85-3.66-2.85-5.47V290.65C255,287.44,261.86,288.72,269.44,293.37Z"/><path class="cls-4" d="M272.93,295.71c-0.68-.5-1.36-1-2-1.43l-1-7.39c0-.29,0-0.58,0-0.86l3.78,5.76Z"/><path class="cls-4" d="M273.74,291.79l2.83,4.31a3.58,3.58,0,0,1-.47,2.12c-1.05-.89-2.11-1.72-3.17-2.5Z"/><path class="cls-4" d="M271.74,300.76l-0.85-6.48c0.68,0.45,1.36.93,2,1.43l-1,5Z"/><path class="cls-4" d="M271.89,300.73l1-5c1.05,0.78,2.11,1.6,3.17,2.5C275,300,272.53,300.61,271.89,300.73Z"/><path class="cls-4" d="M269.22,313.68l-0.78-12.22c0.11-.66.21-1.33,0.31-2l2.5,4.42Z"/><path class="cls-4" d="M269.22,313.68l2-9.81,3.1,5.48C274.36,313.29,269.22,313.68,269.22,313.68Z"/><path class="cls-4" d="M268.25,298.58l0.49,0.87c-0.1.67-.2,1.35-0.31,2Z"/><path class="cls-4" d="M257.17,334.11c-1.42,2.62-5.47,2.14-5.47,2.14l0.47-3.54a10,10,0,0,0,3.05-1.48C255.85,332.19,256.5,333.16,257.17,334.11Z"/><path class="cls-4" d="M257.17,334.11c-0.67-1-1.33-1.92-1.95-2.89a13.64,13.64,0,0,0,1.4-1.1l0.95,2.87A3.83,3.83,0,0,1,257.17,334.11Z"/><path class="cls-4" d="M252.17,332.71l0.72-5.36q1.1,1.94,2.34,3.88A10,10,0,0,1,252.17,332.71Z"/><path class="cls-4" d="M252.89,327.35l0.81-6.1,2.93,8.88a13.64,13.64,0,0,1-1.4,1.1Q254,329.29,252.89,327.35Z"/><path class="cls-4" d="M258.7,331.25l0.54-4.05a34.34,34.34,0,0,0,3.25-5.51l2.08,6.31C263.83,331.88,258.7,331.25,258.7,331.25Z"/><path class="cls-4" d="M260.7,316.25l1.79,5.44a34.34,34.34,0,0,1-3.25,5.51Z"/><path class="cls-4" d="M263.7,322.25l0.66-4.94a73.09,73.09,0,0,0,2.27-7.25l2.95,8.94C268.83,322.88,263.7,322.25,263.7,322.25Z"/><path class="cls-4" d="M265.7,307.25l0.93,2.81a73.09,73.09,0,0,1-2.27,7.25Z"/><path class="cls-9" d="M466.41,47.33S403.56,36.12,357.75,77.51c-2.23-.53-5.41,1.13-7.67,2.49-3.33,2-2.33,10.67-4.56,10s-2.11-2.67-.44-5.67-1.67-8.33-5-8,0,0-6,5.33,6,14.67.67,12-4.67-3.67-6.33,1.67S338.74,110,338.74,110c-1.33,5.67-13.67,80-13.67,80-13.25,5.59-36.89,42.67-42.23,51.26,0.3,1.68.61,3.54,0.9,5.47l-0.9,1.07-7.64,36.93a7.42,7.42,0,0,1-2.09.3,7.42,7.42,0,0,0,2.09-.3l7.64-36.93,0.9-1.07c-0.29-1.93-.6-3.79-0.9-5.47-1-5.56-1.93-9.43-1.93-9.43,9-15.83,6.5-23.83,6.5-23.83-7,0-24.21,17.17-24.21,17.17a29.3,29.3,0,0,0-3.73-.87c0.54,3.28,1.06,5.38,1.62,5.71,0.76,0.44.64,0.61,0,.62,0.62,0,.72-0.18,0-0.62-0.56-.33-1.1-2.43-1.64-5.71h0c-2.48-15-4.54-54.92-4.94-62.88L270,162.83,250,131v92.67s0.45,0,1.22,0c-0.77,0-1.22,0-1.22,0V240h0v81.87c1,1.81,1.81,3.64,2.85,5.47l0.85-6.1-0.81,6.1-0.72,5.36-0.47,3.54,0.43-3.54,0.7-5.36c-1-1.83-1.83-3.66-2.83-5.47v33.79a63.18,63.18,0,0,0,22.46-5.26,67.92,67.92,0,0,1-9.64-9.12,68.09,68.09,0,0,0,9.68,9.12c1.27,1,2.55,1.86,3.81,2.66a3.75,3.75,0,0,1,1.76,3.19,10.05,10.05,0,0,0,.81,4,5.06,5.06,0,0,0-2.3,2.79s0.56,34.5,15.15,32c0,0-8.41-16.64-1.66-18.19S306.83,387,306.83,387s1.62-22.93-11.87-27.32a35.45,35.45,0,0,0,1.83-3.6,4.12,4.12,0,0,1,.87-1.24c6.5-6.57,3.95-22.12-5.47-37.54C303.3,256.95,397.74,230,397.74,230c-36.67-110,65-175.33,65-175.33C506.08,67.33,466.41,47.33,466.41,47.33ZM266.63,310.05c0.7-2.7,1.31-5.57,1.81-8.6l-0.19-2.88v0l0.18,2.86c-0.5,3-1.11,5.9-1.81,8.6h0Zm1-54.38a19.68,19.68,0,0,1-3.18-.27,19.68,19.68,0,0,0,3.18.27h0Zm2.16,30.07h0l0.15,1.13q-0.15,3.31-.45,6.48t-0.73,6.08l0,0c0.29-2,.51-4,0.71-6.05h0c0.2-2.11.39-4.28,0.49-6.48ZM270,286c0-.5,0-1,0.05-1.49h0c0,0.5,0,1-.05,1.49h0Zm-6.24-39.93c-3.77-3.62-8.11-5.8-12.69-6.07l0,0h1c-0.32,0-.64,0-1,0C255.63,240.31,259.94,242.47,263.72,246.09ZM262.49,322c0.66-2,1.43-3,2-4.54L266,307.25h0l-1.49,10.21c-0.59,1.56-1.28,2.54-1.94,4.54h-0.08Zm9.33-85.75h0l-4.63,5.62-2.47,3h0l2.47-3ZM250.76,240h0Zm1.2,49.62a12.08,12.08,0,0,1,4.39-.78A12.08,12.08,0,0,0,252,289.65Zm7.28,37.55,1.46-10.95h0l-1.46,10.95a20,20,0,0,1-2.61,2.93h0A20,20,0,0,0,259.24,327.2Zm-1.67,7.48c0.28,0.39.56,0.75,0.84,1.13l0,0C258.1,335.44,257.85,335.07,257.57,334.68Z"/><path class="cls-2" d="M150.63,465.94V465h3.75v11.25h3.75v1.88H146.88v-1.87h3.75v-7.5h-1.87v-1.87h1.88v-0.94Z"/><path class="cls-2" d="M165.63,465.94V465h5.63v7.5h1.88v1.88h-1.87v3.75H167.5v-3.75H160v-3.75h1.88v-1.87h1.88v-1.87h1.88v-0.94Zm1.88,4.69v-1.87h-1.87v1.88h-1.87v1.88h3.75v-1.87Z"/><path class="cls-2" d="M176.88,465.94V465h9.38v1.88h1.88v3.75h-1.87v1.88h-1.87v1.88h-3.75v1.88h7.5v1.88H175v-3.75h1.88V472.5h1.88v-1.87h3.75v-1.87h1.88v-1.87h-5.62v1.88H175v-1.87h1.88v-0.94Z"/><path class="cls-2" d="M208.75,465.94V465h5.63v1.88h1.88v1.88h1.88v9.38h-3.75v-3.75h-5.62v3.75H205v-9.37h1.88v-1.87h1.88v-0.94Zm3.75,1.88v-0.94h-1.87v1.88h-1.87v3.75h5.63v-3.75H212.5v-0.94Z"/><path class="cls-2" d="M220,471.56V465h13.13v1.88h-9.37v3.75h7.5v1.88h-7.5v3.75h9.38v1.88H220v-6.56Z"/><path class="cls-2" d="M235,471.56V465h11.25v1.88h1.88v5.63h-3.75v1.88h1.88v1.88h1.88v1.88H242.5v-1.87h-1.87v-1.87h-1.87v3.75H235v-6.56Zm9.38-2.81v-1.87h-5.62v5.63h3.75v-1.87h1.88v-1.87Z"/><path class="cls-2" d="M251.88,465.94V465h9.38v1.88h1.88v9.38h-1.87v1.88h-9.37v-1.87H250v-9.37h1.88v-0.94Zm7.5,5.63v-4.69h-5.62v9.38h5.63v-4.69Z"/><path class="cls-2" d="M265,471.56V465h9.38v1.88h1.88v1.88h1.88v5.63h-1.87v1.88h-1.87v1.88H265v-6.56Zm7.5-3.75v-0.94h-3.75v9.38h3.75v-1.87h1.88v-5.62H272.5v-0.94Z"/><path class="cls-2" d="M283.75,465.94V465h5.63v1.88h1.88v1.88h1.88v9.38h-3.75v-3.75h-5.62v3.75H280v-9.37h1.88v-1.87h1.88v-0.94Zm3.75,1.88v-0.94h-1.87v1.88h-1.87v3.75h5.63v-3.75H287.5v-0.94Z"/><path class="cls-2" d="M298.75,465.94V465h7.5v1.88h1.88v1.88h-3.75v-1.87h-3.75v1.88h-1.87v5.63h1.88v1.88h3.75v-1.87h3.75v1.88h-1.87v1.88h-7.5v-1.87h-1.87v-1.87H295v-5.62h1.88v-1.87h1.88v-0.94Z"/><path class="cls-2" d="M311.88,465.94V465h11.25v1.88h-3.75v11.25h-3.75V466.88h-3.75v-0.94Z"/><path class="cls-2" d="M326.88,467.81V465h3.75v5.63h3.75V465h3.75v5.63h-1.87v1.88h-1.87v5.63h-3.75V472.5h-1.87v-1.87h-1.87v-2.81Z"/><path class="cls-2" d="M341.88,471.56V465h3.75v11.25h7.5v1.88H341.88v-6.56Z"/></svg>