<?xml version="1.0" ?><svg id="pkflt" viewBox="0 0 500 500" xmlns="http://www.w3.org/2000/svg"><defs><style>.cls-1{fill:#ccc;}.cls-2{fill:#fdeabe;}.cls-3{fill:#006a6b;}.cls-4{fill:#025e5b;}.cls-5{fill:#f7dba9;}.cls-6{fill:#fff;}.cls-7{fill:#333;}.cls-8{opacity:0.1;}.cls-9{fill:#1a1a1a;}</style></defs><title/><path class="cls-1" d="M110.57,415.82c-6.45,8.52-8.57,19.3-7.31,17.18,0.87-1.45,8.72-6.26,15.16-10A33.8,33.8,0,0,1,110.57,415.82Z"/><path class="cls-1" d="M116.43,445c2.84-3,12.19-9.58,19.35-14.5A62.53,62.53,0,0,1,124,426.14C121.42,432.79,118,441.61,116.43,445Z"/><path class="cls-1" d="M106.49,399.42C101.23,403.51,97,415,97,415s5.39-2.39,10.51-4.29A18.3,18.3,0,0,1,106,403.5,17.82,17.82,0,0,1,106.49,399.42Z"/><path class="cls-2" d="M129.51,378.49c-12.26,4.53-21,12.11-23,20.94a17.82,17.82,0,0,0-.49,4.08,18.3,18.3,0,0,0,1.51,7.21,23,23,0,0,0,3.06,5.11,33.8,33.8,0,0,0,7.86,7.13,47.88,47.88,0,0,0,5.53,3.19,62.53,62.53,0,0,0,11.82,4.34A80.3,80.3,0,0,0,156,433c18,0,33.73-5.6,42.54-14C170.18,412.35,146.1,399.36,129.51,378.49Z"/><path class="cls-1" d="M90.22,119.92l-7.72-5.67,7.68,12.85c-0.1-1.14-.17-2.29-0.18-3.44A27,27,0,0,1,90.22,119.92Z"/><path class="cls-1" d="M87.5,103.41l4.12,11.28a14.54,14.54,0,0,1,2.6-4Z"/><path class="cls-1" d="M90,96l6.72,12.52c3.16-2.17,7.27-3.28,12-3.55Z"/><path class="cls-3" d="M108.75,105c-4.76.27-8.88,1.38-12,3.55a14.28,14.28,0,0,0-5.09,6.17,19,19,0,0,0-1.4,5.23,27,27,0,0,0-.22,3.74c0,1.15.08,2.3,0.18,3.44,2.67,30.44,35.94,57.37,42.15,62.14,11.44-23.3,26-44.42,42.89-60.85C156.25,116,127.52,103.93,108.75,105Z"/><path class="cls-4" d="M206,403.5c0,5.69-2.74,11-7.46,15.5A226.17,226.17,0,0,0,250,424.5V395.13c-18.34,0-35.71-2.17-51.23-6.92C203.36,392.67,206,397.9,206,403.5Z"/><path class="cls-4" d="M170.74,375.31C146.33,359.23,131,332.55,131,292.2c0-57.38,31.09-125.78,75.06-154.89-1-.34-1.53-0.56-1.53-0.56-18.11,5.12-25.22-1-27.17-10.4-0.71.67-1.4,1.36-2.1,2-16.85,16.43-31.45,37.55-42.89,60.85-17,34.69-27.07,74.17-27.07,110.11,0,33.9,8.93,59.87,24.24,79.13A77,77,0,0,1,156,374,82.57,82.57,0,0,1,170.74,375.31Z"/><path class="cls-4" d="M206,403.5c0-5.6-2.64-10.83-7.23-15.29a108.52,108.52,0,0,1-28-12.91A82.57,82.57,0,0,0,156,374a77,77,0,0,0-26.49,4.49c16.59,20.87,40.68,33.86,69,40.52C203.26,414.5,206,409.19,206,403.5Z"/><path class="cls-5" d="M206,137.31C162.05,166.43,131,234.82,131,292.2c0,40.34,15.37,67,39.78,83.1,11.8,2.15,21.74,6.8,28,12.91,15.52,4.75,32.89,6.92,51.23,6.92V140C224.62,142.44,210.45,138.77,206,137.31Z"/><path class="cls-5" d="M170.74,375.31a108.52,108.52,0,0,0,28,12.91C192.48,382.1,182.54,377.45,170.74,375.31Z"/><path class="cls-3" d="M211.5,58.75s-16.5-10-22.75-10S172.25,80,183.5,90c0,0-9.18,22-6.17,36.35,2,9.35,9.06,15.52,27.17,10.4-9.08-6.31-14.42-12.77-17.1-19.11C175.32,89,217.5,62.75,217.5,62.75c20.75,1.5,32.5,10,32.5,10V53.5S225.25,52.25,211.5,58.75Z"/><path class="cls-2" d="M250,93.68V90l-3.66,3.76Q248.17,93.68,250,93.68Z"/><path class="cls-2" d="M187.4,117.64c2.68,6.35,8,12.8,17.1,19.11,0,0,.5.22,1.53,0.56,4.43,1.46,18.59,5.13,44,2.69V106.26c-5.7,0-12.86,1.34-18.33,2.58-4.8,1.08-8.3,2.1-8.38,2.12a1,1,0,0,1-.56-1.92c0.17,0,1.12-.32,2.6-0.72,0.42-.11.18-7.57,2.93-9.82l5,7.93,1-.19a85.27,85.27,0,0,1,15.8-2V93.68q-1.83,0-3.66.08L250,90V72.75s-11.75-8.5-32.5-10C217.5,62.75,175.32,89,187.4,117.64Zm51.73-32.41a1,1,0,1,1-1.59,1.21c-3.69-4.83-19.25-4.37-24.94-3.78a1,1,0,0,1-.21-2C213.28,80.58,234,78.52,239.13,85.23Z"/><path class="cls-6" d="M228.25,98.5c-2.75,2.25-2.51,9.71-2.93,9.82,1.91-.51,4.71-1.21,7.92-1.89Z"/><path class="cls-7" d="M231.67,108.84c5.47-1.23,12.64-2.55,18.33-2.58v-2a85.27,85.27,0,0,0-15.8,2Z"/><path class="cls-7" d="M233.25,106.43c-3.21.68-6,1.38-7.92,1.89-1.48.39-2.43,0.67-2.6,0.72a1,1,0,1,0,.56,1.92c0.08,0,3.59-1,8.38-2.12l2.53-2.6Z"/><path class="cls-7" d="M211.51,81.77a1,1,0,0,0,1.1.89c5.69-.59,21.25-1.05,24.94,3.78a1,1,0,0,0,1.59-1.21c-5.11-6.7-25.85-4.65-26.73-4.56A1,1,0,0,0,211.51,81.77Z"/><path class="cls-1" d="M389.93,415.82c6.45,8.52,8.57,19.3,7.31,17.18-0.87-1.45-8.72-6.26-15.16-10A33.8,33.8,0,0,0,389.93,415.82Z"/><path class="cls-1" d="M384.07,445c-2.84-3-12.19-9.58-19.35-14.5a62.53,62.53,0,0,0,11.82-4.34C379.08,432.79,382.49,441.61,384.07,445Z"/><path class="cls-1" d="M394,399.42c5.26,4.08,9.48,15.58,9.48,15.58s-5.39-2.39-10.51-4.29a18.3,18.3,0,0,0,1.51-7.21A17.82,17.82,0,0,0,394,399.42Z"/><path class="cls-2" d="M371,378.49c12.26,4.53,21,12.11,23,20.94a17.82,17.82,0,0,1,.49,4.08,18.3,18.3,0,0,1-1.51,7.21,23,23,0,0,1-3.06,5.11,33.8,33.8,0,0,1-7.86,7.13,47.88,47.88,0,0,1-5.53,3.19,62.53,62.53,0,0,1-11.82,4.34A80.3,80.3,0,0,1,344.5,433c-18,0-33.73-5.6-42.54-14C330.32,412.35,354.4,399.36,371,378.49Z"/><path class="cls-1" d="M410.28,119.92l7.72-5.67-7.68,12.85c0.1-1.14.17-2.29,0.18-3.44A27,27,0,0,0,410.28,119.92Z"/><path class="cls-1" d="M413,103.41l-4.12,11.28a14.54,14.54,0,0,0-2.6-4Z"/><path class="cls-1" d="M410.5,96l-6.72,12.52c-3.16-2.17-7.27-3.28-12-3.55Z"/><path class="cls-3" d="M391.75,105c4.76,0.27,8.88,1.38,12,3.55a14.28,14.28,0,0,1,5.09,6.17,19,19,0,0,1,1.4,5.23,27,27,0,0,1,.22,3.74c0,1.15-.08,2.3-0.18,3.44-2.67,30.44-35.94,57.37-42.15,62.14-11.44-23.3-26-44.42-42.89-60.85C344.25,116,373,103.93,391.75,105Z"/><path class="cls-4" d="M294.5,403.5c0,5.69,2.49,11,7.21,15.5-16,3.75-32.71,5.5-51.71,5.5V395.13c19,0,36-2.17,51.48-6.92C296.89,392.67,294.5,397.9,294.5,403.5Z"/><path class="cls-4" d="M329.76,375.31c24.41-16.07,39.78-42.76,39.78-83.1,0-57.38-31.09-125.78-75.06-154.89,1-.34,1.53-0.56,1.53-0.56,18.11,5.12,25.22-1,27.17-10.4,0.71,0.67,1.4,1.36,2.1,2,16.85,16.43,31.45,37.55,42.89,60.85,17,34.69,27.07,74.17,27.07,110.11,0,33.9-8.93,59.87-24.24,79.13A77,77,0,0,0,344.5,374,82.57,82.57,0,0,0,329.76,375.31Z"/><path class="cls-4" d="M294.5,403.5c0-5.6,2.64-10.83,7.23-15.29a108.52,108.52,0,0,0,28-12.91A82.57,82.57,0,0,1,344.5,374,77,77,0,0,1,371,378.49c-16.59,20.87-40.68,33.86-69,40.52C297.24,414.5,294.5,409.19,294.5,403.5Z"/><path class="cls-5" d="M294.22,137.31c44,29.12,75.19,97.51,75.19,154.89,0,40.34-15.31,67-39.72,83.1-11.8,2.15-22,6.8-28.25,12.91C285.93,393,269,395.13,250,395.13V140C276,142.44,289.8,138.77,294.22,137.31Z"/><path class="cls-5" d="M329.76,375.31a108.52,108.52,0,0,1-28,12.91C308,382.1,318,377.45,329.76,375.31Z"/><path class="cls-3" d="M288.75,58.75s16.63-10,22.88-10S328.19,80,316.94,90c0,0,9.21,22,6.2,36.35-2,9.35-9,15.52-27.16,10.4,9.08-6.31,14.43-12.77,17.11-19.11,12.08-28.6-30.35-54.89-30.35-54.89-20.75,1.5-32.75,10-32.75,10V53.5S275,52.25,288.75,58.75Z"/><path class="cls-2" d="M250,93.68V90l3.66,3.76C252.44,93.7,252,93.68,250,93.68Z"/><path class="cls-2" d="M282.75,62.75c-20.75,1.5-32.75,10-32.75,10V90l3.66,3.76c-1.22-.05-1.66-0.08-3.66-0.08v10.59a87.1,87.1,0,0,1,16.05,2l1.08,0.19,5.06-7.93c2.75,2.25,2.54,9.71,3,9.82,1.48,0.39,2.45.67,2.62,0.72a1,1,0,0,1-.27,2,1,1,0,0,1-.28,0c-0.08,0-3.84-1-8.63-2.12-5.47-1.23-12.58-2.55-18.58-2.58V140c26,2.44,39.8-1.23,44.22-2.69l1.65-.56c9.08-6.31,14.36-12.77,17-19.11C325,89,282.75,62.75,282.75,62.75Zm5.35,17.92a1,1,0,0,1-.21,2c-5.69-.59-21.25-1.05-24.94,3.78a1,1,0,0,1-1.59-1.21C266.49,78.52,287.22,80.58,288.1,80.67Z"/><path class="cls-6" d="M272.25,98.5c2.75,2.25,2.51,9.71,2.93,9.82-1.91-.51-4.71-1.21-7.92-1.89Z"/><path class="cls-7" d="M268.58,108.84c-5.47-1.23-12.58-2.55-18.58-2.58v-2a85.78,85.78,0,0,1,15.93,2Z"/><path class="cls-7" d="M267.25,106.43c3.21,0.68,6,1.38,7.92,1.89,1.48,0.39,2.43.67,2.6,0.72a1,1,0,1,1-.56,1.92c-0.08,0-3.59-1-8.38-2.12l-2.53-2.6Z"/><path class="cls-7" d="M289,81.77a1,1,0,0,1-1.1.89c-5.69-.59-21.25-1.05-24.94,3.78a1,1,0,0,1-1.59-1.21c5.11-6.7,25.85-4.65,26.73-4.56A1,1,0,0,1,289,81.77Z"/><g class="cls-8"><path class="cls-9" d="M410.32,127.1L418,114.25l-7.72,5.67a19,19,0,0,0-1.4-5.23L413,103.41l-6.73,7.26a14.58,14.58,0,0,0-2.49-2.15L410.5,96l-18.75,9c-18.76-1-47.5,11-66.48,23.42-0.7-.68-1.39-1.38-2.1-2-1.47,7-5.83,12.24-15.57,12.25,9.72,0,14.07-5.24,15.54-12.25,3-14.4-6.2-36.35-6.2-36.35,11.25-10,.94-41.25-5.31-41.25s-22.87,10-22.87,10C275,52.25,250,53.5,250,53.5v50.76a87.1,87.1,0,0,1,16.05,2l0.3,0.05,2.48,2.55c4.8,1.08,8.3,2.1,8.38,2.12a1,1,0,0,0,.28,0h0a1,1,0,0,1-.28,0c-0.08,0-3.84-1-8.63-2.12-5.47-1.23-12.58-2.55-18.58-2.58V395.13c19,0,35.93-2.17,51.45-6.92,6.29-6.11,16.44-10.76,28.25-12.91,24.41-16.07,39.72-42.76,39.72-83.1,0-57.38-31.21-125.78-75.19-154.89l1.65-.56c9.08-6.31,14.36-12.77,17-19.11,11-26.12-23.24-50.31-29.27-54.3,6.05,4,40.48,28.19,29.45,54.3-2.68,6.35-8,12.8-17.11,19.11h0s-0.51.22-1.52,0.56c44,29.12,75.06,97.51,75.06,154.89,0,40.34-15.37,67-39.78,83.1-11.8,2.15-21.74,6.8-28,12.91a22.78,22.78,0,0,0-6.93,12.06,21.93,21.93,0,0,1,6.68-12.06C286,393,269,395.13,250,395.13V424.5c19,0,35.72-1.74,51.71-5.5-4.73-4.51-7.21-9.81-7.21-15.5,0,5.69,2.74,11,7.46,15.5,8.81,8.4,24.56,14,42.54,14a80.3,80.3,0,0,0,20.22-2.52c7.17,4.93,16.51,11.55,19.35,14.5-1.58-3.38-5-12.19-7.53-18.84a47.88,47.88,0,0,0,5.53-3.19c6.44,3.79,14.29,8.6,15.16,10,1.27,2.12-.86-8.66-7.31-17.18a23,23,0,0,0,3.06-5.11c5.12,1.89,10.51,4.29,10.51,4.29s-4.23-11.49-9.48-15.58c-2.07-8.83-10.76-16.41-23-20.94,15.31-19.26,24.24-45.23,24.24-79.13,0-35.94-10-75.42-27.07-110.11C374.38,184.47,407.65,157.55,410.32,127.1ZM267.25,106.43l-0.11,0,5-7.91,0,0ZM250,72.73c0.72-.5,12.61-8.52,32.71-10h0C262.65,64.2,250.76,72.23,250,72.73Z"/><path class="cls-9" d="M265.93,106.24a85.78,85.78,0,0,0-15.93-2v2c6,0,13.11,1.34,18.58,2.58Z"/></g><path class="cls-4" d="M173.13,465.94V465h3.75v11.25h3.75v1.88H169.38v-1.87h3.75v-7.5h-1.87v-1.87h1.88v-0.94Z"/><path class="cls-4" d="M188.13,465.94V465h5.63v7.5h1.88v1.88h-1.87v3.75H190v-3.75h-7.5v-3.75h1.88v-1.87h1.88v-1.87h1.88v-0.94Zm1.88,4.69v-1.87h-1.87v1.88h-1.87v1.88H190v-1.87Z"/><path class="cls-4" d="M199.38,465.94V465h11.25v1.88h-1.87v1.88h-1.87v1.88h1.88v1.88h1.88v3.75h-1.87v1.88h-9.37v-1.87H197.5v-1.87h3.75v1.88h5.63V472.5h-5.62v-1.87h1.88v-1.87H205v-1.87h-5.62v-0.94Z"/><path class="cls-4" d="M229.38,465.94V465h7.5v1.88h1.88v1.88H235v-1.87h-3.75v3.75h7.5v1.88h1.88v3.75h-1.87v1.88h-9.37v-1.87H227.5v-1.87h3.75v1.88h5.63V472.5h-7.5v-1.87H227.5v-3.75h1.88v-0.94Z"/><path class="cls-4" d="M242.5,471.56V465h3.75v1.88h1.88v1.88H250v1.88h1.88V465h3.75v13.13h-3.75v-1.87H250v-1.87h-1.87V472.5h-1.87v5.63H242.5v-6.56Z"/><path class="cls-4" d="M259.38,465.94V465h9.38v1.88h1.88v9.38h-1.87v1.88h-9.37v-1.87H257.5v-9.37h1.88v-0.94Zm7.5,5.63v-4.69h-5.62v9.38h5.63v-4.69Z"/><path class="cls-4" d="M272.5,471.56V465h11.25v1.88h1.88v5.63h-3.75v1.88h1.88v1.88h1.88v1.88H280v-1.87h-1.87v-1.87h-1.87v3.75H272.5v-6.56Zm9.38-2.81v-1.87h-5.62v5.63H280v-1.87h1.88v-1.87Z"/><path class="cls-4" d="M289.38,471.56V465h3.75v11.25h7.5v1.88H289.38v-6.56Z"/><path class="cls-4" d="M306.25,465.94V465h5.63v1.88h1.88v1.88h1.88v9.38h-3.75v-3.75h-5.62v3.75H302.5v-9.37h1.88v-1.87h1.88v-0.94Zm3.75,1.88v-0.94h-1.87v1.88h-1.87v3.75h5.63v-3.75H310v-0.94Z"/><path class="cls-4" d="M317.5,466.88V465h3.75v1.88h1.88v1.88H325v-1.87h1.88V465h3.75v3.75h-1.87v1.88h-1.87v1.88h1.88v1.88h1.88v3.75h-3.75v-1.87H325v-1.87h-1.87v1.88h-1.87v1.88H317.5v-3.75h1.88V472.5h1.88v-1.87h-1.87v-1.87H317.5v-1.87Z"/></svg>