<?xml version="1.0" ?><svg id="pkflt" viewBox="0 0 500 500" xmlns="http://www.w3.org/2000/svg"><defs><style>.cls-1{fill:#fff;}.cls-2{fill:#a01117;}.cls-3,.cls-9{fill:#1a1a1a;}.cls-4{fill:#39a0d4;}.cls-5{fill:#7583ae;}.cls-6{fill:#e7f4f7;}.cls-7{fill:#ccc;}.cls-8{fill:#81c0e9;}.cls-9{opacity:0.1;}</style></defs><title/><path class="cls-1" d="M235.56,208.49a11.53,11.53,0,0,1,2.15-4.06l-4.18-2.91c-0.44,7.35.38,11.13,1.77,12.79A10.52,10.52,0,0,1,235.56,208.49Z"/><path class="cls-1" d="M243.38,210.88a13,13,0,0,1-.72,1.83,26.91,26.91,0,0,0,2.76-2.9l-1.59-1.11A12.72,12.72,0,0,1,243.38,210.88Z"/><path class="cls-2" d="M243.84,208.7L241.38,207c-0.11.32-.22,0.64-0.35,1a1.26,1.26,0,0,1-.48,2.42,1.23,1.23,0,0,1-.56-0.15c-0.76,1.4-1.52,2.27-1.92,2.11-0.58-.23-0.23-2.46.78-5,0.24-.59.49-1.13,0.74-1.63l-1.88-1.32a11.53,11.53,0,0,0-2.15,4.06,10.52,10.52,0,0,0-.26,5.82c2,2.37,5.09.45,7.37-1.59a13,13,0,0,0,.72-1.83A12.72,12.72,0,0,0,243.84,208.7Z"/><path class="cls-3" d="M238.85,207.37c-1,2.51-1.36,4.74-.78,5,0.41,0.16,1.16-.71,1.92-2.11a1.25,1.25,0,0,1,1-2.27c0.13-.33.24-0.66,0.35-1l-1.79-1.25C239.34,206.24,239.09,206.78,238.85,207.37Z"/><path class="cls-1" d="M240,210.23a1.23,1.23,0,0,0,.56.15A1.26,1.26,0,0,0,241,208c0,0.09-.05.17-0.09,0.25A19.06,19.06,0,0,1,240,210.23Z"/><path class="cls-1" d="M239.3,209.12a1.25,1.25,0,0,0,.7,1.11,19.06,19.06,0,0,0,.95-2c0-.09.06-0.17,0.09-0.25A1.25,1.25,0,0,0,239.3,209.12Z"/><path class="cls-4" d="M244.1,191.18l-28.57-21.32,9.92,26,5.95,4.15,2.13,1.49c0-.08,0-0.15,0-0.23l4.28,3,1.85,1.3,1.77,1.24,2.43,1.7,1.66,1.16-0.1.12,0.57,0.4,0.8-.43a17.25,17.25,0,0,1,3.2-1.25V145.31Z"/><path class="cls-4" d="M237.82,204.28l-4.28-3c0,0.08,0,.15,0,0.23l4.18,2.91Z"/><path class="cls-4" d="M243.87,208.52c0,0.06,0,.12,0,0.18l1.59,1.11,0.1-.12Z"/><path class="cls-4" d="M239.6,205.74l0.08-.16-1.85-1.3-0.11.14Z"/><path class="cls-4" d="M243.84,208.7c0-.06,0-0.12,0-0.18l-2.43-1.7-0.06.17Z"/><path class="cls-4" d="M241.38,207l0.06-.17-1.77-1.24-0.08.16Z"/><path class="cls-5" d="M246.86,210.07l-0.61.3-0.24-.17c-2.22,1.29-4.61,3.39-5,6.63-0.69,6.26,9,12.16,9,12.16V208.52Z"/><path class="cls-5" d="M246.86,210.07l3.14-1.55a17.25,17.25,0,0,0-3.2,1.25Z"/><path class="cls-5" d="M246.24,210.38l0.61-.3-0.06-.3-0.8.43Z"/><path class="cls-6" d="M227.2,286.93c12.07,19.31,16.67,19.31,16.67,19.31l6.13-7.78V231.14s-7.78.27-12.21,3.49S215.13,267.62,227.2,286.93Z"/><path class="cls-7" d="M213,367.4a2.12,2.12,0,0,1-.4-2l-8.81,6,10.77-2.9A2.62,2.62,0,0,1,213,367.4Z"/><path class="cls-7" d="M224.19,370.56l1.76,9.36,2.59-8.62a18.09,18.09,0,0,0-3.93-.68A1.57,1.57,0,0,1,224.19,370.56Z"/><path class="cls-7" d="M234.45,371.33l5.8,7.42s-0.36-9.83-2.85-12.7C237.25,368.52,236.44,370.95,234.45,371.33Z"/><path class="cls-5" d="M235.34,359l-2.25-4.63a3.35,3.35,0,0,0,.42-1.13l4.27-24.85-0.12.21c-1.11,2.1-4.68.88-6.79-.08l-4.06,23.57a3.34,3.34,0,0,0,0,1c-1.67,2.72-4.16,6.53-5.6,7.65-1.86,1.43-7.74,2.29-8.62,4.6a2.12,2.12,0,0,0,.4,2,2.62,2.62,0,0,0,1.56,1.08c3.69,1,10.6-4.12,10.6-4.12s-3.2,5.6-1,6.2a1.57,1.57,0,0,0,.42.06,18.09,18.09,0,0,1,3.93.68,1.13,1.13,0,0,0,1.44-.68c0.57-1.29.23-5.58,0.07-7.22,0.24,2.08,1.25,8.54,4.4,7.94h0c2-.38,2.8-2.81,3-5.28a10.21,10.21,0,0,0-.83-5.25Z"/><path class="cls-8" d="M237.79,234.63c4.42-3.22,12.21-3.49,12.21-3.49V229s-9.66-5.9-9-12.16c0.36-3.24,2.74-5.35,5-6.63l-0.57-.4a26.91,26.91,0,0,1-2.76,2.9c-2.28,2-5.39,4-7.37,1.59-1.38-1.66-2.2-5.45-1.77-12.79L231.41,200s-5.19,18.78-1.26,31.12c0,0-22-26.29-98.17-53.64S35.42,48.75,35.42,48.75s1.07,48.16,5.9,58.68S24.69,91.67,24.69,91.67s16,44.26,18.75,45.58c-2.43-1-26.26-10.71-26.26-10.71S48.3,152.82,53.66,156s-26.29,0-26.29,0l42.92,21.72s-32.72,4-39.16-.26l-6.44-4.29S66,207.44,70.83,207.76s-30,1.93-30,1.93,45.4,22,51.52,19.66c-3.47,3.55-16.24,16.18-24.69,9.84-10.73-8,0,14.48,21.46,13.41s-18.24,12.29-18.24,12.29,52,3.59,69.25.55c-7.23,5.25-18.83,15.05-18.83,15.05l56.33-19.85-13.41,24.14s25.75-8.69,35.94-19.9,0.54,22.58.54,22.58l15.56-12c0.18,26.11,3,44.53,13.05,52.21,0,0,.66.38,1.61,0.81,2.11,1,5.69,2.18,6.79.08,0-.07.08-0.23,0.12-0.3,1.76-3.07,7.72-8.3,7.72-8.3H250V298.47l-6.13,7.78s-4.6,0-16.67-19.31S233.37,237.85,237.79,234.63Z"/><path class="cls-1" d="M264.44,208.49a11.53,11.53,0,0,0-2.15-4.06l4.18-2.91c0.44,7.35-.38,11.13-1.77,12.79A10.52,10.52,0,0,0,264.44,208.49Z"/><path class="cls-1" d="M256.62,210.88a13,13,0,0,0,.72,1.83,26.91,26.91,0,0,1-2.76-2.9l1.59-1.11A12.72,12.72,0,0,0,256.62,210.88Z"/><path class="cls-2" d="M256.16,208.7l2.46-1.72c0.11,0.32.22,0.64,0.35,1a1.26,1.26,0,0,0,.48,2.42,1.23,1.23,0,0,0,.56-0.15c0.76,1.4,1.52,2.27,1.92,2.11,0.58-.23.23-2.46-0.78-5-0.24-.59-0.49-1.13-0.74-1.63l1.88-1.32a11.53,11.53,0,0,1,2.15,4.06,10.52,10.52,0,0,1,.26,5.82c-2,2.37-5.09.45-7.37-1.59a13,13,0,0,1-.72-1.83A12.72,12.72,0,0,1,256.16,208.7Z"/><path class="cls-3" d="M261.15,207.37c1,2.51,1.36,4.74.78,5-0.41.16-1.16-.71-1.92-2.11a1.25,1.25,0,0,0-1-2.27c-0.13-.33-0.24-0.66-0.35-1l1.79-1.25C260.66,206.24,260.91,206.78,261.15,207.37Z"/><path class="cls-1" d="M260,210.23a1.23,1.23,0,0,1-.56.15A1.26,1.26,0,0,1,259,208c0,0.09.05,0.17,0.09,0.25A19.06,19.06,0,0,0,260,210.23Z"/><path class="cls-1" d="M260.7,209.12a1.25,1.25,0,0,1-.7,1.11,19.06,19.06,0,0,1-.95-2c0-.09-0.06-0.17-0.09-0.25A1.25,1.25,0,0,1,260.7,209.12Z"/><path class="cls-4" d="M255.9,191.18l28.57-21.32-9.92,26L268.59,200l-2.13,1.49c0-.08,0-0.15,0-0.23l-4.28,3-1.85,1.3-1.77,1.24-2.43,1.7-1.66,1.16,0.1,0.12-0.57.4-0.8-.43a17.25,17.25,0,0,0-3.2-1.25V145.31Z"/><path class="cls-4" d="M262.18,204.28l4.28-3c0,0.08,0,.15,0,0.23l-4.18,2.91Z"/><path class="cls-4" d="M256.13,208.52c0,0.06,0,.12,0,0.18l-1.59,1.11-0.1-.12Z"/><path class="cls-4" d="M260.4,205.74l-0.08-.16,1.85-1.3,0.11,0.14Z"/><path class="cls-4" d="M256.16,208.7c0-.06,0-0.12,0-0.18l2.43-1.7,0.06,0.17Z"/><path class="cls-4" d="M258.62,207l-0.06-.17,1.77-1.24,0.08,0.16Z"/><path class="cls-5" d="M253.14,210.07l0.61,0.3,0.24-.17c2.22,1.29,4.61,3.39,5,6.63,0.69,6.26-9,12.16-9,12.16V208.52Z"/><path class="cls-5" d="M253.14,210.07L250,208.52a17.25,17.25,0,0,1,3.2,1.25Z"/><path class="cls-5" d="M253.76,210.38l-0.61-.3,0.06-.3,0.8,0.43Z"/><path class="cls-6" d="M272.8,286.93c-12.07,19.31-16.67,19.31-16.67,19.31L250,298.47V231.14s7.78,0.27,12.21,3.49S284.87,267.62,272.8,286.93Z"/><path class="cls-7" d="M287,367.4a2.12,2.12,0,0,0,.4-2l8.81,6-10.77-2.9A2.62,2.62,0,0,0,287,367.4Z"/><path class="cls-7" d="M275.81,370.56l-1.76,9.36-2.59-8.62a18.09,18.09,0,0,1,3.93-.68A1.57,1.57,0,0,0,275.81,370.56Z"/><path class="cls-7" d="M265.55,371.33l-5.8,7.42s0.36-9.83,2.85-12.7C262.75,368.52,263.56,370.95,265.55,371.33Z"/><path class="cls-5" d="M264.66,359l2.25-4.63a3.35,3.35,0,0,1-.42-1.13l-4.27-24.85,0.12,0.21c1.11,2.1,4.68.88,6.79-.08l4.06,23.57a3.34,3.34,0,0,1,0,1c1.67,2.72,4.16,6.53,5.6,7.65,1.86,1.43,7.74,2.29,8.62,4.6a2.12,2.12,0,0,1-.4,2,2.62,2.62,0,0,1-1.56,1.08c-3.69,1-10.6-4.12-10.6-4.12s3.2,5.6,1,6.2a1.57,1.57,0,0,1-.42.06,18.09,18.09,0,0,0-3.93.68,1.13,1.13,0,0,1-1.44-.68c-0.57-1.29-.23-5.58-0.07-7.22-0.24,2.08-1.25,8.54-4.4,7.94h0c-2-.38-2.8-2.81-3-5.28a10.21,10.21,0,0,1,.83-5.25Z"/><path class="cls-8" d="M262.21,234.63c-4.42-3.22-12.21-3.49-12.21-3.49V229s9.66-5.9,9-12.16c-0.36-3.24-2.74-5.35-5-6.63l0.57-.4a26.91,26.91,0,0,0,2.76,2.9c2.28,2,5.39,4,7.37,1.59,1.38-1.66,2.2-5.45,1.77-12.79l2.13-1.49s5.19,18.78,1.26,31.12c0,0,22-26.29,98.17-53.64S464.58,48.75,464.58,48.75s-1.07,48.16-5.9,58.68,16.63-15.77,16.63-15.77-16,44.26-18.75,45.58c2.43-1,26.26-10.71,26.26-10.71S451.7,152.82,446.34,156s26.29,0,26.29,0l-42.92,21.72s32.72,4,39.16-.26l6.44-4.29S434,207.44,429.17,207.76s30,1.93,30,1.93-45.4,22-51.52,19.66c3.47,3.55,16.24,16.18,24.69,9.84,10.73-8,0,14.48-21.46,13.41s18.24,12.29,18.24,12.29-52,3.59-69.25.55c7.23,5.25,18.83,15.05,18.83,15.05l-56.33-19.85,13.41,24.14s-25.75-8.69-35.94-19.9-0.54,22.58-.54,22.58l-15.56-12c-0.18,26.11-3,44.53-13.05,52.21,0,0-.66.38-1.61,0.81-2.11,1-5.69,2.18-6.79.08,0-.07-0.08-0.23-0.12-0.3-1.76-3.07-7.72-8.3-7.72-8.3H250V298.47l6.13,7.78s4.6,0,16.67-19.31S266.63,237.85,262.21,234.63Z"/><path class="cls-9" d="M475.31,173.21l-6.44,4.29c-6.44,4.29-39.16.26-39.16,0.26L472.63,156s-31.65,3.22-26.29,0,36.48-29.5,36.48-29.5-23.83,9.71-26.26,10.71c2.75-1.33,18.75-45.58,18.75-45.58S453.85,118,458.68,107.43s5.9-58.68,5.9-58.68S444.19,150.14,368,177.5s-98.17,53.64-98.17,53.64c3.93-12.34-1.26-31.12-1.26-31.12l5.95-4.15,9.92-26L255.9,191.18,250,145.31V320h4.5s6,5.23,7.72,8.3l4.27,24.9a3.48,3.48,0,0,0,.42,1.15L264.66,359l-1.23,1.81a10.22,10.22,0,0,0-.83,5.25c-2.49,2.87-2.85,12.7-2.85,12.7l5.8-7.42h0c3.16,0.6,4.16-5.86,4.4-7.94-0.16,1.64-.51,5.93.07,7.22a1.13,1.13,0,0,0,1.44.68l2.59,8.62,1.76-9.36c2.24-.6-1-6.2-1-6.2s6.91,5.08,10.6,4.12l10.77,2.9-8.81-6c-0.89-2.31-6.76-3.17-8.62-4.6-1.45-1.11-3.93-4.93-5.6-7.65a3.34,3.34,0,0,0,0-1l-4.06-23.57c1-.43,1.61-0.81,1.61-0.81,10-7.69,12.87-26.11,13.05-52.21l15.56,12s-9.66-33.8.54-22.58,35.94,19.9,35.94,19.9l-13.41-24.14,56.33,19.85s-11.59-9.81-18.83-15.05c17.23,3,69.25-.55,69.25-0.55s-39.7-13.36-18.24-12.29,32.19-21.46,21.46-13.41c-8.45,6.34-21.22-6.29-24.69-9.84,6.12,2.29,51.52-19.66,51.52-19.66s-34.87-1.61-30-1.93S475.31,173.21,475.31,173.21Z"/><path class="cls-5" d="M165.63,465.94V465h3.75v11.25h3.75v1.88H161.88v-1.87h3.75v-7.5h-1.87v-1.87h1.88v-0.94Z"/><path class="cls-5" d="M180.63,465.94V465h5.63v7.5h1.88v1.88h-1.87v3.75H182.5v-3.75H175v-3.75h1.88v-1.87h1.88v-1.87h1.88v-0.94Zm1.88,4.69v-1.87h-1.87v1.88h-1.87v1.88h3.75v-1.87Z"/><path class="cls-5" d="M195.63,465.94V465h5.63v7.5h1.88v1.88h-1.87v3.75H197.5v-3.75H190v-3.75h1.88v-1.87h1.88v-1.87h1.88v-0.94Zm1.88,4.69v-1.87h-1.87v1.88h-1.87v1.88h3.75v-1.87Z"/><path class="cls-5" d="M223.75,465.94V465h5.63v1.88h1.88v1.88h1.88v9.38h-3.75v-3.75h-5.62v3.75H220v-9.37h1.88v-1.87h1.88v-0.94Zm3.75,1.88v-0.94h-1.87v1.88h-1.87v3.75h5.63v-3.75H227.5v-0.94Z"/><path class="cls-5" d="M235,471.56V465h11.25v1.88h1.88v5.63h-3.75v1.88h1.88v1.88h1.88v1.88H242.5v-1.87h-1.87v-1.87h-1.87v3.75H235v-6.56Zm9.38-2.81v-1.87h-5.62v5.63h3.75v-1.87h1.88v-1.87Z"/><path class="cls-5" d="M251.88,465.94V465h11.25v1.88h-3.75v11.25h-3.75V466.88h-3.75v-0.94Z"/><path class="cls-5" d="M266.88,465.94V465h11.25v1.88h-3.75v9.38h3.75v1.88H266.88v-1.87h3.75v-9.37h-3.75v-0.94Z"/><path class="cls-5" d="M283.75,465.94V465h7.5v1.88h1.88v1.88h-3.75v-1.87h-3.75v1.88h-1.87v5.63h1.88v1.88h3.75v-1.87h3.75v1.88h-1.87v1.88h-7.5v-1.87h-1.87v-1.87H280v-5.62h1.88v-1.87h1.88v-0.94Z"/><path class="cls-5" d="M295,470.63V465h3.75v11.25h5.63V465h3.75v11.25h-1.87v1.88h-9.37v-1.87H295v-5.62Z"/><path class="cls-5" d="M310,471.56V465h3.75v1.88h1.88v1.88h1.88v1.88h1.88V465h3.75v13.13h-3.75v-1.87H317.5v-1.87h-1.87V472.5h-1.87v5.63H310v-6.56Z"/><path class="cls-5" d="M326.88,465.94V465h9.38v1.88h1.88v9.38h-1.87v1.88h-9.37v-1.87H325v-9.37h1.88v-0.94Zm7.5,5.63v-4.69h-5.62v9.38h5.63v-4.69Z"/></svg>