<?xml version="1.0" ?><svg id="pkflt" viewBox="0 0 500 500" xmlns="http://www.w3.org/2000/svg"><defs><style>.cls-1{fill:#f4d100;}.cls-2{fill:#ffde1a;}.cls-3,.cls-9{fill:#1a1a1a;}.cls-4{fill:#fff;}.cls-5{fill:#e07f00;}.cls-6{fill:#854c3b;}.cls-7{fill:#ccc;}.cls-8{fill:#f48500;}.cls-9{opacity:0.1;}.cls-10{fill:#ddb800;}</style></defs><title/><path class="cls-1" d="M218,195.51s-81.78-59.44-102.86-63.1c0,0,53.68,41.61,57.9,47.79S101.34,144.52,21.53,138.9c0,0,111,45.87,128.44,61.86,0,0-56.49,10.93-65.2,16.84,0,0,72.79.28,104.55,19.39l-32,27,70.26-13.07-2.81,14.19,5.06,36.82S191.84,336.76,189,355c0,0,28.95-29.51,30.91-31.48s-18,63.52-18,63.52l32.87-52.84S250,396.06,250,400V213"/><path class="cls-2" d="M218.34,119l15.84,47.38-40.37-7.43L219.1,174H205l8.62,4-33.16-2.8L218.73,190l-30.54,35,39.35-10.12-5.06,29.79L245,220.13l-0.86-7.68-5.32-6,1.71-3.75a9.82,9.82,0,0,1,1.32-2l-0.07,0-7.33-5-1.09-12.49s1.8,1.58,4,3.75c1.44,1.44,3,3.13,4.41,4.79,0.54,0.65,1,1.3,1.46,1.93,1.06,1.53,1.74,2.93,1.65,3.92a64.92,64.92,0,0,1,5.2-4.19V164Z"/><path class="cls-3" d="M236.16,191.23a8.62,8.62,0,0,1,1.12-4.25c-2.17-2.16-4-3.75-4-3.75l1.09,12.49,7.33,5,0.07,0c0.29-.36.6-0.71,0.93-1.07A8.65,8.65,0,0,1,236.16,191.23Z"/><path class="cls-4" d="M242.74,199.63c0.64-.68,1.35-1.36,2.07-2,0.08-1-.6-2.38-1.66-3.92-0.8,1.27-1.64,2-2.07,1.83s-0.25-1.92.61-3.76c-1.36-1.66-3-3.35-4.41-4.79A8.64,8.64,0,0,0,242.74,199.63Z"/><path class="cls-3" d="M241.07,195.53c0.43,0.21,1.27-.56,2.07-1.83-0.43-.63-0.93-1.27-1.46-1.93C240.82,193.61,240.54,195.27,241.07,195.53Z"/><polygon class="cls-5" points="244.95 220.13 250 265.09 250 216.38 244.95 220.13 244.95 220.13"/><path class="cls-5" d="M244,197.64a4,4,0,0,1-.31,2.21,1.86,1.86,0,0,1-2.09.84,9,9,0,0,0-1.22,2c-1.71,3.75-1.66,3.75-1.66,3.75l5.35,6,0.87,7.68h0l5.06-3.75v-23a35,35,0,0,1-6,4.19v0Z"/><path class="cls-5" d="M244.1,199.86a8.66,8.66,0,0,1-1.36-.23c-0.34.36-.64,0.72-0.93,1.07A2.13,2.13,0,0,0,244.1,199.86Z"/><path class="cls-5" d="M242.84,199.63a9.28,9.28,0,0,0,1.4.23,3.65,3.65,0,0,0,.76-2.21v0A10.74,10.74,0,0,0,242.84,199.63Z"/><path class="cls-6" d="M240.83,284.6l0.75-4.71-4.31,3,1.5-5.06L233,279.52l2.62-4.12-5.8.94,1.87-4.5-5.25,1.69,2.06-4.5-3,1.87-0.75-5.81s-11.62,21.92-8.43,32c0,0,.5.21,1.26,0.56,2.69,1.25,8.63,4.28,7.17,6.18-0.23.29-.11,0.3,0.25,0.08,2.64-1.58,18.86-15.27,18.86-19.47C243.83,279.71,240.83,284.6,240.83,284.6Z"/><path class="cls-7" d="M177.84,303.82a5.49,5.49,0,0,1,3-1l-11.8-8.93,6.8,13.65h0A4.22,4.22,0,0,1,177.84,303.82Z"/><path class="cls-7" d="M202,292.72l-3.83-9.16-0.67,10.29a5.19,5.19,0,0,1,2.05-1.13A4.31,4.31,0,0,1,202,292.72Z"/><path class="cls-7" d="M188,298.26a4.52,4.52,0,0,1,2-.53l-9.73-8.33,5.6,11.24A4.16,4.16,0,0,1,188,298.26Z"/><path class="cls-8" d="M225,304c-0.36.22-.47,0.36-0.25,0.07,1.46-1.9-4.48-5-7.17-6h-1.26l-10,11.64,0.88,5.6c0.24,1.52-.47,2.94-2.43,4l2.36,4.47,17.77-19.59Z"/><path class="cls-5" d="M214,336.79l-6.87-13.06-2,2.2-7.35-6.35,8.54-10.1L204.07,295a2.87,2.87,0,0,0-2.09-2.29,4.31,4.31,0,0,0-2.45,0,5.19,5.19,0,0,0-2.05,1.13,3.85,3.85,0,0,0-1.4,3.38L198,308.72l-4.89-9.3a3.24,3.24,0,0,0-3-1.69,4.52,4.52,0,0,0-2,.53,4.16,4.16,0,0,0-2.1,2.38,3.13,3.13,0,0,0,.19,2.44l4.8,9.13-7.28-8.29a3.42,3.42,0,0,0-2.75-1.09,5.49,5.49,0,0,0-3,1,4.22,4.22,0,0,0-2,3.73,2.58,2.58,0,0,0,.56,1.38l12.73,15.59c1.19,1.45,3.69,1.54,5.6.21a0.51,0.51,0,0,0,.13-0.12L204.06,342c0.86,1.64,3.15,1.86,5.22.77l2.61-1.37C214,340.34,214.88,338.44,214,336.79Z"/><path class="cls-5" d="M207.21,315.17l-0.88-5.68-8.54,10.1,7.35,6.35,2-2.2-2.36-4.49C206.74,318.14,207.45,316.68,207.21,315.17Z"/><path class="cls-1" d="M281.91,195.51s81.72-59.44,102.79-63.1c0,0-53.71,41.61-57.93,47.79s71.65-35.69,151.46-41.31c0,0-111,45.87-128.44,61.86,0,0,56.48,10.93,65.2,16.84,0,0-72.79.28-104.55,19.39l32,27L272.22,250.9,275,265.09,270,301.91s37.94,34.85,40.76,53.12c0,0-28.95-29.51-30.91-31.48s18,63.52,18,63.52L265,334.23S250,396.06,250,400V213"/><path class="cls-2" d="M281.53,119l-15.9,47.38L306,158.95,280.65,174H294.7l-8.62,4,33.16-2.8L281,190l30.54,35-39.35-10.12,5.06,29.79-22.49-24.54,0.86-7.68,5.32-6-1.71-3.75a9.82,9.82,0,0,0-1.32-2l0.07,0,7.33-5,1.09-12.49s-1.8,1.58-4,3.75c-1.44,1.44-3,3.13-4.41,4.79-0.54.65-1,1.3-1.46,1.93a6.76,6.76,0,0,0-1.53,3.92c-2.55-2.31-5.07-4.19-5.07-4.19V164Z"/><path class="cls-3" d="M263.59,191.23a8.62,8.62,0,0,0-1.12-4.25c2.17-2.16,4-3.75,4-3.75l-1.09,12.49-7.33,5-0.07,0c-0.29-.36-0.6-0.71-0.93-1.07A8.65,8.65,0,0,0,263.59,191.23Z"/><path class="cls-4" d="M257,199.63c-0.64-.68-1.35-1.36-2.07-2-0.08-1,.6-2.38,1.66-3.92,0.8,1.27,1.64,2,2.07,1.83s0.25-1.92-.61-3.76c1.36-1.66,3-3.35,4.41-4.79A8.64,8.64,0,0,1,257,199.63Z"/><path class="cls-3" d="M258.68,195.53c-0.43.21-1.27-.56-2.07-1.83,0.43-.63.93-1.27,1.46-1.93C258.93,193.61,259.21,195.27,258.68,195.53Z"/><polygon class="cls-5" points="255.05 220.13 250 265.09 250 216.38 255.05 220.13 255.05 220.13"/><path class="cls-5" d="M256,197.64c0,1-.15,1.74.18,2.21a1.78,1.78,0,0,0,2,.84,8.82,8.82,0,0,1,1.19,2,39.71,39.71,0,0,1,1.65,3.75l-5.36,6-0.75,7.68h0L250,216.38v-23a35,35,0,0,0,6,4.19v0Z"/><path class="cls-5" d="M255.65,199.86a8.66,8.66,0,0,0,1.36-.23c0.34,0.36.64,0.72,0.93,1.07A2.13,2.13,0,0,1,255.65,199.86Z"/><path class="cls-5" d="M257,199.63a8.48,8.48,0,0,1-1.34.23,3.66,3.66,0,0,1-.69-2.21v0A9.84,9.84,0,0,1,257,199.63Z"/><path class="cls-6" d="M258.91,284.6l-0.75-4.71,4.31,3-1.5-5.06,5.81,1.69-2.62-4.12,5.8,0.94-1.87-4.5,5.25,1.69-2.06-4.5,3,1.87,0.75-5.81s11.62,21.92,8.43,32c0,0-.5.21-1.26,0.56-2.69,1.25-8.63,4.28-7.17,6.18,0.23,0.29.11,0.3-.25,0.08-2.64-1.58-18.86-15.27-18.86-19.47C255.92,279.71,258.91,284.6,258.91,284.6Z"/><path class="cls-7" d="M321.91,303.82a5.49,5.49,0,0,0-3-1l11.8-8.93-6.8,13.65h0A4.22,4.22,0,0,0,321.91,303.82Z"/><path class="cls-7" d="M297.77,292.72l3.83-9.16,0.67,10.29a5.19,5.19,0,0,0-2.05-1.13A4.31,4.31,0,0,0,297.77,292.72Z"/><path class="cls-7" d="M311.73,298.26a4.52,4.52,0,0,0-2-.53l9.73-8.33-5.6,11.24A4.16,4.16,0,0,0,311.73,298.26Z"/><path class="cls-8" d="M274.78,304c0.36,0.22.47,0.36,0.25,0.07-1.46-1.9,4.48-5,7.17-6h1.26l10,11.64-0.88,5.6c-0.24,1.52.47,2.94,2.43,4l-2.36,4.47-17.77-19.59Z"/><path class="cls-5" d="M285.74,336.79l6.87-13.06,2,2.2,7.35-6.35-8.54-10.1L295.68,295a2.87,2.87,0,0,1,2.09-2.29,4.31,4.31,0,0,1,2.45,0,5.19,5.19,0,0,1,2.05,1.13,3.85,3.85,0,0,1,1.4,3.38l-1.88,11.49,4.89-9.3a3.24,3.24,0,0,1,3-1.69,4.52,4.52,0,0,1,2,.53,4.16,4.16,0,0,1,2.1,2.38,3.13,3.13,0,0,1-.19,2.44l-4.8,9.13,7.28-8.29a3.42,3.42,0,0,1,2.75-1.09,5.49,5.49,0,0,1,3,1,4.22,4.22,0,0,1,2,3.73,2.58,2.58,0,0,1-.56,1.38l-12.73,15.59c-1.19,1.45-3.69,1.54-5.6.21a0.51,0.51,0,0,1-.13-0.12L295.68,342c-0.86,1.64-3.15,1.86-5.22.77l-2.61-1.37C285.79,340.34,284.87,338.44,285.74,336.79Z"/><path class="cls-5" d="M292.54,315.17l0.88-5.68,8.54,10.1-7.35,6.35-2-2.2,2.36-4.49C293,318.14,292.3,316.68,292.54,315.17Z"/><path class="cls-9" d="M349.79,200.77c17.42-16,128.44-61.85,128.44-61.85-79.82,5.62-155.68,47.51-151.46,41.33s57.93-47.74,57.93-47.74c-13,2.25-49,25.75-74.77,43.44l-23.85,2,8.62-4H280.65L306,158.95l-40.34,7.42L281.53,119,250,164v29.41s0.85,0.64,2.05,1.62c-1.28-1-2.05-1.62-2.05-1.62V400c0-3.93,15-65.76,15-65.76l32.74,52.84s-20-65.48-18-63.52c0.63,0.63,4.06,4.11,8.41,8.54l-2.47,4.7c-0.86,1.64,0,3.55,2.12,4.64l2.61,1.37c2.07,1.09,4.36.87,5.22-.77l0.8-1.51L310.72,355c-0.89-5.8-5.32-13.26-11-20.75l5.09-9.66a0.51,0.51,0,0,0,.13.12c1.91,1.34,4.41,1.24,5.6-.21l12.73-15.59a2.58,2.58,0,0,0,.56-1.38h0l6.8-13.65-11.8,8.93a3.42,3.42,0,0,0-2.75,1.09l-7.28,8.29,4.8-9.13a3.13,3.13,0,0,0,.19-2.44l5.6-11.24-9.73,8.33a3.24,3.24,0,0,0-3,1.69l-4.89,9.3,1.88-11.49a3.85,3.85,0,0,0-1.4-3.38l-0.67-10.29-3.83,9.16a2.87,2.87,0,0,0-2.09,2.29l-2.25,14.63-10-11.64H282.2c0.76-1,1.25-.71,1.25-0.71,3.18-10.12-8.44-32.1-8.44-32.11v0l-2.8-14.21L342.47,264l-32-27C342.19,217.89,415,217.6,415,217.6,406.28,211.7,349.79,200.77,349.79,200.77Zm-49.07-18.44c-7.36,5.14-13.17,9.3-16.28,11.54L281,190ZM257.94,200.7l0,0a2,2,0,0,1-.47,0A2.41,2.41,0,0,0,257.94,200.7Zm34.67,123-0.55,1A313.72,313.72,0,0,0,270,301.91l0.21-1.53a50.85,50.85,0,0,0,4.61,3.58l0.06,0.2Zm-17.8-20.62a1,1,0,0,0,.22.76A1,1,0,0,1,274.81,303.12Zm-0.53-32.21,0,0,0.79-5.74Z"/><path class="cls-10" d="M180.63,465.94V465h3.75v11.25h3.75v1.88H176.88v-1.87h3.75v-7.5h-1.87v-1.87h1.88v-0.94Z"/><path class="cls-10" d="M195.63,465.94V465h5.63v7.5h1.88v1.88h-1.87v3.75H197.5v-3.75H190v-3.75h1.88v-1.87h1.88v-1.87h1.88v-0.94Zm1.88,4.69v-1.87h-1.87v1.88h-1.87v1.88h3.75v-1.87Z"/><path class="cls-10" d="M205,467.81V465h11.25v1.88h-7.5v1.88h7.5v1.88h1.88v5.63h-1.87v1.88h-9.37v-1.87H205v-1.87h3.75v1.88h5.63v-5.62H205v-2.81Z"/><path class="cls-10" d="M235,465.94V465h13.13v3.75h-1.87v1.88h-1.87v1.88H242.5v1.88h-1.87v1.88h7.5v1.88H235v-3.75h1.88V472.5h1.88v-1.87h1.88v-1.87h1.88v-1.87H235v-0.94Z"/><path class="cls-10" d="M253.75,465.94V465h5.63v1.88h1.88v1.88h1.88v9.38h-3.75v-3.75h-5.62v3.75H250v-9.37h1.88v-1.87h1.88v-0.94Zm3.75,1.88v-0.94h-1.87v1.88h-1.87v3.75h5.63v-3.75H257.5v-0.94Z"/><path class="cls-10" d="M265,471.56V465h11.25v1.88h1.88v5.63h-1.87v1.88h-7.5v3.75H265v-6.56Zm9.38-1.87v-2.81h-5.62v5.63h5.63v-2.81Z"/><path class="cls-10" d="M280,471.56V465h9.38v1.88h1.88v1.88h1.88v5.63h-1.87v1.88h-1.87v1.88H280v-6.56Zm7.5-3.75v-0.94h-3.75v9.38h3.75v-1.87h1.88v-5.62H287.5v-0.94Z"/><path class="cls-10" d="M296.88,465.94V465h9.38v1.88h1.88v9.38h-1.87v1.88h-9.37v-1.87H295v-9.37h1.88v-0.94Zm7.5,5.63v-4.69h-5.62v9.38h5.63v-4.69Z"/><path class="cls-10" d="M311.88,465.94V465h7.5v1.88h1.88v1.88H317.5v-1.87h-3.75v3.75h7.5v1.88h1.88v3.75h-1.87v1.88h-9.37v-1.87H310v-1.87h3.75v1.88h5.63V472.5h-7.5v-1.87H310v-3.75h1.88v-0.94Z"/></svg>