<?xml version="1.0" ?><svg id="pkflt" viewBox="0 0 500 500" xmlns="http://www.w3.org/2000/svg"><defs><style>.cls-1{fill:#ccc;}.cls-2{fill:none;}.cls-3{fill:#ff9700;}.cls-4{fill:#fff;}.cls-5{fill:blue;}.cls-6{fill:#1a1a1a;}.cls-7{fill:#fedc07;}.cls-8{opacity:0.1;}</style></defs><title/><path class="cls-1" d="M250.42,351.65a1.82,1.82,0,0,1-1.12-.73l-1.09,8.33,3.58-7.87A1.83,1.83,0,0,1,250.42,351.65Z"/><path class="cls-1" d="M248.76,351.86l2.48,5.26-0.73-5.52-0.09.07A1.83,1.83,0,0,1,248.76,351.86Z"/><path class="cls-1" d="M215.88,359.86a1.91,1.91,0,0,1-.31-1c-2.07,1.54-7.15,5.34-6.52,5s5-2.27,7.55-3.41A1.9,1.9,0,0,1,215.88,359.86Z"/><path class="cls-2" d="M242.72,236.15h0Z"/><path class="cls-2" d="M243,235.38v0Z"/><path class="cls-2" d="M242.95,235.53l-0.07.2Z"/><path class="cls-3" d="M247.3,173.4l-1.3-3.34v7.37c0-6.15-2.17-5.62-2.17-5.62,1.32,0.18,1.49,10.36.78,9.83a9.5,9.5,0,0,1-1.58-2.81c-0.31.22,0,3.28,0.34,5.05a1.17,1.17,0,0,1,.4.93c0,0.72-.22.12-0.41-0.93-1.12-1.06-4.16-1.17-4.16-1.17,2,0,1.83,5.11.32,4.94s0-1.19,0-1.19c-2.71,1.47-1.58,6.23-1.41,6.88,3.89-5.25,11.9-4.86,11.9-4.86V142.67Z"/><path class="cls-3" d="M243.76,184.82a1.17,1.17,0,0,0-.41-0.93C243.55,184.95,243.73,185.54,243.76,184.82Z"/><path class="cls-3" d="M85.34,201.4l0.06-.08Z"/><path class="cls-3" d="M49.84,125.29a3.22,3.22,0,0,0-2.1-1C49.55,125.63,50.53,126.19,49.84,125.29Z"/><path class="cls-3" d="M104.75,211.94l0.4-.26A0.75,0.75,0,0,0,104.75,211.94Z"/><path class="cls-3" d="M28.77,127.66l1-.31A1.08,1.08,0,0,0,28.77,127.66Z"/><path class="cls-3" d="M102.51,163.74c0-8.1-41.07-47.31-60.08-65h0l7.4,19.19-19-6.85s11.75,9.6,16.86,13.26a3.22,3.22,0,0,1,2.1,1c0.69,0.9-.29.34-2.1-1-4.66-.73-14.7,2.06-17.93,3,6.08,0.23,35.45,15.32,28.2,15.32-7.9,0-19-7.9-18.7-5.53s22.91,17.91,22.91,17.91l-26.34-3.69,29.23,9.48c-7.9-2.9-15.28,7.64-15.28,7.64,4.74-5.53,19.49,2.63,19.49,2.63-11.06-1.58-14.75,13.7-14.75,13.7,2.11-3.42,11.06-4.74,11.06-4.74s-2.9,16.07,1.84,12.91,12.91-4.21,12.91-4.21l1.05,5.53c1.05,5.53-10.53,12.25-10.53,12.25,10.07,0.61,13.95-4.45,14.43-5.14l0.06-.08-0.06.08-10.22,15s23.18-12.64,9.74,0,6.06,21.07,6.06,21.07c-9-9.74,10.79-23.53,13.83-25.55a0.75,0.75,0,0,1,.4-0.26l-0.4.26c-2.09,2.36-.92,19.76-0.92,19.76,2.9-16.33,30.29-7.64,30.29-7.64-7.9.79-10.53,13.43-10.53,13.43s-1.05,5.53,0,2.11,10.53-2.11,10.53-2.11-6.32,2.9-5.79,4.21,5.79,8.69,5.79,8.69c-2.63-10.53,13.17-12.12,13.17-12.12-4,.26-2.9,14-2.63,11.06s5.27-4.48,5.27-4.48l9,26.34-1.05-11.59c-1.05-11.59,18.44-13.17,14-11.59s-2.63,19-2.63,19c1.05-7.9,15.54-12.38,15.54-12.38s-6.32,15.8-3.42,14.49,16.07-12.64,18.17-9.48-4.57,9.48-4.57,9.48c3.16,0,13-9.48,13-9.48s2.81,9.48,2.81,6.27,4.89-3.46,4.89-3.46-4.54,5.27,2.83,2.81a32.67,32.67,0,0,0,9.6-4.83C205.45,248.89,102.51,173.8,102.51,163.74Z"/><polygon class="cls-3" points="250 224.06 250 196.19 241.76 203.78 250 224.06"/><path class="cls-4" d="M236.92,202.2a3.83,3.83,0,0,1,1.55-.88,6.7,6.7,0,0,1-.3-2,5.24,5.24,0,0,1,1-3.4,14.3,14.3,0,0,0-1.76-.56C236.39,196.14,236.92,202.2,236.92,202.2Z"/><path class="cls-4" d="M242.38,199.31a7.37,7.37,0,0,1,0,.79l1.43-.37a4.39,4.39,0,0,0-1.33-1.94,1,1,0,0,1-.2.19A6.75,6.75,0,0,1,242.38,199.31Z"/><path class="cls-5" d="M238.47,201.32a40.2,40.2,0,0,1,3.87-1.21,7.37,7.37,0,0,0,0-.79,6.75,6.75,0,0,0-.14-1.32,0.94,0.94,0,0,1-1,.16c-0.37.86-.86,1.4-1.24,1.3s-0.66-1.39-.31-2.81c0-.16.08-0.31,0.13-0.45l-0.65-.27a5.24,5.24,0,0,0-1,3.4A6.7,6.7,0,0,0,238.47,201.32Z"/><path class="cls-6" d="M240,199.45c0.38,0.1.87-.45,1.24-1.3a1,1,0,0,1-.72-1,1,1,0,0,1,.17-0.54c-0.29-.16-0.58-0.3-0.86-0.43,0,0.15-.09.3-0.13,0.45C239.38,198.06,239.52,199.32,240,199.45Z"/><path class="cls-4" d="M242.44,197.8l-0.28-.25c0,0.14.06,0.3,0.09,0.44A1,1,0,0,0,242.44,197.8Z"/><path class="cls-4" d="M241.62,198.22a1,1,0,0,0,.63-0.23c0-.15-0.05-0.3-0.09-0.44s-0.35-.26-0.54-0.39a6.68,6.68,0,0,1-.34,1A1,1,0,0,0,241.62,198.22Z"/><path class="cls-4" d="M241.28,198.15a6.68,6.68,0,0,0,.34-1c-0.29-.2-0.59-0.38-0.89-0.54a1,1,0,0,0-.17.54A1,1,0,0,0,241.28,198.15Z"/><path class="cls-3" d="M233.25,322.82l-1.49,24a1.91,1.91,0,0,0-.29.69l-0.09.44a1.92,1.92,0,0,0-1.53.26l-13.44,9a1.93,1.93,0,0,0-.85,1.7,1.86,1.86,0,0,0,1,1.61,1.93,1.93,0,0,0,2-.1l11.93-7.95-2.19,10.92a1.93,1.93,0,0,0,3.79.76l0.22-1.07h0l2-9.85,7.95,11.93a1.95,1.95,0,0,0,2.68.54l0.09-.08a1.93,1.93,0,0,0,.44-2.6l-9-13.44a1.88,1.88,0,0,0-.17-0.2,2.38,2.38,0,0,0,.18-0.73l1.63-26.32a6.85,6.85,0,0,1-3.14.79A6.57,6.57,0,0,1,233.25,322.82Z"/><path class="cls-7" d="M238.1,193.36c-1.91,2.58-2.83,6.51-1.31,12.52,4.61,18.26,4.49,14.4,4.49,14.4s4,8.78,1.73,15.1v0l0,0.12-0.07.2-0.16.43h0l0.16-.43,0.07-.2,0-.12v0s-22.5-4.69-49.89-22.36S92,121.6,70.91,111.07,33,90,33,90s3.73,3.39,9.45,8.72l93,75.56,86.39,65.32,7.11,20a10.78,10.78,0,0,1-.94.79,23.77,23.77,0,0,0,2.67,1.2c-1.23,3.2-2,5.9-1.73,7.49,0.47,3.21-.58,10.61,2.19,18.17-4.1,2.66-7,9.39-7,17.3,0,9.22,4,16.84,9.15,18.26a6.57,6.57,0,0,0,1.74.26,6.85,6.85,0,0,0,3.14-.79c4.49-2.29,7.76-9.36,7.76-17.74,0-.6,0-1.2-0.05-1.79a45,45,0,0,0,4.17,1.79v-80.5l-8.24-20.28,8.24-7.59v-5.05l-11.88,2.31Zm1.76,2.82c0.28,0.13.57,0.27,0.86,0.43s0.6,0.34.89,0.54,0.37,0.25.54,0.39l0.28,0.25a4.39,4.39,0,0,1,1.33,1.94l-1.43.37a40.2,40.2,0,0,0-3.87,1.21,3.83,3.83,0,0,0-1.55.88s-0.53-6.06.53-6.85a14.3,14.3,0,0,1,1.76.56Z"/><path class="cls-7" d="M243,235.41l0,0.12Z"/><path class="cls-7" d="M242.88,235.73l-0.16.43Z"/><path class="cls-7" d="M238.1,193.36l0,0.08L250,191.13V188.5S242,188.12,238.1,193.36Z"/><path class="cls-7" d="M221.82,239.59l-86.39-65.32-93-75.56c19,17.72,60.08,56.92,60.08,65,0,10.05,102.94,85.15,125.48,96.66a10.78,10.78,0,0,0,.94-0.79Z"/><path class="cls-2" d="M257.28,236.15h0Z"/><path class="cls-2" d="M257,235.38v0Z"/><path class="cls-2" d="M257.05,235.53l0.07,0.2Z"/><path class="cls-3" d="M252.7,173.4l1.3-3.34v7.37c0-6.15,2.17-5.62,2.17-5.62-1.32.18-1.49,10.36-.78,9.83a9.5,9.5,0,0,0,1.58-2.81c0.31,0.22,0,3.28-.34,5.05a1.17,1.17,0,0,0-.4.93c0,0.72.22,0.12,0.41-.93,1.12-1.06,4.16-1.17,4.16-1.17-2,0-1.83,5.11-.32,4.94s0-1.19,0-1.19c2.71,1.47,1.58,6.23,1.41,6.88C258,188.12,250,188.5,250,188.5V142.67Z"/><path class="cls-3" d="M256.24,184.82a1.17,1.17,0,0,1,.41-0.93C256.45,184.95,256.27,185.54,256.24,184.82Z"/><path class="cls-3" d="M414.66,201.4l-0.06-.08Z"/><path class="cls-3" d="M450.16,125.29a3.22,3.22,0,0,1,2.1-1C450.45,125.63,449.47,126.19,450.16,125.29Z"/><path class="cls-3" d="M395.25,211.94l-0.4-.26A0.75,0.75,0,0,1,395.25,211.94Z"/><path class="cls-3" d="M471.23,127.66l-1-.31A1.08,1.08,0,0,1,471.23,127.66Z"/><path class="cls-3" d="M397.49,163.74c0-8.1,41.07-47.31,60.08-65h0l-7.4,19.19,19-6.85s-11.75,9.6-16.86,13.26a3.22,3.22,0,0,0-2.1,1c-0.69.9,0.29,0.34,2.1-1,4.66-.73,14.7,2.06,17.93,3-6.08.23-35.45,15.32-28.2,15.32,7.9,0,19-7.9,18.7-5.53s-22.91,17.91-22.91,17.91l26.34-3.69-29.23,9.48c7.9-2.9,15.28,7.64,15.28,7.64-4.74-5.53-19.49,2.63-19.49,2.63,11.06-1.58,14.75,13.7,14.75,13.7-2.11-3.42-11.06-4.74-11.06-4.74s2.9,16.07-1.84,12.91-12.91-4.21-12.91-4.21l-1.05,5.53c-1.05,5.53,10.53,12.25,10.53,12.25-10.07.61-13.95-4.45-14.43-5.14l-0.06-.08,0.06,0.08,10.22,15s-23.18-12.64-9.74,0-6.06,21.07-6.06,21.07c9-9.74-10.79-23.53-13.83-25.55a0.75,0.75,0,0,0-.4-0.26l0.4,0.26c2.09,2.36.92,19.76,0.92,19.76-2.9-16.33-30.29-7.64-30.29-7.64,7.9,0.79,10.53,13.43,10.53,13.43s1.05,5.53,0,2.11-10.53-2.11-10.53-2.11,6.32,2.9,5.79,4.21-5.79,8.69-5.79,8.69c2.63-10.53-13.17-12.12-13.17-12.12,4,0.26,2.9,14,2.63,11.06s-5.27-4.48-5.27-4.48l-9,26.34,1.05-11.59c1.05-11.59-18.44-13.17-14-11.59s2.63,19,2.63,19c-1.05-7.9-15.54-12.38-15.54-12.38s6.32,15.8,3.42,14.49-16.07-12.64-18.17-9.48,4.57,9.48,4.57,9.48c-3.16,0-13-9.48-13-9.48s-2.81,9.48-2.81,6.27-4.89-3.46-4.89-3.46,4.54,5.27-2.83,2.81a32.67,32.67,0,0,1-9.6-4.83C294.55,248.89,397.49,173.8,397.49,163.74Z"/><polygon class="cls-3" points="250 224.06 250 196.19 258.24 203.78 250 224.06"/><path class="cls-4" d="M263.08,202.2a3.83,3.83,0,0,0-1.55-.88,6.7,6.7,0,0,0,.3-2,5.24,5.24,0,0,0-1-3.4,14.3,14.3,0,0,1,1.76-.56C263.61,196.14,263.08,202.2,263.08,202.2Z"/><path class="cls-4" d="M257.62,199.31a7.37,7.37,0,0,0,0,.79l-1.43-.37a4.39,4.39,0,0,1,1.33-1.94,1,1,0,0,0,.2.19A6.75,6.75,0,0,0,257.62,199.31Z"/><path class="cls-5" d="M261.53,201.32a40.2,40.2,0,0,0-3.87-1.21,7.37,7.37,0,0,1,0-.79,6.75,6.75,0,0,1,.14-1.32,0.94,0.94,0,0,0,1,.16c0.37,0.86.86,1.4,1.24,1.3s0.66-1.39.31-2.81c0-.16-0.08-0.31-0.13-0.45l0.65-.27a5.24,5.24,0,0,1,1,3.4A6.7,6.7,0,0,1,261.53,201.32Z"/><path class="cls-6" d="M260,199.45c-0.38.1-.87-0.45-1.24-1.3a1,1,0,0,0,.72-1,1,1,0,0,0-.17-0.54c0.29-.16.58-0.3,0.86-0.43,0,0.15.09,0.3,0.13,0.45C260.62,198.06,260.48,199.32,260,199.45Z"/><path class="cls-4" d="M257.56,197.8l0.28-.25c0,0.14-.06.3-0.09,0.44A1,1,0,0,1,257.56,197.8Z"/><path class="cls-4" d="M258.38,198.22a1,1,0,0,1-.63-0.23c0-.15.05-0.3,0.09-0.44s0.35-.26.54-0.39a6.68,6.68,0,0,0,.34,1A1,1,0,0,1,258.38,198.22Z"/><path class="cls-4" d="M258.72,198.15a6.68,6.68,0,0,1-.34-1c0.29-.2.59-0.38,0.89-0.54a1,1,0,0,1,.17.54A1,1,0,0,1,258.72,198.15Z"/><path class="cls-3" d="M266.75,322.82l1.49,24a1.91,1.91,0,0,1,.29.69l0.09,0.44a1.92,1.92,0,0,1,1.53.26l13.44,9a1.93,1.93,0,0,1,.85,1.7,1.86,1.86,0,0,1-1,1.61,1.93,1.93,0,0,1-2-.1l-11.93-7.95,2.19,10.92a1.93,1.93,0,0,1-3.79.76l-0.22-1.07h0l-2-9.85-7.95,11.93a1.95,1.95,0,0,1-2.68.54L255,365.6a1.93,1.93,0,0,1-.44-2.6l9-13.44a1.88,1.88,0,0,1,.17-0.2,2.38,2.38,0,0,1-.18-0.73l-1.63-26.32a6.85,6.85,0,0,0,3.14.79A6.57,6.57,0,0,0,266.75,322.82Z"/><path class="cls-7" d="M261.88,193.44L250,191.13v5.05l8.24,7.59L250,224.06v80.5c1.05-.56,2.88-1.16,4.17-1.79,0,0.59-.05,1.18-0.05,1.79,0,8.38,3.27,15.45,7.76,17.74a6.85,6.85,0,0,0,3.14.79,6.57,6.57,0,0,0,1.74-.26c5.19-1.42,9.15-9,9.15-18.26,0-7.91-2.92-14.64-7-17.3,2.76-7.56,1.72-15,2.19-18.17,0.23-1.59-.5-4.28-1.73-7.49a23.77,23.77,0,0,0,2.67-1.2,10.78,10.78,0,0,1-.94-0.79l7.11-20,86.39-65.32,93-75.56C463.29,93.39,467,90,467,90s-16.86,10.53-37.93,21.07S334.28,195.35,306.89,213,257,235.38,257,235.38v0l0,0.12,0.07,0.2,0.16,0.43h0l-0.16-.43-0.07-.2,0-.12v0c-2.31-6.32,1.73-15.1,1.73-15.1s-0.12,3.86,4.49-14.4c1.52-6,.6-9.94-1.31-12.52Zm-1.09,2.47a14.3,14.3,0,0,1,1.76-.56c1.05,0.79.53,6.85,0.53,6.85a3.83,3.83,0,0,0-1.55-.88,40.2,40.2,0,0,0-3.87-1.21l-1.43-.37a4.39,4.39,0,0,1,1.33-1.94l0.28-.25c0.17-.14.35-0.26,0.54-0.39s0.59-.38.89-0.54,0.58-.3.86-0.43Z"/><path class="cls-7" d="M257,235.41l0,0.12Z"/><path class="cls-7" d="M257.12,235.73l0.16,0.43Z"/><path class="cls-7" d="M261.9,193.36l0,0.08L250,191.13V188.5S258,188.12,261.9,193.36Z"/><path class="cls-7" d="M278.18,239.59l86.39-65.32,93-75.56c-19,17.72-60.08,56.92-60.08,65,0,10.05-102.94,85.15-125.48,96.66a10.78,10.78,0,0,1-.94-0.79Z"/><g class="cls-8"><path class="cls-6" d="M470.2,127.35l1,0.31A1.08,1.08,0,0,0,470.2,127.35Z"/><path class="cls-6" d="M470.2,127.35c-3.23-1-13.28-3.74-17.93-3,5.1-3.66,16.86-13.26,16.86-13.26l-19,6.85,7.4-19.19C463.29,93.39,467,90,467,90s-16.86,10.53-37.93,21.07S334.28,195.35,306.89,213,257,235.38,257,235.38c-2.31-6.32,1.73-15.1,1.73-15.1s-0.12,3.86,4.49-14.4c1.52-6,.6-9.94-1.31-12.52,0.17-.65,1.3-5.41-1.41-6.88,0,0,1.5,1,0,1.19s-1.71-4.94.32-4.94c0,0-3,.11-4.15,1.17,0.32-1.77.67-4.83,0.35-5.05a9.28,9.28,0,0,1-1.55,2.81c-0.7.53-.59-9.66,0.73-9.83,0,0-2.17-.53-2.17,5.62v-7.37l-1.3,3.34L250,142.67V304.56c1.05-.56,2.88-1.16,4.17-1.79,0,0.59-.05,1.18-0.05,1.79,0,8.38,3.27,15.45,7.76,17.74l1.63,26.32a2.38,2.38,0,0,0,.18.73,1.88,1.88,0,0,0-.17.2l-9,13.44a1.93,1.93,0,0,0,.44,2.6l0.09,0.08a1.95,1.95,0,0,0,2.68-.54l7.95-11.93,2,9.85h0l0.22,1.07a1.93,1.93,0,0,0,3.79-.76l-2.19-10.92,11.93,7.95a1.93,1.93,0,0,0,2,.1,1.86,1.86,0,0,0,1-1.61,1.93,1.93,0,0,0-.85-1.7l-13.44-9a1.92,1.92,0,0,0-1.53-.26l-0.09-.44a1.91,1.91,0,0,0-.29-0.69l-1.49-24c5.19-1.42,9.15-9,9.15-18.26,0-7.91-2.92-14.64-7-17.3,2.76-7.56,1.72-15,2.19-18.17,0.23-1.59-.5-4.28-1.73-7.49a23.77,23.77,0,0,0,2.67-1.2,32.67,32.67,0,0,0,9.6,4.83c7.37,2.46,2.83-2.81,2.83-2.81s4.89,0.25,4.89,3.46,2.81-6.27,2.81-6.27,9.83,9.48,13,9.48c0,0-6.67-6.32-4.57-9.48s15.28,8.16,18.17,9.48-3.42-14.49-3.42-14.49,14.49,4.48,15.54,12.38c0,0,1.84-17.38-2.63-19s15,0,14,11.59l-1.05,11.59,9-26.34s5,1.58,5.27,4.48,1.32-10.8-2.63-11.06c0,0,15.8,1.58,13.17,12.12,0,0,5.27-7.37,5.79-8.69s-5.79-4.21-5.79-4.21,9.48-1.32,10.53,2.11,0-2.11,0-2.11-2.63-12.64-10.53-13.43c0,0,27.39-8.69,30.29,7.64,0,0,1.17-17.4-.92-19.76,3,2,22.84,15.81,13.83,25.55,0,0,19.49-8.43,6.06-21.07s9.74,0,9.74,0l-10.22-15c0.48,0.69,4.36,5.76,14.43,5.14,0,0-11.59-6.72-10.53-12.25l1.05-5.53s8.16,1.05,12.91,4.21,1.84-12.91,1.84-12.91,9,1.32,11.06,4.74c0,0-3.69-15.28-14.75-13.7,0,0,14.75-8.16,19.49-2.63,0,0-7.37-10.53-15.28-7.64l29.23-9.48-26.34,3.69s22.65-15.54,22.91-17.91-10.8,5.53-18.7,5.53C434.74,142.67,464.11,127.58,470.2,127.35Z"/></g><path class="cls-3" d="M173.13,465.94V465h3.75v11.25h3.75v1.88H169.38v-1.87h3.75v-7.5h-1.87v-1.87h1.88v-0.94Z"/><path class="cls-3" d="M188.13,465.94V465h5.63v7.5h1.88v1.88h-1.87v3.75H190v-3.75h-7.5v-3.75h1.88v-1.87h1.88v-1.87h1.88v-0.94Zm1.88,4.69v-1.87h-1.87v1.88h-1.87v1.88H190v-1.87Z"/><path class="cls-3" d="M201.25,465.94V465h7.5v1.88h-5.62v1.88h-1.87v1.88h7.5v1.88h1.88v3.75h-1.87v1.88h-9.37v-1.87H197.5v-7.5h1.88v-1.87h1.88v-0.94Zm5.63,8.44V472.5h-5.62v3.75h5.63v-1.87Z"/><path class="cls-3" d="M227.5,471.56V465h3.75v1.88h1.88v1.88H235v-1.87h1.88V465h3.75v13.13h-3.75V472.5H235v1.88h-1.87V472.5h-1.87v5.63H227.5v-6.56Z"/><path class="cls-3" d="M244.38,465.94V465h9.38v1.88h1.88v9.38h-1.87v1.88h-9.37v-1.87H242.5v-9.37h1.88v-0.94Zm7.5,5.63v-4.69h-5.62v9.38h5.63v-4.69Z"/><path class="cls-3" d="M259.38,471.56V465h3.75v11.25h7.5v1.88H259.38v-6.56Z"/><path class="cls-3" d="M274.38,465.94V465h11.25v1.88h-3.75v11.25h-3.75V466.88h-3.75v-0.94Z"/><path class="cls-3" d="M287.5,471.56V465h11.25v1.88h1.88v5.63h-3.75v1.88h1.88v1.88h1.88v1.88H295v-1.87h-1.87v-1.87h-1.87v3.75H287.5v-6.56Zm9.38-2.81v-1.87h-5.62v5.63H295v-1.87h1.88v-1.87Z"/><path class="cls-3" d="M302.5,471.56V465h13.13v1.88h-9.37v3.75h7.5v1.88h-7.5v3.75h9.38v1.88H302.5v-6.56Z"/><path class="cls-3" d="M319.38,465.94V465h7.5v1.88h1.88v1.88H325v-1.87h-3.75v3.75h7.5v1.88h1.88v3.75h-1.87v1.88h-9.37v-1.87H317.5v-1.87h3.75v1.88h5.63V472.5h-7.5v-1.87H317.5v-3.75h1.88v-0.94Z"/></svg>