<?xml version="1.0" ?><svg id="pkflt" viewBox="0 0 500 500" xmlns="http://www.w3.org/2000/svg"><defs><style>.cls-1{fill:#3ba2ce;}.cls-2{fill:#9a2473;}.cls-3{fill:#1a1a1a;}.cls-4{fill:#fff;}.cls-5{fill:#c2f2ff;}.cls-6{opacity:0.1;}</style></defs><title/><path class="cls-1" d="M208.62,154.94c0.76,4.72,1.13,7.81,1.13,7.81L202,169a50,50,0,0,0,18.28,54.26h0S232.18,246,232.42,256s-14.56,59.67-13.49,73.33S250,393,250,393V227.5c-11,0-20-6.49-20-14.5s9-14.5,20-14.5V158.75a5.75,5.75,0,0,1,0-11.5V133A50,50,0,0,0,208.62,154.94Zm22.18,25.22c-0.24,1-.5,1.87-0.77,2.68-2.71,8-6.93,7.78-11.8,6.58-5.36-1.32-9.48-3.32-6.84-14a61.87,61.87,0,0,1,9-19.59c2.58-3.53,5.26-5.74,7.43-5.21C233.14,151.9,233.44,169.43,230.8,180.16Z"/><path class="cls-2" d="M220,157.16c0.11-.46.24-0.92,0.37-1.37a61.87,61.87,0,0,0-9,19.59c-2.64,10.73,1.48,12.72,6.84,14,4.87,1.2,9.09,1.42,11.8-6.58a8.81,8.81,0,0,1-1.88-.25C220.63,180.75,217,169.36,220,157.16Z"/><path class="cls-3" d="M227.78,150.58c-2.17-.53-4.84,1.68-7.43,5.21-0.13.45-.25,0.91-0.37,1.37-3,12.2.65,23.59,8.16,25.44a8.81,8.81,0,0,0,1.88.25c0.27-.81.53-1.7,0.77-2.68C233.44,169.43,233.14,151.9,227.78,150.58Zm1.48,16.33c-1,4.25-3.34,7.33-5.13,6.89s-2.39-4.24-1.35-8.48,3.34-7.33,5.13-6.89S230.3,162.66,229.25,166.9Z"/><ellipse class="cls-4" cx="226.02" cy="166.11" rx="7.92" ry="3.33" transform="translate(10.72 345.9) rotate(-76.18)"/><path class="cls-4" d="M230,213c0,8,9,14.5,20,14.5v-29C239,198.5,230,205,230,213Z"/><path class="cls-4" d="M244.25,153a5.75,5.75,0,0,0,5.75,5.75v-11.5A5.75,5.75,0,0,0,244.25,153Z"/><path class="cls-5" d="M190,107v43s-10.25-10-20.25-7c0,0,12.25,15,12.25,20v22l20-16a49.78,49.78,0,0,1,6.6-14C206.26,140.32,200.2,110,190,107Z"/><path class="cls-5" d="M208.62,154.94a49.78,49.78,0,0,0-6.6,14l7.74-6.2S209.38,159.66,208.62,154.94Z"/><path class="cls-4" d="M250,233s-10.5.5-12,10,8.5,26,3.5,38-11.16,37-9.08,45.5S250,373,250,373V233Z"/><path class="cls-1" d="M250,133v14.25a5.75,5.75,0,0,1,0,11.5V198.5c11,0,20,6.49,20,14.5s-9,14.5-20,14.5V393s29.88-50,30.94-63.67-13.8-63.44-13.55-73.44S279.49,223,279.49,223h0a49.73,49.73,0,0,0,18.27-54.1L290,162.72l1.26-7.8A50,50,0,0,0,250,133Zm22,17.58c2.17-.53,4.84,1.68,7.43,5.21a61.87,61.87,0,0,1,9,19.59c2.64,10.73-1.48,12.72-6.84,14-4.87,1.2-9.09,1.42-11.8-6.58-0.27-.81-0.53-1.7-0.77-2.68C266.31,169.43,266.61,151.9,272,150.58Z"/><path class="cls-2" d="M279.77,157.16c-0.11-.46-0.24-0.92-0.37-1.37a61.87,61.87,0,0,1,9,19.59c2.64,10.73-1.48,12.72-6.84,14-4.87,1.2-9.09,1.42-11.8-6.58a8.81,8.81,0,0,0,1.88-.25C279.12,180.75,282.77,169.36,279.77,157.16Z"/><path class="cls-3" d="M269,180.16c0.24,1,.5,1.87.77,2.68a8.81,8.81,0,0,0,1.88-.25c7.51-1.85,11.16-13.24,8.16-25.44-0.11-.46-0.24-0.92-0.37-1.37-2.58-3.53-5.26-5.74-7.43-5.21C266.61,151.9,266.31,169.43,269,180.16Zm2.89-21.73c1.79-.44,4.08,2.65,5.13,6.89s0.44,8-1.35,8.48-4.08-2.64-5.13-6.89S270.05,158.86,271.84,158.42Z"/><ellipse class="cls-4" cx="273.73" cy="166.11" rx="3.33" ry="7.92" transform="translate(-31.76 70.2) rotate(-13.82)"/><path class="cls-4" d="M270,213c0,8-9,14.5-20,14.5v-29C261,198.5,270,205,270,213Z"/><path class="cls-4" d="M255.75,153a5.87,5.87,0,0,1-5.75,5.75v-11.5A5.87,5.87,0,0,1,255.75,153Z"/><path class="cls-5" d="M310,107v43s10.25-10,20.25-7c0,0-12.25,15-12.25,20v22l-20.14-16a49.62,49.62,0,0,0-6.54-14C293.67,140.32,300,110,310,107Z"/><path class="cls-5" d="M291.13,154.94a49.78,49.78,0,0,1,6.6,14l-7.74-6.2S290.37,159.66,291.13,154.94Z"/><path class="cls-4" d="M250,233s10.38,0.5,11.88,10-8.56,26-3.56,38,11.25,37,9.17,45.5S250,373,250,373V233Z"/><g class="cls-6"><path class="cls-3" d="M297.71,168.88a49.77,49.77,0,0,0-6.48-13.79l0-.17A50,50,0,0,0,250,133V393s29.88-50,30.94-63.67-13.8-63.44-13.55-73.44S279.49,223,279.49,223h0a49.73,49.73,0,0,0,18.27-54.1Zm-7.7-6.19v0h0v0Z"/><path class="cls-3" d="M310,150V107c-10,3-16.33,33.32-18.68,47.94a49.62,49.62,0,0,1,6.54,14L318,185V163c0-5,12.25-20,12.25-20C320.25,140,310,150,310,150Z"/></g><path class="cls-1" d="M173.13,465.94V465h3.75v11.25h3.75v1.88H169.38v-1.87h3.75v-7.5h-1.87v-1.87h1.88v-0.94Z"/><path class="cls-1" d="M188.13,465.94V465h5.63v7.5h1.88v1.88h-1.87v3.75H190v-3.75h-7.5v-3.75h1.88v-1.87h1.88v-1.87h1.88v-0.94Zm1.88,4.69v-1.87h-1.87v1.88h-1.87v1.88H190v-1.87Z"/><path class="cls-1" d="M197.5,466.88V465h13.13v3.75h-1.87v1.88h-1.87v1.88H205v5.63h-3.75V472.5h1.88v-1.87H205v-1.87h1.88v-1.87h-5.62v1.88H197.5v-1.87Z"/><path class="cls-1" d="M227.5,471.56V465h9.38v1.88h1.88v1.88h1.88v5.63h-1.87v1.88h-1.87v1.88H227.5v-6.56Zm7.5-3.75v-0.94h-3.75v9.38H235v-1.87h1.88v-5.62H235v-0.94Z"/><path class="cls-1" d="M242.5,471.56V465h11.25v1.88h1.88v5.63h-3.75v1.88h1.88v1.88h1.88v1.88H250v-1.87h-1.87v-1.87h-1.87v3.75H242.5v-6.56Zm9.38-2.81v-1.87h-5.62v5.63H250v-1.87h1.88v-1.87Z"/><path class="cls-1" d="M261.25,465.94V465h5.63v1.88h1.88v1.88h1.88v9.38h-3.75v-3.75h-5.62v3.75H257.5v-9.37h1.88v-1.87h1.88v-0.94Zm3.75,1.88v-0.94h-1.87v1.88h-1.87v3.75h5.63v-3.75H265v-0.94Z"/><path class="cls-1" d="M274.38,465.94V465h11.25v1.88h-3.75v11.25h-3.75V466.88h-3.75v-0.94Z"/><path class="cls-1" d="M289.38,465.94V465h11.25v1.88h-3.75v9.38h3.75v1.88H289.38v-1.87h3.75v-9.37h-3.75v-0.94Z"/><path class="cls-1" d="M302.5,471.56V465h3.75v1.88h1.88v1.88H310v1.88h1.88V465h3.75v13.13h-3.75v-1.87H310v-1.87h-1.87V472.5h-1.87v5.63H302.5v-6.56Z"/><path class="cls-1" d="M319.38,465.94V465h11.25v1.88h-3.75v9.38h3.75v1.88H319.38v-1.87h3.75v-9.37h-3.75v-0.94Z"/></svg>