<?xml version="1.0" ?><svg id="pkflt" viewBox="0 0 500 500" xmlns="http://www.w3.org/2000/svg"><defs><style>.cls-1{fill:#00a1d3;}.cls-2{fill:#fff;}.cls-3{fill:#ccf3ff;}.cls-4{fill:#00b7ef;}.cls-5{fill:#1a1a1a;}.cls-6{fill:aqua;}.cls-7{fill:#ccc;}.cls-8{fill:#1b1464;}.cls-9{fill:#6c6ac6;}.cls-10{fill:#acacfc;}.cls-11{opacity:0.1;}.cls-12{fill:#3ba2ce;}</style></defs><title/><path class="cls-1" d="M236.5,173.11s5.48,21.34-1,31.84-12,97.53-9,115,12.75,70,15.38,80S250,440,250,440V173"/><path class="cls-2" d="M240.12,195s4,29.56-.74,37.25-8.78,71.37-6.58,84.18,9.33,51.24,11.26,58.56S250,404.23,250,404.23V195"/><path class="cls-3" d="M216,124v0s-4.75-4.45-6-10,2.75-13-6.25-17.37-24-7.37-30-16.62-6.25,3.25-6.25,3.25S149,74.75,137,73.5s-21.5,3.5-30.75-5S122,89.75,133,91.25s19.5,10.25,19.5,10.25-8.5,3.25-14.25-1.5S136,108,150,110s19,0,19,0-7.5,4.25-10.5,5.25,12.25,8.9,14.5,8.7,15.5-1.7,15.5-1.7,8.75,9.25-3.5,9-2.5,6.25,6.75,7.5,15.25-6.5,15.25-6.5,4.45,17.63,10.48,5.44v0a65.2,65.2,0,0,1-1.47-9.22A26,26,0,0,1,216,124Z"/><path class="cls-4" d="M240,102l1.11-4.65c-6.17,2.26-23.67,10.1-25.1,26.63a26,26,0,0,0,0,4.46,65.2,65.2,0,0,0,1.47,9.22c4.38,18.89,16,32.75,19,35.56,3.5,3.25,13.5,5.53,13.5,5.53V113S240,112.5,240,102Zm-2.39,55.84c-8.49,1.18-11.91-4-13.26-8.78a25.28,25.28,0,0,1-.85-7.55c10.75-18.5,14.75,16.25,14.75,16.25Z"/><path class="cls-5" d="M223.5,141.5a25.28,25.28,0,0,0,.85,7.55c2-4.61,4.79-7.76,8.26-2.94a1.88,1.88,0,1,1,1.86,3.25,63,63,0,0,1,3.14,8.47l0.64-.09S234.25,123,223.5,141.5Z"/><path class="cls-6" d="M233.61,149.58a1.88,1.88,0,0,1-1-3.47c-3.47-4.82-6.27-1.67-8.26,2.94,1.35,4.83,4.77,10,13.26,8.78a63,63,0,0,0-3.14-8.47A1.86,1.86,0,0,1,233.61,149.58Z"/><path class="cls-2" d="M235.49,147.7a1.88,1.88,0,0,0-2.89-1.59,21,21,0,0,1,1.86,3.25A1.88,1.88,0,0,0,235.49,147.7Z"/><path class="cls-2" d="M231.73,147.7a1.88,1.88,0,0,0,1.88,1.88,1.86,1.86,0,0,0,.86-0.22,21,21,0,0,0-1.86-3.25A1.88,1.88,0,0,0,231.73,147.7Z"/><path class="cls-7" d="M241.11,97.35L240,102c0,10.5,10,11,10,11V60Z"/><path class="cls-8" d="M241.88,190s1.17,0.81,2.81,1.78a2.25,2.25,0,0,1-.06-0.37c0-1.92,2.41-3.47,5.38-3.47v-7.81a11.13,11.13,0,0,0,0,22.25V200C246.71,198.6,241.88,195.6,241.88,190Z"/><path class="cls-9" d="M244.68,191.78c-1.64-1-2.81-1.78-2.81-1.78,0,5.6,4.83,8.6,8.13,10v-5.11C247.23,194.88,245,193.52,244.68,191.78Z"/><path class="cls-10" d="M244.63,191.4a2.25,2.25,0,0,0,.06.37A34.21,34.21,0,0,0,250,194.4v-6.47C247,187.93,244.63,189.49,244.63,191.4Z"/><path class="cls-10" d="M244.68,191.78c0.29,1.74,2.55,3.1,5.32,3.1V194.4A34.21,34.21,0,0,1,244.68,191.78Z"/><path class="cls-1" d="M263.62,173.11s-5.42,21.34,1.07,31.84,12,97.53,9,115-12.85,70-15.48,80S250,440,250,440V173"/><path class="cls-2" d="M260,195s-4,29.56.8,37.25,8.81,71.37,6.61,84.18-9.44,51.24-11.36,58.56S250,404.23,250,404.23V195"/><path class="cls-3" d="M284.23,124v0s4.75-4.45,6-10-2.75-13,6.25-17.37,24-7.37,30-16.62,6.25,3.25,6.25,3.25,18.5-8.5,30.5-9.75,21.5,3.5,30.75-5-15.75,21.25-26.75,22.75-19.5,10.25-19.5,10.25,8.5,3.25,14.25-1.5,2.25,8-11.75,10-19,0-19,0,7.5,4.25,10.5,5.25-12.25,8.9-14.5,8.7-15.5-1.7-15.5-1.7-8.75,9.25,3.5,9,2.5,6.25-6.75,7.5-15.25-6.5-15.25-6.5-4.45,17.63-10.48,5.44v0a65.2,65.2,0,0,0,1.47-9.22A26,26,0,0,0,284.23,124Z"/><path class="cls-4" d="M250,113v65.75s10.12-2.28,13.62-5.53c3-2.81,14.7-16.67,19.09-35.56a65.2,65.2,0,0,0,1.5-9.22,26,26,0,0,0,0-4.46c-1.44-16.53-18.93-24.37-25.1-26.63l1,4.65C260.11,112.5,250,113,250,113Zm12,44.75s4-34.75,14.75-16.25a25.28,25.28,0,0,1-.85,7.55c-1.35,4.83-4.77,10-13.26,8.78Z"/><path class="cls-5" d="M276.74,141.5a25.28,25.28,0,0,1-.85,7.55c-2-4.61-4.79-7.76-8.26-2.94a1.88,1.88,0,1,0-1.86,3.25,63,63,0,0,0-3.14,8.47l-0.64-.09S266,123,276.74,141.5Z"/><path class="cls-6" d="M266.63,149.58a1.88,1.88,0,0,0,1-3.47c3.47-4.82,6.27-1.67,8.26,2.94-1.35,4.83-4.77,10-13.26,8.78a63,63,0,0,1,3.14-8.47A1.86,1.86,0,0,0,266.63,149.58Z"/><path class="cls-2" d="M264.75,147.7a1.88,1.88,0,0,1,2.89-1.59,21,21,0,0,0-1.86,3.25A1.88,1.88,0,0,1,264.75,147.7Z"/><path class="cls-2" d="M268.51,147.7a1.88,1.88,0,0,1-1.88,1.88,1.86,1.86,0,0,1-.86-0.22,21,21,0,0,1,1.86-3.25A1.88,1.88,0,0,1,268.51,147.7Z"/><path class="cls-7" d="M259,97.35l1,4.65c0,10.5-10.06,11-10.06,11V60Z"/><path class="cls-8" d="M258.24,190s-1.11.81-2.75,1.78a2.29,2.29,0,0,0,0-.37c0-1.92-2.46-3.47-5.46-3.47v-7.81a11.13,11.13,0,0,1,0,22.25V200C254,198.6,258.24,195.6,258.24,190Z"/><path class="cls-9" d="M255.44,191.78c1.64-1,2.75-1.78,2.75-1.78,0,5.6-4.18,8.6-8.18,10v-5.11C253,194.88,255.14,193.52,255.44,191.78Z"/><path class="cls-10" d="M255.49,191.4a2.44,2.44,0,0,1-.12.37A27.94,27.94,0,0,1,250,194.4v-6.47C253,187.93,255.49,189.49,255.49,191.4Z"/><path class="cls-10" d="M255.32,191.78c-0.29,1.74-2.32,3.1-5.32,3.1V194.4A27.36,27.36,0,0,0,255.32,191.78Z"/><g class="cls-11"><path class="cls-5" d="M394,68.5c-9.25,8.5-18.75,3.75-30.75,5s-30.5,9.75-30.5,9.75-0.25-12.5-6.25-3.25-21,12.25-30,16.63-5,11.88-6.25,17.38-6,10-6,10v0a26,26,0,0,1,0,4.46,65.2,65.2,0,0,1-1.47,9.22v0c6,12.19,10.48-5.44,10.48-5.44s6,7.75,15.25,6.5,19-7.75,6.75-7.5-3.5-9-3.5-9,13.25,1.5,15.5,1.7,17.5-7.7,14.5-8.7-10.5-5.25-10.5-5.25,5,2,19,0,17.5-14.75,11.75-10-14.25,1.5-14.25,1.5,8.5-8.75,19.5-10.25S403.24,60,394,68.5Z"/><path class="cls-5" d="M263.62,173.22c3-2.81,14.7-16.67,19.09-35.56a65.2,65.2,0,0,0,1.5-9.22,26,26,0,0,0,0-4.46c-1.44-16.53-18.93-24.37-25.1-26.63l1,4.65c0,10.5-10.11,11-10.11,11V440s5.6-30,8.23-40,12.48-62.51,15.48-80-2.53-104.53-9-115c-6.2-10-1.53-29.94-1.1-31.7Z"/><path class="cls-5" d="M260.06,102l-1-4.65L250,60v53S260.06,112.5,260.06,102Z"/></g><path class="cls-12" d="M158.13,465.94V465h3.75v11.25h3.75v1.88H154.38v-1.87h3.75v-7.5h-1.87v-1.87h1.88v-0.94Z"/><path class="cls-12" d="M173.13,465.94V465h5.63v7.5h1.88v1.88h-1.87v3.75H175v-3.75h-7.5v-3.75h1.88v-1.87h1.88v-1.87h1.88v-0.94Zm1.88,4.69v-1.87h-1.87v1.88h-1.87v1.88H175v-1.87Z"/><path class="cls-12" d="M184.38,465.94V465h7.5v1.88h1.88v3.75h-1.87v1.88h3.75v3.75h-1.87v1.88h-9.37v-1.87H182.5V472.5h1.88v-1.87H182.5v-3.75h1.88v-0.94Zm3.75,7.5V472.5h-3.75v3.75h7.5v-1.87h-3.75v-0.94Zm3.75-4.69v-1.87h-5.62v1.88h1.88v1.88h3.75v-1.87Z"/><path class="cls-12" d="M212.5,471.56V465h9.38v1.88h1.88v1.88h1.88v5.63h-1.87v1.88h-1.87v1.88H212.5v-6.56Zm7.5-3.75v-0.94h-3.75v9.38H220v-1.87h1.88v-5.62H220v-0.94Z"/><path class="cls-12" d="M227.5,471.56V465h11.25v1.88h1.88v5.63h-3.75v1.88h1.88v1.88h1.88v1.88H235v-1.87h-1.87v-1.87h-1.87v3.75H227.5v-6.56Zm9.38-2.81v-1.87h-5.62v5.63H235v-1.87h1.88v-1.87Z"/><path class="cls-12" d="M246.25,465.94V465h5.63v1.88h1.88v1.88h1.88v9.38h-3.75v-3.75h-5.62v3.75H242.5v-9.37h1.88v-1.87h1.88v-0.94Zm3.75,1.88v-0.94h-1.87v1.88h-1.87v3.75h5.63v-3.75H250v-0.94Z"/><path class="cls-12" d="M261.25,465.94V465h9.38v1.88h-7.5v1.88h-1.87v5.63h1.88v1.88h3.75V472.5H265v-1.87h5.63v7.5h-9.37v-1.87h-1.87v-1.87H257.5v-5.62h1.88v-1.87h1.88v-0.94Z"/><path class="cls-12" d="M274.38,465.94V465h9.38v1.88h1.88v9.38h-1.87v1.88h-9.37v-1.87H272.5v-9.37h1.88v-0.94Zm7.5,5.63v-4.69h-5.62v9.38h5.63v-4.69Z"/><path class="cls-12" d="M287.5,471.56V465h3.75v1.88h1.88v1.88H295v1.88h1.88V465h3.75v13.13h-3.75v-1.87H295v-1.87h-1.87V472.5h-1.87v5.63H287.5v-6.56Z"/><path class="cls-12" d="M306.25,465.94V465h5.63v1.88h1.88v1.88h1.88v9.38h-3.75v-3.75h-5.62v3.75H302.5v-9.37h1.88v-1.87h1.88v-0.94Zm3.75,1.88v-0.94h-1.87v1.88h-1.87v3.75h5.63v-3.75H310v-0.94Z"/><path class="cls-12" d="M319.38,465.94V465h11.25v1.88h-3.75v9.38h3.75v1.88H319.38v-1.87h3.75v-9.37h-3.75v-0.94Z"/><path class="cls-12" d="M332.5,471.56V465h11.25v1.88h1.88v5.63h-3.75v1.88h1.88v1.88h1.88v1.88H340v-1.87h-1.87v-1.87h-1.87v3.75H332.5v-6.56Zm9.38-2.81v-1.87h-5.62v5.63H340v-1.87h1.88v-1.87Z"/></svg>