<?xml version="1.0" ?><svg id="pkflt" viewBox="0 0 500 500" xmlns="http://www.w3.org/2000/svg"><defs><style>.cls-1{fill:#228271;}.cls-2{fill:#fce0c4;}.cls-3{fill:#f59e49;}.cls-4{fill:#fff;}.cls-11,.cls-5{fill:#1a1a1a;}.cls-6{fill:#333;}.cls-7{fill:#f9bdda;}.cls-8{fill:#ccc;}.cls-9{fill:#ed8c35;}.cls-10{fill:#db7521;}.cls-11{opacity:0.1;}</style></defs><title/><path class="cls-1" d="M84.5,123.14s48.17,8.32,49.5,49.93,29.87-5.7,29.87-5.7,38.46,1.3,41.46,13.63,5.11-15,5.11-15L190,142.33,176.06,120,162.33,90l-7.67,16-2.17,2.25-12.17-4.58L116,106l-14,4Z"/><path class="cls-2" d="M211.7,48.81c-9.62,2.16-14.87,10.06-17.16,14.62C191,60.28,182.91,54.79,183,56.17c0.29,4.38,7.75,10.75,10.94,13.29a2.5,2.5,0,0,0,3.93-1.16c0-.12,4.24-12.21,14.93-14.61,7.34-1.65,16,8.34,20.46,14.73a35.58,35.58,0,0,1,4.63-2.06C234,60.55,223,46.27,211.7,48.81Z"/><path class="cls-2" d="M237.25,72.5a2.5,2.5,0,0,0,2.15-3.77c-0.1-.17-0.63-1.06-1.51-2.36a35.58,35.58,0,0,0-4.63,2.06c0.74,1.08,1.37,2.05,1.85,2.85A2.5,2.5,0,0,0,237.25,72.5Z"/><path class="cls-3" d="M243.89,64.78a35.55,35.55,0,0,0-6,1.59c0.88,1.3,1.41,2.19,1.51,2.36a2.5,2.5,0,0,1-4.3,2.55c-0.47-.8-1.1-1.78-1.85-2.85a35.74,35.74,0,0,0-14.44,49,11.73,11.73,0,0,0-.14,1.78,18.84,18.84,0,0,0,1.5,6.79L250,145V134.23c-6.43-1.47-18.36-5.24-18.21-13,0,0,10.63,1.22,18.21,1.62V54.33ZM228.83,97.15l-2.33.35s-1-15,3.5-17.5c1.32-.73,2.86.28,4.37,2.08,0.34,0.4.67,0.85,1,1.32a44.58,44.58,0,0,1,3.18,5.39c1.73,3.4,2.95,6.46,2.95,6.46Zm16.82,13.24a0.5,0.5,0,0,1-.7-0.07c-2.18-2.65-6.43-3.32-6.47-3.32a0.5,0.5,0,0,1,.15-1c0.19,0,4.67.73,7.09,3.68A0.5,0.5,0,0,1,245.65,110.39Z"/><path class="cls-3" d="M250,148.25h0V145l-29.83-19C224.22,136.2,236,148.25,250,148.25Z"/><path class="cls-4" d="M234.37,82.08c-1.51-1.79-3-2.81-4.37-2.08-4.5,2.5-3.5,17.5-3.5,17.5l2.33-.35A12.52,12.52,0,0,1,227.75,92C227.75,86.88,230.64,82.66,234.37,82.08Z"/><path class="cls-5" d="M238.55,88.79a3.33,3.33,0,1,1-3.18-5.39c-0.33-.47-0.67-0.92-1-1.32-3.72.58-6.62,4.8-6.62,9.92a12.52,12.52,0,0,0,1.08,5.15l12.67-1.9S240.29,92.19,238.55,88.79Z"/><path class="cls-4" d="M232.67,86.67a3.32,3.32,0,0,0,5.89,2.12,44.58,44.58,0,0,0-3.18-5.39A3.33,3.33,0,0,0,232.67,86.67Z"/><path class="cls-6" d="M238.63,106a0.5,0.5,0,0,0-.15,1s4.29,0.68,6.47,3.32a0.5,0.5,0,1,0,.77-0.64C243.29,106.73,238.82,106,238.63,106Z"/><path class="cls-7" d="M250,134.23V122.87c-7.58-.4-18.21-1.62-18.21-1.62C231.64,129,243.57,132.76,250,134.23Z"/><path class="cls-2" d="M226.41,148.25c1.2,7.07-38.83,128-50.34,162.58,8.43,8.7,13.94,23,13.94,39.17a65.91,65.91,0,0,1-3.7,22.06C208.34,406.81,250,406,250,406V153.5C228,151.5,226.41,148.25,226.41,148.25Z"/><path class="cls-2" d="M176.06,310.83C174.13,316.63,173,320,173,320c0.13,22.92,5.48,39.73,13.3,52.06A65.91,65.91,0,0,0,190,350C190,333.82,184.49,319.53,176.06,310.83Z"/><path class="cls-8" d="M126,437.55V457l9.31-13.23A12,12,0,0,1,126,437.55Z"/><polygon class="cls-8" points="114.31 414.71 105.63 443.97 122.29 430.09 114.7 414.75 114.31 414.71"/><polygon class="cls-8" points="150 450 161.34 432.98 147.46 439.85 150 450"/><path class="cls-8" d="M121.52,161.52L94.33,145l19.39,28.06a11.92,11.92,0,0,1,3.42-7.17Z"/><path class="cls-8" d="M153.24,156.74l1.42-19.59-11,11.76a11.87,11.87,0,0,1,4.61,2.85Z"/><polygon class="cls-8" points="106 134.23 124.2 158.83 131.15 151.89 106 134.23"/><path class="cls-9" d="M250,148.25c-14,0-25.78-12-29.83-22.21l-0.29-.18S212.64,153,204.7,178.31a12,12,0,0,0-13.42-1l-11.06,6.38-27-27-5-5a11.87,11.87,0,0,0-4.61-2.85,12,12,0,0,0-12.36,2.85l-0.14.14-6.94,6.94-2.68,2.68-4.38,4.38a12.05,12.05,0,0,0,0,17l39.6,39.6a12,12,0,0,0,15.39,1.31,11.88,11.88,0,0,0,2.6-1.1l17.84-10.3a54.74,54.74,0,0,1-2.63,5.25c-10,17-22,65.44-22.47,73.94-0.2,3.44.67,8.75,1.77,13.86A24.19,24.19,0,0,0,157,302c-18.23,0-33,21.49-33,48,0,14.22,4.25,27,11,35.77l-17.07,8.44a12,12,0,0,0-5.44,16.08l2.21,4.47,7.58,15.34,3.5,7.08c0.06,0.13.14,0.25,0.21,0.38a12,12,0,0,0,15.87,5.06l5.6-2.77L161.35,433l30.72-15.19a12,12,0,0,0,5.44-16.08l-12.75-25.78q0.83-1.88,1.55-3.87c-7.82-12.33-13.17-29.14-13.3-52.06,0,0,1.13-3.37,3.06-9.17,11.52-34.58,51.55-155.51,50.34-162.58,0,0,1.59,3.25,23.59,5.25v-5.25h0Z"/><path class="cls-10" d="M210,160.86S175,129,167.5,97.5s-15,8.5-15,8.5-40.5-19.73-68,17.14c0,0,39.72-28.44,68-12.64,0,0,8-1,7.5-4.5s1.5-15.5,2-13,20.62,56.73,46.06,74.37"/><path class="cls-1" d="M416,123.14s-48.17,8.32-49.5,49.93-29.87-5.7-29.87-5.7-38.46,1.3-41.46,13.63-5.11-15-5.11-15l20.45-23.67L324.44,120l13.73-30,7.67,16,2.17,2.25,12.17-4.58L384.5,106l14,4Z"/><path class="cls-2" d="M288.8,48.81C298.42,51,303.67,58.87,306,63.43c3.54-3.15,11.63-8.64,11.54-7.26-0.29,4.38-7.75,10.75-10.94,13.29a2.5,2.5,0,0,1-3.93-1.16c0-.12-4.24-12.21-14.93-14.61-7.34-1.65-16,8.34-20.46,14.73a35.58,35.58,0,0,0-4.63-2.06C266.54,60.55,277.47,46.27,288.8,48.81Z"/><path class="cls-2" d="M263.25,72.5a2.5,2.5,0,0,1-2.15-3.77c0.1-.17.63-1.06,1.51-2.36a35.58,35.58,0,0,1,4.63,2.06c-0.74,1.08-1.37,2.05-1.85,2.85A2.5,2.5,0,0,1,263.25,72.5Z"/><path class="cls-3" d="M250,54.33v68.54c8-.4,18.21-1.62,18.21-1.62,0.15,7.74-11.21,11.51-18.21,13V145l30.08-19a19.22,19.22,0,0,0,1.62-6.79,11.72,11.72,0,0,0-.08-1.78,35.68,35.68,0,0,0-14.4-49c-0.74,1.08-1.36,2.05-1.84,2.85a2.5,2.5,0,1,1-4.29-2.55c0.1-.17.63-1.06,1.51-2.36a38.41,38.41,0,0,0-6.26-1.59Zm9,40.92s1.21-3.06,2.95-6.46a44.58,44.58,0,0,1,3.18-5.39c0.33-.47.67-0.92,1-1.32,1.51-1.79,3-2.81,4.37-2.08,4.5,2.5,3.5,17.5,3.5,17.5l-2.33-.35Zm-4.22,14.43c2.43-2.95,6.9-3.65,7.09-3.68a0.5,0.5,0,0,1,.15,1s-4.29.68-6.47,3.32A0.5,0.5,0,1,1,254.78,109.68Z"/><path class="cls-3" d="M250.25,148H250v-3l30-19.09C275.91,136.08,264.21,148,250.25,148Z"/><path class="cls-4" d="M266.13,82.08c1.51-1.79,3-2.81,4.37-2.08,4.5,2.5,3.5,17.5,3.5,17.5l-2.33-.35A12.52,12.52,0,0,0,272.75,92C272.75,86.88,269.86,82.66,266.13,82.08Z"/><path class="cls-5" d="M261.95,88.79a3.33,3.33,0,1,0,3.18-5.39c0.33-.47.67-0.92,1-1.32,3.72,0.58,6.62,4.8,6.62,9.92a12.52,12.52,0,0,1-1.08,5.15L259,95.25S260.21,92.19,261.95,88.79Z"/><path class="cls-4" d="M267.83,86.67a3.32,3.32,0,0,1-5.89,2.12,44.58,44.58,0,0,1,3.18-5.39A3.33,3.33,0,0,1,267.83,86.67Z"/><path class="cls-6" d="M261.87,106a0.5,0.5,0,0,1,.15,1s-4.29.68-6.47,3.32a0.5,0.5,0,1,1-.77-0.64C257.21,106.73,261.68,106,261.87,106Z"/><path class="cls-7" d="M250,134.23V122.87c8-.4,18.21-1.62,18.21-1.62C268.36,129,257,132.76,250,134.23Z"/><path class="cls-2" d="M273.84,148.25c-1.2,7.07,39,128,50.47,162.58-8.43,8.7-13.88,23-13.88,39.17a65.94,65.94,0,0,0,3.48,22.06C291.88,406.81,250,406,250,406V153.5C272,151.5,273.84,148.25,273.84,148.25Z"/><path class="cls-2" d="M324.44,310.83c1.93,5.8,3.06,9.17,3.06,9.17-0.13,22.92-5.48,39.73-13.3,52.06A65.91,65.91,0,0,1,310.5,350C310.5,333.82,316,319.53,324.44,310.83Z"/><path class="cls-8" d="M374,437.55V457l-9.31-13.23C368.51,443.36,373,441.14,374,437.55Z"/><polygon class="cls-8" points="386.19 414.71 394.88 443.97 378.21 430.09 385.8 414.75 386.19 414.71"/><polygon class="cls-8" points="350.5 450 339.15 432.98 353.04 439.85 350.5 450"/><path class="cls-8" d="M379,161.52L406.17,145l-19.39,28.06a11.92,11.92,0,0,0-3.42-7.17Z"/><path class="cls-8" d="M347.26,156.74l-1.42-19.59,11,11.76a11.87,11.87,0,0,0-4.61,2.85Z"/><polygon class="cls-8" points="394.5 134.23 376.3 158.83 369.35 151.89 394.5 134.23"/><path class="cls-9" d="M250.25,148c14,0,25.91-11.92,30-22.09l0.35-.12s7.27,27.18,15.22,52.48a12.06,12.06,0,0,1,13.44-1l11.07,6.39,27-27,5-5a11.87,11.87,0,0,1,4.61-2.85,12,12,0,0,1,12.36,2.85l0.14,0.14,6.94,6.94,2.68,2.68,4.38,4.38a12.05,12.05,0,0,1,0,17l-39.6,39.6a12,12,0,0,1-15.39,1.31,11.88,11.88,0,0,1-2.6-1.1l-17.84-10.3a54.74,54.74,0,0,0,2.63,5.25c10,17,22,65.44,22.47,73.94,0.2,3.44-.67,8.75-1.77,13.86A24.19,24.19,0,0,1,343.5,302c18.23,0,33,21.49,33,48,0,14.22-4.25,27-11,35.77l17.07,8.44A12,12,0,0,1,388,410.28l-2.21,4.47-7.58,15.34-3.5,7.08c-0.06.13-.14,0.25-0.21,0.38a12,12,0,0,1-15.87,5.06l-5.6-2.77L339.15,433l-30.72-15.19A12,12,0,0,1,303,401.72l12.75-25.78q-0.83-1.88-1.55-3.87c7.82-12.33,13.17-29.14,13.3-52.06,0,0-1.13-3.37-3.06-9.17-11.52-34.58-51.8-155.51-50.59-162.58,0,0-1.84,3.25-23.84,5.25V148h0.25Z"/><path class="cls-10" d="M290.5,160.86S325.5,129,333,97.5s15,8.5,15,8.5,40.5-19.73,68,17.14c0,0-39.72-28.44-68-12.64,0,0-8-1-7.5-4.5s-1.5-15.5-2-13-20.62,56.73-46.06,74.37"/><path class="cls-11" d="M379,161.52l4.38,4.38L379,161.52l-2.68-2.68,18.2-24.61-20.17,14.17c14-20.46,41.67-25.26,41.67-25.26C388.5,86.27,348,106,348,106s-7.5-40-15-8.5-42.5,63.36-42.5,63.36l1,3.43,0,0c-6.1-20.41-10.95-38.53-10.95-38.53l-0.35.12c-4,10.17-16,22.09-30,22.09,13.83,0,25.44-11.7,29.59-21.81l0.24-.15a19.22,19.22,0,0,0,1.62-6.79,11.72,11.72,0,0,0-.08-1.78,35.68,35.68,0,0,0-14.38-49h0C271.67,62,280.36,52,287.7,53.69c10.69,2.4,14.89,14.48,14.93,14.61a2.5,2.5,0,0,0,3.93,1.16c3.19-2.54,10.65-8.91,10.94-13.29,0.09-1.38-8,4.11-11.54,7.26-2.29-4.56-7.54-12.45-17.16-14.62-11.32-2.54-22.26,11.74-26.19,17.56-0.88,1.3-1.41,2.19-1.51,2.36A2.8,2.8,0,0,0,262,72.4a2.92,2.92,0,0,0,1.27.6h0a2.92,2.92,0,0,1-1.27-.6,2.65,2.65,0,0,1-.87-3.55c0.1-.17.63-1.12,1.51-2.42a38.48,38.48,0,0,0-6.26-1.62L250,54.33V406s41.88,0.81,63.91-33.94A65.94,65.94,0,0,1,310.44,350c0-16.18,5.45-30.47,13.88-39.17-11.52-34.58-51.67-155.51-50.47-162.58-1.2,7.07,39.08,128,50.59,162.58-8.43,8.7-13.94,23-13.94,39.17a65.91,65.91,0,0,0,3.7,22.06q0.71,2,1.55,3.87L303,401.72a12,12,0,0,0,5.44,16.08L339.15,433l11.35,17L353,439.85l5.6,2.77a11.86,11.86,0,0,0,6.08,1.19L374,457V438.35c0.17-.26.35-0.52,0.5-0.8,0.07-.13.15-0.25,0.21-0.38l3.5-7.08L394.88,444l-8.69-29.26-0.39,0,2.21-4.47a12,12,0,0,0-5.44-16.08l-17.07-8.44c6.75-8.79,11-21.56,11-35.77,0-26.51-14.77-48-33-48a24.19,24.19,0,0,0-12.24,3.43c1.1-5.11,2-10.42,1.77-13.86-0.5-8.5-12.47-56.94-22.47-73.94a54.74,54.74,0,0,1-2.63-5.25l17.84,10.3a11.88,11.88,0,0,0,2.6,1.1,12,12,0,0,0,15.39-1.31l39.6-39.6a12,12,0,0,0,3.42-9.8L406.17,145ZM320.27,183.7l-11.07-6.39a12,12,0,0,0-11.64-.19c9-8.7,38.83-9.74,39-9.75Z"/><path class="cls-9" d="M158.13,465.94V465h3.75v11.25h3.75v1.88H154.38v-1.87h3.75v-7.5h-1.87v-1.87h1.88v-0.94Z"/><path class="cls-9" d="M173.13,465.94V465h5.63v7.5h1.88v1.88h-1.87v3.75H175v-3.75h-7.5v-3.75h1.88v-1.87h1.88v-1.87h1.88v-0.94Zm1.88,4.69v-1.87h-1.87v1.88h-1.87v1.88H175v-1.87Z"/><path class="cls-9" d="M184.38,465.94V465h9.38v1.88h1.88v7.5h-1.87v1.88h-1.87v1.88h-7.5v-1.87H190v-1.87h1.88V472.5h-7.5v-1.87H182.5v-3.75h1.88v-0.94Zm7.5,2.81v-1.87h-5.62v3.75h5.63v-1.87Z"/><path class="cls-9" d="M212.5,471.56V465h9.38v1.88h1.88v1.88h1.88v5.63h-1.87v1.88h-1.87v1.88H212.5v-6.56Zm7.5-3.75v-0.94h-3.75v9.38H220v-1.87h1.88v-5.62H220v-0.94Z"/><path class="cls-9" d="M227.5,471.56V465h11.25v1.88h1.88v5.63h-3.75v1.88h1.88v1.88h1.88v1.88H235v-1.87h-1.87v-1.87h-1.87v3.75H227.5v-6.56Zm9.38-2.81v-1.87h-5.62v5.63H235v-1.87h1.88v-1.87Z"/><path class="cls-9" d="M246.25,465.94V465h5.63v1.88h1.88v1.88h1.88v9.38h-3.75v-3.75h-5.62v3.75H242.5v-9.37h1.88v-1.87h1.88v-0.94Zm3.75,1.88v-0.94h-1.87v1.88h-1.87v3.75h5.63v-3.75H250v-0.94Z"/><path class="cls-9" d="M261.25,465.94V465h9.38v1.88h-7.5v1.88h-1.87v5.63h1.88v1.88h3.75V472.5H265v-1.87h5.63v7.5h-9.37v-1.87h-1.87v-1.87H257.5v-5.62h1.88v-1.87h1.88v-0.94Z"/><path class="cls-9" d="M274.38,465.94V465h9.38v1.88h1.88v9.38h-1.87v1.88h-9.37v-1.87H272.5v-9.37h1.88v-0.94Zm7.5,5.63v-4.69h-5.62v9.38h5.63v-4.69Z"/><path class="cls-9" d="M287.5,471.56V465h3.75v1.88h1.88v1.88H295v1.88h1.88V465h3.75v13.13h-3.75v-1.87H295v-1.87h-1.87V472.5h-1.87v5.63H287.5v-6.56Z"/><path class="cls-9" d="M304.38,465.94V465h11.25v1.88h-3.75v9.38h3.75v1.88H304.38v-1.87h3.75v-9.37h-3.75v-0.94Z"/><path class="cls-9" d="M319.38,465.94V465h11.25v1.88h-3.75v11.25h-3.75V466.88h-3.75v-0.94Z"/><path class="cls-9" d="M332.5,471.56V465h13.13v1.88h-9.37v3.75h7.5v1.88h-7.5v3.75h9.38v1.88H332.5v-6.56Z"/></svg>