<?xml version="1.0" ?><svg id="pkft" viewBox="0 0 500 500" xmlns="http://www.w3.org/2000/svg"><defs><style>.cls-1{fill:#cdd5e0;}.cls-2{fill:none;}.cls-3{fill:#1a1a1a;}.cls-4{fill:#d8deea;}.cls-5{fill:#e0bc58;}.cls-6{fill:#e8c65b;}.cls-7{fill:#d8b150;}.cls-8{fill:#18231f;}.cls-9{fill:#d1a647;}.cls-10{fill:#ff41a1;}.cls-11{fill:#fff;}.cls-12{fill:#fc9dd2;}.cls-13{fill:#97a5c6;}.cls-14{fill:#ccc;}.cls-15{opacity:0.1;}.cls-16{fill:#ceac4e;}</style></defs><title/><path class="cls-1" d="M122.92,296.38c6.19,99.31,112.79,4.27,112.79,4.27l-16.07-29.41C175.66,302.64,144.49,304.91,122.92,296.38Z"/><path class="cls-1" d="M122.92,296.38c6.19,99.31,112.79,4.27,112.79,4.27l-16.07-29.41C175.66,302.64,144.49,304.91,122.92,296.38Z"/><path class="cls-2" d="M134.14,332c14.14,16.48,38.91,9.19,60.46-2.5C165.09,328.24,145.86,330,134.14,332Z"/><path class="cls-2" d="M169,307.78c-9,2.3-16.29,3.8-19.89,3.8a7.36,7.36,0,0,1-1.41-.11c-5.57-1.11-10.16-6.67-13.33-11.84a60.07,60.07,0,0,1-11.45-3.24c0.94,15.15,4.23,25.77,9.11,32.9,8.13-1.51,20.07-2.92,37-3.19V307.78Z"/><path class="cls-2" d="M148.29,308.53c6,1.19,46.47-10.76,80-21.5l-8.63-15.79c-34.46,24.59-61.05,31.31-81.33,29C141,304.14,144.44,307.76,148.29,308.53Z"/><path class="cls-2" d="M172,307v19.07c8.07-.06,17.21.14,27.52,0.7a253.47,253.47,0,0,0,36.2-26.1l-6-10.95C213.89,294.8,190.08,302.24,172,307Z"/><path class="cls-3" d="M172,326.07V307c18.08-4.76,41.89-12.2,57.73-17.29L228.27,287c-33.51,10.74-74,22.69-80,21.5-3.86-.77-7.29-4.39-10-8.31-1.34-.16-2.66-0.36-3.95-0.59,3.17,5.18,7.77,10.73,13.33,11.84a7.36,7.36,0,0,0,1.41.11c3.6,0,10.87-1.5,19.89-3.8V326.1c-16.89.27-28.84,1.67-37,3.19a31.8,31.8,0,0,0,2.1,2.75c11.72-2,31-3.79,60.46-2.5q2.49-1.35,4.92-2.77C189.21,326.21,180.07,326,172,326.07Z"/><path class="cls-4" d="M109.57,223.59a239.66,239.66,0,0,0-35.87-8.42C77,234.14,80,247,80,247s10.79,36.68,42.92,49.38c16.62,6.57,39,6.71,68.46-7.93C174.3,251.28,137.93,232.7,109.57,223.59Z"/><path class="cls-4" d="M146.64,127.78a2.5,2.5,0,0,1,3.41-.61l96.26,64.33L249,179.63S216.48,132.2,176.88,97c-11.84.64-29.94,1.41-48.82,1.41-21,0-42.94-1-58.24-4.08a135.92,135.92,0,0,0-3.06,19l70.67,27.13Z"/><path class="cls-4" d="M171.4,92.25C147.93,72.44,122.45,57.73,100,60,85,61.51,76.09,73,71.12,89.51,97.4,94.8,145.06,93.51,171.4,92.25Z"/><path class="cls-4" d="M105.57,133.63L66.34,118.57c-2,29.91,2.22,65.35,6.49,91.42,5,0.76,10.63,1.75,16.56,3Z"/><path class="cls-4" d="M122.74,162.25a2.5,2.5,0,0,1,.41-2l11.24-15.51-24.08-9.25-16,78.7c5.43,1.3,11.08,2.84,16.83,4.69,41.35,13.29,70.46,36.48,84.73,67.34a217.66,217.66,0,0,0,23.82-14.92q5.06-3.61,10.35-7.75L239.18,223,124,163.89A2.5,2.5,0,0,1,122.74,162.25Z"/><polygon class="cls-4" points="128.9 160.77 240.32 217.94 245.13 196.72 149.28 132.67 128.9 160.77"/><path class="cls-3" d="M176.88,97q-2.72-2.42-5.48-4.75c-26.34,1.26-74,2.55-100.28-2.75q-0.7,2.35-1.3,4.83c15.31,3.13,37.25,4.08,58.24,4.08C146.94,98.41,165,97.65,176.88,97Z"/><path class="cls-3" d="M150.06,127.17a2.5,2.5,0,0,0-3.41.61l-9.22,12.72,1.79,0.69a2.5,2.5,0,1,1-1.79,4.67l-3-1.17L123.14,160.2a2.5,2.5,0,0,0,.88,3.69L239.18,223l1.14-5L128.9,160.77l20.38-28.11,95.85,64.06,1.18-5.22Z"/><path class="cls-3" d="M106,131.55a2.5,2.5,0,1,1,4.9,1l-0.59,2.89,24.08,9.25,3-4.19L66.76,113.37q-0.24,2.57-.42,5.19l39.23,15.06Z"/><path class="cls-3" d="M137.42,145.86a2.5,2.5,0,0,0,1.79-4.67l-1.79-.69-3,4.19Z"/><path class="cls-3" d="M111.1,218.83c-5.76-1.85-11.41-3.39-16.83-4.69l-0.48,2.37a2.5,2.5,0,1,1-4.9-1L89.39,213c-5.93-1.29-11.51-2.28-16.56-3q0.44,2.66.87,5.19a239.66,239.66,0,0,1,35.87,8.42c28.36,9.11,64.74,27.69,81.81,64.86,1.47-.73,2.94-1.48,4.45-2.28C181.55,255.31,152.45,232.12,111.1,218.83Z"/><path class="cls-3" d="M89.39,213q2.4,0.52,4.87,1.11l16-78.7-4.73-1.82Z"/><path class="cls-3" d="M108.94,129.6a2.51,2.51,0,0,0-2.95,2l-0.42,2.07,4.73,1.82,0.59-2.89A2.5,2.5,0,0,0,108.94,129.6Z"/><path class="cls-3" d="M88.88,215.51a2.5,2.5,0,1,0,4.9,1l0.48-2.37q-2.47-.59-4.87-1.11Z"/><path class="cls-5" d="M216.25,255c0,24.85,15.11,45,33.75,45V240a200.17,200.17,0,0,1-19-22.16C222.08,225.95,216.25,239.56,216.25,255Z"/><path class="cls-6" d="M210,170c0,14.42,9.45,32.24,21,47.84A200.17,200.17,0,0,0,250,240V130A40,40,0,0,0,210,170Z"/><path class="cls-7" d="M202.33,343c0,0.59,0,1.18,0,1.77A50,50,0,0,1,250,310V286C223.67,286,202.33,311.52,202.33,343Z"/><path class="cls-7" d="M204.38,359.53a60.81,60.81,0,0,0,9.62,20.8A49.83,49.83,0,0,1,250,365V330A50,50,0,0,0,204.38,359.53Z"/><path class="cls-7" d="M250,400V382a49.7,49.7,0,0,0-27,7.95A42.27,42.27,0,0,0,250,400Z"/><path class="cls-8" d="M202.37,344.77a67.17,67.17,0,0,0,2,14.76A50,50,0,0,1,250,330V310A50,50,0,0,0,202.37,344.77Z"/><path class="cls-8" d="M223,389.95A49.7,49.7,0,0,1,250,382V365a49.83,49.83,0,0,0-36,15.33A52.11,52.11,0,0,0,223,389.95Z"/><path class="cls-9" d="M250,432l-8.66-37.33c-1.11-4.77.39-8.67,3.32-8.67H250v46Z"/><path class="cls-10" d="M222.48,186.49a16.85,16.85,0,0,1,4.21,0,37.13,37.13,0,0,0-.94-8.73,35.48,35.48,0,0,0-4.07-10.41c-0.28,6.44-2.56,11.29-6.26,12.13-3.39.77-7.16-2-10.1-6.88a36.66,36.66,0,0,0,.93,9.59A32.73,32.73,0,0,0,212,195.08,12.16,12.16,0,0,1,222.48,186.49Z"/><path class="cls-11" d="M215.42,179.51c3.7-.84,6-5.69,6.26-12.13-2.94-4.86-6.71-7.65-10.1-6.88-3.7.84-6,5.69-6.26,12.13C208.26,177.48,212,180.27,215.42,179.51Z"/><path class="cls-12" d="M220.42,199.51c3.86-.87,6.17-6.13,6.27-13a16.85,16.85,0,0,0-4.21,0A12.16,12.16,0,0,0,212,195.08C214.64,198.38,217.65,200.13,220.42,199.51Z"/><path class="cls-13" d="M190,151.5a3,3,0,0,1-2.65-1.6c-5-9.52,14.29-34.4,20.33-41.8a3,3,0,0,1,4.89.35L235.7,147c0.85,1.42-26-31.7-26-31.7-10.16,13.09-19,28.14-17,31.85A3,3,0,0,1,190,151.5Z"/><path class="cls-13" d="M160,263.5a3.5,3.5,0,0,1-3.13-1.94l-20-40a3.5,3.5,0,0,1,6.26-3.13l18.74,37.48s64-14.65,64.5-12.78a3.5,3.5,0,0,1-2.53,4.25l-63,16A3.51,3.51,0,0,1,160,263.5Z"/><path class="cls-14" d="M156.32,213.08l-2.85-5.28-39.75-73.64c-0.78-1.45-1.29-1.3-1.12.34L121,217.77l0.6,6,0.07,0.67a4.34,4.34,0,0,0,3.24,3.58,38.12,38.12,0,0,0,16.74-.87A38.12,38.12,0,0,0,156,218.46a4.34,4.34,0,0,0,.67-4.78Z"/><path class="cls-13" d="M140,443.5c-1.41,0,14.86-13.48,16.87-15.05,1.23-3.41,6.55-14.92,29.66-59.35-0.19-3.82-5.25-10.53-9-14.29a3.51,3.51,0,0,1-1-2.16c-2-22.34,6.88-40.85,25.78-53.53a46.1,46.1,0,0,1,27.7-8c1.9-.36-11.14,5.28-24,14-16.41,11.09-24,26.48-22.64,45.75,3.1,3.27,10.8,12.21,10.1,19.53a3.5,3.5,0,0,1-.38,1.28c-10.73,20.63-28,54.34-29.61,58.85-0.1,2.13-1.54,4.86-22.24,12.8A3.5,3.5,0,0,1,140,443.5Zm16.73-14.65a2.94,2.94,0,0,0-.22.9A4.38,4.38,0,0,1,156.73,428.85Z"/><path class="cls-1" d="M376.89,296.38c-6.19,99.31-112.79,4.27-112.79,4.27l16.07-29.41C324.15,302.64,355.33,304.91,376.89,296.38Z"/><path class="cls-1" d="M376.89,296.38c-6.19,99.31-112.79,4.27-112.79,4.27l16.07-29.41C324.15,302.64,355.33,304.91,376.89,296.38Z"/><path class="cls-2" d="M365.68,332c-14.14,16.48-38.91,9.19-60.46-2.5C334.73,328.24,354,330,365.68,332Z"/><path class="cls-2" d="M331,307.78c9,2.3,16.19,3.8,19.8,3.8a6.85,6.85,0,0,0,1.36-.11c5.57-1.11,10.14-6.67,13.31-11.84a60,60,0,0,0,11.44-3.24c-0.94,15.15-4.14,25.77-9,32.9-8.13-1.51-19.88-2.92-36.88-3.19V307.78Z"/><path class="cls-2" d="M351.52,308.53c-6,1.19-46.47-10.76-80-21.5l8.63-15.79c34.46,24.59,61.05,31.31,81.33,29C358.81,304.14,355.38,307.76,351.52,308.53Z"/><path class="cls-2" d="M328,307v19.07c-8-.06-17.3.14-27.61,0.7a255.56,255.56,0,0,1-36.25-26.1l6.05-10.95C286,294.8,310,302.24,328,307Z"/><path class="cls-3" d="M328,326.07V307c-18-4.76-42-12.2-57.83-17.29l1.42-2.68c33.51,10.74,73.95,22.69,80,21.5,3.86-.77,7.28-4.39,10-8.31,1.34-.16,2.65-0.36,3.94-0.59-3.17,5.18-7.77,10.73-13.34,11.84a6.37,6.37,0,0,1-1.31.11c-3.6,0-10.8-1.5-19.8-3.8V326.1c17,0.27,28.75,1.67,36.87,3.19a32.14,32.14,0,0,1-2.15,2.75c-11.72-2-31-3.79-60.48-2.5-1.66-.9-3.22-1.83-4.84-2.77C310.71,326.21,320,326,328,326.07Z"/><path class="cls-4" d="M390.25,223.59a239.66,239.66,0,0,1,35.87-8.42c-3.26,19-6.3,31.83-6.3,31.83S409,283.68,376.89,296.38c-16.62,6.57-39,6.71-68.46-7.93C325.51,251.28,361.88,232.7,390.25,223.59Z"/><path class="cls-4" d="M353.17,127.78a2.5,2.5,0,0,0-3.41-.61L253.51,191.5l-2.69-11.87S283.33,132.2,322.94,97c11.84,0.64,29.94,1.41,48.82,1.41,21,0,42.94-1,58.24-4.08a135.92,135.92,0,0,1,3.06,19L362.39,140.5Z"/><path class="cls-4" d="M328.42,92.25c23.47-19.81,48.95-34.52,71.4-32.25,15,1.51,23.91,13,28.88,29.51C402.41,94.8,354.76,93.51,328.42,92.25Z"/><path class="cls-4" d="M394.25,133.63l39.23-15.06c2,29.91-2.22,65.35-6.49,91.42-5,.76-10.63,1.75-16.56,3Z"/><path class="cls-4" d="M377.08,162.25a2.5,2.5,0,0,0-.41-2l-11.24-15.51,24.08-9.25,16,78.7c-5.43,1.3-11.08,2.84-16.83,4.69-41.35,13.29-70.46,36.48-84.73,67.34a217.66,217.66,0,0,1-23.82-14.92q-5.06-3.61-10.35-7.75L260.63,223l115.16-59.08A2.5,2.5,0,0,0,377.08,162.25Z"/><polygon class="cls-4" points="370.91 160.77 259.49 217.94 254.69 196.72 350.54 132.67 370.91 160.77"/><path class="cls-3" d="M322.94,97q2.72-2.42,5.48-4.75c26.34,1.26,74,2.55,100.28-2.75q0.7,2.35,1.3,4.83c-15.31,3.13-37.25,4.08-58.24,4.08C352.88,98.41,334.78,97.65,322.94,97Z"/><path class="cls-3" d="M349.76,127.17a2.5,2.5,0,0,1,3.41.61l9.22,12.72-1.79.69a2.5,2.5,0,1,0,1.79,4.67l3-1.17,11.24,15.51a2.5,2.5,0,0,1-.88,3.69L260.63,223l-1.14-5,111.42-57.17-20.38-28.11-95.85,64.06-1.18-5.22Z"/><path class="cls-3" d="M393.82,131.55a2.5,2.5,0,1,0-4.9,1l0.59,2.89-24.08,9.25-3-4.19,70.67-27.13q0.24,2.57.42,5.19l-39.23,15.06Z"/><path class="cls-3" d="M362.39,145.86a2.5,2.5,0,0,1-1.79-4.67l1.79-.69,3,4.19Z"/><path class="cls-3" d="M388.72,218.83c5.76-1.85,11.41-3.39,16.83-4.69l0.48,2.37a2.5,2.5,0,1,0,4.9-1L410.43,213c5.93-1.29,11.51-2.28,16.56-3q-0.44,2.66-.87,5.19a239.66,239.66,0,0,0-35.87,8.42c-28.36,9.11-64.74,27.69-81.81,64.86-1.47-.73-2.94-1.48-4.45-2.28C318.26,255.31,347.36,232.12,388.72,218.83Z"/><path class="cls-3" d="M410.43,213q-2.4.52-4.87,1.11l-16-78.7,4.73-1.82Z"/><path class="cls-3" d="M390.88,129.6a2.51,2.51,0,0,1,2.95,2l0.42,2.07-4.73,1.82-0.59-2.89A2.5,2.5,0,0,1,390.88,129.6Z"/><path class="cls-3" d="M410.93,215.51a2.5,2.5,0,1,1-4.9,1l-0.48-2.37q2.47-.59,4.87-1.11Z"/><path class="cls-5" d="M283.66,255c0,24.85-15.66,45-33.66,45V240a222.86,222.86,0,0,0,19-22.16C277.87,225.95,283.66,239.56,283.66,255Z"/><path class="cls-6" d="M289.91,170c0,14.42-9.4,32.24-20.92,47.84A222.86,222.86,0,0,1,250,240V130A40,40,0,0,1,289.91,170Z"/><path class="cls-7" d="M297.57,343c0,0.59,0,1.18,0,1.77A50.24,50.24,0,0,0,250,310V286C276,286,297.57,311.52,297.57,343Z"/><path class="cls-7" d="M295.53,359.53a60.73,60.73,0,0,1-9.57,20.8A50,50,0,0,0,250,365V330A50.22,50.22,0,0,1,295.53,359.53Z"/><path class="cls-7" d="M250,400V382a49.61,49.61,0,0,1,27,7.95A42.35,42.35,0,0,1,250,400Z"/><path class="cls-8" d="M297.54,344.77a67.17,67.17,0,0,1-2,14.76A50.28,50.28,0,0,0,250,330V310A50.19,50.19,0,0,1,297.54,344.77Z"/><path class="cls-8" d="M276.93,389.95A49.3,49.3,0,0,0,250,382V365a50,50,0,0,1,36,15.33A52.34,52.34,0,0,1,276.93,389.95Z"/><path class="cls-9" d="M250,432l8.57-37.33c1.11-4.77-.48-8.67-3.42-8.67H250v46Z"/><path class="cls-10" d="M277.34,186.49a16.85,16.85,0,0,0-4.21,0,37.13,37.13,0,0,1,.94-8.73,35.48,35.48,0,0,1,4.07-10.41c0.28,6.44,2.56,11.29,6.26,12.13,3.39,0.77,7.16-2,10.1-6.88a36.66,36.66,0,0,1-.93,9.59,32.73,32.73,0,0,1-5.78,12.87A12.16,12.16,0,0,0,277.34,186.49Z"/><path class="cls-11" d="M284.39,179.51c-3.7-.84-6-5.69-6.26-12.13,2.94-4.86,6.71-7.65,10.1-6.88,3.7,0.84,6,5.69,6.26,12.13C291.56,177.48,287.79,180.27,284.39,179.51Z"/><path class="cls-12" d="M279.39,199.51c-3.86-.87-6.17-6.13-6.27-13a16.85,16.85,0,0,1,4.21,0,12.16,12.16,0,0,1,10.46,8.59C285.18,198.38,282.16,200.13,279.39,199.51Z"/><path class="cls-13" d="M309.81,151.5a3,3,0,0,0,2.65-1.6c5-9.52-14.29-34.4-20.33-41.8a3,3,0,0,0-4.89.35L264.12,147c-0.85,1.42,26-31.7,26-31.7,10.16,13.09,19,28.14,17,31.85A3,3,0,0,0,309.81,151.5Z"/><path class="cls-13" d="M339.82,263.5a3.5,3.5,0,0,0,3.13-1.94l20-40a3.5,3.5,0,0,0-6.26-3.13l-18.74,37.48s-64-14.65-64.5-12.78a3.5,3.5,0,0,0,2.53,4.25l63,16A3.51,3.51,0,0,0,339.82,263.5Z"/><path class="cls-14" d="M343.5,213.08l2.85-5.28,39.75-73.64c0.78-1.45,1.29-1.3,1.12.34l-8.37,83.27-0.6,6-0.07.67a4.34,4.34,0,0,1-3.24,3.58,34.47,34.47,0,0,1-31.09-9.54,4.34,4.34,0,0,1-.67-4.78Z"/><path class="cls-13" d="M358.56,443.27c-20.7-7.93-22.14-10.67-22.24-12.8-1.62-4.51-18.88-38.23-29.61-58.85a3.5,3.5,0,0,1-.38-1.28c-0.7-7.32,7-16.26,10.1-19.53,1.39-19.27-6.22-34.66-22.64-45.75-12.83-8.67-25.88-14.32-24-14a46.1,46.1,0,0,1,27.7,8c18.9,12.68,27.81,31.19,25.78,53.53a3.51,3.51,0,0,1-1,2.16c-3.75,3.76-8.81,10.47-9,14.29,23.11,44.44,28.43,55.94,29.66,59.35,2,1.58,18.27,15.05,16.87,15.05A3.5,3.5,0,0,1,358.56,443.27Zm-15.26-13.52a2.94,2.94,0,0,0-.22-0.9A4.38,4.38,0,0,1,343.31,429.75Z"/><g class="cls-15"><path class="cls-3" d="M419.87,246.77l0-.08,0-.11,0-.13,0-.14,0-.19,0-.11,0.06-.24,0-.22,0-.21,0-.22,0.08-.35,0-.14,0.1-.43,0-.17,0.1-.47,0-.18,0.13-.58,0-.1,0.16-.75h0c0.41-1.9.92-4.29,1.49-7.11h0l0.24-1.17,0-.15,0.22-1.12,0-.15,0.23-1.16,0-.18,0.23-1.19,0-.18,0.25-1.27,0-.13,0.26-1.35,0-.11,0.28-1.47v0c0.71-3.78,1.46-8,2.21-12.44l0-.16c0.67-4,1.35-8.27,2-12.72v-0.06q0.38-2.6.76-5.28l0-.13q0.37-2.68.73-5.42v-0.08c0.72-5.57,1.39-11.34,2-17.2v0q0.28-2.92.53-5.87v-0.05c1.81-21.37,2.18-43.6-.77-62.15v0a108,108,0,0,0-3.12-14h0q-0.23-.77-0.47-1.52h0a53.47,53.47,0,0,0-8.39-16.7l-0.13-.17L419,70.3,418.82,70l-0.62-.7-0.27-.3-0.61-.63L417,68.08l-0.6-.58L416,67.17l-0.59-.52L415,66.3l-0.59-.48L414,65.49l-0.59-.44L413,64.72l-0.59-.4-0.5-.32-0.59-.36-0.53-.3-0.6-.32-0.56-.28-0.6-.29-0.6-.27-0.6-.25-0.64-.24-0.6-.22-0.68-.22-0.59-.19-0.73-.2L404,60.71l-0.79-.18-0.55-.12-0.91-.16-0.48-.08q-0.7-.1-1.42-0.18c-0.87-.09-1.76-0.14-2.64-0.18l-0.75,0q-1.05,0-2.11,0h-0.62q-1.33,0-2.67.15l-0.61.06q-1.08.1-2.16,0.25l-0.79.11c-0.85.13-1.71,0.27-2.57,0.43l-0.17,0c-0.91.18-1.82,0.38-2.74,0.6l-0.81.2q-1.06.27-2.13,0.57l-0.72.21q-1.36.4-2.73,0.86l-0.67.23q-1.08.38-2.17,0.78l-0.89.34q-1.21.47-2.41,1l-0.4.16c-0.91.39-1.83,0.8-2.74,1.22l-0.91.43-2,1-0.86.43q-1.35.69-2.7,1.42l-0.78.43L357,71.84l-1,.58-2.15,1.28-0.67.4q-1.33.82-2.65,1.67l-1,.68-1.84,1.22-1,.69q-1.3.88-2.59,1.8l-1,.68-1.83,1.32-1.14.84-1.84,1.38-1,.74L334.79,87l-1.16.93L332,89.27l-1.16,1-2.44,2h0q-3.69,3.11-7.3,6.38l-0.14.13q-1.72,1.55-3.42,3.14l-0.23.22q-2.69,2.5-5.32,5.06h0c-4,3.87-7.86,7.81-11.61,11.76-3.28-4.63-6.39-8.56-8.25-10.84a3,3,0,0,0-4.89.35l-16.46,27.41A39.63,39.63,0,0,0,250,130V310a50.24,50.24,0,0,1,47.58,34.77c0-.59,0-1.18,0-1.77a66.47,66.47,0,0,0-2.94-19.68c3.39,2.13,6.95,4.24,10.59,6.21h0l1.93,1,0.18,0.09q1.94,1,3.91,2l0.16,0.08,2,0.93,0.14,0.06,1.72,0.78a53.7,53.7,0,0,1,1.2,16.3c-3.1,3.27-10.8,12.21-10.1,19.54a3.5,3.5,0,0,0,.38,1.28c10.73,20.63,28,54.34,29.61,58.85,0.1,2.13,1.54,4.86,22.24,12.8a3.5,3.5,0,0,0,1.25.23c1.41,0-14.86-13.48-16.87-15.05-1.23-3.41-6.55-14.92-29.66-59.35,0.19-3.82,5.25-10.53,9-14.29a3.51,3.51,0,0,0,1-2.16,63.11,63.11,0,0,0-.37-15.05l0.85,0.3L324,338q2,0.69,4,1.26l0.13,0,2,0.54,0.1,0q2,0.51,4,.89c0.05,0,.1-0.15.15-0.15a21.41,21.41,0,0,0,4,.43h0c0.65,0,1.29.31,1.93,0.36,0,0,.07.27,0.11,0.27,1.28,0.09,2.55.37,3.79,0.37h0.07c0.63,0,1.25-.21,1.86-0.25,0,0,0-.09,0-0.09a33.76,33.76,0,0,0,3.64-.49l0.09,0a28.91,28.91,0,0,0,5.21-1.46l0.07,0a26.28,26.28,0,0,0,3.24-1.52l0,0q0.79-.44,1.55-0.94l0,0a26.26,26.26,0,0,0,2.95-2.24l0.07-.06a28.28,28.28,0,0,0,2.74-2.79h0a32.14,32.14,0,0,0,2.15-2.75h-0.08l0.09,0c4.88-7.13,8.14-17.75,9.08-32.9h0c32-12.7,42.87-49.38,42.87-49.38a0.26,0.26,0,0,1,0-.13S419.86,246.81,419.87,246.77ZM343.26,429.48a6,6,0,0,0-.17-0.62A3,3,0,0,1,343.26,429.48Zm-53.1-314.23c2.09,2.69,4.11,5.46,6,8.2-6.11,6.61-11.81,13.15-17,19.32a40.21,40.21,0,0,0-6.73-5.81C280.09,127.65,290.16,115.25,290.16,115.25Z"/><path class="cls-3" d="M295.58,359.53a67.17,67.17,0,0,0,2-14.76A50.19,50.19,0,0,0,250,310v20A50.28,50.28,0,0,1,295.58,359.53Z"/><path class="cls-3" d="M250,379.67V432l7.5-32.71A43.48,43.48,0,0,0,277,389.95l-0.05,0a52.33,52.33,0,0,0,9-9.59,60.73,60.73,0,0,0,9.57-20.8A50.22,50.22,0,0,0,250,330v49.67Z"/></g><path class="cls-2" d="M431.83,103.54v0a108,108,0,0,0-3.12-14h0q-0.23-.77-0.47-1.52h0a53.47,53.47,0,0,0-8.39-16.7l-0.13-.17L419,70.3,418.82,70l-0.62-.7-0.27-.3-0.61-.63L417,68.08l-0.6-.58L416,67.17l-0.59-.52L415,66.3l-0.59-.48L414,65.49l-0.59-.44L413,64.72l-0.59-.4-0.5-.32-0.59-.36-0.53-.3-0.6-.32-0.56-.28-0.6-.29-0.6-.27-0.6-.25-0.64-.24-0.6-.22-0.68-.22-0.59-.19-0.73-.2L404,60.71l-0.79-.18-0.55-.12-0.91-.16-0.48-.08q-0.7-.1-1.42-0.18c-0.87-.09-1.76-0.14-2.64-0.18l-0.75,0q-1.05,0-2.11,0h-0.62q-1.33,0-2.67.15l-0.61.06q-1.08.1-2.16,0.25l-0.79.11c-0.85.13-1.71,0.27-2.57,0.43l-0.17,0c-0.91.18-1.82,0.38-2.74,0.6l-0.81.2q-1.06.27-2.13,0.57l-0.72.21q-1.36.4-2.73,0.86l-0.67.23q-1.08.38-2.17,0.78l-0.89.34q-1.21.47-2.41,1l-0.4.16c-0.91.39-1.83,0.8-2.74,1.22l-0.91.43-2,1-0.86.43q-1.35.69-2.7,1.42l-0.78.43L357,71.84l-1,.58-2.15,1.28-0.67.4q-1.33.82-2.65,1.67l-1,.68-1.84,1.22-1,.69q-1.3.88-2.59,1.8l-1,.68-1.83,1.32-1.14.84-1.84,1.38-1,.74L334.79,87l-1.16.93L332,89.27l-1.16,1-2.44,2h0q-3.69,3.11-7.3,6.38l-0.14.13q-1.72,1.55-3.42,3.14l-0.23.22q-2.69,2.5-5.32,5.06h0c-4,3.87-7.86,7.81-11.61,11.76-3.28-4.63-6.39-8.56-8.25-10.84a3,3,0,0,0-4.89.35l-16.46,27.41A39.63,39.63,0,0,0,250,130V310a50.24,50.24,0,0,1,47.58,34.77c0-.59,0-1.18,0-1.77a66.47,66.47,0,0,0-2.94-19.68c3.39,2.13,6.95,4.24,10.59,6.21h0l1.93,1,0.18,0.09q1.94,1,3.91,2l0.16,0.08,2,0.93,0.14,0.06,1.72,0.78a53.7,53.7,0,0,1,1.2,16.3c-3.1,3.27-10.8,12.21-10.1,19.54a3.5,3.5,0,0,0,.38,1.28c10.73,20.63,28,54.34,29.61,58.85,0.1,2.13,1.54,4.86,22.24,12.8a3.5,3.5,0,0,0,1.25.23c1.41,0-14.86-13.48-16.87-15.05-1.23-3.41-6.55-14.92-29.66-59.35,0.19-3.82,5.25-10.53,9-14.29a3.51,3.51,0,0,0,1-2.16,63.11,63.11,0,0,0-.37-15.05l0.85,0.3L324,338q2,0.69,4,1.26l0.13,0,2,0.54,0.1,0q2,0.51,4,.89c0.05,0,.1-0.15.15-0.15a21.41,21.41,0,0,0,4,.43h0c0.65,0,1.29.31,1.93,0.36,0,0,.07.27,0.11,0.27,1.28,0.09,2.55.37,3.79,0.37h0.07c0.63,0,1.25-.21,1.86-0.25,0,0,0-.09,0-0.09a33.76,33.76,0,0,0,3.64-.49l0.09,0a28.87,28.87,0,0,0,5.21-1.46l0.07,0a26.28,26.28,0,0,0,3.24-1.52l0,0q0.79-.44,1.55-0.94l0,0a26.26,26.26,0,0,0,2.95-2.24l0.07-.06a28.28,28.28,0,0,0,2.74-2.79h0a32.14,32.14,0,0,0,2.15-2.75h-0.08l0.09,0c4.88-7.13,8.14-17.75,9.08-32.9h0c32-12.7,42.87-49.38,42.87-49.38a0.26,0.26,0,0,1,0-.13s0-.06,0-0.09l0-.08,0-.11,0-.13,0-.14,0-.19,0-.11,0.06-.24,0-.22,0-.21,0-.22,0.08-.35,0-.14,0.1-.43,0-.17,0.1-.47,0-.18,0.13-.58,0-.1,0.16-.75h0c0.41-1.9.92-4.29,1.49-7.11h0l0.24-1.17,0-.15,0.22-1.12,0-.15,0.23-1.16,0-.18,0.23-1.19,0-.18,0.25-1.27,0-.13,0.26-1.35,0-.11,0.28-1.47v0c0.71-3.78,1.46-8,2.21-12.44l0-.16c0.67-4,1.35-8.27,2-12.72v-0.06q0.38-2.6.76-5.28l0-.13q0.37-2.68.73-5.42v-0.08c0.72-5.57,1.39-11.34,2-17.2v0q0.28-2.92.53-5.87v-0.05C434.4,144.32,434.78,122.08,431.83,103.54ZM279.2,142.76a40.21,40.21,0,0,0-6.73-5.81c7.62-9.3,17.69-21.7,17.69-21.7,2.09,2.69,4.11,5.46,6,8.2C290.06,130.06,284.36,136.6,279.2,142.76Zm64.06,286.71a6,6,0,0,0-.17-0.62A3,3,0,0,1,343.26,429.48Z"/><path class="cls-2" d="M295.58,359.53a67.17,67.17,0,0,0,2-14.76A50.19,50.19,0,0,0,250,310v20A50.28,50.28,0,0,1,295.58,359.53Z"/><path class="cls-2" d="M250,379.67V432l7.5-32.71A43.48,43.48,0,0,0,277,389.95l-0.05,0a52.33,52.33,0,0,0,9-9.59,60.73,60.73,0,0,0,9.57-20.8A50.22,50.22,0,0,0,250,330v49.67Z"/><path class="cls-16" d="M163.75,465.94V465h5.63v1.88h1.88v1.88h1.88v5.63h-1.87v1.88h-1.87v1.88h-5.62v-1.87h-1.87v-1.87H160v-5.62h1.88v-1.87h1.88v-0.94Zm3.75,1.88v-0.94h-3.75v7.5h1.88v1.88h3.75v-7.5H167.5v-0.94Z"/><path class="cls-16" d="M180.63,465.94V465h3.75v11.25h3.75v1.88H176.88v-1.87h3.75v-7.5h-1.87v-1.87h1.88v-0.94Z"/><path class="cls-16" d="M190,467.81V465h11.25v1.88h-7.5v1.88h7.5v1.88h1.88v5.63h-1.87v1.88h-9.37v-1.87H190v-1.87h3.75v1.88h5.63v-5.62H190v-2.81Z"/><path class="cls-16" d="M220,471.56V465h11.25v1.88h1.88v3.75h-1.87v1.88h1.88v3.75h-1.87v1.88H220v-6.56Zm9.38-2.81v-1.87h-5.62v3.75h5.63v-1.87Zm0,5.63V472.5h-5.62v3.75h5.63v-1.87Z"/><path class="cls-16" d="M235,471.56V465h13.13v1.88h-9.37v3.75h7.5v1.88h-7.5v3.75h9.38v1.88H235v-6.56Z"/><path class="cls-16" d="M250,471.56V465h13.13v1.88h-9.37v3.75h7.5v1.88h-7.5v3.75h9.38v1.88H250v-6.56Z"/><path class="cls-16" d="M265,471.56V465h9.38v1.88h1.88v1.88h1.88v5.63h-1.87v1.88h-1.87v1.88H265v-6.56Zm7.5-3.75v-0.94h-3.75v9.38h3.75v-1.87h1.88v-5.62H272.5v-0.94Z"/><path class="cls-16" d="M280,471.56V465h11.25v1.88h1.88v5.63h-3.75v1.88h1.88v1.88h1.88v1.88H287.5v-1.87h-1.87v-1.87h-1.87v3.75H280v-6.56Zm9.38-2.81v-1.87h-5.62v5.63h3.75v-1.87h1.88v-1.87Z"/><path class="cls-16" d="M296.88,465.94V465h11.25v1.88h-3.75v9.38h3.75v1.88H296.88v-1.87h3.75v-9.37h-3.75v-0.94Z"/><path class="cls-16" d="M311.88,471.56V465h3.75v11.25h7.5v1.88H311.88v-6.56Z"/><path class="cls-16" d="M326.88,471.56V465h3.75v11.25h7.5v1.88H326.88v-6.56Z"/></svg>