<?xml version="1.0" ?><svg id="pkflt" viewBox="0 0 500 500" xmlns="http://www.w3.org/2000/svg"><defs><style>.cls-1{fill:#d0c6e0;}.cls-2{fill:#fff;}.cls-3{fill:#b28db4;}.cls-4{fill:#1a1a1a;}.cls-5{fill:#9e7e9a;}.cls-6{fill:#dedae3;}.cls-7{opacity:0.1;}</style></defs><title/><path class="cls-1" d="M250,162.78v-1.6l-21.59-3.43S241,164.39,250,162.78Z"/><path class="cls-2" d="M231.91,122.8a16.91,16.91,0,0,1-.37,5.4c-1.11,5-3.92,8.58-6.28,8.06s-3.38-5-2.27-10a13.79,13.79,0,0,1,3.6-7.1c-3.38-2.11-6.09-3.53-6.09-3.53-11.09,2.33-1.46,17.5,0,21s22.17-1.75,17.79-7.88A30.25,30.25,0,0,0,231.91,122.8Z"/><path class="cls-3" d="M225.27,136.25c2.36,0.53,5.18-3.08,6.28-8.06a16.91,16.91,0,0,0,.37-5.4c-1.77-1.32-3.63-2.55-5.32-3.6a13.79,13.79,0,0,0-3.6,7.1C221.89,131.27,222.9,135.73,225.27,136.25Zm0-9.47c0.53-2.38,1.88-4.11,3-3.86s1.62,2.39,1.09,4.77-1.88,4.11-3,3.86S224.69,129.17,225.22,126.79Z"/><ellipse class="cls-4" cx="227.27" cy="127.24" rx="4.42" ry="2.1" transform="translate(53.73 321.47) rotate(-77.46)"/><path class="cls-5" d="M222.29,350.5S238,366.54,250,363V261.53S202.74,285.84,222.29,350.5Z"/><path class="cls-6" d="M250,66.08s-13.8,2.33-18,4.67-13-12.84-13-15.17-2.92-4.08-2.92-4.08-14.3,5.2-12.84,9.75,5.83,8,5.83,8L215,86.5s-5.25,23.92-5.25,27.71,0.84,29.46,5.53,33.55C219,151,230.37,163.2,241.48,165.5a0.74,0.74,0,0,0,0,.17,0.76,0.76,0,0,0,.18.48c0.54,1.82,2.72,9.78-.12,11.59-3.21,2-23.34,1.2-28.59,3.54s-11.67,7.6-11.67,7.6a6.3,6.3,0,0,1,.82.91L167,225V189.74l13.89-7a6.73,6.73,0,0,0,2,.29,6.52,6.52,0,1,0-6.48-6.91l-10.5,5.29a10.61,10.61,0,0,0-2.95-3.36L168.55,161a6.53,6.53,0,1,0-7.42-2.95l-5.94,18a10.48,10.48,0,0,0-1.74.39l-3.22-17.87a6.52,6.52,0,1,0-7.7,2.22L147,183.3a10,10,0,0,0,0,3v58a10,10,0,0,0,1.06,5.31,10.17,10.17,0,0,0,2.79,6.41,10.4,10.4,0,0,0,14.74,0l48.93-49c6.35,9.09,12.48,18.72,12.08,21.31-0.82,5.25.67,19,.67,19s-60.44,40-31.27,103c0,0-7.88,31.51-16,40.84,0,0-35.88,42-26.26,53.38s18.67-4.67,18.67-4.67,3.79,7.88,7.58,8.46,9.33-1.46,11.67-9.92,7.88-40.55,8.17-42.88a3.56,3.56,0,0,0,0-.79c0.14,0.32.8,1.13,3.47,0.79,4.67-.58,8.75.58,9-3.79s2-12.54-5.54-11.38,15.48-29.76,15.48-29.76c-19.54-64.66,27.73-89,27.73-89V162.78c-9,1.6-21.59-5-21.59-5L250,161.18V66.08Zm-29.49,70.6c-1.46-3.5-11.09-18.67,0-21,0,0,2.71,1.41,6.09,3.53,1.69,1.06,3.55,2.29,5.32,3.6a30.25,30.25,0,0,1,6.39,6C242.68,134.92,222,140.17,220.51,136.67Z"/><path class="cls-1" d="M250,162.78v-1.6l21.59-3.43S259,164.39,250,162.78Z"/><path class="cls-2" d="M268.51,122.8a16.91,16.91,0,0,0,.37,5.4c1.11,5,3.92,8.58,6.28,8.06s3.38-5,2.27-10a13.79,13.79,0,0,0-3.6-7.1c3.38-2.11,6.09-3.53,6.09-3.53,11.09,2.33,1.46,17.5,0,21s-22.17-1.75-17.79-7.88A30.25,30.25,0,0,1,268.51,122.8Z"/><path class="cls-3" d="M277.43,126.29a13.79,13.79,0,0,0-3.6-7.1c-1.69,1.06-3.55,2.29-5.32,3.6a16.91,16.91,0,0,0,.37,5.4c1.11,5,3.92,8.58,6.28,8.06S278.54,131.27,277.43,126.29Zm-3.32,5.27c-1.13.25-2.48-1.48-3-3.86s0-4.52,1.09-4.77,2.48,1.48,3,3.86S275.24,131.31,274.11,131.56Z"/><ellipse class="cls-4" cx="273.15" cy="127.24" rx="2.1" ry="4.42" transform="translate(-21.11 62.33) rotate(-12.54)"/><path class="cls-5" d="M277.71,350.5S261,366.54,250,363V261.53S297.26,285.84,277.71,350.5Z"/><path class="cls-6" d="M250,161.18l21.59-3.43s-12.59,6.64-21.59,5v98.75s47.48,24.31,27.94,89c0,0,23.16,30.92,15.57,29.76s-5.78,7-5.49,11.38,4.4,3.21,9.07,3.79c2.67,0.33,3.35-.47,3.48-0.79a3.73,3.73,0,0,0,0,.79c0.29,2.33,5.84,34.42,8.17,42.88s7.88,10.5,11.67,9.92,7.59-8.46,7.59-8.46,9,16,18.67,4.67S320.46,391,320.46,391c-8.17-9.33-16-40.84-16-40.84,29.17-63-31.27-103-31.27-103s1.51-13.72.69-19c-0.41-2.59,5.76-12.22,12.11-21.31l49,49a10.53,10.53,0,0,0,14.85,0c1.79-1.79,2.14-4.07,2.36-6.41,0.94-1.56.85-3.37,0.85-5.31v-58c0-1,.49-2,0.19-3l4.38-22.49a6.67,6.67,0,0,0,4.25-6,6.46,6.46,0,1,0-11.65,3.83L347,176.46a10.42,10.42,0,0,0-1.73-.39l-5.94-18a6.52,6.52,0,1,0-7.42,2.95l5.63,17.06a10.61,10.61,0,0,0-3,3.36L324,176.15a6.52,6.52,0,1,0-6.5,6.91,5.57,5.57,0,0,0,1.78-.29l13.68,7V225l-34.87-35.21a4.1,4.1,0,0,1,1-.91s-6.38-5.27-11.63-7.6-25.36-1.5-28.57-3.54c-2.84-1.81-.65-9.77-0.11-11.59a0.76,0.76,0,0,0,.18-0.48,0.73,0.73,0,0,0,0-.17c11.11-2.3,22.53-14.5,26.25-17.74,4.68-4.08,5.53-29.76,5.53-33.55s-5.25-27.71-5.25-27.71l5.83-17.21s4.38-3.5,5.83-8-12.84-9.75-12.84-9.75-2.92,1.75-2.92,4.08-9,17.5-13.17,15.17S250,66.08,250,66.08v95.1Zm12.12-32.38a30.25,30.25,0,0,1,6.39-6c1.77-1.32,3.63-2.55,5.32-3.6,3.38-2.11,6.09-3.53,6.09-3.53,11.09,2.33,1.46,17.5,0,21S257.74,134.92,262.12,128.8Z"/><g class="cls-7"><path class="cls-4" d="M250,363c11,3.5,27.71-12.54,27.71-12.54,19.54-64.66-27.71-89-27.71-89V363Z"/><path class="cls-4" d="M355.44,148.24a6.51,6.51,0,0,0-5.25,10.35L347,176.46a10.46,10.46,0,0,0-1.74-.39l-5.94-18a6.52,6.52,0,1,0-7.42,2.95l5.63,17.06a10.61,10.61,0,0,0-3,3.36L324,176.15a6.52,6.52,0,1,0-6.5,6.91,5.57,5.57,0,0,0,1.78-.29l13.68,7V225l-34.87-35.21a4.1,4.1,0,0,1,1-.91s-6.38-5.27-11.63-7.6-25.36-1.5-28.57-3.54c-2.84-1.81-.65-9.77-0.11-11.59a0.76,0.76,0,0,0,.18-0.48,0.73,0.73,0,0,0,0-.17c11.11-2.3,22.53-14.5,26.25-17.74,4.68-4.08,5.53-29.76,5.53-33.55s-5.25-27.71-5.25-27.71l5.83-17.21s4.38-3.5,5.83-8-12.84-9.75-12.84-9.75-2.92,1.75-2.92,4.08-9,17.5-13.17,15.17S250,66.08,250,66.08V261.53s47.48,24.31,27.94,89c0,0,23.16,30.92,15.57,29.76s-5.78,7-5.49,11.38,4.4,3.21,9.07,3.79c2.67,0.33,3.35-.47,3.48-0.79a3.73,3.73,0,0,0,0,.79c0.29,2.33,5.84,34.42,8.17,42.88s7.88,10.5,11.67,9.92,7.59-8.46,7.59-8.46,9,16,18.67,4.67S320.46,391,320.46,391c-8.17-9.33-16-40.84-16-40.84,29.17-63-31.27-103-31.27-103s1.51-13.72.69-19c-0.41-2.59,5.76-12.22,12.11-21.31l49,49a10.53,10.53,0,0,0,14.85,0c1.79-1.79,2.14-4.07,2.36-6.41,0.94-1.56.85-3.37,0.85-5.31v-58c0-1,.49-2,0.19-3l4.38-22.49a6.67,6.67,0,0,0,4.25-6A6.41,6.41,0,0,0,355.44,148.24Z"/></g><path class="cls-5" d="M180.63,465.94V465h3.75v11.25h3.75v1.88H176.88v-1.87h3.75v-7.5h-1.87v-1.87h1.88v-0.94Z"/><path class="cls-5" d="M190,467.81V465h11.25v1.88h-7.5v1.88h7.5v1.88h1.88v5.63h-1.87v1.88h-9.37v-1.87H190v-1.87h3.75v1.88h5.63v-5.62H190v-2.81Z"/><path class="cls-5" d="M208.75,465.94V465h5.63v1.88h1.88v1.88h1.88v5.63h-1.87v1.88h-1.87v1.88h-5.62v-1.87h-1.87v-1.87H205v-5.62h1.88v-1.87h1.88v-0.94Zm3.75,1.88v-0.94h-3.75v7.5h1.88v1.88h3.75v-7.5H212.5v-0.94Z"/><path class="cls-5" d="M235,471.56V465h3.75v1.88h1.88v1.88h1.88v-1.87h1.88V465h3.75v13.13h-3.75V472.5H242.5v1.88h-1.87V472.5h-1.87v5.63H235v-6.56Z"/><path class="cls-5" d="M250,471.56V465h13.13v1.88h-9.37v3.75h7.5v1.88h-7.5v3.75h9.38v1.88H250v-6.56Z"/><path class="cls-5" d="M265,471.56V465h3.75v5.63h1.88v-1.87h1.88v1.88h1.88V465h3.75v13.13h-3.75v-1.87H272.5v-1.87h-1.87v1.88h-1.87v1.88H265v-6.56Z"/><path class="cls-5" d="M281.88,465.94V465h11.25v1.88h-3.75v11.25h-3.75V466.88h-3.75v-0.94Z"/><path class="cls-5" d="M295,471.56V465h3.75v5.63h1.88v-1.87h1.88v1.88h1.88V465h3.75v13.13h-3.75v-1.87H302.5v-1.87h-1.87v1.88h-1.87v1.88H295v-6.56Z"/><path class="cls-5" d="M311.88,465.94V465h9.38v1.88h1.88v9.38h-1.87v1.88h-9.37v-1.87H310v-9.37h1.88v-0.94Zm7.5,5.63v-4.69h-5.62v9.38h5.63v-4.69Z"/></svg>