<?xml version="1.0" ?><svg id="pkflt" viewBox="0 0 500 500" xmlns="http://www.w3.org/2000/svg"><defs><style>.cls-1{fill:#efcae4;}.cls-2{fill:#fadaef;}.cls-3{fill:#0484fa;}.cls-4{fill:#7bbafc;}.cls-5{fill:#fff;}.cls-6{fill:#1a1a1a;opacity:0.1;}.cls-7{fill:#e2a6d2;}</style></defs><title/><path class="cls-1" d="M234,80a29.09,29.09,0,0,0,5.09,17.06c2.13,7.75,4.58,17.79,4.58,23,0,9.26-3.83,55.92-3.83,55.92H250V56.67C241.16,56.67,234,67.11,234,80Z"/><path class="cls-1" d="M225.11,248H225s2.3,24.13-6.85,32.13c-2,1.71-3.72,5.5-5,10.51a8.83,8.83,0,0,1,2.58,2.88c6,10.24,3.24,21.79,1.31,27.27,8.78,10.3,14.37,20.41,15.6,28.19A29.08,29.08,0,0,0,236,350s12,3.22,14,2.47V258.25C239.08,263.23,226.37,249,225.11,248Zm19.1,42.8c-2.6,2.6-9.3.11-15-5.56s-5-9.25-2.44-11.84,6.18-3.23,11.84,2.44S246.81,288.2,244.21,290.8Z"/><path class="cls-1" d="M211.62,314.81q2.89,3,5.44,6c1.94-5.48,4.72-17-1.31-27.28a8.89,8.89,0,0,0-2.58-2.89A73.45,73.45,0,0,0,211.62,314.81Z"/><path class="cls-2" d="M211.62,314.81a73.45,73.45,0,0,1,1.55-24.21c-5.57-3.82-13.79,2.79-19.42,8.62-21.25-15.65-42.26-21.74-49.3-13.5-7.94,9.3,4.9,33.3,28.69,53.63s49.51,29.26,57.45,20c2.14-2.5,2.76-6.07,2.08-10.34-1.24-7.78-6.82-17.89-15.6-28.19Q214.51,317.8,211.62,314.81Z"/><path class="cls-2" d="M227,174.25s-14.29-3.75-27-2.12c0,0-9.09,19.08-2.5,32.38,0,0-14.75,40,27.5,43.25l0.11,0.13L250,248V170S229.82,170.5,227,174.25Zm-20.65,50.58a2.33,2.33,0,0,1-.38-0.5c-2.33-4.33-5.33-17.67,8-21a7.8,7.8,0,0,1,5,.36,9.28,9.28,0,0,1,1.47.78c2.67,1.73,4.82,4.9,6.53,8.43a67.67,67.67,0,0,1,4.59,13.63c0.48,2.1.71,3.47,0.71,3.47S210.19,228.77,206.38,224.83Z"/><path class="cls-2" d="M250,258.25V248l-24.89-.12C226.37,249.3,239.08,263.23,250,258.25Z"/><path class="cls-2" d="M216.24,207.75L216,208v0Z"/><path class="cls-2" d="M216,208c-0.5.47-1,1-1.45,1.46,0.47-.5,1-1,1.45-1.43v0Z"/><path class="cls-3" d="M222.11,215.34A6.2,6.2,0,0,1,216,208c-0.49.47-1,.93-1.45,1.43l0,0q-0.87.94-1.67,2l-0.05.07q-0.79,1-1.51,2.09l-0.08.12c-0.41.62-.8,1.27-1.17,1.92-0.13.23-.25,0.47-0.38,0.7-0.24.44-.47,0.88-0.69,1.33-0.13.27-.26,0.55-0.38,0.82q-0.3.66-.57,1.34c-0.11.28-.23,0.55-0.33,0.84l-0.11.32,5.76-1.47s4.17,9.67,11.83,4.17l6.45,2.87A67.67,67.67,0,0,0,227,212.9,6.21,6.21,0,0,1,222.11,215.34Z"/><path class="cls-4" d="M225.17,223.67c-7.67,5.5-11.83-4.17-11.83-4.17L207.57,221c-0.22.6-.43,1.19-0.62,1.81l0,0.14c-0.19.63-.37,1.27-0.52,1.91,3.81,3.94,25.95,5.17,25.95,5.17s-0.23-1.36-.71-3.47Z"/><path class="cls-5" d="M207,222.78q0.28-.91.6-1.8l0.13-.32c0.11-.28.22-0.56,0.33-0.84q0.27-.68.57-1.34c0.13-.28.25-0.55,0.38-0.82,0.22-.45.45-0.9,0.69-1.33,0.13-.23.25-0.47,0.38-0.7,0.37-.66.76-1.3,1.17-1.92l0.08-.12q0.72-1.08,1.51-2.09l0.05-.07q0.8-1,1.67-2l0,0c0.47-.5,1-1,1.45-1.46l0.26-.24,0.27-.25-0.27.25L216,208A6.22,6.22,0,0,0,227,212.9c-1.71-3.53-3.86-6.7-6.53-8.43a9.28,9.28,0,0,0-1.47-.78,7.8,7.8,0,0,0-5-.36c-13.33,3.33-10.33,16.67-8,21a2.33,2.33,0,0,0,.38.5c0.16-.65.33-1.28,0.52-1.91Z"/><path class="cls-5" d="M207.55,221h0l0.11-.32Z"/><path class="cls-5" d="M207,222.78c0.19-.61.4-1.21,0.62-1.81h0Q207.23,221.86,207,222.78Z"/><path class="cls-2" d="M226.81,273.4c-2.6,2.6-3.23,6.18,2.44,11.84s12.37,8.16,15,5.56,0.11-9.3-5.56-15S229.41,270.8,226.81,273.4Z"/><path class="cls-1" d="M266.05,80c0,6.73-1.93,12.8-5.06,17.06-2.13,7.75-4.57,17.79-4.57,23,0,9.26,3.85,55.92,3.85,55.92H250V56.67C259,56.67,266.05,67.11,266.05,80Z"/><path class="cls-1" d="M250,258.25V352.5c2,0.75,14.05-2.47,14.05-2.47a29.51,29.51,0,0,0,3.36-1.05c1.24-7.78,6.83-17.89,15.62-28.19-1.94-5.48-4.72-17,1.32-27.27a8.83,8.83,0,0,1,2.58-2.88c-1.26-5-3-8.8-5-10.51-9.15-8-6.85-32.12-6.85-32.12H275C273.73,249,261,263.23,250,258.25Zm11.45,17.59c5.67-5.67,9.25-5,11.84-2.44s3.23,6.18-2.44,11.84-12.37,8.16-15,5.56S255.78,281.5,261.45,275.84Z"/><path class="cls-1" d="M288.48,314.81q-2.89,3-5.44,6c-1.94-5.48-4.72-17,1.31-27.28a8.89,8.89,0,0,1,2.58-2.89A73.45,73.45,0,0,1,288.48,314.81Z"/><path class="cls-2" d="M288.48,314.81a73.45,73.45,0,0,0-1.55-24.21c5.57-3.82,13.79,2.79,19.42,8.62,21.25-15.65,42.26-21.74,49.3-13.5,7.94,9.3-4.9,33.3-28.69,53.63s-49.51,29.26-57.45,20c-2.14-2.5-2.76-6.07-2.08-10.34,1.24-7.78,6.82-17.89,15.6-28.19Q285.59,317.8,288.48,314.81Z"/><path class="cls-2" d="M250,170v78l24.94-.12a0.94,0.94,0,0,1,.14-0.13c42.25-3.25,27.51-43.25,27.51-43.25,6.59-13.3-2.49-32.37-2.49-32.37-12.75-1.62-27.08,2.13-27.08,2.13C270.23,170.5,250,170,250,170Zm17.77,60s0.23-1.36.71-3.47a67.67,67.67,0,0,1,4.59-13.63c1.71-3.53,3.86-6.7,6.53-8.43a9.28,9.28,0,0,1,1.47-.78,7.8,7.8,0,0,1,5-.36c13.33,3.33,10.33,16.67,8,21a2.33,2.33,0,0,1-.38.5C289.91,228.77,267.77,230,267.77,230Z"/><path class="cls-2" d="M250,258.25V248l24.89-.12C273.63,249.3,261,263.23,250,258.25Z"/><path class="cls-2" d="M283.86,207.75l0.26,0.24v0Z"/><path class="cls-2" d="M284.12,208c0.5,0.47,1,1,1.45,1.46-0.47-.5-1-1-1.45-1.43v0Z"/><path class="cls-3" d="M278,215.34a6.2,6.2,0,0,0,6.12-7.33c0.49,0.47,1,.93,1.45,1.43l0,0q0.87,0.94,1.67,2l0.05,0.07q0.79,1,1.51,2.09l0.08,0.12c0.41,0.62.8,1.27,1.17,1.92,0.13,0.23.25,0.47,0.38,0.7,0.24,0.44.47,0.88,0.69,1.33,0.13,0.27.26,0.55,0.38,0.82q0.3,0.66.57,1.34c0.11,0.28.23,0.55,0.33,0.84l0.11,0.32-5.76-1.47s-4.17,9.67-11.83,4.17l-6.45,2.87a67.67,67.67,0,0,1,4.59-13.63A6.21,6.21,0,0,0,278,215.34Z"/><path class="cls-4" d="M274.94,223.67c7.67,5.5,11.83-4.17,11.83-4.17l5.76,1.47c0.22,0.6.43,1.19,0.62,1.81l0,0.14c0.19,0.63.37,1.27,0.52,1.91-3.81,3.94-25.95,5.17-25.95,5.17s0.23-1.36.71-3.47Z"/><path class="cls-5" d="M293.15,222.78q-0.28-.91-0.6-1.8l-0.13-.32c-0.11-.28-0.22-0.56-0.33-0.84q-0.27-.68-0.57-1.34c-0.13-.28-0.25-0.55-0.38-0.82-0.22-.45-0.45-0.9-0.69-1.33-0.13-.23-0.25-0.47-0.38-0.7-0.37-.66-0.76-1.3-1.17-1.92l-0.08-.12q-0.72-1.08-1.51-2.09l-0.05-.07q-0.8-1-1.67-2l0,0c-0.47-.5-1-1-1.45-1.46l-0.26-.24-0.27-.25,0.27,0.25,0.26,0.26a6.22,6.22,0,0,1-11.05,4.9c1.71-3.53,3.86-6.7,6.53-8.43a9.28,9.28,0,0,1,1.47-.78,7.8,7.8,0,0,1,5-.36c13.33,3.33,10.33,16.67,8,21a2.33,2.33,0,0,1-.38.5c-0.16-.65-0.33-1.28-0.52-1.91Z"/><path class="cls-5" d="M292.55,221h0l-0.11-.32Z"/><path class="cls-5" d="M293.15,222.78c-0.19-.61-0.4-1.21-0.62-1.81h0Q292.87,221.86,293.15,222.78Z"/><path class="cls-2" d="M273.29,273.4c2.6,2.6,3.23,6.18-2.44,11.84s-12.37,8.16-15,5.56-0.11-9.3,5.56-15S270.7,270.8,273.29,273.4Z"/><path class="cls-6" d="M355.65,285.73c-7-8.24-28.05-2.14-49.3,13.5-5.62-5.83-13.84-12.45-19.42-8.62h0c-1.26-5-3-8.78-5-10.49-9.15-8-6.85-32.12-6.85-32.12H275c-0.33.26-1.47,1.52-3.17,3,1.64-1.51,2.74-3,3.07-3h0.05a0.34,0.34,0,0,0,.14-0.19c42.25-3.25,27.51-43.28,27.51-43.28,6.59-13.3-2.49-32.39-2.49-32.39-12.75-1.62-27.08,2.12-27.08,2.12-1.45-1.95-7.6-3-13.18-3.6-1-12.52-3.41-43.24-3.41-50.57,0-5.24,2.44-15.28,4.57-23,3.13-4.26,5.06-10.32,5.06-17.06,0-12.89-7.05-23.33-16.05-23.33V352.5c2,0.75,14.05-2.47,14.05-2.47a29.51,29.51,0,0,0,3.36-1.05c1.24-7.78,6.83-17.89,15.62-28.19-1.74-4.93-4.14-14.77-.23-24.14-3.9,9.37-1.5,19.21.24,24.13-8.78,10.3-14.37,20.41-15.6,28.19-0.68,4.27-.06,7.84,2.08,10.34,7.94,9.3,33.66.36,57.45-20S363.59,295,355.65,285.73Z"/><path class="cls-7" d="M203.13,465.94V465h3.75v11.25h3.75v1.88H199.38v-1.87h3.75v-7.5h-1.87v-1.87h1.88v-0.94Z"/><path class="cls-7" d="M212.5,467.81V465h11.25v1.88h-7.5v1.88h7.5v1.88h1.88v5.63h-1.87v1.88h-9.37v-1.87H212.5v-1.87h3.75v1.88h5.63v-5.62H212.5v-2.81Z"/><path class="cls-7" d="M233.13,465.94V465h3.75v11.25h3.75v1.88H229.38v-1.87h3.75v-7.5h-1.87v-1.87h1.88v-0.94Z"/><path class="cls-7" d="M257.5,471.56V465h3.75v1.88h1.88v1.88H265v-1.87h1.88V465h3.75v13.13h-3.75V472.5H265v1.88h-1.87V472.5h-1.87v5.63H257.5v-6.56Z"/><path class="cls-7" d="M272.5,471.56V465h13.13v1.88h-9.37v3.75h7.5v1.88h-7.5v3.75h9.38v1.88H272.5v-6.56Z"/><path class="cls-7" d="M287.5,471.56V465h3.75v5.63h1.88v-1.87H295v1.88h1.88V465h3.75v13.13h-3.75v-1.87H295v-1.87h-1.87v1.88h-1.87v1.88H287.5v-6.56Z"/></svg>