<?xml version="1.0" ?><svg id="pkft" viewBox="0 0 500 500" xmlns="http://www.w3.org/2000/svg"><defs><style>.cls-1{fill:#e5cfb5;}.cls-2{fill:#e8e0b5;}.cls-3{fill:#ba6831;}.cls-4{fill:#db93c0;}.cls-5{fill:#f1f2b8;}.cls-6{fill:none;}.cls-7{fill:#44424c;}.cls-8{fill:#f2f2f2;}.cls-10,.cls-9{fill:#1a1a1a;}.cls-10{opacity:0.1;}</style></defs><title/><path class="cls-1" d="M243.11,236c1,2,2,3.8,2.86,5.45l0.06,0.14,0.89,1.69c1.52,2.86,2.66,5,3.07,5.68V236h-6.89Z"/><path class="cls-2" d="M243.11,236.06l-0.31-.59h0l0.31,0.59h0Z"/><path class="cls-2" d="M246,241.48l-2.86-5.42h0Z"/><path class="cls-2" d="M246,241.6l0.89,1.69Z"/><path class="cls-3" d="M203,305a2.21,2.21,0,0,1-2.27-2.88l5.6-22.39L209,248a13.17,13.17,0,0,1,5-9.08c-7.06-2-7.95-3.93-7.95-3.93h-0.22S180,324,190,355c0,0,6.33-11.16,11.88-22.41L204.2,305H203Z"/><path class="cls-1" d="M215.86,239.48c-0.69-.17-1.32-0.34-1.91-0.52a13.11,13.11,0,0,0-5,9.05l-2.67,31.73L210,265.06a20.59,20.59,0,0,0,4.26-3c6.71-6,9.65-15.8,10.78-20.83C221.3,240.69,218.28,240.08,215.86,239.48Z"/><path class="cls-4" d="M227,361.07a5,5,0,0,1-1.84,3.68l-16.39,10.13c-1,.61-0.89,1.12.21,1.12h6a6.36,6.36,0,0,0,3.63-1.4l10.7-9.43c0.89-.79,1.07-0.55.4,0.52l-5.32,8.4c-0.68,1.07-.33,1.91.77,1.91H230a2.31,2.31,0,0,0,2.06-2.43l0.19-7.37c0-1.35.45-1.45,0.91-.22l3,7.82A3.43,3.43,0,0,0,239,376h3c1.1,0,1.4-.79.66-1.8l-6.32-8.64a8.45,8.45,0,0,1-1.34-4.28v-7a41.41,41.41,0,0,1-7.8-2.74Z"/><path class="cls-1" d="M250,355V305h-7a3.63,3.63,0,0,1-3.48-2.93l-2.21-13.65c-0.26-1.63-.92-1.68-1.47-0.12L231,302.19a4.51,4.51,0,0,1-4,2.81h-4a2.62,2.62,0,0,1-2.68-3l1.45-13.52c0.18-1.64-.39-1.83-1.26-0.43l-8.92,14.4a4.16,4.16,0,0,1-.56.67,6.05,6.05,0,0,1-4,1.82h-2.8l-2.32,27.63s11.57,12.59,25.31,18.9a41.41,41.41,0,0,0,7.8,2.74,28.88,28.88,0,0,0,5,.74C251.25,355.61,250,355,250,355Z"/><path class="cls-2" d="M246.93,243.29c-9.21-.48-16.34-1.21-21.89-2-1.12,5-4.07,14.82-10.78,20.83a20.59,20.59,0,0,1-4.26,3l-3.67,14.68-5.6,22.38A2.21,2.21,0,0,0,203,305h4a6.05,6.05,0,0,0,4-1.82,4.23,4.23,0,0,0,.56-0.69l8.92-14.39c0.87-1.4,1.44-1.2,1.26.44L220.32,302a2.62,2.62,0,0,0,2.68,3h4a4.51,4.51,0,0,0,4-2.8l4.86-13.9c0.54-1.56,1.2-1.49,1.47.14l2.21,13.64A3.63,3.63,0,0,0,243,305h7V249C249.58,248.25,248.45,246.15,246.93,243.29Z"/><path class="cls-5" d="M246,241.48L246,241.6Z"/><path class="cls-5" d="M246,241.48l-2.86-5.42-0.31-.59c-5.81-11.05-12.93-24.73-12.93-24.73,2.35-4.13,13.21-9.33,17.93-11.45l-7.5.53-0.45-.72,0.15,0.72c-6.2-2.43-11.32-2.05-15.55,0h0l-0.5.25C211.43,206.62,207,228,206,233.65v1.41s0.89,1.88,7.95,3.91c0.6,0.17,1.22.34,1.91,0.52,2.42,0.61,5.44,1.21,9.17,1.77,5.55,0.83,12.68,1.56,21.89,2L246,241.6Z"/><path class="cls-6" d="M216.17,200H217l2.3-2.39,16.05-3.38c-3.62-4.26-9-10.45-15.08-16.7Z"/><path class="cls-7" d="M217,200h-0.85l4.12-22.46a191.4,191.4,0,0,0-14.51-13.68c0,0.24-5.46,51.23,0,71.18,0,0,.07-0.54.22-1.43,1-5.67,5.43-26.62,17.95-33.62H217Z"/><path class="cls-5" d="M220.55,176.69l-0.22.88c6,6.25,11.43,12.4,15.06,16.65l0.89-.22h2.47c-8.12-36-19.93-48.71-28.79-53.29-7-3.63-12.21-1.92-12.21-1.92,5.42,0,10.5,8.76,10.5,8.76-4.75-4.75-13,1-13,1,4.25-.5,8.75,6.5,8.75,6.5-2.75-2.75-11.55,0-11.55,0,3.94,1.56,8.55,4.79,13.55,8.82h0C209,165,214.76,170.42,220.55,176.69Z"/><path class="cls-5" d="M235.36,194.22c2.88,3.38,4.64,5.57,4.64,5.57l-0.15-.74c-0.36-1.73-.72-3.06-1.1-5.06h-2.47Z"/><path class="cls-5" d="M220.39,177.57l0.22-.88C214.81,170.42,209,165,206,163.87h0A164.41,164.41,0,0,1,220.39,177.57Z"/><path class="cls-3" d="M210,140.74c8.86,4.58,20.67,17.66,28.79,53.32,0.37,1.64.74,3.3,1.1,5l0.45,0.72,7.5-.53c1.35-.61,2.21-1,2.21-1V125.06C244.35,123.56,213.56,137.74,210,140.74Z"/><path class="cls-4" d="M247.79,199.28h0c-4.72,2.11-15.58,7.31-17.93,11.45,0,0,7.12,13.68,12.93,24.73,1.52,2.88,2.94,5.59,4.13,7.82,1.52,2.86,2.66,5,3.07,5.67V198.32S249.15,198.68,247.79,199.28Z"/><path class="cls-8" d="M226,182.92c-1.82-2.09-3.71-4.23-5.58-6.26L216.17,200h7.78a1.36,1.36,0,0,0,.5-0.22,12.35,12.35,0,0,1-2.61-7.57A12.5,12.5,0,0,1,226,182.92Z"/><path class="cls-9" d="M226,182.92a12.53,12.53,0,0,0-4.19,9.3,12.39,12.39,0,0,0,2.61,7.58h0c4.23-2.05,9.36-2.43,15.55,0C240,199.81,233.54,191.55,226,182.92Z"/><ellipse class="cls-8" cx="230.46" cy="194.89" rx="1.38" ry="1.86"/><path class="cls-1" d="M256.63,236c-1,2-2,3.8-2.86,5.45l-0.06.14c-0.31.59-.48,1.16-0.76,1.69-1.52,2.86-2.94,5-2.94,5.68V236h6.63Z"/><path class="cls-2" d="M256.63,236.06l0.31-.59h0l-0.31.59h0Z"/><path class="cls-2" d="M253.77,241.48l2.86-5.42h0Z"/><path class="cls-2" d="M253.7,241.6l-0.89,1.69Z"/><path class="cls-3" d="M296.74,305a2.21,2.21,0,0,0,2.27-2.88l-5.6-22.39L290.74,248a13.17,13.17,0,0,0-5-9.08c7.06-2,7.95-3.93,7.95-3.93H294s25.78,89,15.78,120c0,0-6.33-11.16-11.88-22.41L295.53,305h1.2Z"/><path class="cls-1" d="M283.87,239.48c0.69-.17,1.32-0.34,1.91-0.52a13.11,13.11,0,0,1,5,9.05l2.67,31.73-3.67-14.68a20.59,20.59,0,0,1-4.26-3c-6.71-6-9.65-15.8-10.78-20.83C278.43,240.69,281.45,240.08,283.87,239.48Z"/><path class="cls-4" d="M272.73,361.07a5,5,0,0,0,1.84,3.68l16.39,10.13c1,0.61.89,1.12-.21,1.12h-6a6.36,6.36,0,0,1-3.63-1.4l-10.7-9.43c-0.89-.79-1.07-0.55-0.4.52l5.32,8.4c0.68,1.07.33,1.91-.77,1.91h-4.83a2.31,2.31,0,0,1-2.06-2.43l-0.19-7.37c0-1.35-.45-1.45-0.91-0.22l-3,7.82a3.43,3.43,0,0,1-2.85,2.2h-3c-1.1,0-1.4-.79-0.66-1.8l6.46-8.64a8.57,8.57,0,0,0,1.47-4.28v-7a65.35,65.35,0,0,0,7.67-2.74Z"/><path class="cls-1" d="M250,355V305h6.74a3.63,3.63,0,0,0,3.48-2.93l2.21-13.65c0.26-1.63.92-1.68,1.47-.12l4.86,13.89a4.51,4.51,0,0,0,4,2.81h4a2.62,2.62,0,0,0,2.68-3L278,288.52c-0.18-1.64.39-1.83,1.26-.43l8.92,14.4a4.16,4.16,0,0,0,.56.67,6.05,6.05,0,0,0,4,1.82h2.8l2.32,27.63s-11.57,12.59-25.31,18.9a41.41,41.41,0,0,1-7.8,2.74,27.43,27.43,0,0,1-4.87.74C248.62,355.61,250,355,250,355Z"/><path class="cls-2" d="M252.94,243.29c9.21-.48,16.28-1.21,21.82-2,1.13,5,4,14.82,10.74,20.83a20.48,20.48,0,0,0,4.24,3l3.66,14.68,5.6,22.38a2.22,2.22,0,0,1-2.28,2.88h-4a6.05,6.05,0,0,1-4-1.82,4.23,4.23,0,0,1-.56-0.69l-8.92-14.39c-0.87-1.4-1.44-1.2-1.26.44L279.42,302a2.62,2.62,0,0,1-2.68,3h-4a4.51,4.51,0,0,1-4-2.8l-4.86-13.9c-0.54-1.56-1.2-1.49-1.47.14l-2.21,13.64a3.63,3.63,0,0,1-3.48,2.94H250V249C250,248.25,251.42,246.15,252.94,243.29Z"/><path class="cls-5" d="M253.77,241.48l-0.06.12Z"/><path class="cls-5" d="M253.77,241.48l2.86-5.42,0.31-.59c5.81-11.05,12.93-24.73,12.93-24.73-2.35-4.13-13.21-9.33-17.93-11.45l7.5,0.53,0.45-.72-0.15.72c6.2-2.43,11.32-2.05,15.55,0h0l0.63,0.25C288.44,206.62,293,228,294,233.65v1.41s-1,1.88-8.08,3.91c-0.6.17-1.29,0.34-2,.52-2.42.61-5.47,1.21-9.21,1.77-5.55.83-12.7,1.56-21.91,2l0.89-1.69Z"/><path class="cls-6" d="M283.57,200h-0.85l-2.3-2.39-16.05-3.38c3.62-4.26,9-10.45,15.08-16.7Z"/><path class="cls-7" d="M282.72,200h0.85l-4.12-22.46A191.4,191.4,0,0,1,294,163.87c0,0.24,5.46,51.23,0,71.18,0,0-.07-0.54-0.22-1.43-1-5.67-5.43-26.62-17.95-33.62h6.93Z"/><path class="cls-5" d="M279.31,176.69l0.15,0.88c-6,6.25-11.47,12.4-15.09,16.65l-0.92-.22H261c8.12-36,19.93-48.71,28.79-53.29,7-3.63,12.21-1.92,12.21-1.92-5.42,0-10.5,8.76-10.5,8.76,4.75-4.75,13,1,13,1-4.25-.5-8.75,6.5-8.75,6.5,2.75-2.75,11.69,0,11.69,0-3.94,1.56-8.42,4.79-13.42,8.82h0C291,165,285.11,170.42,279.31,176.69Z"/><path class="cls-5" d="M264.37,194.22c-2.88,3.38-4.64,5.57-4.64,5.57l0.15-.74c0.36-1.73.72-3.06,1.1-5.06h2.47Z"/><path class="cls-5" d="M279.47,177.57l-0.15-.88C285.12,170.42,291,165,294,163.87h0A165.73,165.73,0,0,0,279.47,177.57Z"/><path class="cls-3" d="M289.91,140.74c-8.86,4.58-20.74,17.66-28.86,53.32-0.37,1.64-.77,3.3-1.13,5l-0.46.72-7.37-.53c-1.35-.61-2.08-1-2.08-1V125.06C255,123.56,286.31,137.74,289.91,140.74Z"/><path class="cls-4" d="M252.07,199H252c4.72,2,15.55,7.46,17.9,11.59,0,0-7.14,13.75-13,24.81-1.52,2.88-2.82,5.62-4,7.86-1.52,2.86-3,5-3,5.71V198.32A3.15,3.15,0,0,0,252.07,199Z"/><path class="cls-8" d="M273.71,182.92c1.82-2.09,3.71-4.23,5.58-6.26L283.57,200h-7.78a1.36,1.36,0,0,1-.5-0.22,12.35,12.35,0,0,0,2.61-7.57A12.5,12.5,0,0,0,273.71,182.92Z"/><path class="cls-9" d="M273.71,182.92a12.53,12.53,0,0,1,4.19,9.3,12.39,12.39,0,0,1-2.61,7.58h0c-4.23-2.05-9.36-2.43-15.55,0C259.74,199.81,266.2,191.55,273.71,182.92Z"/><ellipse class="cls-8" cx="269.28" cy="194.89" rx="1.38" ry="1.86"/><path class="cls-10" d="M294,235.08l0,0v-0.16c5.32-19.78.13-69.39,0-71l0,0c5-4,9.48-7.27,13.42-8.82,0,0-8.94-2.75-11.69,0,0,0,4.5-7,8.75-6.5,0,0-8.25-5.75-13-1,0,0,5.08-8.76,10.5-8.76,0,0-5.15-1.7-12.15,1.89C286,137.58,255,123.57,250,125.06v73.27l1.26,0.59a2.9,2.9,0,0,1-1.26-.59V355s-1.38.61,9.87,0a27.42,27.42,0,0,0,4.87-.74c0.6-.14,1.21-0.3,1.81-0.48l-1.54.48v7a8.57,8.57,0,0,1-1.47,4.28l-6.46,8.64c-0.74,1-.44,1.8.66,1.8h3a3.43,3.43,0,0,0,2.85-2.2l3-7.82c0.47-1.23.88-1.13,0.91,0.22l0.19,7.37a2.31,2.31,0,0,0,2.06,2.43h4.83c1.1,0,1.45-.85.77-1.91l-5.32-8.4c-0.68-1.07-.5-1.31.4-0.52l10.7,9.43a6.36,6.36,0,0,0,3.63,1.4h6c1.1,0,1.2-.52.21-1.12l-16.39-10.13a5,5,0,0,1-1.84-3.68l-0.05-9.55c-1.11.51-2.33,1-3.53,1.4q1.71-.63,3.39-1.4c13.74-6.3,25.31-18.9,25.31-18.9L295.53,305l2.32,27.62c5.56,11.25,11.88,22.41,11.88,22.41C319.57,324.55,294.83,238,294,235.08Zm-16,52.9a5,5,0,0,0,0,.54l1.26,11.75L278,288.53A5.07,5.07,0,0,1,277.94,288Zm-8.06-77.25s-7.12,13.68-12.93,24.73l-0.31.59L256,237.34c0.33-.64.66-1.29,1-1.95,5.52-10.51,12.25-23.45,12.89-24.7Zm-10.14-10.94,0.4-.5-0.41.52v0Zm3.71-5.79,0.79,0.19h0Zm11.85,5.79,0.11,0.06-0.12,0h0Zm0.49,0.21h0ZM259,199.81l-6.43-.47h-0.14l6.56,0.48h0Zm34.4,79.88L290.74,248a13.11,13.11,0,0,0-4.92-9h0a13.16,13.16,0,0,1,4.9,9l2.66,31.69h0Zm-7.75-108.33c1.88-1.83,3.79-3.6,5.73-5.28C289.47,167.76,287.55,169.54,285.65,171.36Zm8.31-7.47h0l0,0Zm-0.07,0h0c-3,1.23-8.84,6.57-14.57,12.77l0.14,0.84h0l-0.15-.85C285,170.49,290.87,165.15,293.9,163.92Zm-43.83,84.71c0.29-.92,1.55-2.85,2.88-5.35,9.13-.48,16.24-1.2,21.76-2h0c-5.54.83-12.58,1.55-21.76,2-1.33,2.5-2.59,4.43-2.88,5.34h0ZM256.74,305a3.63,3.63,0,0,0,3.48-2.94l0.72-4.46-0.72,4.46A3.63,3.63,0,0,1,256.74,305Zm7.16-16.7c-0.28-.79-0.58-1.16-0.85-1.13,0.27,0,.58.33,0.85,1.12l3.21,9.19ZM276.74,305a2.62,2.62,0,0,0,2.68-2.36A2.62,2.62,0,0,1,276.74,305Zm2.5-16.9-0.12-.17,0.12,0.17,8.92,14.39a3.84,3.84,0,0,0,.48.59,3.66,3.66,0,0,1-.48-0.58Z"/><path class="cls-3" d="M178.75,465.94V465h5.63v1.88h1.88v1.88h1.88v5.63h-1.87v1.88h-1.87v1.88h-5.62v-1.87h-1.87v-1.87H175v-5.62h1.88v-1.87h1.88v-0.94Zm3.75,1.88v-0.94h-3.75v7.5h1.88v1.88h3.75v-7.5H182.5v-0.94Z"/><path class="cls-3" d="M195.63,465.94V465h3.75v11.25h3.75v1.88H191.88v-1.87h3.75v-7.5h-1.87v-1.87h1.88v-0.94Z"/><path class="cls-3" d="M208.75,465.94V465h7.5v1.88h-5.62v1.88h-1.87v1.88h7.5v1.88h1.88v3.75h-1.87v1.88h-9.37v-1.87H205v-7.5h1.88v-1.87h1.88v-0.94Zm5.63,8.44V472.5h-5.62v3.75h5.63v-1.87Z"/><path class="cls-3" d="M235,471.56V465h11.25v1.88h1.88v5.63h-1.87v1.88h-7.5v3.75H235v-6.56Zm9.38-1.87v-2.81h-5.62v5.63h5.63v-2.81Z"/><path class="cls-3" d="M251.88,465.94V465h11.25v1.88h-3.75v9.38h3.75v1.88H251.88v-1.87h3.75v-9.37h-3.75v-0.94Z"/><path class="cls-3" d="M265,471.56V465h9.38v1.88h1.88v1.88h1.88v5.63h-1.87v1.88h-1.87v1.88H265v-6.56Zm7.5-3.75v-0.94h-3.75v9.38h3.75v-1.87h1.88v-5.62H272.5v-0.94Z"/><path class="cls-3" d="M283.75,465.94V465h9.38v1.88h-7.5v1.88h-1.87v5.63h1.88v1.88h3.75V472.5H287.5v-1.87h5.63v7.5h-9.37v-1.87h-1.87v-1.87H280v-5.62h1.88v-1.87h1.88v-0.94Z"/><path class="cls-3" d="M295,471.56V465h13.13v1.88h-9.37v3.75h7.5v1.88h-7.5v3.75h9.38v1.88H295v-6.56Z"/><path class="cls-3" d="M311.88,467.81V465h3.75v5.63h3.75V465h3.75v5.63h-1.87v1.88h-1.87v5.63h-3.75V472.5h-1.87v-1.87h-1.87v-2.81Z"/></svg>