<?xml version="1.0" ?><svg id="pkft" viewBox="0 0 500 500" xmlns="http://www.w3.org/2000/svg"><defs><style>.cls-1{fill:#ccc;}.cls-2{fill:#aa602e;}.cls-3{fill:none;}.cls-4{fill:#cc3e47;}.cls-5{fill:#db93c0;}.cls-15,.cls-6{fill:#1a1a1a;}.cls-7{fill:#f1f2b8;}.cls-8{fill:#ba6831;}.cls-9{fill:#f2f2f2;}.cls-10{fill:#b53749;}.cls-11{fill:#c43b48;}.cls-12{fill:#e0a4cc;}.cls-13{fill:#edd8b9;}.cls-14{fill:#efe5b9;}.cls-15{opacity:0.1;}.cls-16{fill:#b74e32;}</style></defs><title/><path class="cls-1" d="M197.22,405.55c-1.18,1.21-2.77,2.76-2.77,2.76l7.46-2.31h-3.47A1.43,1.43,0,0,1,197.22,405.55Z"/><path class="cls-1" d="M216.54,406a2.48,2.48,0,0,1-.56-0.11c-0.43,2.38-1.25,6.22-1.25,6.22l5.56-6.16s-0.09,0-.14,0h-3.62Z"/><path class="cls-1" d="M233.68,406c0.82,1.92,2.22,4.92,2.22,4.92l1.66-4.88h-3.85S233.7,406,233.68,406Z"/><path class="cls-2" d="M214.59,207.1a25.05,25.05,0,0,0-6.24,2.83S110.43,216,79.08,252.17c0,0,5.22-2.27,13.4-5.45,21.78-8.49,64.6-23.53,86.08-19.83,0,0,2.12,51.22,4.39,60.32a4.94,4.94,0,0,0,.39,1.14v0a282.5,282.5,0,0,0,7.8,44.41l37-5.46L250,259.41v-41.6Z"/><path class="cls-3" d="M240.9,131.34l0.08,0.23,0-.07Z"/><path class="cls-3" d="M240.65,130.7c-0.14-.37-0.29-0.75-0.44-1.11C240.36,130,240.51,130.33,240.65,130.7Z"/><path class="cls-3" d="M237.2,123.93c-0.21-.32-0.42-0.63-0.64-0.94C236.78,123.3,237,123.61,237.2,123.93Z"/><path class="cls-3" d="M236.15,122.4c-0.24-.34-0.5-0.66-0.75-1C235.65,121.73,235.9,122.06,236.15,122.4Z"/><path class="cls-3" d="M239.9,128.89c-0.15-.34-0.31-0.68-0.47-1C239.59,128.21,239.75,128.55,239.9,128.89Z"/><path class="cls-3" d="M238.18,125.52c-0.18-.32-0.37-0.63-0.57-0.94C237.8,124.89,238,125.21,238.18,125.52Z"/><path class="cls-3" d="M239.08,127.17q-0.25-.49-0.51-1Q238.83,126.69,239.08,127.17Z"/><path class="cls-3" d="M233.82,119.51q0.62,0.69,1.2,1.41Q234.44,120.2,233.82,119.51Z"/><path class="cls-4" d="M240.21,129.59c-0.1-.23-0.2-0.46-0.31-0.69C240,129.12,240.11,129.35,240.21,129.59Z"/><path class="cls-4" d="M236.56,123l-0.42-.6Z"/><path class="cls-4" d="M239.43,127.87l-0.35-.7Z"/><path class="cls-4" d="M237.61,124.58l-0.41-.65Z"/><path class="cls-4" d="M240.9,131.34c-0.08-.22-0.17-0.43-0.25-0.64C240.73,130.91,240.82,131.13,240.9,131.34Z"/><path class="cls-4" d="M235.39,121.4l-0.37-.48Z"/><path class="cls-4" d="M238.56,126.21l-0.39-.68Z"/><path class="cls-5" d="M242.34,137.79l0,0C242.35,137.91,242.36,137.9,242.34,137.79Z"/><path class="cls-4" d="M230.71,89.39a9,9,0,0,1,1.84.89,12.12,12.12,0,0,1,1.52,1.14c8.66,7.57,13.67,30.71,15.32,39.62,0.41,2.22.62,3.56,0.62,3.56V89.39C242.61,85.92,230.71,89.39,230.71,89.39Z"/><path class="cls-6" d="M242.34,137.79l0,0C242.35,137.91,242.36,137.9,242.34,137.79Z"/><path class="cls-7" d="M235.68,138.27l-0.2.23Z"/><path class="cls-7" d="M234.86,139.4l-0.13.24Z"/><path class="cls-7" d="M236.73,137.29l-0.28.22Z"/><path class="cls-7" d="M234.53,140l-0.1.23Z"/><path class="cls-7" d="M240.89,135.52c-0.31.06-.62,0.14-0.91,0.22C240.27,135.66,240.57,135.59,240.89,135.52Z"/><path class="cls-7" d="M239.7,135.83l-0.55.18Z"/><path class="cls-7" d="M234.26,140.66l-0.08.22Z"/><path class="cls-7" d="M238.82,136.14l-0.45.18Z"/><path class="cls-7" d="M237.36,136.87l-0.33.21Z"/><path class="cls-7" d="M238.05,136.48l-0.38.2Z"/><path class="cls-7" d="M235.24,138.82l-0.16.24Z"/><path class="cls-7" d="M235.94,138l0.24-.23Z"/><path class="cls-7" d="M233.74,142.79v0Z"/><path class="cls-7" d="M233.86,142.05l0,0.16Z"/><path class="cls-7" d="M234,141.34l-0.05.2Z"/><path class="cls-6" d="M238.38,136.32l-0.32.16Z"/><path class="cls-6" d="M234.43,140.25c-0.06.14-.12,0.28-0.17,0.42C234.31,140.52,234.37,140.38,234.43,140.25Z"/><path class="cls-6" d="M237.67,136.68l-0.31.19Z"/><path class="cls-6" d="M234.72,139.64l-0.19.38Z"/><path class="cls-6" d="M241,131.5l-0.06-.16,0.08,0.23Z"/><path class="cls-6" d="M239.15,136l-0.32.13Z"/><path class="cls-6" d="M235.68,138.27l0.26-.28Z"/><path class="cls-6" d="M240,135.74l-0.28.09Z"/><path class="cls-6" d="M235.48,138.51l-0.24.31Z"/><path class="cls-6" d="M237,137.07l-0.3.22Z"/><path class="cls-6" d="M235.07,139.05l-0.22.35Z"/><path class="cls-6" d="M234.18,140.88c-0.05.15-.1,0.3-0.15,0.46C234.08,141.19,234.13,141,234.18,140.88Z"/><path class="cls-6" d="M233.83,142.22c0,0.19-.07.38-0.1,0.57C233.76,142.59,233.8,142.4,233.83,142.22Z"/><path class="cls-6" d="M236.45,137.51l-0.28.25Z"/><path class="cls-6" d="M233.72,142.89c0,0.21-.05.43-0.07,0.65C233.67,143.33,233.7,143.11,233.72,142.89Z"/><path class="cls-6" d="M234,141.54c0,0.17-.09.34-0.12,0.51C233.9,141.88,233.94,141.71,234,141.54Z"/><path class="cls-8" d="M250,207a45.22,45.22,0,0,1-45.22-45.22c-11.71-25.62.5-43.83,7.34-51.34l0.82,0.13,0.26-1.46-1.67-.54-0.42-1S186.7,123.31,204.78,207c0,0,21.7,27.12,45.22,18.08V207Z"/><path class="cls-7" d="M233.66,143.55a32,32,0,0,0-7.27,1.31c-14.08,4.24-21.6,16.88-21.6,16.88A45.22,45.22,0,0,0,250,207V179.82S232.69,156.48,233.66,143.55Z"/><path class="cls-6" d="M219.33,111.4c-2.18-.79-4.33-1.47-6.25-2l-0.84.89c-6.81,7.42-19.24,25.7-7.46,51.47,0,0,7.52-12.64,21.6-16.88l0.27-.07C204.25,144.81,215,120,219.33,111.4Z"/><path class="cls-9" d="M233.66,143.55c0-.22,0-0.44.07-0.65v-0.11c0-.19.06-0.38,0.1-0.57l0-.16c0-.17.08-0.34,0.12-0.51l0.05-.2c0-.16.09-0.31,0.15-0.46l0.08-.22c0.05-.14.11-0.28,0.17-0.42l0.1-.23,0.19-.38,0.13-.24,0.22-.35,0.16-.24,0.24-.31,0.2-.23,0.26-.28,0.24-.23,0.28-.25,0.28-.22,0.3-.22,0.33-.21,0.31-.19,0.38-.2,0.32-.16,0.45-.18,0.32-.13,0.55-.18,0.28-.09c0.29-.08.59-0.15,0.91-0.22l0.93-.17c-0.35-1.59-.76-3.42-0.85-3.79l-0.08-.23c-0.08-.22-0.17-0.43-0.25-0.64-0.14-.37-0.29-0.75-0.44-1.11s-0.2-.46-0.31-0.69-0.31-.68-0.47-1l-0.35-.7q-0.25-.49-0.51-1l-0.39-.68c-0.18-.32-0.37-0.63-0.57-0.94l-0.41-.65c-0.21-.32-0.42-0.63-0.64-0.94l-0.42-.6c-0.24-.34-0.5-0.66-0.75-1l-0.37-.48q-0.58-.72-1.2-1.41c-3-3.32-8.87-6.07-14.5-8.11-4.36,8.56-15.08,33.4,7.33,33.38a31.87,31.87,0,0,1,7-1.24h0Z"/><ellipse cx="229.2" cy="134.61" rx="8.1" ry="4.59" transform="translate(48.87 329.88) rotate(-77.7)"/><ellipse class="cls-9" cx="229.2" cy="134.61" rx="3.84" ry="2.17" transform="matrix(0.21, -0.98, 0.98, 0.21, 48.87, 329.88)"/><path class="cls-10" d="M247.37,134.69a81.68,81.68,0,0,0-5-12.89c2.37,6.57,4.49,12.93,4.49,12.93,1-.07,2.07-0.12,3.11-0.12,0,0-.2-1.34-0.62-3.56A5.61,5.61,0,0,1,247.37,134.69Z"/><path class="cls-10" d="M242.4,121.8a63.28,63.28,0,0,0-9.2-14.25c-3.93-4.45-8.74-8.16-14.54-9.84a63.6,63.6,0,0,0-13,9.8c0.15,0,3.25.65,7.4,1.86,6.86,2,16.62,5.54,20.74,10.14q0.62,0.69,1.2,1.41l0.37,0.48c0.26,0.33.51,0.66,0.75,1l0.42,0.6c0.22,0.31.43,0.62,0.64,0.94l0.41,0.65c0.19,0.31.38,0.62,0.57,0.94l0.39,0.68q0.26,0.48.51,1l0.35,0.7c0.16,0.34.32,0.68,0.47,1s0.21,0.46.31,0.69,0.3,0.74.44,1.11c0.08,0.21.17,0.43,0.25,0.64L241,131.5l0,0.07c0.08,0.37.5,2.2,0.85,3.79a46.37,46.37,0,0,1,5.07-.63S244.77,128.37,242.4,121.8Z"/><path class="cls-11" d="M234.06,91.42a12.12,12.12,0,0,0-1.52-1.14C220.67,91.35,215,96.92,215,96.92a24.22,24.22,0,0,1,3.64.78c5.79,1.68,10.61,5.4,14.54,9.84a63.28,63.28,0,0,1,9.2,14.25,81.68,81.68,0,0,1,5,12.89,5.61,5.61,0,0,0,2-3.64C247.73,122.13,242.72,99,234.06,91.42Z"/><path class="cls-5" d="M246.89,134.73a46.37,46.37,0,0,0-5.07.63l-0.93.17c-4.88,1-6.93,4-7.23,8-1,12.93,16.34,36.28,16.34,36.28V134.61C249,134.61,247.92,134.65,246.89,134.73Zm-4.55,3.06c0,0.11,0,.11,0,0Z"/><path class="cls-12" d="M239.74,403.53l-6.57-13.26a13.75,13.75,0,0,1-1.17-5.16V371.44c-2-.42-3.84-0.9-5.67-1.44l-0.57,9.08a7.06,7.06,0,0,1-2.28,4.41L197.86,404.2c-0.65.52-.84,1-0.63,1.35a1.43,1.43,0,0,0,1.23.45h3.62a7.6,7.6,0,0,0,4.63-2L221,389.76c1.06-1.05,1.37-.84.71,0.5L215,403.49a1.53,1.53,0,0,0,.94,2.41,2.48,2.48,0,0,0,.56.11h3.62s0.09-.06.14-0.06a3.91,3.91,0,0,0,3.36-2.61l3.87-12.9c0.43-1.43,1-1.4,1.18.08l1.91,12.72a3.3,3.3,0,0,0,3.08,2.72s0,0,0,0h4.52A1.57,1.57,0,0,0,239.74,403.53Z"/><path class="cls-7" d="M190,274.78v57.88c0,16.73,15,31.1,36.13,37.35,1.83,0.54,3.78,1,5.7,1.44A86.29,86.29,0,0,0,250,373.35V234.08C217,234.08,190,252.3,190,274.78Z"/><path class="cls-3" d="M79.08,252.17l13.4-5.45C84.3,249.9,79.08,252.17,79.08,252.17Z"/><path class="cls-3" d="M94.1,264.11L97,263v-1.79Z"/><path class="cls-13" d="M94.19,264.11L79,279.3a9,9,0,0,1-13.34,7.94,57.63,57.63,0,0,0-3.19,5.13,9,9,0,0,0-1.14,2.46,4.43,4.43,0,0,0-.37,2.56,9,9,0,1,0,18,0L97,279.3V260.76C96,261.14,94.85,263.41,94.19,264.11Z"/><path class="cls-13" d="M180.13,270.63c0.51,6.61,1.08,12.25,1.66,15.36C181.22,281.07,180.65,275.76,180.13,270.63Z"/><path class="cls-13" d="M115.08,279.3a9,9,0,1,1-18.08,0v18.09a9.11,9.11,0,0,0,9.13,9,8.93,8.93,0,0,0,8.92-9l18-18.09V261.21Z"/><path class="cls-13" d="M182.83,287.26a10,10,0,0,1-4.53,1.08,9.27,9.27,0,0,1-9.3-9v18.09a9.27,9.27,0,0,0,9.3,9,22.17,22.17,0,0,0,7-1.44C184.57,302.17,183.77,295.34,182.83,287.26Z"/><path class="cls-13" d="M151.17,279.3a9.09,9.09,0,0,1-18.17,0v18.09a9.19,9.19,0,0,0,9.21,9,8.9,8.9,0,0,0,8.87-9L169,279.3V261.21Z"/><path class="cls-14" d="M182,287.21c-0.09-.34-0.17-0.76-0.26-1.22l0.15,1.27Z"/><path class="cls-14" d="M79.08,279.3l15.19-15.19-1.79.69-13.4,5.45s-8,9.14-13.37,17A9,9,0,0,0,79.08,279.3Z"/><path class="cls-14" d="M182.69,286c-0.58-3.11-1.14-8.75-1.66-15.36-1.42-18.21-2.47-43.75-2.47-43.75-21.48-3.7-64.29,11.34-86.08,19.83l-13.4,5.45s-12.14,13.88-16.57,22.11a9,9,0,0,0-1.15,2.46A4.44,4.44,0,0,0,61,279.3a9,9,0,0,0,4.71,7.94c5.38-7.85,13.37-17,13.37-17l13.4-5.45c0.58-.23,1.1-0.46,1.71-0.69l2.81-2.9V279.3a9.11,9.11,0,0,0,9.13,9,8.93,8.93,0,0,0,8.92-9l18-18.09V279.3a9.19,9.19,0,0,0,9.21,9,8.9,8.9,0,0,0,8.87-9L169,261.21V279.3a9.27,9.27,0,0,0,9.3,9,9.5,9.5,0,0,0,4.41-1.08C182.66,286.84,182.74,286.42,182.69,286Z"/><path class="cls-1" d="M302.69,405.55c1.18,1.21,2.77,2.76,2.77,2.76L298,406h3.47A1.43,1.43,0,0,0,302.69,405.55Z"/><path class="cls-1" d="M283.38,406a2.48,2.48,0,0,0,.56-0.11c0.43,2.38,1.25,6.22,1.25,6.22L279.62,406s0.09,0,.14,0h3.62Z"/><path class="cls-1" d="M266.23,406c-0.82,1.92-2.22,4.92-2.22,4.92L262.35,406h3.85S266.22,406,266.23,406Z"/><path class="cls-2" d="M285.37,207.1a25.14,25.14,0,0,1,6.22,2.83s97.9,6.06,129.25,42.24c0,0-5.23-2.27-13.41-5.45-21.78-8.49-64.6-23.53-86.08-19.83,0,0-2.12,51.22-4.39,60.32a4.93,4.93,0,0,1-.39,1.14v0a282.5,282.5,0,0,1-7.8,44.41l-36.93-5.46L250,259.41v-41.6Z"/><path class="cls-3" d="M259,131.34l-0.08.23,0-.07Z"/><path class="cls-3" d="M259.27,130.7c0.14-.37.29-0.75,0.44-1.11C259.55,130,259.41,130.33,259.27,130.7Z"/><path class="cls-3" d="M262.72,123.93c0.21-.32.42-0.63,0.64-0.94C263.14,123.3,262.92,123.61,262.72,123.93Z"/><path class="cls-3" d="M263.77,122.4c0.24-.34.5-0.66,0.75-1C264.27,121.73,264,122.06,263.77,122.4Z"/><path class="cls-3" d="M260,128.89c0.15-.34.31-0.68,0.47-1C260.32,128.21,260.17,128.55,260,128.89Z"/><path class="cls-3" d="M261.74,125.52c0.18-.32.37-0.63,0.57-0.94C262.11,124.89,261.92,125.21,261.74,125.52Z"/><path class="cls-3" d="M260.84,127.17q0.25-.49.51-1Q261.09,126.69,260.84,127.17Z"/><path class="cls-3" d="M266.1,119.51q-0.62.69-1.2,1.41Q265.48,120.2,266.1,119.51Z"/><path class="cls-4" d="M259.71,129.59c0.1-.23.2-0.46,0.31-0.69C259.91,129.12,259.81,129.35,259.71,129.59Z"/><path class="cls-4" d="M263.35,123l0.42-.6Z"/><path class="cls-4" d="M260.49,127.87l0.35-.7Z"/><path class="cls-4" d="M262.31,124.58l0.41-.65Z"/><path class="cls-4" d="M259,131.34c0.08-.22.17-0.43,0.25-0.64C259.18,130.91,259.1,131.13,259,131.34Z"/><path class="cls-4" d="M264.52,121.4l0.37-.48Z"/><path class="cls-4" d="M261.35,126.21l0.39-.68Z"/><path class="cls-5" d="M257.58,137.79l0,0C257.57,137.91,257.56,137.9,257.58,137.79Z"/><path class="cls-4" d="M269.25,89.39a9.1,9.1,0,0,0-1.86.89,12.2,12.2,0,0,0-1.53,1.14C257.21,99,252.23,122.13,250.58,131c-0.41,2.22-.58,3.56-0.58,3.56V89.39C257,85.92,269.25,89.39,269.25,89.39Z"/><path class="cls-6" d="M257.58,137.79l0,0C257.57,137.91,257.56,137.9,257.58,137.79Z"/><path class="cls-7" d="M264.24,138.27l0.2,0.23Z"/><path class="cls-7" d="M265.06,139.4l0.13,0.24Z"/><path class="cls-7" d="M263.18,137.29l0.28,0.22Z"/><path class="cls-7" d="M265.39,140l0.1,0.23Z"/><path class="cls-7" d="M259,135.52c0.31,0.06.62,0.14,0.91,0.22C259.65,135.66,259.34,135.59,259,135.52Z"/><path class="cls-7" d="M260.22,135.83l0.55,0.18Z"/><path class="cls-7" d="M265.66,140.66l0.08,0.22Z"/><path class="cls-7" d="M261.1,136.14l0.45,0.18Z"/><path class="cls-7" d="M262.56,136.87l0.33,0.21Z"/><path class="cls-7" d="M261.87,136.48l0.38,0.2Z"/><path class="cls-7" d="M264.68,138.82l0.16,0.24Z"/><path class="cls-7" d="M264,138l-0.24-.23Z"/><path class="cls-7" d="M266.18,142.79v0Z"/><path class="cls-7" d="M266.06,142.05l0,0.16Z"/><path class="cls-7" d="M265.88,141.34l0.05,0.2Z"/><path class="cls-6" d="M261.54,136.32l0.32,0.16Z"/><path class="cls-6" d="M265.49,140.25c0.06,0.14.12,0.28,0.17,0.42C265.61,140.52,265.55,140.38,265.49,140.25Z"/><path class="cls-6" d="M262.25,136.68l0.31,0.19Z"/><path class="cls-6" d="M265.19,139.64l0.19,0.38Z"/><path class="cls-6" d="M259,131.5l0.06-.16-0.08.23Z"/><path class="cls-6" d="M260.77,136l0.32,0.13Z"/><path class="cls-6" d="M264.24,138.27L264,138Z"/><path class="cls-6" d="M259.94,135.74l0.28,0.09Z"/><path class="cls-6" d="M264.44,138.51l0.24,0.31Z"/><path class="cls-6" d="M262.89,137.07l0.3,0.22Z"/><path class="cls-6" d="M264.85,139.05l0.22,0.35Z"/><path class="cls-6" d="M265.74,140.88c0.05,0.15.1,0.3,0.15,0.46C265.84,141.19,265.79,141,265.74,140.88Z"/><path class="cls-6" d="M266.09,142.22c0,0.19.07,0.38,0.1,0.57C266.16,142.59,266.12,142.4,266.09,142.22Z"/><path class="cls-6" d="M263.46,137.51l0.28,0.25Z"/><path class="cls-6" d="M266.19,142.89c0,0.21.05,0.43,0.07,0.65C266.25,143.33,266.22,143.11,266.19,142.89Z"/><path class="cls-6" d="M265.94,141.54c0,0.17.09,0.34,0.12,0.51C266,141.88,266,141.71,265.94,141.54Z"/><path class="cls-8" d="M250,207a45.16,45.16,0,0,0,45.18-45.22c11.71-25.62-.52-43.83-7.36-51.34l-0.83.13-0.27-1.46,1.66-.54,0.42-1s24.46,15.81,6.37,99.47c0,0-22.18,27.12-45.18,18.08V207Z"/><path class="cls-7" d="M266.3,143.55a31.79,31.79,0,0,1,7.25,1.31c14.08,4.24,21.63,16.88,21.63,16.88A45.17,45.17,0,0,1,250,207V179.82S267.26,156.48,266.3,143.55Z"/><path class="cls-6" d="M280.59,111.4c2.18-.79,4.33-1.47,6.25-2l0.84,0.89c6.81,7.42,19.24,25.7,7.46,51.47,0,0-7.52-12.64-21.6-16.88l-0.27-.07C295.67,144.81,285,120,280.59,111.4Z"/><path class="cls-9" d="M266.26,143.55c0-.22,0-0.44-0.07-0.65v-0.11c0-.19-0.06-0.38-0.1-0.57l0-.16c0-.17-0.08-0.34-0.12-0.51l-0.05-.2c0-.16-0.09-0.31-0.15-0.46l-0.08-.22c-0.05-.14-0.11-0.28-0.17-0.42l-0.1-.23-0.19-.38-0.13-.24-0.22-.35-0.16-.24-0.24-.31-0.2-.23L264,138l-0.24-.23-0.28-.25-0.28-.22-0.3-.22-0.33-.21-0.31-.19-0.38-.2-0.32-.16-0.45-.18-0.32-.13-0.55-.18-0.28-.09c-0.29-.08-0.59-0.15-0.91-0.22l-0.93-.17c0.35-1.59.76-3.42,0.85-3.79l0.08-.23c0.08-.22.17-0.43,0.25-0.64,0.14-.37.29-0.75,0.44-1.11s0.2-.46.31-0.69,0.31-.68.47-1l0.35-.7q0.25-.49.51-1l0.39-.68c0.18-.32.37-0.63,0.57-0.94l0.41-.65c0.21-.32.42-0.63,0.64-0.94l0.42-.6c0.24-.34.5-0.66,0.75-1l0.37-.48q0.58-.72,1.2-1.41c3-3.32,8.87-6.07,14.5-8.11,4.36,8.56,15.08,33.4-7.33,33.38a31.87,31.87,0,0,0-7-1.24h0Z"/><ellipse cx="270.72" cy="134.61" rx="4.59" ry="8.1" transform="translate(-22.46 60.74) rotate(-12.3)"/><ellipse class="cls-9" cx="270.72" cy="134.61" rx="2.17" ry="3.84" transform="translate(-22.46 60.74) rotate(-12.3)"/><path class="cls-10" d="M252.54,134.69a81.68,81.68,0,0,1,5-12.89c-2.37,6.57-4.49,12.93-4.49,12.93-1-.07-2.07-0.12-3.11-0.12,0,0,.2-1.34.62-3.56A5.61,5.61,0,0,0,252.54,134.69Z"/><path class="cls-10" d="M257.52,121.8a63.28,63.28,0,0,1,9.2-14.25c3.93-4.45,8.74-8.16,14.54-9.84a63.6,63.6,0,0,1,13,9.8c-0.15,0-3.25.65-7.4,1.86-6.86,2-16.62,5.54-20.74,10.14q-0.62.69-1.2,1.41l-0.37.48c-0.26.33-.51,0.66-0.75,1l-0.42.6c-0.22.31-.43,0.62-0.64,0.94l-0.41.65c-0.19.31-.38,0.62-0.57,0.94l-0.39.68q-0.26.48-.51,1l-0.35.7c-0.16.34-.32,0.68-0.47,1s-0.21.46-.31,0.69-0.3.74-.44,1.11c-0.08.21-.17,0.43-0.25,0.64l-0.06.16,0,0.07c-0.08.37-.5,2.2-0.85,3.79a46.37,46.37,0,0,0-5.07-.63S255.15,128.37,257.52,121.8Z"/><path class="cls-11" d="M265.86,91.42a12.12,12.12,0,0,1,1.52-1.14c11.87,1.07,17.51,6.64,17.51,6.64a24.22,24.22,0,0,0-3.64.78c-5.79,1.68-10.61,5.4-14.54,9.84a63.28,63.28,0,0,0-9.2,14.25,81.68,81.68,0,0,0-5,12.89,5.61,5.61,0,0,1-2-3.64C252.18,122.13,257.19,99,265.86,91.42Z"/><path class="cls-5" d="M250,134.61v45.22s17.26-23.34,16.3-36.28c-0.3-4-2.37-7-7.25-8l-0.94-.17a45.71,45.71,0,0,0-5-.63C252,134.65,251,134.61,250,134.61Zm7.6,3.17c0,0.14,0,.13,0,0Z"/><path class="cls-12" d="M260.17,403.53l6.61-13.26a13.8,13.8,0,0,0,1.21-5.16V371.44c2-.42,3.8-0.9,5.63-1.44l0.55,9.08a7,7,0,0,0,2.27,4.41l25.62,20.71c0.65,0.52.83,1,.63,1.35a1.43,1.43,0,0,1-1.23.45h-3.62a7.6,7.6,0,0,1-4.63-2L279,389.76c-1.06-1.05-1.37-.84-0.71.5l6.62,13.23a1.53,1.53,0,0,1-.94,2.41,2.48,2.48,0,0,1-.56.11h-3.62s-0.09-.06-0.14-0.06a3.91,3.91,0,0,1-3.36-2.61l-3.87-12.9c-0.43-1.43-1-1.4-1.18.08l-1.91,12.72a3.3,3.3,0,0,1-3.08,2.72s0,0,0,0h-4.52A1.57,1.57,0,0,1,260.17,403.53Z"/><path class="cls-7" d="M310,274.78v57.88c0,16.73-15,31.1-36.17,37.35-1.83.54-3.76,1-5.68,1.44A88.3,88.3,0,0,1,250,373.35V234.08C283,234.08,310,252.3,310,274.78Z"/><path class="cls-3" d="M420.84,252.17l-13.4-5.45C415.62,249.9,420.84,252.17,420.84,252.17Z"/><path class="cls-3" d="M405.9,264.11L403,263v-1.79Z"/><path class="cls-13" d="M405.77,264.11L420.9,279.3a9,9,0,0,0,13.33,7.94,57.56,57.56,0,0,1,3.19,5.13,9,9,0,0,1,1.14,2.46,4.43,4.43,0,0,1,.37,2.56,9,9,0,0,1-9,9,8.94,8.94,0,0,1-8.92-9L403,279.3V260.76C404,261.14,405.11,263.41,405.77,264.11Z"/><path class="cls-13" d="M319.79,270.63c-0.51,6.61-1.08,12.25-1.66,15.36C318.7,281.07,319.27,275.76,319.79,270.63Z"/><path class="cls-13" d="M384.88,279.3a9.06,9.06,0,0,0,18.12,0v18.09a9.15,9.15,0,0,1-9.17,9,8.92,8.92,0,0,1-8.89-9L367,279.3V261.21Z"/><path class="cls-13" d="M317.08,287.26a10.21,10.21,0,0,0,4.57,1.08,9.3,9.3,0,0,0,9.34-9v18.09a9.3,9.3,0,0,1-9.34,9,22.3,22.3,0,0,1-7-1.44C315.37,302.17,316.14,295.34,317.08,287.26Z"/><path class="cls-13" d="M348.79,279.3a9.11,9.11,0,0,0,18.21,0v18.09a9.23,9.23,0,0,1-9.25,9,8.88,8.88,0,0,1-8.85-9L331,279.3V261.21Z"/><path class="cls-14" d="M317.88,287.21c0.09-.34.17-0.76,0.26-1.22L318,287.26Z"/><path class="cls-14" d="M420.84,279.3l-15.19-15.19,1.79,0.69,13.4,5.45s8,9.14,13.37,17A9,9,0,0,1,420.84,279.3Z"/><path class="cls-14" d="M317.23,286c0.58-3.11,1.14-8.75,1.66-15.36,1.42-18.21,2.47-43.75,2.47-43.75,21.48-3.7,64.29,11.34,86.08,19.83l13.4,5.45S433,266.05,437.4,274.28a9,9,0,0,1,1.15,2.46,4.44,4.44,0,0,1,.37,2.56,9,9,0,0,1-4.71,7.94c-5.38-7.85-13.37-17-13.37-17l-13.4-5.45c-0.58-.23-1.06-0.46-1.67-0.69l-2.77-2.9V279.3a9.15,9.15,0,0,1-9.17,9,8.92,8.92,0,0,1-8.89-9L367,261.21V279.3a9.23,9.23,0,0,1-9.25,9,8.88,8.88,0,0,1-8.85-9L331,261.21V279.3a9.3,9.3,0,0,1-9.34,9,9.59,9.59,0,0,1-4.43-1.08C317.28,286.84,317.18,286.42,317.23,286Z"/><path class="cls-15" d="M438.56,294.83a9,9,0,0,0-1.14-2.46,58.85,58.85,0,0,0-3.19-5.3,8.83,8.83,0,0,1-4.31.93h0a8.63,8.63,0,0,0,9-8.79,4.3,4.3,0,0,0-.37-2.52,8.87,8.87,0,0,0-1.15-2.43c-4.42-8.23-16.57-22.1-16.57-22.1s-5.22-2.26-13.4-5.45c-19.74-7.69-56.75-20.76-79.51-20.39,22.75-.37,59.77,12.71,79.51,20.4,8.18,3.19,13.41,5.45,13.41,5.45-29.68-34.25-119-41.51-128.43-42.18,1.77-1.81,2.76-3,2.76-3,15.64-72.34-.53-93.95-5.19-98.47,2.48-.65,4.14-1,4.25-1a63.6,63.6,0,0,0-13-9.8,24.25,24.25,0,0,1,3.64-.78s-5.63-5.57-17.49-6.64h0a9.1,9.1,0,0,1,1.86-.89S257,85.92,250,89.39v44.7l-0.08.52H250V373.35a88.36,88.36,0,0,0,18-1.88v13.64a13.8,13.8,0,0,1-1.21,5.16l-6.61,13.26a1.57,1.57,0,0,0,1.5,2.47h0.67l1.66,4.88s1.4-3,2.22-4.92h0a3.3,3.3,0,0,0,3.08-2.72l1.91-12.72c0.22-1.48.75-1.51,1.18-.08l3.87,12.9a3.91,3.91,0,0,0,3.36,2.61s0.09,0.06.14,0.06-0.09,0-.14,0l5.56,6.16s-0.82-3.83-1.25-6.22a1.53,1.53,0,0,0,.94-2.41l-6.62-13.23c-0.67-1.33-.35-1.55.71-0.5L293.22,404a7.6,7.6,0,0,0,4.63,2H298l7.46,2.31s-1.59-1.55-2.77-2.76a1.14,1.14,0,0,1-.78.41,1.14,1.14,0,0,0,.78-0.41c0.21-.31,0-0.82-0.63-1.35L276.44,383.5a7,7,0,0,1-2.27-4.41l-0.54-9,0.2-.05C295,363.75,310,349.39,310,332.66v-5a274.14,274.14,0,0,0,6.58-39.34v0a4.93,4.93,0,0,0,.39-1.14c0.09-.34.17-0.75,0.26-1.21,0,0.42.05,0.84,0,1.26a9.59,9.59,0,0,0,4.43,1.08,10.21,10.21,0,0,1-4.57-1.08c-0.94,8.08-1.72,14.92-2.42,17.73a22.31,22.31,0,0,0,7,1.44,9.3,9.3,0,0,0,9.34-9V279.3l17.89,18.09a8.88,8.88,0,0,0,8.85,9,9.23,9.23,0,0,0,9.25-9V279.3a9.1,9.1,0,0,1-9.11,9h-0.07a9.22,9.22,0,0,0,9.18-9l17.94,18.09a8.92,8.92,0,0,0,8.89,9,9.15,9.15,0,0,0,9.17-9V279.3a9.06,9.06,0,0,1-9.06,9h-0.05a9.15,9.15,0,0,0,9.11-9l18,18.09a8.94,8.94,0,0,0,8.92,9,9,9,0,0,0,9-9A4.43,4.43,0,0,0,438.56,294.83ZM274.9,113.72l1.18-.53Zm-2.42,1.19,0.51-.26Zm1.18-.6,0.58-.28Zm-3.74,2.08,0.36-.23Zm1.21-.74,0.27-.16Zm-2.24,1.43,0.25-.17Zm-1.15.88,0.22-.18Zm-0.9.79,0.23-.21Zm28.33,43,0,0c11.67-25.59-.52-43.78-7.35-51.28h0C294.66,117.91,306.88,136.11,295.18,161.73Zm-8.4-52.34-1.38.42,1.38-.42h0Zm-3,.92c-1,.34-2.12.7-3.2,1.1s-2,.74-3,1.15C279.68,111.71,281.79,111,283.8,110.31Zm1.44-.45-1.41.45ZM276.49,113l0.84-.35Zm72.3,166.29L331,261.21l17.89,18.09a9.17,9.17,0,0,0,2,5.81A9,9,0,0,1,348.79,279.3Zm36.09,0L367,261.21l17.94,18.09a9.14,9.14,0,0,0,1.8,5.47A9,9,0,0,1,384.88,279.3Zm21-15.11-0.08-.08c0.61,0.23,1.09.47,1.67,0.69Z"/><path class="cls-16" d="M156.25,465.94V465h5.63v1.88h1.88v1.88h1.88v5.63h-1.87v1.88h-1.87v1.88h-5.62v-1.87h-1.87v-1.87H152.5v-5.62h1.88v-1.87h1.88v-0.94Zm3.75,1.88v-0.94h-3.75v7.5h1.88v1.88h3.75v-7.5H160v-0.94Z"/><path class="cls-16" d="M173.13,465.94V465h3.75v11.25h3.75v1.88H169.38v-1.87h3.75v-7.5h-1.87v-1.87h1.88v-0.94Z"/><path class="cls-16" d="M182.5,466.88V465h13.13v3.75h-1.87v1.88h-1.87v1.88H190v5.63h-3.75V472.5h1.88v-1.87H190v-1.87h1.88v-1.87h-5.62v1.88H182.5v-1.87Z"/><path class="cls-16" d="M212.5,471.56V465h11.25v1.88h1.88v5.63h-1.87v1.88h-7.5v3.75H212.5v-6.56Zm9.38-1.87v-2.81h-5.62v5.63h5.63v-2.81Z"/><path class="cls-16" d="M229.38,465.94V465h11.25v1.88h-3.75v9.38h3.75v1.88H229.38v-1.87h3.75v-9.37h-3.75v-0.94Z"/><path class="cls-16" d="M242.5,471.56V465h9.38v1.88h1.88v1.88h1.88v5.63h-1.87v1.88h-1.87v1.88H242.5v-6.56Zm7.5-3.75v-0.94h-3.75v9.38H250v-1.87h1.88v-5.62H250v-0.94Z"/><path class="cls-16" d="M261.25,465.94V465h9.38v1.88h-7.5v1.88h-1.87v5.63h1.88v1.88h3.75V472.5H265v-1.87h5.63v7.5h-9.37v-1.87h-1.87v-1.87H257.5v-5.62h1.88v-1.87h1.88v-0.94Z"/><path class="cls-16" d="M272.5,471.56V465h13.13v1.88h-9.37v3.75h7.5v1.88h-7.5v3.75h9.38v1.88H272.5v-6.56Z"/><path class="cls-16" d="M289.38,465.94V465h9.38v1.88h1.88v9.38h-1.87v1.88h-9.37v-1.87H287.5v-9.37h1.88v-0.94Zm7.5,5.63v-4.69h-5.62v9.38h5.63v-4.69Z"/><path class="cls-16" d="M304.38,465.94V465h11.25v1.88h-3.75v11.25h-3.75V466.88h-3.75v-0.94Z"/><path class="cls-16" d="M319.38,465.94V465h11.25v1.88h-3.75v11.25h-3.75V466.88h-3.75v-0.94Z"/><path class="cls-16" d="M334.38,465.94V465h9.38v1.88h1.88v9.38h-1.87v1.88h-9.37v-1.87H332.5v-9.37h1.88v-0.94Zm7.5,5.63v-4.69h-5.62v9.38h5.63v-4.69Z"/></svg>