<?xml version="1.0" ?><svg id="pkft" viewBox="0 0 500 500" xmlns="http://www.w3.org/2000/svg"><defs><style>.cls-1{fill:#aa602e;}.cls-2{fill:#dd8e13;}.cls-3{fill:#e8a40c;}.cls-4{fill:#e9bf0a;}.cls-5{fill:#edd000;}.cls-6{fill:#c43b48;}.cls-7{fill:#e29169;}.cls-8{fill:none;}.cls-9{fill:#ddcd8a;}.cls-10{fill:#e5d9a1;}.cls-11{fill:#e8e1b3;}.cls-12{fill:#999;}.cls-13{fill:#ee874a;}.cls-14{fill:#efe9b9;}.cls-15{fill:#1a1a1a;}.cls-16{fill:#fff;}.cls-17{opacity:0.1;}</style></defs><title/><path class="cls-1" d="M250,420s-38.62,3.33-26.49-38.12c11.82-40.41-11,40.79-31.61,18.13s26.47-47.33,26.47-47.33S187,375,164,361c-13.29-8.1,44.67-31.33,56-31s29.67,3.67,29.67,3.67L250,400v20Z"/><path class="cls-2" d="M228,71.38c14.54,4.78,19.58,37.28,20.93,48.86,0.36,0,.72,0,1.08,0V70S235.51,68.54,228,71.38Z"/><path class="cls-3" d="M228,71.38c-5.07-1.67-11.29,0-18.92,7.17,16.3-3.08,31.23,29.15,36.54,42.15q0.7-.16,1.41-0.26c0.62-.09,1.26-0.16,1.9-0.2C247.57,108.66,242.53,76.17,228,71.38Z"/><path class="cls-4" d="M209.07,78.55c-4.5.85-9.1,4.39-13.63,11.75C211.16,81,234,110.92,241.67,122a19.83,19.83,0,0,1,3.92-1.32h0C240.29,107.7,225.36,75.48,209.07,78.55Z"/><path class="cls-5" d="M237.4,124.42l0.17,0.13,0.1-.08Z"/><path class="cls-5" d="M195.44,90.31C187.67,94.93,181.63,109.15,180,140l1.08-.23c1-8.8,2.79-17.23,5.71-23.11,2.43-4.89,5.66-8,10-8.1,16.16-.34,33.69,10.88,40.65,15.86l0.28,0a20.06,20.06,0,0,1,4-2.44C234,110.92,211.16,81,195.44,90.31Z"/><path class="cls-6" d="M233.37,128.38l0.41,0.1,0.18-.23Z"/><path class="cls-6" d="M237.4,124.42c-7-5-24.48-16.21-40.65-15.86-4.3.09-7.53,3.21-10,8.1-2.92,5.88-4.68,14.3-5.71,23.11C178.82,159,180,180,180,180s4.39-18.25,10.74-29.94c-0.51-5.77-.74-9.79-0.74-9.79l1.37-2.75L200,120.21l33.37,8.18,0.59-.13a20.28,20.28,0,0,1,3.61-3.71Z"/><path class="cls-7" d="M245.59,120.71l0,0v0h0Z"/><path class="cls-8" d="M196.84,166.21c0-.15,0-0.3,0-0.45C196.87,165.91,196.86,166.06,196.84,166.21Z"/><path class="cls-8" d="M197,164.93l0.06-.43Z"/><path class="cls-8" d="M196.69,168.2c0-.21,0-0.42,0-0.63C196.72,167.78,196.7,168,196.69,168.2Z"/><path class="cls-8" d="M197.61,161.62l0.05-.22Z"/><path class="cls-8" d="M197.92,160.44l0-.13Z"/><path class="cls-8" d="M197.19,163.62v0Z"/><path class="cls-8" d="M196.65,169.66q0-.39,0-0.78C196.66,169.14,196.65,169.4,196.65,169.66Z"/><path class="cls-8" d="M197.12,177.46c-0.05-.41-0.1-0.83-0.15-1.25C197,176.63,197.06,177,197.12,177.46Z"/><path class="cls-8" d="M199,157.35l0-.09Z"/><path class="cls-8" d="M196.65,171.41c0-.34,0-0.67,0-1Q196.64,170.9,196.65,171.41Z"/><path class="cls-8" d="M196.93,175.84q-0.05-.49-0.09-1Q196.88,175.35,196.93,175.84Z"/><path class="cls-8" d="M197.27,178.53l0.2-.9-0.35-.17C197.16,177.82,197.21,178.18,197.27,178.53Z"/><path class="cls-8" d="M196.7,172.82q0-.44,0-0.89Q196.68,172.38,196.7,172.82Z"/><path class="cls-8" d="M196.8,174.51q0-.62-0.08-1.25Q196.75,173.89,196.8,174.51Z"/><path class="cls-8" d="M206,148.6l0,0Z"/><path class="cls-8" d="M201,128.26c-1.05,4.5,4.73,13.46,8.28,18.42,5.2-2.49,12.38-3.62,22.22-2.53L230.64,142l-0.7-1.73a19.87,19.87,0,0,1,2.65-9.91l-0.19.36C217.14,122.7,201,128.26,201,128.26Z"/><path class="cls-8" d="M200,190s-0.34-1-.81-2.59l-0.34,1.5A4.75,4.75,0,0,0,200,190Z"/><path class="cls-9" d="M149.93,270.22c-52.56-12.26-33.7-70.14-60.15-92.56-14-11.88-18.69-4.67-36.21-21.31-14.11-13.41-16-49.55-11.47-64-18,8.92-17.33,9.6-17.13,9.65h0c-0.5-.08-9.35-1.58-3.18-12h0C11.56,92,10,151,30,170s25.33,10.77,41.33,24.33C101.52,219.92,80,286,140,300c22.63,5.28,39.57-1.68,51.9-12.39-0.81-7.85-1.37-16-1.66-24.26C180,270.34,166.77,274.15,149.93,270.22Z"/><path class="cls-10" d="M192.24,209.4c-4,5.7-12,12.6-27.24,12.6-26,0-15-180-80-150C64.55,81.44,51,87.91,42.1,92.34c-4.49,14.46-2.64,50.6,11.47,64,17.52,16.64,22.19,9.43,36.21,21.31,26.44,22.41,7.59,80.29,60.15,92.56,16.85,3.93,30.09.12,40.31-6.88q-0.23-6.57-.24-13.29A364.08,364.08,0,0,1,192.24,209.4Z"/><path class="cls-1" d="M199.19,187.41c-0.18-.63-0.38-1.36-0.58-2.17-0.3.52-.64,1.07-1,1.63a11.3,11.3,0,0,0,1.25,2Z"/><path class="cls-1" d="M25,102h0Z"/><polygon class="cls-1" points="125 70.79 120.67 69.46 125.43 72.55 125 70.79"/><path class="cls-1" d="M170,200c-26,0-15-180-80-150S30,80,30,80a53.05,53.05,0,0,0-8.21,10c-6.17,10.42,2.68,11.92,3.18,12-0.2-.05-0.83-0.73,17.13-9.65C51,87.91,64.55,81.44,85,72c65-30,54,150,80,150,15.28,0,23.25-6.9,27.24-12.6l0.13-1.14q0.56-4.81,1.24-9.5,0.63-4.34,1.37-8.54C190.48,195.15,182.81,200,170,200ZM120.67,69.46L125,70.79l0.43,1.76Z"/><path class="cls-11" d="M200.87,180a22.7,22.7,0,0,1-2.27,5.25c0.2,0.81.4,1.54,0.58,2.17Z"/><path class="cls-12" d="M171.39,430.56S161.33,435,160,440c0,0,10.66-5.35,16.5-8H172C170.9,432,170.63,431.35,171.39,430.56Z"/><path class="cls-12" d="M191.34,431.88c-2.11,2-7.61,7.57-7.5,12,0,0,7.83-7.46,12.82-11.9H192A1.66,1.66,0,0,1,191.34,431.88Z"/><path class="cls-12" d="M212.76,432l1.91,9,3.7-9a2,2,0,0,1-.36,0h-5.24Z"/><path class="cls-13" d="M216.82,375c-2.74,9.61-7,22.67-9.82,23-4.5.5-35.61,32.56-35.61,32.56-0.77.79-.49,1.44,0.61,1.44h6a6.17,6.17,0,0,0,3.5-1.32l27.92-24.5c0.83-.73,1-0.61.28,0.26l-18.49,24c-0.51.66-.43,1.23,0.12,1.47a1.66,1.66,0,0,0,.66.12h6a4.61,4.61,0,0,0,3.22-1.58l14.55-18.83c0.67-.87.95-0.73,0.62,0.32l-5.79,18.19A1.38,1.38,0,0,0,212,432h6a2,2,0,0,0,.36,0,2,2,0,0,0,1.64-2V410c0-7.25,1.62-16.74,3.51-25.37A83.91,83.91,0,0,1,216.82,375Z"/><path class="cls-11" d="M248.84,187.13c-5.41.48-29.06,1.75-51.37-9.5l-0.2.9c0.38,2.56.88,4.85,1.34,6.71a22.7,22.7,0,0,0,2.27-5.25l-1.69,7.41C199.66,189,200,190,200,190a4.75,4.75,0,0,1-1.15-1.09,11.3,11.3,0,0,1-1.25-2,27.15,27.15,0,0,1-1.36-3.39q-0.66,3.32-1.25,6.73-0.73,4.21-1.37,8.54-0.68,4.68-1.24,9.5l0.65,0q-0.36.58-.78,1.17A364.08,364.08,0,0,0,190,250.06q0,6.72.24,13.29c0.29,8.3.85,16.41,1.66,24.26,3.74,36.28,12.78,67.22,24.92,87.4a83.91,83.91,0,0,0,6.69,9.62c8,9.84,17,15.37,26.49,15.37V190Z"/><path class="cls-11" d="M193,208.23l-0.65,0-0.13,1.14Q192.66,208.8,193,208.23Z"/><path class="cls-14" d="M246.6,181.56l-15.1-37.42c-9.85-1.09-17,0-22.22,2.53a22,22,0,0,0-3.24,1.9l0,0a20.49,20.49,0,0,0-6.93,8.66l0,0.09a25.79,25.79,0,0,0-1.06,3l0,0.13q-0.14.48-.26,1l-0.05.22q-0.23,1-.41,1.95v0.05c-0.05.29-.1,0.59-0.14,0.88l-0.06.43c0,0.28-.07.55-0.1,0.83s0,0.3,0,.45q-0.07.68-.11,1.36c0,0.21,0,.42,0,0.63s0,0.46,0,.68,0,0.52,0,.78,0,0.49,0,.73,0,0.68,0,1c0,0.18,0,.35,0,0.53s0,0.59,0,.89,0,0.29,0,.43q0,0.63.08,1.25l0,0.34q0,0.5.09,1l0,0.37c0,0.42.09,0.84,0.15,1.25l0.35,0.17c22.32,11.25,46,10,51.38,9.5Z"/><path class="cls-15" d="M233.37,128.38L200,120.21l-8.63,17.32L190,140.27s0.22,4,.74,9.79c0.88,9.84,2.6,24.76,5.5,33.43,1.09,3.25,2.33,5.62,3.77,6.51a65.86,65.86,0,0,1-2.73-11.47c-0.05-.35-0.1-0.71-0.15-1.08s-0.1-.83-0.15-1.25l0-.37q-0.05-.49-0.09-1l0-.34q0-.62-0.08-1.25c0-.14,0-0.29,0-0.43s0-.59,0-0.89,0-.35,0-0.53q0-.5,0-1c0-.24,0-0.49,0-0.73s0-.52,0-0.78,0-.45,0-0.68,0-.42,0-0.63q0-.68.11-1.36c0-.15,0-0.3,0-0.45s0.07-.55.1-0.83l0.06-.43c0-.29.09-0.59,0.14-0.88v-0.05c0.12-.65.25-1.3,0.41-1.95l0.05-.22q0.12-.48.26-1l0-.13a25.79,25.79,0,0,1,1.06-3l0-.09A20.47,20.47,0,0,1,206,148.6l0,0a22,22,0,0,1,3.24-1.9c-3.55-5-9.33-13.91-8.28-18.42,0,0,16.14-5.55,31.4,2.47l0.19-.36a20.39,20.39,0,0,1,1.2-1.87Z"/><path class="cls-15" d="M196.66,171.94c0-.18,0-0.35,0-0.53C196.65,171.58,196.66,171.76,196.66,171.94Z"/><path class="cls-15" d="M197.67,161.4q0.12-.48.26-1Q197.79,160.91,197.67,161.4Z"/><path class="cls-15" d="M198,160.31a25.79,25.79,0,0,1,1.06-3A25.79,25.79,0,0,0,198,160.31Z"/><path class="cls-15" d="M196.83,174.84l0-.34Z"/><path class="cls-15" d="M209.28,146.67a22,22,0,0,0-3.24,1.9,22,22,0,0,1,3.24-1.9h0Z"/><path class="cls-15" d="M196.72,173.26c0-.14,0-0.29,0-0.43C196.71,173,196.71,173.11,196.72,173.26Z"/><path class="cls-15" d="M197,176.21l0-.37Z"/><path class="cls-15" d="M196.65,169.66c0,0.24,0,.49,0,0.73C196.64,170.15,196.64,169.91,196.65,169.66Z"/><path class="cls-15" d="M197.06,164.5c0-.29.09-0.59,0.14-0.88C197.14,163.91,197.1,164.2,197.06,164.5Z"/><path class="cls-15" d="M206,148.6a20.47,20.47,0,0,0-6.93,8.66A20.49,20.49,0,0,1,206,148.6Z"/><path class="cls-15" d="M196.89,165.76c0-.28.07-0.55,0.1-0.83C197,165.21,196.92,165.48,196.89,165.76Z"/><path class="cls-15" d="M196.67,168.88c0-.23,0-0.46,0-0.68C196.68,168.43,196.67,168.65,196.67,168.88Z"/><path class="cls-15" d="M197.2,163.57q0.17-1,.41-1.95C197.46,162.26,197.32,162.91,197.2,163.57Z"/><path class="cls-15" d="M196.73,167.57q0-.68.11-1.36Q196.78,166.89,196.73,167.57Z"/><path class="cls-7" d="M250,190v-3l-1.16.12Z"/><path class="cls-7" d="M248.92,120.24c-0.64,0-1.27.1-1.9,0.2s-0.95.16-1.41,0.26v0l0,0a19.83,19.83,0,0,0-3.92,1.32,20.06,20.06,0,0,0-4,2.44l-0.1.08a20.28,20.28,0,0,0-3.61,3.71l-0.18.23a20.39,20.39,0,0,0-1.2,1.87,19.87,19.87,0,0,0-2.65,9.91l0.7,1.73,0.86,2.14,15.1,37.42,2.25,5.57L250,187V120.21C249.64,120.21,249.28,120.22,248.92,120.24Z"/><path class="cls-16" d="M229.94,140.27a19.83,19.83,0,0,1,2.46-9.55c-15.25-8-31.4-2.47-31.4-2.47-1.05,4.5,4.73,13.46,8.28,18.42a30.14,30.14,0,0,1,9.35-2.6,17.62,17.62,0,0,1-.47-7.56c0.68-5.26,2.94-9.31,5.07-9s3.3,4.76,2.62,10a19.32,19.32,0,0,1-1.81,6.24,64.17,64.17,0,0,1,7.46.41L230.64,142Z"/><path class="cls-15" d="M223.22,127.47c-2.12-.27-4.39,3.77-5.07,9a17.62,17.62,0,0,0,.47,7.56,46.33,46.33,0,0,1,5.42-.33,19.32,19.32,0,0,0,1.81-6.24C226.52,132.23,225.35,127.74,223.22,127.47Zm0.59,7.63c-0.2,1.59-.73,2.83-1.18,2.77s-0.65-1.39-.45-3,0.73-2.83,1.18-2.77S224,133.52,223.81,135.1Z"/><ellipse class="cls-16" cx="223" cy="135" rx="2.9" ry="0.82" transform="translate(60.71 339) rotate(-82.69)"/><path class="cls-1" d="M250,420s39,3.33,26.91-38.12c-11.82-40.41,11,40.79,31.61,18.13s-26.47-47.33-26.47-47.33S313.42,375,336.42,361c13.29-8.1-44.67-31.33-56-31s-29.67,3.67-29.67,3.67L250,400v20Z"/><path class="cls-2" d="M272.22,71.38c-14.54,4.78-18.69,37.35-20,48.92-0.36,0-1.18-.1-2.18-0.1V70S264.7,68.54,272.22,71.38Z"/><path class="cls-3" d="M272.43,71.38c5.07-1.67,11.29,0,18.92,7.17-16.3-3.08-31.23,29.15-36.54,42.15q-0.7-.16-1.41-0.26c-0.62-.09-1.26-0.16-1.9-0.2C252.85,108.66,257.89,76.17,272.43,71.38Z"/><path class="cls-4" d="M291.35,78.55c4.5,0.85,9.1,4.39,13.63,11.75C289.26,81,266.46,110.92,258.75,122a19.83,19.83,0,0,0-3.92-1.32h0C260.13,107.7,275.06,75.48,291.35,78.55Z"/><path class="cls-5" d="M263,124.42l-0.17.13-0.1-.08Z"/><path class="cls-5" d="M305,90.31c7.77,4.62,13.81,18.85,15.44,49.69l-1.08-.23c-1-8.8-2.79-17.23-5.71-23.11-2.43-4.89-5.66-8-10-8.1-16.16-.34-33.69,10.88-40.65,15.86l-0.28,0a20.06,20.06,0,0,0-4-2.44C266.46,110.92,289.26,81,305,90.31Z"/><path class="cls-6" d="M267,128.38l-0.41.1-0.18-.23Z"/><path class="cls-6" d="M263,124.42c7-5,24.48-16.21,40.65-15.86,4.3,0.09,7.53,3.21,10,8.1,2.92,5.88,4.68,14.3,5.71,23.11C321.6,159,320.42,180,320.42,180s-4.39-18.25-10.74-29.94c0.51-5.77.74-9.79,0.74-9.79l-1.37-2.75-8.63-17.32L267,128.38l-0.59-.13a20.28,20.28,0,0,0-3.61-3.71Z"/><path class="cls-7" d="M254.83,120.71l0,0v0h0Z"/><path class="cls-8" d="M303.58,166.21c0-.15,0-0.3,0-0.45C303.55,165.91,303.56,166.06,303.58,166.21Z"/><path class="cls-8" d="M303.43,164.93l-0.06-.43Z"/><path class="cls-8" d="M303.73,168.2c0-.21,0-0.42,0-0.63C303.7,167.78,303.72,168,303.73,168.2Z"/><path class="cls-8" d="M302.81,161.62l-0.05-.22Z"/><path class="cls-8" d="M302.5,160.44l0-.13Z"/><path class="cls-8" d="M303.23,163.62v0Z"/><path class="cls-8" d="M303.77,169.66q0-.39,0-0.78C303.76,169.14,303.77,169.4,303.77,169.66Z"/><path class="cls-8" d="M303.3,177.46c0.05-.41.1-0.83,0.15-1.25C303.41,176.63,303.36,177,303.3,177.46Z"/><path class="cls-8" d="M301.39,157.35l0-.09Z"/><path class="cls-8" d="M303.77,171.41c0-.34,0-0.67,0-1Q303.78,170.9,303.77,171.41Z"/><path class="cls-8" d="M303.49,175.84q0.05-.49.09-1Q303.54,175.35,303.49,175.84Z"/><path class="cls-8" d="M303.15,178.53l-0.2-.9,0.35-.17C303.26,177.82,303.21,178.18,303.15,178.53Z"/><path class="cls-8" d="M303.72,172.82q0-.44,0-0.89Q303.74,172.38,303.72,172.82Z"/><path class="cls-8" d="M303.62,174.51q0-.62.08-1.25Q303.67,173.89,303.62,174.51Z"/><path class="cls-8" d="M294.42,148.6l0,0Z"/><path class="cls-8" d="M299.42,128.26c1.05,4.5-4.73,13.46-8.28,18.42-5.2-2.49-12.38-3.62-22.22-2.53l0.86-2.14,0.7-1.73a19.87,19.87,0,0,0-2.65-9.91l0.19,0.36C283.28,122.7,299.42,128.26,299.42,128.26Z"/><path class="cls-8" d="M300.42,190s0.34-1,.81-2.59l0.34,1.5A4.75,4.75,0,0,1,300.42,190Z"/><path class="cls-9" d="M350.49,270.22c52.56-12.26,33.7-70.14,60.15-92.56,14-11.88,18.69-4.67,36.21-21.31,14.11-13.41,16-49.55,11.47-64,18,8.92,17.33,9.6,17.13,9.65h0c0.5-.08,9.35-1.58,3.18-12h0c10.22,2,11.78,61-8.22,80s-25.33,10.77-41.33,24.33C398.9,219.92,420.42,286,360.42,300c-22.63,5.28-39.57-1.68-51.9-12.39,0.81-7.85,1.37-16,1.66-24.26C320.41,270.34,333.65,274.15,350.49,270.22Z"/><path class="cls-10" d="M308.18,209.4c4,5.7,12,12.6,27.24,12.6,26,0,15-180,80-150,20.45,9.44,34,15.91,42.9,20.34,4.49,14.46,2.64,50.6-11.47,64-17.52,16.64-22.19,9.43-36.21,21.31-26.44,22.41-7.59,80.29-60.15,92.56-16.85,3.93-30.09.12-40.31-6.88q0.23-6.57.24-13.29A364.08,364.08,0,0,0,308.18,209.4Z"/><path class="cls-1" d="M301.23,187.41c0.18-.63.38-1.36,0.58-2.17,0.3,0.52.64,1.07,1,1.63a11.3,11.3,0,0,1-1.25,2Z"/><path class="cls-1" d="M475.45,102h0Z"/><polygon class="cls-1" points="375.42 70.79 379.75 69.46 374.99 72.55 375.42 70.79"/><path class="cls-1" d="M305.44,190.22q0.73,4.21,1.37,8.54,0.68,4.68,1.24,9.5l0.13,1.14c4,5.7,12,12.6,27.24,12.6,26,0,15-180,80-150,20.45,9.44,34,15.91,42.9,20.34,18,8.92,17.33,9.6,17.13,9.65,0.5-.08,9.35-1.58,3.18-12a53.05,53.05,0,0,0-8.21-10s5,0-60-30-54,150-80,150C317.61,200,309.94,195.15,305.44,190.22ZM375,72.55l0.43-1.76,4.33-1.33Z"/><path class="cls-11" d="M299.55,180a22.7,22.7,0,0,0,2.27,5.25c-0.2.81-.4,1.54-0.58,2.17Z"/><path class="cls-12" d="M329,430.56S339.09,435,340.42,440c0,0-10.66-5-16.5-8h4.5C329.52,432,329.79,431.35,329,430.56Z"/><path class="cls-12" d="M309.08,431.88c2.11,2,7.61,7.57,7.5,12,0,0-7.83-7.9-12.82-11.9h4.66A1.66,1.66,0,0,0,309.08,431.88Z"/><path class="cls-12" d="M287.66,432l-1.91,9-3.7-9a2,2,0,0,0,.36,0h5.24Z"/><path class="cls-13" d="M283.6,375c2.74,9.61,7,22.67,9.82,23,4.5,0.5,35.61,32.56,35.61,32.56,0.77,0.79.49,1.44-.61,1.44h-6a6.17,6.17,0,0,1-3.5-1.32L291,406.18c-0.83-.73-1-0.61-0.28.26l18.49,24c0.51,0.66.43,1.23-.12,1.47a1.66,1.66,0,0,1-.66.12h-6a4.61,4.61,0,0,1-3.22-1.58l-14.55-18.83c-0.67-.87-0.95-0.73-0.62.32l5.79,18.19a1.38,1.38,0,0,1-1.39,1.91h-6a4.84,4.84,0,0,1-.57,0,2.2,2.2,0,0,1-1.85-2V410c0-7.25-1.41-16.74-3.3-25.37A84.61,84.61,0,0,0,283.6,375Z"/><path class="cls-11" d="M251.37,187.13c5.41,0.48,29.16,1.75,51.48-9.5,0.07,0.3.19,0.6,0.25,0.9-0.38,2.56-.85,4.85-1.32,6.71a22.24,22.24,0,0,1-2.25-5.25l1.69,7.41c-0.47,1.63-.81,2.59-0.81,2.59a4.75,4.75,0,0,0,1.15-1.09,11.3,11.3,0,0,0,1.25-2,27.15,27.15,0,0,0,1.36-3.39q0.66,3.32,1.25,6.73,0.73,4.21,1.37,8.54,0.68,4.68,1.24,9.5l-0.65,0q0.36,0.58.78,1.17a364.08,364.08,0,0,1,2.24,40.66q0,6.72-.24,13.29c-0.29,8.3-.85,16.41-1.66,24.26-3.74,36.28-12.78,67.22-24.92,87.4a84.61,84.61,0,0,1-6.9,9.62C268.71,394.47,260,400,250,400V190Z"/><path class="cls-11" d="M307.4,208.23l0.65,0,0.13,1.14Q307.76,208.8,307.4,208.23Z"/><path class="cls-14" d="M253.82,181.56l15.1-37.42c9.85-1.09,17,0,22.22,2.53a22,22,0,0,1,3.24,1.9l0,0a20.49,20.49,0,0,1,6.93,8.66l0,0.09a25.79,25.79,0,0,1,1.06,3l0,0.13q0.14,0.48.26,1l0.05,0.22q0.23,1,.41,1.95v0.05c0.05,0.29.1,0.59,0.14,0.88l0.06,0.43c0,0.28.07,0.55,0.1,0.83s0,0.3,0,.45q0.07,0.68.11,1.36c0,0.21,0,.42,0,0.63s0,0.46,0,.68,0,0.52,0,.78,0,0.49,0,.73,0,0.68,0,1c0,0.18,0,.35,0,0.53s0,0.59,0,.89,0,0.29,0,.43q0,0.63-.08,1.25l0,0.34q0,0.5-.09,1l0,0.37c0,0.42-.09.84-0.15,1.25l-0.35.17c-22.32,11.25-46,10-51.38,9.5Z"/><path class="cls-15" d="M267,128.38l33.37-8.18,8.63,17.32,1.37,2.75s-0.22,4-.74,9.79c-0.88,9.84-2.6,24.76-5.5,33.43-1.09,3.25-2.33,5.62-3.77,6.51a65.86,65.86,0,0,0,2.73-11.47c0.05-.35.1-0.71,0.15-1.08s0.1-.83.15-1.25l0-.37q0.05-.49.09-1l0-.34q0-.62.08-1.25c0-.14,0-0.29,0-0.43s0-.59,0-0.89,0-.35,0-0.53q0-.5,0-1c0-.24,0-0.49,0-0.73s0-.52,0-0.78,0-.45,0-0.68,0-.42,0-0.63q0-.68-0.11-1.36c0-.15,0-0.3,0-0.45s-0.07-.55-0.1-0.83l-0.06-.43c0-.29-0.09-0.59-0.14-0.88v-0.05c-0.12-.65-0.25-1.3-0.41-1.95l-0.05-.22q-0.12-.48-0.26-1l0-.13a25.79,25.79,0,0,0-1.06-3l0-.09a20.47,20.47,0,0,0-6.93-8.66l0,0a22,22,0,0,0-3.24-1.9c3.55-5,9.33-13.91,8.28-18.42,0,0-16.14-5.55-31.4,2.47l-0.19-.36a20.39,20.39,0,0,0-1.2-1.87Z"/><path class="cls-15" d="M303.76,171.94c0-.18,0-0.35,0-0.53C303.77,171.58,303.76,171.76,303.76,171.94Z"/><path class="cls-15" d="M302.75,161.4q-0.12-.48-0.26-1Q302.63,160.91,302.75,161.4Z"/><path class="cls-15" d="M302.46,160.31a25.79,25.79,0,0,0-1.06-3A25.79,25.79,0,0,1,302.46,160.31Z"/><path class="cls-15" d="M303.59,174.84l0-.34Z"/><path class="cls-15" d="M291.14,146.67a22,22,0,0,1,3.24,1.9,22,22,0,0,0-3.24-1.9h0Z"/><path class="cls-15" d="M303.7,173.26c0-.14,0-0.29,0-0.43C303.71,173,303.71,173.11,303.7,173.26Z"/><path class="cls-15" d="M303.45,176.21l0-.37Z"/><path class="cls-15" d="M303.77,169.66c0,0.24,0,.49,0,0.73C303.78,170.15,303.78,169.91,303.77,169.66Z"/><path class="cls-15" d="M303.36,164.5c0-.29-0.09-0.59-0.14-0.88C303.28,163.91,303.32,164.2,303.36,164.5Z"/><path class="cls-15" d="M294.42,148.6a20.47,20.47,0,0,1,6.93,8.66A20.49,20.49,0,0,0,294.42,148.6Z"/><path class="cls-15" d="M303.53,165.76c0-.28-0.07-0.55-0.1-0.83C303.46,165.21,303.5,165.48,303.53,165.76Z"/><path class="cls-15" d="M303.76,168.88c0-.23,0-0.46,0-0.68C303.74,168.43,303.75,168.65,303.76,168.88Z"/><path class="cls-15" d="M303.22,163.57q-0.17-1-.41-1.95C303,162.26,303.1,162.91,303.22,163.57Z"/><path class="cls-15" d="M303.69,167.57q0-.68-0.11-1.36Q303.64,166.89,303.69,167.57Z"/><path class="cls-7" d="M250,190v-3l1.16,0.12Z"/><path class="cls-7" d="M251.29,120.24c0.64,0,1.38.1,2,.2s1,0.16,1.46.26c0,0,0,0,0,0l0,0a19.84,19.84,0,0,1,7.93,3.76l0.1,0.08a20.28,20.28,0,0,1,3.61,3.71l0.18,0.23a20.39,20.39,0,0,1,1.2,1.87,19.87,19.87,0,0,1,2.65,9.91l-0.7,1.73-0.86,2.14-15.1,37.42-2.46,5.57L250,187V120.21C251,120.21,250.93,120.22,251.29,120.24Z"/><path class="cls-16" d="M270.48,140.27a19.83,19.83,0,0,0-2.46-9.55c15.25-8,31.4-2.47,31.4-2.47,1.05,4.5-4.73,13.46-8.28,18.42a30.14,30.14,0,0,0-9.35-2.6,17.62,17.62,0,0,0,.47-7.56c-0.68-5.26-2.94-9.31-5.07-9s-3.3,4.76-2.62,10a19.32,19.32,0,0,0,1.81,6.24,64.17,64.17,0,0,0-7.46.41l0.86-2.14Z"/><path class="cls-15" d="M274.58,137.49a19.32,19.32,0,0,0,1.81,6.24,46.33,46.33,0,0,1,5.42.33,17.62,17.62,0,0,0,.47-7.56c-0.68-5.26-2.94-9.31-5.07-9S273.9,132.23,274.58,137.49Zm2.48-5.37c0.45-.06,1,1.18,1.18,2.77s0,2.92-.45,3-1-1.18-1.18-2.77S276.6,132.18,277.05,132.12Z"/><ellipse class="cls-16" cx="277.42" cy="135" rx="0.82" ry="2.9" transform="translate(-14.93 36.42) rotate(-7.31)"/><g class="cls-17"><path d="M478.64,90h0a53.22,53.22,0,0,0-8.21-10s5,0-60-30-54,150-80,150c-12.81,0-20.48-4.85-25-9.78q0.73,4.21,1.37,8.54,0.68,4.68,1.24,9.5h0q-0.56-4.81-1.24-9.5-0.63-4.34-1.37-8.54-0.6-3.41-1.25-6.73h0c2.9-8.67,4.62-23.58,5.5-33.43C316,161.75,320.42,180,320.42,180s1.18-21-1.08-40.23l1.08,0.23c-1.63-30.85-7.67-45.07-15.44-49.69-4.53-7.37-9.13-10.91-13.63-11.75-7.63-7.14-13.85-8.84-18.92-7.17-4.48,1.47-8.06,5.58-10.91,10.9,2.73-5.32,6.22-9.43,10.7-10.9C264.7,68.54,250,70,250,70V187l1.37,0.12,2.46-5.57,15.1-37.42,0.86-2.14,0.48-1.73c0-.44-0.26-0.88-0.26-1.31h0c0,0.43.26,0.87,0.26,1.31L269.68,142l-0.81,2.14L253.8,181.56l-2.23,5.57c1.35,0.12,3.83.29,7.13,0.3-3.41,0-6-.18-7.33-0.3L250,190V400l0.5,0-0.08,20s27,2.33,28.76-21.21A91,91,0,0,1,280,410v20a2.2,2.2,0,0,0,1.85,2l0.22,0,3.69,9,1.91-9h0.76a1.38,1.38,0,0,0,1.39-1.91L284,411.91c-0.33-1-.06-1.19.62-0.32l14.55,18.83a4.61,4.61,0,0,0,3.22,1.58h1.34c5,4,12.82,11.9,12.82,11.9,0.11-4.45-5.39-10-7.5-12,0.55-.24.63-0.8,0.12-1.47l-18.49-24c-0.67-.87-0.54-1,0.28-0.26l27.92,24.5a6.17,6.17,0,0,0,3.5,1.32h1.5c5.84,3,16.5,8,16.5,8-1.33-5-11.39-9.44-11.39-9.44S312.39,413.42,301.69,404c2.27-.28,4.57-1.51,6.83-4,14.35-15.82-4.22-32.61-16.75-41.31l0.13-.31c11.11,5.49,29.57,11.74,44.51,2.62,9.32-5.69-16.43-18.82-36.54-26a292.72,292.72,0,0,0,8.64-47.36c12.32,10.71,29.26,17.67,51.9,12.39,60-14,38.48-80.08,68.67-105.67,16-13.56,21.33-5.33,41.33-24.33S488.85,92,478.64,90ZM302.86,177.68l0.09,0,0.2,0.9c-0.38,2.56-.87,4.85-1.34,6.71l0,0c0.46-1.85.93-4.13,1.31-6.68C303,178.25,302.93,178,302.86,177.68Zm0.36,8.35-0.11.25Zm0.42-1-0.18.45Zm0.51-1.39q-0.16.47-.32,0.91Q304,184.07,304.15,183.61ZM252.05,120.3h0Zm2.71,0.4c-0.46-.1-1-0.19-1.46-0.26l-0.62-.07c0.24,0,.48,0,0.72.07q0.71,0.11,1.41.26h0l0,0S254.75,120.71,254.76,120.7Zm11.87,7.78-0.18-.23a20.28,20.28,0,0,0-3.61-3.71l-0.1-.08a20.09,20.09,0,0,0-4-2.44,19.87,19.87,0,0,0-3.92-1.32h0a19.83,19.83,0,0,1,3.92,1.32,20.06,20.06,0,0,1,4,2.44l0.1,0.08a20.28,20.28,0,0,1,3.61,3.71l0.18,0.23a20.39,20.39,0,0,1,1.2,1.87l0.2,0.37h0l-0.2-.38A20.39,20.39,0,0,0,266.63,128.49Zm1.94,3.32h0v0h0Zm0.5,1.15h0l0-.06h0Zm0.44,1.22v0l0-.13h0Zm0.37,1.29v0l-0.06-.26h0Zm0.29,1.37v0c0-.15,0-0.29-0.07-0.44h0C270.13,136.57,270.15,136.71,270.17,136.84Zm0.21,1.54c0-.23,0-0.47-0.07-0.7h0c0,0.22,0,.44.07,0.66v0ZM299.53,180l0.07,0.27,1.62,7.14h0l-0.1.35-0.08.27-0.1.32-0.07.22-0.09.28-0.05.17-0.08.24,0,0.14-0.06.17,0,0.13,0,0.11,0,0.08,0,0.11h0s0.34-1,.81-2.59Zm8.65,29.4q-0.42-.6-0.78-1.17h0q0.36,0.58.78,1.17a364.08,364.08,0,0,1,2.24,40.66q0,3.36-.06,6.68,0.06-3.32.06-6.68A364.08,364.08,0,0,0,308.18,209.4Z"/><path d="M250,187v3l1.16-2.87Z"/></g><path class="cls-2" d="M171.25,465.94V465h5.63v1.88h1.88v1.88h1.88v5.63h-1.87v1.88h-1.87v1.88h-5.62v-1.87h-1.87v-1.87H167.5v-5.62h1.88v-1.87h1.88v-0.94Zm3.75,1.88v-0.94h-3.75v7.5h1.88v1.88h3.75v-7.5H175v-0.94Z"/><path class="cls-2" d="M188.13,465.94V465h3.75v11.25h3.75v1.88H184.38v-1.87h3.75v-7.5h-1.87v-1.87h1.88v-0.94Z"/><path class="cls-2" d="M199.38,465.94V465h7.5v1.88h1.88v3.75h-1.87v1.88h3.75v3.75h-1.87v1.88h-9.37v-1.87H197.5V472.5h1.88v-1.87H197.5v-3.75h1.88v-0.94Zm3.75,7.5V472.5h-3.75v3.75h7.5v-1.87h-3.75v-0.94Zm3.75-4.69v-1.87h-5.62v1.88h1.88v1.88h3.75v-1.87Z"/><path class="cls-2" d="M227.5,471.56V465h11.25v1.88h1.88v5.63h-1.87v1.88h-7.5v3.75H227.5v-6.56Zm9.38-1.87v-2.81h-5.62v5.63h5.63v-2.81Z"/><path class="cls-2" d="M244.38,465.94V465h11.25v1.88h-3.75v9.38h3.75v1.88H244.38v-1.87h3.75v-9.37h-3.75v-0.94Z"/><path class="cls-2" d="M257.5,471.56V465h9.38v1.88h1.88v1.88h1.88v5.63h-1.87v1.88h-1.87v1.88H257.5v-6.56Zm7.5-3.75v-0.94h-3.75v9.38H265v-1.87h1.88v-5.62H265v-0.94Z"/><path class="cls-2" d="M276.25,465.94V465h9.38v1.88h-7.5v1.88h-1.87v5.63h1.88v1.88h3.75V472.5H280v-1.87h5.63v7.5h-9.37v-1.87h-1.87v-1.87H272.5v-5.62h1.88v-1.87h1.88v-0.94Z"/><path class="cls-2" d="M287.5,471.56V465h13.13v1.88h-9.37v3.75h7.5v1.88h-7.5v3.75h9.38v1.88H287.5v-6.56Z"/><path class="cls-2" d="M304.38,465.94V465h9.38v1.88h1.88v9.38h-1.87v1.88h-9.37v-1.87H302.5v-9.37h1.88v-0.94Zm7.5,5.63v-4.69h-5.62v9.38h5.63v-4.69Z"/><path class="cls-2" d="M319.38,465.94V465h11.25v1.88h-3.75v11.25h-3.75V466.88h-3.75v-0.94Z"/></svg>