<?xml version="1.0" ?><svg id="pkft" viewBox="0 0 500 500" xmlns="http://www.w3.org/2000/svg"><defs><style>.cls-1{fill:none;}.cls-2{fill:#7e3387;}.cls-3{fill:#d6ce96;}.cls-4{fill:#702f7c;}.cls-5{fill:#e8dba7;}.cls-6{fill:#ede8bc;}.cls-7{fill:#fff;}.cls-8{fill:#cecbb6;}.cls-9{fill:#f2f2f2;}.cls-10{fill:#8a041e;}.cls-11{fill:#1a1a1a;opacity:0.1;}</style></defs><title/><path class="cls-1" d="M245.1,196.59a10,10,0,0,0,4.9,1.29l-7.57-3.48A10,10,0,0,0,245.1,196.59Z"/><path class="cls-2" d="M225.35,143.64c-7.74,5.77-13.71,14.29-17.66,21.12a92.87,92.87,0,0,0-5.53,11.14l0.92,0a52.83,52.83,0,0,1,37.62,15.68,10,10,0,0,0,1.73,2.85l7.57,3.48v-60C240.5,135.56,232.23,138.52,225.35,143.64Z"/><path class="cls-3" d="M190.68,253.3l-0.38-1.4c-1.35-5,1.44-11.19,5.76-14.5l-10.31,2.79a12,12,0,0,0-8.45,14.72l0.38,1.4a12,12,0,0,0,14.72,8.45l9.6-2.6A12,12,0,0,1,190.68,253.3Z"/><path class="cls-4" d="M229.64,228.32h0l-1.9.51,1.9-.45Z"/><path class="cls-4" d="M221.92,236.54a23.12,23.12,0,0,0,7.68-8.15l-1.9.45-31.63,8.55c-4.32,3.31-7.11,9.53-5.76,14.5l0.38,1.4A12,12,0,0,0,202,262.16l8.3-2.24C213.61,249.47,217.73,239.44,221.92,236.54Z"/><path class="cls-3" d="M218.68,367.33L214.12,366A12,12,0,0,1,206,351.1l6.82-23.25c-0.06.18-.13,0.35-0.19,0.54l-10.13,34.55a12,12,0,0,0,8.14,14.89l4.56,1.34A12,12,0,0,0,230.07,371l3.31-11.29A12,12,0,0,1,218.68,367.33Z"/><path class="cls-4" d="M233.39,359.73c0.06-.18.13-0.35,0.19-0.54l3.95-13.46h0Z"/><path class="cls-4" d="M213.46,325.59l-0.66,2.26a11.91,11.91,0,0,1,.88-1.93Z"/><path class="cls-4" d="M220.07,334.13a56,56,0,0,1-6.39-8.21,11.91,11.91,0,0,0-.88,1.93L206,351.1A12,12,0,0,0,214.12,366l4.56,1.34a12,12,0,0,0,14.7-7.6l4.11-14A44.48,44.48,0,0,1,220.07,334.13Z"/><path class="cls-5" d="M221.85,309.44c-0.45,3.69-.8,7.33-1.07,10.83-0.39,5.06-.6,9.8-0.72,13.87a44.48,44.48,0,0,0,17.43,11.59h0A37.57,37.57,0,0,0,250,347.88V263.5C232.07,260,224.78,285.55,221.85,309.44Z"/><path class="cls-2" d="M230.9,224.93a14.94,14.94,0,0,1-1.27,3.39,23.05,23.05,0,0,1-7.72,8.22c-4.19,2.89-8.3,12.93-11.62,23.37-4.33,13.64-7.3,28-7.3,28a70.61,70.61,0,0,0,10.46,37.72l0.21,0.33a56,56,0,0,0,6.39,8.21c0.12-4.07.33-8.81,0.72-13.87,0.27-3.49.61-7.14,1.07-10.83C224.78,285.55,232.07,260,250,263.5V228.88A47.89,47.89,0,0,1,230.9,224.93Z"/><path class="cls-5" d="M245.1,196.59a10.07,10.07,0,0,1-4.39-5,52.83,52.83,0,0,0-37.62-15.68l-0.92,0a48.65,48.65,0,0,0-.25,4.89,48.17,48.17,0,0,0,1.41,11.57c-7.94-2.32-17-4.49-23.33-4.49,0,0,12.85,3,23.86,6.45A48,48,0,0,0,250,228.88v-31A10,10,0,0,1,245.1,196.59Z"/><path class="cls-4" d="M225.35,143.64c-2.92-4.3-15.85-22.68-23.35-23.27-5.41-.42-9.83,4.4-9.83,9.83l-6,24A9.83,9.83,0,0,0,196,164a42.49,42.49,0,0,0,11.7.72C211.64,157.93,217.61,149.41,225.35,143.64Z"/><path class="cls-6" d="M204.56,160a31.51,31.51,0,0,1-7.36-.74l-0.58-.18-0.62,0a4.93,4.93,0,0,1-4.89-4.33l5.89-23.9v-0.62c0-2.59,2-4.86,4.25-4.86h0.31c2,0.18,8.67,5.91,17,17.44C212.74,148.1,208.1,155,204.8,160h-0.24Z"/><path class="cls-2" d="M240,187.88a10,10,0,0,0,10,10v-20A10,10,0,0,0,240,187.88Z"/><path class="cls-7" d="M240,212.69L242.9,225H249l1-17.69s-3.17,6.13-4.9,6.13A33.17,33.17,0,0,1,240,212.69Z"/><path class="cls-8" d="M243.75,214.54a6.92,6.92,0,0,1-6.92-6.92,1,1,0,0,1,2,0,4.92,4.92,0,1,0,9.83,0,1.34,1.34,0,0,1,1.33-1C250.55,206.63,247.56,214.54,243.75,214.54Z"/><path class="cls-9" d="M219.9,176.91a11.75,11.75,0,0,1,4-6.15c-2-2.36-3.94-4.21-5.22-4.64,0,0-6.16,12.64-4.6,16.32,0.56,1.34,3.21,2.13,6.35,2.59A11.52,11.52,0,0,1,219.9,176.91Z"/><path class="cls-10" d="M233.78,184.08s-1-1.53-2.52-3.7c-0.72,1.28-1.83,2-2.82,1.74-1.28-.36-1.86-2.28-1.29-4.3a5.44,5.44,0,0,1,.92-1.86c-1.33-1.78-2.76-3.61-4.13-5.21a11.75,11.75,0,0,0-4,6.15,11.52,11.52,0,0,0,.56,8.12,87.4,87.4,0,0,0,12.61.64,1.28,1.28,0,0,0,.61-0.15L234,185A1.31,1.31,0,0,0,233.78,184.08Z"/><path class="cls-9" d="M228.44,182.12c1,0.28,2.1-.46,2.82-1.74-0.91-1.31-2-2.84-3.19-4.42a5.44,5.44,0,0,0-.92,1.86C226.59,179.84,227.16,181.76,228.44,182.12Z"/><path class="cls-1" d="M254.86,196.59a10,10,0,0,1-4.9,1.29l7.57-3.48A10,10,0,0,1,254.86,196.59Z"/><path class="cls-2" d="M274.63,143.64c7.74,5.77,13.7,14.29,17.64,21.12a92.25,92.25,0,0,1,5.53,11.14l-0.92,0a52.83,52.83,0,0,0-37.62,15.68,10,10,0,0,1-1.71,2.85L250,197.88v-60C259,135.56,267.75,138.52,274.63,143.64Z"/><path class="cls-3" d="M309.27,253.3l0.38-1.4c1.35-5-1.44-11.19-5.76-14.5l10.31,2.79a12,12,0,0,1,8.45,14.72l-0.38,1.4a12,12,0,0,1-14.72,8.45l-9.6-2.6A12,12,0,0,0,309.27,253.3Z"/><path class="cls-4" d="M270.32,228.32h0l1.9,0.51-1.9-.45Z"/><path class="cls-4" d="M278,236.54a23.12,23.12,0,0,1-7.68-8.15l1.9,0.45,31.63,8.55c4.32,3.31,7.11,9.53,5.76,14.5l-0.38,1.4A12,12,0,0,1,298,262.16l-8.3-2.24C286.34,249.47,282.23,239.44,278,236.54Z"/><path class="cls-3" d="M281.27,367.33l4.56-1.34A12,12,0,0,0,294,351.1l-6.82-23.25c0.06,0.18.13,0.35,0.19,0.54l10.13,34.55a12,12,0,0,1-8.14,14.89l-4.56,1.34A12,12,0,0,1,269.88,371l-3.31-11.29A12,12,0,0,0,281.27,367.33Z"/><path class="cls-4" d="M266.57,359.73c-0.06-.18-0.13-0.35-0.19-0.54l-3.95-13.46h0Z"/><path class="cls-4" d="M286.49,325.59l0.66,2.26a11.91,11.91,0,0,0-.88-1.93Z"/><path class="cls-4" d="M279.89,334.13a56,56,0,0,0,6.39-8.21,11.91,11.91,0,0,1,.88,1.93L294,351.1A12,12,0,0,1,285.83,366l-4.56,1.34a12,12,0,0,1-14.7-7.6l-4.11-14A44.48,44.48,0,0,0,279.89,334.13Z"/><path class="cls-5" d="M278.13,309.44c0.45,3.69.79,7.33,1.06,10.83,0.39,5.06.6,9.8,0.71,13.87a44.49,44.49,0,0,1-17.43,11.59s0,0,0,0A38.91,38.91,0,0,1,250,347.88V263.5C268,260,275.2,285.55,278.13,309.44Z"/><path class="cls-2" d="M269.07,224.93a14.88,14.88,0,0,0,1.26,3.39,23,23,0,0,0,7.71,8.22c4.19,2.89,8.3,12.93,11.62,23.37,4.33,13.64,7.3,28,7.3,28a70.61,70.61,0,0,1-10.47,37.72l-0.21.33a56,56,0,0,1-6.39,8.21c-0.12-4.07-.33-8.81-0.72-13.87-0.27-3.49-.59-7.14-1-10.83C275.2,285.55,268,260,250,263.5V228.88A47,47,0,0,0,269.07,224.93Z"/><path class="cls-5" d="M254.88,196.59a10.07,10.07,0,0,0,4.38-5,52.82,52.82,0,0,1,37.62-15.68l0.92,0a48.65,48.65,0,0,1,.25,4.89,48.17,48.17,0,0,1-1.41,11.57c7.94-2.32,17-4.49,23.33-4.49,0,0-12.85,3-23.86,6.45a48.18,48.18,0,0,1-27,30.6A47,47,0,0,1,250,228.88v-31A9.27,9.27,0,0,0,254.88,196.59Z"/><path class="cls-4" d="M274.6,143.64c2.92-4.3,15.85-22.68,23.35-23.27,5.41-.42,9.83,4.4,9.83,9.83l6,24A9.83,9.83,0,0,1,304,164a42.49,42.49,0,0,1-11.7.72C288.32,157.93,282.35,149.41,274.6,143.64Z"/><path class="cls-6" d="M295.39,160a31.51,31.51,0,0,0,7.36-.74l0.58-.18,0.62,0a5,5,0,0,0,4.91-4.33L303,130.83v-0.62c0-2.59-2.05-4.86-4.27-4.86H298.4c-2,.18-8.68,5.91-17,17.44,5.85,5.29,10.48,12.19,13.78,17.19h0.24Z"/><path class="cls-2" d="M260,187.88a10.1,10.1,0,0,1-5.1,8.71,9.29,9.29,0,0,1-4.88,1.29v-20A10.33,10.33,0,0,1,260,187.88Z"/><path class="cls-7" d="M260,212.69L257.05,225H251l-1-17.69s3.17,6.13,4.9,6.13A33.17,33.17,0,0,0,260,212.69Z"/><path class="cls-8" d="M256.21,214.54a6.92,6.92,0,0,0,6.92-6.92,1,1,0,0,0-2,0,4.92,4.92,0,0,1-9.83,0,1.34,1.34,0,0,0-1.33-1C249.4,206.63,252.39,214.54,256.21,214.54Z"/><path class="cls-9" d="M280.05,176.91a11.75,11.75,0,0,0-4-6.15c2-2.36,3.94-4.21,5.22-4.64,0,0,6.16,12.64,4.6,16.32-0.56,1.34-3.21,2.13-6.35,2.59A11.52,11.52,0,0,0,280.05,176.91Z"/><path class="cls-10" d="M266.17,184.08s1-1.53,2.52-3.7c0.72,1.28,1.83,2,2.82,1.74,1.28-.36,1.86-2.28,1.29-4.3a5.44,5.44,0,0,0-.92-1.86c1.33-1.78,2.76-3.61,4.13-5.21a11.75,11.75,0,0,1,4,6.15,11.52,11.52,0,0,1-.56,8.12,87.4,87.4,0,0,1-12.61.64,1.28,1.28,0,0,1-.61-0.15l-0.36-.5A1.31,1.31,0,0,1,266.17,184.08Z"/><path class="cls-9" d="M271.52,182.12c-1,.28-2.1-0.46-2.82-1.74,0.91-1.31,2-2.84,3.19-4.42a5.44,5.44,0,0,1,.92,1.86C273.37,179.84,272.79,181.76,271.52,182.12Z"/><path class="cls-11" d="M314.2,240.19l-10.31-2.79-31.63-8.55-1.9-.51h0a14.88,14.88,0,0,1-1.26-3.39h0a48.18,48.18,0,0,0,27-30.6c11-3.42,23.86-6.45,23.86-6.45-6.29,0-15.39,2.17-23.33,4.49A48.17,48.17,0,0,0,298,180.79a48.79,48.79,0,0,0-.25-4.89l-0.92,0a53.13,53.13,0,0,0-11.39,1.24h0a53.13,53.13,0,0,1,11.39-1.24l0.92,0a92.29,92.29,0,0,0-5.53-11.14A42.47,42.47,0,0,0,304,164a9.83,9.83,0,0,0,9.83-9.83l-6-24c0-5.43-4.42-10.26-9.83-9.83-7.5.59-20.41,18.94-23.35,23.25-6.88-5.12-15.62-8.07-24.61-5.75v60l0,0h0v8.75h0c-0.1,0-.08.28,0,0.72v0l0-.08,0,0.77V347.88a38.91,38.91,0,0,0,12.44-2.14l3.94,13.45c0.05,0.18.13,0.36,0.19,0.54L269.88,371a12,12,0,0,0,14.89,8.14l4.56-1.34a12,12,0,0,0,8.14-14.89l-10.13-34.55c-0.05-.18-0.13-0.36-0.19-0.54l-0.66-2.26h0A70.61,70.61,0,0,0,297,287.88s-3-14.32-7.3-28l8.29,2.24,9.6,2.6a12,12,0,0,0,14.72-8.45l0.38-1.4A12,12,0,0,0,314.2,240.19ZM265,268.93a26.87,26.87,0,0,1,2,2.62q1,1.41,1.84,3-0.87-1.59-1.84-3A26.87,26.87,0,0,0,265,268.93Zm9.5,20.63c0.73,2.8,1.37,5.71,1.92,8.67,0.69,3.7,1.25,7.47,1.71,11.2v0c-0.46-3.73-1-7.51-1.71-11.2-0.55-3-1.19-5.87-1.92-8.67a71,71,0,0,0-4.78-13.37A71,71,0,0,1,274.5,289.57ZM266.37,186h0c-2.54,1-4.92,3.57-7.11,5.77v0.11C261.45,189.68,263.83,187,266.37,186Z"/><path class="cls-2" d="M171.25,465.94V465h5.63v1.88h1.88v1.88h1.88v5.63h-1.87v1.88h-1.87v1.88h-5.62v-1.87h-1.87v-1.87H167.5v-5.62h1.88v-1.87h1.88v-0.94Zm3.75,1.88v-0.94h-3.75v7.5h1.88v1.88h3.75v-7.5H175v-0.94Z"/><path class="cls-2" d="M188.13,465.94V465h3.75v11.25h3.75v1.88H184.38v-1.87h3.75v-7.5h-1.87v-1.87h1.88v-0.94Z"/><path class="cls-2" d="M199.38,465.94V465h9.38v1.88h1.88v7.5h-1.87v1.88h-1.87v1.88h-7.5v-1.87H205v-1.87h1.88V472.5h-7.5v-1.87H197.5v-3.75h1.88v-0.94Zm7.5,2.81v-1.87h-5.62v3.75h5.63v-1.87Z"/><path class="cls-2" d="M227.5,471.56V465h11.25v1.88h1.88v5.63h-3.75v1.88h1.88v1.88h1.88v1.88H235v-1.87h-1.87v-1.87h-1.87v3.75H227.5v-6.56Zm9.38-2.81v-1.87h-5.62v5.63H235v-1.87h1.88v-1.87Z"/><path class="cls-2" d="M246.25,465.94V465h5.63v1.88h1.88v1.88h1.88v9.38h-3.75v-3.75h-5.62v3.75H242.5v-9.37h1.88v-1.87h1.88v-0.94Zm3.75,1.88v-0.94h-1.87v1.88h-1.87v3.75h5.63v-3.75H250v-0.94Z"/><path class="cls-2" d="M259.38,465.94V465h11.25v1.88h-3.75v11.25h-3.75V466.88h-3.75v-0.94Z"/><path class="cls-2" d="M274.38,465.94V465h11.25v1.88h-3.75v11.25h-3.75V466.88h-3.75v-0.94Z"/><path class="cls-2" d="M291.25,465.94V465h5.63v1.88h1.88v1.88h1.88v9.38h-3.75v-3.75h-5.62v3.75H287.5v-9.37h1.88v-1.87h1.88v-0.94Zm3.75,1.88v-0.94h-1.87v1.88h-1.87v3.75h5.63v-3.75H295v-0.94Z"/><path class="cls-2" d="M304.38,465.94V465h11.25v1.88h-3.75v11.25h-3.75V466.88h-3.75v-0.94Z"/><path class="cls-2" d="M321.25,465.94V465h5.63v1.88h1.88v1.88h1.88v9.38h-3.75v-3.75h-5.62v3.75H317.5v-9.37h1.88v-1.87h1.88v-0.94Zm3.75,1.88v-0.94h-1.87v1.88h-1.87v3.75h5.63v-3.75H325v-0.94Z"/></svg>