<?xml version="1.0" ?><svg id="pkft" viewBox="0 0 500 500" xmlns="http://www.w3.org/2000/svg"><defs><style>.cls-1{fill:#e54875;}.cls-2{fill:#f9759b;}.cls-3{fill:none;}.cls-4{fill:#3e9656;}.cls-5{fill:#4b8e42;}.cls-6{fill:#70ac4a;}.cls-7{fill:#009bb6;}.cls-8{fill:#068e8e;}.cls-9{fill:#00bdc2;}.cls-10{fill:#078c4a;}.cls-11{fill:#008d89;}.cls-12{fill:#fff;}.cls-13{fill:#b6008e;}.cls-14{fill:#282324;}.cls-15{fill:#2a3b3d;}.cls-16{fill:#087f5d;}.cls-17{fill:#037756;}.cls-18{fill:#47bfb3;}.cls-19{opacity:0.1;}</style></defs><title/><path class="cls-1" d="M232.93,88.22L224,97.44,219.51,85C197.34,103.34,184,126.95,184,152.71c0,22.16,9.88,42.73,26.75,59.72l25.25-.65V92.9Z"/><path class="cls-2" d="M246.93,88.22L238,97.44,233.51,85C211.34,103.34,198,126.95,198,152.71c0,22.16,9.88,42.73,26.75,59.72l25.25-.65V92.9Z"/><polygon class="cls-3" points="177.46 206.19 186.48 205.65 184.67 196.8 175.65 197.34 177.46 206.19"/><polygon class="cls-3" points="241 233 238.87 231.93 241 233.82 241 233"/><polygon class="cls-3" points="232.2 208.41 235.98 202.68 241 211.37 241 203 229.01 197 224.05 204.52 231.39 208.19 232.2 208.41"/><polygon class="cls-4" points="231.39 208.19 232.1 208.55 232.2 208.41 231.39 208.19"/><polygon class="cls-4" points="198.44 261.48 201.05 262.18 199.75 259.93 198.44 261.48"/><polygon class="cls-4" points="221.34 257.32 216.34 248.66 208.9 249.11 200.92 258.55 221.34 257.32"/><polygon class="cls-4" points="184.02 232.68 206.34 231.34 201.34 222.68 179.02 224.02 169.02 206.7 177.46 206.19 175.65 197.34 164.02 198.04 158.63 188.7 155.45 187.85 159.93 209.75 150.27 207.16 145.79 185.26 126.47 180.08 130.95 201.99 121.29 199.4 116.81 177.49 97.49 172.32 101.97 194.22 82.66 189.05 80.07 198.71 77.48 208.37 96.8 213.54 81.96 230.27 101.28 235.45 116.12 218.72 125.78 221.31 110.94 238.04 130.26 243.21 145.09 226.48 154.75 229.07 139.92 245.8 159.24 250.98 174.07 234.25 183.73 236.84 168.9 253.57 188.21 258.74 196.07 249.88 194.02 250 184.02 232.68"/><polygon class="cls-4" points="191.34 205.36 186.34 196.7 184.67 196.8 186.48 205.65 191.34 205.36"/><polygon class="cls-4" points="218.66 212.68 221 216.73 221 209.14 218.66 212.68"/><polygon class="cls-4" points="241 233.82 238.87 231.93 238.29 231.65 233.66 238.66 234.2 239.6 241 243 241 233.82"/><polygon class="cls-5" points="232.2 208.41 232.72 208.55 232.79 208.9 241 213 241 211.37 235.98 202.68 232.2 208.41"/><polygon class="cls-5" points="232.2 208.41 232.1 208.55 232.79 208.9 232.72 208.55 232.2 208.41"/><polygon class="cls-5" points="241 293 223.72 284.36 214.31 285.15 224.02 301.96 244.85 300.71 241 293"/><polygon class="cls-5" points="221 263.59 241 273 241 263 226.66 255.83 221 253 221 233 234.2 239.6 233.66 238.66 238.29 231.65 221 223 221 216.73 218.66 212.68 221 209.14 221 205.41 221 203 224.05 204.52 229.01 197 221 193 221 176.73 220.98 176.7 208.66 195.36 203.66 186.7 215.98 168.04 205.98 150.72 193.66 169.38 183.66 152.06 175 157.06 166.34 162.06 176.34 179.38 154.02 180.72 158.63 188.7 164.02 198.04 175.65 197.34 184.67 196.8 186.34 196.7 191.34 205.36 186.48 205.65 177.46 206.19 169.02 206.7 179.02 224.02 201.34 222.68 206.34 231.34 184.02 232.68 194.02 250 196.07 249.88 208.9 249.11 216.34 248.66 221.34 257.32 200.92 258.55 199.02 258.66 199.75 259.93 201.05 262.18 209.02 275.98 221 275.26 221 263.59"/><polygon class="cls-6" points="231.34 274.64 221 275.26 221 283 223.72 284.36 236.34 283.3 231.34 274.64"/><polygon class="cls-6" points="246.34 300.62 244.85 300.71 250 311 250 303.04 246.34 300.62"/><polygon class="cls-6" points="250 266.96 250 262.61 248.66 264.64 250 266.96"/><polygon class="cls-6" points="238.38 231.5 238.29 231.65 238.87 231.93 238.38 231.5"/><polygon class="cls-6" points="245.15 237.5 241 233.82 241 243 234.2 239.6 238.66 247.32 245.15 237.5"/><polygon class="cls-6" points="250 303.04 250 266.96 248.66 264.64 250 262.61 250 246.1 232.03 249.78 226.66 255.83 241 263 241 273 221 263.59 221 275.26 231.34 274.64 236.34 283.3 223.72 284.36 241 293 244.85 300.71 246.34 300.62 250 303.04"/><polygon class="cls-6" points="250 241.81 250 230.15 245.15 237.5 250 241.81"/><polygon class="cls-6" points="229.01 197 230.98 194.02 221 176.73 221 193 229.01 197"/><polygon class="cls-6" points="241 133 241 153 221 143 221 163 241 173 241 183 221 173 221 176.73 230.98 194.02 229.01 197 241 203 241 211.37 241 213 232.79 208.9 232.1 208.55 231.39 208.19 224.05 204.52 221 203 221 205.41 221 209.14 221 216.73 221 223 238.29 231.65 238.38 231.5 238.87 231.93 241 233 241 233.82 245.15 237.5 250 230.15 250 133 241 133"/><polygon class="cls-6" points="245.15 237.5 238.66 247.32 234.2 239.6 221 233 221 253 226.66 255.83 232.03 249.78 250 246.1 250 241.81 245.15 237.5"/><path class="cls-7" d="M207.28,353l-11.75,26.79q1.63,0.89,3.28,1.72A113.37,113.37,0,0,0,250,393.67V353H207.28Z"/><circle class="cls-8" cx="233.94" cy="364.88" r="5.08"/><path class="cls-9" d="M243.61,236.39l6.39,0.46V213.67a91.07,91.07,0,0,0-18,1.92,3,3,0,0,1-.79,3l-3.6,3.6a3.09,3.09,0,0,1-4.37,0L220,218.93c-0.53.18-1.06,0.35-1.58,0.55a78.69,78.69,0,0,0-39.94-14.27c-1.89-.13-3.67-0.21-5.59-0.21-1.41,0-2.76,0-4.15.11a80.25,80.25,0,0,0-2,54c0.52,1.65,1.11,3.27,1.73,4.87a94.39,94.39,0,0,0-6,14.23l2.3,0.17a5.19,5.19,0,0,1,3.41,8.73l-5.84,6.24a5.16,5.16,0,0,1-3.76,1.63c-0.11.76-.23,1.52-0.32,2.29a97.09,97.09,0,0,0-.64,11c0,9.83.63,19.31,3.41,28.22a127.94,127.94,0,0,0,18.86,11.91,139.79,139.79,0,0,0,14.84,6.61q3.83,1.45,7.81,2.69c1.84,0.58,3.69,1.13,5.57,1.65A156,156,0,0,0,224.9,363a164.46,164.46,0,0,0,25.1,2V253.88a5.16,5.16,0,0,1-2.62-1.31l-7.7-7.21A5.19,5.19,0,0,1,243.61,236.39Zm-71.82,7.94c-0.19-.54-0.37-1-0.55-1.58A52,52,0,0,1,172.56,208h0l12.51,22.92Z"/><path class="cls-10" d="M194.68,355.07a139.79,139.79,0,0,1-14.84-6.61,79.41,79.41,0,0,0-8,25A38.53,38.53,0,0,0,194.68,355.07Z"/><path class="cls-9" d="M171.79,244.42l13.32-13.5L172.6,208h0a52.19,52.19,0,0,0-3.69,19.24,51.56,51.56,0,0,0,2.37,15.47C171.41,243.26,171.6,243.88,171.79,244.42Z"/><path class="cls-11" d="M171.79,244.42l13.32-13.5L172.6,208h0a52.19,52.19,0,0,0-3.69,19.24,51.56,51.56,0,0,0,2.37,15.47C171.41,243.26,171.6,243.88,171.79,244.42Z"/><path class="cls-12" d="M187.4,288.95a23,23,0,0,1,6.48-16.08A62.25,62.25,0,0,0,180,266.41V295.5A10.91,10.91,0,0,0,190.5,306h4.39A22.92,22.92,0,0,1,187.4,288.95Z"/><path class="cls-13" d="M204.26,281a21.77,21.77,0,0,1,.49,4.72c0,5.27-1.68,9.53-3.75,9.53s-3.75-4.27-3.75-9.53c0-4,1-7.42,2.34-8.83a60.76,60.76,0,0,0-5.71-4.06,23.18,23.18,0,0,0,1,33.14h24.7A61.15,61.15,0,0,0,204.26,281Z"/><path class="cls-14" d="M197.25,285.75c0,5.27,1.68,9.53,3.75,9.53s3.75-4.27,3.75-9.53a21.77,21.77,0,0,0-.49-4.72,60.37,60.37,0,0,0-4.67-4.12C198.22,278.33,197.25,281.75,197.25,285.75Z"/><polygon class="cls-12" points="202 333 201 346.47 191.17 334.5 202 333"/><path class="cls-15" d="M230.89,332.23a49.11,49.11,0,0,0-20-2.23l-20.18,2.73c-5,.67-11.2-0.92-13.62-3.48,0,0-6.52-5.9-7.12-5.33s4.94,7.4,4.94,7.4c3.1,3.27,10.22,5.2,16.2,4.39L211.29,333A46.32,46.32,0,0,1,229.85,335l19.63,7.31a1.49,1.49,0,0,0,.52.09h0v-3.1Z"/><path class="cls-16" d="M187.45,396.22a5,5,0,0,0,3.14-5.57l-1.54-8.43a5,5,0,0,0-2.71-3.58l-14.2-7c-0.1.59-.21,1.17-0.29,1.76a79.69,79.69,0,0,0,.9,28.16l0.1,0.16Z"/><path class="cls-17" d="M151.34,348l-4.73-3.27a3.35,3.35,0,0,0-3-.41l-1.65.56a49.63,49.63,0,0,0,6.43,16.32l4.09-9.07A3.35,3.35,0,0,0,151.34,348Z"/><path class="cls-18" d="M204.29,367.18l-0.15.09a3.08,3.08,0,0,1-2.77.15l-4.88-2.13a3.23,3.23,0,0,1-1.81-3.64l1.34-6.09-1.34-.49a139.79,139.79,0,0,1-14.84-6.61,79.43,79.43,0,0,0-7.7,23.21l14.2,7a5,5,0,0,1,2.71,3.58l1.54,8.43a5,5,0,0,1-3.14,5.57l-14.6,5.53-0.1-.16q0.6,2.82,1.39,5.57a49.91,49.91,0,0,0,36.23,7A49.95,49.95,0,0,1,204.29,367.18Z"/><path class="cls-16" d="M196.49,365.29l4.88,2.13a3.08,3.08,0,0,0,2.77-.15l0.15-.09a50,50,0,0,1,3.77-7.77q-6.18-1.69-12-3.85l-1.34,6.09A3.23,3.23,0,0,0,196.49,365.29Z"/><path class="cls-8" d="M178.63,347.81a2.89,2.89,0,0,1-2.08,2.33l-4.87,1.34a2.89,2.89,0,0,1-3.56-2l-2.43-8.82a2.89,2.89,0,0,1-.09-0.72q-2.36-1.64-4.62-3.36c-2.78-8.91-3.41-18.39-3.41-28.22a97.09,97.09,0,0,1,.64-11c-0.39.34-.77,0.67-1.15,1A49.83,49.83,0,0,0,142,344.84l1.65-.56a3.35,3.35,0,0,1,3,.41l4.73,3.27a3.35,3.35,0,0,1,1.15,4.13l-4.09,9.07A50.29,50.29,0,0,0,161,375a38.44,38.44,0,0,0,10.84-1.57,79.41,79.41,0,0,1,8-25C179.43,348.26,179,348,178.63,347.81Z"/><path class="cls-17" d="M165.7,340.63l2.43,8.82a2.89,2.89,0,0,0,3.56,2l4.87-1.34a2.89,2.89,0,0,0,2.08-2.33,129.59,129.59,0,0,1-13-7.9A2.89,2.89,0,0,0,165.7,340.63Z"/><path class="cls-7" d="M243.25,334.09h0l-7-6.3,6.4,2.73A2.14,2.14,0,0,1,243.25,334.09Z"/><path class="cls-3" d="M172.56,208a52,52,0,0,0-1.32,34.75c0.17,0.55.36,1,.55,1.58l13.32-13.41L172.6,208h0Z"/><path class="cls-11" d="M227.61,222.19l3.6-3.6a3,3,0,0,0,.79-3,93.74,93.74,0,0,0-12,3.34l3.26,3.26A3.09,3.09,0,0,0,227.61,222.19Z"/><path class="cls-3" d="M172.56,208a52,52,0,0,0-1.32,34.75c0.17,0.55.36,1,.55,1.58l13.32-13.41L172.6,208h0Z"/><path class="cls-11" d="M243.61,236.39a5.19,5.19,0,0,0-3.93,9l7.7,7.21a5.16,5.16,0,0,0,2.62,1.31v-17Z"/><path class="cls-3" d="M172.56,208a52,52,0,0,0-1.32,34.75c0.17,0.55.36,1,.55,1.58l13.32-13.41L172.6,208h0Z"/><path class="cls-3" d="M172.56,208a52,52,0,0,0-1.32,34.75c0.17,0.55.36,1,.55,1.58l13.32-13.41L172.6,208h0Z"/><path class="cls-11" d="M162.3,293.37l5.84-6.24a5.19,5.19,0,0,0-3.41-8.73l-2.3-.17A95.21,95.21,0,0,0,158.53,295,5.16,5.16,0,0,0,162.3,293.37Z"/><path class="cls-1" d="M267.31,88.22l9.05,9.21L280.91,85c22.17,18.34,35.54,41.95,35.54,67.71,0,22.16-10.1,42.73-27,59.72L264,211.79V92.9Z"/><path class="cls-2" d="M253.31,88.22l9.05,9.21L266.91,85c22.17,18.34,35.54,41.95,35.54,67.71,0,22.16-10.1,42.73-27,59.72L250,211.79V92.9Z"/><polygon class="cls-3" points="323.02 206.19 314 205.65 315.81 196.8 324.83 197.34 323.02 206.19"/><polygon class="cls-3" points="259 233 261.13 231.93 259 233.82 259 233"/><polygon class="cls-3" points="268.28 208.41 264.26 202.68 259 211.37 259 203 271.23 197 276.31 204.52 269.03 208.19 268.28 208.41"/><polygon class="cls-4" points="269.09 208.19 268.38 208.55 268.28 208.41 269.09 208.19"/><polygon class="cls-4" points="302.04 261.48 299.43 262.18 300.73 259.93 302.04 261.48"/><polygon class="cls-4" points="279.14 257.32 284.14 248.66 291.58 249.11 299.56 258.55 279.14 257.32"/><polygon class="cls-4" points="316.46 232.68 294.14 231.34 299.14 222.68 321.46 224.02 331.46 206.7 323.02 206.19 324.83 197.34 336.46 198.04 341.85 188.7 345.03 187.85 340.55 209.75 350.21 207.16 354.69 185.26 374.01 180.08 369.53 201.99 379.19 199.4 383.67 177.49 402.99 172.32 398.5 194.22 417.82 189.05 420.41 198.71 423 208.37 403.68 213.54 418.52 230.27 399.2 235.45 384.36 218.72 374.7 221.31 389.54 238.04 370.22 243.21 355.38 226.48 345.73 229.07 360.56 245.8 341.24 250.98 326.41 234.25 316.75 236.84 331.58 253.57 312.26 258.74 304.4 249.88 306.46 250 316.46 232.68"/><polygon class="cls-4" points="309.14 205.36 314.14 196.7 315.81 196.8 314 205.65 309.14 205.36"/><polygon class="cls-4" points="281.34 212.68 279 216.73 279 209.14 281.34 212.68"/><polygon class="cls-4" points="259 233.82 261.37 231.93 262.07 231.65 266.76 238.66 266 239.6 259 243 259 233.82"/><polygon class="cls-5" points="268.28 208.41 267.76 208.55 267.45 208.9 259 213 259 211.37 264.26 202.68 268.28 208.41"/><polygon class="cls-5" points="268.28 208.41 268.38 208.55 267.69 208.9 267.76 208.55 268.28 208.41"/><polygon class="cls-5" points="259.48 293 276.76 284.36 286.17 285.15 276.46 301.96 255.62 300.71 259.48 293"/><polygon class="cls-5" points="279 263.59 259 273 259 263 273.34 255.83 279 253 279 233 266.04 239.6 266.7 238.66 261.89 231.65 279 223 279 216.73 281.34 212.68 279 209.14 279 205.41 279 203 276.19 204.52 271.11 197 279 193 279 176.73 279.26 176.7 291.7 195.36 296.76 186.7 284.47 168.04 294.48 150.72 306.81 169.38 316.81 152.06 325.48 157.06 334.14 162.06 324.14 179.38 346.46 180.72 341.85 188.7 336.46 198.04 324.83 197.34 315.81 196.8 314.14 196.7 309.14 205.36 314 205.65 323.02 206.19 331.46 206.7 321.46 224.02 299.14 222.68 294.14 231.34 316.46 232.68 306.46 250 304.4 249.88 291.58 249.11 284.14 248.66 279.14 257.32 299.56 258.55 301.46 258.66 300.73 259.93 299.43 262.18 291.22 275.98 279 275.26 279 263.59"/><polygon class="cls-6" points="268.9 274.64 279 275.26 279 283 276.52 284.36 263.9 283.3 268.9 274.64"/><polygon class="cls-6" points="253.9 300.62 255.26 300.71 250 311 250 303.04 253.9 300.62"/><polygon class="cls-6" points="250 266.96 250 262.61 251.34 264.64 250 266.96"/><polygon class="cls-6" points="262.09 231.5 262.19 231.65 261.61 231.93 262.09 231.5"/><polygon class="cls-6" points="255.09 237.5 259 233.82 259 243 266.04 239.6 261.58 247.32 255.09 237.5"/><polygon class="cls-6" points="250 303.04 250 266.96 251.34 264.64 250 262.61 250 246.1 268.21 249.78 273.46 255.83 259 263 259 273 279 263.59 279 275.26 268.9 274.64 264.02 283.3 276.7 284.36 259.45 293 255.61 300.71 253.89 300.62 250 303.04"/><polygon class="cls-6" points="250 241.81 250 230.15 254.85 237.5 250 241.81"/><polygon class="cls-6" points="271.23 197 269.14 194.02 279 176.73 279 193 271.23 197"/><polygon class="cls-6" points="259 133 259 153 279 143 279 163 259 173 259 183 279 173 279 176.73 269.26 194.02 271.11 197 259 203 259 211.37 259 213 267.45 208.9 268.25 208.55 269.03 208.19 276.16 204.52 279 203 279 205.41 279 209.14 279 216.73 279 223 261.95 231.65 261.98 231.5 261.31 231.93 259 233 259 233.82 254.85 237.5 250 230.15 250 133 259 133"/><polygon class="cls-6" points="255.09 237.5 261.7 247.32 265.98 239.6 279 233 279 253 273.58 255.83 268.09 249.78 250 246.1 250 241.81 255.09 237.5"/><path class="cls-7" d="M293.2,353l11.75,26.79c-1.08.59-2.42,1.16-3.52,1.72A112.45,112.45,0,0,1,250,393.67V353h43.2Z"/><circle class="cls-8" cx="266.54" cy="364.88" r="5.08"/><path class="cls-9" d="M260.8,245.36l-7.94,7.21a5.72,5.72,0,0,1-2.86,1.31V365a163.82,163.82,0,0,0,25.34-2,158.2,158.2,0,0,0,17-3.59c1.88-.51,3.79-1.07,5.63-1.65,2.65-.83,5.29-1.73,7.84-2.69a140,140,0,0,0,14.85-6.61,128,128,0,0,0,18.86-11.91c2.78-8.91,3.41-18.39,3.41-28.22a97.09,97.09,0,0,0-.63-11c-0.09-.77-0.21-1.53-0.32-2.29a5.16,5.16,0,0,1-3.76-1.63l-5.84-6.24a5.19,5.19,0,0,1,3.41-8.73l2.3-.17a94.39,94.39,0,0,0-6-14.23c0.62-1.6,1.21-3.22,1.73-4.87a80.25,80.25,0,0,0-2-54C330.36,205,329,205,327.6,205c-1.92,0-3.7.08-5.59,0.21a78.69,78.69,0,0,0-39.94,14.27c-0.52-.19-1.05-0.36-1.58-0.55l-3.26,3.26a3.09,3.09,0,0,1-4.37,0l-3.6-3.6a3.2,3.2,0,0,1-1-3A86.84,86.84,0,0,0,250,213.67v23.18l6.63-.46C261.51,236,264.37,242,260.8,245.36Zm54.57-14.43L327.88,208h0a52,52,0,0,1,1.32,34.75c-0.17.55-.36,1-0.55,1.58Z"/><path class="cls-10" d="M305.8,355.07a139.79,139.79,0,0,0,14.84-6.61,79.41,79.41,0,0,1,8,25A38.53,38.53,0,0,1,305.8,355.07Z"/><path class="cls-9" d="M328.69,244.42l-13.32-13.5L327.88,208h0a52.19,52.19,0,0,1,3.69,19.24,51.56,51.56,0,0,1-2.37,15.47C329.06,243.26,328.88,243.88,328.69,244.42Z"/><path class="cls-11" d="M328.69,244.42l-13.32-13.5L327.88,208h0a52.19,52.19,0,0,1,3.69,19.24,51.56,51.56,0,0,1-2.37,15.47C329.06,243.26,328.88,243.88,328.69,244.42Z"/><path class="cls-12" d="M313.08,288.95a23.17,23.17,0,0,0-6.72-16.08A89.44,89.44,0,0,1,320,266.41V295.5c0,5.5-4.52,10.5-10,10.5h-4.39A22.68,22.68,0,0,0,313.08,288.95Z"/><path class="cls-13" d="M296.22,281a21.77,21.77,0,0,0-.49,4.72c0,5.27,1.68,9.53,3.75,9.53s3.75-4.27,3.75-9.53c0-4-1-7.42-2.34-8.83a60.76,60.76,0,0,1,5.71-4.06,23,23,0,0,1,6.48,16.08A22.68,22.68,0,0,1,305.59,306h-24.7A59,59,0,0,1,296.22,281Z"/><path class="cls-14" d="M303.23,285.75c0,5.27-1.68,9.53-3.75,9.53s-3.75-4.27-3.75-9.53a21.77,21.77,0,0,1,.49-4.72,60.37,60.37,0,0,1,4.67-4.12C302.26,278.33,303.23,281.75,303.23,285.75Z"/><polygon class="cls-12" points="298.48 333 299.48 346.47 309.31 334.5 298.48 333"/><path class="cls-15" d="M269.34,332.23A49.68,49.68,0,0,1,289.47,330l20.24,2.73c5,0.67,11.23-.92,13.65-3.48,0,0,6.53-5.9,7.14-5.33s-4.94,7.4-4.94,7.4c-3.1,3.27-10.21,5.2-16.2,4.39L289.19,333A46.32,46.32,0,0,0,270.63,335l-19.87,7.31c-0.17.06,0.24,0.09-.76,0.09h0v-3.1Z"/><path class="cls-16" d="M313,396.22a5,5,0,0,1-3.14-5.57l1.54-8.43a5,5,0,0,1,2.71-3.58l14.2-7c0.1,0.59.21,1.17,0.29,1.76a79.69,79.69,0,0,1-.9,28.16l-0.1.16Z"/><path class="cls-17" d="M349.14,348l4.73-3.27a3.35,3.35,0,0,1,3-.41l1.65,0.56a49.63,49.63,0,0,1-6.43,16.32L348,352.09A3.35,3.35,0,0,1,349.14,348Z"/><path class="cls-18" d="M296.19,367.18l0.15,0.09a3.08,3.08,0,0,0,2.77.15l4.88-2.13a3.23,3.23,0,0,0,1.81-3.64l-1.34-6.09,1.34-.49a139.79,139.79,0,0,0,14.84-6.61,79.43,79.43,0,0,1,7.7,23.21l-14.2,7a5,5,0,0,0-2.71,3.58l-1.54,8.43a5,5,0,0,0,3.14,5.57l14.6,5.53,0.1-.16q-0.6,2.82-1.39,5.57a49.91,49.91,0,0,1-36.23,7A49.95,49.95,0,0,0,296.19,367.18Z"/><path class="cls-16" d="M304,365.29l-4.88,2.13a3.08,3.08,0,0,1-2.77-.15l-0.15-.09a50,50,0,0,0-3.77-7.77q6.18-1.69,12-3.85l1.34,6.09A3.23,3.23,0,0,1,304,365.29Z"/><path class="cls-8" d="M321.84,347.81a2.89,2.89,0,0,0,2.08,2.33l4.87,1.34a2.89,2.89,0,0,0,3.56-2l2.43-8.82a2.89,2.89,0,0,0,.09-0.72q2.36-1.64,4.62-3.36c2.78-8.91,3.41-18.39,3.41-28.22a97.09,97.09,0,0,0-.64-11c0.39,0.34.77,0.67,1.15,1a49.83,49.83,0,0,1,15.1,46.54l-1.65-.56a3.35,3.35,0,0,0-3,.41L349.14,348a3.35,3.35,0,0,0-1.15,4.13l4.09,9.07A50.29,50.29,0,0,1,339.48,375a38.44,38.44,0,0,1-10.84-1.57,79.41,79.41,0,0,0-8-25C321,348.26,321.44,348,321.84,347.81Z"/><path class="cls-17" d="M334.78,340.63l-2.43,8.82a2.89,2.89,0,0,1-3.56,2l-4.87-1.34a2.89,2.89,0,0,1-2.08-2.33,129.59,129.59,0,0,0,13-7.9A2.89,2.89,0,0,1,334.78,340.63Z"/><path class="cls-7" d="M256.75,334.09h0l7-6.3-6.4,2.73A2.14,2.14,0,0,0,256.75,334.09Z"/><path class="cls-3" d="M327.92,208a52,52,0,0,1,1.32,34.75c-0.17.55-.36,1-0.55,1.58l-13.32-13.41L327.88,208h0Z"/><path class="cls-11" d="M272.87,222.19l-3.6-3.6a3,3,0,0,1-.79-3,93.74,93.74,0,0,1,12,3.34l-3.26,3.26A3.09,3.09,0,0,1,272.87,222.19Z"/><path class="cls-3" d="M327.92,208a52,52,0,0,1,1.32,34.75c-0.17.55-.36,1-0.55,1.58l-13.32-13.41L327.88,208h0Z"/><path class="cls-11" d="M256.63,236.39a5.23,5.23,0,0,1,4,9l-7.88,7.21a5.53,5.53,0,0,1-2.8,1.31v-17Z"/><path class="cls-3" d="M327.92,208a52,52,0,0,1,1.32,34.75c-0.17.55-.36,1-0.55,1.58l-13.32-13.41L327.88,208h0Z"/><path class="cls-3" d="M327.92,208a52,52,0,0,1,1.32,34.75c-0.17.55-.36,1-0.55,1.58l-13.32-13.41L327.88,208h0Z"/><path class="cls-11" d="M338.18,293.37l-5.84-6.24a5.19,5.19,0,0,1,3.41-8.73l2.3-.17A95.21,95.21,0,0,1,341.95,295,5.16,5.16,0,0,1,338.18,293.37Z"/><g class="cls-19"><path d="M267.31,88.22l9.05,9.21L280.91,85c22.17,18.34,35.54,41.95,35.54,67.71,0,22.16-10.1,42.73-27,59.72L264,211.79V92.9Z"/><path d="M253.31,88.22l9.05,9.21L266.91,85c22.17,18.34,35.54,41.95,35.54,67.71,0,22.16-10.1,42.73-27,59.72L250,211.79V92.9Z"/><polygon points="323.02 206.19 314 205.65 315.81 196.8 324.83 197.34 323.02 206.19"/><polygon points="259 233 261.13 231.93 259 233.82 259 233"/><polygon points="268.28 208.41 264.26 202.68 259 211.37 259 203 271.23 197 276.31 204.52 269.03 208.19 268.28 208.41"/><polygon points="269.09 208.19 268.38 208.55 268.28 208.41 269.09 208.19"/><polygon points="302.04 261.48 299.43 262.18 300.73 259.93 302.04 261.48"/><polygon points="279.14 257.32 284.14 248.66 291.58 249.11 299.56 258.55 279.14 257.32"/><polygon points="316.46 232.68 294.14 231.34 299.14 222.68 321.46 224.02 331.46 206.7 323.02 206.19 324.83 197.34 336.46 198.04 341.85 188.7 345.03 187.85 340.55 209.75 350.21 207.16 354.69 185.26 374.01 180.08 369.53 201.99 379.19 199.4 383.67 177.49 402.99 172.32 398.5 194.22 417.82 189.05 420.41 198.71 423 208.37 403.68 213.54 418.52 230.27 399.2 235.45 384.36 218.72 374.7 221.31 389.54 238.04 370.22 243.21 355.38 226.48 345.73 229.07 360.56 245.8 341.24 250.98 326.41 234.25 316.75 236.84 331.58 253.57 312.26 258.74 304.4 249.88 306.46 250 316.46 232.68"/><polygon points="309.14 205.36 314.14 196.7 315.81 196.8 314 205.65 309.14 205.36"/><polygon points="281.34 212.68 279 216.73 279 209.14 281.34 212.68"/><polygon points="259 233.82 261.37 231.93 262.07 231.65 266.76 238.66 266 239.6 259 243 259 233.82"/><polygon points="268.28 208.41 267.76 208.55 267.45 208.9 259 213 259 211.37 264.26 202.68 268.28 208.41"/><polygon points="268.28 208.41 268.38 208.55 267.69 208.9 267.76 208.55 268.28 208.41"/><polygon points="259.48 293 276.76 284.36 286.17 285.15 276.46 301.96 255.62 300.71 259.48 293"/><polygon points="279 263.59 259 273 259 263 273.34 255.83 279 253 279 233 266.04 239.6 266.7 238.66 261.89 231.65 279 223 279 216.73 281.34 212.68 279 209.14 279 205.41 279 203 276.19 204.52 271.11 197 279 193 279 176.73 279.26 176.7 291.7 195.36 296.76 186.7 284.47 168.04 294.48 150.72 306.81 169.38 316.81 152.06 325.48 157.06 334.14 162.06 324.14 179.38 346.46 180.72 341.85 188.7 336.46 198.04 324.83 197.34 315.81 196.8 314.14 196.7 309.14 205.36 314 205.65 323.02 206.19 331.46 206.7 321.46 224.02 299.14 222.68 294.14 231.34 316.46 232.68 306.46 250 304.4 249.88 291.58 249.11 284.14 248.66 279.14 257.32 299.56 258.55 301.46 258.66 300.73 259.93 299.43 262.18 291.22 275.98 279 275.26 279 263.59"/><polygon points="268.9 274.64 279 275.26 279 283 276.52 284.36 263.9 283.3 268.9 274.64"/><polygon points="253.9 300.62 255.26 300.71 250 311 250 303.04 253.9 300.62"/><polygon points="250 266.96 250 262.61 251.34 264.64 250 266.96"/><polygon points="262.09 231.5 262.19 231.65 261.61 231.93 262.09 231.5"/><polygon points="255.09 237.5 259 233.82 259 243 266.04 239.6 261.58 247.32 255.09 237.5"/><polygon points="250 303.04 250 266.96 251.34 264.64 250 262.61 250 246.1 268.21 249.78 273.46 255.83 259 263 259 273 279 263.59 279 275.26 268.9 274.64 264.02 283.3 276.7 284.36 259.45 293 255.61 300.71 253.89 300.62 250 303.04"/><polygon points="250 241.81 250 230.15 254.85 237.5 250 241.81"/><polygon points="271.23 197 269.14 194.02 279 176.73 279 193 271.23 197"/><polygon points="259 133 259 153 279 143 279 163 259 173 259 183 279 173 279 176.73 269.26 194.02 271.11 197 259 203 259 211.37 259 213 267.45 208.9 268.25 208.55 269.03 208.19 276.16 204.52 279 203 279 205.41 279 209.14 279 216.73 279 223 261.95 231.65 261.98 231.5 261.31 231.93 259 233 259 233.82 254.85 237.5 250 230.15 250 133 259 133"/><polygon points="255.09 237.5 261.7 247.32 265.98 239.6 279 233 279 253 273.58 255.83 268.09 249.78 250 246.1 250 241.81 255.09 237.5"/><path d="M293.2,353l11.75,26.79c-1.08.59-2.42,1.16-3.52,1.72A112.45,112.45,0,0,1,250,393.67V353h43.2Z"/><circle cx="266.54" cy="364.88" r="5.08"/><path d="M260.8,245.36l-7.94,7.21a5.72,5.72,0,0,1-2.86,1.31V365a163.82,163.82,0,0,0,25.34-2,158.2,158.2,0,0,0,17-3.59c1.88-.51,3.79-1.07,5.63-1.65,2.65-.83,5.29-1.73,7.84-2.69a140,140,0,0,0,14.85-6.61,128,128,0,0,0,18.86-11.91c2.78-8.91,3.41-18.39,3.41-28.22a97.09,97.09,0,0,0-.63-11c-0.09-.77-0.21-1.53-0.32-2.29a5.16,5.16,0,0,1-3.76-1.63l-5.84-6.24a5.19,5.19,0,0,1,3.41-8.73l2.3-.17a94.39,94.39,0,0,0-6-14.23c0.62-1.6,1.21-3.22,1.73-4.87a80.25,80.25,0,0,0-2-54C330.36,205,329,205,327.6,205c-1.92,0-3.7.08-5.59,0.21a78.69,78.69,0,0,0-39.94,14.27c-0.52-.19-1.05-0.36-1.58-0.55l-3.26,3.26a3.09,3.09,0,0,1-4.37,0l-3.6-3.6a3.2,3.2,0,0,1-1-3A86.84,86.84,0,0,0,250,213.67v23.18l6.63-.46C261.51,236,264.37,242,260.8,245.36Zm54.57-14.43L327.88,208h0a52,52,0,0,1,1.32,34.75c-0.17.55-.36,1-0.55,1.58Z"/><path d="M305.8,355.07a139.79,139.79,0,0,0,14.84-6.61,79.41,79.41,0,0,1,8,25A38.53,38.53,0,0,1,305.8,355.07Z"/><path d="M328.69,244.42l-13.32-13.5L327.88,208h0a52.19,52.19,0,0,1,3.69,19.24,51.56,51.56,0,0,1-2.37,15.47C329.06,243.26,328.88,243.88,328.69,244.42Z"/><path d="M328.69,244.42l-13.32-13.5L327.88,208h0a52.19,52.19,0,0,1,3.69,19.24,51.56,51.56,0,0,1-2.37,15.47C329.06,243.26,328.88,243.88,328.69,244.42Z"/><path d="M313.08,288.95a23.17,23.17,0,0,0-6.72-16.08A89.44,89.44,0,0,1,320,266.41V295.5c0,5.5-4.52,10.5-10,10.5h-4.39A22.68,22.68,0,0,0,313.08,288.95Z"/><path d="M296.22,281a21.77,21.77,0,0,0-.49,4.72c0,5.27,1.68,9.53,3.75,9.53s3.75-4.27,3.75-9.53c0-4-1-7.42-2.34-8.83a60.76,60.76,0,0,1,5.71-4.06,23,23,0,0,1,6.48,16.08A22.68,22.68,0,0,1,305.59,306h-24.7A59,59,0,0,1,296.22,281Z"/><path d="M303.23,285.75c0,5.27-1.68,9.53-3.75,9.53s-3.75-4.27-3.75-9.53a21.77,21.77,0,0,1,.49-4.72,60.37,60.37,0,0,1,4.67-4.12C302.26,278.33,303.23,281.75,303.23,285.75Z"/><polygon points="298.48 333 299.48 346.47 309.31 334.5 298.48 333"/><path d="M269.34,332.23A49.68,49.68,0,0,1,289.47,330l20.24,2.73c5,0.67,11.23-.92,13.65-3.48,0,0,6.53-5.9,7.14-5.33s-4.94,7.4-4.94,7.4c-3.1,3.27-10.21,5.2-16.2,4.39L289.19,333A46.32,46.32,0,0,0,270.63,335l-19.87,7.31c-0.17.06,0.24,0.09-.76,0.09h0v-3.1Z"/><path d="M313,396.22a5,5,0,0,1-3.14-5.57l1.54-8.43a5,5,0,0,1,2.71-3.58l14.2-7c0.1,0.59.21,1.17,0.29,1.76a79.69,79.69,0,0,1-.9,28.16l-0.1.16Z"/><path d="M349.14,348l4.73-3.27a3.35,3.35,0,0,1,3-.41l1.65,0.56a49.63,49.63,0,0,1-6.43,16.32L348,352.09A3.35,3.35,0,0,1,349.14,348Z"/><path d="M296.19,367.18l0.15,0.09a3.08,3.08,0,0,0,2.77.15l4.88-2.13a3.23,3.23,0,0,0,1.81-3.64l-1.34-6.09,1.34-.49a139.79,139.79,0,0,0,14.84-6.61,79.43,79.43,0,0,1,7.7,23.21l-14.2,7a5,5,0,0,0-2.71,3.58l-1.54,8.43a5,5,0,0,0,3.14,5.57l14.6,5.53,0.1-.16q-0.6,2.82-1.39,5.57a49.91,49.91,0,0,1-36.23,7A49.95,49.95,0,0,0,296.19,367.18Z"/><path d="M304,365.29l-4.88,2.13a3.08,3.08,0,0,1-2.77-.15l-0.15-.09a50,50,0,0,0-3.77-7.77q6.18-1.69,12-3.85l1.34,6.09A3.23,3.23,0,0,1,304,365.29Z"/><path d="M321.84,347.81a2.89,2.89,0,0,0,2.08,2.33l4.87,1.34a2.89,2.89,0,0,0,3.56-2l2.43-8.82a2.89,2.89,0,0,0,.09-0.72q2.36-1.64,4.62-3.36c2.78-8.91,3.41-18.39,3.41-28.22a97.09,97.09,0,0,0-.64-11c0.39,0.34.77,0.67,1.15,1a49.83,49.83,0,0,1,15.1,46.54l-1.65-.56a3.35,3.35,0,0,0-3,.41L349.14,348a3.35,3.35,0,0,0-1.15,4.13l4.09,9.07A50.29,50.29,0,0,1,339.48,375a38.44,38.44,0,0,1-10.84-1.57,79.41,79.41,0,0,0-8-25C321,348.26,321.44,348,321.84,347.81Z"/><path d="M334.78,340.63l-2.43,8.82a2.89,2.89,0,0,1-3.56,2l-4.87-1.34a2.89,2.89,0,0,1-2.08-2.33,129.59,129.59,0,0,0,13-7.9A2.89,2.89,0,0,1,334.78,340.63Z"/><path d="M256.75,334.09h0l7-6.3-6.4,2.73A2.14,2.14,0,0,0,256.75,334.09Z"/><path d="M327.92,208a52,52,0,0,1,1.32,34.75c-0.17.55-.36,1-0.55,1.58l-13.32-13.41L327.88,208h0Z"/><path d="M272.87,222.19l-3.6-3.6a3,3,0,0,1-.79-3,93.74,93.74,0,0,1,12,3.34l-3.26,3.26A3.09,3.09,0,0,1,272.87,222.19Z"/><path d="M327.92,208a52,52,0,0,1,1.32,34.75c-0.17.55-.36,1-0.55,1.58l-13.32-13.41L327.88,208h0Z"/><path d="M256.63,236.39a5.23,5.23,0,0,1,4,9l-7.88,7.21a5.53,5.53,0,0,1-2.8,1.31v-17Z"/><path d="M327.92,208a52,52,0,0,1,1.32,34.75c-0.17.55-.36,1-0.55,1.58l-13.32-13.41L327.88,208h0Z"/><path d="M327.92,208a52,52,0,0,1,1.32,34.75c-0.17.55-.36,1-0.55,1.58l-13.32-13.41L327.88,208h0Z"/><path d="M338.18,293.37l-5.84-6.24a5.19,5.19,0,0,1,3.41-8.73l2.3-.17A95.21,95.21,0,0,1,341.95,295,5.16,5.16,0,0,1,338.18,293.37Z"/></g><path class="cls-9" d="M171.25,465.94V465h5.63v1.88h1.88v1.88h1.88v5.63h-1.87v1.88h-1.87v1.88h-5.62v-1.87h-1.87v-1.87H167.5v-5.62h1.88v-1.87h1.88v-0.94Zm3.75,1.88v-0.94h-3.75v7.5h1.88v1.88h3.75v-7.5H175v-0.94Z"/><path class="cls-9" d="M186.25,465.94V465h5.63v1.88h1.88v1.88h1.88v5.63h-1.87v1.88h-1.87v1.88h-5.62v-1.87h-1.87v-1.87H182.5v-5.62h1.88v-1.87h1.88v-0.94Zm3.75,1.88v-0.94h-3.75v7.5h1.88v1.88h3.75v-7.5H190v-0.94Z"/><path class="cls-9" d="M199.38,465.94V465h9.38v1.88h1.88v3.75h-1.87v1.88h-1.87v1.88h-3.75v1.88h7.5v1.88H197.5v-3.75h1.88V472.5h1.88v-1.87H205v-1.87h1.88v-1.87h-5.62v1.88H197.5v-1.87h1.88v-0.94Z"/><path class="cls-9" d="M229.38,465.94V465h11.25v1.88h-3.75v9.38h3.75v1.88H229.38v-1.87h3.75v-9.37h-3.75v-0.94Z"/><path class="cls-9" d="M242.5,468.75V465h3.75v5.63h1.88v1.88H250v-1.87h1.88V465h3.75v7.5h-1.87v1.88h-1.87v1.88H250v1.88h-1.87v-1.87h-1.87v-1.87h-1.87V472.5H242.5v-3.75Z"/><path class="cls-9" d="M259.38,467.81V465h3.75v5.63h3.75V465h3.75v5.63h-1.87v1.88h-1.87v5.63h-3.75V472.5h-1.87v-1.87h-1.87v-2.81Z"/><path class="cls-9" d="M274.38,465.94V465h7.5v1.88h1.88v1.88H280v-1.87h-3.75v3.75h7.5v1.88h1.88v3.75h-1.87v1.88h-9.37v-1.87H272.5v-1.87h3.75v1.88h5.63V472.5h-7.5v-1.87H272.5v-3.75h1.88v-0.94Z"/><path class="cls-9" d="M291.25,465.94V465h5.63v1.88h1.88v1.88h1.88v9.38h-3.75v-3.75h-5.62v3.75H287.5v-9.37h1.88v-1.87h1.88v-0.94Zm3.75,1.88v-0.94h-1.87v1.88h-1.87v3.75h5.63v-3.75H295v-0.94Z"/><path class="cls-9" d="M302.5,470.63V465h3.75v11.25h5.63V465h3.75v11.25h-1.87v1.88h-9.37v-1.87H302.5v-5.62Z"/><path class="cls-9" d="M317.5,471.56V465h11.25v1.88h1.88v5.63h-3.75v1.88h1.88v1.88h1.88v1.88H325v-1.87h-1.87v-1.87h-1.87v3.75H317.5v-6.56Zm9.38-2.81v-1.87h-5.62v5.63H325v-1.87h1.88v-1.87Z"/></svg>