<?xml version="1.0" ?><svg id="pkft" viewBox="0 0 500 500" xmlns="http://www.w3.org/2000/svg"><defs><style>.cls-1{fill:#d6bda5;}.cls-2,.cls-7{fill:#1a1a1a;}.cls-3{fill:#fff;}.cls-4{fill:#c4872d;}.cls-5{fill:#fcf9c0;}.cls-6{fill:#8c3931;}.cls-7{opacity:0.1;}</style></defs><title/><ellipse class="cls-1" cx="165.01" cy="376.01" rx="50" ry="27" transform="translate(-88.93 53.33) rotate(-14.51)"/><path class="cls-2" d="M243.25,156.35a0.64,0.64,0,0,1-.44-0.18l-5.13-4.88a0.64,0.64,0,1,1,.88-0.93l5.13,4.88A0.64,0.64,0,0,1,243.25,156.35Z"/><path class="cls-3" d="M212.9,130.3c-1.75-1.83-3.36-3.39-4.36-4.33a121.31,121.31,0,0,0-14.62,19.33c3,0.28,7.76.68,12.54,0.82A10,10,0,0,1,212.9,130.3Z"/><path class="cls-2" d="M220.75,140.32c-0.61,1.82-1.54,3-2.57,3-1.85,0-3.35-3.71-3.35-8.28a19.77,19.77,0,0,1,.15-2.47c-0.7-.77-1.4-1.53-2.08-2.24a10,10,0,0,0-6.44,15.83c6,0.18,12-.06,14.21-1.45C221.92,143.89,221.72,142.28,220.75,140.32Z"/><path class="cls-3" d="M218.18,143.29c1,0,2-1.16,2.57-3a39.44,39.44,0,0,0-5.77-7.78,19.77,19.77,0,0,0-.15,2.47C214.83,139.58,216.33,143.29,218.18,143.29Z"/><path class="cls-4" d="M239.84,106.32c-3.87-4.76-9.53-11.1-12.33-11.31s0.23,8.38,2.84,14.64c-0.79.37-1.57,0.75-2.35,1.15-2.61-2.52-5.53-5.14-7-5.79-2-.87.08,4.85,1.72,8.89-1.12.73-2.22,1.51-3.32,2.33-4.27-1.17-10.05-2.56-12.07-2.05s2.69,3.58,7,6.18c-2,1.74-3.91,3.61-5.8,5.62,3.77,3.56,16.41,16,12.13,18.7-3.07,1.94-13.53,1.63-21.16,1.09L201,134.92c-26.25-32.08-72.5-17.42-70-14.17s8.75,16.5,3.5,25.36S137,165,148,173s-7,12-3.5,13.25c2.88,1,22.39,3.59,29.17,4.45-9.32,29.36-14.75,64.37-14.75,102a373.35,373.35,0,0,0,3.56,52.85,134.36,134.36,0,0,0,21.09,15.6c-9.72-19.62-17.07-50,.43-86.12,0,0-20-83.5,26-120,0,0,14-2,20,0,0,0-3-18.16,20-16.27V105A49.19,49.19,0,0,0,239.84,106.32Z"/><path class="cls-1" d="M175.38,170.19a11.37,11.37,0,0,1-9.34,3.87s-10.52-1.31-12.55-2,8.43-3.05,2-7.71-10.91-10.48-7.85-15.64-0.58-12.86-2-14.76,25.45-10.42,40.72,8.24l-1.53,11.15a25.69,25.69,0,0,1-4.36,10.35Z"/><path class="cls-5" d="M230,155c-6-2-20,0-20,0q-1.07.85-2.09,1.73c-0.35.31-.69,0.62-1,0.93s-0.65.57-1,.86c-0.48.45-.94,0.91-1.4,1.37l-0.5.48c-0.54.55-1.07,1.11-1.59,1.67l-0.22.24q-0.85.93-1.66,1.89l-0.06.07a70.77,70.77,0,0,0-4.64,6.15l0,0.06c-9.62-5.57-34-11.85-95.82-10.11,0,0,77.62,9.52,88.8,16.66-34.33,3.83-58.8,12-58.8,12,33.35-6.06,50.6-2.94,57-1.07-0.17.45-.34,0.9-0.49,1.35C158.95,193.35,100,241,100,241c46.71-30.19,72.37-38.68,83.39-41.07-6.76,28.33-2.58,58.19-.42,69.91v0q0.18,1,.34,1.81l0,0.16q0.14,0.73.26,1.3l0,0.2,0.06,0.28,0.06,0.3,0.06,0.25,0,0.19,0,0.15,0,0.18,0,0.11,0,0.08V275c-17.49,36.12-10.15,66.5-.43,86.12A130.56,130.56,0,0,0,250,379.67V138.74C227,136.84,230,155,230,155Z"/><polygon class="cls-6" points="250.97 245 251 245 251 205.01 250.76 206.06 250.97 245"/><path class="cls-6" d="M232,169a12.45,12.45,0,0,0-3.41,5.75l-5.15,20.6a47.53,47.53,0,0,0,0,19.4l5.15,20.6A12.43,12.43,0,0,0,232,241L241,205Z"/><polygon class="cls-6" points="250.76 203.75 251 205.01 251 165 250.97 165 250.76 203.75"/><path class="cls-3" d="M251,165H241a13.22,13.22,0,0,0-9,3.95L241,205h10l-0.25-1.25Z"/><path class="cls-3" d="M232,241a13.23,13.23,0,0,0,9.06,4h10l-0.21-38.94L251,205H241Z"/><path class="cls-1" d="M134.31,274.75a4.43,4.43,0,0,1,3.28-1.24l12.91,0.6,1.86-22.81A4.5,4.5,0,0,1,161,250l8,19.89,12.54-13a4.5,4.5,0,0,1,7.33,1.26l8.67,19a4.5,4.5,0,1,1-8.19,3.73l-5.92-13-7.37,7.64a13.51,13.51,0,1,1-24.74,7.64l-9.39-.44V299a4.5,4.5,0,0,1-9,0V278A4.43,4.43,0,0,1,134.31,274.75Z"/><ellipse class="cls-1" cx="334.99" cy="376.01" rx="27" ry="50" transform="translate(-112.95 606.12) rotate(-75.49)"/><path class="cls-2" d="M256.75,156.35a0.64,0.64,0,0,0,.44-0.18l5.13-4.88a0.64,0.64,0,1,0-.88-0.93l-5.13,4.88A0.64,0.64,0,0,0,256.75,156.35Z"/><path class="cls-3" d="M287.1,130.3c1.75-1.83,3.36-3.39,4.36-4.33a121.31,121.31,0,0,1,14.62,19.33c-3,.28-7.76.68-12.54,0.82A10,10,0,0,0,287.1,130.3Z"/><path class="cls-2" d="M279.25,140.32c0.61,1.82,1.54,3,2.57,3,1.85,0,3.35-3.71,3.35-8.28a19.77,19.77,0,0,0-.15-2.47c0.7-.77,1.4-1.53,2.08-2.24a10,10,0,0,1,6.44,15.83c-6,.18-12-0.06-14.21-1.45C278.08,143.89,278.28,142.28,279.25,140.32Z"/><path class="cls-3" d="M281.82,143.29c-1,0-2-1.16-2.57-3a39.44,39.44,0,0,1,5.77-7.78,19.77,19.77,0,0,1,.15,2.47C285.17,139.58,283.67,143.29,281.82,143.29Z"/><path class="cls-4" d="M260.16,106.32c3.88-4.76,9.53-11.1,12.33-11.31s-0.23,8.38-2.84,14.64c0.79,0.37,1.57.75,2.35,1.15,2.61-2.52,5.53-5.14,7-5.79,2-.87-0.08,4.85-1.72,8.89,1.12,0.73,2.22,1.51,3.32,2.33,4.27-1.17,10.05-2.56,12.07-2.05s-2.69,3.58-7,6.18c2,1.74,3.91,3.61,5.8,5.62-3.77,3.56-16.41,16-12.13,18.7,3.07,1.94,13.53,1.63,21.16,1.09L299,134.92c26.25-32.08,72.5-17.42,70-14.17s-8.75,16.5-3.5,25.36S363,165,352,173s7,12,3.5,13.25c-2.88,1-22.39,3.59-29.17,4.45,9.32,29.36,14.75,64.37,14.75,102a373.35,373.35,0,0,1-3.56,52.85,134.36,134.36,0,0,1-21.09,15.6c9.72-19.62,17.07-50-.43-86.12,0,0,20-83.5-26-120,0,0-14-2-20,0,0,0,3-18.16-20-16.27V105A49.19,49.19,0,0,1,260.16,106.32Z"/><path class="cls-1" d="M324.62,170.19a11.37,11.37,0,0,0,9.34,3.87s10.52-1.31,12.55-2-8.43-3.05-2-7.71,10.91-10.48,7.85-15.64,0.58-12.86,2-14.76-25.45-10.42-40.72,8.24l1.53,11.15a25.69,25.69,0,0,0,4.36,10.35Z"/><path class="cls-5" d="M270,155c6-2,20,0,20,0q1.07,0.85,2.09,1.73c0.35,0.31.69,0.62,1,.93s0.65,0.57,1,.86c0.48,0.45.94,0.91,1.4,1.37l0.5,0.48c0.54,0.55,1.07,1.11,1.59,1.67l0.22,0.24q0.85,0.93,1.66,1.89l0.06,0.07a70.77,70.77,0,0,1,4.64,6.15l0,0.06c9.62-5.57,34-11.85,95.82-10.11,0,0-77.62,9.52-88.8,16.66,34.33,3.83,58.8,12,58.8,12-33.35-6.06-50.6-2.94-57-1.07,0.17,0.45.34,0.9,0.49,1.35C341.05,193.35,400,241,400,241c-46.71-30.19-72.37-38.68-83.39-41.07,6.76,28.33,2.58,58.19.42,69.91v0q-0.18,1-.34,1.81l0,0.16q-0.14.73-.26,1.3l0,0.2-0.06.28-0.06.3-0.06.25,0,0.19,0,0.15,0,0.18,0,0.11,0,0.08V275c17.49,36.12,10.15,66.5.43,86.12A130.56,130.56,0,0,1,250,379.67V138.74C273,136.84,270,155,270,155Z"/><polygon class="cls-6" points="249.03 245 249 245 249 205.01 249.24 206.06 249.03 245"/><path class="cls-6" d="M268,169a12.45,12.45,0,0,1,3.41,5.75l5.15,20.6a47.53,47.53,0,0,1,0,19.4l-5.15,20.6A12.43,12.43,0,0,1,268,241L259,205Z"/><polygon class="cls-6" points="249.24 203.75 249 205.01 249 165 249.03 165 249.24 203.75"/><path class="cls-3" d="M249,165h10a13.22,13.22,0,0,1,9,3.95L259,205H249l0.25-1.25Z"/><path class="cls-3" d="M268,241a13.23,13.23,0,0,1-9.06,4H249l0.21-38.94L249,205h10Z"/><path class="cls-1" d="M365.69,274.75a4.43,4.43,0,0,0-3.28-1.24l-12.91.6-1.86-22.81A4.5,4.5,0,0,0,339,250l-8,19.89-12.54-13a4.5,4.5,0,0,0-7.33,1.26l-8.67,19a4.5,4.5,0,1,0,8.19,3.73l5.92-13,7.37,7.64a13.51,13.51,0,1,0,24.74,7.64l9.39-.44V299a4.5,4.5,0,0,0,9,0V278A4.43,4.43,0,0,0,365.69,274.75Z"/><path class="cls-7" d="M400,241s-43.12-34.85-72.84-47.48c-0.29-.94-0.57-1.89-0.86-2.81,6.07-.78,22.33-2.91,27.74-4.08,4.85,0.55,10.15,1.32,16,2.38,0,0-5.58-1.86-15.13-4.21-3.06-2-11.15-5.78-2.89-11.79a60.33,60.33,0,0,0,8.2-7.06c20.66-3.24,39.83-5.59,39.83-5.59-13.51-.38-25.24-0.38-35.41-0.08,2.84-4.73,3.59-9.59.89-14.15-5.25-8.86,1-22.11,3.5-25.36s-43.75-17.91-70,14.17h0a108.6,108.6,0,0,0-7.53-9h0c-1.89-2-3.83-3.88-5.8-5.62,4.31-2.6,8.89-5.7,7-6.18s-7.8.88-12.07,2.05c-1.1-.82-2.2-1.6-3.32-2.33,1.64-4,3.69-9.77,1.72-8.89-1.46.65-4.38,3.27-7,5.79-0.78-.41-1.56-0.79-2.35-1.15,2.62-6.26,5.71-14.85,2.85-14.64s-8.46,6.55-12.34,11.31A49.19,49.19,0,0,0,250,105v60h-1v39.88l0,0.12,0,0.1V245h1V379.67A129.61,129.61,0,0,0,287.48,374c4.58,11.52,20.29,22.89,40.74,28.19,26.73,6.92,51.44.82,55.17-13.61s-14.91-31.75-41.64-38.67q-3.73-1-7.39-1.6c1.06-.9,2.11-1.81,3.15-2.74a370.71,370.71,0,0,0,3.54-50.35,13.51,13.51,0,0,0,7.56-12l9.39-.44V299a4.5,4.5,0,0,0,9,0V278a4.37,4.37,0,0,0-4.59-4.5l-12.91.6-1.86-22.81A4.5,4.5,0,0,0,339,250l-0.24.6A326.94,326.94,0,0,0,330.14,204C344.39,209.12,366.91,219.61,400,241Zm-82.76,27.66h0ZM316,275v-0.09l0-.08,0-.09Zm0.09-.38,0-.08,0-.12Zm0.1-.44,0-.2Zm0.12-.55,0-.22Zm0.1-.47,0.12-.58Zm0.13-.62,0.13-.67,0-.16q0.16-.81.34-1.81v0C316.85,270.9,316.67,271.79,316.52,272.54Zm0.52-2.69,0.2-1.1ZM302.12,167.56c0.69,0.93,1.37,1.87,2,2.83C303.49,169.43,302.82,168.49,302.12,167.56Zm-3.21-21.69,1.5-.1Zm2.83,21.19c-0.72-.95-1.46-1.88-2.23-2.8C300.29,165.18,301,166.11,301.75,167.06ZM297.26,146l1.21-.07Zm2.22,18.26,0,0q-0.81-1-1.65-1.88Q298.66,163.25,299.49,164.23ZM295.58,146l1.15-.05Zm2,16c-0.51-.55-1-1.1-1.55-1.63C296.52,160.93,297,161.48,297.54,162Zm-3.67-15.92,1.12,0Zm1.25,13.43c-0.34-.34-0.68-0.67-1-1C294.44,158.87,294.77,159.21,295.11,159.54Zm-2.49-13.4h0Zm-1.61,0h0Zm-6.94-.27h0Zm-1.07-.14-0.31,0Zm-1.06-.19-0.23,0Zm-1.07-.26-0.18-.06Zm-0.76-.26-0.19-.08Zm-1.16-.69a1.89,1.89,0,0,0,.38.31A1.91,1.91,0,0,1,278.95,144.36ZM285.2,146l0.38,0Zm1.29,0.08,0.36,0Zm1.6,0.06h0Zm1.35,0h0ZM318.9,257.41c0.12-1.05.25-2.14,0.36-3.26q-0.17,1.68-.36,3.26h0Zm-5.4-68.12c-0.15-.43-0.31-0.86-0.47-1.28,0.16,0.43.32,0.85,0.47,1.28h0Zm-23.4-62c-0.86.84-1.9,1.87-3,3C288.2,129.14,289.24,128.11,290.1,127.27Zm1-1,0,0Zm-0.22.21-0.28.27Zm-0.36.35-0.43.42Zm-3.44,3.46c-0.68.71-1.38,1.46-2.07,2.23a39.44,39.44,0,0,0-5.77,7.78,6.58,6.58,0,0,0-.79,2.59C278.54,139.87,283.17,134.4,287.09,130.31Zm-8.23,13.95a1.72,1.72,0,0,1-.19-0.28A1.69,1.69,0,0,0,278.86,144.25Zm-0.24-.4a1.91,1.91,0,0,1-.11-0.33A1.9,1.9,0,0,0,278.62,143.85Zm-0.13-.45a2.5,2.5,0,0,1,0-.43A2.55,2.55,0,0,0,278.49,143.4Zm-0.37,10.71A27.61,27.61,0,0,0,270,155,27.61,27.61,0,0,1,278.13,154.12Zm42,87c0.47-12.47-.18-27-3.56-41.16h0C320,214.09,320.65,228.63,320.18,241.1Zm-0.91,13q0.1-1,.19-2Q319.36,253.17,319.26,254.14Zm0.2-2.1q0.09-1,.17-1.94Q319.55,251.09,319.46,252Zm0.18-2.11q0.08-1,.15-2Q319.73,249,319.65,249.94Zm0.16-2.14q0.07-1,.13-2Q319.88,246.8,319.81,247.8Zm0.14-2.19q0.06-1,.12-2.1Q320,244.57,320,245.61Zm0.12-2.24q0.05-1.1.1-2.22Q320.13,242.27,320.08,243.37Z"/><path class="cls-4" d="M163.75,465.94V465h5.63v1.88h1.88v1.88h1.88v5.63h-1.87v1.88h-1.87v1.88h-5.62v-1.87h-1.87v-1.87H160v-5.62h1.88v-1.87h1.88v-0.94Zm3.75,1.88v-0.94h-3.75v7.5h1.88v1.88h3.75v-7.5H167.5v-0.94Z"/><path class="cls-4" d="M176.88,465.94V465h9.38v1.88h1.88v3.75h-1.87v1.88h-1.87v1.88h-3.75v1.88h7.5v1.88H175v-3.75h1.88V472.5h1.88v-1.87h3.75v-1.87h1.88v-1.87h-5.62v1.88H175v-1.87h1.88v-0.94Z"/><path class="cls-4" d="M193.75,465.94V465h5.63v1.88h1.88v1.88h1.88v5.63h-1.87v1.88h-1.87v1.88h-5.62v-1.87h-1.87v-1.87H190v-5.62h1.88v-1.87h1.88v-0.94Zm3.75,1.88v-0.94h-3.75v7.5h1.88v1.88h3.75v-7.5H197.5v-0.94Z"/><path class="cls-4" d="M220,471.56V465h11.25v1.88h1.88v5.63h-3.75v1.88h1.88v1.88h1.88v1.88H227.5v-1.87h-1.87v-1.87h-1.87v3.75H220v-6.56Zm9.38-2.81v-1.87h-5.62v5.63h3.75v-1.87h1.88v-1.87Z"/><path class="cls-4" d="M238.75,465.94V465h5.63v1.88h1.88v1.88h1.88v9.38h-3.75v-3.75h-5.62v3.75H235v-9.37h1.88v-1.87h1.88v-0.94Zm3.75,1.88v-0.94h-1.87v1.88h-1.87v3.75h5.63v-3.75H242.5v-0.94Z"/><path class="cls-4" d="M251.88,465.94V465h11.25v1.88h-3.75v11.25h-3.75V466.88h-3.75v-0.94Z"/><path class="cls-4" d="M266.88,465.94V465h11.25v1.88h-3.75v9.38h3.75v1.88H266.88v-1.87h3.75v-9.37h-3.75v-0.94Z"/><path class="cls-4" d="M283.75,465.94V465h7.5v1.88h1.88v1.88h-3.75v-1.87h-3.75v1.88h-1.87v5.63h1.88v1.88h3.75v-1.87h3.75v1.88h-1.87v1.88h-7.5v-1.87h-1.87v-1.87H280v-5.62h1.88v-1.87h1.88v-0.94Z"/><path class="cls-4" d="M298.75,465.94V465h5.63v1.88h1.88v1.88h1.88v9.38h-3.75v-3.75h-5.62v3.75H295v-9.37h1.88v-1.87h1.88v-0.94Zm3.75,1.88v-0.94h-1.87v1.88h-1.87v3.75h5.63v-3.75H302.5v-0.94Z"/><path class="cls-4" d="M311.88,465.94V465h11.25v1.88h-3.75v11.25h-3.75V466.88h-3.75v-0.94Z"/><path class="cls-4" d="M325,471.56V465h13.13v1.88h-9.37v3.75h7.5v1.88h-7.5v3.75h9.38v1.88H325v-6.56Z"/></svg>