<?xml version="1.0" ?><svg id="pkft" viewBox="0 0 500 500" xmlns="http://www.w3.org/2000/svg"><defs><style>.cls-1{fill:#d16260;}.cls-2{fill:#a77149;}.cls-3{fill:#e7c5c9;}.cls-4{fill:#fff;}.cls-5{fill:#3c3c3b;}.cls-6{fill:#f7f2b5;}.cls-7{fill:#d1b0ab;}.cls-8{fill:#1a1a1a;opacity:0.1;}</style></defs><title/><path class="cls-1" d="M220,180.73s-50,120.5-32,150l10.89-27.21c0.61-1.53,1.25-1.44,1.42.2l1.43,14c0.17,1.64,1.11,1.9,2.1.58L220,296.72"/><path class="cls-2" d="M200,110.73s20,16.5,20,20c0,0-30-10-40-10,0,0,29,14.64,30,20.14,0,0-20,.14-30,10.14h30s-30,13.86-30,19.86c0,0,13-11.57,30-10.07,0,0-16,10-20,20l20-10s-10,13-10,20l13-10s-6.5,19-3,30c0,0,1.29-17.3,10.76-19.86,0.19-.05.37-0.11,0.57-0.15,0,0-6.83,20-1.33,30,0,0,10.5-18,13-20,0,0-4.5,25.5-3,30,0,0,5-20,10-20l10,40V216l0,0.1-12.63-38.68a6.37,6.37,0,0,1,6.33-6.38h0a6.42,6.42,0,0,1,6.3-5.61V130.73S220,110.73,200,110.73Z"/><path class="cls-3" d="M243.7,171h0a6.37,6.37,0,0,0-6.33,6.38L250,216l0-.07V165.39A6.42,6.42,0,0,0,243.7,171Z"/><path class="cls-4" d="M229.18,154.58c-3.9-2.06-7.7-3.85-9.18-3.85v20s4.53,0.24,9.29.37A18.58,18.58,0,0,1,229.18,154.58Z"/><path class="cls-5" d="M237,158.94c-0.13,3.88-1.12,6.91-2.34,6.91s-2.35-3.47-2.35-7.75c0-.62,0-1.22.07-1.79-1-.58-2.11-1.16-3.18-1.73a18.58,18.58,0,0,0,.11,16.52c4.86,0.13,10,.13,10.71-0.37v-10S238.8,160,237,158.94Z"/><path class="cls-4" d="M234.65,165.85c1.21,0,2.21-3,2.34-6.91-1.3-.76-2.9-1.68-4.62-2.63,0,0.58-.07,1.17-0.07,1.79C232.3,162.38,233.35,165.85,234.65,165.85Z"/><path class="cls-6" d="M240,210.73c-5,0-10,20-10,20-1.5-4.5,3-30,3-30-2.5,2-13,20-13,20-5.5-10,1.33-30,1.33-30-0.19,0-.38.09-0.57,0.15-6.9,14.81-11.51,35-12.54,57.56-0.06,1.29-.1,2.6-0.14,3.91-0.05,1.89-.08,3.79-0.08,5.71a198.6,198.6,0,0,0,2.87,34.1q0.4,2.28.85,4.51h0c3,14.83,7.71,27.56,13.53,36.93,0.92,1.48,1.88,2.86,2.85,4.16l0.47-1.91a6.68,6.68,0,0,1,6.14-4.86,3.74,3.74,0,0,1,3.78,4.86L236,346a21.45,21.45,0,0,0,13,4.74l1,0v-100Zm8.61,93.49,0-2Zm0-42,0-2Z"/><path class="cls-7" d="M234.71,331a6.68,6.68,0,0,0-6.14,4.86l-0.47,1.91-6,24.48c-0.65,2.67-1.19,4.84-1.2,4.82s-0.87,2-1.92,4.58l-3.54,8.55a38.24,38.24,0,0,0-1.87,5.12,2.25,2.25,0,0,0,1.33.79,4.58,4.58,0,0,0,1.17.14,12.09,12.09,0,0,0,1.87-2.93c0.73-1.4,1.72-2.63,2.2-2.74s0.41,1.89.1,3.28a15.8,15.8,0,0,0-.48,3,2.65,2.65,0,0,0,1.4.75,4.17,4.17,0,0,0,1.32.12c0.25,0,.82-1.68,1.15-3.09s1-2.73,1.43-3,0.8,1.89.79,3.47a24,24,0,0,0,.1,3.24,3.22,3.22,0,0,0,1.44.67,3.93,3.93,0,0,0,1.43.1c0.27-.07.65-2.89,0.8-5.63l0.51-9.31c0.15-2.75.27-5,.26-4.93s0.52-2.12,1.17-4.79L236,346l2.46-10.13A3.74,3.74,0,0,0,234.71,331Z"/><path class="cls-1" d="M280,180.73s50,120.5,32,150l-10.89-27.21c-0.61-1.53-1.25-1.44-1.42.2l-1.43,14c-0.17,1.64-1.11,1.9-2.1.58L280,296.72"/><path class="cls-2" d="M300,110.73s-20,16.5-20,20c0,0,30-10,40-10,0,0-29,14.64-30,20.14,0,0,20,.14,30,10.14H290s30,13.86,30,19.86c0,0-13-11.57-30-10.07,0,0,16,10,20,20l-20-10s10,13,10,20l-13-10s6.5,19,3,30c0,0-1.29-17.3-10.76-19.86-0.19-.05-0.37-0.11-0.57-0.15,0,0,6.83,20,1.33,30,0,0-10.5-18-13-20,0,0,4.5,25.5,3,30,0,0-5-20-10-20l-10,40V216l0,0.1,12.63-38.68a6.37,6.37,0,0,0-6.33-6.38h0a6.65,6.65,0,0,0-6.3-5.61V130.73S280,110.73,300,110.73Z"/><path class="cls-3" d="M256.3,171h0a6.37,6.37,0,0,1,6.33,6.38L250,216l0-.07V165.39A6.65,6.65,0,0,1,256.3,171Z"/><path class="cls-4" d="M270.82,154.58c3.9-2.06,8.18-3.85,9.18-3.85v20s-4.53.24-9.29,0.37A18.58,18.58,0,0,0,270.82,154.58Z"/><path class="cls-5" d="M263,158.94c0.13,3.88,1.12,6.91,2.34,6.91s2.35-3.47,2.35-7.75c0-.62,0-1.22-0.07-1.79,1-.58,2.11-1.16,3.18-1.73a18.58,18.58,0,0,1-.11,16.52c-4.86.13-9.71,0.13-10.71-.37v-10S261.2,160,263,158.94Z"/><path class="cls-4" d="M265.35,165.85c-1.21,0-2.21-3-2.34-6.91,1.3-.76,2.9-1.68,4.62-2.63,0,0.58.07,1.17,0.07,1.79C267.7,162.38,266.65,165.85,265.35,165.85Z"/><path class="cls-6" d="M250,250.73v100l1,0A21.45,21.45,0,0,0,264,346l-2.46-10.13a3.74,3.74,0,0,1,3.78-4.86,6.68,6.68,0,0,1,6.14,4.86l0.47,1.91c1-1.31,1.93-2.68,2.85-4.16,5.82-9.37,10.52-22.1,13.53-36.93h0q0.45-2.22.85-4.51a198.6,198.6,0,0,0,2.87-34.1c0-1.92,0-3.82-.08-5.71,0-1.31-.08-2.62-0.14-3.91-1-22.58-5.65-42.75-12.54-57.56-0.19-.05-0.37-0.11-0.57-0.15,0,0,6.83,20,1.33,30,0,0-10.5-18-13-20,0,0,4.5,25.5,3,30,0,0-5-20-10-20Zm1.35,51.49,0,2Zm0-42,0,2Z"/><path class="cls-7" d="M265.29,331a6.68,6.68,0,0,1,6.14,4.86l0.47,1.91,6,24.48c0.65,2.67,1.19,4.84,1.2,4.82s0.87,2,1.92,4.58l3.54,8.55a38.24,38.24,0,0,1,1.87,5.12,2.25,2.25,0,0,1-1.33.79,4.58,4.58,0,0,1-1.17.14,12.09,12.09,0,0,1-1.87-2.93c-0.73-1.4-1.72-2.63-2.2-2.74s-0.41,1.89-.1,3.28a15.8,15.8,0,0,1,.48,3,2.65,2.65,0,0,1-1.4.75,4.17,4.17,0,0,1-1.32.12c-0.25,0-.82-1.68-1.15-3.09s-1-2.73-1.43-3-0.8,1.89-.79,3.47a24,24,0,0,1-.1,3.24,3.22,3.22,0,0,1-1.44.67,3.93,3.93,0,0,1-1.43.1c-0.27-.07-0.65-2.89-0.8-5.63l-0.51-9.31c-0.15-2.75-.27-5-0.26-4.93s-0.52-2.12-1.17-4.79L264,346l-2.46-10.13A3.74,3.74,0,0,1,265.29,331Z"/><path class="cls-8" d="M290,140.86c1-5.5,30-20.14,30-20.14-10,0-40,10-40,10,0-3.5,20-20,20-20-20,0-50,20-50,20V216l0,0.07,12.63-38.66L250,216.06l0-.1V350.7l1,0A21.45,21.45,0,0,0,264,346l4.48,18.48c0.65,2.67,1.17,4.83,1.17,4.79s0.11,2.18.26,4.93l0.51,9.31c0.15,2.75.52,5.56,0.8,5.63a3.93,3.93,0,0,0,1.43-.1,3.22,3.22,0,0,0,1.44-.67,24,24,0,0,0,.1-3.24c0-1.58.33-3.69,0.79-3.47s1.1,1.55,1.43,3,0.91,3,1.15,3.09a4.17,4.17,0,0,0,1.32-.12,2.65,2.65,0,0,0,1.4-.75,15.8,15.8,0,0,0-.48-3c-0.31-1.39-.39-3.39.1-3.28s1.48,1.34,2.2,2.74a12.09,12.09,0,0,0,1.87,2.93,4.58,4.58,0,0,0,1.17-.14,2.25,2.25,0,0,0,1.33-.79,38.24,38.24,0,0,0-1.87-5.12L281,371.65c-1.05-2.54-1.92-4.6-1.92-4.58s-0.54-2.15-1.2-4.82l-6-24.48c1-1.31,1.93-2.68,2.85-4.16,4.68-7.53,8.63-17.23,11.56-28.44l9.85,13.17c1,1.32,1.93,1.06,2.1-.58l1.44-14c0.17-1.64.81-1.73,1.42-.2L312,330.73c12.52-20.51-7.84-85-21.41-122.42,2-11.15-3.59-27.58-3.59-27.58l13,10c0-7-10-20-10-20l20,10c-4-10-20-20-20-20,17-1.5,30,10.07,30,10.07,0-6-30-19.86-30-19.86h30C310,141,290,140.86,290,140.86Zm-11.33,49.86h0s0.62,1.82,1.33,4.62h0C279.29,192.54,278.67,190.73,278.67,190.73Zm-8.36,36.53c-0.1-8.38-3.3-26.53-3.3-26.53h0S270.2,218.88,270.3,227.26Zm8.93-36.38c0.26,0.07.51,0.16,0.76,0.25v1.46C279.75,192,279.5,191.43,279.24,190.87Zm8.07,8.54c0.28,0.67.53,1.35,0.76,2Z"/><path class="cls-1" d="M171.25,465.94V465h5.63v1.88h1.88v1.88h1.88v5.63h-1.87v1.88h-1.87v1.88h-5.62v-1.87h-1.87v-1.87H167.5v-5.62h1.88v-1.87h1.88v-0.94Zm3.75,1.88v-0.94h-3.75v7.5h1.88v1.88h3.75v-7.5H175v-0.94Z"/><path class="cls-1" d="M184.38,465.94V465h9.38v1.88h1.88v3.75h-1.87v1.88h-1.87v1.88h-3.75v1.88h7.5v1.88H182.5v-3.75h1.88V472.5h1.88v-1.87H190v-1.87h1.88v-1.87h-5.62v1.88H182.5v-1.87h1.88v-0.94Z"/><path class="cls-1" d="M203.13,465.94V465h3.75v11.25h3.75v1.88H199.38v-1.87h3.75v-7.5h-1.87v-1.87h1.88v-0.94Z"/><path class="cls-1" d="M229.38,465.94V465h7.5v1.88h1.88v1.88H235v-1.87h-3.75v3.75h7.5v1.88h1.88v3.75h-1.87v1.88h-9.37v-1.87H227.5v-1.87h3.75v1.88h5.63V472.5h-7.5v-1.87H227.5v-3.75h1.88v-0.94Z"/><path class="cls-1" d="M242.5,471.56V465h11.25v1.88h1.88v5.63h-1.87v1.88h-7.5v3.75H242.5v-6.56Zm9.38-1.87v-2.81h-5.62v5.63h5.63v-2.81Z"/><path class="cls-1" d="M257.5,471.56V465h13.13v1.88h-9.37v3.75h7.5v1.88h-7.5v3.75h9.38v1.88H257.5v-6.56Z"/><path class="cls-1" d="M276.25,465.94V465h5.63v1.88h1.88v1.88h1.88v9.38h-3.75v-3.75h-5.62v3.75H272.5v-9.37h1.88v-1.87h1.88v-0.94Zm3.75,1.88v-0.94h-1.87v1.88h-1.87v3.75h5.63v-3.75H280v-0.94Z"/><path class="cls-1" d="M287.5,471.56V465h11.25v1.88h1.88v5.63h-3.75v1.88h1.88v1.88h1.88v1.88H295v-1.87h-1.87v-1.87h-1.87v3.75H287.5v-6.56Zm9.38-2.81v-1.87h-5.62v5.63H295v-1.87h1.88v-1.87Z"/><path class="cls-1" d="M304.38,465.94V465h9.38v1.88h1.88v9.38h-1.87v1.88h-9.37v-1.87H302.5v-9.37h1.88v-0.94Zm7.5,5.63v-4.69h-5.62v9.38h5.63v-4.69Z"/><path class="cls-1" d="M317.5,471.56V465h3.75v5.63h1.88v-1.87H325v1.88h1.88V465h3.75v13.13h-3.75v-1.87H325v-1.87h-1.87v1.88h-1.87v1.88H317.5v-6.56Z"/></svg>