<?xml version="1.0" ?><svg id="pkft" viewBox="0 0 500 500" xmlns="http://www.w3.org/2000/svg"><defs><style>.cls-1{fill:#c16b25;}.cls-2{fill:#f0e8ba;}.cls-3{fill:#d99886;}.cls-4{fill:#ba5269;}.cls-5{fill:#db9686;}.cls-6{fill:#c7752c;}.cls-7{fill:#bf5c7b;}.cls-8{fill:#ce7297;}.cls-9{fill:#fff;}.cls-10,.cls-11{fill:#1a1a1a;}.cls-11{opacity:0.1;}</style></defs><title/><path class="cls-1" d="M219,226S133,105,30,75c0,0,4,9.56,11.78,24.4C130.9,148,214,256,214,256v8q2.49,0.52,5,1V226Z"/><path class="cls-2" d="M41.78,99.4C66.2,146.28,127.38,245.9,214,264v-8S130.9,148,41.78,99.4Z"/><path class="cls-1" d="M210,351.67a16.65,16.65,0,0,0-10,30V405h10V385A16.67,16.67,0,0,0,210,351.67Z"/><path class="cls-3" d="M203.4,435h3.08a3.52,3.52,0,0,0,3.52-3.52v-6.59l9,9.07a3.52,3.52,0,0,0,2.5,1h0.4a3.52,3.52,0,0,0,2.57-5.93l-3.77-4L210,415.11V405H200v9.62l-10,10.43L186,429a3.52,3.52,0,0,0,2.48,6h0a3.52,3.52,0,0,0,2.5-1l8.63-8.73,0.22,6.38A3.52,3.52,0,0,0,203.4,435Z"/><path class="cls-1" d="M200,294c0,40.54,10.28,75.86,25.49,94.44a61.9,61.9,0,0,1-7.68,13C205.13,417.9,250,425,250,425V185.67C222.39,185.67,200,234.17,200,294Z"/><polygon class="cls-4" points="237.74 111.07 250 65 250 111 237.74 111.07"/><polygon class="cls-5" points="250 165 230 185 250 325 250 165"/><path class="cls-6" d="M235.71,225S200,215.5,200,165c0,0,0-40,50-40v40l-20,20Z"/><polygon class="cls-7" points="250 155 230 127.64 250 85 250 155"/><polygon class="cls-8" points="250 155 230 127.64 250 105 250 155"/><path class="cls-9" d="M240,159.25s-3.26-2.85-7.19-6a21,21,0,0,1,.52,4.76,18.17,18.17,0,0,1-1.25,7H240v-5.75Z"/><path class="cls-9" d="M227.63,149.26c-3.27-2.39-6.27-4.26-7.63-4.26-3.75,0-4,20-4,20h10.58a18.17,18.17,0,0,1-1.25-7C225.33,154.13,226.28,150.81,227.63,149.26Z"/><path class="cls-10" d="M233.07,154.58c-0.1,2.57-1,4.58-2.07,4.58s-2.09-2.25-2.09-5a9.71,9.71,0,0,1,.58-3.47c-0.62-.47-1.25-1-1.86-1.4-1.36,1.55-2.3,4.87-2.3,8.74a18.17,18.17,0,0,0,1.25,7h5.51a18.17,18.17,0,0,0,1.25-7A22,22,0,0,0,233.07,154.58Z"/><path class="cls-9" d="M231,159.17c1.09,0,2-2,2.07-4.58-0.07-.46-0.16-0.91-0.25-1.34-1.07-.86-2.2-1.73-3.32-2.59a9.71,9.71,0,0,0-.58,3.47C228.91,156.91,229.85,159.17,231,159.17Z"/><path class="cls-1" d="M281,226S367,105,470,75c0,0-4,9.56-11.78,24.4C369.1,148,286,256,286,256v8q-2.49.52-5,1V226Z"/><path class="cls-2" d="M458.22,99.4C433.8,146.28,372.62,245.9,286,264v-8S369.1,148,458.22,99.4Z"/><path class="cls-1" d="M290,351.67a16.65,16.65,0,0,1,10,30V405H290V385A16.67,16.67,0,1,1,290,351.67Z"/><path class="cls-3" d="M296.6,435h-3.08a3.52,3.52,0,0,1-3.52-3.52v-6.59L281,434a3.52,3.52,0,0,1-2.5,1h-0.4a3.52,3.52,0,0,1-2.57-5.93l3.77-4L290,415.11V405h10v9.62l10,10.43,4,3.93a3.52,3.52,0,0,1-2.48,6h0a3.52,3.52,0,0,1-2.5-1l-8.63-8.73-0.22,6.38A3.52,3.52,0,0,1,296.6,435Z"/><path class="cls-1" d="M300,294c0,40.54-10.28,75.86-25.49,94.44a61.9,61.9,0,0,0,7.68,13C294.87,417.9,250,425,250,425V185.67C277.61,185.67,300,234.17,300,294Z"/><polygon class="cls-4" points="262.26 111.07 250 65 250 111 262.26 111.07"/><polygon class="cls-5" points="250 165 270 185 250 325 250 165"/><path class="cls-6" d="M264.29,225S300,215.5,300,165c0,0,0-40-50-40v40l20,20Z"/><polygon class="cls-7" points="250 155 270 127.64 250 85 250 155"/><polygon class="cls-8" points="250 155 270 127.64 250 105 250 155"/><path class="cls-9" d="M260,159.25s3.26-2.85,7.19-6a21,21,0,0,0-.52,4.76,19.08,19.08,0,0,0,1.25,7H260v-5.75Z"/><path class="cls-9" d="M272.37,149.26c3.27-2.39,6.27-4.26,7.63-4.26,3.75,0,4,20,4,20H273.42a19.08,19.08,0,0,0,1.25-7C274.67,154.13,273.72,150.81,272.37,149.26Z"/><path class="cls-10" d="M266.93,154.58c0.1,2.57,1,4.58,2.07,4.58s2.09-2.25,2.09-5a9.71,9.71,0,0,0-.58-3.47c0.62-.47,1.25-1,1.86-1.4,1.36,1.55,2.3,4.87,2.3,8.74a19.08,19.08,0,0,1-1.25,7h-5.51a19.08,19.08,0,0,1-1.25-7A22,22,0,0,1,266.93,154.58Z"/><path class="cls-9" d="M269,159.17c-1.09,0-2-2-2.07-4.58,0.07-.46.16-0.91,0.25-1.34,1.07-.86,2.2-1.73,3.32-2.59a9.71,9.71,0,0,1,.58,3.47C271.09,156.91,270.15,159.17,269,159.17Z"/><path class="cls-11" d="M286.13,219.12q-1.43-3.23-3-6.2C291.73,204.1,300,189.29,300,165c0,0,0-28.49-30-37.4h0L262.23,111h0L250,65V425s44.87-7.1,32.19-23.6a61.9,61.9,0,0,1-7.68-13,69.82,69.82,0,0,0,5.07-7.11A16.58,16.58,0,0,0,290,385v30.11l-10.67,9.94-3.77,4a3.52,3.52,0,0,0,2.57,5.93h0.4a3.52,3.52,0,0,0,2.5-1l9-9.07v6.59a3.52,3.52,0,0,0,3.52,3.52h3.08a3.52,3.52,0,0,0,3.52-3.4l0.22-6.38L309,434a3.52,3.52,0,0,0,2.5,1h0a3.52,3.52,0,0,0,2.48-6l-4-3.93-10-10.43v-33a16.64,16.64,0,0,0-7.72-29.8C297.17,335.1,300,315.27,300,294a227,227,0,0,0-2.35-32.92C378.1,237,434.91,144.15,458.22,99.4,466,84.56,470,75,470,75,381.8,100.69,306.08,193.09,286.13,219.12Z"/><path class="cls-1" d="M178.75,465.94V465h5.63v1.88h1.88v1.88h1.88v5.63h-1.87v1.88h-1.87v1.88h-5.62v-1.87h-1.87v-1.87H175v-5.62h1.88v-1.87h1.88v-0.94Zm3.75,1.88v-0.94h-3.75v7.5h1.88v1.88h3.75v-7.5H182.5v-0.94Z"/><path class="cls-1" d="M191.88,465.94V465h9.38v1.88h1.88v3.75h-1.87v1.88h-1.87v1.88h-3.75v1.88h7.5v1.88H190v-3.75h1.88V472.5h1.88v-1.87h3.75v-1.87h1.88v-1.87h-5.62v1.88H190v-1.87h1.88v-0.94Z"/><path class="cls-1" d="M206.88,465.94V465h9.38v1.88h1.88v3.75h-1.87v1.88h-1.87v1.88h-3.75v1.88h7.5v1.88H205v-3.75h1.88V472.5h1.88v-1.87h3.75v-1.87h1.88v-1.87h-5.62v1.88H205v-1.87h1.88v-0.94Z"/><path class="cls-1" d="M235,471.56V465h13.13v1.88h-9.37v3.75h7.5v1.88h-7.5v5.63H235v-6.56Z"/><path class="cls-1" d="M250,471.56V465h13.13v1.88h-9.37v3.75h7.5v1.88h-7.5v3.75h9.38v1.88H250v-6.56Z"/><path class="cls-1" d="M268.75,465.94V465h5.63v1.88h1.88v1.88h1.88v9.38h-3.75v-3.75h-5.62v3.75H265v-9.37h1.88v-1.87h1.88v-0.94Zm3.75,1.88v-0.94h-1.87v1.88h-1.87v3.75h5.63v-3.75H272.5v-0.94Z"/><path class="cls-1" d="M280,471.56V465h11.25v1.88h1.88v5.63h-3.75v1.88h1.88v1.88h1.88v1.88H287.5v-1.87h-1.87v-1.87h-1.87v3.75H280v-6.56Zm9.38-2.81v-1.87h-5.62v5.63h3.75v-1.87h1.88v-1.87Z"/><path class="cls-1" d="M296.88,465.94V465h9.38v1.88h1.88v9.38h-1.87v1.88h-9.37v-1.87H295v-9.37h1.88v-0.94Zm7.5,5.63v-4.69h-5.62v9.38h5.63v-4.69Z"/><path class="cls-1" d="M310,471.56V465h3.75v5.63h1.88v-1.87h1.88v1.88h1.88V465h3.75v13.13h-3.75v-1.87H317.5v-1.87h-1.87v1.88h-1.87v1.88H310v-6.56Z"/></svg>