<?xml version="1.0" ?><svg id="pkft" viewBox="0 0 500 500" xmlns="http://www.w3.org/2000/svg"><defs><style>.cls-1{fill:#f4d043;}.cls-2{fill:#9565a0;}.cls-3{fill:#4e2830;}.cls-4{fill:#de8081;}.cls-5{fill:#eeb41d;}.cls-11,.cls-6{fill:#1a1a1a;}.cls-7{fill:#996aa5;}.cls-8{fill:#f4d160;}.cls-9{fill:#a071af;}.cls-10{fill:#efce70;}.cls-11{opacity:0.1;}</style></defs><title/><rect class="cls-1" height="20" transform="translate(445 -35) rotate(90)" width="50" x="215" y="195"/><rect class="cls-2" height="20" transform="translate(475.17 -4.83) rotate(90)" width="10.33" x="234.83" y="225.17"/><path class="cls-2" d="M220,167v13c0,22.09,13.43,40,30,40V139.5C233.43,139.5,220,151.81,220,167Z"/><path class="cls-3" d="M250,196v-6c-9.3,0-16.83,4.48-16.83,10a6.37,6.37,0,0,0,.77,3C236.08,198.94,242.46,196,250,196Z"/><path class="cls-4" d="M250,210V196c-7.54,0-13.92,2.94-16.06,7C236.08,207.06,242.46,210,250,210Z"/><path class="cls-5" d="M241,163.54c-4.65,2.72-6.91,8.19-6.91,8.19-0.29-2.49,1.61-6.87,2.85-9.42-5.43-.73-10.3,2-10.94,6.16s3.31,8.35,8.85,9.2,10.56-1.89,11.21-6.12C246.52,168.37,244.41,165.25,241,163.54Z"/><path class="cls-6" d="M232.5,176.13s3.83-9.87,8.48-12.59a12.87,12.87,0,0,0-3.8-1.2l-0.27,0C235.67,164.85,232.21,173.64,232.5,176.13Z"/><path class="cls-6" d="M243.57,189a0.23,0.23,0,0,1-.18,0s-1.88-1.46-1.77-1.41l2,1A0.23,0.23,0,0,1,243.57,189Z"/><path class="cls-2" d="M167,350h83V320H160a19.91,19.91,0,0,0-19.68,23.44l13,4.35A51.83,51.83,0,0,0,167,350Z"/><path class="cls-1" d="M160,360h90V350H167a51.83,51.83,0,0,1-13.64-2.21l-13-4.35A20,20,0,0,0,160,360Z"/><path class="cls-7" d="M181.9,310H250V280H176.16c-9.06,0-16.41,9-16.41,20a24.32,24.32,0,0,0,.26,3.44l10.7,4.35A35.61,35.61,0,0,0,181.9,310Z"/><path class="cls-8" d="M176.16,320H250V310H181.9a35.61,35.61,0,0,1-11.19-2.21L160,303.44C161.35,312.84,168.06,320,176.16,320Z"/><path class="cls-9" d="M197,270h53V240H192.52c-7.05,0-12.77,9-12.77,20a31.12,31.12,0,0,0,.2,3.44l8.33,4.35A22.45,22.45,0,0,0,197,270Z"/><path class="cls-10" d="M192.52,280H250V270H197a22.45,22.45,0,0,1-8.71-2.21L180,263.44C181,272.84,186.22,280,192.52,280Z"/><rect class="cls-1" height="20" transform="translate(465 -55) rotate(90)" width="50" x="235" y="195"/><rect class="cls-2" height="20" transform="translate(495.17 -24.83) rotate(90)" width="10.33" x="254.83" y="225.17"/><path class="cls-2" d="M280,167v13c0,22.09-13,40-30,40V139.5C267,139.5,280,151.81,280,167Z"/><path class="cls-3" d="M250,196v-6c9,0,16.83,4.48,16.83,10a6.37,6.37,0,0,1-.77,3C263.92,198.94,258,196,250,196Z"/><path class="cls-4" d="M250,210V196c8,0,13.92,2.94,16.06,7C263.92,207.06,258,210,250,210Z"/><path class="cls-5" d="M259,163.54c4.65,2.72,6.91,8.19,6.91,8.19,0.29-2.49-1.61-6.87-2.85-9.42,5.43-.73,10.3,2,10.94,6.16s-3.31,8.35-8.85,9.2-10.56-1.89-11.21-6.12C253.48,168.37,255.59,165.25,259,163.54Z"/><path class="cls-6" d="M267.5,176.13s-3.83-9.87-8.48-12.59a12.87,12.87,0,0,1,3.8-1.2l0.27,0C264.33,164.85,267.79,173.64,267.5,176.13Z"/><path class="cls-6" d="M256.43,189a0.23,0.23,0,0,0,.18,0s1.88-1.46,1.77-1.41l-2,1A0.23,0.23,0,0,0,256.43,189Z"/><path class="cls-2" d="M333,350H250V320h90a19.91,19.91,0,0,1,19.68,23.44l-13,4.35A51.83,51.83,0,0,1,333,350Z"/><path class="cls-1" d="M340,360H250V350h83a51.83,51.83,0,0,0,13.64-2.21l13-4.35A20,20,0,0,1,340,360Z"/><path class="cls-7" d="M318.1,310H250V280h73.84c9.06,0,16.41,9,16.41,20a24.32,24.32,0,0,1-.26,3.44l-10.7,4.35A35.61,35.61,0,0,1,318.1,310Z"/><path class="cls-8" d="M323.84,320H250V310h68.1a35.61,35.61,0,0,0,11.19-2.21l10.7-4.35C338.65,312.84,331.94,320,323.84,320Z"/><path class="cls-9" d="M303,270H250V240h57.48c7.05,0,12.77,9,12.77,20a31.12,31.12,0,0,1-.2,3.44l-8.33,4.35A22.45,22.45,0,0,1,303,270Z"/><path class="cls-10" d="M307.48,280H250V270h53a22.45,22.45,0,0,0,8.71-2.21l8.33-4.35C319,272.84,313.78,280,307.48,280Z"/><path class="cls-11" d="M340,320H323.84c8.1,0,14.81-7.16,16.15-16.56a24.28,24.28,0,0,0,.26-3.44c0-11-7.35-20-16.41-20H307.48c6.3,0,11.53-7.16,12.57-16.56a31.14,31.14,0,0,0,.2-3.44c0-11-5.72-20-12.77-20H270V210c6.19-7.33,10-18.05,10-30V167c0-15.19-13-27.5-30-27.5V360h90A20,20,0,0,0,340,320Z"/><path class="cls-9" d="M186.25,465.94V465h5.63v1.88h1.88v1.88h1.88v5.63h-1.87v1.88h-1.87v1.88h-5.62v-1.87h-1.87v-1.87H182.5v-5.62h1.88v-1.87h1.88v-0.94Zm3.75,1.88v-0.94h-3.75v7.5h1.88v1.88h3.75v-7.5H190v-0.94Z"/><path class="cls-9" d="M199.38,465.94V465h9.38v1.88h1.88v3.75h-1.87v1.88h-1.87v1.88h-3.75v1.88h7.5v1.88H197.5v-3.75h1.88V472.5h1.88v-1.87H205v-1.87h1.88v-1.87h-5.62v1.88H197.5v-1.87h1.88v-0.94Z"/><path class="cls-9" d="M214.38,465.94V465h11.25v1.88h-1.87v1.88h-1.87v1.88h1.88v1.88h1.88v3.75h-1.87v1.88h-9.37v-1.87H212.5v-1.87h3.75v1.88h5.63V472.5h-5.62v-1.87h1.88v-1.87H220v-1.87h-5.62v-0.94Z"/><path class="cls-9" d="M242.5,471.56V465h13.13v1.88h-9.37v3.75h7.5v1.88h-7.5v3.75h9.38v1.88H242.5v-6.56Z"/><path class="cls-9" d="M257.5,471.56V465h3.75v5.63h1.88v-1.87H265v-1.87h1.88V465h3.75v1.88h-1.87v1.88h-1.87v1.88H265v1.88h1.88v1.88h1.88v1.88h1.88v1.88H265v-1.87h-1.87v-1.87h-1.87v3.75H257.5v-6.56Z"/><path class="cls-9" d="M276.25,465.94V465h5.63v1.88h1.88v1.88h1.88v9.38h-3.75v-3.75h-5.62v3.75H272.5v-9.37h1.88v-1.87h1.88v-0.94Zm3.75,1.88v-0.94h-1.87v1.88h-1.87v3.75h5.63v-3.75H280v-0.94Z"/><path class="cls-9" d="M287.5,471.56V465h3.75v1.88h1.88v1.88H295v1.88h1.88V465h3.75v13.13h-3.75v-1.87H295v-1.87h-1.87V472.5h-1.87v5.63H287.5v-6.56Z"/><path class="cls-9" d="M304.38,465.94V465h7.5v1.88h1.88v1.88H310v-1.87h-3.75v3.75h7.5v1.88h1.88v3.75h-1.87v1.88h-9.37v-1.87H302.5v-1.87h3.75v1.88h5.63V472.5h-7.5v-1.87H302.5v-3.75h1.88v-0.94Z"/></svg>