<?xml version="1.0" ?><svg id="pkft" viewBox="0 0 500 500" xmlns="http://www.w3.org/2000/svg"><defs><style>.cls-1{fill:#9088a5;}.cls-2{fill:#7c7399;}.cls-3{fill:#9f96b1;}.cls-10,.cls-4{fill:#1a1a1a;}.cls-5{fill:#dd4545;}.cls-6{fill:#f6c04a;}.cls-7{fill:#8f85a8;}.cls-8{fill:#fff;}.cls-9{fill:#daa4b3;}.cls-10{opacity:0.1;}</style></defs><title/><path class="cls-1" d="M198.5,320A18.76,18.76,0,0,0,180,338.74v3A18.35,18.35,0,0,0,198.5,360H250V320H198.5Z"/><path class="cls-2" d="M160.07,360c-16,0-20.07,8.56-20.07,18.74v3c0,10.17,4.08,18.26,20.07,18.26H250V360H160.07Z"/><path class="cls-3" d="M226.75,174.65c-11.79-4-24.52-10.11-25.51-17.75,0,0,10,4.8,21.16,9.16a22.89,22.89,0,0,1-.84-6c0-4.84-3.42-24.62-3.42-31.65a25.7,25.7,0,0,1,2-9.87c-47.56,8.49-82.48,36.5-82.48,69.78,0,31.94,32.16,59.05,76.8,68.68l4.85,92.39a12,12,0,0,0,11.94,10.89h19.07V185.6A29.89,29.89,0,0,1,226.75,174.65ZM175.16,156.9s25.48,22,42.65,24.68c8.05,1.26,14.75,6.61,14.75,14.75a14.75,14.75,0,0,1-14.75,14.75S169.79,214.57,175.16,156.9Z"/><path class="cls-4" d="M217.81,211.09a14.75,14.75,0,0,0,14.75-14.75c0-8.15-6.7-13.5-14.75-14.75-17.17-2.68-42.65-24.68-42.65-24.68C169.79,214.57,217.81,211.09,217.81,211.09ZM185.55,170s16.19,14,27.09,15.68c5.11,0.8,9.37,4.2,9.37,9.37a9.37,9.37,0,0,1-9.37,9.37S182.14,206.64,185.55,170Z"/><path class="cls-5" d="M212.64,204.43a9.37,9.37,0,0,0,9.37-9.37c0-5.18-4.26-8.57-9.37-9.37C201.74,184,185.55,170,185.55,170,182.14,206.64,212.64,204.43,212.64,204.43Zm-18.9-25s8.86,7.65,14.82,8.58c2.8,0.44,5.13,2.3,5.13,5.13a5.13,5.13,0,0,1-5.13,5.13S191.88,199.46,193.75,179.42Z"/><path class="cls-6" d="M208.57,198.25a5.13,5.13,0,0,0,5.13-5.13c0-2.83-2.33-4.69-5.13-5.13-6-.93-14.82-8.58-14.82-8.58C191.88,199.46,208.57,198.25,208.57,198.25Z"/><path class="cls-4" d="M170.52,212.43s12.91,40.24,63.88,32.19c0,0,14.6,3.77,15.6,9.93V212.43S200.57,234.69,170.52,212.43Z"/><path class="cls-4" d="M200.91,156.9c1,7.65,13.71,13.72,25.51,17.75a24.17,24.17,0,0,1-4.35-8.59C210.92,161.7,200.91,156.9,200.91,156.9Z"/><path class="cls-3" d="M221.23,160a22.89,22.89,0,0,0,.84,6,24.17,24.17,0,0,0,4.35,8.59,29.89,29.89,0,0,0,23.58,11v-5.37a33.66,33.66,0,0,1-4.58-.61,32.41,32.41,0,0,1-3.15-.79c-0.7-.22-1.42-0.47-2.12-0.75a19.7,19.7,0,0,1-2.71-1.33,12.88,12.88,0,0,1-3.21-2.64,9.25,9.25,0,0,1-1.66-2.77,11.17,11.17,0,0,1,0-7.2c3-10.35-.95-13.75-3.77-14.87-1.46-.33-2.37-0.55-2.37-0.55a7.75,7.75,0,0,1,2.37.55c5.61,1.26,19.4,4,21.21,1.6v-35a172,172,0,0,0-30.18,2.65,25.7,25.7,0,0,0-2,9.87C217.81,135.4,221.23,155.19,221.23,160Zm4.22-31.83a16.87,16.87,0,0,1,3,3.51c0.79,1.1,1.61,2.33,2.39,3.55,1.05,1.63,2,3.23,2.76,4.44s1.22,2,1.22,2c-2.65,0-6.44-1.3-9.49-2.62a25.07,25.07,0,0,1-5-2.61C219.82,135.84,222.91,126.45,225.45,128.2Z"/><path class="cls-7" d="M219.82,118.51a25.7,25.7,0,0,0-2,9.87c0,7,3.42,26.81,3.42,31.65a22.89,22.89,0,0,0,.84,6,24.17,24.17,0,0,0,4.35,8.59,29.89,29.89,0,0,0,23.58,11v-5.37a33.69,33.69,0,0,1-4.58-.61c-1-.2-2-0.45-3.15-0.79-0.7-.22-1.42-0.47-2.12-0.75a19.71,19.71,0,0,1-2.71-1.33,12.89,12.89,0,0,1-3.21-2.64,9.26,9.26,0,0,1-1.66-2.77,11.17,11.17,0,0,1,0-7.2c3-10.35-.95-13.75-3.77-14.87-1.46-.33-2.37-0.55-2.37-0.55a7.75,7.75,0,0,1,2.37.55c5.61,1.26,19.4,4,21.21,1.6V99.76C236.13,99.76,224.34,107.57,219.82,118.51Zm5.54,20.62a25.06,25.06,0,0,1-5-2.61c-0.54-.67,2.55-10.06,5.1-8.32a16.88,16.88,0,0,1,3,3.51c0.78,1.1,1.61,2.33,2.39,3.55,1.05,1.63,2,3.23,2.76,4.44s1.22,2,1.22,2C232.19,141.74,228.4,140.44,225.35,139.13Z"/><path class="cls-8" d="M220.36,136.51a25.07,25.07,0,0,0,5,2.61c0.13-.63.29-1.26,0.49-1.9a20.18,20.18,0,0,1,2.63-5.52,16.87,16.87,0,0,0-3-3.51C222.91,126.45,219.82,135.84,220.36,136.51Z"/><path class="cls-4" d="M225.35,139.13c3,1.31,6.84,2.62,9.49,2.62,0,0-.47-0.82-1.22-2-0.65.87-1.34,1.33-1.93,1.18-1.12-.3-1.45-2.74-0.83-5.61-0.79-1.22-1.61-2.45-2.39-3.55a20.18,20.18,0,0,0-2.63,5.52C225.65,137.87,225.49,138.5,225.35,139.13Z"/><path class="cls-8" d="M231.7,140.87c0.59,0.16,1.28-.31,1.93-1.18-0.73-1.2-1.71-2.8-2.76-4.44C230.25,138.13,230.58,140.57,231.7,140.87Z"/><path class="cls-9" d="M228.79,149.27a7.75,7.75,0,0,0-2.37-.55S227.33,148.94,228.79,149.27Z"/><path class="cls-9" d="M228.79,149.27c2.82,1.12,6.8,4.52,3.77,14.87a11.17,11.17,0,0,0,0,7.2l3.63-1-2,3.82a12.88,12.88,0,0,0,3.21,2.64l2.85-2.5-0.14,3.84c0.71,0.29,1.42.54,2.12,0.75l2.3-3.3,0.85,4.08a33.66,33.66,0,0,0,4.58.61V150.86C248.19,153.31,234.4,150.52,228.79,149.27Z"/><path class="cls-8" d="M242.27,178.84a32.41,32.41,0,0,0,3.15.79l-0.85-4.08Z"/><path class="cls-8" d="M237.44,176.75a19.7,19.7,0,0,0,2.71,1.33l0.14-3.84Z"/><path class="cls-8" d="M232.57,171.35a9.25,9.25,0,0,0,1.66,2.77l2-3.82Z"/><path class="cls-1" d="M300.83,320C311,320,319,328.56,319,338.74v3A18.07,18.07,0,0,1,300.83,360H249V320h51.83Z"/><path class="cls-2" d="M339.26,360c16,0,19.74,8.56,19.74,18.74v3c0,10.17-3.75,18.26-19.74,18.26H249V360h90.26Z"/><path class="cls-3" d="M249.67,185.6V360.24h19.07a12,12,0,0,0,11.94-10.89L285.53,257c44.64-9.63,76.8-36.74,76.8-68.68,0-33.28-34.92-61.29-82.48-69.78a25.7,25.7,0,0,1,2,9.87c0,7-3.42,26.81-3.42,31.65a22.89,22.89,0,0,1-.84,6c11.15-4.36,7.11,4.56-4.68,8.59A32.49,32.49,0,0,1,249.67,185.6Zm31.86,25.48a14.75,14.75,0,0,1-14.75-14.75c0-8.15,6.7-13.5,14.75-14.75,17.17-2.68,42.65-24.68,42.65-24.68C329.54,214.57,281.52,211.09,281.52,211.09Z"/><path class="cls-4" d="M324.18,156.9s-25.48,22-42.65,24.68c-8.05,1.26-14.75,6.61-14.75,14.75a14.75,14.75,0,0,0,14.75,14.75S329.54,214.57,324.18,156.9Zm-37.49,47.53a9.37,9.37,0,0,1-9.37-9.37c0-5.18,4.26-8.57,9.37-9.37C297.59,184,313.78,170,313.78,170,317.19,206.64,286.69,204.43,286.69,204.43Z"/><path class="cls-5" d="M313.78,170s-16.19,14-27.09,15.68c-5.11.8-9.37,4.2-9.37,9.37a9.37,9.37,0,0,0,9.37,9.37S317.19,206.64,313.78,170Zm-23,28.24a5.13,5.13,0,0,1-5.13-5.13c0-2.83,2.33-4.69,5.13-5.13,6-.93,14.82-8.58,14.82-8.58C307.45,199.46,290.76,198.25,290.76,198.25Z"/><path class="cls-6" d="M290.76,198.25a5.13,5.13,0,0,1-5.13-5.13c0-2.83,2.33-4.69,5.13-5.13,6-.93,14.82-8.58,14.82-8.58C307.45,199.46,290.76,198.25,290.76,198.25Z"/><path class="cls-4" d="M328.64,212.43s-13,40.24-64,32.19c0,0-14.68,3.77-15.68,9.93V212.43S298.6,234.69,328.64,212.43Z"/><path class="cls-4" d="M298.42,156.9c-1,7.65-13.71,13.72-25.51,17.75a24.17,24.17,0,0,0,4.35-8.59C288.41,161.7,298.42,156.9,298.42,156.9Z"/><path class="cls-3" d="M281.52,128.38a25.84,25.84,0,0,0-2.17-9.87A169.39,169.39,0,0,0,249,115.86v35c2,2.45,15.76-.34,21.38-1.6a8,8,0,0,1,2.46-.55s-0.87.22-2.33,0.55c-2.82,1.12-6.78,4.52-3.75,14.87a11.18,11.18,0,0,1,0,7.2,9.24,9.24,0,0,1-1.66,2.77,12.87,12.87,0,0,1-3.2,2.64,19.68,19.68,0,0,1-2.71,1.33c-0.71.29-1.42,0.54-2.12,0.75-1.1.34-2.33,0.59-3.32,0.79a34.24,34.24,0,0,1-4.75.61v5.37c10,0,18.55-4.34,23.75-11a24.36,24.36,0,0,0,4.43-8.59,22.92,22.92,0,0,0,.88-6C278.06,155.19,281.52,135.4,281.52,128.38ZM279,136.51a25.07,25.07,0,0,1-5,2.61c-3,1.31-6.84,2.62-9.49,2.62,0,0,.47-0.82,1.22-2s1.71-2.8,2.76-4.44c0.79-1.22,1.61-2.45,2.39-3.55a16.87,16.87,0,0,1,3-3.51C276.43,126.45,279.51,135.84,279,136.51Z"/><path class="cls-7" d="M249,99.76v51.1c2,2.45,16-.34,21.71-1.6a8.23,8.23,0,0,1,2.5-.55s-0.89.22-2.37,0.55c-2.87,1.12-6.88,4.52-3.81,14.87a11,11,0,0,1,0,7.2,9.22,9.22,0,0,1-1.68,2.77,13,13,0,0,1-3.25,2.64,20.13,20.13,0,0,1-2.75,1.33c-0.72.29-1.44,0.54-2.15,0.75-1.12.34-2.37,0.59-3.37,0.79a35.31,35.31,0,0,1-4.82.61v5.37c10.15,0,18.84-4.34,24.12-11a24.23,24.23,0,0,0,4.5-8.59,22.59,22.59,0,0,0,.89-6c0-4.84,3.49-24.62,3.49-31.65a25.5,25.5,0,0,0-2.2-9.87C275.21,107.57,263.22,99.76,249,99.76Zm15.73,42s0.48-.82,1.23-2,1.73-2.8,2.8-4.44c0.8-1.22,1.63-2.45,2.43-3.55a17,17,0,0,1,3.07-3.51c2.59-1.74,5.72,7.65,5.18,8.32a25.58,25.58,0,0,1-5.07,2.61C271.27,140.44,267.42,141.74,264.73,141.74Z"/><path class="cls-8" d="M279,136.51a25.07,25.07,0,0,1-5,2.61c-0.13-.63-0.29-1.26-0.49-1.9a20.18,20.18,0,0,0-2.63-5.52,16.87,16.87,0,0,1,3-3.51C276.43,126.45,279.51,135.84,279,136.51Z"/><path class="cls-4" d="M274,139.13c-3,1.31-6.84,2.62-9.49,2.62,0,0,.47-0.82,1.22-2,0.65,0.87,1.34,1.33,1.93,1.18,1.12-.3,1.45-2.74.83-5.61,0.79-1.22,1.61-2.45,2.39-3.55a20.18,20.18,0,0,1,2.63,5.52C273.69,137.87,273.84,138.5,274,139.13Z"/><path class="cls-8" d="M267.63,140.87c-0.59.16-1.28-.31-1.93-1.18,0.73-1.2,1.71-2.8,2.76-4.44C269.09,138.13,268.76,140.57,267.63,140.87Z"/><path class="cls-9" d="M270.54,149.27a7.75,7.75,0,0,1,2.37-.55S272,148.94,270.54,149.27Z"/><path class="cls-9" d="M270.38,149.27c-2.82,1.12-6.71,4.52-3.69,14.87a11.21,11.21,0,0,1,0,7.2l-3.61-1,2,3.82a12.86,12.86,0,0,1-3.2,2.64l-2.85-2.5,0.14,3.84c-0.71.29-1.42,0.54-2.12,0.75l-2.3-3.3-1,4.08a34.24,34.24,0,0,1-4.75.61V150.86C251,153.31,264.76,150.52,270.38,149.27Z"/><path class="cls-8" d="M257.06,178.84a32.41,32.41,0,0,1-3.15.79l0.85-4.08Z"/><path class="cls-8" d="M261.9,176.75a19.7,19.7,0,0,1-2.71,1.33L259,174.25Z"/><path class="cls-8" d="M266.77,171.35a9.25,9.25,0,0,1-1.66,2.77l-2-3.82Z"/><path class="cls-10" d="M339.26,360H300.83A18.07,18.07,0,0,0,319,341.74v-3c0-10.17-8-18.74-18.17-18.74H282.22l3.31-63c44.64-9.63,76.8-36.74,76.8-68.68,0-33.28-34.92-61.29-82.48-69.78q0.5,1.21.88,2.47-0.41-1.25-.92-2.47c-4.6-10.93-16.59-18.75-30.81-18.75v16.1h0v35h0V185.6h0.3l1,0-0.28,0v27.11a1.74,1.74,0,0,1-1-.29v42.12a1.79,1.79,0,0,1,1-1.74V320h-1v80h90.26c16,0,19.74-8.09,19.74-18.26v-3C359,368.56,355.25,360,339.26,360ZM266.76,171.34h0a11.21,11.21,0,0,0,0-7.19c-2.91-10,.58-13.48,3.37-14.73l0.25-.05c-2.8,1.2-6.5,4.67-3.55,14.78A11.18,11.18,0,0,1,266.76,171.34ZM259,174.21v0l0.14,3.81h0ZM261.9,177h0a25.09,25.09,0,0,0,3.2-2.76l-2-3.88,0,0,2,3.79v0.12A25,25,0,0,1,261.9,177Zm-5.82,2.11,1-.26Zm56.85-13.44c1.53-1.1,2.95-2.16,4.23-3.14C315.88,163.51,314.46,164.57,312.93,165.67Zm7.1,23.48q-0.25.53-.5,1Q319.78,189.68,320,189.15Zm-2.86,5.13a35.53,35.53,0,0,1-3.05,4A35.53,35.53,0,0,0,317.17,194.27ZM292.8,177.86a97.1,97.1,0,0,0,9.32-5A97.1,97.1,0,0,1,292.8,177.86Zm10.42-5.68c2.42-1.49,4.76-3,6.94-4.56C308,169.14,305.64,170.69,303.22,172.18Zm-48.46,3.36h0l-0.84,4-0.17,0Zm26.76,35.54s19.59,1.42,32.34-12.58c-12.76,14-32.34,12.58-32.34,12.58a14.75,14.75,0,0,1-14.75-14.75,13.39,13.39,0,0,1,1.17-5.57,13.39,13.39,0,0,0-1.17,5.57A14.75,14.75,0,0,0,281.52,211.09ZM268,190.73a13.29,13.29,0,0,1,1.35-2.31A13.3,13.3,0,0,0,268,190.73Zm1.79-2.86c0.15-.19.3-0.38,0.46-0.56C270.06,187.48,269.91,187.68,269.76,187.87Z"/><path class="cls-10" d="M292.8,177.86a97.1,97.1,0,0,0,9.32-5A97.1,97.1,0,0,1,292.8,177.86Zm10.42-5.68c2.42-1.49,4.76-3,6.94-4.56C308,169.14,305.64,170.69,303.22,172.18Zm9.7-6.51c1.53-1.1,2.95-2.16,4.23-3.14C315.88,163.51,314.46,164.57,312.93,165.67Zm7.1,23.48q-0.25.53-.5,1Q319.78,189.68,320,189.15Zm-2.86,5.13a35.52,35.52,0,0,1-3.05,4A35.52,35.52,0,0,0,317.17,194.27Zm-51.06-40.12a10.87,10.87,0,0,0-.4,2.18q-0.05.61,0,1.28a24,24,0,0,0,1.09,6.53c0.15,0.51.26,1,.35,1.47a11,11,0,0,1,0,4.74,9,9,0,0,1-.3,1h0a11.21,11.21,0,0,0,0-7.19c-3-10.35.87-13.75,3.69-14.87a8.3,8.3,0,0,1,2-.52l0.41,0h0a8,8,0,0,0-2.19.52l-0.11,0A7.25,7.25,0,0,0,266.11,154.16ZM257,178.85l-1,.26Zm-3.11.74-0.17,0,1-4.08h0Zm5.12-5.38v0l0.14,3.81h0Zm2.85,2.79a25.09,25.09,0,0,0,3.2-2.76l-2-3.88,0,0,2,3.79v0.12a25.07,25.07,0,0,1-3.2,2.75h0Zm6,13.77a13.39,13.39,0,0,0-1.17,5.57,14.75,14.75,0,0,0,14.75,14.75s19.59,1.42,32.34-12.58c-12.76,14-32.34,12.58-32.34,12.58a14.75,14.75,0,0,1-14.75-14.75A13.38,13.38,0,0,1,267.94,190.77Zm2.28-3.46c-0.16.18-.31,0.37-0.46,0.56C269.91,187.68,270.06,187.48,270.22,187.3Zm-0.91,1.11a13.29,13.29,0,0,0-1.35,2.31A13.29,13.29,0,0,1,269.32,188.42Z"/><path class="cls-3" d="M186.25,465.94V465h5.63v1.88h1.88v1.88h1.88v5.63h-1.87v1.88h-1.87v1.88h-5.62v-1.87h-1.87v-1.87H182.5v-5.62h1.88v-1.87h1.88v-0.94Zm3.75,1.88v-0.94h-3.75v7.5h1.88v1.88h3.75v-7.5H190v-0.94Z"/><path class="cls-3" d="M199.38,465.94V465h9.38v1.88h1.88v3.75h-1.87v1.88h-1.87v1.88h-3.75v1.88h7.5v1.88H197.5v-3.75h1.88V472.5h1.88v-1.87H205v-1.87h1.88v-1.87h-5.62v1.88H197.5v-1.87h1.88v-0.94Z"/><path class="cls-3" d="M218.13,465.94V465h5.63v7.5h1.88v1.88h-1.87v3.75H220v-3.75h-7.5v-3.75h1.88v-1.87h1.88v-1.87h1.88v-0.94Zm1.88,4.69v-1.87h-1.87v1.88h-1.87v1.88H220v-1.87Z"/><path class="cls-3" d="M246.25,465.94V465h5.63v1.88h1.88v1.88h1.88v9.38h-3.75v-3.75h-5.62v3.75H242.5v-9.37h1.88v-1.87h1.88v-0.94Zm3.75,1.88v-0.94h-1.87v1.88h-1.87v3.75h5.63v-3.75H250v-0.94Z"/><path class="cls-3" d="M257.5,471.56V465h11.25v1.88h1.88v5.63h-3.75v1.88h1.88v1.88h1.88v1.88H265v-1.87h-1.87v-1.87h-1.87v3.75H257.5v-6.56Zm9.38-2.81v-1.87h-5.62v5.63H265v-1.87h1.88v-1.87Z"/><path class="cls-3" d="M272.5,471.56V465h11.25v1.88h1.88v3.75h-1.87v1.88h1.88v3.75h-1.87v1.88H272.5v-6.56Zm9.38-2.81v-1.87h-5.62v3.75h5.63v-1.87Zm0,5.63V472.5h-5.62v3.75h5.63v-1.87Z"/><path class="cls-3" d="M289.38,465.94V465h9.38v1.88h1.88v9.38h-1.87v1.88h-9.37v-1.87H287.5v-9.37h1.88v-0.94Zm7.5,5.63v-4.69h-5.62v9.38h5.63v-4.69Z"/><path class="cls-3" d="M302.5,471.56V465h3.75v5.63h1.88v-1.87H310v-1.87h1.88V465h3.75v1.88h-1.87v1.88h-1.87v1.88H310v1.88h1.88v1.88h1.88v1.88h1.88v1.88H310v-1.87h-1.87v-1.87h-1.87v3.75H302.5v-6.56Z"/></svg>