<?xml version="1.0" ?><svg id="pkft" viewBox="0 0 500 500" xmlns="http://www.w3.org/2000/svg"><defs><style>.cls-1{fill:#ffd924;}.cls-2{fill:#fccd06;}.cls-3{fill:#f9d021;}.cls-4{fill:#f9c900;}.cls-5{fill:#fe3310;}.cls-6{fill:#341013;}.cls-7{fill:#fff;}.cls-8{fill:#d8a908;}.cls-10,.cls-9{fill:#1a1a1a;}.cls-10{opacity:0.1;}.cls-11{fill:#efc100;}</style></defs><title/><path class="cls-1" d="M218.88,171.22c-5.12-5.48-27-28-50.76-38.14-3.39,1.61-9.48,7.1-1.71,24.85a134.7,134.7,0,0,0,38.94,25.66,18.37,18.37,0,0,0-2.35,8.85v1.3a20.25,20.25,0,0,0,1.71,7.77c2,4.86.55,11.52-3.77,17.21-0.22.29-.43,0.6-0.63,0.9a16.23,16.23,0,0,1,3.69-.44c8.42,0,15.25,6.38,15.25,14.25s-6.83,14.25-15.25,14.25h0c0.34,0.35.68,0.7,1,1,9.38,9,26,15,45,15V164.11C238.06,164.11,227.17,166.79,218.88,171.22Z"/><path class="cls-2" d="M210.69,353.81c-6.79,2.81-11.11,7.24-10.34,11.31,1,5.43,10.64,8.18,21.5,6.14,7.65-1.43,13.84-4.86,16.49-8.66-0.91-.13-1.82-0.25-2.72-0.4A81.25,81.25,0,0,1,210.69,353.81Z"/><path class="cls-3" d="M205,248.73c0.57,12.13-6.95,55.65-11,62a26,26,0,0,0-4,13.7c0,0.62,0,1.28,0,2,0,10.75,7.87,20.1,19.43,26.71,0.41,0.23.84,0.45,1.25,0.67a81.25,81.25,0,0,0,24.92,8.39c0.9,0.15,1.81.28,2.72,0.4a85.49,85.49,0,0,0,11.67.83V263.77C231,263.77,214.38,257.76,205,248.73Z"/><path class="cls-4" d="M236.63,317.6l-5.4,2.62a12,12,0,0,1-16-5.56s-16.08-45.55-10.14-48.43l5.4-2.62c5.94-2.88,31.74,38,31.74,38A12,12,0,0,1,236.63,317.6Z"/><path class="cls-5" d="M219.25,233.44c0-7.87-6.83-14.25-15.25-14.25a16.23,16.23,0,0,0-3.69.44,18.9,18.9,0,0,0-3.39,10.5q0,0.77,0,1.65c0,5.8,2.57,11.23,7,15.91h0C212.42,247.69,219.25,241.31,219.25,233.44Z"/><circle class="cls-6" cx="227.75" cy="208.94" r="8.75"/><circle class="cls-7" cx="231.5" cy="206.69" r="3.75"/><path class="cls-8" d="M240.65,238.24A6.33,6.33,0,0,1,239,238c-2.62-.71-6.35-3.23-6.74-4.94a1.38,1.38,0,0,1,.43-1.37c0.42-.36,4.82,4,7.16,4.46a2,2,0,0,0,1.76-.22c2.48-2.66,8.17-4.41,8.4-4.48,0.52-.16-0.86,2.12-1.41,2.23-2,.42-3.41,1.34-5.53,3.62A3.15,3.15,0,0,1,240.65,238.24Z"/><path class="cls-9" d="M168.12,133.07c-7.8-3.33-15.79-5.34-23.45-5,0,0,5.35,14.12,21.74,29.82C158.64,140.18,164.73,134.68,168.12,133.07Z"/><path class="cls-9" d="M247.09,222.7a0.84,0.84,0,0,1,.94-0.11l2,1V224h-0.24a1.56,1.56,0,0,1-.41.24l-2.07-1C247,223.07,246.93,222.92,247.09,222.7Z"/><path class="cls-1" d="M281,171.22c5.12-5.48,27-28,50.7-38.14,3.39,1.61,9.45,7.1,1.68,24.85a134.08,134.08,0,0,1-38.85,25.66,18.48,18.48,0,0,1,2.45,8.85v1.3a20.38,20.38,0,0,1-1.82,7.77c-2,4.86-.61,11.52,3.71,17.21,0.22,0.29.4,0.6,0.6,0.9a16.35,16.35,0,0,0-3.7-.44c-8.42,0-15.26,6.38-15.26,14.25s6.82,14.25,15.25,14.25h0c-0.34.35-.57,0.7-0.93,1-9.38,9-25.9,15-44.9,15V164.11C262,164.11,272.72,166.79,281,171.22Z"/><path class="cls-2" d="M289.1,353.81c6.79,2.81,11.11,7.24,10.34,11.31-1,5.43-10.64,8.18-21.5,6.14-7.65-1.43-13.84-4.86-16.49-8.66,0.91-.13,1.82-0.25,2.72-0.4A81.25,81.25,0,0,0,289.1,353.81Z"/><path class="cls-3" d="M294.9,248.73c-0.57,12.13,6.9,55.65,10.91,62a26,26,0,0,1,4,13.7c0,0.62,0,1.28,0,2,0,10.75-7.87,20.1-19.44,26.71-0.41.23-.84,0.45-1.26,0.67a81.26,81.26,0,0,1-24.93,8.39c-0.9.15-1.7,0.28-2.61,0.4a82.74,82.74,0,0,1-11.56.83V263.77C269,263.77,285.52,257.76,294.9,248.73Z"/><path class="cls-4" d="M263.37,317.6l5.4,2.62a12,12,0,0,0,16-5.56s16.08-45.55,10.14-48.43l-5.4-2.62c-5.94-2.88-31.74,38-31.74,38A12,12,0,0,0,263.37,317.6Z"/><path class="cls-5" d="M280.53,233.44c0-7.87,6.83-14.25,15.25-14.25a16.23,16.23,0,0,1,3.69.44,18.9,18.9,0,0,1,3.39,10.5q0,0.77,0,1.65c0,5.8-2.57,11.23-7,15.91h0C287.36,247.69,280.53,241.31,280.53,233.44Z"/><circle class="cls-6" cx="272.03" cy="208.94" r="8.75"/><circle class="cls-7" cx="268.28" cy="206.69" r="3.75"/><path class="cls-8" d="M259.14,238.24a6.33,6.33,0,0,0,1.65-.24c2.62-.71,6.35-3.23,6.74-4.94a1.38,1.38,0,0,0-.43-1.37c-0.42-.36-4.82,4-7.16,4.46a2,2,0,0,1-1.76-.22c-2.48-2.66-8.17-4.41-8.4-4.48-0.52-.16.86,2.12,1.41,2.23,2,0.42,3.41,1.34,5.53,3.62A3.15,3.15,0,0,0,259.14,238.24Z"/><path class="cls-9" d="M331.67,133.07c7.8-3.33,15.79-5.34,23.45-5,0,0-5.35,14.12-21.74,29.82C341.14,140.18,335.06,134.68,331.67,133.07Z"/><path class="cls-9" d="M252.69,222.7a0.68,0.68,0,0,0-.83-0.11l-1.85,1V224h0a1.56,1.56,0,0,0,.41.24l2.07-1C252.74,223.07,252.85,222.92,252.69,222.7Z"/><path class="cls-10" d="M355.12,128.11c-7.66-.37-15.66,1.63-23.45,5h0C308,143.25,286.13,165.73,281,171.22c-8.29-4.42-19-7.11-31-7.11v67.4l-0.22-.07c-0.24-.07-0.08.36,0.22,0.87V363.44a82.64,82.64,0,0,0,11.46-.82c2.66,3.79,8.84,7.21,16.48,8.65,10.86,2,20.48-1.12,21.5-6.55,0.76-4.08-3.55-8.72-10.34-11.72h0a2.44,2.44,0,0,0,1.26-.27c11.57-6.61,19.44-15.76,19.44-26.51,0-.71,0-1.26,0-1.88a25.78,25.78,0,0,0-3.95-13.65c-4-6.36-11.86-49.83-10.86-62h0a3.25,3.25,0,0,1,.88-1.39s-0.08-.34-0.09-0.34h0s0,0.34,0,.34c4.47-4.69,7-9.95,7-15.74,0-.59,0-1,0-1.56a19.06,19.06,0,0,0-3.39-10.55,16.2,16.2,0,0,0-3.68-.49h0a16.38,16.38,0,0,1,3.7.53c-0.21-.3-0.38-0.56-0.6-0.85-4.32-5.69-5.74-12.32-3.71-17.19a20.26,20.26,0,0,0,1.82-7.75v-1.3a18.48,18.48,0,0,0-2.45-8.85,134.08,134.08,0,0,0,38.85-25.66l0,0C349.77,142.2,355.12,128.11,355.12,128.11Z"/><path class="cls-11" d="M171.25,465.94V465h5.63v1.88h1.88v1.88h1.88v5.63h-1.87v1.88h-1.87v1.88h-5.62v-1.87h-1.87v-1.87H167.5v-5.62h1.88v-1.87h1.88v-0.94Zm3.75,1.88v-0.94h-3.75v7.5h1.88v1.88h3.75v-7.5H175v-0.94Z"/><path class="cls-11" d="M184.38,465.94V465h9.38v1.88h1.88v3.75h-1.87v1.88h-1.87v1.88h-3.75v1.88h7.5v1.88H182.5v-3.75h1.88V472.5h1.88v-1.87H190v-1.87h1.88v-1.87h-5.62v1.88H182.5v-1.87h1.88v-0.94Z"/><path class="cls-11" d="M197.5,467.81V465h11.25v1.88h-7.5v1.88h7.5v1.88h1.88v5.63h-1.87v1.88h-9.37v-1.87H197.5v-1.87h3.75v1.88h5.63v-5.62H197.5v-2.81Z"/><path class="cls-11" d="M227.5,471.56V465h11.25v1.88h1.88v5.63h-1.87v1.88h-7.5v3.75H227.5v-6.56Zm9.38-1.87v-2.81h-5.62v5.63h5.63v-2.81Z"/><path class="cls-11" d="M244.38,465.94V465h11.25v1.88h-3.75v9.38h3.75v1.88H244.38v-1.87h3.75v-9.37h-3.75v-0.94Z"/><path class="cls-11" d="M257.5,471.56V465h3.75v5.63h1.88v-1.87H265v-1.87h1.88V465h3.75v1.88h-1.87v1.88h-1.87v1.88H265v1.88h1.88v1.88h1.88v1.88h1.88v1.88H265v-1.87h-1.87v-1.87h-1.87v3.75H257.5v-6.56Z"/><path class="cls-11" d="M276.25,465.94V465h5.63v1.88h1.88v1.88h1.88v9.38h-3.75v-3.75h-5.62v3.75H272.5v-9.37h1.88v-1.87h1.88v-0.94Zm3.75,1.88v-0.94h-1.87v1.88h-1.87v3.75h5.63v-3.75H280v-0.94Z"/><path class="cls-11" d="M291.25,465.94V465h7.5v1.88h1.88v1.88h-3.75v-1.87h-3.75v1.88h-1.87v5.63h1.88v1.88h3.75v-1.87h3.75v1.88h-1.87v1.88h-7.5v-1.87h-1.87v-1.87H287.5v-5.62h1.88v-1.87h1.88v-0.94Z"/><path class="cls-11" d="M302.5,471.56V465h3.75v5.63h5.63V465h3.75v13.13h-3.75V472.5h-5.62v5.63H302.5v-6.56Z"/><path class="cls-11" d="M317.5,470.63V465h3.75v11.25h5.63V465h3.75v11.25h-1.87v1.88h-9.37v-1.87H317.5v-5.62Z"/></svg>