<?xml version="1.0" ?><svg id="pkft" viewBox="0 0 500 500" xmlns="http://www.w3.org/2000/svg"><defs><style>.cls-1{fill:none;}.cls-2{fill:#f5db2c;}.cls-3{fill:#8e755e;}.cls-4{fill:#f4ad39;}.cls-11,.cls-5{fill:#1a1a1a;}.cls-6{fill:#fff;}.cls-7{fill:#8d765e;}.cls-8{fill:#fcb247;}.cls-9{fill:#eda02f;}.cls-10{fill:#ffffd9;}.cls-11{opacity:0.1;}</style></defs><title/><path class="cls-1" d="M172.54,173.18a36.77,36.77,0,0,0,5-1Z"/><path class="cls-2" d="M120,84.51s83.33,78.67,25,68.67c0,0,18.43,12.23,27.54,20l5-1C219.54,160,120,84.51,120,84.51Z"/><path class="cls-3" d="M205,150.87c-3.33-13.73-18.23-46.68-85-66.36,0,0,99.54,75.53,57.57,87.62a36.77,36.77,0,0,1-5,1l10.76,3.49A61.68,61.68,0,0,1,205,150.87Z"/><path class="cls-4" d="M205,150.87a61.68,61.68,0,0,0-21.74,25.79,51.27,51.27,0,0,0-4.3,20.51v7.52a18.95,18.95,0,0,1,10.1,36.46,48.86,48.86,0,0,0,4.54,3.07c13,7.84,33.47,12.91,56.36,12.95v-120A79.41,79.41,0,0,0,205,150.87Z"/><path class="cls-2" d="M202,223.22a18.94,18.94,0,0,0-23-18.53v19.65c0,6.15,3.7,11.89,10.1,16.81A19,19,0,0,0,202,223.22Z"/><circle class="cls-5" cx="220" cy="189.84" r="14"/><circle class="cls-6" cx="225.5" cy="184.34" r="5.5"/><path class="cls-5" d="M231.7,218.22c-2.89,0-5.79-.28-7.19-2.27-1.09-1.54-1.07-3.76.06-6.79a1,1,0,0,1,1.87.7c-0.87,2.33-1,4-.3,4.94,1.08,1.52,4.35,1.46,7.23,1.4l1.64,0a132.64,132.64,0,0,0,14.85-1.49c0.54-.09-0.45,2.09-1.46,2.24A115.46,115.46,0,0,1,235,218.18l-1.6,0Z"/><path class="cls-7" d="M176.05,403.05c-2.24-6,2.84-13.82,12.06-20q-0.71-.5-1.39-1c-17.27,7.48-28.54,18.9-25.67,26.62,3.11,8.37,21.64,9.21,41.41,1.88q2.59-1,5-2C192.47,412.84,178.88,410.69,176.05,403.05Z"/><path class="cls-8" d="M197.93,388a40.29,40.29,0,0,1-9.81-5c-9.23,6.2-14.3,14-12.06,20,2.83,7.64,16.42,9.78,31.44,5.41,11.23-5,19.84-11.56,23.56-17.68C221.07,391.85,208.72,391.88,197.93,388Z"/><path class="cls-9" d="M193.64,244.22c-13.7,18.74-13.64,63-13.64,63-13.63,42.4-6.9,64.15,6.72,74.82q0.68,0.54,1.39,1a40.29,40.29,0,0,0,9.81,5c-0.87-3-1.61-6.11-2.24-9.28l0-.09a116.86,116.86,0,0,1-2.17-22.5c0-45.29,25.3-82,56.5-82v-17C227.11,257.14,206.65,252.06,193.64,244.22Z"/><path class="cls-10" d="M196.36,378.45l-0.68.22,0,0.09Z"/><path class="cls-10" d="M193.5,356.18a116.86,116.86,0,0,0,2.17,22.5l0.68-.22-0.67.31c0.63,3.17,1.36,6.28,2.24,9.28,10.79,3.83,23.15,3.8,33.12,2.72a115.8,115.8,0,0,0,19-3.6v-113C218.8,274.18,193.5,310.89,193.5,356.18Z"/><path class="cls-8" d="M191.65,293.73l9.63-27.52a5.67,5.67,0,0,1,9.62-1.85c2.72,3.11,6.06,7,9.51,11.31-2.72,6.29-5.66,14.5-4.68,18.84s-5.79,9.45-11.59,12.78a110,110,0,0,1-10.64-7.22A5.66,5.66,0,0,1,191.65,293.73Z"/><path class="cls-7" d="M215.72,294.51c-1-4.35,2-12.55,4.68-18.84,12.49,15.51,26.45,35.84,18,40.47-8.2,4.51-23.24-2.19-34.31-8.85C209.93,304,216.73,299,215.72,294.51Z"/><path class="cls-5" d="M246.23,198c-1.38,0-1.51.5-.29,1.14l1.83,1a4.84,4.84,0,0,0,2.23.51V198h-3.77Z"/><path class="cls-1" d="M327.46,173.18a36.77,36.77,0,0,1-5-1Z"/><path class="cls-2" d="M380,84.51s-83.33,78.67-25,68.67c0,0-18.43,12.23-27.54,20l-5-1C280.46,160,380,84.51,380,84.51Z"/><path class="cls-3" d="M295,150.87c3.33-13.73,18.23-46.68,85-66.36,0,0-99.54,75.53-57.57,87.62a36.77,36.77,0,0,0,5,1l-10.76,3.49A61.68,61.68,0,0,0,295,150.87Z"/><path class="cls-4" d="M295,150.87a61.68,61.68,0,0,1,21.74,25.79,51.27,51.27,0,0,1,4.3,20.51v7.52a17.08,17.08,0,0,0-4-.43,18.95,18.95,0,0,0-6.1,36.89,48.86,48.86,0,0,1-4.54,3.07c-13,7.84-33.47,12.91-56.36,12.95v-120A79.43,79.43,0,0,1,295,150.87Z"/><path class="cls-2" d="M298,223.22a19,19,0,0,1,19-19,17.08,17.08,0,0,1,4,.43v19.65c0,6.15-3.7,11.89-10.1,16.81A19,19,0,0,1,298,223.22Z"/><circle class="cls-5" cx="280" cy="189.84" r="14"/><circle class="cls-6" cx="274.5" cy="184.34" r="5.5"/><path class="cls-5" d="M268.3,218.22c2.89,0,5.79-.28,7.19-2.27,1.09-1.54,1.07-3.76-.06-6.79a1,1,0,0,0-1.87.7c0.87,2.33,1,4,.3,4.94-1.08,1.52-4.35,1.46-7.23,1.4l-1.64,0a132.64,132.64,0,0,1-14.85-1.49c-0.54-.09.45,2.09,1.46,2.24A115.46,115.46,0,0,0,265,218.18l1.6,0Z"/><path class="cls-7" d="M323.95,403.05c2.24-6-2.84-13.82-12.06-20q0.71-.5,1.39-1c17.27,7.48,28.54,18.9,25.67,26.62-3.11,8.37-21.64,9.21-41.41,1.88q-2.59-1-5-2C307.53,412.84,321.12,410.69,323.95,403.05Z"/><path class="cls-8" d="M302.07,388a40.29,40.29,0,0,0,9.81-5c9.23,6.2,14.3,14,12.06,20-2.83,7.64-16.42,9.78-31.44,5.41-11.23-5-19.84-11.56-23.56-17.68C278.93,391.85,291.28,391.88,302.07,388Z"/><path class="cls-9" d="M306.36,244.22c13.7,18.74,13.64,63,13.64,63,13.63,42.4,6.9,64.15-6.72,74.82q-0.68.54-1.39,1a40.29,40.29,0,0,1-9.81,5c0.87-3,1.61-6.11,2.24-9.28l0-.09a116.86,116.86,0,0,0,2.17-22.5c0-45.29-25.3-82-56.5-82v-17C272.89,257.14,293.35,252.06,306.36,244.22Z"/><path class="cls-10" d="M303.64,378.45l0.68,0.22,0,0.09Z"/><path class="cls-10" d="M306.5,356.18a116.86,116.86,0,0,1-2.17,22.5l-0.68-.22,0.67,0.31c-0.63,3.17-1.36,6.28-2.24,9.28-10.79,3.83-23.15,3.8-33.12,2.72a115.8,115.8,0,0,1-19-3.6v-113C281.2,274.18,306.5,310.89,306.5,356.18Z"/><path class="cls-8" d="M308.35,293.73l-9.63-27.52a5.67,5.67,0,0,0-9.62-1.85c-2.72,3.11-6.06,7-9.51,11.31,2.72,6.29,5.66,14.5,4.68,18.84s5.79,9.45,11.59,12.78a110,110,0,0,0,10.64-7.22A5.66,5.66,0,0,0,308.35,293.73Z"/><path class="cls-7" d="M284.28,294.51c1-4.35-2-12.55-4.68-18.84-12.49,15.51-26.45,35.84-18,40.47,8.2,4.51,23.24-2.19,34.31-8.85C290.07,304,283.27,299,284.28,294.51Z"/><path class="cls-5" d="M253.77,198c1.38,0,1.51.5,0.29,1.14l-1.83,1a4.31,4.31,0,0,1-2.23.51V198h3.77Z"/><path class="cls-11" d="M380,84.51c-66.81,19.68-81.72,52.64-85,66.36a79.43,79.43,0,0,0-45-13.69v250a115.8,115.8,0,0,0,19,3.6c3.72,6.12,12.33,12.73,23.56,17.68q2.44,1.08,5,2c19.76,7.33,38.3,6.49,41.41-1.88,2.86-7.72-8.4-19.14-25.67-26.62,13.62-10.67,20.35-32.42,6.72-74.82,0,0,.06-44.21-13.64-63a48.86,48.86,0,0,0,4.54-3.07c6.4-4.92,10.1-10.67,10.1-16.81V197.18a51.27,51.27,0,0,0-4.3-20.51l10.76-3.49c9.11-7.77,27.54-20,27.54-20C296.67,163.18,380,84.51,380,84.51Z"/><path class="cls-9" d="M178.75,465.94V465h5.63v1.88h1.88v1.88h1.88v5.63h-1.87v1.88h-1.87v1.88h-5.62v-1.87h-1.87v-1.87H175v-5.62h1.88v-1.87h1.88v-0.94Zm3.75,1.88v-0.94h-3.75v7.5h1.88v1.88h3.75v-7.5H182.5v-0.94Z"/><path class="cls-9" d="M191.88,465.94V465h9.38v1.88h1.88v3.75h-1.87v1.88h-1.87v1.88h-3.75v1.88h7.5v1.88H190v-3.75h1.88V472.5h1.88v-1.87h3.75v-1.87h1.88v-1.87h-5.62v1.88H190v-1.87h1.88v-0.94Z"/><path class="cls-9" d="M208.75,465.94V465h7.5v1.88h-5.62v1.88h-1.87v1.88h7.5v1.88h1.88v3.75h-1.87v1.88h-9.37v-1.87H205v-7.5h1.88v-1.87h1.88v-0.94Zm5.63,8.44V472.5h-5.62v3.75h5.63v-1.87Z"/><path class="cls-9" d="M235,471.56V465h11.25v1.88h1.88v5.63h-3.75v1.88h1.88v1.88h1.88v1.88H242.5v-1.87h-1.87v-1.87h-1.87v3.75H235v-6.56Zm9.38-2.81v-1.87h-5.62v5.63h3.75v-1.87h1.88v-1.87Z"/><path class="cls-9" d="M253.75,465.94V465h5.63v1.88h1.88v1.88h1.88v9.38h-3.75v-3.75h-5.62v3.75H250v-9.37h1.88v-1.87h1.88v-0.94Zm3.75,1.88v-0.94h-1.87v1.88h-1.87v3.75h5.63v-3.75H257.5v-0.94Z"/><path class="cls-9" d="M266.88,465.94V465h11.25v1.88h-3.75v9.38h3.75v1.88H266.88v-1.87h3.75v-9.37h-3.75v-0.94Z"/><path class="cls-9" d="M283.75,465.94V465h7.5v1.88h1.88v1.88h-3.75v-1.87h-3.75v1.88h-1.87v5.63h1.88v1.88h3.75v-1.87h3.75v1.88h-1.87v1.88h-7.5v-1.87h-1.87v-1.87H280v-5.62h1.88v-1.87h1.88v-0.94Z"/><path class="cls-9" d="M295,471.56V465h3.75v5.63h5.63V465h3.75v13.13h-3.75V472.5h-5.62v5.63H295v-6.56Z"/><path class="cls-9" d="M310,470.63V465h3.75v11.25h5.63V465h3.75v11.25h-1.87v1.88h-9.37v-1.87H310v-5.62Z"/></svg>