<?xml version="1.0" ?><svg id="pkft" viewBox="0 0 500 500" xmlns="http://www.w3.org/2000/svg"><defs><style>.cls-1{fill:#d3c449;}.cls-2{fill:#ddd0af;}.cls-3{fill:none;}.cls-4{fill:#f0ead8;}.cls-5{fill:#846c29;}.cls-6{fill:#1a1a1a;}.cls-7{fill:#fff;}.cls-8{fill:#ccb73b;}.cls-9{fill:#b3b3b3;}.cls-10{fill:#7c6325;}.cls-11{fill:#ccc;}.cls-12{fill:#7d6325;}.cls-13{opacity:0.1;}.cls-14{fill:#1d1d1b;}</style></defs><title/><path class="cls-1" d="M212.5,126.87c-3.84.17-.54,26.9,1.73,27.78L241.9,134.7S216.34,126.7,212.5,126.87Zm4.64,4.67c2.55-.11,19.52,5.2,19.52,5.2L218.29,150C216.78,149.4,214.6,131.65,217.14,131.54Z"/><path class="cls-2" d="M217.14,131.54c-2.55.11-.36,17.86,1.15,18.45l18.37-13.25S219.69,131.42,217.14,131.54Z"/><path class="cls-3" d="M209.41,266.69c-0.18.4-.35,0.8-0.52,1.2C209.06,267.49,209.23,267.09,209.41,266.69Z"/><path class="cls-3" d="M205.81,277.3l-0.14.6Z"/><path class="cls-3" d="M207.58,271.26c-0.23.65-.44,1.31-0.65,2C207.14,272.57,207.35,271.92,207.58,271.26Z"/><path class="cls-3" d="M208.46,268.94c-0.18.46-.36,0.93-0.53,1.4C208.1,269.87,208.27,269.4,208.46,268.94Z"/><path class="cls-3" d="M206.23,275.62h0c0.18-.66.36-1.32,0.56-2h0C206.6,274.3,206.41,275,206.23,275.62Z"/><path class="cls-3" d="M204.2,287.47q-0.06.82-.11,1.65Q204.14,288.29,204.2,287.47Z"/><path class="cls-3" d="M204.05,290c0,0.85-.05,1.7-0.05,2.55C204,291.68,204,290.83,204.05,290Z"/><path class="cls-3" d="M215.08,256.79l-0.26.35Z"/><path class="cls-3" d="M204.79,282.47c-0.07.47-.15,0.95-0.21,1.43C204.64,283.42,204.71,282.94,204.79,282.47Z"/><path class="cls-3" d="M205.32,279.48c-0.05.25-.1,0.5-0.14,0.74C205.22,280,205.27,279.73,205.32,279.48Z"/><path class="cls-3" d="M204.44,285c-0.06.48-.11,1-0.15,1.43C204.33,286,204.39,285.48,204.44,285Z"/><path class="cls-3" d="M211.54,262.41l-0.5.93Z"/><path class="cls-3" d="M212.7,260.41l-0.48.8Z"/><path class="cls-3" d="M210.44,264.51c-0.17.35-.34,0.71-0.51,1.06C210.1,265.22,210.27,264.86,210.44,264.51Z"/><path class="cls-3" d="M213.9,258.51l-0.41.62Z"/><path class="cls-4" d="M247.42,237.63l-0.76.07c-0.61.05-1.22,0.11-1.82,0.19L244,238c-0.6.09-1.19,0.2-1.78,0.32l-0.72.15q-1,.22-1.93.49l-0.5.14a41.38,41.38,0,0,0-9.68,4.26q-1.15.69-2.26,1.46h0a49.46,49.46,0,0,0-12.06,12l-0.26.35c-0.32.45-.62,0.91-0.93,1.37l-0.41.62c-0.27.42-.53,0.84-0.79,1.27l-0.48.8q-0.35.6-.68,1.21l-0.5.93c-0.2.39-.4,0.77-0.6,1.17s-0.34.71-.51,1.06-0.35.74-.52,1.12-0.35.8-.52,1.2-0.3.7-.44,1.05-0.36.93-.53,1.4c-0.11.31-.23,0.61-0.34,0.92-0.23.65-.44,1.31-0.65,2l-0.13.41c-0.2.65-.38,1.31-0.56,2s-0.29,1.11-.42,1.68l-0.14.6q-0.18.79-.35,1.59c-0.05.25-.1,0.5-0.14,0.74q-0.21,1.11-.39,2.24c-0.07.47-.15,0.95-0.21,1.43s-0.09.74-.13,1.11-0.11,1-.15,1.43-0.06.69-.09,1q-0.06.82-.11,1.65c0,0.29,0,.58,0,0.86,0,0.85-.05,1.7-0.05,2.55v30.72c11,6.89,27.52,11.28,46,11.28v-97C249.13,237.54,248.27,237.57,247.42,237.63Z"/><path class="cls-1" d="M193.36,274.89c-0.68,5.71-1.18,11.93-1.6,18.72,4.73,1.37,9.14,2.83,12.24,3.93v-5c0-.86,0-1.71.05-2.55,0-.29,0-0.58,0-0.86q0-.83.11-1.65c0-.35.05-0.69,0.09-1s0.1-1,.15-1.43,0.08-.74.13-1.11,0.14-1,.21-1.43q0.18-1.13.39-2.24c0-.25.09-0.5,0.14-0.74q0.16-.8.35-1.59c0-.2,0-0.4,0-0.6a7.34,7.34,0,0,0,.31-1.68h0C201,275.22,196.49,275,193.36,274.89Z"/><path class="cls-1" d="M205.67,277.9q-0.18.79-.35,1.59Q205.48,278.69,205.67,277.9Z"/><path class="cls-1" d="M204.57,283.9c0,0.37-.09.74-0.13,1.11C204.49,284.63,204.52,284.26,204.57,283.9Z"/><path class="cls-1" d="M205.18,280.23q-0.21,1.11-.39,2.24Q205,281.34,205.18,280.23Z"/><path class="cls-1" d="M206.23,275.62c-0.15.55-.29,1.11-0.42,1.68C205.95,276.74,206.08,276.18,206.23,275.62Z"/><path class="cls-1" d="M204.29,286.44c0,0.34-.06.69-0.09,1C204.23,287.13,204.26,286.78,204.29,286.44Z"/><path class="cls-1" d="M204.1,289.12c0,0.29,0,.58,0,0.86C204.07,289.7,204.08,289.41,204.1,289.12Z"/><path class="cls-1" d="M192,273.84h-0.19c0.9-7.28,1.9-13.73,3.16-19.44a28.4,28.4,0,0,0-4.42-.51c-0.28,2.84-.54,5.73-0.54,8.66v28.36a144.3,144.3,0,0,1,2-17.05h0Z"/><path class="cls-1" d="M191.7,295.68q-0.36,6.43-.54,13.52c2,5.28,6.5,10.09,12.84,14.06V299.68C201,298.6,196.56,297.1,191.7,295.68Z"/><path class="cls-1" d="M200.65,240.73a126.31,126.31,0,0,0-3.6,12.89,1,1,0,0,1-.05.37,1,1,0,0,1-.05.1c-1.23,5.51-2.32,11.75-3.22,18.81,2.37,0.08,7.58.28,13.08,0.75h0l0.13-.41c0.21-.66.42-1.32,0.65-2,0.11-.31.23-0.62,0.34-0.92,0.17-.47.35-0.94,0.53-1.4s0.29-.7.44-1.05,0.34-.8.52-1.2,0.34-.75.52-1.12,0.34-.71.51-1.06,0.4-.78.6-1.17l0.5-.93q0.34-.61.68-1.21l0.48-.8c0.26-.43.52-0.85,0.79-1.27l0.41-.62c0.3-.46.61-0.92,0.93-1.37l0.26-.35a49.37,49.37,0,0,1,12.06-12h0A193.08,193.08,0,0,0,200.65,240.73Z"/><path class="cls-1" d="M214.83,257.15c-0.32.45-.62,0.91-0.93,1.37C214.2,258.05,214.51,257.59,214.83,257.15Z"/><path class="cls-1" d="M208.89,267.89c-0.15.35-.3,0.7-0.44,1.05C208.6,268.59,208.75,268.24,208.89,267.89Z"/><path class="cls-1" d="M207.93,270.34c-0.11.31-.23,0.61-0.34,0.92C207.69,271,207.81,270.65,207.93,270.34Z"/><path class="cls-1" d="M211,263.35c-0.2.39-.4,0.77-0.6,1.17C210.64,264.12,210.84,263.73,211,263.35Z"/><path class="cls-1" d="M212.23,261.2q-0.35.6-.68,1.21Q211.88,261.8,212.23,261.2Z"/><path class="cls-1" d="M213.49,259.14c-0.27.42-.53,0.84-0.79,1.27C213,260,213.22,259.55,213.49,259.14Z"/><path class="cls-1" d="M206.93,273.24l-0.13.41Z"/><path class="cls-1" d="M209.93,265.58c-0.18.37-.35,0.74-0.52,1.12C209.58,266.32,209.75,265.95,209.93,265.58Z"/><path class="cls-1" d="M215.08,256.79a49.46,49.46,0,0,1,12.06-12A49.37,49.37,0,0,0,215.08,256.79Z"/><path class="cls-5" d="M190,290.89c0,0.71-.1,1.44-0.14,2.17l0.14,0v-2.2Z"/><path class="cls-5" d="M189.86,293.06q-0.06,1-.12,2.06l0.26,0.07V293.1Z"/><path class="cls-5" d="M191.61,273.84h0v0h0Z"/><path class="cls-5" d="M195,254.41l-0.09,0c-1.26,5.71-2.36,12.16-3.26,19.44a1,1,0,0,1,.28-0.64C192.77,266.18,193.75,259.94,195,254.41Z"/><path class="cls-5" d="M191.61,273.84c-0.65,5.24-1.19,10.91-1.61,17.05a147.83,147.83,0,0,1,1.88-16.35A1,1,0,0,1,191.61,273.84Z"/><path class="cls-5" d="M190,293.1V303a17.32,17.32,0,0,0,1.16,6.16q0.18-7.1.54-13.52c4.86,1.42,9.29,2.93,12.3,4v-2.13c-3.1-1.1-7.45-2.56-12.18-3.93Z"/><path class="cls-5" d="M193.72,272.89q-0.13,1-.25,2c3.13,0.1,7.93.33,12.76,0.73,0.18-.66.36-1.32,0.56-2C201.3,273.18,196.09,273,193.72,272.89Z"/><path class="cls-5" d="M192,273.84h-0.19l0.08-.64a1,1,0,0,0-.28.64v0a1,1,0,0,0,.27.7c0-.23.07-0.47,0.12-0.7h0Z"/><path class="cls-5" d="M195,254.41c0.48,0.11.75,0.19,0.76,0.19a1,1,0,0,0,1.22-.52l0.1-.46a1,1,0,0,0-.67-0.91,10.37,10.37,0,0,0-1.07-.28q-0.22,1-.44,1.94l0.09,0v0Z"/><path class="cls-3" d="M242.25,238.33l-0.72.15Z"/><path class="cls-3" d="M244.84,237.89L244,238Z"/><path class="cls-3" d="M239.59,239l-0.5.14Z"/><polygon class="cls-3" points="227.14 244.84 227.15 244.84 227.15 244.84 227.14 244.84"/><path class="cls-3" d="M247.42,237.63l-0.76.07Z"/><path class="cls-1" d="M199.09,239.27s0-.05,0-0.07c3.73-10.59,8.09-17.28,12.36-21.47-2.6-.32-5.3-0.53-8-0.65a79.27,79.27,0,0,0-12.82,34.79,28.6,28.6,0,0,1,4.65.56A125.77,125.77,0,0,1,199.09,239.27Z"/><path class="cls-1" d="M214.8,214.94c8-5.67,14.66-3.45,14.94-3.35a1,1,0,0,1-.65,1.89c-0.28-.09-6.1-2-13.2,3.14q-0.73.52-1.47,1.14l-0.06,0c-4.42,3.72-9.06,10.13-13,21,4.58,0.41,18.15,1.8,28.08,4.6a41.21,41.21,0,0,1,9.68-4.26l0.5-.14q1-.27,1.93-0.49l0.72-.15q0.88-.18,1.78-0.32l0.81-.12c0.6-.08,1.21-0.14,1.82-0.19l0.76-.07c0.86-.06,1.72-0.09,2.58-0.09v-47c-18,0-34.15,9.53-45.15,24.61,2.93,0.16,5.83.43,8.59,0.83C213.9,215.61,214.35,215.26,214.8,214.94Z"/><path class="cls-1" d="M229.41,243.38a41.38,41.38,0,0,1,9.68-4.26,41.21,41.21,0,0,0-9.68,4.26h0Z"/><path class="cls-1" d="M244,238q-0.89.14-1.78,0.32C242.84,238.21,243.43,238.11,244,238Z"/><path class="cls-1" d="M250,237.54c-0.87,0-1.73,0-2.58.09C248.27,237.57,249.13,237.54,250,237.54Z"/><path class="cls-1" d="M241.52,238.49q-1,.22-1.93.49Q240.55,238.71,241.52,238.49Z"/><path class="cls-1" d="M246.66,237.7c-0.61.05-1.22,0.11-1.82,0.19C245.44,237.81,246,237.75,246.66,237.7Z"/><path class="cls-5" d="M200.08,238.67l1.26,0.11c4-10.84,8.6-17.25,13-21a1,1,0,0,1-.61.22h-0.15c-0.69-.1-1.4-0.2-2.11-0.29-4.27,4.18-8.63,10.88-12.36,21.47A1,1,0,0,1,200.08,238.67Z"/><path class="cls-5" d="M201.34,238.78c-0.23.63-.46,1.28-0.69,1.95a193.08,193.08,0,0,1,26.5,4.11h0q1.11-.77,2.26-1.46C219.49,240.58,205.92,239.19,201.34,238.78Z"/><path class="cls-5" d="M227.15,244.84q1.11-.76,2.26-1.46h0Q228.26,244.07,227.15,244.84Z"/><path class="cls-5" d="M199.92,240.67l0.73,0.06c0.23-.67.46-1.31,0.69-1.95l-1.26-.11a1,1,0,0,0-1,.52s0,0.05,0,.07A1,1,0,0,0,199.92,240.67Z"/><path class="cls-5" d="M196.05,254.66a1,1,0,0,1-.33-0.06s-0.28-.09-0.76-0.19c-1.22,5.53-2.2,11.77-3.07,18.77l-0.08.64H192c0,0.23-.08.47-0.12,0.7A147.83,147.83,0,0,0,190,290.89v2.2l1.82,0.52c0.41-6.79,1-13,1.65-18.72q0.12-1,.25-2c0.9-7.06,2-13.3,3.22-18.81A1,1,0,0,1,196.05,254.66Z"/><path class="cls-5" d="M199.92,240.67a1,1,0,0,1-.83-1.4,125.77,125.77,0,0,0-3.78,13.16,10.37,10.37,0,0,1,1.07.28,1,1,0,0,1,.67.91,126.31,126.31,0,0,1,3.6-12.89Z"/><path class="cls-5" d="M190,253.87h0Z"/><path class="cls-5" d="M195.46,252.47a31.1,31.1,0,0,0-4.86-.59c-0.08.66-.36,1.33-0.43,2H190a24.94,24.94,0,0,1,5,.56C195.22,253.78,195.31,253.1,195.46,252.47Z"/><path class="cls-5" d="M194.63,254.37a20.75,20.75,0,0,0-4.63-.5h0a18.7,18.7,0,0,1,4.5.51Z"/><path class="cls-5" d="M197,254a1,1,0,0,0,.05-0.37l-0.1.46A1,1,0,0,0,197,254Z"/><path class="cls-5" d="M195,254.39l-0.09,0v0l0.09,0v0Z"/><path class="cls-3" d="M237.42,196.92l-0.22-.23Z"/><path class="cls-3" d="M234.77,193.78l-0.1-.13Z"/><path class="cls-3" d="M243.17,201.58l-0.54-.3Z"/><path class="cls-3" d="M233.51,192l-0.06-.08Z"/><path class="cls-3" d="M238.8,198.3l-0.29-.26Z"/><path class="cls-3" d="M236.08,195.41l-0.16-.18Z"/><path class="cls-3" d="M240.23,199.55l-0.37-.29Z"/><path class="cls-3" d="M241.68,200.65l-0.45-.3Z"/><path class="cls-3" d="M250,203.54a12.08,12.08,0,0,1-1.52-.1A12.08,12.08,0,0,0,250,203.54Z"/><path class="cls-3" d="M247.92,203.33c-0.31-.05-0.62-0.1-0.93-0.18C247.3,203.24,247.61,203.28,247.92,203.33Z"/><path class="cls-3" d="M244.69,202.34c-0.21-.09-0.42-0.17-0.63-0.27C244.27,202.17,244.48,202.25,244.69,202.34Z"/><path class="cls-3" d="M232.3,190.24l0,0Z"/><path class="cls-3" d="M246.26,202.93c-0.25-.08-0.5-0.14-0.75-0.23C245.76,202.79,246,202.86,246.26,202.93Z"/><path class="cls-4" d="M245.51,202.7c-0.28-.1-0.55-0.23-0.82-0.36C245,202.46,245.24,202.6,245.51,202.7Z"/><path class="cls-4" d="M248.48,203.44c-0.19,0-.38-0.07-0.56-0.11C248.11,203.37,248.3,203.42,248.48,203.44Z"/><path class="cls-4" d="M247,203.16c-0.24-.06-0.49-0.15-0.73-0.23C246.5,203,246.74,203.1,247,203.16Z"/><path class="cls-4" d="M237.2,196.69c-0.38-.41-0.75-0.84-1.12-1.28C236.45,195.85,236.82,196.28,237.2,196.69Z"/><path class="cls-4" d="M239.86,199.26c-0.36-.3-0.71-0.63-1.06-1C239.15,198.63,239.5,199,239.86,199.26Z"/><path class="cls-4" d="M235.92,195.23c-0.39-.47-0.77-0.95-1.15-1.44C235.15,194.28,235.53,194.76,235.92,195.23Z"/><path class="cls-4" d="M238.52,198c-0.37-.35-0.73-0.73-1.09-1.12C237.79,197.31,238.15,197.68,238.52,198Z"/><path class="cls-4" d="M241.23,200.34c-0.34-.25-0.67-0.52-1-0.79C240.56,199.82,240.9,200.1,241.23,200.34Z"/><path class="cls-4" d="M244.06,202.07c-0.3-.15-0.59-0.32-0.89-0.49C243.47,201.75,243.76,201.92,244.06,202.07Z"/><path class="cls-4" d="M234.67,193.65c-0.39-.52-0.78-1.05-1.16-1.6C233.89,192.59,234.28,193.13,234.67,193.65Z"/><path class="cls-4" d="M233.45,192q-0.58-.84-1.15-1.73Q232.87,191.12,233.45,192Z"/><path class="cls-4" d="M242.63,201.28c-0.32-.2-0.63-0.42-1-0.64C242,200.87,242.31,201.09,242.63,201.28Z"/><path class="cls-5" d="M214.73,217.18a1,1,0,0,1-.32.58q0.74-.62,1.47-1.14c7.1-5.09,12.93-3.24,13.2-3.14a1,1,0,0,0,.65-1.89c-0.28-.1-7-2.32-14.94,3.35-0.45.32-.9,0.67-1.35,1L213.9,216A1,1,0,0,1,214.73,217.18Z"/><path class="cls-5" d="M213.44,216c-2.76-.4-5.67-0.67-8.59-0.83-0.46.64-.93,1.28-1.37,1.93,2.71,0.12,5.41.33,8,.65C212.14,217.09,212.79,216.51,213.44,216Z"/><path class="cls-5" d="M213.75,218a1,1,0,0,0,.61-0.22l0.06,0a1,1,0,0,0-.52-1.72l-0.45-.06c-0.65.53-1.3,1.11-2,1.75,0.71,0.09,1.42.18,2.11,0.29h0.15Z"/><path class="cls-3" d="M231.14,188.33h0Z"/><path class="cls-4" d="M248.48,203.44c-0.19,0-.38-0.07-0.56-0.11s-0.62-.1-0.93-0.18-0.49-.15-0.73-0.23-0.5-.14-0.75-0.23-0.55-.23-0.82-0.36-0.42-.17-0.63-0.27-0.59-.32-0.89-0.49l-0.54-.3c-0.32-.2-0.63-0.42-1-0.64l-0.45-.3c-0.34-.25-0.67-0.52-1-0.79l-0.37-.29c-0.36-.3-0.71-0.63-1.06-1l-0.29-.26c-0.37-.35-0.73-0.73-1.09-1.12l-0.22-.23c-0.38-.41-0.75-0.84-1.12-1.28l-0.16-.18c-0.39-.47-0.77-0.95-1.15-1.44l-0.1-.13c-0.39-.52-0.78-1.05-1.16-1.6l-0.06-.08q-0.58-.84-1.15-1.73l0,0q-0.58-.91-1.13-1.85h0q-1.12-1.91-2.17-4h0a7.53,7.53,0,0,1-4.6,4.11c-5.33,1.46-11.6-4.48-14-13.27-0.12-.45-0.22-0.89-0.32-1.34,0.67,22.24,18.3,58.7,40,58.7v-29A12.08,12.08,0,0,1,248.48,203.44Z"/><path class="cls-4" d="M232.27,190.19q-0.58-.91-1.13-1.85Q231.7,189.28,232.27,190.19Z"/><path class="cls-4" d="M229,184.35q1,2.05,2.17,4C230.38,187,229.66,185.72,229,184.35Z"/><path class="cls-4" d="M217.49,168.47c1.37,5,4.85,8.42,7.92,7.89a108.1,108.1,0,0,1-5.39-18.6C217.3,159,216.16,163.63,217.49,168.47Z"/><path class="cls-4" d="M215.64,156.62a6.77,6.77,0,0,1,4.21.28,83.58,83.58,0,0,1-1.2-9.2,40,40,0,0,0-6.15,10.91A6.64,6.64,0,0,1,215.64,156.62Z"/><path class="cls-1" d="M227.88,143.13a1,1,0,0,1,.18,0,91.41,91.41,0,0,1,21.64-5.71,1,1,0,0,1,.3,0v-4.86a39.9,39.9,0,0,0-30.94,14.69,96,96,0,0,1,8.74-4Z"/><path class="cls-1" d="M229.68,144.6l6.08,12.82a59.64,59.64,0,0,1,13.88-2,1,1,0,0,1,.35.07V139.35h0A89.33,89.33,0,0,0,229.68,144.6Z"/><path class="cls-1" d="M227.82,145.34a93.82,93.82,0,0,0-9,4.27A94.41,94.41,0,0,0,221.18,163,72.39,72.39,0,0,1,233.81,158Z"/><path class="cls-1" d="M228.13,182.65c0.27,0.57.55,1.15,0.84,1.71,0.7,1.37,1.42,2.7,2.17,4h0q0.56,0.95,1.13,1.85l0,0q0.57,0.89,1.15,1.73l0.06,0.08c0.38,0.55.77,1.08,1.16,1.6l0.1,0.13c0.38,0.5.76,1,1.15,1.44l0.16,0.18c0.37,0.44.75,0.87,1.12,1.28l0.22,0.23c0.36,0.38.72,0.76,1.09,1.12l0.29,0.26c0.35,0.33.7,0.65,1.06,1l0.37,0.29c0.33,0.27.67,0.54,1,.79l0.45,0.3c0.32,0.22.63,0.44,1,.64l0.54,0.3c0.3,0.17.59,0.34,0.89,0.49s0.42,0.18.63,0.27,0.55,0.25.82,0.36,0.5,0.16.75,0.23,0.48,0.16.73,0.23,0.62,0.12.93,0.18,0.37,0.08.56,0.11a12.08,12.08,0,0,0,1.52.1V175.63a0.93,0.93,0,0,1-.17.06C239,177.53,232,180.53,228.13,182.65Z"/><path class="cls-1" d="M241.9,158.15a69.75,69.75,0,0,0-20.2,6.9,104.76,104.76,0,0,0,5.57,15.75A66.61,66.61,0,0,1,245,174.58C244.34,171.19,242.29,161.14,241.9,158.15Z"/><path class="cls-1" d="M249.69,157.41a52.71,52.71,0,0,0-5.82.46c0.26,2.1,1.93,10.5,3.13,16.31,0.81-.16,1.64-0.31,2.5-0.46a1,1,0,0,1,.5.06V157.34A1,1,0,0,1,249.69,157.41Z"/><path class="cls-5" d="M247,174.18l0.2,1a1,1,0,0,1-.78,1.18l-0.2,0a1,1,0,0,1-1-.8l-0.2-1a66.61,66.61,0,0,0-17.77,6.23q0.42,0.93.85,1.84c3.87-2.12,10.85-5.11,21.71-7a0.93,0.93,0,0,0,.17-0.06v-1.85a1,1,0,0,0-.5-0.06C248.64,173.86,247.81,174,247,174.18Z"/><path class="cls-5" d="M241.83,157.45a1,1,0,0,1,2,0c0,0.08,0,.23,0,0.41a52.71,52.71,0,0,1,5.82-.46,1,1,0,0,0,.31-0.07v-1.86a1,1,0,0,0-.35-0.07,59.64,59.64,0,0,0-13.88,2l0.36,0.77a1,1,0,1,1-1.81.86L233.81,158A72.39,72.39,0,0,0,221.18,163q0.25,1,.52,2a69.75,69.75,0,0,1,20.2-6.9A6.42,6.42,0,0,1,241.83,157.45Z"/><path class="cls-5" d="M227.41,144.46a1,1,0,0,1,.39-1.27,96,96,0,0,0-8.74,4l-0.4.48c0,0.63.1,1.27,0.16,1.91a93.82,93.82,0,0,1,9-4.27Z"/><path class="cls-5" d="M228.06,143.09a1,1,0,0,1,1.16.52l0.47,1A89.33,89.33,0,0,1,250,139.36h0v-2a1,1,0,0,0-.3,0A91.41,91.41,0,0,0,228.06,143.09Z"/><path class="cls-5" d="M245,174.58l2-.4c-1.2-5.81-2.87-14.22-3.13-16.31-0.66.09-1.32,0.18-2,.29C242.29,161.14,244.34,171.19,245,174.58Z"/><path class="cls-5" d="M245.25,175.55a1,1,0,0,0,1,.8l0.2,0a1,1,0,0,0,.78-1.18l-0.2-1-2,.4Z"/><path class="cls-5" d="M242.83,156.45a1,1,0,0,0-1,1,6.42,6.42,0,0,0,.07.7c0.65-.11,1.31-0.2,2-0.29,0-.18,0-0.33,0-0.41A1,1,0,0,0,242.83,156.45Z"/><path class="cls-5" d="M227.88,143.13l-0.08.06,0.26-.11A1,1,0,0,0,227.88,143.13Z"/><path class="cls-5" d="M227.82,145.34l6,12.63c0.64-.19,1.29-0.37,2-0.55l-6.08-12.82Z"/><path class="cls-5" d="M234.32,159a1,1,0,1,0,1.81-.86l-0.36-.77c-0.67.18-1.31,0.36-2,.55Z"/><path class="cls-5" d="M229.21,143.61a1,1,0,0,0-1.16-.52l-0.26.11a1,1,0,0,0-.39,1.27l0.42,0.88,1.86-.74Z"/><path class="cls-6" d="M229.65,169.9c-0.07-.26-0.16-0.51-0.24-0.77,0.06,3.61-1.31,6.53-3.67,7.17l-0.34.06c-3.06.54-6.55-2.89-7.92-7.89-1.33-4.84-.19-9.44,2.53-10.72a3.18,3.18,0,0,1,1-.3,9.61,9.61,0,0,0-1.21-.55,6.77,6.77,0,0,0-4.21-.28,6.64,6.64,0,0,0-3.14,2,39.82,39.82,0,0,0-2.5,13.92c0,0.42,0,.87,0,1.3s0.2,0.89.32,1.34c2.41,8.79,8.67,14.73,14,13.27a7.53,7.53,0,0,0,4.6-4.11C230.78,180.78,231.16,175.44,229.65,169.9Z"/><path class="cls-7" d="M217.49,168.47c1.42,5.18,5.11,8.68,8.25,7.82,2.36-.65,3.73-3.56,3.67-7.17-1.68-5.51-4.88-9.79-8.35-11.67a3.6,3.6,0,0,0-.46.09C217.46,158.4,216.07,163.29,217.49,168.47Z"/><path class="cls-8" d="M211,207.41l4.4,2.77a12,12,0,0,1,4.59,15c-6.27-4.21-13.66-10.19-16.2-12.29A63.13,63.13,0,0,1,211,207.41Z"/><path class="cls-8" d="M202.33,214.22c2.36,2,10.13,8.29,16.76,12.71l-5.91,9.39a11.89,11.89,0,0,1-4.46,4.16c-7.27-5-15.19-10.8-17.63-12.59A67.31,67.31,0,0,1,202.33,214.22Z"/><path class="cls-9" d="M156.52,194h0a17.61,17.61,0,0,0-.95,1.73l-6.05-11.54c-0.51-1-.13-1.37.86-0.87l11.05,5.57A17.5,17.5,0,0,0,156.52,194Z"/><path class="cls-9" d="M166.21,186.58l0.3-5.4a1,1,0,0,1,1.76-.87l8.4,5.7a1.35,1.35,0,0,1,.6.73A17.71,17.71,0,0,0,166.21,186.58Z"/><path class="cls-9" d="M145.41,199.57l8.88-.17a17.65,17.65,0,0,0-.4,5.24l-8.68-4.17C144.22,200,144.31,199.59,145.41,199.57Z"/><path class="cls-8" d="M157.59,199.34l-3.29.06a17.44,17.44,0,0,1,1.28-3.66l1.63,3.1A1.67,1.67,0,0,0,157.59,199.34Z"/><path class="cls-8" d="M154.29,199.4l3.29-.06a0.83,0.83,0,0,0,1.17,0l-1.17,0a1.67,1.67,0,0,1-.39-0.5l-1.63-3.1a17.61,17.61,0,0,1,.95-1.73h0a17.5,17.5,0,0,1,4.91-5.11,17.83,17.83,0,0,1,15.84-2.16,17.5,17.5,0,0,1,3.61,1.72l7.58,4.77c-8,5.61-19,14.48-26.32,25.19l-0.07,0A17.78,17.78,0,0,1,154.29,199.4Z"/><path class="cls-8" d="M157.59,199.34l1.17,0A0.83,0.83,0,0,1,157.59,199.34Z"/><path class="cls-8" d="M201.5,212.23a1,1,0,0,0-.07.14,68.06,68.06,0,0,0-5.58,5.72c-8.46-5-17.49-11.13-18.73-13.23a139.49,139.49,0,0,1,13.23-10.45l18.85,11.85a65.85,65.85,0,0,0-7.34,5.7A1,1,0,0,0,201.5,212.23Z"/><path class="cls-8" d="M206.51,241.39a12,12,0,0,1-9.88-1.3l-9.13-5.74c0.81-1.66,1.66-3.25,2.54-4.75C192.55,231.44,199.66,236.64,206.51,241.39Z"/><path class="cls-8" d="M194.54,219.64a70.77,70.77,0,0,0-5.52,7.82,0.91,0.91,0,0,0-.09.08,1,1,0,0,0-.14.29c-1,1.72-2,3.54-3,5.46L163.87,219.5a84.6,84.6,0,0,1,11.84-13.35C178.4,209.73,187.93,215.73,194.54,219.64Z"/><path class="cls-10" d="M188.46,193.22l1.89,1.19a139.49,139.49,0,0,0-13.23,10.45c1.24,2.1,10.27,8.23,18.73,13.23a68.06,68.06,0,0,1,5.58-5.72,1,1,0,0,1,.07-0.14,1,1,0,0,1,.37-0.26,65.85,65.85,0,0,1,7.34-5.7l1.84,1.15a63.13,63.13,0,0,0-7.21,5.45c2.54,2.09,9.93,8.08,16.2,12.29a11.92,11.92,0,0,1-.82,1.58l-0.13.2c-6.64-4.42-14.4-10.76-16.76-12.71a67.31,67.31,0,0,0-11.24,13.67c2.44,1.79,10.36,7.58,17.63,12.59a12.06,12.06,0,0,1-2.2.91c-6.85-4.75-14-9.95-16.47-11.79-0.88,1.5-1.73,3.09-2.54,4.75l-1.69-1.07c0.95-1.92,1.94-3.74,3-5.46a1,1,0,0,1,.14-0.29,0.91,0.91,0,0,1,.09-0.08,70.77,70.77,0,0,1,5.52-7.82c-6.62-3.91-16.14-9.9-18.83-13.5a84.6,84.6,0,0,0-11.84,13.35l-1.73-1.09C169.51,207.7,180.47,198.83,188.46,193.22Z"/><path class="cls-11" d="M173.35,362.14a10,10,0,0,1-.34-1.85c-3.44,2.08-13,8-15.68,11.25-0.37.44,14.29-5.45,14.79-5.2,0.25,0.12-13.93,6.45-13.5,6.54,4.44,0.83,17.68-.46,26.15-1.69C179,369.87,174.65,366.7,173.35,362.14Z"/><path class="cls-8" d="M219.58,348.93c-0.1-.36.18-6.47-0.3-12-7.68-1.68-13.73-3.32-18.49-4.87l-0.16-.06c-6.59-2.16-10.69-4.14-13.22-5.81a33.93,33.93,0,0,0,1.15,13.6c0.18,0.63.38,1.25,0.59,1.86-0.36.14-.71,0.29-1.06,0.44,5.11,2.79,15.06,6.64,31.61,7.34C219.66,349.27,219.63,349.1,219.58,348.93Z"/><path class="cls-8" d="M185.1,363.37c0.1-5,7.32-12.55,10.7-15.81a47.45,47.45,0,0,1-10-4.42,27.16,27.16,0,0,0-10.12,8.36A15.51,15.51,0,0,0,185.1,363.37Z"/><path class="cls-8" d="M219.06,334.83a25.06,25.06,0,0,0-.69-3.56C215.13,320,207.18,312,199.69,312c0,5.43,1.43,14.07,2.22,18.31C206.34,331.75,212,333.27,219.06,334.83Z"/><path class="cls-8" d="M197.7,312.22c-0.28.06-.57,0.12-0.85,0.2-4.61,1.32-7.81,5.75-9.08,11.64,2,1.46,5.54,3.38,12,5.57A121.51,121.51,0,0,1,197.7,312.22Z"/><path class="cls-8" d="M198,348.23c-5.39,5-11.9,12.92-10.78,16,0.42,0.14.85,0.27,1.29,0.39,6.36,1.72,14.75,1.4,25-.92,4.13-3.62,6.53-8,6.41-12.21A93.31,93.31,0,0,1,198,348.23Z"/><path class="cls-8" d="M181.29,363.53a17.34,17.34,0,0,1-7-9.58,12.19,12.19,0,0,0-1.26,6.35l1.26-.75Z"/><path class="cls-8" d="M197.68,367.66a37.25,37.25,0,0,1-9.69-1.16,24.12,24.12,0,0,1-4.14-1.53,20.1,20.1,0,0,1-2.56-1.45l-7-4-1.26.75a10,10,0,0,0,.34,1.85c1.3,4.56,5.65,7.73,11.43,9a32.72,32.72,0,0,0,15.94-.74,35.5,35.5,0,0,0,9-4A68.53,68.53,0,0,1,197.68,367.66Z"/><path class="cls-12" d="M200.79,332.06c4.76,1.55,10.81,3.19,18.49,4.87-0.06-.71-0.14-1.42-0.22-2.1-7.11-1.57-12.72-3.08-17.15-4.49-0.79-4.24-2.17-12.88-2.22-18.31a10.31,10.31,0,0,0-2,.19,121.51,121.51,0,0,0,2,17.41c-6.43-2.19-10-4.11-12-5.57q-0.22,1-.37,2.13c2.54,1.68,6.63,3.66,13.22,5.81Z"/><path class="cls-12" d="M188.52,364.58c-0.45-.12-0.88-0.25-1.29-0.39-1.12-3,5.38-10.91,10.78-16a93.31,93.31,0,0,0,22,3.23,10.25,10.25,0,0,0-.26-2c-16.55-.7-26.5-4.55-31.61-7.34q-1.17.49-2.27,1a47.45,47.45,0,0,0,10,4.42c-3.38,3.26-10.6,10.81-10.7,15.81a15.51,15.51,0,0,1-9.4-11.87,17.26,17.26,0,0,0-1.43,2.45,17.34,17.34,0,0,0,7,9.58l2.56,1.45a24.12,24.12,0,0,0,4.14,1.53,37.25,37.25,0,0,0,9.69,1.16,68.53,68.53,0,0,0,12.06-1.19,29.3,29.3,0,0,0,3.81-2.81C203.27,366,194.87,366.29,188.52,364.58Z"/><path class="cls-12" d="M181.29,363.53a20.1,20.1,0,0,0,2.56,1.45Z"/><path class="cls-1" d="M257.62,134.7l27.67,19.95c2.27-.88,5.56-27.62,1.73-27.78S257.62,134.7,257.62,134.7ZM281.23,150l-18.37-13.25s17-5.31,19.52-5.2S282.74,149.4,281.23,150Z"/><path class="cls-2" d="M282.38,131.54c2.55,0.11.36,17.86-1.15,18.45l-18.37-13.25S279.83,131.42,282.38,131.54Z"/><path class="cls-3" d="M290.11,266.69c0.18,0.4.35,0.8,0.52,1.2C290.46,267.49,290.29,267.09,290.11,266.69Z"/><path class="cls-3" d="M293.71,277.3l0.14,0.6Z"/><path class="cls-3" d="M291.94,271.26c0.23,0.65.44,1.31,0.65,2C292.38,272.57,292.17,271.92,291.94,271.26Z"/><path class="cls-3" d="M291.07,268.94c0.18,0.46.36,0.93,0.53,1.4C291.42,269.87,291.25,269.4,291.07,268.94Z"/><path class="cls-3" d="M293.29,275.62h0c-0.18-.66-0.36-1.32-0.56-2h0C292.93,274.3,293.11,275,293.29,275.62Z"/><path class="cls-3" d="M295.32,287.47q0.06,0.82.11,1.65Q295.38,288.29,295.32,287.47Z"/><path class="cls-3" d="M295.47,290c0,0.85.05,1.7,0.05,2.55C295.52,291.68,295.5,290.83,295.47,290Z"/><path class="cls-3" d="M284.44,256.79l0.26,0.35Z"/><path class="cls-3" d="M294.74,282.47c0.07,0.47.15,0.95,0.21,1.43C294.89,283.42,294.81,282.94,294.74,282.47Z"/><path class="cls-3" d="M294.2,279.48c0.05,0.25.1,0.5,0.14,0.74C294.3,280,294.25,279.73,294.2,279.48Z"/><path class="cls-3" d="M295.08,285c0.06,0.48.11,1,.15,1.43C295.19,286,295.14,285.48,295.08,285Z"/><path class="cls-3" d="M288,262.41l0.5,0.93Z"/><path class="cls-3" d="M286.82,260.41l0.48,0.8Z"/><path class="cls-3" d="M289.08,264.51c0.17,0.35.34,0.71,0.51,1.06C289.43,265.22,289.26,264.86,289.08,264.51Z"/><path class="cls-3" d="M285.62,258.51l0.41,0.62Z"/><path class="cls-4" d="M252.34,237.63c0.26,0,.39,0,0.64.07,0.61,0.05,1.16.11,1.76,0.19l0.78,0.12c0.6,0.09,1.17.2,1.76,0.32l0.72,0.15c0.65,0.15,1.29.31,1.93,0.49l0.5,0.14a41.37,41.37,0,0,1,9.68,4.26q1.15,0.69,2.26,1.46h0a49.46,49.46,0,0,1,12.06,12l0.26,0.35c0.32,0.45.62,0.91,0.93,1.37l0.41,0.62c0.27,0.42.53,0.84,0.79,1.27l0.48,0.8q0.35,0.6.68,1.21l0.5,0.93c0.2,0.39.4,0.77,0.6,1.17s0.34,0.71.51,1.06,0.35,0.74.52,1.12,0.35,0.8.52,1.2,0.3,0.7.44,1.05,0.36,0.93.53,1.4c0.11,0.31.23,0.61,0.34,0.92,0.23,0.65.44,1.31,0.65,2l0.13,0.41c0.2,0.65.38,1.31,0.56,2s0.29,1.11.42,1.68l0.14,0.6q0.18,0.79.35,1.59c0.05,0.25.1,0.5,0.14,0.74q0.21,1.11.39,2.24c0.07,0.47.15,0.95,0.21,1.43s0.09,0.74.13,1.11,0.11,1,.15,1.43,0.06,0.69.09,1q0.06,0.82.11,1.65c0,0.29.27,0.58,0.28,0.86,0,0.85.29,1.7,0.29,2.55v30.72c-11,6.89-28,11.28-46,11.28v-97S251.49,237.57,252.34,237.63Z"/><path class="cls-1" d="M306.41,274.89c0.68,5.71,1.3,11.93,1.72,18.72-4.73,1.37-9.12,2.83-12.12,3.93v-5c0-.86-0.26-1.71-0.29-2.55,0-.29-0.15-0.58-0.16-0.86,0-.55-0.12-1.1-0.16-1.65,0-.35-0.08-0.69-0.12-1s-0.11-1-.17-1.43-0.09-.74-0.14-1.11-0.14-1-.22-1.43c-0.12-.75-0.25-1.5-0.39-2.24,0-.25-0.09-0.5-0.14-0.74-0.11-.53-0.23-1.06-0.35-1.59,0-.2.26-0.4,0.21-0.6a7,7,0,0,1-.07-1.68h0C299,275.22,303.28,275,306.41,274.89Z"/><path class="cls-1" d="M293.86,277.9q0.18,0.79.35,1.59Q294,278.69,293.86,277.9Z"/><path class="cls-1" d="M295,283.9c0,0.37.09,0.74,0.13,1.11C295,284.63,295,284.26,295,283.9Z"/><path class="cls-1" d="M294.35,280.23q0.21,1.11.39,2.24Q294.56,281.34,294.35,280.23Z"/><path class="cls-1" d="M293.29,275.62c0.15,0.55.29,1.11,0.42,1.68C293.58,276.74,293.44,276.18,293.29,275.62Z"/><path class="cls-1" d="M295.23,286.44c0,0.34.06,0.69,0.09,1C295.29,287.13,295.27,286.78,295.23,286.44Z"/><path class="cls-1" d="M295.43,289.12c0,0.29,0,.58,0,0.86C295.46,289.7,295.44,289.41,295.43,289.12Z"/><path class="cls-1" d="M308,273.84h0c-0.9-7.28-2-13.73-3.28-19.44a31.62,31.62,0,0,1,4.6-.51,86.62,86.62,0,0,1,.72,8.66v28.36c-1-6.14-1-11.81-2-17.05h0Z"/><path class="cls-1" d="M308.06,295.68c0.24,4.28.54,8.78,0.66,13.52-2,5.28-6.72,10.09-12.72,14.06V299.68C299,298.6,303.21,297.1,308.06,295.68Z"/><path class="cls-1" d="M298.88,240.73a126.31,126.31,0,0,1,3.6,12.89,1,1,0,0,0,.05.37,1,1,0,0,0,.05.1c1.23,5.51,2.32,11.75,3.22,18.81-2.37.08-7.58,0.28-13.08,0.75h0l-0.13-.41c-0.21-.66-0.42-1.32-0.65-2-0.11-.31-0.23-0.62-0.34-0.92-0.17-.47-0.35-0.94-0.53-1.4s-0.29-.7-0.44-1.05-0.34-.8-0.52-1.2-0.34-.75-0.52-1.12-0.34-.71-0.51-1.06-0.4-.78-0.6-1.17l-0.5-.93q-0.34-.61-0.68-1.21l-0.48-.8c-0.26-.43-0.52-0.85-0.79-1.27l-0.41-.62c-0.3-.46-0.61-0.92-0.93-1.37l-0.26-.35a49.37,49.37,0,0,0-12.06-12h0A193.08,193.08,0,0,1,298.88,240.73Z"/><path class="cls-1" d="M284.7,257.15c0.32,0.45.62,0.91,0.93,1.37C285.32,258.05,285,257.59,284.7,257.15Z"/><path class="cls-1" d="M290.63,267.89c0.15,0.35.3,0.7,0.44,1.05C290.93,268.59,290.78,268.24,290.63,267.89Z"/><path class="cls-1" d="M291.6,270.34c0.11,0.31.23,0.61,0.34,0.92C291.83,271,291.71,270.65,291.6,270.34Z"/><path class="cls-1" d="M288.48,263.35c0.2,0.39.4,0.77,0.6,1.17C288.89,264.12,288.69,263.73,288.48,263.35Z"/><path class="cls-1" d="M287.3,261.2q0.35,0.6.68,1.21Q287.64,261.8,287.3,261.2Z"/><path class="cls-1" d="M286,259.14c0.27,0.42.53,0.84,0.79,1.27C286.56,260,286.3,259.55,286,259.14Z"/><path class="cls-1" d="M292.59,273.24l0.13,0.41Z"/><path class="cls-1" d="M289.59,265.58c0.18,0.37.35,0.74,0.52,1.12C289.94,266.32,289.77,265.95,289.59,265.58Z"/><path class="cls-1" d="M284.44,256.79a49.46,49.46,0,0,0-12.06-12A49.37,49.37,0,0,1,284.44,256.79Z"/><path class="cls-5" d="M310,290.89c0,0.71.1,1.44,0.14,2.17a0.54,0.54,0,0,0-.14,0v-2.2Z"/><path class="cls-5" d="M309.9,293.06c0,0.68.2,1.37,0.24,2.06a0.2,0.2,0,0,0-.15.07V293.1S309.86,293.07,309.9,293.06Z"/><path class="cls-5" d="M307.91,273.84h0v0h0Z"/><path class="cls-5" d="M304.56,254.41l0.09,0c1.26,5.71,2.36,12.16,3.26,19.44a1,1,0,0,0-.28-0.64C306.76,266.18,305.78,259.94,304.56,254.41Z"/><path class="cls-5" d="M307.91,273.84c0.65,5.24,1.19,10.91,1.61,17.05a147.83,147.83,0,0,0-1.88-16.35A1,1,0,0,0,307.91,273.84Z"/><path class="cls-5" d="M310,293.1V303a17.62,17.62,0,0,1-1.4,6.16c-0.12-4.73-.18-9.23-0.42-13.52-4.86,1.42-9.18,2.93-12.18,4v-2.13c3-1.1,7.45-2.56,12.18-3.93A10.37,10.37,0,0,1,310,293.1Z"/><path class="cls-5" d="M305.8,272.89q0.13,1,.25,2c-3.13.1-7.93,0.33-12.76,0.73-0.18-.66-0.36-1.32-0.56-2C298.22,273.18,303.44,273,305.8,272.89Z"/><path class="cls-5" d="M307.52,273.84h0.19l-0.08-.64a1,1,0,0,1,.28.64v0a1,1,0,0,1-.27.7c0-.23-0.07-0.47-0.12-0.7h0Z"/><path class="cls-5" d="M304.56,254.41c-0.48.11-.75,0.19-0.76,0.19a1,1,0,0,1-1.22-.52l-0.1-.46a1,1,0,0,1,.67-0.91,10.37,10.37,0,0,1,1.07-.28q0.22,1,.44,1.94l-0.09,0v0Z"/><path class="cls-3" d="M257.27,238.33l0.72,0.15Z"/><path class="cls-3" d="M254.68,237.89L255.5,238Z"/><path class="cls-3" d="M259.93,239l0.5,0.14Z"/><polygon class="cls-3" points="272.38 244.84 272.37 244.84 272.38 244.84 272.38 244.84"/><path class="cls-3" d="M252.11,237.63l0.76,0.07Z"/><path class="cls-1" d="M300.43,239.27s0-.05,0-0.07c-3.73-10.59-8.09-17.28-12.36-21.47,2.6-.32,5.3-0.53,8-0.65a79.27,79.27,0,0,1,12.82,34.79,28.6,28.6,0,0,0-4.65.56A125.77,125.77,0,0,0,300.43,239.27Z"/><path class="cls-1" d="M284.73,214.94c-8-5.67-14.66-3.45-14.94-3.35a1,1,0,0,0,.65,1.89c0.28-.09,6.1-2,13.2,3.14q0.73,0.52,1.47,1.14l0.06,0c4.42,3.72,9.06,10.13,13,21-4.58.41-18.15,1.8-28.08,4.6a41.21,41.21,0,0,0-9.68-4.26l-0.5-.14q-1-.27-1.93-0.49l-0.72-.15q-0.88-.18-1.78-0.32l-0.81-.12c-0.6-.08-1.21-0.14-1.82-0.19-0.25,0-.27-0.05-0.52-0.07-0.86-.06-2.34-0.09-2.34-0.09v-47c18,0,33.91,9.53,44.91,24.61-2.93.16-6,.43-8.71,0.83C285.75,215.61,285.17,215.26,284.73,214.94Z"/><path class="cls-1" d="M270.11,243.38a41.38,41.38,0,0,0-9.68-4.26,41.21,41.21,0,0,1,9.68,4.26h0Z"/><path class="cls-1" d="M255.5,238q0.89,0.14,1.78.32C256.69,238.21,256.09,238.11,255.5,238Z"/><path class="cls-1" d="M249.52,237.54c0.87,0,1.73,0,2.58.09C251.25,237.57,250.39,237.54,249.52,237.54Z"/><path class="cls-1" d="M258,238.49q1,0.22,1.93.49Q259,238.71,258,238.49Z"/><path class="cls-1" d="M252.87,237.7c0.61,0.05,1.22.11,1.82,0.19C254.08,237.81,253.48,237.75,252.87,237.7Z"/><path class="cls-5" d="M299.44,238.67l-1.26.11c-4-10.84-8.6-17.25-13-21a1,1,0,0,0,.61.22h0.15c0.69-.1,1.4-0.2,2.11-0.29,4.27,4.18,8.63,10.88,12.36,21.47A1,1,0,0,0,299.44,238.67Z"/><path class="cls-5" d="M298.19,238.78c0.23,0.63.46,1.28,0.69,1.95a193.08,193.08,0,0,0-26.5,4.11h0q-1.11-.77-2.26-1.46C280,240.58,293.61,239.19,298.19,238.78Z"/><path class="cls-5" d="M272.37,244.84q-1.11-.76-2.26-1.46h0Q271.26,244.07,272.37,244.84Z"/><path class="cls-5" d="M299.6,240.67l-0.73.06c-0.23-.67-0.46-1.31-0.69-1.95l1.26-.11a1,1,0,0,1,1,.52s0,0.05,0,.07A1,1,0,0,1,299.6,240.67Z"/><path class="cls-5" d="M303.47,254.66a1,1,0,0,0,.33-0.06s0.28-.09.76-0.19c1.22,5.53,2.2,11.77,3.07,18.77,0,0.21.29,0.42,0.32,0.64h0a4.11,4.11,0,0,0,.12.7c0.92,5,.88,10.48,1.88,16.35v2.2a14.64,14.64,0,0,0-2.06.52c-0.41-6.79-1.09-13-1.77-18.72-0.08-.67-0.22-1.34-0.31-2-0.9-7.06-2-13.3-3.25-18.81A1,1,0,0,0,303.47,254.66Z"/><path class="cls-5" d="M299.6,240.67a1,1,0,0,0,.83-1.4,125.77,125.77,0,0,1,3.78,13.16,10.37,10.37,0,0,0-1.07.28,1,1,0,0,0-.67.91,126.31,126.31,0,0,0-3.6-12.89Z"/><path class="cls-5" d="M309.52,253.87h0Z"/><path class="cls-5" d="M304.06,252.47a31.1,31.1,0,0,1,4.86-.59c0.08,0.66.36,1.33,0.43,2h0.12a24.94,24.94,0,0,0-5,.56C304.3,253.78,304.21,253.1,304.06,252.47Z"/><path class="cls-5" d="M305.14,254.37a24.05,24.05,0,0,1,4.86-.5h0a20.22,20.22,0,0,0-4.62.51Z"/><path class="cls-5" d="M302.53,254a1,1,0,0,1-.05-0.37l0.1,0.46A1,1,0,0,1,302.53,254Z"/><path class="cls-5" d="M304.56,254.39l0.09,0v0l-0.09,0v0Z"/><path class="cls-3" d="M262.1,196.92l0.22-.23Z"/><path class="cls-3" d="M264.75,193.78l0.1-.13Z"/><path class="cls-3" d="M256.35,201.58l0.54-.3Z"/><path class="cls-3" d="M266,192l0.06-.08Z"/><path class="cls-3" d="M260.72,198.3L261,198Z"/><path class="cls-3" d="M263.45,195.41l0.16-.18Z"/><path class="cls-3" d="M259.3,199.55l0.37-.29Z"/><path class="cls-3" d="M257.84,200.65l0.45-.3Z"/><path class="cls-3" d="M249.52,203.54a12.08,12.08,0,0,0,1.52-.1A12.08,12.08,0,0,1,249.52,203.54Z"/><path class="cls-3" d="M251.6,203.33c0.31-.05.62-0.1,0.93-0.18C252.23,203.24,251.91,203.28,251.6,203.33Z"/><path class="cls-3" d="M254.83,202.34c0.21-.09.42-0.17,0.63-0.27C255.25,202.17,255,202.25,254.83,202.34Z"/><path class="cls-3" d="M267.22,190.24l0,0Z"/><path class="cls-3" d="M253.26,202.93c0.25-.08.5-0.14,0.75-0.23C253.76,202.79,253.51,202.86,253.26,202.93Z"/><path class="cls-4" d="M254,202.7c0.28-.1.55-0.23,0.82-0.36C254.56,202.46,254.29,202.6,254,202.7Z"/><path class="cls-4" d="M251,203.44c0.19,0,.38-0.07.56-0.11C251.41,203.37,251.23,203.42,251,203.44Z"/><path class="cls-4" d="M252.54,203.16c0.24-.06.49-0.15,0.73-0.23C253,203,252.78,203.1,252.54,203.16Z"/><path class="cls-4" d="M262.32,196.69c0.38-.41.75-0.84,1.12-1.28C263.08,195.85,262.7,196.28,262.32,196.69Z"/><path class="cls-4" d="M259.66,199.26c0.36-.3.71-0.63,1.06-1C260.37,198.63,260,199,259.66,199.26Z"/><path class="cls-4" d="M263.6,195.23c0.39-.47.77-0.95,1.15-1.44C264.37,194.28,264,194.76,263.6,195.23Z"/><path class="cls-4" d="M261,198c0.37-.35.73-0.73,1.09-1.12C261.74,197.31,261.38,197.68,261,198Z"/><path class="cls-4" d="M258.29,200.34c0.34-.25.67-0.52,1-0.79C259,199.82,258.63,200.1,258.29,200.34Z"/><path class="cls-4" d="M255.46,202.07c0.3-.15.59-0.32,0.89-0.49C256.05,201.75,255.76,201.92,255.46,202.07Z"/><path class="cls-4" d="M264.85,193.65c0.39-.52.78-1.05,1.16-1.6C265.63,192.59,265.25,193.13,264.85,193.65Z"/><path class="cls-4" d="M266.07,192q0.58-.84,1.15-1.73Q266.65,191.12,266.07,192Z"/><path class="cls-4" d="M256.89,201.28c0.32-.2.63-0.42,1-0.64C257.52,200.87,257.21,201.09,256.89,201.28Z"/><path class="cls-5" d="M284.79,217.18a1,1,0,0,0,.32.58q-0.74-.62-1.47-1.14c-7.1-5.09-12.93-3.24-13.2-3.14a1,1,0,0,1-.65-1.89c0.28-.1,7-2.32,14.94,3.35,0.45,0.32.9,0.67,1.35,1l-0.45.06A1,1,0,0,0,284.79,217.18Z"/><path class="cls-5" d="M286.08,216c2.76-.4,5.67-0.67,8.59-0.83,0.46,0.64.93,1.28,1.37,1.93-2.71.12-5.41,0.33-8,.65C287.38,217.09,286.73,216.51,286.08,216Z"/><path class="cls-5" d="M285.78,218a1,1,0,0,1-.61-0.22l-0.06,0a1,1,0,0,1,.52-1.72l0.45-.06c0.65,0.53,1.3,1.11,2,1.75-0.71.09-1.42,0.18-2.11,0.29h-0.15Z"/><path class="cls-3" d="M268.38,188.33h0Z"/><path class="cls-4" d="M251.28,203.44c0.19,0,.26-0.07.44-0.11s0.56-.1.87-0.18,0.46-.15.7-0.23,0.48-.14.73-0.23,0.54-.23.82-0.36,0.42-.17.62-0.27,0.59-.32.89-0.49l0.54-.3c0.32-.2.63-0.42,1-0.64l0.45-.3c0.34-.25.67-0.52,1-0.79l0.37-.29c0.36-.3.71-0.63,1.06-1L261,198c0.37-.35.73-0.73,1.09-1.12l0.22-.23c0.38-.41.75-0.84,1.12-1.28l0.16-.18c0.39-.47.77-0.95,1.15-1.44l0.1-.13c0.39-.52.78-1.05,1.16-1.6l0.06-.08q0.58-.84,1.15-1.73l0,0q0.58-.91,1.13-1.85h0q1.12-1.91,2.17-4h0a7.53,7.53,0,0,0,4.6,4.11c5.33,1.46,11.6-4.48,14-13.27,0.12-.45.46-0.89,0.56-1.34-0.67,22.24-18.73,58.7-39.73,58.7v-29S250.78,203.5,251.28,203.44Z"/><path class="cls-4" d="M267.25,190.19q0.58-.91,1.13-1.85Q267.83,189.28,267.25,190.19Z"/><path class="cls-4" d="M270.56,184.35q-1,2.05-2.17,4C269.14,187,269.87,185.72,270.56,184.35Z"/><path class="cls-4" d="M282,168.47c-1.37,5-4.85,8.42-7.92,7.89a108.1,108.1,0,0,0,5.39-18.6C282.23,159,283.36,163.63,282,168.47Z"/><path class="cls-4" d="M283.88,156.62a6.77,6.77,0,0,0-4.21.28,83.58,83.58,0,0,0,1.2-9.2A40,40,0,0,1,287,158.61,6.64,6.64,0,0,0,283.88,156.62Z"/><path class="cls-1" d="M271.64,143.13a1,1,0,0,0-.18,0,89.35,89.35,0,0,0-21.4-5.71c-0.1,0-.06,0-0.06,0v-4.86a40.15,40.15,0,0,1,30.71,14.69c-2.62-1.37-5.67-2.75-8.86-4Z"/><path class="cls-1" d="M269.84,144.6l-6.08,12.82a57.57,57.57,0,0,0-13.65-2c-0.12,0-.12,0-0.12.07V139.35h-0.2A87.18,87.18,0,0,1,269.84,144.6Z"/><path class="cls-1" d="M271.7,145.34a93.82,93.82,0,0,1,9,4.27A94.41,94.41,0,0,1,278.34,163,72.39,72.39,0,0,0,265.71,158Z"/><path class="cls-1" d="M271.4,182.65c-0.27.57-.55,1.15-0.84,1.71-0.7,1.37-1.42,2.7-2.17,4h0q-0.56.95-1.13,1.85l0,0q-0.57.89-1.15,1.73L266,192c-0.38.55-.77,1.08-1.16,1.6l-0.1.13c-0.38.5-.76,1-1.15,1.44l-0.16.18c-0.37.44-.75,0.87-1.12,1.28l-0.22.23c-0.36.38-.72,0.76-1.09,1.12l-0.29.26c-0.35.33-.7,0.65-1.06,1l-0.37.29c-0.33.27-.67,0.54-1,0.79l-0.45.3c-0.32.22-.63,0.44-1,0.64l-0.54.3c-0.3.17-.59,0.34-0.89,0.49s-0.42.18-.63,0.27-0.55.25-.82,0.36-0.5.16-.75,0.23-0.48.16-.73,0.23-0.62.12-.93,0.18-0.14.08-.33,0.11c-0.5.06-1.28,0.1-1.28,0.1V175.63s-0.13.05-.07,0.06C260.79,177.53,267.53,180.53,271.4,182.65Z"/><path class="cls-1" d="M257.62,158.15a69.75,69.75,0,0,1,20.2,6.9,104.76,104.76,0,0,1-5.57,15.75,66.61,66.61,0,0,0-17.77-6.23C255.18,171.19,257.23,161.14,257.62,158.15Z"/><path class="cls-1" d="M250.07,157.41a50.56,50.56,0,0,1,5.7.46c-0.26,2.1-2,10.5-3.19,16.31-0.81-.16-1.43-0.31-2.29-0.46-0.18,0-.29,0-0.29.06V157.34S250,157.4,250.07,157.41Z"/><path class="cls-5" d="M252.52,174.18l-0.2,1a1,1,0,0,0,.78,1.18l0.2,0a1,1,0,0,0,1-.8l0.2-1a66.61,66.61,0,0,1,17.77,6.23q-0.42.93-.85,1.84c-3.87-2.12-10.61-5.11-21.47-7-0.06,0,.07,0,0.07-0.06v-1.85c0-.06.09-0.09,0.26-0.06C251.12,173.86,251.71,174,252.52,174.18Z"/><path class="cls-5" d="M257.69,157.45a1,1,0,0,0-2,0c0,0.08,0,.23,0,0.41a48.45,48.45,0,0,0-5.58-.46c-0.11,0-.07,0-0.07-0.07v-1.86s0-.07.12-0.07a58.6,58.6,0,0,1,13.76,2l-0.42.77a1,1,0,0,0,.44,1.33,0.94,0.94,0,0,0,.41.1,1,1,0,0,0,.9-0.57l0.51-1.08A72.36,72.36,0,0,1,278.34,163c-0.17.67-.34,1.34-0.52,2a69.76,69.76,0,0,0-20.2-6.9A6.39,6.39,0,0,0,257.69,157.45Z"/><path class="cls-5" d="M272.12,144.46a1,1,0,0,0-.39-1.27,96,96,0,0,1,8.74,4l0.4,0.48c0,0.63-.1,1.27-0.16,1.91a93.82,93.82,0,0,0-9-4.27Z"/><path class="cls-5" d="M271.47,143.09a1,1,0,0,0-1.16.52l-0.47,1a87.18,87.18,0,0,0-20-5.24H250v-2s0,0,.06,0A89.35,89.35,0,0,1,271.47,143.09Z"/><path class="cls-5" d="M254.48,174.58l-2-.4c1.2-5.81,2.87-14.22,3.13-16.31,0.66,0.09,1.32.18,2,.29C257.23,161.14,255.18,171.19,254.48,174.58Z"/><path class="cls-5" d="M254.28,175.55a1,1,0,0,1-1,.8l-0.2,0a1,1,0,0,1-.78-1.18l0.2-1,2,0.4Z"/><path class="cls-5" d="M256.69,156.45a1,1,0,0,1,1,1,6.42,6.42,0,0,1-.07.7c-0.65-.11-1.31-0.2-2-0.29,0-.18,0-0.33,0-0.41A1,1,0,0,1,256.69,156.45Z"/><path class="cls-5" d="M271.64,143.13l0.08,0.06-0.26-.11A1,1,0,0,1,271.64,143.13Z"/><path class="cls-5" d="M271.7,145.34l-6,12.63c-0.64-.19-1.29-0.37-2-0.55l6.08-12.82Z"/><path class="cls-5" d="M265.2,159a1,1,0,1,1-1.81-.86l0.36-.77c0.67,0.18,1.31.36,2,.55Z"/><path class="cls-5" d="M270.31,143.61a1,1,0,0,1,1.16-.52l0.26,0.11a1,1,0,0,1,.39,1.27l-0.42.88-1.86-.74Z"/><path class="cls-6" d="M269.88,169.9c0.07-.26.16-0.51,0.24-0.77-0.06,3.61,1.31,6.53,3.67,7.17l0.34,0.06c3.06,0.54,6.55-2.89,7.92-7.89,1.33-4.84.19-9.44-2.53-10.72a3.18,3.18,0,0,0-1-.3,9.61,9.61,0,0,1,1.21-.55,6.77,6.77,0,0,1,4.21-.28,6.64,6.64,0,0,1,3.14,2,39.82,39.82,0,0,1,2.5,13.92c0,0.42,0,.87,0,1.3s-0.2.89-.32,1.34c-2.41,8.79-8.67,14.73-14,13.27a7.53,7.53,0,0,1-4.6-4.11C268.74,180.78,268.36,175.44,269.88,169.9Z"/><path class="cls-7" d="M282,168.47c-1.42,5.18-5.11,8.68-8.25,7.82-2.36-.65-3.73-3.56-3.67-7.17,1.68-5.51,4.88-9.79,8.35-11.67a3.6,3.6,0,0,1,.46.09C282.06,158.4,283.45,163.29,282,168.47Z"/><path class="cls-8" d="M288.48,207.41l-4.4,2.77a12,12,0,0,0-4.59,15c6.27-4.21,13.66-10.19,16.2-12.29A63.13,63.13,0,0,0,288.48,207.41Z"/><path class="cls-8" d="M297.2,214.22c-2.36,2-10.13,8.29-16.76,12.71l5.91,9.39a11.89,11.89,0,0,0,4.46,4.16c7.27-5,15.19-10.8,17.63-12.59A67.31,67.31,0,0,0,297.2,214.22Z"/><path class="cls-9" d="M343,194h0a17.61,17.61,0,0,1,.95,1.73L350,184.19c0.51-1,.13-1.37-0.86-0.87l-11.05,5.57A17.5,17.5,0,0,1,343,194Z"/><path class="cls-9" d="M333.31,186.58l-0.3-5.4a1,1,0,0,0-1.76-.87l-8.4,5.7a1.35,1.35,0,0,0-.6.73A17.71,17.71,0,0,1,333.31,186.58Z"/><path class="cls-9" d="M354.11,199.57l-8.88-.17a17.65,17.65,0,0,1,.4,5.24l8.68-4.17C355.3,200,355.21,199.59,354.11,199.57Z"/><path class="cls-8" d="M341.94,199.34l3.29,0.06a17.44,17.44,0,0,0-1.28-3.66l-1.63,3.1A1.67,1.67,0,0,1,341.94,199.34Z"/><path class="cls-8" d="M345.23,199.4l-3.29-.06a0.83,0.83,0,0,1-1.17,0l1.17,0a1.67,1.67,0,0,0,.39-0.5l1.63-3.1A17.61,17.61,0,0,0,343,194h0a17.5,17.5,0,0,0-4.91-5.11,17.83,17.83,0,0,0-15.84-2.16,17.5,17.5,0,0,0-3.61,1.72l-7.58,4.77c8,5.61,19,14.48,26.32,25.19l0.07,0A17.78,17.78,0,0,0,345.23,199.4Z"/><path class="cls-8" d="M341.94,199.34l-1.17,0A0.83,0.83,0,0,0,341.94,199.34Z"/><path class="cls-8" d="M298,212.23a1,1,0,0,1,.07.14,68.06,68.06,0,0,1,5.58,5.72c8.46-5,17.49-11.13,18.73-13.23a139.49,139.49,0,0,0-13.23-10.45l-18.85,11.85a65.85,65.85,0,0,1,7.34,5.7A1,1,0,0,1,298,212.23Z"/><path class="cls-8" d="M293,241.39a12,12,0,0,0,9.88-1.3l9.13-5.74c-0.81-1.66-1.66-3.25-2.54-4.75C307,231.44,299.86,236.64,293,241.39Z"/><path class="cls-8" d="M305,219.64a70.77,70.77,0,0,1,5.52,7.82,0.91,0.91,0,0,1,.09.08,1,1,0,0,1,.14.29c1,1.72,2,3.54,3,5.46l21.94-13.79a84.6,84.6,0,0,0-11.84-13.35C321.12,209.73,311.6,215.73,305,219.64Z"/><path class="cls-10" d="M311.06,193.22l-1.89,1.19a139.49,139.49,0,0,1,13.23,10.45c-1.24,2.1-10.27,8.23-18.73,13.23a68.06,68.06,0,0,0-5.58-5.72,1,1,0,0,0-.07-0.14,1,1,0,0,0-.37-0.26,65.85,65.85,0,0,0-7.34-5.7l-1.84,1.15a63.13,63.13,0,0,1,7.21,5.45c-2.54,2.09-9.93,8.08-16.2,12.29a11.92,11.92,0,0,0,.82,1.58l0.13,0.2c6.64-4.42,14.4-10.76,16.76-12.71a67.31,67.31,0,0,1,11.24,13.67c-2.44,1.79-10.36,7.58-17.63,12.59a12.06,12.06,0,0,0,2.2.91c6.85-4.75,14-9.95,16.47-11.79,0.88,1.5,1.73,3.09,2.54,4.75l1.69-1.07c-0.95-1.92-1.94-3.74-3-5.46a1,1,0,0,0-.14-0.29,0.91,0.91,0,0,0-.09-0.08,70.77,70.77,0,0,0-5.52-7.82c6.62-3.91,16.14-9.9,18.83-13.5a84.6,84.6,0,0,1,11.84,13.35l1.73-1.09C330,207.7,319.05,198.83,311.06,193.22Z"/><path class="cls-11" d="M326.17,362.14a10,10,0,0,0,.34-1.85c3.44,2.08,13,8,15.68,11.25,0.37,0.44-14.29-5.45-14.79-5.2-0.25.12,13.93,6.45,13.5,6.54-4.44.83-17.68-.46-26.15-1.69C320.53,369.87,324.87,366.7,326.17,362.14Z"/><path class="cls-8" d="M279.94,348.93c0.1-.36-0.18-6.47.3-12,7.68-1.68,13.73-3.32,18.49-4.87l0.16-.06c6.59-2.16,10.69-4.14,13.22-5.81A33.93,33.93,0,0,1,311,339.8c-0.18.63-.38,1.25-0.59,1.86,0.36,0.14.71,0.29,1.06,0.44-5.11,2.79-15.06,6.64-31.61,7.34C279.86,349.27,279.9,349.1,279.94,348.93Z"/><path class="cls-8" d="M314.43,363.37c-0.1-5-7.32-12.55-10.7-15.81a47.45,47.45,0,0,0,10-4.42,27.16,27.16,0,0,1,10.12,8.36A15.51,15.51,0,0,1,314.43,363.37Z"/><path class="cls-8" d="M280.47,334.83a25.06,25.06,0,0,1,.69-3.56C284.39,320,292.34,312,299.84,312c0,5.43-1.43,14.07-2.22,18.31C293.19,331.75,287.57,333.27,280.47,334.83Z"/><path class="cls-8" d="M301.82,312.22c0.28,0.06.57,0.12,0.85,0.2,4.61,1.32,7.81,5.75,9.08,11.64-2,1.46-5.54,3.38-12,5.57A121.51,121.51,0,0,0,301.82,312.22Z"/><path class="cls-8" d="M301.53,348.23c5.39,5,11.9,12.92,10.78,16-0.42.14-.85,0.27-1.29,0.39-6.36,1.72-14.75,1.4-25-.92-4.13-3.62-6.53-8-6.41-12.21A93.31,93.31,0,0,0,301.53,348.23Z"/><path class="cls-8" d="M318.23,363.53a17.34,17.34,0,0,0,7-9.58,12.19,12.19,0,0,1,1.26,6.35l-1.26-.75Z"/><path class="cls-8" d="M301.84,367.66a37.25,37.25,0,0,0,9.69-1.16,24.12,24.12,0,0,0,4.14-1.53,20.1,20.1,0,0,0,2.56-1.45l7-4,1.26,0.75a10,10,0,0,1-.34,1.85c-1.3,4.56-5.65,7.73-11.43,9a32.72,32.72,0,0,1-15.94-.74,35.5,35.5,0,0,1-9-4A68.53,68.53,0,0,0,301.84,367.66Z"/><path class="cls-12" d="M298.73,332.06c-4.76,1.55-10.81,3.19-18.49,4.87,0.06-.71.14-1.42,0.22-2.1,7.11-1.57,12.72-3.08,17.15-4.49,0.79-4.24,2.17-12.88,2.22-18.31a10.31,10.31,0,0,1,2,.19,121.51,121.51,0,0,1-2,17.41c6.43-2.19,10-4.11,12-5.57q0.22,1,.37,2.13c-2.54,1.68-6.63,3.66-13.22,5.81Z"/><path class="cls-12" d="M311,364.58c0.45-.12.88-0.25,1.29-0.39,1.12-3-5.38-10.91-10.78-16a93.31,93.31,0,0,1-22,3.23,10.25,10.25,0,0,1,.26-2c16.55-.7,26.5-4.55,31.61-7.34q1.17,0.49,2.27,1a47.45,47.45,0,0,1-10,4.42c3.38,3.26,10.6,10.81,10.7,15.81a15.51,15.51,0,0,0,9.4-11.87,17.26,17.26,0,0,1,1.43,2.45,17.34,17.34,0,0,1-7,9.58L315.67,365a24.12,24.12,0,0,1-4.14,1.53,37.25,37.25,0,0,1-9.69,1.16,68.53,68.53,0,0,1-12.06-1.19,29.3,29.3,0,0,1-3.81-2.81C296.25,366,304.65,366.29,311,364.58Z"/><path class="cls-12" d="M318.23,363.53a20.1,20.1,0,0,1-2.56,1.45Z"/><g class="cls-13"><path class="cls-14" d="M309.52,253.87h0Z"/><path class="cls-14" d="M354.11,199.57l-8.88-.17a17.44,17.44,0,0,0-1.28-3.66L350,184.19c0.51-1,.13-1.37-0.86-0.87l-11.05,5.57a17.74,17.74,0,0,0-4.78-2.31l-0.3-5.4a1,1,0,0,0-1.76-.87l-8.4,5.7a1.35,1.35,0,0,0-.6.73,17.52,17.52,0,0,0-3.61,1.72l-7.58,4.77-1.89,1.19-18.85,11.85-1.84,1.15-0.08,0a62.57,62.57,0,0,0-6-5.34c4.36-9.65,7.05-20,7.3-28.29-0.1.44-.44,0.89-0.56,1.34,0.12-.45.22-0.89,0.32-1.34s0-.88,0-1.3a39.68,39.68,0,0,0-4.24-17.89h0c2.27-.88,5.56-27.62,1.73-27.78-3.1-.13-20.33,5-26.87,7.05A38.51,38.51,0,0,0,250,132.54v4.84s0,0,0,0v2h-0.2l0.2,0v17.94a0.12,0.12,0,0,0,0,0v18.24s-0.13.05-.07,0.06H250V334.54a104,104,0,0,0,31.64-4.78c-0.17.5-.33,1-0.48,1.52a25.06,25.06,0,0,0-.69,3.56c-0.09.68-.16,1.38-0.22,2.1-0.48,5.53-.19,11.64-0.3,12,0,0.17-.08.34-0.12,0.5a10.25,10.25,0,0,0-.26,2c-0.12,4.21,2.28,8.58,6.41,12.21a29.3,29.3,0,0,0,3.81,2.81,35.5,35.5,0,0,0,9,4,32.72,32.72,0,0,0,15.94.74c8.47,1.23,21.71,2.52,26.15,1.69,0.44-.08-13.75-6.41-13.5-6.54,0.5-.25,15.16,5.64,14.79,5.2-2.71-3.26-12.23-9.16-15.68-11.25a12.19,12.19,0,0,0-1.26-6.35,17.26,17.26,0,0,0-1.43-2.45,27.16,27.16,0,0,0-10.12-8.36q-1.1-.56-2.27-1c-0.35-.15-0.7-0.3-1.06-0.44,0.21-.61.41-1.23,0.59-1.86a33.93,33.93,0,0,0,1.15-13.6q-0.14-1.09-.37-2.13c-0.94-4.33-2.92-7.87-5.73-10a21.06,21.06,0,0,0,2.7-4.9c0-.1,0-0.2,0-0.3A17,17,0,0,0,310,303v-7.85a0.2,0.2,0,0,1,.15-0.07c0-.42-0.09-0.83-0.15-1.24V293.1a0.54,0.54,0,0,1,.14,0c0-.73-0.14-1.45-0.14-2.17-0.57-3.33-.8-6.51-1.06-9.57,0.27,3.06.52,6.24,1.06,9.57V262.54a86,86,0,0,0-.72-8.63l0.72,0h0l-0.72,0v0h0.08c-0.07-.67-0.45-1.34-0.53-2a34.28,34.28,0,0,0-4.82.56h0a31.68,31.68,0,0,1,4.76-.56,83.31,83.31,0,0,0-2.83-13.72l6.06-3.79,1.71-1.06,21.95-13.79,1.73-1.09,0.07,0a17.66,17.66,0,0,0,8.18-13.73l8.68-4.17C355.3,200,355.21,199.59,354.11,199.57Zm-46,75a3.86,3.86,0,0,1-.11-0.69C308,274.07,308.08,274.3,308.11,274.53Zm-5.53-20.44,0,0.07c1.23,5.5,2.26,11.72,3.15,18.74a15.85,15.85,0,0,1,.22,2h0c-3,.1-7.12.33-12,0.73h0a7,7,0,0,0,.07,1.68c0,0.2-.26.4-0.21,0.6,0.12,0.53.24,1.05,0.35,1.59,0.05,0.25.1,0.5,0.14,0.74,0.14,0.74.27,1.49,0.39,2.24,0.07,0.47.15,0.95,0.22,1.43s0.09,0.74.14,1.11,0.12,1,.17,1.43,0.09,0.69.12,1c0,0.55.14,1.1,0.16,1.65,0,0.29.15,0.58,0.16,0.86,0,0.85.29,1.7,0.29,2.55,0-.86-0.26-1.71-0.29-2.55,0-.29-0.27-0.58-0.28-0.86q0-.83-0.11-1.65c0-.35-0.05-0.69-0.09-1s-0.1-1-.15-1.43-0.08-.74-0.13-1.11-0.14-1-.21-1.43q-0.18-1.13-.39-2.24c0-.25-0.09-0.5-0.14-0.74q-0.16-.8-0.35-1.59c0-.2-0.24-0.4-0.29-0.6a8.29,8.29,0,0,1-.57-1.68h0c5-.4,9.78-0.64,12.91-0.73-0.08-.67-0.09-1.34-0.17-2C304.83,265.84,303.82,259.6,302.58,254.08ZM296,297.54c3-1.1,7.39-2.56,12.12-3.93v-0.05a14.67,14.67,0,0,1,1.48-.38c-0.66.14-.9,0.29-1.41,0.44C303.45,295,299,296.44,296,297.54Zm-25.43-113.2h0Zm-12.88-26.89a6.39,6.39,0,0,1-.07.7,67.74,67.74,0,0,1,15.43,4.63h0a67.74,67.74,0,0,0-15.43-4.63A6.42,6.42,0,0,0,257.69,157.45Zm16.41,18.91h0Zm5.55-19.45c0-.16.07-0.33,0.1-0.49,0,0.16-.05.32-0.08,0.49h0ZM265.72,158L265.21,159a1,1,0,0,1-.9.57h0a1,1,0,0,0,.89-0.57l0.51-1.08h0Zm14.63-5.31c0.07-.49.11-1,0.17-1.45h0C280.47,151.69,280.41,152.17,280.35,152.66Zm-0.48,3.12q0.22-1.28.4-2.53Q280.08,154.5,279.86,155.78Zm-29.57,17.94c0.84,0.14,1.45.29,2.23,0.45h0c-0.81-.16-1.4-0.31-2.26-0.46a0.48,0.48,0,0,0-.18,0A0.57,0.57,0,0,1,250.29,173.72Zm2.22,63.93-0.17,0Zm55.55,58.07,0.12,0c0.12,2.14.19,4.34,0.25,6.59C308.32,300,308.18,297.84,308.06,295.71Zm0.52-17.91v0Zm-0.45-3.16c0.08,0.49.17,1,.24,1.49C308.3,275.64,308.22,275.14,308.13,274.64Zm-3.46-20.26c1.26,5.71,2.38,12.16,3.28,19.44a0.48,0.48,0,0,0-.07-0.17c-0.9-7.2-2-13.6-3.23-19.26a23.63,23.63,0,0,1,4-.48A30.18,30.18,0,0,0,304.67,254.39Z"/></g><path class="cls-8" d="M156.25,465.94V465h5.63v1.88h1.88v1.88h1.88v5.63h-1.87v1.88h-1.87v1.88h-5.62v-1.87h-1.87v-1.87H152.5v-5.62h1.88v-1.87h1.88v-0.94Zm3.75,1.88v-0.94h-3.75v7.5h1.88v1.88h3.75v-7.5H160v-0.94Z"/><path class="cls-8" d="M169.38,465.94V465h9.38v1.88h1.88v3.75h-1.87v1.88h-1.87v1.88h-3.75v1.88h7.5v1.88H167.5v-3.75h1.88V472.5h1.88v-1.87H175v-1.87h1.88v-1.87h-5.62v1.88H167.5v-1.87h1.88v-0.94Z"/><path class="cls-8" d="M182.5,466.88V465h13.13v3.75h-1.87v1.88h-1.87v1.88H190v5.63h-3.75V472.5h1.88v-1.87H190v-1.87h1.88v-1.87h-5.62v1.88H182.5v-1.87Z"/><path class="cls-8" d="M214.38,465.94V465h7.5v1.88h1.88v1.88H220v-1.87h-3.75v3.75h7.5v1.88h1.88v3.75h-1.87v1.88h-9.37v-1.87H212.5v-1.87h3.75v1.88h5.63V472.5h-7.5v-1.87H212.5v-3.75h1.88v-0.94Z"/><path class="cls-8" d="M231.25,465.94V465h5.63v1.88h1.88v1.88h1.88v9.38h-3.75v-3.75h-5.62v3.75H227.5v-9.37h1.88v-1.87h1.88v-0.94Zm3.75,1.88v-0.94h-1.87v1.88h-1.87v3.75h5.63v-3.75H235v-0.94Z"/><path class="cls-8" d="M242.5,471.56V465h3.75v1.88h1.88v1.88H250v1.88h1.88V465h3.75v13.13h-3.75v-1.87H250v-1.87h-1.87V472.5h-1.87v5.63H242.5v-6.56Z"/><path class="cls-8" d="M257.5,471.56V465h9.38v1.88h1.88v1.88h1.88v5.63h-1.87v1.88h-1.87v1.88H257.5v-6.56Zm7.5-3.75v-0.94h-3.75v9.38H265v-1.87h1.88v-5.62H265v-0.94Z"/><path class="cls-8" d="M274.38,465.94V465h7.5v1.88h1.88v1.88H280v-1.87h-3.75v3.75h7.5v1.88h1.88v3.75h-1.87v1.88h-9.37v-1.87H272.5v-1.87h3.75v1.88h5.63V472.5h-7.5v-1.87H272.5v-3.75h1.88v-0.94Z"/><path class="cls-8" d="M287.5,471.56V465h3.75v5.63h5.63V465h3.75v13.13h-3.75V472.5h-5.62v5.63H287.5v-6.56Z"/><path class="cls-8" d="M302.5,471.56V465h11.25v1.88h1.88v5.63h-3.75v1.88h1.88v1.88h1.88v1.88H310v-1.87h-1.87v-1.87h-1.87v3.75H302.5v-6.56Zm9.38-2.81v-1.87h-5.62v5.63H310v-1.87h1.88v-1.87Z"/><path class="cls-8" d="M317.5,471.56V465h13.13v1.88h-9.37v3.75h7.5v1.88h-7.5v3.75h9.38v1.88H317.5v-6.56Z"/><path class="cls-8" d="M332.5,471.56V465h3.75v5.63h1.88v-1.87H340v1.88h1.88V465h3.75v13.13h-3.75v-1.87H340v-1.87h-1.87v1.88h-1.87v1.88H332.5v-6.56Z"/></svg>