<?xml version="1.0" ?><svg id="pkft" viewBox="0 0 500 500" xmlns="http://www.w3.org/2000/svg"><defs><style>.cls-1{fill:#ccc;}.cls-2{fill:#d6b703;}.cls-3{fill:#dcc200;}.cls-4{fill:#f2d4b4;}.cls-5{fill:none;}.cls-6{fill:#9b6319;}.cls-7{fill:#b25918;}.cls-8{fill:#915814;}.cls-9{fill:#965014;}.cls-10{fill:#a35615;}.cls-11{fill:#873903;}.cls-12{fill:#7f4b12;}.cls-13{fill:#703f0f;}.cls-14{fill:#8e420a;}.cls-15,.cls-18{fill:#1a1a1a;}.cls-16{fill:#f2f2f2;}.cls-17{fill:#60432f;}.cls-18{opacity:0.1;}</style></defs><title/><path class="cls-1" d="M142.1,232.13c-2.48-2.92-5.17-6.22-7.86-9.8C120.5,206.55,100,180,100,180c-1.16,23.15,23.29,52.25,34.51,64.33a16.23,16.23,0,0,1,3.79-7.81Z"/><path class="cls-1" d="M142.71,231.42l7.39-8.54a17.56,17.56,0,0,1,1.62-1.63C138.3,206.48,114,175,114,175c-0.77,15.4,9.79,33.42,20.24,47.33C137.6,226.19,140.56,229.4,142.71,231.42Z"/><path class="cls-1" d="M142.71,231.42c-2.16-2-5.11-5.24-8.47-9.09,2.69,3.58,5.38,6.88,7.86,9.8Z"/><path class="cls-2" d="M189.78,246.5c-9.77-12.81-23-27.09-23-27.09-3.84-3.33-10.25-2.41-15,1.85a17.56,17.56,0,0,0-1.62,1.63l-7.39,8.54c1.57,1.48,2.72,2.33,3.29,2.33l-0.74,2c-1-1.13-2.06-2.34-3.15-3.63l-3.81,4.4a16.23,16.23,0,0,0-3.79,7.81c-0.61,3.61.27,7,2.74,9.18,0,0,45.63,31.44,50.51,25.81L188,279l11.55-13.34C201.55,263.39,196.48,255.3,189.78,246.5Z"/><path class="cls-2" d="M142.71,231.42l-0.61.71c1.1,1.29,2.15,2.5,3.15,3.63l0.74-2C145.44,233.75,144.29,232.9,142.71,231.42Z"/><path class="cls-1" d="M173.18,388.12a17.52,17.52,0,0,1-.42-3.52c-11.36,1-25.44,4.56-32.76,15.4l31.5-4.5s-30,7.5-31.5,11c0,0,33.07-1,46.62-4.13C179.77,399.77,174.66,394.72,173.18,388.12Z"/><path class="cls-3" d="M220.88,356c-6.8-7.32-12.31-17.16-16-28.58-10.44,2.18-18.41,13.71-18.41,27.62a35.06,35.06,0,0,0,1,8.45c-9.08,4.6-14.91,12.76-14.76,21.15a17.52,17.52,0,0,0,.42,3.52c1.48,6.6,6.59,11.65,13.44,14.25a32.75,32.75,0,0,0,18.7,1.09c15.09-3.38,25.17-15.73,22.51-27.59a17.55,17.55,0,0,0-1.59-4.31,31.42,31.42,0,0,0,3.25-8.18A50.19,50.19,0,0,1,220.88,356Z"/><path class="cls-3" d="M189.78,246.5c6.71,8.79,11.77,16.89,9.79,19.18L188,279a7,7,0,0,0,6.75.6s2.95-1.88,7-4.66c2.52-13.68,7.56-25.8,14.32-35.14C209.67,240.33,198.07,243.79,189.78,246.5Z"/><path class="cls-2" d="M216.14,239.82c-6.77,9.35-11.8,21.46-14.32,35.14A110.53,110.53,0,0,0,200,295a106.52,106.52,0,0,0,4.91,32.38c3.66,11.42,9.17,21.25,16,28.58a186.34,186.34,0,0,1-1.17-21q0-2,0-4.06C220.58,291.41,233.36,260,249,260c0.34,0,.67,0,1,0.06V220C236.94,220,225,227.52,216.14,239.82Z"/><path class="cls-4" d="M249,260c-15.64,0-28.42,31.41-29.24,70.94q0,2,0,4.06a186.34,186.34,0,0,0,1.17,21,50.19,50.19,0,0,0,8.6,7.44A36.35,36.35,0,0,0,250,370V260.06C249.67,260,249.34,260,249,260Z"/><path class="cls-5" d="M229.08,171.91a2.06,2.06,0,0,0,.92.26C231.05,172.22,230.44,172.1,229.08,171.91Z"/><path class="cls-6" d="M248,93.1c-2.23-9.07-10.12-21.44-10.12-21.44-4.25,3.54-5.74,20.59-6.25,30.27,3.3,5.51,7.37,16,10.61,25.08C242.64,115,244,100.74,248,93.1Z"/><path class="cls-7" d="M248,93.1C244,100.74,242.64,115,242.2,127q0.56,1.56,1.08,3.05c1.3,3.74,2.42,7.08,3.21,9.49,2.07-5.2,3.52-8.56,3.52-8.56V90A14.86,14.86,0,0,0,248,93.1Z"/><path class="cls-8" d="M224,136.94s0,0.08,0,.13a117.87,117.87,0,0,1,3.24-25.73C225,107,219.22,95.81,214.33,90c0,0-3.19,16.37-2.56,28.21C216.95,122.23,221,129.4,224,136.94Z"/><path class="cls-9" d="M228.53,166A85.05,85.05,0,0,1,224,137.65c0-.18,0-0.36,0-0.53v-0.06s0-.08,0-0.12c-3-7.54-7.07-14.71-12.24-18.72a17.43,17.43,0,0,0-2.94-1.88v0.25a232.57,232.57,0,0,0,.21,28.31c0.16,0.32.32,0.64,0.48,1a111.71,111.71,0,0,1,8.74,25.21l0.48-.4,0.21,0a27.73,27.73,0,0,1,9.6-4.68h0Z"/><path class="cls-10" d="M224,137.12c0,0.18,0,.36,0,0.53h0c0-.2,0-0.4,0-0.59v0.06Z"/><path class="cls-10" d="M229.08,171.91a2.06,2.06,0,0,0,.92.26C231.05,172.22,230.44,172.1,229.08,171.91Z"/><path class="cls-5" d="M229.08,171.91a2.06,2.06,0,0,0,.92.26C231.05,172.22,230.44,172.1,229.08,171.91Z"/><path class="cls-5" d="M229.08,171.91a2.06,2.06,0,0,0,.92.26C231.05,172.22,230.44,172.1,229.08,171.91Z"/><path class="cls-5" d="M238.32,224.29l0.11,0.23Z"/><path class="cls-5" d="M238.23,224.1c-0.31-.65-0.65-1.33-1-2a40.45,40.45,0,0,0-.86-6.08,31.49,31.49,0,0,0-4.47-10.87c-3.26-4.8-8.48-8.8-16.87-9.36a26.28,26.28,0,0,0-1.1,10.81C225.39,201.58,234.15,215.64,238.23,224.1Z"/><path class="cls-5" d="M229.08,171.91a2.06,2.06,0,0,0,.92.26C231.05,172.22,230.44,172.1,229.08,171.91Z"/><path class="cls-11" d="M207.14,211.6a41,41,0,0,1-1.68-10.44h0a12.47,12.47,0,0,1-4-2.35c-3.41,6.25-9,31.35-9,31.35C196.45,230.5,209,217,209,217h0a22.73,22.73,0,0,1-2-5.32S207.11,211.62,207.14,211.6Z"/><path class="cls-4" d="M240.73,230s-0.81-2.3-2.31-5.48l-0.11-.23-0.09-.18c-4.08-8.47-12.84-22.53-24.31-17.54v0a19.74,19.74,0,0,0-5.37,3.69c-0.46.43-.92,0.88-1.39,1.38l0-.08-0.07.08a38.22,38.22,0,0,0,2,5.32c5.11,10.88,15,18.27,26.27,18.3,0,0-.23.09-0.23,0.13A15.64,15.64,0,0,0,250,251V240A10,10,0,0,1,240.73,230Z"/><path class="cls-5" d="M229.08,171.91a2.06,2.06,0,0,0,.92.26C231.05,172.22,230.44,172.1,229.08,171.91Z"/><path class="cls-12" d="M209,144.89a232.57,232.57,0,0,1-.21-28.31c-3.06-4.49-8.19-11.45-13.65-16.33,0,0-1.23,16.59-.42,26.08C200.83,131.31,205.51,138,209,144.89Z"/><path class="cls-12" d="M209.51,145.85c-0.16-.32-0.31-0.64-0.48-1,0.16,0.32.32,0.64,0.48,1h0Z"/><path class="cls-5" d="M229.08,171.91a2.06,2.06,0,0,0,.92.26C231.05,172.22,230.44,172.1,229.08,171.91Z"/><path class="cls-13" d="M191.48,139.36a23.76,23.76,0,0,0-4.64-4s-1.59,13.78.22,23.92a60.34,60.34,0,0,1,7.36,6.11C191.75,156.57,191.26,147,191.48,139.36Z"/><path class="cls-14" d="M208.15,185.31c-6.45-4.22-10.52-10.66-13-17.79-0.25-.71-0.49-1.43-0.71-2.15a60.34,60.34,0,0,0-7.36-6.11,20.09,20.09,0,0,0-8.56-3.76s11.13,33.44,23,43.31a12.47,12.47,0,0,0,4,2.35h0c0-.38,0-0.77,0-1.16s0-.8,0-1.2A40.44,40.44,0,0,1,208.15,185.31Z"/><path class="cls-3" d="M246.48,139.56c-1.08,2.7-2.32,5.9-3.61,9.39-1.83,4.92-3.76,10.4-5.46,15.86,0,0-2,5.87-.14,8.2s-5.8-5-7.27-6.17c-0.82-.67-1.82,1-1.92,2.68a1.94,1.94,0,0,0-.63,1.51,2.36,2.36,0,0,0,.1.69c-1.61-.21-3.61-0.44-5.3-0.64l-3.54-.41-0.48.4a111.71,111.71,0,0,0-8.74-25.21c-0.16-.32-0.31-0.64-0.48-1-3.53-6.85-8.2-13.58-14.28-18.56-0.63-.51-1.26-1-1.91-1.5a106.18,106.18,0,0,0-1.36,14.52c-0.22,7.64.27,17.22,2.94,26,0.22,0.72.46,1.44,0.71,2.15,2.51,7.13,6.57,13.57,13,17.79a40.44,40.44,0,0,0-2.69,13.5c0,0.4,0,.8,0,1.2s0,0.77,0,1.16a41,41,0,0,0,1.68,10.44c0.47-.5.94-1,1.4-1.38a19.49,19.49,0,0,1,5.37-3.65,26.28,26.28,0,0,1,1.1-10.81c8.39,0.56,13.61,4.56,16.87,9.36A31.49,31.49,0,0,1,236.36,216a40.45,40.45,0,0,1,.86,6.08c0.37,0.71.7,1.39,1,2l0.09,0.18,0.11,0.23c1.51,3.18,2.32,5.48,2.32,5.48A10,10,0,0,0,250,240V131S248.55,134.36,246.48,139.56ZM229.69,172v0C229.77,172,229.75,172,229.69,172Z"/><path class="cls-3" d="M238.23,224.1l0.09,0.18Z"/><path class="cls-3" d="M213.92,206.6v0a19.49,19.49,0,0,0-5.37,3.65v0.08A19.74,19.74,0,0,1,213.92,206.6Z"/><path class="cls-3" d="M240.75,230s-0.81-2.3-2.32-5.48c1.5,3.19,2.31,5.48,2.31,5.48A10,10,0,0,0,250,240,10,10,0,0,1,240.75,230Z"/><path class="cls-3" d="M207.14,211.6l0,0.08c0.47-.5.93-0.95,1.39-1.37v-0.08C208.08,210.65,207.61,211.1,207.14,211.6Z"/><path class="cls-15" d="M237.21,222.06a40.45,40.45,0,0,0-.86-6.08,6,6,0,1,1-4.47-10.87c-3.26-4.8-8.48-8.8-16.87-9.36a26.26,26.26,0,0,0-1.1,10.85c0.9,7.3,5.8,15.78,23.35,16.9C237.27,223.5,237.27,223,237.21,222.06Z"/><path class="cls-16" d="M231.89,205.11A6,6,0,1,0,236.36,216,31.49,31.49,0,0,0,231.89,205.11Z"/><path class="cls-17" d="M208,175c3.12-4.53,4.93-12.67,4-18.09,0,0-1.94-11.55-14.59-20.65,0,0-6.44,31.05,9.67,40Z"/><path class="cls-10" d="M242.86,148.94c1.3-3.49,2.54-6.68,3.61-9.39-0.79-2.41-1.9-5.75-3.21-9.49q-0.52-1.49-1.08-3.05c-3.24-9.08-7.31-19.58-10.61-25.08-0.37-.62-0.74-1.2-1.09-1.68a96.5,96.5,0,0,0-3.25,11.08A117.87,117.87,0,0,0,224,137.06s0,0.52.08,1.36L224,138a82.92,82.92,0,0,0,4.51,28h0a27.73,27.73,0,0,0-9.6,4.68l-0.21.16s7.21,0.73,10.36,1.16c-2.15-1.18-.4-6.2.92-5.12,1.47,1.2,9.17,8.48,7.27,6.14s0.14-8.21.14-8.21C239.11,159.35,241,153.86,242.86,148.94Z"/><path class="cls-1" d="M357.86,232.13c2.48-2.92,5.17-6.22,7.86-9.8C379.46,206.55,400,180,400,180c1.16,23.15-23.29,52.25-34.51,64.33a16.23,16.23,0,0,0-3.79-7.81Z"/><path class="cls-1" d="M357.25,231.42l-7.39-8.54a17.56,17.56,0,0,0-1.62-1.63C361.66,206.48,386,175,386,175c0.77,15.4-9.79,33.42-20.24,47.33C362.36,226.19,359.4,229.4,357.25,231.42Z"/><path class="cls-1" d="M357.25,231.42c2.16-2,5.11-5.24,8.47-9.09-2.69,3.58-5.38,6.88-7.86,9.8Z"/><path class="cls-2" d="M310.18,246.5c9.77-12.81,23-27.09,23-27.09,3.84-3.33,10.25-2.41,15,1.85a17.56,17.56,0,0,1,1.62,1.63l7.39,8.54c-1.57,1.48-2.72,2.33-3.29,2.33l0.74,2c1-1.13,2.06-2.34,3.15-3.63l3.81,4.4a16.23,16.23,0,0,1,3.79,7.81c0.61,3.61-.27,7-2.74,9.18,0,0-45.63,31.44-50.51,25.81l-0.26-.3-11.55-13.34C298.41,263.39,303.48,255.3,310.18,246.5Z"/><path class="cls-2" d="M357.25,231.42l0.61,0.71c-1.1,1.29-2.15,2.5-3.15,3.63l-0.74-2C354.52,233.75,355.67,232.9,357.25,231.42Z"/><path class="cls-1" d="M326.78,388.12a17.52,17.52,0,0,0,.42-3.52c11.36,1,25.44,4.56,32.76,15.4l-31.5-4.5s30,7.5,31.5,11c0,0-33.07-1-46.62-4.13C320.19,399.77,325.3,394.72,326.78,388.12Z"/><path class="cls-3" d="M279.08,356c6.8-7.32,12.31-17.16,16-28.58,10.44,2.18,18.41,13.71,18.41,27.62a35.06,35.06,0,0,1-1,8.45c9.08,4.6,14.91,12.76,14.76,21.15a17.52,17.52,0,0,1-.42,3.52c-1.48,6.6-6.59,11.65-13.44,14.25a32.75,32.75,0,0,1-18.7,1.09c-15.09-3.38-25.17-15.73-22.51-27.59a17.55,17.55,0,0,1,1.59-4.31,31.42,31.42,0,0,1-3.25-8.18A50.19,50.19,0,0,0,279.08,356Z"/><path class="cls-3" d="M310.18,246.5c-6.71,8.79-11.77,16.89-9.79,19.18L311.94,279a7,7,0,0,1-6.75.6s-2.95-1.88-7-4.66c-2.52-13.68-7.56-25.8-14.32-35.14C290.29,240.33,301.89,243.79,310.18,246.5Z"/><path class="cls-2" d="M283.84,239.82c6.77,9.35,11.79,21.46,14.31,35.14A110.54,110.54,0,0,1,300,295,106.52,106.52,0,0,1,295,327.38c-3.66,11.42-9.17,21.25-16,28.58a186.35,186.35,0,0,0,1.17-21q0-2,0-4.06C279.38,291.41,266.62,260,251,260a5.92,5.92,0,0,0-1,.06V220C263,220,274.93,227.52,283.84,239.82Z"/><path class="cls-4" d="M251,260c15.64,0,28.41,31.41,29.23,70.94q0,2,0,4.06a186.33,186.33,0,0,1-1.17,21,50.08,50.08,0,0,1-8.58,7.44A37.07,37.07,0,0,1,250,370V260.06A5.92,5.92,0,0,1,251,260Z"/><path class="cls-5" d="M270.88,171.91a2.06,2.06,0,0,1-.92.26C268.91,172.22,269.52,172.1,270.88,171.91Z"/><path class="cls-6" d="M252,93.1c2.23-9.07,10.12-21.44,10.12-21.44,4.25,3.54,5.74,20.59,6.25,30.27-3.3,5.51-7.37,16-10.61,25.08C257.32,115,255.92,100.74,252,93.1Z"/><path class="cls-7" d="M252,93.1c3.91,7.64,5.31,21.86,5.75,33.91q-0.56,1.56-1.08,3.05c-1.3,3.74-2.4,7.08-3.19,9.49-2.07-5.2-3.5-8.56-3.5-8.56V90A8.93,8.93,0,0,1,252,93.1Z"/><path class="cls-8" d="M275.94,136.94s0,0.08,0,.13a117.87,117.87,0,0,0-3.24-25.73c2.21-4.38,8-15.52,12.92-21.33,0,0,3.19,16.37,2.56,28.21C283,122.23,279,129.4,275.94,136.94Z"/><path class="cls-9" d="M271.43,166a85.81,85.81,0,0,0,4.51-28.35c0-.18,0-0.36,0-0.53v-0.06s0-.08,0-0.12c3-7.54,7.07-14.71,12.24-18.72a17.43,17.43,0,0,1,2.94-1.88v0.25a232.57,232.57,0,0,1-.21,28.31c-0.16.32-.32,0.64-0.48,1a111.71,111.71,0,0,0-8.74,25.21l-0.48-.4-0.21,0a28.16,28.16,0,0,0-9.6-4.68h0Z"/><path class="cls-10" d="M275.94,137.12c0,0.18,0,.36,0,0.53h0c0-.2,0-0.4,0-0.59v0.06Z"/><path class="cls-10" d="M270.88,171.91a2.06,2.06,0,0,1-.92.26C268.91,172.22,269.52,172.1,270.88,171.91Z"/><path class="cls-5" d="M270.88,171.91a2.06,2.06,0,0,1-.92.26C268.91,172.22,269.52,172.1,270.88,171.91Z"/><path class="cls-5" d="M270.88,171.91a2.06,2.06,0,0,1-.92.26C268.91,172.22,269.52,172.1,270.88,171.91Z"/><path class="cls-5" d="M261.64,224.29l-0.11.23Z"/><path class="cls-5" d="M261.73,224.1c0.31-.65.65-1.33,1-2a40.45,40.45,0,0,1,.86-6.08,31.49,31.49,0,0,1,4.47-10.87c3.26-4.8,8.48-8.8,16.87-9.36a26.28,26.28,0,0,1,1.1,10.81C274.57,201.58,265.81,215.64,261.73,224.1Z"/><path class="cls-5" d="M270.88,171.91a2.06,2.06,0,0,1-.92.26C268.91,172.22,269.52,172.1,270.88,171.91Z"/><path class="cls-11" d="M292.82,211.6a41,41,0,0,0,1.68-10.44h0a12.47,12.47,0,0,0,4-2.35c3.41,6.25,9,31.35,9,31.35C303.53,230.5,291,217,291,217h0a22.67,22.67,0,0,0,2-5.32S292.85,211.62,292.82,211.6Z"/><path class="cls-4" d="M259.25,230s0.8-2.3,2.3-5.48l0.11-.23,0.08-.18c4.08-8.47,12.84-22.53,24.31-17.54v0a19.74,19.74,0,0,1,5.37,3.69c0.46,0.43.92,0.88,1.39,1.38l0-.08,0.07,0.08a38.22,38.22,0,0,1-2,5.32c-5.11,10.88-15,18.27-26.27,18.3,0,0,.25.09,0.25,0.13A15.62,15.62,0,0,1,250,251V240A10,10,0,0,0,259.25,230Z"/><path class="cls-5" d="M270.88,171.91a2.06,2.06,0,0,1-.92.26C268.91,172.22,269.52,172.1,270.88,171.91Z"/><path class="cls-12" d="M290.93,144.89a232.57,232.57,0,0,0,.21-28.31c3.06-4.49,8.19-11.45,13.65-16.33,0,0,1.23,16.59.42,26.08C299.13,131.31,294.45,138,290.93,144.89Z"/><path class="cls-12" d="M290.45,145.85c0.16-.32.31-0.64,0.48-1-0.16.32-.32,0.64-0.48,1h0Z"/><path class="cls-5" d="M270.88,171.91a2.06,2.06,0,0,1-.92.26C268.91,172.22,269.52,172.1,270.88,171.91Z"/><path class="cls-13" d="M308.48,139.36a23.76,23.76,0,0,1,4.64-4s1.59,13.78-.22,23.92a60.34,60.34,0,0,0-7.36,6.11C308.21,156.57,308.7,147,308.48,139.36Z"/><path class="cls-14" d="M291.81,185.31c6.45-4.22,10.52-10.66,13-17.79,0.25-.71.49-1.43,0.71-2.15a60.34,60.34,0,0,1,7.36-6.11,20.09,20.09,0,0,1,8.56-3.76s-11.13,33.44-23,43.31a12.47,12.47,0,0,1-4,2.35h0c0-.38,0-0.77,0-1.16s0-.8,0-1.2A40.44,40.44,0,0,0,291.81,185.31Z"/><path class="cls-3" d="M250,131V240a10,10,0,0,0,9.23-10s0.8-2.3,2.31-5.48l0.11-.23,0.08-.18c0.31-.65.65-1.33,1-2a40.43,40.43,0,0,1,.86-6.08,31.49,31.49,0,0,1,4.47-10.87c3.26-4.8,8.48-8.8,16.87-9.36a26.28,26.28,0,0,1,1.1,10.81,19.49,19.49,0,0,1,5.37,3.65c0.47,0.43.93,0.88,1.4,1.38a41,41,0,0,0,1.68-10.44c0-.38,0-0.77,0-1.16s0-.8,0-1.2a40.44,40.44,0,0,0-2.69-13.5c6.45-4.22,10.52-10.66,13-17.79,0.25-.71.49-1.43,0.71-2.15,2.67-8.79,3.16-18.37,2.94-26a106.18,106.18,0,0,0-1.36-14.52c-0.66.47-1.29,1-1.91,1.5-6.08,5-10.76,11.71-14.28,18.56-0.16.32-.32,0.64-0.48,1a111.71,111.71,0,0,0-8.74,25.21l-0.48-.4-3.54.41c-1.69.2-3.69,0.44-5.3,0.64a2.36,2.36,0,0,0,.1-0.69,1.94,1.94,0,0,0-.63-1.51c-0.1-1.65-1.09-3.35-1.92-2.68-1.47,1.2-9.17,8.5-7.27,6.17s-0.14-8.2-.14-8.2c-1.71-5.46-3.63-10.94-5.46-15.86-1.3-3.49-2.52-6.68-3.59-9.39C251.43,134.36,250,131,250,131Zm20.26,41v0C270.21,172,270.19,172,270.26,172Z"/><path class="cls-3" d="M261.73,224.1l-0.09.18Z"/><path class="cls-3" d="M286,206.6v0a19.49,19.49,0,0,1,5.37,3.65v0.08A19.74,19.74,0,0,0,286,206.6Z"/><path class="cls-3" d="M259.21,230s0.81-2.3,2.32-5.48c-1.5,3.19-2.31,5.48-2.31,5.48A10,10,0,0,1,250,240,10,10,0,0,0,259.21,230Z"/><path class="cls-3" d="M292.82,211.6l0,0.08c-0.47-.5-0.93-0.95-1.39-1.37v-0.08C291.88,210.65,292.35,211.1,292.82,211.6Z"/><path class="cls-15" d="M262.75,222.06a40.45,40.45,0,0,1,.86-6.08,6,6,0,1,0,4.47-10.87c3.26-4.8,8.48-8.8,16.87-9.36A26.26,26.26,0,0,1,286,206.6c-0.9,7.3-5.8,15.78-23.35,16.9C262.69,223.5,262.69,223,262.75,222.06Z"/><path class="cls-16" d="M268.07,205.11A6,6,0,1,1,263.6,216,31.49,31.49,0,0,1,268.07,205.11Z"/><path class="cls-17" d="M292,175c-3.12-4.53-4.93-12.67-4-18.09,0,0,1.94-11.55,14.59-20.65,0,0,6.44,31.05-9.67,40Z"/><path class="cls-10" d="M257.1,148.94c-1.3-3.49-2.54-6.68-3.61-9.39,0.79-2.41,1.9-5.75,3.21-9.49q0.52-1.49,1.08-3.05c3.24-9.08,7.31-19.58,10.61-25.08,0.37-.62.74-1.2,1.09-1.68a96.5,96.5,0,0,1,3.25,11.08,117.87,117.87,0,0,1,3.24,25.73s0,0.52-.08,1.36l0.08-.42a83.67,83.67,0,0,1-4.51,28h0a28.16,28.16,0,0,1,9.6,4.68l0.21,0.16s-7.21.73-10.36,1.16c2.15-1.18.4-6.2-.92-5.12-1.47,1.2-9.17,8.48-7.27,6.14s-0.14-8.21-.14-8.21C260.85,159.35,258.92,153.86,257.1,148.94Z"/><path class="cls-18" d="M400,180s-20.5,26.55-34.24,42.33c10.46-13.91,21-31.93,20.24-47.33,0,0-24.3,31.48-37.73,46.25-4.79-4.26-11.2-5.17-15-1.85,0,0-13.24,14.29-23,27.09-8.29-2.71-19.87-6.17-26.35-6.68h0a59.41,59.41,0,0,0-6.72-7.8,32.78,32.78,0,0,0,13.75-15,38.22,38.22,0,0,0,2-5.32l-0.07-.08s0.11,0,.14.08a22.67,22.67,0,0,1-2,5.32h0s12.53,13.5,16.53,13.17c0,0-5.64-25.11-9-31.35,11.85-9.88,23-43.31,23-43.31a20.09,20.09,0,0,0-8.56,3.76c1.81-10.15.22-23.92,0.22-23.92a23.76,23.76,0,0,0-4.64,4,106.18,106.18,0,0,0-1.36-14.52c-0.66.47-1.29,1-1.91,1.5,0.81-9.49-.42-26.08-0.42-26.08-5.46,4.88-10.6,11.84-13.65,16.33v-0.25a17.43,17.43,0,0,0-2.94,1.88c0.63-11.84-2.56-28.21-2.56-28.21-4.89,5.81-10.71,17-12.92,21.33a96.5,96.5,0,0,0-3.25-11.08c-0.35.48-.72,1.06-1.09,1.68-0.51-9.67-2-26.73-6.25-30.27,0,0-7.87,12.34-10.11,21.41A8.84,8.84,0,0,0,250,90V240h0V370a37.06,37.06,0,0,0,20.48-6.6,31.41,31.41,0,0,0,3.24,8.16,17.55,17.55,0,0,0-1.59,4.31c-2.66,11.86,7.42,24.21,22.51,27.59a32.75,32.75,0,0,0,18.7-1.09c13.55,3.09,46.62,4.13,46.62,4.13-1.5-3.5-31.5-11-31.5-11L360,400c-7.32-10.85-21.4-14.41-32.76-15.4,0.15-8.38-5.68-16.54-14.76-21.15a35.06,35.06,0,0,0,1-8.45c0-13.91-8-25.44-18.41-27.62h0A106.52,106.52,0,0,0,300,295a110.55,110.55,0,0,0-1.81-20c4.09,2.77,7,4.65,7,4.65a7,7,0,0,0,6.75-.6l0.26,0.3c4.87,5.63,50.51-25.81,50.51-25.81,2.47-2.14,3.36-5.58,2.74-9.18C376.67,232.25,401.12,203.15,400,180Zm-137.27-7a4.7,4.7,0,0,0,.81-2.93,4.72,4.72,0,0,1-.81,3,1.2,1.2,0,0,0-.28.43A0.75,0.75,0,0,1,262.69,173ZM290,209a17.88,17.88,0,0,0-4-2.47h0A17.88,17.88,0,0,1,290,209Zm-4-2.47v0h0Zm-1.1-10.81h0s0.11,0.31.27,0.88C285.06,196.06,284.94,195.75,284.94,195.75Zm-22.2,26.33h0l-0.18.34h0l0,0Zm30.06-10.41h0l0-.08h0Zm-16.87-74c0,0.12,0,.25,0,0.38l-0.07.39c0.06-.84.08-1.33,0.08-1.36,0,0.19,0,.39,0,0.59h0Zm-22.45,1.87h0c-1.94-4.86-3.31-8.1-3.47-8.49C250.18,131.43,251.56,134.67,253.49,139.53ZM251,260h0a11.84,11.84,0,0,1,2.9.36A11.84,11.84,0,0,0,251,260Z"/><path class="cls-2" d="M156.25,465.94V465h5.63v1.88h1.88v1.88h1.88v5.63h-1.87v1.88h-1.87v1.88h-5.62v-1.87h-1.87v-1.87H152.5v-5.62h1.88v-1.87h1.88v-0.94Zm3.75,1.88v-0.94h-3.75v7.5h1.88v1.88h3.75v-7.5H160v-0.94Z"/><path class="cls-2" d="M169.38,465.94V465h9.38v1.88h1.88v3.75h-1.87v1.88h-1.87v1.88h-3.75v1.88h7.5v1.88H167.5v-3.75h1.88V472.5h1.88v-1.87H175v-1.87h1.88v-1.87h-5.62v1.88H167.5v-1.87h1.88v-0.94Z"/><path class="cls-2" d="M184.38,465.94V465h7.5v1.88h1.88v3.75h-1.87v1.88h3.75v3.75h-1.87v1.88h-9.37v-1.87H182.5V472.5h1.88v-1.87H182.5v-3.75h1.88v-0.94Zm3.75,7.5V472.5h-3.75v3.75h7.5v-1.87h-3.75v-0.94Zm3.75-4.69v-1.87h-5.62v1.88h1.88v1.88h3.75v-1.87Z"/><path class="cls-2" d="M214.38,465.94V465h7.5v1.88h1.88v1.88H220v-1.87h-3.75v3.75h7.5v1.88h1.88v3.75h-1.87v1.88h-9.37v-1.87H212.5v-1.87h3.75v1.88h5.63V472.5h-7.5v-1.87H212.5v-3.75h1.88v-0.94Z"/><path class="cls-2" d="M231.25,465.94V465h5.63v1.88h1.88v1.88h1.88v9.38h-3.75v-3.75h-5.62v3.75H227.5v-9.37h1.88v-1.87h1.88v-0.94Zm3.75,1.88v-0.94h-1.87v1.88h-1.87v3.75h5.63v-3.75H235v-0.94Z"/><path class="cls-2" d="M242.5,471.56V465h3.75v1.88h1.88v1.88H250v1.88h1.88V465h3.75v13.13h-3.75v-1.87H250v-1.87h-1.87V472.5h-1.87v5.63H242.5v-6.56Z"/><path class="cls-2" d="M257.5,471.56V465h9.38v1.88h1.88v1.88h1.88v5.63h-1.87v1.88h-1.87v1.88H257.5v-6.56Zm7.5-3.75v-0.94h-3.75v9.38H265v-1.87h1.88v-5.62H265v-0.94Z"/><path class="cls-2" d="M274.38,465.94V465h7.5v1.88h1.88v1.88H280v-1.87h-3.75v3.75h7.5v1.88h1.88v3.75h-1.87v1.88h-9.37v-1.87H272.5v-1.87h3.75v1.88h5.63V472.5h-7.5v-1.87H272.5v-3.75h1.88v-0.94Z"/><path class="cls-2" d="M289.38,471.56V465h3.75v11.25h7.5v1.88H289.38v-6.56Z"/><path class="cls-2" d="M306.25,465.94V465h5.63v1.88h1.88v1.88h1.88v9.38h-3.75v-3.75h-5.62v3.75H302.5v-9.37h1.88v-1.87h1.88v-0.94Zm3.75,1.88v-0.94h-1.87v1.88h-1.87v3.75h5.63v-3.75H310v-0.94Z"/><path class="cls-2" d="M319.38,465.94V465h7.5v1.88h1.88v1.88H325v-1.87h-3.75v3.75h7.5v1.88h1.88v3.75h-1.87v1.88h-9.37v-1.87H317.5v-1.87h3.75v1.88h5.63V472.5h-7.5v-1.87H317.5v-3.75h1.88v-0.94Z"/><path class="cls-2" d="M332.5,471.56V465h3.75v5.63h5.63V465h3.75v13.13h-3.75V472.5h-5.62v5.63H332.5v-6.56Z"/></svg>