<?xml version="1.0" ?><svg id="pkft" viewBox="0 0 500 500" xmlns="http://www.w3.org/2000/svg"><defs><style>.cls-1{fill:#aaaabc;}.cls-2{fill:#bab9c6;}.cls-3{fill:#cbc9d6;}.cls-4{fill:#d3cfe3;}.cls-5{fill:#807198;}.cls-6{fill:#579a9a;}.cls-7{fill:#fff;}.cls-8{fill:#fd4542;}.cls-9{fill:#666;}.cls-10{fill:#1a1a1a;opacity:0.1;}.cls-11{fill:#9e9eb5;}</style></defs><title/><path class="cls-1" d="M214.68,320a12,12,0,0,0,11.48-9.29L229.31,297c-3.19-.84-6.14-1.77-8.73-2.68Z"/><path class="cls-2" d="M228.49,260l-1.65,7.18-6.26,27.19c2.59,0.91,5.54,1.84,8.73,2.68A82.61,82.61,0,0,0,250,300V260H228.49Z"/><path class="cls-3" d="M220.11,242.93l-3-.69a12,12,0,0,0-14.39,9l-16.85,73.2a12,12,0,0,0,9,14.39l3,0.69a12,12,0,0,0,14.39-9L214.68,320l5.9-25.61,6.26-27.19,1.65-7.18,0.62-2.69A12,12,0,0,0,220.11,242.93Z"/><path class="cls-4" d="M245,140l-3.33,20H225a8.36,8.36,0,0,0-7,4.57l-1,2.36-13.4-13.4a21.36,21.36,0,0,0-8.39-4.75l-30.3-7.57A3.72,3.72,0,0,0,160,145a5,5,0,0,0,5,5,5,5,0,0,1,5,5v30a5,5,0,0,0,5,5h31.75l-11.23,25.43a9.44,9.44,0,0,0-.6,4.57H170s14.73,3.77,27.25,5.66l3.7,5.59c-5.49,1.17-13.15,2.76-14.62,2.76-1.63,0,10.54,1.78,18,2.41l12.87,19.42A10.43,10.43,0,0,0,225,260h25V140h-5Z"/><path class="cls-5" d="M196,168c1.31-1.45,4.89-2.1,8.51-2.38-6-4.53-15.72-11.27-23.85-13.62,0,0-16.93,33.27,16,31.94C195.55,179.38,193.79,170.44,196,168Z"/><path class="cls-6" d="M210,170s-2.15-1.85-5.49-4.38c-3.63.28-7.21,0.93-8.51,2.38-2.21,2.45-.45,11.38.64,15.95a61.58,61.58,0,0,0,6.36-.61Z"/><path class="cls-7" d="M224.29,196.9l-4.44-3.7c-2.11-1.76-3.84-1-3.84,1.8v10a5,5,0,0,0,5,5h0.91a13.84,13.84,0,0,1-.74-4.5A12.88,12.88,0,0,1,224.29,196.9Z"/><path class="cls-8" d="M236.16,206.8l-1.69-1.4a4.05,4.05,0,1,1-6.22-5.19l-4-3.3a12.88,12.88,0,0,0-3.12,8.6,13.84,13.84,0,0,0,.74,4.5H235C237.75,210,238.27,208.56,236.16,206.8Z"/><path class="cls-7" d="M231.36,206.87a4,4,0,0,0,3.11-1.48l-6.22-5.19A4,4,0,0,0,231.36,206.87Z"/><path class="cls-9" d="M244,224.84a0.44,0.44,0,0,1-.34,0l-3.46-.91a0.44,0.44,0,1,1,.22-0.86l3.46,0.91A0.44,0.44,0,0,1,244,224.84Z"/><path class="cls-7" d="M250,245h-1.78a2.17,2.17,0,0,1-2-2l-1-9.26L250,230v15Z"/><path class="cls-9" d="M249.68,229.61l-5.45,4.45-3.86-4.39a0.5,0.5,0,0,0-.75.66l4.17,4.75a0.5,0.5,0,0,0,.69.06l5.51-4.49v-1.14A0.5,0.5,0,0,0,249.68,229.61Z"/><path class="cls-1" d="M285.32,320a12,12,0,0,1-11.48-9.29L270.69,297c3.19-.84,6.14-1.77,8.73-2.68Z"/><path class="cls-2" d="M271.51,260l1.65,7.18,6.26,27.19c-2.59.91-5.54,1.84-8.73,2.68A82.61,82.61,0,0,1,250,300V260h21.51Z"/><path class="cls-3" d="M279.89,242.93l3-.69a12,12,0,0,1,14.39,9l16.85,73.2a12,12,0,0,1-9,14.39l-3,.69a12,12,0,0,1-14.39-9L285.32,320l-5.9-25.61-6.26-27.19L271.51,260l-0.62-2.69A12,12,0,0,1,279.89,242.93Z"/><path class="cls-4" d="M255,140l3.33,20H275a8.36,8.36,0,0,1,7,4.57l1,2.36,13.4-13.4a21.36,21.36,0,0,1,8.39-4.75l30.3-7.57A3.72,3.72,0,0,1,340,145a5,5,0,0,1-5,5,5,5,0,0,0-5,5v30a5,5,0,0,1-5,5H293.25l11.23,25.43a9.44,9.44,0,0,1,.6,4.57H330s-14.73,3.77-27.25,5.66l-3.7,5.59c5.49,1.17,13.15,2.76,14.62,2.76,1.63,0-10.54,1.78-18,2.41l-12.87,19.42A10.43,10.43,0,0,1,275,260H250V140h5Z"/><path class="cls-5" d="M304,168c-1.31-1.45-4.89-2.1-8.51-2.38,6-4.53,15.72-11.27,23.85-13.62,0,0,16.93,33.27-16,31.94C304.45,179.38,306.21,170.44,304,168Z"/><path class="cls-6" d="M290,170s2.15-1.85,5.49-4.38c3.63,0.28,7.21.93,8.51,2.38,2.21,2.45.45,11.38-.64,15.95a61.58,61.58,0,0,1-6.36-.61Z"/><path class="cls-7" d="M275.71,196.9l4.44-3.7c2.11-1.76,3.84-1,3.84,1.8v10a5,5,0,0,1-5,5h-0.91a12.26,12.26,0,0,0,.74-4.5A12.88,12.88,0,0,0,275.71,196.9Z"/><path class="cls-8" d="M263.84,206.8l1.69-1.4a4.05,4.05,0,1,0,6.22-5.19l4-3.3a12.88,12.88,0,0,1,3.12,8.6,12.26,12.26,0,0,1-.74,4.5H265C262.25,210,261.73,208.56,263.84,206.8Z"/><path class="cls-7" d="M268.64,206.87a4,4,0,0,1-3.11-1.48l6.22-5.19A4,4,0,0,1,268.64,206.87Z"/><path class="cls-9" d="M256,224.84a0.44,0.44,0,0,0,.34,0l3.46-.91a0.44,0.44,0,1,0-.22-0.86l-3.46.91A0.44,0.44,0,0,0,256,224.84Z"/><path class="cls-7" d="M250,245h1.78a2.17,2.17,0,0,0,2-2l1-9.26L250,230v15Z"/><path class="cls-9" d="M250.32,229.61l5.45,4.45,3.86-4.39a0.5,0.5,0,0,1,.75.66l-4.17,4.75a0.5,0.5,0,0,1-.69.06L250,230.65v-1.14A0.84,0.84,0,0,1,250.32,229.61Z"/><path class="cls-10" d="M335.15,141.21l-30.3,7.57a21.36,21.36,0,0,0-8.39,4.75l-13.4,13.4-1-2.36a8.36,8.36,0,0,0-7-4.57H258.33L255,140h-5V300a82.61,82.61,0,0,0,20.69-3l3.14,13.65A12,12,0,0,0,285.32,320l2.42,10.53a12,12,0,0,0,14.39,9l3-.69a12,12,0,0,0,9-14.39l-16.85-73.2a12,12,0,0,0-6.2-8l4.56-6.88c7.5-.63,19.67-2.41,18-2.41-1.47,0-9.13-1.58-14.62-2.76l3.7-5.59C315.27,223.77,330,220,330,220H305.08a9.44,9.44,0,0,0-.6-4.57L293.25,190H325a5,5,0,0,0,5-5V155a5,5,0,0,1,5-5,5,5,0,0,0,5-5A3.72,3.72,0,0,0,335.15,141.21Z"/><path class="cls-11" d="M156.25,465.94V465h5.63v1.88h1.88v1.88h1.88v5.63h-1.87v1.88h-1.87v1.88h-5.62v-1.87h-1.87v-1.87H152.5v-5.62h1.88v-1.87h1.88v-0.94Zm3.75,1.88v-0.94h-3.75v7.5h1.88v1.88h3.75v-7.5H160v-0.94Z"/><path class="cls-11" d="M169.38,465.94V465h9.38v1.88h1.88v3.75h-1.87v1.88h-1.87v1.88h-3.75v1.88h7.5v1.88H167.5v-3.75h1.88V472.5h1.88v-1.87H175v-1.87h1.88v-1.87h-5.62v1.88H167.5v-1.87h1.88v-0.94Z"/><path class="cls-11" d="M184.38,465.94V465h9.38v1.88h1.88v7.5h-1.87v1.88h-1.87v1.88h-7.5v-1.87H190v-1.87h1.88V472.5h-7.5v-1.87H182.5v-3.75h1.88v-0.94Zm7.5,2.81v-1.87h-5.62v3.75h5.63v-1.87Z"/><path class="cls-11" d="M212.5,471.56V465h3.75v1.88h1.88v1.88H220v1.88h1.88V465h3.75v13.13h-3.75v-1.87H220v-1.87h-1.87V472.5h-1.87v5.63H212.5v-6.56Z"/><path class="cls-11" d="M229.38,465.94V465h11.25v1.88h-3.75v9.38h3.75v1.88H229.38v-1.87h3.75v-9.37h-3.75v-0.94Z"/><path class="cls-11" d="M242.5,471.56V465h9.38v1.88h1.88v1.88h1.88v5.63h-1.87v1.88h-1.87v1.88H242.5v-6.56Zm7.5-3.75v-0.94h-3.75v9.38H250v-1.87h1.88v-5.62H250v-0.94Z"/><path class="cls-11" d="M259.38,465.94V465h9.38v1.88h1.88v9.38h-1.87v1.88h-9.37v-1.87H257.5v-9.37h1.88v-0.94Zm7.5,5.63v-4.69h-5.62v9.38h5.63v-4.69Z"/><path class="cls-11" d="M272.5,471.56V465h11.25v1.88h1.88v5.63h-3.75v1.88h1.88v1.88h1.88v1.88H280v-1.87h-1.87v-1.87h-1.87v3.75H272.5v-6.56Zm9.38-2.81v-1.87h-5.62v5.63H280v-1.87h1.88v-1.87Z"/><path class="cls-11" d="M291.25,465.94V465h5.63v1.88h1.88v1.88h1.88v9.38h-3.75v-3.75h-5.62v3.75H287.5v-9.37h1.88v-1.87h1.88v-0.94Zm3.75,1.88v-0.94h-1.87v1.88h-1.87v3.75h5.63v-3.75H295v-0.94Z"/><path class="cls-11" d="M302.5,471.56V465h3.75v1.88h1.88v1.88H310v1.88h1.88V465h3.75v13.13h-3.75v-1.87H310v-1.87h-1.87V472.5h-1.87v5.63H302.5v-6.56Z"/><path class="cls-11" d="M342,463h-1v-2h-8v2h-2v9h2v1h3v4h-3v2h3v5h2v-5h3v-2h-3v-4h3v-1h2v-9h-1Zm-2,4.31V472h-6v-9h6v4.31Z"/></svg>