<?xml version="1.0" ?><svg id="pkft" viewBox="0 0 500 500" xmlns="http://www.w3.org/2000/svg"><defs><style>.cls-1{fill:#39969a;}.cls-2{fill:#54aaac;}.cls-3{fill:#c04f66;}.cls-4{fill:#d3b2b9;}.cls-5{fill:#c96676;}.cls-6{fill:#f0cad1;}.cls-7{fill:#ebc877;}.cls-8{fill:#826d53;}.cls-9{fill:#685646;}.cls-10{fill:#437241;}.cls-11{fill:#6bb0a8;}.cls-12{fill:#6eb7b5;}.cls-13{fill:#cbacc3;}.cls-14{fill:#fff;}.cls-15{fill:#b04b5a;}.cls-16{fill:#bb5f62;}.cls-17{fill:#538952;}.cls-18{fill:#a85357;}.cls-19{fill:#dc7a86;}.cls-20{fill:#e76f80;}.cls-21{fill:#0e6864;}.cls-22{opacity:0.1;}.cls-23{fill:#4aa09c;}</style></defs><title/><path class="cls-1" d="M169.13,291.34a39.57,39.57,0,0,0-47.95,0c-7,14.38-11.44,35-11.44,57.91s4.41,43.53,11.44,57.91a39.57,39.57,0,0,0,47.95,0c7-14.38,11.44-35,11.44-57.91S176.16,305.72,169.13,291.34Z"/><path class="cls-2" d="M197.65,371L190,394.32a114.16,114.16,0,0,0,11.94,3.62c13.54,3.34,30.08,5.31,48.08,5.31V378Z"/><path class="cls-3" d="M245,90.27v-5A2.21,2.21,0,0,1,247.36,83H250V63.25l-17.07,1.88,1.66,3.57a3.39,3.39,0,0,1-1.68,4.49L226.77,76l16.34,42a21.84,21.84,0,0,1,1.31,5.87c3.36,0.93,5.59,2.9,5.59,5.18V93h-2.64A2.6,2.6,0,0,1,245,90.27Z"/><path class="cls-4" d="M234.65,68.7L233,65.13l-14.87,1.63a9,9,0,0,1,7.28,5.81L226.78,76l6.16-2.77A3.4,3.4,0,0,0,234.65,68.7Z"/><path class="cls-5" d="M225.71,97.14l-4.24-9.06a5,5,0,0,1,2.41-6.65L229,79l-2.52-6.47a9,9,0,0,0-7.28-5.81,9.28,9.28,0,0,0-5.31.9l-7.07,3.48,0.1,0.14a5,5,0,0,1-1.31,6.95l-8.26,5.63a5,5,0,0,1-6.95-1.31l-1.7-2.5-15.45,7.59a8.34,8.34,0,0,0-2.56,1.73L234.27,123h7a16.38,16.38,0,0,1,3.62.52c0.23,0.05.45,0.17,0.67,0.23a22.05,22.05,0,0,0-1.43-5.84l-7.86-20.2-3.89,1.83A5,5,0,0,1,225.71,97.14Z"/><path class="cls-6" d="M223.87,81.44a5,5,0,0,0-2.41,6.65l4.24,9.06a5,5,0,0,0,6.65,2.41l3.89-1.82L229,79Z"/><polygon class="cls-7" points="220 131 250 131 250 103.25 240.12 111.25 230.06 102.75 220 111.25 220 131"/><polygon class="cls-8" points="225.58 136 226.9 136 227.05 135.77 228.46 133 223.97 133 225.42 135.81 225.58 136"/><polygon class="cls-8" points="231.14 205.44 231.24 205.58 231.51 205.79 231.24 205.25 231.14 205.44"/><polygon class="cls-8" points="235.58 136 236.9 136 237.05 135.77 238.46 133 234 133 235.42 135.81 235.58 136"/><polygon class="cls-8" points="238.34 211.03 241.24 213.25 245.45 213.67 241.24 205.25 238.34 211.03"/><polygon class="cls-8" points="224.58 166 225.9 166 226.05 165.89 230.24 157.72 234.42 165.91 234.58 166 235.9 166 236.05 165.89 240.24 157.72 244.42 165.91 244.58 166 245.9 166 245.93 165.94 250 158.06 250 145.38 250.06 145.25 245.18 155.25 240.21 145.25 235.22 155.25 230.23 145.25 225.12 155.25 220 145.25 220 157.97 224.31 165.94 224.58 166"/><polygon class="cls-8" points="244.58 136 245.9 136 246.05 135.81 247.52 133 243 133 244.42 135.81 244.58 136"/><polygon class="cls-8" points="250.06 175.25 245.18 185.25 240.21 175.25 235.22 185.25 230.23 175.25 225.12 185.25 220 175.25 220 187.97 224.31 195.94 224.58 196 225.9 196 226.05 195.89 230.24 187.72 234.42 195.91 234.58 196 235.9 196 236.05 195.89 240.24 187.72 244.42 195.91 244.58 196 245.9 196 245.93 195.94 250 188.06 250 175.38 250.06 175.25"/><polygon class="cls-9" points="245.9 196 244.58 196 244.42 195.94 240.24 187.72 236.05 195.86 235.9 196 234.58 196 234.42 195.94 230.24 187.72 226.05 195.86 225.9 196 224.58 196 224.31 195.94 220 187.97 220 190.25 230.02 205.44 230.18 205.25 230.48 205.79 237.33 211.03 240.23 205.25 244.44 213.67 245.94 213.82 250.06 205.25 250 205.38 250 188.06 245.93 195.94 245.9 196"/><polygon class="cls-9" points="230.24 175.25 235.24 185.25 240.24 175.25 245.24 185.25 250.06 175.25 250 175.38 250 158.06 245.93 165.94 245.9 166 244.58 166 244.42 165.94 240.24 157.72 236.05 165.86 235.9 166 234.58 166 234.42 165.94 230.24 157.72 226.05 165.86 225.9 166 224.58 166 224.31 165.94 220 157.97 220 168.25 220 175.25 225.12 185.25 230.24 175.25"/><polygon class="cls-9" points="230.24 145.25 235.24 155.25 240.24 145.25 245.24 155.25 250.06 145.25 250 145.38 250 133 247.52 133 246.05 135.81 245.9 136 244.58 136 244.42 135.81 243 133 237.46 133 236.05 135.77 235.9 136 234.58 136 234.42 135.81 233 133 227.46 133 226.05 135.77 225.9 136 224.58 136 224.42 135.81 222.97 133 220 133 220 138.25 220 145.25 225.12 155.25 230.24 145.25"/><polygon class="cls-10" points="238.25 206.94 226.55 187.89 206.62 189.63 218.33 208.69 198.4 210.43 186.7 191.38 166.77 193.12 178.48 212.17 158.56 213.91 146.85 194.86 126.93 196.61 138.63 215.66 118.71 217.4 107 198.35 87.08 200.09 98.78 219.15 78.86 220.89 67.16 201.84 47.23 203.58 58.94 222.63 38.76 224.4 39.35 231.12 40.51 244.32 60.68 242.56 52.46 263.35 72.38 261.61 80.6 240.81 100.53 239.07 92.31 259.86 112.23 258.12 120.45 237.32 140.38 235.58 132.16 256.38 152.08 254.63 160.3 233.84 180.22 232.1 172 252.89 191.93 251.15 200.15 230.35 220.07 228.61 211.85 249.41 231.78 247.66 239.99 226.87 248.71 226.1 246.97 206.18 238.25 206.94"/><path class="cls-11" d="M155.45,343.25l-10-17.87-4.19-2.09c0.09,45.57,13.21,86,33.51,111.71a52.51,52.51,0,0,0,13.4,1.75c15.17,0,29.41-6.61,41.74-18.18-8.49-11.36-15.63-25.38-21-41.29C186.5,370.54,167.57,358.49,155.45,343.25Z"/><path class="cls-12" d="M214,227a159.11,159.11,0,0,0-23,6.58,97.14,97.14,0,0,0-53.7-7.66,80.92,80.92,0,0,1,16.53,23.22c0.71,1.49,1.38,3,2,4.55-1.72,1.43-3.33,2.9-4.9,4.41l-0.21.21c-13.26,12.82-21,28.3-21,45l11.51,20,0.08,0,4.19,2.09,10,17.87c12.12,15.24,30.93,27.29,53.42,34a145.71,145.71,0,0,0,41.13,6v-160A179.33,179.33,0,0,0,214,227Z"/><path class="cls-13" d="M223.31,336.13l-3.38-2.88-3.5-2.85,0,0c-0.86-.52-1.72-1-2.64-1.48l-0.14-.09-0.06,0a52.24,52.24,0,0,0-16.6-5h0l-1.51-.18a17.5,17.5,0,0,0-3.22,9.64c0,16.4,25.72,29.73,57.72,30v-20A52.09,52.09,0,0,1,223.31,336.13Z"/><path class="cls-14" d="M198.77,297.13A9.83,9.83,0,1,1,182.39,289L173,284.29a20.32,20.32,0,0,0,36.39,18.12Z"/><path class="cls-15" d="M195.84,295.67a3.89,3.89,0,1,1-6.52-3.25L182.39,289a9.82,9.82,0,1,0,16.38,8.15Z"/><path class="cls-14" d="M188.08,295.25a3.89,3.89,0,0,0,7.75.42l-6.52-3.25A3.88,3.88,0,0,0,188.08,295.25Z"/><path class="cls-16" d="M184.14,237.81a60.2,60.2,0,0,0-36.86-5.88,62.78,62.78,0,0,1,12.62,21.29Z"/><polygon class="cls-17" points="240 285 240 263.25 221 273.5 221 253.25 240 243.25 240 223.25 221 233.25 221 213.25 241.24 204 250 204 250 285 240 285"/><path class="cls-14" d="M170.83,320.76a71.12,71.12,0,0,0,1,7.93l6.39-6.17A42,42,0,0,1,170.83,320.76Z"/><path class="cls-18" d="M192.28,333.23a17.43,17.43,0,0,1,3.16-9.64c-0.65-.07-1.27-0.13-1.93-0.18-1.42-.1-2.84-0.16-4.29-0.16a73.84,73.84,0,0,1-11-.73l-6.39,6.17c3.33,17.88,13,29,22.92,35.86l7-6.13L199,367.2a66,66,0,0,0,5.89,3l7.88-6.75-3,8.59A52.61,52.61,0,0,0,221.24,375H250V363.24C218,363,192.28,349.63,192.28,333.23Z"/><path class="cls-14" d="M204.84,370.23c1.69,0.76,3.31,1.42,4.84,2l3-8.72Z"/><path class="cls-14" d="M194.77,364.55c1.4,1,2.8,1.85,4.19,2.65l2.84-8.79Z"/><path class="cls-19" d="M245.61,125.12c0-.42,0-0.86-0.07-1.31l-0.67-.17Z"/><path class="cls-6" d="M247.36,83A2.21,2.21,0,0,0,245,85.27v5A2.6,2.6,0,0,0,247.36,93H250V83h-2.64Z"/><path class="cls-6" d="M170.07,142.86a5,5,0,0,0-6.84-1.79l-8.63,5.05a5,5,0,0,0-1.79,6.84l8.91,15.22,19-6.65a4.91,4.91,0,0,0-.54-1.42Z"/><path class="cls-6" d="M153.51,111.33l-9.84-1.79a4.8,4.8,0,0,0-5.52,4.12L136.44,123h20.33l1.07-5.76A5.33,5.33,0,0,0,153.51,111.33Z"/><path class="cls-6" d="M98,123H97.24c-5.5,0-6.54,3-2.32,6.53l3,2.49a4.1,4.1,0,0,0,.12-0.6V123Z"/><path class="cls-20" d="M199.16,104.5a5.08,5.08,0,0,1-2.81,2.5l-9.47,3.25a5,5,0,0,1-6.34-3.11L175.39,92l-4.73-2.51L148.87,77.94a9.84,9.84,0,0,0-13.38,4.22l-18.7,36.5a7.72,7.72,0,0,0-.92,4.35h20.57l1.72-9.34a4.84,4.84,0,0,1,5.52-4.18l9.84,1.82a5.34,5.34,0,0,1,4.32,5.93L156.77,123h77.51Z"/><path class="cls-6" d="M197.31,83.86l8.26-5.63a5,5,0,0,0,1.31-6.95l-0.1-.14-18.13,8.91,1.7,2.5A5,5,0,0,0,197.31,83.86Z"/><path class="cls-6" d="M186.88,110.27l9.47-3.22a5,5,0,0,0,2.81-2.43L175.39,92l5.15,15.14A5,5,0,0,0,186.88,110.27Z"/><path class="cls-19" d="M247.24,123H210v6.37c0,1.38-.41,2.63-1.79,2.63h-5c-1.37,0-3.21-1.25-3.21-2.63V123H98v8.42a4.89,4.89,0,0,1-.12.67l41.69,34.77c4.23,3.52,11.92,4.92,17.11,3.1l5-1.76L152.81,153a5,5,0,0,1,1.79-6.84l8.63-5.05a5,5,0,0,1,6.84,1.79l10.11,17.26a4.91,4.91,0,0,1,.54,1.42l67-23.48c0.84-.3,1.32-0.65,2.32-1.05V123.54A14.54,14.54,0,0,0,247.24,123Z"/><path class="cls-6" d="M203.21,132h5c1.38,0,1.79-1.25,1.79-2.63V123H200v6.37C200,130.75,201.84,132,203.21,132Z"/><path class="cls-21" d="M239.81,332.53h0l-5.39-4.86,4.94,2.11A1.65,1.65,0,0,1,239.81,332.53Z"/><path class="cls-1" d="M330.87,291.34a39.57,39.57,0,0,1,47.95,0c7,14.38,11.44,35,11.44,57.91s-4.41,43.53-11.44,57.91a39.57,39.57,0,0,1-47.95,0c-7-14.38-11.44-35-11.44-57.91S323.84,305.72,330.87,291.34Z"/><path class="cls-2" d="M302.35,371L310,394.32a114.16,114.16,0,0,1-11.94,3.62c-13.54,3.34-30.08,5.31-48.08,5.31V378Z"/><path class="cls-3" d="M255,90.27v-5A2.21,2.21,0,0,0,252.64,83H250V63.25l17.07,1.88-1.66,3.57a3.39,3.39,0,0,0,1.68,4.49L273.23,76l-16.34,42a21.84,21.84,0,0,0-1.31,5.87c-3.36.93-5.59,2.9-5.59,5.18V93h2.64A2.6,2.6,0,0,0,255,90.27Z"/><path class="cls-4" d="M265.35,68.7l1.6-3.57,14.87,1.63a9,9,0,0,0-7.28,5.81L273.22,76l-6.16-2.77A3.4,3.4,0,0,1,265.35,68.7Z"/><path class="cls-5" d="M274.29,97.14l4.24-9.06a5,5,0,0,0-2.41-6.65L271,79l2.52-6.47a9,9,0,0,1,7.28-5.81,9.28,9.28,0,0,1,5.31.9l7.07,3.48-0.1.14a5,5,0,0,0,1.31,6.95l8.26,5.63a5,5,0,0,0,6.95-1.31l1.7-2.5,15.45,7.59a8.34,8.34,0,0,1,2.56,1.73L265.73,123h-7a16.38,16.38,0,0,0-3.62.52c-0.23.05-.45,0.17-0.67,0.23a22.05,22.05,0,0,1,1.43-5.84l7.86-20.2,3.89,1.83A5,5,0,0,0,274.29,97.14Z"/><path class="cls-6" d="M276.13,81.44a5,5,0,0,1,2.41,6.65l-4.24,9.06a5,5,0,0,1-6.65,2.41l-3.89-1.82L271,79Z"/><polygon class="cls-7" points="280 131 250 131 250 103.25 259.88 111.25 269.94 102.75 280 111.25 280 131"/><polygon class="cls-8" points="274.42 136 273.1 136 272.95 135.77 271.54 133 276.03 133 274.58 135.81 274.42 136"/><polygon class="cls-8" points="268.86 205.44 268.76 205.58 268.49 205.79 268.76 205.25 268.86 205.44"/><polygon class="cls-8" points="264.42 136 263.1 136 262.95 135.77 261.54 133 266 133 264.58 135.81 264.42 136"/><polygon class="cls-8" points="261.65 211.03 258.76 213.25 254.55 213.67 258.76 205.25 261.65 211.03"/><polygon class="cls-8" points="275.42 166 274.1 166 273.95 165.89 269.76 157.72 265.58 165.91 265.42 166 264.1 166 263.95 165.89 259.76 157.72 255.58 165.91 255.42 166 254.1 166 254.07 165.94 250 158.06 250 145.38 249.94 145.25 254.82 155.25 259.79 145.25 264.78 155.25 269.77 145.25 274.88 155.25 280 145.25 280 157.97 275.69 165.94 275.42 166"/><polygon class="cls-8" points="255.42 136 254.1 136 253.95 135.81 252.48 133 257 133 255.58 135.81 255.42 136"/><polygon class="cls-8" points="249.94 175.25 254.82 185.25 259.79 175.25 264.78 185.25 269.77 175.25 274.88 185.25 280 175.25 280 187.97 275.69 195.94 275.42 196 274.1 196 273.95 195.89 269.76 187.72 265.58 195.91 265.42 196 264.1 196 263.95 195.89 259.76 187.72 255.58 195.91 255.42 196 254.1 196 254.07 195.94 250 188.06 250 175.38 249.94 175.25"/><polygon class="cls-9" points="254.1 196 255.42 196 255.58 195.94 259.76 187.72 263.95 195.86 264.1 196 265.42 196 265.58 195.94 269.76 187.72 273.95 195.86 274.1 196 275.42 196 275.69 195.94 280 187.97 280 190.25 269.98 205.44 269.82 205.25 269.52 205.79 262.67 211.03 259.77 205.25 255.56 213.67 254.06 213.82 249.94 205.25 250 205.38 250 188.06 254.07 195.94 254.1 196"/><polygon class="cls-9" points="269.76 175.25 264.76 185.25 259.76 175.25 254.76 185.25 249.94 175.25 250 175.38 250 158.06 254.07 165.94 254.1 166 255.42 166 255.58 165.94 259.76 157.72 263.95 165.86 264.1 166 265.42 166 265.58 165.94 269.76 157.72 273.95 165.86 274.1 166 275.42 166 275.69 165.94 280 157.97 280 168.25 280 175.25 274.88 185.25 269.76 175.25"/><polygon class="cls-9" points="269.76 145.25 264.76 155.25 259.76 145.25 254.76 155.25 249.94 145.25 250 145.38 250 133 252.48 133 253.95 135.81 254.1 136 255.42 136 255.58 135.81 257 133 262.54 133 263.95 135.77 264.1 136 265.42 136 265.58 135.81 267 133 272.54 133 273.95 135.77 274.1 136 275.42 136 275.58 135.81 277.03 133 280 133 280 138.25 280 145.25 274.88 155.25 269.76 145.25"/><polygon class="cls-10" points="261.75 206.94 273.45 187.89 293.38 189.63 281.67 208.69 301.6 210.43 313.3 191.38 333.23 193.12 321.52 212.17 341.44 213.91 353.15 194.86 373.07 196.61 361.37 215.66 381.29 217.4 393 198.35 412.92 200.09 401.22 219.15 421.14 220.89 432.85 201.84 452.77 203.58 441.06 222.63 461.24 224.4 460.65 231.12 459.49 244.32 439.32 242.56 447.54 263.35 427.62 261.61 419.4 240.81 399.47 239.07 407.69 259.86 387.77 258.12 379.55 237.32 359.63 235.58 367.84 256.38 347.92 254.63 339.7 233.84 319.78 232.1 328 252.89 308.07 251.15 299.85 230.35 279.93 228.61 288.15 249.41 268.23 247.66 260.01 226.87 251.29 226.1 253.03 206.18 261.75 206.94"/><path class="cls-11" d="M344.55,343.25l10-17.87,4.19-2.09c-0.09,45.57-13.21,86-33.51,111.71a52.51,52.51,0,0,1-13.4,1.75c-15.17,0-29.41-6.61-41.74-18.18,8.49-11.36,15.63-25.38,21-41.29C313.5,370.54,332.43,358.49,344.55,343.25Z"/><path class="cls-12" d="M286,227a159.11,159.11,0,0,1,23,6.58,97.14,97.14,0,0,1,53.7-7.66,80.92,80.92,0,0,0-16.53,23.22c-0.71,1.49-1.38,3-2,4.55,1.72,1.43,3.33,2.9,4.9,4.41l0.21,0.21c13.26,12.82,21,28.3,21,45l-11.51,20-0.08,0-4.19,2.09-10,17.87c-12.12,15.24-30.93,27.29-53.42,34a145.71,145.71,0,0,1-41.13,6v-160A179.33,179.33,0,0,1,286,227Z"/><path class="cls-13" d="M276.69,336.13l3.38-2.88,3.5-2.85,0,0c0.86-.52,1.72-1,2.64-1.48l0.14-.09,0.06,0a52.24,52.24,0,0,1,16.6-5h0l1.51-.18a17.5,17.5,0,0,1,3.22,9.64c0,16.4-25.72,29.73-57.72,30v-20A52.09,52.09,0,0,0,276.69,336.13Z"/><path class="cls-14" d="M301.23,297.13A9.83,9.83,0,1,0,317.61,289l9.39-4.68a20.32,20.32,0,0,1-36.39,18.12Z"/><path class="cls-15" d="M304.16,295.67a3.89,3.89,0,1,0,6.52-3.25l6.92-3.45a9.82,9.82,0,1,1-16.38,8.15Z"/><path class="cls-14" d="M311.92,295.25a3.89,3.89,0,0,1-7.75.42l6.52-3.25A3.88,3.88,0,0,1,311.92,295.25Z"/><path class="cls-16" d="M315.86,237.81a60.2,60.2,0,0,1,36.86-5.88,62.78,62.78,0,0,0-12.62,21.29Z"/><polygon class="cls-17" points="260 285 260 263.25 279 273.5 279 253.25 260 243.25 260 223.25 279 233.25 279 213.25 258.76 204 250 204 250 285 260 285"/><path class="cls-14" d="M329.17,320.76a71.12,71.12,0,0,1-1,7.93l-6.39-6.17A42,42,0,0,0,329.17,320.76Z"/><path class="cls-18" d="M307.72,333.23a17.43,17.43,0,0,0-3.16-9.64c0.65-.07,1.27-0.13,1.93-0.18,1.42-.1,2.84-0.16,4.29-0.16a73.84,73.84,0,0,0,11-.73l6.39,6.17c-3.33,17.88-13,29-22.92,35.86l-7-6.13L301,367.2a66,66,0,0,1-5.89,3l-7.88-6.75,3,8.59A52.61,52.61,0,0,1,278.76,375H250V363.24C282,363,307.72,349.63,307.72,333.23Z"/><path class="cls-14" d="M295.16,370.23c-1.69.76-3.31,1.42-4.84,2l-3-8.72Z"/><path class="cls-14" d="M305.23,364.55c-1.4,1-2.8,1.85-4.19,2.65l-2.84-8.79Z"/><path class="cls-19" d="M254.39,125.12c0-.42,0-0.86.07-1.31l0.67-.17Z"/><path class="cls-6" d="M252.64,83A2.21,2.21,0,0,1,255,85.27v5A2.6,2.6,0,0,1,252.64,93H250V83h2.64Z"/><path class="cls-6" d="M329.93,142.86a5,5,0,0,1,6.84-1.79l8.63,5.05a5,5,0,0,1,1.79,6.84l-8.91,15.22-19-6.65a4.91,4.91,0,0,1,.54-1.42Z"/><path class="cls-6" d="M346.49,111.33l9.84-1.79a4.8,4.8,0,0,1,5.52,4.12l1.72,9.34H343.23l-1.07-5.76A5.33,5.33,0,0,1,346.49,111.33Z"/><path class="cls-6" d="M402,123h0.76c5.5,0,6.54,3,2.32,6.53l-3,2.49a4.1,4.1,0,0,1-.12-0.6V123Z"/><path class="cls-20" d="M300.84,104.5a5.08,5.08,0,0,0,2.81,2.5l9.47,3.25a5,5,0,0,0,6.34-3.11L324.61,92l4.73-2.51,21.79-11.56a9.84,9.84,0,0,1,13.38,4.22l18.7,36.5a7.72,7.72,0,0,1,.92,4.35H363.56l-1.72-9.34a4.84,4.84,0,0,0-5.52-4.18l-9.84,1.82a5.34,5.34,0,0,0-4.32,5.93l1.07,5.77H265.73Z"/><path class="cls-6" d="M302.69,83.86l-8.26-5.63a5,5,0,0,1-1.31-6.95l0.1-.14,18.13,8.91-1.7,2.5A5,5,0,0,1,302.69,83.86Z"/><path class="cls-6" d="M313.12,110.27l-9.47-3.22a5,5,0,0,1-2.81-2.43L324.61,92l-5.15,15.14A5,5,0,0,1,313.12,110.27Z"/><path class="cls-19" d="M252.76,123H290v6.37c0,1.38.41,2.63,1.79,2.63h5c1.38,0,3.21-1.25,3.21-2.63V123H402v8.42a4.89,4.89,0,0,0,.12.67l-41.69,34.77c-4.23,3.52-11.92,4.92-17.11,3.1l-5-1.76L347.19,153a5,5,0,0,0-1.79-6.84l-8.63-5.05a5,5,0,0,0-6.84,1.79l-10.11,17.26a4.91,4.91,0,0,0-.54,1.42l-67-23.48c-0.84-.3-2.32-0.65-2.32-1.05V123.54A6.63,6.63,0,0,1,252.76,123Z"/><path class="cls-6" d="M296.79,132h-5c-1.37,0-1.79-1.25-1.79-2.63V123h10v6.37C300,130.75,298.16,132,296.79,132Z"/><path class="cls-21" d="M260.19,332.53h0l5.39-4.86-4.94,2.11A1.65,1.65,0,0,0,260.19,332.53Z"/><g class="cls-22"><path d="M330.87,291.34a39.57,39.57,0,0,1,47.95,0c7,14.38,11.44,35,11.44,57.91s-4.41,43.53-11.44,57.91a39.57,39.57,0,0,1-47.95,0c-7-14.38-11.44-35-11.44-57.91S323.84,305.72,330.87,291.34Z"/><path d="M302.35,371L310,394.32a114.16,114.16,0,0,1-11.94,3.62c-13.54,3.34-30.08,5.31-48.08,5.31V378Z"/><path d="M255,90.27v-5A2.21,2.21,0,0,0,252.64,83H250V63.25l17.07,1.88-1.66,3.57a3.39,3.39,0,0,0,1.68,4.49L273.23,76l-16.34,42a21.84,21.84,0,0,0-1.31,5.87c-3.36.93-5.59,2.9-5.59,5.18V93h2.64A2.6,2.6,0,0,0,255,90.27Z"/><path d="M265.35,68.7l1.6-3.57,14.87,1.63a9,9,0,0,0-7.28,5.81L273.22,76l-6.16-2.77A3.4,3.4,0,0,1,265.35,68.7Z"/><path d="M274.29,97.14l4.24-9.06a5,5,0,0,0-2.41-6.65L271,79l2.52-6.47a9,9,0,0,1,7.28-5.81,9.28,9.28,0,0,1,5.31.9l7.07,3.48-0.1.14a5,5,0,0,0,1.31,6.95l8.26,5.63a5,5,0,0,0,6.95-1.31l1.7-2.5,15.45,7.59a8.34,8.34,0,0,1,2.56,1.73L265.73,123h-7a16.38,16.38,0,0,0-3.62.52c-0.23.05-.45,0.17-0.67,0.23a22.05,22.05,0,0,1,1.43-5.84l7.86-20.2,3.89,1.83A5,5,0,0,0,274.29,97.14Z"/><path d="M276.13,81.44a5,5,0,0,1,2.41,6.65l-4.24,9.06a5,5,0,0,1-6.65,2.41l-3.89-1.82L271,79Z"/><polygon points="280 131 250 131 250 103.25 259.88 111.25 269.94 102.75 280 111.25 280 131"/><polygon points="274.42 136 273.1 136 272.95 135.77 271.54 133 276.03 133 274.58 135.81 274.42 136"/><polygon points="268.86 205.44 268.76 205.58 268.49 205.79 268.76 205.25 268.86 205.44"/><polygon points="264.42 136 263.1 136 262.95 135.77 261.54 133 266 133 264.58 135.81 264.42 136"/><polygon points="261.65 211.03 258.76 213.25 254.55 213.67 258.76 205.25 261.65 211.03"/><polygon points="275.42 166 274.1 166 273.95 165.89 269.76 157.72 265.58 165.91 265.42 166 264.1 166 263.95 165.89 259.76 157.72 255.58 165.91 255.42 166 254.1 166 254.07 165.94 250 158.06 250 145.38 249.94 145.25 254.82 155.25 259.79 145.25 264.78 155.25 269.77 145.25 274.88 155.25 280 145.25 280 157.97 275.69 165.94 275.42 166"/><polygon points="255.42 136 254.1 136 253.95 135.81 252.48 133 257 133 255.58 135.81 255.42 136"/><polygon points="249.94 175.25 254.82 185.25 259.79 175.25 264.78 185.25 269.77 175.25 274.88 185.25 280 175.25 280 187.97 275.69 195.94 275.42 196 274.1 196 273.95 195.89 269.76 187.72 265.58 195.91 265.42 196 264.1 196 263.95 195.89 259.76 187.72 255.58 195.91 255.42 196 254.1 196 254.07 195.94 250 188.06 250 175.38 249.94 175.25"/><polygon points="254.1 196 255.42 196 255.58 195.94 259.76 187.72 263.95 195.86 264.1 196 265.42 196 265.58 195.94 269.76 187.72 273.95 195.86 274.1 196 275.42 196 275.69 195.94 280 187.97 280 190.25 269.98 205.44 269.82 205.25 269.52 205.79 262.67 211.03 259.77 205.25 255.56 213.67 254.06 213.82 249.94 205.25 250 205.38 250 188.06 254.07 195.94 254.1 196"/><polygon points="269.76 175.25 264.76 185.25 259.76 175.25 254.76 185.25 249.94 175.25 250 175.38 250 158.06 254.07 165.94 254.1 166 255.42 166 255.58 165.94 259.76 157.72 263.95 165.86 264.1 166 265.42 166 265.58 165.94 269.76 157.72 273.95 165.86 274.1 166 275.42 166 275.69 165.94 280 157.97 280 168.25 280 175.25 274.88 185.25 269.76 175.25"/><polygon points="269.76 145.25 264.76 155.25 259.76 145.25 254.76 155.25 249.94 145.25 250 145.38 250 133 252.48 133 253.95 135.81 254.1 136 255.42 136 255.58 135.81 257 133 262.54 133 263.95 135.77 264.1 136 265.42 136 265.58 135.81 267 133 272.54 133 273.95 135.77 274.1 136 275.42 136 275.58 135.81 277.03 133 280 133 280 138.25 280 145.25 274.88 155.25 269.76 145.25"/><polygon points="261.75 206.94 273.45 187.89 293.38 189.63 281.67 208.69 301.6 210.43 313.3 191.38 333.23 193.12 321.52 212.17 341.44 213.91 353.15 194.86 373.07 196.61 361.37 215.66 381.29 217.4 393 198.35 412.92 200.09 401.22 219.15 421.14 220.89 432.85 201.84 452.77 203.58 441.06 222.63 461.24 224.4 460.65 231.12 459.49 244.32 439.32 242.56 447.54 263.35 427.62 261.61 419.4 240.81 399.47 239.07 407.69 259.86 387.77 258.12 379.55 237.32 359.63 235.58 367.84 256.38 347.92 254.63 339.7 233.84 319.78 232.1 328 252.89 308.07 251.15 299.85 230.35 279.93 228.61 288.15 249.41 268.23 247.66 260.01 226.87 251.29 226.1 253.03 206.18 261.75 206.94"/><path d="M344.55,343.25l10-17.87,4.19-2.09c-0.09,45.57-13.21,86-33.51,111.71a52.51,52.51,0,0,1-13.4,1.75c-15.17,0-29.41-6.61-41.74-18.18,8.49-11.36,15.63-25.38,21-41.29C313.5,370.54,332.43,358.49,344.55,343.25Z"/><path d="M286,227a159.11,159.11,0,0,1,23,6.58,97.14,97.14,0,0,1,53.7-7.66,80.92,80.92,0,0,0-16.53,23.22c-0.71,1.49-1.38,3-2,4.55,1.72,1.43,3.33,2.9,4.9,4.41l0.21,0.21c13.26,12.82,21,28.3,21,45l-11.51,20-0.08,0-4.19,2.09-10,17.87c-12.12,15.24-30.93,27.29-53.42,34a145.71,145.71,0,0,1-41.13,6v-160A179.33,179.33,0,0,1,286,227Z"/><path d="M276.69,336.13l3.38-2.88,3.5-2.85,0,0c0.86-.52,1.72-1,2.64-1.48l0.14-.09,0.06,0a52.24,52.24,0,0,1,16.6-5h0l1.51-.18a17.5,17.5,0,0,1,3.22,9.64c0,16.4-25.72,29.73-57.72,30v-20A52.09,52.09,0,0,0,276.69,336.13Z"/><path d="M301.23,297.13A9.83,9.83,0,1,0,317.61,289l9.39-4.68a20.32,20.32,0,0,1-36.39,18.12Z"/><path d="M304.16,295.67a3.89,3.89,0,1,0,6.52-3.25l6.92-3.45a9.82,9.82,0,1,1-16.38,8.15Z"/><path d="M311.92,295.25a3.89,3.89,0,0,1-7.75.42l6.52-3.25A3.88,3.88,0,0,1,311.92,295.25Z"/><path d="M315.86,237.81a60.2,60.2,0,0,1,36.86-5.88,62.78,62.78,0,0,0-12.62,21.29Z"/><polygon points="260 285 260 263.25 279 273.5 279 253.25 260 243.25 260 223.25 279 233.25 279 213.25 258.76 204 250 204 250 285 260 285"/><path d="M329.17,320.76a71.12,71.12,0,0,1-1,7.93l-6.39-6.17A42,42,0,0,0,329.17,320.76Z"/><path d="M307.72,333.23a17.43,17.43,0,0,0-3.16-9.64c0.65-.07,1.27-0.13,1.93-0.18,1.42-.1,2.84-0.16,4.29-0.16a73.84,73.84,0,0,0,11-.73l6.39,6.17c-3.33,17.88-13,29-22.92,35.86l-7-6.13L301,367.2a66,66,0,0,1-5.89,3l-7.88-6.75,3,8.59A52.61,52.61,0,0,1,278.76,375H250V363.24C282,363,307.72,349.63,307.72,333.23Z"/><path d="M295.16,370.23c-1.69.76-3.31,1.42-4.84,2l-3-8.72Z"/><path d="M305.23,364.55c-1.4,1-2.8,1.85-4.19,2.65l-2.84-8.79Z"/><path d="M254.39,125.12c0-.42,0-0.86.07-1.31l0.67-.17Z"/><path d="M252.64,83A2.21,2.21,0,0,1,255,85.27v5A2.6,2.6,0,0,1,252.64,93H250V83h2.64Z"/><path d="M329.93,142.86a5,5,0,0,1,6.84-1.79l8.63,5.05a5,5,0,0,1,1.79,6.84l-8.91,15.22-19-6.65a4.91,4.91,0,0,1,.54-1.42Z"/><path d="M346.49,111.33l9.84-1.79a4.8,4.8,0,0,1,5.52,4.12l1.72,9.34H343.23l-1.07-5.76A5.33,5.33,0,0,1,346.49,111.33Z"/><path d="M402,123h0.76c5.5,0,6.54,3,2.32,6.53l-3,2.49a4.1,4.1,0,0,1-.12-0.6V123Z"/><path d="M300.84,104.5a5.08,5.08,0,0,0,2.81,2.5l9.47,3.25a5,5,0,0,0,6.34-3.11L324.61,92l4.73-2.51,21.79-11.56a9.84,9.84,0,0,1,13.38,4.22l18.7,36.5a7.72,7.72,0,0,1,.92,4.35H363.56l-1.72-9.34a4.84,4.84,0,0,0-5.52-4.18l-9.84,1.82a5.34,5.34,0,0,0-4.32,5.93l1.07,5.77H265.73Z"/><path d="M302.69,83.86l-8.26-5.63a5,5,0,0,1-1.31-6.95l0.1-.14,18.13,8.91-1.7,2.5A5,5,0,0,1,302.69,83.86Z"/><path d="M313.12,110.27l-9.47-3.22a5,5,0,0,1-2.81-2.43L324.61,92l-5.15,15.14A5,5,0,0,1,313.12,110.27Z"/><path d="M252.76,123H290v6.37c0,1.38.41,2.63,1.79,2.63h5c1.38,0,3.21-1.25,3.21-2.63V123H402v8.42a4.89,4.89,0,0,0,.12.67l-41.69,34.77c-4.23,3.52-11.92,4.92-17.11,3.1l-5-1.76L347.19,153a5,5,0,0,0-1.79-6.84l-8.63-5.05a5,5,0,0,0-6.84,1.79l-10.11,17.26a4.91,4.91,0,0,0-.54,1.42l-67-23.48c-0.84-.3-2.32-0.65-2.32-1.05V123.54A6.63,6.63,0,0,1,252.76,123Z"/><path d="M296.79,132h-5c-1.37,0-1.79-1.25-1.79-2.63V123h10v6.37C300,130.75,298.16,132,296.79,132Z"/><path d="M260.19,332.53h0l5.39-4.86-4.94,2.11A1.65,1.65,0,0,0,260.19,332.53Z"/></g><path class="cls-23" d="M163.75,465.94V465h5.63v1.88h1.88v1.88h1.88v5.63h-1.87v1.88h-1.87v1.88h-5.62v-1.87h-1.87v-1.87H160v-5.62h1.88v-1.87h1.88v-0.94Zm3.75,1.88v-0.94h-3.75v7.5h1.88v1.88h3.75v-7.5H167.5v-0.94Z"/><path class="cls-23" d="M178.75,465.94V465h5.63v1.88h1.88v1.88h1.88v5.63h-1.87v1.88h-1.87v1.88h-5.62v-1.87h-1.87v-1.87H175v-5.62h1.88v-1.87h1.88v-0.94Zm3.75,1.88v-0.94h-3.75v7.5h1.88v1.88h3.75v-7.5H182.5v-0.94Z"/><path class="cls-23" d="M191.88,465.94V465h11.25v1.88h-1.87v1.88h-1.87v1.88h1.88v1.88h1.88v3.75h-1.87v1.88h-9.37v-1.87H190v-1.87h3.75v1.88h5.63V472.5h-5.62v-1.87h1.88v-1.87h1.88v-1.87h-5.62v-0.94Z"/><path class="cls-23" d="M220,468.75V465h3.75v5.63h1.88v1.88h1.88v-1.87h1.88V465h3.75v7.5h-1.87v1.88h-1.87v1.88H227.5v1.88h-1.87v-1.87h-1.87v-1.87h-1.87V472.5H220v-3.75Z"/><path class="cls-23" d="M235,471.56V465h13.13v1.88h-9.37v3.75h7.5v1.88h-7.5v3.75h9.38v1.88H235v-6.56Z"/><path class="cls-23" d="M250,471.56V465h3.75v1.88h1.88v1.88h1.88v1.88h1.88V465h3.75v13.13h-3.75v-1.87H257.5v-1.87h-1.87V472.5h-1.87v5.63H250v-6.56Z"/><path class="cls-23" d="M265,470.63V465h3.75v11.25h5.63V465h3.75v11.25h-1.87v1.88h-9.37v-1.87H265v-5.62Z"/><path class="cls-23" d="M281.88,465.94V465h7.5v1.88h1.88v1.88H287.5v-1.87h-3.75v3.75h7.5v1.88h1.88v3.75h-1.87v1.88h-9.37v-1.87H280v-1.87h3.75v1.88h5.63V472.5h-7.5v-1.87H280v-3.75h1.88v-0.94Z"/><path class="cls-23" d="M298.75,465.94V465h5.63v1.88h1.88v1.88h1.88v9.38h-3.75v-3.75h-5.62v3.75H295v-9.37h1.88v-1.87h1.88v-0.94Zm3.75,1.88v-0.94h-1.87v1.88h-1.87v3.75h5.63v-3.75H302.5v-0.94Z"/><path class="cls-23" d="M310,470.63V465h3.75v11.25h5.63V465h3.75v11.25h-1.87v1.88h-9.37v-1.87H310v-5.62Z"/><path class="cls-23" d="M325,471.56V465h11.25v1.88h1.88v5.63h-3.75v1.88h1.88v1.88h1.88v1.88H332.5v-1.87h-1.87v-1.87h-1.87v3.75H325v-6.56Zm9.38-2.81v-1.87h-5.62v5.63h3.75v-1.87h1.88v-1.87Z"/></svg>