<?xml version="1.0" ?><svg id="pkft" viewBox="0 0 500 500" xmlns="http://www.w3.org/2000/svg"><defs><style>.cls-1{fill:#a3ced3;}.cls-2{fill:#ddf0ea;}.cls-3{fill:#fff;}.cls-4{fill:#7b2c49;}.cls-5{fill:#1a1a1a;}.cls-6{fill:none;stroke:#35383d;stroke-linecap:round;stroke-linejoin:round;stroke-width:2px;}.cls-7{fill:#6b6172;}.cls-8{fill:#57b1a5;}.cls-9{fill:#95c6c6;}.cls-10{opacity:0.1;}</style></defs><title/><path class="cls-1" d="M211.66,376.88c-0.3-.36-0.6-0.69-0.9-1,7.36-10,9.46-22.27,4.57-28.23-5.16-6.29-16.12-3.12-24.49,7.08a38.63,38.63,0,0,0-7.61,14.82l5,4.37a6.69,6.69,0,0,1,1.46,7.72L186.36,388A39.56,39.56,0,0,0,193,399.64c8.36,10.19,19.33,13.36,24.49,7.08S220,387.07,211.66,376.88Z"/><path class="cls-2" d="M207.94,363.21C216.5,379.53,232.13,380,250,380V274.67C232.13,274.67,216.5,317.86,207.94,363.21Z"/><path class="cls-1" d="M250,260V120a60,60,0,0,0-60,60c0,12.47-2.51,26.87,4,40,3.25,6.56,13.49,12.8,18,18.31C222.31,251.1,235.56,260,250,260Z"/><path class="cls-3" d="M221.18,177.46l-7-4.68c-2.29-1.53-4.16-.52-4.16,2.23v20a5,5,0,0,0,5,5h5.09A19.42,19.42,0,0,1,221.18,177.46Z"/><path class="cls-4" d="M225.5,192a10.43,10.43,0,0,1,.56-3.33,6.63,6.63,0,0,1-1.55-9l-3.33-2.22a19.42,19.42,0,0,0-1.1,22.54h9.12A10.47,10.47,0,0,1,225.5,192Z"/><path class="cls-5" d="M235.84,187.23l-0.28-.18a6.62,6.62,0,0,1-9.5,1.62A10.4,10.4,0,0,0,229.21,200H235a5,5,0,0,0,5-5A10.47,10.47,0,0,0,235.84,187.23Z"/><path class="cls-3" d="M226.06,188.67a10.52,10.52,0,0,1,4-5.31l-5.52-3.68A6.63,6.63,0,0,0,226.06,188.67Z"/><path class="cls-3" d="M226.06,188.67a6.62,6.62,0,0,0,9.5-1.62L230,183.36A10.52,10.52,0,0,0,226.06,188.67Z"/><line class="cls-6" x1="237.5" x2="242" y1="248.9" y2="250.4"/><rect class="cls-1" height="57.95" rx="10" ry="10" transform="translate(249.18 -60.63) rotate(45)" width="27.91" x="183.82" y="241.5"/><path class="cls-1" d="M218.5,140l-68.83-28.22c-2.57-1-4.67.47-4.67,3.22h0a8.88,8.88,0,0,0,4.47,7.24l6.06,5.53c2.46,1.23,2.29,1.69-.38,1l-25.3-7.57A3.72,3.72,0,0,0,125,125h0a6.75,6.75,0,0,0,4.85,6.21l25.3,7.57c2.67,0.67,2.6,1.21-.15,1.21H120a5,5,0,0,0-5,5h0a5,5,0,0,0,5,5h35a5,5,0,0,1,5,5v20a3.68,3.68,0,0,0,4.84,3.74l50.75-13.24"/><path class="cls-7" d="M172.22,157.16c0.84-2.23,1.21-18.57,4.18-19.31,1.93-.48,9.32,2.47,14.27,4.61,0.69-2.91,1.41-5.18,2.06-5.72L177.33,130a5.09,5.09,0,0,0-6.93,3s-10,28.9.06,32.61S182,168.53,182,168.53a12.09,12.09,0,0,0,3.79-3.91C180.18,162.37,171.65,158.67,172.22,157.16Z"/><path class="cls-8" d="M190.67,142.46c-5-2.14-12.35-5.09-14.27-4.61-3,.74-3.34,17.08-4.18,19.31-0.57,1.5,8,5.2,13.57,7.45a11.64,11.64,0,0,0,1.77-4.43S189,149.44,190.67,142.46Z"/><path class="cls-9" d="M212,238.31a424.18,424.18,0,0,0-10.31,67.17l1.37-.25a3.73,3.73,0,0,1,4.61,4.09l-1,15.69a3.38,3.38,0,0,1-4.94,3.1l-0.65-.26c0.38,16.4,2.84,27.65,6.88,35.36,8.56-45.35,24.19-88.54,42.06-88.54V260C235.56,260,222.31,251.1,212,238.31Z"/><path class="cls-7" d="M206.65,325l1-15.69a3.73,3.73,0,0,0-4.61-4.09l-1.37.25c-0.42,6.29-.65,12.29-0.65,17.85,0,1.55,0,3,.06,4.51l0.65,0.26A3.38,3.38,0,0,0,206.65,325Z"/><path class="cls-7" d="M188.23,373.88l-5-4.37c-1.5,6-1,11.57,1.81,15,0.11,0.13.24,0.24,0.35,0.36,0.26,1,.59,2.08,1,3.13l3.34-6.42A6.69,6.69,0,0,0,188.23,373.88Z"/><path class="cls-1" d="M287.34,376.88c0.3-.36.6-0.69,0.9-1-7.36-10-9.46-22.27-4.57-28.23,5.16-6.29,16.12-3.12,24.49,7.08a38.63,38.63,0,0,1,7.61,14.82l-5,4.37a6.69,6.69,0,0,0-1.46,7.72l3.34,6.42A39.56,39.56,0,0,1,306,399.64c-8.36,10.19-19.33,13.36-24.49,7.08S279,387.07,287.34,376.88Z"/><path class="cls-2" d="M291.06,363.21C282.5,379.53,266.87,380,249,380V274.67C266.87,274.67,282.5,317.86,291.06,363.21Z"/><path class="cls-1" d="M249,260V120a60.09,60.09,0,0,1,60,60c0,12.47,2.51,26.87-4,40-3.25,6.56-13.49,12.8-18,18.31C276.69,251.1,263,260,249,260Z"/><path class="cls-3" d="M277.82,177.46l7-4.68c2.29-1.53,4.16-.52,4.16,2.23v20a5,5,0,0,1-5,5h-5.09A19.42,19.42,0,0,0,277.82,177.46Z"/><path class="cls-4" d="M273.5,192a10.43,10.43,0,0,0-.56-3.33,6.63,6.63,0,0,0,1.55-9l3.33-2.22a19.42,19.42,0,0,1,1.1,22.54h-9.12A10.59,10.59,0,0,0,273.5,192Z"/><path class="cls-5" d="M263.16,187.23l0.28-.18a6.62,6.62,0,0,0,9.5,1.62,10.43,10.43,0,0,1,.56,3.33,10.59,10.59,0,0,1-3.71,8H264a5,5,0,0,1-5-5A10.47,10.47,0,0,1,263.16,187.23Z"/><path class="cls-3" d="M272.94,188.67a10.52,10.52,0,0,0-4-5.31l5.52-3.68A6.63,6.63,0,0,1,272.94,188.67Z"/><path class="cls-3" d="M272.94,188.67a6.62,6.62,0,0,1-9.5-1.62l5.52-3.68A10.52,10.52,0,0,1,272.94,188.67Z"/><line class="cls-6" x1="261.5" x2="257" y1="248.9" y2="250.4"/><rect class="cls-1" height="57.95" rx="10" ry="10" transform="translate(705.47 248.73) rotate(135)" width="27.91" x="287.26" y="241.5"/><path class="cls-1" d="M280.5,140l68.83-28.22c2.57-1,4.67.47,4.67,3.22h0a8.88,8.88,0,0,1-4.47,7.24l-6.06,5.53c-2.46,1.23-2.29,1.69.38,1l25.3-7.57A3.72,3.72,0,0,1,374,125h0a6.75,6.75,0,0,1-4.85,6.21l-25.3,7.57c-2.67.67-2.6,1.21,0.15,1.21h35a5,5,0,0,1,5,5h0a5,5,0,0,1-5,5H344a5,5,0,0,0-5,5v20a3.68,3.68,0,0,1-4.84,3.74L283.41,165.5"/><path class="cls-7" d="M326.78,157.16c-0.84-2.23-1.21-18.57-4.18-19.31-1.93-.48-9.32,2.47-14.27,4.61-0.69-2.91-1.41-5.18-2.06-5.72L321.67,130a5.09,5.09,0,0,1,6.93,3s10,28.9-.06,32.61S317,168.53,317,168.53a12.09,12.09,0,0,1-3.79-3.91C318.82,162.37,327.35,158.67,326.78,157.16Z"/><path class="cls-8" d="M308.33,142.46c5-2.14,12.35-5.09,14.27-4.61,3,0.74,3.34,17.08,4.18,19.31,0.57,1.5-8,5.2-13.57,7.45a11.64,11.64,0,0,1-1.77-4.43S310,149.44,308.33,142.46Z"/><path class="cls-9" d="M287,238.31a424.18,424.18,0,0,1,10.31,67.17l-1.37-.25a3.73,3.73,0,0,0-4.61,4.09l1,15.69a3.38,3.38,0,0,0,4.94,3.1l0.65-.26c-0.38,16.4-2.84,27.65-6.88,35.36-8.56-45.35-24.19-88.54-42.06-88.54V260C263.44,260,276.69,251.1,287,238.31Z"/><path class="cls-7" d="M292.35,325l-1-15.69a3.73,3.73,0,0,1,4.61-4.09l1.37,0.25c0.42,6.29.65,12.29,0.65,17.85,0,1.55,0,3-.06,4.51l-0.65.26A3.38,3.38,0,0,1,292.35,325Z"/><path class="cls-7" d="M310.77,373.88l5-4.37c1.5,6,1,11.57-1.81,15-0.11.13-.24,0.24-0.35,0.36-0.26,1-.59,2.08-1,3.13l-3.34-6.42A6.69,6.69,0,0,1,310.77,373.88Z"/><g class="cls-10"><path class="cls-5" d="M379,140H344c-2.75,0-2.82-.55-0.15-1.21l25.3-7.57A6.75,6.75,0,0,0,374,125a3.72,3.72,0,0,0-4.85-3.79l-25.3,7.57c-2.67.67-2.84,0.21-.38-1l6.06-5.53A8.88,8.88,0,0,0,354,115c0-2.75-2.1-4.2-4.67-3.21l-59.45,24.37A59.79,59.79,0,0,0,249,120V260c14,0,27.69-8.9,38-21.69,4.47-5.52,14.71-11.76,18-18.31,6.51-13.13,4-27.53,4-40a60.18,60.18,0,0,0-.55-8l25.71,6.71A3.68,3.68,0,0,0,339,175V155a5,5,0,0,1,5-5h35A5,5,0,0,0,379,140Z"/><path class="cls-5" d="M249,260V380c14.36,0,27.27-.31,36.23-8.9a40.44,40.44,0,0,0,3,4.75c-0.3.34-.61,0.67-0.9,1-8.36,10.19-11,23.55-5.81,29.84s16.12,3.12,24.49-7.08A39.56,39.56,0,0,0,312.64,388c0.38-1,.71-2.1,1-3.13,0.12-.12.24-0.23,0.35-0.36,2.83-3.44,3.31-9,1.81-15a38.63,38.63,0,0,0-7.61-14.82,30.37,30.37,0,0,0-11.71-9.12,130.66,130.66,0,0,0,1.49-17.73c0-1.47.06-3,.06-4.51,0-5.56-.23-11.57-0.65-17.85-0.46-6.79-1.15-13.91-2.06-21.2l9.47,9.47a10,10,0,0,0,14.14,0l5.59-5.59a10,10,0,0,0,0-14.14l-26.83-26.83a10,10,0,0,0-9.21-2.68c-0.46-2.08-.93-4.15-1.42-6.2C276.69,251.1,263.44,260,249,260Z"/></g><path class="cls-9" d="M163.75,465.94V465h5.63v1.88h1.88v1.88h1.88v5.63h-1.87v1.88h-1.87v1.88h-5.62v-1.87h-1.87v-1.87H160v-5.62h1.88v-1.87h1.88v-0.94Zm3.75,1.88v-0.94h-3.75v7.5h1.88v1.88h3.75v-7.5H167.5v-0.94Z"/><path class="cls-9" d="M176.88,465.94V465h11.25v1.88h-1.87v1.88h-1.87v1.88h1.88v1.88h1.88v3.75h-1.87v1.88h-9.37v-1.87H175v-1.87h3.75v1.88h5.63V472.5h-5.62v-1.87h1.88v-1.87h1.88v-1.87h-5.62v-0.94Z"/><path class="cls-9" d="M193.75,465.94V465h5.63v1.88h1.88v1.88h1.88v5.63h-1.87v1.88h-1.87v1.88h-5.62v-1.87h-1.87v-1.87H190v-5.62h1.88v-1.87h1.88v-0.94Zm3.75,1.88v-0.94h-3.75v7.5h1.88v1.88h3.75v-7.5H197.5v-0.94Z"/><path class="cls-9" d="M220,471.56V465h3.75v1.88h1.88v1.88h1.88v1.88h1.88V465h3.75v13.13h-3.75v-1.87H227.5v-1.87h-1.87V472.5h-1.87v5.63H220v-6.56Z"/><path class="cls-9" d="M236.88,465.94V465h11.25v1.88h-3.75v9.38h3.75v1.88H236.88v-1.87h3.75v-9.37h-3.75v-0.94Z"/><path class="cls-9" d="M250,471.56V465h9.38v1.88h1.88v1.88h1.88v5.63h-1.87v1.88h-1.87v1.88H250v-6.56Zm7.5-3.75v-0.94h-3.75v9.38h3.75v-1.87h1.88v-5.62H257.5v-0.94Z"/><path class="cls-9" d="M266.88,465.94V465h9.38v1.88h1.88v9.38h-1.87v1.88h-9.37v-1.87H265v-9.37h1.88v-0.94Zm7.5,5.63v-4.69h-5.62v9.38h5.63v-4.69Z"/><path class="cls-9" d="M280,471.56V465h11.25v1.88h1.88v5.63h-3.75v1.88h1.88v1.88h1.88v1.88H287.5v-1.87h-1.87v-1.87h-1.87v3.75H280v-6.56Zm9.38-2.81v-1.87h-5.62v5.63h3.75v-1.87h1.88v-1.87Z"/><path class="cls-9" d="M296.88,465.94V465h11.25v1.88h-3.75v9.38h3.75v1.88H296.88v-1.87h3.75v-9.37h-3.75v-0.94Z"/><path class="cls-9" d="M310,471.56V465h3.75v1.88h1.88v1.88h1.88v1.88h1.88V465h3.75v13.13h-3.75v-1.87H317.5v-1.87h-1.87V472.5h-1.87v5.63H310v-6.56Z"/><path class="cls-9" d="M328.75,465.94V465h5.63v1.88h1.88v1.88h1.88v9.38h-3.75v-3.75h-5.62v3.75H325v-9.37h1.88v-1.87h1.88v-0.94Zm3.75,1.88v-0.94h-1.87v1.88h-1.87v3.75h5.63v-3.75H332.5v-0.94Z"/></svg>