<?xml version="1.0" ?><svg id="pkft" viewBox="0 0 500 500" xmlns="http://www.w3.org/2000/svg"><defs><style>.cls-1{fill:#ebddc1;}.cls-2{fill:#6c8ea8;}.cls-3{fill:#849ebb;}.cls-4{fill:#fff;}.cls-12,.cls-5{fill:#1a1a1a;}.cls-6{fill:#b7977b;}.cls-7{fill:#4e4035;}.cls-8{fill:#6a8da3;}.cls-9{fill:#7999b5;}.cls-10{fill:#dbccb6;}.cls-11{fill:#e2d4ba;}.cls-12{opacity:0.1;}</style></defs><title/><path class="cls-1" d="M228.93,165.77c-3.89-9.29,1.58-8.22-4.47-12.77-11.3-8.49-26.48-7.09-33.88-13.79a81.1,81.1,0,0,0,8.52,17C210.76,174,229,186.83,250,186.83v-8.3C243,178.53,231.9,172.86,228.93,165.77Z"/><path class="cls-2" d="M242.88,44.33l-4,19.41a6,6,0,0,0-.08.85,62.61,62.61,0,0,1,11.16-1V38.13A8.55,8.55,0,0,0,242.88,44.33Z"/><path class="cls-3" d="M238.84,64.6A63.59,63.59,0,0,0,208.45,79l-36.84-21.7c-6.05-3.56-11-3.61-11-.1s5.14,9,11.42,12.1l2.7,1.16C181,73.62,180.4,76,173.38,76H147.84c-7,0-12.84,6.13-12.84,13.15v12.77c0,7,5.18,15.34,11.46,18.48l2.71,1.35c6.28,3.14,16.72,3.46,23.18.71l13.84-5.9c0,1.52.13,3,.27,4.56-0.21,2.09-.31,4.2-0.31,6.34,0,5.66,1.68,9.26,4.43,11.75,7.4,6.7,22.57,5.3,33.88,13.79,6.05,4.55.58,3.48,4.47,12.77,3,7.09,14.07,12.77,21.07,12.77V63.61A62.62,62.62,0,0,0,238.84,64.6Z"/><path class="cls-4" d="M208.36,106.64l-6-3c-1.88-.94-3.38,0-3.38,2.12v17.88c0,2.11,1.64,3.37,3.75,3.37h4.9a27.6,27.6,0,0,1-1.32-9.13A30.93,30.93,0,0,1,208.36,106.64Z"/><path class="cls-5" d="M223.86,115.57c0,0.07-.12.13-0.12,0.2,0,3.63-2,6.58-4.38,6.58s-4.34-2.94-4.34-6.58a8.22,8.22,0,0,1,1.55-5l-8.2-4.1a30.93,30.93,0,0,0-2,11.22,27.61,27.61,0,0,0,1.32,9.13h13c2.11,0,4.38-1.27,4.38-3.37v-5.11A6.68,6.68,0,0,0,223.86,115.57Z"/><path class="cls-4" d="M219.29,122.35c2.38,0,4.31-2.94,4.31-6.58,0-.07,0-0.13,0-0.2A6.44,6.44,0,0,0,221,113l-4.48-2.24a8.22,8.22,0,0,0-1.57,5C215,119.41,216.91,122.35,219.29,122.35Z"/><path class="cls-2" d="M249.14,76c-3.51,0-6.92,3.87-7.57,8.38l-3.17,22.19c-0.65,4.5,1.69,8.43,5.2,8.43H250V76h-0.86Z"/><path class="cls-6" d="M162.61,83.25l-1.16-.08a12.94,12.94,0,0,0-10.12,4.77s-12.43,17.15-1.36,22.8,24.1,1.81,24.1,1.81a10,10,0,0,0,4-2.48C149.59,102.17,157.22,89.13,162.61,83.25Z"/><path class="cls-7" d="M181.27,104.45S183.59,91,186.15,88c2.23-2.67-18.36-4.33-23.54-4.7-5.4,5.88-13,18.92,15.45,26.81A10.8,10.8,0,0,0,181.27,104.45Z"/><path class="cls-8" d="M174.13,243.64a7.69,7.69,0,0,1,.65-4.55c3.85-25.29,9.9-48.32,17.59-67.67a23.17,23.17,0,0,0-34.49,25.53,30.89,30.89,0,0,0-9.8,14.51,32.21,32.21,0,0,0-1.55,8.64L127,268.83c-2.61,6.52,1,12.2,8,12.63,0,0,23.71,1.43,36,.64,0.27-9.08.58-16.61,0.95-20.43C172.57,255.55,173.3,249.54,174.13,243.64Z"/><path class="cls-9" d="M205.46,394.24a92.16,92.16,0,0,1-10.26-1.62,77,77,0,0,0,11,6.22l-0.72-4.56Z"/><path class="cls-10" d="M215.52,371.77c-0.78,0-1.55,0-2.32,0-16.4-.38-31.09-4.74-41.42-11.52,3.51,13.78,12,24.58,23.42,32.4a92.16,92.16,0,0,0,10.26,1.62,98.9,98.9,0,0,0,10.06.52A89.41,89.41,0,0,0,250,388.13v-23A89.38,89.38,0,0,1,215.52,371.77Z"/><path class="cls-11" d="M215.52,350.07c-2.89,0-5.73-.14-8.51-0.38-14.78-1.27-27.8-5.8-36.93-12.34,0,3.74,0,6.68,0,8.46a58.23,58.23,0,0,0,1.76,14.41c10.33,6.78,25,11.14,41.42,11.52,0.77,0,1.54,0,2.32,0A89.38,89.38,0,0,0,250,365.15V343.44A89.39,89.39,0,0,1,215.52,350.07Z"/><path class="cls-9" d="M205.46,394.24l0,0,0.72,4.56c13.1,6.14,28.84,9.22,43.84,9.22V388.13a89.41,89.41,0,0,1-34.48,6.63A98.9,98.9,0,0,1,205.46,394.24Z"/><path class="cls-9" d="M199.1,156.25c-2.36,4.75-4.61,9.82-6.73,15.17-7.69,19.35-13.74,42.39-17.59,67.67a7.54,7.54,0,0,1,1.46-2.13l7-14.7a7.66,7.66,0,0,1,10.05-.64,7.55,7.55,0,0,1,.78.64l14.7,14.7a7.68,7.68,0,0,1,0,10.84l-14.7,14.7a7.68,7.68,0,0,1-10.84,0l-1.41-2.95-5.63-11.76a7.59,7.59,0,0,1-2.11-4.16c-0.83,5.9-1.55,11.91-2.14,18-0.37,3.82-.68,11.36-0.95,20.43-0.46,15.7-.77,36-0.91,49.87,0,1.93,0,3.73-.05,5.38,9.13,6.54,22.15,11.07,36.93,12.34,2.78,0.24,5.62.38,8.51,0.38A89.39,89.39,0,0,0,250,343.44V186.83C229,186.83,210.76,174,199.1,156.25Z"/><path class="cls-11" d="M174.13,243.64c0.21-1.52.42-3,.65-4.55A7.69,7.69,0,0,0,174.13,243.64Z"/><path class="cls-11" d="M219,237l-24.92-17.26a7.55,7.55,0,0,0-.78-0.64,7.66,7.66,0,0,0-10.05.64l-7,17.26a7.54,7.54,0,0,0-1.46,2.13c-0.23,1.51-.44,3-0.65,4.55a7.59,7.59,0,0,0,2.11,4.16l5.63,18.14,1.41,2.95a7.68,7.68,0,0,0,10.84,0L219,247.8A7.68,7.68,0,0,0,219,237Z"/><path class="cls-8" d="M211.69,433.92l-5.53-35.08a77,77,0,0,1-11-6.22c-11.39-7.83-19.92-18.63-23.42-32.4A58.23,58.23,0,0,1,170,345.81c0-1.79,0-4.73,0-8.46,0-1.65,0-3.45.05-5.38a39.08,39.08,0,0,0-21.74,68.25l10.89,33.69s-24.21,23-24.21,25.54,69.59,3.83,76.61,0S211.69,433.92,211.69,433.92Z"/><path class="cls-5" d="M240.74,155.75a0.59,0.59,0,0,1-.35-0.11l-3.19-2.35a0.59,0.59,0,0,1,.7-0.95l3.19,2.35A0.59,0.59,0,0,1,240.74,155.75Z"/><path class="cls-1" d="M271.1,165.77c3.89-9.29-1.57-8.22,4.48-12.77,11.3-8.49,26.49-7.09,33.88-13.79a81.18,81.18,0,0,1-8.54,17C289.27,174,271,186.83,250,186.83v-8.3C257,178.53,268.12,172.86,271.1,165.77Z"/><path class="cls-2" d="M257.15,44.33l4,19.41a5.9,5.9,0,0,1,.06.85,62.82,62.82,0,0,0-11.18-1V38.13A7.54,7.54,0,0,1,257.15,44.33Z"/><path class="cls-3" d="M261.18,64.6A63.64,63.64,0,0,1,291.58,79l36.85-21.7c6.05-3.56,11-3.61,11-.1s-5.14,9-11.42,12.1l-2.7,1.16C319,73.62,319.65,76,326.67,76h25.54c7,0,12.79,6.13,12.79,13.15v12.77c0,7-5.15,15.34-11.43,18.48l-2.7,1.35c-6.28,3.14-16.71,3.46-23.17.71l-13.84-5.9c0,1.52-.12,3-0.27,4.56,0.21,2.09.31,4.2,0.31,6.34,0,5.66-1.68,9.26-4.43,11.75-7.4,6.7-22.57,5.3-33.88,13.79-6.05,4.55-.61,3.48-4.5,12.77-3,7.09-14.1,12.77-21.1,12.77V63.61A62.9,62.9,0,0,1,261.18,64.6Z"/><path class="cls-4" d="M291.69,106.64l5.95-3c1.88-.94,3.36,0,3.36,2.12v17.88c0,2.11-1.59,3.37-3.7,3.37h-4.9a27.6,27.6,0,0,0,1.32-9.13A30.93,30.93,0,0,0,291.69,106.64Z"/><path class="cls-5" d="M276.16,115.57c0,0.07.14,0.13,0.14,0.2,0,3.63,2,6.58,4.38,6.58s4.35-2.94,4.35-6.58a8.22,8.22,0,0,0-1.55-5l8.2-4.1a30.93,30.93,0,0,1,2,11.22A27.61,27.61,0,0,1,292.4,127h-13c-2.11,0-4.42-1.27-4.42-3.37v-5.11A6.73,6.73,0,0,1,276.16,115.57Z"/><path class="cls-4" d="M280.75,122.35c-2.38,0-4.31-2.94-4.31-6.58,0-.07,0-0.13,0-0.2A6.44,6.44,0,0,1,279,113l4.48-2.24a8.22,8.22,0,0,1,1.57,5C285.06,119.41,283.13,122.35,280.75,122.35Z"/><path class="cls-2" d="M250.91,76c3.51,0,6.92,3.87,7.57,8.38l3.17,22.19c0.65,4.5-1.69,8.43-5.2,8.43H250V76h0.91Z"/><path class="cls-6" d="M337.44,83.25l1.16-.08a12.94,12.94,0,0,1,10.12,4.77s12.43,17.15,1.36,22.8-24.1,1.81-24.1,1.81a10,10,0,0,1-4-2.48C350.46,102.17,342.83,89.13,337.44,83.25Z"/><path class="cls-7" d="M318.77,104.45S316.45,91,313.9,88c-2.23-2.67,18.36-4.33,23.54-4.7,5.4,5.88,13,18.92-15.45,26.81A10.8,10.8,0,0,1,318.77,104.45Z"/><path class="cls-8" d="M325.92,243.64a7.69,7.69,0,0,0-.65-4.55c-3.85-25.29-9.9-48.32-17.59-67.67a23.17,23.17,0,0,1,34.49,25.53,30.89,30.89,0,0,1,9.8,14.51,32.21,32.21,0,0,1,1.55,8.64L373,268.83c2.61,6.52-1,12.2-8,12.63,0,0-23.71,1.43-36,.64-0.27-9.08-.58-16.61-0.95-20.43C327.48,255.55,326.75,249.54,325.92,243.64Z"/><path class="cls-9" d="M294.59,394.24a92.16,92.16,0,0,0,10.26-1.62,77,77,0,0,1-11,6.22l0.72-4.56Z"/><path class="cls-10" d="M284.5,371.77c0.78,0,1.56,0,2.33,0,16.4-.38,31.09-4.74,41.42-11.52-3.51,13.78-12,24.58-23.42,32.4a92.13,92.13,0,0,1-10.26,1.62,99.36,99.36,0,0,1-10.08.52,89.53,89.53,0,0,1-34.5-6.63v-23A89.51,89.51,0,0,0,284.5,371.77Z"/><path class="cls-11" d="M284.5,350.07c2.89,0,5.74-.14,8.52-0.38,14.78-1.27,27.8-5.8,36.94-12.34,0,3.74.05,6.68,0.05,8.46a58.24,58.24,0,0,1-1.75,14.41c-10.33,6.78-25,11.14-41.42,11.52-0.77,0-1.57,0-2.34,0a89.51,89.51,0,0,1-34.5-6.62V343.44A89.52,89.52,0,0,0,284.5,350.07Z"/><path class="cls-9" d="M294.59,394.24l0,0-0.75,4.56C280.76,405,265,408.06,250,408.06V388.13a89.53,89.53,0,0,0,34.5,6.63A99.38,99.38,0,0,0,294.59,394.24Z"/><path class="cls-9" d="M300.92,156.25c2.36,4.75,4.62,9.82,6.74,15.17,7.69,19.35,13.75,42.39,17.6,67.67A7.53,7.53,0,0,0,323.8,237l-7-14.7a7.66,7.66,0,0,0-10.05-.64,7.55,7.55,0,0,0-.78.64L291.23,237a7.68,7.68,0,0,0,0,10.84l14.7,14.7a7.68,7.68,0,0,0,10.84,0l1.41-2.95,5.63-11.76a7.59,7.59,0,0,0,2.11-4.16c0.83,5.9,1.55,11.91,2.14,18,0.37,3.82.68,11.36,0.95,20.43,0.46,15.7.77,36,.91,49.87,0,1.93,0,3.73.05,5.38-9.13,6.54-22.15,11.07-36.93,12.34-2.78.24-5.64,0.38-8.54,0.38a89.52,89.52,0,0,1-34.5-6.63V186.83C271,186.83,289.27,174,300.92,156.25Z"/><path class="cls-11" d="M325.92,243.64c-0.21-1.52-.42-3-0.65-4.55A7.69,7.69,0,0,1,325.92,243.64Z"/><path class="cls-11" d="M281,237l24.92-17.26a7.55,7.55,0,0,1,.78-0.64,7.66,7.66,0,0,1,10.05.64l7,17.26a7.54,7.54,0,0,1,1.46,2.13c0.23,1.51.44,3,.65,4.55a7.59,7.59,0,0,1-2.11,4.16l-5.63,18.14-1.41,2.95a7.68,7.68,0,0,1-10.84,0L281,247.8A7.68,7.68,0,0,1,281,237Z"/><path class="cls-8" d="M288.36,433.92l5.53-35.08a77,77,0,0,0,11-6.22c11.39-7.83,19.92-18.63,23.42-32.4A58.23,58.23,0,0,0,330,345.81c0-1.79,0-4.73,0-8.46,0-1.65,0-3.45-.05-5.38a39.08,39.08,0,0,1,21.74,68.25l-10.89,33.69S365,456.9,365,459.46s-69.59,3.83-76.61,0S288.36,433.92,288.36,433.92Z"/><path class="cls-5" d="M259.31,155.75a0.59,0.59,0,0,0,.35-0.11l3.19-2.35a0.59,0.59,0,1,0-.7-0.95L259,154.69A0.59,0.59,0,0,0,259.31,155.75Z"/><path class="cls-12" d="M373,268.83l-19.49-48.74a32.21,32.21,0,0,0-1.55-8.64,30.89,30.89,0,0,0-9.8-14.51,23.19,23.19,0,0,0-34.49-25.53c7.69,19.35,13.74,42.39,17.59,67.67v0c-3.85-25.28-9.91-48.31-17.6-67.65-2.12-5.34-4.38-10.42-6.74-15.17-11.29,17.2-29.32,29.78-49,30.55,19.69-.77,37.72-13.35,49-30.55a81.19,81.19,0,0,0,8.54-17h0c2.75-2.49,4.43-6.09,4.43-11.75,0-2.14-.11-4.25-0.32-6.34,0.15-1.52.22-3,.27-4.56l13.83,5.9c6.46,2.75,16.88,2.44,23.16-.71l2.72-1.35c6.28-3.14,11.43-11.46,11.43-18.48V89.15c0-7-5.77-13.15-12.79-13.15H326.67c-7,0-7.63-2.38-1.35-5.52l2.7-1.25c6.28-3.14,11.42-8.54,11.42-12s-5-3.44-11,.12L291.58,79.22C283.09,71.93,272.67,66,261.18,65h0s0-.76-0.06-1.06l-4-19.51A7.63,7.63,0,0,0,250,38.13V408.06c15,0,30.76-3.08,43.86-9.22l0.75-4.56-0.72,4.56-5.53,35.08s-7,21.71,0,25.54S365,462,365,459.46s-24.21-25.54-24.21-25.54l10.89-33.69A39.08,39.08,0,0,0,329.92,332c-0.15-13.85-.46-34.18-0.91-49.87,12.28,0.79,36-.64,36-0.64C372,281,375.61,275.35,373,268.83ZM269.6,168.35a12.44,12.44,0,0,0,1.5-2.58c0.12-.29.21-0.54,0.31-0.81-0.1.27-.19,0.52-0.31,0.81a12.44,12.44,0,0,1-1.5,2.58c-2.78,3.75-7.78,6.89-12.48,8.65C261.82,175.24,266.81,172.1,269.6,168.35Zm15,203.42h0Zm45.45-26a58.24,58.24,0,0,1-1.76,14.41c-3.51,13.78-12,24.58-23.42,32.4a92.16,92.16,0,0,1-10.26,1.62,99.45,99.45,0,0,1-10.08.52h0a99.42,99.42,0,0,0,10.08-.52,92.12,92.12,0,0,0,10.26-1.62c11.39-7.82,19.91-18.62,23.42-32.4h0A58.24,58.24,0,0,0,330,345.81c0-1.79,0-4.72-.05-8.46h0C330,341.08,330,344,330,345.81Z"/><path class="cls-8" d="M156.25,465.94V465h5.63v1.88h1.88v1.88h1.88v5.63h-1.87v1.88h-1.87v1.88h-5.62v-1.87h-1.87v-1.87H152.5v-5.62h1.88v-1.87h1.88v-0.94Zm3.75,1.88v-0.94h-3.75v7.5h1.88v1.88h3.75v-7.5H160v-0.94Z"/><path class="cls-8" d="M169.38,465.94V465h11.25v1.88h-1.87v1.88h-1.87v1.88h1.88v1.88h1.88v3.75h-1.87v1.88h-9.37v-1.87H167.5v-1.87h3.75v1.88h5.63V472.5h-5.62v-1.87h1.88v-1.87H175v-1.87h-5.62v-0.94Z"/><path class="cls-8" d="M188.13,465.94V465h3.75v11.25h3.75v1.88H184.38v-1.87h3.75v-7.5h-1.87v-1.87h1.88v-0.94Z"/><path class="cls-8" d="M212.5,471.56V465h3.75v1.88h1.88v1.88H220v1.88h1.88V465h3.75v13.13h-3.75v-1.87H220v-1.87h-1.87V472.5h-1.87v5.63H212.5v-6.56Z"/><path class="cls-8" d="M229.38,465.94V465h11.25v1.88h-3.75v9.38h3.75v1.88H229.38v-1.87h3.75v-9.37h-3.75v-0.94Z"/><path class="cls-8" d="M242.5,471.56V465h9.38v1.88h1.88v1.88h1.88v5.63h-1.87v1.88h-1.87v1.88H242.5v-6.56Zm7.5-3.75v-0.94h-3.75v9.38H250v-1.87h1.88v-5.62H250v-0.94Z"/><path class="cls-8" d="M259.38,465.94V465h9.38v1.88h1.88v9.38h-1.87v1.88h-9.37v-1.87H257.5v-9.37h1.88v-0.94Zm7.5,5.63v-4.69h-5.62v9.38h5.63v-4.69Z"/><path class="cls-8" d="M274.38,465.94V465h9.38v1.88h1.88v7.5h-1.87v1.88h1.88v1.88h-1.87v-1.87h-1.87v1.88h-7.5v-1.87H272.5v-9.37h1.88v-0.94Zm7.5,3.75v-2.81h-5.62v9.38H280v-1.87h-1.87V472.5h3.75v-2.81Z"/><path class="cls-8" d="M287.5,470.63V465h3.75v11.25h5.63V465h3.75v11.25h-1.87v1.88h-9.37v-1.87H287.5v-5.62Z"/><path class="cls-8" d="M302.5,471.56V465h13.13v1.88h-9.37v3.75h7.5v1.88h-7.5v3.75h9.38v1.88H302.5v-6.56Z"/><path class="cls-8" d="M317.5,471.56V465h13.13v1.88h-9.37v3.75h7.5v1.88h-7.5v3.75h9.38v1.88H317.5v-6.56Z"/><path class="cls-8" d="M332.5,471.56V465h3.75v1.88h1.88v1.88H340v1.88h1.88V465h3.75v13.13h-3.75v-1.87H340v-1.87h-1.87V472.5h-1.87v5.63H332.5v-6.56Z"/></svg>