<?xml version="1.0" ?><svg id="pkft" viewBox="0 0 500 500" xmlns="http://www.w3.org/2000/svg"><defs><style>.cls-1{fill:#a479aa;}.cls-2{fill:#b786ae;}.cls-3{fill:#c48ab6;}.cls-4{fill:#fff;}.cls-5{fill:#cd92bc;}.cls-6{fill:#cf0942;}.cls-7,.cls-9{fill:#1a1a1a;}.cls-8{fill:#008a92;}.cls-9{opacity:0.1;}</style></defs><title/><path class="cls-1" d="M218.81,365.3a8.06,8.06,0,0,0,.78.19l5.4,1a8.09,8.09,0,0,0,9.4-6.47l3.79-20.53c-4.76-2.48-9.6-5.36-13.21-7.58Z"/><path class="cls-2" d="M247.25,330L240,310.13l0.18-.12H240a17.35,17.35,0,0,1-10.25-3.94l-2.46,13.29L225,331.92c3.61,2.23,8.45,5.1,13.21,7.58a60.48,60.48,0,0,0,11.81,5V330h-2.75Z"/><path class="cls-3" d="M225.53,301.06l-0.65-1.31-13.41-26.81a10,10,0,0,0-4,6.3l-16.27,88.13a10,10,0,0,0,8,11.65l6.7,1.24a10,10,0,0,0,11.65-8l1.28-6.94L225,331.92l2.32-12.56,2.46-13.29A15.36,15.36,0,0,1,225.53,301.06Z"/><polygon class="cls-4" points="240 310.13 247.25 330 250 330 250 310 240.18 310 240 310.13"/><path class="cls-5" d="M242.45,200H230a11.87,11.87,0,0,0-2,.17L222,169.81c-1.08-5.39-3.61-7.56-5.63-4.81a9.77,9.77,0,0,0-.17,10.33c1.93,2.93-.15,2.7-4.61-0.52l-12.45-9c-4.46-3.22-8.11-3.6-8.11-.84s2,7.22,4.5,9.92,0.75,2.42-3.83-.62l-43.34-28.76c-4.58-3-8.33-3.28-8.33-.53s1.82,9.11,4,14.14c0,0,27,60.86,36,60.86,5.56,0,20.74.63,31.55,1.12l-7.84,19.59c-2,5.11-1.7,13.31.76,18.23l7,14,13.41,26.81,0.65,1.31a15.36,15.36,0,0,0,4.23,5A17.35,17.35,0,0,0,240,310h10V150ZM213.5,217c-29.5,4.75-62.25-55-52.75-52.25S221.25,203,221.25,203a5.44,5.44,0,0,0-3.17,2.59l-13.57-4.32c-2.62-.84-3.09,0-1,1.83l11.17,10.06C213.91,215.34,213.5,217,213.5,217Z"/><path class="cls-4" d="M225,244.11l-2.57-4.18c-1.39-2.26-3-2-3.65.58l-3.35,14.08A4.84,4.84,0,0,0,219,260.4l0.23,0.06a24.2,24.2,0,0,1,.65-6.35A22.87,22.87,0,0,1,225,244.11Z"/><path class="cls-6" d="M225.41,253.8a3.1,3.1,0,0,1,1.95-5.83L225,244.11a22.86,22.86,0,0,0-5.12,10,24.21,24.21,0,0,0-.65,6.35l5.48,1.31c0-.43,0-0.87,0-1.31A29.06,29.06,0,0,1,225.41,253.8Z"/><path class="cls-7" d="M235.22,260.76L229.85,252a3.08,3.08,0,0,1-4.44,1.77,29.06,29.06,0,0,0-.75,6.65c0,0.44,0,.88,0,1.31l8.36,2C235.64,264.36,236.61,263,235.22,260.76Z"/><path class="cls-4" d="M223.76,251.06a3.12,3.12,0,0,0,1.65,2.74,17.32,17.32,0,0,1,2.18-5.44l-0.24-.39A3.06,3.06,0,0,0,223.76,251.06Z"/><path class="cls-4" d="M225.41,253.8a3.08,3.08,0,0,0,4.44-1.77l-2.26-3.67A17.32,17.32,0,0,0,225.41,253.8Z"/><path class="cls-8" d="M204.51,201.27l13.57,4.32a5.44,5.44,0,0,1,3.17-2.59s-51-35.5-60.5-38.25S184,221.75,213.5,217c0,0,.41-1.66,1.14-3.84L203.47,203.1C201.42,201.26,201.89,200.43,204.51,201.27Z"/><path class="cls-7" d="M246.83,300.67a0.5,0.5,0,0,1-.28-0.08l-3-2a0.5,0.5,0,0,1,.55-0.83l3,2A0.5,0.5,0,0,1,246.83,300.67Z"/><path class="cls-1" d="M281.19,365.3a8.06,8.06,0,0,1-.78.19l-5.4,1a8.09,8.09,0,0,1-9.4-6.47l-3.79-20.53c4.76-2.48,9.6-5.36,13.21-7.58Z"/><path class="cls-2" d="M252.75,330L260,310.13l-0.18-.12H260a17.35,17.35,0,0,0,10.25-3.94l2.46,13.29L275,331.92c-3.61,2.23-8.45,5.1-13.21,7.58a60.48,60.48,0,0,1-11.81,5V330h2.75Z"/><path class="cls-3" d="M274.47,301.06l0.65-1.31,13.41-26.81a10,10,0,0,1,4,6.3l16.27,88.13a10,10,0,0,1-8,11.65l-6.7,1.24a10,10,0,0,1-11.65-8l-1.28-6.94L275,331.92l-2.32-12.56-2.46-13.29A15.36,15.36,0,0,0,274.47,301.06Z"/><polygon class="cls-4" points="260 310.13 252.75 330 250 330 250 310 259.82 310 260 310.13"/><path class="cls-5" d="M250,150V310h10a17.35,17.35,0,0,0,10.25-3.94,15.36,15.36,0,0,0,4.23-5l0.65-1.31,13.41-26.81,7-14c2.46-4.92,2.8-13.12.76-18.23l-7.84-19.59c10.81-.49,26-1.12,31.55-1.12,9,0,36-60.86,36-60.86,2.23-5,4-11.39,4-14.14s-3.75-2.51-8.33.53l-43.34,28.76c-4.58,3-6.31,3.32-3.83.62s4.5-7.16,4.5-9.92-3.65-2.38-8.11.84l-12.45,9c-4.46,3.22-6.53,3.45-4.61.52a9.77,9.77,0,0,0-.17-10.33c-2-2.75-4.55-.59-5.63,4.81L272,200.17a11.87,11.87,0,0,0-2-.17H257.55Zm35.36,63.16,11.17-10.06c2-1.84,1.57-2.66-1-1.83l-13.57,4.32a5.44,5.44,0,0,0-3.17-2.59s51-35.5,60.5-38.25S316,221.75,286.5,217C286.5,217,286.09,215.34,285.36,213.16Z"/><path class="cls-4" d="M275,244.11l2.57-4.18c1.39-2.26,3-2,3.65.58l3.35,14.08A4.84,4.84,0,0,1,281,260.4l-0.23.06a24.2,24.2,0,0,0-.65-6.35A22.87,22.87,0,0,0,275,244.11Z"/><path class="cls-6" d="M274.59,253.8a3.1,3.1,0,0,0-1.95-5.83l2.38-3.87a22.86,22.86,0,0,1,5.12,10,24.21,24.21,0,0,1,.65,6.35l-5.48,1.31c0-.43,0-0.87,0-1.31A29.06,29.06,0,0,0,274.59,253.8Z"/><path class="cls-7" d="M264.78,260.76l5.37-8.73a3.08,3.08,0,0,0,4.44,1.77,29.06,29.06,0,0,1,.75,6.65c0,0.44,0,.88,0,1.31l-8.36,2C264.36,264.36,263.39,263,264.78,260.76Z"/><path class="cls-4" d="M276.24,251.06a3.12,3.12,0,0,1-1.65,2.74,17.32,17.32,0,0,0-2.18-5.44l0.24-.39A3.06,3.06,0,0,1,276.24,251.06Z"/><path class="cls-4" d="M274.59,253.8a3.08,3.08,0,0,1-4.44-1.77l2.26-3.67A17.32,17.32,0,0,1,274.59,253.8Z"/><path class="cls-8" d="M295.49,201.27l-13.57,4.32a5.44,5.44,0,0,0-3.17-2.59s51-35.5,60.5-38.25S316,221.75,286.5,217c0,0-.41-1.66-1.14-3.84l11.17-10.06C298.58,201.26,298.11,200.43,295.49,201.27Z"/><path class="cls-7" d="M253.17,300.67a0.5,0.5,0,0,0,.28-0.08l3-2a0.5,0.5,0,1,0-.55-0.83l-3,2A0.5,0.5,0,0,0,253.17,300.67Z"/><path class="cls-9" d="M351.67,145.53l-43.34,28.76c-4.58,3-6.31,3.32-3.83.62s4.5-7.16,4.5-9.92-3.65-2.38-8.11.84l-12.45,9c-4.46,3.22-6.53,3.45-4.61.52a9.77,9.77,0,0,0-.17-10.33c-2-2.75-4.55-.59-5.63,4.81L272,200.17a11.87,11.87,0,0,0-2-.17H257.55L250,150V344.5a60.48,60.48,0,0,0,11.81-5L265.6,360a8.09,8.09,0,0,0,9.4,6.47l5.4-1a8.06,8.06,0,0,0,.78-0.19l1.28,6.94a10,10,0,0,0,11.65,8l6.7-1.24a10,10,0,0,0,8-11.65l-16.27-88.12a10,10,0,0,0-4-6.3l7-14c2.46-4.92,2.8-13.12.76-18.23l-7.84-19.59c10.81-.49,26-1.12,31.55-1.12,9,0,36-60.86,36-60.86,2.23-5,4-11.39,4-14.14S356.25,142.49,351.67,145.53Z"/><polygon class="cls-1" points="331.97 467.87 331.97 467.87 332.17 467.67 331.97 467.87"/><path class="cls-1" d="M343.29,463.62l0,0v0h0l-1.32-1.32v0h-6.46v2h4.43l-1.54,1.54-1.41,1.41-0.75.75L334.09,470,332,467.87l-0.71.71-0.35-.35-1.06-1.06L327,470l-3.54,3.54,1.06,1.06,0.35,0.35-0.19.19-1.23,1.23,3.37,3.37,2.28,2.28,1.23-1.23,0.19-.19L332,482l3.54-3.54,2.82-2.82-1.41-1.41,0.9-.9-0.2.2-2.12-2.12,2.08-2.08,0.75-.75,1.41-1.41,1.5-1.5V470h2v-6.36Zm-7.07,9.9-2.82,2.82-3.54,3.54-1.58-1.58-2.67-2.67,3.54-3.54,2.82-2.82,2.67,2.67Z"/><path class="cls-1" d="M156.25,465.94V465h5.63v1.88h1.88v1.88h1.88v5.63h-1.87v1.88h-1.87v1.88h-5.62v-1.87h-1.87v-1.87H152.5v-5.62h1.88v-1.87h1.88v-0.94Zm3.75,1.88v-0.94h-3.75v7.5h1.88v1.88h3.75v-7.5H160v-0.94Z"/><path class="cls-1" d="M169.38,465.94V465h11.25v1.88h-1.87v1.88h-1.87v1.88h1.88v1.88h1.88v3.75h-1.87v1.88h-9.37v-1.87H167.5v-1.87h3.75v1.88h5.63V472.5h-5.62v-1.87h1.88v-1.87H175v-1.87h-5.62v-0.94Z"/><path class="cls-1" d="M184.38,465.94V465h9.38v1.88h1.88v3.75h-1.87v1.88h-1.87v1.88h-3.75v1.88h7.5v1.88H182.5v-3.75h1.88V472.5h1.88v-1.87H190v-1.87h1.88v-1.87h-5.62v1.88H182.5v-1.87h1.88v-0.94Z"/><path class="cls-1" d="M212.5,471.56V465h3.75v1.88h1.88v1.88H220v1.88h1.88V465h3.75v13.13h-3.75v-1.87H220v-1.87h-1.87V472.5h-1.87v5.63H212.5v-6.56Z"/><path class="cls-1" d="M229.38,465.94V465h11.25v1.88h-3.75v9.38h3.75v1.88H229.38v-1.87h3.75v-9.37h-3.75v-0.94Z"/><path class="cls-1" d="M242.5,471.56V465h9.38v1.88h1.88v1.88h1.88v5.63h-1.87v1.88h-1.87v1.88H242.5v-6.56Zm7.5-3.75v-0.94h-3.75v9.38H250v-1.87h1.88v-5.62H250v-0.94Z"/><path class="cls-1" d="M259.38,465.94V465h9.38v1.88h1.88v9.38h-1.87v1.88h-9.37v-1.87H257.5v-9.37h1.88v-0.94Zm7.5,5.63v-4.69h-5.62v9.38h5.63v-4.69Z"/><path class="cls-1" d="M272.5,471.56V465h11.25v1.88h1.88v5.63h-3.75v1.88h1.88v1.88h1.88v1.88H280v-1.87h-1.87v-1.87h-1.87v3.75H272.5v-6.56Zm9.38-2.81v-1.87h-5.62v5.63H280v-1.87h1.88v-1.87Z"/><path class="cls-1" d="M291.25,465.94V465h5.63v1.88h1.88v1.88h1.88v9.38h-3.75v-3.75h-5.62v3.75H287.5v-9.37h1.88v-1.87h1.88v-0.94Zm3.75,1.88v-0.94h-1.87v1.88h-1.87v3.75h5.63v-3.75H295v-0.94Z"/><path class="cls-1" d="M302.5,471.56V465h3.75v1.88h1.88v1.88H310v1.88h1.88V465h3.75v13.13h-3.75v-1.87H310v-1.87h-1.87V472.5h-1.87v5.63H302.5v-6.56Z"/></svg>