<?xml version="1.0" ?><svg id="pkft" viewBox="0 0 500 500" xmlns="http://www.w3.org/2000/svg"><defs><style>.cls-1{fill:#9972a0;}.cls-2{fill:#91308c;}.cls-3{fill:#8e6696;}.cls-4{fill:#ccc;}.cls-5{fill:#a479aa;}.cls-6{fill:#fff;}.cls-7{fill:#008a92;}.cls-8,.cls-9{fill:#1a1a1a;}.cls-9{opacity:0.1;}</style></defs><title/><path class="cls-1" d="M240.38,290.29l9.62-7.22V251H240c-5.5,0-11.75-4.15-13.89-9.21l-12.67-30C207.27,225,202.87,241.59,201,260c-0.3,2.93-.53,18-0.7,34.27a27.09,27.09,0,0,1,10.06,5.65l0.32,0.31a11.28,11.28,0,0,1,1.52,13.57l-8.15,12.63-4-5.31C200,330.09,200,337,200,339c0,27.61,25,41.42,50,41.42V293.49l-8.69-.09C238.56,293.38,238.18,291.94,240.38,290.29Z"/><path class="cls-2" d="M212.21,313.79a11.28,11.28,0,0,0-1.52-13.57l-0.32-.31a27.09,27.09,0,0,0-10.06-5.65c-0.09,9.24-.17,18.86-0.22,26.85l4,5.31Z"/><path class="cls-3" d="M233,240.35c-1.61-.77-12.66-19.94-19.25-31.85a15.83,15.83,0,0,0-3.7-4.76l1.08,2.54,2.33,5.51L225,239.17l1.11,2.62a14.12,14.12,0,0,0,3.51,4.8A16.16,16.16,0,0,0,240,251h10v-8.83C242.87,241.5,234.32,240.57,233,240.35Z"/><path class="cls-4" d="M173.34,279.64l3.66,7.24,0.64-7A12.12,12.12,0,0,1,173.34,279.64Z"/><path class="cls-4" d="M160,263.07l-7.78.43,8.62,4.77A12.09,12.09,0,0,1,160,263.07Z"/><path class="cls-4" d="M159.5,280l8-3.77L164.21,273C162.29,275.62,159.5,280,159.5,280Z"/><polygon class="cls-4" points="194.5 400 207.83 390 198.27 390 194.5 400"/><path class="cls-4" d="M180,400l11.17-10a11.91,11.91,0,0,1-6.25-2.3Z"/><path class="cls-4" d="M180,375.48L168.83,388l12-5.65A11.87,11.87,0,0,1,180,378v-2.52Z"/><path class="cls-2" d="M182.33,245.59l0.18-.18a15.53,15.53,0,0,0,3.78-8.57l0.27-4.61-13.32,13.32,1.4,0.9A6.4,6.4,0,0,0,182.33,245.59Z"/><path class="cls-5" d="M210.17,234.07l-4.24-4.24a12,12,0,0,0-17,0l-2.4,2.4-0.27,4.61a15.53,15.53,0,0,1-3.78,8.57l-0.18.18a6.4,6.4,0,0,1-7.7.86l-1.4-.9-9.73,9.73a11.93,11.93,0,0,0-3.47,7.78,12.09,12.09,0,0,0,.83,5.2,11.89,11.89,0,0,0,2.63,4l0.71,0.71,3.25,3.25,0.27,0.27a11.89,11.89,0,0,0,5.6,3.14,12.12,12.12,0,0,0,4.3.27,11.92,11.92,0,0,0,7.07-3.41l0.11-.11-5.33-7.11c-1.65-2.2-.75-3.87,2-3.71l6.78,0.39c2.63,0.15,5.46.37,6.49,0.5L210.17,251A12,12,0,0,0,210.17,234.07Z"/><path class="cls-2" d="M240.38,290.29c-2.2,1.65-1.82,3.08.93,3.1l8.69,0.09V283.07Z"/><path class="cls-2" d="M181.49,265.56c-2.75-.16-3.64,1.51-2,3.71l5.33,7.11,9.94-9.94c-1-.13-3.86-0.35-6.49-0.5Z"/><path class="cls-5" d="M218,340H192a11.88,11.88,0,0,0-3.09.42c1.21,1.39,2.26,2.63,2.63,3.13,0.55,0.73.24,4.54-1.72,6.47L180,359.68V378a11.87,11.87,0,0,0,.83,4.35,12.09,12.09,0,0,0,4.09,5.31,11.91,11.91,0,0,0,6.25,2.3c0.27,0,.55,0,0.83,0h26a12,12,0,0,0,12-12V352A12,12,0,0,0,218,340Z"/><path class="cls-2" d="M191.54,343.55c-0.38-.5-1.42-1.74-2.63-3.13A12,12,0,0,0,180,352v7.68l9.82-9.66C191.78,348.1,192.09,344.28,191.54,343.55Z"/><path class="cls-6" d="M227,239l3.84-1.35c-1-1.54-2.36-3.65-3.84-6.09V239Z"/><path class="cls-5" d="M236.59,100H230a14.64,14.64,0,0,0-5.17,1L214.28,79c-2.38-5-8.59-10.44-13.81-12.18l-11-3.67c-5.22-1.74-11.77-5.41-14.56-8.16s-9.44-6.12-14.76-7.49l-19.46-5C135.36,41.12,131,42.25,131,45s4.24,6.51,9.42,8.36l9.17,3.27C154.76,58.49,154.5,60,149,60H130c-5.5,0-10,2.25-10,5s4.49,5.3,10,5.67l10,0.67c5.49,0.37,11.71,4.82,13.82,9.9l12.31,29.54c2.12,5.08,8.35,9.23,13.85,9.23h30l-5.53,11.06A50.45,50.45,0,0,0,200,150v20a59,59,0,0,0,3.89,19.21L210,203.75a15.83,15.83,0,0,1,3.7,4.76c3.83,6.91,9.16,16.27,13.27,23.05,1.48,2.44,2.8,4.55,3.84,6.09a11.43,11.43,0,0,0,2.15,2.7c1.33,0.22,9.88,1.15,17,1.82V60.5Z"/><path class="cls-7" d="M216.76,108.08a6.27,6.27,0,0,0,.61-7.67S190.5,62.25,158.5,62.75c0,0,14.75,50.5,51.5,52.25Z"/><path class="cls-6" d="M235.84,157.23l-2.11-1.41a10.06,10.06,0,0,1-5.36,4.18H235C237.75,160,238.13,158.75,235.84,157.23Z"/><path class="cls-6" d="M215.21,150.46a10,10,0,0,1,1.83-5.77l-2.87-1.92c-2.29-1.53-4.16-.52-4.16,2.23v15h12.13A10,10,0,0,1,215.21,150.46Z"/><path class="cls-8" d="M225.32,150.21a4.41,4.41,0,0,1-7.22-4.82l-1.06-.71a10,10,0,0,0,5.1,15.31h6.24a10.06,10.06,0,0,0,5.36-4.18Z"/><path class="cls-6" d="M222.13,151.58a4.39,4.39,0,0,0,3.19-1.37l-7.22-4.82A4.41,4.41,0,0,0,222.13,151.58Z"/><path class="cls-1" d="M259.62,290.29L250,283.07V251h10c5.5,0,11.75-4.15,13.89-9.21l12.67-30C292.73,225,297.13,241.59,299,260c0.3,2.93.53,18,.7,34.27a27.09,27.09,0,0,0-10.06,5.65l-0.32.31a11.28,11.28,0,0,0-1.52,13.57l8.15,12.63,4-5.31c0.06,9,.09,15.91.09,17.89,0,27.61-25,41.42-50,41.42V293.49l8.69-.09C261.44,293.38,261.82,291.94,259.62,290.29Z"/><path class="cls-2" d="M287.79,313.79a11.28,11.28,0,0,1,1.52-13.57l0.32-.31a27.09,27.09,0,0,1,10.06-5.65c0.09,9.24.17,18.86,0.22,26.85l-4,5.31Z"/><path class="cls-3" d="M267,240.35c1.61-.77,12.66-19.94,19.25-31.85a15.83,15.83,0,0,1,3.7-4.76l-1.08,2.54-2.33,5.51L275,239.17l-1.11,2.62a14.12,14.12,0,0,1-3.51,4.8A16.16,16.16,0,0,1,260,251H250v-8.83C257.13,241.5,265.68,240.57,267,240.35Z"/><path class="cls-4" d="M326.66,279.64L323,286.88l-0.64-7A12.12,12.12,0,0,0,326.66,279.64Z"/><path class="cls-4" d="M340,263.07l7.78,0.43-8.62,4.77A12.09,12.09,0,0,0,340,263.07Z"/><path class="cls-4" d="M340.5,280l-8-3.77,3.25-3.25C337.71,275.62,340.5,280,340.5,280Z"/><polygon class="cls-4" points="305.5 400 292.17 390 301.73 390 305.5 400"/><path class="cls-4" d="M320,400l-11.17-10a11.91,11.91,0,0,0,6.25-2.3Z"/><path class="cls-4" d="M320,375.48L331.17,388l-12-5.65A11.87,11.87,0,0,0,320,378v-2.52Z"/><path class="cls-2" d="M317.67,245.59l-0.18-.18a15.53,15.53,0,0,1-3.78-8.57l-0.27-4.61,13.32,13.32-1.4.9A6.4,6.4,0,0,1,317.67,245.59Z"/><path class="cls-5" d="M289.83,234.07l4.24-4.24a12,12,0,0,1,17,0l2.4,2.4,0.27,4.61a15.53,15.53,0,0,0,3.78,8.57l0.18,0.18a6.4,6.4,0,0,0,7.7.86l1.4-.9,9.73,9.73a11.93,11.93,0,0,1,3.47,7.78,12.09,12.09,0,0,1-.83,5.2,11.89,11.89,0,0,1-2.63,4l-0.71.71-3.25,3.25-0.27.27a11.89,11.89,0,0,1-5.6,3.14,12.12,12.12,0,0,1-4.3.27,11.92,11.92,0,0,1-7.07-3.41l-0.11-.11,5.33-7.11c1.65-2.2.75-3.87-2-3.71l-6.78.39c-2.63.15-5.46,0.37-6.49,0.5L289.83,251A12,12,0,0,1,289.83,234.07Z"/><path class="cls-2" d="M259.62,290.29c2.2,1.65,1.82,3.08-.93,3.1l-8.69.09V283.07Z"/><path class="cls-2" d="M318.51,265.56c2.75-.16,3.64,1.51,2,3.71l-5.33,7.11-9.94-9.94c1-.13,3.86-0.35,6.49-0.5Z"/><path class="cls-5" d="M282,340h26a11.88,11.88,0,0,1,3.09.42c-1.21,1.39-2.26,2.63-2.63,3.13-0.55.73-.24,4.54,1.72,6.47l9.82,9.66V378a11.87,11.87,0,0,1-.83,4.35,12.09,12.09,0,0,1-4.09,5.31,11.91,11.91,0,0,1-6.25,2.3c-0.27,0-.55,0-0.83,0H282a12,12,0,0,1-12-12V352A12,12,0,0,1,282,340Z"/><path class="cls-2" d="M308.46,343.55c0.38-.5,1.42-1.74,2.63-3.13A12,12,0,0,1,320,352v7.68L310.18,350C308.22,348.1,307.91,344.28,308.46,343.55Z"/><path class="cls-6" d="M273,239l-3.84-1.35c1-1.54,2.36-3.65,3.84-6.09V239Z"/><path class="cls-5" d="M263.41,100H270a14.64,14.64,0,0,1,5.17,1l10.55-22c2.38-5,8.59-10.44,13.81-12.18l11-3.67c5.22-1.74,11.77-5.41,14.56-8.16s9.44-6.12,14.76-7.49l19.46-5c5.33-1.37,9.68-.24,9.68,2.51s-4.24,6.51-9.42,8.36l-9.17,3.27C345.24,58.49,345.5,60,351,60h19c5.5,0,10,2.25,10,5s-4.49,5.3-10,5.67l-10,.67c-5.49.37-11.71,4.82-13.82,9.9l-12.31,29.54C331.73,115.85,325.5,120,320,120H290l5.53,11.06A50.45,50.45,0,0,1,300,150v20a59,59,0,0,1-3.89,19.21L290,203.75a15.83,15.83,0,0,0-3.7,4.76c-3.83,6.91-9.16,16.27-13.27,23.05-1.48,2.44-2.8,4.55-3.84,6.09a11.43,11.43,0,0,1-2.15,2.7c-1.33.22-9.88,1.15-17,1.82V60.5Z"/><path class="cls-7" d="M283.24,108.08a6.27,6.27,0,0,1-.61-7.67S309.5,62.25,341.5,62.75c0,0-14.75,50.5-51.5,52.25Z"/><path class="cls-6" d="M264.16,157.23l2.11-1.41a11.53,11.53,0,0,0,5.36,4.18H265C262.25,160,261.87,158.75,264.16,157.23Z"/><path class="cls-6" d="M284.79,150.46a10,10,0,0,0-1.83-5.77l2.87-1.92c2.29-1.53,4.16-.52,4.16,2.23v15H277.87C281.89,159,284.79,154.91,284.79,150.46Z"/><path class="cls-8" d="M274.68,150.21a4.41,4.41,0,0,0,7.22-4.82l1.06-.71a10,10,0,0,1,1.83,5.77c0,4.46-2.91,8.54-6.93,9.54h-6.24a11.53,11.53,0,0,1-5.36-4.18Z"/><path class="cls-6" d="M277.87,151.58a4.39,4.39,0,0,1-3.19-1.37l7.22-4.82A4.41,4.41,0,0,1,277.87,151.58Z"/><path class="cls-9" d="M370,60H351c-5.5,0-5.76-1.51-.58-3.36l9.17-3.27C364.76,51.51,369,47.75,369,45s-4.36-3.88-9.68-2.51l-19.46,5c-5.33,1.37-12,4.74-14.76,7.49s-9.35,6.42-14.56,8.16l-11,3.67c-5.22,1.74-11.43,7.22-13.81,12.18l-10.55,22a14.64,14.64,0,0,0-5.17-1h-6.59L250,60.5V380.42a64.79,64.79,0,0,0,20-3.11V378a12,12,0,0,0,12,12h10.17l13.33,10-3.77-10H308c0.28,0,.55,0,0.83,0L320,400l-4.92-12.34a12.09,12.09,0,0,0,4.09-5.31l12,5.65L320,375.48V352a12,12,0,0,0-8.91-11.58A11.88,11.88,0,0,0,308,340h-8c0-.33,0-0.66,0-1,0-2,0-8.91-.09-17.89-0.05-8-.12-17.6-0.22-26.85-0.16-15.87-.39-30.62-0.68-34l6.22,6.22,9.94,9.94,0.11,0.11a11.92,11.92,0,0,0,7.07,3.41l0.64,7,3.66-7.24a11.89,11.89,0,0,0,5.6-3.14l0.27-.27,8,3.77s-2.79-4.38-4.71-7l0.71-.71a11.89,11.89,0,0,0,2.63-4l8.62-4.77-7.78-.43a11.93,11.93,0,0,0-3.47-7.78l-9.73-9.73-13.32-13.32-2.4-2.4a12,12,0,0,0-17,0l-0.64.64a126.55,126.55,0,0,0-6.87-18.67l-12.67,30a11.73,11.73,0,0,1-.59,1.18,11.52,11.52,0,0,0,.59-1.18l1.11-2.62,11.56-27.37,2.33-5.51,1.08-2.54,6.14-14.53A59,59,0,0,0,300,170V150a50.45,50.45,0,0,0-4.47-18.94L290,120h30c5.5,0,11.73-4.15,13.85-9.23l12.31-29.54c2.12-5.08,8.34-9.53,13.82-9.9l10-.67c5.49-.37,10-2.92,10-5.67S375.5,60,370,60ZM270.38,246.58a16,16,0,0,0,2-2.23A15.74,15.74,0,0,1,270.38,246.58Zm0,0a17.84,17.84,0,0,1-3.54,2.52A17.94,17.94,0,0,0,270.37,246.59Zm-3-6.56,0.11-.12Zm0.25-.28,0.14-.18Zm0.28-.35,0.19-.25Zm0.27-.36q0.43-.59,1-1.39C268.8,238.19,268.47,238.66,268.18,239Zm-0.93,1.12-0.07.07Zm-6,10.76A11.61,11.61,0,0,1,260,251,11.48,11.48,0,0,0,261.23,250.93Zm5.47-1.75q-0.57.31-1.17,0.57Q266.13,249.48,266.7,249.18Zm-1.28.62c-0.43.19-.87,0.35-1.31,0.5C264.55,250.15,265,250,265.42,249.8Zm-1.35.51c-0.4.13-.8,0.24-1.2,0.33C263.28,250.55,263.68,250.44,264.07,250.31Zm-1.55.41q-0.47.1-.93,0.16Q262.06,250.81,262.53,250.72Zm9.95-6.47c0.24-.33.46-0.67,0.67-1C272.94,243.58,272.72,243.92,272.48,244.25Zm1.31-14c1.32-2.19,2.73-4.6,4.17-7.08C276.52,225.65,275.1,228.06,273.79,230.25ZM273,231.53l0.76-1.26Zm12.56-21.77,0.69-1.24ZM278.06,223l0.75-1.3Zm0.86-1.49,0.73-1.27Zm0.87-1.51,0.82-1.43Zm0.82-1.44,1.68-2.95Zm1.85-3.25,0.59-1Zm0.88-1.56,0.47-.83Zm0.8-1.43,0.4-.72Zm0.73-1.3,0.48-.86Z"/><path class="cls-1" d="M163.75,465.94V465h5.63v1.88h1.88v1.88h1.88v5.63h-1.87v1.88h-1.87v1.88h-5.62v-1.87h-1.87v-1.87H160v-5.62h1.88v-1.87h1.88v-0.94Zm3.75,1.88v-0.94h-3.75v7.5h1.88v1.88h3.75v-7.5H167.5v-0.94Z"/><path class="cls-1" d="M176.88,465.94V465h11.25v1.88h-1.87v1.88h-1.87v1.88h1.88v1.88h1.88v3.75h-1.87v1.88h-9.37v-1.87H175v-1.87h3.75v1.88h5.63V472.5h-5.62v-1.87h1.88v-1.87h1.88v-1.87h-5.62v-0.94Z"/><path class="cls-1" d="M191.88,465.94V465h11.25v1.88h-1.87v1.88h-1.87v1.88h1.88v1.88h1.88v3.75h-1.87v1.88h-9.37v-1.87H190v-1.87h3.75v1.88h5.63V472.5h-5.62v-1.87h1.88v-1.87h1.88v-1.87h-5.62v-0.94Z"/><path class="cls-1" d="M220,471.56V465h3.75v1.88h1.88v1.88h1.88v1.88h1.88V465h3.75v13.13h-3.75v-1.87H227.5v-1.87h-1.87V472.5h-1.87v5.63H220v-6.56Z"/><path class="cls-1" d="M236.88,465.94V465h11.25v1.88h-3.75v9.38h3.75v1.88H236.88v-1.87h3.75v-9.37h-3.75v-0.94Z"/><path class="cls-1" d="M250,471.56V465h9.38v1.88h1.88v1.88h1.88v5.63h-1.87v1.88h-1.87v1.88H250v-6.56Zm7.5-3.75v-0.94h-3.75v9.38h3.75v-1.87h1.88v-5.62H257.5v-0.94Z"/><path class="cls-1" d="M266.88,465.94V465h9.38v1.88h1.88v9.38h-1.87v1.88h-9.37v-1.87H265v-9.37h1.88v-0.94Zm7.5,5.63v-4.69h-5.62v9.38h5.63v-4.69Z"/><path class="cls-1" d="M280,471.56V465h11.25v1.88h1.88v5.63h-3.75v1.88h1.88v1.88h1.88v1.88H287.5v-1.87h-1.87v-1.87h-1.87v3.75H280v-6.56Zm9.38-2.81v-1.87h-5.62v5.63h3.75v-1.87h1.88v-1.87Z"/><path class="cls-1" d="M296.88,465.94V465h11.25v1.88h-3.75v9.38h3.75v1.88H296.88v-1.87h3.75v-9.37h-3.75v-0.94Z"/><path class="cls-1" d="M310,471.56V465h3.75v1.88h1.88v1.88h1.88v1.88h1.88V465h3.75v13.13h-3.75v-1.87H317.5v-1.87h-1.87V472.5h-1.87v5.63H310v-6.56Z"/><path class="cls-1" d="M326.88,465.94V465h9.38v1.88h1.88v9.38h-1.87v1.88h-9.37v-1.87H325v-9.37h1.88v-0.94Zm7.5,5.63v-4.69h-5.62v9.38h5.63v-4.69Z"/></svg>