<?xml version="1.0" ?><svg id="pkft" viewBox="0 0 500 500" xmlns="http://www.w3.org/2000/svg"><defs><style>.cls-1{fill:#9d7bad;}.cls-2{fill:#a883b7;}.cls-3{fill:#7ebbc4;}.cls-4{fill:#538d90;}.cls-5{fill:#fff;}.cls-6{fill:#1a1a1a;}.cls-7{fill:#de8081;}.cls-8{fill:#cec1b3;}.cls-9{fill:#d3cabe;}.cls-10{fill:#ddd5ca;}.cls-11{fill:#d5d4d4;}.cls-12{fill:#9476a5;}.cls-13{fill:#1d1d1b;opacity:0.1;}</style></defs><title/><path class="cls-1" d="M160.28,236.54c-0.05,1.75-1.18,111.79-.08,113.46,20.13,30.42,44.9,29.67,89.8,29.67V118.44C201.7,118.44,162.3,170.89,160.28,236.54Z"/><path class="cls-2" d="M237.32,239.39l0.11,0.34Z"/><path class="cls-2" d="M247.51,53c-1.37,0-3,1.72-3.72,3.89L237.23,78a63.59,63.59,0,0,0-24.17,6.45l-3.3-11a7.92,7.92,0,0,0-5.23-4.91s-37-8.59-45.68-14L121.49,62c-2.23.45-2.33,1.5-.22,2.35l8.88,3.55a6.31,6.31,0,0,1,3.69,5.68s-0.06,1.64.1,4.37c10.83-29,70.37,16.34,70.37,16.34l-11.58,20.27-11.44,20h0l-3.81,6.66a8.68,8.68,0,0,0-.2,7.3l21.15,42.3a11.82,11.82,0,0,0,5.78,5.16s20.93,7,29.21,32H250V53h-2.49Z"/><path class="cls-3" d="M163.24,71.13h0c-12.93-4.48-25-4.73-29.3,6.82,0.75,13,6.45,50.9,47.35,56.63l5.18-9.06C141.58,105.38,163.24,71.13,163.24,71.13Z"/><polygon class="cls-4" points="204.31 94.3 186.47 125.53 186.47 125.53 204.31 94.3"/><path class="cls-4" d="M163.24,71.13h0s-21.66,34.25,23.23,54.39L204.31,94.3S182.77,77.9,163.24,71.13Z"/><path class="cls-5" d="M214.28,134A17.35,17.35,0,0,1,218,127l-9.56-4.48L205.8,139a2.49,2.49,0,0,0,2.07,2.84l6.48,1A17.26,17.26,0,0,1,214.28,134Z"/><path class="cls-6" d="M237.4,136.08l-7.6-3.56c-2.4,2.66-5,9.53-5,9.53-1.25-3.21.82-8.55,1.91-11L218,127a17.47,17.47,0,0,0-3.61,15.93l21.35,3.36a2.49,2.49,0,0,0,2.84-2.07l0.72-4.59A3.52,3.52,0,0,0,237.4,136.08Z"/><path class="cls-5" d="M224.83,142s2.56-6.88,5-9.53l-3.05-1.43C225.66,133.5,223.58,138.84,224.83,142Z"/><path class="cls-5" d="M221.59,169.68c-0.94-4.37-1.83-7.85-1.83-7.85-5.39,8.08-2.9,15.33-2.9,15.33A8.28,8.28,0,0,1,221.59,169.68Z"/><path class="cls-5" d="M221.59,169.68a8.28,8.28,0,0,0-4.73,7.48,29.56,29.56,0,0,0,6,9.81C224.79,186.36,223.13,176.83,221.59,169.68Z"/><path class="cls-7" d="M250,185.45c-13.53-1.38-16.57-8.29-16.57-8.29a8.27,8.27,0,0,0-11.84-7.48c1.54,7.15,3.2,16.68,1.28,17.28,0.65,0.74,1.37,1.5,2.16,2.26l2.61-3.79s-0.53,3.12-.85,5.39c0.56,0.48,1.13,1,1.75,1.44l2.42-3.52s-0.43,2.57-.76,4.74q1.53,1.08,3.29,2.12l2.44-3.55s-0.4,2.39-.72,4.51q1.72,0.92,3.65,1.77l2-3s-0.3,1.76-.58,3.59a63.51,63.51,0,0,0,9.7,3V185.45Z"/><path class="cls-5" d="M225,189.23c0.55,0.53,1.13,1.07,1.75,1.61,0.33-2.27.85-5.39,0.85-5.39Z"/><path class="cls-5" d="M228.52,192.28c0.53,0.41,1.09.82,1.66,1.23,0.33-2.17.76-4.74,0.76-4.74Z"/><path class="cls-5" d="M233.47,195.62q0.83,0.49,1.72,1c0.32-2.12.72-4.51,0.72-4.51Z"/><path class="cls-5" d="M238.84,198.36L240.3,199c0.29-1.84.58-3.59,0.58-3.59Z"/><circle class="cls-6" cx="243.16" cy="173.85" r="1.07"/><path class="cls-8" d="M200,345a5,5,0,0,0,5,5h45V330H200v15Z"/><path class="cls-9" d="M248.82,300A12,12,0,0,1,237,310H191v15c0,2.75,2.34,5,5.6,5H250V300h-1.18Z"/><path class="cls-10" d="M238,234H185a12,12,0,0,0-12,12v52a12,12,0,0,0,12,12h53a12,12,0,0,0,11.82-10,11.9,11.9,0,0,0,.18-2V246A12,12,0,0,0,238,234Z"/><path class="cls-11" d="M119.64,339.28L114,336.73c-0.06,7.23,8.6,16.94,8.6,16.94l1.87-13.34A11.88,11.88,0,0,1,119.64,339.28Z"/><path class="cls-11" d="M108.56,346.66L110.19,335,100,330.44C100.46,337.58,108.56,346.66,108.56,346.66Z"/><path class="cls-11" d="M87.54,323.12c-2,6.72.82,17.21,0.82,17.21l8-11.55-4-1.81A11.89,11.89,0,0,1,87.54,323.12Z"/><path class="cls-1" d="M159.75,180a36.74,36.74,0,0,0-29.25,59L119.25,261.5a12,12,0,0,0-13.72,6.75L86.25,311.11a12,12,0,0,0,1.29,12A11.89,11.89,0,0,0,92.28,327l4,1.81,3.67,1.65,10.2,4.59,3.77,1.7,5.68,2.55a11.88,11.88,0,0,0,4.79,1,12,12,0,0,0,11.08-7.07l19.27-42.87a12,12,0,0,0-3.06-14l11.09-23.07A36.75,36.75,0,0,0,159.75,180Z"/><path class="cls-12" d="M219.83,360.67A39.24,39.24,0,1,0,150,385.18V428a12,12,0,0,0,12,12h37.5c6.6,0,11.5-5.4,11.5-12V385.18C217,378.46,219.83,369.94,219.83,360.67Z"/><polygon class="cls-11" points="159.72 440 180 430 199.5 440 159.72 440"/><path class="cls-1" d="M339.82,236.54c0.05,1.75,1.13,111.79,0,113.46C319.72,380.42,295,379.67,250,379.67V118.44C299,118.44,337.8,170.89,339.82,236.54Z"/><path class="cls-2" d="M262.88,239.39l-0.11.34Z"/><path class="cls-2" d="M252.69,53c1.37,0,3,1.72,3.72,3.89L263,78a63.59,63.59,0,0,1,24.17,6.45l3.3-11a7.92,7.92,0,0,1,5.23-4.91s37-8.59,45.68-14L378.72,62c2.23,0.45,2.33,1.5.22,2.35l-8.88,3.55a6.31,6.31,0,0,0-3.69,5.68s0.06,1.64-.1,4.37C355.44,49,295.9,94.3,295.9,94.3l11.58,20.27,11.44,20h0l3.81,6.66a8.68,8.68,0,0,1,.2,7.3l-21.15,42.3A11.82,11.82,0,0,1,296,196s-20.93,7-29.21,32H250V53h2.69Z"/><path class="cls-3" d="M337,71.13h0c12.93-4.48,25-4.73,29.3,6.82-0.75,13-6.45,50.9-47.35,56.63l-5.18-9.06C358.63,105.38,337,71.13,337,71.13Z"/><polygon class="cls-4" points="295.9 94.3 313.74 125.53 313.74 125.53 295.9 94.3"/><path class="cls-4" d="M337,71.13h0s21.66,34.25-23.23,54.39L295.9,94.3S317.44,77.9,337,71.13Z"/><path class="cls-5" d="M285.92,134a17.35,17.35,0,0,0-3.67-7.07l9.56-4.48,2.6,16.55a2.49,2.49,0,0,1-2.07,2.84l-6.48,1A17.26,17.26,0,0,0,285.92,134Z"/><path class="cls-6" d="M262.81,136.08l7.6-3.56c2.4,2.66,5,9.53,5,9.53,1.25-3.21-.82-8.55-1.91-11l8.79-4.12a17.47,17.47,0,0,1,3.61,15.93l-21.35,3.36a2.49,2.49,0,0,1-2.84-2.07l-0.72-4.59A3.52,3.52,0,0,1,262.81,136.08Z"/><path class="cls-5" d="M275.38,142s-2.56-6.88-5-9.53l3.05-1.43C274.55,133.5,276.63,138.84,275.38,142Z"/><path class="cls-5" d="M278.62,169.68c0.94-4.37,1.83-7.85,1.83-7.85,5.39,8.08,2.9,15.33,2.9,15.33A8.28,8.28,0,0,0,278.62,169.68Z"/><path class="cls-5" d="M278.62,169.68a8.28,8.28,0,0,1,4.73,7.48,29.56,29.56,0,0,1-6,9.81C275.42,186.36,277.08,176.83,278.62,169.68Z"/><path class="cls-7" d="M250,185.45c14-1.38,16.68-8.29,16.68-8.29a8.33,8.33,0,0,1,11.92-7.48c-1.54,7.15-3.18,16.68-1.26,17.28-0.65.74-1.37,1.5-2.15,2.26l-2.6-3.79s0.53,3.12.86,5.39c-0.56.48-1.13,1-1.75,1.44l-2.42-3.52s0.43,2.57.76,4.74q-1.53,1.08-3.29,2.12l-2.44-3.55s0.4,2.39.72,4.51q-1.72.92-3.65,1.77l-2-3s0.19,1.76.48,3.59a53.09,53.09,0,0,1-9.8,3V185.45Z"/><path class="cls-5" d="M275.19,189.23c-0.55.53-1.13,1.07-1.75,1.61-0.33-2.27-.85-5.39-0.85-5.39Z"/><path class="cls-5" d="M271.69,192.28c-0.53.41-1.09,0.82-1.66,1.23-0.33-2.17-.76-4.74-0.76-4.74Z"/><path class="cls-5" d="M266.74,195.62q-0.83.49-1.72,1c-0.32-2.12-.72-4.51-0.72-4.51Z"/><path class="cls-5" d="M261.37,198.36l-1.46.62c-0.29-1.84-.58-3.59-0.58-3.59Z"/><circle class="cls-6" cx="257.04" cy="173.85" r="1.07"/><path class="cls-8" d="M300,345a4.84,4.84,0,0,1-4.79,5H250V330h50v15Z"/><path class="cls-9" d="M251.39,300a11.72,11.72,0,0,0,11.82,10H309v15a5,5,0,0,1-5.39,5H250V300h1.39Z"/><path class="cls-10" d="M262.21,234h53A11.86,11.86,0,0,1,327,246v52a11.86,11.86,0,0,1-11.79,12h-53a12.15,12.15,0,0,1-11.92-10,12,12,0,0,1-.29-2V246A12.21,12.21,0,0,1,262.21,234Z"/><path class="cls-11" d="M380.57,339.28l5.68-2.55c0.06,7.23-8.6,16.94-8.6,16.94l-1.87-13.34A11.88,11.88,0,0,0,380.57,339.28Z"/><path class="cls-11" d="M391.65,346.66L390,335l10.2-4.59C399.75,337.58,391.65,346.66,391.65,346.66Z"/><path class="cls-11" d="M412.67,323.12c2,6.72-.82,17.21-0.82,17.21l-8-11.55,4-1.81A11.89,11.89,0,0,0,412.67,323.12Z"/><path class="cls-1" d="M340.45,180a36.74,36.74,0,0,1,29.25,59L381,261.5a12,12,0,0,1,13.72,6.75L414,311.11a12,12,0,0,1-1.29,12,11.89,11.89,0,0,1-4.74,3.85l-4,1.81-3.67,1.65L390,335l-3.77,1.7-5.68,2.55a11.88,11.88,0,0,1-4.79,1,12,12,0,0,1-11.08-7.07l-19.27-42.87a12,12,0,0,1,3.06-14L337.4,253.36A36.75,36.75,0,0,1,340.45,180Z"/><path class="cls-12" d="M280.27,360.67a39.23,39.23,0,1,1,78.45,0c0,9.27-2.72,17.79-8.72,24.51V428a11.86,11.86,0,0,1-11.79,12h-37.5A11.79,11.79,0,0,1,289,428V385.18C283,378.46,280.27,369.94,280.27,360.67Z"/><polygon class="cls-11" points="340.49 440 320.21 430 300.71 440 340.49 440"/><path class="cls-13" d="M414,311.11l-19.27-42.87A12,12,0,0,0,381,261.5L369.7,239a36.75,36.75,0,0,0-41-57.07,130.7,130.7,0,0,0-11.4-22.17l5.6-11.2a8.68,8.68,0,0,0-.2-7.3l-3.81-6.66c40.9-5.73,46.6-43.63,47.35-56.63h0c0.16-2.73.1-4.37,0.1-4.37a6.31,6.31,0,0,1,3.69-5.68l8.88-3.55c2.12-.85,2-1.9-0.22-2.35l-37.37-7.47c-8.7,5.39-45.68,14-45.68,14a7.93,7.93,0,0,0-5.23,4.91l-3.3,11A63.59,63.59,0,0,0,263,78l-6.57-21.08c-0.68-2.18-2.35-3.89-3.72-3.89H250V379.67c13.17,0,24.6.06,34.69-.61a32.89,32.89,0,0,0,4.31,6.12V428a11.79,11.79,0,0,0,11.71,12h39.78l-0.35-.17A11.89,11.89,0,0,0,350,428V385.18c6-6.72,8.72-15.24,8.72-24.51a39.3,39.3,0,0,0-18.39-33.35c0.05-19.91-.13-48.67-0.3-68.47l8.45,17.58a12,12,0,0,0-3.06,14l19.27,42.87a12,12,0,0,0,11.08,7.07l1.87,13.34s8.66-9.71,8.6-16.94L390,335l1.63,11.63s8.1-9.09,8.58-16.22l3.67-1.65,8,11.55s2.84-10.5.82-17.21A12,12,0,0,0,414,311.11ZM296.87,93.58c4.39-3.23,23-16.52,40.09-22.44C319.88,77.06,301.27,90.34,296.87,93.58Zm44.92-23.92,1-.26Zm1.28-.32,1-.23Zm1.17-.26q1.54-.32,3-0.52Q345.78,68.76,344.24,69.08Zm3.38-.57,0.8-.09Zm1.24-.13,0.76-.06Zm16.91,8.38-0.17-.35Zm-0.56-1.12L365,75.28Zm-0.64-1.07-0.2-.3Zm-0.87-1.2-0.06-.07ZM363,72.55l-0.26-.26Zm-0.79-.75-0.3-.26Zm-0.87-.69L361,70.9Zm-1.15-.76L360,70.24Zm-0.93-.49-0.38-.17Zm-1-.42-0.42-.16Zm-1-.36L356.8,69Zm-1.36-.36-0.48-.09Zm-1.13-.21-0.54-.07Zm-1.11-.14-0.58,0Zm-1.14-.08-0.61,0Zm-1.13,0-1.27,0Zm-9.65,1.41c-1.55.41-3.12,0.89-4.71,1.44C338.58,70.58,340.15,70.09,341.7,69.68ZM296,94.26l-0.06,0Zm0.89-.66-0.38.28Zm-0.43.32-0.23.17Zm-0.3.22-0.14.11Z"/><path class="cls-1" d="M163.75,465.94V465h5.63v1.88h1.88v1.88h1.88v5.63h-1.87v1.88h-1.87v1.88h-5.62v-1.87h-1.87v-1.87H160v-5.62h1.88v-1.87h1.88v-0.94Zm3.75,1.88v-0.94h-3.75v7.5h1.88v1.88h3.75v-7.5H167.5v-0.94Z"/><path class="cls-1" d="M176.88,465.94V465h11.25v1.88h-1.87v1.88h-1.87v1.88h1.88v1.88h1.88v3.75h-1.87v1.88h-9.37v-1.87H175v-1.87h3.75v1.88h5.63V472.5h-5.62v-1.87h1.88v-1.87h1.88v-1.87h-5.62v-0.94Z"/><path class="cls-1" d="M195.63,465.94V465h5.63v7.5h1.88v1.88h-1.87v3.75H197.5v-3.75H190v-3.75h1.88v-1.87h1.88v-1.87h1.88v-0.94Zm1.88,4.69v-1.87h-1.87v1.88h-1.87v1.88h3.75v-1.87Z"/><path class="cls-1" d="M220,471.56V465h3.75v1.88h1.88v1.88h1.88v1.88h1.88V465h3.75v13.13h-3.75v-1.87H227.5v-1.87h-1.87V472.5h-1.87v5.63H220v-6.56Z"/><path class="cls-1" d="M236.88,465.94V465h11.25v1.88h-3.75v9.38h3.75v1.88H236.88v-1.87h3.75v-9.37h-3.75v-0.94Z"/><path class="cls-1" d="M250,471.56V465h9.38v1.88h1.88v1.88h1.88v5.63h-1.87v1.88h-1.87v1.88H250v-6.56Zm7.5-3.75v-0.94h-3.75v9.38h3.75v-1.87h1.88v-5.62H257.5v-0.94Z"/><path class="cls-1" d="M266.88,465.94V465h9.38v1.88h1.88v9.38h-1.87v1.88h-9.37v-1.87H265v-9.37h1.88v-0.94Zm7.5,5.63v-4.69h-5.62v9.38h5.63v-4.69Z"/><path class="cls-1" d="M280,471.56V465h3.75v5.63h1.88v-1.87h1.88v-1.87h1.88V465h3.75v1.88h-1.87v1.88h-1.87v1.88H287.5v1.88h1.88v1.88h1.88v1.88h1.88v1.88H287.5v-1.87h-1.87v-1.87h-1.87v3.75H280v-6.56Z"/><path class="cls-1" d="M296.88,465.94V465h11.25v1.88h-3.75v9.38h3.75v1.88H296.88v-1.87h3.75v-9.37h-3.75v-0.94Z"/><path class="cls-1" d="M310,471.56V465h3.75v1.88h1.88v1.88h1.88v1.88h1.88V465h3.75v13.13h-3.75v-1.87H317.5v-1.87h-1.87V472.5h-1.87v5.63H310v-6.56Z"/><path class="cls-1" d="M328.75,465.94V465h9.38v1.88h-7.5v1.88h-1.87v5.63h1.88v1.88h3.75V472.5H332.5v-1.87h5.63v7.5h-9.37v-1.87h-1.87v-1.87H325v-5.62h1.88v-1.87h1.88v-0.94Z"/></svg>