<?xml version="1.0" ?><svg id="pkft" viewBox="0 0 500 500" xmlns="http://www.w3.org/2000/svg"><defs><style>.cls-1{fill:#edd1d8;}.cls-2{fill:#dcefe7;}.cls-3{fill:#6461ab;}.cls-4{fill:#fff;}.cls-5{fill:none;stroke:#333;stroke-linecap:round;stroke-linejoin:round;}.cls-6{fill:#af4f57;}.cls-7{fill:#f2819c;}.cls-8{fill:#836728;}.cls-9{fill:#d9c6f7;}.cls-10{fill:#1a1a1a;opacity:0.1;}.cls-11{fill:#e99ea2;}</style></defs><title/><path class="cls-1" d="M250,132.43c-14.4,0-26.39,8.54-29,19.84l-0.55.25c-6.31-4.66-16.79-12.12-27-18.22-6.71,6.61-15.93,18.09-23.62,36.3,1.1,10.89,3.24,21.11,7.14,27.34a107.53,107.53,0,0,0-4.9,13c-10.23-4.59-25-10.95-36.2-14.63,0.72-2.73.5-4.89-.78-5.49-1.43-.67-3.79.82-5.95,3.51-3.65-.91-6.47-1.24-7.92-0.72a1.72,1.72,0,0,0-.87.6L118.42,197l-3.31,4.75-2.72,3.9-0.57.82c-4.23,6.06,48.33,44.26,48.33,44.26a14.93,14.93,0,0,0,7.34,2.05c1.59,22.12,9.35,42.16,21.25,57.66-2.17,13.57-4.84,36.37-1.76,53,6.62-5.5,15.78-8.76,25,1.84,5.93-6.49,15.34-17,21.11-24.79a70.64,70.64,0,0,0,16.89,2V155.32a20.32,20.32,0,0,1-12.89-4.69A34.44,34.44,0,0,0,250,153.14V132.43Z"/><path class="cls-2" d="M121.22,193.62l-7.1-1.25,4.31,4.62,1.93-2.77A1.72,1.72,0,0,1,121.22,193.62Z"/><polygon class="cls-2" points="108 198.46 112.39 205.64 115.11 201.74 108 198.46"/><path class="cls-3" d="M230.48,208.95c0-3.78-1.86-6.84-4.15-6.84s-4.15,3.06-4.15,6.84c1.07,2.07,2.53,3.34,4.15,3.34S229.41,211,230.48,208.95Z"/><path d="M229,190.25a13,13,0,0,1,.1,1.59c0,3.35-1.23,6.07-2.76,6.07s-2.76-2.72-2.76-6.07a13,13,0,0,1,.1-1.59c-1.93,1.92-3.26,5.85-3.26,10.39a18.54,18.54,0,0,0,1.77,8.3c0-3.78,1.86-6.84,4.15-6.84s4.15,3.06,4.15,6.84a18.54,18.54,0,0,0,1.77-8.3C232.25,196.1,230.92,192.17,229,190.25Z"/><path class="cls-4" d="M226.33,197.92c1.52,0,2.76-2.72,2.76-6.07a13,13,0,0,0-.1-1.59,3.45,3.45,0,0,0-5.31,0,13,13,0,0,0-.1,1.59C223.58,195.2,224.81,197.92,226.33,197.92Z"/><path class="cls-5" d="M214.5,189.73s-13.9,36,11.83,32.75"/><path class="cls-6" d="M250,255.23c-7.89,0-23.67-6.19-23.67-6.19s15.68,13,23.67,14.1"/><ellipse class="cls-7" cx="199.12" cy="233.4" rx="15.09" ry="6"/><path class="cls-2" d="M187,363.81A51.45,51.45,0,0,0,190.83,376h5.92c3.25,0,7.66-2.2,9.8-4.46,0,0,2.21-2.34,5.45-5.89C202.75,355,193.59,358.3,187,363.81Z"/><path class="cls-8" d="M169.53,124.23s-1.92,24.51.29,46.38c7.69-18.21,16.91-29.68,23.62-36.3C184.06,128.69,174.92,124.23,169.53,124.23Z"/><path class="cls-9" d="M250,155.32v-2.18a34.44,34.44,0,0,1-12.89-2.51A20.32,20.32,0,0,0,250,155.32Z"/><path class="cls-1" d="M250,132.43c14.2,0,26.39,8.54,29,19.84l0.55,0.25c6.31-4.66,16.79-12.12,27-18.22,6.71,6.61,15.93,18.09,23.62,36.3-1.1,10.89-3.24,21.11-7.14,27.34a107.53,107.53,0,0,1,4.9,13c10.23-4.59,25-10.95,36.2-14.63-0.72-2.73-.5-4.89.78-5.49,1.43-.67,3.79.82,5.95,3.51,3.65-.91,6.47-1.24,7.92-0.72a1.72,1.72,0,0,1,.87.6l1.93,2.77,3.31,4.75,2.72,3.9,0.57,0.82c4.23,6.06-48.33,44.26-48.33,44.26a14.93,14.93,0,0,1-7.34,2.05c-1.59,22.12-9.35,42.16-21.25,57.66,2.17,13.57,4.84,36.37,1.76,53-6.62-5.5-15.78-8.76-25,1.84-5.93-6.49-15.34-17-21.11-24.79a70.64,70.64,0,0,1-16.89,2V155.32a20.32,20.32,0,0,0,12.89-4.69A33.64,33.64,0,0,1,250,153.14V132.43Z"/><path class="cls-2" d="M378.78,193.62l7.1-1.25L381.58,197l-1.93-2.77A1.72,1.72,0,0,0,378.78,193.62Z"/><polygon class="cls-2" points="392 198.46 387.61 205.64 384.89 201.74 392 198.46"/><path class="cls-3" d="M269.52,208.95c0-3.78,1.86-6.84,4.15-6.84s4.15,3.06,4.15,6.84c-1.07,2.07-2.53,3.34-4.15,3.34S270.59,211,269.52,208.95Z"/><path d="M271,190.25a13,13,0,0,0-.1,1.59c0,3.35,1.23,6.07,2.76,6.07s2.76-2.72,2.76-6.07a13,13,0,0,0-.1-1.59c1.93,1.92,3.26,5.85,3.26,10.39a18.54,18.54,0,0,1-1.77,8.3c0-3.78-1.86-6.84-4.15-6.84s-4.15,3.06-4.15,6.84a18.54,18.54,0,0,1-1.77-8.3C267.75,196.1,269.08,192.17,271,190.25Z"/><path class="cls-4" d="M273.67,197.92c-1.52,0-2.76-2.72-2.76-6.07a13,13,0,0,1,.1-1.59,3.45,3.45,0,0,1,5.31,0,13,13,0,0,1,.1,1.59C276.42,195.2,275.19,197.92,273.67,197.92Z"/><path class="cls-5" d="M285.5,189.73s13.9,36-11.83,32.75"/><path class="cls-6" d="M250,255.23c7.89,0,23.67-6.19,23.67-6.19s-15.68,13-23.67,14.1"/><ellipse class="cls-7" cx="300.88" cy="233.4" rx="15.09" ry="6"/><path class="cls-2" d="M313,363.81A51.45,51.45,0,0,1,309.17,376h-5.92c-3.25,0-7.66-2.2-9.8-4.46,0,0-2.21-2.34-5.45-5.89C297.25,355,306.41,358.3,313,363.81Z"/><path class="cls-8" d="M330.47,124.23s1.92,24.51-.29,46.38c-7.69-18.21-16.91-29.68-23.62-36.3C315.94,128.69,325.08,124.23,330.47,124.23Z"/><path class="cls-9" d="M250,155.32v-2.18a33.64,33.64,0,0,0,12.89-2.51A20.5,20.5,0,0,1,250,155.32Z"/><path class="cls-10" d="M387.61,205.64l4.39-7.18-7.11,3.28L381.58,197l4.3-4.62-7.1,1.25c-1.45-.52-4.27-0.18-7.92.72-2.16-2.69-4.51-4.18-5.95-3.51-1.28.59-1.5,2.75-.78,5.49-11.19,3.68-26,10-36.2,14.63a107.39,107.39,0,0,0-4.9-13c3.9-6.22,6-16.44,7.14-27.34,2.21-21.87.29-46.38,0.29-46.38-5.38,0-14.52,4.46-23.91,10.08-10.18,6.1-20.66,13.56-27,18.22l-0.55-.25c-2.65-11.31-14.83-19.84-29-19.84v22.89a20.5,20.5,0,0,0,12.89-4.69A20.32,20.32,0,0,1,250,155.32V342.56a70.64,70.64,0,0,0,16.89-2c5.77,7.74,15.18,18.3,21.11,24.79,3.24,3.55,5.45,6.23,5.45,6.23,2.14,2.27,6.54,4.46,9.8,4.46h5.92A51.45,51.45,0,0,0,313,363.81c3.08-16.66.41-39.63-1.76-53.2,11.9-15.5,19.65-35.62,21.25-57.74a15,15,0,0,0,7.34-2.1s52.55-38.22,48.33-44.28Z"/><path class="cls-11" d="M163.75,465.94V465h5.63v1.88h1.88v1.88h1.88v5.63h-1.87v1.88h-1.87v1.88h-5.62v-1.87h-1.87v-1.87H160v-5.62h1.88v-1.87h1.88v-0.94Zm3.75,1.88v-0.94h-3.75v7.5h1.88v1.88h3.75v-7.5H167.5v-0.94Z"/><path class="cls-11" d="M176.88,465.94V465h11.25v1.88h-1.87v1.88h-1.87v1.88h1.88v1.88h1.88v3.75h-1.87v1.88h-9.37v-1.87H175v-1.87h3.75v1.88h5.63V472.5h-5.62v-1.87h1.88v-1.87h1.88v-1.87h-5.62v-0.94Z"/><path class="cls-11" d="M190,467.81V465h11.25v1.88h-7.5v1.88h7.5v1.88h1.88v5.63h-1.87v1.88h-9.37v-1.87H190v-1.87h3.75v1.88h5.63v-5.62H190v-2.81Z"/><path class="cls-11" d="M223.75,465.94V465h7.5v1.88h1.88v1.88h-3.75v-1.87h-3.75v1.88h-1.87v5.63h1.88v1.88h3.75v-1.87h3.75v1.88h-1.87v1.88h-7.5v-1.87h-1.87v-1.87H220v-5.62h1.88v-1.87h1.88v-0.94Z"/><path class="cls-11" d="M236.88,471.56V465h3.75v11.25h7.5v1.88H236.88v-6.56Z"/><path class="cls-11" d="M250,471.56V465h13.13v1.88h-9.37v3.75h7.5v1.88h-7.5v3.75h9.38v1.88H250v-6.56Z"/><path class="cls-11" d="M265,471.56V465h13.13v1.88h-9.37v3.75h7.5v1.88h-7.5v5.63H265v-6.56Z"/><path class="cls-11" d="M283.75,465.94V465h5.63v1.88h1.88v1.88h1.88v9.38h-3.75v-3.75h-5.62v3.75H280v-9.37h1.88v-1.87h1.88v-0.94Zm3.75,1.88v-0.94h-1.87v1.88h-1.87v3.75h5.63v-3.75H287.5v-0.94Z"/><path class="cls-11" d="M296.88,465.94V465h11.25v1.88h-3.75v9.38h3.75v1.88H296.88v-1.87h3.75v-9.37h-3.75v-0.94Z"/><path class="cls-11" d="M310,471.56V465h11.25v1.88h1.88v5.63h-3.75v1.88h1.88v1.88h1.88v1.88H317.5v-1.87h-1.87v-1.87h-1.87v3.75H310v-6.56Zm9.38-2.81v-1.87h-5.62v5.63h3.75v-1.87h1.88v-1.87Z"/><path class="cls-11" d="M326.88,467.81V465h3.75v5.63h3.75V465h3.75v5.63h-1.87v1.88h-1.87v5.63h-3.75V472.5h-1.87v-1.87h-1.87v-2.81Z"/></svg>