<?xml version="1.0" ?><svg id="pkft" viewBox="0 0 500 500" xmlns="http://www.w3.org/2000/svg"><defs><style>.cls-1{fill:#f498a3;}.cls-2{fill:#e8c8d1;}.cls-3{fill:#b3b3b3;}.cls-4{fill:#483f3a;}.cls-5{fill:#bfb5c6;}.cls-11,.cls-6{fill:#1a1a1a;}.cls-7{fill:#6461ab;}.cls-8{fill:#fff;}.cls-9{fill:none;stroke:#1a1a1a;stroke-linecap:round;stroke-linejoin:round;}.cls-10{fill:#de8080;}.cls-11{opacity:0.1;}</style></defs><title/><path class="cls-1" d="M129.8,205.39L101,207.11c-8.24.49-9.19,4.37-2.11,8.61l24.28,14.57c7.07,4.24,6.81,10.7-.59,14.35L114,248.87c-7.4,3.65-6.73,6.06,1.49,5.35l54.83-4.7c0.26-5.33.68-10.63,1.31-15.86Z"/><path class="cls-2" d="M241.64,124.5a2.73,2.73,0,0,1,.1-0.69c0.6,2.27,4.06,4,8.26,4V109.67a19.65,19.65,0,0,0-17.7,11.14c-8.33-9.87-22.14-26-34.94-40l-10.73-3a8.32,8.32,0,0,0-10.84,7.2L174.55,95c6.22,23.24,14.6,50.68,19.62,66.77q-3.5,6.15-6.58,12.95T182,188.61l-19.52-13.28-4.7-15.82c-0.63-2.11-2.19-2.37-3.48-.59l-5.24,7.27s-10.62-4.54-12.51-2.54L133,162.13l-13.73-5.75c-1.77-1.31-2.32-.82-1.21,1.09l4.88,20.79-16.2-6.72c-2-.84-2.65-0.07-1.37,1.73,0,0,6.54,20,8.82,21.54l15.66,10.59,41.79,28.26c-0.63,5.23-1.06,10.53-1.31,15.86-0.17,3.48-.28,7-0.28,10.48,0,39.63,10.91,72.06,28.12,93.17l-7.41,51.88a6.24,6.24,0,0,0,4,6.53l20.51,6.84a6,6,0,0,0,7-2.89s10.12-20.25,17.93-36.34A59.75,59.75,0,0,0,250,380V129.2C245.38,129.2,241.64,127.09,241.64,124.5Z"/><path class="cls-3" d="M194.62,411.71l7.88-7.58c0.79-.76,1.58-0.5,1.75.59l0.78,4.92a1.27,1.27,0,0,0,2,1l4.2-2.46a1,1,0,0,1,1.73,1V418"/><path class="cls-4" d="M186.62,77.72l10.73,3c-14-15.32-26.77-28.08-29.85-27.26-2.9.77,1.08,19.2,7.05,41.51l1.23-10.08A8.32,8.32,0,0,1,186.62,77.72Z"/><path class="cls-1" d="M149.09,166.18l5.24-7.27c1.29-1.78,2.85-1.52,3.48.59l4.7,15.82L182,188.61q2.55-7.2,5.57-13.87L115,126.32c-6.86-4.58-8.65-2.76-4,4L133,162.13l3.63,1.52C138.46,161.64,149.09,166.18,149.09,166.18Z"/><path class="cls-5" d="M241.74,123.8a2.73,2.73,0,0,0-.1.69c0,2.6,3.74,4.7,8.36,4.7v-1.39C245.8,127.81,242.34,126.07,241.74,123.8Z"/><path class="cls-6" d="M230,178c1.32,0,2.51,1.54,3.36,4a28.58,28.58,0,0,0,1.3-9c0-7.18-2.09-13-4.67-13s-4.67,5.82-4.67,13a28.58,28.58,0,0,0,1.3,9C227.49,179.54,228.68,178,230,178Z"/><path class="cls-7" d="M230,186c1.32,0,2.51-1.54,3.36-4-0.85-2.46-2-4-3.36-4s-2.51,1.54-3.36,4C227.49,184.46,228.68,186,230,186Z"/><ellipse class="cls-8" cx="230" cy="164.67" rx="2.67" ry="4.33"/><path class="cls-9" d="M213.19,172.33S207,193,230,193.33"/><path class="cls-10" d="M250,280V210H210S205.25,280,250,280Z"/><path class="cls-1" d="M370.32,205.39l28.83,1.72c8.24,0.49,9.19,4.37,2.11,8.61L377,230.28c-7.07,4.24-6.81,10.7.59,14.35l8.59,4.24c7.4,3.65,6.73,6.06-1.49,5.35l-54.83-4.7c-0.26-5.33-.68-10.63-1.31-15.86Z"/><path class="cls-2" d="M258.42,124.5a2.76,2.76,0,0,0-.13-0.69c-0.6,2.27-4.29,4-8.29,4V109.67a19.52,19.52,0,0,1,17.76,11.14c8.33-9.87,22.17-26,35-40l10.75-3a8.33,8.33,0,0,1,10.84,7.2L325.56,95c-6.22,23.24-14.6,50.68-19.62,66.77q3.5,6.15,6.58,12.95t5.57,13.87l19.52-13.28,4.7-15.82c0.63-2.11,2.19-2.37,3.48-.59l5.24,7.27s10.63-4.54,12.51-2.54l3.63-1.52,13.73-5.75c1.77-1.31,2.32-.82,1.21,1.09l-4.88,20.79,16.2-6.72c2-.84,2.65-0.07,1.37,1.73,0,0-6.54,20-8.82,21.54l-15.66,10.59-41.79,28.26c0.63,5.23,1.06,10.53,1.31,15.86,0.17,3.48.28,7,.28,10.48,0,39.63-10.91,72.06-28.12,93.17l7.41,51.88a6.24,6.24,0,0,1-4,6.53l-20.51,6.84a6,6,0,0,1-7-2.89s-10.18-20.25-18-36.34a63.62,63.62,0,0,1-9.9.82V129.2C255,129.2,258.42,127.09,258.42,124.5Z"/><path class="cls-3" d="M305.44,411.71l-7.85-7.58c-0.79-.76-1.57-0.5-1.74.59l-0.77,4.92a1.27,1.27,0,0,1-2,1l-4.26-2.46a1.08,1.08,0,0,0-1.78,1V418"/><path class="cls-4" d="M313.5,77.72l-10.73,3c14-15.32,26.77-28.08,29.85-27.26,2.9,0.77-1.08,19.2-7.05,41.51l-1.23-10.08A8.32,8.32,0,0,0,313.5,77.72Z"/><path class="cls-1" d="M351,166.18l-5.24-7.27c-1.29-1.78-2.85-1.52-3.48.59l-4.7,15.82-19.52,13.28q-2.55-7.2-5.57-13.87l72.62-48.41c6.86-4.58,8.65-2.76,4,4l-21.93,31.78-3.63,1.52C361.66,161.64,351,166.18,351,166.18Z"/><path class="cls-5" d="M258.32,123.8a2.7,2.7,0,0,1,.07.69c0,2.6-3.39,4.7-8.39,4.7v-1.39C254,127.81,257.72,126.07,258.32,123.8Z"/><path class="cls-6" d="M270.12,178c-1.32,0-2.51,1.54-3.36,4a28.58,28.58,0,0,1-1.3-9c0-7.18,2.09-13,4.67-13s4.67,5.82,4.67,13a28.58,28.58,0,0,1-1.3,9C272.63,179.54,271.44,178,270.12,178Z"/><path class="cls-7" d="M270.12,186c-1.32,0-2.51-1.54-3.36-4,0.85-2.46,2-4,3.36-4s2.51,1.54,3.36,4C272.63,184.46,271.44,186,270.12,186Z"/><ellipse class="cls-8" cx="270.12" cy="164.67" rx="2.67" ry="4.33"/><path class="cls-9" d="M286.93,172.33s6.16,20.67-16.81,21"/><path class="cls-10" d="M250,280V210h40.12S295,280,250,280Z"/><path class="cls-11" d="M399.15,207.11l-28.83-1.72L386,194.8c2.28-1.54,8.82-21.54,8.82-21.54,1.28-1.79.66-2.57-1.37-1.73l-16.2,6.72,4.88-20.79c1.1-1.9.56-2.39-1.21-1.09l-13.73,5.75,21.93-31.78c4.69-6.79,2.9-8.6-4-4l-72.62,48.41q3,6.67,5.57,13.87h0q-2.55-7.2-5.57-13.87t-6.58-12.95c5-16.09,13.4-43.54,19.62-66.77l-1.24-10.08a8.27,8.27,0,0,0-7.93-7.56,8.27,8.27,0,0,1,7.94,7.56L325.57,95c6-22.31,10-40.74,7.05-41.51-3.08-.82-15.86,11.93-29.84,27.25h0c-12.8,14-26.64,30.18-35,40A19.52,19.52,0,0,0,250,109.67v18.14c4,0,7.69-1.74,8.29-4v0c-0.64,2.24-4.33,4-8.3,4v1.39c5,0,8.39-2.1,8.39-4.7,0-.12,0-0.23,0-0.35a1.66,1.66,0,0,1,0,.35c0,2.6-3.42,4.7-8.42,4.7V380a63.61,63.61,0,0,0,9.9-.82c7.8,16.1,18,36.34,18,36.34a6,6,0,0,0,7,2.89l2.14-.71V418l18.44-6.29-0.11-.11,0,0a6.24,6.24,0,0,0,4-6.53L302,353.17c17.21-21.11,28.12-53.55,28.12-93.17,0-3.51-.11-7-0.28-10.48l54.83,4.7c8.22,0.71,8.89-1.7,1.49-5.35l-8.59-4.24c-7.4-3.65-7.67-10.1-.59-14.35l24.28-14.57C408.33,211.47,407.38,207.6,399.15,207.11Zm-53.35-48.2,5.24,7.27-5.24-7.27a2.18,2.18,0,0,0-2-1.17A2.18,2.18,0,0,1,345.79,158.91Z"/><path class="cls-1" d="M163.75,465.94V465h5.63v1.88h1.88v1.88h1.88v5.63h-1.87v1.88h-1.87v1.88h-5.62v-1.87h-1.87v-1.87H160v-5.62h1.88v-1.87h1.88v-0.94Zm3.75,1.88v-0.94h-3.75v7.5h1.88v1.88h3.75v-7.5H167.5v-0.94Z"/><path class="cls-1" d="M176.88,465.94V465h11.25v1.88h-1.87v1.88h-1.87v1.88h1.88v1.88h1.88v3.75h-1.87v1.88h-9.37v-1.87H175v-1.87h3.75v1.88h5.63V472.5h-5.62v-1.87h1.88v-1.87h1.88v-1.87h-5.62v-0.94Z"/><path class="cls-1" d="M193.75,465.94V465h7.5v1.88h-5.62v1.88h-1.87v1.88h7.5v1.88h1.88v3.75h-1.87v1.88h-9.37v-1.87H190v-7.5h1.88v-1.87h1.88v-0.94Zm5.63,8.44V472.5h-5.62v3.75h5.63v-1.87Z"/><path class="cls-1" d="M223.75,465.94V465h7.5v1.88h1.88v1.88h-3.75v-1.87h-3.75v1.88h-1.87v5.63h1.88v1.88h3.75v-1.87h3.75v1.88h-1.87v1.88h-7.5v-1.87h-1.87v-1.87H220v-5.62h1.88v-1.87h1.88v-0.94Z"/><path class="cls-1" d="M236.88,471.56V465h3.75v11.25h7.5v1.88H236.88v-6.56Z"/><path class="cls-1" d="M250,471.56V465h13.13v1.88h-9.37v3.75h7.5v1.88h-7.5v3.75h9.38v1.88H250v-6.56Z"/><path class="cls-1" d="M265,471.56V465h13.13v1.88h-9.37v3.75h7.5v1.88h-7.5v5.63H265v-6.56Z"/><path class="cls-1" d="M283.75,465.94V465h5.63v1.88h1.88v1.88h1.88v9.38h-3.75v-3.75h-5.62v3.75H280v-9.37h1.88v-1.87h1.88v-0.94Zm3.75,1.88v-0.94h-1.87v1.88h-1.87v3.75h5.63v-3.75H287.5v-0.94Z"/><path class="cls-1" d="M295,471.56V465h11.25v1.88h1.88v3.75h-1.87v1.88h1.88v3.75h-1.87v1.88H295v-6.56Zm9.38-2.81v-1.87h-5.62v3.75h5.63v-1.87Zm0,5.63V472.5h-5.62v3.75h5.63v-1.87Z"/><path class="cls-1" d="M311.88,471.56V465h3.75v11.25h7.5v1.88H311.88v-6.56Z"/><path class="cls-1" d="M325,471.56V465h13.13v1.88h-9.37v3.75h7.5v1.88h-7.5v3.75h9.38v1.88H325v-6.56Z"/></svg>