<?xml version="1.0" ?><svg id="pkft" viewBox="0 0 500 500" xmlns="http://www.w3.org/2000/svg"><defs><style>.cls-1{fill:none;}.cls-2{fill:#dd5d05;}.cls-3{fill:#ed6306;}.cls-4{fill:#ff6e00;}.cls-5{fill:#ce8561;}.cls-6{fill:#d89068;}.cls-7{fill:#9e5a10;}.cls-8{fill:#9b560a;}.cls-9{fill:#fff2c2;}.cls-10{fill:#1a1a1a;}.cls-11{fill:#c7b847;}.cls-12{fill:#a38c47;}.cls-13{fill:#fff;}.cls-14{fill:#ad660f;}.cls-15{fill:#e59c6e;}.cls-16{opacity:0.1;}</style></defs><title/><path class="cls-1" d="M219.8,208.13c-2.67-1.69-5.92-1.6-9.8,1.87-7,6.28-4.69,13.66.68,18.33,4.61,4,11.44,6,16.53,3.62A9.81,9.81,0,0,0,230,230a67.14,67.14,0,0,0-4-13.39C224.42,213.06,222.38,209.76,219.8,208.13Z"/><path class="cls-1" d="M244,227.25c0.37,0.21.11-.14-0.56-0.9A1.27,1.27,0,0,0,244,227.25Z"/><path class="cls-2" d="M196.83,271.59c-28.79,6-41.4-10.24-45.68-18-4.36,4.3-16.93,19.61-2.26,41.77,9.56,14.43,23,14.82,33.12,12.23,1.68-12,6.06-22.42,8-24.81A94.81,94.81,0,0,0,196.83,271.59Z"/><path class="cls-3" d="M196.83,271.59c3.09-5.61,6.14-11.57,7.47-14.2-25.47-24.5-28.89-40.87-27.07-50.44-5.77-.37-32.05.24-27.89,42.72a27.29,27.29,0,0,0,1.81,3.9C155.42,261.35,168,277.58,196.83,271.59Z"/><path class="cls-4" d="M204.3,257.39L205,256a1,1,0,0,1,.54.5A85.31,85.31,0,0,1,206.7,240h0A33.92,33.92,0,0,1,200,220a32.42,32.42,0,0,1,.46-5.34c-7.33-1.63-13.88-8-19.47-16.22a19.65,19.65,0,0,0-3.76,8.5C175.41,216.52,178.83,232.88,204.3,257.39Z"/><path class="cls-5" d="M223.9,340c1.4-9-6.16-32-6.16-32a123.56,123.56,0,0,1-11.92-44.93c-0.11-1.54-.18-3-0.23-4.46l-1.29-1.22c-1.33,2.63-4.39,8.59-7.47,14.2A94.81,94.81,0,0,1,190,282.75c-1.94,2.39-6.31,12.83-8,24.81-2,14.31-.18,30.82,14.24,38.44,0,0,.55.07,1.49,0.16,4.76,0.45,19.66,1.35,25.62-4.24,0.19-.18.37-0.35,0.54-0.54a11.16,11.16,0,0,0,1-1.3Z"/><path class="cls-5" d="M205.54,256.5A1,1,0,0,0,205,256l-0.7,1.39,1.29,1.22C205.57,257.89,205.55,257.18,205.54,256.5Z"/><path class="cls-6" d="M222.32,253.31a47.53,47.53,0,0,1-11.75-8.76,41.35,41.35,0,0,1-3.85-4.54h0a85.31,85.31,0,0,0-1.16,16.5c0,0.69,0,1.4,0,2.12,0,1.42.12,2.91,0.23,4.46A123.56,123.56,0,0,0,217.74,308s7.56,23,6.16,32l1,0.08c3.48,0.28,15.46,1.21,25.11,1.3V274.5C237.53,274.5,226.85,265.75,222.32,253.31Z"/><path class="cls-7" d="M208,349.43c1-2.57.91-2.6-.13-0.05l-0.81,2a4.72,4.72,0,0,0-.28,1,5.55,5.55,0,0,0,.52-1Z"/><path class="cls-7" d="M201.25,348.8c1.58-1.82,1.43-1.75-.33.16a5,5,0,0,0-.47.61A6.43,6.43,0,0,0,201.25,348.8Z"/><path class="cls-8" d="M223.36,341.92c-6,5.59-20.86,4.69-25.62,4.24-1.13,1.13-1.54,2.61-.87,3.64s2.18,0.9,3.57-.23c0.14-.21.27-0.22,0,0a3,3,0,0,0,1.18,4.64,4.12,4.12,0,0,0,5.15-1.87c0.05-.31.2-0.31,0,0-0.37,2.09,1,3.66,3.4,3.66H214a7.33,7.33,0,0,0,6.53-4.76l3-9.33h-0.17Z"/><path class="cls-9" d="M220,250c-3.9,2.54-1.71,12.85-1.07,16.89a22.76,22.76,0,0,1,2-3.89S220,286.25,230,291.25,250,310,250,310V263.32C239.81,257.11,223.4,247.79,220,250Z"/><path class="cls-1" d="M219.8,208.13c-2.67-1.69-5.92-1.6-9.8,1.87-7,6.28-4.69,13.66.68,18.33,4.61,4,11.44,6,16.53,3.62A9.81,9.81,0,0,0,230,230a67.14,67.14,0,0,0-4-13.39C224.42,213.06,222.38,209.76,219.8,208.13Z"/><path class="cls-1" d="M244,227.25c0.37,0.21.11-.14-0.56-0.9A1.27,1.27,0,0,0,244,227.25Z"/><path class="cls-6" d="M240,256c0,2,4.48,3.67,10,3.67v-5.54l-4.36-1.42C242.3,253.3,240,254.55,240,256Z"/><path class="cls-10" d="M240,256c0,2,4.48,3.67,10,3.67v-7.33C244.48,252.33,240,254,240,256Z"/><path class="cls-11" d="M212,227a17,17,0,0,0-1.32,1.33c4.61,4,11.44,6,16.53,3.62C224,225.49,219,220.71,212,227Z"/><path class="cls-12" d="M221,219.5a5.75,5.75,0,0,1-1.2-11.37c-2.67-1.69-5.92-1.6-9.8,1.87-7,6.28-4.69,13.66.68,18.33A17,17,0,0,1,212,227c7-6.29,12-1.51,15.21,4.94A9.81,9.81,0,0,0,230,230a67.14,67.14,0,0,0-4-13.39A5.74,5.74,0,0,1,221,219.5Z"/><path class="cls-13" d="M215.25,213.75A5.75,5.75,0,0,0,226,216.61c-1.56-3.55-3.61-6.85-6.18-8.48A5.75,5.75,0,0,0,215.25,213.75Z"/><path class="cls-3" d="M232.7,180a38.57,38.57,0,0,1,4.61-.59,11.85,11.85,0,0,1-.32-3.17v-32.5a10.78,10.78,0,0,1,1.18-5.15,12,12,0,0,0-9.73-4.6H226a11.82,11.82,0,0,0-12,11.75s0.41,3.24,1.14,8.12C223,158.93,229.6,167,232.7,180Z"/><path class="cls-3" d="M232.7,180c-3.11-13-9.66-21.2-17.61-26.27,1.44,9.63,4.13,25.15,7.4,32.35C224.42,182.65,228.38,180.87,232.7,180Z"/><path class="cls-4" d="M244,227.25c0.37,0.21.11-.14-0.56-0.9A1.27,1.27,0,0,0,244,227.25Z"/><path class="cls-4" d="M248.75,132a12.27,12.27,0,0,0-10.92,6.47l0,0.06a12,12,0,0,0-.87,5.22v32.5a11.86,11.86,0,0,0,.32,3.17h-0.12a36.54,36.54,0,0,0-4.49.59c-4.32.86-8.28,2.64-10.21,6.09-5.51,9.85,5.26,25.15,4.66,22a32.72,32.72,0,0,1,.06-8.13c-1,8.33,12.87,22.56,16.24,26.35-0.62-2.84,2.71-10.5,2.06-8.1C244.75,221,250,230,250,230V132h-1.25Zm-9.66,51.32,0,0h0Z"/><path class="cls-9" d="M218.94,268.5c0.23,0.16.17-.48,0-1.61C218.68,267.64,218.61,268.27,218.94,268.5Z"/><path class="cls-14" d="M250,363.88l-4.75.44a4.92,4.92,0,0,1-5.22-4.54l-0.55-5.8h0l0.55,5.8a3.37,3.37,0,0,1-4.39,3.83l-3.72-.88a4.16,4.16,0,0,1-3-5.78l0.95-2.32c1-2.55,1.1-2.52.14,0.05l-0.93,2.48c-1,2.58-3.43,3.19-5.48,1.36l-0.42-.37a8.49,8.49,0,0,1-2.26-8.1l3.14-10.16,25.91,1.5v22.5Z"/><path class="cls-1" d="M219.8,208.13c-2.67-1.69-5.92-1.6-9.8,1.87-7,6.28-4.69,13.66.68,18.33,4.61,4,11.44,6,16.53,3.62A9.81,9.81,0,0,0,230,230a67.14,67.14,0,0,0-4-13.39C224.42,213.06,222.38,209.76,219.8,208.13Z"/><path class="cls-1" d="M244,227.25c0.37,0.21.11-.14-0.56-0.9A1.27,1.27,0,0,0,244,227.25Z"/><path class="cls-15" d="M245.64,252.7a25,25,0,0,1,4.36-.37V230s-5.25-9-4.5-11.75c0.65-2.4-2.68,5.26-2.06,8.1,0.67,0.76.93,1.11,0.56,0.9a1.27,1.27,0,0,1-.56-0.9c-3.36-3.79-17.28-18-16.24-26.35a32.72,32.72,0,0,0-.06,8.13c0.6,3.12-10.17-12.18-4.66-22-3.27-7.2-6-22.72-7.4-32.35C193,139.67,160,150,160,150s7.82,29.17,21,48.45c5.59,8.18,12.14,14.59,19.47,16.22A32.42,32.42,0,0,0,200,220a33.92,33.92,0,0,0,6.73,20,41.35,41.35,0,0,0,3.85,4.54,47.53,47.53,0,0,0,11.75,8.76c4.53,12.45,15.22,21.19,27.68,21.19V259.67c-5.52,0-10-1.64-10-3.67C240,254.55,242.3,253.3,245.64,252.7Zm-47.31-44.58C192,216.26,173.67,154,173.67,154,227.33,175.67,204.67,200,198.33,208.13Zm28.87,23.82c-5.09,2.39-11.92.39-16.53-3.62-5.37-4.67-7.7-12-.68-18.33,3.88-3.47,7.13-3.57,9.8-1.87s4.62,4.93,6.18,8.48A67.14,67.14,0,0,1,230,230,9.81,9.81,0,0,1,227.21,231.94Z"/><path class="cls-14" d="M173.67,154s18.33,62.26,24.67,54.13S227.33,175.67,173.67,154Z"/><path class="cls-1" d="M280.17,208.13c2.67-1.69,5.92-1.6,9.8,1.87,7,6.28,4.69,13.66-.68,18.33-4.61,4-11.44,6-16.53,3.62A9.81,9.81,0,0,1,270,230a67.14,67.14,0,0,1,4-13.39C275.55,213.06,277.59,209.76,280.17,208.13Z"/><path class="cls-1" d="M256,227.25c-0.37.21-.11-0.14,0.56-0.9A1.27,1.27,0,0,1,256,227.25Z"/><path class="cls-2" d="M303.15,271.59c28.79,6,41.4-10.24,45.68-18,4.36,4.3,16.93,19.61,2.26,41.77-9.56,14.43-23,14.82-33.12,12.23-1.68-12-6.06-22.42-8-24.81A94.81,94.81,0,0,1,303.15,271.59Z"/><path class="cls-3" d="M303.15,271.59c-3.09-5.61-6.14-11.57-7.47-14.2,25.47-24.5,28.89-40.87,27.07-50.44,5.77-.37,32.05.24,27.89,42.72a27.29,27.29,0,0,1-1.81,3.9C344.55,261.35,331.93,277.58,303.15,271.59Z"/><path class="cls-4" d="M295.67,257.39L295,256a1,1,0,0,0-.54.5,85.31,85.31,0,0,0-1.16-16.5h0A33.92,33.92,0,0,0,300,220a32.42,32.42,0,0,0-.46-5.34c7.33-1.63,13.88-8,19.47-16.22a19.65,19.65,0,0,1,3.76,8.5C324.56,216.52,321.14,232.88,295.67,257.39Z"/><path class="cls-5" d="M276.07,340c-1.4-9,6.16-32,6.16-32a123.56,123.56,0,0,0,11.92-44.93c0.11-1.54.18-3,.23-4.46l1.29-1.22c1.33,2.63,4.39,8.59,7.47,14.2A94.81,94.81,0,0,0,310,282.75c1.94,2.39,6.31,12.83,8,24.81,2,14.31.18,30.82-14.24,38.44,0,0-.55.07-1.49,0.16-4.76.45-19.66,1.35-25.62-4.24-0.19-.18-0.37-0.35-0.54-0.54a11.16,11.16,0,0,1-1-1.3Z"/><path class="cls-5" d="M294.43,256.5A1,1,0,0,1,295,256l0.7,1.39-1.29,1.22C294.4,257.89,294.42,257.18,294.43,256.5Z"/><path class="cls-6" d="M277.67,253.31a47.5,47.5,0,0,0,11.74-8.76,41.32,41.32,0,0,0,3.84-4.54h0a85.37,85.37,0,0,1,1.16,16.5c0,0.69,0,1.4,0,2.12,0,1.42-.12,2.91-0.23,4.46A123.56,123.56,0,0,1,282.24,308s-7.56,23-6.16,32l-1,.08c-3.48.28-15.09,1.21-25.09,1.3V274.5C262,274.5,273.14,265.75,277.67,253.31Z"/><path class="cls-7" d="M292,349.43c-1-2.57-.91-2.6.13-0.05l0.81,2a4.72,4.72,0,0,1,.28,1,5.55,5.55,0,0,1-.52-1Z"/><path class="cls-7" d="M298.72,348.8c-1.58-1.82-1.43-1.75.33,0.16a5,5,0,0,1,.47.61A6.43,6.43,0,0,1,298.72,348.8Z"/><path class="cls-8" d="M276.62,341.92c6,5.59,20.86,4.69,25.62,4.24,1.13,1.13,1.54,2.61.87,3.64s-2.18.9-3.57-.23c-0.14-.21-0.27-0.22,0,0a3,3,0,0,1-1.18,4.64,4.12,4.12,0,0,1-5.15-1.87c-0.05-.31-0.2-0.31,0,0,0.37,2.09-1,3.66-3.4,3.66H286a7.33,7.33,0,0,1-6.53-4.76l-3-9.33h0.17Z"/><path class="cls-9" d="M280,250c3.9,2.54,1.71,12.85,1.06,16.89a22.67,22.67,0,0,0-2-3.89S280,286.25,270,291.25,250,310,250,310V263.32C260,257.11,276.59,247.79,280,250Z"/><path class="cls-1" d="M280.17,208.13c2.67-1.69,5.92-1.6,9.8,1.87,7,6.28,4.69,13.66-.68,18.33-4.61,4-11.44,6-16.53,3.62A9.81,9.81,0,0,1,270,230a67.14,67.14,0,0,1,4-13.39C275.55,213.06,277.59,209.76,280.17,208.13Z"/><path class="cls-1" d="M256,227.25c-0.37.21-.11-0.14,0.56-0.9A1.27,1.27,0,0,1,256,227.25Z"/><path class="cls-6" d="M260,256c0,2-5,3.67-10,3.67v-5.54l4.35-1.42C257.69,253.3,260,254.55,260,256Z"/><path class="cls-10" d="M260,256c0,2-5,3.67-10,3.67v-7.33C255,252.33,260,254,260,256Z"/><path class="cls-11" d="M288,227a17,17,0,0,1,1.32,1.33c-4.61,4-11.44,6-16.53,3.62C276,225.49,280.95,220.71,288,227Z"/><path class="cls-12" d="M279,219.5a5.75,5.75,0,0,0,1.2-11.37c2.67-1.69,5.92-1.6,9.8,1.87,7,6.28,4.69,13.66-.68,18.33A17,17,0,0,0,288,227c-7-6.29-12-1.51-15.21,4.94A9.81,9.81,0,0,1,270,230a67.14,67.14,0,0,1,4-13.39A5.74,5.74,0,0,0,279,219.5Z"/><path class="cls-13" d="M284.72,213.75A5.75,5.75,0,0,1,274,216.61c1.56-3.55,3.61-6.85,6.18-8.48A5.75,5.75,0,0,1,284.72,213.75Z"/><path class="cls-3" d="M267.27,180a38.34,38.34,0,0,0-4.6-.59,11.85,11.85,0,0,0,.33-3.17v-32.5a10.79,10.79,0,0,0-1.2-5.15,12,12,0,0,1,9.71-4.6H274a11.82,11.82,0,0,1,12,11.75s-0.41,3.24-1.14,8.12C276.92,158.93,270.37,167,267.27,180Z"/><path class="cls-3" d="M267.27,180c3.11-13,9.66-21.2,17.61-26.27-1.44,9.63-4.13,25.15-7.4,32.35C275.55,182.65,271.59,180.87,267.27,180Z"/><path class="cls-4" d="M256,227.25c-0.37.21-.11-0.14,0.56-0.9A1.27,1.27,0,0,1,256,227.25Z"/><path class="cls-4" d="M250,132v98s5.24-9,4.49-11.75c-0.65-2.4,2.67,5.26,2.05,8.1,3.36-3.79,17.27-18,16.23-26.35a32.76,32.76,0,0,1,.05,8.13c-0.6,3.12,10.16-12.18,4.66-22-1.93-3.45-5.89-5.23-10.21-6.09a36.54,36.54,0,0,0-4.49-.59h-0.11a11.86,11.86,0,0,0,.33-3.17v-32.5a12,12,0,0,0-.88-5.22l0-.06A12.28,12.28,0,0,0,251.22,132H250Zm10.86,51.35h0l0,0Z"/><path class="cls-9" d="M281,268.5c-0.23.16-.17-0.48,0-1.61C281.29,267.64,281.36,268.27,281,268.5Z"/><path class="cls-14" d="M250,363.88l4.74,0.44a4.92,4.92,0,0,0,5.22-4.54l0.55-5.8h0l-0.55,5.8a3.37,3.37,0,0,0,4.39,3.83l3.72-.88a4.16,4.16,0,0,0,3-5.78l-0.95-2.32c-1-2.55-1.1-2.52-.14.05l0.93,2.48c1,2.58,3.43,3.19,5.48,1.36l0.42-.37A8.49,8.49,0,0,0,279,350l-3.13-10.16-25.9,1.5v22.5Z"/><path class="cls-1" d="M280.17,208.13c2.67-1.69,5.92-1.6,9.8,1.87,7,6.28,4.69,13.66-.68,18.33-4.61,4-11.44,6-16.53,3.62A9.81,9.81,0,0,1,270,230a67.14,67.14,0,0,1,4-13.39C275.55,213.06,277.59,209.76,280.17,208.13Z"/><path class="cls-1" d="M256,227.25c-0.37.21-.11-0.14,0.56-0.9A1.27,1.27,0,0,1,256,227.25Z"/><path class="cls-15" d="M260,256c0,2-5,3.67-10,3.67V274.5c12,0,23.14-8.75,27.67-21.19a47.5,47.5,0,0,0,11.74-8.76,41.32,41.32,0,0,0,3.84-4.54A33.92,33.92,0,0,0,300,220a32.42,32.42,0,0,0-.46-5.34c7.33-1.63,13.88-8,19.47-16.22C332.15,179.17,340,150,340,150s-33-10.33-55.09,3.75c-1.44,9.63-4.13,25.15-7.4,32.35,5.51,9.85-5.26,25.15-4.66,22a32.72,32.72,0,0,0-.06-8.13c1,8.33-12.87,22.56-16.24,26.35a1.27,1.27,0,0,1-.56.9c-0.37.21-.11-0.14,0.56-0.9,0.62-2.84-2.7-10.5-2-8.1C255.24,221,250,230,250,230v22.33a21.56,21.56,0,0,1,4.35.37C257.69,253.3,260,254.55,260,256Zm66.32-102S308,216.26,301.64,208.13,272.64,175.67,326.31,154ZM270,230a67.14,67.14,0,0,1,4-13.39c1.56-3.55,3.61-6.85,6.18-8.48s5.92-1.6,9.8,1.87c7,6.28,4.69,13.66-.68,18.33-4.61,4-11.44,6-16.53,3.62A9.81,9.81,0,0,1,270,230Z"/><path class="cls-14" d="M326.31,154S308,216.26,301.64,208.13,272.64,175.67,326.31,154Z"/><path class="cls-16" d="M348.83,253.57a27.29,27.29,0,0,0,1.81-3.9c4.16-42.47-22.12-43.09-27.89-42.72a19.65,19.65,0,0,0-3.76-8.5h0C332.15,179.17,340,150,340,150s-33-10.32-55.07,3.73c0.72-4.8,1.12-8,1.12-8A11.82,11.82,0,0,0,274,134h-2.5a12,12,0,0,0-9.46,4.3,12.29,12.29,0,0,0-10.83-6.3H250V252.33a21.56,21.56,0,0,1,4.35.37l-0.08,0a23.5,23.5,0,0,0-4.28-.4V363.88l4.74,0.44a4.91,4.91,0,0,0,5.21-4.51,3.36,3.36,0,0,0,4.39,3.8l3.72-.88a4.12,4.12,0,0,0,3.27-4.66c1.15,1.78,3.24,2,5,.45l0.42-.37A8.48,8.48,0,0,0,279,350L278.39,348l1.05,3.28A7.33,7.33,0,0,0,286,356h3.83c2.39,0,3.76-1.58,3.4-3.66a4.12,4.12,0,0,0,5.15,1.87,3,3,0,0,0,1.18-4.64c1.39,1.13,2.88,1.29,3.57.23s0.26-2.51-.87-3.64c0.94-.09,1.49-0.16,1.49-0.16,14.42-7.62,16.26-24.13,14.24-38.44,10.16,2.6,23.55,2.21,33.12-12.23C365.76,273.18,353.19,257.87,348.83,253.57ZM272.77,200a32.75,32.75,0,0,1,.05,8.13c-0.06.29,0,.42,0.11,0.41-0.12,0-.17-0.12-0.11-0.41a32.16,32.16,0,0,0,0-8.07S272.77,200,272.77,200Zm4.71-13.9h0c3.25-7.17,5.93-22.57,7.38-32.21h0C283.41,163.52,280.73,178.93,277.48,186.1Zm-14.79-6.78a8.92,8.92,0,0,0,.25-1.45A8.92,8.92,0,0,1,262.69,179.31Zm0.27-1.76c0-.16,0-0.32,0-0.49C263,177.23,263,177.39,263,177.56Zm0.42,1.93,1.08,0.11Zm2,0.22c0.64,0.09,1.27.19,1.87,0.3C266.65,179.89,266,179.79,265.39,179.71ZM293.28,240h0Zm-36.74-13.66h0c0.54-2.48-1.93-8.65-2.12-8.56C254.6,217.69,257.07,223.85,256.54,226.34Zm20,115.46,0.12,0.12h-0.09Z"/><path class="cls-3" d="M178.75,465.94V465h5.63v1.88h1.88v1.88h1.88v5.63h-1.87v1.88h-1.87v1.88h-5.62v-1.87h-1.87v-1.87H175v-5.62h1.88v-1.87h1.88v-0.94Zm3.75,1.88v-0.94h-3.75v7.5h1.88v1.88h3.75v-7.5H182.5v-0.94Z"/><path class="cls-3" d="M191.88,465.94V465h11.25v1.88h-1.87v1.88h-1.87v1.88h1.88v1.88h1.88v3.75h-1.87v1.88h-9.37v-1.87H190v-1.87h3.75v1.88h5.63V472.5h-5.62v-1.87h1.88v-1.87h1.88v-1.87h-5.62v-0.94Z"/><path class="cls-3" d="M205,466.88V465h13.13v3.75h-1.87v1.88h-1.87v1.88H212.5v5.63h-3.75V472.5h1.88v-1.87h1.88v-1.87h1.88v-1.87h-5.62v1.88H205v-1.87Z"/><path class="cls-3" d="M235,468.75V465h3.75v5.63h1.88v1.88h1.88v-1.87h1.88V465h3.75v7.5h-1.87v1.88h-1.87v1.88H242.5v1.88h-1.87v-1.87h-1.87v-1.87h-1.87V472.5H235v-3.75Z"/><path class="cls-3" d="M250,470.63V465h3.75v11.25h5.63V465h3.75v11.25h-1.87v1.88h-9.37v-1.87H250v-5.62Z"/><path class="cls-3" d="M266.88,471.56V465h3.75v11.25h7.5v1.88H266.88v-6.56Z"/><path class="cls-3" d="M280,471.56V465h11.25v1.88h1.88v5.63h-1.87v1.88h-7.5v3.75H280v-6.56Zm9.38-1.87v-2.81h-5.62v5.63h5.63v-2.81Z"/><path class="cls-3" d="M296.88,465.94V465h11.25v1.88h-3.75v9.38h3.75v1.88H296.88v-1.87h3.75v-9.37h-3.75v-0.94Z"/><path class="cls-3" d="M310,466.88V465h3.75v1.88h1.88v1.88h1.88v-1.87h1.88V465h3.75v3.75h-1.87v1.88h-1.87v1.88h1.88v1.88h1.88v3.75h-3.75v-1.87H317.5v-1.87h-1.87v1.88h-1.87v1.88H310v-3.75h1.88V472.5h1.88v-1.87h-1.87v-1.87H310v-1.87Z"/></svg>