<?xml version="1.0" ?><svg id="pkft" viewBox="0 0 500 500" xmlns="http://www.w3.org/2000/svg"><defs><style>.cls-1{fill:#f9f2c0;}.cls-2{fill:#c6b873;}.cls-3{fill:none;}.cls-4{fill:#c4b472;}.cls-5{fill:#cebf7e;}.cls-6{fill:#ddcf8c;}.cls-7{fill:#e8dc97;}.cls-8{fill:#fff8b0;}.cls-9{fill:#e2d993;}.cls-10{fill:#1a1a1a;}.cls-11{fill:#e50044;}.cls-12{fill:#fff;}.cls-13{fill:#f9efaa;}.cls-14{fill:#d1c682;}.cls-15{fill:#1d1d1b;opacity:0.1;}.cls-16{fill:#c1ac52;}</style></defs><title/><path class="cls-1" d="M239.76,378.59a4.21,4.21,0,0,0,.54,1.39S240.1,379.47,239.76,378.59Z"/><path class="cls-2" d="M230.55,426.69c5.54,1.72,13.26,3.11,14.29-2.12,1.08-5.47,0-23.33-.85-34.79a212.18,212.18,0,0,1-21.83-9.06C225.43,398.21,228.64,416,230.55,426.69Z"/><path class="cls-3" d="M223.53,224.8c-0.29-.92-0.76-2.51-1.34-4.5a9.62,9.62,0,0,1-2.11.29C221.26,222,222.46,223.45,223.53,224.8Z"/><path class="cls-3" d="M212.88,217.16l3.89,17.37A84.63,84.63,0,0,1,225,243.4a141.56,141.56,0,0,1-8.84-23.45c-0.17-.07-0.34-0.12-0.5-0.19A8.13,8.13,0,0,1,212.88,217.16Z"/><path class="cls-3" d="M245.73,320.9l0.1,0a0.18,0.18,0,0,0-.1,0c-0.31.17-.61,0.34-0.88,0.52h0C245.12,321.22,245.42,321.07,245.73,320.9Z"/><path class="cls-4" d="M202.26,259.1a48.25,48.25,0,0,1-5-11l-29.1-92.41L152,163.25c-10,4.65-15.06,14.89-11.3,22.75l41.07,85.89c6.52,0.66,13.87,7,17.92,11C199.75,274.32,200.44,265.9,202.26,259.1Z"/><path class="cls-5" d="M205.47,251c2-3.48,4.7-5.9,8.19-6.77a116.27,116.27,0,0,1-7.89-16c3.23-.08,7.38,2.9,11,6.23l-3.89-17.37a38.23,38.23,0,0,1-5.69-13.86l-17.08-82.15-14.61,5.59a17,17,0,0,0-10,20.68l2.62,8.31,3.27-1.53Z"/><path class="cls-5" d="M202.26,259.1a33.15,33.15,0,0,1,3.21-8.08L171.4,154.2l-3.27,1.53,29.1,92.41A48.25,48.25,0,0,0,202.26,259.1Z"/><path class="cls-6" d="M228.43,216.88c-3-9.89-2.82-21.16-1.54-30.76-0.18-1-.34-2-0.46-3L215.38,89.64l-14.5,3.94a18.29,18.29,0,0,0-12.91,21l2.65,12.74,20.46,98.37c1.35,6.5,4,12.86,6.81,16.6a9.74,9.74,0,0,0,3.3,3.1c0.19,0.09.4,0.15,0.6,0.23-0.62-2.19-1.23-4.41-1.82-6.74,0,0,3.15,3.51,6.54,7.53a11.52,11.52,0,0,0,2.52-.35c-2.89-9.9-8.05-28.22-9.06-33.17C223.19,217.78,234.29,236,228.43,216.88Z"/><path class="cls-7" d="M222.05,161.29c1.88-8.08,4-12.35,2.84-7.86-2.48,9.56,13.1,28.32,11,19.47-1.74-7.23.55-31.47,1.44-38.36l-1.22-80.23L221.16,57a15.27,15.27,0,0,0-12.27,16.57l1.9,16.07,2.51-.68Z"/><path class="cls-7" d="M220.42,170.22c0.44-3.27,1-6.3,1.63-8.93L213.31,89l-2.51.68,9.24,78C220.14,168.53,220.27,169.38,220.42,170.22Z"/><path class="cls-8" d="M242.94,40c-3.89,0-7,6.45-6.86,14.24l2.77,83.4c1.74,4.89,4.86,11,5.86,9,1.42-2.83,5.3-49.89,5.3-49.89V40h-7.06Z"/><path class="cls-8" d="M237.63,132.9a18.19,18.19,0,0,0,1.21,4.78l-2.77-83.36,1.22,80.23C237.5,133,237.63,132.31,237.63,132.9Z"/><path class="cls-1" d="M221.68,254.13c0.15-.87.32-1.66,0.48-2.43v0a3,3,0,0,1-1.55-.13l0.87,3.9C221.55,255.05,221.59,254.61,221.68,254.13Z"/><path class="cls-1" d="M249.87,324.66l0,0.1s-2.22-.16-5-3.36h0c-3.08-3.54-6.84-10.79-9.07-25.66,0,0-5.62-9.56-7.39-11-1.55-1.24-8.26-8.62-7.49-23.8l-2.29,2.57c-1.63,1.83-4.85,2.73-7.88,2.41l7.86,22.33-4.43,4.93c-2.06,2.29-6.42,3.86-10.46,4l0.93,11.18,0.3,3.65c0.49-1.69.85-2.78,0.85-2.78-0.81,2.6.16,8.76,1.46,14.67,1.53,7,3.5,13.64,3.5,13.64a21.82,21.82,0,0,1,.79-7.91,18.05,18.05,0,0,1,3.1-6.25c-3.54,6.73,7.08,28.32,7.08,28.32-2.12-3.19,3.89-14.16,3.89-14.16-3.19,6.37,5.31,28.32,5.31,28.32-1.06-5.31,1.42-14.16,1.42-14.16,0,7.14,5.64,22.29,7.44,26.93-1.11-4.89,5.07-12.77,5.07-12.77-0.57,11,5.17,22.65,5.17,22.65V324.75l-0.06-.19,0,0.23Z"/><path class="cls-1" d="M202.26,259.1c-1.82,6.8-2.52,15.21-2.58,23.84,1.91,1.9,3.09,3.28,3.09,3.28l0.91,10.92c4-.09,8.4-1.67,10.46-4l4.43-4.93-7.86-22.33a10.19,10.19,0,0,1-2.3-.48C206.58,264.8,204.35,262.4,202.26,259.1Z"/><path class="cls-1" d="M213.66,244.25c-3.49.87-6.16,3.29-8.19,6.77l5.25,14.9c3,0.32,6.25-.59,7.88-2.41l2.29-2.57a54.06,54.06,0,0,1,.59-5.43l-0.87-3.9C218.38,250.87,215.92,247.87,213.66,244.25Z"/><path class="cls-1" d="M202.26,259.1c2.09,3.3,4.32,5.7,6.15,6.34a10.19,10.19,0,0,0,2.3.48L205.47,251A33.15,33.15,0,0,0,202.26,259.1Z"/><path class="cls-9" d="M225,243.4a84.26,84.26,0,0,0-8.2-8.87l3.83,17.09a3,3,0,0,0,1.55.13v0c-0.17.77-.33,1.56-0.48,2.43-0.09.48-.13,0.92-0.2,1.38l0.86,3.82-1.44,1.62c-0.77,15.18,5.94,22.56,7.49,23.8,1.77,1.42,7.39,11,7.39,11,2.23,14.87,6,22.12,9.07,25.66,0.27-.18.57-0.35,0.88-0.52l0.4-.2-0.4.2a0.18,0.18,0,0,1,.1,0c0.22-.09.71-0.23,0.88-0.3s0.36,0.25.55,0.18a3.53,3.53,0,0,1,1,.26h0c0.12,0,.26-0.61.38-0.64a5.09,5.09,0,0,1,1.34-.82V273.78S236.68,267.3,225,243.4Zm19.91,42.77s-10.62,1.59-12.57-13.27a11.89,11.89,0,0,1,2.41.39,13.19,13.19,0,0,1,5.58,2.95C242.47,278.18,244.36,281.27,244.89,286.17Z"/><path class="cls-9" d="M213.66,244.25c2.26,3.61,4.71,6.62,6.94,7.36l-3.83-17.09c-3.62-3.33-7.78-6.31-11-6.23A116.27,116.27,0,0,0,213.66,244.25Z"/><path class="cls-9" d="M222.33,259.33l-0.86-3.82a54.06,54.06,0,0,0-.59,5.43Z"/><path class="cls-10" d="M248.27,321h0a3.53,3.53,0,0,0-1-.26c-0.19.07-.34,0.07-0.52,0.14s-0.43-.05-0.62,0a0.56,0.56,0,0,1-.3,0l-0.1,0c-0.31.16-.6,0.31-0.87,0.49,2.78,3.19,5,3.35,5,3.35l0.08-.28,0,0.09,0.06-.46v-4.56a5.09,5.09,0,0,0-1.34.82C248.53,320.39,248.4,321,248.27,321Z"/><path class="cls-10" d="M249.84,324.75s-2.21-.17-5-3.36h0c2.78,3.2,5,3.36,5,3.36l0-.1,0.05,0.13,0-.23,0-.09Z"/><path class="cls-10" d="M246.13,320.86c0.19-.09.42,0,0.62-0.1s0.33-.2.52-0.26c-0.19.07-.37,0-0.55,0.06s-0.66.22-.88,0.3A0.56,0.56,0,0,0,246.13,320.86Z"/><path class="cls-1" d="M244.7,146.7c-1,2-4.12-4.13-5.86-9a18.16,18.16,0,0,1-1.21-4.78c0-.58-0.13.1-0.33,1.64-0.89,6.89-3.17,31.13-1.44,38.36,2.12,8.85-13.45-9.91-11-19.47,1.17-4.5-1-.22-2.84,7.86-0.61,2.63-1.2,5.67-1.63,8.93-1.07,8-1.25,17.43,1.28,25.69,4.89,16-4.38.75-7.08-3.3,0.84,4.13,5.15,19.44,7.57,27.7,0.58,2,1.05,3.58,1.34,4.5-1.07-1.36-2.27-2.82-3.44-4.2-2.83-3.35-5.46-6.29-5.46-6.29,0.49,1.94,1,3.81,1.52,5.63A141.6,141.6,0,0,0,225,243.4c11.71,23.91,25,30.38,25,30.38v-177S246.12,143.87,244.7,146.7Z"/><path class="cls-11" d="M237.61,278.85c-1.64,0-3-2-3-4.49a6.57,6.57,0,0,1,.1-1.09,11.89,11.89,0,0,0-2.41-.39c1.95,14.87,12.57,13.27,12.57,13.27-0.53-4.9-2.42-8-4.58-9.94C239.83,277.77,238.81,278.85,237.61,278.85Z"/><path class="cls-12" d="M237.61,278.85c1.2,0,2.23-1.08,2.7-2.62a13.19,13.19,0,0,0-5.58-2.95,6.57,6.57,0,0,0-.1,1.09C234.63,276.84,236,278.85,237.61,278.85Z"/><path class="cls-3" d="M205.77,322.15l0.3,0.34-0.42-1.82Z"/><path class="cls-13" d="M206.07,322.49c0.26,0.29.66,0.76,1.16,1.36-1.29-5.92-2.27-12.08-1.46-14.67,0,0-.36,1.09-0.85,2.78l0.73,8.71Z"/><path class="cls-9" d="M211.52,329.59a21.82,21.82,0,0,0-.79,7.91s-2-6.65-3.5-13.64c-0.5-.6-0.9-1.07-1.16-1.36l-0.3-.34-0.12-1.48L204.92,312l-0.3-3.65-0.93-11.18a14.62,14.62,0,0,1-2.2-.09c-4.52-.59-11.3-7.5-15.05-15.36l-4.68-9.79C171,270.8,162.5,285.28,175,351.65c0,0,32.57,69.85,32.57,72.68s-16.52.47-14.16,12.27,38.94,0,38.94,0-0.67-3.79-1.77-9.92c-1.91-10.67-5.12-28.48-8.39-46l-0.92-4.89C216.89,352.66,212.66,331.32,211.52,329.59Zm-8.58-.23a13.55,13.55,0,0,1-.41-5.83C203.07,328,203.35,330.37,202.94,329.35Z"/><path class="cls-9" d="M201.49,297a14.62,14.62,0,0,0,2.2.09l-0.91-10.92s-1.18-1.38-3.09-3.28c-4-4-11.41-10.39-17.92-11l4.68,9.79C190.2,289.54,197,296.46,201.49,297Z"/><path class="cls-9" d="M202.94,329.35c0.41,1,.12-1.34-0.41-5.83A13.55,13.55,0,0,0,202.94,329.35Z"/><path class="cls-14" d="M244.83,365.81s-6.18,7.88-5.08,12.77c-1.8-4.64-7.44-19.79-7.44-26.93,0,0-2.48,8.85-1.41,14.16,0,0-8.49-21.95-5.31-28.32,0,0-6,11-3.89,14.16,0,0-10.62-21.59-7.08-28.32a18.05,18.05,0,0,0-3.1,6.25c1.14,1.73,5.37,23.07,9.73,46.25l0.92,4.89A211.83,211.83,0,0,0,244,389.79c2,0.69,4,1.33,6,1.9v-3.22S244.26,376.79,244.83,365.81Z"/><path class="cls-1" d="M260.14,378.59a4.21,4.21,0,0,1-.54,1.39S259.8,379.47,260.14,378.59Z"/><path class="cls-2" d="M269.35,426.69c-5.54,1.72-13.26,3.11-14.29-2.12-1.08-5.47,0-23.33.85-34.79a212.18,212.18,0,0,0,21.83-9.06C274.48,398.21,271.26,416,269.35,426.69Z"/><path class="cls-3" d="M276.38,224.8c0.29-.92.76-2.51,1.34-4.5a9.62,9.62,0,0,0,2.11.29C278.65,222,277.45,223.45,276.38,224.8Z"/><path class="cls-3" d="M287,217.16l-3.89,17.37a84.63,84.63,0,0,0-8.21,8.87,141.56,141.56,0,0,0,8.84-23.45c0.17-.07.34-0.12,0.5-0.19A8.13,8.13,0,0,0,287,217.16Z"/><path class="cls-3" d="M254.18,320.9l-0.1,0a0.18,0.18,0,0,1,.1,0c0.31,0.17.61,0.34,0.88,0.52h0C254.78,321.22,254.49,321.07,254.18,320.9Z"/><path class="cls-4" d="M297.64,259.1a48.25,48.25,0,0,0,5-11l29.1-92.41,16.14,7.52c10,4.65,15.06,14.89,11.3,22.75l-41.07,85.89c-6.52.66-13.87,7-17.92,11C300.16,274.32,299.46,265.9,297.64,259.1Z"/><path class="cls-5" d="M294.43,251c-2-3.48-4.7-5.9-8.19-6.77a116.27,116.27,0,0,0,7.89-16c-3.23-.08-7.38,2.9-11,6.23L287,217.16a38.23,38.23,0,0,0,5.69-13.86l17.08-82.15,14.61,5.59a17,17,0,0,1,10,20.68l-2.62,8.31-3.27-1.53Z"/><path class="cls-5" d="M297.64,259.1a33.15,33.15,0,0,0-3.21-8.08l34.07-96.82,3.27,1.53-29.1,92.41A48.25,48.25,0,0,1,297.64,259.1Z"/><path class="cls-6" d="M271.47,216.88c3-9.89,2.82-21.16,1.54-30.76,0.18-1,.34-2,0.46-3l11.07-93.45L299,93.58a18.29,18.29,0,0,1,12.91,21l-2.65,12.74-20.46,98.37c-1.35,6.5-4,12.86-6.81,16.6a9.74,9.74,0,0,1-3.3,3.1c-0.19.09-.4,0.15-0.6,0.23,0.62-2.19,1.23-4.41,1.82-6.74,0,0-3.15,3.51-6.54,7.53a11.52,11.52,0,0,1-2.52-.35c2.89-9.9,8.05-28.22,9.06-33.17C276.71,217.78,265.62,236,271.47,216.88Z"/><path class="cls-7" d="M277.85,161.29c-1.88-8.08-4-12.35-2.84-7.86,2.48,9.56-13.1,28.32-11,19.47,1.74-7.23-.55-31.47-1.44-38.36l1.22-80.23L278.74,57A15.27,15.27,0,0,1,291,73.57l-1.9,16.07L286.6,89Z"/><path class="cls-7" d="M279.49,170.22c-0.44-3.27-1-6.3-1.63-8.93L286.6,89l2.51,0.68-9.24,78C279.77,168.53,279.64,169.38,279.49,170.22Z"/><path class="cls-8" d="M257,40c3.89,0,7,6.45,6.86,14.24l-2.77,83.4c-1.74,4.89-4.81,11-5.81,9-1.42-2.83-5.25-49.89-5.25-49.89V40h7Z"/><path class="cls-8" d="M262.27,132.9a18.19,18.19,0,0,1-1.21,4.78l2.77-83.36-1.22,80.23C262.41,133,262.27,132.31,262.27,132.9Z"/><path class="cls-1" d="M278.23,254.13c-0.15-.87-0.32-1.66-0.48-2.43v0a3,3,0,0,0,1.55-.13l-0.87,3.9C278.36,255.05,278.31,254.61,278.23,254.13Z"/><path class="cls-1" d="M250,324.66l0,0.1s2.22-.16,5-3.36h0c3.08-3.54,6.84-10.79,9.07-25.66,0,0,5.62-9.56,7.39-11,1.55-1.24,8.26-8.62,7.49-23.8l2.29,2.57c1.63,1.83,4.85,2.73,7.88,2.41l-7.86,22.33,4.43,4.93c2.06,2.29,6.42,3.86,10.46,4l-0.93,11.18L295,312c-0.49-1.69-.85-2.78-0.85-2.78,0.81,2.6-.16,8.76-1.46,14.67-1.53,7-3.5,13.64-3.5,13.64a21.82,21.82,0,0,0-.79-7.91,18.05,18.05,0,0,0-3.1-6.25c3.54,6.73-7.08,28.32-7.08,28.32,2.12-3.19-3.89-14.16-3.89-14.16,3.19,6.37-5.31,28.32-5.31,28.32,1.06-5.31-1.42-14.16-1.42-14.16,0,7.14-5.64,22.29-7.44,26.93,1.11-4.89-5-12.77-5-12.77,0.57,11-5.12,22.65-5.12,22.65V324.79Z"/><path class="cls-1" d="M297.64,259.1c1.82,6.8,2.52,15.21,2.58,23.84-1.91,1.9-3.09,3.28-3.09,3.28l-0.91,10.92c-4-.09-8.4-1.67-10.46-4l-4.43-4.93,7.86-22.33a10.19,10.19,0,0,0,2.3-.48C293.32,264.8,295.55,262.4,297.64,259.1Z"/><path class="cls-1" d="M286.24,244.25c3.49,0.87,6.16,3.29,8.19,6.77l-5.25,14.9c-3,.32-6.25-0.59-7.88-2.41L279,260.95a54.06,54.06,0,0,0-.59-5.43l0.87-3.9C281.53,250.87,284,247.87,286.24,244.25Z"/><path class="cls-1" d="M297.64,259.1c-2.09,3.3-4.32,5.7-6.15,6.34a10.19,10.19,0,0,1-2.3.48l5.25-14.9A33.15,33.15,0,0,1,297.64,259.1Z"/><path class="cls-9" d="M250,273.78v45.77a5.13,5.13,0,0,1,1.3.82c0.13,0,.21.64,0.34,0.64h0a3.53,3.53,0,0,1,1-.26c0.19,0.07.37-.14,0.55-0.06s0.66,0.15.88,0.24a0.2,0.2,0,0,1,.1,0l-0.4-.22,0.4,0.19c0.31,0.17.61,0.34,0.88,0.52,3.08-3.54,6.84-10.79,9.07-25.66,0,0,5.62-9.56,7.39-11,1.55-1.24,8.26-8.62,7.49-23.81l-1.44-1.62,0.86-3.82c-0.07-.46-0.12-0.9-0.2-1.38-0.15-.87-0.32-1.66-0.48-2.43v0a3,3,0,0,0,1.55-.13l3.83-17.09A80.51,80.51,0,0,0,275,243.4C263.27,267.3,250,273.78,250,273.78Zm9.6,2.45a13.19,13.19,0,0,1,5.58-2.95,11.89,11.89,0,0,1,2.41-.39C265.64,287.76,255,286.17,255,286.17,255.55,281.27,257.44,278.18,259.6,276.23Z"/><path class="cls-9" d="M286.24,244.25c-2.26,3.61-4.71,6.62-6.94,7.36l3.83-17.09c3.62-3.33,7.78-6.31,11-6.23A116.27,116.27,0,0,1,286.24,244.25Z"/><path class="cls-9" d="M277.57,259.33l0.86-3.82a54.06,54.06,0,0,1,.59,5.43Z"/><path class="cls-10" d="M251.63,321h0a3.53,3.53,0,0,1,1-.26c0.19,0.07.34,0.07,0.52,0.14s0.43-.05.62,0a0.56,0.56,0,0,0,.3,0l0.1,0c0.31,0.16.6,0.31,0.87,0.49-2.78,3.19-5,3.35-5,3.35l-0.09-.28,0,0.09v-5a5.13,5.13,0,0,1,1.3.82C251.42,320.39,251.51,321,251.63,321Z"/><path class="cls-10" d="M250.06,324.75s2.21-.17,5-3.36h0c-2.78,3.2-5,3.36-5,3.36l0-.1-0.05.13,0-.23,0-.09Z"/><path class="cls-10" d="M253.78,320.86c-0.19-.09-0.42,0-0.62-0.1s-0.33-.2-0.52-0.26c0.19,0.07.37,0,.55,0.06s0.66,0.22.88,0.3A0.56,0.56,0,0,1,253.78,320.86Z"/><path class="cls-1" d="M255.25,146.7c1,2,4.09-4.13,5.84-9a18,18,0,0,0,1.2-4.78c0-.58.12,0.1,0.32,1.64,0.89,6.89,3.17,31.13,1.44,38.36-2.12,8.85,13.45-9.91,11-19.47-1.17-4.5,1-.22,2.83,7.86,0.61,2.63,1.2,5.67,1.63,8.93,1.07,8,1.25,17.43-1.28,25.69-4.89,16,4.38.75,7.08-3.3-0.84,4.13-5.15,19.44-7.57,27.7-0.58,2-1.05,3.58-1.34,4.5,1.07-1.36,2.27-2.82,3.44-4.2,2.83-3.35,5.46-6.29,5.46-6.29-0.49,1.94-1,3.81-1.52,5.63A141.82,141.82,0,0,1,275,243.4c-11.71,23.91-25,30.38-25,30.38v-177S253.84,143.87,255.25,146.7Z"/><path class="cls-11" d="M262.3,278.85c1.64,0,3-2,3-4.49a6.57,6.57,0,0,0-.1-1.09,11.89,11.89,0,0,1,2.41-.39C265.64,287.76,255,286.17,255,286.17c0.53-4.9,2.42-8,4.58-9.94C260.07,277.77,261.1,278.85,262.3,278.85Z"/><path class="cls-12" d="M262.3,278.85c-1.2,0-2.23-1.08-2.7-2.62a13.19,13.19,0,0,1,5.58-2.95,6.57,6.57,0,0,1,.1,1.09C265.28,276.84,263.94,278.85,262.3,278.85Z"/><path class="cls-3" d="M294.13,322.15l-0.3.34,0.42-1.82Z"/><path class="cls-13" d="M293.83,322.49c-0.26.29-.66,0.76-1.16,1.36,1.29-5.92,2.27-12.08,1.46-14.67,0,0,.36,1.09.85,2.78l-0.73,8.71Z"/><path class="cls-9" d="M278.66,375.83l-0.92,4.89c-3.26,17.49-6.48,35.29-8.39,46-1.1,6.13-1.77,9.92-1.77,9.92s36.58,11.8,38.94,0-14.16-9.44-14.16-12.27,32.57-72.68,32.57-72.68c12.48-66.38,4-80.85-6.78-79.76l-4.68,9.79c-3.76,7.86-10.53,14.77-15.05,15.36a14.62,14.62,0,0,1-2.2.09l-0.93,11.18L295,312l-0.73,8.71-0.12,1.48-0.3.34c-0.26.29-.66,0.76-1.16,1.36-1.53,7-3.5,13.64-3.5,13.64a21.82,21.82,0,0,0-.79-7.91C287.25,331.32,283,352.66,278.66,375.83Zm18.72-52.31a13.55,13.55,0,0,1-.41,5.83C296.56,330.37,296.84,328,297.38,323.52Z"/><path class="cls-9" d="M298.41,297a14.62,14.62,0,0,1-2.2.09l0.91-10.92s1.18-1.38,3.09-3.28c4-4,11.41-10.39,17.92-11l-4.68,9.79C309.71,289.54,302.93,296.46,298.41,297Z"/><path class="cls-9" d="M297,329.35c-0.41,1-.12-1.34.41-5.83A13.55,13.55,0,0,1,297,329.35Z"/><path class="cls-14" d="M255.12,365.81s6.16,7.88,5.05,12.77c1.8-4.64,7.43-19.79,7.43-26.93,0,0,2.47,8.85,1.41,14.16,0,0,8.49-21.95,5.31-28.32,0,0,6,11,3.89,14.16,0,0,10.62-21.59,7.08-28.32a18.06,18.06,0,0,1,3.1,6.25c-1.14,1.73-5.37,23.07-9.73,46.25l-0.92,4.89A210.15,210.15,0,0,1,256,389.79c-2,.69-5,1.33-6,1.9v-3.22S255.69,376.79,255.12,365.81Z"/><path class="cls-15" d="M347.92,163.25l-16.14-7.52,2.62-8.31a17,17,0,0,0-10-20.68l-13.87-5.3,1.42-6.81a18.29,18.29,0,0,0-12.91-21L289,90.84l0.14-1.21L291,73.57A15.27,15.27,0,0,0,278.74,57l-14.91-2.76c0.12-7.79-3-14.24-6.86-14.24h-7V324.56l0-.09,0,0.09,0,0.23,0-.09v0.09h0V324.7l0,0,0,0.12v66.91c1-.56,3.91-1.2,5.9-1.88-0.85,11.46-1.93,29.3-.85,34.76,1,5.22,8.76,3.84,14.29,2.12-1.1,6.13-1.77,9.92-1.77,9.92s36.58,11.8,38.94,0-14.16-9.44-14.16-12.27,32.57-72.68,32.57-72.68c12.48-66.38,4-80.85-6.78-79.76L359.22,186C363,178.14,357.89,167.9,347.92,163.25Zm-69.71,188.4,0-.05c0.54-1.1,10.5-21.72,7.05-28.26h0C288.82,330.07,278.21,351.65,278.21,351.65ZM269,365.81v0c0.3-.77,8.42-22,5.3-28.28l0,0C277.47,343.94,269,365.81,269,365.81Zm-8.81,12.64c1.85-4.78,7.39-19.72,7.39-26.8v0.05c0,7.16-5.63,22.25-7.42,26.88C260.19,378.54,260.19,378.49,260.2,378.45Zm19.75-165.52c-0.3,1.48-1,4.17-1.85,7.45l-0.38-.08h0c0.59-2,1.3-4.48,2-7.08Zm-3.57,11.87h0l0.8-1h0ZM275,153.43a5,5,0,0,1-.31-1.8,5.16,5.16,0,0,0,.31,1.8c2,7.77-7.9,21.62-10.54,21.78C267.13,175,277,161.19,275,153.43Zm-14-15.75a18.19,18.19,0,0,0,1.21-4.78c0-.17,0-0.22,0-0.19a0.57,0.57,0,0,0,0,.19,18,18,0,0,1-1.19,4.78c-1.53,4.28-4.08,9.51-5.37,9.41C257,147.19,259.54,142,261.06,137.68Z"/><path class="cls-16" d="M156.25,465.94V465h5.63v1.88h1.88v1.88h1.88v5.63h-1.87v1.88h-1.87v1.88h-5.62v-1.87h-1.87v-1.87H152.5v-5.62h1.88v-1.87h1.88v-0.94Zm3.75,1.88v-0.94h-3.75v7.5h1.88v1.88h3.75v-7.5H160v-0.94Z"/><path class="cls-16" d="M169.38,465.94V465h11.25v1.88h-1.87v1.88h-1.87v1.88h1.88v1.88h1.88v3.75h-1.87v1.88h-9.37v-1.87H167.5v-1.87h3.75v1.88h5.63V472.5h-5.62v-1.87h1.88v-1.87H175v-1.87h-5.62v-0.94Z"/><path class="cls-16" d="M184.38,465.94V465h7.5v1.88h1.88v3.75h-1.87v1.88h3.75v3.75h-1.87v1.88h-9.37v-1.87H182.5V472.5h1.88v-1.87H182.5v-3.75h1.88v-0.94Zm3.75,7.5V472.5h-3.75v3.75h7.5v-1.87h-3.75v-0.94Zm3.75-4.69v-1.87h-5.62v1.88h1.88v1.88h3.75v-1.87Z"/><path class="cls-16" d="M212.5,471.56V465h3.75v1.88h1.88v1.88H220v1.88h1.88V465h3.75v13.13h-3.75v-1.87H220v-1.87h-1.87V472.5h-1.87v5.63H212.5v-6.56Z"/><path class="cls-16" d="M229.38,465.94V465h11.25v1.88h-3.75v9.38h3.75v1.88H229.38v-1.87h3.75v-9.37h-3.75v-0.94Z"/><path class="cls-16" d="M242.5,471.56V465h3.75v1.88h1.88v1.88H250v1.88h1.88V465h3.75v13.13h-3.75v-1.87H250v-1.87h-1.87V472.5h-1.87v5.63H242.5v-6.56Z"/><path class="cls-16" d="M257.5,471.56V465h13.13v1.88h-9.37v3.75h7.5v1.88h-7.5v3.75h9.38v1.88H257.5v-6.56Z"/><path class="cls-16" d="M274.38,465.94V465h11.25v1.88h-3.75v11.25h-3.75V466.88h-3.75v-0.94Z"/><path class="cls-16" d="M291.25,465.94V465h5.63v1.88h1.88v1.88h1.88v9.38h-3.75v-3.75h-5.62v3.75H287.5v-9.37h1.88v-1.87h1.88v-0.94Zm3.75,1.88v-0.94h-1.87v1.88h-1.87v3.75h5.63v-3.75H295v-0.94Z"/><path class="cls-16" d="M304.38,465.94V465h11.25v1.88h-3.75v9.38h3.75v1.88H304.38v-1.87h3.75v-9.37h-3.75v-0.94Z"/><path class="cls-16" d="M319.38,471.56V465h3.75v11.25h7.5v1.88H319.38v-6.56Z"/><path class="cls-16" d="M334.38,465.94V465h7.5v1.88h1.88v1.88H340v-1.87h-3.75v3.75h7.5v1.88h1.88v3.75h-1.87v1.88h-9.37v-1.87H332.5v-1.87h3.75v1.88h5.63V472.5h-7.5v-1.87H332.5v-3.75h1.88v-0.94Z"/></svg>