<?xml version="1.0" ?><svg id="pkft" viewBox="0 0 500 500" xmlns="http://www.w3.org/2000/svg"><defs><style>.cls-1{fill:#e5bec8;}.cls-2{fill:#f2cdd5;}.cls-3{fill:#edc0cc;}.cls-4{fill:#fff;}.cls-5{fill:#00728a;}.cls-6{fill:#ca5276;}.cls-7{opacity:0.1;}.cls-8{fill:#1a1a1a;}.cls-9{fill:#ce7a92;}</style></defs><title/><path class="cls-1" d="M188.23,346.86c-20.35,1.88-36.31,9.2-35.65,16.35s17.69,11.42,38,9.54c14.3-1.32,26.43-5.33,32.15-10.08a100.57,100.57,0,0,1-31.64-16C190.17,346.7,189.2,346.77,188.23,346.86Z"/><path class="cls-1" d="M208.18,176.59c-18.82-19.6-61.76-16.29-61.76-16.29-4.3,20.21,9,57.06,12.76,67A101.74,101.74,0,0,1,208.18,176.59Z"/><path class="cls-2" d="M208.47,176.59a102,102,0,0,0-49.14,50.7A98.42,98.42,0,0,0,151,266.81a100,100,0,0,0,40.17,79.83,102,102,0,0,0,31.91,16A97.57,97.57,0,0,0,251,366.8v-200A99.79,99.79,0,0,0,208.47,176.59Z"/><path class="cls-3" d="M228,178c0,0.5,0,1,0,1.5s0,1,0,1.5c0-.5.08-1,0.13-1.5S228,178.55,228,178Z"/><circle class="cls-4" cx="208.42" cy="253.81" r="37.67"/><circle class="cls-5" cx="208.42" cy="253.81" r="30"/><circle class="cls-4" cx="216.76" cy="238.47" r="12.33"/><path class="cls-6" d="M251,292.81s-20,1.33-20,6.33,20,11,20,11V292.81Z"/><ellipse class="cls-1" cx="167.42" cy="314.47" rx="12.33" ry="22.5" transform="translate(-186.01 359.27) rotate(-69.19)"/><path class="cls-3" d="M233.94,183.31c0-.3.2-0.6,0.24-0.9,1,7.22,7.82,12.8,16.82,12.8V165.43c-9,0-15.95,5.59-17,12.8,0-.3.07-0.6,0-0.9,0.53-7.64,7.92-13.7,16.92-13.7V126.81c-27,0-47.87,22.27-47.87,49.74S224,226.29,251,226.29V197C242,197,234.47,191,233.94,183.31Z"/><path class="cls-2" d="M233.94,177.34c0,0.3.2,0.6,0.24,0.9,1-7.21,7.82-12.8,16.82-12.8v-1.79C242,163.64,234.47,169.7,233.94,177.34Z"/><path class="cls-2" d="M234,182.42c0,0.3.07,0.6,0,.9C234.61,191,242,197,251,197v-1.79C242,195.22,235.05,189.63,234,182.42Z"/><path class="cls-1" d="M311.77,346.86c20.35,1.88,36.31,9.2,35.65,16.35s-17.69,11.42-38,9.54c-14.3-1.32-26.43-5.33-32.15-10.08a100.57,100.57,0,0,0,31.64-16C309.83,346.7,310.8,346.77,311.77,346.86Z"/><path class="cls-1" d="M291.82,176.59c18.82-19.6,61.76-16.29,61.76-16.29,4.3,20.21-9,57.06-12.76,67A101.74,101.74,0,0,0,291.82,176.59Z"/><path class="cls-2" d="M292,176.59a101.54,101.54,0,0,1,48.89,50.7,98.34,98.34,0,0,1,8.21,39.52,101.24,101.24,0,0,1-71.67,95.86A94.34,94.34,0,0,1,250,366.8v-200A97.58,97.58,0,0,1,292,176.59Z"/><path class="cls-3" d="M272,178c0,0.5,0,1,0,1.5s0,1,0,1.5c0-.5-0.08-1-0.13-1.5S272,178.55,272,178Z"/><circle class="cls-4" cx="291.58" cy="253.81" r="37.67"/><circle class="cls-5" cx="291.58" cy="253.81" r="30"/><circle class="cls-4" cx="283.24" cy="238.47" r="12.33"/><path class="cls-6" d="M250,292.81s20,1.33,20,6.33-20,11-20,11V292.81Z"/><ellipse class="cls-1" cx="332.58" cy="314.47" rx="22.5" ry="12.33" transform="translate(-90.02 138.64) rotate(-20.81)"/><path class="cls-3" d="M266.56,183.31c0-.3.05-0.6,0-0.9-1,7.22-7.57,12.8-16.57,12.8V165.43c9,0,15.45,5.59,16.47,12.8,0-.3.18-0.6,0.2-0.9-0.53-7.64-7.67-13.7-16.67-13.7V126.81c27,0,47.87,22.27,47.87,49.74S277,226.29,250,226.29V197C259,197,266,191,266.56,183.31Z"/><path class="cls-2" d="M266.56,177.34c0,0.3.05,0.6,0,.9-1-7.21-7.57-12.8-16.57-12.8v-1.79C259,163.64,266,169.7,266.56,177.34Z"/><path class="cls-2" d="M266.47,182.42c0,0.3.18,0.6,0.2,0.9C266.14,191,259,197,250,197v-1.79C259,195.22,265.45,189.63,266.47,182.42Z"/><g class="cls-7"><path class="cls-8" d="M311.77,346.86c-1-.09-1.94-0.16-2.9-0.22a100.57,100.57,0,0,1-31.64,16c5.72,4.75,17.84,8.76,32.15,10.08,20.35,1.88,37.38-2.39,38-9.54S332.12,348.74,311.77,346.86Z"/><path class="cls-8" d="M343.1,300.54a98.49,98.49,0,0,0-2.33-73.26,101.76,101.76,0,0,0-43.56-47.83v0a101.71,101.71,0,0,1,43.6,47.87c3.8-9.92,17.06-46.77,12.76-67,0,0-35.66-2.77-56.19,11.77C295.27,146.7,275,126.81,250,126.81v240a94.22,94.22,0,0,0,27.44-4.13,100.21,100.21,0,0,0,31.57-16,101.76,101.76,0,0,0,18.68-18.34A38.17,38.17,0,0,0,337,326c11.62-4.41,19.05-13.15,16.63-19.52C352.31,303,348.32,301,343.1,300.54Z"/></g><path class="cls-9" d="M148.75,465.94V465h5.63v1.88h1.88v1.88h1.88v5.63h-1.87v1.88h-1.87v1.88h-5.62v-1.87h-1.87v-1.87H145v-5.62h1.88v-1.87h1.88v-0.94Zm3.75,1.88v-0.94h-3.75v7.5h1.88v1.88h3.75v-7.5H152.5v-0.94Z"/><path class="cls-9" d="M161.88,465.94V465h11.25v1.88h-1.87v1.88h-1.87v1.88h1.88v1.88h1.88v3.75h-1.87v1.88h-9.37v-1.87H160v-1.87h3.75v1.88h5.63V472.5h-5.62v-1.87h1.88v-1.87h1.88v-1.87h-5.62v-0.94Z"/><path class="cls-9" d="M176.88,465.94V465h9.38v1.88h1.88v7.5h-1.87v1.88h-1.87v1.88h-7.5v-1.87h5.63v-1.87h1.88V472.5h-7.5v-1.87H175v-3.75h1.88v-0.94Zm7.5,2.81v-1.87h-5.62v3.75h5.63v-1.87Z"/><path class="cls-9" d="M214.38,470.63V465h3.75v11.25h-1.87v1.88h-9.37v-1.87H205v-1.87h3.75v1.88h5.63v-5.62Z"/><path class="cls-9" d="M221.88,465.94V465h11.25v1.88h-3.75v9.38h3.75v1.88H221.88v-1.87h3.75v-9.37h-3.75v-0.94Z"/><path class="cls-9" d="M238.75,465.94V465h9.38v1.88h-7.5v1.88h-1.87v5.63h1.88v1.88h3.75V472.5H242.5v-1.87h5.63v7.5h-9.37v-1.87h-1.87v-1.87H235v-5.62h1.88v-1.87h1.88v-0.94Z"/><path class="cls-9" d="M253.75,465.94V465h9.38v1.88h-7.5v1.88h-1.87v5.63h1.88v1.88h3.75V472.5H257.5v-1.87h5.63v7.5h-9.37v-1.87h-1.87v-1.87H250v-5.62h1.88v-1.87h1.88v-0.94Z"/><path class="cls-9" d="M266.88,471.56V465h3.75v11.25h7.5v1.88H266.88v-6.56Z"/><path class="cls-9" d="M281.88,467.81V465h3.75v5.63h3.75V465h3.75v5.63h-1.87v1.88h-1.87v5.63h-3.75V472.5h-1.87v-1.87h-1.87v-2.81Z"/><path class="cls-9" d="M295,471.56V465h11.25v1.88h1.88v5.63h-1.87v1.88h-7.5v3.75H295v-6.56Zm9.38-1.87v-2.81h-5.62v5.63h5.63v-2.81Z"/><path class="cls-9" d="M310,470.63V465h3.75v11.25h5.63V465h3.75v11.25h-1.87v1.88h-9.37v-1.87H310v-5.62Z"/><path class="cls-9" d="M325,471.56V465h13.13v1.88h-9.37v3.75h7.5v1.88h-7.5v5.63H325v-6.56Z"/><path class="cls-9" d="M340,471.56V465h13.13v1.88h-9.37v3.75h7.5v1.88h-7.5v5.63H340v-6.56Z"/></svg>