<?xml version="1.0" ?><svg id="pkft" viewBox="0 0 500 500" xmlns="http://www.w3.org/2000/svg"><defs><style>.cls-1{fill:#f29c61;}.cls-2{fill:#ff9443;}.cls-3{fill:#eda370;}.cls-4{fill:none;}.cls-5{fill:#ffe2a9;}.cls-6{fill:#f1905e;}.cls-7{fill:#fff;}.cls-8{fill:#00627b;}.cls-9{fill:#1d1d1b;}.cls-10{fill:#c4a1ae;}.cls-11{fill:#ed1c24;}.cls-11,.cls-12,.cls-13{opacity:0.75;}.cls-12{fill:#ff0;}.cls-13{fill:#fbb03b;}.cls-14{opacity:0.1;}</style></defs><title/><path class="cls-1" d="M210.75,302.43a96.45,96.45,0,0,1-14.32-7.09A35.09,35.09,0,0,0,211,351.6V302.53Z"/><path class="cls-2" d="M241,130l-3.52,36c4.12-.37,8.3-0.91,12.52-0.91V130h-9Z"/><path class="cls-3" d="M208,302.53a0.24,0.24,0,0,1,.11-0.05l-0.11,0v0.09Z"/><path class="cls-4" d="M242.84,324.14q0.51-.32,1-0.6Q243.35,323.82,242.84,324.14Z"/><path class="cls-4" d="M226.91,348.43l0.05-.16Z"/><path class="cls-4" d="M244.18,323.38q0.61-.31,1.23-0.57Q244.79,323.07,244.18,323.38Z"/><path class="cls-4" d="M230.58,339.41l0.18-.37Z"/><path class="cls-4" d="M247,322.24c0.43-.12.87-0.22,1.3-0.3C247.91,322,247.47,322.12,247,322.24Z"/><path class="cls-4" d="M245.7,322.7c0.38-.15.76-0.28,1.15-0.4C246.46,322.42,246.08,322.55,245.7,322.7Z"/><path class="cls-4" d="M225.38,353.4h0v0Z"/><path class="cls-4" d="M235,331.94q0.42-.59.85-1.16Q235.38,331.35,235,331.94Z"/><path class="cls-4" d="M238.79,327.38c0.3-.3.61-0.59,0.92-0.87Q239.25,326.93,238.79,327.38Z"/><path class="cls-4" d="M236.3,330.16l0.64-.77Z"/><path class="cls-4" d="M229.92,340.82l0.06-.12Z"/><path class="cls-4" d="M234,333.4l0.45-.68Z"/><path class="cls-4" d="M240.08,326.19q0.48-.41,1-0.79Q240.56,325.77,240.08,326.19Z"/><path class="cls-4" d="M241.42,325.11c0.38-.28.76-0.55,1.15-0.8C242.19,324.55,241.8,324.82,241.42,325.11Z"/><path class="cls-4" d="M228.66,343.75l0.1-.25Z"/><path class="cls-4" d="M237.4,328.85c0.32-.36.63-0.7,1-1C238,328.15,237.71,328.49,237.4,328.85Z"/><path class="cls-4" d="M221.9,370.79l0-.28Z"/><path class="cls-4" d="M223.38,361.73l0-.08Z"/><path class="cls-4" d="M232.69,335.47l0.37-.61Z"/><path class="cls-4" d="M250,321.73c-0.45,0-.9.09-1.35,0.16C249.1,321.82,249.55,321.76,250,321.73Z"/><path class="cls-4" d="M222.58,366.12l0-.19Z"/><path class="cls-4" d="M231.82,337l0.28-.51Z"/><path class="cls-1" d="M224.71,391.56c-0.24-.07-0.47-0.15-0.71-0.23a16.22,16.22,0,0,1-7.46-5.43c-0.51-.68-0.54-1.4-1.54-2.14v21.16a5.44,5.44,0,0,0,5.41,5.07H229a5.07,5.07,0,0,0,5-5.07V392h-6.5A10.55,10.55,0,0,1,224.71,391.56Z"/><path class="cls-1" d="M221.44,374.8c0,0.25-.05.51-0.08,0.76C221.39,375.31,221.42,375.05,221.44,374.8Z"/><path class="cls-1" d="M220.8,384.34q0,0.56,0,1.13C220.77,385.09,220.78,384.71,220.8,384.34Z"/><path class="cls-1" d="M221,380c0,0.13,0,.26,0,0.39C221,380.21,221,380.08,221,380Z"/><path class="cls-5" d="M248.65,321.89l-0.3.05c-0.44.08-.87,0.18-1.3,0.3l-0.2.06c-0.39.12-.77,0.25-1.15,0.4l-0.29.11q-0.62.26-1.23,0.57l-0.3.16q-0.52.28-1,.6l-0.27.16c-0.39.25-.77,0.52-1.15,0.8l-0.38.29q-0.49.38-1,.79l-0.37.33c-0.31.28-.61,0.57-0.92,0.87l-0.44.44c-0.32.33-.64,0.67-1,1l-0.46.54-0.64.77-0.49.63q-0.43.56-.85,1.16l-0.53.77-0.45.68q-0.46.71-.91,1.46l-0.37.61-0.59,1-0.28.51q-0.54,1-1.06,2l-0.18.37q-0.31.63-.61,1.28l-0.06.12q-0.6,1.3-1.16,2.67l-0.1.25q-0.89,2.18-1.69,4.53l-0.05.16q-0.81,2.39-1.53,4.95v0q-1.11,3.94-2,8.23l0,0.08q-0.42,2.07-.77,4.2l0,0.19q-0.36,2.16-.65,4.39c0,0.09,0,.09,0,0.18-0.1.77-.18,1.24-0.27,2.24s-0.13,1.21-.19,1.77c0,0.25-.05.56-0.08,0.81-0.14,1.45-.26,2.93-0.35,4.41,0,0.13,0,.27,0,0.4-0.08,1.32-.14,2.66-0.19,4,0,0.37,0,.75,0,1.13,0,1.48-.07,3-0.07,4.47,0,0.54,0,1.1,0,1.63a10.57,10.57,0,0,0,2.79.44H250V321.73C249.55,321.76,249.1,321.82,248.65,321.89Z"/><path class="cls-6" d="M249.88,309.92A114.2,114.2,0,0,1,210,302.53v75.9c0,1.81,2,6.79,2.54,7.46a16.21,16.21,0,0,0,7.46,5.42l0.71,0.21c0-.53,0-1.06,0-1.6,0-1.5,0-3,.07-4.47q0-.56,0-1.12,0.07-2,.19-4c0-.13,0-0.26,0-0.39,0.1-1.48.22-2.94,0.35-4.39,0-.26.05-0.61,0.08-0.86,0.06-.56.11-0.77,0.17-1.77s0.19-1.47.29-2.24c0-.09,0-0.14,0-0.23,0.19-1.48.41-2.92,0.65-4.36l0-.18c0.24-1.42.49-2.82,0.77-4.2l0-.08q0.86-4.29,2-8.23h0v0q0.72-2.55,1.53-4.95l0.05-.16q0.8-2.35,1.69-4.53l0.1-.25q0.56-1.37,1.16-2.67l0.06-.12q0.3-.65.61-1.28l0.18-.37q0.52-1,1.06-2l0.28-.51,0.59-1,0.37-.61q0.45-.75.91-1.46l0.45-.68,0.53-.77q0.42-.59.85-1.16l0.49-.63,0.64-.77,0.46-.54c0.31-.36.63-0.7,1-1l0.44-.44q0.46-.45.92-0.87l0.37-.33q0.48-.41,1-0.79l0.38-.29c0.38-.28.76-0.55,1.15-0.8l0.27-.16q0.51-.32,1-0.6l0.3-.16q0.61-.31,1.23-0.57l0.29-.11c0.38-.15.76-0.28,1.15-0.4l0.2-.06c0.43-.12.87-0.22,1.3-0.3l0.3-.05c0.45-.07.9-0.13,1.35-0.16V309.92h-0.12Z"/><path class="cls-6" d="M230,340.7q0.3-.65.61-1.28Q230.28,340,230,340.7Z"/><path class="cls-6" d="M230.77,339q0.52-1,1.06-2Q231.28,338,230.77,339Z"/><path class="cls-6" d="M222.61,365.93q0.36-2.14.77-4.2Q223,363.79,222.61,365.93Z"/><path class="cls-6" d="M221.93,370.51q0.29-2.23.65-4.39Q222.23,368.28,221.93,370.51Z"/><path class="cls-6" d="M223.4,361.65q0.86-4.28,2-8.23Q224.27,357.36,223.4,361.65Z"/><path class="cls-6" d="M225.38,353.38q0.72-2.55,1.53-4.95Q226.1,350.83,225.38,353.38Z"/><path class="cls-6" d="M227,348.27q0.8-2.35,1.69-4.53Q227.77,345.92,227,348.27Z"/><path class="cls-6" d="M228.76,343.49q0.56-1.37,1.16-2.67Q229.32,342.12,228.76,343.49Z"/><path class="cls-6" d="M239.71,326.51l0.37-.33Z"/><path class="cls-6" d="M245.41,322.81l0.29-.11Z"/><path class="cls-6" d="M246.85,322.3l0.2-.06Z"/><path class="cls-6" d="M232.1,336.5l0.59-1Z"/><path class="cls-6" d="M221.9,370.66c-0.1.78-.2,1.34-0.29,2.34h0C221.72,372,221.8,371.43,221.9,370.66Z"/><path class="cls-6" d="M248.35,321.94l0.3-.05Z"/><path class="cls-6" d="M242.57,324.3l0.27-.16Z"/><path class="cls-6" d="M243.88,323.54l0.3-.16Z"/><path class="cls-6" d="M234.42,332.72l0.53-.77Z"/><path class="cls-6" d="M235.81,330.79l0.49-.63Z"/><path class="cls-6" d="M241,325.4l0.38-.29Z"/><path class="cls-6" d="M233.06,334.85q0.45-.75.91-1.46Q233.51,334.11,233.06,334.85Z"/><path class="cls-6" d="M238.35,327.82l0.44-.44Z"/><path class="cls-6" d="M236.94,329.39l0.46-.54Z"/><path class="cls-6" d="M221,380.34q-0.12,2-.19,4C220.84,383,220.91,381.66,221,380.34Z"/><path class="cls-6" d="M220.76,385.46c0,1.48-.07,3-0.07,4.47C220.69,388.43,220.72,386.94,220.76,385.46Z"/><path class="cls-6" d="M221.63,373.13h0c-0.06.55-.11,1.11-0.17,1.67C221.5,374.23,221.57,373.68,221.63,373.13Z"/><path class="cls-6" d="M221.36,375.56c-0.14,1.45-.26,2.91-0.35,4.39Q221.15,377.73,221.36,375.56Z"/><path class="cls-1" d="M238.32,165.66C206.93,169.51,180,188.38,180,211.1v68.83l1.5,2.47c4.13,5.74,9.47,10.12,15.66,14.08a83.58,83.58,0,0,0,13.41,6.26q1.78,0.68,3.61,1.3A103.45,103.45,0,0,0,248,309.92h2v-145A96,96,0,0,0,238.32,165.66Z"/><path class="cls-7" d="M207.16,232.55l4.13,0.36A29.68,29.68,0,0,1,209.22,220,79.28,79.28,0,0,0,207.16,232.55Z"/><path class="cls-8" d="M222.64,200.43c-5.24-.46-10.47,7.66-13.41,19.47a30.07,30.07,0,0,0,2.06,13l21,1.84C233.91,216.46,229.58,201,222.64,200.43Z"/><ellipse class="cls-9" cx="220.59" cy="217.69" rx="12.34" ry="5.93" transform="translate(-15.5 418.48) rotate(-85)"/><ellipse class="cls-7" cx="224.79" cy="213.3" rx="5.13" ry="2.46" transform="translate(-7.3 418.64) rotate(-85)"/><path class="cls-7" d="M200.32,272.18a10.72,10.72,0,0,0,1.85,3.58l2.12-2.12C202.9,273.17,201.57,272.69,200.32,272.18Z"/><path class="cls-10" d="M250,279.93c-18,0-34.25-2.42-45.71-6.29l-2.12,2.12c2.71,3.57,7.85,6.71,14.64,9.12l1.65-2.48,0.09,3.08,0.58,0.18,1.12-1.69,0.06,2A106.73,106.73,0,0,0,250,289.93v-10Z"/><path class="cls-7" d="M216.81,284.88l1.74,0.59-0.09-3.08Z"/><path class="cls-7" d="M219.13,285.66l1.18,0.36-0.06-2Z"/><path class="cls-11" d="M245.92,100.69s0.54,1.29-.64,1.29-4,.21-2.79-2.68c0,0-6.53,8.84-2.68,9.22,0,0,2.25-2,2-1.07,0,0-2.11,5-3.25,2.36,0,0-2.75,2.25-1.79,4.93s1.61,4.5,1.61,4.5,1.07,4.18-1.07,1.61l-2.14-2.57s-1.29,5.9,1.39,5.68,1.41,1.72,1.41,1.72-3.28.43-4.11-.86-0.08,5.36,1.63,5.36c1.39,0,.42,1.34,1.48,1.56,0.17,1.55,3,2.44,6.48,2.44s6.4-.18,6.5-3.18h0V90.07Z"/><path class="cls-12" d="M240.88,131.15s-4.18.58-2.47-3.82,3.43-5.17,3.43-5.17-3.11,5.82-.86,4.46,5.36-1.69,4.08-3.19-2.57-1.18-2.68-3.54c0,0,.47,2.33,2.47,1.29s-4.61-4.29-4.72-2c0,0-2.14-2.9.21-4.61s1.51,5.32,2.47,2.47-2-3.76-1.13-5.69,1.66-1.29,2.42-3.32,1.5-4.93-.32-3.65-1.83,2.36-1.83,2.36-0.52-7.08,4.41-1.82c0,0,1.72,4.5,1.72,1.29s-0.64-4.83-1.5-4.83,2.9-1,3.43-5.79v35.71Z"/><path class="cls-13" d="M250,128.68V102.94s-0.32,7.29-3,8-0.21-2.9,0-2.36-6.33-.11-2.47,7.19,4.93,8.36,2.79,9.54-3.19-.43-4,1.18-2.83,4.29,0,4.5S250,128.68,250,128.68Z"/><path class="cls-9" d="M238.05,267.41c-0.33-.2-0.29-0.27.07-0.15l4,1.3a0.7,0.7,0,0,1,.45.88h0a0.52,0.52,0,0,1-.81.29Z"/><path class="cls-1" d="M289.25,302.43a96.45,96.45,0,0,0,14.32-7.09A35.09,35.09,0,0,1,289,351.6V302.53Z"/><path class="cls-2" d="M259,130l3.52,36c-4.12-.37-8.52-0.91-12.52-0.91V130h9Z"/><path class="cls-3" d="M292,302.53a0.24,0.24,0,0,0-.11-0.05l0.11,0v0.09Z"/><path class="cls-4" d="M257.16,324.14q-0.51-.32-1-0.6Q256.65,323.82,257.16,324.14Z"/><path class="cls-4" d="M273.09,348.43l-0.05-.16Z"/><path class="cls-4" d="M255.82,323.38q-0.61-.31-1.23-0.57Q255.21,323.07,255.82,323.38Z"/><path class="cls-4" d="M269.42,339.41l-0.18-.37Z"/><path class="cls-4" d="M253,322.24c-0.43-.12-0.87-0.22-1.3-0.3C252.09,322,252.53,322.12,253,322.24Z"/><path class="cls-4" d="M254.3,322.7c-0.38-.15-0.76-0.28-1.15-0.4C253.54,322.42,253.92,322.55,254.3,322.7Z"/><path class="cls-4" d="M274.62,353.4h0v0Z"/><path class="cls-4" d="M265,331.94q-0.42-.59-0.85-1.16Q264.62,331.35,265,331.94Z"/><path class="cls-4" d="M261.21,327.38c-0.3-.3-0.61-0.59-0.92-0.87Q260.75,326.93,261.21,327.38Z"/><path class="cls-4" d="M263.7,330.16l-0.64-.77Z"/><path class="cls-4" d="M270.08,340.82L270,340.7Z"/><path class="cls-4" d="M266,333.4l-0.45-.68Z"/><path class="cls-4" d="M259.92,326.19q-0.48-.41-1-0.79Q259.44,325.77,259.92,326.19Z"/><path class="cls-4" d="M258.58,325.11c-0.38-.28-0.76-0.55-1.15-0.8C257.81,324.55,258.2,324.82,258.58,325.11Z"/><path class="cls-4" d="M271.34,343.75l-0.1-.25Z"/><path class="cls-4" d="M262.6,328.85c-0.32-.36-0.63-0.7-1-1C262,328.15,262.29,328.49,262.6,328.85Z"/><path class="cls-4" d="M278.1,370.79l0-.28Z"/><path class="cls-4" d="M276.62,361.73l0-.08Z"/><path class="cls-4" d="M267.31,335.47l-0.37-.61Z"/><path class="cls-4" d="M250,321.73c0.45,0,.9.09,1.35,0.16C250.9,321.82,250.45,321.76,250,321.73Z"/><path class="cls-4" d="M277.42,366.12l0-.19Z"/><path class="cls-4" d="M268.18,337l-0.28-.51Z"/><path class="cls-1" d="M275.29,391.56c0.24-.07.47-0.15,0.71-0.23a16.22,16.22,0,0,0,7.46-5.43c0.51-.68.54-1.4,1.54-2.14v21.16a5.44,5.44,0,0,1-5.41,5.07H271a5.07,5.07,0,0,1-5-5.07V392h6.5A10.55,10.55,0,0,0,275.29,391.56Z"/><path class="cls-1" d="M278.56,374.8c0,0.25.05,0.51,0.08,0.76C278.61,375.31,278.58,375.05,278.56,374.8Z"/><path class="cls-1" d="M279.2,384.34q0,0.56,0,1.13C279.23,385.09,279.22,384.71,279.2,384.34Z"/><path class="cls-1" d="M279,380c0,0.13,0,.26,0,0.39C279,380.21,279,380.08,279,380Z"/><path class="cls-5" d="M251.35,321.89l0.3,0.05c0.44,0.08.87,0.18,1.3,0.3l0.2,0.06c0.39,0.12.77,0.25,1.15,0.4l0.29,0.11q0.62,0.26,1.23.57l0.3,0.16q0.52,0.28,1,.6l0.27,0.16c0.39,0.25.77,0.52,1.15,0.8L259,325.4q0.49,0.38,1,.79l0.37,0.33c0.31,0.28.61,0.57,0.92,0.87l0.44,0.44c0.32,0.33.64,0.67,1,1l0.46,0.54,0.64,0.77,0.49,0.63q0.43,0.56.85,1.16l0.53,0.77L266,333.4q0.46,0.71.91,1.46l0.37,0.61,0.59,1,0.28,0.51q0.54,1,1.06,2l0.18,0.37q0.31,0.63.61,1.28l0.06,0.12q0.6,1.3,1.16,2.67l0.1,0.25q0.89,2.18,1.69,4.53l0.05,0.16q0.81,2.39,1.53,4.95v0q1.11,3.94,2,8.23l0,0.08q0.42,2.07.77,4.2l0,0.19q0.36,2.16.65,4.39c0,0.09,0,.09,0,0.18,0.1,0.77.18,1.24,0.27,2.24s0.13,1.21.19,1.77c0,0.25.05,0.56,0.08,0.81,0.14,1.45.26,2.93,0.35,4.41,0,0.13,0,.27,0,0.4,0.08,1.32.14,2.66,0.19,4,0,0.37,0,.75,0,1.13,0,1.48.07,3,.07,4.47,0,0.54,0,1.1,0,1.63a10.57,10.57,0,0,1-2.79.44H250V321.73C250.45,321.76,250.9,321.82,251.35,321.89Z"/><path class="cls-6" d="M250.13,309.92A114.2,114.2,0,0,0,290,302.53v75.9c0,1.81-2,6.79-2.54,7.46a16.21,16.21,0,0,1-7.46,5.42l-0.71.21c0-.53,0-1.06,0-1.6,0-1.5,0-3-.07-4.47q0-.56,0-1.12-0.07-2-.19-4c0-.13,0-0.26,0-0.39-0.1-1.48-.22-2.94-0.35-4.39,0-.26-0.05-0.61-0.08-0.86-0.06-.56-0.11-0.77-0.17-1.77s-0.19-1.47-.29-2.24c0-.09,0-0.14,0-0.23-0.19-1.48-.41-2.92-0.65-4.36l0-.18c-0.24-1.42-.49-2.82-0.77-4.2l0-.08q-0.86-4.29-2-8.23h0v0q-0.72-2.55-1.53-4.95l-0.05-.16q-0.8-2.35-1.69-4.53l-0.1-.25q-0.56-1.37-1.16-2.67L270,340.7q-0.3-.65-0.61-1.28l-0.18-.37q-0.52-1-1.06-2l-0.28-.51-0.59-1-0.37-.61q-0.45-.75-0.91-1.46l-0.45-.68-0.53-.77q-0.42-.59-0.85-1.16l-0.49-.63-0.64-.77-0.46-.54c-0.31-.36-0.63-0.7-1-1l-0.44-.44q-0.46-.45-0.92-0.87l-0.37-.33q-0.48-.41-1-0.79l-0.38-.29c-0.38-.28-0.76-0.55-1.15-0.8l-0.27-.16q-0.51-.32-1-0.6l-0.3-.16q-0.61-.31-1.23-0.57l-0.29-.11c-0.38-.15-0.76-0.28-1.15-0.4l-0.2-.06c-0.43-.12-0.87-0.22-1.3-0.3l-0.3-.05c-0.45-.07-0.9-0.13-1.35-0.16V309.92h0.13Z"/><path class="cls-6" d="M270,340.7q-0.3-.65-0.61-1.28Q269.72,340,270,340.7Z"/><path class="cls-6" d="M269.23,339q-0.52-1-1.06-2Q268.72,338,269.23,339Z"/><path class="cls-6" d="M277.39,365.93q-0.36-2.14-.77-4.2Q277,363.79,277.39,365.93Z"/><path class="cls-6" d="M278.07,370.51q-0.29-2.23-.65-4.39Q277.77,368.28,278.07,370.51Z"/><path class="cls-6" d="M276.6,361.65q-0.86-4.28-2-8.23Q275.73,357.36,276.6,361.65Z"/><path class="cls-6" d="M274.62,353.38q-0.72-2.55-1.53-4.95Q273.9,350.83,274.62,353.38Z"/><path class="cls-6" d="M273,348.27q-0.8-2.35-1.69-4.53Q272.23,345.92,273,348.27Z"/><path class="cls-6" d="M271.24,343.49q-0.56-1.37-1.16-2.67Q270.68,342.12,271.24,343.49Z"/><path class="cls-6" d="M260.29,326.51l-0.37-.33Z"/><path class="cls-6" d="M254.59,322.81l-0.29-.11Z"/><path class="cls-6" d="M253.15,322.3l-0.2-.06Z"/><path class="cls-6" d="M267.9,336.5l-0.59-1Z"/><path class="cls-6" d="M278.1,370.66c0.1,0.78.2,1.34,0.29,2.34h0C278.28,372,278.2,371.43,278.1,370.66Z"/><path class="cls-6" d="M251.65,321.94l-0.3-.05Z"/><path class="cls-6" d="M257.43,324.3l-0.27-.16Z"/><path class="cls-6" d="M256.12,323.54l-0.3-.16Z"/><path class="cls-6" d="M265.58,332.72l-0.53-.77Z"/><path class="cls-6" d="M264.19,330.79l-0.49-.63Z"/><path class="cls-6" d="M259,325.4l-0.38-.29Z"/><path class="cls-6" d="M266.94,334.85q-0.45-.75-0.91-1.46Q266.49,334.11,266.94,334.85Z"/><path class="cls-6" d="M261.65,327.82l-0.44-.44Z"/><path class="cls-6" d="M263.06,329.39l-0.46-.54Z"/><path class="cls-6" d="M279,380.34q0.12,2,.19,4C279.16,383,279.09,381.66,279,380.34Z"/><path class="cls-6" d="M279.24,385.46c0,1.48.07,3,.07,4.47C279.31,388.43,279.28,386.94,279.24,385.46Z"/><path class="cls-6" d="M278.37,373.13h0c0.06,0.55.11,1.11,0.17,1.67C278.5,374.23,278.43,373.68,278.37,373.13Z"/><path class="cls-6" d="M278.64,375.56c0.14,1.45.26,2.91,0.35,4.39Q278.85,377.73,278.64,375.56Z"/><path class="cls-1" d="M261.68,165.66C293.07,169.51,320,188.38,320,211.1v68.83l-1.5,2.47c-4.13,5.74-9.47,10.12-15.66,14.08a83.58,83.58,0,0,1-13.41,6.26q-1.78.68-3.61,1.3A103.45,103.45,0,0,1,252,309.92h-2v-145A95.23,95.23,0,0,1,261.68,165.66Z"/><path class="cls-7" d="M292.84,232.55l-4.13.36A29.68,29.68,0,0,0,290.78,220,79.28,79.28,0,0,1,292.84,232.55Z"/><path class="cls-8" d="M277.36,200.43c5.24-.46,10.47,7.66,13.41,19.47a30.07,30.07,0,0,1-2.06,13l-21,1.84C266.09,216.46,270.42,201,277.36,200.43Z"/><ellipse class="cls-9" cx="279.41" cy="217.69" rx="5.93" ry="12.34" transform="translate(-17.91 25.18) rotate(-5)"/><ellipse class="cls-7" cx="275.21" cy="213.3" rx="2.46" ry="5.13" transform="translate(-17.54 24.8) rotate(-5)"/><path class="cls-7" d="M299.68,272.18a10.72,10.72,0,0,1-1.85,3.58l-2.12-2.12C297.1,273.17,298.43,272.69,299.68,272.18Z"/><path class="cls-10" d="M250,279.93c18,0,34.25-2.42,45.71-6.29l2.12,2.12c-2.71,3.57-7.85,6.71-14.64,9.12l-1.65-2.48-0.09,3.08-0.58.18L279.74,284l-0.06,2A106.73,106.73,0,0,1,250,289.93v-10Z"/><path class="cls-7" d="M283.19,284.88l-1.74.59,0.09-3.08Z"/><path class="cls-7" d="M280.87,285.66l-1.18.36,0.06-2Z"/><path class="cls-11" d="M254.08,100.69s-0.54,1.29.64,1.29,4,0.21,2.79-2.68c0,0,6.53,8.84,2.68,9.22,0,0-2.25-2-2-1.07,0,0,2.11,5,3.25,2.36,0,0,2.75,2.25,1.79,4.93s-1.61,4.5-1.61,4.5-1.07,4.18,1.07,1.61l2.14-2.57s1.29,5.9-1.39,5.68-1.41,1.72-1.41,1.72,3.28,0.43,4.11-.86,0.08,5.36-1.63,5.36c-1.39,0-.42,1.34-1.48,1.56-0.17,1.55-3,2.44-6.48,2.44s-6.4-.18-6.5-3.18h0V90.07Z"/><path class="cls-12" d="M259.12,131.15s4.18,0.58,2.47-3.82-3.43-5.17-3.43-5.17,3.11,5.82.86,4.46-5.36-1.69-4.08-3.19,2.57-1.18,2.68-3.54c0,0-.47,2.33-2.47,1.29s4.61-4.29,4.72-2c0,0,2.14-2.9-.21-4.61s-1.51,5.32-2.47,2.47,2-3.76,1.13-5.69S256.65,110,255.9,108s-1.5-4.93.32-3.65,1.83,2.36,1.83,2.36,0.52-7.08-4.41-1.82c0,0-1.72,4.5-1.72,1.29s0.64-4.83,1.5-4.83-2.43-1-3.43-5.79v35.71Z"/><path class="cls-13" d="M250,128.68V102.94s0.32,7.29,3,8,0.21-2.9,0-2.36,6.33-.11,2.47,7.19-4.93,8.36-2.79,9.54,3.19-.43,4,1.18,2.83,4.29,0,4.5S250,128.68,250,128.68Z"/><path class="cls-9" d="M261.95,267.41c0.33-.2.29-0.27-0.07-0.15l-4,1.3a0.7,0.7,0,0,0-.45.88h0a0.52,0.52,0,0,0,.81.29Z"/><path class="cls-14" d="M262.5,165.77l-3.11-31.85c2.05-.35,3.49-1.09,3.61-2.18,1.06-.22.09-1.56,1.48-1.56,1.72,0,2.47-6.65,1.63-5.36s-4.11.86-4.11,0.86-1.27-1.93,1.41-1.72,1.39-5.68,1.39-5.68l-2.15,2.57c-2.15,2.57-1.07-1.61-1.07-1.61s0.64-1.82,1.61-4.5-1.79-4.93-1.79-4.93c-1.14,2.68-3.25-2.36-3.25-2.36-0.21-1,2,1.07,2,1.07,3.85-.39-2.68-9.22-2.68-9.22,1.18,2.9-1.61,2.68-2.79,2.68s-0.64-1.29-.64-1.29L250,90.07V309.92h0V392h16v12.93a5.07,5.07,0,0,0,5,5.07h8.59a5.44,5.44,0,0,0,5.41-5.07V388.47a15.36,15.36,0,0,0,2.46-2.57c0.51-.68,2.54-5.65,2.54-7.46V351.22a35.07,35.07,0,0,0,13.92-55.46A53.8,53.8,0,0,0,318.5,282.4l1.5-2.47V211.1C320,188.58,293.54,169.85,262.5,165.77Zm15.72,205.78a10.59,10.59,0,0,1,.15,1.44h0s0,0.5.06,0.71c0-.2,0-0.71-0.06-0.71h0a0.65,0.65,0,0,1,0-.13c-0.09-1-.17-1.44-0.27-2.21,0-.09,0-0.07,0-0.17-0.19-1.48-.41-2.94-0.65-4.38l0-.19q-0.36-2.14-.77-4.2l0-.08q-0.86-4.29-2-8.23h0v0q-0.72-2.55-1.53-4.95,0.81,2.39,1.53,4.95v0h0q1.11,3.94,2,8.23l0,0.08c0.28,1.38.53,2.77,0.77,4.2l0,0.18c0.24,1.44.45,2.88,0.65,4.36l0,0.25C278.14,371,278.18,371.29,278.22,371.56Zm0.28,2.7,0-.36c0,0.29.06,0.49,0.09,0.8C278.54,374.53,278.52,374.4,278.5,374.26Zm0-.31c0-.12,0-0.25,0-0.4Zm6.74-69.71,0.61-.21c1.08-.36,2.13-0.75,3.18-1.14h0Q287.13,303.6,285.21,304.24Z"/><path class="cls-1" d="M148.75,465.94V465h5.63v1.88h1.88v1.88h1.88v5.63h-1.87v1.88h-1.87v1.88h-5.62v-1.87h-1.87v-1.87H145v-5.62h1.88v-1.87h1.88v-0.94Zm3.75,1.88v-0.94h-3.75v7.5h1.88v1.88h3.75v-7.5H152.5v-0.94Z"/><path class="cls-1" d="M163.75,465.94V465h5.63v1.88h1.88v1.88h1.88v5.63h-1.87v1.88h-1.87v1.88h-5.62v-1.87h-1.87v-1.87H160v-5.62h1.88v-1.87h1.88v-0.94Zm3.75,1.88v-0.94h-3.75v7.5h1.88v1.88h3.75v-7.5H167.5v-0.94Z"/><path class="cls-1" d="M180.63,465.94V465h5.63v7.5h1.88v1.88h-1.87v3.75H182.5v-3.75H175v-3.75h1.88v-1.87h1.88v-1.87h1.88v-0.94Zm1.88,4.69v-1.87h-1.87v1.88h-1.87v1.88h3.75v-1.87Z"/><path class="cls-1" d="M208.75,465.94V465h7.5v1.88h1.88v1.88h-3.75v-1.87h-3.75v1.88h-1.87v5.63h1.88v1.88h3.75v-1.87h3.75v1.88h-1.87v1.88h-7.5v-1.87h-1.87v-1.87H205v-5.62h1.88v-1.87h1.88v-0.94Z"/><path class="cls-1" d="M220,471.56V465h3.75v5.63h5.63V465h3.75v13.13h-3.75V472.5h-5.62v5.63H220v-6.56Z"/><path class="cls-1" d="M238.75,465.94V465h5.63v1.88h1.88v1.88h1.88v9.38h-3.75v-3.75h-5.62v3.75H235v-9.37h1.88v-1.87h1.88v-0.94Zm3.75,1.88v-0.94h-1.87v1.88h-1.87v3.75h5.63v-3.75H242.5v-0.94Z"/><path class="cls-1" d="M250,471.56V465h11.25v1.88h1.88v5.63h-3.75v1.88h1.88v1.88h1.88v1.88H257.5v-1.87h-1.87v-1.87h-1.87v3.75H250v-6.56Zm9.38-2.81v-1.87h-5.62v5.63h3.75v-1.87h1.88v-1.87Z"/><path class="cls-1" d="M265,471.56V465h3.75v1.88h1.88v1.88h1.88v-1.87h1.88V465h3.75v13.13h-3.75V472.5H272.5v1.88h-1.87V472.5h-1.87v5.63H265v-6.56Z"/><path class="cls-1" d="M283.75,465.94V465h5.63v1.88h1.88v1.88h1.88v9.38h-3.75v-3.75h-5.62v3.75H280v-9.37h1.88v-1.87h1.88v-0.94Zm3.75,1.88v-0.94h-1.87v1.88h-1.87v3.75h5.63v-3.75H287.5v-0.94Z"/><path class="cls-1" d="M295,471.56V465h3.75v1.88h1.88v1.88h1.88v1.88h1.88V465h3.75v13.13h-3.75v-1.87H302.5v-1.87h-1.87V472.5h-1.87v5.63H295v-6.56Z"/><path class="cls-1" d="M310,471.56V465h9.38v1.88h1.88v1.88h1.88v5.63h-1.87v1.88h-1.87v1.88H310v-6.56Zm7.5-3.75v-0.94h-3.75v9.38h3.75v-1.87h1.88v-5.62H317.5v-0.94Z"/><path class="cls-1" d="M325,471.56V465h13.13v1.88h-9.37v3.75h7.5v1.88h-7.5v3.75h9.38v1.88H325v-6.56Z"/><path class="cls-1" d="M340,471.56V465h11.25v1.88h1.88v5.63h-3.75v1.88h1.88v1.88h1.88v1.88H347.5v-1.87h-1.87v-1.87h-1.87v3.75H340v-6.56Zm9.38-2.81v-1.87h-5.62v5.63h3.75v-1.87h1.88v-1.87Z"/></svg>