<?xml version="1.0" ?><svg id="pkft" viewBox="0 0 500 500" xmlns="http://www.w3.org/2000/svg"><defs><style>.cls-1{fill:#f6c8dd;}.cls-2{fill:#efbfd8;}.cls-3{fill:#fff;}.cls-4{fill:#2cb5a9;}.cls-5{fill:#f9e8ed;}.cls-6{fill:#ed8599;}.cls-7,.cls-8{fill:#1a1a1a;}.cls-8{opacity:0.1;}.cls-9{fill:#dd9bc1;}</style></defs><title/><path class="cls-1" d="M227.5,153a55.58,55.58,0,0,0-26.83,7.38,62.5,62.5,0,0,0-11,8L180.33,164l4.36,9.33a61.61,61.61,0,0,0-5.35,6.83,55.3,55.3,0,0,0-9,22.87l-6.49,45.1-5.68,39.43-6.06,42.09c-1.85,12.79,1.44,24.55,8.3,33.42,1.44-27.19,6.46-52.44,14.17-74.17a183.83,183.83,0,0,1,13.18-29.22c16.16-28.47,38.08-46,62.21-46V153H227.5Z"/><path class="cls-2" d="M200.67,160.56c-11.21-10.44-58.59-52.88-89.46-54.19,0,0,13.36,68.3,68.14,73.79A62.36,62.36,0,0,1,200.67,160.56Z"/><path class="cls-3" d="M182,203.37a23,23,0,1,0,23-23A23,23,0,0,0,182,203.37Zm4.5,0a18.5,18.5,0,1,1,18.5,18.5A18.5,18.5,0,0,1,186.5,203.37Z"/><path class="cls-4" d="M186.5,203.37a18.5,18.5,0,1,0,18.5-18.5A18.5,18.5,0,0,0,186.5,203.37Zm16.61-10a6.89,6.89,0,1,1,6.89,6.89A6.89,6.89,0,0,1,203.11,193.37Z"/><circle class="cls-3" cx="210" cy="193.37" r="6.89"/><path class="cls-2" d="M178.36,376.14C163,382.6,152.94,391.71,155,397.85c2.34,7.08,19.92,7.5,39.27,1.11,15.53-5.13,27.47-13,30.37-20H195A46,46,0,0,1,178.36,376.14Z"/><path class="cls-2" d="M160.15,247c-24-6.4-45.79-2.94-48.63,7.74s14.32,24.51,38.33,30.91c2.82,0.75,5.61,1.36,8.35,1.85l5.68-39.43C162.65,247.74,161.41,247.38,160.15,247Z"/><path class="cls-5" d="M250,222.42V213.7c-24.14,0-46.05,17.49-62.21,46a183.83,183.83,0,0,0-13.18,29.22c-7.71,21.72-12.73,47-14.17,74.17a41,41,0,0,0,17.92,13.1A46,46,0,0,0,195,379h55V237.83c-13.44-3.84-10.67-13.14-10.67-13.14A40.86,40.86,0,0,1,250,222.42Z"/><path class="cls-6" d="M239.33,224.7S236.56,234,250,237.83V222.42A40.86,40.86,0,0,0,239.33,224.7Z"/><path class="cls-2" d="M235.67,96c-6.6,0-12,68-12,68a12,12,0,0,0,12,12H250V96H235.67Z"/><path class="cls-7" d="M194.83,164.25S130.5,118.37,125,115.87c0,0,17.94,52.57,56.47,61.32"/><path class="cls-1" d="M272.71,153a55.58,55.58,0,0,1,26.83,7.38,62.5,62.5,0,0,1,11,8l9.28-4.36-4.36,9.33a61.61,61.61,0,0,1,5.35,6.83,55.3,55.3,0,0,1,9,22.87l6.49,45.1L342,287.54l6.06,42.09c1.85,12.79-1.44,24.55-8.3,33.42-1.44-27.19-6.46-52.44-14.17-74.17a184,184,0,0,0-13.28-29.22c-16.16-28.47-38.32-46-62.32-46V153h22.71Z"/><path class="cls-2" d="M299.54,160.56c11.21-10.44,58.59-52.88,89.46-54.19,0,0-13.36,68.3-68.14,73.79A62.36,62.36,0,0,0,299.54,160.56Z"/><path class="cls-3" d="M295.21,180.37a23,23,0,1,0,23,23A23,23,0,0,0,295.21,180.37Zm0,41.5a18.5,18.5,0,1,1,18.5-18.5A18.5,18.5,0,0,1,295.21,221.87Z"/><path class="cls-4" d="M295.21,184.87a18.5,18.5,0,1,0,18.5,18.5A18.5,18.5,0,0,0,295.21,184.87Zm-5,15.39a6.89,6.89,0,1,1,6.89-6.89A6.89,6.89,0,0,1,290.21,200.26Z"/><circle class="cls-3" cx="290.21" cy="193.37" r="6.89"/><path class="cls-2" d="M321.85,376.14c15.32,6.46,25.41,15.57,23.39,21.7-2.34,7.08-19.92,7.5-39.27,1.11-15.53-5.13-27.47-13-30.37-20h29.61A46,46,0,0,0,321.85,376.14Z"/><path class="cls-2" d="M340.06,247c24-6.4,45.79-2.94,48.63,7.74s-14.32,24.51-38.33,30.91c-2.82.75-5.61,1.36-8.35,1.85l-5.68-39.43C337.56,247.74,338.8,247.38,340.06,247Z"/><path class="cls-5" d="M250,222.42V213.7c24,0,46.16,17.49,62.32,46a183.9,183.9,0,0,1,13.23,29.22c7.71,21.72,12.75,47,14.2,74.17a41,41,0,0,1-17.91,13.1A45.88,45.88,0,0,1,305.21,379H250V237.83c14-3.84,10.67-13.14,10.67-13.14A40,40,0,0,0,250,222.42Z"/><path class="cls-6" d="M260.67,224.7S264,234,250,237.83V222.42A40,40,0,0,1,260.67,224.7Z"/><path class="cls-2" d="M264.54,96c6.6,0,12,68,12,68a12,12,0,0,1-12,12H250V96h14.54Z"/><path class="cls-7" d="M305.38,164.25s64.33-45.89,69.83-48.39c0,0-17.94,52.57-56.47,61.32"/><path class="cls-8" d="M340.06,247c-1.26.34-2.5,0.7-3.72,1.07L329.85,203a55.28,55.28,0,0,0-9-22.87c54.78-5.48,68.14-73.79,68.14-73.79-30.87,1.31-78.25,43.75-89.46,54.19a56.19,56.19,0,0,0-24-7.29c-1.84-19.22-6.1-57.27-11-57.27H250V379h25.6c2.9,7,14.84,14.87,30.37,20,19.35,6.39,36.93,5.92,39.27-1.16,2-6.14-8.06-15.11-23.39-21.57a46,46,0,0,1-16.64,3.06,45.92,45.92,0,0,0,16.63-3A41.35,41.35,0,0,0,339.75,363c-1.44-27.19-6.49-52.44-14.2-74.17a183.88,183.88,0,0,0-13.23-29.21,184,184,0,0,1,13.28,29.22c7.71,21.72,12.73,47,14.17,74.17,6.86-8.87,10.14-20.62,8.3-33.42L342,287.54c2.73-.48,5.52-1.1,8.35-1.85,24-6.4,41.18-20.24,38.33-30.91S364.07,240.64,340.06,247Zm-34.61-82.72-0.14-.1,0.1,0.07Zm13.29,12.86c0.13,0.18.25,0.36,0.39,0.54l-0.47-.62Zm-13.93-13.31c-0.75-.53-1.51-1.05-2.29-1.54C303.29,162.82,304.05,163.35,304.81,163.87Z"/><path class="cls-9" d="M148.75,465.94V465h5.63v1.88h1.88v1.88h1.88v5.63h-1.87v1.88h-1.87v1.88h-5.62v-1.87h-1.87v-1.87H145v-5.62h1.88v-1.87h1.88v-0.94Zm3.75,1.88v-0.94h-3.75v7.5h1.88v1.88h3.75v-7.5H152.5v-0.94Z"/><path class="cls-9" d="M165.63,465.94V465h5.63v7.5h1.88v1.88h-1.87v3.75H167.5v-3.75H160v-3.75h1.88v-1.87h1.88v-1.87h1.88v-0.94Zm1.88,4.69v-1.87h-1.87v1.88h-1.87v1.88h3.75v-1.87Z"/><path class="cls-9" d="M178.75,465.94V465h5.63v1.88h1.88v1.88h1.88v5.63h-1.87v1.88h-1.87v1.88h-5.62v-1.87h-1.87v-1.87H175v-5.62h1.88v-1.87h1.88v-0.94Zm3.75,1.88v-0.94h-3.75v7.5h1.88v1.88h3.75v-7.5H182.5v-0.94Z"/><path class="cls-9" d="M205,471.56V465h3.75v5.63h1.88v-1.87h1.88v1.88h1.88V465h3.75v13.13h-3.75v-1.87H212.5v-1.87h-1.87v1.88h-1.87v1.88H205v-6.56Z"/><path class="cls-9" d="M221.88,465.94V465h11.25v1.88h-3.75v9.38h3.75v1.88H221.88v-1.87h3.75v-9.37h-3.75v-0.94Z"/><path class="cls-9" d="M238.75,465.94V465h9.38v1.88h-7.5v1.88h-1.87v5.63h1.88v1.88h3.75V472.5H242.5v-1.87h5.63v7.5h-9.37v-1.87h-1.87v-1.87H235v-5.62h1.88v-1.87h1.88v-0.94Z"/><path class="cls-9" d="M253.75,465.94V465h9.38v1.88h-7.5v1.88h-1.87v5.63h1.88v1.88h3.75V472.5H257.5v-1.87h5.63v7.5h-9.37v-1.87h-1.87v-1.87H250v-5.62h1.88v-1.87h1.88v-0.94Z"/><path class="cls-9" d="M266.88,471.56V465h3.75v11.25h7.5v1.88H266.88v-6.56Z"/><path class="cls-9" d="M281.88,467.81V465h3.75v5.63h3.75V465h3.75v5.63h-1.87v1.88h-1.87v5.63h-3.75V472.5h-1.87v-1.87h-1.87v-2.81Z"/><path class="cls-9" d="M296.88,465.94V465h11.25v1.88h-3.75v11.25h-3.75V466.88h-3.75v-0.94Z"/><path class="cls-9" d="M310,470.63V465h3.75v11.25h5.63V465h3.75v11.25h-1.87v1.88h-9.37v-1.87H310v-5.62Z"/><path class="cls-9" d="M325,471.56V465h13.13v1.88h-9.37v3.75h7.5v1.88h-7.5v5.63H325v-6.56Z"/><path class="cls-9" d="M340,471.56V465h13.13v1.88h-9.37v3.75h7.5v1.88h-7.5v5.63H340v-6.56Z"/></svg>