<?xml version="1.0" ?><svg id="pkft" viewBox="0 0 500 500" xmlns="http://www.w3.org/2000/svg"><defs><style>.cls-1{fill:#a499c9;}.cls-2{fill:#00aee5;}.cls-3,.cls-6{fill:#1a1a1a;}.cls-4{fill:#fff;}.cls-5{fill:none;}.cls-6{opacity:0.1;}</style></defs><title/><path class="cls-1" d="M235.67,179c-6.48-10.6-28.45-16.07-39.11-18.15-0.67,10.22,2.24,27.23,27.88,30.93C229.56,182.11,235.67,179,235.67,179Z"/><path class="cls-1" d="M130,159.88c-34,17-50.22,92.8-53.64,110.81,7.57-4.61,22.22-9.51,45.65-1.73,8.29-33.59,32.66-80.41,32.66-80.41C149.33,171.21,130,159.88,130,159.88Z"/><path class="cls-2" d="M240,176.11h0S221.29,150.21,197.9,153a36.22,36.22,0,0,0-1.33,7.85c10.66,2.08,32.63,7.55,39.11,18.15,0,0-6.12,3.07-11.23,12.78h0a27.33,27.33,0,0,0-.73,17.24c-0.08.26-.16,0.53-0.24,0.82-0.26,1.05-.47,6.76-0.6,12.54-20.79-9.29-78.25-39.11-82.88-86.54,0,0-74.33,68.33-70,140a25.74,25.74,0,0,1,6.36-5.19c3.41-18,19.63-93.8,53.64-110.81,0,0,19.33,11.33,24.67,28.67,0,0-24.37,46.83-32.66,80.41l0.66,0.21s3.24-2.33,8.74-5.65c7-20.74,23.36-65.6,33.59-67.64l0.12,0.08,0.52,0.36,0.12,0.08,0.14,0.09,0.21,0.14,0.18,0.12,0.17,0.11,0.23,0.15,0.23,0.16,0.27,0.18,0.17,0.11,0.34,0.23,0.19,0.13,0.37,0.24,0.21,0.14,0.42,0.28,0.17,0.11,0.48,0.32,0.15,0.1,2.67,1.76,0.17,0.11,0.75,0.49,0.08,0,0.73,0.47,0.16,0.11,0.69,0.45,0.23,0.15,0.72,0.47,0.2,0.13,0.8,0.52L177,203.8l0.8,0.51,0.23,0.15,0.83,0.53,0.14,0.09,0.88,0.56,0.19,0.12,0.91,0.58,0.08,0.05,1,0.63,0,0c2.85,1.8,5.91,3.69,9,5.57l0.09,0.05,1,0.63,0.18,0.11,1,0.62,0.16,0.1,1,0.61,0.21,0.12,1,0.59,0.22,0.13,1,0.6,0.17,0.1,1.06,0.61,0.14,0.08,1.1,0.63,0.06,0c3.18,1.8,6.32,3.5,9.3,5l0.09,0,1,0.5,0.16,0.08,0.94,0.46,0.2,0.1,0.9,0.43,0.21,0.1,0.87,0.41,0.21,0.1,0.86,0.39,0.2,0.09,0.84,0.37,0.19,0.08,0.84,0.36,0.14,0.06,0.86,0.35,0.07,0a43.09,43.09,0,0,0,5.12,1.75h0c-0.06,3.56-.09,6.42-0.09,7.19a27.29,27.29,0,0,0,10.63,21.63h0l6,107s3.62-100.23,7.19-101.49a27.52,27.52,0,0,0,3.56.24V215.63a32.67,32.67,0,0,1-11.94-2.19,25.68,25.68,0,0,1-4.77-2.46c-4.6-3.05-7.47-7.34-7.47-12.11,0-6.64,5.57-12.37,13.65-15.09a31.73,31.73,0,0,1,5.22-1.26,34.61,34.61,0,0,1,5.31-.41v-7.91A27.24,27.24,0,0,0,240,176.11Z"/><path class="cls-3" d="M245,190.46c0.06,1.65-.57,1.83-1.4.4l-4.11-7.08c-8.08,2.71-13.65,8.45-13.65,15.09,0,4.76,2.87,9.05,7.47,12.11L235,206c0.54-1.56,1.25-1.51,1.58.11l1.47,7.3A32.67,32.67,0,0,0,250,215.63V182.12a34.61,34.61,0,0,0-5.31.41Z"/><path class="cls-4" d="M235,206L233.29,211a25.68,25.68,0,0,0,4.77,2.46l-1.47-7.3C236.27,204.53,235.56,204.48,235,206Z"/><path class="cls-4" d="M245,190.46l-0.28-7.93a31.73,31.73,0,0,0-5.22,1.26l4.11,7.08C244.41,192.29,245,192.11,245,190.46Z"/><path class="cls-5" d="M180.09,205.77l0.91,0.58Z"/><path class="cls-5" d="M179,205.09l0.88,0.56Z"/><path class="cls-5" d="M178.05,204.47l0.83,0.53Z"/><path class="cls-5" d="M177,203.8l0.8,0.51Z"/><path class="cls-5" d="M175.15,202.6l0.72,0.47Z"/><path class="cls-5" d="M176.07,203.19l0.8,0.52Z"/><path class="cls-5" d="M194.95,214.87l1,0.59Z"/><path class="cls-5" d="M193.71,214.14l1,0.61Z"/><path class="cls-5" d="M192.5,213.42l1,0.62Z"/><path class="cls-5" d="M174.23,202l0.69,0.45Z"/><path class="cls-5" d="M191.27,212.68l1,0.63Z"/><path class="cls-5" d="M181.08,206.39l1,0.63Z"/><path class="cls-5" d="M182.13,207.06c2.85,1.8,5.91,3.69,9,5.57C188,210.74,185,208.85,182.13,207.06Z"/><path class="cls-5" d="M166.12,196.63l0.18,0.12Z"/><path class="cls-5" d="M166.47,196.87l0.23,0.15Z"/><path class="cls-5" d="M167.37,197.47l0.34,0.23Z"/><path class="cls-5" d="M166.92,197.18l0.27,0.18Z"/><path class="cls-5" d="M196.17,215.58l1,0.6Z"/><path class="cls-5" d="M165.77,196.4l0.14,0.09Z"/><path class="cls-5" d="M165.12,196l0.52,0.36Z"/><path class="cls-5" d="M169.06,198.6l0.48,0.32Z"/><path class="cls-5" d="M169.69,199l2.67,1.76Z"/><path class="cls-5" d="M167.9,197.83l0.37,0.24Z"/><path class="cls-5" d="M172.52,200.88l0.75,0.49Z"/><path class="cls-5" d="M173.34,201.42l0.73,0.47Z"/><path class="cls-5" d="M168.47,198.21l0.42,0.28Z"/><path class="cls-5" d="M216.66,226.21l0.86,0.35Z"/><path class="cls-5" d="M209.12,222.69l1,0.5Z"/><path class="cls-5" d="M212.51,224.35l0.87,0.41Z"/><path class="cls-5" d="M217.59,226.6a43,43,0,0,0,5.12,1.75A43.09,43.09,0,0,1,217.59,226.6Z"/><path class="cls-5" d="M214.65,225.34l0.84,0.37Z"/><path class="cls-5" d="M211.4,223.82l0.9,0.43Z"/><path class="cls-5" d="M210.27,223.26l0.94,0.46Z"/><path class="cls-5" d="M215.68,225.8l0.84,0.36Z"/><path class="cls-5" d="M199.72,217.62c3.18,1.8,6.32,3.5,9.3,5C206,221.13,202.9,219.42,199.72,217.62Z"/><path class="cls-5" d="M198.56,217l1.1,0.63Z"/><path class="cls-5" d="M213.59,224.86l0.86,0.39Z"/><path class="cls-5" d="M197.37,216.28l1.06,0.61Z"/><path class="cls-1" d="M222.76,228.35h0a43,43,0,0,1-5.12-1.75l-0.07,0-0.86-.35-0.14-.06-0.84-.36-0.19-.08-0.84-.37-0.2-.09-0.86-.39-0.21-.1-0.87-.41-0.21-.1-0.9-.43-0.2-.1-0.94-.46-0.16-.08-1-.5-0.09,0c-3-1.51-6.13-3.22-9.3-5l-0.06,0-1.1-.63-0.14-.08-1.06-.61-0.17-.1-1-.6-0.22-.13-1-.59-0.21-.12-1-.61-0.16-.1-1-.62-0.18-.11-1-.63-0.09-.05c-3.14-1.89-6.19-3.78-9-5.57l0,0-1-.63-0.08-.05-0.91-.58-0.19-.12-0.88-.56-0.14-.09-0.83-.53-0.23-.15-0.8-.51-0.14-.09-0.8-.52-0.2-.13-0.72-.47-0.23-.15-0.69-.45-0.16-.11-0.73-.47-0.08,0-0.75-.49-0.17-.11L169.69,199l-0.15-.1-0.48-.32-0.17-.11-0.42-.28-0.21-.14-0.37-.24-0.19-.13-0.34-.23-0.17-.11-0.27-.18-0.23-.16-0.23-.15-0.17-.11-0.18-.12-0.21-.14-0.14-.09-0.12-.08-0.52-.36-0.12-.08c-10.23,2-26.55,46.9-33.59,67.64,18.15-10.95,60.95-32.64,93.53-17a27.21,27.21,0,0,1-2.28-10.93C222.67,234.78,222.7,231.91,222.76,228.35Z"/><path class="cls-2" d="M215.5,225.71l0.19,0.08Z"/><path class="cls-2" d="M169.54,198.92l0.15,0.1Z"/><path class="cls-2" d="M214.45,225.25l0.2,0.09Z"/><path class="cls-2" d="M172.35,200.77l0.17,0.11Z"/><path class="cls-2" d="M168.89,198.49l0.17,0.11Z"/><path class="cls-2" d="M168.27,198.07l0.21,0.14Z"/><path class="cls-2" d="M165.91,196.49l0.21,0.14Z"/><path class="cls-2" d="M166.3,196.75l0.17,0.11Z"/><path class="cls-2" d="M216.52,226.16l0.14,0.06Z"/><path class="cls-2" d="M165.65,196.31l0.12,0.08Z"/><path class="cls-2" d="M165,195.88l0.12,0.08Z"/><path class="cls-2" d="M167.71,197.7l0.19,0.13Z"/><path class="cls-2" d="M217.52,226.57l0.07,0Z"/><path class="cls-2" d="M166.69,197l0.23,0.16Z"/><path class="cls-2" d="M167.2,197.36l0.17,0.11Z"/><path class="cls-2" d="M196,215.46l0.22,0.13Z"/><path class="cls-2" d="M210.11,223.19l0.16,0.08Z"/><path class="cls-2" d="M209,222.64l0.09,0Z"/><path class="cls-2" d="M181,206.34l0.08,0.05Z"/><path class="cls-2" d="M192.32,213.31l0.18,0.11Z"/><path class="cls-2" d="M182.08,207l0,0Z"/><path class="cls-2" d="M191.18,212.63l0.09,0.05Z"/><path class="cls-2" d="M199.66,217.59l0.06,0Z"/><path class="cls-2" d="M197.2,216.18l0.17,0.1Z"/><path class="cls-2" d="M198.43,216.89l0.14,0.08Z"/><path class="cls-2" d="M193.54,214l0.16,0.1Z"/><path class="cls-2" d="M173.27,201.37l0.08,0Z"/><path class="cls-2" d="M194.74,214.74l0.21,0.12Z"/><path class="cls-2" d="M175.88,203.07l0.2,0.13Z"/><path class="cls-2" d="M174.92,202.45l0.23,0.15Z"/><path class="cls-2" d="M212.3,224.25l0.21,0.1Z"/><path class="cls-2" d="M213.38,224.76l0.21,0.1Z"/><path class="cls-2" d="M174.07,201.89l0.16,0.11Z"/><path class="cls-2" d="M179.9,205.65l0.19,0.12Z"/><path class="cls-2" d="M176.88,203.71L177,203.8Z"/><path class="cls-2" d="M178.88,205l0.14,0.09Z"/><path class="cls-2" d="M211.21,223.73l0.2,0.1Z"/><path class="cls-2" d="M177.82,204.32l0.23,0.15Z"/><path class="cls-1" d="M264.14,179c6.48-10.6,28.45-16.07,39.11-18.15,0.67,10.22-2.24,27.23-27.88,30.93C270.26,182.11,264.14,179,264.14,179Z"/><path class="cls-1" d="M369.82,159.88c34,17,50.22,92.8,53.64,110.81-7.57-4.61-22.22-9.51-45.65-1.73-8.29-33.59-32.66-80.41-32.66-80.41C350.48,171.21,369.82,159.88,369.82,159.88Z"/><path class="cls-2" d="M259.91,176.11h0s18.68-25.89,42.08-23.06a36.69,36.69,0,0,1,1.32,7.85c-10.66,2.08-32.64,7.55-39.12,18.15,0,0,6.11,3.07,11.23,12.78h0a27.33,27.33,0,0,1,.73,17.24c0.08,0.26.16,0.53,0.24,0.82,0.26,1.05.47,6.76,0.6,12.54,20.79-9.29,78.25-39.11,82.88-86.54,0,0,74.33,68.33,70,140a25.74,25.74,0,0,0-6.36-5.19c-3.41-18-19.63-93.8-53.64-110.81,0,0-19.33,11.33-24.67,28.67,0,0,24.37,46.83,32.66,80.41l-0.66.21s-3.24-2.33-8.74-5.65c-7-20.74-23.36-65.6-33.59-67.64l-0.12.08-0.52.36-0.12.08-0.14.09-0.21.14-0.18.12-0.17.11-0.23.15-0.23.16-0.27.18-0.17.11-0.34.23-0.19.13-0.37.24-0.21.14-0.42.28-0.17.11-0.48.32-0.15.1-2.67,1.76-0.17.11-0.75.49-0.08,0-0.73.47-0.16.11-0.69.45-0.23.15-0.72.47-0.2.13-0.8.52-0.14.09-0.8.51-0.23.15-0.83.53-0.14.09-0.88.56-0.19.12-0.91.58-0.08.05-1,.63,0,0c-2.85,1.8-5.91,3.69-9,5.57l-0.09.05-1,.63-0.18.11-1,.62-0.16.1-1,.61-0.21.12-1,.59-0.22.13-1,.6-0.17.1-1.06.61-0.14.08-1.1.63-0.06,0c-3.18,1.8-6.32,3.5-9.3,5l-0.09,0-1,.5-0.16.08-0.94.46-0.2.1-0.9.43-0.21.1-0.87.41-0.21.1-0.86.39-0.2.09-0.84.37-0.19.08-0.84.36-0.14.06-0.86.35-0.07,0a43.09,43.09,0,0,1-5.12,1.75h0c0.06,3.56.09,6.42,0.09,7.19a27.29,27.29,0,0,1-10.63,21.63h0l-6,107S257,263.9,253.47,262.64a28.75,28.75,0,0,1-3.47.24V215.63a33.57,33.57,0,0,0,11.85-2.19,25.26,25.26,0,0,0,4.72-2.46c4.6-3.05,7.45-7.34,7.45-12.11,0-6.64-5.58-12.37-13.66-15.09a30.71,30.71,0,0,0-5.14-1.26,31.86,31.86,0,0,0-5.22-.41v-7.91A29,29,0,0,1,259.91,176.11Z"/><path class="cls-3" d="M254.84,190.46c-0.06,1.65.57,1.83,1.4,0.4l4.11-7.08c8.08,2.71,13.65,8.45,13.65,15.09,0,4.76-2.87,9.05-7.47,12.11L264.81,206c-0.54-1.56-1.25-1.51-1.58.11l-1.38,7.3A33.57,33.57,0,0,1,250,215.63V182.12a31.79,31.79,0,0,1,5.22.41Z"/><path class="cls-4" d="M264.81,206l1.72,4.94a25.68,25.68,0,0,1-4.77,2.46l1.47-7.3C263.55,204.53,264.26,204.48,264.81,206Z"/><path class="cls-4" d="M254.84,190.46l0.28-7.93a31.73,31.73,0,0,1,5.22,1.26l-4.11,7.08C255.41,192.29,254.78,192.11,254.84,190.46Z"/><path class="cls-5" d="M319.73,205.77l-0.91.58Z"/><path class="cls-5" d="M320.79,205.09l-0.88.56Z"/><path class="cls-5" d="M321.77,204.47l-0.83.53Z"/><path class="cls-5" d="M322.8,203.8l-0.8.51Z"/><path class="cls-5" d="M324.67,202.6l-0.72.47Z"/><path class="cls-5" d="M323.74,203.19l-0.8.52Z"/><path class="cls-5" d="M304.87,214.87l-1,.59Z"/><path class="cls-5" d="M306.11,214.14l-1,.61Z"/><path class="cls-5" d="M307.31,213.42l-1,.62Z"/><path class="cls-5" d="M325.59,202l-0.69.45Z"/><path class="cls-5" d="M308.55,212.68l-1,.63Z"/><path class="cls-5" d="M318.74,206.39l-1,.63Z"/><path class="cls-5" d="M317.69,207.06c-2.85,1.8-5.91,3.69-9,5.57C311.77,210.74,314.83,208.85,317.69,207.06Z"/><path class="cls-5" d="M333.7,196.63l-0.18.12Z"/><path class="cls-5" d="M333.35,196.87l-0.23.15Z"/><path class="cls-5" d="M332.45,197.47l-0.34.23Z"/><path class="cls-5" d="M332.89,197.18l-0.27.18Z"/><path class="cls-5" d="M303.65,215.58l-1,.6Z"/><path class="cls-5" d="M334,196.4l-0.14.09Z"/><path class="cls-5" d="M334.69,196l-0.52.36Z"/><path class="cls-5" d="M330.76,198.6l-0.48.32Z"/><path class="cls-5" d="M330.13,199l-2.67,1.76Z"/><path class="cls-5" d="M331.92,197.83l-0.37.24Z"/><path class="cls-5" d="M327.3,200.88l-0.75.49Z"/><path class="cls-5" d="M326.48,201.42l-0.73.47Z"/><path class="cls-5" d="M331.35,198.21l-0.42.28Z"/><path class="cls-5" d="M283.16,226.21l-0.86.35Z"/><path class="cls-5" d="M290.7,222.69l-1,.5Z"/><path class="cls-5" d="M287.31,224.35l-0.87.41Z"/><path class="cls-5" d="M282.23,226.6a43,43,0,0,1-5.12,1.75A43.09,43.09,0,0,0,282.23,226.6Z"/><path class="cls-5" d="M285.17,225.34l-0.84.37Z"/><path class="cls-5" d="M288.42,223.82l-0.9.43Z"/><path class="cls-5" d="M289.55,223.26l-0.94.46Z"/><path class="cls-5" d="M284.13,225.8l-0.84.36Z"/><path class="cls-5" d="M300.1,217.62c-3.18,1.8-6.32,3.5-9.3,5C293.78,221.13,296.92,219.42,300.1,217.62Z"/><path class="cls-5" d="M301.25,217l-1.1.63Z"/><path class="cls-5" d="M286.22,224.86l-0.86.39Z"/><path class="cls-5" d="M302.45,216.28l-1.06.61Z"/><path class="cls-1" d="M277.06,228.35h0a43,43,0,0,0,5.12-1.75l0.07,0,0.86-.35,0.14-.06,0.84-.36,0.19-.08,0.84-.37,0.2-.09,0.86-.39,0.21-.1,0.87-.41,0.21-.1,0.9-.43,0.2-.1,0.94-.46,0.16-.08,1-.5,0.09,0c3-1.51,6.13-3.22,9.3-5l0.06,0,1.1-.63,0.14-.08,1.06-.61,0.17-.1,1-.6,0.22-.13,1-.59,0.21-.12,1-.61,0.16-.1,1-.62,0.18-.11,1-.63,0.09-.05c3.14-1.89,6.19-3.78,9-5.57l0,0,1-.63,0.08-.05,0.91-.58,0.19-.12,0.88-.56,0.14-.09,0.83-.53,0.23-.15,0.8-.51,0.14-.09,0.8-.52,0.2-.13,0.72-.47,0.23-.15,0.69-.45,0.16-.11,0.73-.47,0.08,0,0.75-.49,0.17-.11,2.67-1.76,0.15-.1,0.48-.32,0.17-.11,0.42-.28,0.21-.14,0.37-.24,0.19-.13,0.34-.23,0.17-.11,0.27-.18,0.23-.16,0.23-.15,0.17-.11,0.18-.12,0.21-.14,0.14-.09,0.12-.08,0.52-.36,0.12-.08c10.23,2,26.55,46.9,33.59,67.64-18.15-10.95-60.95-32.64-93.53-17a27.21,27.21,0,0,0,2.28-10.93C277.15,234.78,277.12,231.91,277.06,228.35Z"/><path class="cls-2" d="M284.32,225.71l-0.19.08Z"/><path class="cls-2" d="M330.28,198.92l-0.15.1Z"/><path class="cls-2" d="M285.37,225.25l-0.2.09Z"/><path class="cls-2" d="M327.46,200.77l-0.17.11Z"/><path class="cls-2" d="M330.93,198.49l-0.17.11Z"/><path class="cls-2" d="M331.55,198.07l-0.21.14Z"/><path class="cls-2" d="M333.91,196.49l-0.21.14Z"/><path class="cls-2" d="M333.52,196.75l-0.17.11Z"/><path class="cls-2" d="M283.29,226.16l-0.14.06Z"/><path class="cls-2" d="M334.17,196.31l-0.12.08Z"/><path class="cls-2" d="M334.82,195.88l-0.12.08Z"/><path class="cls-2" d="M332.11,197.7l-0.19.13Z"/><path class="cls-2" d="M282.3,226.57l-0.07,0Z"/><path class="cls-2" d="M333.13,197l-0.23.16Z"/><path class="cls-2" d="M332.62,197.36l-0.17.11Z"/><path class="cls-2" d="M303.86,215.46l-0.22.13Z"/><path class="cls-2" d="M289.71,223.19l-0.16.08Z"/><path class="cls-2" d="M290.79,222.64l-0.09,0Z"/><path class="cls-2" d="M318.82,206.34l-0.08.05Z"/><path class="cls-2" d="M307.5,213.31l-0.18.11Z"/><path class="cls-2" d="M317.74,207l0,0Z"/><path class="cls-2" d="M308.64,212.63l-0.09.05Z"/><path class="cls-2" d="M300.15,217.59l-0.06,0Z"/><path class="cls-2" d="M302.62,216.18l-0.17.1Z"/><path class="cls-2" d="M301.39,216.89l-0.14.08Z"/><path class="cls-2" d="M306.27,214l-0.16.1Z"/><path class="cls-2" d="M326.55,201.37l-0.08,0Z"/><path class="cls-2" d="M305.08,214.74l-0.21.12Z"/><path class="cls-2" d="M323.94,203.07l-0.2.13Z"/><path class="cls-2" d="M324.9,202.45l-0.23.15Z"/><path class="cls-2" d="M287.52,224.25l-0.21.1Z"/><path class="cls-2" d="M286.43,224.76l-0.21.1Z"/><path class="cls-2" d="M325.75,201.89l-0.16.11Z"/><path class="cls-2" d="M319.92,205.65l-0.19.12Z"/><path class="cls-2" d="M322.94,203.71l-0.14.09Z"/><path class="cls-2" d="M320.94,205l-0.14.09Z"/><path class="cls-2" d="M288.61,223.73l-0.2.1Z"/><path class="cls-2" d="M322,204.32l-0.23.15Z"/><path class="cls-6" d="M359.82,135.88c-4.63,47.43-62.09,77.25-82.88,86.54-0.14-5.78-.34-11.49-0.6-12.54-0.07-.29-0.15-0.56-0.24-0.82a27.33,27.33,0,0,0-.73-17.24V192H275v-0.15h0c26-3.71,28.74-20.71,28.07-30.94h0.1A38.81,38.81,0,0,0,301.9,153c-23.29-2.82-41.88,22.81-42,23a28.86,28.86,0,0,0-9.85-1.88v7.91a31.86,31.86,0,0,1,5.22.41,30.71,30.71,0,0,1,5.14,1.26c8.08,2.71,13.66,8.45,13.66,15.09,0,4.76-2.85,9.05-7.45,12.11a25.26,25.26,0,0,1-4.72,2.46v0a25.65,25.65,0,0,0,4.67-2.42c4.6-3.05,7.47-7.34,7.47-12.11,0-6.64-5.68-12.37-13.76-15.09a28.36,28.36,0,0,0-5.24-1.24v0a23.81,23.81,0,0,0-5-.41v80.76a28.75,28.75,0,0,0,3.47-.24c3.56,1.26,7.09,101.49,7.09,101.49l6-107h0a27.44,27.44,0,0,0,8.35-10.7c32.59-15.59,75.38,6.1,93.53,17,5.5,3.32,8.74,5.65,8.74,5.65l0.66-.21c23.42-7.79,38.07-2.89,45.65,1.73a25.74,25.74,0,0,1,6.36,5.19C434.15,204.21,359.82,135.88,359.82,135.88Z"/><path class="cls-2" d="M186.25,465.94V465h5.63v1.88h1.88v1.88h1.88v5.63h-1.87v1.88h-1.87v1.88h-5.62v-1.87h-1.87v-1.87H182.5v-5.62h1.88v-1.87h1.88v-0.94Zm3.75,1.88v-0.94h-3.75v7.5h1.88v1.88h3.75v-7.5H190v-0.94Z"/><path class="cls-2" d="M203.13,465.94V465h5.63v7.5h1.88v1.88h-1.87v3.75H205v-3.75h-7.5v-3.75h1.88v-1.87h1.88v-1.87h1.88v-0.94Zm1.88,4.69v-1.87h-1.87v1.88h-1.87v1.88H205v-1.87Z"/><path class="cls-2" d="M218.13,465.94V465h3.75v11.25h3.75v1.88H214.38v-1.87h3.75v-7.5h-1.87v-1.87h1.88v-0.94Z"/><path class="cls-2" d="M242.5,465.94V465h13.13v3.75h-1.87v1.88h-1.87v1.88H250v1.88h-1.87v1.88h7.5v1.88H242.5v-3.75h1.88V472.5h1.88v-1.87h1.88v-1.87H250v-1.87h-7.5v-0.94Z"/><path class="cls-2" d="M257.5,470.63V465h3.75v11.25h5.63V465h3.75v11.25h-1.87v1.88h-9.37v-1.87H257.5v-5.62Z"/><path class="cls-2" d="M272.5,471.56V465h11.25v1.88h1.88v3.75h-1.87v1.88h1.88v3.75h-1.87v1.88H272.5v-6.56Zm9.38-2.81v-1.87h-5.62v3.75h5.63v-1.87Zm0,5.63V472.5h-5.62v3.75h5.63v-1.87Z"/><path class="cls-2" d="M291.25,465.94V465h5.63v1.88h1.88v1.88h1.88v9.38h-3.75v-3.75h-5.62v3.75H287.5v-9.37h1.88v-1.87h1.88v-0.94Zm3.75,1.88v-0.94h-1.87v1.88h-1.87v3.75h5.63v-3.75H295v-0.94Z"/><path class="cls-2" d="M304.38,465.94V465h11.25v1.88h-3.75v11.25h-3.75V466.88h-3.75v-0.94Z"/></svg>