<?xml version="1.0" ?><svg id="pkft" viewBox="0 0 500 500" xmlns="http://www.w3.org/2000/svg"><defs><style>.cls-1{fill:#00aee5;}.cls-2{fill:#a499c9;}.cls-3{fill:#67627c;}.cls-4,.cls-6{fill:#1a1a1a;}.cls-5{fill:#fff;}.cls-6{opacity:0.1;}</style></defs><title/><path class="cls-1" d="M232.1,207.59C231.48,199.7,224,195.5,224,195.5s-11.64,23.76-15.12,42.92A125.73,125.73,0,0,0,201.68,260c-12.72-4.85-45.21-23.1-30.18-80,0,0,17.5-11,8.5-25.5-7.79-12.56-74.06-76.83-120.26-91.58q-1.09-.35-2.16-0.66C101.51,76.17,160.08,144.74,168,157.5a14.86,14.86,0,0,1,1.24,14.5c-2.94,6.73-9.74,11-9.74,11-0.45,1.68-.83,3.33-1.18,5-4.63,21.29-1.49,37.39,4.87,49.42a59.11,59.11,0,0,0,3.38,5.62c10.45,15.35,26,22.78,33.3,25.6A157.2,157.2,0,0,0,197.5,296a155.11,155.11,0,0,0,3.69,33.91,122.22,122.22,0,0,0,10.41,29.26L191,368.26c-1.64-.84-3.36-1.64-5.15-2.39-15.08-6.26-29.45-6.16-32.1.22s7.44,16.62,22.52,22.87,29.45,6.16,32.1-.22c1-2.31.24-5.13-1.78-8.08l11.71-10.52c8.81,12.3,19.79,20.17,31.72,21.61V200.24A38.38,38.38,0,0,0,232.1,207.59Z"/><path class="cls-2" d="M158.32,188c-19.14,17-47.49,45-87.82,90.74-0.17.44-.32,0.87-0.49,1.31,0,0,53.72,18.85,77.9,68,1-23.68,4.44-76.68,15.29-110.62C156.82,225.34,153.69,209.24,158.32,188Z"/><path class="cls-2" d="M169.24,172A14.86,14.86,0,0,0,168,157.5c-7.92-12.76-66.49-81.33-110.43-95.24A50.82,50.82,0,0,0,40.63,60C43,62.79,113.58,147.83,75,266.06,122.08,213.27,151.75,186,169.24,172Z"/><path class="cls-2" d="M57.57,62.26q1.07,0.31,2.16.66c-6.86-2.44-13.52-3.77-19.17-3h0A45,45,0,0,1,57.57,62.26Z"/><path class="cls-2" d="M199.87,268.59c-7.33-2.82-22.85-10.25-33.3-25.6-9.43,33-12.64,82.7-13.65,105.22,6.39-8.42,23.08-25.7,48.26-18.31A155.11,155.11,0,0,1,197.5,296,157.2,157.2,0,0,1,199.87,268.59Z"/><path class="cls-3" d="M158.32,188c0.35-1.62.74-3.27,1.18-5,0,0,6.79-4.27,9.74-11-17.49,14-47.15,41.27-94.25,94.06q-2,6.26-4.49,12.63C110.83,232.94,139.18,205,158.32,188Z"/><path class="cls-3" d="M163.19,237.38C152.34,271.32,148.92,324.32,147.9,348q1.09,2.21,2.1,4.51a44.23,44.23,0,0,1,2.92-4.28c1-22.53,4.22-72.26,13.65-105.22A59.11,59.11,0,0,1,163.19,237.38Z"/><path class="cls-1" d="M40,60l0.63,0-0.06-.08Z"/><path class="cls-1" d="M57.57,62.26a45,45,0,0,0-17-2.37h0L40.63,60A50.82,50.82,0,0,1,57.57,62.26Z"/><path class="cls-4" d="M250,239s-13.57-1.12-20.86-2.93c-2.58,5.06-5.89,13.93-5.89,13.93-2.28-.7-3.7-8.87-4.34-13.69a11.1,11.1,0,0,0-2.24,5.69s-19.13,77.38,3.89,114.91l10.7-4.41L227.8,366A39.3,39.3,0,0,0,250,376.33V239Z"/><path class="cls-5" d="M220.55,356.91a44.24,44.24,0,0,0,7.25,9l3.45-13.45Z"/><path class="cls-5" d="M223.25,250s3.31-8.87,5.89-13.93c-2.47-.62-4.22-1.31-4.47-2.07-0.86-2.59-3.7-.62-5.76,2.31C219.55,241.13,221,249.3,223.25,250Z"/><path class="cls-5" d="M236,219.4l-6.84-5.4c-3.38,7.17-3.31,10.93-1.61,12.71C229.61,224,233.82,220.88,236,219.4Z"/><path class="cls-5" d="M243,224.94l-6.73-5.31-7.55,7.93C233.29,229.67,243,224.94,243,224.94Z"/><path class="cls-4" d="M236,219.4c-2.16,1.48-6.37,4.56-8.45,7.31a3.88,3.88,0,0,0,1.19.84l7.55-7.93Z"/><path class="cls-2" d="M224.88,200.13s5,5.63,4.27,8.38c0,0-3.89,2.38-5.39,3.5C223.75,212,221.38,204.75,224.88,200.13Z"/><path class="cls-1" d="M266.9,207.59c0.62-7.89,8.07-12.09,8.07-12.09s11.64,23.76,15.12,42.92A125.73,125.73,0,0,1,297.32,260c12.72-4.85,45.21-23.1,30.18-80,0,0-17.5-11-8.5-25.5,7.79-12.56,74.06-76.83,120.26-91.58q1.09-.35,2.16-0.66C397.49,76.17,338.92,144.74,331,157.5a14.86,14.86,0,0,0-1.24,14.5c2.94,6.73,9.74,11,9.74,11,0.45,1.68.83,3.33,1.18,5,4.63,21.29,1.49,37.39-4.87,49.42a59.11,59.11,0,0,1-3.38,5.62c-10.45,15.35-26,22.78-33.3,25.6A157.2,157.2,0,0,1,301.5,296a155.11,155.11,0,0,1-3.69,33.91,122.22,122.22,0,0,1-10.41,29.26l20.62,9.1c1.64-.84,3.36-1.64,5.15-2.39,15.08-6.26,29.45-6.16,32.1.22s-7.44,16.62-22.52,22.87-29.45,6.16-32.1-.22c-1-2.31-.24-5.13,1.78-8.08l-11.71-10.52c-8.81,12.3-19.79,20.17-31.72,21.61V200.24A38.38,38.38,0,0,1,266.9,207.59Z"/><path class="cls-2" d="M340.68,188c19.14,17,47.49,45,87.82,90.74,0.17,0.44.32,0.87,0.49,1.31,0,0-53.72,18.85-77.9,68-1-23.68-4.44-76.68-15.29-110.62C342.18,225.34,345.31,209.24,340.68,188Z"/><path class="cls-2" d="M329.76,172A14.86,14.86,0,0,1,331,157.5c7.92-12.76,66.49-81.33,110.43-95.24A50.82,50.82,0,0,1,458.37,60C456,62.79,385.42,147.83,424,266.06,376.92,213.27,347.25,186,329.76,172Z"/><path class="cls-2" d="M441.43,62.26q-1.07.31-2.16,0.66c6.86-2.44,13.52-3.77,19.17-3h0A45,45,0,0,0,441.43,62.26Z"/><path class="cls-2" d="M299.13,268.59c7.33-2.82,22.85-10.25,33.3-25.6,9.43,33,12.64,82.7,13.65,105.22-6.39-8.42-23.08-25.7-48.26-18.31A155.11,155.11,0,0,0,301.5,296,157.2,157.2,0,0,0,299.13,268.59Z"/><path class="cls-3" d="M340.68,188c-0.35-1.62-.74-3.27-1.18-5,0,0-6.79-4.27-9.74-11,17.49,14,47.15,41.27,94.25,94.06q2,6.26,4.49,12.63C388.17,232.94,359.82,205,340.68,188Z"/><path class="cls-3" d="M335.81,237.38c10.85,33.94,14.27,86.94,15.29,110.62q-1.09,2.21-2.1,4.51a44.23,44.23,0,0,0-2.92-4.28c-1-22.53-4.22-72.26-13.65-105.22A59.11,59.11,0,0,0,335.81,237.38Z"/><path class="cls-1" d="M459,60l-0.63,0,0.06-.08Z"/><path class="cls-1" d="M441.43,62.26a45,45,0,0,1,17-2.37h0l-0.06.08A50.82,50.82,0,0,0,441.43,62.26Z"/><path class="cls-4" d="M249,239s13.57-1.12,20.86-2.93c2.58,5.06,5.89,13.93,5.89,13.93,2.28-.7,3.7-8.87,4.34-13.69a11.1,11.1,0,0,1,2.24,5.69s19.13,77.38-3.89,114.91l-10.7-4.41L271.2,366A39.3,39.3,0,0,1,249,376.33V239Z"/><path class="cls-5" d="M278.45,356.91a44.24,44.24,0,0,1-7.25,9l-3.45-13.45Z"/><path class="cls-5" d="M275.75,250s-3.31-8.87-5.89-13.93c2.47-.62,4.22-1.31,4.47-2.07,0.86-2.59,3.7-.62,5.76,2.31C279.45,241.13,278,249.3,275.75,250Z"/><path class="cls-5" d="M263,219.4l6.84-5.4c3.38,7.17,3.31,10.93,1.61,12.71C269.39,224,265.18,220.88,263,219.4Z"/><path class="cls-5" d="M256,224.94l6.73-5.31,7.55,7.93C265.71,229.67,256,224.94,256,224.94Z"/><path class="cls-4" d="M263,219.4c2.16,1.48,6.37,4.56,8.45,7.31a3.88,3.88,0,0,1-1.19.84l-7.55-7.93Z"/><path class="cls-2" d="M274.13,200.13s-5,5.63-4.27,8.38c0,0,3.89,2.38,5.39,3.5C275.25,212,277.63,204.75,274.13,200.13Z"/><path class="cls-6" d="M459,60l-0.56-.11c-5.65-.74-12.31.58-19.17,3-46.2,14.75-112.47,79-120.26,91.58-9,14.5,8.5,25.5,8.5,25.5,15,56.87-17.46,75.13-30.18,80a125.73,125.73,0,0,0-7.23-21.55C286.61,219.26,275,195.5,275,195.5s-7.45,4.2-8.07,12.09a38.38,38.38,0,0,0-17.9-7.34V391.76c11.92-1.43,22.91-9.31,31.72-21.61l11.71,10.52c-2,3-2.73,5.77-1.78,8.08,2.65,6.38,17,6.48,32.1.22s25.16-16.5,22.52-22.87-17-6.47-32.1-.22c-1.79.74-3.51,1.54-5.15,2.39l-20.62-9.1a122.22,122.22,0,0,0,10.41-29.26c25.18-7.39,41.87,9.89,48.26,18.31A44.23,44.23,0,0,1,349,352.5q1-2.3,2.1-4.51c24.18-49.14,77.9-68,77.9-68-0.17-.44-0.33-0.87-0.49-1.31Q426,272.32,424,266.06C385.42,147.83,456,62.79,458.37,60Z"/><path class="cls-1" d="M178.75,465.94V465h5.63v1.88h1.88v1.88h1.88v5.63h-1.87v1.88h-1.87v1.88h-5.62v-1.87h-1.87v-1.87H175v-5.62h1.88v-1.87h1.88v-0.94Zm3.75,1.88v-0.94h-3.75v7.5h1.88v1.88h3.75v-7.5H182.5v-0.94Z"/><path class="cls-1" d="M195.63,465.94V465h5.63v7.5h1.88v1.88h-1.87v3.75H197.5v-3.75H190v-3.75h1.88v-1.87h1.88v-1.87h1.88v-0.94Zm1.88,4.69v-1.87h-1.87v1.88h-1.87v1.88h3.75v-1.87Z"/><path class="cls-1" d="M206.88,465.94V465h9.38v1.88h1.88v3.75h-1.87v1.88h-1.87v1.88h-3.75v1.88h7.5v1.88H205v-3.75h1.88V472.5h1.88v-1.87h3.75v-1.87h1.88v-1.87h-5.62v1.88H205v-1.87h1.88v-0.94Z"/><path class="cls-1" d="M238.75,465.94V465h9.38v1.88h-7.5v1.88h-1.87v5.63h1.88v1.88h3.75V472.5H242.5v-1.87h5.63v7.5h-9.37v-1.87h-1.87v-1.87H235v-5.62h1.88v-1.87h1.88v-0.94Z"/><path class="cls-1" d="M251.88,465.94V465h9.38v1.88h1.88v9.38h-1.87v1.88h-9.37v-1.87H250v-9.37h1.88v-0.94Zm7.5,5.63v-4.69h-5.62v9.38h5.63v-4.69Z"/><path class="cls-1" d="M266.88,471.56V465h3.75v11.25h7.5v1.88H266.88v-6.56Z"/><path class="cls-1" d="M280,471.56V465h11.25v1.88h1.88v3.75h-1.87v1.88h1.88v3.75h-1.87v1.88H280v-6.56Zm9.38-2.81v-1.87h-5.62v3.75h5.63v-1.87Zm0,5.63V472.5h-5.62v3.75h5.63v-1.87Z"/><path class="cls-1" d="M298.75,465.94V465h5.63v1.88h1.88v1.88h1.88v9.38h-3.75v-3.75h-5.62v3.75H295v-9.37h1.88v-1.87h1.88v-0.94Zm3.75,1.88v-0.94h-1.87v1.88h-1.87v3.75h5.63v-3.75H302.5v-0.94Z"/><path class="cls-1" d="M311.88,465.94V465h11.25v1.88h-3.75v11.25h-3.75V466.88h-3.75v-0.94Z"/></svg>