<?xml version="1.0" ?><svg id="pkft" viewBox="0 0 500 500" xmlns="http://www.w3.org/2000/svg"><defs><style>.cls-1{fill:#72912d;}.cls-2{fill:#7aa037;}.cls-3{fill:#7fa93f;}.cls-4{fill:#4f83b9;}.cls-5{fill:#b36c7f;}.cls-6{fill:#fff;}.cls-7{fill:#d17d73;}.cls-8{fill:#1a1a1a;opacity:0.1;}</style></defs><title/><path class="cls-1" d="M238.92,218.61a110.09,110.09,0,0,1-4.69-34.75c-9.45-8.24-23.77-13.64-23.77-13.64a91.94,91.94,0,0,0,1.46,22.32C232.47,204.74,238.92,218.61,238.92,218.61Z"/><path class="cls-2" d="M211.91,192.54A118.46,118.46,0,0,0,182,180.22s-1.81,42.25,32.48,48.64a67.9,67.9,0,0,1,17.35-8.44,61.53,61.53,0,0,1,7.1-1.81S232.47,204.74,211.91,192.54Z"/><path class="cls-3" d="M234.23,183.86a110.09,110.09,0,0,0,4.69,34.75c0.64-.12,1.28-0.22,1.93-0.32a58.9,58.9,0,0,1,9-.73l0.16-.34v-77S235.29,154.62,234.23,183.86Z"/><path class="cls-4" d="M249.84,217.56a58.9,58.9,0,0,0-9,.73c-0.64.1-1.29,0.2-1.93,0.32a61.53,61.53,0,0,0-7.1,1.81,67.9,67.9,0,0,0-17.35,8.44C193.85,242.72,180,267.22,180,290.22c0,17,7.57,30,19.84,38.82-8.86,4.47-14,12.56-12,19.88,2.46,8.78,14.36,13.11,26.6,9.69,9.92-2.78,17-9.81,18-17A113.25,113.25,0,0,0,250,342.89V217.55h-0.16Z"/><path class="cls-5" d="M232,260.55a2.33,2.33,0,0,1-.86-4.5,4.28,4.28,0,0,0-1.14-.17,4.41,4.41,0,1,0,4.16,3.2A2.33,2.33,0,0,1,232,260.55Z"/><path class="cls-6" d="M229.67,258.22a2.33,2.33,0,0,0,4.5.86,4.31,4.31,0,0,0-3-3A2.33,2.33,0,0,0,229.67,258.22Z"/><path class="cls-7" d="M234,274s2.25,13.67,16,15.9V274H234Z"/><path class="cls-1" d="M261.08,218.61a110.09,110.09,0,0,0,4.69-34.75c9.45-8.24,23.77-13.64,23.77-13.64a91.94,91.94,0,0,1-1.46,22.32C267.53,204.74,261.08,218.61,261.08,218.61Z"/><path class="cls-2" d="M288.09,192.54A118.46,118.46,0,0,1,318,180.22s1.81,42.25-32.48,48.64a67.9,67.9,0,0,0-17.35-8.44,61.53,61.53,0,0,0-7.1-1.81S267.53,204.74,288.09,192.54Z"/><path class="cls-3" d="M265.77,183.86a110.09,110.09,0,0,1-4.69,34.75c-0.64-.12-1.28-0.22-1.93-0.32a58.9,58.9,0,0,0-9-.73l-0.16-.34v-77S264.71,154.62,265.77,183.86Z"/><path class="cls-4" d="M250.16,217.56a58.9,58.9,0,0,1,9,.73c0.64,0.1,1.29.2,1.93,0.32a61.53,61.53,0,0,1,7.1,1.81,67.9,67.9,0,0,1,17.35,8.44C306.15,242.72,320,267.22,320,290.22c0,17-7.57,30-19.84,38.82,8.86,4.47,14,12.56,12,19.88-2.46,8.78-14.36,13.11-26.6,9.69-9.92-2.78-17-9.81-18-17A113.25,113.25,0,0,1,250,342.89V217.55h0.16Z"/><path class="cls-5" d="M268,260.55a2.33,2.33,0,0,0,.86-4.5,4.28,4.28,0,0,1,1.14-.17,4.41,4.41,0,1,1-4.16,3.2A2.33,2.33,0,0,0,268,260.55Z"/><path class="cls-6" d="M270.33,258.22a2.33,2.33,0,0,1-4.5.86,4.31,4.31,0,0,1,3-3A2.33,2.33,0,0,1,270.33,258.22Z"/><path class="cls-7" d="M266,274s-2.25,13.67-16,15.9V274h16Z"/><path class="cls-8" d="M300.16,329c12.27-8.83,19.84-21.83,19.84-38.82,0-23-13.85-47.5-34.48-61.36,34.28-6.39,32.48-48.64,32.48-48.64a118.46,118.46,0,0,0-29.91,12.32,91.94,91.94,0,0,0,1.46-22.32s-14.33,5.4-23.77,13.64C264.71,154.62,250,140.22,250,140.22v77l0.16,0.34H250V342.89a113.25,113.25,0,0,0,17.53-1.32c1,7.24,8.1,14.27,18,17,12.23,3.42,24.14-.92,26.6-9.69C314.2,341.6,309,333.52,300.16,329Z"/><path class="cls-4" d="M178.75,465.94V465h5.63v1.88h1.88v1.88h1.88v5.63h-1.87v1.88h-1.87v1.88h-5.62v-1.87h-1.87v-1.87H175v-5.62h1.88v-1.87h1.88v-0.94Zm3.75,1.88v-0.94h-3.75v7.5h1.88v1.88h3.75v-7.5H182.5v-0.94Z"/><path class="cls-4" d="M195.63,465.94V465h5.63v7.5h1.88v1.88h-1.87v3.75H197.5v-3.75H190v-3.75h1.88v-1.87h1.88v-1.87h1.88v-0.94Zm1.88,4.69v-1.87h-1.87v1.88h-1.87v1.88h3.75v-1.87Z"/><path class="cls-4" d="M206.88,465.94V465h11.25v1.88h-1.87v1.88h-1.87v1.88h1.88v1.88h1.88v3.75h-1.87v1.88h-9.37v-1.87H205v-1.87h3.75v1.88h5.63V472.5h-5.62v-1.87h1.88v-1.87h1.88v-1.87h-5.62v-0.94Z"/><path class="cls-4" d="M236.88,465.94V465h9.38v1.88h1.88v9.38h-1.87v1.88h-9.37v-1.87H235v-9.37h1.88v-0.94Zm7.5,5.63v-4.69h-5.62v9.38h5.63v-4.69Z"/><path class="cls-4" d="M250,471.56V465h9.38v1.88h1.88v1.88h1.88v5.63h-1.87v1.88h-1.87v1.88H250v-6.56Zm7.5-3.75v-0.94h-3.75v9.38h3.75v-1.87h1.88v-5.62H257.5v-0.94Z"/><path class="cls-4" d="M265,471.56V465h9.38v1.88h1.88v1.88h1.88v5.63h-1.87v1.88h-1.87v1.88H265v-6.56Zm7.5-3.75v-0.94h-3.75v9.38h3.75v-1.87h1.88v-5.62H272.5v-0.94Z"/><path class="cls-4" d="M281.88,465.94V465h11.25v1.88h-3.75v9.38h3.75v1.88H281.88v-1.87h3.75v-9.37h-3.75v-0.94Z"/><path class="cls-4" d="M296.88,465.94V465h7.5v1.88h1.88v1.88H302.5v-1.87h-3.75v3.75h7.5v1.88h1.88v3.75h-1.87v1.88h-9.37v-1.87H295v-1.87h3.75v1.88h5.63V472.5h-7.5v-1.87H295v-3.75h1.88v-0.94Z"/><path class="cls-4" d="M310,471.56V465h3.75v5.63h5.63V465h3.75v13.13h-3.75V472.5h-5.62v5.63H310v-6.56Z"/></svg>