<?xml version="1.0" ?><svg id="pkft" viewBox="0 0 500 500" xmlns="http://www.w3.org/2000/svg"><defs><style>.cls-1{fill:#5892bf;}.cls-2,.cls-3{fill:none;}.cls-2{stroke:#5892bf;stroke-miterlimit:10;}.cls-4{fill:#b6aed1;}.cls-5{fill:#b76870;}.cls-11,.cls-6{fill:#1a1a1a;}.cls-7{fill:#aa5e69;}.cls-8{fill:#ef8200;}.cls-9{fill:#e07705;}.cls-10{fill:#fff;}.cls-11{opacity:0.1;}</style></defs><title/><path class="cls-1" d="M269.6,200.56c0.21,0.36.39,0.72,0.62,1.08,0.3-.22.58-0.46,0.88-0.69,0,0,29.19,16,49.82,42.83a59.24,59.24,0,0,1-.87,44.57c4.25,4.48,11.64,12.54,12.79,14.72,2.92,5.53,3.33,10.81.54,13.6-3.15,3.15-9.48,2.23-15.75-1.79-1.18-.76-5.52-4.78-9.3-8.37a77.25,77.25,0,0,1-34.52,21.61,57.33,57.33,0,0,0,.34,10.86,29.18,29.18,0,0,1,13.32,4.38c9,5.38,14,13.58,11.19,18.33s-12.43,4.23-21.44-1.15-14-13.58-11.19-18.33a5.64,5.64,0,0,1,1.74-1.78,37.58,37.58,0,0,0-2.51-10.13A91.6,91.6,0,0,1,249,331.92v-134A87,87,0,0,1,269.6,200.56Z"/><path class="cls-2" d="M271.07,200.95l-0.9.69q-0.34-.53-0.66-1.08C270,200.69,270.56,200.81,271.07,200.95Z"/><path class="cls-3" d="M269.52,200.56c0.52,0.13,1,.25,1.56.39l-0.9.69Q269.84,201.1,269.52,200.56Z"/><path class="cls-4" d="M249.33,291.94c18.09-1.12,46.13-11.1,46.9-12.89a5.31,5.31,0,0,0-4.13-7.36,5.21,5.21,0,0,0-.77-0.08c-1.9,0-26.18,9.09-42,10.21"/><path class="cls-5" d="M249,197.94V135.08a37.94,37.94,0,0,1,30.58,17.15,36.91,36.91,0,0,1-8.48,48.71l-1.49-.39A87.14,87.14,0,0,0,249,197.94Z"/><path class="cls-6" d="M304.64,250.19a1,1,0,0,0,.09-2c-0.21,0-21.53-2.22-31.08-22.43a1,1,0,0,0-1.81.85c10,21.27,32.48,23.55,32.7,23.57h0.09Z"/><path class="cls-6" d="M286.74,277.91c4-1.26,5.93-1.83,6.51-1.83a0.51,0.51,0,0,1,.54.47,0.43,0.43,0,0,1-.48.44,48,48,0,0,0-6.29,1.65c-9.26,2.89-26,8.14-38,8.29V286.4C261,286.1,277.53,280.78,286.74,277.91Z"/><path class="cls-7" d="M271.14,200.95l0.07,0-0.13,0a36.84,36.84,0,0,0,8.42-48.71,36.87,36.87,0,1,1,30.82,65.45C293.31,207.46,275.4,199,271.14,200.95Z"/><path class="cls-8" d="M310.32,217.69c12.79,7.7,25.07,16.43,30.62,22.58,12.94,14.33-1.6,71.67-1.6,71.67,5.66-26.68-4.4-49.93-18.4-68.16-20.11-26.19-48.32-42-49.73-42.8l-0.07,0C275.4,199,293.31,207.46,310.32,217.69Z"/><path class="cls-9" d="M308.72,216.73s63.61-21.13,64.28-26.8C373,189.94,365.77,229.53,308.72,216.73Z"/><circle class="cls-10" cx="313.36" cy="160.83" r="3.01"/><circle class="cls-10" cx="273.36" cy="178.83" r="3.01"/><circle class="cls-10" cx="325.36" cy="189.83" r="3.01"/><path class="cls-11" d="M373,189.94c-0.46,3.95-31.43,15.38-50.21,22a36.86,36.86,0,1,0-43.24-59.71A38,38,0,0,0,249,135.08v62.86a87.14,87.14,0,0,1,20.61,2.61l1.47,0.38h0c-0.3.23-.57,0.46-0.87,0.69v0l0.87-.67c-0.48-.13-1-0.24-1.46-0.36v0a87.05,87.05,0,0,0-20.6-2.61v134a91.6,91.6,0,0,0,16.25-1.64,37.58,37.58,0,0,1,2.51,10.13A5.64,5.64,0,0,0,266,342.2c-2.83,4.74,2.18,12.95,11.19,18.33s18.61,5.9,21.44,1.15-2.18-12.95-11.19-18.33A29.18,29.18,0,0,0,274.14,339a57.32,57.32,0,0,1-.34-10.86,77.25,77.25,0,0,0,34.52-21.61c3.77,3.59,8.11,7.61,9.3,8.37,6.27,4,12.6,4.94,15.75,1.79,2.79-2.79,2.38-8.07-.54-13.6-1.15-2.17-8.54-10.24-12.79-14.72a59.24,59.24,0,0,0,.87-44.57c-20.45-26.64-49.31-42.56-49.79-42.82l0.09,0c1.41,0.78,29.62,16.61,49.73,42.8,14,18.23,24.06,41.48,18.4,68.16,0,0,14.54-57.33,1.6-71.67-5.55-6.15-17.83-14.88-30.62-22.58l1.27-.35C366,228.19,373,189.94,373,189.94Z"/><path class="cls-1" d="M229.57,200.56c-0.21.36-.31,0.72-0.53,1.08-0.3-.22-0.54-0.46-0.84-0.69,0,0-29.17,16-49.8,42.83a59.28,59.28,0,0,0,.89,44.57c-4.25,4.48-11.64,12.54-12.79,14.72-2.92,5.53-3.33,10.81-.54,13.6,3.15,3.15,9.48,2.23,15.75-1.79,1.18-.76,5.52-4.78,9.3-8.37a77.25,77.25,0,0,0,34.52,21.61,57.33,57.33,0,0,1-.34,10.86,29.18,29.18,0,0,0-13.32,4.38c-9,5.38-14,13.58-11.19,18.33s12.43,4.23,21.44-1.15,14-13.58,11.19-18.33a5.64,5.64,0,0,0-1.74-1.78c0.44-3.31,1-7.09,2.34-10.13A89.78,89.78,0,0,0,250,331.92v-134A85.66,85.66,0,0,0,229.57,200.56Z"/><path class="cls-2" d="M228.26,200.95l0.9,0.69q0.34-.53.66-1.08C229.3,200.69,228.77,200.81,228.26,200.95Z"/><path class="cls-3" d="M229.82,200.56c-0.52.13-1,.25-1.56,0.39l0.9,0.69Q229.5,201.1,229.82,200.56Z"/><path class="cls-4" d="M250,291.94c-18.09-1.12-46.13-11.1-46.9-12.89a5.31,5.31,0,0,1,4.13-7.36,5.21,5.21,0,0,1,.77-0.08c1.9,0,26.18,9.09,42,10.21"/><path class="cls-5" d="M250,197.94V135.08a37.65,37.65,0,0,0-30.41,17.15,37,37,0,0,0,8.6,48.71c0.51-.14.82-0.26,1.34-0.39A85.92,85.92,0,0,1,250,197.94Z"/><path class="cls-6" d="M194.69,250.19a1,1,0,0,1-.09-2c0.21,0,21.53-2.22,31.08-22.43a1,1,0,0,1,1.81.85c-10,21.27-32.48,23.55-32.7,23.57h-0.09Z"/><path class="cls-6" d="M212.43,277.91c-4-1.26-5.84-1.83-6.43-1.83a0.47,0.47,0,0,0-.5.47,0.45,0.45,0,0,0,.5.44,48.7,48.7,0,0,1,6.13,1.65c9.26,2.89,26.37,8.14,37.87,8.29V286.4C238.64,286.1,221.64,280.78,212.43,277.91Z"/><path class="cls-7" d="M228.2,200.95l-0.07,0,0.13,0a36.84,36.84,0,0,1-8.42-48.71A36.87,36.87,0,1,0,189,217.69C206,207.46,223.93,199,228.2,200.95Z"/><path class="cls-8" d="M189,217.69c-12.79,7.7-25.07,16.43-30.62,22.58-12.94,14.33,1.6,71.67,1.6,71.67-5.66-26.68,4.4-49.93,18.4-68.16,20.11-26.19,48.32-42,49.73-42.8l0.07,0C223.93,199,206,207.46,189,217.69Z"/><path class="cls-9" d="M190.61,216.73S127,195.6,126.33,189.94C126.33,189.94,133.56,229.53,190.61,216.73Z"/><circle class="cls-10" cx="185.97" cy="160.83" r="3.01"/><circle class="cls-10" cx="225.97" cy="178.83" r="3.01"/><circle class="cls-10" cx="173.97" cy="189.83" r="3.01"/><path class="cls-1" d="M186.25,465.94V465h5.63v1.88h1.88v1.88h1.88v5.63h-1.87v1.88h-1.87v1.88h-5.62v-1.87h-1.87v-1.87H182.5v-5.62h1.88v-1.87h1.88v-0.94Zm3.75,1.88v-0.94h-3.75v7.5h1.88v1.88h3.75v-7.5H190v-0.94Z"/><path class="cls-1" d="M203.13,465.94V465h5.63v7.5h1.88v1.88h-1.87v3.75H205v-3.75h-7.5v-3.75h1.88v-1.87h1.88v-1.87h1.88v-0.94Zm1.88,4.69v-1.87h-1.87v1.88h-1.87v1.88H205v-1.87Z"/><path class="cls-1" d="M218.13,465.94V465h5.63v7.5h1.88v1.88h-1.87v3.75H220v-3.75h-7.5v-3.75h1.88v-1.87h1.88v-1.87h1.88v-0.94Zm1.88,4.69v-1.87h-1.87v1.88h-1.87v1.88H220v-1.87Z"/><path class="cls-1" d="M246.25,465.94V465h9.38v1.88h-7.5v1.88h-1.87v5.63h1.88v1.88h3.75V472.5H250v-1.87h5.63v7.5h-9.37v-1.87h-1.87v-1.87H242.5v-5.62h1.88v-1.87h1.88v-0.94Z"/><path class="cls-1" d="M259.38,471.56V465h3.75v11.25h7.5v1.88H259.38v-6.56Z"/><path class="cls-1" d="M274.38,465.94V465h9.38v1.88h1.88v9.38h-1.87v1.88h-9.37v-1.87H272.5v-9.37h1.88v-0.94Zm7.5,5.63v-4.69h-5.62v9.38h5.63v-4.69Z"/><path class="cls-1" d="M289.38,465.94V465h9.38v1.88h1.88v9.38h-1.87v1.88h-9.37v-1.87H287.5v-9.37h1.88v-0.94Zm7.5,5.63v-4.69h-5.62v9.38h5.63v-4.69Z"/><path class="cls-1" d="M302.5,471.56V465h3.75v1.88h1.88v1.88H310v-1.87h1.88V465h3.75v13.13h-3.75V472.5H310v1.88h-1.87V472.5h-1.87v5.63H302.5v-6.56Z"/></svg>