<?xml version="1.0" ?><svg id="pkft" viewBox="0 0 500 500" xmlns="http://www.w3.org/2000/svg"><defs><style>.cls-1{fill:#f9dbe1;}.cls-2{fill:#5892bf;}.cls-3{fill:none;}.cls-4{fill:#d34257;}.cls-5{fill:#dd4a58;}.cls-6{fill:#fb9b65;}.cls-7{fill:#e9545d;}.cls-8{fill:#c18963;}.cls-9{fill:#fff;}.cls-10{fill:#ed8599;}.cls-11{opacity:0.1;}.cls-12{fill:#1a1a1a;}</style></defs><title/><ellipse class="cls-1" cx="210.25" cy="126" rx="2.75" ry="2"/><ellipse class="cls-1" cx="92.25" cy="193.25" rx="14.25" ry="8"/><path class="cls-2" d="M249,311V261c-22-.07-42.34-2.25-59.68-6.2l-4,45.47c-0.81.2-1.72,0.46-2.73,0.79-0.79.26-16.54,6.21-17.33,6.51-13.3,5-22.27,13.9-20,19.79s14.82,6.57,28.12,1.53l9.79-3.73-0.39,4.4c-1.43,15.63,9.6,29.06,24.89,30.33a85.21,85.21,0,0,0-6.7,6,71.91,71.91,0,0,0-12,15.42A78.87,78.87,0,0,0,174,380c-16.43,0-29.75,4.48-29.75,10s13.32,10,29.75,10,29.75-4.48,29.75-10a3.44,3.44,0,0,0,0-.44,79.1,79.1,0,0,0,11.35-9.49c7.06-7.06,12.13-14.46,14.15-20.07H249V334.09c-9.18-3.3-21.31-10.18-19-23.09h19Z"/><path class="cls-3" d="M196.27,184.87l0.6-4.05L196,184.93Z"/><path class="cls-4" d="M201.35,160.52A33.54,33.54,0,0,1,231,142h18s-15.5-35-49-22c-25.47,9.88-57,26.41-58.57,43.65a580.56,580.56,0,0,1,60-3.65Z"/><path class="cls-5" d="M141.43,163.65C109.95,167.37,76.56,174.87,70,190c-13,30,67,28,67,28l0.11-.06c2.48-14.23,25.43-26.46,58.59-33l0.26,0,0.91-4.11,0.53-3.57,0.87-5.91a30.66,30.66,0,0,1,3.08-10.82l0.11-.52A580.56,580.56,0,0,0,141.43,163.65Z"/><path class="cls-6" d="M196.86,180.82l0.83-3.75-0.3.18Z"/><path class="cls-6" d="M198.26,171.33l-0.87,5.91,0.3-.18,3.66-16.55A30.66,30.66,0,0,0,198.26,171.33Z"/><path class="cls-7" d="M196.19,185.35l0.07-.48-0.31.06-0.26,0c-33.16,6.5-56.11,18.73-58.59,33a14.91,14.91,0,0,0-.23,2.56c0,14.37,20.78,27,52.38,34.17A276.94,276.94,0,0,0,249,261V180A280.15,280.15,0,0,0,196.19,185.35Z"/><path class="cls-7" d="M196.19,185.35A280.15,280.15,0,0,1,249,180a287.47,287.47,0,0,0-52.73,4.87Z"/><path class="cls-6" d="M249,146.83V142H231a33.54,33.54,0,0,0-29.65,18.52l-3.66,16.55-0.7,3.16a2.68,2.68,0,0,0-.8-0.13,2.78,2.78,0,0,0,0,5.56,2.72,2.72,0,0,0,2.22-1.17A289.53,289.53,0,0,1,249,180V156.83c-15.56,0-28.17-2.24-28.17-5S233.44,146.83,249,146.83Z"/><path class="cls-8" d="M220.83,151.83c0,2.76,12.61,5,28.17,5v-10C233.44,146.83,220.83,149.07,220.83,151.83Z"/><ellipse class="cls-1" cx="188" cy="227" rx="13.35" ry="4.75"/><ellipse class="cls-1" cx="172.5" cy="168.88" rx="4" ry="3.12"/><ellipse class="cls-1" cx="133.75" cy="172" rx="3.13" ry="3"/><ellipse class="cls-1" cx="182.61" cy="140.38" rx="5.39" ry="4.12"/><ellipse class="cls-1" cx="213" cy="194.75" rx="3.06" ry="1.75"/><ellipse class="cls-1" cx="236" cy="245.25" rx="3.75" ry="2"/><path class="cls-7" d="M215.9,282.48a13.9,13.9,0,0,0-.15,2c0,5,2.57,9,5.75,9a4.16,4.16,0,0,0,2.6-1c-0.59,4-2.87,7-5.6,7-3.18,0-5.75-4-5.75-9C212.75,287,214,284,215.9,282.48Z"/><path class="cls-9" d="M215.75,284.5a13.9,13.9,0,0,1,.15-2,4.16,4.16,0,0,1,2.6-1c3.18,0,5.75,4,5.75,9a13.9,13.9,0,0,1-.15,2,4.16,4.16,0,0,1-2.6,1C218.32,293.5,215.75,289.47,215.75,284.5Z"/><path class="cls-10" d="M230,311c-2.31,12.91,9.82,19.78,19,23.09V311H230Z"/><path class="cls-2" d="M249,311V261c22-.07,42.13-2.25,59.47-6.2l3.89,45.47c0.81,0.2,1.66.46,2.68,0.79,0.79,0.26,16.51,6.21,17.3,6.51,13.3,5,22.25,13.9,20,19.79s-14.83,6.57-28.13,1.53l-9.79-3.73,0.39,4.4c1.43,15.63-9.6,29.06-24.89,30.33a85.21,85.21,0,0,1,6.7,6,71.91,71.91,0,0,1,12,15.42A78.87,78.87,0,0,1,323.57,380c16.43,0,29.75,4.48,29.75,10S340,400,323.57,400s-29.75-4.48-29.75-10a3.44,3.44,0,0,1,0-.44,79.1,79.1,0,0,1-11.35-9.49C275.45,373,270.37,366,268.35,360H249V334.09c9-3.3,20.88-10.09,18.57-23.09H249Z"/><path class="cls-3" d="M301.31,184.87l-0.6-4.05,0.91,4.11Z"/><path class="cls-4" d="M296.23,160.52A33.54,33.54,0,0,0,266.57,142h-18s15.5-35,49-22c25.47,9.88,57,26.41,58.57,43.65a580.56,580.56,0,0,0-60-3.65Z"/><path class="cls-5" d="M356.14,163.65c31.48,3.72,64.87,11.21,71.43,26.35,13,30-67,28-67,28l-0.11-.06C358,203.71,335,191.48,301.88,185l-0.26,0-0.91-4.11-0.53-3.57-0.87-5.91a30.66,30.66,0,0,0-3.08-10.82l-0.11-.52A580.56,580.56,0,0,1,356.14,163.65Z"/><path class="cls-6" d="M300.71,180.82l-0.83-3.75,0.3,0.18Z"/><path class="cls-6" d="M299.31,171.33l0.87,5.91-0.3-.18-3.66-16.55A30.66,30.66,0,0,1,299.31,171.33Z"/><path class="cls-7" d="M301.59,185.35l-0.18-.48,0.26,0.06,0.23,0c33.16,6.5,56.1,18.73,58.57,33a14.9,14.9,0,0,1,.23,2.56c0,14.37-20.56,27-52.17,34.17A274.91,274.91,0,0,1,249,261V180A277.81,277.81,0,0,1,301.59,185.35Z"/><path class="cls-7" d="M301.38,185.35A280.15,280.15,0,0,0,248.57,180a287.47,287.47,0,0,1,52.73,4.87Z"/><path class="cls-6" d="M249,146.83V142h17.57a33.54,33.54,0,0,1,29.65,18.52l3.66,16.55,0.7,3.16a2.68,2.68,0,0,1,.8-0.13,2.78,2.78,0,0,1,0,5.56,2.34,2.34,0,0,1-2-1.17A286.46,286.46,0,0,0,249,180V156.83c15,0,28.17-2.24,28.17-5S264,146.83,249,146.83Z"/><path class="cls-8" d="M277.17,151.83c0,2.76-13.17,5-28.17,5v-10C264,146.83,277.17,149.07,277.17,151.83Z"/><ellipse class="cls-1" cx="309.57" cy="227" rx="13.35" ry="4.75"/><ellipse class="cls-1" cx="325.07" cy="168.88" rx="4" ry="3.12"/><ellipse class="cls-1" cx="363.82" cy="172" rx="3.13" ry="3"/><ellipse class="cls-1" cx="314.96" cy="140.38" rx="5.39" ry="4.12"/><ellipse class="cls-1" cx="284.57" cy="194.75" rx="3.06" ry="1.75"/><ellipse class="cls-1" cx="261.57" cy="245.25" rx="3.75" ry="2"/><path class="cls-7" d="M281.67,282.48a13.9,13.9,0,0,1,.15,2c0,5-2.57,9-5.75,9a4.16,4.16,0,0,1-2.6-1c0.59,4,2.87,7,5.6,7,3.18,0,5.75-4,5.75-9C284.82,287,283.54,284,281.67,282.48Z"/><path class="cls-9" d="M281.82,284.5a13.9,13.9,0,0,0-.15-2,4.16,4.16,0,0,0-2.6-1c-3.18,0-5.75,4-5.75,9a13.9,13.9,0,0,0,.15,2,4.16,4.16,0,0,0,2.6,1C279.25,293.5,281.82,289.47,281.82,284.5Z"/><path class="cls-10" d="M267.57,311c2.31,13-9.57,19.78-18.57,23.09V311h18.57Z"/><g class="cls-11"><path class="cls-12" d="M427.57,190c-6.56-15.13-39.95-22.63-71.43-26.35-1.58-17.24-33.1-33.77-58.57-43.65-33.5-13-49,22-49,22H249v38a286.46,286.46,0,0,1,50.37,4.48l0,0A287.54,287.54,0,0,0,251.49,180c-0.83,0-1.65,0-2.49,0h0v81a274.91,274.91,0,0,0,59.53-6.32c31.6-7.19,52.17-19.81,52.17-34.17a14.92,14.92,0,0,0-.23-2.55l0.09,0.05S440.57,220,427.57,190Z"/><path class="cls-12" d="M249,334.09V360h19.35c2,6,7.1,13,14.15,20.07a79.1,79.1,0,0,0,11.35,9.49,3.44,3.44,0,0,0,0,.44c0,5.52,13.32,10,29.75,10s29.75-4.48,29.75-10S340,380,323.57,380a78.87,78.87,0,0,0-14.93,1.35,71.91,71.91,0,0,0-12-15.42,85.21,85.21,0,0,0-6.7-6c15.28-1.27,26.32-14.7,24.89-30.33l-0.39-4.4,9.79,3.73c13.3,5,25.89,4.36,28.13-1.53s-6.72-14.75-20-19.79c-0.79-.3-16.52-6.25-17.3-6.51-1-.34-1.87-0.6-2.68-0.79l-3.89-45.47C291.13,258.74,271,260.93,249,261v73.09Z"/></g><path class="cls-2" d="M156.25,465.94V465h5.63v1.88h1.88v1.88h1.88v5.63h-1.87v1.88h-1.87v1.88h-5.62v-1.87h-1.87v-1.87H152.5v-5.62h1.88v-1.87h1.88v-0.94Zm3.75,1.88v-0.94h-3.75v7.5h1.88v1.88h3.75v-7.5H160v-0.94Z"/><path class="cls-2" d="M173.13,465.94V465h5.63v7.5h1.88v1.88h-1.87v3.75H175v-3.75h-7.5v-3.75h1.88v-1.87h1.88v-1.87h1.88v-0.94Zm1.88,4.69v-1.87h-1.87v1.88h-1.87v1.88H175v-1.87Z"/><path class="cls-2" d="M182.5,467.81V465h11.25v1.88h-7.5v1.88h7.5v1.88h1.88v5.63h-1.87v1.88h-9.37v-1.87H182.5v-1.87h3.75v1.88h5.63v-5.62H182.5v-2.81Z"/><path class="cls-2" d="M212.5,468.75V465h3.75v5.63h1.88v1.88H220v-1.87h1.88V465h3.75v7.5h-1.87v1.88h-1.87v1.88H220v1.88h-1.87v-1.87h-1.87v-1.87h-1.87V472.5H212.5v-3.75Z"/><path class="cls-2" d="M229.38,465.94V465h11.25v1.88h-3.75v9.38h3.75v1.88H229.38v-1.87h3.75v-9.37h-3.75v-0.94Z"/><path class="cls-2" d="M244.38,471.56V465h3.75v11.25h7.5v1.88H244.38v-6.56Z"/><path class="cls-2" d="M257.5,471.56V465h13.13v1.88h-9.37v3.75h7.5v1.88h-7.5v3.75h9.38v1.88H257.5v-6.56Z"/><path class="cls-2" d="M272.5,471.56V465h11.25v1.88h1.88v5.63h-1.87v1.88h-7.5v3.75H272.5v-6.56Zm9.38-1.87v-2.81h-5.62v5.63h5.63v-2.81Z"/><path class="cls-2" d="M289.38,471.56V465h3.75v11.25h7.5v1.88H289.38v-6.56Z"/><path class="cls-2" d="M302.5,470.63V465h3.75v11.25h5.63V465h3.75v11.25h-1.87v1.88h-9.37v-1.87H302.5v-5.62Z"/><path class="cls-2" d="M317.5,471.56V465h3.75v1.88h1.88v1.88H325v-1.87h1.88V465h3.75v13.13h-3.75V472.5H325v1.88h-1.87V472.5h-1.87v5.63H317.5v-6.56Z"/><path class="cls-2" d="M332.5,471.56V465h13.13v1.88h-9.37v3.75h7.5v1.88h-7.5v3.75h9.38v1.88H332.5v-6.56Z"/></svg>