<?xml version="1.0" ?><svg id="pkft" viewBox="0 0 500 500" xmlns="http://www.w3.org/2000/svg"><defs><style>.cls-1{fill:#ce723f;}.cls-2{fill:#e27444;}.cls-3{fill:#ef834a;}.cls-4{fill:#d49433;}.cls-5{fill:#d2ecfa;}.cls-6{fill:#fff;}.cls-7{fill:#1a1a1a;}.cls-8{fill:#e6e6e6;}.cls-9{fill:#d60040;}.cls-10{fill:#f5ac3c;}.cls-11{opacity:0.1;}</style></defs><title/><circle class="cls-1" cx="239.01" cy="222.12" r="2.19"/><path class="cls-2" d="M208.07,228.49c10.06-8.9,24.93-14.56,41.93-14.56V199.67C230,199.67,213.62,211.8,208.07,228.49Z"/><path class="cls-3" d="M246.29,283.76a9.33,9.33,0,0,0,1.5.77c-12.79.41-11.25-6.9-9.69-10.55-2.77-3.71,1-9.69,1-9.69a4,4,0,0,1-.1-0.89c0-3.64,5-6.58,11-6.58V213.93c-17,0-31.87,5.66-41.94,14.56-8.06,7.13-12.94,16.34-12.94,26.41a31,31,0,0,0,.26,3.93c2.65,20.78,25.61,37,54.61,37V284.52A14.09,14.09,0,0,1,246.29,283.76Z"/><path class="cls-2" d="M190.87,314.62c3.84-1.51,5.76-5.58,4.39-10.15l-3.2-10.95c-1.73-5.78-1.16-15,1.28-20.55l0.71-1.6c2.44-5.52,2.36-14.52-.17-20L192,247.44c-2.53-5.48-7.5-6-11-1.07l-0.67.92c-6.34-1.67-13.15-3.37-14.63-3.37-2.92,0-15.33,20.66-18,23.68s-10.33,23.68-10.33,23.68c6.68,0.37,12.1-21,16.69-22.51s10-22.3,14-22.3c1.75,0,6.35,1.28,11,2.7l-18,24.89c-3.54,4.89-4.82,13.56-2.85,19.26l3.8,11.26c1.55,4.49,5.94,8.49,10.68,10l-1.24.1C183.42,338.84,211,334.63,211,334.63,204.37,334.94,193.92,319.4,190.87,314.62Z"/><path class="cls-4" d="M207.25,202a54.08,54.08,0,0,1-12.71,6.94,39.22,39.22,0,0,0,5.55,6.85,54.2,54.2,0,0,1,8.3-10.43Z"/><path class="cls-1" d="M208.4,205.36a54.22,54.22,0,0,0-8.31,10.43A51.14,51.14,0,0,0,193.86,231c-4.78-4.26-12-10.59-13.49-11.29-2.25-1.06-20,11.77-23.3,13.32s-17.35,16.12-17.35,16.12c5,2.74,17.67-13.26,21.79-12.83s16.56-15.08,19.62-13.63c2.13,1,8.51,7.3,12.19,11a50.17,50.17,0,0,0,2.07,25.09,31,31,0,0,1-.26-3.93c0-10.06,4.88-19.28,12.94-26.41C213.61,211.8,230,199.67,250,199.67v-11A59.92,59.92,0,0,0,208.4,205.36Z"/><circle class="cls-5" cx="217.62" cy="239.54" r="19.2"/><circle cx="217.62" cy="239.54" r="11.97"/><circle class="cls-6" cx="211.31" cy="233.23" r="7.86"/><path class="cls-2" d="M243.67,268.78l-0.68-.67,0,0.35C243.19,268.57,243.43,268.68,243.67,268.78Z"/><circle class="cls-1" cx="244.5" cy="235.97" r="1.23"/><path class="cls-3" d="M243,268.11l0,0.35c0.23,0.11.47,0.22,0.71,0.32Z"/><path class="cls-7" d="M247.79,276.84a24.06,24.06,0,0,1-4.18-.19c-1.51,3.73.94,6,2.68,7.1a14.09,14.09,0,0,0,3.71.77V270a17.77,17.77,0,0,1-6.32-1.2C241.21,274.44,247.79,276.84,247.79,276.84Z"/><path class="cls-8" d="M243.6,276.65c-0.49-.07-0.94-0.17-1.37-0.27A7,7,0,0,1,238.1,274c-1.55,3.65-3.11,11,9.69,10.55a9.26,9.26,0,0,1-1.51-.77C244.53,282.67,242.09,280.38,243.6,276.65Z"/><path class="cls-6" d="M242.23,276.38c0.43,0.1.88,0.2,1.37,0.27a24.06,24.06,0,0,0,4.18.19s-6.59-2.41-4.12-8.06h0c-0.24-.1-0.48-0.21-0.71-0.32a6.69,6.69,0,0,1-3.84-4.17s-3.8,6-1,9.69A7,7,0,0,0,242.23,276.38Z"/><path class="cls-2" d="M239,263.4a4,4,0,0,0,.11.89,6.68,6.68,0,0,0,3.84,4.17l0-.24,0.68,0.78h0c1.79,0,4.32,1,6.32,1V256.82C244,256.82,239,259.77,239,263.4Z"/><path class="cls-9" d="M212.4,192.49a4.57,4.57,0,0,1,4.66-4.47,4.8,4.8,0,0,1,1.94.42c1.57-3.56,1.87-7,.63-9.78a4.78,4.78,0,0,1-2.58.75,4.57,4.57,0,0,1-4.66-4.47,4.32,4.32,0,0,1,1.06-2.8c-6.14-4.22-15.63-7.69-24.47-6.95a6.14,6.14,0,0,1,1.74,4.26,6.59,6.59,0,0,1-13.17,0c0-.07,0-0.13,0-0.2-5.74,4.17-9.07,11-10.57,17.85a6.14,6.14,0,0,1,1.78,4.3,6.22,6.22,0,0,1-2.73,5.11c0.07,4,.78,7.44,2,9.63,3.52,6.41,14.62,7.33,26.5,2.81A54.08,54.08,0,0,0,207.25,202a44.88,44.88,0,0,0,6.81-6.13A4.37,4.37,0,0,1,212.4,192.49Zm-37,7.76a4.47,4.47,0,1,1,4.66-4.47A4.57,4.57,0,0,1,175.37,200.25ZM178.66,186a4.47,4.47,0,1,1,4.66-4.47A4.57,4.57,0,0,1,178.66,186Zm17.56,16.46a4.47,4.47,0,1,1,4.66-4.47A4.57,4.57,0,0,1,196.22,202.45Zm2.19-18.65a4.47,4.47,0,1,1,4.66-4.47A4.57,4.57,0,0,1,198.41,183.79Z"/><path class="cls-10" d="M168.79,191.4a6.14,6.14,0,0,0-1.78-4.3,41.14,41.14,0,0,0-1,9.41A6.22,6.22,0,0,0,168.79,191.4Z"/><path class="cls-10" d="M184.15,175.76a6.45,6.45,0,0,0,6.58-6.31,6.14,6.14,0,0,0-1.74-4.26,26.28,26.28,0,0,0-2.63.35,4.43,4.43,0,0,1,2.45,3.91,4.67,4.67,0,0,1-9.33,0,4.28,4.28,0,0,1,.33-1.63l-0.06,0a20.49,20.49,0,0,0-2.18,1.4c0,0.07,0,.13,0,0.2A6.45,6.45,0,0,0,184.15,175.76Z"/><path class="cls-10" d="M179.49,169.45a4.67,4.67,0,0,0,9.33,0,4.43,4.43,0,0,0-2.45-3.91,22.07,22.07,0,0,0-6.55,2.28A4.28,4.28,0,0,0,179.49,169.45Z"/><ellipse class="cls-10" cx="175.37" cy="195.78" rx="4.66" ry="4.47"/><ellipse class="cls-10" cx="196.22" cy="197.98" rx="4.66" ry="4.47"/><ellipse class="cls-10" cx="198.41" cy="179.33" rx="4.66" ry="4.47"/><path class="cls-10" d="M217.07,179.41a4.78,4.78,0,0,0,2.58-.75c-0.1-.23-0.19-0.47-0.31-0.69a18.94,18.94,0,0,0-5.87-5.83,4.32,4.32,0,0,0-1.06,2.8A4.57,4.57,0,0,0,217.07,179.41Z"/><path class="cls-10" d="M217.07,188a4.57,4.57,0,0,0-4.66,4.47,4.37,4.37,0,0,0,1.65,3.38,28.84,28.84,0,0,0,5-7.44A4.8,4.8,0,0,0,217.07,188Z"/><ellipse class="cls-10" cx="178.66" cy="181.52" rx="4.66" ry="4.47"/><circle class="cls-1" cx="261.32" cy="222.12" r="2.19"/><path class="cls-2" d="M291.93,228.49c-10.06-8.9-23.93-14.56-41.93-14.56V199.67C270,199.67,286.38,211.8,291.93,228.49Z"/><path class="cls-3" d="M253.88,283.76a11.52,11.52,0,0,1-1.42.77c12.79,0.41,11.29-6.9,9.73-10.55,2.77-3.71-1-9.69-1-9.69a4.08,4.08,0,0,0-.05-0.89c0-3.64-4.14-6.58-11.14-6.58V213.93c18,0,32,5.66,42.1,14.56,8.06,7.13,13,16.34,13,26.41a31.09,31.09,0,0,1-.39,3.93c-2.65,20.78-25.74,37-54.74,37V284.52A15.23,15.23,0,0,0,253.88,283.76Z"/><path class="cls-2" d="M309.47,314.62c-3.84-1.51-5.76-5.58-4.39-10.15l3.2-10.95c1.73-5.78,1.16-15-1.28-20.55l-0.71-1.6c-2.44-5.52-2.36-14.52.17-20l1.82-3.94c2.53-5.48,7.5-6,11-1.07l0.67,0.92c6.34-1.67,13.15-3.37,14.63-3.37,2.92,0,15.33,20.66,18,23.68S363,291.29,363,291.29c-6.68.37-12.1-21-16.69-22.51s-10-22.3-14-22.3c-1.75,0-6.35,1.28-11,2.7l18,24.89c3.54,4.89,4.82,13.56,2.85,19.26l-3.8,11.26c-1.55,4.49-5.94,8.49-10.68,10l1.24,0.1c-12.07,24.14-39.68,19.93-39.68,19.93C296,334.94,306.41,319.4,309.47,314.62Z"/><path class="cls-4" d="M293.09,202a54.08,54.08,0,0,0,12.71,6.94,39.22,39.22,0,0,1-5.55,6.85,54.2,54.2,0,0,0-8.3-10.43Z"/><path class="cls-1" d="M291.77,205.36a54.66,54.66,0,0,1,8.39,10.43A51.23,51.23,0,0,1,306.44,231c4.78-4.26,12-10.59,13.51-11.29,2.25-1.06,20,11.77,23.31,13.32s17.36,16.12,17.36,16.12c-5,2.74-17.66-13.26-21.79-12.83s-16.56-15.08-19.61-13.63c-2.13,1-8.51,7.3-12.19,11A50.16,50.16,0,0,1,305,258.83a31,31,0,0,0,.26-3.93c0-10.06-5-19.28-13.11-26.41-5.54-16.69-22.1-28.82-42.1-28.82v-11C266,188.7,281.31,195.1,291.77,205.36Z"/><circle class="cls-5" cx="282.72" cy="239.54" r="19.2"/><circle cx="282.72" cy="239.54" r="11.97"/><circle class="cls-6" cx="289.03" cy="233.23" r="7.86"/><path class="cls-2" d="M256.66,268.78l0.68-.67,0,0.35C257.14,268.57,256.9,268.68,256.66,268.78Z"/><circle class="cls-1" cx="255.84" cy="235.97" r="1.23"/><path class="cls-3" d="M257.34,268.11l0,0.35c-0.23.11-.47,0.22-0.71,0.32Z"/><path class="cls-7" d="M252.54,276.84a24.06,24.06,0,0,0,4.18-.19c1.51,3.73-1.1,6-2.85,7.1a15.23,15.23,0,0,1-3.88.77V270a18.69,18.69,0,0,0,6.49-1.2C259,274.44,252.54,276.84,252.54,276.84Z"/><path class="cls-8" d="M256.73,276.65c0.49-.07.94-0.17,1.37-0.27a7,7,0,0,0,4.14-2.41c1.55,3.65,3.11,11-9.69,10.55a9.26,9.26,0,0,0,1.51-.77C255.8,282.67,258.24,280.38,256.73,276.65Z"/><path class="cls-6" d="M258.1,276.38c-0.43.1-.88,0.2-1.37,0.27a24.06,24.06,0,0,1-4.18.19s6.59-2.41,4.12-8.06h0c0.24-.1.48-0.21,0.71-0.32a6.69,6.69,0,0,0,3.84-4.17s3.8,6,1,9.69A7,7,0,0,1,258.1,276.38Z"/><path class="cls-2" d="M261.15,263.4a4,4,0,0,1,0,.89,6.61,6.61,0,0,1-3.8,4.17v-0.24l-0.67.78h-0.18c-1.79,0-4.47,1-6.47,1V256.82C257,256.82,261.15,259.77,261.15,263.4Z"/><path class="cls-9" d="M286.28,195.88a44.88,44.88,0,0,0,6.81,6.13,54.08,54.08,0,0,0,12.71,6.94c11.88,4.52,23,3.6,26.5-2.81,1.2-2.19,1.91-5.64,2-9.63a6.22,6.22,0,0,1-2.73-5.11,6.14,6.14,0,0,1,1.78-4.3c-1.5-6.83-4.83-13.68-10.57-17.85,0,0.07,0,.13,0,0.2a6.59,6.59,0,0,1-13.17,0,6.14,6.14,0,0,1,1.74-4.26c-8.83-.74-18.33,2.73-24.47,6.95a4.32,4.32,0,0,1,1.06,2.8,4.57,4.57,0,0,1-4.66,4.47,4.78,4.78,0,0,1-2.58-.75c-1.24,2.82-.94,6.23.63,9.78a4.8,4.8,0,0,1,1.94-.42,4.57,4.57,0,0,1,4.66,4.47A4.37,4.37,0,0,1,286.28,195.88Zm34-.09a4.67,4.67,0,1,1,4.66,4.47A4.57,4.57,0,0,1,320.3,195.78ZM317,181.52a4.67,4.67,0,1,1,4.66,4.47A4.57,4.57,0,0,1,317,181.52ZM299.45,198a4.67,4.67,0,1,1,4.66,4.47A4.57,4.57,0,0,1,299.45,198Zm-2.19-18.65a4.67,4.67,0,1,1,4.66,4.47A4.57,4.57,0,0,1,297.26,179.33Z"/><path class="cls-10" d="M331.55,191.4a6.14,6.14,0,0,1,1.78-4.3,41.14,41.14,0,0,1,1,9.41A6.22,6.22,0,0,1,331.55,191.4Z"/><path class="cls-10" d="M316.18,175.76a6.45,6.45,0,0,1-6.58-6.31,6.14,6.14,0,0,1,1.74-4.26,26.28,26.28,0,0,1,2.63.35,4.43,4.43,0,0,0-2.45,3.91,4.67,4.67,0,0,0,9.33,0,4.28,4.28,0,0,0-.33-1.63l0.06,0a20.49,20.49,0,0,1,2.18,1.4c0,0.07,0,.13,0,0.2A6.45,6.45,0,0,1,316.18,175.76Z"/><path class="cls-10" d="M320.85,169.45a4.67,4.67,0,0,1-9.33,0,4.43,4.43,0,0,1,2.45-3.91,22.07,22.07,0,0,1,6.55,2.28A4.28,4.28,0,0,1,320.85,169.45Z"/><ellipse class="cls-10" cx="324.96" cy="195.78" rx="4.66" ry="4.47"/><ellipse class="cls-10" cx="304.11" cy="197.98" rx="4.66" ry="4.47"/><ellipse class="cls-10" cx="301.92" cy="179.33" rx="4.66" ry="4.47"/><path class="cls-10" d="M283.27,179.41a4.78,4.78,0,0,1-2.58-.75c0.1-.23.19-0.47,0.31-0.69a18.94,18.94,0,0,1,5.87-5.83,4.32,4.32,0,0,1,1.06,2.8A4.57,4.57,0,0,1,283.27,179.41Z"/><path class="cls-10" d="M283.27,188a4.57,4.57,0,0,1,4.66,4.47,4.37,4.37,0,0,1-1.65,3.38,28.84,28.84,0,0,1-5-7.44A4.8,4.8,0,0,1,283.27,188Z"/><ellipse class="cls-10" cx="321.67" cy="181.52" rx="4.66" ry="4.47"/><g class="cls-11"><path class="cls-7" d="M352.67,267.61c-2.71-3-15.12-23.68-18-23.68-1.48,0-8.29,1.7-14.63,3.37l-0.67-.92c-3.54-4.89-8.51-4.41-11,1.07l-1.11,2.39a49.67,49.67,0,0,0-.15-16.09c3.68-3.73,10.06-10,12.19-11,3.06-1.44,15.49,14.06,19.61,13.63s16.79,15.56,21.79,12.83c0,0-14.07-14.58-17.36-16.12s-21.06-14.38-23.31-13.32c-1.48.7-8.73,7-13.51,11.29a51.24,51.24,0,0,0-6.28-15.23,54.63,54.63,0,0,0-8.38-10.43C281.31,195.1,266,188.7,250,188.7v11c17,0,31.48,8.79,38.9,21.7l-0.21-.08C281.3,208.42,267,199.67,250,199.67V270a29.42,29.42,0,0,0,5-.69,17.21,17.21,0,0,1-5,.69v25.88c28,0,51.28-15.72,54.57-36a26.17,26.17,0,0,0,1.72,11.5L307,273c2.44,5.52,3,14.77,1.28,20.55l-3.2,10.95c-1.37,4.57.55,8.64,4.39,10.15-3.05,4.78-13.51,20.32-20.17,20,0,0,27.61,4.21,39.68-19.93l-1.24-.1c4.74-1.51,9.12-5.51,10.68-10l3.8-11.26c2-5.7.69-14.37-2.85-19.26l-18-24.89c4.61-1.43,9.22-2.7,11-2.7,4,0,9.39,20.82,14,22.3s10,22.87,16.69,22.51C363,291.29,355.38,270.63,352.67,267.61Zm-95.3.83a6.58,6.58,0,0,0,3.75-4.15,2.49,2.49,0,0,0,0-.66,1.83,1.83,0,0,1,0,.66l0,0a6.7,6.7,0,0,1-3.83,4.15v0Zm-0.75.56h0l0.1,0c2.16,5.47-4.21,7.77-4.21,7.77S258.63,274,256.61,269Zm-4.16,15.52a11.69,11.69,0,0,0,1.42-.77c1.75-1.09,4.37-3.37,2.86-7.1,1.51,3.73-.93,6-2.68,7.1a9.26,9.26,0,0,1-1.51.77l1.1,0ZM301.84,241s0-.06,0-0.09a31.23,31.23,0,0,1,3.36,13.94c0,0.11,0,.21,0,0.32s-0.08.34-.11,0.52c0-.28,0-0.56,0-0.83A31.46,31.46,0,0,0,301.84,241Z"/><path class="cls-7" d="M286.28,195.88a44.88,44.88,0,0,0,6.81,6.13l-1.14,3.35a54.2,54.2,0,0,1,8.3,10.43,39.22,39.22,0,0,0,5.55-6.85c11.88,4.52,23,3.6,26.5-2.81,1.2-2.19,1.91-5.64,2-9.63a41.14,41.14,0,0,0-1-9.41c-1.5-6.83-4.83-13.68-10.57-17.85a20.49,20.49,0,0,0-2.18-1.4l-0.06,0a22.07,22.07,0,0,0-6.55-2.28,26.28,26.28,0,0,0-2.63-.35c-8.83-.74-18.33,2.73-24.47,6.95A18.94,18.94,0,0,0,281,178c-0.12.22-.21,0.46-0.31,0.69-1.24,2.82-.94,6.23.63,9.78A28.84,28.84,0,0,0,286.28,195.88Z"/></g><path class="cls-3" d="M186.25,465.94V465h5.63v1.88h1.88v1.88h1.88v5.63h-1.87v1.88h-1.87v1.88h-5.62v-1.87h-1.87v-1.87H182.5v-5.62h1.88v-1.87h1.88v-0.94Zm3.75,1.88v-0.94h-3.75v7.5h1.88v1.88h3.75v-7.5H190v-0.94Z"/><path class="cls-3" d="M203.13,465.94V465h5.63v7.5h1.88v1.88h-1.87v3.75H205v-3.75h-7.5v-3.75h1.88v-1.87h1.88v-1.87h1.88v-0.94Zm1.88,4.69v-1.87h-1.87v1.88h-1.87v1.88H205v-1.87Z"/><path class="cls-3" d="M216.25,465.94V465h7.5v1.88h-5.62v1.88h-1.87v1.88h7.5v1.88h1.88v3.75h-1.87v1.88h-9.37v-1.87H212.5v-7.5h1.88v-1.87h1.88v-0.94Zm5.63,8.44V472.5h-5.62v3.75h5.63v-1.87Z"/><path class="cls-3" d="M242.5,471.56V465h11.25v1.88h1.88v5.63h-1.87v1.88h-7.5v3.75H242.5v-6.56Zm9.38-1.87v-2.81h-5.62v5.63h5.63v-2.81Z"/><path class="cls-3" d="M261.25,465.94V465h5.63v1.88h1.88v1.88h1.88v9.38h-3.75v-3.75h-5.62v3.75H257.5v-9.37h1.88v-1.87h1.88v-0.94Zm3.75,1.88v-0.94h-1.87v1.88h-1.87v3.75h5.63v-3.75H265v-0.94Z"/><path class="cls-3" d="M272.5,471.56V465h11.25v1.88h1.88v5.63h-3.75v1.88h1.88v1.88h1.88v1.88H280v-1.87h-1.87v-1.87h-1.87v3.75H272.5v-6.56Zm9.38-2.81v-1.87h-5.62v5.63H280v-1.87h1.88v-1.87Z"/><path class="cls-3" d="M291.25,465.94V465h5.63v1.88h1.88v1.88h1.88v9.38h-3.75v-3.75h-5.62v3.75H287.5v-9.37h1.88v-1.87h1.88v-0.94Zm3.75,1.88v-0.94h-1.87v1.88h-1.87v3.75h5.63v-3.75H295v-0.94Z"/><path class="cls-3" d="M304.38,465.94V465h7.5v1.88h1.88v1.88H310v-1.87h-3.75v3.75h7.5v1.88h1.88v3.75h-1.87v1.88h-9.37v-1.87H302.5v-1.87h3.75v1.88h5.63V472.5h-7.5v-1.87H302.5v-3.75h1.88v-0.94Z"/></svg>