<?xml version="1.0" ?><svg id="pkft" viewBox="0 0 500 500" xmlns="http://www.w3.org/2000/svg"><defs><style>.cls-1{fill:#d60040;}.cls-2{fill:#f5ac3c;}.cls-3{fill:#ce723f;}.cls-4{fill:#ef834a;}.cls-5{fill:#fff;}.cls-6{fill:#ea6d36;}.cls-7{opacity:0.1;}.cls-8{fill:#1a1a1a;}</style></defs><title/><path class="cls-1" d="M179.75,164.25c-18.92,29.21-8.09,76.12-19.87,77.49-21.32,2.46-37.43,16.12-45.71,26.71A9.24,9.24,0,0,1,117,275c0,3.94-2.63,7.34-6.45,9,8,5.84,33.93,10.74,69.52,13.56C183.61,285,213,275.1,249,275V252.75c-7.87,0-14.25-2.69-14.25-6s6.38-6,14.25-6V195a6.75,6.75,0,0,1,0-13.5V120S199.79,133.31,179.75,164.25ZM215,161.5a2.5,2.5,0,1,1-2.5,2.5A2.5,2.5,0,0,1,215,161.5ZM155.75,262c-7.73,0-14-2.8-14-6.25s6.27-6.25,14-6.25,14,2.8,14,6.25S163.48,262,155.75,262Zm31.66-53.23a7.54,7.54,0,1,1,8.09-7.52A7.82,7.82,0,0,1,187.41,208.77ZM210.5,235a9.5,9.5,0,1,1,9.5-9.5A9.5,9.5,0,0,1,210.5,235Z"/><circle class="cls-2" cx="215" cy="164" r="2.5"/><ellipse class="cls-2" cx="155.75" cy="255.75" rx="14" ry="6.25"/><path class="cls-2" d="M117,275a9.24,9.24,0,0,0-2.83-6.55c-4,5.17-6.23,9.62-6.23,11.68,0,1.32.91,2.6,2.62,3.85C114.37,282.35,117,278.95,117,275Z"/><ellipse class="cls-2" cx="187.41" cy="201.25" rx="8.09" ry="7.52"/><circle class="cls-2" cx="210.5" cy="225.5" r="9.5"/><path class="cls-2" d="M234.75,246.75c0,3.31,6.38,6,14.25,6v-12C241.13,240.75,234.75,243.44,234.75,246.75Z"/><path class="cls-2" d="M242.25,188.25A6.75,6.75,0,0,0,249,195V181.5A6.75,6.75,0,0,0,242.25,188.25Z"/><path class="cls-3" d="M187.31,319.27c11.5,8.09,34.91,13.65,61.69,13.72v-8c-26.72-.07-50.08-5.6-61.6-13.66C187.43,313.92,187.41,316.59,187.31,319.27Z"/><path class="cls-4" d="M249,300V275c-28.9.07-53.52,6.42-63.93,15.42,0.16,0.49.3,1,.43,1.49,1.05,4.14,1.78,11.35,1.9,19.43,11.52,8.06,34.88,13.59,61.6,13.66V300C249.17,300,249,300,249,300Z"/><circle class="cls-5" cx="218" cy="289" r="20"/><path class="cls-3" d="M136.27,361.33S124.44,327.49,147.91,328a149,149,0,0,1-7.24-14C132.47,319.2,119.37,332.74,136.27,361.33Z"/><path class="cls-3" d="M182.87,345.8c-1.56,3.87-3.58,6.72-6.14,7.91a61.81,61.81,0,0,0,12.09,8Z"/><path class="cls-6" d="M187.4,311.33c-0.11-8.08-.84-15.29-1.9-19.43-0.13-.5-0.28-1-0.43-1.49a25,25,0,0,0-48,13.83,65.69,65.69,0,0,0,3.63,9.76,149,149,0,0,0,7.24,14c8.31,14.25,19.52,28.17,27.65,26.1a6.69,6.69,0,0,0,1.17-.43c2.56-1.2,4.58-4,6.14-7.91,2.74-6.81,4.07-16.78,4.43-26.53C187.41,316.59,187.43,313.92,187.4,311.33Z"/><path class="cls-1" d="M249,120v61.5a6.75,6.75,0,0,1,0,13.5v45.75c8,0,14.25,2.69,14.25,6s-6.25,6-14.25,6V275c36,0.09,65.4,10,68.93,22.53,35.59-2.82,61.51-7.72,69.52-13.56-3.81-1.63-6.44-5-6.44-9a9.24,9.24,0,0,1,2.83-6.55c-8.28-10.6-24.38-24.25-45.71-26.71-11.79-1.36-1-48.27-19.88-77.49C298.21,133.31,249,120,249,120Zm36.51,44a2.5,2.5,0,1,1-2.5-2.5A2.5,2.5,0,0,1,285.51,164Zm42.75,91.75c0-3.45,6.27-6.25,14-6.25s14,2.8,14,6.25S350,262,342.26,262,328.26,259.2,328.26,255.75Zm-25.75-54.5a8.11,8.11,0,1,1,8.09,7.52A7.82,7.82,0,0,1,302.51,201.25ZM278,225.5a9.5,9.5,0,1,1,9.5,9.5A9.5,9.5,0,0,1,278,225.5Z"/><circle class="cls-2" cx="283.01" cy="164" r="2.5"/><ellipse class="cls-2" cx="342.26" cy="255.75" rx="14" ry="6.25"/><path class="cls-2" d="M381,275a9.24,9.24,0,0,1,2.83-6.55c4,5.17,6.23,9.62,6.23,11.68,0,1.32-.91,2.6-2.62,3.85C383.64,282.35,381,278.95,381,275Z"/><ellipse class="cls-2" cx="310.6" cy="201.25" rx="8.09" ry="7.52"/><circle class="cls-2" cx="287.51" cy="225.5" r="9.5"/><path class="cls-2" d="M263.25,246.75c0,3.31-6.25,6-14.25,6v-12C257,240.75,263.25,243.44,263.25,246.75Z"/><path class="cls-2" d="M255.75,188.25A6.58,6.58,0,0,1,249,195V181.5A6.58,6.58,0,0,1,255.75,188.25Z"/><path class="cls-3" d="M310.7,319.27C299.2,327.36,276,332.93,249,333v-8c27-.07,50.08-5.6,61.6-13.66C310.57,313.92,310.6,316.59,310.7,319.27Z"/><path class="cls-4" d="M249,300V275c29,0.07,53.52,6.42,63.94,15.42-0.16.49-.3,1-0.43,1.49-1.05,4.14-1.79,11.35-1.9,19.43C299.08,319.39,276,324.93,249,325V300h0Z"/><circle class="cls-5" cx="280.01" cy="289" r="20"/><path class="cls-3" d="M361.74,361.33S373.57,327.49,350.1,328a149,149,0,0,0,7.24-14C365.54,319.2,378.65,332.74,361.74,361.33Z"/><path class="cls-3" d="M315.14,345.8c1.56,3.87,3.58,6.72,6.14,7.91a61.81,61.81,0,0,1-12.09,8Z"/><path class="cls-6" d="M310.61,311.33c0.11-8.08.84-15.29,1.9-19.43,0.13-.5.28-1,0.43-1.49a25,25,0,0,1,48,13.83,65.69,65.69,0,0,1-3.63,9.76,149,149,0,0,1-7.24,14c-8.31,14.25-19.52,28.17-27.65,26.1a6.69,6.69,0,0,1-1.17-.43c-2.56-1.2-4.58-4-6.14-7.91-2.74-6.81-4.07-16.78-4.43-26.53C310.61,316.59,310.58,313.92,310.61,311.33Z"/><g class="cls-7"><path class="cls-8" d="M381,275a9.24,9.24,0,0,1,2.83-6.55c-8.28-10.6-24.38-24.25-45.71-26.71-11.79-1.36-1-48.27-19.88-77.49C298.21,133.31,249,120,249,120V300h0v33c27-.07,50.2-5.8,61.7-13.89-0.1-2.69-.13-5.11-0.1-8.11h0c0.11-8,.85-15.12,1.9-19.26,0.13-.5.27-0.9,0.42-1.38v0c-0.15.48-.3,1-0.42,1.48-1.05,4.14-1.78,11.36-1.9,19.44,0,2.58,0,5.26.09,7.95,0.37,9.75,1.69,19.72,4.43,26.53l-5.94,15.92a61.79,61.79,0,0,0,12.09-8,6.7,6.7,0,0,0,1.17.43c8.13,2.07,19.34-11.85,27.65-26.1,23.47-.56,11.64,33.29,11.64,33.29,16.91-28.59,3.8-42.13-4.41-47.32a65.69,65.69,0,0,0,3.63-9.76,24.88,24.88,0,0,0,.09-12c13-2.39,22.18-5.21,26.41-8.29C383.64,282.35,381,278.95,381,275Zm-128.09.05-0.81,0Zm6.08,0.23h0Zm-3-.14-0.73,0Z"/><path class="cls-8" d="M383.84,268.45A9.24,9.24,0,0,0,381,275c0,3.94,2.63,7.34,6.45,9,1.71-1.24,2.62-2.53,2.62-3.85C390.07,278.07,387.89,273.62,383.84,268.45Z"/></g><path class="cls-6" d="M163.75,465.94V465h5.63v1.88h1.88v1.88h1.88v5.63h-1.87v1.88h-1.87v1.88h-5.62v-1.87h-1.87v-1.87H160v-5.62h1.88v-1.87h1.88v-0.94Zm3.75,1.88v-0.94h-3.75v7.5h1.88v1.88h3.75v-7.5H167.5v-0.94Z"/><path class="cls-6" d="M180.63,465.94V465h5.63v7.5h1.88v1.88h-1.87v3.75H182.5v-3.75H175v-3.75h1.88v-1.87h1.88v-1.87h1.88v-0.94Zm1.88,4.69v-1.87h-1.87v1.88h-1.87v1.88h3.75v-1.87Z"/><path class="cls-6" d="M190,466.88V465h13.13v3.75h-1.87v1.88h-1.87v1.88H197.5v5.63h-3.75V472.5h1.88v-1.87h1.88v-1.87h1.88v-1.87h-5.62v1.88H190v-1.87Z"/><path class="cls-6" d="M220,471.56V465h11.25v1.88h1.88v5.63h-1.87v1.88h-7.5v3.75H220v-6.56Zm9.38-1.87v-2.81h-5.62v5.63h5.63v-2.81Z"/><path class="cls-6" d="M238.75,465.94V465h5.63v1.88h1.88v1.88h1.88v9.38h-3.75v-3.75h-5.62v3.75H235v-9.37h1.88v-1.87h1.88v-0.94Zm3.75,1.88v-0.94h-1.87v1.88h-1.87v3.75h5.63v-3.75H242.5v-0.94Z"/><path class="cls-6" d="M250,471.56V465h11.25v1.88h1.88v5.63h-3.75v1.88h1.88v1.88h1.88v1.88H257.5v-1.87h-1.87v-1.87h-1.87v3.75H250v-6.56Zm9.38-2.81v-1.87h-5.62v5.63h3.75v-1.87h1.88v-1.87Z"/><path class="cls-6" d="M268.75,465.94V465h5.63v1.88h1.88v1.88h1.88v9.38h-3.75v-3.75h-5.62v3.75H265v-9.37h1.88v-1.87h1.88v-0.94Zm3.75,1.88v-0.94h-1.87v1.88h-1.87v3.75h5.63v-3.75H272.5v-0.94Z"/><path class="cls-6" d="M281.88,465.94V465h7.5v1.88h1.88v1.88H287.5v-1.87h-3.75v3.75h7.5v1.88h1.88v3.75h-1.87v1.88h-9.37v-1.87H280v-1.87h3.75v1.88h5.63V472.5h-7.5v-1.87H280v-3.75h1.88v-0.94Z"/><path class="cls-6" d="M295,471.56V465h13.13v1.88h-9.37v3.75h7.5v1.88h-7.5v3.75h9.38v1.88H295v-6.56Z"/><path class="cls-6" d="M313.75,465.94V465h7.5v1.88h1.88v1.88h-3.75v-1.87h-3.75v1.88h-1.87v5.63h1.88v1.88h3.75v-1.87h3.75v1.88h-1.87v1.88h-7.5v-1.87h-1.87v-1.87H310v-5.62h1.88v-1.87h1.88v-0.94Z"/><path class="cls-6" d="M326.88,465.94V465h11.25v1.88h-3.75v11.25h-3.75V466.88h-3.75v-0.94Z"/></svg>