<?xml version="1.0" ?><svg id="pkft" viewBox="0 0 500 500" xmlns="http://www.w3.org/2000/svg"><defs><style>.cls-1{fill:#e8b67d;}.cls-2{fill:#69308d;}.cls-3{fill:#e50044;}.cls-4{fill:#fff;}.cls-5{fill:#ccc;}.cls-6{fill:#1a1a1a;opacity:0.1;}</style></defs><title/><path class="cls-1" d="M208.39,325.88c0.48,6.62,1.42,12.12,1.42,12.12-2.83-1.36-5.33-8.91-7.15-16.35a57,57,0,0,0-9.75,4.13c-14.56,7.81-23.2,20.05-19.28,27.35s18.89,6.89,33.46-.92a55.19,55.19,0,0,0,11.17-7.83c-2.14-2.93-4-9-5.47-14.91Q210.55,327.76,208.39,325.88Z"/><path class="cls-1" d="M219.54,343.16a34.36,34.36,0,0,0,5-6.16q-3.06-1.57-6-3.47C218.8,337.37,219.23,340.85,219.54,343.16Z"/><path class="cls-2" d="M220,346s-0.18-1.07-.43-2.84q-0.62.62-1.29,1.23A5,5,0,0,0,220,346Z"/><path class="cls-2" d="M250,245.17V167.5l-2.19,0h0S229.67,140,220,140c0,0,13.18,18.45,14.1,28.84-1.39.24-2.78,0.5-4.15,0.79-5.86-.11-26.37-0.14-29.53,4.71a112.6,112.6,0,0,1,12,1q-3.47,1.53-6.75,3.34c-8.19,1.66-19.21,4.56-21,8.4,0,0,4.3-.69,9.74-1a79.21,79.21,0,0,0-6.58,5.76c-7.58,2.68-16.45,6.52-17.65,10.19,0,0,4.82-1.4,10.74-2.45a70.91,70.91,0,0,0-5.44,8.14c-6.52,3.74-13.24,8.35-13.83,11.79,0,0,4.46-2.13,10.06-4.13a64.78,64.78,0,0,0-3.64,11.81c-4.39,4-8,8.07-8.08,10.8,0,0,3-2.12,7.12-4.58a64.05,64.05,0,0,0-.35,6.66,76.23,76.23,0,0,0,.74,10.27c-3.38,8.16-7.25,19.12-5.38,22.77a133.58,133.58,0,0,1,7.19-13.2q0.9,3.76,2.1,7.6c-2.13,8.8-4.8,22.27-2.13,25.81a134.54,134.54,0,0,1,5.62-16q1.28,3.19,2.75,6.37c-0.45,4.36-.34,8,0.87,9.66,0,0,.53-2,1.46-4.84q1.67,3.3,3.53,6.53c-0.77,5.48-.91,10.37.55,12.31,0,0,.87-3.21,2.34-7.5q2.12,3.38,4.44,6.62c-0.72,5.31-.81,10,0.61,11.89,0,0,.91-3.35,2.44-7.79a117.14,117.14,0,0,0,8.3,9.58q0.19,0.8.38,1.6c1.82,7.44,4.32,15,7.15,16.35,0,0-.94-5.5-1.42-12.12q2.15,1.88,4.39,3.6c1.45,5.94,3.33,12,5.47,14.91q0.67-.61,1.29-1.23c-0.32-2.31-.75-5.79-1-9.63q3,1.89,6,3.47c0.59,0.3,1.18.6,1.77,0.88,1.76,6.66,4,12.89,6.58,14.12,0,0-.92-5.39-1.4-11.92q2.23,0.83,4.51,1.46c1.69,6,3.8,11.34,6.13,12.46,0,0-.86-5.08-1.36-11.36a50.86,50.86,0,0,0,9.21.86v-75a20.45,20.45,0,0,1-11.34-3.22,10.81,10.81,0,0,1-5.06-7.37,8.39,8.39,0,0,1-.08-1.08C233.52,250.39,240.9,245.17,250,245.17Z"/><path class="cls-3" d="M240,208.57a23.28,23.28,0,0,1-2.36,8.63c-3.24,6.08-10.23,8.69-15.6,5.82s-7.1-10.12-3.86-16.2a24.39,24.39,0,0,1,9-8.92c-10.78.22-24.67,11.59-30.12,21.82-6.56,12.3-3.06,27,7.81,32.76s25,0.53,31.55-11.77C241,232.14,242.94,218.2,240,208.57Z"/><path class="cls-4" d="M218.2,206.82c-3.24,6.08-1.51,13.33,3.86,16.2s12.36,0.26,15.6-5.82a23.28,23.28,0,0,0,2.36-8.63c-1.27-4.19-3.46-7.57-6.75-9.33a12.23,12.23,0,0,0-6.08-1.34A24.39,24.39,0,0,0,218.2,206.82Z"/><path class="cls-4" d="M232.25,257.92c-4,2.77-12.79,10.79-3.25,23.25,0,0,2.41-12.79,8.73-15.88C234.68,263.39,232.66,260.81,232.25,257.92Z"/><path class="cls-1" d="M225.83,299.49a4.17,4.17,0,0,0-1-5,4.16,4.16,0,1,0,1.73-8.14,12.14,12.14,0,0,0-10.89,21.59,4.16,4.16,0,1,0,5.52-6.23A4.17,4.17,0,0,0,225.83,299.49Z"/><path class="cls-1" d="M232.17,256.83a7.76,7.76,0,0,0,.08,1.08c0.41,2.89,2.43,5.48,5.48,7.37A23.49,23.49,0,0,0,250,268.5V245.17C240.15,245.17,232.17,250.39,232.17,256.83Z"/><path class="cls-5" d="M230,182a2,2,0,0,1-1.68-.91C228.07,180.69,202.8,142,180,142a2,2,0,0,1,0-4c25,0,50.6,39.24,51.68,40.92A2,2,0,0,1,230,182Z"/><ellipse class="cls-5" cx="172.83" cy="140" rx="9.33" ry="5"/><path class="cls-1" d="M291.69,325.88c-0.48,6.62-1.42,12.12-1.42,12.12,2.83-1.36,5.33-8.91,7.15-16.35a57,57,0,0,1,9.75,4.13c14.56,7.81,23.2,20.05,19.28,27.35S307.56,360,293,352.22a55.19,55.19,0,0,1-11.17-7.83c2.14-2.93,4-9,5.47-14.91Q289.54,327.76,291.69,325.88Z"/><path class="cls-1" d="M280.54,343.16a34.36,34.36,0,0,1-5-6.16q3.06-1.57,6-3.47C281.29,337.37,280.86,340.85,280.54,343.16Z"/><path class="cls-2" d="M280.12,346s0.18-1.07.43-2.84q0.62,0.62,1.29,1.23A5,5,0,0,1,280.12,346Z"/><path class="cls-2" d="M250,245.17V167.5c1,0,1.5,0,2.23,0h0S270.41,140,280.08,140c0,0-13.18,18.45-14.09,28.84,1.39,0.24,2.78.5,4.15,0.79,5.86-.11,26.37-0.14,29.53,4.71a112.6,112.6,0,0,0-12,1q3.47,1.53,6.75,3.34c8.19,1.66,19.21,4.56,21,8.4,0,0-4.3-.69-9.74-1a79.21,79.21,0,0,1,6.58,5.76c7.58,2.68,16.45,6.52,17.65,10.19,0,0-4.82-1.4-10.74-2.45a70.91,70.91,0,0,1,5.44,8.14c6.52,3.74,13.24,8.35,13.83,11.79,0,0-4.46-2.13-10.06-4.13a64.78,64.78,0,0,1,3.64,11.81c4.39,4,8,8.07,8.08,10.8,0,0-3-2.12-7.12-4.58a64.05,64.05,0,0,1,.35,6.66,76.23,76.23,0,0,1-.74,10.27c3.38,8.16,7.25,19.12,5.38,22.77a133.58,133.58,0,0,0-7.19-13.2q-0.9,3.76-2.1,7.6c2.13,8.8,4.8,22.27,2.13,25.81a134.54,134.54,0,0,0-5.62-16q-1.28,3.19-2.75,6.37c0.45,4.36.34,8-.87,9.66,0,0-.53-2-1.46-4.84q-1.67,3.3-3.53,6.53c0.77,5.48.91,10.37-.55,12.31,0,0-.87-3.21-2.34-7.5q-2.12,3.38-4.44,6.62c0.72,5.31.81,10-.61,11.89,0,0-.91-3.35-2.44-7.79a117.14,117.14,0,0,1-8.3,9.58q-0.19.8-.38,1.6c-1.82,7.44-4.32,15-7.15,16.35,0,0,.94-5.5,1.42-12.12q-2.15,1.88-4.39,3.6c-1.45,5.94-3.33,12-5.47,14.91q-0.67-.61-1.29-1.23c0.32-2.31.75-5.79,1-9.63q-3,1.89-6,3.47c-0.59.3-1.18,0.6-1.77,0.88-1.76,6.66-4,12.89-6.58,14.12,0,0,.92-5.39,1.4-11.92q-2.23.83-4.51,1.46c-1.69,6-3.8,11.34-6.13,12.46,0,0,.82-5.08,1.32-11.36a52.33,52.33,0,0,1-9.26.86v-75a21.61,21.61,0,0,0,11.38-3.22,10.84,10.84,0,0,0,5.08-7.37,8.39,8.39,0,0,0,0-1.08C266.51,250.39,259,245.17,250,245.17Z"/><path class="cls-3" d="M260.06,208.57a23.28,23.28,0,0,0,2.36,8.63c3.24,6.08,10.23,8.69,15.6,5.82s7.1-10.12,3.86-16.2a24.39,24.39,0,0,0-9-8.92c10.78,0.22,24.67,11.59,30.12,21.82,6.56,12.3,3.06,27-7.81,32.76s-25,.53-31.55-11.77C259.08,232.14,257.15,218.2,260.06,208.57Z"/><path class="cls-4" d="M281.89,206.82c3.24,6.08,1.51,13.33-3.86,16.2s-12.36.26-15.6-5.82a23.28,23.28,0,0,1-2.36-8.63c1.27-4.19,3.46-7.57,6.75-9.33a12.23,12.23,0,0,1,6.08-1.34A24.39,24.39,0,0,1,281.89,206.82Z"/><path class="cls-4" d="M267.84,257.92c4,2.77,12.79,10.79,3.25,23.25,0,0-2.41-12.79-8.73-15.88C265.4,263.39,267.43,260.81,267.84,257.92Z"/><path class="cls-1" d="M274.25,299.49a4.17,4.17,0,0,1,1-5,4.16,4.16,0,1,1-1.73-8.14,12.14,12.14,0,0,1,10.89,21.59,4.16,4.16,0,1,1-5.52-6.23A4.17,4.17,0,0,1,274.25,299.49Z"/><path class="cls-1" d="M267.88,256.83a7.75,7.75,0,0,1-.06,1.08c-0.41,2.89-2.47,5.48-5.51,7.37A23,23,0,0,1,250,268.5V245.17C260,245.17,267.88,250.39,267.88,256.83Z"/><path class="cls-5" d="M270.09,182a2,2,0,0,0,1.68-.91C272,180.69,297.29,142,320.09,142a2,2,0,0,0,0-4c-25,0-50.6,39.24-51.68,40.92A2,2,0,0,0,270.09,182Z"/><ellipse class="cls-5" cx="327.25" cy="140" rx="9.33" ry="5"/><path class="cls-6" d="M333.23,240a64.05,64.05,0,0,0-.35-6.66c4.13,2.46,7.12,4.58,7.12,4.58-0.05-2.73-3.69-6.83-8.08-10.8a64.78,64.78,0,0,0-3.64-11.81c5.6,2,10.06,4.13,10.06,4.13-0.59-3.44-7.31-8.05-13.83-11.79a70.91,70.91,0,0,0-5.44-8.14c5.92,1,10.74,2.45,10.74,2.45-1.19-3.67-10.07-7.51-17.65-10.19a79.21,79.21,0,0,0-6.58-5.76c5.44,0.33,9.74,1,9.74,1-1.74-3.85-12.76-6.75-21-8.4q-3.27-1.8-6.75-3.34a112.6,112.6,0,0,1,12-1c-2.07-3.17-11.53-4.25-19.49-4.59,9.09-11.2,24.22-26.75,38.58-27.67,1.47,1.73,4.71,2.93,8.49,2.93,5.15,0,9.33-2.24,9.33-5s-4.18-5-9.33-5c-3.86,0-7.17,1.26-8.59,3-17.14,1-34.37,19.8-43.54,31.56-2.07,0-3.82,0-5,0-1.37-.3-2.76-0.56-4.15-0.79C266.9,158.45,280.08,140,280.08,140c-9.67,0-27.83,27.53-27.83,27.53h0c-0.73,0-1.23,0-2.23,0v176a52.33,52.33,0,0,0,9.26-.86c-0.49,6.27-1.32,11.36-1.32,11.36,2.33-1.12,4.44-6.46,6.13-12.46q2.28-.64,4.51-1.46c-0.49,6.53-1.4,11.92-1.4,11.92,2.55-1.23,4.82-7.46,6.58-14.12,0.59-.28,1.19-0.58,1.77-0.88a34.36,34.36,0,0,0,5,6.16c-0.24,1.77-.43,2.84-0.43,2.84a5,5,0,0,0,1.72-1.61A55.19,55.19,0,0,0,293,352.22c14.56,7.81,29.54,8.22,33.46.92s-4.72-19.55-19.28-27.35a57,57,0,0,0-9.75-4.13q0.2-.8.38-1.6a117.14,117.14,0,0,0,8.3-9.58c1.53,4.44,2.44,7.79,2.44,7.79,1.42-1.88,1.33-6.58.61-11.89q2.31-3.24,4.44-6.62c1.47,4.29,2.34,7.5,2.34,7.5,1.46-1.93,1.32-6.83.55-12.31q1.86-3.23,3.53-6.53c0.93,2.89,1.46,4.84,1.46,4.84,1.22-1.61,1.32-5.3.87-9.66q1.46-3.18,2.75-6.37a134.54,134.54,0,0,1,5.62,16c2.67-3.54,0-17-2.13-25.81q1.19-3.83,2.1-7.6a133.58,133.58,0,0,1,7.19,13.2c1.87-3.65-2-14.61-5.38-22.77A76.23,76.23,0,0,0,333.23,240Z"/><path class="cls-2" d="M171.25,465.94V465h5.63v1.88h1.88v1.88h1.88v5.63h-1.87v1.88h-1.87v1.88h-5.62v-1.87h-1.87v-1.87H167.5v-5.62h1.88v-1.87h1.88v-0.94Zm3.75,1.88v-0.94h-3.75v7.5h1.88v1.88h3.75v-7.5H175v-0.94Z"/><path class="cls-2" d="M188.13,465.94V465h5.63v7.5h1.88v1.88h-1.87v3.75H190v-3.75h-7.5v-3.75h1.88v-1.87h1.88v-1.87h1.88v-0.94Zm1.88,4.69v-1.87h-1.87v1.88h-1.87v1.88H190v-1.87Z"/><path class="cls-2" d="M199.38,465.94V465h7.5v1.88h1.88v3.75h-1.87v1.88h3.75v3.75h-1.87v1.88h-9.37v-1.87H197.5V472.5h1.88v-1.87H197.5v-3.75h1.88v-0.94Zm3.75,7.5V472.5h-3.75v3.75h7.5v-1.87h-3.75v-0.94Zm3.75-4.69v-1.87h-5.62v1.88h1.88v1.88h3.75v-1.87Z"/><path class="cls-2" d="M227.5,468.75V465h3.75v5.63h1.88v1.88H235v-1.87h1.88V465h3.75v7.5h-1.87v1.88h-1.87v1.88H235v1.88h-1.87v-1.87h-1.87v-1.87h-1.87V472.5H227.5v-3.75Z"/><path class="cls-2" d="M242.5,471.56V465h13.13v1.88h-9.37v3.75h7.5v1.88h-7.5v3.75h9.38v1.88H242.5v-6.56Z"/><path class="cls-2" d="M257.5,471.56V465h3.75v1.88h1.88v1.88H265v1.88h1.88V465h3.75v13.13h-3.75v-1.87H265v-1.87h-1.87V472.5h-1.87v5.63H257.5v-6.56Z"/><path class="cls-2" d="M274.38,465.94V465h9.38v1.88h1.88v9.38h-1.87v1.88h-9.37v-1.87H272.5v-9.37h1.88v-0.94Zm7.5,5.63v-4.69h-5.62v9.38h5.63v-4.69Z"/><path class="cls-2" d="M287.5,471.56V465h3.75v1.88h1.88v1.88H295v1.88h1.88V465h3.75v13.13h-3.75v-1.87H295v-1.87h-1.87V472.5h-1.87v5.63H287.5v-6.56Z"/><path class="cls-2" d="M306.25,465.94V465h5.63v1.88h1.88v1.88h1.88v9.38h-3.75v-3.75h-5.62v3.75H302.5v-9.37h1.88v-1.87h1.88v-0.94Zm3.75,1.88v-0.94h-1.87v1.88h-1.87v3.75h5.63v-3.75H310v-0.94Z"/><path class="cls-2" d="M319.38,465.94V465h11.25v1.88h-3.75v11.25h-3.75V466.88h-3.75v-0.94Z"/></svg>