<?xml version="1.0" ?><svg id="pkft" viewBox="0 0 500 500" xmlns="http://www.w3.org/2000/svg"><defs><style>.cls-1{fill:#d6d8ba;}.cls-2{fill:#efd0e7;}.cls-3{fill:#333;}.cls-4{fill:#fff;}.cls-5{fill:#a4a586;}.cls-6{fill:#b193b2;}.cls-7{fill:#d4e9f4;}.cls-8{fill:#bca1bc;}.cls-9{opacity:0.1;}.cls-10{fill:#1a1a1a;}.cls-11{fill:#a271a5;}</style></defs><title/><path class="cls-1" d="M250,428V401.5c-8-1.54-17.32-3.81-25.37-6.1C230.82,415.37,240,428,250,428Z"/><path class="cls-2" d="M216.32,335.65c0-1,0-2,0-3,0-.17,0-0.33,0-0.5,0-.8,0-1.59,0-2.39q0-3.91.18-7.73c-17.06,13.83-32.22,21.7-42.44,26l1,1.41,1.33,1.84-2,1.14c-4,2.31-3.64,5.52-3.31,6.8a6.13,6.13,0,0,0,5.74,4.6c3.37,0.08,5.31-2,6.92-3.74,1.21-1.27,2.35-2.47,4-2.36a3.07,3.07,0,0,1,2.19,1.19l0.17,0A76.14,76.14,0,0,1,216.32,335.65Z"/><path class="cls-2" d="M218.41,298.59c-0.15-.24-0.29-0.5-0.43-0.74-0.4-.67-0.8-1.33-1.17-2s-0.7-1.34-1-2c-0.12-.24-0.24-0.46-0.36-0.7s-0.16-.38-0.25-0.56c-13.75-1.6-30.58-.27-43.47,2.43-3.27.69-6.29,1.46-8.94,2.29a46.11,46.11,0,0,0-5.76,2.21c-0.63.3-1.23,0.6-1.76,0.91a4,4,0,0,0-1.89,2.83c-0.65,3,.41,7.53,2.38,12.57,23.83-3.11,51-7.71,62.11-12.2C218,301.9,218.19,300.22,218.41,298.59Z"/><path class="cls-2" d="M217.38,308c-14,5-41.49,9.22-60,11.65a187.28,187.28,0,0,0,14.23,24.8c10.49-4.35,26.89-12.78,45.15-28.07Q217,312.16,217.38,308Z"/><path class="cls-2" d="M194.82,359.38c5.39,0.05,14.16-.51,22.72-1.36-0.56-5.72-.94-11.65-1.13-17.74A71.64,71.64,0,0,0,194.82,359.38Z"/><path class="cls-3" d="M216.76,316.42c-18.25,15.29-34.66,23.72-45.15,28.07,0.87,1.3,1.68,2.48,2.42,3.52,10.22-4.28,25.38-12.14,42.44-26C216.54,320.14,216.65,318.28,216.76,316.42Z"/><path class="cls-3" d="M190.08,358.95a18.93,18.93,0,0,0,4.74.43,71.64,71.64,0,0,1,21.59-19.1c0-1.53-.07-3.08-0.09-4.63A76.14,76.14,0,0,0,190.08,358.95Z"/><path class="cls-3" d="M217.83,303.57c-11.09,4.49-38.28,9.09-62.11,12.2q0.75,1.92,1.66,3.92c18.51-2.43,46-6.64,60-11.65C217.52,306.53,217.67,305,217.83,303.57Z"/><path class="cls-3" d="M217.76,360.34c0-.09,0-0.19,0-0.29-0.07-.67-0.13-1.36-0.19-2-12.41,1.23-25.26,1.86-27.63.88a3.07,3.07,0,0,0-2.19-1.19c-1.61-.11-2.76,1.09-4,2.36-1.61,1.7-3.55,3.82-6.92,3.74a6.13,6.13,0,0,1-5.74-4.6c-0.33-1.27-.67-4.48,3.31-6.8l2-1.14L175,349.43c-6.78-9.38-23.89-36-21.69-46.22a4,4,0,0,1,1.89-2.83c0.53-.31,1.13-0.61,1.76-0.91a46.11,46.11,0,0,1,5.76-2.21c2.65-.84,5.67-1.61,8.94-2.29,12.89-2.7,29.72-4,43.47-2.43-0.33-.71-0.63-1.43-0.94-2.16s-0.58-1.41-.86-2.13c-19.63-1.8-44.63,1.5-57.19,7.06-4.5-.65-9.63-4.93-14.87-12.43-26.56-38-50-145.73-39.89-183,1.29-4.72,3.75-7.49,7.53-8.46,23.4-6,85,52.19,106.61,73.55q-0.82-2.27-1.56-4.42t-1.44-4.3c-25.76-25-80.94-74.87-104.63-68.81-5.27,1.35-8.79,5.17-10.48,11.36-10.36,38,13.48,147.73,40.48,186.39,4.58,6.55,9.13,10.87,13.58,12.91a8.38,8.38,0,0,0-2.19,4.2c-2.69,12.61,15.78,40.11,21.17,47.79a9.78,9.78,0,0,0-3.38,10.09,10.24,10.24,0,0,0,9.64,7.68H177c5,0,7.95-3.13,9.74-5l0.69-.71c1.64,1.05,7.26,2.34,30.54-.07C217.9,361.52,217.82,360.94,217.76,360.34Z"/><path class="cls-4" d="M233.44,253.76c-0.67-.22-1.46-0.54-2.36-0.93-6.76-3-18.92-10.06-19-10.1a69.73,69.73,0,0,0-3,16.13c6.51-.36,15.22-2.19,20.68-3.48,1.42-.33,2.6-0.63,3.49-0.85l1.68-.43A5.51,5.51,0,0,1,233.44,253.76Z"/><path class="cls-4" d="M231.63,264.07l0.06-.35a30.25,30.25,0,0,1-5.13-.41c-5.14-.74-12.16-2.29-17.47-3.55-0.07,1.3-.12,2.61-0.12,3.93a73.25,73.25,0,0,0,.47,8.3,49.5,49.5,0,0,0,15.68-4.51A66.14,66.14,0,0,0,231.63,264.07Z"/><path class="cls-4" d="M232.25,263.69c-0.16,0-.37,0-0.55,0l-0.06.35Z"/><path class="cls-4" d="M229.17,279.1l-0.2.12-0.87,4.95A12.08,12.08,0,0,0,229.17,279.1Z"/><path class="cls-4" d="M221.63,280.4A36.26,36.26,0,0,1,210,275.9a66.89,66.89,0,0,0,3.35,12.35c0.27,0.72.56,1.42,0.86,2.13s0.61,1.45.94,2.16c0.09,0.18.16,0.38,0.25,0.56,0.51-.1,1-0.23,1.44-0.36a24.76,24.76,0,0,0,2.55-.8c0.51-.2,1-0.41,1.43-0.63a17.22,17.22,0,0,0,2.64-1.55,13.55,13.55,0,0,0,4.63-5.6l0.87-4.95A10.28,10.28,0,0,1,221.63,280.4Z"/><path class="cls-1" d="M224.58,335.12c-2.91-.83-5.7-1.67-8.32-2.47,0,8.79.47,17.28,1.27,25.36,0.07,0.68.12,1.37,0.19,2l0,0.29,4.39,1.32c8.66,2.55,18.86,5.2,27.86,6.94V341.25C242,339.71,232.65,337.43,224.58,335.12Z"/><path class="cls-1" d="M226.68,308.75a48.86,48.86,0,0,1-8.29-10.15,256.83,256.83,0,0,0-2.11,31.17c2.67,0.82,5.52,1.69,8.52,2.55,8,2.3,17.2,4.6,25.2,6.17v-20C241,318.46,233.31,314.87,226.68,308.75Z"/><path class="cls-1" d="M223.72,392.25A267.81,267.81,0,0,0,250,398.73V371.38a289.16,289.16,0,0,1-31.92-8A190.76,190.76,0,0,0,223.72,392.25Z"/><path class="cls-5" d="M224.81,332.31c-3-.86-5.86-1.72-8.53-2.55,0,0.8,0,1.59,0,2.39,0,0.17,0,.33,0,0.5,2.61,0.81,5.4,1.64,8.31,2.47,8.07,2.31,17.42,4.58,25.42,6.13v-2.77C242,336.91,232.81,334.61,224.81,332.31Z"/><path class="cls-5" d="M222.14,361.66l-4.4-1.32c0.06,0.6.14,1.19,0.21,1.78,0,0.41.07,0.82,0.12,1.22a289,289,0,0,0,31.92,8V368.6C241,366.86,230.81,364.21,222.14,361.66Z"/><path class="cls-5" d="M224.66,395.4c8.05,2.3,17.34,4.57,25.34,6.1v-2.77a268.05,268.05,0,0,1-26.29-6.48C224,393.32,224.34,394.36,224.66,395.4Z"/><path class="cls-6" d="M236.33,181.54c0-9.13-27.2-41.08-27.2-41.08-0.51,2.21.93,8.13,3.43,15.83q0.67,2.07,1.44,4.3t1.56,4.42c2,5.67,4.4,11.8,6.83,17.88a14.54,14.54,0,0,1,5.56-1.1c0.42,0,.83,0,1.24.06a14.58,14.58,0,0,1,4.6,27.89q0.69,1.52,1.33,2.9c1.71,3.68,3.13,6.55,4.09,8.24a4.8,4.8,0,0,0,1.24,1.72l0.53,0.08c0.56,0.07,1.26.1,2,.11,3,0.05,7-.19,7-0.19V72C244,72,236.33,181.54,236.33,181.54Z"/><path class="cls-7" d="M229.2,181.86c-0.41,0-.82-0.06-1.24-0.06A14.71,14.71,0,1,0,229.2,181.86Zm2.38,22.92a9.13,9.13,0,0,1-12.38-11,4.71,4.71,0,0,1,6.15-6.15A9.14,9.14,0,0,1,231.58,204.78Z"/><path d="M231.87,188.14a9.06,9.06,0,0,0-6.53-.51,4.68,4.68,0,1,1-6.15,6.15A9.14,9.14,0,1,0,231.87,188.14Z"/><path class="cls-4" d="M225.35,187.63a4.65,4.65,0,0,0-1.17-.31l0.26,0.63A8.82,8.82,0,0,1,225.35,187.63Z"/><path class="cls-4" d="M225.35,187.63a8.82,8.82,0,0,0-.91.32l-0.26-.63a4.64,4.64,0,0,0-.68-0.07A4.69,4.69,0,1,0,225.35,187.63Z"/><path class="cls-2" d="M220.72,225.38a42.49,42.49,0,0,1,14.41-12.73q-0.64-1.38-1.33-2.9a14.58,14.58,0,0,1-19.27-19.05c-19.6-13.4-42.94-28.72-65.41-41.88-2.55,3.64-11.28,10-46.29,16.93a455.84,455.84,0,0,0,9.52,45C145.16,203.3,189.31,214.55,220.72,225.38Z"/><path class="cls-2" d="M145.5,146.72c-16.78-9.69-32.93-18-46.5-23.33a273.81,273.81,0,0,0,3.2,38.28C123.19,157.5,141.2,152.28,145.5,146.72Z"/><path class="cls-2" d="M209.15,258.74a69.7,69.7,0,0,1,2.94-16A60.56,60.56,0,0,1,218.25,229c-30.88-10.48-73.62-21.22-104.84-14.25a344.86,344.86,0,0,0,14.75,43.32C145.68,255.55,171.41,254.89,209.15,258.74Z"/><path class="cls-2" d="M129.88,262a131,131,0,0,0,11.42,20.86c5.24,7.5,10.37,11.78,14.87,12.43,12.56-5.55,37.56-8.86,57.19-7.06A66.89,66.89,0,0,1,210,275.9c-0.22-1.29-.42-2.59-0.57-3.91a73.25,73.25,0,0,1-.47-8.3c0-.29,0-0.56,0-0.85C172,259,146.85,259.65,129.88,262Z"/><path class="cls-2" d="M222.39,182.9c-2.44-6.08-4.79-12.22-6.83-17.88-21.62-21.36-83.21-79.54-106.61-73.55-3.78,1-6.25,3.73-7.53,8.46A83.6,83.6,0,0,0,99,119.25c33.62,12.67,81.88,43.42,117.65,67.88A14.63,14.63,0,0,1,222.39,182.9Z"/><path class="cls-3" d="M99,119.25c0,1.35,0,2.74,0,4.15,13.57,5.29,29.72,13.64,46.5,23.33-4.31,5.55-22.31,10.78-43.3,15q0.3,2,.62,4.07c35-6.88,43.74-13.29,46.29-16.93,22.48,13.16,45.82,28.48,65.41,41.88a14.58,14.58,0,0,1,2.17-3.57C180.92,162.66,132.67,131.92,99,119.25Z"/><path class="cls-3" d="M218.25,229q1.17-1.91,2.47-3.66c-31.41-10.83-75.56-22.08-108.38-14.58q0.53,2,1.08,4C144.63,207.82,187.37,218.56,218.25,229Z"/><path class="cls-3" d="M209.14,258.86s0-.08,0-0.12c-37.74-3.85-63.47-3.19-81-.62q0.85,2,1.71,3.9c17-2.37,42.07-3,79.11.83,0-1,0-2.06.09-3.08C209.1,259.46,209.12,259.16,209.14,258.86Z"/><path class="cls-8" d="M243,222.81c-0.79,0-1.49,0-2.05-.11l-0.52-.08a4.81,4.81,0,0,1-1.24-1.72c-1-1.69-2.38-4.56-4.09-8.24-10.41,5.42-18.76,16.34-23,30.08,0.08,0,12.24,7.14,19,10.1,0.89,0.39,1.69.71,2.36,0.93a5.51,5.51,0,0,0,1.54.34l-1.68.43c-0.89.22-2.07,0.52-3.49,0.85-5.46,1.28-14.17,3.12-20.68,3.48,0,0.3,0,.6-0.05.9,5.32,1.26,12.33,2.81,17.47,3.55a30.25,30.25,0,0,0,5.13.41c0.19,0,.4,0,0.55,0l-0.62.38a66.14,66.14,0,0,1-6.51,3.41A49.5,49.5,0,0,1,209.44,272c0.15,1.32.35,2.62,0.57,3.91a36.26,36.26,0,0,0,11.62,4.5,10.28,10.28,0,0,0,7.34-1.18l0.2-.12a12.08,12.08,0,0,1-1.07,5.07,13.55,13.55,0,0,1-4.63,5.6,17.22,17.22,0,0,1-2.64,1.55c-0.46.22-.92,0.43-1.43,0.63a24.76,24.76,0,0,1-2.55.8c-0.47.12-.93,0.25-1.44,0.36,0.11,0.24.24,0.46,0.36,0.7,0.34,0.68.68,1.37,1,2s0.77,1.36,1.17,2c0.15,0.24.28,0.5,0.43,0.74a48.81,48.81,0,0,0,8.28,10.15c6.63,6.12,14.32,9.72,23.32,9.72V222.62S246,222.86,243,222.81Z"/><path class="cls-4" d="M239.55,216.23s3.7,2.28,3,5-4.13,5.93-3,9.58C239.55,230.83,237,219.42,239.55,216.23Z"/><path class="cls-1" d="M250,428V401.5c8-1.54,17.32-3.81,25.37-6.1C269.18,415.37,260,428,250,428Z"/><path class="cls-2" d="M283.43,335.65c0-1,0-2,0-3,0-.17,0-0.33,0-0.5,0-.8,0-1.59,0-2.39q0-3.91-.18-7.73c17.06,13.83,32.22,21.7,42.44,26l-1,1.41-1.33,1.84,2,1.14c4,2.31,3.64,5.52,3.31,6.8a6.13,6.13,0,0,1-5.74,4.6c-3.37.08-5.31-2-6.92-3.74-1.21-1.27-2.35-2.47-4-2.36a3.07,3.07,0,0,0-2.19,1.19l-0.17,0A76.14,76.14,0,0,0,283.43,335.65Z"/><path class="cls-2" d="M281.34,298.59c0.15-.24.29-0.5,0.43-0.74,0.4-.67.8-1.33,1.17-2s0.7-1.34,1-2c0.12-.24.24-0.46,0.36-0.7s0.16-.38.25-0.56c13.75-1.6,30.58-.27,43.47,2.43,3.27,0.69,6.29,1.46,8.94,2.29a46.11,46.11,0,0,1,5.76,2.21c0.63,0.3,1.23.6,1.76,0.91a4,4,0,0,1,1.89,2.83c0.65,3-.41,7.53-2.38,12.57-23.83-3.11-51-7.71-62.11-12.2C281.73,301.9,281.55,300.22,281.34,298.59Z"/><path class="cls-2" d="M282.37,308c14,5,41.49,9.22,60,11.65a187.28,187.28,0,0,1-14.23,24.8c-10.49-4.35-26.89-12.78-45.15-28.07Q282.74,312.16,282.37,308Z"/><path class="cls-2" d="M304.93,359.38c-5.39.05-14.16-.51-22.72-1.36,0.56-5.72.94-11.65,1.13-17.74A71.64,71.64,0,0,1,304.93,359.38Z"/><path class="cls-3" d="M283,316.42c18.25,15.29,34.66,23.72,45.15,28.07-0.87,1.3-1.68,2.48-2.42,3.52-10.22-4.28-25.38-12.14-42.44-26C283.2,320.14,283.09,318.28,283,316.42Z"/><path class="cls-3" d="M309.67,358.95a18.93,18.93,0,0,1-4.74.43,71.64,71.64,0,0,0-21.59-19.1c0-1.53.07-3.08,0.09-4.63A76.14,76.14,0,0,1,309.67,358.95Z"/><path class="cls-3" d="M281.91,303.57c11.09,4.49,38.28,9.09,62.11,12.2q-0.75,1.92-1.66,3.92c-18.51-2.43-46-6.64-60-11.65C282.23,306.53,282.08,305,281.91,303.57Z"/><path class="cls-3" d="M282,360.34c0-.09,0-0.19,0-0.29,0.07-.67.13-1.36,0.19-2,12.41,1.23,25.26,1.86,27.63.88a3.07,3.07,0,0,1,2.19-1.19c1.61-.11,2.76,1.09,4,2.36,1.61,1.7,3.55,3.82,6.92,3.74a6.13,6.13,0,0,0,5.74-4.6c0.33-1.27.67-4.48-3.31-6.8l-2-1.14,1.33-1.84c6.78-9.38,23.89-36,21.69-46.22a4,4,0,0,0-1.89-2.83c-0.53-.31-1.13-0.61-1.76-0.91a46.11,46.11,0,0,0-5.76-2.21c-2.65-.84-5.67-1.61-8.94-2.29-12.89-2.7-29.72-4-43.47-2.43,0.33-.71.63-1.43,0.94-2.16s0.58-1.41.86-2.13c19.63-1.8,44.63,1.5,57.19,7.06,4.5-.65,9.63-4.93,14.87-12.43,26.56-38,50-145.73,39.89-183-1.29-4.72-3.75-7.49-7.53-8.46-23.4-6-85,52.19-106.61,73.55q0.82-2.27,1.56-4.42t1.44-4.3c25.76-25,80.94-74.87,104.63-68.81,5.27,1.35,8.79,5.17,10.48,11.36,10.36,38-13.48,147.73-40.48,186.39-4.58,6.55-9.13,10.87-13.58,12.91a8.38,8.38,0,0,1,2.19,4.2c2.69,12.61-15.78,40.11-21.17,47.79a9.78,9.78,0,0,1,3.38,10.09,10.24,10.24,0,0,1-9.64,7.68h-0.25c-5,0-7.95-3.13-9.74-5l-0.69-.71c-1.64,1.05-7.26,2.34-30.54-.07C281.85,361.52,281.92,360.94,282,360.34Z"/><path class="cls-4" d="M266.3,253.76c0.67-.22,1.46-0.54,2.36-0.93,6.76-3,18.92-10.06,19-10.1a69.73,69.73,0,0,1,3,16.13c-6.51-.36-15.22-2.19-20.68-3.48-1.42-.33-2.6-0.63-3.49-0.85l-1.68-.43A5.51,5.51,0,0,0,266.3,253.76Z"/><path class="cls-4" d="M268.11,264.07l-0.06-.35a30.25,30.25,0,0,0,5.13-.41c5.14-.74,12.16-2.29,17.47-3.55,0.07,1.3.12,2.61,0.12,3.93a73.25,73.25,0,0,1-.47,8.3,49.5,49.5,0,0,1-15.68-4.51A66.14,66.14,0,0,1,268.11,264.07Z"/><path class="cls-4" d="M267.5,263.69c0.16,0,.37,0,0.55,0l0.06,0.35Z"/><path class="cls-4" d="M270.58,279.1l0.2,0.12,0.87,4.95A12.08,12.08,0,0,1,270.58,279.1Z"/><path class="cls-4" d="M278.12,280.4a36.26,36.26,0,0,0,11.62-4.5,66.89,66.89,0,0,1-3.35,12.35c-0.27.72-.56,1.42-0.86,2.13s-0.61,1.45-.94,2.16c-0.09.18-.16,0.38-0.25,0.56-0.51-.1-1-0.23-1.44-0.36a24.76,24.76,0,0,1-2.55-.8c-0.51-.2-1-0.41-1.43-0.63a17.22,17.22,0,0,1-2.64-1.55,13.55,13.55,0,0,1-4.63-5.6l-0.87-4.95A10.28,10.28,0,0,0,278.12,280.4Z"/><path class="cls-1" d="M275.29,335.12c2.91-.83,5.64-1.67,8.25-2.47,0,8.79-.5,17.28-1.3,25.36-0.07.68-.14,1.37-0.21,2,0,0.09,0,.19,0,0.29-1.42.43-2.75,0.88-4.26,1.32A246.5,246.5,0,0,1,250,368.6V341.25C258,339.71,267.22,337.43,275.29,335.12Z"/><path class="cls-1" d="M273.19,308.75a48.61,48.61,0,0,0,8.23-10.15,257,257,0,0,1,2.08,31.17c-2.67.82-5.41,1.69-8.41,2.55-8,2.3-17.08,4.6-25.08,6.17v-20C258,318.46,266.56,314.87,273.19,308.75Z"/><path class="cls-1" d="M276.15,392.25c-8.28,2.4-18.15,4.84-26.15,6.48V371.38a288,288,0,0,0,31.86-8A190.44,190.44,0,0,1,276.15,392.25Z"/><path class="cls-5" d="M275.07,332.31c3-.86,5.8-1.72,8.46-2.55,0,0.8,0,1.59,0,2.39,0,0.17,0,.33,0,0.5-2.61.81-5.28,1.64-8.19,2.47-8.07,2.31-17.3,4.58-25.3,6.13v-2.77C258,336.91,267.06,334.61,275.07,332.31Z"/><path class="cls-5" d="M277.73,361.66c1.51-.44,2.91-0.89,4.33-1.32-0.06.6-.18,1.19-0.25,1.78,0,0.41,0,.82,0,1.22a286.87,286.87,0,0,1-31.8,8V368.6A246.41,246.41,0,0,0,277.73,361.66Z"/><path class="cls-5" d="M275.22,395.4c-8.05,2.3-17.22,4.57-25.22,6.1v-2.77c8-1.64,17.95-4.07,26.23-6.48C275.92,393.32,275.54,394.36,275.22,395.4Z"/><path class="cls-6" d="M263.54,181.54c0-9.13,27.14-41.08,27.14-41.08,0.51,2.21-1,8.13-3.46,15.83-0.45,1.38-.95,2.81-1.46,4.3s-1,2.91-1.57,4.42c-2,5.67-4.4,11.8-6.84,17.88a14.55,14.55,0,0,0-5.56-1.1c-0.42,0-.83,0-1.24.06a14.58,14.58,0,0,0-4.6,27.89q-0.69,1.52-1.33,2.9c-1.71,3.68-3.13,6.55-4.09,8.24a4.8,4.8,0,0,1-1.24,1.72l-0.53.08a18.79,18.79,0,0,1-1.91.11c-3,.05-6.84-0.19-6.84-0.19V72C256,72,263.54,181.54,263.54,181.54Z"/><path class="cls-7" d="M257.2,196.39a14.58,14.58,0,1,0,14.59-14.59c-0.42,0-.83,0-1.24.06A14.58,14.58,0,0,0,257.2,196.39Zm5.92,2.89a9.13,9.13,0,0,1,11.27-11.64,4.68,4.68,0,0,1,6.15,6.15A9.14,9.14,0,0,1,263.13,199.27Z"/><path d="M267.87,188.14a9.06,9.06,0,0,1,6.53-.51,4.68,4.68,0,1,0,6.15,6.15A9.14,9.14,0,1,1,267.87,188.14Z"/><path class="cls-4" d="M274.4,187.63a4.65,4.65,0,0,1,1.17-.31l-0.26.63A8.82,8.82,0,0,0,274.4,187.63Z"/><path class="cls-4" d="M274.4,187.63a8.82,8.82,0,0,1,.91.32l0.26-.63a4.64,4.64,0,0,1,.68-0.07A4.69,4.69,0,1,1,274.4,187.63Z"/><path class="cls-2" d="M279,225.38a42.49,42.49,0,0,0-14.41-12.73q0.64-1.38,1.33-2.9a14.58,14.58,0,0,0,19.27-19.05c19.6-13.4,42.94-28.72,65.41-41.88,2.55,3.64,11.28,10,46.29,16.93a455.84,455.84,0,0,1-9.52,45C354.58,203.3,310.43,214.55,279,225.38Z"/><path class="cls-2" d="M354.24,146.72c16.78-9.69,32.93-18,46.5-23.33a273.81,273.81,0,0,1-3.2,38.28C376.55,157.5,358.55,152.28,354.24,146.72Z"/><path class="cls-2" d="M290.6,258.74a69.7,69.7,0,0,0-2.94-16A60.56,60.56,0,0,0,281.49,229c30.88-10.48,73.62-21.22,104.84-14.25a344.86,344.86,0,0,1-14.75,43.32C354.06,255.55,328.33,254.89,290.6,258.74Z"/><path class="cls-2" d="M369.86,262a131,131,0,0,1-11.42,20.86c-5.24,7.5-10.37,11.78-14.87,12.43-12.56-5.55-37.56-8.86-57.19-7.06a66.89,66.89,0,0,0,3.35-12.35c0.22-1.29.42-2.59,0.57-3.91a73.25,73.25,0,0,0,.47-8.3c0-.29,0-0.56,0-0.85C327.79,259,352.89,259.65,369.86,262Z"/><path class="cls-2" d="M277.35,182.9c2.44-6.08,4.79-12.22,6.83-17.88,21.62-21.36,83.21-79.54,106.61-73.55,3.78,1,6.25,3.73,7.53,8.46a83.6,83.6,0,0,1,2.37,19.32c-33.62,12.67-81.88,43.42-117.65,67.88A14.63,14.63,0,0,0,277.35,182.9Z"/><path class="cls-3" d="M400.7,119.25c0,1.35,0,2.74,0,4.15-13.57,5.29-29.72,13.64-46.5,23.33,4.31,5.55,22.31,10.78,43.3,15q-0.3,2-.62,4.07c-35-6.88-43.74-13.29-46.29-16.93C328.15,162,304.81,177.3,285.22,190.7a14.58,14.58,0,0,0-2.17-3.57C318.82,162.66,367.08,131.92,400.7,119.25Z"/><path class="cls-3" d="M281.49,229q-1.17-1.91-2.47-3.66c31.41-10.83,75.56-22.08,108.38-14.58q-0.53,2-1.08,4C355.12,207.82,312.38,218.56,281.49,229Z"/><path class="cls-3" d="M290.61,258.86s0-.08,0-0.12c37.74-3.85,63.47-3.19,81-.62q-0.85,2-1.71,3.9c-17-2.37-42.07-3-79.11.83,0-1,0-2.06-.09-3.08C290.64,259.46,290.63,259.16,290.61,258.86Z"/><path class="cls-8" d="M256.84,222.81c0.79,0,1.43,0,2-.11l0.49-.08a4.88,4.88,0,0,0,1.22-1.72c1-1.69,2.37-4.56,4.08-8.24,10.41,5.42,18.76,16.34,23,30.08-0.08,0-12.24,7.14-19,10.1-0.89.39-1.69,0.71-2.36,0.93a5.51,5.51,0,0,1-1.54.34l1.68,0.43c0.89,0.22,2.07.52,3.49,0.85,5.46,1.28,14.17,3.12,20.68,3.48,0,0.3,0,.6.05,0.9-5.32,1.26-12.33,2.81-17.47,3.55a30.25,30.25,0,0,1-5.13.41c-0.19,0-.4,0-0.55,0l0.62,0.38a66.14,66.14,0,0,0,6.51,3.41A49.5,49.5,0,0,0,290.31,272c-0.15,1.32-.35,2.62-0.57,3.91a36.26,36.26,0,0,1-11.62,4.5,10.28,10.28,0,0,1-7.34-1.18l-0.2-.12a12.08,12.08,0,0,0,1.07,5.07,13.55,13.55,0,0,0,4.63,5.6,17.22,17.22,0,0,0,2.64,1.55c0.46,0.22.92,0.43,1.43,0.63a24.76,24.76,0,0,0,2.55.8c0.47,0.12.93,0.25,1.44,0.36-0.11.24-.24,0.46-0.36,0.7-0.34.68-.68,1.37-1,2s-0.77,1.36-1.17,2c-0.15.24-.28,0.5-0.43,0.74a48.32,48.32,0,0,1-8.15,10.15c-6.63,6.12-15.19,9.72-23.19,9.72V222.62S253.84,222.86,256.84,222.81Z"/><path class="cls-4" d="M260.2,216.23s-3.7,2.28-3,5,4.13,5.93,3,9.58C260.2,230.83,262.71,219.42,260.2,216.23Z"/><g class="cls-9"><path class="cls-10" d="M275.37,395.4c-8.05,2.3-17.37,4.57-25.37,6.1V428C260,428,269.18,415.37,275.37,395.4Z"/><path class="cls-10" d="M402.3,98.84c-1.69-6.19-5.21-10-10.48-11.36-23.68-6.05-78.78,43.76-104.57,68.75,2.49-7.68,4-13.57,3.45-15.77,0,0-27.15,31.95-27.15,41.08C263.54,181.54,256,72,250,72V371.38a286.93,286.93,0,0,0,31.81-8c0-.4,0-0.81,0-1.22,23.24,2.4,28.86,1.11,30.5.06l0.69,0.71c1.79,1.88,4.77,5,9.74,5H323a10.24,10.24,0,0,0,9.64-7.68,9.78,9.78,0,0,0-3.38-10.09c5.39-7.68,23.87-35.18,21.17-47.79a8.38,8.38,0,0,0-2.19-4.2c4.45-2,9-6.36,13.58-12.91C388.82,246.58,412.66,136.83,402.3,98.84ZM267.5,263.69c0.16,0,.37,0,0.55,0s0.65,0,1,0c-0.37,0-.71,0-1,0s-0.4,0-.55,0h0Zm21.22-17.13q-0.48-1.95-1.06-3.83h0Q288.24,244.61,288.72,246.56Zm-2.25-7.28-0.16-.43Zm3.09,11.15,0,0.08Zm-13.43,30.15q-0.49,0-1,0a9.57,9.57,0,0,1-2.74-.53,9.57,9.57,0,0,0,2.74.53Q275.62,280.59,276.11,280.58ZM286.31,195c0-.11,0-0.22,0-0.34C286.28,194.8,286.3,194.91,286.31,195Zm-0.21-1.44,0-.22Zm-0.88-2.89h0Zm-4.67-6-0.15-.11Zm-1.5-1-0.22-.12Zm-21.24,39h0Zm3.42-3.14v0c0.9-1.71,2.06-4.08,3.39-6.95h0C263.28,215.54,262.13,217.92,261.23,219.63ZM283,329.78h0c-1,.45-2.94.91-4.48,1.37C280.05,330.69,282,330.23,283,329.78Zm0,2.9a46.79,46.79,0,0,1-5,1.51,46.22,46.22,0,0,0,5-1.53v0Zm-1,27.69c-1.29.4-2.58,0.8-3.94,1.2,1.38-.41,2.62-0.82,3.94-1.23v0Zm16.17-1.15-0.43,0Zm-2.19-.11-0.51,0Zm-2-.12-0.5,0Zm-2.4-.16-0.47,0Zm-2.06-.16-0.56,0Zm-2.58-.21-0.27,0Zm-2.08-.19-0.56-.05ZM325.72,348c0.73-1,1.54-2.22,2.41-3.51-1.29,1.92-2.46,3.6-3.42,4.93ZM344,315.77a43.42,43.42,0,0,0,2.15-7,48.08,48.08,0,0,1-2.92,8.83Q343.66,316.7,344,315.77Zm-0.81,2c-0.27.64-.55,1.28-0.85,1.93Q342.81,318.71,343.22,317.75Zm3.21-10.37c-0.05.38-.12,0.77-0.2,1.17Q346.34,308,346.42,307.38Zm25.15-49.25q-0.84,2-1.7,3.88Q370.73,260.11,371.57,258.13Zm14.75-43.31q-0.74,2.68-1.5,5.34Q385.58,217.51,386.32,214.83Zm-1.71,6.06q-0.74,2.55-1.5,5.06Q383.87,223.43,384.61,220.88Zm-1.76,5.91q-0.77,2.52-1.57,5Q382.08,229.31,382.85,226.79Zm-1.77,5.63q-1.71,5.29-3.52,10.35Q379.37,237.72,381.08,232.42ZM377.47,243q-0.89,2.47-1.8,4.87Q376.58,245.51,377.47,243Zm-2,5.37q-0.9,2.37-1.82,4.67Q374.58,250.78,375.48,248.41Zm-2,5.08q-1,2.36-1.92,4.63Q372.55,255.85,373.5,253.48Zm13.91-42.69q1.46-5.52,2.79-11.12c-1.21,5.08-2.5,10.13-3.86,15.11Q386.88,212.8,387.41,210.8Zm9.52-45q0.32-2,.62-4.06c-1,6.79-2.2,13.76-3.6,20.79C395.06,176.85,396.06,171.25,396.92,165.75Zm-3,16.84c-1.11,5.59-2.33,11.22-3.66,16.82C391.59,193.81,392.81,188.18,393.92,182.59Zm6.82-59.18c0,7-.46,14.74-1.29,22.93C400.28,138.14,400.73,130.41,400.74,123.41Zm-1.31,23.12q-0.49,4.84-1.16,9.88Q398.94,151.38,399.43,146.53Zm-1.18,10q-0.34,2.53-.71,5.1Q397.92,159.11,398.25,156.58Zm-115.2,30.55h0Zm115.76-85.29c-0.15-.66-0.31-1.3-0.48-1.91C398.5,100.54,398.66,101.18,398.81,101.84Zm1.89,17.4q0-1.34-.09-2.64Q400.66,117.9,400.7,119.24ZM400.57,116c0-.66-0.07-1.32-0.11-2C400.51,114.67,400.54,115.33,400.57,116Zm-0.17-2.75c0-.57-0.09-1.14-0.14-1.7C400.32,112.11,400.36,112.68,400.41,113.25Zm-0.22-2.54q-0.08-.78-0.16-1.54Q400.11,109.92,400.19,110.7Zm-0.27-2.4c-0.06-.49-0.13-1-0.19-1.43C399.8,107.34,399.86,107.82,399.92,108.3ZM399.6,106c-0.07-.47-0.15-0.92-0.23-1.37C399.45,105.11,399.53,105.57,399.6,106Zm-0.37-2.16c-0.09-.47-0.19-0.93-0.29-1.39C399,102.94,399.14,103.4,399.23,103.87ZM277,182.9h0c-1-.71-3.2-0.9-5.17-0.9h0C273.82,182,276,182.19,277,182.9Zm4.34,115.69v0.11a48.46,48.46,0,0,1-8.14,10A48.23,48.23,0,0,0,281.34,298.59Zm18.12,60.68,0.56,0Zm2.07,0.07h0Zm1.53,0h0Zm1.53,0h0Zm4.37-.26a4.93,4.93,0,0,0,.7-0.17l0.17,0A4.5,4.5,0,0,1,309,359.11Zm-2.93.24h0Zm1.24-.06,0.44,0Zm0.82-.07,0.71-.09Zm20-14.75c0.54-.81,1.11-1.67,1.69-2.56Q329,343.26,328.14,344.48Zm14.23-24.79c-0.48,1.07-1,2.15-1.54,3.23C341.37,321.84,341.88,320.76,342.37,319.69ZM340.8,323q-0.79,1.6-1.65,3.22Q340,324.6,340.8,323Zm-1.71,3.34q-0.84,1.59-1.73,3.17Q338.24,327.92,339.09,326.33Zm-1.82,3.33q-0.87,1.56-1.77,3.09Q336.39,331.22,337.27,329.66Zm-1.88,3.27q-0.89,1.52-1.79,3Q334.5,334.45,335.4,332.93Zm-1.89,3.17q-0.9,1.48-1.79,2.88Q332.6,337.58,333.5,336.1Zm-1.86,3q-0.9,1.42-1.76,2.74C330.46,341,331,340,331.64,339.1ZM346.48,307c0-.32.06-0.64,0.08-1Q346.53,306.48,346.48,307Zm0.11-1.39c0-.3,0-0.59,0-0.88C346.58,305,346.59,305.28,346.58,305.58Zm-0.18-2.38a8.71,8.71,0,0,1,.15,1.13A8.66,8.66,0,0,0,346.4,303.2ZM361.62,278q0.49-.81,1-1.65Q362.11,277.15,361.62,278Zm-3.18,4.92c0.46-.66.91-1.34,1.37-2C359.36,281.55,358.9,282.23,358.44,282.88Zm1.77-2.65c0.33-.51.66-1,1-1.56C360.87,279.2,360.54,279.72,360.21,280.23Zm9.65-18.2c-1.81,4-3.67,7.79-5.55,11.25C366.19,269.82,368,266.05,369.86,262Zm-5.79,11.68q-0.55,1-1.1,2Q363.53,274.7,364.08,273.71Zm36.67-150.32c0-1.41,0-2.79,0-4.14C400.73,120.6,400.74,122,400.74,123.39Z"/><path class="cls-10" d="M276.15,392.25a190.46,190.46,0,0,0,5.71-28.91,288,288,0,0,1-31.86,8v27.35C258,397.08,267.87,394.65,276.15,392.25Z"/><path class="cls-10" d="M275.22,395.4c0.32-1,.71-2.08,1-3.15-8.28,2.4-18.23,4.84-26.23,6.48v2.77C258,400,267.17,397.69,275.22,395.4Z"/></g><path class="cls-11" d="M163.75,465.94V465h5.63v1.88h1.88v1.88h1.88v5.63h-1.87v1.88h-1.87v1.88h-5.62v-1.87h-1.87v-1.87H160v-5.62h1.88v-1.87h1.88v-0.94Zm3.75,1.88v-0.94h-3.75v7.5h1.88v1.88h3.75v-7.5H167.5v-0.94Z"/><path class="cls-11" d="M180.63,465.94V465h5.63v7.5h1.88v1.88h-1.87v3.75H182.5v-3.75H175v-3.75h1.88v-1.87h1.88v-1.87h1.88v-0.94Zm1.88,4.69v-1.87h-1.87v1.88h-1.87v1.88h3.75v-1.87Z"/><path class="cls-11" d="M191.88,465.94V465h9.38v1.88h1.88v7.5h-1.87v1.88h-1.87v1.88h-7.5v-1.87h5.63v-1.87h1.88V472.5h-7.5v-1.87H190v-3.75h1.88v-0.94Zm7.5,2.81v-1.87h-5.62v3.75h5.63v-1.87Z"/><path class="cls-11" d="M220,468.75V465h3.75v5.63h1.88v1.88h1.88v-1.87h1.88V465h3.75v7.5h-1.87v1.88h-1.87v1.88H227.5v1.88h-1.87v-1.87h-1.87v-1.87h-1.87V472.5H220v-3.75Z"/><path class="cls-11" d="M235,471.56V465h13.13v1.88h-9.37v3.75h7.5v1.88h-7.5v3.75h9.38v1.88H235v-6.56Z"/><path class="cls-11" d="M250,471.56V465h3.75v1.88h1.88v1.88h1.88v1.88h1.88V465h3.75v13.13h-3.75v-1.87H257.5v-1.87h-1.87V472.5h-1.87v5.63H250v-6.56Z"/><path class="cls-11" d="M266.88,465.94V465h9.38v1.88h1.88v9.38h-1.87v1.88h-9.37v-1.87H265v-9.37h1.88v-0.94Zm7.5,5.63v-4.69h-5.62v9.38h5.63v-4.69Z"/><path class="cls-11" d="M280,471.56V465h3.75v1.88h1.88v1.88h1.88v-1.87h1.88V465h3.75v13.13h-3.75V472.5H287.5v1.88h-1.87V472.5h-1.87v5.63H280v-6.56Z"/><path class="cls-11" d="M296.88,465.94V465h9.38v1.88h1.88v9.38h-1.87v1.88h-9.37v-1.87H295v-9.37h1.88v-0.94Zm7.5,5.63v-4.69h-5.62v9.38h5.63v-4.69Z"/><path class="cls-11" d="M311.88,465.94V465h11.25v1.88h-3.75v11.25h-3.75V466.88h-3.75v-0.94Z"/><path class="cls-11" d="M325,471.56V465h3.75v5.63h5.63V465h3.75v13.13h-3.75V472.5h-5.62v5.63H325v-6.56Z"/></svg>