<?xml version="1.0" ?><svg id="pkft" viewBox="0 0 500 500" xmlns="http://www.w3.org/2000/svg"><defs><style>.cls-1{fill:#b3b3b3;}.cls-2{fill:#e86523;}.cls-3{fill:#d66329;}.cls-4{fill:#e56d29;}.cls-5{fill:#f9f55a;}.cls-6{fill:#af4727;}.cls-7{fill:#fff;}.cls-8{fill:#0071bc;}.cls-10,.cls-9{fill:#1d1d1b;}.cls-10{opacity:0.1;}</style></defs><title/><path class="cls-1" d="M128.4,249.09a2.85,2.85,0,0,1-4.54-1.27l-9.11-22.12c-0.8-1.95-.13-2.44,1.49-1.1l18.44,15.23c1.62,1.34,2.3.84,1.49-1.1l-9.11-22.12c-0.8-1.95-.13-2.44,1.49-1.1L147,230.73c1.62,1.34,2.3.84,1.49-1.1l-9.11-22.12c-0.8-1.95-.13-2.44,1.49-1.1l18.44,15.23a2.85,2.85,0,0,1-.13,4.71Z"/><path class="cls-2" d="M125.25,252.64c-2.34-1.45-2.45-4-.25-5.64l32-24a5.32,5.32,0,0,1,7.19.85S170.67,231.67,181,270c0,0,7.67-17,31.67-22.33L211,265a10.76,10.76,0,0,1-4.84,7.42S192.67,280,181,280,125.25,252.64,125.25,252.64Z"/><rect class="cls-3" height="28.14" width="13.08" x="231" y="219.95"/><path class="cls-4" d="M250,272.27V241H228.5c-0.5,0-8.52-.44-9-0.4-10.35.76-18.56,8.9-18.56,19.45a20,20,0,0,0,4.44,12.68,153.21,153.21,0,0,0-4.63,37.45c0,21,4,40.42,10.64,55.78a143.71,143.71,0,0,1-.89-16C210.5,307.39,229,272.8,250,272.27Z"/><path class="cls-5" d="M210.5,350a143.71,143.71,0,0,0,.89,16c9,20.71,22.89,34.1,38.61,34.38V272.27C229,272.8,210.5,307.39,210.5,350Z"/><path class="cls-2" d="M209,348.33c-10.91,0-19.75,11.94-19.75,26.67a31.94,31.94,0,0,0,1.2,8.72,14.54,14.54,0,0,1-.67,9.27l-7.86,29.73a21.46,21.46,0,0,1-3.8,8.86l-4,5.27C172.4,439,173.25,441,176,441h25.17c2.75,0,4.22-2.36,3.26-4.94l-1.43-4a27.5,27.5,0,0,1-1.36-9.73L204,406.21c0.63-2.68,2.3-4.21,3.7-4.21H209c10.91,0,19.75-12.11,19.75-26.83S219.91,348.33,209,348.33Z"/><path class="cls-6" d="M250,238.67l-7-6-0.72,2.45c-0.15.53-.33,0.51-0.39,0l-0.42-3.72-11.83-11.1L229,231l14.55,13.14a1.24,1.24,0,0,1,0-.41l0.81-2.77c0.15-.53.33-0.51,0.39,0l0.46,4.14a0.57,0.57,0,0,1-.11.46L250,250V238.67Z"/><path class="cls-2" d="M241,73s-3.46,29-3.48,29h-0.75c-15.2,4-31.77,13.13-31.77,36.87V178.2l23,29.5v12.26l22,18.72V73h-9Z"/><path class="cls-7" d="M227.6,153.34l-2.49-2-3.2-2.51c-1.78-1.46-3.71-.95-4.08,1.17l-2,11.27c-0.37,2.12,1.61,4,3.93,4.36l0.77,0.13,3.42,0.6a28.19,28.19,0,0,1,.4-4.13A26.06,26.06,0,0,1,227.6,153.34Z"/><path class="cls-8" d="M230.65,162.79a7.21,7.21,0,0,1-.35-4.07,8.3,8.3,0,0,1,.84-2.48l-0.76-.62-2.78-2.28a26.06,26.06,0,0,0-3.2,8.85,28.19,28.19,0,0,0-.4,4.13l4,0.71,1.89,0.33a16.48,16.48,0,0,1,.24-2.57A16.72,16.72,0,0,1,230.65,162.79Z"/><path class="cls-8" d="M243.64,166.48l-2.54-2.08a16.25,16.25,0,0,1-.87,4.75l2.78,0.49c0.33,0.06.7-.46,0.85-1.33A2.28,2.28,0,0,0,243.64,166.48Z"/><path class="cls-9" d="M241.1,164.4l-0.37-.3-4.54-3.72-0.23-.19c-0.58,2.56-2.17,4.37-3.67,4.11a2.35,2.35,0,0,1-1.64-1.51,16.72,16.72,0,0,0-.48,2,16.48,16.48,0,0,0-.24,2.57l5.58,1,2.67,0.47,2,0.36A16.25,16.25,0,0,0,241.1,164.4Z"/><path class="cls-7" d="M230.65,162.79a12.36,12.36,0,0,1,2.61-4.81h0l-2.11-1.73a8.3,8.3,0,0,0-.84,2.48A7.21,7.21,0,0,0,230.65,162.79Z"/><path class="cls-7" d="M230.65,162.79a2.35,2.35,0,0,0,1.64,1.51c1.5,0.26,3.08-1.55,3.67-4.11l-2.69-2.2A12.36,12.36,0,0,0,230.65,162.79Z"/><path d="M238.25,208c-0.3-.34-0.2-0.48.22-0.31l4.55,1.9a0.82,0.82,0,0,1,.44,1.08l-0.63,1.52a0.47,0.47,0,0,1-.85.14Z"/><path class="cls-7" d="M244.8,241c-0.06-.55-0.24-0.56-0.39,0l-0.81,2.77a1.24,1.24,0,0,0,0,.41l1.6,1.46a0.57,0.57,0,0,0,.11-0.46Z"/><path class="cls-7" d="M242.28,235.17l0.72-2.45-1.53-1.3,0.42,3.72C241.95,235.68,242.13,235.69,242.28,235.17Z"/><path class="cls-1" d="M372,249.09a2.85,2.85,0,0,0,4.54-1.27l9.11-22.12c0.8-1.95.13-2.44-1.49-1.1l-18.44,15.23c-1.62,1.34-2.3.84-1.49-1.1l9.11-22.12c0.8-1.95.13-2.44-1.49-1.1L353.4,230.73c-1.62,1.34-2.3.84-1.49-1.1L361,207.51c0.8-1.95.13-2.44-1.49-1.1l-18.44,15.23a2.85,2.85,0,0,0,.13,4.71Z"/><path class="cls-2" d="M375.17,252.64c2.34-1.45,2.45-4,.25-5.64l-32-24a5.32,5.32,0,0,0-7.19.85s-6.48,7.82-16.81,46.15c0,0-7.67-17-31.67-22.33L289.43,265a10.76,10.76,0,0,0,4.84,7.42S307.75,280,319.42,280,375.17,252.64,375.17,252.64Z"/><rect class="cls-3" height="28.14" transform="translate(525.75 468.03) rotate(-180)" width="13.08" x="256.33" y="219.95"/><path class="cls-4" d="M250,272.27V241h21.92c0.5,0,8.52-.44,9-0.4,10.35,0.76,18.56,8.9,18.56,19.45A20,20,0,0,1,295,272.72a153.21,153.21,0,0,1,4.63,37.45c0,21-4,40.42-10.64,55.78a144.44,144.44,0,0,0,.68-16C289.71,307.39,271,272.8,250,272.27Z"/><path class="cls-5" d="M289.71,350a143.37,143.37,0,0,1-1,16c-9,20.71-22.72,34.1-38.72,34.38V272.27C271,272.8,289.71,307.39,289.71,350Z"/><path class="cls-2" d="M291.42,348.33c10.91,0,19.75,11.94,19.75,26.67a31.94,31.94,0,0,1-1.2,8.72,14.54,14.54,0,0,0,.67,9.27l7.86,29.73a21.46,21.46,0,0,0,3.8,8.86l4,5.27c1.72,2.15.87,4.16-1.88,4.16H299.25c-2.75,0-4.22-2.36-3.26-4.94l1.43-4a27.5,27.5,0,0,0,1.36-9.73l-2.34-16.16c-0.63-2.68-2.3-4.21-3.7-4.21h-1.33c-10.91,0-19.75-12.11-19.75-26.83S280.51,348.33,291.42,348.33Z"/><path class="cls-6" d="M250,238.67l7.21-6,0.82,2.45c0.15,0.53.38,0.51,0.44,0l0.44-3.72,11.84-11.1L271.41,231l-14.55,13.14a1.24,1.24,0,0,0,0-.41L256,241c-0.15-.53-0.33-0.51-0.39,0l-0.46,4.14a0.89,0.89,0,0,0-.1.46L250,250V238.67Z"/><path class="cls-2" d="M259.42,73s3.46,29,3.48,29h0.75c15.2,4,31.35,13.13,31.35,36.87V178.2l-23,29.5v12.26l-22,18.72V73h9.42Z"/><path class="cls-7" d="M272.82,153.34l2.49-2,3.2-2.51c1.78-1.46,3.71-.95,4.08,1.17l2,11.27c0.37,2.12-1.61,4-3.93,4.36l-0.77.13-3.42.6a28.19,28.19,0,0,0-.4-4.13A26.06,26.06,0,0,0,272.82,153.34Z"/><path class="cls-8" d="M269.76,162.79a7.21,7.21,0,0,0,.35-4.07,8.3,8.3,0,0,0-.84-2.48l0.76-.62,2.78-2.28a26.06,26.06,0,0,1,3.2,8.85,28.19,28.19,0,0,1,.4,4.13l-4,.71-1.89.33a16.48,16.48,0,0,0-.24-2.57A16.72,16.72,0,0,0,269.76,162.79Z"/><path class="cls-8" d="M256.78,166.48l2.54-2.08a16.25,16.25,0,0,0,.87,4.75l-2.78.49c-0.33.06-.7-0.46-0.85-1.33A2.28,2.28,0,0,1,256.78,166.48Z"/><path class="cls-9" d="M259.32,164.4l0.37-.3,4.54-3.72,0.23-.19c0.58,2.56,2.17,4.37,3.67,4.11a2.35,2.35,0,0,0,1.64-1.51,16.72,16.72,0,0,1,.48,2,16.48,16.48,0,0,1,.24,2.57l-5.58,1-2.67.47-2,.36A16.25,16.25,0,0,1,259.32,164.4Z"/><path class="cls-7" d="M269.76,162.79a12.36,12.36,0,0,0-2.61-4.81h0l2.11-1.73a8.3,8.3,0,0,1,.84,2.48A7.21,7.21,0,0,1,269.76,162.79Z"/><path class="cls-7" d="M269.76,162.79a2.35,2.35,0,0,1-1.64,1.51c-1.5.26-3.08-1.55-3.67-4.11l2.69-2.2A12.36,12.36,0,0,1,269.76,162.79Z"/><path d="M262.16,208c0.3-.34.2-0.48-0.22-0.31l-4.55,1.9a0.82,0.82,0,0,0-.44,1.08l0.63,1.52a0.47,0.47,0,0,0,.85.14Z"/><path class="cls-7" d="M255.62,241c0.06-.55.24-0.56,0.39,0l0.81,2.77a1.24,1.24,0,0,1,0,.41l-1.6,1.46a0.57,0.57,0,0,1-.11-0.46Z"/><path class="cls-7" d="M258.13,235.17l-0.72-2.45,1.53-1.3-0.42,3.72C258.47,235.68,258.29,235.69,258.13,235.17Z"/><path class="cls-10" d="M385.66,225.7c0.8-1.95.13-2.44-1.49-1.1l-18.38,15.18-1.52-1.14,9.07-22c0.8-1.95.13-2.44-1.49-1.1l-18.29,15.1L352,229.43l9-21.91c0.8-1.95.13-2.44-1.49-1.1l-18.44,15.23a3.61,3.61,0,0,0-.35.36,5.29,5.29,0,0,0-4.49,1.85s-6.48,7.82-16.81,46.15c0,0-5.66-12.51-22.42-19.43a20,20,0,0,0-16.07-10c-0.49,0-8.51.4-9,.4H269v-8.2l2.2-1.8-0.5-10,1.3-1V207.69l23-29.5V138.87c0-23.73-16.15-32.87-31.35-36.87H262.9s-3.48-29-3.48-29H250V238.67l6-5.39v0.15l-6,5.23V400.33c9-.16,17.21-4.43,24.31-11.79,3.42,8,9.79,13.46,17.1,13.46h1.33c1.4,0,3.07,1.54,3.7,4.21l2.34,16.16a27.51,27.51,0,0,1-1.36,9.73l-1.43,4c-1,2.58.51,4.94,3.26,4.94h25.17c2.75,0,3.6-2,1.88-4.16l-4-5.27a21.46,21.46,0,0,1-3.8-8.86L310.63,393a14.54,14.54,0,0,1-.67-9.27,31.94,31.94,0,0,0,1.2-8.72c0-13.12-7-24-16.27-26.25a156.11,156.11,0,0,0,.18-75.88c3,1.59,14.35,7.13,24.34,7.13,11.67,0,55.75-27.36,55.75-27.36,1.88-1.16,2.29-3,1.25-4.57,0-.08.1-0.16,0.13-0.25ZM255.62,241a0.46,0.46,0,0,1,.16-0.42,0.46,0.46,0,0,0-.16.42h0Z"/><path class="cls-4" d="M148.75,465.94V465h5.63v1.88h1.88v1.88h1.88v5.63h-1.87v1.88h-1.87v1.88h-5.62v-1.87h-1.87v-1.87H145v-5.62h1.88v-1.87h1.88v-0.94Zm3.75,1.88v-0.94h-3.75v7.5h1.88v1.88h3.75v-7.5H152.5v-0.94Z"/><path class="cls-4" d="M163.75,465.94V465h5.63v1.88h1.88v1.88h1.88v5.63h-1.87v1.88h-1.87v1.88h-5.62v-1.87h-1.87v-1.87H160v-5.62h1.88v-1.87h1.88v-0.94Zm3.75,1.88v-0.94h-3.75v7.5h1.88v1.88h3.75v-7.5H167.5v-0.94Z"/><path class="cls-4" d="M175,467.81V465h11.25v1.88h-7.5v1.88h7.5v1.88h1.88v5.63h-1.87v1.88h-9.37v-1.87H175v-1.87h3.75v1.88h5.63v-5.62H175v-2.81Z"/><path class="cls-4" d="M208.75,465.94V465h7.5v1.88h1.88v1.88h-3.75v-1.87h-3.75v1.88h-1.87v5.63h1.88v1.88h3.75v-1.87h3.75v1.88h-1.87v1.88h-7.5v-1.87h-1.87v-1.87H205v-5.62h1.88v-1.87h1.88v-0.94Z"/><path class="cls-4" d="M220,471.56V465h3.75v5.63h5.63V465h3.75v13.13h-3.75V472.5h-5.62v5.63H220v-6.56Z"/><path class="cls-4" d="M238.75,465.94V465h5.63v1.88h1.88v1.88h1.88v9.38h-3.75v-3.75h-5.62v3.75H235v-9.37h1.88v-1.87h1.88v-0.94Zm3.75,1.88v-0.94h-1.87v1.88h-1.87v3.75h5.63v-3.75H242.5v-0.94Z"/><path class="cls-4" d="M250,471.56V465h11.25v1.88h1.88v5.63h-3.75v1.88h1.88v1.88h1.88v1.88H257.5v-1.87h-1.87v-1.87h-1.87v3.75H250v-6.56Zm9.38-2.81v-1.87h-5.62v5.63h3.75v-1.87h1.88v-1.87Z"/><path class="cls-4" d="M265,471.56V465h3.75v1.88h1.88v1.88h1.88v-1.87h1.88V465h3.75v13.13h-3.75V472.5H272.5v1.88h-1.87V472.5h-1.87v5.63H265v-6.56Z"/><path class="cls-4" d="M283.75,465.94V465h5.63v1.88h1.88v1.88h1.88v9.38h-3.75v-3.75h-5.62v3.75H280v-9.37h1.88v-1.87h1.88v-0.94Zm3.75,1.88v-0.94h-1.87v1.88h-1.87v3.75h5.63v-3.75H287.5v-0.94Z"/><path class="cls-4" d="M296.88,471.56V465h3.75v11.25h7.5v1.88H296.88v-6.56Z"/><path class="cls-4" d="M310,471.56V465h13.13v1.88h-9.37v3.75h7.5v1.88h-7.5v3.75h9.38v1.88H310v-6.56Z"/><path class="cls-4" d="M326.88,465.94V465h9.38v1.88h1.88v9.38h-1.87v1.88h-9.37v-1.87H325v-9.37h1.88v-0.94Zm7.5,5.63v-4.69h-5.62v9.38h5.63v-4.69Z"/><path class="cls-4" d="M340,471.56V465h3.75v1.88h1.88v1.88h1.88v1.88h1.88V465h3.75v13.13h-3.75v-1.87H347.5v-1.87h-1.87V472.5h-1.87v5.63H340v-6.56Z"/></svg>