<?xml version="1.0" ?><svg id="pkft" viewBox="0 0 500 500" xmlns="http://www.w3.org/2000/svg"><defs><style>.cls-1{fill:none;}.cls-2{fill:#ff7fc7;}.cls-3,.cls-7{fill:#1a1a1a;}.cls-4{fill:#fff;}.cls-5{fill:#603813;}.cls-6{fill:#ab5726;}.cls-7{opacity:0.1;}</style></defs><title/><path class="cls-1" d="M250,319c0,0.16,0,.31,0,0.47V241.24l-0.68,0Z"/><path class="cls-1" d="M250,321.78v-2.32c0,0.11,0,.22,0,0.34Z"/><path d="M249.79,321.78H250l0-2A11.62,11.62,0,0,1,249.79,321.78Z"/><path class="cls-2" d="M249.13,219.25l0.18,22,0.68,0v-22Z"/><path class="cls-2" d="M230,230.23c0,6,8.58,10.79,19.3,11l-0.19-22C238.51,219.5,230,224.31,230,230.23Z"/><path class="cls-3" d="M230,219.22c2.08,0,3.77-4.93,3.77-11a28.28,28.28,0,0,0-.57-5.79c-0.66,3.13-1.85,5.21-3.2,5.21s-2.53-2.09-3.2-5.21a28.28,28.28,0,0,0-.57,5.79C226.26,214.29,227.95,219.22,230,219.22Z"/><path class="cls-4" d="M230,207.63c1.35,0,2.53-2.09,3.2-5.21-0.66-3.13-1.85-5.21-3.2-5.21s-2.53,2.09-3.2,5.21C227.5,205.54,228.68,207.63,230,207.63Z"/><path class="cls-5" d="M250,319.8c0-.11,0-0.22,0-0.34s0-.32,0-0.47v0.81Z"/><path class="cls-6" d="M250,241.24c-10.72-.2-20-5.06-20-11s9-10.75,20-11v-49.4c-28,0-54,19.74-54,45.34V301h1.85a3.31,3.31,0,0,1,2.77,1.74c2-1.82,4.73-3.82,7.69-3.82a11.45,11.45,0,0,1,10.72,7,11.42,11.42,0,0,1,14.66,3A11.53,11.53,0,0,1,250,319Zm-23.76-33a28.28,28.28,0,0,1,.57-5.79c0.66-3.13,1.85-5.21,3.2-5.21s2.53,2.09,3.2,5.21a28.28,28.28,0,0,1,.57,5.79c0,6.08-1.69,11-3.77,11S226.26,214.29,226.26,208.21Z"/><path class="cls-5" d="M250,319a11.56,11.56,0,0,0-16.32-10.09A11.57,11.57,0,0,0,219,305.79a11.59,11.59,0,0,0-10.72-7.19c-3,0-5.64,1.81-7.69,3.63-0.74-1.13-1.68-2.24-2.77-2.24H197V275.57a13.45,13.45,0,0,0-5.36,1.49,10.76,10.76,0,0,0-5.58-1.6,11.46,11.46,0,0,0-11.45,11,10.48,10.48,0,0,0-5.77-1.69c-4.41,0-8.08,2.52-9.19,6a15.32,15.32,0,0,0-2.36-.19c-5.28,0-9.55,2.59-9.55,5.79s4.28,5.79,9.56,5.79a14.72,14.72,0,0,0,4.39-.65c0.39,2.68,3.79,4.84,8.14,5.22a11.61,11.61,0,0,0,6.93,6.4c0.44,2.86,4.31,5.12,9.1,5.24a11.25,11.25,0,0,0,6.55,1.06,12.27,12.27,0,0,0,7.77,2.43,14.74,14.74,0,0,0,4.35-.64,11.12,11.12,0,0,0,5.35.52c1.28,1.89,4.17,3.28,7.64,3.55a11.52,11.52,0,0,0,11.75,1.34A11.55,11.55,0,0,0,250,319.8V319Z"/><path class="cls-1" d="M249.88,319c0,0.16.12,0.31,0.12,0.47V241.24l0.62,0Z"/><path class="cls-1" d="M250,321.78v-2.32c0,0.11,0,.22,0,0.34Z"/><path d="M250,321.78h-0.23l0-2A11.62,11.62,0,0,0,250,321.78Z"/><path class="cls-2" d="M250.74,219.25l-0.12,22-0.62,0v-22Z"/><path class="cls-2" d="M269.71,230.23c0,6-8.58,10.79-19.3,11l0.19-22C261.23,219.5,269.71,224.31,269.71,230.23Z"/><path class="cls-3" d="M269.71,219.22c-2.08,0-3.77-4.93-3.77-11a28.28,28.28,0,0,1,.57-5.79c0.66,3.13,1.85,5.21,3.2,5.21s2.53-2.09,3.2-5.21a28.28,28.28,0,0,1,.57,5.79C273.48,214.29,271.79,219.22,269.71,219.22Z"/><path class="cls-4" d="M269.71,207.63c-1.35,0-2.53-2.09-3.2-5.21,0.66-3.13,1.85-5.21,3.2-5.21s2.53,2.09,3.2,5.21C272.25,205.54,271.06,207.63,269.71,207.63Z"/><path class="cls-5" d="M249.74,319.8c0-.11,0-0.22,0-0.34s0-.32,0-0.47v0.81Z"/><path class="cls-6" d="M249.75,319a11.53,11.53,0,0,1,16.32-10.06,11.43,11.43,0,0,1,14.66-3,11.46,11.46,0,0,1,10.72-7c3,0,5.64,2,7.69,3.84a3.31,3.31,0,0,1,2.77-1.74H304V215.16c0-25.6-26-45.34-54-45.34v49.4c10,0.26,19.85,5.09,19.85,11s-9.34,10.81-20.06,11Zm20-99.78c-2.08,0-3.77-4.93-3.77-11a28.28,28.28,0,0,1,.57-5.79c0.66-3.13,1.85-5.21,3.2-5.21s2.53,2.09,3.2,5.21a28.28,28.28,0,0,1,.57,5.79C273.48,214.29,271.79,219.22,269.71,219.22Z"/><path class="cls-5" d="M249.75,319a11.56,11.56,0,0,1,16.32-10.09,11.57,11.57,0,0,1,14.66-3.11,11.59,11.59,0,0,1,10.72-7.19c3,0,5.64,1.81,7.69,3.63,0.74-1.13,1.68-2.24,2.77-2.24H303V275.57a13,13,0,0,1,5.23,1.49,10.53,10.53,0,0,1,5.51-1.6,11.44,11.44,0,0,1,11.42,11,10.42,10.42,0,0,1,5.75-1.69c4.41,0,8.07,2.52,9.18,6a15.26,15.26,0,0,1,2.36-.19c5.28,0,9.55,2.59,9.55,5.79s-4.28,5.79-9.56,5.79a14.73,14.73,0,0,1-4.39-.65c-0.39,2.68-3.79,4.84-8.14,5.22A11.61,11.61,0,0,1,323,313c-0.44,2.86-4.31,5.12-9.1,5.24a11.25,11.25,0,0,1-6.55,1.06,12.27,12.27,0,0,1-7.77,2.43,14.74,14.74,0,0,1-4.35-.64,11.12,11.12,0,0,1-5.35.52c-1.28,1.89-4.17,3.28-7.64,3.55a11.52,11.52,0,0,1-11.75,1.34,11.55,11.55,0,0,1-20.73-6.75V319Z"/><path class="cls-7" d="M342.45,290.49a15.2,15.2,0,0,0-2.35.19c-1.11-3.43-4.76-6-9.17-6a10.36,10.36,0,0,0-5.73,1.69,11.4,11.4,0,0,0-11.38-11,11.11,11.11,0,0,0-5.67,1.6,8.77,8.77,0,0,0-4.15-1.37V215.16c0-25.6-26-45.34-54-45.34v71.4h-0.21L249.88,319h0c0,0.16.12,0.31,0.12,0.47V322h0a11.79,11.79,0,0,0,11.36,9.16,11.61,11.61,0,0,0,9.16-4.56,11.6,11.6,0,0,0,11.75-1.38c3.47-.27,6.36-1.66,7.64-3.55a11.2,11.2,0,0,0,5.35-.52,14.74,14.74,0,0,0,4.35.64,12.27,12.27,0,0,0,7.77-2.43,11.25,11.25,0,0,0,6.55-1.06c4.79-.13,8.66-2.38,9.1-5.24a11.61,11.61,0,0,0,6.93-6.4c4.35-.38,7.75-2.54,8.14-5.22a14.73,14.73,0,0,0,4.39.65c5.28,0,9.57-2.59,9.57-5.79S347.73,290.49,342.45,290.49Zm-74.36-64.6a6.72,6.72,0,0,1,1.77,4.33,7,7,0,0,1-2.12,4.75,7.22,7.22,0,0,0,2-4.75A7,7,0,0,0,268.09,225.9Z"/><path class="cls-6" d="M171.25,465.94V465h5.63v1.88h1.88v1.88h1.88v5.63h-1.87v1.88h-1.87v1.88h-5.62v-1.87h-1.87v-1.87H167.5v-5.62h1.88v-1.87h1.88v-0.94Zm3.75,1.88v-0.94h-3.75v7.5h1.88v1.88h3.75v-7.5H175v-0.94Z"/><path class="cls-6" d="M182.5,467.81V465h11.25v1.88h-7.5v1.88h7.5v1.88h1.88v5.63h-1.87v1.88h-9.37v-1.87H182.5v-1.87h3.75v1.88h5.63v-5.62H182.5v-2.81Z"/><path class="cls-6" d="M201.25,465.94V465h5.63v1.88h1.88v1.88h1.88v5.63h-1.87v1.88h-1.87v1.88h-5.62v-1.87h-1.87v-1.87H197.5v-5.62h1.88v-1.87h1.88v-0.94Zm3.75,1.88v-0.94h-3.75v7.5h1.88v1.88h3.75v-7.5H205v-0.94Z"/><path class="cls-6" d="M227.5,471.56V465h9.38v1.88h1.88v1.88h1.88v5.63h-1.87v1.88h-1.87v1.88H227.5v-6.56Zm7.5-3.75v-0.94h-3.75v9.38H235v-1.87h1.88v-5.62H235v-0.94Z"/><path class="cls-6" d="M244.38,465.94V465h11.25v1.88h-3.75v9.38h3.75v1.88H244.38v-1.87h3.75v-9.37h-3.75v-0.94Z"/><path class="cls-6" d="M261.25,465.94V465h9.38v1.88h-7.5v1.88h-1.87v5.63h1.88v1.88h3.75V472.5H265v-1.87h5.63v7.5h-9.37v-1.87h-1.87v-1.87H257.5v-5.62h1.88v-1.87h1.88v-0.94Z"/><path class="cls-6" d="M274.38,471.56V465h3.75v11.25h7.5v1.88H274.38v-6.56Z"/><path class="cls-6" d="M287.5,471.56V465h13.13v1.88h-9.37v3.75h7.5v1.88h-7.5v3.75h9.38v1.88H287.5v-6.56Z"/><path class="cls-6" d="M304.38,465.94V465h11.25v1.88h-3.75v11.25h-3.75V466.88h-3.75v-0.94Z"/><path class="cls-6" d="M319.38,465.94V465h11.25v1.88h-3.75v11.25h-3.75V466.88h-3.75v-0.94Z"/></svg>