<?xml version="1.0" ?><svg id="pkft" viewBox="0 0 500 500" xmlns="http://www.w3.org/2000/svg"><defs><style>.cls-1{fill:#99411a;}.cls-2{fill:#ff7fc7;}.cls-3{fill:#fff;}.cls-4{fill:#1a1a1a;}.cls-5{fill:#a84c1e;}.cls-6,.cls-7{fill:none;}.cls-6{stroke:#1a1a1a;stroke-linecap:round;stroke-linejoin:round;stroke-width:2px;}.cls-8{fill:#a0684b;}.cls-9{opacity:0.1;}.cls-10{fill:#1d1d1b;}</style></defs><title/><path class="cls-1" d="M164.5,139.22A48.56,48.56,0,0,0,116,188.11V323.78l85,9.63V221.11c0-12.39,5-23.7,12-32.32v-0.68A48.56,48.56,0,0,0,164.5,139.22ZM139.59,198.7c-2,0-3.67-5.11-3.67-11.41a30,30,0,0,1,.71-6.72c0.67-2.84,1.74-4.69,3-4.69s2.29,1.85,3,4.69a30,30,0,0,1,.71,6.72C143.26,193.6,141.62,198.7,139.59,198.7Zm25.67,24.44c-9.68,0-17.52-4.92-17.52-11s7.84-11,17.52-11,17.52,4.93,17.52,11S174.93,223.15,165.26,223.15ZM189.7,198.7c-2,0-3.67-5.11-3.67-11.41a30,30,0,0,1,.71-6.72c0.67-2.84,1.74-4.69,3-4.69s2.29,1.85,3,4.69a30,30,0,0,1,.71,6.72C193.37,193.6,191.73,198.7,189.7,198.7Z"/><path class="cls-2" d="M233.3,245.15c0,5.9,7.7,10.71,16.7,11V234.17C241,234.44,233.3,239.25,233.3,245.15Z"/><path class="cls-3" d="M225.15,218.26c1.22,0,2.29-1.85,3-4.68-0.67-2.84-1.74-4.69-3-4.69s-2.29,1.85-3,4.69C222.86,216.41,223.93,218.26,225.15,218.26Z"/><ellipse class="cls-2" cx="165.26" cy="212.15" rx="17.52" ry="11"/><path class="cls-4" d="M139.59,185.26c-1.22,0-2.29-1.85-3-4.68a30,30,0,0,0-.71,6.72c0,6.3,1.64,11.41,3.67,11.41s3.67-5.11,3.67-11.41a30,30,0,0,0-.71-6.72C141.88,183.41,140.81,185.26,139.59,185.26Z"/><path class="cls-3" d="M139.59,185.26c1.22,0,2.29-1.85,3-4.68-0.67-2.84-1.74-4.69-3-4.69s-2.29,1.85-3,4.69C137.3,183.41,138.38,185.26,139.59,185.26Z"/><path class="cls-4" d="M189.7,185.26c-1.22,0-2.29-1.85-3-4.68a30,30,0,0,0-.71,6.72c0,6.3,1.64,11.41,3.67,11.41s3.67-5.11,3.67-11.41a30,30,0,0,0-.71-6.72C192,183.41,190.92,185.26,189.7,185.26Z"/><path class="cls-3" d="M189.7,185.26c1.22,0,2.29-1.85,3-4.68-0.67-2.84-1.74-4.69-3-4.69s-2.29,1.85-3,4.69C187.41,183.41,188.49,185.26,189.7,185.26Z"/><path class="cls-5" d="M250,234.17v-62a49,49,0,0,0-49,48.89V356.78l49,5.5V256.12c-9-.27-16.7-5.07-16.7-11S241,234.44,250,234.17Z"/><path class="cls-6" d="M218.22,224.78s6.11-23,13.65,0"/><ellipse class="cls-7" cx="165.26" cy="212.15" rx="17.52" ry="11"/><path class="cls-7" d="M139.59,175.89c-1.22,0-2.29,1.85-3,4.69a30,30,0,0,0-.71,6.72c0,6.3,1.64,11.41,3.67,11.41s3.67-5.11,3.67-11.41a30,30,0,0,0-.71-6.72C141.88,177.74,140.81,175.89,139.59,175.89Z"/><path class="cls-7" d="M189.7,175.89c-1.22,0-2.29,1.85-3,4.69a30,30,0,0,0-.71,6.72c0,6.3,1.64,11.41,3.67,11.41s3.67-5.11,3.67-11.41a30,30,0,0,0-.71-6.72C192,177.74,190.92,175.89,189.7,175.89Z"/><path class="cls-7" d="M111.32,307.44l0.27-.1-0.23-.16C111.35,307.26,111.34,307.35,111.32,307.44Z"/><path class="cls-8" d="M248.78,331.11a12.27,12.27,0,0,0-2.29.22,12.19,12.19,0,0,0-19.71-.2,12.2,12.2,0,0,0-15.68-3.39,12.06,12.06,0,0,0-11.57-5.08,12.21,12.21,0,0,0-22.16,1.93,12.17,12.17,0,0,0-4.38-.82,12.22,12.22,0,0,0-20.08-9.36,12,12,0,0,0-8.11.64,12.22,12.22,0,0,0-12.14-10.84,11.77,11.77,0,0,0-9.55,4.91,13.35,13.35,0,0,0-7.11-2.46V293.24a7.66,7.66,0,0,0-7.44,6.4,8,8,0,0,0-4.71-1.53,7.92,7.92,0,0,0-3.72.92,7.8,7.8,0,0,0-6.26-.48,7.73,7.73,0,0,0-9.57,0,7.74,7.74,0,1,0-2.55,15h0.14a7.73,7.73,0,0,0,6.81,4.88c0,0.14,0,.28,0,0.43a12.23,12.23,0,0,0,14.68,12c0,0.08,0,.16,0,0.25a12.22,12.22,0,0,0,23.08,5.6,12.1,12.1,0,0,0,1.46.76A12.2,12.2,0,0,0,149,344.22a12.21,12.21,0,0,0,19.55,6.08,12.19,12.19,0,0,0,17.87,7.27,12.15,12.15,0,0,0,12.64-.25,12.17,12.17,0,0,0,5.36,2.79,12.22,12.22,0,0,0,21.45,2.3,12.07,12.07,0,0,0,8.64-.76,12.21,12.21,0,0,0,10.58,6.12,10.57,10.57,0,0,0,4.89-1V331.17A7.72,7.72,0,0,0,248.78,331.11ZM111.32,307.44c0-.09,0-0.18,0-0.26l0.23,0.16Z"/><path class="cls-1" d="M287,188.11v0.68c7,8.62,12,19.93,12,32.32V333.4l85-9.62V188.11A48.5,48.5,0,1,0,287,188.11Zm69.74-.81a30,30,0,0,1,.71-6.72c0.67-2.84,1.74-4.69,3-4.69s2.29,1.85,3,4.69a30,30,0,0,1,.71,6.72c0,6.3-1.64,11.41-3.67,11.41S356.74,193.6,356.74,187.3Zm-39.52,24.85c0-6.07,7.84-11,17.52-11s17.52,4.93,17.52,11-7.84,11-17.52,11S317.22,218.22,317.22,212.15ZM306.63,187.3a30,30,0,0,1,.71-6.72c0.67-2.84,1.74-4.69,3-4.69s2.29,1.85,3,4.69a30,30,0,0,1,.71,6.72c0,6.3-1.64,11.41-3.67,11.41S306.63,193.6,306.63,187.3Z"/><path class="cls-2" d="M266.7,245.15c0,5.9-7.7,10.71-16.7,11V234.17C259,234.44,266.7,239.25,266.7,245.15Z"/><path class="cls-3" d="M274.85,218.26c-1.22,0-2.29-1.85-3-4.68,0.67-2.84,1.74-4.69,3-4.69s2.29,1.85,3,4.69C277.14,216.41,276.07,218.26,274.85,218.26Z"/><ellipse class="cls-2" cx="334.74" cy="212.15" rx="17.52" ry="11"/><path class="cls-4" d="M360.41,185.26c1.22,0,2.29-1.85,3-4.68a30,30,0,0,1,.71,6.72c0,6.3-1.64,11.41-3.67,11.41s-3.67-5.11-3.67-11.41a30,30,0,0,1,.71-6.72C358.12,183.41,359.19,185.26,360.41,185.26Z"/><path class="cls-3" d="M360.41,185.26c-1.22,0-2.29-1.85-3-4.68,0.67-2.84,1.74-4.69,3-4.69s2.29,1.85,3,4.69C362.7,183.41,361.62,185.26,360.41,185.26Z"/><path class="cls-4" d="M310.3,185.26c1.22,0,2.29-1.85,3-4.68a30,30,0,0,1,.71,6.72c0,6.3-1.64,11.41-3.67,11.41s-3.67-5.11-3.67-11.41a30,30,0,0,1,.71-6.72C308,183.41,309.08,185.26,310.3,185.26Z"/><path class="cls-3" d="M310.3,185.26c-1.22,0-2.29-1.85-3-4.68,0.67-2.84,1.74-4.69,3-4.69s2.29,1.85,3,4.69C312.59,183.41,311.51,185.26,310.3,185.26Z"/><path class="cls-5" d="M250,234.17v-62a49,49,0,0,1,49,48.89V356.78l-49,5.5V256.12c9.29-.27,16.7-5.07,16.7-11S260,234.44,250,234.17Z"/><path class="cls-6" d="M281.78,224.78s-6.11-23-13.65,0"/><ellipse class="cls-7" cx="334.74" cy="212.15" rx="17.52" ry="11"/><path class="cls-7" d="M360.41,175.89c1.22,0,2.29,1.85,3,4.69a30,30,0,0,1,.71,6.72c0,6.3-1.64,11.41-3.67,11.41s-3.67-5.11-3.67-11.41a30,30,0,0,1,.71-6.72C358.12,177.74,359.19,175.89,360.41,175.89Z"/><path class="cls-7" d="M310.3,175.89c1.22,0,2.29,1.85,3,4.69a30,30,0,0,1,.71,6.72c0,6.3-1.64,11.41-3.67,11.41s-3.67-5.11-3.67-11.41a30,30,0,0,1,.71-6.72C308,177.74,309.08,175.89,310.3,175.89Z"/><path class="cls-7" d="M388.68,307.44l-0.27-.1,0.23-.16C388.65,307.26,388.66,307.35,388.68,307.44Z"/><path class="cls-8" d="M250,331.17v35.58a12.2,12.2,0,0,0,15.47-5.09,12.07,12.07,0,0,0,8.64.76,12.22,12.22,0,0,0,21.45-2.3,12.17,12.17,0,0,0,5.36-2.79,12.15,12.15,0,0,0,12.64.25,12.19,12.19,0,0,0,17.87-7.27A12.21,12.21,0,0,0,351,344.22a12.2,12.2,0,0,0,21.15-6.75,12.1,12.1,0,0,0,1.46-.76,12.22,12.22,0,0,0,23.08-5.6c0-.08,0-0.16,0-0.25a12.23,12.23,0,0,0,14.68-12c0-.14,0-0.28,0-0.43a7.73,7.73,0,0,0,6.81-4.88h0.14a7.74,7.74,0,1,0-2.55-15,7.71,7.71,0,0,0-9.56,0,7.7,7.7,0,0,0-6.22.48,7.7,7.7,0,0,0-3.67-.92,8.38,8.38,0,0,0-4.82,1.53,7.66,7.66,0,0,0-7.44-6.4v13.42a13.35,13.35,0,0,0-7.11,2.46,12,12,0,0,0-9.66-4.91,12.17,12.17,0,0,0-12.08,10.84,11.93,11.93,0,0,0-8.07-.64A12.21,12.21,0,0,0,327,323.78a12.16,12.16,0,0,0-4.37.82,12.21,12.21,0,0,0-22.16-1.93,12.06,12.06,0,0,0-11.56,5.08,12.2,12.2,0,0,0-15.68,3.39,12.19,12.19,0,0,0-19.71.2,12.27,12.27,0,0,0-2.29-.22C250.81,331.11,250.4,331.13,250,331.17Zm138.41-23.84,0.23-.16c0,0.09,0,.18,0,0.26Z"/><g class="cls-9"><path class="cls-10" d="M266.7,245.15c0-5.9-7.7-10.7-16.7-11v21.95C259,255.85,266.7,251.05,266.7,245.15Z"/><path class="cls-10" d="M418.26,298.11a7.72,7.72,0,0,0-2.55.44,7.71,7.71,0,0,0-9.56,0,7.7,7.7,0,0,0-6.22.48,7.7,7.7,0,0,0-3.67-.92,8.37,8.37,0,0,0-4.82,1.53,7.66,7.66,0,0,0-7.44-6.4V188.11a48.5,48.5,0,1,0-97,0v0.68a56.76,56.76,0,0,1,4.38,6.21,49.68,49.68,0,0,0-4.66-6.21A48.25,48.25,0,0,0,250,172.22v62c10,0.27,16.7,5.07,16.7,11s-7.41,10.71-16.7,11V366.75a12.2,12.2,0,0,0,15.47-5.09,12.07,12.07,0,0,0,8.64.76,12.22,12.22,0,0,0,21.45-2.3,12.17,12.17,0,0,0,5.36-2.79,12.15,12.15,0,0,0,12.64.25,12.19,12.19,0,0,0,17.87-7.27A12.21,12.21,0,0,0,351,344.22a12.2,12.2,0,0,0,21.15-6.75,12.1,12.1,0,0,0,1.46-.76,12.22,12.22,0,0,0,23.08-5.6c0-.08,0-0.16,0-0.25a12.23,12.23,0,0,0,14.68-12c0-.14,0-0.28,0-0.43a7.73,7.73,0,0,0,6.81-4.88h0.14A7.74,7.74,0,1,0,418.26,298.11Z"/></g><path class="cls-1" d="M171.25,465.94V465h5.63v1.88h1.88v1.88h1.88v5.63h-1.87v1.88h-1.87v1.88h-5.62v-1.87h-1.87v-1.87H167.5v-5.62h1.88v-1.87h1.88v-0.94Zm3.75,1.88v-0.94h-3.75v7.5h1.88v1.88h3.75v-7.5H175v-0.94Z"/><path class="cls-1" d="M182.5,467.81V465h11.25v1.88h-7.5v1.88h7.5v1.88h1.88v5.63h-1.87v1.88h-9.37v-1.87H182.5v-1.87h3.75v1.88h5.63v-5.62H182.5v-2.81Z"/><path class="cls-1" d="M203.13,465.94V465h3.75v11.25h3.75v1.88H199.38v-1.87h3.75v-7.5h-1.87v-1.87h1.88v-0.94Z"/><path class="cls-1" d="M227.5,471.56V465h9.38v1.88h1.88v1.88h1.88v5.63h-1.87v1.88h-1.87v1.88H227.5v-6.56Zm7.5-3.75v-0.94h-3.75v9.38H235v-1.87h1.88v-5.62H235v-0.94Z"/><path class="cls-1" d="M242.5,470.63V465h3.75v11.25h5.63V465h3.75v11.25h-1.87v1.88h-9.37v-1.87H242.5v-5.62Z"/><path class="cls-1" d="M261.25,465.94V465h9.38v1.88h-7.5v1.88h-1.87v5.63h1.88v1.88h3.75V472.5H265v-1.87h5.63v7.5h-9.37v-1.87h-1.87v-1.87H257.5v-5.62h1.88v-1.87h1.88v-0.94Z"/><path class="cls-1" d="M274.38,465.94V465h11.25v1.88h-3.75v11.25h-3.75V466.88h-3.75v-0.94Z"/><path class="cls-1" d="M287.5,471.56V465h11.25v1.88h1.88v5.63h-3.75v1.88h1.88v1.88h1.88v1.88H295v-1.87h-1.87v-1.87h-1.87v3.75H287.5v-6.56Zm9.38-2.81v-1.87h-5.62v5.63H295v-1.87h1.88v-1.87Z"/><path class="cls-1" d="M304.38,465.94V465h11.25v1.88h-3.75v9.38h3.75v1.88H304.38v-1.87h3.75v-9.37h-3.75v-0.94Z"/><path class="cls-1" d="M319.38,465.94V465h9.38v1.88h1.88v9.38h-1.87v1.88h-9.37v-1.87H317.5v-9.37h1.88v-0.94Zm7.5,5.63v-4.69h-5.62v9.38h5.63v-4.69Z"/></svg>