<?xml version="1.0" ?><svg id="pkft" viewBox="0 0 500 500" xmlns="http://www.w3.org/2000/svg"><defs><style>.cls-1{fill:#2f2b35;}.cls-2{fill:#f7b9a3;}.cls-3{fill:#efe3b1;}.cls-4{fill:#fff;}.cls-5{fill:#f7bf0f;}.cls-6{fill:#f8eec0;}.cls-7{fill:#3d3b80;}.cls-8{fill:#e5d8a5;}.cls-9{fill:#d97f3f;}.cls-10{opacity:0.1;}.cls-11{fill:#1a1a1a;}.cls-12{fill:#c4ac60;}</style></defs><title/><path class="cls-1" d="M179,126.62s16.76,3.22,34.56,17q3.83-1.32,7.84-2.37c-22.26-28-51.41-33.37-51.41-33.37-21.33,22.67-4.95,77.13-4.95,77.13h0a39.09,39.09,0,0,1,3.85-7.46C167,160.43,167.51,138.82,179,126.62Z"/><path class="cls-2" d="M213.56,143.61c-17.81-13.78-34.56-17-34.56-17-11.49,12.21-12,33.56-10.1,50.67C178.16,162.34,194,150.35,213.56,143.61Z"/><path class="cls-3" d="M200.65,226.86l11,9.38c2.5-2.43,12.09-9.65,38.33-10.74V179h-3.5A12.8,12.8,0,0,1,234,166.62v-27.9c-1.84.26-3.65,0.57-5.45,0.92C226.4,130.43,217,91.8,210,87.62c0,0,11.87,38.81,11.41,53.62q-4,1-7.84,2.37c-19.54,6.74-35.41,18.73-44.66,33.67a62.1,62.1,0,0,0-3.85,7.21,58.52,58.52,0,0,0-2.41,6.28c-17.76-1.27-61.44-3.84-67.94,1.06,0,0,43.53,1.12,66.33,5.25a54.56,54.56,0,0,0-.59,17.5c-18.36,3.91-58.55,13.08-63.29,19.38,0,0,41.25-10.69,64.45-13.15,5.72,23.33,26.34,42.55,53.86,51.46-0.06.13-.12,0.46-0.18,0.59C156.8,290.08,149.6,263,149.6,263H128.33c35.49,48,83.14,12.87,86.89,10-6,13-9.56,27.83-9.56,40.71,0,12.2,3.21,20.64,8.62,26.45-9.38,4.42-12.14,22.76-13,32.94-4.15.69-8.47,1.58-12.88,2.73a131.12,131.12,0,0,0-24.15,8.75c-3.49,7.29-2.85,17.54,18.06,26.5a142.87,142.87,0,0,0,14.5-3c26.54-6.93,46.17-19.76,43.85-28.67-1.29-4.95-9.1-7.64-20.33-7.87,0.24-7.18,3.1-16.9,5.47-23.8,6.95,2.72,15.23,3.71,24.14,3.71V227.52c-14.5.64-23.73,3.18-29.41,5.63l-3.75,11.64-5-6.17h-0.1a1,1,0,0,1-.65-0.24l-11.75-10A1,1,0,0,1,200.65,226.86Z"/><path class="cls-4" d="M188,204.45s18.33,36.67,51.67-1.17C239.67,203.29,206.33,123.79,188,204.45Z"/><path class="cls-5" d="M234,162.68v3.94A12.8,12.8,0,0,0,246.5,179H250V161.42A136.56,136.56,0,0,0,234,162.68Z"/><path class="cls-5" d="M250,108h-3.5a11.87,11.87,0,0,0-11.25,7.69A129.52,129.52,0,0,1,250,114.4V108Z"/><path class="cls-5" d="M250,116.42a128.4,128.4,0,0,0-15.32,1.23V117.6l-0.39.05a12,12,0,0,0-.3,2v11a137.91,137.91,0,0,1,16-1.2v-13Z"/><path class="cls-5" d="M250,131.42a136.56,136.56,0,0,0-16,1.26v6a115.78,115.78,0,0,1,16-1.1v-6.2Z"/><path class="cls-5" d="M250,144.4v-6.78a115.78,115.78,0,0,0-16,1.1v6.87A138.12,138.12,0,0,1,250,144.4Z"/><path class="cls-5" d="M250,146.42a136.56,136.56,0,0,0-16,1.26v12.92a137.91,137.91,0,0,1,16-1.2v-13Z"/><path d="M250,114.4a133.15,133.15,0,0,0-14.75,1.1,11.85,11.85,0,0,0-.56,2.1A130.66,130.66,0,0,1,250,116.41v-2Z"/><path d="M250,116.42h0a130.66,130.66,0,0,0-15.31,1.18v0.05A128.4,128.4,0,0,1,250,116.42Z"/><path d="M250,159.4a137.91,137.91,0,0,0-16,1.2v2.08a136.56,136.56,0,0,1,16-1.26v-2Z"/><path d="M250,144.4a138.12,138.12,0,0,0-16,1.2v2.08a136.56,136.56,0,0,1,16-1.26v-2Z"/><path d="M250,129.4a137.91,137.91,0,0,0-16,1.2v2.08a136.56,136.56,0,0,1,16-1.26v-2Z"/><path class="cls-6" d="M220.58,233.15c-6,2.56-8,5-8,5.08S214.63,235.71,220.58,233.15Z"/><polygon class="cls-4" points="220.59 233.15 220.59 233.15 220.59 233.15 220.59 233.15"/><path class="cls-4" d="M220.59,233.15h0c-5.95,2.56-8,5-8,5.08a1,1,0,0,1-.69.38l5,6.17Z"/><path d="M211.67,236.24l-11-9.38a1,1,0,0,0-1.3,1.52l11.75,10a1.21,1.21,0,0,0,.72.24H212a2.68,2.68,0,0,0,.82-0.38c0-.06,2.18-2.52,8.18-5.08,5-2.45,14.5-5,29-5.63v-2C223.76,226.59,214.17,233.8,211.67,236.24Z"/><path class="cls-7" d="M219.67,196.29c-2.49,0-4.5-4.55-4.5-10.17,0-4.59,1.35-8.47,3.2-9.73a1.26,1.26,0,0,0-.7-0.27c-2.49,0-4.5,9-4.5,20s2,20,4.5,20,4.5-9,4.5-20c0-.51,0-1,0-1.52A3.17,3.17,0,0,1,219.67,196.29Z"/><path class="cls-8" d="M148,238.29a6.59,6.59,0,0,0-5,2.69,6,6,0,0,0-10,0,6.59,6.59,0,0,0-5-2.69c-4.6,0-8.33,6-8.33,13.33S123.4,265,128,265a6.59,6.59,0,0,0,5-2.69,6,6,0,0,0,10,0,6.59,6.59,0,0,0,5,2.69c4.6,0,8.33-6,8.33-13.33S152.6,238.29,148,238.29Z"/><path class="cls-9" d="M164.31,384.58c-13.23,6.47-21.23,14-19.7,19.91,1.89,7.23,17.68,9.65,37.77,6.59C161.46,402.12,160.82,391.87,164.31,384.58Z"/><path class="cls-1" d="M320.71,126.62s-16.76,3.22-34.56,17q-3.83-1.32-7.84-2.37c22.26-28,51.41-33.37,51.41-33.37C351,130.54,334.65,185,334.65,185h0a39.09,39.09,0,0,0-3.85-7.46C332.74,160.43,332.19,138.82,320.71,126.62Z"/><path class="cls-2" d="M286.14,143.61c17.81-13.78,34.56-17,34.56-17,11.49,12.21,12,33.56,10.1,50.67C321.55,162.34,305.68,150.35,286.14,143.61Z"/><path class="cls-3" d="M299.06,226.86l-10.87,9.38c-2.5-2.43-12.18-9.65-38.18-10.74V179h3.21c6.6,0,12.79-5.78,12.79-12.38v-27.9c2,0.26,3.51.57,5.3,0.92,2.14-9.21,11.43-47.84,18.47-52,0,0-11.91,38.81-11.44,53.62,2.67,0.7,5.27,1.49,7.83,2.37,19.54,6.74,35.4,18.73,44.65,33.67a62.06,62.06,0,0,1,3.85,7.21,58.5,58.5,0,0,1,2.41,6.28c17.76-1.27,61.44-3.84,67.94,1.06,0,0-43.53,1.12-66.33,5.25a54.57,54.57,0,0,1,.59,17.5c18.36,3.91,58.55,13.08,63.29,19.38,0,0-41.25-10.69-64.45-13.15-5.72,23.33-26.34,42.55-53.86,51.46,0.06,0.13.12,0.46,0.18,0.59C342.9,290.08,350.1,263,350.1,263h21.27c-35.49,48-83.14,12.87-86.89,10,6,13,9.56,27.83,9.56,40.71,0,12.2-3.21,20.64-8.62,26.45,9.38,4.42,12.14,22.76,13,32.94,4.15,0.69,8.47,1.58,12.88,2.73a131.12,131.12,0,0,1,24.15,8.75c3.49,7.29,2.85,17.54-18.06,26.5a142.87,142.87,0,0,1-14.5-3c-26.54-6.93-46.17-19.76-43.85-28.67,1.29-4.95,9.1-7.64,20.33-7.87-0.24-7.18-3-16.9-5.32-23.8-6.95,2.72-15,3.71-24,3.71V227.52c14,0.64,23.59,3.18,29.27,5.63l3.68,11.64,4.94-6.17H288a1,1,0,0,0,.64-0.24l11.75-10A1,1,0,0,0,299.06,226.86Z"/><path class="cls-4" d="M311.71,204.45s-18.33,36.67-51.67-1.17C260,203.29,293.37,123.79,311.71,204.45Z"/><path class="cls-5" d="M266,162.68v3.94c0,6.6-6.19,12.38-12.79,12.38H250V161.42A146.94,146.94,0,0,1,266,162.68Z"/><path class="cls-5" d="M250,108h3.21a12.06,12.06,0,0,1,11.4,7.69A140.1,140.1,0,0,0,250,114.4V108Z"/><path class="cls-5" d="M250,116.42a123.56,123.56,0,0,1,15.18,1.23s-0.08,0-.09-0.05l0.5,0.05a12.16,12.16,0,0,1,.41,2v11a148,148,0,0,0-16-1.2v-13Z"/><path class="cls-5" d="M250,131.42a146.94,146.94,0,0,1,16,1.26v6a118.74,118.74,0,0,0-16-1.1v-6.2Z"/><path class="cls-5" d="M250,144.4v-6.78a118.74,118.74,0,0,1,16,1.1v6.87A148.24,148.24,0,0,0,250,144.4Z"/><path class="cls-5" d="M250,146.42a146.94,146.94,0,0,1,16,1.26v12.92a148,148,0,0,0-16-1.2v-13Z"/><path d="M250,114.4a142.3,142.3,0,0,1,14.6,1.1,12,12,0,0,1,.63,2.1A126.94,126.94,0,0,0,250,116.41v-2Z"/><path d="M250,116.42h0a125.59,125.59,0,0,1,15.16,1.18s0.08,0,.09.05A124.88,124.88,0,0,0,250,116.42Z"/><path d="M250,159.4a148,148,0,0,1,16,1.2v2.08a146.94,146.94,0,0,0-16-1.26v-2Z"/><path d="M250,144.4a148.24,148.24,0,0,1,16,1.2v2.08a146.94,146.94,0,0,0-16-1.26v-2Z"/><path d="M250,129.4a148,148,0,0,1,16,1.2v2.08a146.94,146.94,0,0,0-16-1.26v-2Z"/><path class="cls-6" d="M279.12,233.15c6,2.56,8,5,8,5.08S285.07,235.71,279.12,233.15Z"/><polygon class="cls-4" points="279.12 233.15 279.12 233.15 279.12 233.15 279.12 233.15"/><path class="cls-4" d="M279.12,233.15h0c5.95,2.56,8,5,8,5.08a1,1,0,0,0,.69.38l-5,6.17Z"/><path d="M288.18,236.24l10.95-9.38a1,1,0,0,1,1.37.11,1,1,0,0,1-.13,1.41l-11.76,10a1.22,1.22,0,0,1-.73.24h-0.18a2.69,2.69,0,0,1-.82-0.38c0-.06-2-2.52-8-5.08-5-2.45-14.85-5-28.85-5.63v-2C276,226.59,285.68,233.8,288.18,236.24Z"/><path class="cls-7" d="M280,196.29c2.49,0,4.5-4.55,4.5-10.17,0-4.59-1.35-8.47-3.2-9.73a1.26,1.26,0,0,1,.7-0.27c2.49,0,4.5,9,4.5,20s-2,20-4.5,20-4.5-9-4.5-20c0-.51,0-1,0-1.52A3.17,3.17,0,0,0,280,196.29Z"/><path class="cls-8" d="M351.71,238.29a6.59,6.59,0,0,1,5,2.69,6,6,0,0,1,10,0,6.59,6.59,0,0,1,5-2.69c4.6,0,8.33,6,8.33,13.33S376.31,265,371.71,265a6.59,6.59,0,0,1-5-2.69,6,6,0,0,1-10,0,6.59,6.59,0,0,1-5,2.69c-4.6,0-8.33-6-8.33-13.33S347.1,238.29,351.71,238.29Z"/><path class="cls-9" d="M335.39,384.58c13.23,6.47,21.23,14,19.7,19.91-1.89,7.23-17.68,9.65-37.77,6.59C338.24,402.12,338.89,391.87,335.39,384.58Z"/><g class="cls-10"><path class="cls-11" d="M338.1,220.82c23.2,2.46,64.45,13.15,64.45,13.15-4.74-6.3-44.93-15.47-63.29-19.38a54.56,54.56,0,0,0-.59-17.5C361.47,193,405,191.84,405,191.84c-6.5-4.9-50.17-2.33-67.94-1.06a58.57,58.57,0,0,0-2.39-6.23c0.64-2.16,15.92-54.66-5-76.86,0,0-29.11,5.51-51.37,33.52-0.44-14.84,11.44-53.58,11.44-53.58-7,4.18-16.33,42.81-18.47,52-1.8-.34-3.3-0.66-5.3-0.92v-19.1a12.16,12.16,0,0,0-.41-2l-0.41,0h0A125.59,125.59,0,0,0,250,116.41h0a125,125,0,0,1,15.15,1.22h0A123.56,123.56,0,0,0,250,116.42v111.1a101.88,101.88,0,0,1,22,3.15,103,103,0,0,0-22-3.15V351.45c9,0,17-1,24-3.71,2.36,6.9,5.08,16.63,5.32,23.8-11.23.23-19,2.92-20.33,7.87-2.32,8.91,17.31,21.74,43.85,28.67a142.85,142.85,0,0,0,14.5,3c20.09,3.06,35.88.64,37.77-6.59,1.53-5.87-6.47-13.44-19.7-19.91a131.11,131.11,0,0,0-24.15-8.76c-4.41-1.15-8.73-2.06-12.88-2.75-0.81-10.18-3.57-28.54-13-33,5.42-5.81,8.62-14.3,8.62-26.5,0-12.88-3.58-27.84-9.56-40.8,3.7,2.83,50.06,36.82,85.37-8.21a5.34,5.34,0,0,0,1.85.34c4.6,0,8.33-6,8.33-13.33s-3.73-13.33-8.33-13.33a6.59,6.59,0,0,0-5,2.69,6,6,0,0,0-10,0,6.59,6.59,0,0,0-5-2.69c-4.6,0-8.33,6-8.33,13.33,0,6.07,2.53,11.18,6,12.79-2.87,5.78-15.8,22.73-65,8.27l-0.18-.4C311.76,263.37,332.38,244.15,338.1,220.82ZM367,262.62h-0.63l0.32-.35Zm-10,0h-0.63l0.32-.35Zm-26.21-85.34h0a127.56,127.56,0,0,0,.86-15.09A127.57,127.57,0,0,1,330.81,177.28Zm1.13,1.91a30.87,30.87,0,0,1,2.38,4.6Q333.24,181.45,331.94,179.19Zm-32.89,47.67a1,1,0,0,1,.75-0.23,1,1,0,0,0-.67.23l-10.95,9.38ZM282.95,245l0,0,4.92-6h0Zm5-6.36h-0.06a1.2,1.2,0,0,0,.7-0.23A1,1,0,0,1,288,238.62Z"/><path class="cls-11" d="M264.6,115.69a12.06,12.06,0,0,0-11.4-7.69H250v8.41a125,125,0,0,1,15.24,1.28A11,11,0,0,0,264.6,115.69Z"/></g><path class="cls-12" d="M178.75,465.94V465h5.63v1.88h1.88v1.88h1.88v5.63h-1.87v1.88h-1.87v1.88h-5.62v-1.87h-1.87v-1.87H175v-5.62h1.88v-1.87h1.88v-0.94Zm3.75,1.88v-0.94h-3.75v7.5h1.88v1.88h3.75v-7.5H182.5v-0.94Z"/><path class="cls-12" d="M190,467.81V465h11.25v1.88h-7.5v1.88h7.5v1.88h1.88v5.63h-1.87v1.88h-9.37v-1.87H190v-1.87h3.75v1.88h5.63v-5.62H190v-2.81Z"/><path class="cls-12" d="M206.88,465.94V465h9.38v1.88h1.88v3.75h-1.87v1.88h-1.87v1.88h-3.75v1.88h7.5v1.88H205v-3.75h1.88V472.5h1.88v-1.87h3.75v-1.87h1.88v-1.87h-5.62v1.88H205v-1.87h1.88v-0.94Z"/><path class="cls-12" d="M235,471.56V465h3.75v1.88h1.88v1.88h1.88v-1.87h1.88V465h3.75v13.13h-3.75V472.5H242.5v1.88h-1.87V472.5h-1.87v5.63H235v-6.56Z"/><path class="cls-12" d="M250,471.56V465h13.13v1.88h-9.37v3.75h7.5v1.88h-7.5v3.75h9.38v1.88H250v-6.56Z"/><path class="cls-12" d="M266.88,465.94V465h9.38v1.88h1.88v9.38h-1.87v1.88h-9.37v-1.87H265v-9.37h1.88v-0.94Zm7.5,5.63v-4.69h-5.62v9.38h5.63v-4.69Z"/><path class="cls-12" d="M280,471.56V465h3.75v5.63h1.88v-1.87h1.88v1.88h1.88V465h3.75v13.13h-3.75v-1.87H287.5v-1.87h-1.87v1.88h-1.87v1.88H280v-6.56Z"/><path class="cls-12" d="M296.88,465.94V465h11.25v1.88h-3.75v11.25h-3.75V466.88h-3.75v-0.94Z"/><path class="cls-12" d="M310,471.56V465h3.75v5.63h5.63V465h3.75v13.13h-3.75V472.5h-5.62v5.63H310v-6.56Z"/></svg>