<?xml version="1.0" ?><svg id="pkft" viewBox="0 0 500 500" xmlns="http://www.w3.org/2000/svg"><defs><style>.cls-1{fill:none;}.cls-2{fill:#3b1e1c;}.cls-3{fill:#d6b296;}.cls-4{fill:#ead49d;}.cls-5{fill:#f1dda5;}.cls-6{fill:#dc4d64;}.cls-7{fill:#fff;}.cls-8{fill:#b62e2e;}.cls-9{fill:#e0c78d;}.cls-10{fill:#1a1a1a;opacity:0.1;}.cls-11{fill:#d1a556;}</style></defs><title/><path class="cls-1" d="M223.12,112.65c-9.42-10.5-20-9.09-20-9.09,0.7,56.8,29.54,26.84,29.54,26.84a50.9,50.9,0,0,0-7.91-15.75C224.23,113.95,223.68,113.28,223.12,112.65Z"/><path class="cls-2" d="M204.84,79.47A39.48,39.48,0,0,1,209,75.85c-4.09-12.76-52.26-43.72-57.46-12.64a27.49,27.49,0,0,0-.37,5.55C158.1,46.07,193.71,66,204.84,79.47Z"/><path class="cls-3" d="M204.84,79.47C193.71,66,158.1,46.07,151.17,68.75a24.26,24.26,0,0,0-.73,3.1c-4.69,28,34.63,43.58,42.43,46.38,1.26-4.89,2.43-8.19,2.43-8.19C193.65,96.13,198,86.34,204.84,79.47Z"/><path class="cls-1" d="M223.12,112.65c-9.42-10.5-20-9.09-20-9.09,0.28,23.2,5.27,31.93,11.06,34.13A209.24,209.24,0,0,1,223.4,113Z"/><path class="cls-4" d="M239.1,147.59c0,1,5.9,4,9.9,5.85v7.42c-4,1.6-10.43,3.51-12.81,2.5a1.18,1.18,0,0,1-.72-0.66,1.11,1.11,0,0,0-1.41-.65,1.08,1.08,0,0,0-.66,1.39,3.31,3.31,0,0,0,1.88,1.91,6.93,6.93,0,0,0,2.69.45c4.28,0,10-2.31,12-3v-14.8C246,147.35,239.1,146.58,239.1,147.59Z"/><path class="cls-4" d="M232.69,130.41a50.9,50.9,0,0,0-7.91-15.75c-0.46-.59-0.92-1.14-1.38-1.68a209.24,209.24,0,0,0-9.2,24.71C222.6,140.89,232.69,130.41,232.69,130.41Z"/><path class="cls-4" d="M242,95.64a8.27,8.27,0,0,0,8,7.93V87.71A8.27,8.27,0,0,0,242,95.64Z"/><path class="cls-5" d="M209,75.85a39.44,39.44,0,0,0-4.15,3.62c-6.85,6.88-11.19,16.66-9.54,30.58,0,0-1.17,3.29-2.43,8.19-0.56,2.16-1.13,4.62-1.63,7.26-3.3-1.58-17.66-6.9-51.2-.13,0,0,36.31-4,50.58,3.75a71.12,71.12,0,0,0-.84,9.66c-5.18-1.19-21.2-3-53.06,7.75,0,0,36.53-9.08,53.15-4.06a29.73,29.73,0,0,0,1.5,7.89c-5.76.07-23.94,2.08-57.66,20.87,0,0,40.48-18.82,59.43-17.19a12.9,12.9,0,0,0,5.8,5,61.87,61.87,0,0,1,8.41,4.46c12.3,7.77,18,17.4,20.76,18.6,3.28,1.44,15.88,9,21.88,9V162.75c-2,.73-7.74,3-12,3a7,7,0,0,1-2.7-.45,3.31,3.31,0,0,1-1.89-1.91A1.08,1.08,0,0,1,234,162a1.1,1.1,0,0,1,1.4.65,1.24,1.24,0,0,0,.74.66c2.38,1,8.81-.9,12.81-2.5v-7.42c-4-1.89-9.9-4.86-9.9-5.85s6.9-.24,10.9.36V103.56a7.93,7.93,0,1,1,0-15.85V63.21S225.3,63.5,209,75.85Zm5.22,61.85c-5.79-2.2-10.78-10.93-11.06-34.13,0,0,10.55-1.41,20,9.09L223.4,113c0.46,0.53.92,1.09,1.38,1.68a50.9,50.9,0,0,1,7.91,15.75S222.6,140.89,214.21,137.7Z"/><path class="cls-6" d="M242,95.64a8.27,8.27,0,0,0,8,7.93V87.71A8.27,8.27,0,0,0,242,95.64Z"/><path class="cls-7" d="M224.51,115c-5.92,7.93-11.18,14-11.75,13.6s3.77-7.17,9.69-15.1l0.67-.88c-9.42-10.5-20-9.09-20-9.09,0.7,56.8,29.54,26.84,29.54,26.84a50.9,50.9,0,0,0-7.91-15.75Z"/><path class="cls-8" d="M212.76,128.64c0.57,0.41,5.83-5.68,11.75-13.6l0.28-.37c-0.55-.71-1.1-1.38-1.67-2l-0.67.88C216.53,121.46,212.19,128.22,212.76,128.64Z"/><path class="cls-2" d="M239.1,147.59c0,1,5.9,4,9.9,5.85v-2.67c0-.6,0-1.08,1-1.08v-1.74C246,147.35,239.1,146.58,239.1,147.59Z"/><path class="cls-2" d="M249,153.44v7.42c-4,1.6-10.43,3.51-12.81,2.5a1.18,1.18,0,0,1-.72-0.66,1.11,1.11,0,0,0-1.41-.65,1.08,1.08,0,0,0-.66,1.39,3.31,3.31,0,0,0,1.88,1.91,6.93,6.93,0,0,0,2.69.45c4.28,0,10-2.31,12-3V154C250,153.8,249,153.62,249,153.44Z"/><path class="cls-2" d="M250,149.69c-1,0-1,.48-1,1.08v2.67c0,0.18,1,.36,1,0.52v-4.27Z"/><path class="cls-9" d="M206,431.47a10.65,10.65,0,0,1,3.44,7.77c6.37-.67,19.55-4.13,18.55-21.47V375.63c-10-13-18.25-34-24.06-57.55Z"/><path class="cls-4" d="M228.12,178.54c-2.72-1-8.47-8.74-20.76-15l0,0.16,0,0c21.91,17-4.22,105.87-4.22,105.87l0.32,18.16L204,318.08c5.81,23.58,14.19,44.5,24.12,57.55,6.7,8.81,13.88,14,21.88,14V185.82C244,185.82,231.4,179.7,228.12,178.54Z"/><path class="cls-5" d="M206,431.47l-2-113.39-0.54-30.41-0.32-18.16s26.13-88.88,4.22-105.87l0,0c-1.64,1.12-49.82,36.13-24.18,265.11a10.8,10.8,0,1,0,2.31,20.51,11,11,0,0,0,8.75,0,11,11,0,0,0,4.38.91,10.88,10.88,0,0,0,10.94-10.81c0-.05,0-0.1,0-0.15A10.71,10.71,0,0,0,206,431.47Z"/><path class="cls-1" d="M276.6,112.65c9.42-10.5,20-9.09,20-9.09-0.7,56.8-29.54,26.84-29.54,26.84a50.9,50.9,0,0,1,7.91-15.75C275.49,113.95,276,113.28,276.6,112.65Z"/><path class="cls-2" d="M294.88,79.47a39.48,39.48,0,0,0-4.15-3.62c4.09-12.76,52.26-43.72,57.46-12.64a27.49,27.49,0,0,1,.37,5.55C341.62,46.07,306,66,294.88,79.47Z"/><path class="cls-3" d="M294.88,79.47C306,66,341.62,46.07,348.55,68.75a24.26,24.26,0,0,1,.73,3.1c4.69,28-34.63,43.58-42.43,46.38-1.26-4.89-2.43-8.19-2.43-8.19C306.07,96.13,301.73,86.34,294.88,79.47Z"/><path class="cls-1" d="M276.6,112.65c9.42-10.5,20-9.09,20-9.09-0.28,23.2-5.27,31.93-11.06,34.13a209.24,209.24,0,0,0-9.2-24.71Z"/><path class="cls-4" d="M260.9,147.59c0,1-6.9,4-9.9,5.85v7.42c3,1.6,10.29,3.51,12.67,2.5a1,1,0,0,0,.65-0.66,1.07,1.07,0,1,1,2,.74,3.33,3.33,0,0,1-1.89,1.91,6.24,6.24,0,0,1-2.56.45c-4.28,0-10.89-2.31-11.89-3v-14.8C254,147.35,260.9,146.58,260.9,147.59Z"/><path class="cls-4" d="M267,130.41a50.9,50.9,0,0,1,7.91-15.75c0.46-.59.92-1.14,1.38-1.68a209.24,209.24,0,0,1,9.2,24.71C277.12,140.89,267,130.41,267,130.41Z"/><path class="cls-4" d="M258,95.64a8.27,8.27,0,0,1-8,7.93V87.71A8.27,8.27,0,0,1,258,95.64Z"/><path class="cls-5" d="M250,63.21v24.5a7.93,7.93,0,1,1,0,15.85v44.38c4-.6,10.9-1.37,10.9-0.36s-6.9,4-9.9,5.85v7.42c3,1.6,10.29,3.51,12.67,2.5a1,1,0,0,0,.65-0.66,1.07,1.07,0,1,1,2,.74,3.33,3.33,0,0,1-1.89,1.91,6.24,6.24,0,0,1-2.56.45c-4.28,0-10.89-2.31-11.89-3v28.37c5,0,18.45-7.57,21.74-9,2.72-1.2,8.4-10.83,20.69-18.6a61.36,61.36,0,0,1,8.38-4.46,12.85,12.85,0,0,0,5.78-5c19-1.63,59.42,17.19,59.42,17.19-33.72-18.8-51.9-20.8-57.66-20.87a29.73,29.73,0,0,0,1.5-7.89c16.62-5,53.14,4.06,53.14,4.06-31.86-10.8-47.88-8.95-53.06-7.75a71.12,71.12,0,0,0-.84-9.66c14.28-7.79,50.58-3.75,50.58-3.75-33.54-6.77-47.9-1.45-51.2.13-0.5-2.64-1.07-5.1-1.63-7.26-1.26-4.89-2.43-8.19-2.43-8.19,1.65-13.92-2.68-23.71-9.54-30.58a38,38,0,0,0-4-3.62C274.56,63.5,250,63.21,250,63.21Zm17,67.2a50.9,50.9,0,0,1,7.91-15.75c0.46-.59.92-1.14,1.38-1.68l0.29-.33c9.42-10.5,20-9.09,20-9.09-0.28,23.2-5.27,31.93-11.06,34.13C277.12,140.89,267,130.41,267,130.41Z"/><path class="cls-6" d="M258,95.64a8.27,8.27,0,0,1-8,7.93V87.71A8.27,8.27,0,0,1,258,95.64Z"/><path class="cls-7" d="M275.21,115c5.92,7.93,11.18,14,11.75,13.6s-3.77-7.17-9.69-15.1l-0.67-.88c9.42-10.5,20-9.09,20-9.09-0.7,56.8-29.54,26.84-29.54,26.84a50.9,50.9,0,0,1,7.91-15.75Z"/><path class="cls-8" d="M287,128.64c-0.57.41-5.83-5.68-11.75-13.6l-0.28-.37c0.55-.71,1.1-1.38,1.67-2l0.67,0.88C283.19,121.46,287.53,128.22,287,128.64Z"/><path class="cls-2" d="M260.9,147.59c0,1-6.9,4-9.9,5.85v-2.67a1.78,1.78,0,0,0-1-1.08v-1.74C254,147.35,260.9,146.58,260.9,147.59Z"/><path class="cls-2" d="M251,153.44v7.42c3,1.6,10.29,3.51,12.67,2.5a1,1,0,0,0,.65-0.66,1.07,1.07,0,1,1,2,.74,3.33,3.33,0,0,1-1.89,1.91,6.24,6.24,0,0,1-2.56.45c-4.28,0-10.89-2.31-11.89-3V154C250,153.8,250,153.62,251,153.44Z"/><path class="cls-2" d="M250,149.69a1.78,1.78,0,0,1,1,1.08v2.67c-1,.18-1,0.36-1,0.52v-4.27Z"/><path class="cls-9" d="M293.7,431.47a10.53,10.53,0,0,0-3.3,7.77c-6.37-.67-19.4-4.13-18.4-21.47V375.63c10-13,18.11-34,23.92-57.55Z"/><path class="cls-4" d="M271.74,178.54c2.72-1,8.4-8.74,20.69-15,0,0.05,0,.11,0,0.16l-0.06,0c-21.91,17,4.21,105.87,4.21,105.87l-0.33,18.16-0.54,30.41c-5.81,23.58-14.05,44.5-24,57.55-6.7,8.81-13.74,14-21.74,14V185.82C255,185.82,268.45,179.7,271.74,178.54Z"/><path class="cls-5" d="M293.7,431.47l2-113.39,0.54-30.41,0.32-18.16s-26.13-88.88-4.22-105.87l0,0c1.64,1.12,49.82,36.13,24.18,265.11a10.8,10.8,0,1,1-2.31,20.51,11,11,0,0,1-8.75,0,11,11,0,0,1-4.38.91,10.88,10.88,0,0,1-10.94-10.81c0-.05,0-0.1,0-0.15A10.71,10.71,0,0,1,293.7,431.47Z"/><path class="cls-10" d="M318.64,428.58a11,11,0,0,0-2.06.2c25.64-229-22.54-264-24.18-265.11l0,0h0l0.06,0c0-.05,0-0.11,0-0.16a61.33,61.33,0,0,1,8.38-4.46,12.85,12.85,0,0,0,5.78-5c19-1.63,59.42,17.19,59.42,17.19-33.72-18.8-51.9-20.8-57.66-20.87a29.73,29.73,0,0,0,1.5-7.89c16.62-5,53.14,4.06,53.14,4.06-31.86-10.8-47.88-8.95-53.06-7.75a71.12,71.12,0,0,0-.84-9.66c14.28-7.79,50.58-3.75,50.58-3.75-33.54-6.77-47.9-1.45-51.2.13-0.5-2.64-1.07-5.1-1.63-7.26h0c7.8-2.8,47.12-18.37,42.43-46.38a24.26,24.26,0,0,0-.73-3.1,27.49,27.49,0,0,0-.37-5.55c-5.19-31-53.15-.26-57.43,12.55C274.44,63.5,250,63.21,250,63.21V389.67c8,0,15-5.22,21.74-14,9.92-13,18.16-34,24-57.54l0,0.64c-5.8,23.31-13.75,44-23.75,56.9v42.14c-1,17.21,12,20.75,18,21.45v0c0,0.05.09,0.1,0.09,0.15a10.92,10.92,0,0,0,11,10.81,11.13,11.13,0,0,0,4.4-.91,11.07,11.07,0,0,0,8.77,0,11,11,0,0,0,4.38.91A10.81,10.81,0,1,0,318.64,428.58Z"/><path class="cls-11" d="M171.25,465.94V465h5.63v1.88h1.88v1.88h1.88v5.63h-1.87v1.88h-1.87v1.88h-5.62v-1.87h-1.87v-1.87H167.5v-5.62h1.88v-1.87h1.88v-0.94Zm3.75,1.88v-0.94h-3.75v7.5h1.88v1.88h3.75v-7.5H175v-0.94Z"/><path class="cls-11" d="M182.5,467.81V465h11.25v1.88h-7.5v1.88h7.5v1.88h1.88v5.63h-1.87v1.88h-9.37v-1.87H182.5v-1.87h3.75v1.88h5.63v-5.62H182.5v-2.81Z"/><path class="cls-11" d="M199.38,465.94V465h11.25v1.88h-1.87v1.88h-1.87v1.88h1.88v1.88h1.88v3.75h-1.87v1.88h-9.37v-1.87H197.5v-1.87h3.75v1.88h5.63V472.5h-5.62v-1.87h1.88v-1.87H205v-1.87h-5.62v-0.94Z"/><path class="cls-11" d="M227.5,471.56V465h11.25v1.88h1.88v5.63h-1.87v1.88h-7.5v3.75H227.5v-6.56Zm9.38-1.87v-2.81h-5.62v5.63h5.63v-2.81Z"/><path class="cls-11" d="M242.5,471.56V465h13.13v1.88h-9.37v3.75h7.5v1.88h-7.5v3.75h9.38v1.88H242.5v-6.56Z"/><path class="cls-11" d="M257.5,471.56V465h11.25v1.88h1.88v5.63h-3.75v1.88h1.88v1.88h1.88v1.88H265v-1.87h-1.87v-1.87h-1.87v3.75H257.5v-6.56Zm9.38-2.81v-1.87h-5.62v5.63H265v-1.87h1.88v-1.87Z"/><path class="cls-11" d="M274.38,465.94V465h7.5v1.88h1.88v1.88H280v-1.87h-3.75v3.75h7.5v1.88h1.88v3.75h-1.87v1.88h-9.37v-1.87H272.5v-1.87h3.75v1.88h5.63V472.5h-7.5v-1.87H272.5v-3.75h1.88v-0.94Z"/><path class="cls-11" d="M289.38,465.94V465h11.25v1.88h-3.75v9.38h3.75v1.88H289.38v-1.87h3.75v-9.37h-3.75v-0.94Z"/><path class="cls-11" d="M306.25,465.94V465h5.63v1.88h1.88v1.88h1.88v9.38h-3.75v-3.75h-5.62v3.75H302.5v-9.37h1.88v-1.87h1.88v-0.94Zm3.75,1.88v-0.94h-1.87v1.88h-1.87v3.75h5.63v-3.75H310v-0.94Z"/><path class="cls-11" d="M317.5,471.56V465h3.75v1.88h1.88v1.88H325v1.88h1.88V465h3.75v13.13h-3.75v-1.87H325v-1.87h-1.87V472.5h-1.87v5.63H317.5v-6.56Z"/></svg>