<?xml version="1.0" ?><svg id="pkft" viewBox="0 0 500 500" xmlns="http://www.w3.org/2000/svg"><defs><style>.cls-1{fill:#f4e190;}.cls-2{fill:#1a1a1a;}.cls-3{fill:none;}.cls-4{fill:#ffc82c;}.cls-5{fill:#f7b206;}.cls-6{fill:#efefc6;}.cls-7{fill:#fff;}.cls-8{fill:#9e8f80;}.cls-9{fill:#1d1d1b;opacity:0.1;}</style></defs><title/><path class="cls-1" d="M221.51,371a21.17,21.17,0,0,0-14-2.86s-38.58,7.71-36.21,11.12,17.57,4.18,17.57,4.18c4.26,0.22,7.51,3.46,7.23,7.22s2.81,5.75,6.86,4.43l7.47-2.44a11.08,11.08,0,0,1,11.74,3.78c2.4,3.4,5.85,3,7.65-.84l3.4-7.29a9.47,9.47,0,0,0-3.12-11.4Z"/><path class="cls-2" d="M246.56,102l1.56,28.44A12.89,12.89,0,0,1,250,130V102h-3.44Z"/><path class="cls-2" d="M240.63,104.13L233,105.44l7.51,25.14c1.51-.18,3-0.3,4.58-0.39Z"/><path class="cls-3" d="M211.64,217.17a60.67,60.67,0,0,1-6-4.14c0,3.49-.17,7-0.46,10.5A76.24,76.24,0,0,1,211.64,217.17Z"/><path class="cls-4" d="M248.11,130.05c-1,0-2,.07-3,0.13-1.54.09-3.07,0.22-4.58,0.39-30,3.57-53,23.76-53,48.15,12.73-7.28,18.27,12.66,18.2,34.31a60.67,60.67,0,0,0,6,4.14,76.24,76.24,0,0,0-6.44,6.36c-1.78,20.86-8.57,39.47-18.92,32.68A115.87,115.87,0,0,0,181,278.35c-0.77,5.56-1.18,20.15-1.18,26C179.78,356,211,389,250,389V130C249,130,248.74,130,248.11,130.05Z"/><path class="cls-5" d="M187.47,178.72s-24,62.54-1.19,77.49h0c4.42-12.7,14.15-23.84,22.14-32.68,0.3-3.47.81-7,.82-10.5C209.31,191.38,200.2,171.45,187.47,178.72Z"/><path class="cls-5" d="M205.2,223.53a95.45,95.45,0,0,0-18.92,32.68C196.63,263,203.42,244.39,205.2,223.53Z"/><path class="cls-6" d="M240.16,181.15a18.55,18.55,0,0,1-.95,2.62,16,16,0,0,1-1.69,3A18.66,18.66,0,0,1,214.2,193a9.27,9.27,0,1,0-1.41,18.42S150,266.17,250,267.28V175.13A11.4,11.4,0,0,0,240.16,181.15Z"/><path class="cls-3" d="M238.94,186.2a11.09,11.09,0,0,1,.28-2.43,18.73,18.73,0,0,1-1.69,3Z"/><ellipse class="cls-7" cx="219.57" cy="173.19" rx="20.6" ry="14.67" transform="translate(-52.69 109.32) rotate(-25.06)"/><circle cx="219.66" cy="173.65" r="1.29"/><path class="cls-8" d="M241,192.15l3,2S239.77,196.16,241,192.15Z"/><path class="cls-1" d="M278.3,371a21.17,21.17,0,0,1,14-2.86s38.58,7.71,36.21,11.12-17.57,4.18-17.57,4.18c-4.26.22-7.51,3.46-7.23,7.22s-2.81,5.75-6.86,4.43l-7.47-2.44a11.08,11.08,0,0,0-11.74,3.78c-2.4,3.4-5.85,3-7.65-.84l-3.4-7.29a9.47,9.47,0,0,1,3.12-11.4Z"/><path class="cls-2" d="M253.25,102l-1.46,28.44A8.19,8.19,0,0,1,250,130V102h3.25Z"/><path class="cls-2" d="M259.18,104.13l7.64,1.31-7.51,25.14c-1.51-.18-3-0.3-4.58-0.39Z"/><path class="cls-3" d="M288.17,217.17a60.67,60.67,0,0,0,6-4.14c0,3.49.17,7,.46,10.5A76.24,76.24,0,0,0,288.17,217.17Z"/><path class="cls-4" d="M251.79,130.05c1,0,2,.07,3,0.13,1.54,0.09,3,.22,4.55.39,30,3.57,53,23.76,53,48.15-12.73-7.28-18.27,12.66-18.2,34.31a60.72,60.72,0,0,1-6,4.14,76.22,76.22,0,0,1,6.44,6.36c1.78,20.86,8.57,39.47,18.92,32.68a115.87,115.87,0,0,1,5.31,22.14c0.77,5.56,1.28,20.15,1.28,26C320.12,356,289,389,250,389V130Z"/><path class="cls-5" d="M312.34,178.72s24,62.54,1.19,77.49h0c-4.42-12.7-14.15-23.84-22.14-32.68-0.3-3.47-.81-7-0.82-10.5C290.5,191.38,299.61,171.45,312.34,178.72Z"/><path class="cls-5" d="M294.61,223.53a95.45,95.45,0,0,1,18.92,32.68C303.17,263,296.39,244.39,294.61,223.53Z"/><path class="cls-6" d="M259.74,181.15a18.37,18.37,0,0,0,.9,2.62,16.17,16.17,0,0,0,1.66,3A18.63,18.63,0,0,0,285.61,193a9.21,9.21,0,0,1,10.68,9.15,9.19,9.19,0,0,1-9.17,9.27S350,266.17,250,267.28V175.13A11.25,11.25,0,0,1,259.74,181.15Z"/><path class="cls-3" d="M260.87,186.2a11.09,11.09,0,0,0-.28-2.43,18.73,18.73,0,0,0,1.69,3Z"/><ellipse class="cls-7" cx="280.24" cy="173.19" rx="14.67" ry="20.6" transform="translate(4.64 353.67) rotate(-64.94)"/><circle cx="280.15" cy="173.65" r="1.29"/><path class="cls-8" d="M258.79,192.15l-3,2S260,196.16,258.79,192.15Z"/><path class="cls-9" d="M296.85,369.07c14.29-14.77,23.28-37.07,23.28-64.71,0-5.86-.51-20.45-1.28-26a115.87,115.87,0,0,0-5.31-22.14,7.48,7.48,0,0,1-4.59,1.41,7.48,7.48,0,0,0,4.59-1.41h0c22.78-14.94-1.19-77.49-1.19-77.49a10.37,10.37,0,0,0-5.45-1.51,9.86,9.86,0,0,1,5.47,1.51c0-24.38-23-44.58-53-48.15h0l7.51-25.14-7.64-1.31-4.45,26c-1-.06-1.93.28-2.93,0.26L253.25,102H250V389a62.85,62.85,0,0,0,16.12-2,8.16,8.16,0,0,0,.45,1.24l3.4,7.29c1.8,3.86,5.25,4.24,7.65.84a11.08,11.08,0,0,1,11.74-3.78l7.47,2.44c4.05,1.32,7.14-.67,6.86-4.43s3-7,7.23-7.22c0,0,15.19-.77,17.57-4.18C330.36,376.57,307,371.24,296.85,369.07Z"/><path class="cls-5" d="M171.25,465.94V465h5.63v1.88h1.88v1.88h1.88v5.63h-1.87v1.88h-1.87v1.88h-5.62v-1.87h-1.87v-1.87H167.5v-5.62h1.88v-1.87h1.88v-0.94Zm3.75,1.88v-0.94h-3.75v7.5h1.88v1.88h3.75v-7.5H175v-0.94Z"/><path class="cls-5" d="M182.5,467.81V465h11.25v1.88h-7.5v1.88h7.5v1.88h1.88v5.63h-1.87v1.88h-9.37v-1.87H182.5v-1.87h3.75v1.88h5.63v-5.62H182.5v-2.81Z"/><path class="cls-5" d="M203.13,465.94V465h5.63v7.5h1.88v1.88h-1.87v3.75H205v-3.75h-7.5v-3.75h1.88v-1.87h1.88v-1.87h1.88v-0.94Zm1.88,4.69v-1.87h-1.87v1.88h-1.87v1.88H205v-1.87Z"/><path class="cls-5" d="M227.5,471.56V465h11.25v1.88h1.88v5.63h-1.87v1.88h-7.5v3.75H227.5v-6.56Zm9.38-1.87v-2.81h-5.62v5.63h5.63v-2.81Z"/><path class="cls-5" d="M244.38,465.94V465h7.5v1.88h1.88v1.88H250v-1.87h-3.75v3.75h7.5v1.88h1.88v3.75h-1.87v1.88h-9.37v-1.87H242.5v-1.87h3.75v1.88h5.63V472.5h-7.5v-1.87H242.5v-3.75h1.88v-0.94Z"/><path class="cls-5" d="M259.38,467.81V465h3.75v5.63h3.75V465h3.75v5.63h-1.87v1.88h-1.87v5.63h-3.75V472.5h-1.87v-1.87h-1.87v-2.81Z"/><path class="cls-5" d="M272.5,471.56V465h9.38v1.88h1.88v1.88h1.88v5.63h-1.87v1.88h-1.87v1.88H272.5v-6.56Zm7.5-3.75v-0.94h-3.75v9.38H280v-1.87h1.88v-5.62H280v-0.94Z"/><path class="cls-5" d="M287.5,470.63V465h3.75v11.25h5.63V465h3.75v11.25h-1.87v1.88h-9.37v-1.87H287.5v-5.62Z"/><path class="cls-5" d="M306.25,465.94V465h7.5v1.88h1.88v1.88h-3.75v-1.87h-3.75v1.88h-1.87v5.63h1.88v1.88h3.75v-1.87h3.75v1.88h-1.87v1.88h-7.5v-1.87h-1.87v-1.87H302.5v-5.62h1.88v-1.87h1.88v-0.94Z"/><path class="cls-5" d="M317.5,471.56V465h3.75v5.63h1.88v-1.87H325v-1.87h1.88V465h3.75v1.88h-1.87v1.88h-1.87v1.88H325v1.88h1.88v1.88h1.88v1.88h1.88v1.88H325v-1.87h-1.87v-1.87h-1.87v3.75H317.5v-6.56Z"/></svg>