<?xml version="1.0" ?><svg id="pkft" viewBox="0 0 500 500" xmlns="http://www.w3.org/2000/svg"><defs><style>.cls-1{fill:#6c9bd2;}.cls-2{fill:#fff;}.cls-3{fill:#943d12;}.cls-4{fill:#f9f1ab;}.cls-5{fill:#e63556;}.cls-6{fill:#5d98c9;}.cls-7{opacity:0.1;}.cls-8{fill:#1a1a1a;}</style></defs><title/><path class="cls-1" d="M196.86,306.06c0,47.54,24.14,54.2,53.14,54.2V188.09C221,188.09,196.86,258.51,196.86,306.06Z"/><path class="cls-1" d="M215.32,62.7c-3.29-4.83-5.26-4.06-4.38,1.72l8.23,53.91c0.88,5.78-2.53,8.09-7.57,5.14l-23.91-14c-5-3-7.14-1-4.64,4.25l27.54,58.44h0A42.35,42.35,0,0,0,250,198.72v-85Z"/><path class="cls-2" d="M236.71,178.52a44.17,44.17,0,0,0-6.62-8.65,59.92,59.92,0,0,0,1.76,9.94A24.12,24.12,0,0,0,236.71,178.52Z"/><path class="cls-2" d="M223.18,164.36a24.11,24.11,0,0,0-6.94-2.84S216.1,176,225.3,179.31C223.24,174.61,223.09,167.91,223.18,164.36Z"/><path class="cls-3" d="M230.08,169.87c-0.74-.75-1.53-1.51-2.39-2.24-0.51,4.79.79,11.78,0.79,11.78-1.54-.66-2.36-6.47-2.79-11.38a1.59,1.59,0,0,1-.67.15,1.6,1.6,0,0,1-.68-3.05c-0.39-.26-0.76-0.53-1.17-0.77-0.09,3.54.06,10.25,2.12,14.95a13.19,13.19,0,0,0,6.54.5A59.92,59.92,0,0,1,230.08,169.87Z"/><path d="M225.69,168c0.43,4.91,1.25,10.71,2.79,11.38,0,0-1.3-7-.79-11.78-0.34-.3-0.72-0.57-1.08-0.86A1.6,1.6,0,0,1,225.69,168Z"/><path class="cls-2" d="M223.42,166.58a1.6,1.6,0,0,0,1.6,1.6,1.59,1.59,0,0,0,.67-0.15c-0.06-.73-0.12-1.45-0.17-2.13-0.38-.27-0.79-0.52-1.18-0.78A1.6,1.6,0,0,0,223.42,166.58Z"/><path class="cls-2" d="M225.69,168a1.6,1.6,0,0,0,.92-1.26c-0.36-.29-0.7-0.58-1.08-0.86C225.58,166.59,225.63,167.3,225.69,168Z"/><path class="cls-4" d="M250,174.85a6.41,6.41,0,0,0-6.15,6.14s-9.52,6.7-20.69,2.72c0,0-7.72-3.45-3.33,16.07S224.09,221,224.09,221,243,244.55,250,242.29V174.85Z"/><path class="cls-5" d="M243.86,151.23a6.41,6.41,0,0,0,6.14,6.14V145.09A6.41,6.41,0,0,0,243.86,151.23Z"/><path class="cls-6" d="M229.37,338.54c0.3-16.77-11.51-30.37-25.83-30.37s-25.88,13.6-25.88,30.37c0,0-2.07,31.89,19.19,79.19l-7.17,9.8c-1.9,2.6-1.32,3.46,1.28,1.92l6.28-3.72c2.61-1.55,4.32-.05,3.81,3.32l-1.15,7.56c-0.51,3.37.3,3.73,1.81,0.8l4.3-7.91c1.51-2.93,3-2.53,3,.89v7.26c0,3.42.78,3.82,2,.72L219,418h-0.89l-7.44-54.91S228.95,362.67,229.37,338.54Z"/><path class="cls-6" d="M163.14,172.94a13.16,13.16,0,0,0-16.19,1.66L98,225.1a10.39,10.39,0,0,0-1.66,2.18h0l-15,19c-1.81,2.29-1.1,3.21,1.58,2L99.69,241c2.68-1.17,4.38.22,3.79,3.08l-3,14.28c-0.6,2.86.53,3.43,2.49,1.27l12.16-13.39c2-2.16,4.39-1.69,5.4,1.06L127,264.93c1,2.75,2.36,2.66,3-.19l9.31-40.61,19.38-26.65a11.71,11.71,0,0,1,15.3-3l42.23,26,4.53-8.39Z"/><path class="cls-1" d="M303.14,306.06c0,47.54-23.14,54.2-53.14,54.2V188.09C280,188.09,303.14,258.51,303.14,306.06Z"/><path class="cls-1" d="M284.84,62.7c3.29-4.83,5.34-4.06,4.46,1.72l-8.19,53.91c-0.88,5.78,2.55,8.09,7.59,5.14l23.92-14c5-3,7.14-1,4.65,4.25l-27.54,58.44h-0.17A42.57,42.57,0,0,1,250,198.72v-85Z"/><path class="cls-2" d="M263.62,178.52a44.17,44.17,0,0,1,6.62-8.65,59.92,59.92,0,0,1-1.76,9.94A24.12,24.12,0,0,1,263.62,178.52Z"/><path class="cls-2" d="M277.14,164.36a24.11,24.11,0,0,1,6.94-2.84S284.22,176,275,179.31C277.08,174.61,277.23,167.91,277.14,164.36Z"/><path class="cls-3" d="M270.24,169.87c0.74-.75,1.53-1.51,2.39-2.24,0.51,4.79-.79,11.78-0.79,11.78,1.54-.66,2.36-6.47,2.79-11.38a1.59,1.59,0,0,0,.67.15,1.6,1.6,0,0,0,.68-3.05c0.39-.26.76-0.53,1.17-0.77,0.09,3.54-.06,10.25-2.12,14.95a13.19,13.19,0,0,1-6.54.5A59.92,59.92,0,0,0,270.24,169.87Z"/><path d="M274.63,168c-0.43,4.91-1.25,10.71-2.79,11.38,0,0,1.3-7,.79-11.78,0.34-.3.72-0.57,1.08-0.86A1.6,1.6,0,0,0,274.63,168Z"/><path class="cls-2" d="M276.9,166.58a1.6,1.6,0,0,1-1.6,1.6,1.59,1.59,0,0,1-.67-0.15c0.06-.73.12-1.45,0.17-2.13,0.38-.27.79-0.52,1.18-0.78A1.6,1.6,0,0,1,276.9,166.58Z"/><path class="cls-2" d="M274.63,168a1.6,1.6,0,0,1-.92-1.26c0.36-.29.7-0.58,1.08-0.86C274.75,166.59,274.69,167.3,274.63,168Z"/><path class="cls-4" d="M250,174.85a5.92,5.92,0,0,1,6.31,6.14s9.6,6.7,20.77,2.72c0,0,7.76-3.45,3.37,16.07s-4.4,21.26-4.4,21.26S257,244.55,250,242.29V174.85Z"/><path class="cls-5" d="M256.14,151.23a5.79,5.79,0,0,1-6.14,6.14V145.09A5.79,5.79,0,0,1,256.14,151.23Z"/><path class="cls-6" d="M271,338.54c-0.3-16.77,11.51-30.37,25.83-30.37s25.88,13.6,25.88,30.37c0,0,2.07,31.89-19.19,79.19l7.17,9.8c1.9,2.6,1.32,3.46-1.28,1.92l-6.28-3.72c-2.61-1.55-4.32-.05-3.81,3.32l1.15,7.56c0.51,3.37-.3,3.73-1.81.8l-4.47-7.91c-1.51-2.93-3.14-2.53-3.14.89v7.26c0,3.42-.62,3.82-1.86.72L281.33,418h0.89l7.44-54.91S271.37,362.67,271,338.54Z"/><path class="cls-6" d="M337.19,172.94a13.16,13.16,0,0,1,16.19,1.66l49,50.49a10.39,10.39,0,0,1,1.66,2.18h0l15,19c1.81,2.29,1.1,3.21-1.58,2L400.63,241c-2.68-1.17-4.38.22-3.79,3.08l3,14.28c0.6,2.86-.53,3.43-2.49,1.27l-12.16-13.39c-2-2.16-4.39-1.69-5.4,1.06l-6.45,17.65c-1,2.75-2.36,2.66-3-.19L361,224.13l-19.38-26.65a11.71,11.71,0,0,0-15.3-3l-42.23,26L279.55,212Z"/><g class="cls-7"><path class="cls-8" d="M322.66,338.54c0-14.23-8.32-26.16-19.58-29.46,0-1,0-2,0-3,0-30.88-9.87-71.42-24.94-96,0.58-2.71,1.32-6.07,2.26-10.24,1.83-8.15,1.54-12.29.59-14.36a42.59,42.59,0,0,0,8.53-13.25h0.17l27.54-58.44c2.49-5.29.4-7.2-4.65-4.25l-23.92,14c-5,3-8.47.64-7.59-5.14l8.19-53.91c0.88-5.78-1.17-6.55-4.45-1.72l-34.84,51V360.26c10,0,19.11-.75,27-3.5a19.63,19.63,0,0,0,12.68,6.32L282.22,418h-0.89l7.81,20.37c1.24,3.1,1.86,2.7,1.86-.72v-7.26c0-3.42,1.63-3.83,3.14-.89l4.36,7.91c1.51,2.93,2.38,2.57,1.87-.8L299.24,429c-0.51-3.37,1.22-4.86,3.82-3.32l6.29,3.72c2.61,1.54,3.19.68,1.29-1.92l-7.17-9.8C324.73,370.43,322.66,338.54,322.66,338.54Z"/><path class="cls-8" d="M419,246.27l-15-19a10.4,10.4,0,0,0-1.66-2.18l-49-50.49a13.16,13.16,0,0,0-16.19-1.66L279.55,212l4.53,8.39,42.23-26a11.71,11.71,0,0,1,15.3,3L361,224.13l9.31,40.61c0.65,2.85,2,2.93,3,.19l6.45-17.65c1-2.75,3.43-3.22,5.4-1.06l12.16,13.39c2,2.16,3.09,1.59,2.49-1.27l-3-14.28c-0.59-2.86,1.11-4.25,3.79-3.08l16.83,7.34C420.13,249.48,420.84,248.56,419,246.27Z"/></g><path class="cls-6" d="M171.25,465.94V465h5.63v1.88h1.88v1.88h1.88v5.63h-1.87v1.88h-1.87v1.88h-5.62v-1.87h-1.87v-1.87H167.5v-5.62h1.88v-1.87h1.88v-0.94Zm3.75,1.88v-0.94h-3.75v7.5h1.88v1.88h3.75v-7.5H175v-0.94Z"/><path class="cls-6" d="M182.5,467.81V465h11.25v1.88h-7.5v1.88h7.5v1.88h1.88v5.63h-1.87v1.88h-9.37v-1.87H182.5v-1.87h3.75v1.88h5.63v-5.62H182.5v-2.81Z"/><path class="cls-6" d="M197.5,467.81V465h11.25v1.88h-7.5v1.88h7.5v1.88h1.88v5.63h-1.87v1.88h-9.37v-1.87H197.5v-1.87h3.75v1.88h5.63v-5.62H197.5v-2.81Z"/><path class="cls-6" d="M231.25,465.94V465h9.38v1.88h-7.5v1.88h-1.87v5.63h1.88v1.88h3.75V472.5H235v-1.87h5.63v7.5h-9.37v-1.87h-1.87v-1.87H227.5v-5.62h1.88v-1.87h1.88v-0.94Z"/><path class="cls-6" d="M244.38,465.94V465h9.38v1.88h1.88v9.38h-1.87v1.88h-9.37v-1.87H242.5v-9.37h1.88v-0.94Zm7.5,5.63v-4.69h-5.62v9.38h5.63v-4.69Z"/><path class="cls-6" d="M259.38,471.56V465h3.75v11.25h7.5v1.88H259.38v-6.56Z"/><path class="cls-6" d="M272.5,471.56V465h9.38v1.88h1.88v1.88h1.88v5.63h-1.87v1.88h-1.87v1.88H272.5v-6.56Zm7.5-3.75v-0.94h-3.75v9.38H280v-1.87h1.88v-5.62H280v-0.94Z"/><path class="cls-6" d="M287.5,470.63V465h3.75v11.25h5.63V465h3.75v11.25h-1.87v1.88h-9.37v-1.87H287.5v-5.62Z"/><path class="cls-6" d="M306.25,465.94V465h7.5v1.88h1.88v1.88h-3.75v-1.87h-3.75v1.88h-1.87v5.63h1.88v1.88h3.75v-1.87h3.75v1.88h-1.87v1.88h-7.5v-1.87h-1.87v-1.87H302.5v-5.62h1.88v-1.87h1.88v-0.94Z"/><path class="cls-6" d="M317.5,471.56V465h3.75v5.63h1.88v-1.87H325v-1.87h1.88V465h3.75v1.88h-1.87v1.88h-1.87v1.88H325v1.88h1.88v1.88h1.88v1.88h1.88v1.88H325v-1.87h-1.87v-1.87h-1.87v3.75H317.5v-6.56Z"/></svg>