<?xml version="1.0" ?><svg id="pkft" viewBox="0 0 500 500" xmlns="http://www.w3.org/2000/svg"><defs><style>.cls-1{fill:#e2ceba;}.cls-2{fill:#eddcc8;}.cls-3{fill:#c29270;}.cls-4{fill:#fff;}.cls-5{fill:#a95325;}.cls-6{fill:#1a1a1a;}.cls-7{fill:#d48d78;}.cls-8{opacity:0.1;}.cls-9{fill:#b77e56;}</style></defs><title/><path class="cls-1" d="M182.75,238.5S127,215.7,133.5,204.35c4.31-7.52,5.76-28.93,6.25-42.52a7.71,7.71,0,0,1-2.25-1.34,6.64,6.64,0,0,1-9,0,8.11,8.11,0,0,1-1.43,1C123,178.31,116.45,209,120,220c5,15.5,58.5,61,70,60Z"/><path class="cls-2" d="M182.35,232a36.16,36.16,0,0,1-2.09-3.92L175,226h4.35c-4.32-10.6-5.93-23.91-5.93-23.91-0.5-4.09.79-8.92,2.85-10.72s6.49-1.31,9.84,1.1l10.9,7.83V193l6,4.41V195l-24.88-17.88c-4.47-3.21-10.37-3.87-13.12-1.46s-4.46,8.84-3.8,14.3c0,0,3.94,32.58,15.45,44.6,1.35-.31,3.32-0.71,5.34-1.09C182.1,233,182.23,232.5,182.35,232Z"/><path class="cls-3" d="M184.58,225.08L178.33,221h8c0.15-.32.3-0.64,0.45-1L183,216.26l6.43-1.36c0.24-.41.47-0.83,0.72-1.23L187.67,211h2.93L183,198l13.21,7.27c0.27-.32.52-0.65,0.79-1v-4l-10.9-7.83c-3.35-2.41-7.77-2.9-9.84-1.1s-3.34,6.63-2.85,10.72c0,0,1.62,13.32,5.93,23.91h4.88C184.34,225.69,184.47,225.39,184.58,225.08Z"/><path class="cls-3" d="M180.26,228.1a36.16,36.16,0,0,0,2.09,3.92c0.24-.93.49-1.86,0.78-2.77Z"/><path class="cls-2" d="M175,226l5.26,2.1c-0.32-.69-0.62-1.39-0.91-2.1H175Z"/><polygon class="cls-2" points="197 193 197 200.29 205.48 206.39 210 200 203 194.97 203 197.41 197 193"/><path class="cls-2" d="M182.75,238.5l2.17-3.07a21.41,21.41,0,0,1-2.57-3.4c-0.12.47-.25,0.94-0.36,1.42-2,.38-4,0.77-5.34,1.09A14,14,0,0,0,182.75,238.5Z"/><path class="cls-3" d="M220.95,362a47.79,47.79,0,0,0-6.69-3l6.24-13A15,15,0,0,1,210,351a11.4,11.4,0,0,1-11-9.62v12.69a80.67,80.67,0,0,0-23.83,2.75c-11.88,3.4-10.62,7.86-9,13.34s2.86,9.93,14.74,6.52c7.42-2.13,17.2-6.81,23.13-11.36a52,52,0,0,0,10.63,8.1c6.82,3.78,8.25,1.23,10-1.92S227.77,365.81,220.95,362Z"/><path class="cls-1" d="M229.92,320.52L226,325.33v-9.56c-0.54-.2-1.06-0.42-1.6-0.63l-4.65,9.18-1.41-7.05L210,322.75l3.61-13-0.56-.33L206,315.67v-8l-10.06,4.91,3,28.52c0,0.11,0,.22.05,0.32A11.4,11.4,0,0,0,210,351a15,15,0,0,0,10.5-4.94,13,13,0,0,0,2.78-4.5l7-20.14Z"/><polygon class="cls-1" points="195.17 305.31 195.83 311.53 197.87 303.99 195.17 305.31"/><path class="cls-1" d="M194.87,293.11l-0.95.38,1,9.11,3.34-5.5C197.05,295.82,195.94,294.48,194.87,293.11Z"/><polygon class="cls-2" points="195.5 312.75 195.94 312.54 195.83 311.53 195.5 312.75"/><polygon class="cls-2" points="192.42 306.67 195.17 305.31 194.88 302.6 192.42 306.67"/><path class="cls-2" d="M249,243.5c0.34,0,.67,0,1,0V180c-2.14,0-4.26.11-6.35,0.3L239,171v8.75l-3.72-8.56L233,181.47l-5.2-8.47,1.1,10.24-1.26.42-7.32-14.49-0.44,16.38L215,183.33v6.05q-1.48.86-2.92,1.78L206,187.33l0.79,4.67H203v3l7,5-4.52,6.39L197,200.29v4c-0.27.31-.52,0.65-0.79,1L183,198l7.6,13h-2.93l2.49,2.67c-0.25.41-.48,0.82-0.72,1.23L183,216.26l3.75,3.78c-0.15.32-.31,0.64-0.45,1h-8l6.25,4.08c-0.12.31-.25,0.61-0.36,0.92h-4.88c0.29,0.71.59,1.42,0.91,2.1l2.87,1.15c-0.28.91-.54,1.84-0.78,2.77a21.41,21.41,0,0,0,2.57,3.4l-2.17,3.07a14,14,0,0,1-6.1-4A10.38,10.38,0,0,0,175,235c-0.89.45,3.13,2.53,5.89,3.86-0.13.81-.23,1.63-0.34,2.45l-9.22,4.35,8.7,3.16c0,0.39,0,.78,0,1.17,0,1.44.06,2.87,0.14,4.29L170,260l11,1.49c0.18,1.1.4,2.19,0.63,3.27l-0.32,1.1L175,273l4.83-2.15-3.58,12.4,8.31-3.78-0.91,2.19,3.36-1.1,0.1,0.21c-3.92,5.61-10.37,15.48-10.37,15.48l11.6-4.78-4.75,6.19,10.32-4.18,0.95-.38c1.07,1.37,2.18,2.71,3.35,4l-3.34,5.5,0.29,2.71,2.7-1.32-2,7.54,0.11,1L206,307.63v8l7.05-6.22,0.56,0.33-3.61,13,8.34-5.47,1.41,7.05,4.65-9.18c0.53,0.21,1.06.43,1.6,0.63v9.56l3.92-4.82,0.37,0.9,3,7.34,6.25-7.87,5.54,9.37-1.85-10.58c2.21,0.21,4.45.33,6.72,0.33V268.47c-0.33,0-.66,0-1,0-11.6,0-21-5.6-21-12.5S237.4,243.5,249,243.5Z"/><path class="cls-4" d="M228.27,225.4a2.91,2.91,0,0,1-1.37.65c-5.81,6.88-10.75,10.87-12.51,9.67-2.07-1.4.85-9.49,6.71-19.46a20.78,20.78,0,0,0-9.43-4.59S181.33,244,233.33,240A51.59,51.59,0,0,0,228.27,225.4Z"/><path class="cls-5" d="M214.39,235.72c1.76,1.19,6.7-2.8,12.51-9.67a2.86,2.86,0,0,1-2.87-1.15c-2,2-3.52,3.09-4.1,2.68-0.86-.62.71-4.36,3.63-8.92a25.77,25.77,0,0,0-2.47-2.39C215.24,226.23,212.32,234.32,214.39,235.72Z"/><path class="cls-6" d="M219.93,227.57c0.58,0.41,2.13-.66,4.1-2.68a2.91,2.91,0,0,1,1.09-4.38c-0.49-.64-1-1.26-1.56-1.86C220.65,223.21,219.07,227,219.93,227.57Z"/><path class="cls-4" d="M226.9,226a2.91,2.91,0,0,0,1.37-.65l-0.33-.61Z"/><path class="cls-4" d="M226.39,222.26c-0.83,1-1.62,1.88-2.36,2.63A2.86,2.86,0,0,0,226.9,226l1-1.25C227.47,223.94,226.95,223.09,226.39,222.26Z"/><path class="cls-4" d="M223.45,223.15a2.91,2.91,0,0,0,.58,1.74c0.74-.75,1.53-1.64,2.36-2.63-0.4-.59-0.82-1.18-1.27-1.75A2.93,2.93,0,0,0,223.45,223.15Z"/><path class="cls-7" d="M228,256c0,6.9,9.4,12.5,21,12.5,0.34,0,.67,0,1,0V243.53c-0.33,0-.66,0-1,0C237.4,243.5,228,249.1,228,256Z"/><path class="cls-3" d="M142,137.75a7,7,0,0,0-4.5,1.76,6.64,6.64,0,0,0-9,0,7,7,0,0,0-4.5-1.76c-4.83,0-8.75,5.48-8.75,12.25s3.92,12.25,8.75,12.25a6.51,6.51,0,0,0,3.07-.79,8.11,8.11,0,0,0,1.43-1,6.64,6.64,0,0,0,9,0,7.71,7.71,0,0,0,2.25,1.34,6.36,6.36,0,0,0,2.25.42c4.83,0,8.75-5.48,8.75-12.25S146.83,137.75,142,137.75Z"/><path class="cls-1" d="M317.5,238.5s55.75-22.8,49.25-34.15c-4.31-7.52-5.76-28.93-6.25-42.52a7.71,7.71,0,0,0,2.25-1.34,6.64,6.64,0,0,0,9,0,8.11,8.11,0,0,0,1.43,1c4.09,16.86,10.62,47.53,7.07,58.54-5,15.5-58.5,61-70,60Z"/><path class="cls-2" d="M317.9,232A36.16,36.16,0,0,0,320,228.1l5.26-2.1H320.9c4.32-10.6,5.93-23.91,5.93-23.91,0.5-4.09-.79-8.92-2.85-10.72s-6.61-1.31-10,1.1l-11,7.83V193l-6,4.41V195l25-17.88c4.47-3.21,10.43-3.87,13.18-1.46s4.49,8.84,3.83,14.3c0,0-3.93,32.58-15.43,44.6-1.35-.31-3.32-0.71-5.33-1.09C318.14,233,318,232.5,317.9,232Z"/><path class="cls-3" d="M315.67,225.08l6.25-4.08h-8c-0.15-.32-0.3-0.64-0.45-1l3.75-3.78-6.43-1.36c-0.24-.41-0.47-0.83-0.72-1.23l2.49-2.67h-2.93l7.6-13-13.34,7.27c-0.27-.32.09-0.65-0.91-1v-4l11-7.83c3.35-2.41,7.84-2.9,9.9-1.1s3.37,6.63,2.88,10.72c0,0-1.58,13.32-5.9,23.91H316C315.91,225.69,315.78,225.39,315.67,225.08Z"/><path class="cls-3" d="M320,228.1A36.16,36.16,0,0,1,317.9,232c-0.24-.93-0.49-1.86-0.78-2.77Z"/><path class="cls-2" d="M325.25,226L320,228.1c0.32-.69.62-1.39,0.91-2.1h4.35Z"/><polygon class="cls-2" points="303 193 303 200.29 294.65 206.39 290.06 200 297 194.97 297 197.41 303 193"/><path class="cls-2" d="M317.5,238.5l-2.17-3.07a21.41,21.41,0,0,0,2.57-3.4c0.12,0.47.25,0.94,0.36,1.42,2,0.38,4,.77,5.34,1.09A14,14,0,0,1,317.5,238.5Z"/><path class="cls-3" d="M279.3,362a47.79,47.79,0,0,1,6.69-3l-6.24-13A14.75,14.75,0,0,0,290.13,351c5.39,0,10.88-4.3,10.88-9.62v12.69a78.84,78.84,0,0,1,24,2.75c11.88,3.4,10.68,7.86,9.11,13.34s-2.83,9.93-14.71,6.52c-7.42-2.13-17.19-6.81-23.11-11.36a51.92,51.92,0,0,1-10.62,8.1c-6.82,3.78-8.24,1.23-10-1.92S272.48,365.81,279.3,362Z"/><path class="cls-1" d="M270.21,320.52l3.79,4.82v-9.56a6.32,6.32,0,0,0,1.72-.63l4.72,9.18,1.44-7.05,8.35,5.47-3.6-13c0.19-.11.25-0.22,0.44-0.33l6.93,6.22v-8l10.19,4.91-3,28.52c0,0.11,0,.22,0,0.32a11.38,11.38,0,0,1-11,9.62,15,15,0,0,1-10.49-4.94,13,13,0,0,1-2.78-4.5l-7.07-20.14Z"/><polygon class="cls-1" points="305.08 305.31 304.42 311.53 302.38 303.99 305.08 305.31"/><path class="cls-1" d="M305.38,293.11l0.95,0.38-1,9.11-3.34-5.5C303.2,295.82,304.31,294.48,305.38,293.11Z"/><polygon class="cls-2" points="304.75 312.75 304.31 312.54 304.42 311.53 304.75 312.75"/><polygon class="cls-2" points="307.83 306.67 305.08 305.31 305.37 302.6 307.83 306.67"/><path class="cls-2" d="M251.13,243.5c-0.34,0-.12,0-1.12,0V180c2,0,4.26.11,6.35,0.3L261,171v8.75l3.84-8.56,2.35,10.28,5.23-8.47-1.09,10.24,1.26,0.42,7.33-14.49,0.32,16.38,4.75-2.22v6.05c1,0.57,2.08,1.17,3,1.78l6.19-3.84L293.5,192H297v3l-6.87,5,4.46,6.39,8.42-6.09v4c1,0.31.65,0.65,0.91,1L317.19,198l-7.54,13h2.93l-2.49,2.67c0.25,0.41.48,0.82,0.72,1.23l6.43,1.36L313.5,220a2.74,2.74,0,0,0,.45,1h8l-6.25,4.08a2.9,2.9,0,0,0,.36.92h4.88a11.75,11.75,0,0,1-.91,2.1l-2.87,1.15c0.28,0.91.54,1.84,0.78,2.77a21.41,21.41,0,0,1-2.57,3.4l2.17,3.07a14,14,0,0,0,6.1-4,10.38,10.38,0,0,1,1.65.47c0.89,0.45-3.13,2.53-5.89,3.86,0.13,0.81.23,1.63,0.34,2.45l9.22,4.35-8.7,3.16c0,0.39,0,.78,0,1.17,0,1.44-.06,2.87-0.14,4.29L330.25,260l-11,1.49c-0.18,1.1-.4,2.19-0.63,3.27l0.32,1.1,6.27,7.14-4.83-2.15,3.58,12.4-8.31-3.78,0.91,2.19-3.36-1.1-0.1.21c3.92,5.61,10.37,15.48,10.37,15.48l-11.6-4.78,4.75,6.19-10.32-4.18-0.95-.38c-1.07,1.37-2.18,2.71-3.35,4l3.34,5.5-0.29,2.71-2.7-1.32,2,7.54-0.23,1L294,307.63v8l-6.93-6.22c-0.18.11-.31,0.22-0.5,0.33l3.64,13-8.32-5.47-1.41,7.05-4.77-9.18a6.28,6.28,0,0,1-1.72.63v9.56l-3.79-4.82-0.31.9-3,7.34-6.24-7.87-5.53,9.37,1.73-10.58A62.57,62.57,0,0,1,250,320V268.47c1,0,.79,0,1.13,0,11.6,0,21-5.6,21-12.5S262.72,243.5,251.13,243.5Z"/><path class="cls-4" d="M272,225.4a2.91,2.91,0,0,0,1.37.65c5.81,6.88,10.75,10.87,12.51,9.67,2.07-1.4-.85-9.49-6.71-19.46a20.78,20.78,0,0,1,9.43-4.59S318.92,244,266.92,240A51.59,51.59,0,0,1,272,225.4Z"/><path class="cls-5" d="M285.86,235.72c-1.76,1.19-6.7-2.8-12.51-9.67a2.86,2.86,0,0,0,2.87-1.15c2,2,3.52,3.09,4.1,2.68,0.86-.62-0.71-4.36-3.63-8.92a25.77,25.77,0,0,1,2.47-2.39C285,226.23,287.93,234.32,285.86,235.72Z"/><path class="cls-6" d="M280.32,227.57c-0.58.41-2.12-.66-4.1-2.68a2.91,2.91,0,0,0-1.09-4.38c0.49-.64,1-1.26,1.56-1.86C279.6,223.21,281.18,227,280.32,227.57Z"/><path class="cls-4" d="M273.35,226a2.91,2.91,0,0,1-1.37-.65l0.33-.61Z"/><path class="cls-4" d="M273.86,222.26c0.83,1,1.62,1.88,2.36,2.63a2.86,2.86,0,0,1-2.87,1.15l-1-1.25C272.78,223.94,273.3,223.09,273.86,222.26Z"/><path class="cls-4" d="M276.8,223.15a2.91,2.91,0,0,1-.58,1.74c-0.74-.75-1.53-1.64-2.36-2.63,0.4-.59.82-1.18,1.27-1.75A2.93,2.93,0,0,1,276.8,223.15Z"/><path class="cls-7" d="M272.25,256c0,6.9-9.53,12.5-21.12,12.5-0.34,0-.12,0-1.12,0V243.53c1,0,.79,0,1.13,0C262.72,243.5,272.25,249.1,272.25,256Z"/><path class="cls-3" d="M358.25,137.75a7,7,0,0,1,4.5,1.76,6.64,6.64,0,0,1,9,0,7,7,0,0,1,4.5-1.76c4.83,0,8.75,5.48,8.75,12.25s-3.92,12.25-8.75,12.25a6.51,6.51,0,0,1-3.07-.79,8.11,8.11,0,0,1-1.43-1,6.64,6.64,0,0,1-9,0,7.71,7.71,0,0,1-2.25,1.34,6.36,6.36,0,0,1-2.25.42c-4.83,0-8.75-5.48-8.75-12.25S353.42,137.75,358.25,137.75Z"/><g class="cls-8"><polygon class="cls-6" points="304.75 312.75 304.42 311.53 304.31 312.54 304.75 312.75"/><path class="cls-6" d="M376.25,162.25c4.83,0,8.75-5.48,8.75-12.25s-3.92-12.25-8.75-12.25a7,7,0,0,0-4.5,1.76,6.64,6.64,0,0,0-9,0,7,7,0,0,0-4.5-1.76c-4.83,0-8.75,5.48-8.75,12.25s3.92,12.25,8.75,12.25a6.36,6.36,0,0,0,2.25-.42c0.49,13.6,1.94,35,6.25,42.52,5,8.66-26.28,24-41.39,30.75a0.23,0.23,0,0,0-.11-0.1,10.38,10.38,0,0,0-1.65-.47h0c11.5-12,15.43-44.6,15.43-44.6,0.66-5.46-1.08-11.9-3.83-14.3s-8.72-1.75-13.18,1.46L297,195v-3h-3.5l0.73-4.67L288,191.17c-1-.62-2-1.21-3-1.78v-6.05l-4.75,2.22-0.32-16.38-7.33,14.49-1.26-.42L272.43,173l-5.23,8.47-2.35-10.28L261,179.75V171l-4.65,9.3c-2.09-.19-4.35-0.3-6.35-0.3V320a62.57,62.57,0,0,0,6.84-.33l-1.73,10.58,5.53-9.37,6.24,7.87,3-7.33L277,341.56a13,13,0,0,0,2.78,4.5h0l6.24,13a47.79,47.79,0,0,0-6.69,3c-6.82,3.78-5.42,6.34-3.67,9.49s3.17,5.7,10,1.92a51.92,51.92,0,0,0,10.62-8.1c5.93,4.55,15.7,9.23,23.11,11.36,11.88,3.4,13.14-1,14.71-6.52s2.77-9.94-9.11-13.34a78.84,78.84,0,0,0-24-2.75V342.48a10.35,10.35,0,0,0,.22-1.1c0-.11,0-0.21,0-0.32l3-28.52,0.23-1,0.66-6.22,2.75,1.35-2.47-4.06,1-9.11,10.32,4.18-4.75-6.19,11.6,4.78s-6.45-9.87-10.37-15.48l0.1-.21,3.36,1.1-0.91-2.19,8.31,3.78-2.25-7.79c19.79-11.77,54.52-43.12,58.5-55.46,3.55-11-3-41.69-7.07-58.54A6.51,6.51,0,0,0,376.25,162.25ZM316,226a2.9,2.9,0,0,1-.36-0.92C315.78,225.39,315.91,225.69,316,226ZM314,221a2.74,2.74,0,0,1-.45-1C313.65,220.36,313.81,220.68,314,221Zm10-29.64c2.06,1.8,3.34,6.63,2.85,10.72,0,0-1.62,13.32-5.93,23.91,4.32-10.6,5.9-23.91,5.9-23.91,0.5-4.09-.82-8.92-2.88-10.72a5.41,5.41,0,0,0-3.76-1.08A5.48,5.48,0,0,1,324,191.36ZM286.58,309.78c0.17-.11.3-0.21,0.46-0.31-0.16.11-.23,0.21-0.41,0.31l3.6,13h0Zm0.49-.33h0l6.93,6.22Zm-1,10.56-4.16-2.72h0Zm8.53-113.63-2.23-3.19,2.27,3.16ZM275.72,315.15h0a6.28,6.28,0,0,1-1.72.62A6.28,6.28,0,0,0,275.72,315.15Zm0.32,0.61,4.42,8.5,0,0.08Zm5,31.55a14.62,14.62,0,0,0,9.12,3.69h-0.06A14.27,14.27,0,0,1,281.06,347.31ZM294.69,350a11.59,11.59,0,0,0,6.06-6.64A10.53,10.53,0,0,1,294.69,350ZM317.16,198l0.09,0-7.6,13Z"/></g><path class="cls-9" d="M178.75,465.94V465h5.63v1.88h1.88v1.88h1.88v5.63h-1.87v1.88h-1.87v1.88h-5.62v-1.87h-1.87v-1.87H175v-5.62h1.88v-1.87h1.88v-0.94Zm3.75,1.88v-0.94h-3.75v7.5h1.88v1.88h3.75v-7.5H182.5v-0.94Z"/><path class="cls-9" d="M190,467.81V465h11.25v1.88h-7.5v1.88h7.5v1.88h1.88v5.63h-1.87v1.88h-9.37v-1.87H190v-1.87h3.75v1.88h5.63v-5.62H190v-2.81Z"/><path class="cls-9" d="M208.75,465.94V465h7.5v1.88h-5.62v1.88h-1.87v1.88h7.5v1.88h1.88v3.75h-1.87v1.88h-9.37v-1.87H205v-7.5h1.88v-1.87h1.88v-0.94Zm5.63,8.44V472.5h-5.62v3.75h5.63v-1.87Z"/><path class="cls-9" d="M235,471.56V465h3.75v1.88h1.88v1.88h1.88v-1.87h1.88V465h3.75v13.13h-3.75V472.5H242.5v1.88h-1.87V472.5h-1.87v5.63H235v-6.56Z"/><path class="cls-9" d="M253.75,465.94V465h5.63v1.88h1.88v1.88h1.88v9.38h-3.75v-3.75h-5.62v3.75H250v-9.37h1.88v-1.87h1.88v-0.94Zm3.75,1.88v-0.94h-1.87v1.88h-1.87v3.75h5.63v-3.75H257.5v-0.94Z"/><path class="cls-9" d="M265,471.56V465h3.75v1.88h1.88v1.88h1.88v1.88h1.88V465h3.75v13.13h-3.75v-1.87H272.5v-1.87h-1.87V472.5h-1.87v5.63H265v-6.56Z"/><path class="cls-9" d="M280,471.56V465h3.75v5.63h1.88v-1.87h1.88v-1.87h1.88V465h3.75v1.88h-1.87v1.88h-1.87v1.88H287.5v1.88h1.88v1.88h1.88v1.88h1.88v1.88H287.5v-1.87h-1.87v-1.87h-1.87v3.75H280v-6.56Z"/><path class="cls-9" d="M295,471.56V465h13.13v1.88h-9.37v3.75h7.5v1.88h-7.5v3.75h9.38v1.88H295v-6.56Z"/><path class="cls-9" d="M311.88,467.81V465h3.75v5.63h3.75V465h3.75v5.63h-1.87v1.88h-1.87v5.63h-3.75V472.5h-1.87v-1.87h-1.87v-2.81Z"/></svg>