<?xml version="1.0" ?><svg id="pkft" viewBox="0 0 500 500" xmlns="http://www.w3.org/2000/svg"><defs><style>.cls-1{fill:#a3611c;}.cls-2{fill:#f2d4b4;}.cls-3{fill:none;}.cls-4{fill:#d18344;}.cls-5{fill:#1a1a1a;}.cls-6{fill:#fff;}.cls-7{fill:#515457;}.cls-8{fill:#1d1d1b;opacity:0.1;}</style></defs><title/><path class="cls-1" d="M140.24,218.79c-3.67,3-32.21-18-21.61-14.23,6.33,2.23,16.06-6.2,22.88-13.36-16-5.16-35.66-9.28-41.7-.42L110.54,137H89.09s-30.39,79.53,0,86c15.39,3.26,31.69,3.29,44,2.45C138,220.69,141.75,217.56,140.24,218.79Z"/><path class="cls-1" d="M181.55,332.34c4.49-4,9.95-11.9,12.93-18.09a107.6,107.6,0,0,1-9.48-6.63c-2.43.6-5.1,1.31-7.82,2C163.54,320.17,158,336.8,165,349.2l17.92,39.58a37,37,0,0,0-6.82,8.44c-5.94,9.94-6.63,20.46-1.54,23.5a7.28,7.28,0,0,0,6.06.32,7.28,7.28,0,0,0,3.15,5.18c5.09,3,14-2.56,20-12.5,4.16-7,5.74-14.22,4.56-19,0,0-13.79-33-12.86-47.23l22-22.52c-2.61-.86-5.19-1.81-7.71-2.86C202.38,325.73,189.05,329.79,181.55,332.34Z"/><path class="cls-2" d="M244,106.27c-1.87-.35-5-8.68-5-8.68v13.95l-10.19-6.35,2.94,12.34a105.52,105.52,0,0,0-21.13,6.16c-7.89-13.54-18.6-33.24-18.6-40,0-9.42-22.59,46.8-21.31,68.38-1.77,2-3.45,4.06-5.06,6.18l-1-2.32s-15.9,1.5-24.46,0-0.81,13.48,9.18,10.48S125.15,177,125.15,177l24.26,5.05s-3.28,4.26-7.9,9.11c-6.82,7.16-16.56,15.59-22.88,13.36-10.6-3.74,17.94,17.22,21.61,14.23,1.51-1.23-2.2,2-7.11,6.7-7,6.75-16.54,16.6-16.84,21,0,0,18.74-2.74,28.87-6.35q0.55,3.47,1.32,6.87c-4.61,6.38-11.48,13.72-15.41,13.72-7.54,0,9.17,15.73,21.41,11.23a8.81,8.81,0,0,1,2.76-.62q1.09,2.16,2.27,4.26c-1.18,5.58-7.34,15.1-11.15,18.83-4.64,4.55,15.38,2.19,25.3.79q1,1.11,2,2.18l-21.22,19.49s12.91-4,24.71-7.22c2.72-.74,5.39-1.45,7.82-2a107.6,107.6,0,0,0,9.48,6.63c-3,6.19-8.43,14.11-12.93,18.09,7.5-2.55,20.83-6.61,28.22-10.2,2.52,1.05,5.1,2,7.71,2.86l0.8,0.28c0.07,6-1.8,14.41-4.14,17.28,2.65-2.4,10.13-9,16-14.21,2,0.39,3.76.73,5.8,1L236.86,360l3.44-30.1c3.2,0.3,6.7.47,9.7,0.48V115.75C247,114.95,244,106.27,244,106.27Z"/><path class="cls-3" d="M249,330.37c-3,0-6.51-.18-9.7-0.48"/><path class="cls-4" d="M224.43,223.1c0,9.75,11.57,17.67,25.57,17.87V205.23C236,205.43,224.43,213.35,224.43,223.1Z"/><path class="cls-5" d="M240,231.69a1,1,0,0,1-1-1.07v-11.8a1,1,0,1,1,2,0v11.8A1,1,0,0,1,240,231.69Z"/><path class="cls-6" d="M200.18,186.48c0.51-1.2,1.06-2.4,1.65-3.48l-15.12-11.26L176,204h22.35C196.53,201,197.14,193.65,200.18,186.48Z"/><path class="cls-6" d="M219.31,196.17a6.7,6.7,0,0,1-8.09,1.59A45.15,45.15,0,0,1,206.1,204h23.52Z"/><path class="cls-5" d="M211.23,197.73a6.52,6.52,0,0,1-2.2-9.36l-7.2-5.41c-0.58,1.08-1.14,2.32-1.65,3.53-3,7.17-3.65,14.51-1.84,17.51h7.77A45.44,45.44,0,0,0,211.23,197.73Z"/><path class="cls-6" d="M214,192.24a39.75,39.75,0,0,1-2.78,5.39,6.43,6.43,0,0,0,8.09-1.57l-5.26-3.95Z"/><path class="cls-6" d="M211.23,197.63a39.75,39.75,0,0,0,2.78-5.39l0-.12-5-3.77A6.43,6.43,0,0,0,211.23,197.63Z"/><path class="cls-4" d="M191.53,105.1s-11.43,33.26-8.39,38.08c0,0,9.74-13.95,21.13-14.48Z"/><rect class="cls-7" height="13" rx="4.29" ry="4.29" width="43" x="78" y="124"/><path class="cls-1" d="M126.15,106.28a4.4,4.4,0,0,0-4-.87C133.84,76.06,99,73,99,73c-54.44,1.34-9.92,51-9.92,51h21.46a1.58,1.58,0,0,0,.73-0.74c2.71,0.87,7.21-.91,11-4.73C126.72,114,128.47,108.57,126.15,106.28Z"/><path class="cls-1" d="M359.78,218.79c3.67,3,32.21-18,21.61-14.23-6.33,2.23-16.06-6.2-22.88-13.36,16-5.16,35.66-9.28,41.7-.42L389.48,137h21.46s30.39,79.53,0,86c-15.39,3.26-31.69,3.29-44,2.45C362,220.69,358.27,217.56,359.78,218.79Z"/><path class="cls-1" d="M318.46,332.34c-4.49-4-9.95-11.9-12.93-18.09a107.6,107.6,0,0,0,9.48-6.63c2.43,0.6,5.1,1.31,7.82,2C336.48,320.17,342,336.8,335,349.2l-17.92,39.58a37,37,0,0,1,6.82,8.44c5.94,9.94,6.63,20.46,1.54,23.5a7.28,7.28,0,0,1-6.06.32,7.28,7.28,0,0,1-3.15,5.18c-5.09,3-14-2.56-20-12.5-4.16-7-5.74-14.22-4.56-19,0,0,13.79-33,12.86-47.23l-22-22.52c2.61-.86,5.19-1.81,7.71-2.86C297.64,325.73,311,329.79,318.46,332.34Z"/><path class="cls-2" d="M256,106.27c1.87-.35,5-8.68,5-8.68v13.95l10.2-6.35-2.94,12.34a105.55,105.55,0,0,1,21.13,6.16c7.89-13.54,18.6-33.24,18.6-40,0-9.42,22.59,46.8,21.31,68.38,1.77,2,3.45,4.06,5.06,6.18l1-2.32s15.9,1.5,24.46,0,0.81,13.48-9.17,10.48S374.87,177,374.87,177l-24.26,5.05s3.28,4.26,7.9,9.11c6.82,7.16,16.56,15.59,22.88,13.36,10.6-3.74-17.94,17.22-21.61,14.23-1.51-1.23,2.2,2,7.11,6.7,7,6.75,16.54,16.6,16.84,21,0,0-18.74-2.74-28.87-6.35q-0.55,3.47-1.32,6.87c4.61,6.38,11.48,13.72,15.41,13.72,7.54,0-9.17,15.73-21.41,11.23a8.81,8.81,0,0,0-2.76-.62q-1.09,2.16-2.27,4.26c1.18,5.58,7.34,15.1,11.15,18.83,4.64,4.55-15.38,2.19-25.3.79q-1,1.11-2,2.18l21.22,19.49s-12.91-4-24.71-7.22c-2.72-.74-5.39-1.45-7.82-2a107.6,107.6,0,0,1-9.48,6.63c3,6.19,8.43,14.11,12.93,18.09-7.5-2.55-20.83-6.61-28.22-10.2-2.52,1.05-5.1,2-7.71,2.86l-0.8.28c-0.07,6,1.8,14.41,4.14,17.28-2.65-2.4-10.13-9-16-14.21-2,.39-3.76.73-5.8,1L263.16,360l-3.45-30.1c-3.2.3-6.71,0.47-9.71,0.48V115.75C253,114.95,256,106.27,256,106.27Z"/><path class="cls-3" d="M260.7,329.89L251,360V330.37C254,330.36,257.51,330.19,260.7,329.89Z"/><path class="cls-4" d="M275.57,223.1c0,9.75-11.57,17.67-25.57,17.87V205.23C264,205.43,275.57,213.35,275.57,223.1Z"/><path class="cls-5" d="M260,231.69a1,1,0,0,0,1-1.07v-11.8a1,1,0,1,0-2,0v11.8A1,1,0,0,0,260,231.69Z"/><path class="cls-6" d="M299.84,186.48c-0.51-1.2-1.06-2.4-1.65-3.48l15.12-11.26L324,204H301.69C303.49,201,302.88,193.65,299.84,186.48Z"/><path class="cls-6" d="M280.71,196.17a6.7,6.7,0,0,0,8.09,1.59c1.61,2.61,3.39,5.24,5.13,6.24H270.4Z"/><path class="cls-5" d="M288.79,197.73a6.52,6.52,0,0,0,2.2-9.36l7.2-5.41c0.58,1.08,1.14,2.32,1.65,3.53,3,7.17,3.65,14.51,1.84,17.51h-7.77C292.18,203,290.41,200.34,288.79,197.73Z"/><path class="cls-6" d="M286,192.24a39.75,39.75,0,0,0,2.78,5.39,6.43,6.43,0,0,1-8.09-1.57l5.26-3.95Z"/><path class="cls-6" d="M288.79,197.63a39.75,39.75,0,0,1-2.78-5.39l0-.12,5-3.77A6.43,6.43,0,0,1,288.79,197.63Z"/><path class="cls-4" d="M308.48,105.1s11.43,33.26,8.39,38.08c0,0-9.74-13.95-21.13-14.48Z"/><rect class="cls-7" height="13" rx="4.29" ry="4.29" width="43" x="379" y="124"/><path class="cls-1" d="M373.87,106.28a4.4,4.4,0,0,1,4-.87C366.18,76.06,401,73,401,73c54.44,1.34,9.92,51,9.92,51H389.48a1.58,1.58,0,0,1-.73-0.74c-2.71.87-7.21-.91-11-4.73C373.3,114,371.55,108.57,373.87,106.28Z"/><path class="cls-8" d="M417.35,137c2.37,0,4.65-1.64,4.65-4V128.7a5,5,0,0,0-4.65-4.7h-6.42S455.45,74.32,401,73c0,0-34.83,3-23.17,32.33a4.41,4.41,0,0,0-4,.92c-2.32,2.29-.58,7.84,3.9,12.38,3.77,3.82,8.27,5.51,11,4.64a1.62,1.62,0,0,0,.73.75H383c-2.37,0-4,2.33-4,4.7V133a3.83,3.83,0,0,0,4,4h6.46l10.73,53.78c-6-8.86-25.68-4.81-41.7.35-4.61-4.84-7.9-9.07-7.9-9.07l24.26-5s-34.25-13.66-24.26-10.66,17.74-12,9.17-10.48-24.46,0-24.46,0l-1,2.32Q331.95,155,329.3,152C330.58,130.44,308,74.22,308,83.65c0,6.8-10.73,26.5-18.62,40a105.87,105.87,0,0,0-21.17-6.16l3-12.34L261,111.54V97.59s-3.11,8.33-5,8.68c0,0-3,8.68-6,9.48V330.37c3,0,6.52-.18,9.71-0.48l0,0.08c-2.87.24-5.69,0.39-8.69,0.41l8.69-.41,3.46,30L264,329.36c2-.28,3.8-0.62,5.8-1,5.9,5.21,13.39,11.81,16,14.21-2.34-2.87-4.21-11.32-4.14-17.28l0.8-.28,22,22.52c0.93,14.27-12.86,47.23-12.86,47.23-1.18,4.76.39,12,4.56,19,5.94,9.94,14.87,15.54,20,12.5a7.28,7.28,0,0,0,3.15-5.18,7.28,7.28,0,0,0,6.06-.32c5.09-3,4.4-13.56-1.54-23.5a37,37,0,0,0-6.82-8.44L335,349.2c7-12.39,1.48-29-12.17-39.53,11.8,3.22,24.71,7.22,24.71,7.22L326.33,297.4q1-1.08,2-2.18c9.92,1.4,29.94,3.76,25.3-.79-3.8-3.73-10-13.25-11.15-18.83q1.18-2.1,2.27-4.26a8.81,8.81,0,0,1,2.76.62c12.23,4.49,28.95-11.23,21.41-11.23-3.93,0-10.81-7.33-15.41-13.72q0.77-3.39,1.32-6.87c10.13,3.61,28.87,6.35,28.87,6.35-0.3-4.41-9.81-14.26-16.84-21,12.35,0.83,28.65.74,44-2.52,30.39-6.44,0-86,0-86h6.42Z"/><path class="cls-1" d="M163.75,465.94V465h5.63v1.88h1.88v1.88h1.88v5.63h-1.87v1.88h-1.87v1.88h-5.62v-1.87h-1.87v-1.87H160v-5.62h1.88v-1.87h1.88v-0.94Zm3.75,1.88v-0.94h-3.75v7.5h1.88v1.88h3.75v-7.5H167.5v-0.94Z"/><path class="cls-1" d="M175,467.81V465h11.25v1.88h-7.5v1.88h7.5v1.88h1.88v5.63h-1.87v1.88h-9.37v-1.87H175v-1.87h3.75v1.88h5.63v-5.62H175v-2.81Z"/><path class="cls-1" d="M190,466.88V465h13.13v3.75h-1.87v1.88h-1.87v1.88H197.5v5.63h-3.75V472.5h1.88v-1.87h1.88v-1.87h1.88v-1.87h-5.62v1.88H190v-1.87Z"/><path class="cls-1" d="M220,471.56V465h11.25v1.88h1.88v5.63h-1.87v1.88h-7.5v3.75H220v-6.56Zm9.38-1.87v-2.81h-5.62v5.63h5.63v-2.81Z"/><path class="cls-1" d="M235,471.56V465h11.25v1.88h1.88v5.63h-3.75v1.88h1.88v1.88h1.88v1.88H242.5v-1.87h-1.87v-1.87h-1.87v3.75H235v-6.56Zm9.38-2.81v-1.87h-5.62v5.63h3.75v-1.87h1.88v-1.87Z"/><path class="cls-1" d="M251.88,465.94V465h11.25v1.88h-3.75v9.38h3.75v1.88H251.88v-1.87h3.75v-9.37h-3.75v-0.94Z"/><path class="cls-1" d="M265,471.56V465h3.75v1.88h1.88v1.88h1.88v-1.87h1.88V465h3.75v13.13h-3.75V472.5H272.5v1.88h-1.87V472.5h-1.87v5.63H265v-6.56Z"/><path class="cls-1" d="M280,471.56V465h13.13v1.88h-9.37v3.75h7.5v1.88h-7.5v3.75h9.38v1.88H280v-6.56Z"/><path class="cls-1" d="M298.75,465.94V465h5.63v1.88h1.88v1.88h1.88v9.38h-3.75v-3.75h-5.62v3.75H295v-9.37h1.88v-1.87h1.88v-0.94Zm3.75,1.88v-0.94h-1.87v1.88h-1.87v3.75h5.63v-3.75H302.5v-0.94Z"/><path class="cls-1" d="M310,471.56V465h11.25v1.88h1.88v5.63h-1.87v1.88h-7.5v3.75H310v-6.56Zm9.38-1.87v-2.81h-5.62v5.63h5.63v-2.81Z"/><path class="cls-1" d="M325,471.56V465h13.13v1.88h-9.37v3.75h7.5v1.88h-7.5v3.75h9.38v1.88H325v-6.56Z"/></svg>