<?xml version="1.0" ?><svg id="pkft" viewBox="0 0 500 500" xmlns="http://www.w3.org/2000/svg"><defs><style>.cls-1{fill:#dd722a;}.cls-2{fill:#e58033;}.cls-3{fill:#fff;}.cls-4{fill:#3737bc;}.cls-5{fill:none;}.cls-6{fill:#eddeb0;}.cls-13,.cls-7{fill:#1a1a1a;}.cls-8{fill:#f1e6bc;}.cls-9{fill:#ffbbd7;}.cls-10{fill:#ffc303;}.cls-11{fill:#c57530;}.cls-12{fill:#ccc;}.cls-13{opacity:0.1;}</style></defs><title/><path class="cls-1" d="M200,328H188c-6.6,0-12,5.85-12,12.45V370c-10.67,3.78-17.26,12.72-14.75,20.13s13.45,10.64,24.36,6.94A27.56,27.56,0,0,0,199.75,386H200a12.13,12.13,0,0,0,12-12.11V340.45C212,333.85,206.6,328,200,328Z"/><path class="cls-2" d="M221,238.67c8.25-8.5,29-11.5,29-11.5v-80a70,70,0,0,0-66.63,91.49C186.77,230.18,221,238.67,221,238.67Z"/><path class="cls-3" d="M210,194.22l-3.38-2.2c-3.69-2.39-7.58-.85-8.63,3.42l-6,24.63c-1.05,4.27,1.68,7.93,6.08,7.93h8.67a22,22,0,0,1-6.42-15.67C200.25,204.32,204.22,197.5,210,194.22Z"/><path class="cls-4" d="M231.22,219.87l-0.45-4.66a15,15,0,0,0-1.23-4.41A10.74,10.74,0,1,1,214.4,197.1L210,194.22c-5.75,3.28-9.72,10.11-9.72,18.12A22,22,0,0,0,206.67,228H224A7.27,7.27,0,0,0,231.22,219.87Z"/><path class="cls-3" d="M209,206.42a10.75,10.75,0,0,0,20.55,4.41,18.67,18.67,0,0,0-6.26-7.94l-8.88-5.78A10.74,10.74,0,0,0,209,206.42Z"/><path class="cls-5" d="M240,327.17l-0.34,1.42,0.57-.1Z"/><path class="cls-6" d="M243.5,347.17l-3.27-18.68-0.57.1c-1.11,4.73-4.59,19.89-4.16,22.83,0,0-.61-1.9-1.5-4.72v42.71A57.89,57.89,0,0,0,250,395V367.17S242.75,351.92,243.5,347.17Z"/><path class="cls-2" d="M228,367.84l-12.14,6.58L199,364.64v30.53c0,6.6,5.75,11.83,12.35,11.83H222a11.88,11.88,0,0,0,12-11.83V364.61Z"/><polygon class="cls-7" points="226.09 356.45 215.86 360.79 199 352.07 199 364.64 215.9 374.42 228.04 367.84 234 364.61 234 353.08 226.09 356.45"/><path class="cls-2" d="M222,275H211.35c-0.17,0-.33.1-0.5,0.11a69.52,69.52,0,0,0,22.93,10A12.28,12.28,0,0,0,222,275Z"/><path class="cls-2" d="M229.59,331.93c-1.37-4.93-2.36-9.11-2.09-10,0.65-2.18-4,9.27-4.39,13.77a2.85,2.85,0,0,0,.14,1.48c0.4,0.72-.06.17-0.68-1.17-1.31-2.82-3.33-9.12.52-14.35,0,0-5.32-4.27-7.33,0S220,307.17,220,307.17c-2.5,4-10,10-10,10,0.5-4,10-20,10-20-1.75,2-10,10-10,10-1-8.75,10-20,10-20a47.44,47.44,0,0,1-17.6-8,12.23,12.23,0,0,0-3.4,8.32v64.57l16.86,8.72,10.23-4.34,7.91-3.36V346.7C232.76,342.74,231,336.95,229.59,331.93Z"/><path class="cls-8" d="M210.85,275.19a70.18,70.18,0,0,1-27.48-36.54h0c-2.63,6.63,2,28,19,40.52A12.42,12.42,0,0,1,210.85,275.19Z"/><path class="cls-8" d="M235.5,351.42c-0.42-2.95,3.05-18.1,4.16-22.83l-5.66,1V346.7C234.89,349.52,235.5,351.42,235.5,351.42Z"/><path class="cls-8" d="M223.25,337.17a2.85,2.85,0,0,1-.14-1.48l-0.54.32C223.19,337.34,223.65,337.89,223.25,337.17Z"/><path class="cls-8" d="M233.79,285.27a69.6,69.6,0,0,1-22.93-10.07,12.42,12.42,0,0,0-8.45,4,47.44,47.44,0,0,0,17.6,8s-11.05,11.25-10,20c0,0,8.28-8,10-10,0,0-9.5,16-10,20,0,0,7.5-6,10-10,0,0-6.25,18.75-4.24,14.48s7.33,0,7.33,0c-3.84,5.24-1.82,11.54-.52,14.35l0.54-.32c0.39-4.49,5-15.94,4.39-13.77-0.27.91,0.72,5.09,2.09,10s3.17,10.8,4.41,14.76V329.58l5.66-1,0.34-1.42,0.23,1.32,3.27,18.68c-0.75,4.75,6.5,20,6.5,20v-80A70.13,70.13,0,0,1,233.79,285.27Z"/><path class="cls-8" d="M234.85,271h-0.63a48.69,48.69,0,0,1-14.55-2.42,1,1,0,0,1,.66-1.89c0.19,0.07,19.52,6.67,29-3a1,1,0,0,1,.72-0.3V247.17c-8,0-14.5-3.81-14.5-8.5s6.49-8.5,14.5-8.5v-3s-20.75,3-29,11.5c0,0-34.23-8.49-37.63,0A70,70,0,0,0,250,287.17v-5.45C246.51,281.7,239.82,280.32,234.85,271Z"/><path class="cls-7" d="M235.5,238.67c0,4.69,6.49,8.5,14.5,8.5v-17C242,230.17,235.5,234,235.5,238.67Z"/><path class="cls-9" d="M234.85,271c5,9.3,11.66,10.69,15.15,10.7V265.8C245.75,269.68,240.12,270.93,234.85,271Z"/><path class="cls-10" d="M249.28,263.72c-9.43,9.67-28.76,3.07-29,3a1,1,0,0,0-.66,1.89A48.69,48.69,0,0,0,234.22,271h0.63c5.27-.09,10.9-1.34,15.15-5.22v-2.38A1,1,0,0,0,249.28,263.72Z"/><path class="cls-8" d="M224.48,152S245,164.42,250,177.17v-90s-1.15,20-20.45,40c0,0-6.3-21.5-1-30,0,0-11.5,18.75-8.5,30,0,0-24,5.75-30,10C190,137.17,221.21,143,224.48,152Z"/><path class="cls-2" d="M195.67,178.83l-10.09-15a7.73,7.73,0,0,0-12.5-1.09L146.93,190c-3.81,4-2.63,8.54,2.63,10.17l35.78,11.07"/><path class="cls-11" d="M185.67,181.49l-6.13-9.13a4.7,4.7,0,0,0-7.6-.66L156,188.25c-2.31,2.41-1.6,5.19,1.6,6.18l21.74,6.73"/><path class="cls-12" d="M202,398.17s-7,8.17,1.67,14.67c0,0,7-1.67,6.33-6.5S202,398.17,202,398.17Z"/><path class="cls-12" d="M231.37,398.17s7,8.17-1.67,14.67c0,0-7-1.67-6.33-6.5S231.37,398.17,231.37,398.17Z"/><path class="cls-1" d="M299.69,328h12A12.69,12.69,0,0,1,324,340.45V370c10,3.78,17.11,12.72,14.6,20.13s-13.53,10.64-24.44,6.94A27.78,27.78,0,0,1,299.95,386h-0.25A11.87,11.87,0,0,1,288,373.89V340.45C288,333.85,293.09,328,299.69,328Z"/><path class="cls-2" d="M278.85,238.67c-8.25-8.5-28.85-11.5-28.85-11.5v-80c38,0,69.85,31.34,69.85,70a69.92,69.92,0,0,1-3.37,21.49C313.07,230.18,278.85,238.67,278.85,238.67Z"/><path class="cls-3" d="M289.72,194.22l3.38-2.2c3.69-2.39,7.58-.85,8.63,3.42l6,24.63c1.05,4.27-1.68,7.93-6.08,7.93H293a22,22,0,0,0,6.42-15.67C299.44,204.32,295.47,197.5,289.72,194.22Z"/><path class="cls-4" d="M268.47,219.87l0.45-4.66a15,15,0,0,1,1.23-4.41,10.74,10.74,0,1,0,15.15-13.71l4.43-2.88c5.75,3.28,9.72,10.11,9.72,18.12A22,22,0,0,1,293,228H275.69A7.27,7.27,0,0,1,268.47,219.87Z"/><path class="cls-3" d="M290.69,206.42a10.75,10.75,0,0,1-20.55,4.41,18.67,18.67,0,0,1,6.26-7.94l8.88-5.78A10.74,10.74,0,0,1,290.69,206.42Z"/><path class="cls-5" d="M259.69,327.17l0.34,1.42-0.57-.1Z"/><path class="cls-6" d="M256.35,347.17l3.19-18.68,0.53,0.1c1.11,4.73,4.72,19.89,4.3,22.83,0,0,.63-1.9,1.63-4.72v42.71A69.57,69.57,0,0,1,250,395V367.17S257.1,351.92,256.35,347.17Z"/><path class="cls-2" d="M271.8,367.84L284,374.42l17-9.77v30.53c0,6.6-6.06,11.83-12.66,11.83H277.67A11.62,11.62,0,0,1,266,395.17V364.61Z"/><polygon class="cls-7" points="273.76 356.45 284.06 360.79 301 352.07 301 364.64 283.94 374.42 271.88 367.84 266 364.61 266 353.08 273.76 356.45"/><path class="cls-2" d="M277.67,275h10.67c0.17,0,.33.1,0.5,0.11a69.52,69.52,0,0,1-22.93,10A12.28,12.28,0,0,1,277.67,275Z"/><path class="cls-2" d="M270.26,331.93c1.37-4.93,2.28-9.11,2-10-0.65-2.18,4,9.27,4.35,13.77a2.81,2.81,0,0,1-.16,1.48c-0.4.72,0,.17,0.67-1.17,1.31-2.82,3.32-9.12-.52-14.35,0,0,5.32-4.27,7.33,0s-4.25-14.48-4.25-14.48c2.5,4,10,10,10,10-0.5-4-10-20-10-20,1.75,2,10,10,10,10,1-8.75-10-20-10-20a48.19,48.19,0,0,0,17.75-8A12.39,12.39,0,0,1,301,287.5v64.57l-17,8.72-10.15-4.34L266,353.08V346.7C267,342.74,268.87,336.95,270.26,331.93Z"/><path class="cls-8" d="M288.84,275.19a70.18,70.18,0,0,0,27.48-36.54h0c2.63,6.63-2,28-19,40.52A12.42,12.42,0,0,0,288.84,275.19Z"/><path class="cls-8" d="M264.35,351.42c0.42-2.95-3-18.1-4.09-22.83l5.74,1V346.7C265,349.52,264.35,351.42,264.35,351.42Z"/><path class="cls-8" d="M276.44,337.17a2.85,2.85,0,0,0,.14-1.48l0.54,0.32C276.5,337.34,276,337.89,276.44,337.17Z"/><path class="cls-8" d="M266.06,285.27a69.21,69.21,0,0,0,22.85-10.07,12.33,12.33,0,0,1,8.41,4,47.53,47.53,0,0,1-17.62,8s11,11.25,10,20c0,0-8.28-8-10-10,0,0,9.5,16,10,20,0,0-7.5-6-10-10,0,0,6.25,18.75,4.24,14.48s-7.33,0-7.33,0c3.84,5.24,1.82,11.54.51,14.35l-0.54-.32c-0.39-4.49-5-15.94-4.39-13.77,0.27,0.91-.56,5.09-1.93,10S267,342.74,266,346.7V329.58l-5.82-1a11.64,11.64,0,0,0-.41-1.42l-0.27,1.32-3.13,18.68c0.75,4.75-6.37,20-6.37,20v-80A72.7,72.7,0,0,0,266.06,285.27Z"/><path class="cls-8" d="M265,271h0.56a48.3,48.3,0,0,0,14.51-2.42,1,1,0,0,0,.59-1.27,1,1,0,0,0-1.28-.61c-0.19.07-19.37,6.67-28.8-3a1.46,1.46,0,0,0-.57-0.3V247.17c8,0,14.5-3.81,14.5-8.5s-6.5-8.5-14.5-8.5v-3s20.6,3,28.85,11.5c0,0,34.31-8.49,37.7,0A70.08,70.08,0,0,1,250,287.17v-5.45C253,281.7,260,280.32,265,271Z"/><path class="cls-7" d="M264.5,238.67c0,4.69-6.5,8.5-14.5,8.5v-17C258,230.17,264.5,234,264.5,238.67Z"/><path class="cls-9" d="M265.15,271c-5,9.3-12.15,10.69-15.15,10.7V265.8C254,269.68,259.88,270.93,265.15,271Z"/><path class="cls-10" d="M250.56,263.72c9.43,9.67,28.68,3.07,28.88,3a1,1,0,0,1,1.24.61,1,1,0,0,1-.63,1.27A48.79,48.79,0,0,1,265.48,271H265c-5.27-.09-11-1.34-15-5.22v-2.38A1.45,1.45,0,0,1,250.56,263.72Z"/><path class="cls-8" d="M275.37,152S255,164.42,250,177.17v-90s1,20,20.3,40c0,0,6.22-21.5,1-30,0,0,11.46,18.75,8.46,30,0,0,24.06,5.75,30.06,10C309.79,137.17,278.64,143,275.37,152Z"/><path class="cls-2" d="M304,178.83l10.09-15a7.73,7.73,0,0,1,12.5-1.09L352.77,190c3.81,4,2.63,8.54-2.63,10.17l-35.78,11.07"/><path class="cls-11" d="M314,181.49l6.13-9.13a4.7,4.7,0,0,1,7.6-.66l15.89,16.55c2.31,2.41,1.6,5.19-1.6,6.18l-21.74,6.73"/><path class="cls-12" d="M297.69,398.17s7,8.17-1.67,14.67c0,0-7-1.67-6.33-6.5S297.69,398.17,297.69,398.17Z"/><path class="cls-12" d="M268.32,398.17s-7,8.17,1.67,14.67c0,0,7-1.67,6.33-6.5S268.32,398.17,268.32,398.17Z"/><path class="cls-13" d="M352.77,190l-26.15-27.24a7.73,7.73,0,0,0-12.5,1.09l-8,11.92A70.9,70.9,0,0,0,275.29,152l0.07,0c3.27-9,34.42-14.8,34.42-14.8-6-4.25-30.06-10-30.06-10,3-11.25-8.46-30-8.46-30,5.25,8.5-1,30-1,30-19.3-20-20.3-40-20.3-40V263.42a1.46,1.46,0,0,1,.57.3,15.77,15.77,0,0,0,5.1,3.46,15.75,15.75,0,0,1-5.1-3.46,1.45,1.45,0,0,0-.56-0.3v23.75c0.75,0,1.49,0,2.23,0-0.76,0-1.5,0-2.23,0V395a69.57,69.57,0,0,0,16-5.55v5.76a12.4,12.4,0,0,0,1,5c-1.51,2.81-3.1,8.17,3,12.71,0,0,6.25-1.58,6.37-5.83a11.92,11.92,0,0,0,1.32,0h10.67a12.16,12.16,0,0,0,1.32,0c0.12,4.25,6.37,5.78,6.37,5.78,5.53-4.15,4.68-8.95,3.34-11.9a11,11,0,0,0,1.63-5.73v-7.44a28.3,28.3,0,0,0,13.16,9.45c10.91,3.7,21.9.48,24.44-7S334,373.8,324,370V340.45A12.69,12.69,0,0,0,311.69,328H301V287.5a12.39,12.39,0,0,0-3.56-8.32,47,47,0,0,1-13,6.65,46.83,46.83,0,0,0,12.91-6.65l0,0c16.79-12.34,21.49-33.22,19.12-40.18l0.12-.33,0-.09a69.64,69.64,0,0,0,2.93-28.94l30.71-9.5C355.39,198.5,356.58,193.92,352.77,190ZM280.62,268.1a0.94,0.94,0,0,1-.56.5,48.51,48.51,0,0,1-14.51,2.4h0A48.82,48.82,0,0,0,280,268.6,1,1,0,0,0,280.62,268.1Zm24.11-33.21c-11.12.12-25.88,3.77-25.88,3.77S293.63,235,304.73,234.89Zm-25.36,31.83a1,1,0,0,1,.42,0,1,1,0,0,0-.35,0,47.88,47.88,0,0,1-13.3,2.26A47.56,47.56,0,0,0,279.37,266.72Zm-7.18,55.19c-0.1-.35-0.07-0.34.05-0.08l0,0.08c0.27,0.91-.64,5.09-2,10C271.63,327,272.46,322.83,272.19,321.92Zm1.65,34.53,5.08,2.17-5.15-2.17L266,353.08Zm6-59.28c1.74,2,10.16,9.9,10.16,10h0s-8.31-8-10.08-10h-0.08Zm10.16,20s-6.59-5.27-9.48-9.23c2.88,3.95,9.48,9.21,9.48,9.23h0Zm-5.7,5.11c0.48,0.24-3.92-13.06-4.53-14.9C280.37,309.22,284.79,322.55,284.3,322.27Zm3.7,36.46v0l-3.94,2,0,0Zm-6.65-39c-2.22-.12-4.74,1.89-4.74,1.89,3.84,5.24,1.83,11.54.52,14.35a5.91,5.91,0,0,1-.82,1.47,8.3,8.3,0,0,0,.81-1.47l-0.5-.29h0l0.5,0.29c1.31-2.82,3.33-9.12-.51-14.35C276.61,321.64,279.12,319.63,281.35,319.75Zm-21.85,8.74h0L257.41,341Zm0.53,0.08-0.29-1.23,0-.17a11.64,11.64,0,0,1,.41,1.42h0.08c0.91,3.86,3.32,14.61,4,20.06-0.69-5.46-3.25-16.22-4.16-20.07h0Zm4.34,22.84s0-.05,0-0.08c0.12-.35.74-2.12,1.63-4.64C265,349.52,264.37,351.42,264.37,351.42Zm7.44,16.42-5.8-3.23,5.88,3.23,6,3.29ZM284,374.39l4-2.3v0l-4,2.29Z"/><path class="cls-2" d="M156.25,465.94V465h5.63v1.88h1.88v1.88h1.88v5.63h-1.87v1.88h-1.87v1.88h-5.62v-1.87h-1.87v-1.87H152.5v-5.62h1.88v-1.87h1.88v-0.94Zm3.75,1.88v-0.94h-3.75v7.5h1.88v1.88h3.75v-7.5H160v-0.94Z"/><path class="cls-2" d="M167.5,467.81V465h11.25v1.88h-7.5v1.88h7.5v1.88h1.88v5.63h-1.87v1.88h-9.37v-1.87H167.5v-1.87h3.75v1.88h5.63v-5.62H167.5v-2.81Z"/><path class="cls-2" d="M184.38,465.94V465h7.5v1.88h1.88v3.75h-1.87v1.88h3.75v3.75h-1.87v1.88h-9.37v-1.87H182.5V472.5h1.88v-1.87H182.5v-3.75h1.88v-0.94Zm3.75,7.5V472.5h-3.75v3.75h7.5v-1.87h-3.75v-0.94Zm3.75-4.69v-1.87h-5.62v1.88h1.88v1.88h3.75v-1.87Z"/><path class="cls-2" d="M216.25,465.94V465h9.38v1.88h-7.5v1.88h-1.87v5.63h1.88v1.88h3.75V472.5H220v-1.87h5.63v7.5h-9.37v-1.87h-1.87v-1.87H212.5v-5.62h1.88v-1.87h1.88v-0.94Z"/><path class="cls-2" d="M227.5,471.56V465h11.25v1.88h1.88v5.63h-3.75v1.88h1.88v1.88h1.88v1.88H235v-1.87h-1.87v-1.87h-1.87v3.75H227.5v-6.56Zm9.38-2.81v-1.87h-5.62v5.63H235v-1.87h1.88v-1.87Z"/><path class="cls-2" d="M244.38,465.94V465h9.38v1.88h1.88v9.38h-1.87v1.88h-9.37v-1.87H242.5v-9.37h1.88v-0.94Zm7.5,5.63v-4.69h-5.62v9.38h5.63v-4.69Z"/><path class="cls-2" d="M257.5,471.56V465h3.75v5.63h1.88v-1.87H265v1.88h1.88V465h3.75v13.13h-3.75v-1.87H265v-1.87h-1.87v1.88h-1.87v1.88H257.5v-6.56Z"/><path class="cls-2" d="M274.38,471.56V465h3.75v11.25h7.5v1.88H274.38v-6.56Z"/><path class="cls-2" d="M289.38,465.94V465h11.25v1.88h-3.75v9.38h3.75v1.88H289.38v-1.87h3.75v-9.37h-3.75v-0.94Z"/><path class="cls-2" d="M304.38,465.94V465h11.25v1.88h-3.75v11.25h-3.75V466.88h-3.75v-0.94Z"/><path class="cls-2" d="M317.5,471.56V465h3.75v5.63h5.63V465h3.75v13.13h-3.75V472.5h-5.62v5.63H317.5v-6.56Z"/><path class="cls-2" d="M332.5,471.56V465h13.13v1.88h-9.37v3.75h7.5v1.88h-7.5v3.75h9.38v1.88H332.5v-6.56Z"/></svg>