<?xml version="1.0" ?><svg id="pkft" viewBox="0 0 500 500" xmlns="http://www.w3.org/2000/svg"><defs><style>.cls-1{fill:none;}.cls-2{fill:#e58033;}.cls-3{fill:#f1e6bc;}.cls-4{fill:#dd722a;}.cls-5{fill:#d66213;}.cls-10,.cls-6{fill:#1a1a1a;}.cls-7{fill:#e8d8aa;}.cls-8{fill:#fff;}.cls-9{fill:#ffb6d4;}.cls-10{opacity:0.1;}</style></defs><title/><path class="cls-1" d="M162.47,172.72q0.94-.75,1.94-1.43Q163.4,172,162.47,172.72Z"/><path class="cls-1" d="M166.29,170.11l0.13-.08Z"/><polygon class="cls-1" points="170.78 168 170.77 168 170.78 168 170.78 168"/><path class="cls-1" d="M195.95,169.84l0.19,0.1Z"/><path class="cls-1" d="M198,171.08c0.14-.54.31-1.06,0.49-1.58Q198.23,170.28,198,171.08Z"/><path class="cls-1" d="M194.14,168.91h0Z"/><path class="cls-2" d="M164.4,171.29c0.61-.42,1.25-0.81,1.89-1.18C165.65,170.49,165,170.87,164.4,171.29Z"/><path class="cls-2" d="M166.42,170a30.56,30.56,0,0,1,4.35-2A30.05,30.05,0,0,0,166.42,170Z"/><path class="cls-2" d="M196.14,169.94q1,0.54,1.87,1.14Q197.1,170.48,196.14,169.94Z"/><path class="cls-2" d="M194.16,168.92c0.61,0.28,1.2.59,1.79,0.92C195.36,169.52,194.77,169.21,194.16,168.92Z"/><path class="cls-2" d="M190,167.33a30.28,30.28,0,0,1,4.16,1.58A30,30,0,0,0,190,167.33Z"/><path class="cls-2" d="M228.1,111.8l11,11.92-5.27-16.37L228.1,89.7l11,10.31-6.57-19.34a83.37,83.37,0,0,0-37.08,19.48l-16.63-5.29-10.15-3.23a15.53,15.53,0,0,0-11.73,1.65L135,107.9c-3,2-3.15,5.48-.3,7.71L168.18,142a108.82,108.82,0,0,0-5.71,30.72q0.94-.75,1.94-1.43c0.61-.42,1.25-0.81,1.89-1.18l0.13-.08a30.05,30.05,0,0,1,4.35-2h0c3,3,7.93,6.68,12.41,4.72a16.38,16.38,0,0,0,6.8-5.39h0a30,30,0,0,1,4.16,1.58h0c0.61,0.28,1.2.59,1.79,0.92l0.19,0.1q1,0.54,1.87,1.14c0.14-.54.31-1.06,0.49-1.58s0.38-1,.6-1.52c2.37,3.82,7.93,9.12,20.51,9.3,9.85,0.14,16-3.14,19.7-6.46,0.09,0.33.19,0.65,0.27,1a13,13,0,0,1,3.77-3.71Zm-55.5,14.11a3.66,3.66,0,0,1-5.49,1.57l-17.24-11.34c-2-1.32-2-3.48,0-4.79l10.84-7a11,11,0,0,1,7.89-1.16l15.67,4.53C177.43,115.38,172.6,125.91,172.6,125.91Z"/><path class="cls-3" d="M160.72,104.34l-10.84,7c-2,1.31-2,3.47,0,4.79l17.24,11.34a3.66,3.66,0,0,0,5.49-1.57s4.83-10.53,11.68-18.2l-15.67-4.53A11,11,0,0,0,160.72,104.34Z"/><path class="cls-1" d="M194.14,168.91a30,30,0,0,0-4.16-1.58A30.28,30.28,0,0,1,194.14,168.91Z"/><path class="cls-1" d="M170.77,168a30.05,30.05,0,0,0-4.35,2A30.56,30.56,0,0,1,170.77,168Z"/><path class="cls-4" d="M172.78,438.42c-0.05.22-.12,0.43-0.18,0.64l31.11,2a13.18,13.18,0,0,0,14-12.29l0.39-6.21c-15.53-3.77-29.88-8.09-39.07-11Z"/><polygon class="cls-5" points="195.24 341.61 195.11 341.68 194.39 344.78 195.24 341.61"/><path class="cls-2" d="M170.92,219.78a74.49,74.49,0,0,1-15-.44L151.11,240c5.06-5.06,14.89-13.59,20.58-18.46C171.43,221,171.17,220.37,170.92,219.78Z"/><polygon class="cls-1" points="162.37 286.87 163.54 289.31 166.41 288.22 162.37 286.87"/><polygon class="cls-2" points="156.41 373.5 183.99 363 188.05 368.56 194.39 344.78 195.11 341.68 194.66 341.9 173.52 352.74 184.28 331 162.37 331 184.28 320 158.72 320 151.41 320 158.93 316.57 167.38 312.85 154 314.71 145.5 290 139.03 292.35 124.96 353.3 150 348.61 156.41 373.5"/><path class="cls-2" d="M160.41,290.5l3.12-1.19-1.17-2.44,4,1.34,14-5.32-7-7L202,283.55V259.62a1.18,1.18,0,0,0-.23-0.1l-17.31,11.43,8.12-19.23L171.15,254s3.1-4.67,5.91-9c1.78-2.76,3.43-5.4,4.1-6.67l-0.22-.32c-2.8,3.1-24,5.33-30.74,6l-5.4,23.41,9.2-1.72Z"/><path class="cls-2" d="M150,397.71L141.5,373l-23,8.37-9.75,42.27a13.18,13.18,0,0,0,9.85,15.77L157,448.27a13.18,13.18,0,0,0,15.58-9.21c0.06-.21.13-0.42,0.18-0.64l6.2-26.89,3.27-14.18L176.69,394Z"/><polygon class="cls-6" points="186.47 374.48 188.05 368.56 183.99 363 156.41 373.5 150 348.61 124.96 353.3 118.49 381.37 141.5 373 150 397.71 176.69 394 182.26 397.35 187.9 372.88 186.47 374.48"/><polygon class="cls-6" points="154 314.71 167.38 312.85 173.52 310.14 163.54 289.31 160.41 290.5 154 265.61 144.8 267.33 139.03 292.35 145.5 290 154 314.71"/><polygon class="cls-6" points="195.24 297.81 180.39 282.89 166.41 288.22 195.24 297.81"/><path class="cls-3" d="M148.13,244.11l2.08-.19,0.91-3.92C148.65,242.46,147.31,244.11,148.13,244.11Z"/><polygon class="cls-3" points="151.41 320 158.72 320 158.93 316.72 151.41 320"/><polygon class="cls-3" points="186.47 374.48 187.9 372.88 194.39 344.78 186.47 374.48"/><polygon class="cls-3" points="195.88 338.34 194.66 341.9 195.11 341.68 195.88 338.34"/><path class="cls-3" d="M243.35,168.34l0.12,0.66H250v-3A14.94,14.94,0,0,0,243.35,168.34Z"/><path class="cls-7" d="M232.49,80.67L228.1,67.74l10.95,4.92L250,66.76V54.49l-6.65,5.28-4.29-8.37L231.93,66,221,55.58,214.41,77.2l-7.12-21.62-8.66,16.91L190,66.74V90.2l-16.72-2.35,5.57,7,16.6,5.29A83.27,83.27,0,0,1,232.49,80.67Z"/><path class="cls-3" d="M239.06,123.73l-11-11.92,15.24,56.29A14.5,14.5,0,0,1,250,166V104l-16.22,3.39Z"/><polygon class="cls-3" points="250 66.76 239.05 72.66 228.1 67.74 232.49 80.67 239.06 100.01 228.1 89.7 233.78 107.36 250 103.97 250 78.68 250 66.76"/><path class="cls-8" d="M212.7,134.36l-13.05-8.78c-2.49-1.69-4.65-.61-4.65,2.4v21.91a7.64,7.64,0,0,0,5.41,6.88l9.08,2.39c-0.07-1.36-.09-2.74-0.09-4.14A60.77,60.77,0,0,1,212.7,134.36Z"/><path class="cls-8" d="M233.38,165.46l10,2.64-4.29-15.85-5.19-3.53c0.17,2,.26,4.14.26,6.29A71.82,71.82,0,0,1,233.38,165.46Z"/><path class="cls-6" d="M234.13,155c0-2.16-.09-4.26-0.26-6.29L212.7,134.36A60.82,60.82,0,0,0,209.43,155c0,1.41,0,2.79.12,4.14l9.75,2.58c0.07-6.86,1.15-12.32,2.48-12.32s2.49,5.81,2.49,13c0,0.22,0,.44,0,0.66l9.12,2.41A71.82,71.82,0,0,0,234.13,155Z"/><path class="cls-8" d="M221.78,149.42c-1.33,0-2.41,5.46-2.48,12.32l5,1.31c0-.22,0-0.43,0-0.66C224.27,155.22,223.15,149.42,221.78,149.42Z"/><path class="cls-5" d="M239.05,407.35l-13.69,11,2.74-27.39-8.44,6.34-13.43,10.09,10.91-32.87-21.91,21.91,11-43.82L187.9,372.89,179,411.53c9.2,2.92,23.53,7.24,39.07,11,10.52,2.55,21.95,4.86,31.95,6.31v-6.44Z"/><path class="cls-6" d="M250,187.29c-6-.63-16.22-1-15.89.94,0.44,2.61,10.89,12.59,15.89,15.85V187.29Z"/><path class="cls-3" d="M250,214.15v0c-1,.12-2.55.25-3.84,0.39Z"/><path class="cls-3" d="M206.48,222.16a1.09,1.09,0,0,1-1.06-.28l-11-11a1.1,1.1,0,0,1,1.55-1.55l10.51,10.36A106.7,106.7,0,0,1,217.15,217h0A227.37,227.37,0,0,1,250,211.9v-7.81c-5-3.26-15.45-13.24-15.89-15.85-0.33-2,9.89-1.57,15.89-.94V169h-6.53l-0.11-.66a12.62,12.62,0,0,0-3.77,3.59c-0.07-.33-0.18-0.71-0.27-1-3.7,3.32-9.86,6.56-19.7,6.43-12.58-.17-18.14-5.49-20.51-9.31-0.22.5-.42,1-0.6,1.51s-0.35,1-.49,1.58q-0.91-.61-1.87-1.15l-0.19-.1c-0.58-.32-1.18-0.63-1.79-0.92h0a30.28,30.28,0,0,0-4.16-1.58h0a16.38,16.38,0,0,1-6.8,5.39c-4.47,2-9.38-1.72-12.41-4.72h0a30.56,30.56,0,0,0-4.35,2l-0.13.08c-0.65.37-1.28,0.76-1.89,1.18s-1.31.93-1.94,1.43c0,0.1,0,.2,0,0.3l-21.94,4.39,22,5.7q0.12,2.4.35,4.77c-7,4.84-18.8,13.41-18,15.73L160.19,201l4.57-.78q0.35,1.64.75,3.27c-2.16,1.79-4.77,3.94-7.36,6-5.36,4.31-10.64,8.33-11.66,8.33s3.6,0.87,9.39,1.52a74.49,74.49,0,0,0,15,.44c0.25,0.59.51,1.17,0.77,1.76-5.69,4.87-15.52,13.4-20.58,18.46l-0.91,3.92c6.76-.64,27.93-2.87,30.74-6l0.22,0.32c-0.67,1.26-2.33,3.9-4.11,6.67-2.81,4.37-5.92,9-5.92,9l21.42-2.25-8.15,19.23,17.36-11.43a1.15,1.15,0,0,1,.23.1v23.93l-28.58-7.67,21.86,21.91-32.89-11,11.14,23.24-14.59,6.5L158.73,320h25.55l-21.91,11h21.91l-10.76,21.74L194.66,342l1.22-3.6-0.77,3.31,0.13-.08-0.85,3.17-6.49,28.1,18.29-20.32-11,43.82,21.91-21.91-10.91,32.87,13.43-10.09,8.44-6.34-2.74,27.39,13.69-11L250,422.41V225.92c-12-1.52-22.73-5.2-28.82-7.22C212.62,220.5,206.66,222.11,206.48,222.16Z"/><path class="cls-9" d="M246.17,214.52c-8.89,1-17.84,2.67-25,4.18,6.09,2,16.82,5.7,28.82,7.22V214.15Z"/><path class="cls-8" d="M217.15,231.51l4-12.81c-3.74.79-7,1.54-9.48,2.14Z"/><path class="cls-6" d="M217.14,217h0a106.67,106.67,0,0,0-10.63,2.73L196,209.3a1.1,1.1,0,0,0-1.55,0,1.12,1.12,0,0,0,0,1.57l11,11a1.1,1.1,0,0,0,1.06.29c0.1,0,2-.55,5.23-1.32,2.49-.6,5.73-1.35,9.48-2.14,7.15-1.51,16.1-3.17,25-4.18,1.28-.15,2.83-0.27,3.83-0.39V211.9A227.43,227.43,0,0,0,217.14,217Z"/><path class="cls-1" d="M337.93,172.72Q337,172,336,171.29,337,172,337.93,172.72Z"/><path class="cls-1" d="M334.1,170.11L334,170Z"/><polygon class="cls-1" points="329.62 168 329.63 168 329.62 168 329.62 168"/><path class="cls-1" d="M304.45,169.84l-0.19.1Z"/><path class="cls-1" d="M302.38,171.08c-0.14-.54-0.31-1.06-0.49-1.58Q302.17,170.28,302.38,171.08Z"/><path class="cls-1" d="M306.25,168.91h0Z"/><path class="cls-2" d="M336,171.29c-0.61-.42-1.25-0.81-1.89-1.18C334.75,170.49,335.38,170.87,336,171.29Z"/><path class="cls-2" d="M334,170a30.56,30.56,0,0,0-4.35-2A30.05,30.05,0,0,1,334,170Z"/><path class="cls-2" d="M304.25,169.94q-1,.54-1.87,1.14Q303.29,170.48,304.25,169.94Z"/><path class="cls-2" d="M306.23,168.92c-0.61.28-1.2,0.59-1.79,0.92C305,169.52,305.63,169.21,306.23,168.92Z"/><path class="cls-2" d="M310.41,167.33a30.28,30.28,0,0,0-4.16,1.58A30,30,0,0,1,310.41,167.33Z"/><path class="cls-2" d="M257,168.09a13,13,0,0,1,3.77,3.71c0.07-.33.18-0.65,0.27-1,3.7,3.32,9.86,6.59,19.7,6.46,12.58-.17,18.14-5.48,20.51-9.3q0.32,0.75.6,1.52c0.18,0.52.35,1,.49,1.58q0.91-.61,1.87-1.14l0.19-.1c0.58-.32,1.18-0.63,1.79-0.92h0a30,30,0,0,1,4.16-1.58h0a16.38,16.38,0,0,0,6.8,5.39c4.47,2,9.38-1.72,12.41-4.72h0a30.05,30.05,0,0,1,4.35,2l0.13,0.08c0.65,0.37,1.28.76,1.89,1.18s1.31,0.93,1.94,1.43A108.82,108.82,0,0,0,332.22,142l33.51-26.39c2.84-2.24,2.7-5.71-.3-7.71L343.5,93.28a15.53,15.53,0,0,0-11.73-1.65l-10.15,3.23L305,100.15A83.37,83.37,0,0,0,267.9,80.67L261.34,100l11-10.31-5.69,17.66-5.27,16.37,11-11.92Zm59.07-60.38,15.67-4.53a11,11,0,0,1,7.89,1.16l10.84,7c2,1.31,2,3.47,0,4.79l-17.24,11.34a3.66,3.66,0,0,1-5.49-1.57S323,115.38,316.12,107.71Z"/><path class="cls-3" d="M339.67,104.34l10.84,7c2,1.31,2,3.47,0,4.79l-17.24,11.34a3.66,3.66,0,0,1-5.49-1.57s-4.83-10.53-11.68-18.2l15.67-4.53A11,11,0,0,1,339.67,104.34Z"/><path class="cls-1" d="M306.25,168.91a30,30,0,0,1,4.16-1.58A30.28,30.28,0,0,0,306.25,168.91Z"/><path class="cls-1" d="M329.63,168a30.05,30.05,0,0,1,4.35,2A30.56,30.56,0,0,0,329.63,168Z"/><path class="cls-4" d="M327.61,438.42c0.05,0.22.12,0.43,0.18,0.64l-31.11,2a13.18,13.18,0,0,1-14-12.29l-0.39-6.21c15.53-3.77,29.88-8.09,39.07-11Z"/><polygon class="cls-5" points="305.16 341.61 305.29 341.68 306.01 344.78 305.16 341.61"/><path class="cls-2" d="M329.48,219.78a74.49,74.49,0,0,0,15-.44L349.29,240c-5.06-5.06-14.89-13.59-20.58-18.46C329,221,329.23,220.37,329.48,219.78Z"/><polygon class="cls-1" points="338.03 286.87 336.86 289.31 333.99 288.22 338.03 286.87"/><polygon class="cls-2" points="343.98 373.5 316.41 363 312.35 368.56 306.01 344.78 305.29 341.68 305.74 341.9 326.88 352.74 316.12 331 338.03 331 316.12 320 341.67 320 348.98 320 341.46 316.57 333.01 312.85 346.4 314.71 354.9 290 361.37 292.35 375.43 353.3 350.4 348.61 343.98 373.5"/><path class="cls-2" d="M340,290.5l-3.12-1.19,1.17-2.44-4,1.34-14-5.32,6.77-7L298,283.55V259.62s0.39-.07.43-0.1l17.41,11.43-8.07-19.23L329.23,254s-3.09-4.67-5.9-9c-1.78-2.76-3.43-5.4-4.1-6.67l0.23-.32c2.8,3.1,24,5.33,30.74,6l5.4,23.41-9.2-1.72Z"/><path class="cls-2" d="M350.4,397.71L358.9,373l23,8.37,9.75,42.27a13.18,13.18,0,0,1-9.85,15.77l-38.43,8.87a13.18,13.18,0,0,1-15.58-9.21c-0.06-.21-0.13-0.42-0.18-0.64l-6.2-26.89-3.27-14.18L323.7,394Z"/><polygon class="cls-6" points="313.93 374.48 312.35 368.56 316.41 363 343.98 373.5 350.4 348.61 375.43 353.3 381.91 381.37 358.9 373 350.4 397.71 323.7 394 318.14 397.35 312.49 372.88 313.93 374.48"/><polygon class="cls-6" points="346.4 314.71 333.01 312.85 326.88 310.14 336.86 289.31 339.98 290.5 346.4 265.61 355.59 267.33 361.37 292.35 354.9 290 346.4 314.71"/><polygon class="cls-6" points="305.16 297.81 320 282.89 333.99 288.22 305.16 297.81"/><path class="cls-3" d="M352.27,244.11l-2.08-.19L349.29,240C351.75,242.46,353.09,244.11,352.27,244.11Z"/><polygon class="cls-3" points="348.98 320 341.67 320 341.46 316.72 348.98 320"/><polygon class="cls-3" points="313.93 374.48 312.49 372.88 306.01 344.78 313.93 374.48"/><polygon class="cls-3" points="304.52 338.34 305.74 341.9 305.29 341.68 304.52 338.34"/><path class="cls-3" d="M256.85,168.34l0.08,0.66H250v-3A15.69,15.69,0,0,1,256.85,168.34Z"/><path class="cls-7" d="M267.9,80.67l4.39-12.93-11.15,4.92L250,66.76V54.49l6.85,5.28,4.39-8.37L268.41,66l11-10.46L286,77.2l7.13-21.62,8.47,16.91L310,66.74V90.2l16.92-2.35-5.47,7-16.55,5.29A83.1,83.1,0,0,0,267.9,80.67Z"/><path class="cls-3" d="M261.34,123.73l11-11.92-15.44,56.29A15.25,15.25,0,0,0,250,166V104l16.42,3.39Z"/><polygon class="cls-3" points="250 66.76 261.15 72.66 272.2 67.74 267.86 80.67 261.31 100.01 272.28 89.7 266.41 107.36 250 103.97 250 78.68 250 66.76"/><path class="cls-8" d="M287.69,134.36l12.85-8.78C303,123.89,305,125,305,128v21.91a7.45,7.45,0,0,1-5.22,6.88l-9,2.39c0.07-1.36.14-2.74,0.14-4.14A60.85,60.85,0,0,0,287.69,134.36Z"/><path class="cls-8" d="M267,165.46l-10,2.64,4.29-15.85,5.19-3.53c-0.17,2-.26,4.14-0.26,6.29A71.82,71.82,0,0,0,267,165.46Z"/><path class="cls-6" d="M266.27,155c0-2.16.09-4.26,0.26-6.29l21.16-14.36A60.82,60.82,0,0,1,291,155c0,1.41,0,2.79-.12,4.14l-9.75,2.58c-0.07-6.86-1.15-12.32-2.48-12.32s-2.49,5.81-2.49,13c0,0.22,0,.44,0,0.66L267,165.46A71.82,71.82,0,0,1,266.27,155Z"/><path class="cls-8" d="M278.62,149.42c1.33,0,2.41,5.46,2.48,12.32l-5,1.31c0-.22,0-0.43,0-0.66C276.13,155.22,277.24,149.42,278.62,149.42Z"/><path class="cls-5" d="M261.15,407.35l13.79,11-2.69-27.39,8.46,6.34,13.44,10.09-10.9-32.87,21.91,21.91-11-43.82,18.29,20.32,8.92,38.65c-9.2,2.92-23.73,7.24-39.26,11C271.63,425.1,260,427.4,250,428.85v-6.44Z"/><path class="cls-6" d="M250,187.29c6-.63,16.22-1,15.89.94-0.44,2.61-10.89,12.59-15.89,15.85V187.29Z"/><path class="cls-3" d="M250,214.15v0c1,0.12,2.55.25,3.84,0.39Z"/><path class="cls-3" d="M293.92,222.16a1.09,1.09,0,0,0,1.06-.28l11-11a1.1,1.1,0,0,0-1.55-1.55l-10.51,10.36A106.7,106.7,0,0,0,283.25,217h0A233.88,233.88,0,0,0,250,211.9v-7.81c5-3.26,15.45-13.24,15.89-15.85,0.33-2-9.89-1.57-15.89-.94V169h6.93l0.11-.66a12.62,12.62,0,0,1,3.77,3.59c0.07-.33.18-0.71,0.27-1,3.7,3.32,9.86,6.56,19.7,6.43,12.58-.17,18.14-5.49,20.51-9.31,0.22,0.5.42,1,.6,1.51s0.35,1,.49,1.58q0.91-.61,1.87-1.15l0.19-.1c0.58-.32,1.18-0.63,1.79-0.92h0a30.28,30.28,0,0,1,4.16-1.58h0a16.38,16.38,0,0,0,6.8,5.39c4.47,2,9.38-1.72,12.41-4.72h0a30.56,30.56,0,0,1,4.35,2l0.13,0.08c0.65,0.37,1.28.76,1.89,1.18s1.31,0.93,1.94,1.43c0,0.1,0,.2,0,0.3l21.94,4.39-22,5.7q-0.12,2.4-.35,4.77c7,4.84,18.8,13.41,18,15.73L340.21,201l-4.57-.78q-0.35,1.64-.75,3.27c2.16,1.79,4.77,3.94,7.36,6,5.36,4.31,10.64,8.33,11.66,8.33s-3.6.87-9.39,1.52a74.49,74.49,0,0,1-15,.44c-0.25.59-.51,1.17-0.77,1.76,5.69,4.87,15.52,13.4,20.58,18.46l0.91,3.92c-6.76-.64-27.93-2.87-30.74-6l-0.22.32c0.67,1.26,2.33,3.9,4.11,6.67,2.81,4.37,5.92,9,5.92,9l-21.42-2.25L316,270.95l-17.56-11.43s-0.43.07-.43,0.1v23.93l28.78-7.67L305,297.79l32.94-11-11.11,23.24,14.6,6.5,0.23,3.43H316.12L338,331H316.12l10.76,21.74L305.74,342l-1.22-3.6,0.77,3.31-0.13-.08,0.85,3.17,6.49,28.1-18.29-20.32,11,43.82-21.91-21.91,10.91,32.87-13.43-10.09-8.44-6.34L275,418.3l-13.89-11L250,422.41V225.92c12-1.52,22.93-5.2,29-7.22C287.57,220.5,293.74,222.11,293.92,222.16Z"/><path class="cls-9" d="M254,214.52c8.89,1,17.74,2.67,24.89,4.18-6.09,2-16.92,5.7-28.92,7.22V214.15Z"/><path class="cls-8" d="M283.25,231.51l-4-12.81c3.74,0.79,7,1.54,9.48,2.14Z"/><path class="cls-6" d="M283.25,217h0a106.67,106.67,0,0,1,10.63,2.73l10.51-10.43a1.1,1.1,0,0,1,1.55,0,1.12,1.12,0,0,1,0,1.57l-11,11a1.1,1.1,0,0,1-1.06.29c-0.1,0-2-.55-5.23-1.32-2.49-.6-5.73-1.35-9.48-2.14-7.15-1.51-16.29-3.17-25.18-4.18-1.28-.15-3-0.27-4-0.39V211.9A233.94,233.94,0,0,1,283.25,217Z"/><path class="cls-10" d="M391.66,423.64l-9.75-42.27-6.48-28.07-14.06-60.94-5.77-25h0l-5.4-23.41c-6.76-.64-27.92-2.87-30.73-6h0c2.8,3.1,24,5.33,30.74,6l2.08,0.19c0.82,0-.52-1.65-3-4.11l-4.77-20.66c5.79-.64,10.31-1.52,9.39-1.52s-6.3-4-11.66-8.33c-2.59-2.08-5.2-4.23-7.36-6q0.4-1.62.75-3.27l4.57,0.78,15.33,2.62c0.77-2.32-11-10.89-18-15.73q0.23-2.37.35-4.77l22-5.7L337.94,173c0-.1,0-0.2,0-0.3A108.81,108.81,0,0,0,332.22,142l33.51-26.39c2.84-2.24,2.7-5.71-.3-7.71L343.5,93.28a15.53,15.53,0,0,0-11.73-1.65l-10.15,3.23L305,100.15l0,0,16.49-5.27,5.47-7L310,90.2V66.74l-8.43,5.75L293.1,55.58,286,77.2l-6.59-21.62L268.41,66l-7.17-14.65-4.39,8.37L250,54.49V166a15.24,15.24,0,0,1,6.85,2.12l15.44-56.29L257,168.09a13,13,0,0,1,3.77,3.71c0.07-.33.18-0.65,0.27-1,3.7,3.32,9.86,6.59,19.7,6.46,12.58-.17,18.14-5.48,20.51-9.29q0.32,0.75.6,1.52c0.18,0.52.35,1,.49,1.58q0.91-.61,1.87-1.14l0.19-.1c0.58-.32,1.18-0.63,1.79-0.92h0a30.28,30.28,0,0,1,4.16-1.58,30.22,30.22,0,0,0-4.16,1.58h0c-0.61.28-1.2,0.6-1.79,0.92l-0.19.1q-1,.54-1.87,1.15c-0.14-.54-0.31-1.06-0.49-1.58s-0.38-1-.6-1.51c-2.37,3.82-7.93,9.14-20.51,9.31-9.85.14-16-3.11-19.7-6.43-0.09.33-.19,0.71-0.27,1a12.62,12.62,0,0,0-3.77-3.59l-0.11.66-0.08-.66A15.69,15.69,0,0,0,250,166v59.94c12-1.52,22.83-5.2,28.92-7.22-7.15-1.51-16-3.17-24.89-4.18l-1.59-.14-1.94-.19c1,0.1,2.44.21,3.53,0.34,8.89,1,18,2.67,25.18,4.18,3.74,0.79,7,1.54,9.48,2.14,3.2,0.77,5.13,1.29,5.23,1.32a1.09,1.09,0,0,0,.29,0,1.1,1.1,0,0,0,.77-0.33l11-11a1.1,1.1,0,0,0,.32-0.77,1.09,1.09,0,0,1-.32.79l-11,11a1.09,1.09,0,0,1-1.06.28c-0.1,0-2.06-.54-5.24-1.29v0c-2.49-.6-5.73-1.35-9.48-2.14v0l-0.21,0c-6.09,2-17,5.7-29,7.22V428.85c10-1.46,21.63-3.76,32.14-6.31,15.53-3.77,30.07-8.09,39.26-11l-8.92-38.64h0L306,344.79l-0.85-3.17h0l0.84,3.16-0.72-3.11h0l-0.76-3.29,0,0.09,0.74,3.2h0l0.72,3.1,6.49,28.1,5.65,24.46,3.27,14.18c-9.2,2.92-23.54,7.24-39.07,11l0.39,6.21a13.18,13.18,0,0,0,14,12.29l31.11-2a13.18,13.18,0,0,0,15.58,9.21l38.43-8.87A13.18,13.18,0,0,0,391.66,423.64ZM266.61,107.36l-5.27,16.37,5.08-16.37h0l5.87-17.64,0,0Zm1.3-26.69L261.35,100l0,0,6.54-19.34,4.33-12.88,0.11,0Zm26,139.06h0l0.09-.09Zm52.52,45.88h0L340,290.5Zm-9.54,23.7-10,20.79-0.06,0,9.94-20.79ZM329.22,254h0l-21.38-2.25h0ZM261.15,407.35l13.78,10.87v0.08Zm19.56-10.09L272.3,391v0l8.44,6.34,13.41,10.08h0Zm24.29-.87h0l-2-2.05Zm-6.52-136.84,17.31,11.27,0.05,0.13Zm6.79,38.16-0.25.08,21.75-21.9h0l-6.77,7Zm21.61,55L316.12,331l10.76,21.74h0Zm14.59-36,0.21,3.28-0.23-3.43-1.79-.8,1.8,0.8L349,320Z"/><path class="cls-5" d="M163.75,465.94V465h5.63v1.88h1.88v1.88h1.88v5.63h-1.87v1.88h-1.87v1.88h-5.62v-1.87h-1.87v-1.87H160v-5.62h1.88v-1.87h1.88v-0.94Zm3.75,1.88v-0.94h-3.75v7.5h1.88v1.88h3.75v-7.5H167.5v-0.94Z"/><path class="cls-5" d="M175,467.81V465h11.25v1.88h-7.5v1.88h7.5v1.88h1.88v5.63h-1.87v1.88h-9.37v-1.87H175v-1.87h3.75v1.88h5.63v-5.62H175v-2.81Z"/><path class="cls-5" d="M191.88,465.94V465h9.38v1.88h1.88v7.5h-1.87v1.88h-1.87v1.88h-7.5v-1.87h5.63v-1.87h1.88V472.5h-7.5v-1.87H190v-3.75h1.88v-0.94Zm7.5,2.81v-1.87h-5.62v3.75h5.63v-1.87Z"/><path class="cls-5" d="M223.75,465.94V465h5.63v1.88h1.88v1.88h1.88v9.38h-3.75v-3.75h-5.62v3.75H220v-9.37h1.88v-1.87h1.88v-0.94Zm3.75,1.88v-0.94h-1.87v1.88h-1.87v3.75h5.63v-3.75H227.5v-0.94Z"/><path class="cls-5" d="M235,471.56V465h11.25v1.88h1.88v5.63h-3.75v1.88h1.88v1.88h1.88v1.88H242.5v-1.87h-1.87v-1.87h-1.87v3.75H235v-6.56Zm9.38-2.81v-1.87h-5.62v5.63h3.75v-1.87h1.88v-1.87Z"/><path class="cls-5" d="M253.75,465.94V465h7.5v1.88h1.88v1.88h-3.75v-1.87h-3.75v1.88h-1.87v5.63h1.88v1.88h3.75v-1.87h3.75v1.88h-1.87v1.88h-7.5v-1.87h-1.87v-1.87H250v-5.62h1.88v-1.87h1.88v-0.94Z"/><path class="cls-5" d="M268.75,465.94V465h5.63v1.88h1.88v1.88h1.88v9.38h-3.75v-3.75h-5.62v3.75H265v-9.37h1.88v-1.87h1.88v-0.94Zm3.75,1.88v-0.94h-1.87v1.88h-1.87v3.75h5.63v-3.75H272.5v-0.94Z"/><path class="cls-5" d="M280,471.56V465h3.75v1.88h1.88v1.88h1.88v1.88h1.88V465h3.75v13.13h-3.75v-1.87H287.5v-1.87h-1.87V472.5h-1.87v5.63H280v-6.56Z"/><path class="cls-5" d="M296.88,465.94V465h11.25v1.88h-3.75v9.38h3.75v1.88H296.88v-1.87h3.75v-9.37h-3.75v-0.94Z"/><path class="cls-5" d="M310,471.56V465h3.75v1.88h1.88v1.88h1.88v1.88h1.88V465h3.75v13.13h-3.75v-1.87H317.5v-1.87h-1.87V472.5h-1.87v5.63H310v-6.56Z"/><path class="cls-5" d="M325,471.56V465h13.13v1.88h-9.37v3.75h7.5v1.88h-7.5v3.75h9.38v1.88H325v-6.56Z"/></svg>