<?xml version="1.0" ?><svg id="pkft" viewBox="0 0 500 500" xmlns="http://www.w3.org/2000/svg"><defs><style>.cls-1{fill:#22557d;}.cls-2{fill:#f26e25;}.cls-3{fill:#939393;}.cls-4{fill:#f67e35;}.cls-5{fill:#ede476;}.cls-6{fill:#fcee21;}.cls-7{fill:#1d1d1b;}.cls-8{fill:#fff;}.cls-9{fill:#1a6b5d;}.cls-10{opacity:0.1;}.cls-11{fill:#020200;}</style></defs><title/><path class="cls-1" d="M41.83,253.67S64.25,229.33,91.92,230l20,20,20-20s43,19,50,40c0,0,21,19.67,30.49,21.67l9.51-29,4.27-15-7.6-7.67L192,217.33,155.12,194l-6.78-4-3-59.5L116.84,103H103L87.67,114.67,65.33,130.5,46.67,156.67,42,180l-7,20v30Z"/><path class="cls-2" d="M221.37,241.9a3.74,3.74,0,0,0-.72-3.37S192,207.5,152,190l-4.35-58a7.21,7.21,0,0,0-1.44-3.52l-22.91-27a4,4,0,0,1-.66-3.42l8.74-26.21A1.36,1.36,0,0,0,130,70h-6a3,3,0,0,0-2.63,1.9L112.63,98.1A3,3,0,0,1,110,100h-6a4.72,4.72,0,0,0-3.25,1.56S92,112.5,72,120c0,0-30,30-30,40,0,0,0,22.5-10,40,0,0,0,50,10,60l3,0.3a1.12,1.12,0,0,0,1.26-1.66S33,225,38.5,199c0,0,11.93-26.72,10-38,0,0,1.5-11,27.5-36,0,0,26-12,29-18.5l15,3.1a5.38,5.38,0,0,1,3,2.1S138,135.5,141,135.5s2.5,52.5,5,54.5,77,47.5,73.5,57.5Z"/><polygon class="cls-3" points="161.56 350.02 158.11 363.01 155.12 349.87 161.56 350.02"/><polygon class="cls-3" points="118.58 334.13 112.75 346.23 123.57 338.2 118.58 334.13"/><polygon class="cls-3" points="142.49 344.77 135.01 355.94 136.45 342.54 142.49 344.77"/><path class="cls-4" d="M234,186s-9.46,43.47-11.37,43.47a15.28,15.28,0,0,0-15.37,15.27,14.85,14.85,0,0,0,.27,2.8l-43.75,22.58a8.44,8.44,0,0,0-2.82,2.61L133,318.3a18.17,18.17,0,0,1-1.41,2.07l-1.79,1.77L117.31,334.6a1.18,1.18,0,0,0,.46,2.1l3.95,1.46a3.55,3.55,0,0,0,3.34-.67l11.79-11a6.92,6.92,0,0,1,1.44-1.19c0,0.09,0,.15,0,0.11a15.21,15.21,0,0,1-.18,1.92l-1.74,14.23A2.66,2.66,0,0,0,138,344.2l2.11,0.78a2.66,2.66,0,0,0,3-1l7.94-11.94a15.26,15.26,0,0,1,1.12-1.58s0.05,0,.11-0.06a7,7,0,0,1,.31,1.84l1.76,16.06a3.55,3.55,0,0,0,2.09,2.68l4.46,1.65a1.25,1.25,0,0,0,1.81-1.31L162.07,332a17.16,17.16,0,0,1,.42-3.94l9-36.12a5.52,5.52,0,0,1,2.21-3l46.6-26.41c-11,18.34-18.07,46.21-18.07,77.43a190.54,190.54,0,0,0,3.53,35c-8.22,6.85-13.22,15.53-13.22,25,0,12,7.24,22.78,19.86,30.11C215.38,357.62,231,301.88,250,300V186H234Z"/><path class="cls-5" d="M251,440V360l-1-60c-19,1.85-34.56,57.58-37.51,130.08C223,436.19,237,439.91,251,440h0Z"/><path class="cls-2" d="M172,450.25C143.67,429.92,142.33,394,142.33,394a34.21,34.21,0,1,1,68.43-.09l-0.43,5.77A20.33,20.33,0,0,1,190,420s4,20.25,12,30.25l6.51,6.92c1.92,2,1.24,3.83-1.51,3.83H147c-2.75,0-2.87-1-.27-1.87Z"/><path class="cls-6" d="M251.5,440h0Z"/><path class="cls-2" d="M250,219.5v-8.39a1.46,1.46,0,0,1-.16.7l-4,4.45a1,1,0,0,1-1.4.09l-4.59-4-5,3.32c4.32,2.54,14.62,7.28,14.62,7.28C250.6,223,250,220.6,250,219.5Z"/><path class="cls-2" d="M239.42,210.32a1,1,0,0,1,1.21.08L245,214.2l3.31-3.72c0.37-.41,1.36-0.71,1.58-0.2a1.31,1.31,0,0,1,.07.4V83H225c-1.1,0-2.21-1.62-2.47-2.69l-9.06-37.74c-0.26-1.07-1.1-1.49-1.88-.71L204.41,49a3.85,3.85,0,0,0-.92,3.32l9,35.79a9.07,9.07,0,0,1,0,3.86l-9.68,36.13a5.16,5.16,0,0,0,.57,3.61l29.3,46.57c0.6,0.92.33,2.58,0.33,3.68v32.3a0.55,0.55,0,0,0,.21.3,0.66,0.66,0,0,1,.2-0.3Z"/><path class="cls-7" d="M250,210.68v0.43A3.66,3.66,0,0,0,250,210.68Z"/><path class="cls-7" d="M244.48,216.36a1,1,0,0,0,1.4-.09l4-4.45a1.46,1.46,0,0,0,.16-0.7v-0.43a1.31,1.31,0,0,0-.07-0.4c-0.23-.5-1.22-0.21-1.58.2L245,214.2l-4.41-3.81a1,1,0,0,0-1.21-.08l-6,4a0.66,0.66,0,0,0-.2.3,11,11,0,0,0,1.67,1.12l5-3.32Z"/><path class="cls-8" d="M229.46,132.29l-3.05-3.23a1.28,1.28,0,0,0-2.31.48L220,140.68a2.25,2.25,0,0,0,1.34,2.87l2.89,1.05a32.05,32.05,0,0,1,1.2-4.54A30.45,30.45,0,0,1,229.46,132.29Z"/><path class="cls-9" d="M231.25,142.07c0.11-.33.24-0.65,0.37-1-0.86-1-1-3-.31-5.11a8.42,8.42,0,0,1,.53-1.19l-2.39-2.52a30.45,30.45,0,0,0-4,7.78,32.05,32.05,0,0,0-1.2,4.54l6.25,2.27A12.72,12.72,0,0,1,231.25,142.07Z"/><path class="cls-9" d="M237.76,149.51l3.49,1.27a2.05,2.05,0,0,0,2.71-.89,3.62,3.62,0,0,0-.94-3.28L240.59,144c-0.1.38-.2,0.76-0.34,1.14A12.64,12.64,0,0,1,237.76,149.51Z"/><path class="cls-7" d="M232.4,141.68a1.83,1.83,0,0,1-.78-0.57c-0.13.31-.26,0.63-0.37,1a12.72,12.72,0,0,0-.73,4.81l7.24,2.63a12.64,12.64,0,0,0,2.49-4.33c0.13-.38.24-0.76,0.34-1.14l-4.47-4.73C235.1,141.08,233.61,142.1,232.4,141.68Z"/><path class="cls-8" d="M231.63,141.11a11.71,11.71,0,0,1,2.56-3.83l-2.34-2.47a8.42,8.42,0,0,0-.53,1.19C230.59,138.08,230.77,140.1,231.63,141.11Z"/><path class="cls-8" d="M232.4,141.68c1.21,0.42,2.7-.6,3.71-2.36l-1.93-2a11.71,11.71,0,0,0-2.56,3.83A1.83,1.83,0,0,0,232.4,141.68Z"/><path class="cls-7" d="M241.95,204.33c-0.3-.25-0.23-0.38.15-0.29l4.12,1a0.71,0.71,0,0,1,.52.85l-0.33,1.37a0.4,0.4,0,0,1-.71.23Z"/><path class="cls-1" d="M458.17,253.67S435.75,229.33,408.08,230l-20,20-20-20s-43,19-50,40c0,0-21,19.67-30.49,21.67l-9.51-29-4.27-15,7.6-7.67L308,217.33,344.88,194l6.78-4,3-59.5L383.16,103H397l15.33,11.67,22.33,15.83,18.67,26.17L458,180l7,20v30Z"/><path class="cls-2" d="M278.63,241.9a3.74,3.74,0,0,1,.72-3.37S308,207.5,348,190l4.35-58a7.21,7.21,0,0,1,1.44-3.52l22.91-27a4,4,0,0,0,.66-3.42L368.63,71.9A1.36,1.36,0,0,1,370,70h6a3,3,0,0,1,2.63,1.9l8.74,26.21A3,3,0,0,0,390,100h6a4.72,4.72,0,0,1,3.25,1.56S408,112.5,428,120c0,0,30,30,30,40,0,0,0,22.5,10,40,0,0,0,50-10,60l-3,.3a1.12,1.12,0,0,1-1.26-1.66S467,225,461.5,199c0,0-11.93-26.72-10-38,0,0-1.5-11-27.5-36,0,0-26-12-29-18.5l-15,3.1a5.38,5.38,0,0,0-3,2.1S362,135.5,359,135.5s-2.5,52.5-5,54.5-77,47.5-73.5,57.5Z"/><polygon class="cls-3" points="338.44 350.02 341.89 363.01 344.88 349.87 338.44 350.02"/><polygon class="cls-3" points="381.42 334.13 387.25 346.23 376.43 338.2 381.42 334.13"/><polygon class="cls-3" points="357.51 344.77 364.99 355.94 363.55 342.54 357.51 344.77"/><path class="cls-4" d="M266,186s9.46,43.47,11.38,43.47a15.28,15.28,0,0,1,15.38,15.27,14.85,14.85,0,0,1-.27,2.8l43.75,22.58a8.44,8.44,0,0,1,2.82,2.61L367,318.3a18.17,18.17,0,0,0,1.41,2.07l1.79,1.77,12.53,12.45a1.18,1.18,0,0,1-.46,2.1l-3.95,1.46a3.55,3.55,0,0,1-3.34-.67l-11.79-11a6.92,6.92,0,0,0-1.44-1.19c0,0.09,0,.15,0,0.11a15.21,15.21,0,0,0,.18,1.92l1.74,14.23A2.66,2.66,0,0,1,362,344.2l-2.11.78a2.66,2.66,0,0,1-3-1l-7.94-11.94a15.26,15.26,0,0,0-1.12-1.58s-0.05,0-.11-0.06a7,7,0,0,0-.31,1.84l-1.76,16.06a3.55,3.55,0,0,1-2.09,2.68l-4.46,1.65a1.25,1.25,0,0,1-1.81-1.31L337.93,332a17.16,17.16,0,0,0-.42-3.94l-9-36.12a5.52,5.52,0,0,0-2.21-3l-46.6-26.41c11,18.34,18.07,46.21,18.07,77.43a190.54,190.54,0,0,1-3.53,35c8.22,6.85,13.22,15.53,13.22,25,0,12-7.24,22.78-19.86,30.11C284.62,357.62,269,301.88,250,300V186h16Z"/><path class="cls-5" d="M249,440V360l1-60c19,1.85,34.56,57.58,37.51,130.08C277,436.19,263,439.91,249,440h0Z"/><path class="cls-2" d="M328,450.25C356.33,429.92,357.67,394,357.67,394a34.21,34.21,0,1,0-68.43-.09l0.43,5.77A20.33,20.33,0,0,0,310,420s-4,20.25-12,30.25l-6.51,6.92c-1.92,2-1.24,3.83,1.51,3.83h60c2.75,0,2.87-1,.27-1.87Z"/><path class="cls-6" d="M248.5,440h0Z"/><path class="cls-2" d="M250,219.5v-8.39a1.27,1.27,0,0,0,.16.7l4,4.45a1,1,0,0,0,1.4.09l4.59-4,5,3.32C260.8,218.26,250.5,223,250.5,223,249.4,223,250,220.6,250,219.5Z"/><path class="cls-2" d="M260.58,210.32a1,1,0,0,0-1.21.08L255,214.2l-3.31-3.72c-0.37-.41-1.36-0.71-1.58-0.2a1.06,1.06,0,0,0-.07.4V83h25c1.1,0,2.21-1.62,2.47-2.69l9.06-37.74c0.26-1.07,1.1-1.49,1.88-.71L295.59,49a3.85,3.85,0,0,1,.92,3.32l-9,35.79a9.07,9.07,0,0,0,0,3.86l9.68,36.13a5.16,5.16,0,0,1-.57,3.61l-29.3,46.57c-0.6.92-.33,2.58-0.33,3.68v32.3a0.55,0.55,0,0,1-.21.3,0.66,0.66,0,0,0-.2-0.3Z"/><path class="cls-7" d="M255.52,216.36a1,1,0,0,1-1.4-.09l-4-4.45a1.27,1.27,0,0,1-.16-0.7v-0.43a1.06,1.06,0,0,1,.07-0.4c0.23-.5,1.22-0.21,1.58.2L255,214.2l4.41-3.81a1,1,0,0,1,1.21-.08l6,4a0.66,0.66,0,0,1,.2.3,11,11,0,0,1-1.67,1.12l-5-3.32Z"/><path class="cls-8" d="M270.54,132.29l3.05-3.23a1.28,1.28,0,0,1,2.31.48L280,140.68a2.25,2.25,0,0,1-1.34,2.87l-2.89,1.05a32.05,32.05,0,0,0-1.2-4.54A30.45,30.45,0,0,0,270.54,132.29Z"/><path class="cls-9" d="M268.75,142.07c-0.11-.33-0.24-0.65-0.37-1,0.86-1,1-3,.31-5.11a8.42,8.42,0,0,0-.53-1.19l2.39-2.52a30.45,30.45,0,0,1,4,7.78,32.05,32.05,0,0,1,1.2,4.54l-6.25,2.27A12.72,12.72,0,0,0,268.75,142.07Z"/><path class="cls-9" d="M262.24,149.51l-3.49,1.27a2.05,2.05,0,0,1-2.71-.89,3.62,3.62,0,0,1,.94-3.28l2.43-2.57c0.1,0.38.2,0.76,0.34,1.14A12.64,12.64,0,0,0,262.24,149.51Z"/><path class="cls-7" d="M267.6,141.68a1.83,1.83,0,0,0,.78-0.57c0.13,0.31.26,0.63,0.37,1a12.72,12.72,0,0,1,.73,4.81l-7.24,2.63a12.64,12.64,0,0,1-2.49-4.33c-0.13-.38-0.24-0.76-0.34-1.14l4.47-4.73C264.9,141.08,266.39,142.1,267.6,141.68Z"/><path class="cls-8" d="M268.37,141.11a11.71,11.71,0,0,0-2.56-3.83l2.34-2.47a8.42,8.42,0,0,1,.53,1.19C269.41,138.08,269.23,140.1,268.37,141.11Z"/><path class="cls-8" d="M267.6,141.68c-1.21.42-2.7-.6-3.71-2.36l1.93-2a11.71,11.71,0,0,1,2.56,3.83A1.83,1.83,0,0,1,267.6,141.68Z"/><path class="cls-7" d="M258.05,204.33c0.3-.25.23-0.38-0.15-0.29l-4.12,1a0.71,0.71,0,0,0-.52.85l0.33,1.37a0.4,0.4,0,0,0,.71.23Z"/><g class="cls-10"><path class="cls-11" d="M458,160c0-10-30-40-30-40-20-7.5-28.75-18.44-28.75-18.44A4.73,4.73,0,0,0,396,100h-6a3,3,0,0,1-2.63-1.9L378.63,71.9A3,3,0,0,0,376,70h-6a1.36,1.36,0,0,0-1.37,1.9l8.74,26.21a4,4,0,0,1-.66,3.42l-22.91,27a7.21,7.21,0,0,0-1.44,3.52L348,190c-28.63,12.52-51.43,32-62.09,42a15.42,15.42,0,0,0-8.54-2.56c-1.53,0-7.89-27.81-10.37-38.94V182c0-1.1-.26-2.75.33-3.68l29.3-46.57a5.16,5.16,0,0,0,.57-3.61L287.52,92a9.07,9.07,0,0,1,0-3.86l9-35.79a3.85,3.85,0,0,0-.92-3.32l-7.19-7.19c-0.77-.78-1.62-0.36-1.88.71l-9.06,37.74C277.21,81.38,276.1,83,275,83H250V219.5c0,0.85-.35,2.48,0,3.17V300c19,1.85,34.62,57.58,37.57,130.08a44.36,44.36,0,0,0,13.78-12.05A20.23,20.23,0,0,0,310,420s-4,20.25-12,30.25l-6.51,6.92c-1.92,2-1.24,3.83,1.51,3.83h60c2.75,0,2.87-1,.27-1.87L328,450.25C356.33,429.92,357.67,394,357.67,394a34.22,34.22,0,0,0-63-18.58l-0.46-.4a190.54,190.54,0,0,0,3.53-35,184.49,184.49,0,0,0-6.51-49.69c5-2.41,11.52-7.27,16.84-11.65L326.28,289a5.52,5.52,0,0,1,2.21,3l9,36.12a17.16,17.16,0,0,1,.42,3.94l-0.66,19.35a1.25,1.25,0,0,0,1.81,1.31l0.05,0L341.89,363l3-13a3.34,3.34,0,0,0,.79-1.7l1.76-16.06a7,7,0,0,1,.31-1.84c0.05,0.08.1,0.11,0.11,0.06a15.26,15.26,0,0,1,1.12,1.58L356.87,344a2.38,2.38,0,0,0,.79.72l-0.15.05L365,355.94l-1.43-13.4-0.09,0a2.38,2.38,0,0,0,.13-1.06l-1.74-14.23a15.21,15.21,0,0,1-.18-1.92s0.06,0,0-.11a6.92,6.92,0,0,1,1.44,1.19l11.79,11a3.27,3.27,0,0,0,1.52.75l10.78,8-4.68-9.7a1.15,1.15,0,0,0,.11-1.94l-12.53-12.45-1.79-1.77A18.17,18.17,0,0,1,367,318.3L339,272.72a8.44,8.44,0,0,0-2.82-2.61l-14.37-7.41C334.55,244.79,368,230,368,230l20,20,20-20c22.77-.55,42,15.83,48.06,21.65-1.37,4.36-2.41,7-2.41,7A1.12,1.12,0,0,0,455,260.3l3-.3c10-10,10-60,10-60C458,182.5,458,160,458,160Z"/><path class="cls-11" d="M249,440h0c14-.08,28-3.8,38.51-9.88C284.56,357.62,269,301.88,250,300l-1,60v80Z"/><path class="cls-11" d="M248.5,440h0Z"/></g><path class="cls-4" d="M156.25,465.94V465h5.63v1.88h1.88v1.88h1.88v5.63h-1.87v1.88h-1.87v1.88h-5.62v-1.87h-1.87v-1.87H152.5v-5.62h1.88v-1.87h1.88v-0.94Zm3.75,1.88v-0.94h-3.75v7.5h1.88v1.88h3.75v-7.5H160v-0.94Z"/><path class="cls-4" d="M171.25,465.94V465h5.63v1.88h1.88v1.88h1.88v5.63h-1.87v1.88h-1.87v1.88h-5.62v-1.87h-1.87v-1.87H167.5v-5.62h1.88v-1.87h1.88v-0.94Zm3.75,1.88v-0.94h-3.75v7.5h1.88v1.88h3.75v-7.5H175v-0.94Z"/><path class="cls-4" d="M186.25,465.94V465h7.5v1.88h-5.62v1.88h-1.87v1.88h7.5v1.88h1.88v3.75h-1.87v1.88h-9.37v-1.87H182.5v-7.5h1.88v-1.87h1.88v-0.94Zm5.63,8.44V472.5h-5.62v3.75h5.63v-1.87Z"/><path class="cls-4" d="M216.25,465.94V465h7.5v1.88h1.88v1.88h-3.75v-1.87h-3.75v1.88h-1.87v5.63h1.88v1.88h3.75v-1.87h3.75v1.88h-1.87v1.88h-7.5v-1.87h-1.87v-1.87H212.5v-5.62h1.88v-1.87h1.88v-0.94Z"/><path class="cls-4" d="M227.5,471.56V465h3.75v5.63h5.63V465h3.75v13.13h-3.75V472.5h-5.62v5.63H227.5v-6.56Z"/><path class="cls-4" d="M246.25,465.94V465h5.63v1.88h1.88v1.88h1.88v9.38h-3.75v-3.75h-5.62v3.75H242.5v-9.37h1.88v-1.87h1.88v-0.94Zm3.75,1.88v-0.94h-1.87v1.88h-1.87v3.75h5.63v-3.75H250v-0.94Z"/><path class="cls-4" d="M257.5,471.56V465h11.25v1.88h1.88v5.63h-3.75v1.88h1.88v1.88h1.88v1.88H265v-1.87h-1.87v-1.87h-1.87v3.75H257.5v-6.56Zm9.38-2.81v-1.87h-5.62v5.63H265v-1.87h1.88v-1.87Z"/><path class="cls-4" d="M274.38,465.94V465h11.25v1.88h-3.75v9.38h3.75v1.88H274.38v-1.87h3.75v-9.37h-3.75v-0.94Z"/><path class="cls-4" d="M287.5,465.94V465h13.13v3.75h-1.87v1.88h-1.87v1.88H295v1.88h-1.87v1.88h7.5v1.88H287.5v-3.75h1.88V472.5h1.88v-1.87h1.88v-1.87H295v-1.87h-7.5v-0.94Z"/><path class="cls-4" d="M306.25,465.94V465h5.63v1.88h1.88v1.88h1.88v9.38h-3.75v-3.75h-5.62v3.75H302.5v-9.37h1.88v-1.87h1.88v-0.94Zm3.75,1.88v-0.94h-1.87v1.88h-1.87v3.75h5.63v-3.75H310v-0.94Z"/><path class="cls-4" d="M317.5,471.56V465h11.25v1.88h1.88v5.63h-3.75v1.88h1.88v1.88h1.88v1.88H325v-1.87h-1.87v-1.87h-1.87v3.75H317.5v-6.56Zm9.38-2.81v-1.87h-5.62v5.63H325v-1.87h1.88v-1.87Z"/><path class="cls-4" d="M332.5,471.56V465h9.38v1.88h1.88v1.88h1.88v5.63h-1.87v1.88h-1.87v1.88H332.5v-6.56Zm7.5-3.75v-0.94h-3.75v9.38H340v-1.87h1.88v-5.62H340v-0.94Z"/></svg>