<?xml version="1.0" ?><svg id="pkft" viewBox="0 0 500 500" xmlns="http://www.w3.org/2000/svg"><defs><style>.cls-1{fill:#5892bf;}.cls-2{fill:#4e8db7;}.cls-3{fill:#fff;}.cls-4,.cls-6{fill:#1a1a1a;}.cls-5{fill:#ef6f88;}.cls-6{opacity:0.1;}</style></defs><title/><path class="cls-1" d="M182,280.83c0-27.7,21.88-50.94,51.43-57.39a4.37,4.37,0,0,1-.4-1.78c0-4.61,7.61-8.34,17-8.34V161.66a88.35,88.35,0,0,0-39.13,167.56C193.4,318.51,182,300.84,182,280.83Z"/><ellipse class="cls-2" cx="202" cy="338.67" rx="30" ry="18.33" transform="translate(-123.67 116.31) rotate(-24.86)"/><path class="cls-3" d="M206.62,196.59c6-5.71,15.76-5.17,21.86,1.2,0.8-4.76-.23-9.29-3.27-12.47-6.1-6.39-18-4.93-26.6,3.27s-10.6,20-4.5,26.42c3.17,3.32,7.92,4.5,13,3.74l-0.24-.23C200.73,212.12,200.63,202.3,206.62,196.59Z"/><path class="cls-4" d="M228.48,197.79c-6.1-6.37-15.88-6.91-21.86-1.2s-5.89,15.53.21,21.92l0.24,0.23A27,27,0,0,0,228.48,197.79Z"/><circle class="cls-3" cx="220" cy="200.15" r="5.54"/><path class="cls-3" d="M250,231.49V230c-8.14,0-14.94-2.81-16.6-6.56C203.85,229.89,182,253.13,182,280.83c0,20,11.43,37.68,28.9,48.39A74.84,74.84,0,0,0,250,340v-9.83c-31.15,0-56.5-22.13-56.5-49.34S218.85,231.49,250,231.49Z"/><path class="cls-3" d="M196.5,280.83c0,25.55,24,46.34,53.5,46.34v-14.4c-20.12,0-36.5-14.33-36.5-31.94s16.37-31.94,36.5-31.94v-14.4C220.5,234.49,196.5,255.28,196.5,280.83Z"/><path class="cls-3" d="M216.5,280.83c0,16,15,28.94,33.5,28.94v-11.5c-10.94,0-19.83-7.83-19.83-17.44s8.9-17.44,19.83-17.44v-11.5C231.53,251.89,216.5,264.87,216.5,280.83Z"/><path class="cls-3" d="M233.17,280.83c0,8,7.55,14.44,16.83,14.44V266.38C240.72,266.38,233.17,272.86,233.17,280.83Z"/><path class="cls-4" d="M193.5,280.83c0,27.21,25.34,49.34,56.5,49.34v-1.5c-30.37,0-55-21.42-55-47.84S219.63,233,250,233v-1.5C218.85,231.49,193.5,253.62,193.5,280.83Z"/><path class="cls-4" d="M196.5,280.83c0-25.55,24-46.34,53.5-46.34V233c-30.37,0-55,21.42-55,47.84s24.62,47.84,55,47.84v-1.5C220.5,327.17,196.5,306.38,196.5,280.83Z"/><path class="cls-4" d="M216.5,280.83c0-16,15-28.94,33.5-28.94v-3c-20.12,0-36.5,14.33-36.5,31.94s16.37,31.94,36.5,31.94v-3C231.53,309.77,216.5,296.79,216.5,280.83Z"/><path class="cls-4" d="M233.17,280.83c0-8,7.55-14.44,16.83-14.44v-3c-10.94,0-19.83,7.83-19.83,17.44s8.9,17.44,19.83,17.44v-3C240.72,295.27,233.17,288.79,233.17,280.83Z"/><path class="cls-5" d="M233,221.66a4.37,4.37,0,0,0,.4,1.78c1.67,3.75,8.46,6.56,16.6,6.56V213.32C240.61,213.32,233,217.05,233,221.66Z"/><path class="cls-1" d="M317.69,280.83c0-27.7-21.88-50.94-51.43-57.39a4.63,4.63,0,0,0,.57-1.78c0-4.61-7.83-8.34-16.83-8.34V161.66c48,0,88.17,39.55,88.17,88.34a88.41,88.41,0,0,1-49.3,79.22C306.34,318.51,317.69,300.84,317.69,280.83Z"/><ellipse class="cls-2" cx="297.66" cy="338.67" rx="18.33" ry="30" transform="translate(-134.77 466.35) rotate(-65.14)"/><path class="cls-3" d="M293,196.59c-6-5.71-15.76-5.17-21.86,1.2-0.8-4.76.23-9.29,3.27-12.47,6.1-6.39,18-4.93,26.6,3.27s10.6,20,4.5,26.42c-3.17,3.32-7.92,4.5-13,3.74l0.24-.23C298.93,212.12,299,202.3,293,196.59Z"/><path class="cls-4" d="M271.18,197.79c6.1-6.37,15.88-6.91,21.86-1.2s5.89,15.53-.21,21.92l-0.24.23A27,27,0,0,1,271.18,197.79Z"/><circle class="cls-3" cx="279.66" cy="200.15" r="5.54"/><path class="cls-3" d="M250,231.49V230c8,0,14.77-2.81,16.43-6.56,29.54,6.45,51.34,29.69,51.34,57.39,0,20-11.3,37.68-28.77,48.39A75.9,75.9,0,0,1,250,340v-9.83c31,0,56.5-22.13,56.5-49.34S281,231.49,250,231.49Z"/><path class="cls-3" d="M303.5,280.83c0,25.55-24.5,46.34-53.5,46.34v-14.4c20,0,36.5-14.33,36.5-31.94S270,248.89,250,248.89v-14.4C279,234.49,303.5,255.28,303.5,280.83Z"/><path class="cls-3" d="M283.5,280.83c0,16-15.5,28.94-33.5,28.94v-11.5c11,0,19.83-7.83,19.83-17.44S261,263.38,250,263.38v-11.5C268,251.89,283.5,264.87,283.5,280.83Z"/><path class="cls-3" d="M266.83,280.83c0,8-7.83,14.44-16.83,14.44V266.38C259,266.38,266.83,272.86,266.83,280.83Z"/><path class="cls-4" d="M306.5,280.83c0,27.21-25.5,49.34-56.5,49.34v-1.5c30,0,55-21.42,55-47.84S280,233,250,233v-1.5C281,231.49,306.5,253.62,306.5,280.83Z"/><path class="cls-4" d="M303.5,280.83c0-25.55-24.5-46.34-53.5-46.34V233c30,0,55,21.42,55,47.84s-25,47.84-55,47.84v-1.5C279,327.17,303.5,306.38,303.5,280.83Z"/><path class="cls-4" d="M283.5,280.83c0-16-15.5-28.94-33.5-28.94v-3c20,0,36.5,14.33,36.5,31.94S270,312.77,250,312.77v-3C268,309.77,283.5,296.79,283.5,280.83Z"/><path class="cls-4" d="M266.83,280.83c0-8-7.83-14.44-16.83-14.44v-3c11,0,19.83,7.83,19.83,17.44S261,298.27,250,298.27v-3C259,295.27,266.83,288.79,266.83,280.83Z"/><path class="cls-5" d="M266.83,221.66a4.28,4.28,0,0,1-.31,1.78C264.85,227.19,258,230,250,230V213.32C259,213.32,266.83,217.05,266.83,221.66Z"/><path class="cls-6" d="M305.36,322q-1.42-.66-2.84-1.21A88.2,88.2,0,0,0,338.17,250c0-48.79-40.17-88.34-88.17-88.34V340a76.92,76.92,0,0,0,20.63-2.86c2.74,6.81,9.75,13.72,19.32,18.16,15,7,30.67,5.17,34.93-4S320.4,329,305.36,322Z"/><path class="cls-1" d="M171.25,465.94V465h5.63v1.88h1.88v1.88h1.88v5.63h-1.87v1.88h-1.87v1.88h-5.62v-1.87h-1.87v-1.87H167.5v-5.62h1.88v-1.87h1.88v-0.94Zm3.75,1.88v-0.94h-3.75v7.5h1.88v1.88h3.75v-7.5H175v-0.94Z"/><path class="cls-1" d="M186.25,465.94V465h7.5v1.88h-5.62v1.88h-1.87v1.88h7.5v1.88h1.88v3.75h-1.87v1.88h-9.37v-1.87H182.5v-7.5h1.88v-1.87h1.88v-0.94Zm5.63,8.44V472.5h-5.62v3.75h5.63v-1.87Z"/><path class="cls-1" d="M201.25,465.94V465h5.63v1.88h1.88v1.88h1.88v5.63h-1.87v1.88h-1.87v1.88h-5.62v-1.87h-1.87v-1.87H197.5v-5.62h1.88v-1.87h1.88v-0.94Zm3.75,1.88v-0.94h-3.75v7.5h1.88v1.88h3.75v-7.5H205v-0.94Z"/><path class="cls-1" d="M227.5,471.56V465h11.25v1.88h1.88v5.63h-1.87v1.88h-7.5v3.75H227.5v-6.56Zm9.38-1.87v-2.81h-5.62v5.63h5.63v-2.81Z"/><path class="cls-1" d="M244.38,465.94V465h9.38v1.88h1.88v9.38h-1.87v1.88h-9.37v-1.87H242.5v-9.37h1.88v-0.94Zm7.5,5.63v-4.69h-5.62v9.38h5.63v-4.69Z"/><path class="cls-1" d="M259.38,471.56V465h3.75v11.25h7.5v1.88H259.38v-6.56Z"/><path class="cls-1" d="M274.38,465.94V465h11.25v1.88h-3.75v9.38h3.75v1.88H274.38v-1.87h3.75v-9.37h-3.75v-0.94Z"/><path class="cls-1" d="M287.5,471.56V465h3.75v5.63h1.88v-1.87H295v1.88h1.88V465h3.75v13.13h-3.75v-1.87H295v-1.87h-1.87v1.88h-1.87v1.88H287.5v-6.56Z"/><path class="cls-1" d="M306.25,465.94V465h5.63v1.88h1.88v1.88h1.88v9.38h-3.75v-3.75h-5.62v3.75H302.5v-9.37h1.88v-1.87h1.88v-0.94Zm3.75,1.88v-0.94h-1.87v1.88h-1.87v3.75h5.63v-3.75H310v-0.94Z"/><path class="cls-1" d="M321.25,465.94V465h9.38v1.88h-7.5v1.88h-1.87v5.63h1.88v1.88h3.75V472.5H325v-1.87h5.63v7.5h-9.37v-1.87h-1.87v-1.87H317.5v-5.62h1.88v-1.87h1.88v-0.94Z"/></svg>