<?xml version="1.0" ?><svg id="pkft" viewBox="0 0 500 500" xmlns="http://www.w3.org/2000/svg"><defs><style>.cls-1{fill:#5792bf;}.cls-2{fill:#fff;}.cls-3{fill:#1a1a1a;}.cls-4{fill:#ccc;}.cls-5{opacity:0.1;}.cls-6{fill:#5892bf;}</style></defs><title/><path class="cls-1" d="M250,200.15V140a109.6,109.6,0,0,0-45.15,9.67,28.33,28.33,0,1,0-41.43,32.48A109.7,109.7,0,0,0,144.74,218a187.74,187.74,0,0,0-23.16,19.93c-4.57,4.57-8.73,9.12-12.39,13.47a16.24,16.24,0,0,1,14.45,14.49c4.36-3.66,8.92-7.83,13.49-12.41,1-1,1.93-2,2.87-2.93A110,110,0,0,0,250,360,79.92,79.92,0,1,1,250,200.15Z"/><path class="cls-1" d="M207.79,370.86c2.13-5.4,3.44-12.75,3.44-20.86,0-16.57-5.47-30-12.22-30s-10.78,46.18-8.46,51.64a42.58,42.58,0,0,0-10.92,8c-10.23,10.23-13.88,23.17-8.15,28.9s18.66,2.08,28.89-8.15,13.88-23.17,8.15-28.9A8.34,8.34,0,0,0,207.79,370.86Z"/><path class="cls-2" d="M182.39,280.08A67.68,67.68,0,0,1,250,212.47V200.15A79.92,79.92,0,1,0,250,360V347.68A67.68,67.68,0,0,1,182.39,280.08Z"/><path class="cls-2" d="M186.39,280.08A63.68,63.68,0,0,0,250,343.68v-8.62a55,55,0,0,1,0-110v-8.62A63.68,63.68,0,0,0,186.39,280.08Z"/><path class="cls-3" d="M182.39,280.08A67.68,67.68,0,0,0,250,347.68v-2a65.61,65.61,0,0,1,0-131.21v-2A67.68,67.68,0,0,0,182.39,280.08Z"/><path class="cls-3" d="M186.39,280.08A63.68,63.68,0,0,1,250,216.47v-2a65.61,65.61,0,0,0,0,131.21v-2A63.68,63.68,0,0,1,186.39,280.08Z"/><path class="cls-2" d="M208.34,280.08A41.7,41.7,0,0,1,250,238.42v-9.33a51,51,0,0,0,0,102v-9.33A41.7,41.7,0,0,1,208.34,280.08Z"/><path class="cls-3" d="M197,280.08a53,53,0,0,1,53-53v-2a55,55,0,0,0,0,110v-2A53,53,0,0,1,197,280.08Z"/><path class="cls-3" d="M197,280.08a53,53,0,0,0,53,53v-2a51,51,0,0,1,0-102v-2A53,53,0,0,0,197,280.08Z"/><path class="cls-2" d="M212.34,280.08A37.7,37.7,0,0,0,250,317.73v-6.45a31.21,31.21,0,0,1,0-62.42v-6.45A37.7,37.7,0,0,0,212.34,280.08Z"/><path class="cls-3" d="M208.34,280.08A41.7,41.7,0,0,0,250,321.73v-2a39.66,39.66,0,1,1,0-79.31v-2A41.7,41.7,0,0,0,208.34,280.08Z"/><path class="cls-3" d="M212.34,280.08A37.7,37.7,0,0,1,250,242.42v-2a39.66,39.66,0,1,0,0,79.31v-2A37.7,37.7,0,0,1,212.34,280.08Z"/><path class="cls-2" d="M230.79,280.08A19.23,19.23,0,0,1,250,260.87v-8a27.21,27.21,0,0,0,0,54.42v-8A19.23,19.23,0,0,1,230.79,280.08Z"/><path class="cls-3" d="M220.79,280.08A29.21,29.21,0,0,1,250,250.87v-2a31.21,31.21,0,0,0,0,62.42v-2A29.21,29.21,0,0,1,220.79,280.08Z"/><path class="cls-3" d="M220.79,280.08A29.21,29.21,0,0,0,250,309.29v-2a27.21,27.21,0,0,1,0-54.42v-2A29.21,29.21,0,0,0,220.79,280.08Z"/><path class="cls-2" d="M234.79,280.08A15.23,15.23,0,0,0,250,295.29V264.87A15.23,15.23,0,0,0,234.79,280.08Z"/><path class="cls-3" d="M230.79,280.08A19.23,19.23,0,0,0,250,299.29v-2a17.21,17.21,0,0,1,0-34.42v-2A19.23,19.23,0,0,0,230.79,280.08Z"/><path class="cls-3" d="M234.79,280.08A15.23,15.23,0,0,1,250,264.87v-2a17.21,17.21,0,0,0,0,34.42v-2A15.23,15.23,0,0,1,234.79,280.08Z"/><circle class="cls-2" cx="180" cy="160" r="20.67"/><circle class="cls-3" cx="180" cy="160" r="13.17"/><circle class="cls-2" cx="185.3" cy="154.7" r="7.87"/><path class="cls-3" d="M240,184.13c0-2.27.7-2.89,1.55-1.37s0.85,3.37,0,4.13S240,186.39,240,184.13Z"/><path class="cls-4" d="M124.56,266.78a1.38,1.38,0,0,0-.82.12c0-.35-0.05-0.69-0.09-1A16.31,16.31,0,1,0,119,279.14c0.16-.15.29-0.32,0.44-0.48,0,2.74.7,4.73,1.88,5,1.72,0.33,3.84-3.17,4.74-7.82S126.28,267.11,124.56,266.78Z"/><path class="cls-1" d="M250,200.15V140a110.17,110.17,0,0,1,45.21,9.67,28.35,28.35,0,1,1,41.48,32.48A109.7,109.7,0,0,1,355.36,218a187.75,187.75,0,0,1,23.16,19.93c4.57,4.57,8.73,9.12,12.39,13.47a16.24,16.24,0,0,0-14.45,14.49c-4.36-3.66-8.92-7.83-13.49-12.41-1-1-1.93-2-2.87-2.93A110,110,0,0,1,250.11,360,79.92,79.92,0,0,0,250,200.15Z"/><path class="cls-1" d="M292.32,370.86c-2.13-5.4-3.44-12.75-3.44-20.86,0-16.57,5.47-30,12.22-30s10.78,46.18,8.46,51.64a42.58,42.58,0,0,1,10.92,8c10.23,10.23,13.88,23.17,8.15,28.9s-18.66,2.08-28.89-8.15-13.88-23.17-8.15-28.9A8.34,8.34,0,0,1,292.32,370.86Z"/><path class="cls-2" d="M317.61,280.08A67.86,67.86,0,0,0,250,212.47V200.15A79.92,79.92,0,1,1,250,360V347.68A67.86,67.86,0,0,0,317.61,280.08Z"/><path class="cls-2" d="M313.61,280.08A63.73,63.73,0,0,1,250,343.68v-8.62a55,55,0,1,0,0-110v-8.62A63.73,63.73,0,0,1,313.61,280.08Z"/><path class="cls-3" d="M317.61,280.08A67.86,67.86,0,0,1,250,347.68v-2a65.61,65.61,0,1,0,0-131.21v-2A67.86,67.86,0,0,1,317.61,280.08Z"/><path class="cls-3" d="M313.61,280.08A63.73,63.73,0,0,0,250,216.47v-2a65.61,65.61,0,1,1,0,131.21v-2A63.73,63.73,0,0,0,313.61,280.08Z"/><path class="cls-2" d="M291.66,280.08A41.68,41.68,0,0,0,250,238.42v-9.33a51,51,0,1,1,0,102v-9.33A41.68,41.68,0,0,0,291.66,280.08Z"/><path class="cls-3" d="M303,280.08a53.16,53.16,0,0,0-53-53v-2a55,55,0,1,1,0,110v-2A53.16,53.16,0,0,0,303,280.08Z"/><path class="cls-3" d="M303,280.08a53.16,53.16,0,0,1-53,53v-2a51,51,0,1,0,0-102v-2A53.16,53.16,0,0,1,303,280.08Z"/><path class="cls-2" d="M287.66,280.08A37.55,37.55,0,0,1,250,317.73v-6.45a31.21,31.21,0,0,0,0-62.42v-6.45A37.55,37.55,0,0,1,287.66,280.08Z"/><path class="cls-3" d="M291.66,280.08A41.68,41.68,0,0,1,250,321.73v-2a39.66,39.66,0,1,0,0-79.31v-2A41.68,41.68,0,0,1,291.66,280.08Z"/><path class="cls-3" d="M287.66,280.08A37.55,37.55,0,0,0,250,242.42v-2a39.66,39.66,0,1,1,0,79.31v-2A37.55,37.55,0,0,0,287.66,280.08Z"/><path class="cls-2" d="M269.21,280.08A19,19,0,0,0,250,260.87v-8a27.21,27.21,0,0,1,0,54.42v-8A19,19,0,0,0,269.21,280.08Z"/><path class="cls-3" d="M279.21,280.08A29.29,29.29,0,0,0,250,250.87v-2a31.21,31.21,0,0,1,0,62.42v-2A29.3,29.3,0,0,0,279.21,280.08Z"/><path class="cls-3" d="M279.21,280.08A29.3,29.3,0,0,1,250,309.29v-2a27.21,27.21,0,0,0,0-54.42v-2A29.29,29.29,0,0,1,279.21,280.08Z"/><path class="cls-2" d="M265.21,280.08A15.48,15.48,0,0,1,250,295.29V264.87A15.48,15.48,0,0,1,265.21,280.08Z"/><path class="cls-3" d="M269.21,280.08A19,19,0,0,1,250,299.29v-2a17.21,17.21,0,0,0,0-34.42v-2A19,19,0,0,1,269.21,280.08Z"/><path class="cls-3" d="M265.21,280.08A15.48,15.48,0,0,0,250,264.87v-2a17.21,17.21,0,0,1,0,34.42v-2A15.48,15.48,0,0,0,265.21,280.08Z"/><circle class="cls-2" cx="320.11" cy="160" r="20.67"/><circle class="cls-3" cx="320.11" cy="160" r="13.17"/><circle class="cls-2" cx="314.81" cy="154.7" r="7.87"/><path class="cls-3" d="M260.11,184.13c0-2.27-.7-2.89-1.55-1.37s-0.85,3.37,0,4.13S260.11,186.39,260.11,184.13Z"/><path class="cls-4" d="M375.55,266.78a1.38,1.38,0,0,1,.82.12c0-.35.05-0.69,0.09-1a16.31,16.31,0,1,1,4.66,13.29c-0.16-.15-0.29-0.32-0.44-0.48,0,2.74-.7,4.73-1.88,5-1.72.33-3.84-3.17-4.74-7.82S373.83,267.11,375.55,266.78Z"/><g class="cls-5"><path class="cls-3" d="M381.12,256a16.26,16.26,0,0,1,9.79-4.68c-3.66-4.35-7.82-8.9-12.39-13.47A187.73,187.73,0,0,0,355.36,218a109.7,109.7,0,0,0-18.67-35.81,28.34,28.34,0,1,0-41.48-32.48A110.17,110.17,0,0,0,250,140v60.15a79.92,79.92,0,0,1,57.49,135.5l0-.11A79.86,79.86,0,0,0,250,200.15V360a81.3,81.3,0,0,0,39-10.13V350a81.23,81.23,0,0,1-38.83,10A109.56,109.56,0,0,0,289,352.94a56.23,56.23,0,0,0,3.37,17.92,8.45,8.45,0,0,0-.74.61c-5.73,5.73-2.08,18.66,8.15,28.9s23.17,13.88,28.89,8.15,2.08-18.66-8.15-28.9a42.58,42.58,0,0,0-10.92-8c1.18-2.78.71-16.09-.91-28.5a109.92,109.92,0,0,0,51.46-92.61c0.94,1,1.89,1.95,2.87,2.93,4.57,4.57,9.13,8.74,13.49,12.41A16.21,16.21,0,0,1,381.12,256Z"/><path class="cls-3" d="M404.22,256a16.3,16.3,0,0,0-27.76,9.81c0,0.35-.08.69-0.09,1a1.38,1.38,0,0,0-.82-0.12c-1.72.33-2.38,4.37-1.48,9s3,8.15,4.74,7.82c1.18-.23,1.87-2.22,1.88-5,0.15,0.16.28,0.33,0.44,0.48A16.33,16.33,0,1,0,404.22,256Z"/></g><path class="cls-6" d="M156.25,465.94V465h5.63v1.88h1.88v1.88h1.88v5.63h-1.87v1.88h-1.87v1.88h-5.62v-1.87h-1.87v-1.87H152.5v-5.62h1.88v-1.87h1.88v-0.94Zm3.75,1.88v-0.94h-3.75v7.5h1.88v1.88h3.75v-7.5H160v-0.94Z"/><path class="cls-6" d="M171.25,465.94V465h7.5v1.88h-5.62v1.88h-1.87v1.88h7.5v1.88h1.88v3.75h-1.87v1.88h-9.37v-1.87H167.5v-7.5h1.88v-1.87h1.88v-0.94Zm5.63,8.44V472.5h-5.62v3.75h5.63v-1.87Z"/><path class="cls-6" d="M188.13,465.94V465h3.75v11.25h3.75v1.88H184.38v-1.87h3.75v-7.5h-1.87v-1.87h1.88v-0.94Z"/><path class="cls-6" d="M212.5,471.56V465h11.25v1.88h1.88v5.63h-1.87v1.88h-7.5v3.75H212.5v-6.56Zm9.38-1.87v-2.81h-5.62v5.63h5.63v-2.81Z"/><path class="cls-6" d="M229.38,465.94V465h9.38v1.88h1.88v9.38h-1.87v1.88h-9.37v-1.87H227.5v-9.37h1.88v-0.94Zm7.5,5.63v-4.69h-5.62v9.38h5.63v-4.69Z"/><path class="cls-6" d="M244.38,471.56V465h3.75v11.25h7.5v1.88H244.38v-6.56Z"/><path class="cls-6" d="M259.38,465.94V465h11.25v1.88h-3.75v9.38h3.75v1.88H259.38v-1.87h3.75v-9.37h-3.75v-0.94Z"/><path class="cls-6" d="M272.5,471.56V465h3.75v5.63h1.88v-1.87H280v1.88h1.88V465h3.75v13.13h-3.75v-1.87H280v-1.87h-1.87v1.88h-1.87v1.88H272.5v-6.56Z"/><path class="cls-6" d="M287.5,471.56V465h3.75v5.63h5.63V465h3.75v13.13h-3.75V472.5h-5.62v5.63H287.5v-6.56Z"/><path class="cls-6" d="M304.38,465.94V465h11.25v1.88h-3.75v9.38h3.75v1.88H304.38v-1.87h3.75v-9.37h-3.75v-0.94Z"/><path class="cls-6" d="M317.5,471.56V465h11.25v1.88h1.88v5.63h-3.75v1.88h1.88v1.88h1.88v1.88H325v-1.87h-1.87v-1.87h-1.87v3.75H317.5v-6.56Zm9.38-2.81v-1.87h-5.62v5.63H325v-1.87h1.88v-1.87Z"/><path class="cls-6" d="M334.38,471.56V465h3.75v11.25h7.5v1.88H334.38v-6.56Z"/></svg>