<?xml version="1.0" ?><svg id="pkft" viewBox="0 0 500 500" xmlns="http://www.w3.org/2000/svg"><defs><style>.cls-1{fill:#5892bf;}.cls-2{fill:#fff;}.cls-3,.cls-5{fill:#1a1a1a;}.cls-4{fill:#ccc;}.cls-5{opacity:0.1;}</style></defs><title/><path class="cls-1" d="M250,169.33V79q-5.67,0-11.24.42C233.76,63.24,222.77,52,210,52c-17.06,0-31,20.06-31.61,45.16a150,150,0,0,0-78,121.56l-3,2.85c-4,3.76-7.86,2.37-8.55-3.09L81.3,159.34a8.32,8.32,0,0,1-1.85-.5,8.57,8.57,0,0,1-3.18-2.29,25.12,25.12,0,0,1-16.94,6.77,24,24,0,0,1-8.26-1.47L59.17,259a8,8,0,0,0,10.48,7.35l33.05-9A150.13,150.13,0,0,0,172,357.13c4.18,2.55,12.84,59.43,10.24,60.66-15.49,7.31-25.46,18.7-22.28,25.44s18.32,6.28,33.8-1,25.46-18.7,22.28-25.44c-0.32-.67,5.53-11.34,7.79-17.65,2.83-7.89,8.09-21.17,10.83-20.89A151.11,151.11,0,0,0,250,379V368.66A99.67,99.67,0,0,1,250,169.33Z"/><path class="cls-2" d="M233.28,269A16.74,16.74,0,0,0,250,285.72V252.27A16.74,16.74,0,0,0,233.28,269Z"/><path class="cls-2" d="M193,269a57.08,57.08,0,0,0,57,57V309.59a40.59,40.59,0,0,1,0-81.18V212A57.08,57.08,0,0,0,193,269Z"/><path class="cls-2" d="M214.41,269A35.63,35.63,0,0,0,250,304.59V290.72a21.72,21.72,0,0,1,0-43.45V233.41A35.63,35.63,0,0,0,214.41,269Z"/><path class="cls-2" d="M150.33,269A99.67,99.67,0,0,0,250,368.66V352a83,83,0,0,1,0-166V169.33A99.67,99.67,0,0,0,150.33,269Z"/><path class="cls-2" d="M172,269a78.1,78.1,0,0,0,78,78V331a62,62,0,0,1,0-124V191A78.1,78.1,0,0,0,172,269Z"/><path class="cls-3" d="M172,269a78.1,78.1,0,0,1,78-78v-5a83,83,0,0,0,0,166v-5A78.1,78.1,0,0,1,172,269Z"/><path class="cls-3" d="M193,269a57.08,57.08,0,0,1,57-57v-5a62,62,0,0,0,0,124v-5A57.08,57.08,0,0,1,193,269Z"/><path class="cls-3" d="M214.41,269A35.63,35.63,0,0,1,250,233.41v-5a40.59,40.59,0,0,0,0,81.18v-5A35.63,35.63,0,0,1,214.41,269Z"/><path class="cls-3" d="M233.28,269A16.74,16.74,0,0,1,250,252.27v-5a21.72,21.72,0,0,0,0,43.45v-5A16.74,16.74,0,0,1,233.28,269Z"/><path class="cls-2" d="M210.22,75.68l-16.08-5.23A24.38,24.38,0,0,0,209.57,113a52.42,52.42,0,0,1-2.82-17.85C206.75,87.38,208.1,80.43,210.22,75.68Z"/><path class="cls-3" d="M226.54,85.64a6.25,6.25,0,1,1-9.48-7.74l-6.83-2.22c-2.13,4.75-3.47,11.7-3.47,19.45A52.42,52.42,0,0,0,209.57,113l0.84,0A24.28,24.28,0,0,0,226,107.32a59.66,59.66,0,0,0,1.2-12.19A62.09,62.09,0,0,0,226.54,85.64Z"/><path class="cls-2" d="M234.25,83.49L227,81.15l-1.54-.5-8.45-2.75a6.25,6.25,0,1,0,9.48,7.74,62.09,62.09,0,0,1,.71,9.49,59.66,59.66,0,0,1-1.2,12.19A24.38,24.38,0,0,0,234.25,83.49Z"/><path class="cls-4" d="M91.22,129.9a8.64,8.64,0,0,0-4.25-.55c-0.73-17.09-12.82-30.69-27.63-30.69-15.28,0-27.67,14.48-27.67,32.33,0,14.49,8.16,26.76,19.41,30.87a24,24,0,0,0,8.26,1.47,25.12,25.12,0,0,0,16.94-6.77,8.57,8.57,0,0,0,3.18,2.29,8.32,8.32,0,0,0,1.85.5c5.43,0.86,11.62-3.54,14.53-10.7C99.08,140.65,97,132.26,91.22,129.9Z"/><path class="cls-3" d="M241.15,143.16c-0.27-3.21.79-3.06,2.35,0.33s1.78,6,.49,5.83S241.42,146.37,241.15,143.16Z"/><path class="cls-1" d="M250,169.33V79c3,0,7.36.14,11.07,0.42C266.07,63.24,277,52,289.75,52c17.06,0,30.92,20.06,31.57,45.16a150,150,0,0,1,78,121.56l3,2.85c4,3.76,7.86,2.37,8.55-3.09l7.44-59.14a8.31,8.31,0,0,0,1.85-.5,8.57,8.57,0,0,0,3.18-2.29,25.12,25.12,0,0,0,16.93,6.77,24,24,0,0,0,8.26-1.47L440.5,259A8,8,0,0,1,430,266.38l-33.05-9a150.13,150.13,0,0,1-69.28,99.72c-4.18,2.55-12.84,59.43-10.24,60.66,15.49,7.31,25.46,18.7,22.28,25.44s-18.32,6.28-33.8-1-25.46-18.7-22.28-25.44c0.32-.67-5.53-11.34-7.79-17.65-2.83-7.89-7.93-21.17-10.66-20.89A150.58,150.58,0,0,1,250,379V368.66A99.67,99.67,0,0,0,250,169.33Z"/><path class="cls-2" d="M266.72,269A16.89,16.89,0,0,1,250,285.72V252.27A16.89,16.89,0,0,1,266.72,269Z"/><path class="cls-2" d="M307,269c0,31.44-26,57-57,57V309.59a40.59,40.59,0,0,0,0-81.18V212C281,212,307,237.56,307,269Z"/><path class="cls-2" d="M285.59,269c0,19.63-16.59,35.59-35.59,35.59V290.72a21.72,21.72,0,0,0,0-43.45V233.41C269,233.41,285.59,249.37,285.59,269Z"/><path class="cls-2" d="M349.67,269A99.69,99.69,0,0,1,250,368.66V352c45,0,83-37.24,83-83s-38-83-83-83V169.33A99.69,99.69,0,0,1,349.67,269Z"/><path class="cls-2" d="M328,269a78.11,78.11,0,0,1-78,78V331a62,62,0,0,0,0-124V191A78.11,78.11,0,0,1,328,269Z"/><path class="cls-3" d="M328,269a78.11,78.11,0,0,0-78-78v-5c45,0,83,37.24,83,83s-38,83-83,83v-5A78.11,78.11,0,0,0,328,269Z"/><path class="cls-3" d="M307,269c0-31.44-26-57-57-57v-5a62,62,0,0,1,0,124v-5C281,326,307,300.43,307,269Z"/><path class="cls-3" d="M285.59,269c0-19.62-16.59-35.59-35.59-35.59v-5a40.59,40.59,0,0,1,0,81.18v-5C269,304.59,285.59,288.62,285.59,269Z"/><path class="cls-3" d="M266.72,269A16.89,16.89,0,0,0,250,252.27v-5a21.72,21.72,0,0,1,0,43.45v-5A16.89,16.89,0,0,0,266.72,269Z"/><path class="cls-2" d="M289.44,75.68l16.08-5.23A24.38,24.38,0,0,1,290.1,113a52.42,52.42,0,0,0,2.82-17.85C292.92,87.38,291.57,80.43,289.44,75.68Z"/><path class="cls-3" d="M273.13,85.64a6.25,6.25,0,1,0,9.48-7.74l6.83-2.22c2.13,4.75,3.47,11.7,3.47,19.45A52.42,52.42,0,0,1,290.1,113l-0.84,0a24.28,24.28,0,0,1-15.63-5.67,59.66,59.66,0,0,1-1.2-12.19A62.09,62.09,0,0,1,273.13,85.64Z"/><path class="cls-2" d="M265.42,83.49l7.21-2.35,1.54-.5,8.45-2.75a6.25,6.25,0,1,1-9.48,7.74,62.09,62.09,0,0,0-.71,9.49,59.66,59.66,0,0,0,1.2,12.19A24.38,24.38,0,0,1,265.42,83.49Z"/><path class="cls-4" d="M408.45,129.9a8.64,8.64,0,0,1,4.25-.55c0.73-17.09,12.82-30.69,27.63-30.69C455.61,98.66,468,113.14,468,131c0,14.49-8.16,26.76-19.41,30.87a24,24,0,0,1-8.26,1.47,25.12,25.12,0,0,1-16.94-6.77,8.57,8.57,0,0,1-3.18,2.29,8.32,8.32,0,0,1-1.85.5c-5.43.86-11.62-3.54-14.53-10.7C400.58,140.65,402.65,132.26,408.45,129.9Z"/><path class="cls-3" d="M258.51,143.16c0.27-3.21-.79-3.06-2.35.33s-1.78,6-.49,5.83S258.25,146.37,258.51,143.16Z"/><path class="cls-5" d="M468,131c0-17.86-12.39-32.33-27.67-32.33-14.81,0-26.9,13.6-27.63,30.69a8.64,8.64,0,0,0-4.25.55c-5.8,2.36-7.86,10.75-4.61,18.74,2.91,7.16,9.1,11.56,14.53,10.7a8.32,8.32,0,0,0,1.85-.5,8.57,8.57,0,0,0,3.18-2.29h0a8.57,8.57,0,0,1-3.18,2.29,8.31,8.31,0,0,1-1.85.5l-7.44,59.14c-0.69,5.46-4.53,6.85-8.55,3.09l-3-2.85a150,150,0,0,0-78-121.56C320.67,72.06,306.81,52,289.75,52,277,52,266.07,63.24,261.07,79.42,257.36,79.14,253,79,250,79V379a150.58,150.58,0,0,0,15.19-.78c2.73-.28,7.83,13,10.66,20.89,2.27,6.32,8.11,17,7.79,17.65-3.18,6.74,6.79,18.13,22.28,25.44s30.62,7.77,33.8,1-6.79-18.13-22.28-25.44c-2.61-1.23,6.06-58.11,10.24-60.66A150.13,150.13,0,0,0,397,257.41l33.05,9A8,8,0,0,0,440.5,259l8.1-97.17a24,24,0,0,1-8.26,1.47h0a24,24,0,0,0,8.26-1.47C459.84,157.76,468,145.49,468,131Z"/><path class="cls-1" d="M156.25,465.94V465h5.63v1.88h1.88v1.88h1.88v5.63h-1.87v1.88h-1.87v1.88h-5.62v-1.87h-1.87v-1.87H152.5v-5.62h1.88v-1.87h1.88v-0.94Zm3.75,1.88v-0.94h-3.75v7.5h1.88v1.88h3.75v-7.5H160v-0.94Z"/><path class="cls-1" d="M171.25,465.94V465h7.5v1.88h-5.62v1.88h-1.87v1.88h7.5v1.88h1.88v3.75h-1.87v1.88h-9.37v-1.87H167.5v-7.5h1.88v-1.87h1.88v-0.94Zm5.63,8.44V472.5h-5.62v3.75h5.63v-1.87Z"/><path class="cls-1" d="M184.38,465.94V465h9.38v1.88h1.88v3.75h-1.87v1.88h-1.87v1.88h-3.75v1.88h7.5v1.88H182.5v-3.75h1.88V472.5h1.88v-1.87H190v-1.87h1.88v-1.87h-5.62v1.88H182.5v-1.87h1.88v-0.94Z"/><path class="cls-1" d="M212.5,471.56V465h11.25v1.88h1.88v5.63h-1.87v1.88h-7.5v3.75H212.5v-6.56Zm9.38-1.87v-2.81h-5.62v5.63h5.63v-2.81Z"/><path class="cls-1" d="M229.38,465.94V465h9.38v1.88h1.88v9.38h-1.87v1.88h-9.37v-1.87H227.5v-9.37h1.88v-0.94Zm7.5,5.63v-4.69h-5.62v9.38h5.63v-4.69Z"/><path class="cls-1" d="M244.38,471.56V465h3.75v11.25h7.5v1.88H244.38v-6.56Z"/><path class="cls-1" d="M259.38,465.94V465h11.25v1.88h-3.75v9.38h3.75v1.88H259.38v-1.87h3.75v-9.37h-3.75v-0.94Z"/><path class="cls-1" d="M272.5,471.56V465h3.75v5.63h1.88v-1.87H280v1.88h1.88V465h3.75v13.13h-3.75v-1.87H280v-1.87h-1.87v1.88h-1.87v1.88H272.5v-6.56Z"/><path class="cls-1" d="M287.5,471.56V465h11.25v1.88h1.88v5.63h-3.75v1.88h1.88v1.88h1.88v1.88H295v-1.87h-1.87v-1.87h-1.87v3.75H287.5v-6.56Zm9.38-2.81v-1.87h-5.62v5.63H295v-1.87h1.88v-1.87Z"/><path class="cls-1" d="M306.25,465.94V465h5.63v1.88h1.88v1.88h1.88v9.38h-3.75v-3.75h-5.62v3.75H302.5v-9.37h1.88v-1.87h1.88v-0.94Zm3.75,1.88v-0.94h-1.87v1.88h-1.87v3.75h5.63v-3.75H310v-0.94Z"/><path class="cls-1" d="M319.38,465.94V465h11.25v1.88h-3.75v11.25h-3.75V466.88h-3.75v-0.94Z"/><path class="cls-1" d="M332.5,471.56V465h3.75v5.63h5.63V465h3.75v13.13h-3.75V472.5h-5.62v5.63H332.5v-6.56Z"/></svg>