<?xml version="1.0" ?><svg id="pkft" viewBox="0 0 500 500" xmlns="http://www.w3.org/2000/svg"><defs><style>.cls-1{fill:#fffac6;}.cls-2{fill:none;}.cls-3{fill:#815847;}.cls-4{fill:#a4725d;}.cls-5{fill:#edc300;}.cls-6{fill:#1d1d1b;}.cls-7{fill:#1a1a1a;opacity:0.1;}</style></defs><title/><path class="cls-1" d="M198.14,114.22c-2.41-1.32-3.87-.21-3.24,2.46l5.35,22.63s3.25-9.75,17.25-14.5Z"/><path class="cls-2" d="M198.14,114.22c-2.41-1.32-3.87-.21-3.24,2.46l5.35,22.63s3.25-9.75,17.25-14.5Z"/><path class="cls-3" d="M210.25,242.78c-0.18-1.55-.25-2.43-0.25-2.43A12.08,12.08,0,0,0,210.25,242.78Z"/><path class="cls-3" d="M232.47,221.26A24.26,24.26,0,0,0,229,214a31.25,31.25,0,0,0-4-4.84,12,12,0,0,1-3.49,8.29l-11.31,11.31L210,229v11.39s0.07,1.1.25,2.64c1.13,5.49,6,10,11.75,10h28V232.35C235.07,231.41,232.47,221.26,232.47,221.26Z"/><path class="cls-4" d="M221.46,206.37l-1.11-.68L195,190.27a13.64,13.64,0,0,1-6-12.8,11.87,11.87,0,0,0-4.68,2.87l-11.31,11.31a12,12,0,0,0,0,17l4.94,4.94,12.7,12.7,2.52,2.52A12,12,0,0,0,210,229l0.19-.17,11.31-11.31a12,12,0,0,0,3.49-8.29A20.41,20.41,0,0,0,221.46,206.37Z"/><path class="cls-5" d="M223.73,121.29c-6.64-4.29-21.8-13.59-30.23-14.73-8.16-1.1-.64,25.56,3.79,39.41a30.53,30.53,0,0,0-2,10.68l-5.86,18.87a11,11,0,0,0-.41,2,13.64,13.64,0,0,0,6,12.8l25.31,15.42,1.11,0.68a20.41,20.41,0,0,1,3.53,2.82,31.25,31.25,0,0,1,4,4.84c3.06-3.26,8.56-7.26,17.61-8.45,1.08-.14,2.2-0.25,3.38-0.31V116.33A70.18,70.18,0,0,0,223.73,121.29Zm-23.48,18-5.35-22.63c-0.63-2.68.82-3.79,3.24-2.46l19.36,10.6C203.5,129.57,200.25,139.32,200.25,139.32Zm9.6,35.83a1,1,0,0,1,.31-2c1.2,0.19,29.3,4.77,30.84,25.32a1,1,0,0,1-.92,1.07H240a1,1,0,0,1-1-.93C237.58,179.66,210.12,175.19,209.85,175.15Z"/><path class="cls-1" d="M250,206v-0.74c-1.18.06-2.3-.26-3.38,0.74H250Z"/><path class="cls-1" d="M229,214.24a23.76,23.76,0,0,1,3.45,7.13s2.6,10,17.53,11V206h-3.38C237.58,207,232.07,211,229,214.24Zm17.72,12.52a1,1,0,0,1-1.41,0l-3.75-3.5a1,1,0,1,1,1.36-1.46l3.75,3.5A1,1,0,0,1,246.73,226.75Z"/><path class="cls-6" d="M210.15,173.17a1,1,0,0,0-.31,2c0.28,0,27.73,4.51,29.16,23.5a1,1,0,0,0,1,.93h0.08a1,1,0,0,0,.92-1.07C239.46,177.94,211.35,173.36,210.15,173.17Z"/><path class="cls-6" d="M242.93,221.84a1,1,0,1,0-1.36,1.46l3.75,3.5a1,1,0,1,0,1.36-1.46Z"/><path class="cls-5" d="M175.05,241.92l15.65-15.65L178,213.57l-15.65,15.65c-5.82.53-13.82,14.93-22.85,19.35-17.28,8.46-21.31,18-22.23,22.45q-1.62,1.53-3.29,3.2c-9,9-15.33,17.44-14,18.74s9.69-5,18.74-14q1.59-1.59,3.05-3.14c1.68,0.77,3.7,1.67,5.88,2.6l-0.38.93c-4.82,11.85-7.34,22-5.63,22.72s7-8.35,11.81-20.21l0.36-.92a77,77,0,0,0,11.22,3.6c0.07,12.36,1.53,22.22,3.33,22.22s3.33-10.37,3.33-23.17c0-2,0-3.88-.1-5.71,5.19-8.72,25.35-20.77,24.94-28.29a32,32,0,0,0-1.6-7.52Z"/><path class="cls-5" d="M222,253c-5.77,0-10.63-4.51-11.75-10a150.15,150.15,0,0,0,7.47,32.73,6.85,6.85,0,0,0-3.2,1.74s-15.35,18.42-24.63,32.32a17.61,17.61,0,0,0-7.23-1.57A17.87,17.87,0,0,0,165,326.1a22.12,22.12,0,0,0,.23,2.9h0l0-.07a16.77,16.77,0,0,0,1.38,4.43l9.48,31.14a47.82,47.82,0,0,0-15.31,3.08c-10.24,3.62-17.69,8.94-16.65,11.89s10.19,2.4,20.43-1.23c1.66-.59,3.23-1.22,4.72-1.88-4.9,8-7,15.21-4.67,16.8,2.59,1.76,9.64-4.09,15.75-13.07a62,62,0,0,0,4.45-7.62,58.87,58.87,0,0,0,9.42,5.55c9.8,4.68,18.84,6.18,20.19,3.36s-5.51-8.91-15.31-13.58a62.06,62.06,0,0,0-8.14-3.22l7.43-30.63a17.59,17.59,0,0,0,0-16.13c11.07-7.42,24.93-18.59,30.05-22.78,5.48,6.29,12.52,10.18,21.56,9.19V253H222Z"/><path class="cls-1" d="M301.65,114.22c2.41-1.32,3.87-.21,3.24,2.46l-5.35,22.63s-3.25-9.75-17.25-14.5Z"/><path class="cls-2" d="M301.65,114.22c2.41-1.32,3.87-.21,3.24,2.46l-5.35,22.63s-3.25-9.75-17.25-14.5Z"/><path class="cls-3" d="M289.53,242.78c0.18-1.55.25-2.43,0.25-2.43A12.08,12.08,0,0,1,289.53,242.78Z"/><path class="cls-3" d="M267.42,221.26a24,24,0,0,1,3.4-7.24,31.1,31.1,0,0,1,4-4.84,11.94,11.94,0,0,0,3.48,8.29l11.42,11.31a1.28,1.28,0,0,1,.29.17v11.39s-0.18,1.1-.36,2.64a12.51,12.51,0,0,1-11.86,10H250V232.35C265,231.41,267.42,221.26,267.42,221.26Z"/><path class="cls-4" d="M278.32,206.37l1.11-.68,25.31-15.42a13.64,13.64,0,0,0,6-12.8,11.87,11.87,0,0,1,4.68,2.87l11.31,11.31a12,12,0,0,1,0,17l-4.94,4.94-12.7,12.7-2.52,2.52a12,12,0,0,1-16.78.17l-0.19-.17-11.31-11.31a12,12,0,0,1-3.49-8.29A20.41,20.41,0,0,1,278.32,206.37Z"/><path class="cls-5" d="M250,116.33v88.93c1,0.06,2.19.17,3.27,0.31,9,1.19,14.49,5.19,17.55,8.45a31.1,31.1,0,0,1,4-4.84,20.34,20.34,0,0,1,3.52-2.82l1.1-.68,25.31-15.42a13.64,13.64,0,0,0,6-12.8,11,11,0,0,0-.41-2l-5.87-18.87a30.53,30.53,0,0,0-2-10.68c4.43-13.85,11.95-40.52,3.79-39.41-8.43,1.14-23.48,10.44-30.12,14.73A71.65,71.65,0,0,0,250,116.33Zm32.28,8.48,19.36-10.6c2.41-1.32,3.87-.21,3.24,2.46l-5.35,22.63S296.28,129.57,282.28,124.82Zm-21.5,73.82a1,1,0,0,1-1,.93h-0.08a1,1,0,0,1-.92-1.07c1.54-20.56,29.65-25.14,30.84-25.32a1,1,0,0,1,.31,2C289.66,175.19,262.2,179.66,260.78,198.64Z"/><path class="cls-1" d="M250,206v-0.74c1,0.06,2.08.74,3.16,0.74H250Z"/><path class="cls-1" d="M253.16,206H250v26.35c15-.94,17.42-11.09,17.42-11.09a23,23,0,0,1,3.4-7C267.76,211,262.2,207,253.16,206Zm-0.06,19.34,3.75-3.5a1,1,0,1,1,1.36,1.46l-3.75,3.5A1,1,0,1,1,253.1,225.34Z"/><path class="cls-6" d="M289.63,173.17a1,1,0,0,1,.31,2c-0.28,0-27.73,4.51-29.16,23.5a1,1,0,0,1-1,.93h-0.08a1,1,0,0,1-.92-1.07C260.33,177.94,288.43,173.36,289.63,173.17Z"/><path class="cls-6" d="M256.85,221.84a1,1,0,1,1,1.36,1.46l-3.75,3.5a1,1,0,1,1-1.36-1.46Z"/><path class="cls-5" d="M324.73,241.92l-15.65-15.65,12.7-12.7,15.65,15.65c5.82,0.53,13.82,14.93,22.85,19.35,17.28,8.46,21.31,18,22.23,22.45q1.62,1.53,3.29,3.2c9,9,15.33,17.44,14,18.74s-9.69-5-18.74-14q-1.59-1.59-3.05-3.14c-1.68.77-3.7,1.67-5.88,2.6l0.38,0.93c4.82,11.85,7.34,22,5.63,22.72s-7-8.35-11.81-20.21l-0.36-.92a77,77,0,0,1-11.22,3.6c-0.07,12.36-1.53,22.22-3.33,22.22s-3.33-10.37-3.33-23.17c0-2,0-3.88.1-5.71-5.19-8.72-25.35-20.77-24.94-28.29a32,32,0,0,1,1.6-7.52Z"/><path class="cls-5" d="M277.78,253c5.77,0,10.63-4.51,11.75-10a150.15,150.15,0,0,1-7.47,32.73,6.85,6.85,0,0,1,3.2,1.74s15.35,18.42,24.63,32.32a17.61,17.61,0,0,1,7.23-1.57,17.87,17.87,0,0,1,17.69,17.9,22.12,22.12,0,0,1-.23,2.9h0l0-.07a16.77,16.77,0,0,1-1.38,4.43L323.7,364.5A47.82,47.82,0,0,1,339,367.59c10.24,3.62,17.69,8.94,16.65,11.89s-10.19,2.4-20.43-1.23c-1.66-.59-3.23-1.22-4.72-1.88,4.9,8,7,15.21,4.67,16.8-2.59,1.76-9.64-4.09-15.75-13.07a62,62,0,0,1-4.45-7.62,58.87,58.87,0,0,1-9.42,5.55c-9.8,4.68-18.84,6.18-20.19,3.36s5.51-8.91,15.31-13.58a62.06,62.06,0,0,1,8.14-3.22l-7.43-30.63a17.59,17.59,0,0,1,0-16.13c-11.07-7.42-24.82-18.59-29.94-22.78C266,301.31,259,305.21,250,304.21V253h27.78Z"/><path class="cls-7" d="M385.8,274.21q-1.67-1.67-3.29-3.2c-0.92-4.46-5-14-22.23-22.45-9-4.42-17-18.82-22.85-19.35l-15.65-15.65,4.94-4.94a12,12,0,0,0,0-17L315.4,180.35a11.87,11.87,0,0,0-4.68-2.87h0a11,11,0,0,0-.41-2l-5.87-18.87a30.53,30.53,0,0,0-2-10.68c4.43-13.85,11.95-40.52,3.79-39.41-8.43,1.14-24,10.44-30.62,14.73a74.34,74.34,0,0,0-26.66-5v88.93c1,0.06,2.69.17,3.77,0.31l1,0.12c-0.3,0-1-.09-1.27-0.12-1.08,0-2.54-.25-3.54-0.31v99c9,1,16.47-2.9,21.95-9.19,5.12,4.19,19.12,15.35,30.19,22.78a17.84,17.84,0,0,0,.18,16.13l7.46,30.63a61.9,61.9,0,0,0-8.12,3.22c-9.8,4.68-16.65,10.76-15.3,13.58s10.39,1.32,20.19-3.36a58.89,58.89,0,0,0,9.42-5.55,62.06,62.06,0,0,0,4.45,7.62c6.11,9,13.16,14.83,15.75,13.07,2.33-1.59.23-8.81-4.67-16.8,1.49,0.66,3.06,1.29,4.72,1.88,10.24,3.62,19.39,4.17,20.43,1.22s-6.41-8.28-16.65-11.9c-5.92-2.1-11.47-3.16-15.31-3.11l9.48-31.19a17.54,17.54,0,0,0,1.38-4.54l0-.15h0a17.66,17.66,0,0,0-24.69-18.82c-9.28-13.89-24.63-32.34-24.63-32.34a6.94,6.94,0,0,0-3.2-1.79,149.88,149.88,0,0,0,7.38-32c0.08-.27-0.35-0.54-0.29-0.82a5.83,5.83,0,0,0-.14-2.43v-11.2a12.65,12.65,0,0,0,17.07-.36l2.77-2.52,15.77,15.65s0.16,0.09.21,0.13a31.65,31.65,0,0,0-1.57,7.52c-0.42,7.52,19.76,19.57,25,28.29-0.07,1.83-.09,3.74-0.09,5.71,0,12.79,1.5,23.17,3.34,23.17s3.26-9.87,3.33-22.22a77,77,0,0,0,11.22-3.6l0.36,0.92c4.82,11.85,10.1,20.9,11.81,20.21s-0.82-10.86-5.63-22.72l-0.38-.93c2.19-.93,4.2-1.83,5.88-2.6q1.46,1.55,3.05,3.14c9,9,17.44,15.33,18.74,14S394.85,283.26,385.8,274.21Z"/><path class="cls-5" d="M193.75,465.94V465h5.63v1.88h1.88v1.88h1.88v5.63h-1.87v1.88h-1.87v1.88h-5.62v-1.87h-1.87v-1.87H190v-5.62h1.88v-1.87h1.88v-0.94Zm3.75,1.88v-0.94h-3.75v7.5h1.88v1.88h3.75v-7.5H197.5v-0.94Z"/><path class="cls-5" d="M208.75,465.94V465h7.5v1.88h-5.62v1.88h-1.87v1.88h7.5v1.88h1.88v3.75h-1.87v1.88h-9.37v-1.87H205v-7.5h1.88v-1.87h1.88v-0.94Zm5.63,8.44V472.5h-5.62v3.75h5.63v-1.87Z"/><path class="cls-5" d="M221.88,465.94V465h11.25v1.88h-1.87v1.88h-1.87v1.88h1.88v1.88h1.88v3.75h-1.87v1.88h-9.37v-1.87H220v-1.87h3.75v1.88h5.63V472.5h-5.62v-1.87h1.88v-1.87h1.88v-1.87h-5.62v-0.94Z"/><path class="cls-5" d="M253.75,465.94V465h5.63v1.88h1.88v1.88h1.88v9.38h-3.75v-3.75h-5.62v3.75H250v-9.37h1.88v-1.87h1.88v-0.94Zm3.75,1.88v-0.94h-1.87v1.88h-1.87v3.75h5.63v-3.75H257.5v-0.94Z"/><path class="cls-5" d="M265,471.56V465h11.25v1.88h1.88v3.75h-1.87v1.88h1.88v3.75h-1.87v1.88H265v-6.56Zm9.38-2.81v-1.87h-5.62v3.75h5.63v-1.87Zm0,5.63V472.5h-5.62v3.75h5.63v-1.87Z"/><path class="cls-5" d="M280,471.56V465h11.25v1.88h1.88v5.63h-3.75v1.88h1.88v1.88h1.88v1.88H287.5v-1.87h-1.87v-1.87h-1.87v3.75H280v-6.56Zm9.38-2.81v-1.87h-5.62v5.63h3.75v-1.87h1.88v-1.87Z"/><path class="cls-5" d="M298.75,465.94V465h5.63v1.88h1.88v1.88h1.88v9.38h-3.75v-3.75h-5.62v3.75H295v-9.37h1.88v-1.87h1.88v-0.94Zm3.75,1.88v-0.94h-1.87v1.88h-1.87v3.75h5.63v-3.75H302.5v-0.94Z"/></svg>