<?xml version="1.0" ?><svg id="pkft" viewBox="0 0 500 500" xmlns="http://www.w3.org/2000/svg"><defs><style>.cls-1{fill:#d6b112;}.cls-2{fill:none;}.cls-3{fill:#fff;}.cls-4{fill:#ff7bac;}.cls-5{fill:#f375bb;}.cls-6{fill:#9a7901;}.cls-7{fill:#ccc;}.cls-8{fill:#b59302;}.cls-9{fill:#77565d;}.cls-10{fill:#7d5d63;}.cls-11{fill:#1a1a1a;}.cls-12{fill:#e78ebb;}.cls-13{fill:#c4a10e;}.cls-14{opacity:0.1;}</style></defs><title/><path class="cls-1" d="M233.33,179.09a5.07,5.07,0,0,0,1.33-.2v-0.07a4.86,4.86,0,0,1-1.17.21,5.11,5.11,0,0,1-5.08-3.64A5.1,5.1,0,0,0,233.33,179.09Z"/><path class="cls-2" d="M221.75,172.92a23.41,23.41,0,0,1,1.7-9.34,49,49,0,0,0-8.45-4.49v20a44.73,44.73,0,0,1,8,2.11A24.6,24.6,0,0,1,221.75,172.92Z"/><path class="cls-2" d="M208.94,124.26l-12.38-14.69c-1.77-2.1-2.75-1.62-2.18,1.07,0,0,7.21,33.8,7.89,31.8,0.78-2.3,6.88-10.37,6.88-10.37A6.58,6.58,0,0,0,208.94,124.26Z"/><path class="cls-2" d="M223.18,181.2c3,1,6.35,2.15,9.2,3.16,3.75,1.33,6.62,2.4,6.62,2.4a21.89,21.89,0,0,0-2.17-9.06,26.09,26.09,0,0,0-1.56-2.82s0-.1,0-0.15a32.3,32.3,0,0,0-4.51-5.16l0.13-.08a46.19,46.19,0,0,0-7.29-5.91,23.35,23.35,0,0,0-1.78,9.34A24.47,24.47,0,0,0,223.18,181.2Z"/><path class="cls-3" d="M223.45,163.58a49,49,0,0,0-8.45-4.49v20a44.73,44.73,0,0,1,8,2.11,24.6,24.6,0,0,1-1.23-8.28A23.41,23.41,0,0,1,223.45,163.58Z"/><path class="cls-4" d="M233.33,179.09a5.1,5.1,0,0,1-4.9-3.71c0-.11-0.07-0.21-0.1-0.31s0-.24-0.05-0.36a5,5,0,0,1-.08-0.6,5.1,5.1,0,0,1,2.52-4.58l0,0,0.13-.08a46.19,46.19,0,0,0-7.29-5.91,23.35,23.35,0,0,0-1.78,9.34,24.47,24.47,0,0,0,1.35,8.28c3,1,6.35,2.15,9.2,3.16a15.59,15.59,0,0,0,2.28-5.47A5.07,5.07,0,0,1,233.33,179.09Z"/><path class="cls-3" d="M230.77,169.57a4.85,4.85,0,0,0-2.48,5.13c0,0.12,0,.25.05,0.36s0.07,0.21.1,0.31a5.11,5.11,0,0,0,5.08,3.64,4.86,4.86,0,0,0,1.17-.21v0.07a15.59,15.59,0,0,1-2.28,5.47c3.75,1.33,6.62,2.4,6.62,2.4a21.89,21.89,0,0,0-2.17-9.06,26.09,26.09,0,0,0-1.56-2.82s0-.1,0-0.15A32.3,32.3,0,0,0,230.77,169.57Z"/><path class="cls-3" d="M228.2,174.1a5,5,0,0,0,.08.6,4.85,4.85,0,0,1,2.48-5.13l0,0A5.1,5.1,0,0,0,228.2,174.1Z"/><path class="cls-5" d="M249.07,128.09l-2.32,7.1a4.37,4.37,0,0,1-3.93,2.81h-7.51c-1.65,0-1.91.84-.59,1.82l6.1,4.52a4.48,4.48,0,0,1,1.5,4.65L240,156.26c-0.51,1.57.17,2.06,1.51,1.09l6.08-4.43a4.18,4.18,0,0,1,2.43-.73V126.91A1.37,1.37,0,0,0,249.07,128.09Z"/><path class="cls-6" d="M196.56,109.57c-1.77-2.1-2.75-1.62-2.18,1.07,0,0,7.21,33.8,7.89,31.8,0.78-2.3,6.88-10.37,6.88-10.37a6.58,6.58,0,0,0-.21-7.81Z"/><path class="cls-7" d="M120.1,408.57a1.68,1.68,0,0,0-.1.51C120,409.64,120,409.39,120.1,408.57Z"/><path class="cls-7" d="M127.15,383.81c-5.23,5.38-6.69,21-7,24.77,1.3-3.91,15.9-13.49,15.9-13.49S129.47,389.23,127.15,383.81Z"/><path class="cls-7" d="M146.67,405.42a1.35,1.35,0,0,1-.68-0.81c-3.25,3.67-1.57,23.68.76,19.48,2.5-4.5,12.48-12,12.48-12C153.8,413.75,146.67,405.42,146.67,405.42Z"/><path class="cls-2" d="M223.45,163.58a49,49,0,0,0-8.45-4.49v20a44.73,44.73,0,0,1,8,2.11,24.6,24.6,0,0,1-1.23-8.28A23.41,23.41,0,0,1,223.45,163.58Z"/><path class="cls-2" d="M196.56,109.57c-1.77-2.1-2.75-1.62-2.18,1.07,0,0,7.21,33.8,7.89,31.8,0.78-2.3,6.88-10.37,6.88-10.37a6.58,6.58,0,0,0-.21-7.81Z"/><path class="cls-2" d="M190.44,184.9c-2.92-6.46.08-16.32,8-32.54l0-.08C190.46,168.56,187.46,178.44,190.44,184.9Z"/><path class="cls-2" d="M204.34,151.86v-0.11s-2.54-.3-6.39-0.56l0,0.11C201.75,151.55,204.25,151.85,204.34,151.86Z"/><path class="cls-2" d="M230.77,169.57l0.13-.08a46.19,46.19,0,0,0-7.29-5.91,23.35,23.35,0,0,0-1.78,9.34,24.47,24.47,0,0,0,1.35,8.28c3,1,6.35,2.15,9.2,3.16,3.75,1.33,6.62,2.4,6.62,2.4a21.89,21.89,0,0,0-2.17-9.06,26.09,26.09,0,0,0-1.56-2.82s0-.1,0-0.15A32.3,32.3,0,0,0,230.77,169.57Z"/><path class="cls-8" d="M185.53,277.53l22-8.85a65.3,65.3,0,0,1,.53-17.86l-5.78-4.08a11.43,11.43,0,0,0-2.24,6.52,20.68,20.68,0,0,1-.58-8.51l-12-8.47A74.63,74.63,0,0,0,174,279.09c0,1.58.07,3.15,0.16,4.71a31.57,31.57,0,0,1,6.85-3A11.87,11.87,0,0,1,185.53,277.53Z"/><path class="cls-8" d="M247.25,240.06h0a7.38,7.38,0,0,0,1.94-2.26,6.28,6.28,0,0,0,.77-2.44c0-.17,0-0.35,0-0.51a6.15,6.15,0,0,1-.81,3A7.31,7.31,0,0,1,247.25,240.06Z"/><path class="cls-8" d="M239,309.09c-3.87-.85-7.13-5.43-9.82-11.56a11.93,11.93,0,0,1-1.55.77l-29,11.69a12,12,0,0,1-10.75-.93c-0.81,2.67-.7,5.46,2.15,7,3.75,2.06,4.23,7.94,3.4,13.33A74.81,74.81,0,0,0,249,354.09l1,0V321.75C240.46,319.51,239,309.09,239,309.09Z"/><path class="cls-8" d="M216,256.48h0l-8-5.65a57.93,57.93,0,0,1,3.31-11.72h0A58,58,0,0,0,208,250.82Z"/><path class="cls-8" d="M199.42,244.75l2.82,2h0l-2.8-2c1.05-8.88,7.51-23,35-33.67v0C206.93,221.74,200.48,235.86,199.42,244.75Z"/><path class="cls-8" d="M239,239.23L219.22,256.5s0.07,0.66.23,1.81a5.21,5.21,0,0,1-3-1.49l-0.42-.28q-0.7,4.25-1.14,9.17a11.9,11.9,0,0,1,5.6-.64c-0.49-2.89-.85-5.26-1.06-6.76-0.16-1.15-.24-1.81-0.24-1.81Z"/><path class="cls-9" d="M208,250.82a58,58,0,0,1,3.3-11.71c-0.2.1-5.82,3-9.06,7.63h0Z"/><path class="cls-9" d="M204.12,194.09h0Z"/><path class="cls-9" d="M204.1,194.09h0Z"/><path class="cls-9" d="M233.68,205.66c-0.44-3.91-.54-6.56-0.54-6.56-12.47-1.6-22-3.1-29-5.1h0l0,0c-3.61,9.53-10.25,25.08-15.2,25.08a3.55,3.55,0,0,1-1.84-.71c-2.73,4.75-4.61,8.17-4.61,8.17a5.88,5.88,0,0,0,1.61,7.35l3.41,2.41,12,8.47c1.05-8.89,7.51-23,35-33.69C234.09,209.09,233.86,207.27,233.68,205.66Z"/><path class="cls-10" d="M202.51,193.54c-6.36-2.07-10.3-4.73-12.08-8.64-3-6.46,0-16.34,7.95-32.62-0.14-.32-0.28-0.65-0.42-1h0l0-.11c-11.23-.74-33.72-1-37.94,7.89-2.32,4.91.9,15.86,6,27.07,2,4.44,4.33,8.92,6.72,13.08,5.24,9.17,10.82,16.82,14.3,19.13a3.58,3.58,0,0,0,1.84.72c4.95,0,11.59-15.53,15.2-25.06Z"/><path class="cls-8" d="M246,237.09a1,1,0,0,1-1-1v0a1,1,0,0,0,2,0v0A1,1,0,0,1,246,237.09Z"/><path class="cls-9" d="M216.05,256.5s0,0,0,0l0.43,0.28a5.22,5.22,0,0,0,3,1.49c-0.16-1.15-.23-1.81-0.23-1.81L239,239.23,219.22,256.5s0.08,0.66.24,1.81a5.24,5.24,0,0,0,4.29-1.2l21.41-16a6,6,0,0,0,2.07-1,14.34,14.34,0,0,1-2.14-1.69c-4.32-4.09-7.11-11.21-8.88-18.27-5.11,2.41-15.87,10.48-20.13,36.4h0l-0.05,0h0Z"/><path class="cls-1" d="M250,237.69v-2.82a7.43,7.43,0,0,1-.68,2.91Z"/><path class="cls-1" d="M250,235.37a6.28,6.28,0,0,1-.77,2.44l0.12,0A7.67,7.67,0,0,0,250,235.37Z"/><path class="cls-1" d="M204.06,194h0l0-.05h0Z"/><path class="cls-1" d="M202.51,193.54l1.55,0.48,0-.05c-0.55-.16-1.07-0.33-1.58-0.49-6.33-2.06-10.27-4.7-12.06-8.58C192.21,188.81,196.15,191.48,202.51,193.54Z"/><path class="cls-1" d="M198.38,152.28v0c-0.14-.31-0.27-0.63-0.41-0.95h0C198.1,151.63,198.24,152,198.38,152.28Z"/><path class="cls-1" d="M216,256.5h0l0.07,0v0l0,0v0h0Z"/><path class="cls-1" d="M247.24,240.08h0Z"/><path class="cls-1" d="M249.19,238.09a5.67,5.67,0,0,1-1.78,2.06,11.43,11.43,0,0,0,2.59,1.21v-3.67l-0.68.09C249.28,237.89,249.24,238,249.19,238.09Z"/><path class="cls-1" d="M249.19,238.09c0-.1.09-0.2,0.13-0.3l-0.12,0a7.38,7.38,0,0,1-1.94,2.26l0.1,0.06A5.43,5.43,0,0,0,249.19,238.09Z"/><path class="cls-1" d="M211.32,239.11v0s-5.79,2.89-9.09,7.65h0C205.5,242.08,211.12,239.22,211.32,239.11Z"/><path class="cls-1" d="M233.13,199.15s0.11,2.6.54,6.51h0c-0.44-3.94-.55-6.57-0.55-6.57-12.46-1.6-22-3.06-29-5.1l0,0.05C211.09,196.08,220.67,197.54,233.13,199.15Z"/><path class="cls-1" d="M234.42,211c-0.31-2-.54-3.78-0.72-5.39h0c0.18,1.61.41,3.43,0.72,5.39h0Z"/><path class="cls-1" d="M227.24,227.57c-4.35,5.45-8.8,14.37-11.19,28.91l0,0C218.46,242,222.9,233,227.24,227.57Z"/><path class="cls-1" d="M236.21,220.11c1.77,7.07,4.57,14.19,8.88,18.27h0c-4.33-4.09-7.11-11.22-8.89-18.31a25.72,25.72,0,0,0-9,7.5A25.76,25.76,0,0,1,236.21,220.11Z"/><path class="cls-1" d="M216.08,256.5c4.26-25.92,15-34,20.13-36.4a25.76,25.76,0,0,0-9,7.46C222.9,233,218.46,242,216.07,256.5h0Z"/><path class="cls-1" d="M247.23,240.08h0a14.25,14.25,0,0,1-2.14-1.69h0A14.34,14.34,0,0,0,247.23,240.08Z"/><path class="cls-1" d="M250,234.88v0c0,0.16,0,.34,0,0.51C250,235.2,250,235,250,234.88Z"/><path class="cls-1" d="M249.32,238h0a8.2,8.2,0,0,0,.68-3c0,0.16,0,.38,0,0.54A10,10,0,0,1,249.32,238Z"/><path class="cls-1" d="M249.19,238.09c0-.1.09-0.2,0.13-0.3h0c0,0.1-.08.2-0.13,0.3h0Z"/><path class="cls-1" d="M247.36,240.08h0.05a5.23,5.23,0,0,0,1.78-2.09h0A5.23,5.23,0,0,1,247.36,240.08Z"/><path class="cls-11" d="M246,230.11a1,1,0,0,0-1,1v5a1,1,0,0,0,2,0v-5A1,1,0,0,0,246,230.11Z"/><path class="cls-11" d="M246,230.09a1,1,0,0,0-1,1v0a1,1,0,0,1,2,0v0A1,1,0,0,0,246,230.09Z"/><path class="cls-12" d="M247,259.09v31a2.5,2.5,0,0,0,3,2.45v-35.9A2.5,2.5,0,0,0,247,259.09Z"/><path class="cls-12" d="M237.45,258.36a2.44,2.44,0,0,0-2.34,2.54l1.9,29.44a2.5,2.5,0,0,0,5-.32l-1.9-29.44A2.44,2.44,0,0,0,237.45,258.36Z"/><path class="cls-7" d="M202.24,384a4.15,4.15,0,0,1-2.24.39h0l12.75,3.16s1.83-8.53-6.26-11.36C206.82,378.87,204.89,382.47,202.24,384Z"/><path class="cls-13" d="M249.5,256.59a2.52,2.52,0,0,1,.5.05V241.36a11.43,11.43,0,0,1-2.59-1.21l-0.15.12V240.2l0.1-.08-0.1-.06h0a6,6,0,0,1-2.07,1l-21.41,16a5.24,5.24,0,0,1-4.29,1.2c0.21,1.5.56,3.87,1.06,6.76a11.9,11.9,0,0,0-5.6.64,193.56,193.56,0,0,0-.26,28.21,75.05,75.05,0,0,1-7.17-25.24l-22,8.85a11.87,11.87,0,0,0-4.52,3.23,31.57,31.57,0,0,0-6.85,3c-2.23,1.4-3.95,3.16-4.16,5.29,0,0-17.57,30.4.83,67.68-9.72,4-44.5,18.5-44.5,23.66a8.8,8.8,0,0,0,.82,3.39c2.32,5.42,8.85,11.28,8.85,11.28s14-2.67,39-26c0,0-31,29.48-29,35.52a1.35,1.35,0,0,0,.68.81s7.13,8.33,12.57,6.67S178,375.75,178,375.75s15.28,8.39,22,8.67a4.15,4.15,0,0,0,2.24-.39c2.64-1.56,4.58-5.16,4.24-7.81-0.22-1.78-1.47-3.14-4.24-3.14A56,56,0,0,1,190,371.75V359.09s-3-16.33,0-20c1.31-1.6,2.75-5.49,3.4-9.67,0.84-5.39.36-11.26-3.4-13.33-2.85-1.57-3-4.35-2.15-7a12,12,0,0,0,10.75.93l29-11.69a11.93,11.93,0,0,0,1.55-.77c2.69,6.13,5.95,10.71,9.82,11.56,0,0,1.46,10.43,11,12.66V292.54a2.5,2.5,0,0,1-3-2.45v-31A2.5,2.5,0,0,1,249.5,256.59Zm-9.84,36a2.44,2.44,0,0,1-2.65-2.21l-1.9-29.44a2.5,2.5,0,0,1,5-.32L242,290A2.44,2.44,0,0,1,239.66,292.55Z"/><path class="cls-13" d="M247.25,240.2v0.07l0.15-.12-0.05,0Z"/><path class="cls-2" d="M223.45,163.58a49,49,0,0,0-8.45-4.49v20a44.73,44.73,0,0,1,8,2.11,24.6,24.6,0,0,1-1.23-8.28A23.41,23.41,0,0,1,223.45,163.58Z"/><path class="cls-2" d="M246,230.09a1,1,0,0,0-1,1v5a1,1,0,0,0,2,0v-5A1,1,0,0,0,246,230.09Z"/><path class="cls-2" d="M196.56,109.57c-1.77-2.1-2.75-1.62-2.18,1.07,0,0,7.21,33.8,7.89,31.8,0.78-2.3,6.88-10.37,6.88-10.37a6.58,6.58,0,0,0-.21-7.81Z"/><path class="cls-2" d="M235.27,174.87s0-.1,0-0.15a32.3,32.3,0,0,0-4.51-5.16l0.13-.08a46.19,46.19,0,0,0-7.29-5.91,23.35,23.35,0,0,0-1.78,9.34,24.47,24.47,0,0,0,1.35,8.28c3,1,6.35,2.15,9.2,3.16,3.75,1.33,6.62,2.4,6.62,2.4a21.89,21.89,0,0,0-2.17-9.06A26.09,26.09,0,0,0,235.27,174.87Z"/><path class="cls-1" d="M199.44,244.76l0,0a20.68,20.68,0,0,0,.58,8.51,11.43,11.43,0,0,1,2.24-6.52l-1.17-.82-1.63-1.15h0Z"/><path class="cls-1" d="M216,256.5h0v0l-8-5.66a65.3,65.3,0,0,0-.53,17.86,75.05,75.05,0,0,0,7.17,25.24,193.56,193.56,0,0,1,.26-28.21q0.44-4.92,1.14-9.17l-0.07,0h0Z"/><path class="cls-1" d="M250,179.09V152.2a4.18,4.18,0,0,0-2.43.73l-6.08,4.43c-1.33,1-2,.48-1.51-1.09l2.34-7.26a4.47,4.47,0,0,0-1.5-4.64l-6.1-4.54c-1.33-1-1.06-1.82.59-1.82h7.51a4.37,4.37,0,0,0,3.93-2.81l2.32-7.13a1.33,1.33,0,0,1,.93-1.16V114.19a52.68,52.68,0,0,0-20.26,4.58c-9.09-6.51-37.59-26.75-39.83-25.35-2.49,1.56-.87,37.05,8,57.77,3.86,0.25,6.39.56,6.39,0.56v0.11c-0.09,0-2.59-.31-6.35-0.55,0.14,0.32.27,0.64,0.41,0.95v0l0,0.08c-7.9,16.22-10.91,26.08-8,32.54,1.79,3.88,5.73,6.52,12.06,8.58,0.52,0.17,1,.33,1.58.49,0,0,0,.19,0,0.19,0.47-1.23.88-2.16,1.23-3.16h0c-0.35,1-.77,1.93-1.24,3.16,7,2,16.57,3.41,29,5,0,0,.11,2.58.55,6.52,0.18,1.61.41,3.41,0.72,5.37h0v0c-27.45,10.68-33.9,24.78-35,33.67l1.63,1.15,1.17,0.82c3.3-4.75,9.09-7.65,9.09-7.65v0h0a57.86,57.86,0,0,0-3.3,11.72l8,5.65c2.39-14.54,6.85-23.46,11.19-28.91a25.72,25.72,0,0,1,9-7.5c1.78,7.09,4.56,14.22,8.89,18.31a14.25,14.25,0,0,0,2.14,1.69,7.31,7.31,0,0,0,1.94-2.26,6.15,6.15,0,0,0,.81-3V179.09Zm-40.85-47s-6.1,8.07-6.88,10.37c-0.68,2-7.89-31.8-7.89-31.8-0.57-2.69.41-3.17,2.18-1.07l12.38,14.69A6.58,6.58,0,0,1,209.15,132.07Zm5.85,47v-20a49,49,0,0,1,8.45,4.49,23.41,23.41,0,0,0-1.7,9.34A24.6,24.6,0,0,0,223,181.2,44.73,44.73,0,0,0,215,179.09Zm17.38,5.27c-2.84-1-6.2-2.18-9.2-3.16a24.47,24.47,0,0,1-1.35-8.28,23.35,23.35,0,0,1,1.78-9.34,46.19,46.19,0,0,1,7.29,5.91l-0.13.08a32.3,32.3,0,0,1,4.51,5.16c0,0.05,0,.1,0,0.15a26.09,26.09,0,0,1,1.56,2.82,21.89,21.89,0,0,1,2.17,9.06S236.13,185.69,232.38,184.35ZM247,231.11v5a1,1,0,0,1-2,0v-5a1,1,0,0,1,2,0v0Z"/><polygon class="cls-1" points="199.44 244.76 201.07 245.91 199.44 244.76 199.44 244.76"/><path class="cls-2" d="M99.51,134.17A11.88,11.88,0,0,1,96,136.45v1.4c0.9,0,1.77.14,2.63,0.25A29.34,29.34,0,0,1,99.51,134.17Z"/><path class="cls-8" d="M166,186.16l-10.75,10.75L114,155.65c-0.1-.1-0.23-0.19-0.35-0.29a30.8,30.8,0,0,0,2.15-11.77c0-9.94-3.94-18-8.79-18a4.63,4.63,0,0,0-2,.49,23.52,23.52,0,0,1-5.48,8.1,29.34,29.34,0,0,0-.89,3.92c7.7,1,13.37,4.42,13.37,8.49,0,2.42-2,4.61-5.24,6.2a24.39,24.39,0,0,1-5.82,1.91c4.56,1.1,8,3.1,9.39,5.54a4.74,4.74,0,0,1,.67,2.35c0,3.92-5.25,7.24-12.51,8.37,8.27,0.79,14.51,4.35,14.51,8.63a6,6,0,0,1-2.56,4.5l33.76,33.76a7,7,0,0,0,9.9,0l0.66-.66h0l17.95-17.95C170.34,195.07,168,190.6,166,186.16Z"/><path class="cls-7" d="M96,137.85v-1.4a11.88,11.88,0,0,0,3.51-2.28c1.21-4,3.16-7,5.48-8.1a50.56,50.56,0,0,0,3.76-19.87c0-17.05-7.16-30.87-16-30.87s-16,13.82-16,30.87c0,15.24,5.72,27.89,13.25,30.41V138a36.21,36.21,0,0,1,4-.23C94.68,137.79,95.34,137.81,96,137.85Z"/><path class="cls-7" d="M90,188v20.06a3,3,0,0,0,6,0V188.36l-1,0A35.75,35.75,0,0,1,90,188Z"/><path class="cls-7" d="M99.51,134.17a23.52,23.52,0,0,0,5.48-8.1C102.68,127.18,100.72,130.15,99.51,134.17Z"/><path class="cls-1" d="M98.49,171c7.25-1.14,12.51-4.45,12.51-8.37a4.74,4.74,0,0,0-.67-2.35c-1.38-2.44-4.84-4.44-9.39-5.54a24.39,24.39,0,0,0,5.82-1.91C110,151.2,112,149,112,146.59c0-4.07-5.68-7.49-13.37-8.49-0.85-.11-1.73-0.2-2.63-0.25-0.66,0-1.32-.06-2-0.06a36.21,36.21,0,0,0-4,.23c-8,.89-14,4.38-14,8.57,0,3.46,4.11,6.45,10.06,7.88C79.57,155.8,75,158.93,75,162.59c0,4.27,6.24,7.83,14.51,8.63C82.25,172.35,77,175.67,77,179.59S82.49,187,90,188a35.75,35.75,0,0,0,5,.35l1,0c6.15-.17,11.46-1.83,14.44-4.27a6,6,0,0,0,2.56-4.5C113,175.31,106.76,171.76,98.49,171Z"/><path class="cls-1" d="M266.67,179.09a5.07,5.07,0,0,1-1.33-.2v-0.07a4.86,4.86,0,0,0,1.17.21,5.11,5.11,0,0,0,5.08-3.64A5.1,5.1,0,0,1,266.67,179.09Z"/><path class="cls-2" d="M278.25,172.92a23.41,23.41,0,0,0-1.7-9.34,49,49,0,0,1,8.45-4.49v20a44.73,44.73,0,0,0-8,2.11A24.6,24.6,0,0,0,278.25,172.92Z"/><path class="cls-2" d="M291.06,124.26l12.38-14.69c1.77-2.1,2.75-1.62,2.18,1.07,0,0-7.21,33.8-7.89,31.8-0.78-2.3-6.88-10.37-6.88-10.37A6.58,6.58,0,0,1,291.06,124.26Z"/><path class="cls-2" d="M276.82,181.2c-3,1-6.35,2.15-9.2,3.16-3.75,1.33-6.62,2.4-6.62,2.4a21.89,21.89,0,0,1,2.17-9.06,26.09,26.09,0,0,1,1.56-2.82s0-.1,0-0.15a32.3,32.3,0,0,1,4.51-5.16l-0.13-.08a46.19,46.19,0,0,1,7.29-5.91,23.35,23.35,0,0,1,1.78,9.34A24.47,24.47,0,0,1,276.82,181.2Z"/><path class="cls-3" d="M276.55,163.58a49,49,0,0,1,8.45-4.49v20a44.73,44.73,0,0,0-8,2.11,24.6,24.6,0,0,0,1.23-8.28A23.41,23.41,0,0,0,276.55,163.58Z"/><path class="cls-4" d="M266.67,179.09a5.1,5.1,0,0,0,4.9-3.71c0-.11.07-0.21,0.1-0.31s0-.24.05-0.36a5,5,0,0,0,.08-0.6,5.1,5.1,0,0,0-2.52-4.58l0,0-0.13-.08a46.19,46.19,0,0,1,7.29-5.91,23.35,23.35,0,0,1,1.78,9.34,24.47,24.47,0,0,1-1.35,8.28c-3,1-6.35,2.15-9.2,3.16a15.59,15.59,0,0,1-2.28-5.47A5.07,5.07,0,0,0,266.67,179.09Z"/><path class="cls-3" d="M269.23,169.57a4.85,4.85,0,0,1,2.48,5.13c0,0.12,0,.25-0.05.36s-0.07.21-.1,0.31a5.11,5.11,0,0,1-5.08,3.64,4.86,4.86,0,0,1-1.17-.21v0.07a15.59,15.59,0,0,0,2.28,5.47c-3.75,1.33-6.62,2.4-6.62,2.4a21.89,21.89,0,0,1,2.17-9.06,26.09,26.09,0,0,1,1.56-2.82s0-.1,0-0.15A32.3,32.3,0,0,1,269.23,169.57Z"/><path class="cls-3" d="M271.8,174.1a5,5,0,0,1-.08.6,4.85,4.85,0,0,0-2.48-5.13l0,0A5.1,5.1,0,0,1,271.8,174.1Z"/><path class="cls-5" d="M250.93,128.09l2.32,7.1a4.37,4.37,0,0,0,3.93,2.81h7.51c1.65,0,1.91.84,0.59,1.82l-6.1,4.52a4.48,4.48,0,0,0-1.5,4.65l2.34,7.27c0.51,1.57-.17,2.06-1.51,1.09l-6.08-4.43a3.92,3.92,0,0,0-2.43-.73V126.91A2.3,2.3,0,0,1,250.93,128.09Z"/><path class="cls-6" d="M303.44,109.57c1.77-2.1,2.75-1.62,2.18,1.07,0,0-7.21,33.8-7.89,31.8-0.78-2.3-6.88-10.37-6.88-10.37a6.58,6.58,0,0,1,.21-7.81Z"/><path class="cls-7" d="M379.9,408.57a1.68,1.68,0,0,1,.1.51C380,409.64,380,409.39,379.9,408.57Z"/><path class="cls-7" d="M372.85,383.81c5.23,5.38,6.69,21,7,24.77-1.3-3.91-15.9-13.49-15.9-13.49S370.53,389.23,372.85,383.81Z"/><path class="cls-7" d="M353.33,405.42a1.35,1.35,0,0,0,.68-0.81c3.25,3.67,1.57,23.68-.76,19.48-2.5-4.5-12.48-12-12.48-12C346.2,413.75,353.33,405.42,353.33,405.42Z"/><path class="cls-2" d="M276.55,163.58a49,49,0,0,1,8.45-4.49v20a44.73,44.73,0,0,0-8,2.11,24.6,24.6,0,0,0,1.23-8.28A23.41,23.41,0,0,0,276.55,163.58Z"/><path class="cls-2" d="M303.44,109.57c1.77-2.1,2.75-1.62,2.18,1.07,0,0-7.21,33.8-7.89,31.8-0.78-2.3-6.88-10.37-6.88-10.37a6.58,6.58,0,0,1,.21-7.81Z"/><path class="cls-2" d="M309.56,184.9c2.92-6.46-.08-16.32-8-32.54l0-.08C309.54,168.56,312.54,178.44,309.56,184.9Z"/><path class="cls-2" d="M295.66,151.86v-0.11s2.54-.3,6.39-0.56l0,0.11C298.25,151.55,295.75,151.85,295.66,151.86Z"/><path class="cls-2" d="M269.23,169.57l-0.13-.08a46.19,46.19,0,0,1,7.29-5.91,23.35,23.35,0,0,1,1.78,9.34,24.47,24.47,0,0,1-1.35,8.28c-3,1-6.35,2.15-9.2,3.16-3.75,1.33-6.62,2.4-6.62,2.4a21.89,21.89,0,0,1,2.17-9.06,26.09,26.09,0,0,1,1.56-2.82s0-.1,0-0.15A32.3,32.3,0,0,1,269.23,169.57Z"/><path class="cls-8" d="M314.47,277.53l-22-8.85a65.3,65.3,0,0,0-.53-17.86l5.78-4.08a11.43,11.43,0,0,1,2.24,6.52,20.68,20.68,0,0,0,.58-8.51l12-8.47A74.63,74.63,0,0,1,326,279.09c0,1.58-.07,3.15-0.16,4.71a31.57,31.57,0,0,0-6.85-3A11.87,11.87,0,0,0,314.47,277.53Z"/><path class="cls-8" d="M252.75,240.06h0a7.38,7.38,0,0,1-1.94-2.26,6.28,6.28,0,0,1-.77-2.44c0-.17,0-0.35,0-0.51a6.15,6.15,0,0,0,.81,3A7.31,7.31,0,0,0,252.75,240.06Z"/><path class="cls-8" d="M261,309.09c3.87-.85,7.13-5.43,9.82-11.56a11.93,11.93,0,0,0,1.55.77l29,11.69a12,12,0,0,0,10.75-.93c0.81,2.67.7,5.46-2.15,7-3.75,2.06-4.23,7.94-3.4,13.33A74.81,74.81,0,0,1,251,354.09l-1,0V321.75C259.54,319.51,261,309.09,261,309.09Z"/><path class="cls-8" d="M284,256.48h0l8-5.65a57.93,57.93,0,0,0-3.31-11.72h0A58,58,0,0,1,292,250.82Z"/><path class="cls-8" d="M300.58,244.75l-2.82,2h0l2.8-2c-1.05-8.88-7.51-23-35-33.67v0C293.07,221.74,299.52,235.86,300.58,244.75Z"/><path class="cls-8" d="M261,239.23l19.78,17.27s-0.07.66-.23,1.81a5.21,5.21,0,0,0,3-1.49l0.42-.28q0.7,4.25,1.14,9.17a11.9,11.9,0,0,0-5.6-.64c0.49-2.89.85-5.26,1.06-6.76,0.16-1.15.24-1.81,0.24-1.81Z"/><path class="cls-9" d="M292,250.82a58,58,0,0,0-3.3-11.71c0.2,0.1,5.82,3,9.06,7.63h0Z"/><path class="cls-9" d="M295.88,194.09h0Z"/><path class="cls-9" d="M295.9,194.09h0Z"/><path class="cls-9" d="M266.32,205.66c0.44-3.91.54-6.56,0.54-6.56,12.47-1.6,22-3.1,29-5.1h0l0,0c3.61,9.53,10.25,25.08,15.2,25.08a3.55,3.55,0,0,0,1.84-.71c2.73,4.75,4.61,8.17,4.61,8.17a5.88,5.88,0,0,1-1.61,7.35l-3.41,2.41-12,8.47c-1.05-8.89-7.51-23-35-33.69C265.91,209.09,266.14,207.27,266.32,205.66Z"/><path class="cls-10" d="M297.49,193.54c6.36-2.07,10.3-4.73,12.08-8.64,3-6.46,0-16.34-7.95-32.62,0.14-.32.28-0.65,0.42-1h0l0-.11c11.23-.74,33.72-1,37.94,7.89,2.32,4.91-.9,15.86-6,27.07-2,4.44-4.33,8.92-6.72,13.08-5.24,9.17-10.82,16.82-14.3,19.13a3.58,3.58,0,0,1-1.84.72c-4.95,0-11.59-15.53-15.2-25.06Z"/><path class="cls-8" d="M254,237.09a1,1,0,0,0,1-1v0a1,1,0,0,1-2,0v0A1,1,0,0,0,254,237.09Z"/><path class="cls-9" d="M283.95,256.5s0,0,0,0l-0.43.28a5.22,5.22,0,0,1-3,1.49c0.16-1.15.23-1.81,0.23-1.81L261,239.23l19.78,17.27s-0.08.66-.24,1.81a5.24,5.24,0,0,1-4.29-1.2l-21.41-16a6,6,0,0,1-2.07-1,14.34,14.34,0,0,0,2.14-1.69c4.32-4.09,7.11-11.21,8.88-18.27,5.11,2.41,15.87,10.48,20.13,36.4h0l0.05,0h0Z"/><path class="cls-1" d="M250,237.69v-2.82a7.43,7.43,0,0,0,.68,2.91Z"/><path class="cls-1" d="M250,235.37a6.28,6.28,0,0,0,.77,2.44l-0.12,0A7.67,7.67,0,0,1,250,235.37Z"/><path class="cls-1" d="M295.94,194h0l0-.05h0Z"/><path class="cls-1" d="M297.49,193.54l-1.55.48,0-.05c0.55-.16,1.07-0.33,1.58-0.49,6.33-2.06,10.27-4.7,12.06-8.58C307.79,188.81,303.85,191.48,297.49,193.54Z"/><path class="cls-1" d="M301.62,152.28v0c0.14-.31.27-0.63,0.41-0.95h0C301.9,151.63,301.76,152,301.62,152.28Z"/><path class="cls-1" d="M284,256.5h0l-0.07,0v0l0,0v0h0Z"/><path class="cls-1" d="M252.76,240.08h0Z"/><path class="cls-1" d="M250.81,238.09a5.67,5.67,0,0,0,1.78,2.06,9.93,9.93,0,0,1-2.59,1.21v-3.67l0.68,0.09C250.72,237.89,250.76,238,250.81,238.09Z"/><path class="cls-1" d="M250.81,238.09c0-.1-0.09-0.2-0.13-0.3l0.12,0a7.38,7.38,0,0,0,1.94,2.26l-0.1.06A5.43,5.43,0,0,1,250.81,238.09Z"/><path class="cls-1" d="M288.68,239.11v0s5.79,2.89,9.09,7.65h0C294.5,242.08,288.88,239.22,288.68,239.11Z"/><path class="cls-1" d="M266.87,199.15s-0.11,2.6-.54,6.51h0c0.44-3.94.55-6.57,0.55-6.57,12.46-1.6,22-3.06,29-5.1l0,0.05C288.91,196.08,279.33,197.54,266.87,199.15Z"/><path class="cls-1" d="M265.58,211c0.31-2,.54-3.78.72-5.39h0c-0.18,1.61-.41,3.43-0.72,5.39h0Z"/><path class="cls-1" d="M272.76,227.57c4.35,5.45,8.8,14.37,11.19,28.91l0,0C281.54,242,277.1,233,272.76,227.57Z"/><path class="cls-1" d="M263.79,220.11c-1.77,7.07-4.57,14.19-8.88,18.27h0c4.33-4.09,7.11-11.22,8.89-18.31a25.72,25.72,0,0,1,9,7.5A25.76,25.76,0,0,0,263.79,220.11Z"/><path class="cls-1" d="M283.92,256.5c-4.26-25.92-15-34-20.13-36.4a25.76,25.76,0,0,1,9,7.46c4.34,5.46,8.77,14.39,11.16,28.93h0Z"/><path class="cls-1" d="M252.77,240.08h0a14.25,14.25,0,0,0,2.14-1.69h0A14.34,14.34,0,0,1,252.77,240.08Z"/><path class="cls-1" d="M250,234.88v0c0,0.16,0,.34,0,0.51C250,235.2,250,235,250,234.88Z"/><path class="cls-1" d="M250.68,238h0a8.2,8.2,0,0,1-.68-3c0,0.16,0,.38,0,0.54A10,10,0,0,0,250.68,238Z"/><path class="cls-1" d="M250.81,238.09c0-.1-0.09-0.2-0.13-0.3h0c0,0.1.08,0.2,0.13,0.3h0Z"/><path class="cls-1" d="M252.64,240.08h-0.05a5.23,5.23,0,0,1-1.78-2.09h0A5.23,5.23,0,0,0,252.64,240.08Z"/><path class="cls-11" d="M254,230.11a1,1,0,0,1,1,1v5a1,1,0,0,1-2,0v-5A1,1,0,0,1,254,230.11Z"/><path class="cls-11" d="M254,230.09a1,1,0,0,1,1,1v0a1,1,0,0,0-2,0v0A1,1,0,0,1,254,230.09Z"/><path class="cls-12" d="M253,259.09v31a2.5,2.5,0,0,1-3,2.45v-35.9A2.5,2.5,0,0,1,253,259.09Z"/><path class="cls-12" d="M262.55,258.36a2.44,2.44,0,0,1,2.34,2.54L263,290.34a2.5,2.5,0,0,1-5-.32l1.9-29.44A2.44,2.44,0,0,1,262.55,258.36Z"/><path class="cls-7" d="M297.76,384a4.15,4.15,0,0,0,2.24.39h0l-12.75,3.16s-1.83-8.53,6.26-11.36C293.18,378.87,295.11,382.47,297.76,384Z"/><path class="cls-13" d="M253,259.09v31a2.5,2.5,0,0,1-3,2.45v29.21c9.54-2.23,11-12.66,11-12.66,3.87-.85,7.13-5.43,9.82-11.56a11.93,11.93,0,0,0,1.55.77l29,11.69a12,12,0,0,0,10.75-.93c0.81,2.67.7,5.46-2.15,7-3.75,2.06-4.23,7.94-3.4,13.33,0.65,4.18,2.09,8.07,3.4,9.67,3,3.67,0,20,0,20v12.67a56,56,0,0,1-12.24,1.33c-2.78,0-4,1.36-4.24,3.14-0.33,2.65,1.6,6.25,4.24,7.81a4.15,4.15,0,0,0,2.24.39c6.72-.28,22-8.67,22-8.67s13.33,34.67,18.77,36.33,12.57-6.67,12.57-6.67a1.35,1.35,0,0,0,.68-0.81c2-6-29-35.52-29-35.52,25,23.33,39,26,39,26s6.53-5.86,8.85-11.28a8.8,8.8,0,0,0,.82-3.39c0-5.16-34.78-19.69-44.5-23.66,18.4-37.28.83-67.68,0.83-67.68-0.21-2.13-1.93-3.89-4.16-5.29a31.57,31.57,0,0,0-6.85-3,11.87,11.87,0,0,0-4.52-3.23l-22-8.85a75.05,75.05,0,0,1-7.17,25.24,193.56,193.56,0,0,0-.26-28.21,11.9,11.9,0,0,0-5.6-.64c0.49-2.89.85-5.26,1.06-6.76a5.24,5.24,0,0,1-4.29-1.2l-21.41-16a6,6,0,0,1-2.07-1h0l-0.1.06,0.1,0.08v0.07l-0.15-.12a9.93,9.93,0,0,1-2.59,1.21v15.28a1.6,1.6,0,0,1,.5-0.05A2.5,2.5,0,0,1,253,259.09ZM258,290l1.9-29.44a2.5,2.5,0,0,1,5,.32L263,290.34A2.5,2.5,0,0,1,258,290Z"/><path class="cls-13" d="M252.75,240.2v0.07l-0.15-.12,0.05,0Z"/><path class="cls-2" d="M276.55,163.58a49,49,0,0,1,8.45-4.49v20a44.73,44.73,0,0,0-8,2.11,24.6,24.6,0,0,0,1.23-8.28A23.41,23.41,0,0,0,276.55,163.58Z"/><path class="cls-2" d="M254,230.09a1,1,0,0,1,1,1v5a1,1,0,0,1-2,0v-5A1,1,0,0,1,254,230.09Z"/><path class="cls-2" d="M303.44,109.57c1.77-2.1,2.75-1.62,2.18,1.07,0,0-7.21,33.8-7.89,31.8-0.78-2.3-6.88-10.37-6.88-10.37a6.58,6.58,0,0,1,.21-7.81Z"/><path class="cls-2" d="M264.73,174.87s0-.1,0-0.15a32.3,32.3,0,0,1,4.51-5.16l-0.13-.08a46.19,46.19,0,0,1,7.29-5.91,23.35,23.35,0,0,1,1.78,9.34,24.47,24.47,0,0,1-1.35,8.28c-3,1-6.35,2.15-9.2,3.16-3.75,1.33-6.62,2.4-6.62,2.4a21.89,21.89,0,0,1,2.17-9.06A26.09,26.09,0,0,1,264.73,174.87Z"/><path class="cls-1" d="M300.56,244.76l0,0a20.68,20.68,0,0,1-.58,8.51,11.43,11.43,0,0,0-2.24-6.52l1.17-.82,1.63-1.15h0Z"/><path class="cls-1" d="M284,256.5h0v0l8-5.66a65.3,65.3,0,0,1,.53,17.86,75.05,75.05,0,0,1-7.17,25.24,193.56,193.56,0,0,0-.26-28.21q-0.44-4.92-1.14-9.17l0.07,0h0Z"/><path class="cls-1" d="M250,188.55v46.3a6.15,6.15,0,0,0,.81,3,7.31,7.31,0,0,0,1.94,2.26,14.25,14.25,0,0,0,2.14-1.69c4.33-4.09,7.11-11.22,8.89-18.31a25.72,25.72,0,0,1,9,7.5c4.35,5.45,8.8,14.37,11.19,28.91l8-5.65a57.86,57.86,0,0,0-3.3-11.72h0v0s5.79,2.9,9.09,7.65l1.17-.82,1.63-1.15c-1.05-8.88-7.51-23-35-33.67v0h0c0.31-2,.54-3.75.72-5.36,0.44-3.94.55-6.51,0.55-6.51,12.46-1.6,22-3,29-5-0.47-1.23-.88-2.16-1.24-3.16h0c0.35,1,.77,1.93,1.23,3.16,0,0,0-.21,0-0.21,0.55-.16,1.07-0.32,1.58-0.48,6.33-2.06,10.27-4.69,12.06-8.57,2.92-6.46-.08-16.32-8-32.54l0-.08v0c0.14-.31.27-0.63,0.41-0.95-3.77.25-6.26,0.54-6.35,0.55v-0.11s2.54-.3,6.39-0.56c8.89-20.72,10.51-56.22,8-57.77-2.24-1.4-30.74,18.84-39.83,25.35A51.39,51.39,0,0,0,250,114.19v12.72a2.3,2.3,0,0,1,.93,1.18l2.32,7.1a4.37,4.37,0,0,0,3.93,2.81h7.51c1.65,0,1.91.84,0.59,1.82l-6.1,4.52a4.48,4.48,0,0,0-1.5,4.65l2.34,7.27c0.51,1.57-.17,2.06-1.51,1.09l-6.08-4.43a3.92,3.92,0,0,0-2.43-.73v36.36Zm41.06-64.3,12.38-14.69c1.77-2.1,2.75-1.62,2.18,1.07,0,0-7.21,33.8-7.89,31.8-0.78-2.3-6.88-10.37-6.88-10.37A6.58,6.58,0,0,1,291.06,124.26ZM277,181.2a24.6,24.6,0,0,0,1.23-8.28,23.41,23.41,0,0,0-1.7-9.34,49,49,0,0,1,8.45-4.49v20A44.73,44.73,0,0,0,277,181.2Zm-16,5.55a21.89,21.89,0,0,1,2.17-9.06,26.09,26.09,0,0,1,1.56-2.82s0-.1,0-0.15a32.3,32.3,0,0,1,4.51-5.16l-0.13-.08a46.19,46.19,0,0,1,7.29-5.91,23.35,23.35,0,0,1,1.78,9.34,24.47,24.47,0,0,1-1.35,8.28c-3,1-6.35,2.15-9.2,3.16C263.87,185.69,261,186.75,261,186.75Zm-8,44.33a1,1,0,0,1,2,0v5a1,1,0,0,1-2,0v-5Z"/><polygon class="cls-1" points="300.56 244.76 298.93 245.91 300.56 244.76 300.56 244.76"/><path class="cls-2" d="M400.49,134.17a15.8,15.8,0,0,0,3.51,2.28v1.4c-1,0-1.77.14-2.63,0.25A29.34,29.34,0,0,0,400.49,134.17Z"/><path class="cls-8" d="M334,186.16l10.75,10.75L386,155.65c0.1-.1.23-0.19,0.35-0.29a30.8,30.8,0,0,1-2.15-11.77c0-9.94,3.94-18,8.79-18a4.63,4.63,0,0,1,2,.49,23.52,23.52,0,0,0,5.48,8.1,29.34,29.34,0,0,1,.89,3.92c-7.7,1-13.37,4.42-13.37,8.49,0,2.42,2,4.61,5.24,6.2a24.39,24.39,0,0,0,5.82,1.91c-4.56,1.1-8,3.1-9.39,5.54a4.74,4.74,0,0,0-.67,2.35c0,3.92,5.25,7.24,12.51,8.37-8.27.79-14.51,4.35-14.51,8.63a6,6,0,0,0,2.56,4.5L355.8,217.85a7,7,0,0,1-9.9,0l-0.66-.66h0l-17.95-17.95C329.66,195.07,332,190.6,334,186.16Z"/><path class="cls-7" d="M404,137.85v-1.4a15.8,15.8,0,0,1-3.51-2.28c-1.21-4-3.16-7-5.48-8.1a50.56,50.56,0,0,1-3.76-19.87c0-17.05,7.16-30.87,16-30.87s16,13.82,16,30.87c0,15.24-5.25,27.89-13.25,30.41V138a32.49,32.49,0,0,0-4-.23C405.32,137.79,405,137.81,404,137.85Z"/><path class="cls-7" d="M410,188v20.06a3,3,0,0,1-6,0V188.36l1,0A40.7,40.7,0,0,0,410,188Z"/><path class="cls-7" d="M400.49,134.17a23.52,23.52,0,0,1-5.48-8.1C397.32,127.18,399.28,130.15,400.49,134.17Z"/><path class="cls-1" d="M401.51,171c-7.25-1.14-12.51-4.45-12.51-8.37a4.74,4.74,0,0,1,.67-2.35c1.38-2.44,4.84-4.44,9.39-5.54a24.39,24.39,0,0,1-5.82-1.91C390,151.2,388,149,388,146.59c0-4.07,5.68-7.49,13.37-8.49,0.85-.11,1.73-0.2,2.63-0.25,0.66,0,1.32-.06,2-0.06a36.21,36.21,0,0,1,4,.23c8,0.89,14,4.38,14,8.57,0,3.46-4.11,6.45-10.06,7.88,6.5,1.33,11.06,4.46,11.06,8.12,0,4.27-6.24,7.83-14.51,8.63,7.25,1.14,12.51,4.45,12.51,8.37S417.51,187,410,188a35.75,35.75,0,0,1-5,.35l-1,0c-6.15-.17-11.46-1.83-14.44-4.27a6,6,0,0,1-2.56-4.5C387,175.31,393.24,171.76,401.51,171Z"/><g class="cls-14"><path class="cls-11" d="M380,409.09a1.68,1.68,0,0,0-.1-0.51C380,409.39,380,409.64,380,409.09Z"/><path class="cls-11" d="M425,162.59c0-3.66-4.57-6.79-11.06-8.12,6-1.43,10.06-4.42,10.06-7.88,0-4.18-6-7.68-14-8.57a36.21,36.21,0,0,0-4-.23c-0.68,0-1.34,0-2,.06-0.9,0-1.77.14-2.63,0.25,0.85-.11,1.63-0.2,2.63-0.25s1.32-.06,2-0.06a32.49,32.49,0,0,1,4,.23v-1.39c8-2.52,13.25-15.17,13.25-30.41,0-17.05-7.16-30.87-16-30.87s-16,13.82-16,30.87A50.56,50.56,0,0,0,395,126.08a4.63,4.63,0,0,0-2-.49c-4.86,0-8.79,8.06-8.79,18a30.8,30.8,0,0,0,2.15,11.77c-0.12.1-.25,0.19-0.35,0.29l-41.26,41.26L334,186.16c5.1-11.21,8.32-22.16,6-27.07-4.22-8.93-26.71-8.63-37.94-7.89,8.89-20.72,10.51-56.22,8-57.77-2.24-1.4-30.74,18.84-39.83,25.35A51.39,51.39,0,0,0,250,114.19V234.88c0,0.16,0,.33,0,0.49v0c0,0.14,0,.27.05,0.4a7.47,7.47,0,0,0,.15.77,6.65,6.65,0,0,1-.25-1.68v21.76a1.6,1.6,0,0,1,.5-0.05,2.52,2.52,0,0,0-.5.05v97.42l1,0a74.81,74.81,0,0,0,55.6-24.67c0.65,4.18,2.09,8.07,3.4,9.67,3,3.67,0,20,0,20v12.67a56,56,0,0,1-12.24,1.33c-2.78,0-4,1.36-4.24,3.14-8.1,2.83-6.26,11.36-6.26,11.36L300,384.42h0c6.72-.28,22-8.67,22-8.67s13.33,34.67,18.77,36.33c0,0,10,7.5,12.48,12,2.34,4.2,4-15.81.76-19.48,2-6-29-35.52-29-35.52,25,23.33,39,26,39,26s14.59,9.58,15.9,13.49c-0.36-3.74-1.82-19.39-7-24.77a8.8,8.8,0,0,0,.82-3.39c0-5.16-34.78-19.69-44.5-23.66,18.4-37.28.83-67.68,0.83-67.68-0.21-2.13-1.93-3.89-4.16-5.29,0.1-1.56.16-3.13,0.16-4.71a74.63,74.63,0,0,0-13.43-42.81l-12,8.47,0,0h0l0,0,12-8.47,3.41-2.41a5.88,5.88,0,0,0,1.61-7.35s-1.88-3.41-4.61-8.16c3.49-2.31,9.06-10,14.3-19.12l17.95,17.95h0l0.66,0.66a7,7,0,0,0,9.9,0l33.76-33.76c3,2.43,8.29,4.1,14.44,4.27l1,0c0.76,0,1.5,0,2.23-.08-0.72.05-1.42,0.08-2.23,0.08l-1,0v19.73a3,3,0,0,0,6,0V188l-1.68.18c0.56-.05,1.13-0.1,1.68-0.18,7.51-1.06,13-4.43,13-8.44s-5.25-7.24-12.51-8.37C418.76,170.42,425,166.86,425,162.59ZM265.6,211.07h0v0h0Zm23.06,28h0c0.51,1.28,1,2.56,1.36,3.83a59.09,59.09,0,0,1,1.94,7.88l-8,5.41,0-.23h0v0.25l0,0.1,8-5.59A57.33,57.33,0,0,0,288.66,239.1Zm-33.82,2a6,6,0,0,1-2.07-1,12.93,12.93,0,0,0,1.1-.79,12.93,12.93,0,0,1-1.1.79,6,6,0,0,0,2.07,1l21.41,16a5.13,5.13,0,0,0,3.15,1.26,5.13,5.13,0,0,1-3.15-1.26ZM294.64,191h0c0.33,1,.72,2,1.16,3h0C295.37,193,295,192,294.64,191ZM261,239.23l19.79,17.11s-0.07.65-.23,1.65h0c0.16-1,.23-1.65.23-1.65l-18.26-15.86Zm-10.32-1.44c-0.07-.15-0.13-0.32-0.19-0.48,0.06,0.16.12,0.32,0.19,0.48h0Zm0.61,1.07-0.11-.14a4.17,4.17,0,0,1-.36-0.64,5.43,5.43,0,0,0,1.83,2A6.75,6.75,0,0,1,251.28,238.86Zm37.38,0.23v0h0v0h0Zm7.17-45,0,0h0l0,0h0Zm0.07-.07h0a0.58,0.58,0,0,1,0,.06h0V194Zm-45.47,43.15c-0.06-.17-0.11-0.35-0.16-0.53C250.32,236.83,250.38,237,250.44,237.18Zm48.49,8.73-1.17.82,0.76-.54Zm1.63-1.15c-1.05-8.88-7.51-23-35-33.66h0c27.45,10.68,33.9,24.79,35,33.67h0Z"/></g><path class="cls-1" d="M171.25,465.94V465h5.63v1.88h1.88v1.88h1.88v5.63h-1.87v1.88h-1.87v1.88h-5.62v-1.87h-1.87v-1.87H167.5v-5.62h1.88v-1.87h1.88v-0.94Zm3.75,1.88v-0.94h-3.75v7.5h1.88v1.88h3.75v-7.5H175v-0.94Z"/><path class="cls-1" d="M186.25,465.94V465h7.5v1.88h-5.62v1.88h-1.87v1.88h7.5v1.88h1.88v3.75h-1.87v1.88h-9.37v-1.87H182.5v-7.5h1.88v-1.87h1.88v-0.94Zm5.63,8.44V472.5h-5.62v3.75h5.63v-1.87Z"/><path class="cls-1" d="M203.13,465.94V465h5.63v7.5h1.88v1.88h-1.87v3.75H205v-3.75h-7.5v-3.75h1.88v-1.87h1.88v-1.87h1.88v-0.94Zm1.88,4.69v-1.87h-1.87v1.88h-1.87v1.88H205v-1.87Z"/><path class="cls-1" d="M227.5,471.56V465h3.75v5.63h1.88v-1.87H235v-1.87h1.88V465h3.75v1.88h-1.87v1.88h-1.87v1.88H235v1.88h1.88v1.88h1.88v1.88h1.88v1.88H235v-1.87h-1.87v-1.87h-1.87v3.75H227.5v-6.56Z"/><path class="cls-1" d="M246.25,465.94V465h5.63v1.88h1.88v1.88h1.88v9.38h-3.75v-3.75h-5.62v3.75H242.5v-9.37h1.88v-1.87h1.88v-0.94Zm3.75,1.88v-0.94h-1.87v1.88h-1.87v3.75h5.63v-3.75H250v-0.94Z"/><path class="cls-1" d="M257.5,471.56V465h9.38v1.88h1.88v1.88h1.88v5.63h-1.87v1.88h-1.87v1.88H257.5v-6.56Zm7.5-3.75v-0.94h-3.75v9.38H265v-1.87h1.88v-5.62H265v-0.94Z"/><path class="cls-1" d="M276.25,465.94V465h5.63v1.88h1.88v1.88h1.88v9.38h-3.75v-3.75h-5.62v3.75H272.5v-9.37h1.88v-1.87h1.88v-0.94Zm3.75,1.88v-0.94h-1.87v1.88h-1.87v3.75h5.63v-3.75H280v-0.94Z"/><path class="cls-1" d="M287.5,471.56V465h11.25v1.88h1.88v3.75h-1.87v1.88h1.88v3.75h-1.87v1.88H287.5v-6.56Zm9.38-2.81v-1.87h-5.62v3.75h5.63v-1.87Zm0,5.63V472.5h-5.62v3.75h5.63v-1.87Z"/><path class="cls-1" d="M302.5,471.56V465h11.25v1.88h1.88v5.63h-3.75v1.88h1.88v1.88h1.88v1.88H310v-1.87h-1.87v-1.87h-1.87v3.75H302.5v-6.56Zm9.38-2.81v-1.87h-5.62v5.63H310v-1.87h1.88v-1.87Z"/><path class="cls-1" d="M321.25,465.94V465h5.63v1.88h1.88v1.88h1.88v9.38h-3.75v-3.75h-5.62v3.75H317.5v-9.37h1.88v-1.87h1.88v-0.94Zm3.75,1.88v-0.94h-1.87v1.88h-1.87v3.75h5.63v-3.75H325v-0.94Z"/></svg>