<?xml version="1.0" ?><svg id="pkft" viewBox="0 0 500 500" xmlns="http://www.w3.org/2000/svg"><defs><style>.cls-1{fill:#77565d;}.cls-2{fill:#7d5d63;}.cls-3{fill:#d6b112;}.cls-4{fill:#1a1a1a;}.cls-5{fill:#fff;}.cls-6{fill:#f7f7b3;}.cls-7{fill:#ccc;}.cls-8{fill:#b3b3b3;}.cls-9{opacity:0.1;}</style></defs><title/><path class="cls-1" d="M250,184.54c-17.61-2-22.1-24.84-25.33-34.54-0.92-2.75-4-5.28-7.89-7.49-7.07,7-14,28.17-16.1,35.19,0,0,17.32,24,19.32,42.3,0.53,4.86,2.9,9.32,6.07,13.25C234.89,244.15,250,251,250,251V184.54h0Z"/><path class="cls-2" d="M216.54,142.37C206.19,136.62,190,133,190,133c-1.64-7.36,9.4-19.2,13.47-23.27-13.38.72-39.53,7.65-43.47,50.27,0,0,6.69,2.07,14.59,5.09a129.57,129.57,0,0,1,18.23,8.3c3.83,2.25,6.6,4.53,7.18,6.61,0,0,.24-0.86.68-2.3,2.14-7,9-28.23,16.1-35.19Z"/><path class="cls-3" d="M250,80a49.89,49.89,0,0,0-17,3L190,50l18.9,51.54a50,50,0,0,0-4,6.77s-0.57.52-1.47,1.43c-4.07,4.07-15.1,15.9-13.47,23.27,0,0,16.19,3.62,26.54,9.37l0.24,0.13c3.92,2.21,7,4.74,7.89,7.49,3.23,9.7,7.72,32.57,25.33,34.54,0.54,0.06-.57.1,0,0.12V80Z"/><path class="cls-4" d="M245,150.25c0-3.16-2.91-7.59-4.84-10.53l-7-10.71a36.25,36.25,0,0,1-4.2-9l-1-4.13a0.5,0.5,0,0,0-1,.24l1,4.12a32.41,32.41,0,0,0,2.66,6.42c0.54,1,1.11,2,1.67,2.89l7,10.72c0.56,0.85,1.2,1.83,1.83,2.86,1.47,2.42,2.85,5.14,2.86,7.21l2,10.75a0.5,0.5,0,0,0,.49.41h0.09a0.5,0.5,0,0,0,.4-0.58Z"/><path class="cls-4" d="M246.5,167.5a0.5,0.5,0,0,1-.5-0.5v-3a0.5,0.5,0,0,1,1,0v3A0.5,0.5,0,0,1,246.5,167.5Z"/><path class="cls-5" d="M234.84,133.39l-2.49-3.83c-0.56-.86-1.13-1.86-1.67-2.89a1.75,1.75,0,0,0-.23.59l-1.89,8.43a2.54,2.54,0,0,0,1.39,2.76l5.38,2.37a29.3,29.3,0,0,1-.53-5.89C234.81,134.39,234.82,133.88,234.84,133.39Z"/><path class="cls-5" d="M239.32,140.27l-1.18-1.82a17.34,17.34,0,0,1-.6,3.31L240.3,143a1.31,1.31,0,0,0,.85.15C240.52,142.1,239.88,141.12,239.32,140.27Z"/><path class="cls-4" d="M237.5,137.48c-0.07.91-.27,1.56-0.5,1.56s-0.54-1-.54-2.34c0-.27,0-0.53,0-0.77l-1.65-2.54c0,0.49,0,1,0,1.52a29.3,29.3,0,0,0,.53,5.89l2.2,1a17.34,17.34,0,0,0,.6-3.31Z"/><path class="cls-5" d="M237,139c0.23,0,.43-0.66.5-1.56l-1-1.55c0,0.24,0,.5,0,0.77C236.46,138,236.7,139,237,139Z"/><path class="cls-6" d="M209.25,228c-1.51,0-2-1.24-1-2.75a2.54,2.54,0,0,0,.4-1.15l-1-2.23a3.78,3.78,0,0,0-1.11-.62,4.21,4.21,0,0,1-.92-0.49c-0.65,2.08-1.48,3.29-2.58,3.24-6.67-.33-16,3-16,3-2.59.93-2.47,1.9,0.27,2.17l3.71,0.36c2.74,0.27,3.32,2,1.3,3.87l-0.25.23c-2,1.86-1.49,2.87,1.19,2.24l0.21,0c2.68-.63,4.49,1,4,3.52s0.89,3.77,3,2.67,3.91-.27,4,1.83,1.23,3.08,2.54,2.17a66.76,66.76,0,0,0,6-5.13l2.4-2.28-4.78-10.24A2.92,2.92,0,0,0,209.25,228Z"/><path class="cls-3" d="M235.34,163.5l1.14-6.5s-23.14,4.67-26.48,13c-2.62,6.55-1.33,36.36-3.89,48.66l1.5,3.21a2.58,2.58,0,0,1,1,2.23l2,4.25A2.47,2.47,0,0,1,212,230.5a2.67,2.67,0,0,0,2.5,2.63c1.28,0.06,2.33,1.82,2.47,4,3.75-3.51,9.16-8.47,11.54-10.12,3.82-2.67-5.18-46.67-6.18-49.33S235.34,163.5,235.34,163.5Z"/><path class="cls-3" d="M209.25,228a2.92,2.92,0,0,1,1.38.35l-2-4.25a2.54,2.54,0,0,1-.4,1.15C207.29,226.76,207.74,228,209.25,228Z"/><path class="cls-6" d="M207.61,221.87l-1.5-3.21c-0.16.77-.34,1.47-0.53,2.1a4.21,4.21,0,0,0,.92.49A3.78,3.78,0,0,1,207.61,221.87Z"/><path class="cls-6" d="M214.5,233.13a2.67,2.67,0,0,1-2.5-2.62,2.47,2.47,0,0,0-1.37-2.15l4.78,10.24,1.56-1.47C216.83,234.95,215.78,233.19,214.5,233.13Z"/><path class="cls-3" d="M207.61,221.87l1,2.23A2.58,2.58,0,0,0,207.61,221.87Z"/><path class="cls-3" d="M226.07,233.25c-1.34,3.54-1,8.93.28,14.89A9.9,9.9,0,0,0,224,250.4l-36.64,49.66a10,10,0,0,0-.59.91,5.86,5.86,0,0,1,1.12.57l11.41,7.62a9.48,9.48,0,0,1,3.12,4,9.93,9.93,0,0,0,1-1.18l30.16-40.87c3,7.65,5.71,13.27,5.71,13.27L250,288.11V251S234.89,244.15,226.07,233.25Z"/><path class="cls-2" d="M202.43,313.11a9.48,9.48,0,0,0-3.12-4l-11.41-7.62a5.86,5.86,0,0,0-1.12-.57,7.5,7.5,0,0,0-7,.85s-22.93,17.81,1,39.18c1.39,1.24,2.93,2.49,4.65,3.76l13.23-9.36a11.14,11.14,0,0,0,3.51-4.73,9.42,9.42,0,0,0,.75-3.15l0.37-10.58A8.87,8.87,0,0,0,202.43,313.11Z"/><path class="cls-3" d="M179.06,407.54c0.6-.65.94-1,0.94-1Z"/><path class="cls-7" d="M144.75,411.75s-12.5,15-12.25,16.25-1.25-5.75,21.75-5C142.75,423,144.75,411.75,144.75,411.75Z"/><path class="cls-7" d="M164.63,428.15v0.1l0-.1h0Z"/><path class="cls-7" d="M165.06,430a1.69,1.69,0,0,1-.47-1.42c-0.22,2.54-1.26,15.73.66,17.42,0,0,.24-4.5,13.61-9.81C175.49,436.69,168.31,432.86,165.06,430Z"/><path class="cls-7" d="M227.44,401.4h0C227,405,222.62,410.08,220,412c0,0,12-2.62,17,0C237,412,231.5,402.67,227.44,401.4Z"/><path class="cls-3" d="M180,435.75l-1.14.44A2.36,2.36,0,0,0,180,435.75Z"/><path class="cls-3" d="M164.59,428.58l0-.32C164.6,428.37,164.59,428.47,164.59,428.58Z"/><path class="cls-3" d="M225.5,398c-2.75-1-9.69-1.37-11.25-5s2.25-10.5,2.25-13c0-5,6.75-24,4.5-30-2-5.43-15.53-16.38-18.82-19.35a11.14,11.14,0,0,1-3.51,4.73l-13.23,9.36c-1.72-1.26-3.26-2.52-4.65-3.76,3.88,13.68,12.22,51.27-10.79,59-28.25,9.5-25.25,11.75-25.25,11.75s-2,11.25,9.5,11.25c9.75,0,21.47-11.85,24.81-15.46l0.94-1s-0.33.39-.94,1c-3.2,3.58-13.63,15.56-14.43,20.62l0,0.1,0,0.32a1.69,1.69,0,0,0,.47,1.42c3.25,2.86,10.43,6.69,13.8,6.19l1.14-.44c2.5-2,12.5-24,17.25-25.75s19,4.75,22.75,2c2.62-1.92,7-7,7.44-10.6A2.84,2.84,0,0,0,225.5,398Z"/><path class="cls-3" d="M177.83,211.75l15-38.35a129.57,129.57,0,0,0-18.23-8.3L162.31,196.5C166.69,199.25,174.16,204.7,177.83,211.75Z"/><path class="cls-8" d="M106,270a3,3,0,0,0,0,6h11.95l-1-6H106Z"/><polygon class="cls-8" points="137.2 270 138.24 276 141.19 276 140.15 270 137.2 270"/><path class="cls-8" d="M186.39,259.5c-9.87,0-18,4.58-19.19,10.5h-6.75l1,6h7c2.87,4.4,9.81,7.5,17.93,7.5,10.69,0,19.35-5.37,19.35-12S197.08,259.5,186.39,259.5Z"/><path class="cls-2" d="M177.83,211.75c-3.67-7.05-11.14-12.5-15.51-15.25l-2-1.28a29.16,29.16,0,0,0-7-1c-3.09-.19-10.76,8.24-13.59,13l-14.57,24.28c-2.83,4.72-2.69,12.35.31,17l0,0a10,10,0,0,1,9.42,8.27l0.3,1.74c1,0.82,2.17,1.65,3.38,2.47l-0.14-.79a10,10,0,0,1,8.14-11.56h0a10,10,0,0,1,11.56,8.14l2.28,13.15,0.82,0.16c1.26,0.22,8-22,10.5-23.66S180,234.75,180,220A17.82,17.82,0,0,0,177.83,211.75Z"/><path class="cls-3" d="M125.47,248.41a9.94,9.94,0,0,0-2.14.13h0a10,10,0,0,0-8.14,11.56L116.9,270l1,6,0.66,3.81a10,10,0,0,0,19.71-3.42l-0.07-.39-1-6-2-11.57A47.76,47.76,0,0,1,125.47,248.41Z"/><path class="cls-3" d="M125.47,248.41a47.76,47.76,0,0,0,9.72,10l-0.3-1.74A10,10,0,0,0,125.47,248.41Z"/><path class="cls-3" d="M161.56,276.39l-0.07-.39-1-6,0-.16-2.28-13.15a10,10,0,0,0-11.56-8.14h0a10,10,0,0,0-8.14,11.56l0.14,0.79,1.58,9.1,1,6,0.66,3.81A10,10,0,0,0,161.56,276.39Z"/><path class="cls-1" d="M250.08,184.54c17.61-2,22.14-24.84,25.37-34.54,0.92-2.75,4-5.28,7.91-7.49,7.07,7,14,28.17,16.11,35.19,0,0-17.31,24-19.31,42.3-0.53,4.86-3,9.32-6.15,13.25-8.81,10.9-24,17.75-24,17.75V184.54h0.08Z"/><path class="cls-2" d="M283.62,142.37C294,136.62,310.15,133,310.15,133c1.64-7.36-9.4-19.2-13.47-23.27,13.38,0.72,39.53,7.65,43.47,50.27,0,0-6.69,2.07-14.59,5.09a129.57,129.57,0,0,0-18.23,8.3c-3.83,2.25-6.6,4.53-7.18,6.61,0,0-.24-0.86-0.68-2.3-2.14-7-9-28.23-16.1-35.19Z"/><path class="cls-3" d="M250.15,80a49.89,49.89,0,0,1,17,3l43-33-18.9,51.54a50,50,0,0,1,4,6.77s0.57,0.52,1.47,1.43c4.07,4.07,15.1,15.9,13.47,23.27,0,0-16.19,3.62-26.54,9.37l-0.24.13c-3.92,2.21-7,4.74-7.89,7.49-3.23,9.7-7.72,32.57-25.33,34.54-0.54.06,0.57,0.1,0,.12V80Z"/><path class="cls-4" d="M255.15,150.25c0-3.16,2.91-7.59,4.84-10.53L267,129a36.25,36.25,0,0,0,4.2-9l1-4.13a0.5,0.5,0,0,1,1,.24l-1,4.12a32.41,32.41,0,0,1-2.66,6.42c-0.54,1-1.11,2-1.67,2.89l-7,10.72c-0.56.85-1.2,1.83-1.83,2.86-1.47,2.42-2.85,5.14-2.86,7.21l-2,10.75a0.5,0.5,0,0,1-.49.41h-0.09a0.5,0.5,0,0,1-.4-0.58Z"/><path class="cls-4" d="M253.5,167.5a0.5,0.5,0,0,0,.5-0.5v-3a0.5,0.5,0,0,0-1,0v3A0.5,0.5,0,0,0,253.5,167.5Z"/><path class="cls-5" d="M265.31,133.39l2.49-3.83c0.56-.86,1.13-1.86,1.67-2.89a1.75,1.75,0,0,1,.23.59l1.89,8.43a2.54,2.54,0,0,1-1.39,2.76l-5.38,2.37a29.3,29.3,0,0,0,.53-5.89C265.34,134.39,265.33,133.88,265.31,133.39Z"/><path class="cls-5" d="M260.83,140.27l1.18-1.82a17.34,17.34,0,0,0,.6,3.31L259.85,143a1.31,1.31,0,0,1-.85.15C259.63,142.1,260.27,141.12,260.83,140.27Z"/><path class="cls-4" d="M262.65,137.48c0.07,0.91.27,1.56,0.5,1.56s0.54-1,.54-2.34c0-.27,0-0.53,0-0.77l1.65-2.54c0,0.49,0,1,0,1.52a29.3,29.3,0,0,1-.53,5.89l-2.2,1a17.34,17.34,0,0,1-.6-3.31Z"/><path class="cls-5" d="M263.15,139c-0.23,0-.43-0.66-0.5-1.56l1-1.55c0,0.24,0,.5,0,0.77C263.69,138,263.45,139,263.15,139Z"/><path class="cls-6" d="M290.9,228c1.51,0,2-1.24,1-2.75a2.54,2.54,0,0,1-.4-1.15l1-2.23a3.78,3.78,0,0,1,1.11-.62,4.21,4.21,0,0,0,.92-0.49c0.65,2.08,1.48,3.29,2.58,3.24,6.67-.33,16,3,16,3,2.59,0.93,2.47,1.9-.27,2.17l-3.71.36c-2.74.27-3.32,2-1.3,3.87l0.25,0.23c2,1.86,1.49,2.87-1.19,2.24l-0.21,0c-2.68-.63-4.49,1-4,3.52s-0.89,3.77-3,2.67-3.91-.27-4,1.83-1.23,3.08-2.54,2.17a66.76,66.76,0,0,1-6-5.13l-2.4-2.28,4.78-10.24A2.92,2.92,0,0,1,290.9,228Z"/><path class="cls-3" d="M264.82,163.5l-1.14-6.5s23.14,4.67,26.48,13c2.62,6.55,1.33,36.36,3.89,48.66l-1.5,3.21a2.58,2.58,0,0,0-1,2.23l-2,4.25a2.47,2.47,0,0,0-1.37,2.15,2.67,2.67,0,0,1-2.5,2.63c-1.28.06-2.33,1.82-2.47,4-3.75-3.51-9.16-8.47-11.54-10.12-3.82-2.67,5.18-46.67,6.18-49.33S264.82,163.5,264.82,163.5Z"/><path class="cls-3" d="M290.9,228a2.92,2.92,0,0,0-1.38.35l2-4.25a2.54,2.54,0,0,0,.4,1.15C292.87,226.76,292.42,228,290.9,228Z"/><path class="cls-6" d="M292.55,221.87l1.5-3.21c0.16,0.77.34,1.47,0.53,2.1a4.21,4.21,0,0,1-.92.49A3.78,3.78,0,0,0,292.55,221.87Z"/><path class="cls-6" d="M285.65,233.13a2.67,2.67,0,0,0,2.5-2.62,2.47,2.47,0,0,1,1.37-2.15l-4.78,10.24-1.56-1.47C283.33,234.95,284.38,233.19,285.65,233.13Z"/><path class="cls-3" d="M292.55,221.87l-1,2.23A2.58,2.58,0,0,1,292.55,221.87Z"/><path class="cls-3" d="M274,233.25c1.34,3.54,1,8.93-.24,14.89a10,10,0,0,1,2.35,2.25l36.65,49.66a10,10,0,0,1,.6.91,5.84,5.84,0,0,0-1.12.57l-11.41,7.62a9.47,9.47,0,0,0-3.12,4,9.92,9.92,0,0,1-1-1.18l-30.16-40.87c-3,7.65-5.79,13.27-5.79,13.27L250,288.11V251S265.19,244.15,274,233.25Z"/><path class="cls-2" d="M297.72,313.11a9.48,9.48,0,0,1,3.12-4l11.41-7.62a5.86,5.86,0,0,1,1.12-.57,7.5,7.5,0,0,1,7,.85s22.93,17.81-1,39.18c-1.39,1.24-2.93,2.49-4.65,3.76l-13.23-9.36a11.14,11.14,0,0,1-3.51-4.73,9.42,9.42,0,0,1-.75-3.15l-0.37-10.58A8.87,8.87,0,0,1,297.72,313.11Z"/><path class="cls-3" d="M321.09,407.54c-0.6-.65-0.94-1-0.94-1Z"/><path class="cls-7" d="M355.4,411.75s12.5,15,12.25,16.25,1.25-5.75-21.75-5C357.4,423,355.4,411.75,355.4,411.75Z"/><path class="cls-7" d="M335.53,428.15v0.1l0-.1h0Z"/><path class="cls-7" d="M335.09,430a1.69,1.69,0,0,0,.47-1.42c0.22,2.54,1.26,15.73-.66,17.42,0,0-.24-4.5-13.61-9.81C324.66,436.69,331.84,432.86,335.09,430Z"/><path class="cls-7" d="M272.71,401.4h0c0.49,3.58,4.82,8.68,7.44,10.6,0,0-12-2.62-17,0C263.15,412,268.65,402.67,272.71,401.4Z"/><path class="cls-3" d="M320.15,435.75l1.14,0.44A2.36,2.36,0,0,1,320.15,435.75Z"/><path class="cls-3" d="M335.57,428.58l0-.32C335.55,428.37,335.56,428.47,335.57,428.58Z"/><path class="cls-3" d="M274.65,398c2.75-1,9.69-1.37,11.25-5s-2.25-10.5-2.25-13c0-5-6.75-24-4.5-30,2-5.43,15.53-16.38,18.82-19.35a11.14,11.14,0,0,0,3.51,4.73l13.23,9.36c1.72-1.26,3.26-2.52,4.65-3.76-3.88,13.68-12.22,51.27,10.79,59,28.25,9.5,25.25,11.75,25.25,11.75s2,11.25-9.5,11.25c-9.75,0-21.47-11.85-24.81-15.46l-0.94-1s0.33,0.39.94,1c3.2,3.58,13.63,15.56,14.43,20.62l0,0.1,0,0.32a1.69,1.69,0,0,1-.47,1.42c-3.25,2.86-10.43,6.69-13.8,6.19l-1.14-.44c-2.5-2-12.5-24-17.25-25.75s-19,4.75-22.75,2c-2.62-1.92-7-7-7.44-10.6A2.84,2.84,0,0,1,274.65,398Z"/><path class="cls-3" d="M322.32,211.75l-15-38.35a129.57,129.57,0,0,1,18.23-8.3l12.28,31.41C333.46,199.25,326,204.7,322.32,211.75Z"/><path class="cls-8" d="M394.15,270a3,3,0,1,1,0,6H382.21l1-6h10.9Z"/><polygon class="cls-8" points="362.95 270 361.91 276 358.96 276 360 270 362.95 270"/><path class="cls-8" d="M313.76,259.5c9.87,0,18,4.58,19.19,10.5h6.75l-1,6h-7c-2.87,4.4-9.81,7.5-17.93,7.5-10.69,0-19.35-5.37-19.35-12S303.07,259.5,313.76,259.5Z"/><path class="cls-2" d="M322.32,211.75c3.67-7.05,11.14-12.5,15.51-15.25l2-1.28a29.16,29.16,0,0,1,7-1c3.09-.19,10.76,8.24,13.59,13L375,231.43c2.83,4.72,2.69,12.35-.31,17l0,0a10,10,0,0,0-9.42,8.27l-0.3,1.74c-1,.82-2.17,1.65-3.38,2.47l0.14-.79a10,10,0,0,0-8.14-11.56h0A10,10,0,0,0,342,256.69l-2.28,13.15-0.82.16c-1.26.22-8-22-10.5-23.66s-8.25-11.59-8.25-26.34A17.82,17.82,0,0,1,322.32,211.75Z"/><path class="cls-3" d="M374.68,248.41a9.94,9.94,0,0,1,2.14.13h0A10,10,0,0,1,385,260.11L383.25,270l-1,6-0.66,3.81a10,10,0,0,1-19.71-3.42l0.07-.39,1-6,2-11.57A47.76,47.76,0,0,0,374.68,248.41Z"/><path class="cls-3" d="M374.68,248.41a47.76,47.76,0,0,1-9.72,10l0.3-1.74A10,10,0,0,1,374.68,248.41Z"/><path class="cls-3" d="M338.59,276.39l0.07-.39,1-6,0-.16L342,256.69a10,10,0,0,1,11.56-8.14h0a10,10,0,0,1,8.14,11.56l-0.14.79L360,270l-1,6-0.66,3.81A10,10,0,0,1,338.59,276.39Z"/><g class="cls-9"><path class="cls-4" d="M330.15,400c-23-7.74-14.67-45.33-10.79-59,23.92-21.37,1-39.18,1-39.18a7.5,7.5,0,0,0-7-.85,5.86,5.86,0,0,0-1.12.57l-11.41,7.62a9.48,9.48,0,0,0-3.12,4,8.87,8.87,0,0,0-.86,3.82l0.37,10.58a9.42,9.42,0,0,0,.75,3.15c-3.29,3-16.79,13.92-18.82,19.35-2.25,6,4.5,25,4.5,30,0,2.5,3.81,9.38,2.25,13s-8.5,4-11.25,5a2.84,2.84,0,0,0-1.94,3.4h0c-4.06,1.27-9.56,10.6-9.56,10.6,5-2.62,17,0,17,0,3.75,2.75,18-3.75,22.75-2s14.75,23.75,17.25,25.75a2.36,2.36,0,0,0,1.14.44C334.66,441.5,334.9,446,334.9,446c1.92-1.69.88-14.88,0.66-17.42l0-.32v-0.1h0c-0.8-5.05-11.23-17-14.43-20.62,3.35,3.61,15.07,15.46,24.81,15.46,23-.75,21.5,6.25,21.75,5s-12.25-16.25-12.25-16.25S358.4,409.5,330.15,400Z"/><path class="cls-4" d="M394.15,270h-10.9l1.72-9.89a10,10,0,0,0-8.14-11.56h0a9.94,9.94,0,0,0-2.14-.13l0,0c3-4.61,3.14-12.24.31-17l-14.57-24.28c-2.83-4.72-10.5-13.14-13.59-13a29.16,29.16,0,0,0-7,1l-2,1.28-12.28-31.41c7.91-3,14.59-5.09,14.59-5.09-3.94-42.61-30.09-49.55-43.47-50.27-0.91-.9-1.47-1.43-1.47-1.43a50,50,0,0,0-4-6.77L310.15,50l-43,33a49.89,49.89,0,0,0-17-3V184.53H250V288.11l10.73-3.78s2.76-5.62,5.79-13.27l30.16,40.87a9.92,9.92,0,0,0,1,1.18,9.47,9.47,0,0,1,3.12-4l11.41-7.62a5.84,5.84,0,0,1,1.12-.57,10,10,0,0,0-.6-0.91L276.11,250.4a10,10,0,0,0-2.35-2.25c1.25-6,1.58-11.36.24-14.89-8.26,10.22-22.13,16.88-23.83,17.67,1.7-.79,15.57-7.45,23.83-17.67,0.7-.87,1.36-1.77,2-2.69,2.36,2.07,5,4.55,7.2,6.57l1.56,1.47,2.4,2.28a66.76,66.76,0,0,0,6,5.13c1.3,0.92,2.44-.06,2.54-2.17s1.89-2.93,4-1.83,3.46-.1,3-2.67,1.36-4.15,4-3.52l0.21,0c2.68,0.63,3.21-.38,1.19-2.24l-0.25-.23c-2-1.86-1.44-3.6,1.3-3.87l3.71-.36c2.74-.27,2.86-1.24.27-2.17,0,0-9.29-3.32-16-3-1.1.05-1.93-1.15-2.58-3.24-0.19-.62-0.37-1.33-0.53-2.1-1.4-6.74-1.65-18.74-2-29.28,4-6.9,7.43-11.67,7.44-11.68-2.14-7-9-28.21-16.1-35.19h0c7.07,7,14,28.17,16.1,35.19,0.44,1.44.68,2.3,0.68,2.3,0.58-2.07,3.35-4.35,7.18-6.61l15,38.35a17.82,17.82,0,0,0-2.17,8.25c0,14.75,5.75,24.69,8.25,26.34s9.24,23.87,10.5,23.66l0.82-.16,0,0.16h-6.75c-1.19-5.92-9.32-10.5-19.19-10.5-10.69,0-19.35,5.37-19.35,12s8.66,12,19.35,12c8.12,0,15.06-3.1,17.93-7.5h7l-0.07.39a10,10,0,0,0,19.71,3.42L359,276h3l-0.07.39a10,10,0,0,0,19.71,3.42l0.66-3.81h11.95A3,3,0,0,0,394.15,270ZM363,270h-3l1.58-9.1c1.21-.82,2.34-1.65,3.38-2.47Z"/></g><path class="cls-3" d="M163.75,465.94V465h5.63v1.88h1.88v1.88h1.88v5.63h-1.87v1.88h-1.87v1.88h-5.62v-1.87h-1.87v-1.87H160v-5.62h1.88v-1.87h1.88v-0.94Zm3.75,1.88v-0.94h-3.75v7.5h1.88v1.88h3.75v-7.5H167.5v-0.94Z"/><path class="cls-3" d="M178.75,465.94V465h7.5v1.88h-5.62v1.88h-1.87v1.88h7.5v1.88h1.88v3.75h-1.87v1.88h-9.37v-1.87H175v-7.5h1.88v-1.87h1.88v-0.94Zm5.63,8.44V472.5h-5.62v3.75h5.63v-1.87Z"/><path class="cls-3" d="M190,467.81V465h11.25v1.88h-7.5v1.88h7.5v1.88h1.88v5.63h-1.87v1.88h-9.37v-1.87H190v-1.87h3.75v1.88h5.63v-5.62H190v-2.81Z"/><path class="cls-3" d="M223.75,465.94V465h5.63v1.88h1.88v1.88h1.88v9.38h-3.75v-3.75h-5.62v3.75H220v-9.37h1.88v-1.87h1.88v-0.94Zm3.75,1.88v-0.94h-1.87v1.88h-1.87v3.75h5.63v-3.75H227.5v-0.94Z"/><path class="cls-3" d="M236.88,471.56V465h3.75v11.25h7.5v1.88H236.88v-6.56Z"/><path class="cls-3" d="M253.75,465.94V465h5.63v1.88h1.88v1.88h1.88v9.38h-3.75v-3.75h-5.62v3.75H250v-9.37h1.88v-1.87h1.88v-0.94Zm3.75,1.88v-0.94h-1.87v1.88h-1.87v3.75h5.63v-3.75H257.5v-0.94Z"/><path class="cls-3" d="M265,471.56V465h3.75v5.63h1.88v-1.87h1.88v-1.87h1.88V465h3.75v1.88h-1.87v1.88h-1.87v1.88H272.5v1.88h1.88v1.88h1.88v1.88h1.88v1.88H272.5v-1.87h-1.87v-1.87h-1.87v3.75H265v-6.56Z"/><path class="cls-3" d="M283.75,465.94V465h5.63v1.88h1.88v1.88h1.88v9.38h-3.75v-3.75h-5.62v3.75H280v-9.37h1.88v-1.87h1.88v-0.94Zm3.75,1.88v-0.94h-1.87v1.88h-1.87v3.75h5.63v-3.75H287.5v-0.94Z"/><path class="cls-3" d="M295,465.94V465h13.13v3.75h-1.87v1.88h-1.87v1.88H302.5v1.88h-1.87v1.88h7.5v1.88H295v-3.75h1.88V472.5h1.88v-1.87h1.88v-1.87h1.88v-1.87H295v-0.94Z"/><path class="cls-3" d="M313.75,465.94V465h5.63v1.88h1.88v1.88h1.88v9.38h-3.75v-3.75h-5.62v3.75H310v-9.37h1.88v-1.87h1.88v-0.94Zm3.75,1.88v-0.94h-1.87v1.88h-1.87v3.75h5.63v-3.75H317.5v-0.94Z"/><path class="cls-3" d="M325,471.56V465h3.75v1.88h1.88v1.88h1.88v-1.87h1.88V465h3.75v13.13h-3.75V472.5H332.5v1.88h-1.87V472.5h-1.87v5.63H325v-6.56Z"/></svg>