<?xml version="1.0" ?><svg id="pkft" viewBox="0 0 500 500" xmlns="http://www.w3.org/2000/svg"><defs><style>.cls-1{fill:none;}.cls-2{fill:#94bbc7;}.cls-3{fill:#bea78c;}.cls-4{fill:#fff;}.cls-5{fill:#d3545b;}.cls-6,.cls-8{fill:#1a1a1a;}.cls-7{fill:#8ab2bc;}.cls-8{opacity:0.1;}</style></defs><title/><path class="cls-1" d="M232,173s0.9-15.3-1.09-23.61c-0.67-2.82-1.68-4.84-3.17-5.17-5.87-1.32-16.18,24.19-16.18,24.19-0.54,1.34.45,2.77,2.2,3.16l1.92,0.43,13,2.92C230.37,175.26,231.87,174.4,232,173Z"/><path class="cls-1" d="M242.4,193a1,1,0,0,0,1.2-1.6l-3-2.25a1,1,0,1,0-1.2,1.6Z"/><path class="cls-2" d="M219.53,198.87a1,1,0,0,1,1.35.42s2,3.7,5.65,4.63c2.27,0.58,4.77,0,7.41-1.75a15.83,15.83,0,0,1,16-1.35V130l-3.5-7.5-1-12.29a49.94,49.94,0,0,0-5,.7L243,123.25v5.5l-5.07-3.5-5.19-12.19A50,50,0,0,0,200,160c0,10.64,2.34,31.05,0,32.47-3.42,2.08-5.33,4.41-5.33,6.86,0,5.76,10.54,12.8,26.35,17A114.13,114.13,0,0,0,250,220V203c-2.35-1.36-8.13-3.69-15,.8a12.36,12.36,0,0,1-6.76,2.3,9.05,9.05,0,0,1-2.27-.29c-4.51-1.16-6.81-5.45-6.91-5.63A1,1,0,0,1,219.53,198.87Zm19.67-9.47a1,1,0,0,1,1.4-.2l3,2.25a1,1,0,1,1-1.2,1.6l-3-2.25A1,1,0,0,1,239.2,189.4Zm-23.55-17.45-1.92-.43c-1.75-.4-2.75-1.82-2.2-3.16,0,0,10.3-25.51,16.18-24.19,1.49,0.33,2.49,2.35,3.17,5.17,2,8.31,1.09,23.61,1.09,23.61-0.09,1.45-1.59,2.31-3.34,1.92Z"/><path class="cls-3" d="M244.75,100l0.79,10.21c1.47-.13,3-0.21,4.46-0.21V100h-5.25Z"/><path class="cls-3" d="M246.5,122.5L250,130V110c-1.5,0-3,.08-4.46.21Z"/><path class="cls-3" d="M238.62,101.25l-9,4.5,3.12,7.31a49.64,49.64,0,0,1,7.8-2.16Z"/><path class="cls-3" d="M243,128.75v-5.5l-2.46-12.34a49.64,49.64,0,0,0-7.8,2.16l5.19,12.19Z"/><path class="cls-4" d="M230.87,149.34c-0.67-2.82-1.68-4.84-3.17-5.17-5.87-1.32-16.18,24.19-16.18,24.19-0.54,1.34.45,2.77,2.2,3.16l1.92,0.43C217.11,159.69,223.29,150.31,230.87,149.34Z"/><path class="cls-5" d="M215.65,171.95l13,2.92c1.75,0.39,3.26-.47,3.34-1.92,0,0,.9-15.3-1.09-23.61C223.29,150.31,217.11,159.69,215.65,171.95ZM229.58,163a1.65,1.65,0,0,1-.85-0.24,16.49,16.49,0,0,1-.58,2.57c-1,3.34-2.84,5.75-4,5.38s-1.31-3.37-.27-6.72,2.84-5.75,4-5.38a1.56,1.56,0,0,1,.85,1.29A1.66,1.66,0,1,1,229.58,163Z"/><path class="cls-6" d="M227.92,161.33a1.66,1.66,0,0,1,.81-1.43,1.56,1.56,0,0,0-.85-1.29c-1.19-.37-3,2-4,5.38s-0.91,6.35.27,6.72,3-2,4-5.38a16.49,16.49,0,0,0,.58-2.57A1.66,1.66,0,0,1,227.92,161.33Z"/><path class="cls-4" d="M229.58,159.67a1.65,1.65,0,0,0-.85.24,8.53,8.53,0,0,1,0,2.85,1.65,1.65,0,0,0,.85.24A1.67,1.67,0,0,0,229.58,159.67Z"/><path class="cls-4" d="M228.73,159.91a1.65,1.65,0,0,0,0,2.85A8.53,8.53,0,0,0,228.73,159.91Z"/><path class="cls-6" d="M234,202.16c-2.64,1.74-5.14,2.33-7.41,1.75-3.65-.93-5.63-4.59-5.65-4.63a1,1,0,0,0-1.77.93c0.1,0.18,2.4,4.47,6.91,5.63a9.05,9.05,0,0,0,2.27.29,12.36,12.36,0,0,0,6.76-2.3c6.82-4.49,12.6-2.16,15-.8v-2.22A15.83,15.83,0,0,0,234,202.16Z"/><path class="cls-6" d="M240.6,189.2a1,1,0,1,0-1.2,1.6l3,2.25a1,1,0,0,0,1.2-1.6Z"/><path class="cls-7" d="M221,216.33l-0.48,1.44c-6.57-2-17,2.21-25.71,10.91l-0.13.14a69.48,69.48,0,0,0-6.9-8c-6.56-6.56-13.75-11.26-20.13-13.61,0.15-.38.3-0.77,0.43-1.16a4.46,4.46,0,0,0,1.42.24c3.59,0,6.5-4.37,6.5-9.75s-2.91-9.75-6.5-9.75a5.28,5.28,0,0,0-4,2A20,20,0,1,0,149,220c0.28,0,.55,0,0.82,0,1.63,7.24,6.85,16.08,14.78,24,8.44,8.44,17.93,15.38,25.4,16.62a10.16,10.16,0,0,0,3.38,0c5.11-.09,11.47-2.73,17.48-7.44-6.75,30-12.09,70.8,1.49,92.62a9.89,9.89,0,0,0-1,3.21l-4.61,39.42c-0.83.18-1.67,0.39-2.57,0.67-10.55,3.28-22.28,12.56-20.31,18.88s16.89,7.31,27.44,4c9.5-3,14.94-18.07,15.27-20.95l3.68-31.5c5.49,1.59,12,2,19.71.94V220A114.13,114.13,0,0,1,221,216.33Z"/><path class="cls-1" d="M268,173s-0.9-15.3,1.09-23.61c0.67-2.82,1.68-4.84,3.17-5.17,5.87-1.32,16.18,24.19,16.18,24.19,0.54,1.34-.45,2.77-2.2,3.16l-1.92.43-13,2.92C269.63,175.26,268.13,174.4,268,173Z"/><path class="cls-1" d="M257.6,193a1,1,0,1,1-1.2-1.6l3-2.25a1,1,0,0,1,1.2,1.6Z"/><path class="cls-2" d="M280.88,200.22c-0.1.18-2.4,4.47-6.91,5.63a9.05,9.05,0,0,1-2.27.29,12.36,12.36,0,0,1-6.76-2.3c-6.82-4.49-13-2.16-15-.8v17a112,112,0,0,0,29-3.67c15.81-4.2,26.35-11.23,26.35-17,0-2.46-1.91-4.78-5.33-6.86-2.34-1.42,0-21.84,0-32.47a50,50,0,0,0-32.74-46.94l-5.19,12.19-5.07,3.5v-5.5l2.46-12.34a49.94,49.94,0,0,0-5-.7l-1,12.29L250,130v70.82a15.82,15.82,0,0,1,16,1.35c2.64,1.74,5.14,2.33,7.41,1.75,3.65-.93,5.63-4.59,5.65-4.63A1,1,0,1,1,280.88,200.22ZM260.6,190.8l-3,2.25a1,1,0,1,1-1.2-1.6l3-2.25A1,1,0,0,1,260.6,190.8Zm10.79-15.93c-1.75.39-3.26-.47-3.34-1.92,0,0-.9-15.3,1.09-23.61,0.67-2.82,1.68-4.84,3.17-5.17,5.87-1.32,16.18,24.19,16.18,24.19,0.54,1.34-.45,2.77-2.2,3.16l-1.92.43Z"/><path class="cls-3" d="M255.25,100l-0.79,10.21A42.77,42.77,0,0,0,250,110V100h5.25Z"/><path class="cls-3" d="M253.5,122.5L250,130V110a42.77,42.77,0,0,1,4.46.21Z"/><path class="cls-3" d="M261.38,101.25l9,4.5-3.12,7.31a49.64,49.64,0,0,0-7.8-2.16Z"/><path class="cls-3" d="M257,128.75v-5.5l2.46-12.34a49.64,49.64,0,0,1,7.8,2.16l-5.19,12.19Z"/><path class="cls-4" d="M269.13,149.34c0.67-2.82,1.68-4.84,3.17-5.17,5.87-1.32,16.18,24.19,16.18,24.19,0.54,1.34-.45,2.77-2.2,3.16l-1.92.43C282.89,159.69,276.71,150.31,269.13,149.34Z"/><path class="cls-5" d="M269.13,149.34C267.14,157.65,268,173,268,173c0.09,1.45,1.59,2.31,3.34,1.92l13-2.92C282.89,159.69,276.71,150.31,269.13,149.34Zm-0.38,12a1.66,1.66,0,0,1,2.52-1.43,1.56,1.56,0,0,1,.85-1.29c1.19-.37,3,2,4,5.38s0.91,6.35-.27,6.72-3-2-4-5.38a16.49,16.49,0,0,1-.58-2.57,1.65,1.65,0,0,1-.85.24A1.67,1.67,0,0,1,268.75,161.33Z"/><path class="cls-6" d="M272.08,161.33a1.66,1.66,0,0,0-.81-1.43,1.56,1.56,0,0,1,.85-1.29c1.19-.37,3,2,4,5.38s0.91,6.35-.27,6.72-3-2-4-5.38a16.49,16.49,0,0,1-.58-2.57A1.66,1.66,0,0,0,272.08,161.33Z"/><path class="cls-4" d="M270.42,159.67a1.65,1.65,0,0,1,.85.24,8.53,8.53,0,0,0,0,2.85,1.65,1.65,0,0,1-.85.24A1.67,1.67,0,0,1,270.42,159.67Z"/><path class="cls-4" d="M271.27,159.91a1.65,1.65,0,0,1,0,2.85A8.53,8.53,0,0,1,271.27,159.91Z"/><path class="cls-6" d="M266,202.16c2.64,1.74,5.14,2.33,7.41,1.75,3.65-.93,5.63-4.59,5.65-4.63a1,1,0,1,1,1.77.93c-0.1.18-2.4,4.47-6.91,5.63a9.05,9.05,0,0,1-2.27.29,12.36,12.36,0,0,1-6.76-2.3c-6.82-4.49-13-2.16-15-.8v-2.22A15.82,15.82,0,0,1,266,202.16Z"/><path class="cls-6" d="M259.4,189.2a1,1,0,0,1,1.2,1.6l-3,2.25a1,1,0,1,1-1.2-1.6Z"/><path class="cls-7" d="M279,216.33l0.48,1.44c6.57-2,17,2.21,25.71,10.91l0.13,0.14a69.48,69.48,0,0,1,6.9-8c6.56-6.56,13.75-11.26,20.13-13.61-0.15-.38-0.3-0.77-0.43-1.16a4.46,4.46,0,0,1-1.42.24c-3.59,0-6.5-4.37-6.5-9.75s2.91-9.75,6.5-9.75a5.28,5.28,0,0,1,4,2A20,20,0,1,1,351,220c-0.28,0-.55,0-0.82,0-1.63,7.24-6.85,16.08-14.78,24-8.44,8.44-17.93,15.38-25.4,16.62a10.16,10.16,0,0,1-3.38,0c-5.11-.09-11.47-2.73-17.48-7.44,6.75,30,12.09,70.8-1.49,92.62a9.89,9.89,0,0,1,1,3.21l4.61,39.42c0.83,0.18,1.67.39,2.57,0.67,10.55,3.28,22.28,12.56,20.31,18.88s-16.89,7.31-27.44,4c-9.5-3-14.94-18.07-15.27-20.95l-3.68-31.5c-5.49,1.59-12,2-19.71.94V220A114.13,114.13,0,0,0,279,216.33Z"/><path class="cls-8" d="M351,180a20,20,0,0,0-16.55,8.77,5.28,5.28,0,0,0-4-2c-3.59,0-6.5,4.37-6.5,9.75s2.91,9.75,6.5,9.75a4.46,4.46,0,0,0,1.42-.24c0.12,0.4.28,0.78,0.43,1.16-6.39,2.35-13.57,7.06-20.13,13.61a69.48,69.48,0,0,0-6.9,8l-0.13-.14c-8.69-8.69-19.14-12.88-25.71-10.91L279,216.33c15.81-4.2,26.35-11.23,26.35-17,0-2.46-1.91-4.78-5.33-6.86-2.34-1.42,0-21.84,0-32.47a50,50,0,0,0-32.74-46.94l3.12-7.31-9-4.5-1.92,9.66a49.94,49.94,0,0,0-5-.7L255.25,100H250V360.47c7.71,1.05,14.22.65,19.71-.94l3.68,31.5c0.34,2.88,5.77,18,15.27,20.95,10.55,3.28,25.47,2.3,27.44-4s-9.76-15.6-20.31-18.88c-0.9-.28-1.75-0.49-2.57-0.67L288.61,349a9.89,9.89,0,0,0-1-3.21c13.57-21.82,8.24-62.58,1.49-92.62,6,4.71,12.37,7.35,17.48,7.44a10.16,10.16,0,0,0,3.38,0c7.47-1.23,17-8.18,25.4-16.62,7.92-7.92,13.15-16.77,14.78-24,0.28,0,.55,0,0.82,0A20,20,0,0,0,351,180Z"/><path class="cls-2" d="M178.75,465.94V465h5.63v1.88h1.88v1.88h1.88v5.63h-1.87v1.88h-1.87v1.88h-5.62v-1.87h-1.87v-1.87H175v-5.62h1.88v-1.87h1.88v-0.94Zm3.75,1.88v-0.94h-3.75v7.5h1.88v1.88h3.75v-7.5H182.5v-0.94Z"/><path class="cls-2" d="M193.75,465.94V465h7.5v1.88h-5.62v1.88h-1.87v1.88h7.5v1.88h1.88v3.75h-1.87v1.88h-9.37v-1.87H190v-7.5h1.88v-1.87h1.88v-0.94Zm5.63,8.44V472.5h-5.62v3.75h5.63v-1.87Z"/><path class="cls-2" d="M208.75,465.94V465h7.5v1.88h-5.62v1.88h-1.87v1.88h7.5v1.88h1.88v3.75h-1.87v1.88h-9.37v-1.87H205v-7.5h1.88v-1.87h1.88v-0.94Zm5.63,8.44V472.5h-5.62v3.75h5.63v-1.87Z"/><path class="cls-2" d="M235,471.56V465h3.75v1.88h1.88v1.88h1.88v-1.87h1.88V465h3.75v13.13h-3.75V472.5H242.5v1.88h-1.87V472.5h-1.87v5.63H235v-6.56Z"/><path class="cls-2" d="M253.75,465.94V465h5.63v1.88h1.88v1.88h1.88v9.38h-3.75v-3.75h-5.62v3.75H250v-9.37h1.88v-1.87h1.88v-0.94Zm3.75,1.88v-0.94h-1.87v1.88h-1.87v3.75h5.63v-3.75H257.5v-0.94Z"/><path class="cls-2" d="M268.75,465.94V465h7.5v1.88h1.88v1.88h-3.75v-1.87h-3.75v1.88h-1.87v5.63h1.88v1.88h3.75v-1.87h3.75v1.88h-1.87v1.88h-7.5v-1.87h-1.87v-1.87H265v-5.62h1.88v-1.87h1.88v-0.94Z"/><path class="cls-2" d="M280,471.56V465h3.75v5.63h5.63V465h3.75v13.13h-3.75V472.5h-5.62v5.63H280v-6.56Z"/><path class="cls-2" d="M296.88,465.94V465h9.38v1.88h1.88v9.38h-1.87v1.88h-9.37v-1.87H295v-9.37h1.88v-0.94Zm7.5,5.63v-4.69h-5.62v9.38h5.63v-4.69Z"/><path class="cls-2" d="M310,471.56V465h11.25v1.88h1.88v5.63h-1.87v1.88h-7.5v3.75H310v-6.56Zm9.38-1.87v-2.81h-5.62v5.63h5.63v-2.81Z"/></svg>