<?xml version="1.0" ?><svg id="pkft" viewBox="0 0 500 500" xmlns="http://www.w3.org/2000/svg"><defs><style>.cls-1{fill:#4d4d4d;}.cls-2{fill:none;}.cls-3{fill:#919bb5;}.cls-4{fill:#8e2923;}.cls-5{fill:#fff;}.cls-6{fill:#bf496a;}.cls-7{fill:#1a1a1a;}.cls-8{fill:#aaa59a;}.cls-9{fill:#8791aa;}.cls-10{fill:#e8d162;}.cls-11{fill:#9a3e4b;}.cls-12{opacity:0.1;}</style></defs><title/><polygon class="cls-1" points="249.91 252 250 261.12 250 252 249.91 252"/><polygon class="cls-2" points="231.62 141.22 232.35 141 227.33 141 228.9 144.69 231.62 141.22"/><path class="cls-3" d="M249.25,66.07c-25.39,0-46,20.24-46,45.21,0,6.62-2.6,12.9,0,18.56-6.34,4.41-6,9.85-6,15.72,0,7.28,5.74,13.88,15,18.7s22.4,7.92,36.83,8H250V155.67c-11-.55-22.61-1.18-22.61-1.18L212.82,139.2l10.8,1.8h8.72l9.93-3H250V66.09Z"/><path class="cls-4" d="M242.28,138l-9.93,3-0.73.22-2.72,3.47L227.33,141h-3.7l-10.8-1.8,14.57,15.18s1.19,0.12,3.16.22l1.93-3.91,1.75,4.15c4.32,0.23,10.13.55,15.77,0.83V138h-7.72Z"/><polygon class="cls-5" points="231.62 141 227.33 141 228.9 144.58 231.62 141"/><path class="cls-5" d="M230.55,154.66l3.68,0.2-1.75-4.13Z"/><path class="cls-2" d="M224.58,110.34l0-.07h0Z"/><path class="cls-5" d="M216.32,110.41a18.17,18.17,0,0,1,3.41-9.2,4.63,4.63,0,0,0-2.13-.47c-6.41.38-4.77,18.09-4.77,18.09l4.22,0.07A19.72,19.72,0,0,1,216.32,110.41Z"/><path class="cls-5" d="M228.54,109.67l-0.11.15c0,0.64-.06,1.3-0.14,2a20.65,20.65,0,0,1-2.14,7.27l8.77,0.15A104.3,104.3,0,0,0,228.54,109.67Z"/><path class="cls-6" d="M228.43,109.81a2.64,2.64,0,0,1-3.82.46l0,0.07c-1.19,3.15-3,6.62-3.78,6.4-0.9-.26.2-5.89,1.2-9.33a20.66,20.66,0,0,1,1.4-3.6,14.33,14.33,0,0,0-3.66-2.61,18.17,18.17,0,0,0-3.41,9.2,19.72,19.72,0,0,0,.72,8.48l9.12,0.16a20.65,20.65,0,0,0,2.14-7.27C228.37,111.11,228.41,110.46,228.43,109.81Z"/><path class="cls-7" d="M225.28,105.74c-0.63-.69-1.26-1.34-1.89-1.93a20.66,20.66,0,0,0-1.4,3.6c-1,3.43-2.1,9.07-1.2,9.33,0.74,0.21,2.59-3.25,3.78-6.4l0-.07A2.66,2.66,0,0,1,225.28,105.74Z"/><path class="cls-5" d="M224.61,110.27h0c0.23-.59.45-1.23,0.64-1.91C225.08,109,224.86,109.61,224.61,110.27Z"/><path class="cls-5" d="M228.43,109.81l0.11-.15-0.1-.13C228.44,109.63,228.43,109.72,228.43,109.81Z"/><path class="cls-5" d="M225.76,106.26l-0.48-.52a2.66,2.66,0,0,0-.67,4.53c0.25-.66.47-1.31,0.64-1.91-0.2.67-.41,1.31-0.64,1.91a2.64,2.64,0,0,0,3.82-.46c0-.09,0-0.19,0-0.28C227.58,108.41,226.68,107.3,225.76,106.26Z"/><path class="cls-7" d="M245,134.64a0.75,0.75,0,0,1-.42-0.13c-2.28-1.56-4.9-3.26-5.34-3.42a0.76,0.76,0,0,1-.46-1,0.75,0.75,0,0,1,.94-0.47,60.65,60.65,0,0,1,5.71,3.61A0.75,0.75,0,0,1,245,134.64Z"/><polygon class="cls-8" points="250 88.68 245.73 81.14 242.47 51 250 51 250 88.68"/><polygon class="cls-8" points="242.47 81.14 235.05 52.88 223.12 57.22 235.69 83.59 242.19 90.19 242.47 81.14"/><path class="cls-9" d="M231.41,310.93c-1.92-5.33-31.41-20.07-31.41-20.07l0.72-2.17a11.87,11.87,0,0,0-3.49,4.25l-20.42,42a11.68,11.68,0,0,0-1,4.86,11.81,11.81,0,0,0-.77,4.58V400c-3.76,14.17-6.33,37-6.33,37a12,12,0,0,0,12,12H214a12,12,0,0,0,12-12s-2.88-25.58-7-39.39V368.9l26-52.69,0.06-.13C238.94,315.24,232.41,313.69,231.41,310.93Z"/><path class="cls-1" d="M250,266v-4.88s-21.68,3.17-37.25-8.89l-12,36.46L200,290.86s29.49,14.74,31.41,20.07c1,2.76,7.53,4.31,13.62,5.14,1.74,0.24,3.44.42,5,.55V308A21,21,0,0,1,250,266Zm-32,1a10,10,0,1,1-10,10A10,10,0,0,1,218,267Z"/><path class="cls-10" d="M229,287a21,21,0,0,0,21,21V266A21,21,0,0,0,229,287Z"/><circle class="cls-10" cx="218" cy="277" r="10"/><path class="cls-9" d="M249.91,252L250,172.32c-14.43-.12-28.31-3.18-37.7-8-0.55.89-1.08,1.81-1.6,2.77a31.24,31.24,0,0,0-52.1,18.4,47.4,47.4,0,0,0-22.89,12.93c-10.06,10.06-14.8,23-13.71,34.3-7,7.31-11.66,19.5-11.66,33.33a55.52,55.52,0,0,0,4.59,22.6,27,27,0,1,0,37.16,37.93,6.65,6.65,0,0,0,3.42,1c5,0,9-5.82,9-13s-4-13-9-13l-0.22,0a26.84,26.84,0,0,0-1.54-3.36c6.44-7.4,10.6-19,10.6-32.16a59.64,59.64,0,0,0-1-11A48.7,48.7,0,0,0,181,243.63a48,48,0,0,0,12.28-20.36c2.63,2.23,5.42,5.79,6,7.94,2.65,9.81,7.65,16.49,13.5,21,15.58,12.06,37.25,8.89,37.25,8.89ZM116.76,292.8s2.07-29.83,12-43.45Zm55.57-91.47L142,234.67S157.33,209,172.33,201.33Zm-12-6L130,228.67S145.33,203,160.33,195.33Zm-30.16,97.39s2.07-29.83,12-43.45Zm13.42-.08s2.07-29.83,12-43.45Zm10.41-52s15.33-25.67,30.33-33.33ZM239,226H218a13.34,13.34,0,0,1-13-13V181a2.5,2.5,0,0,1,5,0v32a8.43,8.43,0,0,0,8,8h21A2.5,2.5,0,0,1,239,226Z"/><path class="cls-11" d="M130,228.67l30.33-33.33C145.33,203,130,228.67,130,228.67Z"/><path class="cls-11" d="M172.33,201.33C157.33,209,142,234.67,142,234.67Z"/><path class="cls-11" d="M154,240.67l30.33-33.33C169.33,215,154,240.67,154,240.67Z"/><path class="cls-11" d="M128.74,249.35c-9.91,13.62-12,43.45-12,43.45Z"/><path class="cls-11" d="M142.16,249.28c-9.91,13.62-12,43.45-12,43.45Z"/><path class="cls-11" d="M155.57,249.2c-9.91,13.62-12,43.45-12,43.45Z"/><path class="cls-3" d="M239,221H218a8.43,8.43,0,0,1-8-8V181a2.5,2.5,0,0,0-5,0v32a13.34,13.34,0,0,0,13,13h21A2.5,2.5,0,0,0,239,221Z"/><polygon class="cls-1" points="249.91 252 250 261.12 250 252 249.91 252"/><polygon class="cls-2" points="231.62 141.22 232.35 141 227.33 141 228.9 144.69 231.62 141.22"/><path class="cls-3" d="M249.25,66.07c-25.39,0-46,20.24-46,45.21,0,6.62-2.6,12.9,0,18.56-6.34,4.41-6,9.85-6,15.72,0,7.28,5.74,13.88,15,18.7s22.4,7.92,36.83,8H250V155.67c-11-.55-22.61-1.18-22.61-1.18L212.82,139.2l10.8,1.8h8.72l9.93-3H250V66.09Z"/><path class="cls-4" d="M242.28,138l-9.93,3-0.73.22-2.72,3.47L227.33,141h-3.7l-10.8-1.8,14.57,15.18s1.19,0.12,3.16.22l1.93-3.91,1.75,4.15c4.32,0.23,10.13.55,15.77,0.83V138h-7.72Z"/><polygon class="cls-5" points="231.62 141 227.33 141 228.9 144.58 231.62 141"/><path class="cls-5" d="M230.55,154.66l3.68,0.2-1.75-4.13Z"/><path class="cls-2" d="M224.58,110.34l0-.07h0Z"/><path class="cls-5" d="M216.32,110.41a18.17,18.17,0,0,1,3.41-9.2,4.63,4.63,0,0,0-2.13-.47c-6.41.38-4.77,18.09-4.77,18.09l4.22,0.07A19.72,19.72,0,0,1,216.32,110.41Z"/><path class="cls-5" d="M228.54,109.67l-0.11.15c0,0.64-.06,1.3-0.14,2a20.65,20.65,0,0,1-2.14,7.27l8.77,0.15A104.3,104.3,0,0,0,228.54,109.67Z"/><path class="cls-6" d="M228.43,109.81a2.64,2.64,0,0,1-3.82.46l0,0.07c-1.19,3.15-3,6.62-3.78,6.4-0.9-.26.2-5.89,1.2-9.33a20.66,20.66,0,0,1,1.4-3.6,14.33,14.33,0,0,0-3.66-2.61,18.17,18.17,0,0,0-3.41,9.2,19.72,19.72,0,0,0,.72,8.48l9.12,0.16a20.65,20.65,0,0,0,2.14-7.27C228.37,111.11,228.41,110.46,228.43,109.81Z"/><path class="cls-7" d="M225.28,105.74c-0.63-.69-1.26-1.34-1.89-1.93a20.66,20.66,0,0,0-1.4,3.6c-1,3.43-2.1,9.07-1.2,9.33,0.74,0.21,2.59-3.25,3.78-6.4l0-.07A2.66,2.66,0,0,1,225.28,105.74Z"/><path class="cls-5" d="M224.61,110.27h0c0.23-.59.45-1.23,0.64-1.91C225.08,109,224.86,109.61,224.61,110.27Z"/><path class="cls-5" d="M228.43,109.81l0.11-.15-0.1-.13C228.44,109.63,228.43,109.72,228.43,109.81Z"/><path class="cls-5" d="M225.76,106.26l-0.48-.52a2.66,2.66,0,0,0-.67,4.53c0.25-.66.47-1.31,0.64-1.91-0.2.67-.41,1.31-0.64,1.91a2.64,2.64,0,0,0,3.82-.46c0-.09,0-0.19,0-0.28C227.58,108.41,226.68,107.3,225.76,106.26Z"/><path class="cls-7" d="M245,134.64a0.75,0.75,0,0,1-.42-0.13c-2.28-1.56-4.9-3.26-5.34-3.42a0.76,0.76,0,0,1-.46-1,0.75,0.75,0,0,1,.94-0.47,60.65,60.65,0,0,1,5.71,3.61A0.75,0.75,0,0,1,245,134.64Z"/><polygon class="cls-8" points="250 88.68 245.73 81.14 242.47 51 250 51 250 88.68"/><polygon class="cls-8" points="242.47 81.14 235.05 52.88 223.12 57.22 235.69 83.59 242.19 90.19 242.47 81.14"/><path class="cls-9" d="M231.41,310.93c-1.92-5.33-31.41-20.07-31.41-20.07l0.72-2.17a11.87,11.87,0,0,0-3.49,4.25l-20.42,42a11.68,11.68,0,0,0-1,4.86,11.81,11.81,0,0,0-.77,4.58V400c-3.76,14.17-6.33,37-6.33,37a12,12,0,0,0,12,12H214a12,12,0,0,0,12-12s-2.88-25.58-7-39.39V368.9l26-52.69,0.06-.13C238.94,315.24,232.41,313.69,231.41,310.93Z"/><path class="cls-1" d="M250,266v-4.88s-21.68,3.17-37.25-8.89l-12,36.46L200,290.86s29.49,14.74,31.41,20.07c1,2.76,7.53,4.31,13.62,5.14,1.74,0.24,3.44.42,5,.55V308A21,21,0,0,1,250,266Zm-32,1a10,10,0,1,1-10,10A10,10,0,0,1,218,267Z"/><path class="cls-10" d="M229,287a21,21,0,0,0,21,21V266A21,21,0,0,0,229,287Z"/><circle class="cls-10" cx="218" cy="277" r="10"/><path class="cls-9" d="M249.91,252L250,172.32c-14.43-.12-28.31-3.18-37.7-8-0.55.89-1.08,1.81-1.6,2.77a31.24,31.24,0,0,0-52.1,18.4,47.4,47.4,0,0,0-22.89,12.93c-10.06,10.06-14.8,23-13.71,34.3-7,7.31-11.66,19.5-11.66,33.33a55.52,55.52,0,0,0,4.59,22.6,27,27,0,1,0,37.16,37.93,6.65,6.65,0,0,0,3.42,1c5,0,9-5.82,9-13s-4-13-9-13l-0.22,0a26.84,26.84,0,0,0-1.54-3.36c6.44-7.4,10.6-19,10.6-32.16a59.64,59.64,0,0,0-1-11A48.7,48.7,0,0,0,181,243.63a48,48,0,0,0,12.28-20.36c2.63,2.23,5.42,5.79,6,7.94,2.65,9.81,7.65,16.49,13.5,21,15.58,12.06,37.25,8.89,37.25,8.89ZM116.76,292.8s2.07-29.83,12-43.45Zm55.57-91.47L142,234.67S157.33,209,172.33,201.33Zm-12-6L130,228.67S145.33,203,160.33,195.33Zm-30.16,97.39s2.07-29.83,12-43.45Zm13.42-.08s2.07-29.83,12-43.45Zm10.41-52s15.33-25.67,30.33-33.33ZM239,226H218a13.34,13.34,0,0,1-13-13V181a2.5,2.5,0,0,1,5,0v32a8.43,8.43,0,0,0,8,8h21A2.5,2.5,0,0,1,239,226Z"/><path class="cls-11" d="M130,228.67l30.33-33.33C145.33,203,130,228.67,130,228.67Z"/><path class="cls-11" d="M172.33,201.33C157.33,209,142,234.67,142,234.67Z"/><path class="cls-11" d="M154,240.67l30.33-33.33C169.33,215,154,240.67,154,240.67Z"/><path class="cls-11" d="M128.74,249.35c-9.91,13.62-12,43.45-12,43.45Z"/><path class="cls-11" d="M142.16,249.28c-9.91,13.62-12,43.45-12,43.45Z"/><path class="cls-11" d="M155.57,249.2c-9.91,13.62-12,43.45-12,43.45Z"/><path class="cls-3" d="M239,221H218a8.43,8.43,0,0,1-8-8V181a2.5,2.5,0,0,0-5,0v32a13.34,13.34,0,0,0,13,13h21A2.5,2.5,0,0,0,239,221Z"/><polygon class="cls-1" points="250.09 252 250 261.12 250 252 250.09 252"/><polygon class="cls-2" points="268.38 141.22 267.65 141 272.67 141 271.1 144.69 268.38 141.22"/><path class="cls-3" d="M250.75,66.07c25.39,0,46,20.24,46,45.21,0,6.62,2.6,12.9,0,18.56,6.34,4.41,6,9.85,6,15.72,0,7.28-5.74,13.88-15,18.7s-22.4,7.92-36.83,8H250V155.67c11-.55,22.61-1.18,22.61-1.18l14.57-15.28-10.8,1.8h-8.72l-9.93-3H250V66.09Z"/><path class="cls-4" d="M257.72,138l9.93,3,0.73,0.22,2.72,3.47,1.57-3.69h3.7l10.8-1.8-14.57,15.18s-1.19.12-3.16,0.22l-1.93-3.91-1.75,4.15c-4.32.23-9.77,0.55-15.77,0.83V138h7.72Z"/><polygon class="cls-5" points="268.38 141 272.67 141 271.1 144.58 268.38 141"/><path class="cls-5" d="M269.45,154.66l-3.68.2,1.75-4.13Z"/><path class="cls-2" d="M275.42,110.34l0-.07h0Z"/><path class="cls-5" d="M283.68,110.41a18.17,18.17,0,0,0-3.41-9.2,4.63,4.63,0,0,1,2.13-.47c6.41,0.38,4.77,18.09,4.77,18.09l-4.22.07A19.72,19.72,0,0,0,283.68,110.41Z"/><path class="cls-5" d="M271.46,109.67l0.11,0.15c0,0.64.06,1.3,0.14,2a20.65,20.65,0,0,0,2.14,7.27l-8.77.15A104.3,104.3,0,0,1,271.46,109.67Z"/><path class="cls-6" d="M271.57,109.81a2.64,2.64,0,0,0,3.82.46l0,0.07c1.19,3.15,3,6.62,3.78,6.4,0.9-.26-0.2-5.89-1.2-9.33a20.66,20.66,0,0,0-1.4-3.6,14.33,14.33,0,0,1,3.66-2.61,18.17,18.17,0,0,1,3.41,9.2,19.72,19.72,0,0,1-.72,8.48l-9.12.16a20.65,20.65,0,0,1-2.14-7.27C271.63,111.11,271.59,110.46,271.57,109.81Z"/><path class="cls-7" d="M274.72,105.74c0.63-.69,1.26-1.34,1.89-1.93a20.66,20.66,0,0,1,1.4,3.6c1,3.43,2.1,9.07,1.2,9.33-0.74.21-2.59-3.25-3.78-6.4l0-.07A2.66,2.66,0,0,0,274.72,105.74Z"/><path class="cls-5" d="M275.39,110.27h0c-0.23-.59-0.45-1.23-0.64-1.91C274.92,109,275.14,109.61,275.39,110.27Z"/><path class="cls-5" d="M271.57,109.81l-0.11-.15,0.1-.13C271.56,109.63,271.57,109.72,271.57,109.81Z"/><path class="cls-5" d="M274.24,106.26l0.48-.52a2.66,2.66,0,0,1,.67,4.53c-0.25-.66-0.47-1.31-0.64-1.91,0.2,0.67.41,1.31,0.64,1.91a2.64,2.64,0,0,1-3.82-.46c0-.09,0-0.19,0-0.28C272.42,108.41,273.32,107.3,274.24,106.26Z"/><path class="cls-7" d="M255,134.64a0.75,0.75,0,0,0,.42-0.13c2.28-1.56,4.9-3.26,5.34-3.42a0.76,0.76,0,0,0,.46-1,0.75,0.75,0,0,0-.94-0.47,60.65,60.65,0,0,0-5.71,3.61A0.75,0.75,0,0,0,255,134.64Z"/><polygon class="cls-8" points="250 88.68 254.27 81.14 257.54 51 250 51 250 88.68"/><polygon class="cls-8" points="257.54 81.14 264.95 52.88 276.88 57.22 264.31 83.59 257.81 90.19 257.54 81.14"/><path class="cls-9" d="M268.59,310.93c1.92-5.33,31.41-20.07,31.41-20.07l-0.72-2.17a11.87,11.87,0,0,1,3.49,4.25l20.42,42a11.68,11.68,0,0,1,1,4.86,11.81,11.81,0,0,1,.77,4.58V400c3.76,14.17,6.33,37,6.33,37a12,12,0,0,1-12,12H286a12,12,0,0,1-12-12s2.88-25.58,7-39.39V368.9L255,316.2l-0.06-.13C261.06,315.24,267.59,313.69,268.59,310.93Z"/><path class="cls-1" d="M271,287a21,21,0,0,1-21,21v8.62c1.53-.13,3.23-0.32,5-0.55,6.09-.83,12.62-2.38,13.62-5.14,1.92-5.33,31.41-20.07,31.41-20.07l-0.72-2.17-12-36.46c-15.58,12.06-37.25,8.89-37.25,8.89V266A21,21,0,0,1,271,287Zm21-10a10,10,0,1,1-10-10A10,10,0,0,1,292,277Z"/><path class="cls-10" d="M271,287a21,21,0,0,1-21,21V266A21,21,0,0,1,271,287Z"/><circle class="cls-10" cx="282" cy="277" r="10"/><path class="cls-9" d="M250,261.12s21.68,3.17,37.25-8.89c5.85-4.53,10.85-11.21,13.5-21,0.58-2.14,3.37-5.7,6-7.94A48,48,0,0,0,319,243.63,48.7,48.7,0,0,0,336.68,255a59.64,59.64,0,0,0-1,11c0,13.11,4.16,24.76,10.6,32.16a26.84,26.84,0,0,0-1.54,3.36l-0.22,0c-5,0-9,5.82-9,13s4,13,9,13a6.65,6.65,0,0,0,3.42-1,27,27,0,1,0,37.16-37.93,55.52,55.52,0,0,0,4.59-22.6c0-13.82-4.62-26-11.66-33.33,1.09-11.31-3.65-24.25-13.71-34.3a47.4,47.4,0,0,0-22.89-12.93A31.24,31.24,0,0,0,289.3,167c-0.52-1-1.05-1.88-1.6-2.77-9.39,4.87-23.27,7.93-37.7,8L250.09,252Zm121.26-11.77c9.91,13.62,12,43.45,12,43.45ZM358,234.67l-30.33-33.33C342.67,209,358,234.67,358,234.67Zm12-6-30.33-33.33C354.67,203,370,228.67,370,228.67Zm-12.16,20.61c9.91,13.62,12,43.45,12,43.45Zm-13.42-.08c9.91,13.62,12,43.45,12,43.45Zm-28.76-41.87c15,7.67,30.33,33.33,30.33,33.33ZM258.5,223.5A2.5,2.5,0,0,1,261,221h21a8.43,8.43,0,0,0,8-8V181a2.5,2.5,0,0,1,5,0v32a13.34,13.34,0,0,1-13,13H261A2.5,2.5,0,0,1,258.5,223.5Z"/><path class="cls-11" d="M370,228.67l-30.33-33.33C354.67,203,370,228.67,370,228.67Z"/><path class="cls-11" d="M327.67,201.33c15,7.67,30.33,33.33,30.33,33.33Z"/><path class="cls-11" d="M346,240.67l-30.33-33.33C330.67,215,346,240.67,346,240.67Z"/><path class="cls-11" d="M371.26,249.35c9.91,13.62,12,43.45,12,43.45Z"/><path class="cls-11" d="M357.84,249.28c9.91,13.62,12,43.45,12,43.45Z"/><path class="cls-11" d="M344.43,249.2c9.91,13.62,12,43.45,12,43.45Z"/><path class="cls-3" d="M261,221h21a8.43,8.43,0,0,0,8-8V181a2.5,2.5,0,0,1,5,0v32a13.34,13.34,0,0,1-13,13H261A2.5,2.5,0,0,1,261,221Z"/><g class="cls-12"><path class="cls-7" d="M265.77,154.85l3.68-.2-1.93-3.94Z"/><path class="cls-7" d="M385.07,288.6a55.52,55.52,0,0,0,4.59-22.6c0-13.82-4.62-26-11.66-33.33,1.09-11.31-3.65-24.25-13.71-34.3a47.4,47.4,0,0,0-22.89-12.93A31.24,31.24,0,0,0,289.3,167c-0.52-1-1.05-1.88-1.6-2.77,9.3-4.82,15-11.42,15-18.7,0-5.88.31-11.31-6-15.72,2.6-5.67,0-11.94,0-18.56a45.17,45.17,0,0,0-26.16-40.81l6.32-13.26-11.93-4.33-3.77,14.37a46.56,46.56,0,0,0-5.31-.9L257.54,51H250V172.32L250.09,252H250v64.62c1.53-.13,3.23-0.32,5-0.55L255,316.2l26,52.69v28.71c-4.12,13.81-7,39.39-7,39.39a12,12,0,0,0,12,12h33.33a12,12,0,0,0,12-12s-2.57-22.85-6.33-37V344.33a11.81,11.81,0,0,0-.77-4.58,11.68,11.68,0,0,0-1-4.86l-20.42-42a11.87,11.87,0,0,0-3.49-4.25l-12-36.46c5.85-4.53,10.85-11.21,13.5-21,0.58-2.14,3.37-5.7,6-7.94A48,48,0,0,0,319,243.63,48.7,48.7,0,0,0,336.68,255a59.64,59.64,0,0,0-1,11c0,13.11,4.16,24.76,10.6,32.16a26.84,26.84,0,0,0-1.54,3.36l-0.22,0c-5,0-9,5.82-9,13s4,13,9,13a6.65,6.65,0,0,0,3.42-1A27,27,0,1,0,385.07,288.6ZM265.77,154.84l1.75-4.15,1.93,3.91c2-.11,3.16-0.22,3.16-0.22l14.57-15.18-14.57,15.28-14.38.76Z"/></g><path class="cls-9" d="M171.25,465.94V465h5.63v1.88h1.88v1.88h1.88v5.63h-1.87v1.88h-1.87v1.88h-5.62v-1.87h-1.87v-1.87H167.5v-5.62h1.88v-1.87h1.88v-0.94Zm3.75,1.88v-0.94h-3.75v7.5h1.88v1.88h3.75v-7.5H175v-0.94Z"/><path class="cls-9" d="M186.25,465.94V465h7.5v1.88h-5.62v1.88h-1.87v1.88h7.5v1.88h1.88v3.75h-1.87v1.88h-9.37v-1.87H182.5v-7.5h1.88v-1.87h1.88v-0.94Zm5.63,8.44V472.5h-5.62v3.75h5.63v-1.87Z"/><path class="cls-9" d="M197.5,466.88V465h13.13v3.75h-1.87v1.88h-1.87v1.88H205v5.63h-3.75V472.5h1.88v-1.87H205v-1.87h1.88v-1.87h-5.62v1.88H197.5v-1.87Z"/><path class="cls-9" d="M227.5,471.56V465h3.75v1.88h1.88v1.88H235v-1.87h1.88V465h3.75v13.13h-3.75V472.5H235v1.88h-1.87V472.5h-1.87v5.63H227.5v-6.56Z"/><path class="cls-9" d="M246.25,465.94V465h5.63v1.88h1.88v1.88h1.88v9.38h-3.75v-3.75h-5.62v3.75H242.5v-9.37h1.88v-1.87h1.88v-0.94Zm3.75,1.88v-0.94h-1.87v1.88h-1.87v3.75h5.63v-3.75H250v-0.94Z"/><path class="cls-9" d="M261.25,465.94V465h7.5v1.88h1.88v1.88h-3.75v-1.87h-3.75v1.88h-1.87v5.63h1.88v1.88h3.75v-1.87h3.75v1.88h-1.87v1.88h-7.5v-1.87h-1.87v-1.87H257.5v-5.62h1.88v-1.87h1.88v-0.94Z"/><path class="cls-9" d="M272.5,471.56V465h3.75v5.63h5.63V465h3.75v13.13h-3.75V472.5h-5.62v5.63H272.5v-6.56Z"/><path class="cls-9" d="M289.38,465.94V465h9.38v1.88h1.88v9.38h-1.87v1.88h-9.37v-1.87H287.5v-9.37h1.88v-0.94Zm7.5,5.63v-4.69h-5.62v9.38h5.63v-4.69Z"/><path class="cls-9" d="M302.5,471.56V465h3.75v5.63h1.88v-1.87H310v-1.87h1.88V465h3.75v1.88h-1.87v1.88h-1.87v1.88H310v1.88h1.88v1.88h1.88v1.88h1.88v1.88H310v-1.87h-1.87v-1.87h-1.87v3.75H302.5v-6.56Z"/><path class="cls-9" d="M317.5,471.56V465h13.13v1.88h-9.37v3.75h7.5v1.88h-7.5v3.75h9.38v1.88H317.5v-6.56Z"/></svg>