<?xml version="1.0" ?><svg id="pkft" viewBox="0 0 500 500" xmlns="http://www.w3.org/2000/svg"><defs><style>.cls-1{fill:none;}.cls-2{fill:#7c8ea5;}.cls-3{fill:#c96c69;}.cls-4{fill:#837359;}.cls-5{fill:#fff;}.cls-6{fill:#c4404f;}.cls-7{fill:#d2c89f;}.cls-8{fill:#2c2c33;}.cls-9{fill:#e4c659;}.cls-10{opacity:0.1;}.cls-11{fill:#1a1a1a;}</style></defs><title/><path class="cls-1" d="M209.09,193.38c1.3,0.1,4.52,2.23,8.41,3.4C213.48,195.55,210.22,193.25,209.09,193.38Z"/><path class="cls-1" d="M236,231.76a32.44,32.44,0,0,1,11.72-2.34,33,33,0,0,0-11.82,2.34,0.42,0.42,0,0,1-.17,0A0.46,0.46,0,0,0,236,231.76Z"/><path class="cls-2" d="M227.12,196.33A22.22,22.22,0,0,1,238,193.65a22.33,22.33,0,0,0-11,2.68,10.54,10.54,0,0,1-4.7,1.19A10.6,10.6,0,0,0,227.12,196.33Z"/><path class="cls-3" d="M222,197.52h0a16.25,16.25,0,0,1-4.47-.74A15.66,15.66,0,0,0,222,197.52Z"/><path class="cls-3" d="M247.68,229.42c0.77,0,1.55,0,2.32.08C249.22,229.44,248.45,229.41,247.68,229.42Z"/><path class="cls-3" d="M235.69,231.78c-1.13-.18-4.29-3-7.85-6.6C231.46,228.85,234.66,231.77,235.69,231.78Z"/><path class="cls-3" d="M208.51,193.67c-0.35,1,1.15,5.26,2.73,9.28-1.48-4-2.88-8.28-2.53-9.28a0.42,0.42,0,0,1,.38-0.29A0.49,0.49,0,0,0,208.51,193.67Z"/><path class="cls-3" d="M238,193.65a26.14,26.14,0,0,1,12,3.48A26,26,0,0,0,238,193.65Z"/><path class="cls-3" d="M222.32,197.52h0Z"/><path class="cls-2" d="M220.94,173.62a14.29,14.29,0,0,1-1.69-6.78c0-6.66,4.41-12.15,10.13-13-5.51-1.59-11.91-2.93-16.64-2.42A31.35,31.35,0,0,0,206.5,170c0,0.77,0,1.53.1,2.29A53.09,53.09,0,0,1,220.94,173.62Z"/><path class="cls-4" d="M227,139.44c-2.64,1.36-11.11-7.85-11.11-7.85-5.19,3.85-2.2,18.5-3.15,19.8,4.73-.51,11.13.83,16.64,2.42,3.79,1.09,7.16,2.3,9.29,3.11,1.48,0.56,2.37.93,2.37,0.93l2-1.34C241.63,151.28,233.87,144.55,227,139.44Z"/><path class="cls-5" d="M229.54,165.92A32.39,32.39,0,0,1,233.19,155c-1.19-.39-2.47-0.79-3.8-1.17-5.72.88-10.13,6.36-10.13,13a14.29,14.29,0,0,0,1.69,6.78c2.75,0.58,5.52,1.3,8.24,2.1A35.5,35.5,0,0,1,229.54,165.92Z"/><path class="cls-5" d="M242.71,166.84A14.25,14.25,0,0,0,241,160a38.22,38.22,0,0,1-.52,7.75A33.9,33.9,0,0,1,237.21,178,13.54,13.54,0,0,0,242.71,166.84Z"/><path class="cls-6" d="M237,160a3.15,3.15,0,0,1,1.75-3l-0.09-.09c-1.38-.52-3.29-1.22-5.49-1.94a32.39,32.39,0,0,0-3.64,10.93,35.5,35.5,0,0,0-.36,9.8c2.64,0.78,5.23,1.63,7.67,2.5,0.13-.08.24-0.18,0.36-0.27a33.9,33.9,0,0,0,3.24-10.23,40.3,40.3,0,0,0,.51-5.06,2.27,2.27,0,0,1-1.34.46A2.92,2.92,0,0,1,237,160Z"/><path class="cls-5" d="M241,160a13.05,13.05,0,0,0-2.21-3,3.15,3.15,0,0,0-1.75,3,2.92,2.92,0,0,0,2.61,3.15,2.27,2.27,0,0,0,1.34-.46C241,161.73,241,160.83,241,160Z"/><path class="cls-2" d="M227,139.44c6.86,5.1,14.62,11.84,16,17.08l-2,1.34s-0.88-.37-2.37-0.93a13.84,13.84,0,0,1,4,9.92,13.5,13.5,0,0,1-5.86,11.38c5.35,1.91,10,3.9,13.15,5.34v-28l-6.57-21.1A49.18,49.18,0,0,0,227,139.44Z"/><polygon class="cls-4" points="243.3 134 243.43 134.42 250 155.52 250 134 250 120 243.3 134"/><path class="cls-1" d="M211.24,202.94c1.09,2.77,2.12,5.43,2.65,6.8a1.91,1.91,0,0,1,.18,1s6.93,7.92,12.93,14h0c-6-6.13-12.73-14-12.73-14S212.82,207,211.24,202.94Z"/><path class="cls-1" d="M247.68,229.42a33,33,0,0,0-11.82,2.34,0.42,0.42,0,0,1-.17,0,0.46,0.46,0,0,0,.27,0A32.44,32.44,0,0,1,247.68,229.42Z"/><path class="cls-1" d="M209.09,193.38c1.18,0.09,4,1.86,7.39,3.06C212.94,195.17,210.12,193.26,209.09,193.38Z"/><path class="cls-1" d="M238,193.65a22.33,22.33,0,0,0-11,2.68,10.54,10.54,0,0,1-4.7,1.19,10.6,10.6,0,0,0,4.8-1.19A22.22,22.22,0,0,1,238,193.65Z"/><path class="cls-1" d="M222.32,197.52H222a16.23,16.23,0,0,1-4.47-.74,15.66,15.66,0,0,0,4.47.74h0.35Z"/><path class="cls-1" d="M208.71,193.67a0.42,0.42,0,0,1,.38-0.29,0.49,0.49,0,0,0-.58.29,2.06,2.06,0,0,0,0,.85l0.21,0.18A2.52,2.52,0,0,1,208.71,193.67Z"/><path class="cls-1" d="M235.69,231.78c-1.13-.18-4.29-3-7.85-6.6C231.46,228.85,234.66,231.77,235.69,231.78Z"/><path class="cls-1" d="M250,229.5c-0.78-.06-1.55-0.09-2.32-0.08C248.45,229.41,249.22,229.44,250,229.5Z"/><path class="cls-1" d="M250,197.14a26,26,0,0,0-12-3.48A26.14,26.14,0,0,1,250,197.14Z"/><path class="cls-1" d="M227.84,225.18l-0.4-.41h0Z"/><path class="cls-2" d="M208.71,194.7l-0.21-.18a48.15,48.15,0,0,0,2.74,8.43A52.09,52.09,0,0,1,208.71,194.7Z"/><path class="cls-2" d="M213.89,209.75c-0.53-1.38-1.56-4-2.65-6.8C212.27,205.72,213.33,208.37,213.89,209.75Z"/><path class="cls-7" d="M192.82,184c0,0.17,0,.33-0.06.5C192.78,184.33,192.79,184.16,192.82,184Z"/><path class="cls-7" d="M193.4,181.39c0,0.14-.07.28-0.11,0.41C193.33,181.67,193.36,181.52,193.4,181.39Z"/><path class="cls-7" d="M193.07,182.66c0,0.15-.06.31-0.09,0.46C193,183,193,182.82,193.07,182.66Z"/><path class="cls-7" d="M209.09,193.38c1-.12,3.85,1.79,7.39,3.06,0.34,0.12.67,0.24,1,.34a16.23,16.23,0,0,0,4.47.74h0.35a10.54,10.54,0,0,0,4.7-1.19,22.33,22.33,0,0,1,11-2.68,26,26,0,0,1,12,3.48V183.56c-3.12-1.44-7.79-3.43-13.15-5.34a124.74,124.74,0,0,0-15.91-4.61,53.09,53.09,0,0,0-14.35-1.32,25.14,25.14,0,0,0-3.1.43,16.8,16.8,0,0,0-4,1.28c-0.29.14-.57,0.29-0.83,0.44l-0.27.17-0.5.33-0.3.22-0.41.32-0.3.26-0.35.32-0.29.3-0.3.32-0.28.34-0.25.32-0.27.38-0.21.31-0.26.42-0.16.3c-0.09.16-.17,0.31-0.25,0.48l-0.12.25c-0.09.18-.17,0.36-0.25,0.55l-0.06.15c-0.16.39-.3,0.8-0.43,1.21,0,0.14-.07.28-0.11,0.41s-0.16.57-.23,0.86-0.06.31-.09,0.46-0.11.57-.16,0.87,0,0.33-.06.5-0.06.46-.08,0.69c-0.58,5.76.83,12.54,2.57,18.24A100.19,100.19,0,0,0,199.11,214c0.47,1.08.77,1.72,0.77,1.72s13.83,15.56,22.5,23.64c3.3,3.07,5.86,5.07,6.62,4.7a44.87,44.87,0,0,1,21-2.88V229.5c-0.78-.06-1.55-0.09-2.32-0.08A32.44,32.44,0,0,0,236,231.76a0.46,0.46,0,0,1-.27,0c-1,0-4.22-2.93-7.85-6.6l-0.4-.4c-6.09-6.13-13.14-14-13.14-14l-0.4-1,0.38,1s6.73,7.92,12.73,14h0c-6-6.13-12.93-14-12.93-14s-1.35-3.76-2.83-7.78a48.15,48.15,0,0,1-2.74-8.43,2.06,2.06,0,0,1,0-.85A0.49,0.49,0,0,1,209.09,193.38Z"/><path class="cls-7" d="M214.07,210.72s6.93,7.92,12.93,14h0c-6-6.13-12.73-14-12.73-14l-0.38-1c-0.56-1.38-1.63-4-2.65-6.8C212.72,207,214.07,210.72,214.07,210.72Z"/><path class="cls-7" d="M193.83,180.18c-0.16.39-.3,0.8-0.43,1.21C193.53,181,193.67,180.57,193.83,180.18Z"/><path class="cls-7" d="M193.29,181.8c-0.08.28-.16,0.57-0.23,0.86C193.13,182.37,193.21,182.09,193.29,181.8Z"/><path class="cls-7" d="M193,183.13c-0.06.29-.11,0.57-0.16,0.87C192.86,183.7,192.92,183.41,193,183.13Z"/><path class="cls-7" d="M192.67,185.19c0-.23.05-0.46,0.08-0.69,0,0.23-.07.46-0.09,0.69h0Z"/><path class="cls-3" d="M238,193.65a22.22,22.22,0,0,0-10.93,2.68,10.6,10.6,0,0,1-4.8,1.19H222a15.66,15.66,0,0,1-4.47-.74c-0.35-.1-0.68-0.22-1-0.34-3.42-1.2-6.21-3-7.39-3.06a0.42,0.42,0,0,0-.38.29,2.52,2.52,0,0,0,0,1,52.09,52.09,0,0,0,2.53,8.25c1.58,4,3.25,7.78,3.25,7.78s6.95,7.92,13,14l0.4,0.41c3.56,3.56,6.72,6.42,7.85,6.6a0.42,0.42,0,0,0,.17,0,33,33,0,0,1,11.82-2.34c0.77,0,1.54,0,2.32.08V197.14A26.14,26.14,0,0,0,238,193.65Z"/><path class="cls-8" d="M249.5,356A19,19,0,0,1,236,323.58L190,320l-3,15.18L186,340s22.67,1,44,32.33l0.78,0.18c2.67,0.6,11.71,2.59,19.22,3.75V356Z"/><path class="cls-2" d="M249.5,318l0.5,0v-76.9A44.87,44.87,0,0,0,229,244c-0.76.37-3.32-1.63-6.62-4.7-8.67-8.07-22.5-23.64-22.5-23.64s-0.3-.63-0.77-1.72a100.19,100.19,0,0,1-3.87-10.53c-1.73-5.7-3.14-12.48-2.57-18.24h0c0-.23.06-0.46,0.09-0.69s0-.34.06-0.5,0.1-.58.16-0.87,0.06-.31.09-0.46,0.15-.58.23-0.86,0.07-.28.11-0.41c0.13-.41.27-0.82,0.43-1.21l0.06-.15c0.08-.19.16-0.37,0.25-0.55l0.12-.25c0.08-.16.16-0.32,0.25-0.48l0.16-.3,0.26-.42,0.21-.31,0.27-.38,0.25-.32,0.28-.34,0.3-.32,0.29-.3,0.35-.32,0.3-.26,0.41-.32,0.3-.22,0.5-.33,0.27-.17c0.27-.16.54-0.31,0.83-0.44a16.8,16.8,0,0,1,4-1.28c-4.89-12.12-18.08-22.75-35.28-27.27,3.39-12.6,4.57-25.59,2.29-35.14a33.3,33.3,0,0,0,8.24-1.94c3,3,9,4,15.22,2.12,7.76-2.39,12.79-8.41,11.24-13.45-0.93-3-4-5-8-5.57a33.51,33.51,0,1,0-55.7,7.26c-15.47,6.51-33,22.46-42.6,37-14.7,22.3-4.9,32.74,10.9,43.16l0.7,0.46c3.41,14.7,19.19,28.07,40.17,32.42a190.22,190.22,0,0,0-20.43,32.47,57.67,57.67,0,0,0-15.12,6.21c-13,7.22-27.77,19.29-38.33,31.44a44.94,44.94,0,0,0-7.86-7.55c-9.91-7.52-20.73-9.95-24.16-5.42-2.43,3.2-.49,9,4.34,14.81A33.5,33.5,0,1,0,94,320.75c16.92-1.89,37.17-8.34,51.28-16.2,11.45-6.38,16.94-12.61,18.78-18.86,2.49-1.16,5-2.44,7.52-3.79C177.24,303.27,190,320,190,320l46,3.58A18.94,18.94,0,0,1,249.5,318Z"/><path class="cls-9" d="M249.5,318a19,19,0,0,0,0,38l0.5,0V318Z"/><circle class="cls-9" cx="196.75" cy="326.25" r="4.25"/><circle class="cls-9" cx="208.75" cy="330.25" r="4.25"/><circle class="cls-9" cx="220.75" cy="334.25" r="4.25"/><path class="cls-2" d="M230,372.33C208.67,341,186,340,186,340l1-4.82a57.19,57.19,0,0,0-10.49,3.92c-22.89,11-45.81,36.77-38.72,51.52,1,2.11,8.67,14.47,13.38,19.86l0.61,0.67a58.16,58.16,0,0,0-12.84,4.55C125,422.46,116.11,432.88,119.07,439c2.3,4.74,11.11,5.45,21.46,2.34-1.15,2.48-1.37,4.78-.46,6.66,3,6.08,16.64,5.53,30.55-1.24,9.77-4.76,17.06-11.31,19.5-16.9a10.25,10.25,0,0,0,4.55-2.22c5.62-4.91,1-19.83-6.2-33.69A152.36,152.36,0,0,0,218,384c8.59-4.13,12.11-7.78,12.78-11.49Z"/><path class="cls-1" d="M290.41,193.38c-1.3.1-4.52,2.23-8.41,3.4C286,195.55,289.28,193.25,290.41,193.38Z"/><path class="cls-1" d="M263.55,231.76a32.44,32.44,0,0,0-11.72-2.34,33,33,0,0,1,11.82,2.34,0.42,0.42,0,0,0,.17,0A0.46,0.46,0,0,1,263.55,231.76Z"/><path class="cls-2" d="M272.38,196.33a22.22,22.22,0,0,0-10.93-2.68,22.33,22.33,0,0,1,11,2.68,10.54,10.54,0,0,0,4.7,1.19A10.6,10.6,0,0,1,272.38,196.33Z"/><path class="cls-3" d="M277.53,197.52h0a16.25,16.25,0,0,0,4.47-.74A15.66,15.66,0,0,1,277.53,197.52Z"/><path class="cls-3" d="M251.82,229.42c-0.77,0-1.55,0-2.32.08C250.28,229.44,251.05,229.41,251.82,229.42Z"/><path class="cls-3" d="M263.81,231.78c1.13-.18,4.29-3,7.85-6.6C268,228.85,264.84,231.77,263.81,231.78Z"/><path class="cls-3" d="M291,193.67c0.35,1-1.15,5.26-2.73,9.28,1.48-4,2.88-8.28,2.53-9.28a0.42,0.42,0,0,0-.38-0.29A0.49,0.49,0,0,1,291,193.67Z"/><path class="cls-3" d="M261.45,193.65a26.14,26.14,0,0,0-12,3.48A26,26,0,0,1,261.45,193.65Z"/><path class="cls-3" d="M277.18,197.52h0Z"/><path class="cls-2" d="M278.56,173.62a14.29,14.29,0,0,0,1.69-6.78c0-6.66-4.41-12.15-10.13-13,5.51-1.59,11.91-2.93,16.64-2.42A31.35,31.35,0,0,1,293,170c0,0.77,0,1.53-.1,2.29A53.09,53.09,0,0,0,278.56,173.62Z"/><path class="cls-4" d="M272.49,139.44c2.64,1.36,11.11-7.85,11.11-7.85,5.19,3.85,2.2,18.5,3.15,19.8-4.73-.51-11.12.83-16.64,2.42-3.79,1.09-7.16,2.3-9.29,3.11-1.48.56-2.37,0.93-2.37,0.93l-2-1.34C257.87,151.28,265.63,144.55,272.49,139.44Z"/><path class="cls-5" d="M270,165.92A32.39,32.39,0,0,0,266.31,155c1.19-.39,2.47-0.79,3.8-1.17,5.72,0.88,10.13,6.36,10.13,13a14.29,14.29,0,0,1-1.69,6.78c-2.75.58-5.52,1.3-8.24,2.1A35.5,35.5,0,0,0,270,165.92Z"/><path class="cls-5" d="M256.79,166.84a14.25,14.25,0,0,1,1.73-6.86,38.22,38.22,0,0,0,.52,7.75A33.9,33.9,0,0,0,262.29,178,13.54,13.54,0,0,1,256.79,166.84Z"/><path class="cls-6" d="M262.49,160a3.15,3.15,0,0,0-1.75-3l0.09-.09c1.38-.52,3.29-1.22,5.49-1.94A32.39,32.39,0,0,1,270,165.92a35.5,35.5,0,0,1,.36,9.8c-2.64.78-5.23,1.63-7.67,2.5-0.13-.08-0.24-0.18-0.36-0.27A33.9,33.9,0,0,1,259,167.72a40.3,40.3,0,0,1-.51-5.06,2.27,2.27,0,0,0,1.34.46A2.92,2.92,0,0,0,262.49,160Z"/><path class="cls-5" d="M258.52,160a13.05,13.05,0,0,1,2.21-3,3.15,3.15,0,0,1,1.75,3,2.92,2.92,0,0,1-2.61,3.15,2.27,2.27,0,0,1-1.34-.46C258.5,161.73,258.49,160.83,258.52,160Z"/><path class="cls-2" d="M272.49,139.44c-6.86,5.1-14.62,11.84-16,17.08l2,1.34s0.88-.37,2.37-0.93a13.84,13.84,0,0,0-4,9.92c0,4.87,2.11,9.1,5.61,11.38-5.35,1.91-9.4,3.9-13.4,5.34v-28l6.82-21.1A50.6,50.6,0,0,1,272.49,139.44Z"/><polygon class="cls-4" points="255.95 134 255.7 134.42 249 155.52 249 134 249 120 255.95 134"/><path class="cls-1" d="M288.26,202.94c-1.09,2.77-2.12,5.43-2.65,6.8-0.25.62-.43,1-0.43,1s-7.18,7.92-13.18,14h0c6-6.13,13-14,13-14S286.68,207,288.26,202.94Z"/><path class="cls-1" d="M251.82,229.42a33,33,0,0,1,11.82,2.34,0.42,0.42,0,0,0,.17,0,0.46,0.46,0,0,1-.27,0A32.44,32.44,0,0,0,251.82,229.42Z"/><path class="cls-1" d="M290.41,193.38c-1.18.09-4,1.86-7.39,3.06C286.56,195.17,289.38,193.26,290.41,193.38Z"/><path class="cls-1" d="M261.45,193.65a22.33,22.33,0,0,1,11,2.68,10.54,10.54,0,0,0,4.7,1.19,10.6,10.6,0,0,1-4.8-1.19A22.22,22.22,0,0,0,261.45,193.65Z"/><path class="cls-1" d="M277.18,197.52h0.35a16.23,16.23,0,0,0,4.47-.74,15.66,15.66,0,0,1-4.47.74h-0.35Z"/><path class="cls-1" d="M290.79,193.67a0.42,0.42,0,0,0-.38-0.29,0.49,0.49,0,0,1,.58.29,2.06,2.06,0,0,1,0,.85l-0.21.18A2.52,2.52,0,0,0,290.79,193.67Z"/><path class="cls-1" d="M263.81,231.78c1.13-.18,4.29-3,7.85-6.6C268,228.85,264.84,231.77,263.81,231.78Z"/><path class="cls-1" d="M249.5,229.5c0.78-.06,1.55-0.09,2.32-0.08C251.05,229.41,250.28,229.44,249.5,229.5Z"/><path class="cls-1" d="M249.5,197.14a26,26,0,0,1,12-3.48A26.14,26.14,0,0,0,249.5,197.14Z"/><path class="cls-1" d="M271.66,225.18l0.4-.41h0Z"/><path class="cls-2" d="M290.79,194.7l0.21-.18a48.15,48.15,0,0,1-2.74,8.43A52.09,52.09,0,0,0,290.79,194.7Z"/><path class="cls-2" d="M285.61,209.75c0.53-1.38,1.56-4,2.65-6.8C287.23,205.72,286.17,208.37,285.61,209.75Z"/><path class="cls-7" d="M306.68,184c0,0.17,0,.33.06,0.5C306.72,184.33,306.71,184.16,306.68,184Z"/><path class="cls-7" d="M306.1,181.39c0,0.14.07,0.28,0.11,0.41C306.17,181.67,306.14,181.52,306.1,181.39Z"/><path class="cls-7" d="M306.43,182.66c0,0.15.06,0.31,0.09,0.46C306.49,183,306.47,182.82,306.43,182.66Z"/><path class="cls-7" d="M290.41,193.38c-1-.12-3.85,1.79-7.39,3.06-0.34.12-.67,0.24-1,0.34a16.23,16.23,0,0,1-4.47.74h-0.35a10.54,10.54,0,0,1-4.7-1.19,23.27,23.27,0,0,0-11.27-2.68c-3.82.09-7.2,1.2-12.2,3.48V183.56c4-1.44,8-3.43,13.4-5.34a126.65,126.65,0,0,1,16-4.61,53.53,53.53,0,0,1,14.41-1.32,25.66,25.66,0,0,1,3.13.43,16.93,16.93,0,0,1,4,1.28c0.29,0.14.57,0.29,0.84,0.44l0.27,0.17,0.51,0.33,0.3,0.22,0.41,0.32,0.3,0.26,0.35,0.32,0.29,0.3,0.3,0.32,0.28,0.34,0.25,0.32,0.27,0.38,0.21,0.31,0.26,0.42,0.16,0.3c0.09,0.16.17,0.31,0.25,0.48l0.12,0.25c0.09,0.18.17,0.36,0.25,0.55l0.06,0.15c0.16,0.39.3,0.8,0.43,1.21,0,0.14.07,0.28,0.11,0.41s0.16,0.57.23,0.86,0.06,0.31.09,0.46,0.11,0.57.16,0.87,0,0.33.06,0.5,0.06,0.46.08,0.69c0.58,5.76-.83,12.54-2.57,18.24A100.19,100.19,0,0,1,300.39,214c-0.47,1.08-.77,1.72-0.77,1.72s-13.83,15.56-22.5,23.64c-3.3,3.07-6.11,5.07-6.87,4.7A44.36,44.36,0,0,0,249,241.12V229.5c1-.06,1.8-0.09,2.57-0.08a33.31,33.31,0,0,1,11.85,2.34,0.71,0.71,0,0,0,.33,0c1,0,4.25-2.93,7.88-6.6l0.42-.4c6.09-6.13,13.15-14,13.15-14s0.15-.36.41-1a2.85,2.85,0,0,1-.62,1s-7,7.92-13,14h0c6-6.13,13.18-14,13.18-14s1.47-3.76,3-7.78a49.51,49.51,0,0,0,2.81-8.43,2.19,2.19,0,0,0,0-.85A0.45,0.45,0,0,0,290.41,193.38Z"/><path class="cls-7" d="M285.18,210.72s-7.18,7.92-13.18,14h0c6-6.13,13-14,13-14a4.62,4.62,0,0,0,.5-1c0.56-1.38,1.56-4,2.59-6.8C286.59,207,285.18,210.72,285.18,210.72Z"/><path class="cls-7" d="M305.67,180.18c0.16,0.39.3,0.8,0.43,1.21C306,181,305.83,180.57,305.67,180.18Z"/><path class="cls-7" d="M306.21,181.8c0.08,0.28.16,0.57,0.23,0.86C306.37,182.37,306.29,182.09,306.21,181.8Z"/><path class="cls-7" d="M306.52,183.13c0.06,0.29.11,0.57,0.16,0.87C306.64,183.7,306.58,183.41,306.52,183.13Z"/><path class="cls-7" d="M306.83,185.19c0-.23-0.05-0.46-0.08-0.69,0,0.23.07,0.46,0.09,0.69h0Z"/><path class="cls-3" d="M261.2,193.65a22.69,22.69,0,0,1,11.05,2.68,10.86,10.86,0,0,0,4.86,1.19h0.39a15.77,15.77,0,0,0,4.49-.74c0.35-.1.69-0.22,1-0.34,3.42-1.2,6.21-3,7.39-3.06a0.42,0.42,0,0,1,.38.29,2.52,2.52,0,0,1,0,1,52.08,52.08,0,0,1-2.53,8.25c-1.58,4-3.25,7.78-3.25,7.78s-6.95,7.92-13,14l-0.4.41c-3.56,3.56-6.72,6.42-7.85,6.6a0.42,0.42,0,0,1-.17,0,34.75,34.75,0,0,0-12.07-2.34c-0.77,0-1.57,0-2.57.08V197.14C254,194.87,257.38,193.75,261.2,193.65Z"/><path class="cls-8" d="M249.75,356a19.11,19.11,0,0,0,19.13-19,18.89,18.89,0,0,0-5.49-13.42L309.47,320l3.05,15.18,1,4.82s-22.66,1-44,32.33c0,0-.53.06-1,0.18-2.67.6-11.47,2.59-19.47,3.75V356A2.48,2.48,0,0,1,249.75,356Z"/><path class="cls-2" d="M249.75,318a2.48,2.48,0,0,1-.75,0v-76.9A44.36,44.36,0,0,1,270.25,244c0.76,0.37,3.44-1.63,6.74-4.7,8.67-8.07,22.56-23.64,22.56-23.64s0.33-.63.8-1.72a99.5,99.5,0,0,0,3.89-10.53c1.73-5.7,3.15-12.48,2.57-18.24h0c0-.23-0.06-0.46-0.09-0.69s0-.34-0.06-0.5-0.1-.58-0.16-0.87-0.06-.31-0.09-0.46-0.15-.58-0.23-0.86-0.07-.28-0.11-0.41c-0.13-.41-0.27-0.82-0.43-1.21l-0.06-.15c-0.08-.19-0.16-0.37-0.25-0.55l-0.12-.25c-0.08-.16-0.16-0.32-0.25-0.48l-0.16-.3-0.26-.42-0.21-.31-0.27-.38-0.25-.32-0.28-.34-0.3-.32-0.29-.3-0.35-.32-0.3-.26-0.41-.32-0.3-.22-0.5-.33-0.27-.17c-0.27-.16-0.54-0.31-0.83-0.44a16.8,16.8,0,0,0-4-1.28c4.89-12.12,18.08-22.75,35.28-27.27-3.39-12.6-4.57-25.59-2.29-35.14a33.3,33.3,0,0,1-8.24-1.94c-3,3-9,4-15.22,2.12-7.76-2.39-12.79-8.41-11.24-13.45,0.93-3,4-5,8-5.57A33.51,33.51,0,1,1,358,98.73c15.47,6.51,33,22.46,42.6,37,14.7,22.3,4.9,32.74-10.9,43.16l-0.7.46c-3.41,14.7-19.19,28.07-40.17,32.42a190.22,190.22,0,0,1,20.43,32.47,57.67,57.67,0,0,1,15.12,6.21c13,7.22,27.77,19.29,38.33,31.44a44.94,44.94,0,0,1,7.86-7.55c9.91-7.52,20.73-9.95,24.16-5.42,2.43,3.2.49,9-4.34,14.81a33.5,33.5,0,1,1-44.88,37.08c-16.92-1.89-37.17-8.34-51.28-16.2-11.45-6.38-16.94-12.61-18.78-18.86-2.49-1.16-5-2.44-7.52-3.79C322.26,303.27,309.5,320,309.5,320l-46.17,3.58A19.23,19.23,0,0,0,249.75,318Z"/><path class="cls-9" d="M249.75,318a19.23,19.23,0,0,1,13.58,5.58A19,19,0,0,1,268.94,337a19.19,19.19,0,0,1-19.22,19,1.76,1.76,0,0,0-.72,0V318A2.48,2.48,0,0,0,249.75,318Z"/><circle class="cls-9" cx="302.75" cy="326.25" r="4.25"/><circle class="cls-9" cx="290.75" cy="330.25" r="4.25"/><circle class="cls-9" cx="278.75" cy="334.25" r="4.25"/><path class="cls-2" d="M269.5,372.33c21.33-31.33,44-32.33,44-32.33l-1-4.82A57.19,57.19,0,0,1,323,339.1c22.89,11,45.81,36.77,38.72,51.52-1,2.11-8.67,14.47-13.38,19.86l-0.61.67a58.16,58.16,0,0,1,12.84,4.55c13.91,6.77,22.79,17.19,19.83,23.27-2.3,4.74-11.11,5.45-21.46,2.34,1.15,2.48,1.37,4.78.46,6.66-3,6.08-16.64,5.53-30.55-1.24-9.77-4.76-17.06-11.31-19.5-16.9a10.25,10.25,0,0,1-4.55-2.22c-5.62-4.91-1-19.83,6.2-33.69A152.36,152.36,0,0,1,281.5,384c-8.59-4.13-12.11-7.78-12.78-11.49Z"/><g class="cls-10"><polygon class="cls-11" points="255.95 134 249 120 249 134 249 155.52 255.7 134.42 255.95 134"/><path class="cls-11" d="M450.38,283.68c4.84-5.79,6.77-11.61,4.34-14.81-3.43-4.52-14.25-2.09-24.16,5.42a44.94,44.94,0,0,0-7.86,7.55c-10.56-12.14-25.37-24.21-38.33-31.44a57.67,57.67,0,0,0-15.12-6.21,190.22,190.22,0,0,0-20.43-32.47c21-4.35,36.76-17.73,40.17-32.42l0.7-.46c15.81-10.42,25.6-20.86,10.9-43.16-9.56-14.51-27.14-30.46-42.6-37a33.49,33.49,0,1,0-55.7-7.26c-4,.59-7.06,2.56-8,5.57-1.55,5,3.48,11.05,11.24,13.45,6.19,1.91,12.24.92,15.22-2.12a33.3,33.3,0,0,0,8.24,1.94c-2.28,9.55-1.1,22.54,2.29,35.14C314.08,150,300.89,160.6,296,172.72a16.8,16.8,0,0,1,4,1.28c0.29,0.14.57,0.29,0.83,0.44l0.27,0.17,0.5,0.33,0.3,0.22,0.41,0.32,0.3,0.26,0.35,0.32,0.29,0.3-0.29-.3-0.35-.32-0.3-.26-0.41-.32-0.3-.22-0.51-.33-0.27-.17c-0.27-.16-0.55-0.31-0.84-0.44a16.93,16.93,0,0,0-4-1.28,25.66,25.66,0,0,0-3.13-.43q-0.81-.06-1.65-0.08c0.58,0,1.15,0,1.71.08,0.06-.76.1-1.52,0.1-2.29a31.35,31.35,0,0,0-6.25-18.6c-1-1.31,2-16-3.15-19.8,0,0-8.46,9.21-11.11,7.85a50.6,50.6,0,0,0-16.67-5L249,155.52v41.62c4.94-2.25,8.31-3.2,12.07-3.3-3.77.11-7.13,1.06-12.07,3.3V229.5c1-.06,1.8-0.09,2.57-0.08h0c-0.77,0-1.57,0-2.57.08V376.26c8-1.16,16.8-3.15,19.47-3.75,0.5-.11,1-0.18,1-0.18,21.33-31.33,44-32.33,44-32.33l-1-4.82L309.47,320h0s12.76-16.73,18.41-38.1c2.52,1.36,5,2.63,7.52,3.79,1.85,6.25,7.33,12.48,18.78,18.86,14.11,7.86,34.36,14.31,51.28,16.2A33.5,33.5,0,1,0,450.38,283.68ZM291,194.09h0c0,0.17-.1.37-0.13,0.59v0C290.9,194.47,291,194.27,291,194.09Zm-0.59-.71a0.42,0.42,0,0,1,.38.29,1.31,1.31,0,0,1,0,.4h0a1.32,1.32,0,0,0-.05-0.41,0.42,0.42,0,0,0-.38-0.29h0Zm-0.3,4.17-0.22.7,0,0.06-0.13.4v0Zm-9.27,17.89c2.54-2.75,4.34-4.73,4.34-4.73h0s0.11-.22.27-0.59l-0.25.59S278.68,218,272.77,224c1.82-1.87,3.69-3.86,5.4-5.73Zm-8.46-18.86c1.57,0.82,3.19.41,4.79,1.41h-0.06c-1.6-1-3.28-.43-4.86-1.26A23.34,23.34,0,0,0,261.41,194h0a1.85,1.85,0,0,1-.2-0.17,2,2,0,0,0,.2.17h0c0.33,0,.66-0.17,1-0.16,0.08,0,.16-0.09.24-0.08a22.9,22.9,0,0,1,5.41.86A25.75,25.75,0,0,1,272.38,196.59ZM269,227.77h0l-1.08,1ZM266.3,155c-1.07.35-2.06,0.69-3,1C264.23,155.68,265.23,155.34,266.3,155Zm-7.61,4.74a13.45,13.45,0,0,1,.77-1.19A14,14,0,0,0,258.68,159.73Zm0,5.23c-0.07-.74-0.12-1.45-0.15-2.16Q258.59,163.85,258.69,165Zm3.6,13,0.28,0.21-0.17.06c-3.5-2.28-5.61-6.52-5.61-11.38A13.54,13.54,0,0,0,262.29,178Zm1.26,53.81a0.45,0.45,0,0,0,.23,0h0a0.71,0.71,0,0,1-.33,0,31.67,31.67,0,0,0-8.69-2.14,39,39,0,0,1,6,1.15A19.41,19.41,0,0,1,263.55,231.76Zm-11.84-2.33h0Zm2.87,0.18-0.69-.06Zm-1.26-.11-0.48,0ZM249.75,356h0a19.22,19.22,0,0,0,11-3.45A19.08,19.08,0,0,1,249.75,356Zm13.64-32.42a18.69,18.69,0,0,1,4,6,19.38,19.38,0,0,0-4.09-6l30.78-2.39Z"/><path class="cls-11" d="M360.6,415.69a58.16,58.16,0,0,0-12.84-4.55l0.61-.67c4.71-5.39,12.36-17.75,13.38-19.86,7.1-14.75-15.82-40.5-38.72-51.52a57.19,57.19,0,0,0-10.49-3.92l1,4.82s-22.67,1-44,32.33l-0.78.18c0.67,3.72,4.18,7.36,12.78,11.49A152.36,152.36,0,0,0,311,393.92c-7.21,13.86-11.82,28.78-6.2,33.69a10.25,10.25,0,0,0,4.55,2.22c2.45,5.59,9.73,12.14,19.5,16.9,13.91,6.77,27.59,7.32,30.55,1.24,0.92-1.88.7-4.18-.46-6.66,10.35,3.11,19.15,2.4,21.46-2.34C383.39,432.88,374.51,422.46,360.6,415.69Z"/></g><path class="cls-2" d="M171.25,465.94V465h5.63v1.88h1.88v1.88h1.88v5.63h-1.87v1.88h-1.87v1.88h-5.62v-1.87h-1.87v-1.87H167.5v-5.62h1.88v-1.87h1.88v-0.94Zm3.75,1.88v-0.94h-3.75v7.5h1.88v1.88h3.75v-7.5H175v-0.94Z"/><path class="cls-2" d="M186.25,465.94V465h7.5v1.88h-5.62v1.88h-1.87v1.88h7.5v1.88h1.88v3.75h-1.87v1.88h-9.37v-1.87H182.5v-7.5h1.88v-1.87h1.88v-0.94Zm5.63,8.44V472.5h-5.62v3.75h5.63v-1.87Z"/><path class="cls-2" d="M199.38,465.94V465h7.5v1.88h1.88v3.75h-1.87v1.88h3.75v3.75h-1.87v1.88h-9.37v-1.87H197.5V472.5h1.88v-1.87H197.5v-3.75h1.88v-0.94Zm3.75,7.5V472.5h-3.75v3.75h7.5v-1.87h-3.75v-0.94Zm3.75-4.69v-1.87h-5.62v1.88h1.88v1.88h3.75v-1.87Z"/><path class="cls-2" d="M227.5,471.56V465h3.75v1.88h1.88v1.88H235v-1.87h1.88V465h3.75v13.13h-3.75V472.5H235v1.88h-1.87V472.5h-1.87v5.63H227.5v-6.56Z"/><path class="cls-2" d="M246.25,465.94V465h5.63v1.88h1.88v1.88h1.88v9.38h-3.75v-3.75h-5.62v3.75H242.5v-9.37h1.88v-1.87h1.88v-0.94Zm3.75,1.88v-0.94h-1.87v1.88h-1.87v3.75h5.63v-3.75H250v-0.94Z"/><path class="cls-2" d="M261.25,465.94V465h7.5v1.88h1.88v1.88h-3.75v-1.87h-3.75v1.88h-1.87v5.63h1.88v1.88h3.75v-1.87h3.75v1.88h-1.87v1.88h-7.5v-1.87h-1.87v-1.87H257.5v-5.62h1.88v-1.87h1.88v-0.94Z"/><path class="cls-2" d="M272.5,471.56V465h3.75v5.63h5.63V465h3.75v13.13h-3.75V472.5h-5.62v5.63H272.5v-6.56Z"/><path class="cls-2" d="M291.25,465.94V465h5.63v1.88h1.88v1.88h1.88v9.38h-3.75v-3.75h-5.62v3.75H287.5v-9.37h1.88v-1.87h1.88v-0.94Zm3.75,1.88v-0.94h-1.87v1.88h-1.87v3.75h5.63v-3.75H295v-0.94Z"/><path class="cls-2" d="M302.5,471.56V465h3.75v1.88h1.88v1.88H310v-1.87h1.88V465h3.75v13.13h-3.75V472.5H310v1.88h-1.87V472.5h-1.87v5.63H302.5v-6.56Z"/><path class="cls-2" d="M317.5,471.56V465h11.25v1.88h1.88v5.63h-1.87v1.88h-7.5v3.75H317.5v-6.56Zm9.38-1.87v-2.81h-5.62v5.63h5.63v-2.81Z"/></svg>