<?xml version="1.0" ?><svg id="pkft" viewBox="0 0 500 500" xmlns="http://www.w3.org/2000/svg"><defs><style>.cls-1{fill:none;}.cls-2{fill:#faf71c;}.cls-3{fill:#fba4a2;}.cls-4{fill:#1d1d1b;}.cls-5{fill:#1a1a1a;}.cls-6{fill:#fff;}.cls-7{fill:#90654e;}.cls-8{fill:#c2fc51;}.cls-9{fill:#a2c747;}.cls-10{opacity:0.1;}.cls-11{fill:#94b236;}</style></defs><title/><path class="cls-1" d="M219.19,187c-1.54-4.69-4.6-13-4.63-13,1.41,3.84,3,8.28,4.53,13C222.11,190.58,222.2,190.56,219.19,187Z"/><path class="cls-1" d="M210,161.24l0-.13h0c0,0.15,3.41,8.75,3.44,8.73C211.64,165.1,210.23,161.88,210,161.24Z"/><path class="cls-2" d="M250,220.31V201h0V120.46a40.46,40.46,0,0,0-40.46,40.46c0,0.07,0,.13,0,0.2l0.24,0.13c0.21,0.64,1.51,3.86,3.31,8.61,0,0-3.49-8.58-3.55-8.73A40.28,40.28,0,0,0,219.08,187c-1.54-4.69-3.11-9.12-4.53-13,0,0,3.09,8.27,4.63,13,3,3.56,2.92,3.58-.1,0,4.16,12.66,8,27.09,7.82,36.21,0,0,0,0,0,0v0s0,0.05,0,.08h0a7.25,7.25,0,0,0,.89,3.31C231.14,223,239.82,220.31,250,220.31Z"/><polygon class="cls-2" points="209.54 161.11 209.55 161.12 209.55 161.11 209.54 161.11"/><path class="cls-3" d="M227.8,226.66a5.06,5.06,0,0,0-1.47,3.38c0,5.37,10.6,9.73,23.67,9.73v-3.65a28.13,28.13,0,0,1-10.64-1.86c-2.57-1.09-4.16-2.58-4.16-4.22,0-3.36,6.63-6.09,14.8-6.09v-3.65C239.82,220.31,231.14,223,227.8,226.66Z"/><path class="cls-4" d="M239.36,234.27A28.13,28.13,0,0,0,250,236.13v-0.46A39.79,39.79,0,0,1,239.36,234.27Z"/><path class="cls-4" d="M235.2,230c0,1.64,1.59,3.13,4.16,4.22a39.79,39.79,0,0,0,10.64,1.4V224C241.82,224,235.2,226.68,235.2,230Z"/><path class="cls-5" d="M235.78,167.87a2,2,0,0,1-.67-3.86,3.61,3.61,0,1,0,2.54,2.54A2,2,0,0,1,235.78,167.87Z"/><path class="cls-6" d="M233.79,165.88a2,2,0,0,0,3.86.67A3.54,3.54,0,0,0,235.1,164,2,2,0,0,0,233.79,165.88Z"/><path class="cls-7" d="M184.83,377.92c-1.87.72-3.51,1.42-4.83,2.08C180,380,181.78,379.21,184.83,377.92Z"/><path class="cls-7" d="M247,239.7c4.5,10.75-2.34,118.3-2.34,118.3-4.47.79-9.37,2-14.41,3.43-5.11-1.27-55.39,6-78.84,9.52,16.72-1.6,44.73-2.5,58.46-2.87-10.42,3.76-19.7,7.57-25.07,9.84,6.78-2.63,16.76-5.54,26.9-8.3C213.81,369,215.9,368,218,368h0v-0.06c4-1,7.86-2.07,11.49-3l-5.94,1.49s-10.54,15.17-13.9,18.64c3.24-3,18.09-16.74,19.85-20.16C241.1,362,250,360,250,360V239.77Z"/><path class="cls-7" d="M209.64,385.08l-0.64.58A5.17,5.17,0,0,0,209.64,385.08Z"/><path class="cls-7" d="M151.43,370.94a70.8,70.8,0,0,0-11.93,1.81S144.19,372,151.43,370.94Z"/><path class="cls-8" d="M242.81,264.54a68.52,68.52,0,0,0,5.68-9.06s-64-50.48-88.49,21a35.32,35.32,0,0,1,7.84-4C190.31,236.09,228.47,255.38,242.81,264.54Z"/><path class="cls-9" d="M197,270c20.14,3.5,32.61,12,45.81-5.46-14.34-9.16-52.5-28.45-75,7.94A54.63,54.63,0,0,1,197,270Z"/><path class="cls-1" d="M279.31,187c1.54-4.69,4.6-13,4.63-13-1.41,3.84-3,8.28-4.53,13C276.39,190.58,276.3,190.56,279.31,187Z"/><path class="cls-1" d="M288.23,161.24l-0.23-.13h0c0,0.15-3.29,8.75-3.32,8.73C286.48,165.1,288,161.88,288.23,161.24Z"/><path class="cls-2" d="M248,220.31V201h0V120.46a40.26,40.26,0,0,1,40.71,40.46c0,0.07.12,0.13,0.12,0.2l-0.18.13c-0.21.64-1.48,3.86-3.28,8.61,0,0,3.51-8.58,3.57-8.73A40.28,40.28,0,0,1,279.41,187c1.54-4.69,3.12-9.12,4.53-13,0,0-3.09,8.27-4.63,13-3,3.56-2.92,3.58.11,0-4.16,12.66-8,27.09-7.82,36.21,0,0,0,0,0,0v0s0,0.05,0,.08h0a7.62,7.62,0,0,1-1.14,3.31C267.11,223,259,220.31,248,220.31Z"/><polygon class="cls-2" points="288.96 161.11 288.95 161.12 288.95 161.11 288.96 161.11"/><path class="cls-3" d="M270.45,226.66A4.9,4.9,0,0,1,271.8,230c0,5.37-9.8,9.73-23.8,9.73v-3.65a26.57,26.57,0,0,0,10.89-1.86c2.57-1.09,4-2.58,4-4.22,0-3.36-5.93-6.09-14.93-6.09v-3.65C259,220.31,267.11,223,270.45,226.66Z"/><path class="cls-4" d="M258.64,234.27A25.26,25.26,0,0,1,248,236.13v-0.46A38.92,38.92,0,0,0,258.64,234.27Z"/><path class="cls-4" d="M263.05,230c0,1.64-1.71,3.13-4.29,4.22a39.86,39.86,0,0,1-10.77,1.4V224C257,224,263.05,226.68,263.05,230Z"/><path class="cls-5" d="M262.72,167.87a2,2,0,0,0,.67-3.86,3.61,3.61,0,1,1-2.54,2.54A2,2,0,0,0,262.72,167.87Z"/><path class="cls-6" d="M264.71,165.88a2,2,0,0,1-3.86.67A3.54,3.54,0,0,1,263.4,164,2,2,0,0,1,264.71,165.88Z"/><path class="cls-7" d="M313.67,377.92c1.87,0.72,3.51,1.42,4.83,2.08C318.5,380,316.72,379.21,313.67,377.92Z"/><path class="cls-7" d="M251.23,239.7c-4.5,10.75,2.47,118.3,2.47,118.3,4.47,0.79,9.43,2,14.48,3.43,5.11-1.27,55.42,6,78.87,9.52-16.72-1.6-44.72-2.5-58.45-2.87,10.42,3.76,19.71,7.57,25.07,9.84-6.78-2.63-16.76-5.54-26.89-8.3-2.09-.57-4.18-1.61-6.25-1.61h0v-0.06c-4-1-7.86-2.07-11.49-3l5.94,1.49s10.54,15.17,13.9,18.64c-3.24-3-18.34-16.74-20.1-20.16C257.15,362,248,360,248,360V239.77Z"/><path class="cls-7" d="M288.86,385.08l0.64,0.58A5.17,5.17,0,0,1,288.86,385.08Z"/><path class="cls-7" d="M347.07,370.94A70.8,70.8,0,0,1,359,372.75S354.31,372,347.07,370.94Z"/><path class="cls-8" d="M255.69,264.54a68.52,68.52,0,0,1-5.68-9.06s64-50.48,88.49,21a35.32,35.32,0,0,0-7.84-4C308.19,236.09,270,255.38,255.69,264.54Z"/><path class="cls-9" d="M301.5,270c-20.14,3.5-32.61,12-45.81-5.46,14.34-9.16,52.5-28.45,75,7.94A54.63,54.63,0,0,0,301.5,270Z"/><g class="cls-10"><polygon class="cls-5" points="288.95 161.11 288.95 161.12 288.96 161.11 288.95 161.11"/><path class="cls-5" d="M318.5,380c-1.32-.66-3-1.36-4.83-2.08C316.72,379.21,318.5,380,318.5,380Z"/><path class="cls-5" d="M268.17,361.43c-5-1.44-10-2.63-14.48-3.43,0,0-7-107.55-2.47-118.3H251c12.39-.57,20.82-4.68,20.82-9.66a4.9,4.9,0,0,0-1.34-3.38,7.62,7.62,0,0,0,1.14-3.31h0s0-.05,0-0.07v0s0,0,0,0c-0.23-9.12,3.66-23.55,7.82-36.21h0v0a40.27,40.27,0,0,0,9.52-25.86c-0.06.15-3.54,8.75-3.57,8.73,1.8-4.75,3.07-8,3.28-8.61l0.18-.13c0-.07-0.12-0.13-0.12-0.2A40.26,40.26,0,0,0,248,120.46V236.13a25.4,25.4,0,0,0,10.45-1.79l0.32-.08a10.52,10.52,0,0,0,3.11-1.91,9.05,9.05,0,0,1-3,1.91A26.57,26.57,0,0,1,248,236.13V240h0V360s9.15,2,20.77,4.93c1.75,3.41,16.85,17.17,20.1,20.16-3.27-3.38-13.32-17.82-13.87-18.6l5.52,1.45V368h0c2.07,0,4.16,1,6.25,1.62,10.14,2.76,20.11,5.68,26.89,8.3-5.36-2.27-14.66-6.08-25.07-9.84,13.73,0.37,41.73,1.27,58.45,2.87C323.59,367.44,273.28,360.16,268.17,361.43ZM279.31,187c1.54-4.69,4.6-13,4.63-13l0,0.05c-0.24.57-3.12,8.39-4.61,12.91-1.49,1.77-2.22,2.66-2.21,2.68S277.79,188.8,279.31,187Z"/><path class="cls-5" d="M289.5,385.67l-0.64-.58A5.17,5.17,0,0,0,289.5,385.67Z"/><path class="cls-5" d="M347.07,370.94c7.24,1.08,11.93,1.81,11.93,1.81A70.8,70.8,0,0,0,347.07,370.94Z"/><path class="cls-5" d="M255.69,264.54c13.2,17.42,25.67,9,45.81,5.46a54.63,54.63,0,0,1,29.16,2.48,35.32,35.32,0,0,1,7.84,4c-24.5-71.5-88.49-21-88.49-21A68.52,68.52,0,0,0,255.69,264.54Z"/></g><path class="cls-11" d="M148.75,465.94V465h5.63v1.88h1.88v1.88h1.88v5.63h-1.87v1.88h-1.87v1.88h-5.62v-1.87h-1.87v-1.87H145v-5.62h1.88v-1.87h1.88v-0.94Zm3.75,1.88v-0.94h-3.75v7.5h1.88v1.88h3.75v-7.5H152.5v-0.94Z"/><path class="cls-11" d="M163.75,465.94V465h7.5v1.88h-5.62v1.88h-1.87v1.88h7.5v1.88h1.88v3.75h-1.87v1.88h-9.37v-1.87H160v-7.5h1.88v-1.87h1.88v-0.94Zm5.63,8.44V472.5h-5.62v3.75h5.63v-1.87Z"/><path class="cls-11" d="M176.88,465.94V465h9.38v1.88h1.88v7.5h-1.87v1.88h-1.87v1.88h-7.5v-1.87h5.63v-1.87h1.88V472.5h-7.5v-1.87H175v-3.75h1.88v-0.94Zm7.5,2.81v-1.87h-5.62v3.75h5.63v-1.87Z"/><path class="cls-11" d="M205,471.56V465h11.25v1.88h1.88v3.75h-1.87v1.88h1.88v3.75h-1.87v1.88H205v-6.56Zm9.38-2.81v-1.87h-5.62v3.75h5.63v-1.87Zm0,5.63V472.5h-5.62v3.75h5.63v-1.87Z"/><path class="cls-11" d="M220,471.56V465h13.13v1.88h-9.37v3.75h7.5v1.88h-7.5v3.75h9.38v1.88H220v-6.56Z"/><path class="cls-11" d="M236.88,471.56V465h3.75v11.25h7.5v1.88H236.88v-6.56Z"/><path class="cls-11" d="M251.88,471.56V465h3.75v11.25h7.5v1.88H251.88v-6.56Z"/><path class="cls-11" d="M266.88,465.94V465h7.5v1.88h1.88v1.88H272.5v-1.87h-3.75v3.75h7.5v1.88h1.88v3.75h-1.87v1.88h-9.37v-1.87H265v-1.87h3.75v1.88h5.63V472.5h-7.5v-1.87H265v-3.75h1.88v-0.94Z"/><path class="cls-11" d="M280,471.56V465h11.25v1.88h1.88v5.63h-1.87v1.88h-7.5v3.75H280v-6.56Zm9.38-1.87v-2.81h-5.62v5.63h5.63v-2.81Z"/><path class="cls-11" d="M295,471.56V465h11.25v1.88h1.88v5.63h-3.75v1.88h1.88v1.88h1.88v1.88H302.5v-1.87h-1.87v-1.87h-1.87v3.75H295v-6.56Zm9.38-2.81v-1.87h-5.62v5.63h3.75v-1.87h1.88v-1.87Z"/><path class="cls-11" d="M311.88,465.94V465h9.38v1.88h1.88v9.38h-1.87v1.88h-9.37v-1.87H310v-9.37h1.88v-0.94Zm7.5,5.63v-4.69h-5.62v9.38h5.63v-4.69Z"/><path class="cls-11" d="M325,470.63V465h3.75v11.25h5.63V465h3.75v11.25h-1.87v1.88h-9.37v-1.87H325v-5.62Z"/><path class="cls-11" d="M341.88,465.94V465h11.25v1.88h-3.75v11.25h-3.75V466.88h-3.75v-0.94Z"/></svg>