<?xml version="1.0" ?><svg id="pkft" viewBox="0 0 500 500" xmlns="http://www.w3.org/2000/svg"><defs><style>.cls-1{fill:#f9e780;}.cls-2{fill:#fff;}.cls-3{fill:#73b6c7;}.cls-4{fill:#b3b3b3;}.cls-5{fill:#84c7d7;}.cls-6{fill:#91621b;}.cls-7{fill:#df817f;}.cls-8{fill:#bf3434;}.cls-10,.cls-9{fill:#1d1d1b;}.cls-10{opacity:0.1;}</style></defs><title/><path class="cls-1" d="M249,336c-0.41,0-5.76.18-11.81,0.18-2.2,0-4.47,0-6.65-.08A56.25,56.25,0,0,0,249.37,340c0.22,0-.09,0,0.13,0a1.93,1.93,0,0,0,.5,0V335A1,1,0,0,1,249,336Z"/><path class="cls-1" d="M250.77,336c0.41,0,5.64.18,11.69,0.18,2.2,0,4.42,0,6.59-.08A56.43,56.43,0,0,1,250.18,340c-0.22,0,.32,0,0.1,0s-0.28,0-.28,0V335A0.84,0.84,0,0,0,250.77,336Z"/><path class="cls-2" d="M211.65,168.7l-0.11.11h0Z"/><path class="cls-2" d="M211.56,168.79h0a5.89,5.89,0,0,0-.41.46Z"/><path class="cls-3" d="M202.78,316.94c-11.21,13.65-6.56,42.58-6.56,42.58a1,1,0,0,1-.26.83l-5.44,5.15c-0.2.19-.14,0.35,0.14,0.37l5.83,0.28a0.64,0.64,0,0,1,.57.52l0.69,4.68a0.49,0.49,0,0,0,.57.41l10.18-1.67a2.21,2.21,0,0,1,1,.1l6.56,2.48a1,1,0,0,0,.86-0.13l11.71-9.22a0.8,0.8,0,0,0,.25-0.79l-3.55-12a1.24,1.24,0,0,1,.13-0.9s4.09-6.29,4.57-12.75A58.45,58.45,0,0,1,202.78,316.94Z"/><path class="cls-4" d="M250,339.93l-0.62,0a50.9,50.9,0,0,1-19.14-4.4A56.36,56.36,0,0,1,205.73,314,63.5,63.5,0,0,1,196,280a62.57,62.57,0,0,1,16.32-42.62q-1.2-1.07-2.34-2.21a61.22,61.22,0,0,0-7.2,81.77A58.45,58.45,0,0,0,230,336.83a56.7,56.7,0,0,0,18.7,3.17"/><path class="cls-5" d="M196.42,192.42a91.33,91.33,0,0,0,1.69,26.7,61.63,61.63,0,0,0,11.76,16c0.76,0.76,1.6,1.5,2.4,2.21,0.18,0.16-.1.32,0.08,0.48,10.53,9.22,23.66,14.84,37.66,15V130C220,130.32,196.42,158.14,196.42,192.42Z"/><path class="cls-1" d="M248,334V309.9q-3.77.21-7.08,0.21c-18.55,0-28.31-4.45-29.88-5.28a70.18,70.18,0,0,0-4.77,10.12,56.8,56.8,0,0,0,20.52,18.92C233.56,334.37,244.68,334.12,248,334Z"/><path class="cls-1" d="M199.24,259.17A65.35,65.35,0,0,0,195.88,280a63.58,63.58,0,0,0,9,32.83,74.28,74.28,0,0,1,4.61-9.4C201.86,292.13,199.59,264.15,199.24,259.17Z"/><path class="cls-1" d="M211.53,302.78a1,1,0,0,1,.06.12,1,1,0,0,1,.35.15c0.14,0.09,11.59,6.22,36.06,4.84v-36c-5.87-.54-36.62-3.7-46.62-11.07C202.05,268.8,204.64,293.37,211.53,302.78Z"/><path class="cls-1" d="M212.37,237.86c-0.18-.16-0.12-0.32-0.3-0.48a60,60,0,0,0-12.21,20.06,1,1,0,0,1,1.11.32c6.9,8.69,47.7,12.22,48.11,12.25a1,1,0,0,1,.92,1V252.82C236,252.7,222.9,247.08,212.37,237.86Z"/><path class="cls-6" d="M199.83,257.44a1,1,0,0,0-.64,1c0,0.1,0,.36,0,0.73,0.2-.58.41-1.16,0.63-1.73h0Z"/><path class="cls-6" d="M249.6,270c-0.41,0-41.73-3.61-48.63-12.29a1,1,0,0,0-1.11-.32c-0.21.58-.43,1.15-0.63,1.73,0.35,5,2.62,33,10.29,44.25a74.28,74.28,0,0,0-4.61,9.4c0.24,0.41.49,0.81,0.74,1.21s0.4,0.6.6,0.91A70.18,70.18,0,0,1,211,304.82c1.58,0.83,11.34,5.28,29.88,5.28q3.31,0,7.08-.21V334c-3.32.09-14.44,0.34-21.22-.16,1.13,0.6,2.28,1.17,3.45,1.69,0.43,0.19.86,0.36,1.3,0.54,2.06,0.06,4.23.08,6.31,0.08,5.73,0,10.8-.17,11.2-0.18a1,1,0,0,0,1-1V271C250,270.48,250.12,270.09,249.6,270ZM248,307.89c-24.47,1.38-35.92-4.75-36.06-4.84a1,1,0,0,0-.35-0.15,1,1,0,0,0-.06-0.12c-6.89-9.42-9.47-34-10.15-41.94,10,7.37,40.75,10.53,46.62,11.07v36Z"/><path class="cls-5" d="M217.25,252.75a17,17,0,0,0-26-14.37C179.17,242.83,162,259,162,259l-12.48,2.87L144.8,270l7.2,3.68-2.48,9,12.48,2.1s16.75-5.25,30-3.75c10.8,1.22,22.92-14.81,23.25-20.25A16.92,16.92,0,0,0,217.25,252.75Z"/><path class="cls-7" d="M233.88,243.15A57.79,57.79,0,0,0,250,245.72V241A66.93,66.93,0,0,1,233.88,243.15Z"/><path class="cls-7" d="M250,226.06a68.52,68.52,0,0,0-17.76-2.15c-9.61,0-18.09,1.64-23.19,4.14a60.52,60.52,0,0,0,24.83,15.09A66.93,66.93,0,0,0,250,241v-15Z"/><path class="cls-2" d="M212.13,169.27a5.89,5.89,0,0,1,.41-0.46c-5.41,2.43-9.89,13-10.52,25.82a57.17,57.17,0,0,0,.54,11.41,17.83,17.83,0,0,0,5,5.12A52.07,52.07,0,0,1,205,194.42C205,183.59,207.88,174.17,212.13,169.27Z"/><path class="cls-8" d="M223.49,208.91a55.59,55.59,0,0,0,2.17-13.12c0.49-10-1.48-18.88-4.82-23.69a7.63,7.63,0,0,1,.17,1.57,6.38,6.38,0,0,1-3.39,5.92c2.17,1.54,3.73,5.8,3.73,10.82,0,6.32-2.47,11.44-5.51,11.44s-5.51-5.12-5.51-11.44c0-5,1.56-9.28,3.73-10.82a6.38,6.38,0,0,1-3.39-5.92,7.08,7.08,0,0,1,1.47-4.4c-4.25,4.9-7.13,14.33-7.13,25.15a52.07,52.07,0,0,0,2.59,16.74,11.9,11.9,0,0,0,5.92,2C217.13,213.31,220.57,211.74,223.49,208.91Z"/><path d="M214.06,179.6c-2.17,1.54-3.73,5.8-3.73,10.82,0,6.32,2.47,11.44,5.51,11.44s5.51-5.12,5.51-11.44c0-5-1.56-9.28-3.73-10.82A4.23,4.23,0,0,1,214.06,179.6Z"/><path class="cls-2" d="M215.16,168.28a5.67,5.67,0,0,0-2.59.52l-0.43.47a7.08,7.08,0,0,0-1.47,4.4,6.38,6.38,0,0,0,3.39,5.92,2.85,2.85,0,0,1,3.56,0,6.38,6.38,0,0,0,3.39-5.92,7.63,7.63,0,0,0-.17-1.57C219.22,169.77,217.29,168.38,215.16,168.28Z"/><path class="cls-2" d="M214.06,179.6a4.23,4.23,0,0,0,3.56,0A2.85,2.85,0,0,0,214.06,179.6Z"/><path class="cls-9" d="M242.31,223.45c0.71,0.5,1.42.5,1.59,0a1.39,1.39,0,0,0-1.2-1.39l-3-1c-0.82-.27-0.91-0.09-0.21.41Z"/><path class="cls-9" d="M228.13,173.5a0.5,0.5,0,0,1-.47-0.34c-1.2-3.47-6.17-9.59-6-9.4s5.64,5.38,6.91,9.07a0.5,0.5,0,0,1-.31.64Z"/><path class="cls-3" d="M297,316.94c11.21,13.65,6.56,42.58,6.56,42.58a1,1,0,0,0,.26.83l5.44,5.15c0.2,0.19.14,0.35-.14,0.37l-5.83.28a0.64,0.64,0,0,0-.57.52l-0.69,4.68a0.49,0.49,0,0,1-.57.41l-10.18-1.67a2.21,2.21,0,0,0-1,.1l-6.56,2.48a1,1,0,0,1-.86-0.13l-11.71-9.22a0.8,0.8,0,0,1-.25-0.79l3.55-12a1.24,1.24,0,0,0-.13-0.9s-4.09-6.29-4.57-12.75A58.45,58.45,0,0,0,297,316.94Z"/><path class="cls-4" d="M249.8,339.93l0.62,0a50.9,50.9,0,0,0,19.14-4.4A56.36,56.36,0,0,0,294.09,314a63.5,63.5,0,0,0,9.73-34,62.57,62.57,0,0,0-16.32-42.62q1.2-1.07,2.34-2.21a61.22,61.22,0,0,1,7.2,81.77,58.45,58.45,0,0,1-27.23,19.89,56.7,56.7,0,0,1-18.7,3.17"/><path class="cls-5" d="M303.49,192.42a92.35,92.35,0,0,1-1.73,26.7,61.71,61.71,0,0,1-11.78,16c-0.76.76-1.61,1.5-2.41,2.21-0.18.16,0.19,0.32,0,.48C277,247.08,264,252.7,250,252.82V130C280,130.32,303.49,158.14,303.49,192.42Z"/><path class="cls-1" d="M252,334V309.9c2,0.14,4.78.21,7,.21,18.55,0,28.26-4.45,29.84-5.28a70.56,70.56,0,0,1,4.75,10.12,56.58,56.58,0,0,1-20.45,18.92C266.36,334.37,255,334.12,252,334Z"/><path class="cls-1" d="M300.58,259.17A65.35,65.35,0,0,1,303.94,280a63.58,63.58,0,0,1-9,32.83,74.28,74.28,0,0,0-4.61-9.4C298,292.13,300.23,264.15,300.58,259.17Z"/><path class="cls-1" d="M288.29,302.78a1,1,0,0,0-.06.12,0.63,0.63,0,0,0-.26.15c-0.14.09-12,6.22-36,4.84v-36c6-.54,36.53-3.7,46.53-11.07C297.86,268.8,295.18,293.37,288.29,302.78Z"/><path class="cls-1" d="M287.54,237.86c0.18-.16.07-0.32,0.25-0.48A60,60,0,0,1,300,257.43a1,1,0,0,0-1.12.32c-6.9,8.69-47.62,12.22-48,12.25a0.93,0.93,0,0,0-.83,1V252.82C264,252.7,277,247.08,287.54,237.86Z"/><path class="cls-6" d="M300,257.44a1,1,0,0,1,.64,1c0,0.1,0,.36,0,0.73-0.2-.58-0.41-1.16-0.63-1.73h0Z"/><path class="cls-6" d="M250,271v64a0.93,0.93,0,0,0,.88,1c0.39,0,5.42.18,11.15,0.18,2.08,0,4.22,0,6.28-.08l1.29-.54c1.17-.52,2.4-1.09,3.53-1.69-6.77.51-18.13,0.26-21.13,0.16V309.9c2,0.14,4.78.21,7,.21,18.55,0,28.26-4.45,29.84-5.28a70.56,70.56,0,0,1,4.75,10.12l0.58-.91c0.25-.4.49-0.81,0.73-1.21a74.19,74.19,0,0,0-4.61-9.4c7.67-11.29,9.94-39.28,10.29-44.25-0.2-.58-0.41-1.16-0.63-1.73a1,1,0,0,0-1.11.32c-6.9,8.69-48.13,12.26-48.54,12.29S250,270.48,250,271Zm2,0.92c6-.54,36.53-3.7,46.53-11.07-0.67,8-3.31,32.52-10.19,41.94l-0.08.12a0.67,0.67,0,0,0-.27.15c-0.14.09-12,6.22-36,4.84v-36Z"/><path class="cls-5" d="M282.57,252.75a17,17,0,0,1,26-14.37c12,4.45,29.2,20.62,29.2,20.62l12.48,2.87L355,270l-7.2,3.68,2.48,9-12.48,2.1s-16.75-5.25-30-3.75c-10.8,1.22-22.92-14.81-23.25-20.25A16.92,16.92,0,0,1,282.57,252.75Z"/><path class="cls-7" d="M266.12,243.15A61.43,61.43,0,0,1,250,245.72V241A63.85,63.85,0,0,0,266.12,243.15Z"/><path class="cls-7" d="M250,226.06a68.63,68.63,0,0,1,17.67-2.15c9.61,0,18,1.64,23.15,4.14a60.29,60.29,0,0,1-24.76,15.09A63.27,63.27,0,0,1,250,241v-15Z"/><path class="cls-2" d="M287.69,169.27a5.89,5.89,0,0,0-.41-0.46c5.41,2.43,9.89,13,10.52,25.82a57.17,57.17,0,0,1-.54,11.41,17.83,17.83,0,0,1-5,5.12,52.07,52.07,0,0,0,2.59-16.74C294.82,183.59,291.94,174.17,287.69,169.27Z"/><path class="cls-8" d="M276.33,208.91a55.59,55.59,0,0,1-2.17-13.12c-0.49-10,1.48-18.88,4.82-23.69a7.63,7.63,0,0,0-.17,1.57,6.38,6.38,0,0,0,3.39,5.92c-2.17,1.54-3.73,5.8-3.73,10.82,0,6.32,2.47,11.44,5.51,11.44s5.51-5.12,5.51-11.44c0-5-1.56-9.28-3.73-10.82a6.38,6.38,0,0,0,3.39-5.92,7.08,7.08,0,0,0-1.47-4.4c4.25,4.9,7.13,14.33,7.13,25.15a52.07,52.07,0,0,1-2.59,16.74,11.9,11.9,0,0,1-5.92,2C282.69,213.31,279.25,211.74,276.33,208.91Z"/><path d="M285.76,179.6c2.17,1.54,3.73,5.8,3.73,10.82,0,6.32-2.47,11.44-5.51,11.44s-5.51-5.12-5.51-11.44c0-5,1.56-9.28,3.73-10.82A4.23,4.23,0,0,0,285.76,179.6Z"/><path class="cls-2" d="M284.66,168.28a5.67,5.67,0,0,1,2.59.52l0.43,0.47a7.08,7.08,0,0,1,1.47,4.4,6.38,6.38,0,0,1-3.39,5.92,2.85,2.85,0,0,0-3.56,0,6.38,6.38,0,0,1-3.39-5.92,7.63,7.63,0,0,1,.17-1.57C280.6,169.77,282.53,168.38,284.66,168.28Z"/><path class="cls-2" d="M285.76,179.6a4.23,4.23,0,0,1-3.56,0A2.85,2.85,0,0,1,285.76,179.6Z"/><path class="cls-9" d="M257.51,223.45c-0.71.5-1.42,0.5-1.59,0a1.39,1.39,0,0,1,1.2-1.39l3-1c0.82-.27.91-0.09,0.21,0.41Z"/><path class="cls-9" d="M271.69,173.5a0.5,0.5,0,0,0,.47-0.34c1.2-3.47,6.17-9.59,6-9.4s-5.64,5.38-6.91,9.07a0.5,0.5,0,0,0,.31.64Z"/><path class="cls-10" d="M355,270l-4.72-8.13L337.82,259s-17.17-16.17-29.2-20.62a16.87,16.87,0,0,0-16.43-.92q-1.11-1.14-2.28-2.22l0.07-.07a61.71,61.71,0,0,0,11.78-16,92.35,92.35,0,0,0,1.73-26.7c0-34.28-23.49-62.1-53.49-62.4V270.2a2.35,2.35,0,0,0,0,.8v64a0.93,0.93,0,0,0,.88,1c0.39,0,5.42.18,11.15,0.18,2.06,0,4.18,0,6.23-.08A50.78,50.78,0,0,1,250.42,340l-0.62,0,1.31,0.07a56.7,56.7,0,0,0,18.7-3.17c0.48,6.46,4.57,12.75,4.57,12.75a1.24,1.24,0,0,1,.13.9l-3.55,12a0.8,0.8,0,0,0,.25.79l11.71,9.22a1,1,0,0,0,.86.13l6.56-2.48a2.21,2.21,0,0,1,1-.1l10.18,1.67a0.49,0.49,0,0,0,.57-0.41l0.69-4.68a0.64,0.64,0,0,1,.57-0.52l5.83-.28c0.27,0,.34-0.18.14-0.37l-5.44-5.15a1,1,0,0,1-.26-0.83s4.65-28.93-6.56-42.58a60.81,60.81,0,0,0,12.35-36.08c13-1,28.43,3.89,28.43,3.89l12.48-2.1-2.48-9Zm-67.47-32.57,0.13,0.15a0.79,0.79,0,0,1-.06.17A0.7,0.7,0,0,1,287.55,237.43ZM288,303a0.63,0.63,0,0,1,.26-0.15,1,1,0,0,1,.06-0.12c4-5.51,6.61-16.19,8.2-25.7h0c-1.58,9.51-4.15,20.19-8.17,25.69l-0.08.12a0.67,0.67,0,0,0-.27.15c-0.13.08-9.87,5.13-29.55,5C278.12,308.18,287.85,303.13,288,303Zm-36,31c1.69,0.05,6,.15,10.69.14C258,334.18,253.69,334.08,252,334Z"/><path class="cls-3" d="M163.75,465.94V465h5.63v1.88h1.88v1.88h1.88v5.63h-1.87v1.88h-1.87v1.88h-5.62v-1.87h-1.87v-1.87H160v-5.62h1.88v-1.87h1.88v-0.94Zm3.75,1.88v-0.94h-3.75v7.5h1.88v1.88h3.75v-7.5H167.5v-0.94Z"/><path class="cls-3" d="M178.75,465.94V465h5.63v1.88h1.88v1.88h1.88v5.63h-1.87v1.88h-1.87v1.88h-5.62v-1.87h-1.87v-1.87H175v-5.62h1.88v-1.87h1.88v-0.94Zm3.75,1.88v-0.94h-3.75v7.5h1.88v1.88h3.75v-7.5H182.5v-0.94Z"/><path class="cls-3" d="M190,466.88V465h13.13v3.75h-1.87v1.88h-1.87v1.88H197.5v5.63h-3.75V472.5h1.88v-1.87h1.88v-1.87h1.88v-1.87h-5.62v1.88H190v-1.87Z"/><path class="cls-3" d="M221.88,465.94V465h7.5v1.88h1.88v1.88H227.5v-1.87h-3.75v3.75h7.5v1.88h1.88v3.75h-1.87v1.88h-9.37v-1.87H220v-1.87h3.75v1.88h5.63V472.5h-7.5v-1.87H220v-3.75h1.88v-0.94Z"/><path class="cls-3" d="M236.88,465.94V465h9.38v1.88h1.88v7.5h-1.87v1.88h1.88v1.88h-1.87v-1.87h-1.87v1.88h-7.5v-1.87H235v-9.37h1.88v-0.94Zm7.5,3.75v-2.81h-5.62v9.38h3.75v-1.87h-1.87V472.5h3.75v-2.81Z"/><path class="cls-3" d="M250,470.63V465h3.75v11.25h5.63V465h3.75v11.25h-1.87v1.88h-9.37v-1.87H250v-5.62Z"/><path class="cls-3" d="M266.88,465.94V465h11.25v1.88h-3.75v9.38h3.75v1.88H266.88v-1.87h3.75v-9.37h-3.75v-0.94Z"/><path class="cls-3" d="M280,471.56V465h11.25v1.88h1.88v5.63h-3.75v1.88h1.88v1.88h1.88v1.88H287.5v-1.87h-1.87v-1.87h-1.87v3.75H280v-6.56Zm9.38-2.81v-1.87h-5.62v5.63h3.75v-1.87h1.88v-1.87Z"/><path class="cls-3" d="M296.88,465.94V465h11.25v1.88h-3.75v11.25h-3.75V466.88h-3.75v-0.94Z"/><path class="cls-3" d="M311.88,471.56V465h3.75v11.25h7.5v1.88H311.88v-6.56Z"/><path class="cls-3" d="M325,471.56V465h13.13v1.88h-9.37v3.75h7.5v1.88h-7.5v3.75h9.38v1.88H325v-6.56Z"/></svg>