<?xml version="1.0" ?><svg id="pkft" viewBox="0 0 500 500" xmlns="http://www.w3.org/2000/svg"><defs><style>.cls-1{fill:#ebea6f;}.cls-2{fill:#e7babc;}.cls-3,.cls-9{fill:#1a1a1a;}.cls-4{fill:#88576f;}.cls-5{fill:#fff;}.cls-6{fill:#79b67e;}.cls-7{fill:#afa08c;}.cls-8{fill:#98a544;}.cls-9{opacity:0.1;}</style></defs><title/><path class="cls-1" d="M232.25,133c-1.54,1-3.39,10.74-4.15,15a50.06,50.06,0,0,0-28.17,45c0,6.79-1.93,23-4.93,42.4h0c-6,39.28-14.07,91.92-14.07,107.6a50.58,50.58,0,0,0,1.88,13.77c12.74-11,38-18.5,67.19-18.75V133H232.25ZM220,179.51a3.51,3.51,0,1,1-3.51,3.51A3.51,3.51,0,0,1,220,179.51ZM219,287a24.67,24.67,0,1,1,24.67-24.67A24.67,24.67,0,0,1,219,287Zm23.33-74a2.67,2.67,0,1,1-2.67-2.67A2.67,2.67,0,0,1,242.33,213Z"/><path class="cls-2" d="M201.44,381.55a42.8,42.8,0,0,1-18.6-24.77C177.21,361.63,174,367.15,174,373c0,19.1,33.89,34.62,76,35V395.8C225,395.57,204.62,389.44,201.44,381.55Z"/><path class="cls-2" d="M201.44,381.55a5.73,5.73,0,0,1-.44-2.15c0-2.91,2.33-5.63,6.41-8,8.41-4.88,24.28-8.22,42.59-8.4V338c-29.19.25-54.42,7.78-67.16,18.75A42.8,42.8,0,0,0,201.44,381.55Z"/><path class="cls-3" d="M201,379.4a5.73,5.73,0,0,0,.44,2.15c3.18,7.89,23.59,14,48.56,14.25v-16c-18.32-.17-34.18-3.51-42.59-8.4C203.33,373.77,201,376.5,201,379.4Z"/><path class="cls-4" d="M250,379.8V363c-18.32.17-34.18,3.51-42.59,8.4C215.82,376.29,231.68,379.62,250,379.8Z"/><path class="cls-5" d="M219,237.68a24.67,24.67,0,1,0,24.67,24.67A24.67,24.67,0,0,0,219,237.68ZM224,283a15.67,15.67,0,1,1,15.67-15.67A15.67,15.67,0,0,1,224,283Z"/><circle class="cls-3" cx="224" cy="267.34" r="15.67"/><path class="cls-6" d="M100,223s40,0.67,40,17.33,35.26,64.13,55.13-4.94h0S149.67,177,100,223Z"/><polygon class="cls-7" points="245 92 240 133 250 133 250 92 245 92"/><circle class="cls-8" cx="220.03" cy="183.02" r="3.51"/><circle class="cls-8" cx="239.67" cy="213.01" r="2.67"/><path class="cls-1" d="M260,133H250V338c29,0.25,54.42,7.78,67.16,18.75A50.57,50.57,0,0,0,319,343c0-15.68-8.5-68.32-14.13-107.6h0C302.08,216,300,199.8,300,193a50,50,0,0,0-28.1-45c-0.76-4.3-2.6-14-4.15-15H260Zm23.48,50a3.51,3.51,0,1,1-3.51-3.51A3.51,3.51,0,0,1,283.48,183Zm-27.14,79.32A24.67,24.67,0,1,1,281,287,24.67,24.67,0,0,1,256.33,262.34Zm4-52a2.67,2.67,0,1,1-2.67,2.67A2.67,2.67,0,0,1,260.33,210.34Z"/><path class="cls-2" d="M298.56,381.55a42.8,42.8,0,0,0,18.6-24.77c5.64,4.85,8.84,10.37,8.84,16.23,0,19.1-33.89,34.62-76,35V395.8C275,395.57,295.38,389.44,298.56,381.55Z"/><path class="cls-2" d="M298.56,381.55a5.73,5.73,0,0,0,.44-2.15c0-2.91-2.33-5.63-6.41-8-8.41-4.88-24.28-8.22-42.59-8.4V338c29.19,0.25,54.42,7.78,67.16,18.75A42.8,42.8,0,0,1,298.56,381.55Z"/><path class="cls-3" d="M299,379.4a5.73,5.73,0,0,1-.44,2.15c-3.18,7.89-23.59,14-48.56,14.25v-16c18.32-.17,34.18-3.51,42.59-8.4C296.67,373.77,299,376.5,299,379.4Z"/><path class="cls-4" d="M250,379.8V363c18.32,0.17,34.18,3.51,42.59,8.4C284.18,376.29,268.32,379.62,250,379.8Z"/><path class="cls-5" d="M256.33,262.34A24.67,24.67,0,1,0,281,237.68,24.67,24.67,0,0,0,256.33,262.34Zm4,5A15.67,15.67,0,1,1,276,283,15.67,15.67,0,0,1,260.33,267.34Z"/><circle class="cls-3" cx="276" cy="267.34" r="15.67"/><path class="cls-6" d="M400,223s-40,.67-40,17.33-35.26,64.13-55.13-4.94h0S350.33,177,400,223Z"/><polygon class="cls-7" points="255 92 260 133 250 133 250 92 255 92"/><circle class="cls-8" cx="279.97" cy="183.02" r="3.51"/><circle class="cls-8" cx="260.33" cy="213.01" r="2.67"/><path class="cls-9" d="M304.87,235.41C302.08,216,300,199.8,300,193a50,50,0,0,0-28.1-45c-0.76-4.3-2.6-14-4.15-15H260l-5-41h-5V408c42.11-.36,76-15.88,76-35,0-5.86-3.21-11.38-8.84-16.23A50.57,50.57,0,0,0,319,343c0-15.68-8.5-68.32-14.13-107.6C324.74,304.47,360,257,360,240.34S400,223,400,223C350.33,177,304.87,235.41,304.87,235.41Z"/><path class="cls-6" d="M148.75,465.94V465h5.63v1.88h1.88v1.88h1.88v5.63h-1.87v1.88h-1.87v1.88h-5.62v-1.87h-1.87v-1.87H145v-5.62h1.88v-1.87h1.88v-0.94Zm3.75,1.88v-0.94h-3.75v7.5h1.88v1.88h3.75v-7.5H152.5v-0.94Z"/><path class="cls-6" d="M160,466.88V465h13.13v3.75h-1.87v1.88h-1.87v1.88H167.5v5.63h-3.75V472.5h1.88v-1.87h1.88v-1.87h1.88v-1.87h-5.62v1.88H160v-1.87Z"/><path class="cls-6" d="M178.75,465.94V465h5.63v1.88h1.88v1.88h1.88v5.63h-1.87v1.88h-1.87v1.88h-5.62v-1.87h-1.87v-1.87H175v-5.62h1.88v-1.87h1.88v-0.94Zm3.75,1.88v-0.94h-3.75v7.5h1.88v1.88h3.75v-7.5H182.5v-0.94Z"/><path class="cls-6" d="M205,471.56V465h3.75v5.63h1.88v-1.87h1.88v1.88h1.88V465h3.75v13.13h-3.75v-1.87H212.5v-1.87h-1.87v1.88h-1.87v1.88H205v-6.56Z"/><path class="cls-6" d="M220,471.56V465h13.13v1.88h-9.37v3.75h7.5v1.88h-7.5v3.75h9.38v1.88H220v-6.56Z"/><path class="cls-6" d="M235,471.56V465h13.13v1.88h-9.37v3.75h7.5v1.88h-7.5v3.75h9.38v1.88H235v-6.56Z"/><path class="cls-6" d="M250,471.56V465h11.25v1.88h1.88v5.63h-1.87v1.88h-7.5v3.75H250v-6.56Zm9.38-1.87v-2.81h-5.62v5.63h5.63v-2.81Z"/><path class="cls-6" d="M266.88,465.94V465h11.25v1.88h-3.75v9.38h3.75v1.88H266.88v-1.87h3.75v-9.37h-3.75v-0.94Z"/><path class="cls-6" d="M280,471.56V465h3.75v1.88h1.88v1.88h1.88v1.88h1.88V465h3.75v13.13h-3.75v-1.87H287.5v-1.87h-1.87V472.5h-1.87v5.63H280v-6.56Z"/><path class="cls-6" d="M295,471.56V465h11.25v1.88h1.88v3.75h-1.87v1.88h1.88v3.75h-1.87v1.88H295v-6.56Zm9.38-2.81v-1.87h-5.62v3.75h5.63v-1.87Zm0,5.63V472.5h-5.62v3.75h5.63v-1.87Z"/><path class="cls-6" d="M310,471.56V465h13.13v1.88h-9.37v3.75h7.5v1.88h-7.5v3.75h9.38v1.88H310v-6.56Z"/><path class="cls-6" d="M326.88,471.56V465h3.75v11.25h7.5v1.88H326.88v-6.56Z"/><path class="cls-6" d="M341.88,471.56V465h3.75v11.25h7.5v1.88H341.88v-6.56Z"/></svg>