<?xml version="1.0" ?><svg id="pkft" viewBox="0 0 500 500" xmlns="http://www.w3.org/2000/svg"><defs><style>.cls-1,.cls-7{fill:#1a1a1a;}.cls-2{fill:#a7d081;}.cls-3{fill:#f0e800;}.cls-4{fill:#babc79;}.cls-5{fill:#fff;}.cls-6{fill:#bbd032;}.cls-7{opacity:0.1;}.cls-8{fill:#79b67e;}</style></defs><title/><path class="cls-1" d="M246,120.69s0.46,6.33,2,6.16a8.22,8.22,0,0,1,2,.29V77.68S245.49,75.19,246,120.69Z"/><path class="cls-2" d="M188.72,289.11c8.19-26.35,18.6-103-148.72-79.58,0,0,60,27.72,60,49.94s10.46,89.22,70,81.72h0c0-6.22.88-11,2.51-13.49C175.89,322.6,182.19,306.81,188.72,289.11Z"/><path class="cls-3" d="M246.72,234.16l0.28,0.06a43.16,43.16,0,0,1-7.47,5.73,22.83,22.83,0,0,1-4.68,2.13c-14.69,4.63-19.42-14.72-19.42-14.72l0.08,0c-1.55-.66-3-1.37-4.52-2.12h0s-11.46,34.54-22.27,63.84c-6.53,17.7-12.83,33.49-16.22,38.57-1.63,2.45-2.55,7.27-2.51,13.49,0.17,27.62,19.35,82.88,80,81.14V234.23C248.9,234.23,247.81,234.2,246.72,234.16Z"/><path class="cls-3" d="M236.73,236.82h0a1.17,1.17,0,0,0-.06.31A1.17,1.17,0,0,1,236.73,236.82Z"/><path class="cls-3" d="M239.4,238.79l0,0.08Z"/><path class="cls-3" d="M239.51,239.25a2.85,2.85,0,0,1,0,.49A2.85,2.85,0,0,0,239.51,239.25Z"/><path class="cls-3" d="M238.94,238a1.36,1.36,0,0,1-.43.34,1.35,1.35,0,0,0,.43-0.34h0Z"/><path class="cls-3" d="M238.25,238.4a1.26,1.26,0,0,0,.26-0.09A1.23,1.23,0,0,1,238.25,238.4Z"/><path class="cls-3" d="M238,235.84h0a1.31,1.31,0,0,1,.51.1A1.29,1.29,0,0,0,238,235.84Z"/><path class="cls-4" d="M215.55,213.8c-0.47,2.46-.66,4.72-0.12,5.88,0,0-12.1,3.75-11.77-6,0,0,2.77-2,5.93-4.15-7.92-6.62-12.94-15.21-13.53-24.65a41.81,41.81,0,0,1-2.06-7.2c-1.31-6.56-4.15-11.2-7.79-14.46A40,40,0,0,0,180.87,183c0,17.57,11.94,33.06,30.12,42.29,1.47,0.75,3,1.45,4.52,2.12a87.21,87.21,0,0,0,31.2,6.78c1.09,0,2.18.06,3.28,0.06V223C236.9,223,224.9,219.55,215.55,213.8Z"/><path class="cls-1" d="M230,197.68c-6.36-4.09-25.9,7.49-33.94-12.8,0.59,9.44,5.61,18,13.53,24.65a86.54,86.54,0,0,1,8.74-5.58,78.73,78.73,0,0,0-2.78,9.85C224.9,219.55,236.9,223,250,223v-5.33S237,202.18,230,197.68Z"/><path class="cls-2" d="M248,126.85c-1.52.17-2-6.16-2-6.16-13.56-10.81-59-38.65-96,37,0,0,23.2-6.11,36.21,5.54,3.64,3.26,6.48,7.9,7.79,14.46a41.81,41.81,0,0,0,2.06,7.2c8,20.29,27.58,8.71,33.94,12.8,7,4.5,20,20,20,20V127.13A8.22,8.22,0,0,0,248,126.85Z"/><path class="cls-5" d="M215.44,219.68c-0.54-1.16-.36-3.43.12-5.88a50.69,50.69,0,0,1-6-4.27c-3.16,2.18-5.93,4.15-5.93,4.15C203.34,223.43,215.44,219.68,215.44,219.68Z"/><path class="cls-5" d="M218.33,203.95a86.54,86.54,0,0,0-8.74,5.58,50.69,50.69,0,0,0,6,4.27A78.73,78.73,0,0,1,218.33,203.95Z"/><path class="cls-1" d="M239.51,239.25a2.8,2.8,0,0,0-.1-0.38l0-.08A3,3,0,0,0,239,238h0s0,0.34,0,.33a1.94,1.94,0,0,1-.43.69h0a2,2,0,0,0-.26-0.25,2.07,2.07,0,0,1-.29-0.14,1.38,1.38,0,0,1-1.3-1.39,1.51,1.51,0,0,1,.06-0.36v0l-0.11,0a2.93,2.93,0,0,0-1.76,5.29,22.83,22.83,0,0,0,4.68-2.13c0-.07,0-0.14,0-0.22A2.85,2.85,0,0,0,239.51,239.25Z"/><path class="cls-5" d="M234.86,242.09a2.93,2.93,0,0,1,1.76-5.29h0.11a1.17,1.17,0,0,0-.06.31,1.3,1.3,0,0,0,1.3,1.3c0.1,0,.19.34,0.29,0.31a2,2,0,0,1,.26.25h0a2,2,0,0,0,.43-0.69h0v-0.18a2.55,2.55,0,0,1,.45.75s0,0,0,0a2.53,2.53,0,0,1,.1.35,2.72,2.72,0,0,1,0,.48c0,0.07,0,.14,0,0.21a43.19,43.19,0,0,0,7.47-5.73l-0.28-.06a87.21,87.21,0,0,1-31.2-6.78l-0.08,0S220.17,246.71,234.86,242.09Zm3.11-6.25a1.29,1.29,0,0,1,.51.1,1.31,1.31,0,0,0-.51-0.1h0Z"/><path class="cls-5" d="M236.71,236.82h0Z"/><path class="cls-5" d="M238,238.43a1.22,1.22,0,0,0,.29,0A1.22,1.22,0,0,1,238,238.43Z"/><path class="cls-5" d="M239.42,238.88a2.8,2.8,0,0,1,.1.38A2.83,2.83,0,0,0,239.42,238.88Z"/><path class="cls-5" d="M239,238a3,3,0,0,1,.44.81,3,3,0,0,0-.45-0.84h0l0,0h0Z"/><rect class="cls-6" height="27.72" rx="12" ry="12" transform="translate(287.58 -57.78) rotate(49.11)" width="24" x="195.02" y="271.95"/><rect class="cls-6" height="42.18" rx="12" ry="12" transform="translate(-169.85 197.83) rotate(-35.96)" width="33.14" x="203.29" y="339.51"/><path class="cls-1" d="M254,120.69s-0.46,6.33-2,6.16a8.72,8.72,0,0,0-2,.29V77.68S254.51,75.19,254,120.69Z"/><path class="cls-2" d="M311.28,289.11c-8.19-26.35-18.6-103,148.72-79.58,0,0-60,27.72-60,49.94s-10.46,89.22-70,81.72h0c0-6.22-.88-11-2.51-13.49C324.11,322.6,317.81,306.81,311.28,289.11Z"/><path class="cls-3" d="M253.28,234.16l-0.28.06a43.16,43.16,0,0,0,7.47,5.73,22.83,22.83,0,0,0,4.68,2.13c14.69,4.63,19.42-14.72,19.42-14.72l-0.08,0c1.55-.66,3-1.37,4.52-2.12h0s11.46,34.54,22.27,63.84c6.53,17.7,12.83,33.49,16.22,38.57,1.63,2.45,2.55,7.27,2.51,13.49-0.17,27.62-19.35,82.88-80,81.14V234.23C251.1,234.23,252.19,234.2,253.28,234.16Z"/><path class="cls-3" d="M263.27,236.82h0a1.17,1.17,0,0,1,.06.31A1.17,1.17,0,0,0,263.27,236.82Z"/><path class="cls-3" d="M260.6,238.79l0,0.08Z"/><path class="cls-3" d="M260.49,239.25a2.85,2.85,0,0,0,0,.49A2.85,2.85,0,0,1,260.49,239.25Z"/><path class="cls-3" d="M261.06,238a1.36,1.36,0,0,0,.43.34,1.35,1.35,0,0,1-.43-0.34h0Z"/><path class="cls-3" d="M261.75,238.4a1.26,1.26,0,0,1-.26-0.09A1.23,1.23,0,0,0,261.75,238.4Z"/><path class="cls-3" d="M262,235.84h0a1.31,1.31,0,0,0-.51.1A1.29,1.29,0,0,1,262,235.84Z"/><path class="cls-4" d="M284.45,213.8c0.47,2.46.66,4.72,0.12,5.88,0,0,12.1,3.75,11.77-6,0,0-2.77-2-5.93-4.15,7.92-6.62,12.94-15.21,13.53-24.65a41.81,41.81,0,0,0,2.06-7.2c1.31-6.56,4.15-11.2,7.79-14.46A40,40,0,0,1,319.13,183c0,17.57-11.94,33.06-30.12,42.29-1.47.75-3,1.45-4.52,2.12a87.21,87.21,0,0,1-31.2,6.78c-1.09,0-2.28.06-3.28,0.06V223C263,223,275.1,219.55,284.45,213.8Z"/><path class="cls-1" d="M270,197.68c6.36-4.09,25.9,7.49,33.94-12.8-0.59,9.44-5.61,18-13.53,24.65a86.54,86.54,0,0,0-8.74-5.58,78.73,78.73,0,0,1,2.78,9.85C275.1,219.55,263,223,250,223v-5.33S263,202.18,270,197.68Z"/><path class="cls-2" d="M252,126.85c1.52,0.17,2-6.16,2-6.16,13.56-10.81,59-38.65,96,37,0,0-23.2-6.11-36.21,5.54-3.64,3.26-6.48,7.9-7.79,14.46a41.81,41.81,0,0,1-2.06,7.2c-8,20.29-27.58,8.71-33.94,12.8-7,4.5-20,20-20,20V127.13A8.72,8.72,0,0,1,252,126.85Z"/><path class="cls-5" d="M284.56,219.68c0.54-1.16.36-3.43-.12-5.88a50.69,50.69,0,0,0,6-4.27c3.16,2.18,5.93,4.15,5.93,4.15C296.66,223.43,284.56,219.68,284.56,219.68Z"/><path class="cls-5" d="M281.67,203.95a86.54,86.54,0,0,1,8.74,5.58,50.69,50.69,0,0,1-6,4.27A78.73,78.73,0,0,0,281.67,203.95Z"/><path class="cls-1" d="M260.49,239.25a2.8,2.8,0,0,1,.1-0.38l0-.08A3,3,0,0,1,261,238h0s0,0.34,0,.33a1.94,1.94,0,0,0,.43.69h0a2,2,0,0,1,.26-0.25,2.07,2.07,0,0,0,.29-0.14,1.38,1.38,0,0,0,1.3-1.39,1.51,1.51,0,0,0-.06-0.36v0l0.11,0a2.93,2.93,0,0,1,1.76,5.29,22.83,22.83,0,0,1-4.68-2.13c0-.07,0-0.14,0-0.22A2.85,2.85,0,0,1,260.49,239.25Z"/><path class="cls-5" d="M284.56,227.37l-0.08,0a87.21,87.21,0,0,1-31.2,6.78l-0.28.06a43.18,43.18,0,0,0,7.47,5.73c0-.07,0-0.14,0-0.22a2.78,2.78,0,0,1,0-.48,2.67,2.67,0,0,1,.1-0.36l0-.06a2.76,2.76,0,0,1,.45-0.79v0.26h0a2,2,0,0,0,.43.69h0a2,2,0,0,1,.26-0.25c0.09,0,.19-0.24.29-0.24a1.33,1.33,0,0,0,1.3-1.34,1.32,1.32,0,0,0-.06-0.33h0v0l0.12,0a2.93,2.93,0,0,1,1.76,5.29C279.83,246.71,284.56,227.37,284.56,227.37ZM262,235.84a1.31,1.31,0,0,0-.51.1,1.29,1.29,0,0,1,.51-0.1h0Z"/><path class="cls-5" d="M263.29,236.82h0Z"/><path class="cls-5" d="M262,238.43a1.22,1.22,0,0,1-.29,0A1.22,1.22,0,0,0,262,238.43Z"/><path class="cls-5" d="M260.58,238.88a2.8,2.8,0,0,0-.1.38A2.83,2.83,0,0,1,260.58,238.88Z"/><path class="cls-5" d="M261,238a3,3,0,0,0-.44.81,3,3,0,0,1,.45-0.84h0l0,0h0Z"/><rect class="cls-6" height="27.72" rx="12" ry="12" transform="translate(700.83 251.4) rotate(130.89)" width="24" x="280.98" y="271.95"/><rect class="cls-6" height="42.18" rx="12" ry="12" transform="translate(295.15 816.98) rotate(-144.04)" width="33.14" x="263.58" y="339.51"/><path class="cls-7" d="M311.28,289.11C300.46,259.81,289,225.27,289,225.27h0c18.18-9.23,30.12-24.72,30.12-42.29a40,40,0,0,0-5.34-19.77c13-11.65,36.21-5.54,36.21-5.54-37-75.64-82.43-47.8-96-37,0.51-45.49-4-43-4-43V422.3c60.66,1.74,79.84-53.52,80-81.14h0c59.52,7.5,70-59.5,70-81.72s60-49.94,60-49.94C292.68,186.09,303.09,262.76,311.28,289.11ZM260.47,240c0-.07,0-0.14,0-0.21h0c0,0.07,0,.14,0,0.22h0Zm0.6-1.8a0.53,0.53,0,0,1,0-.1h0v0.1a1.26,1.26,0,0,0,.43.53A1.26,1.26,0,0,1,261.06,238.15Zm1,0.37a1.43,1.43,0,0,1-.29.06,2.25,2.25,0,0,0,.29-0.16,1.3,1.3,0,0,0,1.29-1.27v0A1.34,1.34,0,0,1,262,238.53Zm1.23-1.7h0v0Zm3.06,2.92a2.94,2.94,0,0,0-2.94-2.94h0a2.94,2.94,0,0,1,2.94,2.94h0Zm18.16-12.35a87.34,87.34,0,0,1-31.2,7.16L253,235h0l0.28-.45a87.31,87.31,0,0,0,31.2-7.08l0.08-.06Z"/><path class="cls-8" d="M148.75,465.94V465h5.63v1.88h1.88v1.88h1.88v5.63h-1.87v1.88h-1.87v1.88h-5.62v-1.87h-1.87v-1.87H145v-5.62h1.88v-1.87h1.88v-0.94Zm3.75,1.88v-0.94h-3.75v7.5h1.88v1.88h3.75v-7.5H152.5v-0.94Z"/><path class="cls-8" d="M160,466.88V465h13.13v3.75h-1.87v1.88h-1.87v1.88H167.5v5.63h-3.75V472.5h1.88v-1.87h1.88v-1.87h1.88v-1.87h-5.62v1.88H160v-1.87Z"/><path class="cls-8" d="M180.63,465.94V465h3.75v11.25h3.75v1.88H176.88v-1.87h3.75v-7.5h-1.87v-1.87h1.88v-0.94Z"/><path class="cls-8" d="M205,468.75V465h3.75v5.63h1.88v1.88h1.88v-1.87h1.88V465h3.75v7.5h-1.87v1.88h-1.87v1.88H212.5v1.88h-1.87v-1.87h-1.87v-1.87h-1.87V472.5H205v-3.75Z"/><path class="cls-8" d="M221.88,465.94V465h11.25v1.88h-3.75v9.38h3.75v1.88H221.88v-1.87h3.75v-9.37h-3.75v-0.94Z"/><path class="cls-8" d="M238.75,465.94V465h7.5v1.88h1.88v1.88h-3.75v-1.87h-3.75v1.88h-1.87v5.63h1.88v1.88h3.75v-1.87h3.75v1.88h-1.87v1.88h-7.5v-1.87h-1.87v-1.87H235v-5.62h1.88v-1.87h1.88v-0.94Z"/><path class="cls-8" d="M251.88,465.94V465h11.25v1.88h-3.75v11.25h-3.75V466.88h-3.75v-0.94Z"/><path class="cls-8" d="M265,471.56V465h11.25v1.88h1.88v5.63h-3.75v1.88h1.88v1.88h1.88v1.88H272.5v-1.87h-1.87v-1.87h-1.87v3.75H265v-6.56Zm9.38-2.81v-1.87h-5.62v5.63h3.75v-1.87h1.88v-1.87Z"/><path class="cls-8" d="M280,471.56V465h13.13v1.88h-9.37v3.75h7.5v1.88h-7.5v3.75h9.38v1.88H280v-6.56Z"/><path class="cls-8" d="M295,471.56V465h13.13v1.88h-9.37v3.75h7.5v1.88h-7.5v3.75h9.38v1.88H295v-6.56Z"/><path class="cls-8" d="M310,471.56V465h11.25v1.88h1.88v3.75h-1.87v1.88h1.88v3.75h-1.87v1.88H310v-6.56Zm9.38-2.81v-1.87h-5.62v3.75h5.63v-1.87Zm0,5.63V472.5h-5.62v3.75h5.63v-1.87Z"/><path class="cls-8" d="M325,471.56V465h13.13v1.88h-9.37v3.75h7.5v1.88h-7.5v3.75h9.38v1.88H325v-6.56Z"/><path class="cls-8" d="M341.88,471.56V465h3.75v11.25h7.5v1.88H341.88v-6.56Z"/></svg>