<?xml version="1.0" ?><svg id="pkft" viewBox="0 0 500 500" xmlns="http://www.w3.org/2000/svg"><defs><style>.cls-1{fill:#ba0031;}.cls-2{fill:#04a5cb;}.cls-3{fill:#00b8ee;}.cls-4{fill:#ce1750;}.cls-5{fill:#fff;}.cls-6{fill:#1a1a1a;}.cls-7{fill:#958c87;}.cls-8{opacity:0.1;}.cls-9{fill:#02b9ee;}</style></defs><title/><path class="cls-1" d="M241.33,200.44c0,8,3.67,14.53,7.67,14.53V185.91C245,185.91,241.33,192.41,241.33,200.44Z"/><path class="cls-2" d="M202.06,265.16c8.16,4.17,27.25,13.5,35.26,15-11.4-8.16-25-16.8-25-16.8Z"/><path class="cls-2" d="M179.93,263.31s10.8-1.33,16.22-.63l2.37-19.37S179.93,261,179.93,263.31Z"/><path class="cls-3" d="M249,185.91V123.35a64.69,64.69,0,0,0-35.44,11.76,20,20,0,0,1,2.45,1c11.22,6,16.93,25.19,12.79,46.12-4.67,23.57-19.85,40.41-34,37.61-0.5-.1-1-0.23-1.44-0.37,2.05,11.16,4.15,21.18,5.15,23.85l-2.36,19.37-0.44,3.63,6.36-1.15,10.26-1.85s13.14,8.64,24.54,16.8C242,283.79,247,287.36,249,290V215c-4,0-7.67-6.51-7.67-14.53S245,185.91,249,185.91Z"/><path class="cls-1" d="M216.24,136.1c3.54,6.18,3.32,16.55-1.22,26.72-6.11,13.7-17.73,21.84-26,18.17a10,10,0,0,1-1.09-.58c-6.06-3.67-8-13.59-5-24.37a69.16,69.16,0,0,0-5.23,16c-4.5,22.74,2.49,43.43,15.69,47.37,0.48,0.14,1,.27,1.47.37,14.14,2.8,29.39-14,34.05-37.61C233.06,161.29,227.46,142.09,216.24,136.1Z"/><path class="cls-4" d="M216.24,136.1a16.9,16.9,0,0,0-2.22-1,15.53,15.53,0,0,0-2.26-.63c-10.65-2.11-21.92,6.92-28.83,21.56-2.92,10.78-1,20.7,5,24.37a10,10,0,0,0,1.09.58c8.22,3.67,19.84-4.47,26-18.17C219.56,152.65,219.79,142.28,216.24,136.1Z"/><path class="cls-5" d="M211.82,240.64c2.38-1.86,11.75-1.73,18.52-1.37-1.64,4.55-2.23,8.47-1.29,8.81s3.11-3.15,4.83-7.81l0.27-.76c2.13,0.16,3.51.29,3.51,0.29l5,11.67C224.49,263.81,208,243.64,211.82,240.64Z"/><path class="cls-6" d="M229,248.09c-0.93-.34-0.35-4.26,1.29-8.81,1.41,0.08,2.71.16,3.81,0.24l-0.27.76C232.16,244.94,230,248.44,229,248.09Z"/><path class="cls-7" d="M221.66,274.5s14.27,78.14-61.73,88.81-2.33-78.44-7.5-86.55-17.83-33.45-52.5,6.55,32.67,94,40,93.33,90.73-3.1,87-99.89"/><path class="cls-1" d="M256.67,200.44c0,8-3.67,14.53-7.67,14.53V185.91C253,185.91,256.67,192.41,256.67,200.44Z"/><path class="cls-2" d="M297.94,265.16c-8.16,4.17-27.25,13.5-35.26,15,11.4-8.16,25-16.8,25-16.8Z"/><path class="cls-2" d="M320.07,263.31s-10.8-1.33-16.22-.63l-2.37-19.37S320.07,261,320.07,263.31Z"/><path class="cls-3" d="M249,185.91V123.35a68,68,0,0,1,36.44,11.76,13.75,13.75,0,0,0-2,1c-11.22,6-16.68,25.19-12.54,46.12,4.67,23.57,20,40.41,34.12,37.61,0.5-.1,1-0.23,1.51-0.37-2.05,11.16-4.12,21.18-5.11,23.85l2.38,19.37,0.45,3.63-6.35-1.15-10.26-1.85s-14.14,8.64-25.54,16.8C257,283.79,252,287.36,249,290V215c4,0,7.67-6.51,7.67-14.53S253,185.91,249,185.91Z"/><path class="cls-1" d="M283.76,136.1c-3.54,6.18-3.32,16.55,1.22,26.72,6.11,13.7,17.73,21.84,26,18.17a10,10,0,0,0,1.09-.58c6.06-3.67,8-13.59,5-24.37a69.16,69.16,0,0,1,5.23,16c4.5,22.74-2.49,43.43-15.69,47.37-0.48.14-1,.27-1.47,0.37-14.14,2.8-29.39-14-34.05-37.61C266.94,161.29,272.54,142.09,283.76,136.1Z"/><path class="cls-4" d="M283.76,136.1a16.9,16.9,0,0,1,2.22-1,15.53,15.53,0,0,1,2.26-.63c10.65-2.11,21.92,6.92,28.83,21.56,2.92,10.78,1,20.7-5,24.37a10,10,0,0,1-1.09.58c-8.22,3.67-19.84-4.47-26-18.17C280.44,152.65,280.21,142.28,283.76,136.1Z"/><path class="cls-5" d="M288.18,240.64c-2.38-1.86-11.75-1.73-18.52-1.37,1.64,4.55,2.23,8.47,1.29,8.81s-3.11-3.15-4.83-7.81l-0.27-.76c-2.13.16-3.51,0.29-3.51,0.29l-5,11.67C275.51,263.81,292,243.64,288.18,240.64Z"/><path class="cls-6" d="M271,248.09c0.93-.34.35-4.26-1.29-8.81-1.41.08-2.71,0.16-3.81,0.24l0.27,0.76C267.84,244.94,270,248.44,271,248.09Z"/><path class="cls-7" d="M278.34,274.5s-14.27,78.14,61.73,88.81,2.33-78.44,7.5-86.55,17.83-33.45,52.5,6.55-32.67,94-40,93.33-90.73-3.1-87-99.89"/><g class="cls-8"><path class="cls-6" d="M301.48,243.3l2.37,19.37c5.42-.71,16.22.63,16.22,0.63C320.07,261,301.48,243.3,301.48,243.3Z"/><path class="cls-6" d="M400.07,283.31c-34.67-40-47.33-14.67-52.5-6.55s68.5,97-7.5,86.3S278.34,274,278.34,274h0c7.4-3,15.14-6.81,19.6-9.09l6.35,1.27-0.44-3.57L301.48,243c1-2.67,3.07-13,5.13-24h0c13.2-4,20.19-24.41,15.69-47.14a68.21,68.21,0,0,0-5.23-15.93c-6.91-14.64-18.18-23.61-28.83-21.5a15.62,15.62,0,0,0-2.26.66,17,17,0,0,0-2.22,1c-11.22,6-16.82,25.19-12.67,46.13,4.37,22.09,18,38.27,31.39,37.91-13.35.37-27-15.81-31.4-37.9-4.14-20.94,1.44-40.13,12.66-46.12a11.36,11.36,0,0,1,1.72-1A68,68,0,0,0,249,123.35V290c3-2.64,8-6.22,13.14-9.89,11.4-8.16,25.31-16.8,25.31-16.8h0S274,272,262.56,280.11a67.82,67.82,0,0,0,11.95-4l-1.49.65c-3.7,96.78,79.71,99.22,87,99.89S434.74,323.31,400.07,283.31Z"/></g><path class="cls-9" d="M156.25,465.94V465h5.63v1.88h1.88v1.88h1.88v5.63h-1.87v1.88h-1.87v1.88h-5.62v-1.87h-1.87v-1.87H152.5v-5.62h1.88v-1.87h1.88v-0.94Zm3.75,1.88v-0.94h-3.75v7.5h1.88v1.88h3.75v-7.5H160v-0.94Z"/><path class="cls-9" d="M167.5,466.88V465h13.13v3.75h-1.87v1.88h-1.87v1.88H175v5.63h-3.75V472.5h1.88v-1.87H175v-1.87h1.88v-1.87h-5.62v1.88H167.5v-1.87Z"/><path class="cls-9" d="M184.38,465.94V465h9.38v1.88h1.88v3.75h-1.87v1.88h-1.87v1.88h-3.75v1.88h7.5v1.88H182.5v-3.75h1.88V472.5h1.88v-1.87H190v-1.87h1.88v-1.87h-5.62v1.88H182.5v-1.87h1.88v-0.94Z"/><path class="cls-9" d="M214.38,465.94V465h11.25v1.88h-3.75v11.25h-3.75V466.88h-3.75v-0.94Z"/><path class="cls-9" d="M227.5,471.56V465h13.13v1.88h-9.37v3.75h7.5v1.88h-7.5v3.75h9.38v1.88H227.5v-6.56Z"/><path class="cls-9" d="M242.5,471.56V465h3.75v1.88h1.88v1.88H250v1.88h1.88V465h3.75v13.13h-3.75v-1.87H250v-1.87h-1.87V472.5h-1.87v5.63H242.5v-6.56Z"/><path class="cls-9" d="M259.38,465.94V465h11.25v1.88h-3.75v11.25h-3.75V466.88h-3.75v-0.94Z"/><path class="cls-9" d="M276.25,465.94V465h5.63v1.88h1.88v1.88h1.88v9.38h-3.75v-3.75h-5.62v3.75H272.5v-9.37h1.88v-1.87h1.88v-0.94Zm3.75,1.88v-0.94h-1.87v1.88h-1.87v3.75h5.63v-3.75H280v-0.94Z"/><path class="cls-9" d="M291.25,465.94V465h7.5v1.88h1.88v1.88h-3.75v-1.87h-3.75v1.88h-1.87v5.63h1.88v1.88h3.75v-1.87h3.75v1.88h-1.87v1.88h-7.5v-1.87h-1.87v-1.87H287.5v-5.62h1.88v-1.87h1.88v-0.94Z"/><path class="cls-9" d="M304.38,465.94V465h9.38v1.88h1.88v9.38h-1.87v1.88h-9.37v-1.87H302.5v-9.37h1.88v-0.94Zm7.5,5.63v-4.69h-5.62v9.38h5.63v-4.69Z"/><path class="cls-9" d="M319.38,465.94V465h9.38v1.88h1.88v9.38h-1.87v1.88h-9.37v-1.87H317.5v-9.37h1.88v-0.94Zm7.5,5.63v-4.69h-5.62v9.38h5.63v-4.69Z"/><path class="cls-9" d="M334.38,471.56V465h3.75v11.25h7.5v1.88H334.38v-6.56Z"/></svg>