<?xml version="1.0" ?><svg id="pkft" viewBox="0 0 500 500" xmlns="http://www.w3.org/2000/svg"><defs><style>.cls-1{fill:#333;}.cls-2{fill:#ad3251;}.cls-3{fill:#b74264;}.cls-4{fill:#fff;}.cls-5{fill:#5fb6f9;}.cls-6{fill:#3cb0f7;}.cls-7{fill:#aaaea7;}.cls-8{fill:#b8bab6;}.cls-9{fill:#9d9e9d;}.cls-10{fill:#1a1a1a;opacity:0.1;}</style></defs><title/><path class="cls-1" d="M230.06,237.07c-16.67-21.68-44.63-11.73-54.66-4.14a21.55,21.55,0,0,1-5.29,3h0s22,1.73,33,17.11c0.06,0.09.07,0.17,0.14,0.26,2.13,18.37,22.74,32.77,46.74,32.77v-36A34.43,34.43,0,0,1,230.06,237.07Z"/><path class="cls-2" d="M232,116.43c-4.46-10.9-11.4-18.19-19.78-19.3C211.8,97.08,211.38,97,211,97c5.17,4.79,8.59,14.06,9.19,25.07a66,66,0,0,1-.25,10.28c-2,20-12.42,35-23.17,33.59-3.71-.49-7-2.89-9.6-6.64-4.94-7.1-7.51-19-6.17-32.12,0-.08,0-0.16,0-0.24a101.72,101.72,0,0,0-4.36,48.56c3.12,19.14,12.11,33.18,24,34.76,16.81,2.23,33-21.28,36.24-52.52C238.48,142.06,236.5,127.42,232,116.43Z"/><path class="cls-3" d="M220.15,122.09c-0.6-11-4-20.28-9.19-25.07C199,96.35,187.53,108.49,181,127c0,0.08,0,.16,0,0.24-1.34,13.08,1.22,25,6.17,32.12,2.61,3.75,5.88,6.14,9.6,6.64,10.75,1.43,21.13-13.61,23.17-33.59A66,66,0,0,0,220.15,122.09Z"/><path class="cls-2" d="M236.67,206.36c0,8.39,6.33,15.19,13.33,15.19V191.17C243,191.17,236.67,198,236.67,206.36Z"/><path class="cls-4" d="M230.13,237.07a32.26,32.26,0,0,0-23.23-13c-0.06.22-6,21.15,29.9,19.79h0A38.47,38.47,0,0,1,230.13,237.07Z"/><path class="cls-1" d="M223.47,230.43s-3.66,8.39-1.93,8.67S226,232.7,226,232.7v0c-1-.81-1.68-1.55-2.58-2.23h0Z"/><path class="cls-5" d="M250,191.17V113.63a49.48,49.48,0,0,0-18.06,2.8c4.5,11,6.51,25.63,4.91,41.31-3.2,31.24-19.41,54.76-36.22,52.52-11.89-1.58-20.88-15.62-24-34.76-7.81,6.32-25.36,19.45-36.5,19.45-14.67,0-46,33.41-30,34.17s24-7.59,35,0c9,6.24,16.92,9.91,25,6.81a21.63,21.63,0,0,0,5.31-3c6.07-4.6,18.72-10,31.46-8.83a32.15,32.15,0,0,1,16.59,6.32,32.86,32.86,0,0,1,2.64,2.23,36.43,36.43,0,0,1,4,4.42,38.24,38.24,0,0,0,6.6,6.82A32.7,32.7,0,0,0,250,250.1V221.54c-7,0-13.33-6.8-13.33-15.19S243,191.17,250,191.17Z"/><path class="cls-6" d="M250,255l-15.71,29S235,384.32,250,400V255Z"/><path class="cls-7" d="M71.75,331.37a8.09,8.09,0,0,0,3,1.16,20.42,20.42,0,0,0,5.2.45,44.94,44.94,0,0,0,8.3-1.13,113.71,113.71,0,0,0,22.87-8.32,292.84,292.84,0,0,0,26.49-14.42c17.93-10.84,35.48-23.24,48.78-32.42s22.43-15.17,23.78-13.38c2.69,3.55-26.54,38-61.38,66.33-17.44,14.12-36.29,26.73-53.68,32.71a69.64,69.64,0,0,1-12.63,3.14,46.24,46.24,0,0,1-11.18.29,36.68,36.68,0,0,1-8-1.66,22.11,22.11,0,0,1-2.16-.8L60.41,363a7.54,7.54,0,0,1-1.07-.59,8.78,8.78,0,0,1-1-.82,9.3,9.3,0,0,1-1.55-2,11.3,11.3,0,0,1-1.27-5.26c0-3.88,1.81-7.77,4.57-11.28a102.13,102.13,0,0,1,7.78-8.37c1.06-1.08,1.89-2,2.49-2.53a5.09,5.09,0,0,1,.8-0.67,0.73,0.73,0,0,1,.28-0.11A0.42,0.42,0,0,1,71.75,331.37Z"/><path class="cls-8" d="M98.6,317.09l-0.11,2c0,0.62,0,1.4.05,2.3a26.21,26.21,0,0,0,.14,3.07l0.17,1.77,0.08,1,0.17,0.94a33.2,33.2,0,0,0,.85,4.08l0.27,1.08,0.14,0.56,0.2,0.52q0.39,1,.77,2.18a35.39,35.39,0,0,0,2.17,4.31,28,28,0,0,0,7.09,7.94,29.58,29.58,0,0,0,11.2,5.25,37,37,0,0,0,13.92.55,38.84,38.84,0,0,0,14-5.13A37.91,37.91,0,0,0,161,338.9l1.17-1.63,1.4-2.17,2.78-4.3c1.85-2.84,3.76-5.57,5.59-8.29,7.49-10.75,14.94-20.28,21.62-28.1,13.37-15.66,23.73-24.4,25.19-22.74S213,285,202.69,302.76c-5.13,8.88-11,19.27-16.9,30.59-1.44,2.85-2.94,5.72-4.4,8.66l-2.18,4.44-1.1,2.23-1.46,2.7a60.09,60.09,0,0,1-36.39,29A57.24,57.24,0,0,1,118.09,382a51.82,51.82,0,0,1-20.7-7.26,54.77,54.77,0,0,1-15.71-14.62,65.44,65.44,0,0,1-5.22-8.55q-1-2.17-1.93-4.26l-0.45-1-0.37-1-0.71-2a67,67,0,0,1-2.19-7.62l-0.42-1.74-0.29-1.66-0.52-3.11c-0.37-2-.46-3.71-0.61-5.23s-0.25-2.81-.31-3.86l-0.06-3.15a8.61,8.61,0,0,1,1.27-4.52,10.56,10.56,0,0,1,3.48-3.28,16.44,16.44,0,0,1,10.78-1.7,25.26,25.26,0,0,1,10.34,3.92,11.56,11.56,0,0,1,3,2.83A5,5,0,0,1,98.6,317.09Z"/><path class="cls-9" d="M122.42,281.66c-6.77.5-12.06,0.19-16.11-.89-16.25-4.36-48.91-7.9-55.79-7.44-5.46.51-10.23-.71-10.62-2.72s3.8-4.07,9.29-4.58c14.45-1.34,53,3.7,70.35,8.32,0.83,0.06,100.37-17.27,95.88-15.78-0.83.27-20.55,6.79-42.79,12.85S134.23,280.78,122.42,281.66Z"/><path class="cls-9" d="M132.75,266.35c-7.28,0-16.44-8.07-30.54-21.25-8.21-7.67-18.43-17.22-22.77-17.91-11.89-1.88-23-3.79-23.06-3.81-2.73-.47-4.61-3.37-4.19-6.48s3-5.25,5.69-4.78C58,212.14,69,214,80.81,215.9c7.13,1.13,16.68,10.24,27.74,20.58,8,7.44,20,18.86,24.16,18.86,0,0,69.24-21,70.14-18S145,266,133.07,266.37Z"/><path class="cls-1" d="M269.94,237.07c16.67-21.68,44.63-11.73,54.66-4.14a21.55,21.55,0,0,0,5.29,3h0s-22,1.73-33,17.11c-0.06.09-.07,0.17-0.14,0.26C294.62,271.69,274,286.09,250,286.09v-36A34.43,34.43,0,0,0,269.94,237.07Z"/><path class="cls-2" d="M268,116.43c4.46-10.9,11.4-18.19,19.78-19.3,0.42-.06.84-0.08,1.27-0.11-5.17,4.79-8.59,14.06-9.19,25.07a66,66,0,0,0,.25,10.28c2,20,12.42,35,23.17,33.59,3.71-.49,7-2.89,9.6-6.64,4.94-7.1,7.51-19,6.17-32.12,0-.08,0-0.16,0-0.24a101.72,101.72,0,0,1,4.36,48.56c-3.12,19.14-12.11,33.18-24,34.76-16.81,2.23-33-21.28-36.24-52.52C261.52,142.06,263.5,127.42,268,116.43Z"/><path class="cls-3" d="M279.85,122.09c0.6-11,4-20.28,9.19-25.07,11.94-.68,23.42,11.47,30,29.93,0,0.08,0,.16,0,0.24,1.34,13.08-1.22,25-6.17,32.12-2.61,3.75-5.88,6.14-9.6,6.64-10.75,1.43-21.13-13.61-23.17-33.59A66,66,0,0,1,279.85,122.09Z"/><path class="cls-2" d="M263.33,206.36c0,8.39-6.33,15.19-13.33,15.19V191.17C257,191.17,263.33,198,263.33,206.36Z"/><path class="cls-4" d="M269.87,237.07a32.26,32.26,0,0,1,23.23-13c0.06,0.22,6,21.15-29.9,19.79h0A38.47,38.47,0,0,0,269.87,237.07Z"/><path class="cls-1" d="M276.53,230.43s3.66,8.39,1.93,8.67S274,232.7,274,232.7v0c1-.81,1.68-1.55,2.58-2.23h0Z"/><path class="cls-5" d="M250,191.17V113.63a49.48,49.48,0,0,1,18.06,2.8c-4.5,11-6.51,25.63-4.91,41.31,3.2,31.24,19.41,54.76,36.22,52.52,11.89-1.58,20.88-15.62,24-34.76,7.81,6.32,25.36,19.45,36.5,19.45,14.67,0,46,33.41,30,34.17s-24-7.59-35,0c-9,6.24-16.92,9.91-25,6.81a21.63,21.63,0,0,1-5.31-3c-6.07-4.6-18.72-10-31.46-8.83a32.15,32.15,0,0,0-16.59,6.32,32.86,32.86,0,0,0-2.64,2.23,36.43,36.43,0,0,0-4,4.42,38.24,38.24,0,0,1-6.6,6.82A32.7,32.7,0,0,1,250,250.1V221.54c7,0,13.33-6.8,13.33-15.19S257,191.17,250,191.17Z"/><path class="cls-6" d="M250,255l15.71,29S265,384.32,250,400V255Z"/><path class="cls-7" d="M428.25,331.37a8.09,8.09,0,0,1-3,1.16,20.42,20.42,0,0,1-5.2.45,44.94,44.94,0,0,1-8.3-1.13,113.71,113.71,0,0,1-22.87-8.32,292.84,292.84,0,0,1-26.49-14.42c-17.93-10.84-35.48-23.24-48.78-32.42s-22.43-15.17-23.78-13.38c-2.69,3.55,26.54,38,61.38,66.33,17.44,14.12,36.29,26.73,53.68,32.71a69.64,69.64,0,0,0,12.63,3.14,46.24,46.24,0,0,0,11.18.29,36.68,36.68,0,0,0,8-1.66,22.11,22.11,0,0,0,2.16-.8l0.74-.31a7.54,7.54,0,0,0,1.07-.59,8.78,8.78,0,0,0,1-.82,9.3,9.3,0,0,0,1.55-2,11.3,11.3,0,0,0,1.27-5.26c0-3.88-1.81-7.77-4.57-11.28a102.13,102.13,0,0,0-7.78-8.37c-1.06-1.08-1.89-2-2.49-2.53a5.09,5.09,0,0,0-.8-0.67,0.73,0.73,0,0,0-.28-0.11A0.42,0.42,0,0,0,428.25,331.37Z"/><path class="cls-8" d="M401.4,317.09l0.11,2c0,0.62,0,1.4-.05,2.3a26.21,26.21,0,0,1-.14,3.07l-0.17,1.77-0.08,1-0.17.94a33.2,33.2,0,0,1-.85,4.08l-0.27,1.08-0.14.56-0.2.52q-0.39,1-.77,2.18a35.39,35.39,0,0,1-2.17,4.31,28,28,0,0,1-7.09,7.94,29.58,29.58,0,0,1-11.2,5.25,37,37,0,0,1-13.92.55,38.84,38.84,0,0,1-14-5.13A37.91,37.91,0,0,1,339,338.9l-1.17-1.63-1.4-2.17-2.78-4.3c-1.85-2.84-3.76-5.57-5.59-8.29-7.49-10.75-14.94-20.28-21.62-28.1C293,278.75,282.67,270,281.21,271.66s5.84,13.31,16.1,31.1c5.13,8.88,11,19.27,16.9,30.59,1.44,2.85,2.94,5.72,4.4,8.66l2.18,4.44,1.1,2.23,1.46,2.7a60.09,60.09,0,0,0,36.39,29A57.24,57.24,0,0,0,381.91,382a51.82,51.82,0,0,0,20.7-7.26,54.77,54.77,0,0,0,15.71-14.62,65.44,65.44,0,0,0,5.22-8.55q1-2.17,1.93-4.26l0.45-1,0.37-1,0.71-2a67,67,0,0,0,2.19-7.62l0.42-1.74,0.29-1.66,0.52-3.11c0.37-2,.46-3.71.61-5.23s0.25-2.81.31-3.86l0.06-3.15a8.61,8.61,0,0,0-1.27-4.52,10.56,10.56,0,0,0-3.48-3.28,16.44,16.44,0,0,0-10.78-1.7,25.26,25.26,0,0,0-10.34,3.92,11.56,11.56,0,0,0-3,2.83A5,5,0,0,0,401.4,317.09Z"/><path class="cls-9" d="M377.58,281.66c6.77,0.5,12.06.19,16.11-.89,16.25-4.36,48.91-7.9,55.79-7.44,5.46,0.51,10.23-.71,10.62-2.72s-3.8-4.07-9.29-4.58c-14.45-1.34-53,3.7-70.35,8.32-0.83.06-100.37-17.27-95.88-15.78,0.83,0.27,20.55,6.79,42.79,12.85S365.77,280.78,377.58,281.66Z"/><path class="cls-9" d="M367.25,266.35c7.28,0,16.44-8.07,30.54-21.25,8.21-7.67,18.43-17.22,22.77-17.91,11.89-1.88,23-3.79,23.06-3.81,2.73-.47,4.61-3.37,4.19-6.48s-3-5.25-5.69-4.78c-0.11,0-11.11,1.92-22.94,3.79-7.13,1.13-16.68,10.24-27.74,20.58-8,7.44-20,18.86-24.16,18.86,0,0-69.24-21-70.14-18s57.89,28.63,69.78,29Z"/><path class="cls-10" d="M450.81,266c-14.45-1.34-53,3.7-70.35,8.32-0.64,0-60.37-10.31-85.29-14.32a28,28,0,0,0,1.64-6.71c0.07-.09,0-0.17.08-0.26a35.81,35.81,0,0,1,10.22-9.42c17.12,8.55,51.09,22.44,59.82,22.73l0.32,0c7.28,0,16.44-8.06,30.54-21.25,8.21-7.67,18.43-17.22,22.77-17.91,11.89-1.88,23-3.79,23.06-3.81,2.73-.47,4.61-3.37,4.19-6.48s-3-5.25-5.69-4.78c-0.11,0-11.11,1.92-22.94,3.79-7.13,1.13-16.68,10.24-27.74,20.58-8,7.44-20,18.86-24.16,18.86,0,0-32.81-9.93-53.54-15.15a57.51,57.51,0,0,1,16.13-4.24c8.08,3.1,16-.57,25-6.81,11-7.59,19,.76,35,0S374.55,195,359.88,195c-11.14,0-28.69-13.13-36.5-19.45-3.12,19.14-12.1,33.18-24,34.76-0.54.07-1.07,0.11-1.6,0.13q0.78,0,1.57-.13c11.89-1.58,20.89-15.62,24-34.76A101.72,101.72,0,0,0,319,127c-6.54-18.46-18-30.61-30-29.93-0.42,0-.84.05-1.27,0.11-8.37,1.11-15.36,8.39-19.83,19.27a49.4,49.4,0,0,0-18-2.77V250.1a3.23,3.23,0,0,0,1.26-.3,3.22,3.22,0,0,1-1.26.3V400c15-15.68,16-116,16-116V284a52.68,52.68,0,0,0,16.37-7.82c2.4,5.2,8,14.47,15,26.61,5.13,8.88,11,19.27,16.88,30.59,1.44,2.85,2.93,5.72,4.39,8.66l2.17,4.44,1.1,2.23,1.46,2.7a60.09,60.09,0,0,0,36.39,29A57.24,57.24,0,0,0,381.91,382a51.82,51.82,0,0,0,20.7-7.26,53.81,53.81,0,0,0,11.82-9.84q1.58,0.32,3.13.54a46.24,46.24,0,0,0,11.18.29,36.68,36.68,0,0,0,8-1.66,22.11,22.11,0,0,0,2.16-.8l0.74-.31a7.54,7.54,0,0,0,1.07-.59,8.78,8.78,0,0,0,1-.82,9.3,9.3,0,0,0,1.55-2,11.3,11.3,0,0,0,1.27-5.26c0-3.88-1.81-7.77-4.57-11.28a102.13,102.13,0,0,0-7.78-8.37c-0.91-.93-1.65-1.71-2.22-2.27l0-.2,0.52-3.11c0.37-2,.46-3.71.61-5.23s0.25-2.81.31-3.86l0.06-3.15a8.61,8.61,0,0,0-1.27-4.52,10.56,10.56,0,0,0-3.48-3.28,16.44,16.44,0,0,0-10.78-1.7,25.26,25.26,0,0,0-10.34,3.92,11.56,11.56,0,0,0-3,2.83,5,5,0,0,0-1.13,3l0.11,2c0,0.62,0,1.4-.05,2.3a26.21,26.21,0,0,1-.14,3.07l-0.17,1.77-0.08,1-0.17.94-0.07.43c-3.77-1.38-7.77-3.07-11.9-5a292.84,292.84,0,0,1-26.49-14.42c-17.93-10.84-35.48-23.24-48.78-32.42-9.08-6.26-16.2-11-20.24-12.87,0.38-.69.73-1.38,1-2.09,8,2.51,20,6.17,32.91,9.68,22.09,6,38.4,9.37,50.22,10.25,6.77,0.5,12.06.19,16.11-.89,16.25-4.36,48.91-7.9,55.79-7.44,5.46,0.51,10.23-.71,10.62-2.72S456.31,266.54,450.81,266Zm-157.7-41.91h0l0.28,0Zm-21,10.3-0.71.78ZM271,235.69c-0.38.45-.75,0.9-1.12,1.38C270.24,236.6,270.61,236.14,271,235.69Zm1.67-1.85,0.63-.63Zm5.61-4.65,0.49-.31Zm1.91-1.15,0.43-.24Zm2.26-1.15,0.33-.14Zm1.88-.78,0.54-.2Zm2.12-.72,0.33-.1Zm2.23-.59,0.49-.1Zm2-.38,0.55-.09Zm-38.1,25-0.25.07Zm98.71,80.17a257.47,257.47,0,0,0,32.22,22.62,29.09,29.09,0,0,1-5.26,1.76,37,37,0,0,1-13.92.55,38.84,38.84,0,0,1-14-5.13A37.91,37.91,0,0,1,339,338.9l-1.17-1.63-1.4-2.17-2.78-4.3c-1.85-2.84-3.76-5.57-5.59-8.29-7.49-10.75-14.94-20.28-21.62-28.1-8.81-10.32-16.29-17.61-20.8-20.92a38.16,38.16,0,0,0,5.48-6C297.09,278.18,322.21,306.05,351.25,329.64Z"/><path class="cls-5" d="M148.75,465.94V465h5.63v1.88h1.88v1.88h1.88v5.63h-1.87v1.88h-1.87v1.88h-5.62v-1.87h-1.87v-1.87H145v-5.62h1.88v-1.87h1.88v-0.94Zm3.75,1.88v-0.94h-3.75v7.5h1.88v1.88h3.75v-7.5H152.5v-0.94Z"/><path class="cls-5" d="M160,466.88V465h13.13v3.75h-1.87v1.88h-1.87v1.88H167.5v5.63h-3.75V472.5h1.88v-1.87h1.88v-1.87h1.88v-1.87h-5.62v1.88H160v-1.87Z"/><path class="cls-5" d="M176.88,465.94V465h11.25v1.88h-1.87v1.88h-1.87v1.88h1.88v1.88h1.88v3.75h-1.87v1.88h-9.37v-1.87H175v-1.87h3.75v1.88h5.63V472.5h-5.62v-1.87h1.88v-1.87h1.88v-1.87h-5.62v-0.94Z"/><path class="cls-5" d="M206.88,465.94V465h11.25v1.88h-3.75v11.25h-3.75V466.88h-3.75v-0.94Z"/><path class="cls-5" d="M220,471.56V465h13.13v1.88h-9.37v3.75h7.5v1.88h-7.5v3.75h9.38v1.88H220v-6.56Z"/><path class="cls-5" d="M235,471.56V465h3.75v1.88h1.88v1.88h1.88v1.88h1.88V465h3.75v13.13h-3.75v-1.87H242.5v-1.87h-1.87V472.5h-1.87v5.63H235v-6.56Z"/><path class="cls-5" d="M251.88,465.94V465h11.25v1.88h-3.75v11.25h-3.75V466.88h-3.75v-0.94Z"/><path class="cls-5" d="M268.75,465.94V465h5.63v1.88h1.88v1.88h1.88v9.38h-3.75v-3.75h-5.62v3.75H265v-9.37h1.88v-1.87h1.88v-0.94Zm3.75,1.88v-0.94h-1.87v1.88h-1.87v3.75h5.63v-3.75H272.5v-0.94Z"/><path class="cls-5" d="M283.75,465.94V465h7.5v1.88h1.88v1.88h-3.75v-1.87h-3.75v1.88h-1.87v5.63h1.88v1.88h3.75v-1.87h3.75v1.88h-1.87v1.88h-7.5v-1.87h-1.87v-1.87H280v-5.62h1.88v-1.87h1.88v-0.94Z"/><path class="cls-5" d="M295,471.56V465h11.25v1.88h1.88v5.63h-3.75v1.88h1.88v1.88h1.88v1.88H302.5v-1.87h-1.87v-1.87h-1.87v3.75H295v-6.56Zm9.38-2.81v-1.87h-5.62v5.63h3.75v-1.87h1.88v-1.87Z"/><path class="cls-5" d="M310,470.63V465h3.75v11.25h5.63V465h3.75v11.25h-1.87v1.88h-9.37v-1.87H310v-5.62Z"/><path class="cls-5" d="M325,471.56V465h13.13v1.88h-9.37v3.75h7.5v1.88h-7.5v3.75h9.38v1.88H325v-6.56Z"/><path class="cls-5" d="M341.88,471.56V465h3.75v11.25h7.5v1.88H341.88v-6.56Z"/></svg>