<?xml version="1.0" ?><svg id="pkft" viewBox="0 0 500 500" xmlns="http://www.w3.org/2000/svg"><defs><style>.cls-1{fill:none;}.cls-2{fill:#9e9a8d;}.cls-3{fill:#b2ad9a;}.cls-4{fill:#fff;}.cls-5{opacity:0.1;}</style></defs><title/><path class="cls-1" d="M243.14,298.66l-0.76.25Z"/><path class="cls-2" d="M243.14,298.66l-0.76.25c-6,2-14.14,6.57-24.87,15.86,0,0,2.82,22.11,32.49,12.82V297.51A23.23,23.23,0,0,0,243.14,298.66Z"/><path class="cls-3" d="M250,297.51v-1.06l-6.86,2.21A23.23,23.23,0,0,1,250,297.51Z"/><path class="cls-4" d="M240.59,279l0.48-4.07a8,8,0,0,0-.76-4.13C238.87,277.36,235.25,282,231,282c-5.52,0-10-7.82-10-17.46a28.86,28.86,0,0,1,.8-6.79l-7.57-5.08c-2.33-1.47-4.6-.45-5,2.26l-3.36,20.14a4.71,4.71,0,0,0,4.15,5.5L235,283.43A5,5,0,0,0,240.59,279Z"/><path d="M235.25,276c-2.9,0-5.25-5.6-5.25-12.5,0-.08,0-0.16,0-0.24l-8.21-5.51a28.86,28.86,0,0,0-.8,6.79c0,9.65,4.48,17.46,10,17.46,4.25,0,7.87-4.64,9.32-11.16a9.76,9.76,0,0,0-.54-1C238.86,273.51,237.18,276,235.25,276Z"/><path class="cls-4" d="M230,263.5c0,6.9,2.35,12.5,5.25,12.5,1.93,0,3.61-2.49,4.53-6.19L230,263.26C230,263.34,230,263.42,230,263.5Z"/><path class="cls-2" d="M230,262.64l7.42,4.69a7.56,7.56,0,0,1,2.34,2.48l0.54-6.06S219,240,214,241.75s-6.5,4.5-6.5,4.5l6.73,6.42,7.63,4.82Z"/><path class="cls-2" d="M221.85,257.49l-7.63-4.82,7.57,5.08C221.82,257.66,221.83,257.57,221.85,257.49Z"/><path class="cls-2" d="M230,262.64l-8.16-5.16c0,0.09,0,.18-0.06.26l8.21,5.51C230,263.05,230,262.85,230,262.64Z"/><path class="cls-2" d="M237.44,267.33L230,262.64c0,0.2,0,.41,0,0.61l9.77,6.56A7.56,7.56,0,0,0,237.44,267.33Z"/><path class="cls-3" d="M240,203c0,1-10,4.33-10,4.33-27.33,2.33-28,18-28,18-9.33,5.33-13.33,18.33-13.92,23-0.54,4.27,6.27,18.33,7.42,21.17-2.88-.52-7.87-0.93-10.17,1.83-3.33,4-2,6-8.33,6.33s-12-5.4-22.33,5.8a60.61,60.61,0,0,0-7.58,9.52c1.65-5.37,4.58-15.48,4.58-19.32,0-5.33-5-14-8.33-21.67s-1.67-14,0-16S106,239.33,103,232.67c0,0-.67,53,0,54s26,48,34.33,43.33S155,313.67,165,310s18-3.67,25-5.67a3.44,3.44,0,0,0,1.47-1c7.3,8.18,23.87,13.29,23.87,13.29,0.74-.66,1.46-1.29,2.17-1.91,10.73-9.28,18.85-13.84,24.87-15.86l0.76-.25,6.86-2.21v-98C242,198.57,240,202.14,240,203Zm1.08,72L240.59,279a5,5,0,0,1-5.56,4.4L210,280.57a4.71,4.71,0,0,1-4.15-5.5l3.36-20.14c0.45-2.71,2.72-3.73,5-2.26l-6.73-6.42s1.5-2.75,6.5-4.5,26.32,22,26.32,22l-0.54,6.06a9.76,9.76,0,0,1,.54,1A8,8,0,0,1,241.08,275Z"/><path class="cls-2" d="M171.28,227.12a6.19,6.19,0,0,0-7.71-4.07l-1,.32,4-4a12,12,0,0,0,0-17l-17.28-17.28a12,12,0,0,0-17,0l-32.3,32.3a12,12,0,0,0,0,17l17.28,17.28a12,12,0,0,0,17,0l10.06-10.06a6.12,6.12,0,0,0,1.76-.27l21.2-6.55A6.19,6.19,0,0,0,171.28,227.12Z"/><path class="cls-1" d="M257.31,298.66l0.76,0.25Z"/><path class="cls-2" d="M257.08,298.66L258,298.9c6,2,14.61,6.57,25.34,15.86,0,0-3.3,22.11-33.3,12.82V297.51A23.89,23.89,0,0,1,257.08,298.66Z"/><path class="cls-3" d="M250,297.51v-1.06l6.86,2.21A22.59,22.59,0,0,0,250,297.51Z"/><path class="cls-4" d="M259.85,279L259.37,275a8,8,0,0,1,.76-4.13c1.45,6.53,5.07,11.16,9.32,11.16,5.52,0,10-7.82,10-17.46a28.86,28.86,0,0,0-.8-6.79l7.57-5.08c2.33-1.47,4.6-.45,5,2.26l3.36,20.14a4.71,4.71,0,0,1-4.15,5.5l-25.06,2.86A5,5,0,0,1,259.85,279Z"/><path d="M265.19,276c2.9,0,5.25-5.6,5.25-12.5,0-.08,0-0.16,0-0.24l8.21-5.51a28.86,28.86,0,0,1,.8,6.79c0,9.65-4.48,17.46-10,17.46-4.25,0-7.87-4.64-9.32-11.16a9.76,9.76,0,0,1,.54-1C261.58,273.51,263.26,276,265.19,276Z"/><path class="cls-4" d="M270.44,263.5c0,6.9-2.35,12.5-5.25,12.5-1.93,0-3.61-2.49-4.53-6.19l9.77-6.56C270.44,263.34,270.44,263.42,270.44,263.5Z"/><path class="cls-2" d="M270.42,262.64L263,267.33a7.56,7.56,0,0,0-2.34,2.48l-0.54-6.06s21.32-23.75,26.32-22,6.5,4.5,6.5,4.5l-6.73,6.42-7.63,4.82Z"/><path class="cls-2" d="M278.59,257.49l7.63-4.82-7.57,5.08C278.62,257.66,278.61,257.57,278.59,257.49Z"/><path class="cls-2" d="M270.42,262.64l8.16-5.16c0,0.09,0,.18.06,0.26l-8.21,5.51C270.43,263.05,270.43,262.85,270.42,262.64Z"/><path class="cls-2" d="M263,267.33l7.42-4.69c0,0.2,0,.41,0,0.61l-9.77,6.56A7.56,7.56,0,0,1,263,267.33Z"/><path class="cls-3" d="M250,198.44v98l7.08,2.21c0.25,0.08.61,0.16,0.87,0.25,6,2,14.2,6.57,24.92,15.86,0.71,0.62,1.46,1.25,2.2,1.91,0,0,16.58-5.1,23.88-13.29a3.46,3.46,0,0,0,1.47,1c7,2,15,2,25,5.67s19.34,15.33,27.67,20,33.67-42.33,34.33-43.33,0-54,0-54c-3,6.67-42,1.33-40.33,3.33s3.33,8.33,0,16-8.33,16.34-8.33,21.67c0,3.84,2.93,14,4.58,19.32a60.61,60.61,0,0,0-7.58-9.52c-10.33-11.2-16-5.46-22.33-5.8s-5-2.33-8.33-6.33c-2.3-2.76-7.29-2.35-10.17-1.83,1.15-2.85,8-16.9,7.42-21.17-0.59-4.67-4.59-17.67-13.92-23,0,0-.67-15.67-28-18,0,0-10.22-3.33-10.22-4.33S258,198.57,250,198.44Zm10.12,72.4a9.76,9.76,0,0,1,.54-1l-0.54-6.06s21.32-23.75,26.32-22,6.5,4.5,6.5,4.5l-6.73,6.42c2.33-1.47,4.6-.45,5,2.26l3.36,20.14a4.71,4.71,0,0,1-4.15,5.5l-25.06,2.86a5,5,0,0,1-5.56-4.4L259.37,275A8,8,0,0,1,260.12,270.84Z"/><path class="cls-2" d="M329.16,227.12a6.19,6.19,0,0,1,7.71-4.07l1,0.32-4-4a12,12,0,0,1,0-17l17.28-17.28a12,12,0,0,1,17,0l32.3,32.3a12,12,0,0,1,0,17l-17.28,17.28a12,12,0,0,1-17,0l-10.06-10.06a6.12,6.12,0,0,1-1.76-.27l-21.2-6.55A6.19,6.19,0,0,1,329.16,227.12Z"/><path class="cls-5" d="M400.5,217.46l-32.3-32.3a12,12,0,0,0-17,0l-17.28,17.28a12,12,0,0,0,0,17l4,4-1-.32a6.17,6.17,0,1,0-3.64,11.79l21.2,6.55a6.12,6.12,0,0,0,1.76.27l2.79,2.79a22.5,22.5,0,0,1-1.88,7.55c-3.33,7.66-8.33,16.34-8.33,21.67,0,3.84,2.93,14,4.58,19.32a60.58,60.58,0,0,0-7.58-9.52c-10.33-11.2-16-5.46-22.33-5.8s-5-2.33-8.33-6.33c-2.3-2.76-7.29-2.35-10.17-1.83,1.15-2.85,8-16.9,7.42-21.17-0.59-4.67-4.59-17.67-13.92-23,0,0-.67-15.67-28-18,0,0-10.22-3.33-10.22-4.33S258,198.57,250,198.44v98l7.08,2.21c0.25,0.08.61,0.16,0.87,0.25l-0.87-.25c-0.48-.15-0.93-0.26-1.39-0.38l-5.7-1.83v31.13c27.92,8.64,32.71-9.89,33.24-12.51,0.61,0.52,1.23,1,1.84,1.6,0,0,16.58-5.1,23.88-13.29a3.46,3.46,0,0,0,1.47,1c7,2,15,2,25,5.67s19.34,15.33,27.67,20,33.67-42.33,34.33-43.33c0.54-.82.2-36.2,0.06-49.24l3-3A12,12,0,0,0,400.5,217.46Z"/><path class="cls-3" d="M171.25,465.94V465h5.63v1.88h1.88v1.88h1.88v5.63h-1.87v1.88h-1.87v1.88h-5.62v-1.87h-1.87v-1.87H167.5v-5.62h1.88v-1.87h1.88v-0.94Zm3.75,1.88v-0.94h-3.75v7.5h1.88v1.88h3.75v-7.5H175v-0.94Z"/><path class="cls-3" d="M182.5,466.88V465h13.13v3.75h-1.87v1.88h-1.87v1.88H190v5.63h-3.75V472.5h1.88v-1.87H190v-1.87h1.88v-1.87h-5.62v1.88H182.5v-1.87Z"/><path class="cls-3" d="M203.13,465.94V465h5.63v7.5h1.88v1.88h-1.87v3.75H205v-3.75h-7.5v-3.75h1.88v-1.87h1.88v-1.87h1.88v-0.94Zm1.88,4.69v-1.87h-1.87v1.88h-1.87v1.88H205v-1.87Z"/><path class="cls-3" d="M231.25,465.94V465h9.38v1.88h-7.5v1.88h-1.87v5.63h1.88v1.88h3.75V472.5H235v-1.87h5.63v7.5h-9.37v-1.87h-1.87v-1.87H227.5v-5.62h1.88v-1.87h1.88v-0.94Z"/><path class="cls-3" d="M242.5,471.56V465h13.13v1.88h-9.37v3.75h7.5v1.88h-7.5v3.75h9.38v1.88H242.5v-6.56Z"/><path class="cls-3" d="M259.38,465.94V465h9.38v1.88h1.88v9.38h-1.87v1.88h-9.37v-1.87H257.5v-9.37h1.88v-0.94Zm7.5,5.63v-4.69h-5.62v9.38h5.63v-4.69Z"/><path class="cls-3" d="M272.5,471.56V465h9.38v1.88h1.88v1.88h1.88v5.63h-1.87v1.88h-1.87v1.88H272.5v-6.56Zm7.5-3.75v-0.94h-3.75v9.38H280v-1.87h1.88v-5.62H280v-0.94Z"/><path class="cls-3" d="M287.5,470.63V465h3.75v11.25h5.63V465h3.75v11.25h-1.87v1.88h-9.37v-1.87H287.5v-5.62Z"/><path class="cls-3" d="M302.5,471.56V465h9.38v1.88h1.88v1.88h1.88v5.63h-1.87v1.88h-1.87v1.88H302.5v-6.56Zm7.5-3.75v-0.94h-3.75v9.38H310v-1.87h1.88v-5.62H310v-0.94Z"/><path class="cls-3" d="M317.5,471.56V465h13.13v1.88h-9.37v3.75h7.5v1.88h-7.5v3.75h9.38v1.88H317.5v-6.56Z"/></svg>