<?xml version="1.0" ?><svg id="pkft" viewBox="0 0 500 500" xmlns="http://www.w3.org/2000/svg"><defs><style>.cls-1{fill:#c1b9ac;}.cls-2{fill:#cdc3b3;}.cls-3{fill:#fff;}.cls-4,.cls-6{fill:#1a1a1a;}.cls-5{fill:#ed573f;}.cls-6{opacity:0.1;}</style></defs><title/><path class="cls-1" d="M227,322.25l0.05,0C226.34,321.79,226.17,321.67,227,322.25Z"/><path class="cls-1" d="M218.3,331.76l5.14,3.73a5,5,0,0,0,5,.24l7.2-4.22a1.76,1.76,0,0,0,.12-3.22l-8.73-6-0.05,0c-0.83-.58-0.66-0.46.05,0,3.27,2.21,10.64,1.51,10.64,1.51a3.85,3.85,0,0,0,3.31-3.27l0.43-4a3.41,3.41,0,0,0-2.61-3.61l-5.88-1.25c-1.61-.34-1.74-1.26-0.29-2l6.45-3.43a2.63,2.63,0,0,0,1-3.89l-1.74-2.55a6.08,6.08,0,0,0-4.69-2.37l-7.88.28a9.5,9.5,0,0,0-5.21,2.13l-1.32,1.2a6.51,6.51,0,0,1-5.15,1.38L196.5,298.5c2-8.25-6.5-12.5-6.5-12.5,3.75-2.75,8.75-12.73,8.75-12.73-20.22-4.54-34.28.35-41.31,4a30.55,30.55,0,0,0-5.16,3.27,14.18,14.18,0,0,0-3.38,4.74,25.88,25.88,0,0,0-1.41,7.21c-0.17,2.88,7.59,11,12.62,15.93,2.39,2.35,4.17,4,4.17,4,4.77-1,8-.18,10.3,1.58,6.28,4.89,4.58,17,4.58,17a2.23,2.23,0,0,0,2.56,2.65l7.83-.84,23.33-2.51A9,9,0,0,1,218.3,331.76Z"/><path class="cls-1" d="M205,346.75c-1.5-1-1.5-.75-1.5-0.75,0.83-2.48,0-4-1.75-4h-5.5c-1.21,0-2.42-1.12-3.58-2.87-1.13,7.06-2.92,24.49,2.49,28.87,6,4.81,8.08,1.88,8.08,1.88l3.56-9.69s-0.09,8.54.38,10.69c0.32,1.48,10,3.46,10.31,1.63,0.09-.49.67-6.33,0.67-6.33s2.61,6.29,3.46,5.71c2.17-1.5,5,1.79,5.43-1.87,0.35-2.84,0-12.87-.21-17.26-0.63.47-1,.76-1,0.76C222.5,354.5,206.5,347.75,205,346.75Z"/><path class="cls-2" d="M199.62,227.62a2,2,0,0,0,0-.53c0,0.17,0,.35-0.05.52h0Z"/><path class="cls-3" d="M235.1,261.92a77.77,77.77,0,0,0,11.15-3.17s-4.47-4.67-9.64-9q0,0.64,0,1.29C236.63,255.81,236,260,235.1,261.92Z"/><path class="cls-3" d="M233,262.29c-1-1.76-1.71-6.15-1.71-11.29a50,50,0,0,1,.27-5.23c-4.51-3.14-8.65-4.87-10-2,0,0-5.5,9.5-.87,16.25C222.65,263,227.81,263.08,233,262.29Z"/><path class="cls-4" d="M233,262.29c0.71-.11,1.43-0.24,2.13-0.37,0.9-2,1.52-6.1,1.52-10.92q0-.65,0-1.29c-1.66-1.4-3.4-2.77-5.08-3.94a50,50,0,0,0-.27,5.23C231.26,256.15,232,260.53,233,262.29Z"/><path class="cls-5" d="M220,269.5c17.72,9.67,26.1,11.84,30,12V265.32C237.18,263.71,220,269.5,220,269.5Z"/><path class="cls-1" d="M244.23,200.42c-0.27-1.67-1-4.41-1.74-7.52-0.72-2.86-1.79-7.13-1.87-8.29a2.6,2.6,0,0,0-.88-2.45c-1.71-1.39-2.45-.95-11.75,5.33-4.2,2.84-8.39,5.76-8.43,5.79a2.5,2.5,0,0,0-1.06,2.2c0.24,4,.42,8.59.44,11.87a24.3,24.3,0,0,1-3.13-5,2.78,2.78,0,0,0-1.68-2.26c-1.17-.5-2.76-1.19-12.53,6.63a2.5,2.5,0,0,0-.9,2.37c1.6,9.52,2.63,15,3.39,18.19a25.65,25.65,0,0,1-4.5-1.07,2.09,2.09,0,0,0-1.77-1.69,2.54,2.54,0,0,0-3.08,2c0,0.09,0,.18-0.06.28-0.35,1.48-1.59,6.69-2.45,10.25a2.5,2.5,0,0,0,.27,1.84l8.67,14.84a2.5,2.5,0,1,0,4.32-2.52l-8.16-14,1.45-6.07a35.89,35.89,0,0,0,5.2,1.1c3,0.43,4.93.71,5.82-1.18a2.56,2.56,0,0,0-.21-2.5c-0.61-1.73-2.29-10.57-3.71-18.91a71.51,71.51,0,0,1,5.94-4.19c1.85,3.56,5.85,8.62,7.82,9.45a2.84,2.84,0,0,0,3-.38c1-.82,1.92-1.6,1-18,4.68-3.25,9.6-6.59,12.6-8.51,0.32,1.46.8,3.41,1.46,6.05,0.74,2.94,1.58,6.28,1.7,7.47a3.78,3.78,0,0,0,1.47,2.6c1.88,1.5,5.78,1.76,9.18,1.66v-5A20.05,20.05,0,0,1,244.23,200.42Zm-44.61,27.19h0c0-.18,0-0.35.05-0.52A2,2,0,0,1,199.62,227.62Zm9.17,0.24h0Zm0,0h0Zm0,0h0Zm2.05-25h0Zm0.16,0h0Zm4.82-.47v0ZM240,185.15h0Z"/><path class="cls-2" d="M242.49,192.9c0.78,3.11,1.47,5.85,1.74,7.52a20.05,20.05,0,0,0,5.77.41V176.2c-6.4-.61-17.49-1.74-18.74-2.27-1.76-.75-10.44-7.52-10.44-7.52a8.8,8.8,0,0,0-8.44-.89L201,170.81c-2.47,1.2-5,4.44-5,7.19v11c0,2.75-1.55,4.08-4.07,3l-4.62-2.17a7.84,7.84,0,0,0-8.05,1.42L172.18,198a10.18,10.18,0,0,0-2.61,8.36l0.89,4.48h0l0.49,2.5c0.39,2,.38,2,0,0l-0.5-2.5c-6.89-2-16.32-5.87-17-12.8l-9.63-2.27c-2.68-.63-25.73-27.38-25.73-27.38s-0.8-4.77-4.47-7.44a2.71,2.71,0,0,1-.36-0.32l27-5.4a6.52,6.52,0,0,0,5.1-7.65L145,145.41a6.52,6.52,0,0,0-7.65-5.1l-26.18,5.22c0.07-1.33.14-2.19,0.14-2.19L94.4,135.7a6.42,6.42,0,0,0-1.68-1.4l-16.59-9.58a6.52,6.52,0,0,0-8.88,2.38l-3.57,6.19a6.52,6.52,0,0,0,2.38,8.88L78.6,149.4C77.8,156,69.85,161,68.78,161.6a6.48,6.48,0,0,0-5,1.88L50.22,177a6.52,6.52,0,0,0,0,9.19l1.61,1.61a6.52,6.52,0,0,0,9.19,0l10-10V178h9.37l4.94,35.31a15.75,15.75,0,0,0,4.44,8.26l7.35,0.06c0.31-2.73,1.47-4,2.57-2.8a8.77,8.77,0,0,0,5.67,2.17c2,0,8.4-3.42,8.48-.67,0,0,.52,18.34,19.19,13.34s24.31-4.65,27.82,1.73c1.67-1.22,1.85-1.22.18,0-1,.46-1.35.79-2,1.08l-10.27,4.88a8.85,8.85,0,0,0-4.59,7.15S144,262.58,145.25,265s8.91,7.84,8.91,7.84a8.85,8.85,0,0,1,3.29,4.41c7-3.67,21.08-8.56,41.3-4,0,0-5,10-8.75,12.73,0,0,8.5,4.25,6.5,12.5l17.57,3.86a6.51,6.51,0,0,0,5.15-1.38l1.32-1.2a9.5,9.5,0,0,1,5.21-2.13l7.88-.28a6.08,6.08,0,0,1,4.69,2.37l1.74,2.55a2.63,2.63,0,0,1-1,3.89l-6.45,3.43c-1.46.77-1.33,1.69,0.29,2l5.88,1.25a3.41,3.41,0,0,1,2.61,3.61l-0.43,4a3.85,3.85,0,0,1-3.31,3.27s-7.36.7-10.64-1.51l8.73,6a1.76,1.76,0,0,1-.12,3.22l-7.2,4.22a5,5,0,0,1-5-.24l-5.14-3.73a9,9,0,0,0-5.41-1.44l-23.33,2.51a36,36,0,0,0,3.11,6.3c1.16,1.74,2.37,2.87,3.58,2.87h5.5c1.79,0,2.58,1.52,1.75,4,0,0,0-.25,1.5.75s17.5,7.75,20.87,6.75c0,0,.34-0.29,1-0.76,2.91-2.16,12.09-8.18,23.16-7.18V281.5c-3.9-.16-12.28-2.33-30-12,0,0,17.18-5.79,30-4.18V205.85c-3.4.11-7.3-.16-9.18-1.66a3.78,3.78,0,0,1-1.47-2.6c-0.13-1.2-1-4.53-1.7-7.47-0.67-2.64-1.14-4.59-1.46-6.05-3,1.93-7.93,5.26-12.6,8.51,0.94,16.4,0,17.18-1,18a2.84,2.84,0,0,1-3,.38c-2-.82-6-5.89-7.82-9.45a71.51,71.51,0,0,0-5.94,4.19c1.42,8.33,3.1,17.18,3.71,18.91a2.56,2.56,0,0,1,.21,2.5c-0.89,1.89-2.85,1.61-5.82,1.18a35.89,35.89,0,0,1-5.2-1.1l-1.45,6.07,8.16,14a2.5,2.5,0,1,1-4.32,2.52l-8.67-14.84a2.5,2.5,0,0,1-.27-1.84c0.85-3.56,2.1-8.76,2.45-10.25,0-.1,0-0.19.06-0.28a2.54,2.54,0,0,1,3.08-2,2.09,2.09,0,0,1,1.77,1.69,25.65,25.65,0,0,0,4.5,1.07c-0.75-3.2-1.79-8.67-3.39-18.19a2.5,2.5,0,0,1,.9-2.37c9.77-7.82,11.37-7.13,12.53-6.63a2.78,2.78,0,0,1,1.68,2.26,24.3,24.3,0,0,0,3.13,5c0-3.28-.19-7.83-0.44-11.87a2.5,2.5,0,0,1,1.06-2.2s4.23-3,8.43-5.79c9.29-6.28,10-6.72,11.75-5.33a2.6,2.6,0,0,1,.88,2.45C240.7,185.77,241.77,190,242.49,192.9Zm-21,50.85c1.38-2.86,5.52-1.12,10,2,1.69,1.17,3.42,2.54,5.08,3.94,5.17,4.37,9.64,9,9.64,9a77.77,77.77,0,0,1-11.15,3.17c-0.71.14-1.42,0.27-2.13,0.38-5.16.79-10.32,0.66-12.35-2.29C216,253.25,221.5,243.75,221.5,243.75Z"/><path class="cls-1" d="M273.32,322.25l-0.05,0C274,321.79,274.15,321.67,273.32,322.25Z"/><path class="cls-1" d="M282,331.76l-5.14,3.73a5,5,0,0,1-5,.24l-7.2-4.22a1.76,1.76,0,0,1-.12-3.22l8.73-6,0.05,0c0.83-.58.66-0.46-0.05,0-3.27,2.21-10.64,1.51-10.64,1.51a3.85,3.85,0,0,1-3.31-3.27l-0.43-4a3.41,3.41,0,0,1,2.61-3.61l5.88-1.25c1.61-.34,1.74-1.26.29-2l-6.45-3.43a2.63,2.63,0,0,1-1-3.89l1.74-2.55a6.08,6.08,0,0,1,4.69-2.37l7.88,0.28a9.5,9.5,0,0,1,5.21,2.13l1.32,1.2a6.51,6.51,0,0,0,5.15,1.38l17.57-3.86c-2-8.25,6.5-12.5,6.5-12.5-3.75-2.75-8.75-12.73-8.75-12.73,20.22-4.54,34.28.35,41.31,4a30.55,30.55,0,0,1,5.16,3.27,14.18,14.18,0,0,1,3.38,4.74,25.88,25.88,0,0,1,1.41,7.21c0.17,2.88-7.59,11-12.62,15.93-2.39,2.35-4.17,4-4.17,4-4.77-1-8-.18-10.3,1.58-6.28,4.89-4.58,17-4.58,17a2.23,2.23,0,0,1-2.56,2.65l-7.83-.84-23.33-2.51A9,9,0,0,0,282,331.76Z"/><path class="cls-1" d="M295.32,346.75c1.5-1,1.5-.75,1.5-0.75-0.83-2.48,0-4,1.75-4h5.5c1.21,0,2.42-1.12,3.58-2.87,1.13,7.06,2.92,24.49-2.49,28.87-6,4.81-8.08,1.88-8.08,1.88l-3.56-9.69s0.09,8.54-.37,10.69c-0.32,1.48-10,3.46-10.31,1.63-0.09-.49-0.67-6.33-0.67-6.33s-2.61,6.29-3.46,5.71c-2.17-1.5-5,1.79-5.43-1.87-0.35-2.84,0-12.87.21-17.26,0.63,0.47,1,.76,1,0.76C277.82,354.5,293.82,347.75,295.32,346.75Z"/><path class="cls-2" d="M300.7,227.62a2,2,0,0,1,0-.53c0,0.17,0,.35.05,0.52h0Z"/><path class="cls-3" d="M265.22,261.92a77.77,77.77,0,0,1-11.15-3.17s4.47-4.67,9.64-9q0,0.64,0,1.29C263.69,255.81,264.32,260,265.22,261.92Z"/><path class="cls-3" d="M267.35,262.29c1-1.76,1.71-6.15,1.71-11.29a50,50,0,0,0-.27-5.23c4.51-3.14,8.65-4.87,10-2,0,0,5.5,9.5.88,16.25C277.67,263,272.51,263.08,267.35,262.29Z"/><path class="cls-4" d="M267.35,262.29c-0.71-.11-1.43-0.24-2.13-0.37-0.9-2-1.52-6.1-1.52-10.92q0-.65,0-1.29c1.66-1.4,3.4-2.77,5.08-3.94a50,50,0,0,1,.27,5.23C269.06,256.15,268.35,260.53,267.35,262.29Z"/><path class="cls-5" d="M280,269.5c-17.72,9.67-26,11.84-30,12V265.32C263,263.71,280,269.5,280,269.5Z"/><path class="cls-1" d="M250,200.83v5c4,0.11,7.46-.16,9.34-1.66a3.94,3.94,0,0,0,1.55-2.6c0.13-1.2,1-4.53,1.74-7.47,0.67-2.64,1.16-4.59,1.48-6.05,3,1.93,7.94,5.26,12.61,8.51-0.94,16.4,0,17.18,1,18a2.85,2.85,0,0,0,3,.38c2-.82,6-5.89,7.82-9.45a71.51,71.51,0,0,1,5.94,4.19c-1.42,8.33-3.1,17.18-3.71,18.91a2.56,2.56,0,0,0-.21,2.5c0.89,1.89,2.85,1.61,5.82,1.18a35.89,35.89,0,0,0,5.2-1.1l1.45,6.07-8.16,14a2.5,2.5,0,1,0,4.32,2.52l8.67-14.84a2.5,2.5,0,0,0,.27-1.84c-0.85-3.56-2.1-8.76-2.45-10.25,0-.1,0-0.19-0.06-0.28a2.54,2.54,0,0,0-3.08-2,2.09,2.09,0,0,0-1.77,1.69,25.65,25.65,0,0,1-4.5,1.07c0.75-3.2,1.79-8.67,3.39-18.19a2.5,2.5,0,0,0-.9-2.37c-9.77-7.82-11.37-7.13-12.53-6.63a2.78,2.78,0,0,0-1.68,2.26,24.3,24.3,0,0,1-3.13,5c0-3.28.19-7.83,0.44-11.87a2.5,2.5,0,0,0-1.06-2.2s-4.23-3-8.43-5.79c-9.29-6.28-10-6.72-11.75-5.33a2.6,2.6,0,0,0-.88,2.45c-0.07,1.16-1.15,5.43-1.87,8.29-0.78,3.11-1.63,5.85-1.9,7.52A19.71,19.71,0,0,1,250,200.83Zm50.68,26.25c0,0.17,0,.35.05,0.52h0A2,2,0,0,1,300.68,227.09Zm-9.16.78h0Zm0,0h0Zm0,0h0Zm-2.05-25h0Zm-0.48,0h0Zm-4.51-.42v0ZM260,185.15h0Z"/><path class="cls-2" d="M259.69,184.61a2.6,2.6,0,0,1,.88-2.45c1.71-1.39,2.45-.95,11.75,5.33,4.2,2.84,8.39,5.76,8.43,5.79a2.5,2.5,0,0,1,1.06,2.2c-0.24,4-.42,8.59-0.44,11.87a24.3,24.3,0,0,0,3.13-5,2.78,2.78,0,0,1,1.68-2.26c1.17-.5,2.76-1.19,12.53,6.63a2.5,2.5,0,0,1,.9,2.37c-1.6,9.52-2.63,15-3.39,18.19a25.65,25.65,0,0,0,4.5-1.07,2.09,2.09,0,0,1,1.77-1.69,2.54,2.54,0,0,1,3.08,2c0,0.09,0,.18.06,0.28,0.35,1.48,1.59,6.69,2.45,10.25a2.5,2.5,0,0,1-.27,1.84l-8.67,14.84a2.5,2.5,0,0,1-4.32-2.52l8.16-14-1.45-6.07a35.89,35.89,0,0,1-5.2,1.1c-3,.43-4.93.71-5.82-1.18a2.56,2.56,0,0,1,.21-2.5c0.61-1.73,2.29-10.57,3.71-18.91a71.51,71.51,0,0,0-5.94-4.19c-1.85,3.56-5.85,8.62-7.82,9.45a2.84,2.84,0,0,1-3-.38c-1-.82-1.92-1.6-1-18-4.68-3.25-9.6-6.59-12.6-8.51-0.32,1.46-.8,3.41-1.46,6.05-0.74,2.94-1.58,6.28-1.7,7.47a4.12,4.12,0,0,1-1.63,2.6c-1.88,1.5-5.34,1.76-9.34,1.66v59.47c13-1.61,30,4.18,30,4.18-17.72,9.67-26,11.84-30,12v64.06c11-1,20.41,5,23.32,7.18,0.63,0.47,1,.76,1,0.76,3.38,1,19.41-5.75,20.91-6.75s1.52-.75,1.52-0.75c-0.83-2.48,0-4,1.77-4h5.5c1.21,0,2.42-1.12,3.58-2.87a36,36,0,0,0,3.11-6.3l-23.33-2.51a9,9,0,0,0-5.41,1.44l-5.14,3.73a5,5,0,0,1-5,.24l-7.2-4.22a1.76,1.76,0,0,1-.12-3.22l8.73-6c-3.27,2.21-10.64,1.51-10.64,1.51a3.85,3.85,0,0,1-3.31-3.27l-0.43-4a3.41,3.41,0,0,1,2.61-3.61l5.88-1.25c1.61-.34,1.74-1.26.29-2l-6.45-3.43a2.63,2.63,0,0,1-1-3.89l1.74-2.55a6.08,6.08,0,0,1,4.69-2.37l7.88,0.28a9.5,9.5,0,0,1,5.21,2.13l1.32,1.2a6.51,6.51,0,0,0,5.15,1.38l17.57-3.86c-2-8.25,6.5-12.5,6.5-12.5-3.75-2.75-8.75-12.73-8.75-12.73,20.22-4.54,34.28.35,41.3,4a8.85,8.85,0,0,1,3.29-4.41s7.66-5.37,8.91-7.84,1.06-16.53,1.06-16.53a8.85,8.85,0,0,0-4.59-7.15l-10.27-4.88c-0.6-.29-1-0.62-2-1.08-1.68-1.22-1.5-1.22.18,0,3.51-6.39,9.16-6.73,27.82-1.73s19.19-13.34,19.19-13.34c0.08-2.75,6.46.67,8.48,0.67a8.77,8.77,0,0,0,5.67-2.17c1.1-1.19,2.26.07,2.57,2.8l7.35-.06a15.75,15.75,0,0,0,4.44-8.26L420,178h9.37v-0.17l10,10a6.52,6.52,0,0,0,9.19,0l1.61-1.61a6.52,6.52,0,0,0,0-9.19l-13.55-13.55a6.48,6.48,0,0,0-5-1.88c-1.06-.63-9-5.56-9.81-12.2l12.54-7.24a6.52,6.52,0,0,0,2.38-8.88l-3.57-6.19a6.52,6.52,0,0,0-8.88-2.38l-16.59,9.58a6.42,6.42,0,0,0-1.68,1.4L389,143.33s0.08,0.86.14,2.19L363,140.3a6.52,6.52,0,0,0-7.65,5.1l-0.45,2.23a6.52,6.52,0,0,0,5.1,7.65l27,5.4a2.71,2.71,0,0,1-.36.32c-3.67,2.67-4.47,7.44-4.47,7.44s-23.05,26.75-25.73,27.38l-9.63,2.27c-0.63,6.93-10.06,10.85-17,12.8l-0.5,2.5c-0.39,2-.4,2,0,0l0.49-2.5h0l0.89-4.48a10.18,10.18,0,0,0-2.61-8.36l-7.09-6.84a7.84,7.84,0,0,0-8.05-1.42L308.23,192c-2.51,1.12-4.23-.21-4.23-3V178c0-2.75-2.36-6-4.84-7.19l-11.3-5.29a8.72,8.72,0,0,0-8.4.89s-8.82,6.77-10.58,7.52c-1.25.53-11.88,1.65-18.88,2.27v24.63a19.71,19.71,0,0,0,5.93-.41c0.27-1.67,1-4.41,1.82-7.52C258.47,190,259.62,185.77,259.69,184.61Zm20,75.39c-2,3-7.18,3.08-12.35,2.29-0.71-.11-1.43-0.24-2.13-0.37a77.77,77.77,0,0,1-11.15-3.17s4.47-4.67,9.64-9c1.66-1.4,3.4-2.77,5.08-3.94,4.51-3.14,8.65-4.87,10-2C278.82,243.75,284.32,253.25,279.69,260Z"/><path class="cls-6" d="M450.1,177l-13.55-13.55a6.48,6.48,0,0,0-5-1.88c-1.06-.63-9-5.56-9.81-12.2l12.54-7.24a6.52,6.52,0,0,0,2.38-8.88l-3.57-6.19a6.52,6.52,0,0,0-8.88-2.38l-16.59,9.58a6.42,6.42,0,0,0-1.68,1.4L389,143.33s0.08,0.86.14,2.19L363,140.3a6.52,6.52,0,0,0-7.65,5.1l-0.45,2.23a6.52,6.52,0,0,0,5.1,7.65l27,5.4a2.71,2.71,0,0,1-.36.32c-3.67,2.67-4.47,7.44-4.47,7.44s-23.05,26.75-25.73,27.38l-9.63,2.27c-0.63,6.93-10.06,10.85-17,12.8l-0.5,2.5c-0.39,2-.4,2,0,0l0.49-2.5h0l0.89-4.48a10.18,10.18,0,0,0-2.61-8.36l-7.09-6.84a7.84,7.84,0,0,0-8.05-1.42L308.23,192c-2.51,1.12-4.23-.21-4.23-3V178c0-2.75-2.36-6-4.84-7.19l-11.3-5.29a8.72,8.72,0,0,0-8.4.89s-8.82,6.77-10.58,7.52c-1.25.53-11.88,1.65-18.88,2.27V345.56c11-1,20.41,5,23.32,7.18l0.15,0.11c-0.19,4.44-.55,14.33-0.21,17.14,0.45,3.67,3.26.38,5.43,1.88,0.84,0.58,3.46-5.71,3.46-5.71s0.58,5.84.67,6.33c0.33,1.83,10-.14,10.31-1.62,0.46-2.15.38-10.69,0.38-10.69l3.56,9.69s2.13,2.94,8.08-1.87c5.42-4.37,3.62-21.81,2.49-28.87a36,36,0,0,0,3.11-6.3l7.83,0.84a2.23,2.23,0,0,0,2.56-2.65s-1.7-12.14,4.58-17c2.26-1.76,5.53-2.59,10.3-1.58,0,0,1.78-1.64,4.17-4,5-4.94,12.79-13.06,12.62-15.93a25.88,25.88,0,0,0-1.41-7.21,14.76,14.76,0,0,0-3.38-4.88,47.89,47.89,0,0,0-5.16-3.41h0a11.94,11.94,0,0,1,3.29-4.26s7.66-5.3,8.91-7.76,1.06-16.49,1.06-16.49a8.82,8.82,0,0,0-4.59-7.13l-10.27-4.88c-0.6-.29-1-0.61-2-1.07-1.68-1.22-1.5-1.21.18,0,3.51-6.39,9.16-6.73,27.82-1.73s19.19-13.33,19.19-13.33c0.08-2.75,6.46.67,8.48,0.67a8.77,8.77,0,0,0,5.67-2.17c1.1-1.19,2.26.07,2.57,2.8l7.35-.06a15.75,15.75,0,0,0,4.44-8.26L420,178h9.37v-0.17l10,10a6.52,6.52,0,0,0,9.19,0l1.61-1.61A6.52,6.52,0,0,0,450.1,177ZM310.41,285.87S302,290.18,304,298.43v0c-2-8.25,6.41-12.62,6.41-12.62-3.75-2.75-8.84-12.85-8.84-12.85h0S306.66,283.12,310.41,285.87ZM260.89,201.6c0.13-1.2,1-4.53,1.74-7.47,0.67-2.64,1.16-4.59,1.48-6.05h0c-0.32,1.46-.8,3.4-1.46,6-0.74,2.94-1.58,6.28-1.7,7.47a3.79,3.79,0,0,1-1,2A3.74,3.74,0,0,0,260.89,201.6Zm27.61,3.93h0c-1.85,3.56-5.85,8.62-7.82,9.45a3.05,3.05,0,0,1-1.57.23,3.05,3.05,0,0,0,1.57-.23C282.65,214.15,286.65,209.08,288.5,205.52Zm7.84,26.78a24.42,24.42,0,0,1-2.91.31,24.42,24.42,0,0,0,2.91-.31c0.6-.09,1.44-0.22,2.36-0.4C297.78,232.09,296.94,232.22,296.34,232.31Zm-38.59-39.4c0.72-2.86,1.87-7.13,1.94-8.29-0.07,1.16-1.15,5.43-1.87,8.29-0.78,3.11-1.63,5.85-1.9,7.52C256.2,198.75,257,196,257.75,192.9ZM275.2,353.6c4.61,0,18.68-5.91,20.08-6.85a4,4,0,0,1,1.46-.78,4.7,4.7,0,0,0-1.42.78C293.91,347.69,279.72,353.7,275.2,353.6Zm21.62-7.6a0,0,0,0,0,0,0c-0.81-2.46,0-4,1.78-4C296.78,342,296,343.52,296.82,346Z"/><path class="cls-1" d="M163.75,465.94V465h5.63v1.88h1.88v1.88h1.88v5.63h-1.87v1.88h-1.87v1.88h-5.62v-1.87h-1.87v-1.87H160v-5.62h1.88v-1.87h1.88v-0.94Zm3.75,1.88v-0.94h-3.75v7.5h1.88v1.88h3.75v-7.5H167.5v-0.94Z"/><path class="cls-1" d="M175,466.88V465h13.13v3.75h-1.87v1.88h-1.87v1.88H182.5v5.63h-3.75V472.5h1.88v-1.87h1.88v-1.87h1.88v-1.87h-5.62v1.88H175v-1.87Z"/><path class="cls-1" d="M190,467.81V465h11.25v1.88h-7.5v1.88h7.5v1.88h1.88v5.63h-1.87v1.88h-9.37v-1.87H190v-1.87h3.75v1.88h5.63v-5.62H190v-2.81Z"/><path class="cls-1" d="M223.75,465.94V465h9.38v1.88h-7.5v1.88h-1.87v5.63h1.88v1.88h3.75V472.5H227.5v-1.87h5.63v7.5h-9.37v-1.87h-1.87v-1.87H220v-5.62h1.88v-1.87h1.88v-0.94Z"/><path class="cls-1" d="M235,471.56V465h11.25v1.88h1.88v5.63h-3.75v1.88h1.88v1.88h1.88v1.88H242.5v-1.87h-1.87v-1.87h-1.87v3.75H235v-6.56Zm9.38-2.81v-1.87h-5.62v5.63h3.75v-1.87h1.88v-1.87Z"/><path class="cls-1" d="M253.75,465.94V465h5.63v1.88h1.88v1.88h1.88v9.38h-3.75v-3.75h-5.62v3.75H250v-9.37h1.88v-1.87h1.88v-0.94Zm3.75,1.88v-0.94h-1.87v1.88h-1.87v3.75h5.63v-3.75H257.5v-0.94Z"/><path class="cls-1" d="M265,468.75V465h3.75v5.63h1.88v1.88h1.88v-1.87h1.88V465h3.75v7.5h-1.87v1.88h-1.87v1.88H272.5v1.88h-1.87v-1.87h-1.87v-1.87h-1.87V472.5H265v-3.75Z"/><path class="cls-1" d="M280,471.56V465h13.13v1.88h-9.37v3.75h7.5v1.88h-7.5v3.75h9.38v1.88H280v-6.56Z"/><path class="cls-1" d="M296.88,471.56V465h3.75v11.25h7.5v1.88H296.88v-6.56Z"/><path class="cls-1" d="M310,471.56V465h13.13v1.88h-9.37v3.75h7.5v1.88h-7.5v3.75h9.38v1.88H310v-6.56Z"/><path class="cls-1" d="M325,471.56V465h11.25v1.88h1.88v5.63h-3.75v1.88h1.88v1.88h1.88v1.88H332.5v-1.87h-1.87v-1.87h-1.87v3.75H325v-6.56Zm9.38-2.81v-1.87h-5.62v5.63h3.75v-1.87h1.88v-1.87Z"/></svg>