<?xml version="1.0" ?><svg id="pkft" viewBox="0 0 500 500" xmlns="http://www.w3.org/2000/svg"><defs><style>.cls-1{fill:none;}.cls-2{fill:#7a763f;}.cls-3{fill:#e08a4f;}.cls-4{fill:#e79758;}.cls-5{fill:#fff;}.cls-6{fill:#d40025;}.cls-7{fill:#1a1a1a;}.cls-8{fill:#aa2b00;}.cls-9{fill:#ff869b;}.cls-10{fill:#878445;}.cls-11{fill:#706b3a;}.cls-12{fill:#6d6631;}.cls-13{fill:#635e35;}.cls-14{fill:#cec399;}.cls-15{fill:#fff3c1;}.cls-16{fill:#f2e4a7;}.cls-17{opacity:0.1;}</style></defs><title/><path class="cls-1" d="M222.45,214.14c0.82,1.24,1.74,2.5,2.7,3.76-1-1.26-1.87-2.52-2.7-3.76-0.47-.71-0.91-1.41-1.31-2.09v0C221.54,212.73,222,213.43,222.45,214.14Z"/><path class="cls-1" d="M210.21,219.45l0.11,0.12-0.11-.12h0Z"/><path class="cls-1" d="M221.13,212v0l-0.35-.58h0Z"/><path class="cls-1" d="M216.7,210.19l0.8,0,0.67,0h0.19l0.33,0h0l-0.33,0h-0.19l-0.67,0-0.8,0h0Z"/><path class="cls-2" d="M208.38,214.92a6.18,6.18,0,0,0,1.83,4.53h0A6.19,6.19,0,0,1,208.38,214.92Z"/><path class="cls-2" d="M215.75,210.11c-0.11,0-.23,0-0.34,0h-0.69c-0.11,0-.22-0.05-0.32-0.05,0.11,0,.22.14,0.32,0.14l0.69,0c0.12,0,.23-0.11.34-0.11s0.44-.13.66-0.13h0C216.2,210,216,210.1,215.75,210.11Z"/><path class="cls-2" d="M212.4,210.15c0.33,0,.66-0.15,1-0.15C213.06,210,212.72,210.15,212.4,210.15Z"/><path class="cls-3" d="M218.17,210.11l-0.67,0h0.06Z"/><path class="cls-4" d="M222.35,189.54L220,190c-1.68.3-2.91,1.69-3.88,3.34-1.73,2.92-2.67,6.66-3.95,6.66-2,0-6.55,9.33-4,10,0.28,0.07.84,0.13,0.84,0.17h0a7,7,0,0,1,1,.06h0.38l0.67,0h0.36c0.22,0,.46,0,0.68,0s0.2-.07.3-0.07c0.33,0,.67-0.15,1-0.15h0c0.33,0,.66.13,1,0.13h0c0.11,0,.22.07,0.32,0.06s0.46,0,.69,0,0.23-.09.34-0.09,0.44-.11.66-0.11H216v0.19c1,0,.4,0,0.48,0l0.91,0,0.72,0h0.22l0.34,0h0.45l0.38,0H220c0.23,0.47.5,1,.78,1.45l0.35,0.58a1.61,1.61,0,0,1-.13-0.58h0a1.62,1.62,0,0,0,.13.59c0.41,0.68.84,1.38,1.31,2.09,0.83,1.24,1.74,2.51,2.7,3.76l0,0,1,1.24c0.63,0.79,1.27,1.58,1.91,2.33,3.47,4.1,7,7.53,8.61,8.49,2.5,1.45,10.21,2.17,13.33,2.41V186.3C240.91,185.78,228.2,188.36,222.35,189.54Z"/><path class="cls-5" d="M221.5,221.25a6.25,6.25,0,0,1-3.94-11.1H217.5l-0.8,0h-0.27l-6.22,9.25,0.11,0.12a6.92,6.92,0,0,0,.68.55c4,2.88,13.07,2,17.05,1.38-0.64-.76-1.28-1.54-1.91-2.33A6.23,6.23,0,0,1,221.5,221.25Z"/><path class="cls-5" d="M216.43,210h0c-0.22,0-.43.12-0.66,0.13s-0.23.06-.34,0.06l-0.69,0-0.32,0-1,0,1,0h0.32c-0.11,0-.21-0.14-0.32-0.13h0c-0.33,0-.66-0.12-1-0.12h0c-0.33,0-.67.15-1,0.15-0.1,0-.19.14-0.29,0.14h-1l-0.61,0h-0.27l-0.79-.06a12.38,12.38,0,0,0-1.06,4.75,6,6,0,0,0,1.83,4.43Z"/><path class="cls-5" d="M209.43,210.17a12.39,12.39,0,0,0-1.06,4.75,12.38,12.38,0,0,1,1.06-4.75h0Z"/><path class="cls-5" d="M214.4,210.13h0c-0.33,0-.66-0.12-1-0.12,0.33,0,.66.13,1,0.13h0Z"/><path class="cls-5" d="M210.22,210.15c0.09,0,.18.05,0.27,0.06l0.61,0,0.33,0,0.67,0c0.1,0,.19-0.14.29-0.14-0.1,0-.19.07-0.29,0.07s-0.45,0-.67,0h-0.33l-0.61,0H210a7,7,0,0,0-1-.06V210h0.22C209.46,210,209.94,210.13,210.22,210.15Z"/><path class="cls-6" d="M218.36,210.1h-0.19l-0.61,0a6.25,6.25,0,1,0,8.58,9l-1-1.24,0,0c-1-1.25-1.88-2.52-2.7-3.76,0,0.19,0,.38,0,0.57,0.79,1.05,1.45,2.12,2.26,3.18-0.81-1.06-1.47-2.13-2.26-3.18-0.05,3-.42,5.29-0.87,5.29s-0.87-2.69-.87-6c0-.91,0-1.77.08-2.55-0.28-.49-0.55-1-0.78-1.45h-0.49l-0.38,0h-0.44Z"/><path class="cls-6" d="M224.26,217.89a32.17,32.17,0,0,0-2.26-3.18h0A31.8,31.8,0,0,1,224.26,217.89Z"/><path class="cls-6" d="M220.78,211.45c-0.28-.49-0.55-1-0.78-1.45,0.23,0.47.5,1,.78,1.45h0Z"/><path class="cls-7" d="M222,214.13c0.16,0.19.3,0.39,0.44,0.58,0-.19,0-0.38,0-0.57-0.47-.71-0.9-1.4-1.31-2.08A6.43,6.43,0,0,1,222,214.13Z"/><path class="cls-7" d="M221.13,212l-0.35-.59c-0.05.77-.08,1.64-0.08,2.55,0,3.31.39,6,.88,6s0.82-2.31.87-5.29c-0.14-.19-0.29-0.39-0.44-0.58A6.58,6.58,0,0,0,221.13,212Z"/><path class="cls-7" d="M222,214.14c0.16,0.19.3,0.39,0.44,0.58h0c-0.14-.19-0.29-0.39-0.44-0.58h0Z"/><path class="cls-7" d="M221.14,212.05v0h0v0h0Z"/><path class="cls-7" d="M221,211.45h0a1.61,1.61,0,0,0,.13.58h0A1.62,1.62,0,0,1,221,211.45Z"/><path class="cls-7" d="M222,214.13a6.43,6.43,0,0,0-.86-2.07h0a6.58,6.58,0,0,1,.87,2.09h0Z"/><path class="cls-1" d="M241.42,273.12l-1.34,4h0Z"/><path class="cls-1" d="M205.33,239.11l0,0c0.33-.54,7.6-12,26.32-5.64,0,0,13.47,1.73,18.33,1.94-4.86-.2-18.33-2-18.33-2C212.5,227,205.33,239.11,205.33,239.11Z"/><path class="cls-1" d="M240.71,277.5a0.47,0.47,0,0,0,.22.12,0.28,0.28,0,0,1,.1.09,0.52,0.52,0,0,0-.1-0.18Z"/><path class="cls-1" d="M245.32,277.79a12,12,0,0,1-1.88.21A12,12,0,0,0,245.32,277.79Z"/><polygon class="cls-3" points="240 277.33 240.03 277.34 240.03 277.34 240 277.33"/><path class="cls-3" d="M240.11,277.1h0l-0.07.22h0Z"/><path class="cls-3" d="M231.67,233.47s13.47,1.76,18.33,2v-3c-3.12-.24-10.83-1-13.33-2.41-1.66-1-5.14-4.39-8.61-8.49-4,.58-13,1.5-17.05-1.38a6.92,6.92,0,0,1-.68-0.55l-0.11-.12a6.18,6.18,0,0,1-1.83-4.53,12.39,12.39,0,0,1,1.06-4.75,7.49,7.49,0,0,1-1.06-.17s-6.88,9.24-9.38,12.12-7,21.38-3,26.38c1.3,1.62,4.72,5.5,8.82,10l1.66,1.82C214.8,269.38,225,280,226.14,280c1.65,0,13.66,4.53,23.86,4V277c-0.51.06-1,.15-1.59,0.21l-0.11,0c-0.53.06-1.06,0.16-1.59,0.21,0,0,0,.1-0.06.1-0.45,0-.89.11-1.33,0.18a12,12,0,0,1-1.88.21h-1.73a5.28,5.28,0,0,1-.65-0.25,0.06,0.06,0,0,1,0,0,0.28,0.28,0,0,0-.1-0.09,0.47,0.47,0,0,1-.22-0.12l-0.33,0v0l-0.37,0,0-.09h0c-2.62-.87-19.54-15.53-30.43-31.35-1.56-2.26-3-4.54-4.24-6.82l0,0,0,0S212.5,227,231.67,233.47Z"/><path class="cls-8" d="M205.35,239.14c1.25,2.26,2.67,4.48,4.22,6.73l0.06,0.08c6.09-3,15.36-7.4,17.35-7.62,2.4-.26,15.06,1.88,23,2v-4.93c-4.86-.2-18.33-1.94-18.33-1.94C213,227.15,205.68,238.6,205.35,239.14Z"/><path class="cls-8" d="M209.57,245.87c-1.55-2.25-3-4.47-4.22-6.73l0,0c1.25,2.27,2.68,4.55,4.24,6.82l0.06,0Z"/><path class="cls-9" d="M246.71,277.4s0,0.2-.06.2c-1.12.1-2.22,0.4-3.21,0.4h0c-0.05,0-.1-0.2-0.15-0.2l0.16,0.2h0a12,12,0,0,0,1.88-.21c0.44-.07.88-0.14,1.33-0.18C246.67,277.6,246.69,277.4,246.71,277.4Z"/><path class="cls-9" d="M227,238.33c-2,.22-11.26,4.63-17.35,7.62,10.89,15.79,27.75,30.29,30.37,31.16h0.07l1.34-4,1.85,4.69c0.05,0,.1.2,0.15,0.2h0c1,0,2.1-.3,3.21-0.4,0,0,0-.1.06-0.1,0.53,0,1.06-.15,1.59-0.21l0.11,0c0.54-.06,1.07-0.15,1.59-0.21V240.36C242,240.22,229.38,238.07,227,238.33Z"/><path class="cls-9" d="M243.44,277.6c1,0,2.1-.1,3.21-0.2C245.54,277.5,244.44,277.58,243.44,277.6Z"/><path class="cls-9" d="M240,277.12c-2.62-.87-19.48-15.37-30.37-31.16l-0.06,0c10.89,15.82,27.8,30.48,30.43,31.35l0.07-.22H240Z"/><path class="cls-9" d="M248.3,277.24l-1.59.16s0,0.2-.06.2c-0.45,0-.89.11-1.33,0.18,0.44-.07.88-0.14,1.33-0.18,0,0,0-.1.06-0.1,0.53,0,1.06-.15,1.59-0.21l0.11,0c0.54-.06,1.07-0.15,1.59-0.21l-1.59.18H248.3Z"/><path class="cls-5" d="M242.58,277.61h0.69l-1.85-4.49-1.31,4a0.73,0.73,0,0,1,.26-0.1h0v0.27a0.89,0.89,0,0,1,.3.21l0.25,0,0.13,0,0.65,0.05-0.65-.05-0.13,0-0.25,0,0,0,0.22,0a0.52,0.52,0,0,1,.1.18l0,0a5.32,5.32,0,0,0,.65.26h1.73l-0.16-.4h-0.69Zm-0.87,0,0.8,0Z"/><path class="cls-5" d="M241,277.71a0.06,0.06,0,0,0,0,0,5.28,5.28,0,0,0,.65.25,5.32,5.32,0,0,1-.65-0.26Z"/><path class="cls-5" d="M240.37,277.43h0l0.3,0a0.89,0.89,0,0,0-.3-0.21V277h0a0.73,0.73,0,0,0-.26.1l-0.08.24Z"/><path class="cls-5" d="M240.38,277.43h0l-0.34-.09,0,0.09,0.37,0v0l0.33,0,0,0Z"/><polygon class="cls-5" points="240.37 277.43 240.03 277.34 240.03 277.34 240.37 277.43 240.37 277.43"/><polygon class="cls-5" points="240.37 277.43 240.38 277.43 240.37 277.43 240.37 277.43"/><polygon class="cls-5" points="240.37 277.43 240.37 277.43 240.37 277.43 240.37 277.43"/><path class="cls-10" d="M226.14,280c-1.18,0-11.34-10.62-19.66-19.69a129.3,129.3,0,0,1-13.18,6.78l-1.45.62a34.74,34.74,0,0,1-3.52,5.4c-2.7,3.14,9.92,23.8,16.59,31.94,1.58,1.92,2.82,3.16,3.45,3.28a4.78,4.78,0,0,1,.78.26c4.44,1.79,19.9,11.47,40.85,8.37V284C239.8,284.53,227.79,280,226.14,280Z"/><path class="cls-11" d="M160.26,169.82a1.17,1.17,0,0,0-.26.18A1.26,1.26,0,0,1,160.26,169.82Z"/><path class="cls-11" d="M160.67,169.64l-0.29.12Z"/><path class="cls-11" d="M209.88,134.15c-3.79-6.46-9.36-16.44-10-20.25-44.82,5.64-52.3,34.55-55.26,43.05a5.35,5.35,0,0,0-.29,2,8.19,8.19,0,0,1,4-.59c7.08,0.69,10.76,6.13,12.66,11.21,5.86-1.58,32.53,1.39,41.43,2.44a6.29,6.29,0,0,1-.43-2C202,164.76,204.46,143.87,209.88,134.15Z"/><path class="cls-12" d="M161,169.54h0l-0.32.1Z"/><path class="cls-12" d="M160.38,169.75l-0.12.06Z"/><path class="cls-2" d="M200,112.67a2.05,2.05,0,0,0-.07,1.24c0.6,3.8,6.17,13.79,10,20.25a17.84,17.84,0,0,1,1.39-2.15,7.84,7.84,0,0,1,1.12-1.16c6.67-5.72,27.86-9,37.6-10.25V101.72C235.29,95.69,201.46,110,200,112.67Z"/><path class="cls-10" d="M212.4,130.84a7.84,7.84,0,0,0-1.12,1.16,17.84,17.84,0,0,0-1.39,2.15C204.46,143.87,202,164.76,202,170a6.29,6.29,0,0,0,.43,2,20.57,20.57,0,0,0,.88,2.06c2.67,5.52,8.84,14,12.8,19.29,1-1.65,2.2-3,3.88-3.34l2.35-.46c5.85-1.18,18.56-3.75,27.65-3.24V120.58C240.25,121.83,219.06,125.12,212.4,130.84Z"/><path class="cls-1" d="M160.26,169.82h0l0.12-.06h0Z"/><path class="cls-13" d="M139.39,225.69c-0.11-4.79,0-9.45.31-13.37-4.09-.47-11.78-1.88-14.47-6-3.74,8.68-4.36,18-3.23,27C128.42,228.46,134.58,225.25,139.39,225.69Z"/><path class="cls-13" d="M153.53,260.21c-2-1.12-3.79-2.17-5.24-3a114.4,114.4,0,0,1-14.87,10.25c2.18,4.18,4.32,7.76,6.07,10.51C141.7,271.77,148.8,264.54,153.53,260.21Z"/><path class="cls-12" d="M139.71,212.32c0.08-1.06.18-2.07,0.29-3,0.05-.45.13-0.91,0.21-1.38,2-11.61,12.23-28,17.36-34.92a30.94,30.94,0,0,1,2.44-3,1.16,1.16,0,0,1,.26-0.18h0l0.12-.06h0a4,4,0,0,1,.61-0.21c-1.9-5.08-5.58-10.52-12.66-11.21a8.19,8.19,0,0,0-4,.59C133.7,163.28,129.48,189.54,125,200c-1.13,2.64-.85,4.72.24,6.37C127.93,210.44,135.62,211.85,139.71,212.32Z"/><path class="cls-2" d="M209.15,308.59a4.78,4.78,0,0,0-.78-0.26c-0.63-.13-1.88-1.36-3.45-3.28-5.84,4-13,9.62-14.74,14.12a6.1,6.1,0,0,0-.34,1.15,3.6,3.6,0,0,0,1.49,3.68c1.6,1.23,4.5,2.39,8.21,3.46,13.78,4,38.81,6.75,50.46,7.2V317C229.05,320.06,213.59,310.38,209.15,308.59Z"/><path class="cls-11" d="M188.33,273.12a34.74,34.74,0,0,0,3.52-5.4,56.09,56.09,0,0,1-6.52,2.28c-7.86,2.14-21-3.88-30.28-9l-1.52-.84c-4.74,4.34-11.83,11.56-14,17.73a8,8,0,0,0-.15,6.08c1.76,3.8,6.47,11.3,13.2,18.53,9.33,10,22.56,19.48,37.3,17.77a6.1,6.1,0,0,1,.34-1.15c1.72-4.5,8.9-10.13,14.74-14.12C198.26,296.91,185.64,276.26,188.33,273.12Z"/><path class="cls-2" d="M160.67,169.64l0.32-.1a4,4,0,0,0-.61.21Z"/><path class="cls-2" d="M160.26,169.82a1.16,1.16,0,0,0-.26.18A1.17,1.17,0,0,1,160.26,169.82Z"/><path class="cls-2" d="M203.32,174a20.57,20.57,0,0,1-.88-2.06c-8.9-1.05-35.57-4-41.43-2.44l-0.32.1-0.29.12-0.12.06a1.17,1.17,0,0,0-.26.18,30.94,30.94,0,0,0-2.44,3c-5.13,7-15.34,23.3-17.36,34.92-0.08.47-.15,0.93-0.21,1.38-0.11.94-.21,1.95-0.29,3-0.31,3.92-.43,8.57-0.31,13.37,0.31,13.25,2.37,27.57,6.94,30.31l2,1.17c1.45,0.87,3.23,1.91,5.24,3l1.52,0.84c9.29,5.07,22.42,11.1,30.28,9a56.09,56.09,0,0,0,6.52-2.28l1.45-.62a129.3,129.3,0,0,0,13.18-6.78l-1.66-1.82c-4.1-4.5-7.53-8.37-8.82-10-4-5,.5-23.5,3-26.38S208.38,210,208.38,210c-2.54-.67,1.79-10,3.79-10,1.28,0,2.22-3.74,3.95-6.66C212.16,188.09,206,179.56,203.32,174Z"/><path class="cls-3" d="M133.42,267.43a114.4,114.4,0,0,0,14.87-10.25l-2-1.17c-4.57-2.74-6.63-17.06-6.94-30.31-4.82-.44-11,2.78-17.39,7.72-17.5,13.46-37,39.71-37,39.71s-15.83,17.55-7.67,35.22l3.82-4.74c2.78-3.48,6.18-7.78,6.84-8.93,0,0-2.33,12.67,1.17,19l3.46-4.42L97.17,310l2.83-3.67s-3.67-5.17-3.67-8.17S104,307.5,104,307.5l4.5-7.5s-4.33-5.22-4.33-6.61,0.83-12.06.83-12.06A212,212,0,0,0,133.42,267.43Z"/><path class="cls-14" d="M80.63,317.57l0.54-14h0c-2.08,2.6-3.82,4.74-3.82,4.74Z"/><path class="cls-15" d="M81.16,303.59l-3.82,4.74S79.07,306.19,81.16,303.59Z"/><polygon class="cls-14" points="97.17 310 92.63 309.25 89.17 313.67 98 319.25 97.17 310"/><path class="cls-14" d="M108.75,313.13c1.38,0-.25-13.12-0.25-13.12l-4.5,7.5S107.38,313.13,108.75,313.13Z"/><path class="cls-14" d="M168.86,402.54l-4.06-1.16a3.13,3.13,0,0,1-2.56-2.72l-8.75,7.67,19.36-3.68A9.26,9.26,0,0,1,168.86,402.54Z"/><path class="cls-16" d="M173.67,402.5h0l-0.11,0Z"/><path class="cls-14" d="M188.07,404.85l-0.63-.11a3.32,3.32,0,0,1-3.09-3.37l-10.67,6.5s16.14-2.66,17-2.94l-0.17-.1A8.08,8.08,0,0,1,188.07,404.85Z"/><path class="cls-16" d="M155.64,395.07h0Z"/><path class="cls-14" d="M149.18,394.54l-1.34-.76a3.85,3.85,0,0,1-2.07-3h0l-11,7.9,18.82-3.23A8.13,8.13,0,0,1,149.18,394.54Z"/><path class="cls-14" d="M130,385a0.83,0.83,0,0,1,0-.65l-6.87,4,12.2,0.41a8.56,8.56,0,0,1-1.29-.28A7.42,7.42,0,0,1,130,385Z"/><path class="cls-16" d="M138,388.88h0Z"/><path class="cls-3" d="M138,388.88l-2.63-.09A12.75,12.75,0,0,0,138,388.88Z"/><path class="cls-3" d="M173.54,402.52l-0.69.13Z"/><path class="cls-3" d="M155.62,395.07l-2.05.35A9.22,9.22,0,0,0,155.62,395.07Z"/><path class="cls-3" d="M200,350c-2.72-1.63-1.66-16.18-.46-22.54-3.71-1.07-6.61-2.23-8.21-3.46a3.6,3.6,0,0,1-1.49-3.68c-14.74,1.71-28-7.76-37.3-17.77-6.59,4.81-19.17,20.94-5.88,70.79,0,0-15.56,7.78-16.67,11a0.83,0.83,0,0,0,0,.65,7.42,7.42,0,0,0,4,3.51,8.56,8.56,0,0,0,1.29.28l2.63,0.09h0a12.28,12.28,0,0,0,5.14-1.39l4.54-2.64c2.38-1.38,2.78-.88.88,1.12l-1.65,1.74a3.94,3.94,0,0,0-1.15,3.06,3.85,3.85,0,0,0,2.07,3l1.34,0.76a8.13,8.13,0,0,0,4.39.88l2.05-.35h0a7,7,0,0,0,2-.93l13.27-9.27c2.25-1.58,2.66-1.14.9,1l-8.6,10.32a3.62,3.62,0,0,0-1,2.5,3.13,3.13,0,0,0,2.56,2.72l4.06,1.16a9.26,9.26,0,0,0,4,.11l0.69-.13,0.11,0a9.4,9.4,0,0,0,3.82-1.81l8.72-7.44c2.09-1.78,2.74-1.26,1.43,1.16l-2.76,5.12a4.22,4.22,0,0,0-.53,1.85,3.32,3.32,0,0,0,3.09,3.37l0.63,0.11a8.08,8.08,0,0,0,2.39,0A10.41,10.41,0,0,0,196.4,402l5.54-6a13.69,13.69,0,0,0,3.15-8.66S203.33,352,200,350Z"/><path class="cls-1" d="M277.55,214.14c-0.82,1.24-1.74,2.5-2.7,3.76,1-1.26,1.87-2.52,2.7-3.76,0.47-.71.91-1.41,1.31-2.09v0C278.45,212.73,278,213.43,277.55,214.14Z"/><path class="cls-1" d="M289.79,219.45l-0.11.12,0.11-.12h0Z"/><path class="cls-1" d="M278.86,212v0l0.35-.58h0Z"/><path class="cls-1" d="M283.29,210.19l-0.8,0-0.67,0h-0.19l-0.33,0h0l0.33,0h0.19l0.67,0,0.8,0h0Z"/><path class="cls-2" d="M291.62,214.92a6.18,6.18,0,0,1-1.83,4.53h0A6.19,6.19,0,0,0,291.62,214.92Z"/><path class="cls-2" d="M284.24,210.11c0.11,0,.23,0,0.34,0h0.69c0.11,0,.22-0.05.32-0.05-0.11,0-.22.14-0.32,0.14l-0.69,0c-0.12,0-.23-0.11-0.34-0.11s-0.44-.13-0.66-0.13h0C283.8,210,284,210.1,284.24,210.11Z"/><path class="cls-2" d="M287.6,210.15c-0.33,0-.66-0.15-1-0.15C286.94,210,287.27,210.15,287.6,210.15Z"/><path class="cls-3" d="M281.82,210.11l0.67,0h-0.06Z"/><path class="cls-4" d="M277.64,189.54L280,190c1.68,0.3,2.91,1.69,3.88,3.34,1.73,2.92,2.67,6.66,3.95,6.66,2,0,6.55,9.33,4,10-0.28.07-.84,0.13-0.84,0.17h0a7,7,0,0,0-1,.06h-0.38l-0.67,0h-0.36c-0.22,0-.46,0-0.68,0s-0.2-.07-0.3-0.07c-0.33,0-.67-0.15-1-0.15h0c-0.33,0-.66.13-1,0.13h0c-0.11,0-.22.07-0.32,0.06s-0.46,0-.69,0-0.23-.09-0.34-0.09-0.44-.11-0.66-0.11H284v0.19c-1,0-.4,0-0.49,0l-0.91,0-0.72,0h-0.22l-0.34,0h-0.45l-0.38,0H280c-0.23.47-.5,1-0.78,1.45l-0.34.58a1.62,1.62,0,0,0,.13-0.58h0a1.63,1.63,0,0,1-.14.59c-0.41.68-.84,1.38-1.31,2.09-0.83,1.24-1.74,2.51-2.7,3.76l0,0-1,1.24c-0.63.79-1.27,1.58-1.91,2.33-3.47,4.1-7,7.53-8.61,8.49-2.5,1.45-10.33,2.17-13.33,2.41V186.3C259,185.78,271.8,188.36,277.64,189.54Z"/><path class="cls-5" d="M278.49,221.25a6.25,6.25,0,0,0,3.94-11.1h0.06l0.8,0h0.27l6.22,9.25-0.11.12a6.92,6.92,0,0,1-.68.55c-4,2.88-13.07,2-17.05,1.38,0.64-.76,1.28-1.54,1.91-2.33A6.23,6.23,0,0,0,278.49,221.25Z"/><path class="cls-5" d="M283.56,210h0c0.22,0,.43.12,0.66,0.13s0.23,0.06.34,0.06l0.69,0,0.32,0,1,0-1,0h-0.32c0.11,0,.21-0.14.32-0.13h0c0.33,0,.66-0.12,1-0.12h0c0.33,0,.67.15,1,0.15,0.1,0,.19.14,0.29,0.14h1l0.61,0h0.27l0.79-.06a12.38,12.38,0,0,1,1.06,4.75,6,6,0,0,1-1.83,4.43Z"/><path class="cls-5" d="M290.56,210.17a12.39,12.39,0,0,1,1.06,4.75,12.38,12.38,0,0,0-1.06-4.75h0Z"/><path class="cls-5" d="M285.59,210.13h0c0.33,0,.66-0.12,1-0.12-0.33,0-.66.13-1,0.13h0Z"/><path class="cls-5" d="M289.77,210.15c-0.09,0-.18.05-0.27,0.06l-0.61,0-0.33,0-0.67,0c-0.1,0-.19-0.14-0.29-0.14,0.1,0,.19.07,0.29,0.07s0.45,0,.67,0h0.33l0.61,0H290a7.09,7.09,0,0,1,1-.06V210h-0.22C290.53,210,290,210.13,289.77,210.15Z"/><path class="cls-6" d="M281.63,210.1h0.19l0.61,0a6.25,6.25,0,1,1-8.58,9l1-1.24,0,0c1-1.25,1.88-2.52,2.7-3.76,0,0.19,0,.38,0,0.57-0.79,1.05-1.45,2.12-2.26,3.18,0.81-1.06,1.47-2.13,2.26-3.18,0.05,3,.42,5.29.87,5.29s0.88-2.69.88-6c0-.91,0-1.77-0.08-2.55,0.28-.49.55-1,0.78-1.45h0.49l0.38,0h0.44Z"/><path class="cls-6" d="M275.74,217.89a32.17,32.17,0,0,1,2.26-3.18h0A31.8,31.8,0,0,0,275.74,217.89Z"/><path class="cls-6" d="M279.21,211.45c0.28-.49.55-1,0.78-1.45-0.23.47-.5,1-0.78,1.45h0Z"/><path class="cls-7" d="M278,214.13c-0.16.19-.3,0.39-0.44,0.58,0-.19,0-0.38,0-0.57,0.47-.71.9-1.4,1.31-2.08A6.43,6.43,0,0,0,278,214.13Z"/><path class="cls-7" d="M278.86,212l0.35-.59c0.05,0.77.08,1.64,0.08,2.55,0,3.31-.39,6-0.87,6s-0.82-2.31-.87-5.29c0.14-.19.29-0.39,0.44-0.58A6.58,6.58,0,0,1,278.86,212Z"/><path class="cls-7" d="M278,214.14c-0.16.19-.3,0.39-0.44,0.58h0c0.14-.19.29-0.39,0.44-0.58h0Z"/><path class="cls-7" d="M278.85,212.05v0h0v0h0Z"/><path class="cls-7" d="M279,211.45h0a1.61,1.61,0,0,1-.13.58h0A1.62,1.62,0,0,0,279,211.45Z"/><path class="cls-7" d="M278,214.13a6.42,6.42,0,0,1,.86-2.07h0a6.58,6.58,0,0,0-.86,2.09h0Z"/><path class="cls-1" d="M258.58,273.12l1.34,4h0Z"/><path class="cls-1" d="M294.66,239.11l0,0c-0.33-.54-7.6-12-26.32-5.64,0,0-13.47,1.73-18.33,1.94,4.86-.2,18.33-2,18.33-2C287.49,227,294.66,239.11,294.66,239.11Z"/><path class="cls-1" d="M259.29,277.5a0.47,0.47,0,0,1-.22.12,0.28,0.28,0,0,0-.1.09,0.52,0.52,0,0,1,.1-0.18Z"/><path class="cls-1" d="M254.67,277.79a12,12,0,0,0,1.88.21A12,12,0,0,1,254.67,277.79Z"/><polygon class="cls-3" points="259.99 277.33 259.96 277.34 259.96 277.34 259.99 277.33"/><path class="cls-3" d="M259.89,277.1h0l0.07,0.22h0Z"/><path class="cls-3" d="M268.33,233.47s-13.33,1.76-18.33,2v-3c3-.24,10.83-1,13.33-2.41,1.66-1,5.14-4.39,8.61-8.49,4,0.58,13,1.5,17.05-1.38a6.92,6.92,0,0,0,.68-0.55l0.11-.12a6.18,6.18,0,0,0,1.83-4.53,12.39,12.39,0,0,0-1.06-4.75,7.49,7.49,0,0,0,1.06-.17s6.88,9.24,9.38,12.12,7,21.38,3,26.38c-1.3,1.62-4.72,5.5-8.82,10l-1.66,1.82C285.19,269.38,275,280,273.85,280c-1.65,0-13.85,4.53-23.85,4V277a14.61,14.61,0,0,1,1.58.21l0.11,0c0.53,0.06,1.06.16,1.59,0.21,0,0,0,.1.06,0.1,0.45,0,.89.11,1.33,0.18a12,12,0,0,0,1.88.21h1.73a5.28,5.28,0,0,0,.65-0.25,0.06,0.06,0,0,0,0,0,0.28,0.28,0,0,1,.1-0.09,0.47,0.47,0,0,0,.22-0.12l0.33,0v0l0.37,0,0-.09h0c2.63-.87,19.54-15.53,30.43-31.35,1.56-2.26,3-4.54,4.24-6.82l0,0,0,0S287.5,227,268.33,233.47Z"/><path class="cls-8" d="M294.64,239.14c-1.25,2.26-2.67,4.48-4.22,6.73l-0.06.08c-6.09-3-15.35-7.4-17.35-7.62-2.4-.26-15,1.88-23,2v-4.93c5-.2,18.33-1.94,18.33-1.94C287,227.15,294.31,238.6,294.64,239.14Z"/><path class="cls-8" d="M290.42,245.87c1.55-2.25,3-4.47,4.22-6.73l0,0c-1.25,2.27-2.68,4.55-4.24,6.82l-0.06,0Z"/><path class="cls-9" d="M253.28,277.4s0,0.2.06,0.2c1.12,0.1,2.22.4,3.21,0.4h0c0.05,0,.1-0.2.15-0.2l-0.16.2h0a12,12,0,0,1-1.88-.21c-0.44-.07-0.88-0.14-1.33-0.18C253.32,277.6,253.3,277.4,253.28,277.4Z"/><path class="cls-9" d="M273,238.33c2,0.22,11.26,4.63,17.35,7.62-10.89,15.79-27.75,30.29-30.37,31.16h-0.07l-1.34-4-1.86,4.69c-0.05,0-.1.2-0.15,0.2h0c-1,0-2.1-.3-3.21-0.4,0,0,0-.1-0.06-0.1-0.53,0-1.06-.15-1.59-0.21l-0.11,0A14.62,14.62,0,0,0,250,277V240.36C258,240.22,270.62,238.07,273,238.33Z"/><path class="cls-9" d="M256.55,277.6c-1,0-2.1-.1-3.21-0.2C254.46,277.5,255.56,277.58,256.55,277.6Z"/><path class="cls-9" d="M260,277.12c2.62-.87,19.48-15.37,30.37-31.16l0.06,0c-10.89,15.82-27.8,30.48-30.43,31.35l-0.07-.22H260Z"/><path class="cls-9" d="M251.69,277.24l1.59,0.16s0,0.2.06,0.2c0.45,0,.89.11,1.33,0.18-0.44-.07-0.88-0.14-1.33-0.18,0,0,0-.1-0.06-0.1-0.53,0-1.06-.15-1.59-0.21l-0.11,0c-0.54-.06-1.07-0.15-1.59-0.21l1.59,0.18h0.11Z"/><path class="cls-5" d="M256.72,277.6l-0.16.4h1.73a5.32,5.32,0,0,0,.65-0.26l0,0a0.52,0.52,0,0,1,.1-0.18l0.22,0,0,0-0.25,0-0.13,0-0.65.05,0.65-.05,0.13,0,0.25,0a0.89,0.89,0,0,1,.3-0.21V277h0a0.73,0.73,0,0,1,.26.1l-1.31-4-1.85,4.49h0Zm0.76,0,0.8,0Z"/><path class="cls-5" d="M259,277.71a0.06,0.06,0,0,1,0,0,5.28,5.28,0,0,1-.65.25,5.32,5.32,0,0,0,.65-0.26Z"/><path class="cls-5" d="M259.63,277.43h0l-0.3,0a0.89,0.89,0,0,1,.3-0.21V277h0a0.73,0.73,0,0,1,.26.1l0.08,0.24Z"/><path class="cls-5" d="M259.62,277.43h0l0.34-.09,0,0.09-0.37,0v0l-0.33,0,0,0Z"/><polygon class="cls-5" points="259.63 277.43 259.96 277.34 259.96 277.34 259.63 277.43 259.63 277.43"/><polygon class="cls-5" points="259.63 277.43 259.62 277.43 259.63 277.43 259.63 277.43"/><polygon class="cls-5" points="259.63 277.43 259.63 277.43 259.63 277.43 259.63 277.43"/><path class="cls-10" d="M273.85,280c1.18,0,11.34-10.62,19.66-19.69a129.28,129.28,0,0,0,13.18,6.78l1.45,0.62a34.74,34.74,0,0,0,3.52,5.4c2.7,3.14-9.92,23.8-16.59,31.94-1.58,1.92-2.82,3.16-3.45,3.28a4.76,4.76,0,0,0-.77.26C286.4,310.38,271,320.06,250,317V284C260,284.53,272.2,280,273.85,280Z"/><path class="cls-11" d="M339.73,169.82a1.17,1.17,0,0,1,.26.18A1.26,1.26,0,0,0,339.73,169.82Z"/><path class="cls-11" d="M339.32,169.64l0.29,0.12Z"/><path class="cls-11" d="M290.11,134.15c3.79-6.46,9.36-16.44,10-20.25,44.82,5.64,52.3,34.55,55.26,43.05a5.35,5.35,0,0,1,.29,2,8.19,8.19,0,0,0-4-.59c-7.08.69-10.76,6.13-12.66,11.21-5.86-1.58-32.53,1.39-41.43,2.44a6.29,6.29,0,0,0,.43-2C298,164.76,295.53,143.87,290.11,134.15Z"/><path class="cls-12" d="M339,169.54h0l0.32,0.1Z"/><path class="cls-12" d="M339.61,169.75l0.12,0.06Z"/><path class="cls-2" d="M300,112.67a2.05,2.05,0,0,1,.07,1.24c-0.6,3.8-6.17,13.79-10,20.25a17.84,17.84,0,0,0-1.39-2.15,7.82,7.82,0,0,0-1.12-1.16c-6.67-5.72-27.6-9-37.6-10.25V101.72C265,95.69,298.54,110,300,112.67Z"/><path class="cls-10" d="M287.6,130.84a7.83,7.83,0,0,1,1.12,1.16,17.84,17.84,0,0,1,1.39,2.15c5.42,9.71,7.88,30.61,7.88,35.85a6.29,6.29,0,0,1-.43,2,20.57,20.57,0,0,1-.88,2.06c-2.67,5.52-8.84,14-12.8,19.29-1-1.65-2.2-3-3.88-3.34l-2.35-.46c-5.85-1.18-18.64-3.75-27.64-3.24V120.58C260,121.83,280.94,125.12,287.6,130.84Z"/><path class="cls-1" d="M339.73,169.82h0l-0.12-.06h0Z"/><path class="cls-13" d="M360.6,225.69c0.11-4.79,0-9.45-.31-13.37,4.09-.47,11.78-1.88,14.47-6,3.74,8.68,4.36,18,3.23,27C371.57,228.46,365.42,225.25,360.6,225.69Z"/><path class="cls-13" d="M346.46,260.21c2-1.12,3.79-2.17,5.24-3a114.4,114.4,0,0,0,14.87,10.25c-2.18,4.18-4.32,7.76-6.07,10.51C358.29,271.77,351.2,264.54,346.46,260.21Z"/><path class="cls-12" d="M360.29,212.32c-0.08-1.06-.18-2.07-0.29-3-0.05-.45-0.13-0.91-0.21-1.38-2-11.61-12.23-28-17.36-34.92a30.94,30.94,0,0,0-2.44-3,1.16,1.16,0,0,0-.26-0.18h0l-0.12-.06h0a4,4,0,0,0-.61-0.21c1.9-5.08,5.58-10.52,12.66-11.21a8.19,8.19,0,0,1,4,.59c10.68,4.36,14.9,30.61,19.38,41.07,1.13,2.64.85,4.72-.24,6.37C372.07,210.44,364.37,211.85,360.29,212.32Z"/><path class="cls-2" d="M290.85,308.59a4.77,4.77,0,0,1,.77-0.26c0.63-.13,1.87-1.36,3.45-3.28,5.84,4,13,9.62,14.74,14.12a6.1,6.1,0,0,1,.34,1.15,3.6,3.6,0,0,1-1.49,3.68c-1.6,1.23-4.5,2.39-8.21,3.46-13.78,4-38.45,6.75-50.45,7.2V317C271,320.06,286.4,310.38,290.85,308.59Z"/><path class="cls-11" d="M311.66,273.12a34.74,34.74,0,0,1-3.52-5.4,56.09,56.09,0,0,0,6.52,2.28c7.86,2.14,21-3.88,30.28-9l1.52-.84c4.74,4.34,11.83,11.56,14,17.73a8,8,0,0,1,.15,6.08c-1.76,3.8-6.47,11.3-13.2,18.53-9.33,10-22.56,19.48-37.3,17.77a6.1,6.1,0,0,0-.34-1.15c-1.72-4.5-8.9-10.13-14.74-14.12C301.74,296.91,314.36,276.26,311.66,273.12Z"/><path class="cls-2" d="M339.32,169.64l-0.32-.1a4,4,0,0,1,.61.21Z"/><path class="cls-2" d="M339.73,169.82a1.16,1.16,0,0,1,.26.18A1.17,1.17,0,0,0,339.73,169.82Z"/><path class="cls-2" d="M296.68,174a20.57,20.57,0,0,0,.88-2.06c8.9-1.05,35.57-4,41.43-2.44l0.32,0.1,0.29,0.12,0.12,0.06a1.17,1.17,0,0,1,.26.18,30.94,30.94,0,0,1,2.44,3c5.13,7,15.34,23.3,17.36,34.92,0.08,0.47.15,0.93,0.21,1.38,0.11,0.94.21,1.95,0.29,3,0.31,3.92.43,8.57,0.31,13.37-0.31,13.25-2.37,27.57-6.94,30.31l-2,1.17c-1.45.87-3.23,1.91-5.24,3l-1.52.84c-9.29,5.07-22.42,11.1-30.28,9a56.09,56.09,0,0,1-6.52-2.28l-1.45-.62a129.3,129.3,0,0,1-13.18-6.78l1.66-1.82c4.1-4.5,7.53-8.37,8.82-10,4-5-.5-23.5-3-26.38S291.62,210,291.62,210c2.54-.67-1.79-10-3.79-10-1.28,0-2.22-3.74-3.95-6.66C287.84,188.09,294,179.56,296.68,174Z"/><path class="cls-3" d="M366.57,267.43a114.4,114.4,0,0,1-14.87-10.25l2-1.17c4.57-2.74,6.63-17.06,6.94-30.31,4.82-.44,11,2.78,17.39,7.72,17.5,13.46,37,39.71,37,39.71s15.83,17.55,7.67,35.22l-3.82-4.74c-2.78-3.48-6.18-7.78-6.84-8.93,0,0,2.33,12.67-1.17,19l-3.46-4.42-4.54.75L400,306.33s3.67-5.17,3.67-8.17S396,307.5,396,307.5l-4.5-7.5s4.33-5.22,4.33-6.61S395,281.33,395,281.33A212,212,0,0,1,366.57,267.43Z"/><path class="cls-14" d="M419.37,317.57l-0.54-14h0c2.08,2.6,3.82,4.74,3.82,4.74Z"/><path class="cls-15" d="M418.84,303.59l3.82,4.74S420.92,306.19,418.84,303.59Z"/><polygon class="cls-14" points="402.83 310 407.37 309.25 410.83 313.67 401.99 319.25 402.83 310"/><path class="cls-14" d="M391.24,313.13c-1.37,0,.25-13.12.25-13.12l4.5,7.5S392.62,313.13,391.24,313.13Z"/><path class="cls-14" d="M331.13,402.54l4.06-1.16a3.13,3.13,0,0,0,2.56-2.72l8.75,7.67-19.36-3.68A9.26,9.26,0,0,0,331.13,402.54Z"/><path class="cls-16" d="M326.33,402.5h0l0.11,0Z"/><path class="cls-14" d="M311.93,404.85l0.63-.11a3.32,3.32,0,0,0,3.09-3.37l10.67,6.5s-16.14-2.66-17-2.94l0.17-.1A8.08,8.08,0,0,0,311.93,404.85Z"/><path class="cls-16" d="M344.35,395.07h0Z"/><path class="cls-14" d="M350.82,394.54l1.34-.76a3.85,3.85,0,0,0,2.07-3h0l11,7.9-18.82-3.23A8.13,8.13,0,0,0,350.82,394.54Z"/><path class="cls-14" d="M370,385a0.83,0.83,0,0,0,0-.65l6.88,4-12.2.41a8.56,8.56,0,0,0,1.29-.28A7.42,7.42,0,0,0,370,385Z"/><path class="cls-16" d="M362,388.88h0Z"/><path class="cls-3" d="M362,388.88l2.63-.09A12.75,12.75,0,0,1,362,388.88Z"/><path class="cls-3" d="M326.45,402.52l0.69,0.13Z"/><path class="cls-3" d="M344.38,395.07l2.05,0.35A9.22,9.22,0,0,1,344.38,395.07Z"/><path class="cls-3" d="M300,350c2.72-1.63,1.66-16.18.46-22.54,3.71-1.07,6.61-2.23,8.21-3.46a3.6,3.6,0,0,0,1.49-3.68c14.74,1.71,28-7.76,37.3-17.77,6.59,4.81,19.17,20.94,5.88,70.79,0,0,15.56,7.78,16.67,11a0.83,0.83,0,0,1,0,.65,7.42,7.42,0,0,1-4,3.51,8.56,8.56,0,0,1-1.29.28l-2.63.09h0a12.28,12.28,0,0,1-5.14-1.39l-4.54-2.64c-2.38-1.38-2.78-.88-0.88,1.12l1.65,1.74a3.94,3.94,0,0,1,1.15,3.06,3.85,3.85,0,0,1-2.07,3l-1.34.76a8.13,8.13,0,0,1-4.39.88l-2.05-.35h0a7,7,0,0,1-2-.93l-13.27-9.27c-2.25-1.58-2.66-1.14-.9,1l8.6,10.32a3.62,3.62,0,0,1,1,2.5,3.13,3.13,0,0,1-2.56,2.72l-4.06,1.16a9.26,9.26,0,0,1-4,.11l-0.69-.13-0.11,0a9.4,9.4,0,0,1-3.82-1.81l-8.72-7.44c-2.09-1.78-2.74-1.26-1.43,1.16l2.76,5.12a4.22,4.22,0,0,1,.53,1.85,3.32,3.32,0,0,1-3.09,3.37l-0.63.11a8.08,8.08,0,0,1-2.39,0A10.41,10.41,0,0,1,303.6,402l-5.54-6a13.69,13.69,0,0,1-3.15-8.66S296.66,352,300,350Z"/><g class="cls-17"><path class="cls-7" d="M289.79,219.45a6,6,0,0,0,1.79-3.85A6,6,0,0,1,289.79,219.45Z"/><path class="cls-7" d="M291.62,214.92c0,0.23,0,.45,0,0.68C291.6,215.37,291.62,215.15,291.62,214.92Z"/><path class="cls-7" d="M415,273.12s-19.5-26.25-37-39.71c1.13-9,.51-18.35-3.23-27,1.09-1.65,1.37-3.73.24-6.37-4.48-10.46-8.7-36.72-19.38-41.07a5.35,5.35,0,0,0-.29-2c-3-8.5-10.44-37.41-55.26-43.05h0a2.05,2.05,0,0,0-.07-1.24c-1.46-2.62-35-17-50-10.95V235h0v0.22c1.7-.07,4.35-0.11,7.12-0.41,0,0,.07.19,0.11,0.19h0c5.34-1,11.1-1.4,11.1-1.4a33,33,0,0,1,10.69-2,32.71,32.71,0,0,0-10.68,1.89S255,235.23,250,235.44V277h0v57.66c12-.45,36.67-3.21,50.45-7.2,1.21,6.35,2.27,20.9-.46,22.53-3.33,2-5.09,37.34-5.09,37.34a13.69,13.69,0,0,0,3.15,8.66l5.54,6a10.41,10.41,0,0,0,5.94,2.84l-0.17.1c0.82,0.27,17,2.94,17,2.94l-10.67-6.5a4.22,4.22,0,0,0-.53-1.85l-2.76-5.12c-1.3-2.42-.66-2.94,1.43-1.16l8.72,7.44a9.4,9.4,0,0,0,3.82,1.81h0l0.12,0,0.69,0.13,19.36,3.68-8.75-7.67a3.62,3.62,0,0,0-1-2.5l-8.6-10.32c-1.76-2.11-1.36-2.55.9-1l13.27,9.27a7,7,0,0,0,2,.93h0a9.22,9.22,0,0,0,2.05.35l18.82,3.23-11-7.9h0a3.94,3.94,0,0,0-1.15-3.06L351.43,386c-1.89-2-1.49-2.5.88-1.12l4.54,2.64a12.28,12.28,0,0,0,5.14,1.39h0a12.75,12.75,0,0,0,2.63-.09l12.2-.41-6.87-4c-1.11-3.23-16.67-11-16.67-11,13.29-49.85.71-66-5.88-70.79,6.73-7.23,11.44-14.73,13.2-18.53a8,8,0,0,0-.15-6.08c1.75-2.75,3.89-6.34,6.07-10.51A212,212,0,0,0,395,281.33s0.83,10.67.83,12.06-4.33,6.61-4.33,6.61-1.62,13.13-.25,13.13S396,307.5,396,307.5s7.67-12.33,7.67-9.33-3.67,8.17-3.67,8.17l2.83,3.67L402,319.25l8.83-5.58c3.5-6.33,1.17-19,1.17-19,0.67,1.14,4.06,5.45,6.84,8.93h0l0.54,14,3.29-9.24C430.83,290.67,415,273.12,415,273.12ZM279.23,231.56c11.05,0.14,15.43,7.55,15.43,7.55l0,0,0,0S290.29,231.7,279.23,231.56Zm8.66-21.34h0a0.59,0.59,0,0,1-.19,0A0.73,0.73,0,0,0,287.9,210.22Zm-2.36-.08h0a1.14,1.14,0,0,0-.27.11h0C285.38,210.22,285.46,210.16,285.54,210.13Zm-1.54-.06a1.14,1.14,0,0,0,.24,0h0a1.12,1.12,0,0,1-.24,0h0Zm3.6,0.07c-0.33,0-.66-0.15-1-0.15,0.33,0,.67.15,1,0.15,0.1,0,.19.14,0.29,0.14l0.67,0,0.29,0h-0.47c0.07,0,.14-0.12.2-0.12s0.19-.12.28-0.12h0.08c0.21,0,.47.12,0.67,0.11a1,1,0,0,0,.12.06c-0.08,0-.15,0-0.23,0l-0.61,0-0.33,0h-0.67C287.79,210.29,287.69,210.15,287.6,210.15Zm-9.6,4h0a6.42,6.42,0,0,1,.86-2.07h0A6.58,6.58,0,0,0,278,214.14Zm0,0.57h0a31.8,31.8,0,0,0-2.26,3.18A32.17,32.17,0,0,1,278,214.71Zm1-3.26a1.59,1.59,0,0,1-.13.57h0a1.61,1.61,0,0,0,.13-0.58h0Zm4.29-1.27-0.8,0-0.67,0h-0.19l-0.33,0h-0.44l-0.38,0h0l0.38,0h0.45l0.34,0h0.22l0.72,0,0.91,0h-0.22Zm5.7,9.94a6.92,6.92,0,0,0,.68-0.55l0.11-.12-6.22-9.25h0.13l6.1,9.16a6,6,0,0,0,1.83-4.43,12.38,12.38,0,0,0-1.05-4.74h0a12.38,12.38,0,0,1,1.05,4.74,6.18,6.18,0,0,1-1.83,4.53l-0.11.12a6.92,6.92,0,0,1-.68.55c-2.27,1.62-6.12,2-9.77,2C282.87,222.16,286.73,221.75,289,220.13ZM271.94,222h0c-3,3-6.08,6.66-7.91,8C265.86,228.66,268.9,225,271.94,222ZM260,277.12h-0.07l-1.34-4h0l1.34,4H260Zm-4.31.82-0.41-.06h0l0.42,0.06h0Zm-2.33-.33h0c0.44,0,.88.11,1.32,0.18h0C254.23,277.72,253.8,277.65,253.35,277.61Zm20.82,2.27c2.12-1.2,11.54-11.07,19.33-19.57h0C285.71,268.81,276.29,278.68,274.18,279.88ZM261.81,122.36c9.88,1.76,21.21,4.54,25.79,8.47l0.15,0.14-0.15-.14c-4.58-3.93-15.91-6.71-25.79-8.47l-2.65-.46Zm-11,154.76,0.25,0h0Zm0.59,0.11h0Zm40.23,31.1a4.77,4.77,0,0,0-.77.26,4.76,4.76,0,0,1,.77-0.26c0.63-.13,1.88-1.36,3.45-3.28h0C293.49,307,292.25,308.21,291.62,308.33Z"/></g><path class="cls-2" d="M186.25,465.94V465h5.63v1.88h1.88v1.88h1.88v5.63h-1.87v1.88h-1.87v1.88h-5.62v-1.87h-1.87v-1.87H182.5v-5.62h1.88v-1.87h1.88v-0.94Zm3.75,1.88v-0.94h-3.75v7.5h1.88v1.88h3.75v-7.5H190v-0.94Z"/><path class="cls-2" d="M197.5,466.88V465h13.13v3.75h-1.87v1.88h-1.87v1.88H205v5.63h-3.75V472.5h1.88v-1.87H205v-1.87h1.88v-1.87h-5.62v1.88H197.5v-1.87Z"/><path class="cls-2" d="M216.25,465.94V465h7.5v1.88h-5.62v1.88h-1.87v1.88h7.5v1.88h1.88v3.75h-1.87v1.88h-9.37v-1.87H212.5v-7.5h1.88v-1.87h1.88v-0.94Zm5.63,8.44V472.5h-5.62v3.75h5.63v-1.87Z"/><path class="cls-2" d="M246.25,465.94V465h9.38v1.88h-7.5v1.88h-1.87v5.63h1.88v1.88h3.75V472.5H250v-1.87h5.63v7.5h-9.37v-1.87h-1.87v-1.87H242.5v-5.62h1.88v-1.87h1.88v-0.94Z"/><path class="cls-2" d="M259.38,465.94V465h9.38v1.88h1.88v9.38h-1.87v1.88h-9.37v-1.87H257.5v-9.37h1.88v-0.94Zm7.5,5.63v-4.69h-5.62v9.38h5.63v-4.69Z"/><path class="cls-2" d="M274.38,471.56V465h3.75v11.25h7.5v1.88H274.38v-6.56Z"/><path class="cls-2" d="M287.5,471.56V465h13.13v1.88h-9.37v3.75h7.5v1.88h-7.5v3.75h9.38v1.88H287.5v-6.56Z"/><path class="cls-2" d="M302.5,471.56V465h3.75v1.88h1.88v1.88H310v-1.87h1.88V465h3.75v13.13h-3.75V472.5H310v1.88h-1.87V472.5h-1.87v5.63H302.5v-6.56Z"/></svg>