<?xml version="1.0" ?><svg id="pkft" viewBox="0 0 500 500" xmlns="http://www.w3.org/2000/svg"><defs><style>.cls-1{fill:#fff;}.cls-2{fill:#f7687d;}.cls-3{fill:#1a1a1a;}.cls-4{fill:#fcf1a9;}.cls-5{fill:#ff5400;}.cls-6{fill:#ffe200;}.cls-7{fill:#dbcc89;}.cls-8{fill:#867ba3;}.cls-9{fill:#766e91;}.cls-10{fill:#eada98;}.cls-11{opacity:0.1;}.cls-12{fill:#ceaa72;}</style></defs><title/><path d="M234.5,167.82a7.13,7.13,0,0,0-.3-2.25,4.49,4.49,0,1,1-5.62-6.86A33.27,33.27,0,0,0,224.1,156c0.08,4.15.23,9.22,0.5,13.88C228.58,173.06,234.36,172.19,234.5,167.82Z"/><path class="cls-1" d="M226.38,162.57a4.48,4.48,0,0,0,7.83,3c-0.81-2.78-3.18-5.1-5.62-6.86A4.48,4.48,0,0,0,226.38,162.57Z"/><path class="cls-2" d="M229,141.54a49.06,49.06,0,0,0-20.18-19.63C211.31,126.7,219,141,224,146.5,226.19,144.16,229,141.54,229,141.54Z"/><path class="cls-3" d="M244.14,210.08a0.5,0.5,0,1,0,.55-0.84l-3.13-2q0.36,0.88.77,1.7Z"/><path class="cls-4" d="M243.92,143.32c-1.5-.08-4.75-2.42-4.92-3.42a1.09,1.09,0,0,1,.08-0.53,24.17,24.17,0,0,1-3.5-1c-0.78-.36-1.29-0.34-1.56-0.85l-0.25.13c-2.59-3.9-12-16.51-25.78-17.36l0.82,1.59A49.06,49.06,0,0,1,229,141.54s-2.81,2.62-5,5l0.32,0.34c-0.1.16-.21,0.31-0.3,0.48,0,0,0,3.69.1,8.71a33.27,33.27,0,0,1,4.49,2.69c2.44,1.75,4.8,4.08,5.62,6.86a7.13,7.13,0,0,1,.3,2.25c-0.14,4.37-5.92,5.24-9.9,2.09,0.37,6.32,1,11.89,1.9,13.41a12.79,12.79,0,0,0,3.79,3.38c3.75,2.48,8.54,4.81,8.54,8a37.39,37.39,0,0,0,2.73,12.54l3.13,2a0.5,0.5,0,1,1-.55.84l-1.81-1.18a14.69,14.69,0,0,0,3.16,4.43,7.24,7.24,0,0,0,4.5,1.75V143.32S245.42,143.41,243.92,143.32Z"/><path class="cls-5" d="M248.42,103.32s-2-3.92-1.58-1.17-1.67,1.67-2,.83-1.29-2.5-2.87.33-0.17,4.17-1.58,3.33,0.5-3.67-.42-2.17,0,4.42,0,4.42-5.08-3-2.33-1.08-0.33,3.5-.33,3.5-0.33-2.58-1-1,1.25,3.58,1.25,3.58-3.17-1.08-1.5.5-0.5,7-.75,3.58-4.75-2.25-3.08-1,1.42,7.42,1.25,5.5-4.5-2.17-4.5-2.17-0.5-.08,1.5,2.33,0.5,4.83-.5,4.08a3.23,3.23,0,0,1-1-2.33c-1,1.08-1.33,1,0,2.5s6.21,5.83,6.21,5.83L230,130.66a13.58,13.58,0,0,1,2.58,1.92c1.33,1.25,1.17,2.58,1.25,4.08a2.23,2.23,0,0,0,.19.9c0.26,0.51.78,0.49,1.56,0.85a24.17,24.17,0,0,0,3.5,1c0.35-1,1.73-2.21,2.08-3a2.34,2.34,0,0,0-.43-1.49c-0.95-1.85-3.09-4.84-3.82-7.09,0,0,2.42,3.25,3.75,3.42s-1.42-5.58-2.25-6.17,1.58-1.58,2.5,1.08c0,0-.75-6.67-2.67-6.67,0,0,2.89-1.5,3.95.61a28.72,28.72,0,0,1-1.28-5.95c-0.08-2.42,2.42,5.17,2.42,5.17a73,73,0,0,0-.24-9.07c-0.32-.72-0.47-1.12-0.26-0.84a2.28,2.28,0,0,1,.26.84c0.81,1.83,2.74,5.74,2.74,5.74s-1.67-9.25-1-10.83,2.21,5.67,2.21,5.67L250,99.88V88.49C247.83,90.41,248.42,103.32,248.42,103.32Z"/><path class="cls-6" d="M243.09,110.17a2.28,2.28,0,0,0-.26-0.84C242.62,109,242.77,109.45,243.09,110.17Z"/><path class="cls-6" d="M242.2,120c0.18,0.59.3,1,.3,1A3.39,3.39,0,0,0,242.2,120Z"/><polygon class="cls-6" points="250 100.31 251.12 95.73 250 99.88 250 100.31"/><path class="cls-6" d="M247.08,110.74s-1.5-7.25-2.21-5.67,1,10.83,1,10.83-1.93-3.91-2.74-5.74a73,73,0,0,1,.24,9.07s-2.5-7.58-2.42-5.17A28.72,28.72,0,0,0,242.2,120a3.39,3.39,0,0,1,.3,1s-0.13-.38-0.3-1c-1.05-2.12-3.95-.61-3.95-0.61,1.92,0,2.67,6.67,2.67,6.67-0.92-2.67-3.33-1.67-2.5-1.08s3.58,6.33,2.25,6.17-3.75-3.42-3.75-3.42c0.73,2.25,2.87,5.24,3.82,7.09a2.34,2.34,0,0,1,.43,1.49c-0.35.84-1.73,2.08-2.08,3a1.09,1.09,0,0,0-.08.53c0.17,1,3.42,3.33,4.92,3.42s6.08,0,6.08,0V99.88Z"/><path class="cls-7" d="M237.06,333.32c2.31,2.25-1.06,20-2.06,25.75s0.25,8.09,1.5,11.34A17.12,17.12,0,0,1,237,375h5v-5.68l-2-10.25s0.75-20.75,2-23.25,2.25-4.75,1.75-7.75-2-1.25-1-7c0.67-3.85,1.67-9.26,2.26-12.42l-4.3-.19C238.75,316.6,235.38,331.69,237.06,333.32Z"/><path class="cls-8" d="M218.67,405.83a4.35,4.35,0,0,0,4.14,5.22l9.06,0.42a3.48,3.48,0,0,0,3.61-4.74L233,398H220Z"/><path class="cls-9" d="M236.65,388.17l4.22,0.26a3.47,3.47,0,0,0,3.61-4.72L242,375h-5C237.14,380,236.84,385.07,236.65,388.17Z"/><path class="cls-10" d="M245.5,213.32a14.69,14.69,0,0,1-3.16-4.43q-0.41-.82-0.77-1.7a37.39,37.39,0,0,1-2.73-12.54c0-3.14-4.8-5.47-8.54-8h0s-3,55.29-16.62,76.62l0.67,1.24-0.79-1.11s0.9,40.94,4.9,53.69c0,0,3.28,7,1.53,11s-2.23,22.48,0,25.23,3,15,1.51,20,1.31,14.46.78,15.46S220,398,220,398h13l3.5-7.59s0.06-.79.15-2.16c0.19-3.1.49-8.75,0.38-13a17.54,17.54,0,0,0-.53-4.73c-1.25-3.25-2.5-5.74-1.5-11.49s4.36-23.49,2.06-25.74c-1.68-1.63,1.69-16.72,3.66-24.86l4.3,0.19c1.55,0.06,3.25.12,5,.17V215.07A7.24,7.24,0,0,1,245.5,213.32Z"/><path d="M265.62,167.82a7.13,7.13,0,0,1,.3-2.25,4.49,4.49,0,1,0,5.62-6.86A33.27,33.27,0,0,1,276,156c-0.08,4.15-.23,9.22-0.5,13.88C271.53,173.06,265.76,172.19,265.62,167.82Z"/><path class="cls-1" d="M273.74,162.57a4.48,4.48,0,0,1-7.83,3c0.81-2.78,3.18-5.1,5.62-6.86A4.48,4.48,0,0,1,273.74,162.57Z"/><path class="cls-2" d="M271.12,141.54a49.06,49.06,0,0,1,20.18-19.63c-2.49,4.79-10.15,19.14-15.16,24.59C273.93,144.16,271.12,141.54,271.12,141.54Z"/><path class="cls-3" d="M256,210.08a0.5,0.5,0,1,1-.55-0.84l3.13-2q-0.36.88-.77,1.7Z"/><path class="cls-4" d="M256.14,143.32c1.5-.08,4.78-2.42,4.95-3.42a1.07,1.07,0,0,0-.07-0.53,24.3,24.3,0,0,0,3.51-1c0.78-.36,1.3-0.34,1.56-0.85l0.25,0.13c2.59-3.9,12-16.51,25.78-17.36,0,0-.3.59-0.82,1.59a49.06,49.06,0,0,0-20.18,19.63s2.81,2.62,5,5l-0.32.34c0.1,0.16.21,0.31,0.3,0.48,0,0,0,3.69-.1,8.71a33.27,33.27,0,0,0-4.49,2.69c-2.44,1.75-4.8,4.08-5.62,6.86a7.13,7.13,0,0,0-.3,2.25c0.14,4.37,5.92,5.24,9.9,2.09-0.37,6.32-1,11.89-1.9,13.41a12.79,12.79,0,0,1-3.79,3.38c-3.75,2.48-8.54,4.81-8.54,8a37.39,37.39,0,0,1-2.73,12.54l-3.13,2a0.5,0.5,0,1,0,.55.84l1.81-1.18a14.81,14.81,0,0,1-3.22,4.43,6.56,6.56,0,0,1-4.56,1.75V143.32S254.64,143.41,256.14,143.32Z"/><path class="cls-5" d="M251.64,103.32s2-3.92,1.61-1.17,1.68,1.67,2,.83,1.3-2.5,2.88.33,0.17,4.17,1.59,3.33-0.5-3.67.42-2.17,0,4.42,0,4.42,5.08-3,2.33-1.08,0.33,3.5.33,3.5,0.33-2.58,1-1-1.25,3.58-1.25,3.58,3.17-1.08,1.5.5,0.5,7,.75,3.58,4.75-2.25,3.08-1-1.42,7.42-1.25,5.5,4.5-2.17,4.5-2.17,0.5-.08-1.5,2.33-0.5,4.83.5,4.08a3.23,3.23,0,0,0,1-2.33c1,1.08,1.33,1,0,2.5s-6.21,5.83-6.21,5.83l5.21-2.08a13.58,13.58,0,0,0-2.58,1.92c-1.33,1.25-1.17,2.58-1.25,4.08a2.23,2.23,0,0,1-.19.9c-0.26.51-.78,0.49-1.56,0.85a24.17,24.17,0,0,1-3.5,1c-0.35-1-1.73-2.21-2.08-3a2.34,2.34,0,0,1,.43-1.49c0.95-1.85,3.09-4.84,3.82-7.09,0,0-2.42,3.25-3.75,3.42s1.42-5.58,2.25-6.17-1.58-1.58-2.5,1.08c0,0,.75-6.67,2.67-6.67,0,0-2.89-1.5-3.95.61a28.72,28.72,0,0,0,1.28-5.95c0.08-2.42-2.42,5.17-2.42,5.17a73,73,0,0,1,.24-9.07c0.32-.72.47-1.12,0.26-0.84a2.28,2.28,0,0,0-.26.84c-0.81,1.83-2.74,5.74-2.74,5.74s1.67-9.25,1-10.83-2.27,5.67-2.27,5.67l-3-10.86V88.49C252,90.41,251.64,103.32,251.64,103.32Z"/><path class="cls-6" d="M257,110.17a2.28,2.28,0,0,1,.26-0.84C257.49,109,257.34,109.45,257,110.17Z"/><path class="cls-6" d="M257.92,120c-0.18.59-.3,1-0.3,1A3.39,3.39,0,0,1,257.92,120Z"/><polygon class="cls-6" points="250 100.31 248.88 95.73 250 99.88 250 100.31"/><path class="cls-6" d="M253,110.74s1.53-7.25,2.24-5.67-0.94,10.83-.94,10.83,1.94-3.91,2.75-5.74a72.83,72.83,0,0,0-.24,9.07s2.5-7.58,2.42-5.17a28.72,28.72,0,0,1-1.28,5.95,3.39,3.39,0,0,0-.3,1s0.13-.38.31-1c1.05-2.12,3.95-.61,3.95-0.61-1.92,0-2.67,6.67-2.67,6.67,0.92-2.67,3.33-1.67,2.5-1.08s-3.58,6.33-2.25,6.17,3.75-3.42,3.75-3.42c-0.73,2.25-2.87,5.24-3.82,7.09a2.34,2.34,0,0,0-.43,1.49c0.35,0.84,1.73,2.08,2.08,3a1.09,1.09,0,0,1,.08.53c-0.17,1-3.47,3.33-5,3.42s-6.14,0-6.14,0V99.88Z"/><path class="cls-7" d="M263.06,333.32c-2.31,2.25,1.06,20,2.06,25.75s-0.25,8.09-1.5,11.34a17.12,17.12,0,0,0-.53,4.59H258v-5.68l2.06-10.25s-0.72-20.75-2-23.25-2.24-4.75-1.74-7.75,2-1.25,1-7c-0.67-3.85-1.67-9.26-2.26-12.42l4.3-.19C261.37,316.6,264.74,331.69,263.06,333.32Z"/><path class="cls-8" d="M281.44,405.83A4.35,4.35,0,0,1,277.3,411l-9.06.42a3.48,3.48,0,0,1-3.61-4.74l2.48-8.73h13Z"/><path class="cls-9" d="M263.47,388.17l-4.22.26a3.47,3.47,0,0,1-3.61-4.72l2.48-8.71h5C263,379,263.27,385.07,263.47,388.17Z"/><path class="cls-10" d="M254.56,213.32a14.75,14.75,0,0,0,3.19-4.43c0.27-.55.55-1.12,0.79-1.7a39.17,39.17,0,0,0,2.74-12.89c0-3.14,4.8-5.31,8.55-8.31h0s3,55.64,16.62,77l-0.67,1.41,0.8-1s-0.9,41-4.9,53.73c0,0-3.28,7-1.53,11s2.23,22.5,0,25.25-3,15-1.51,20-1.31,14.46-.78,15.46,2.28,9.21,2.28,9.21h-13l-3.5-7.59s-0.06-.79-0.15-2.16c-0.19-3.1-.49-8.75-0.38-13a17.54,17.54,0,0,1,.53-4.73c1.25-3.25,2.5-5.74,1.5-11.49s-4.36-23.49-2.06-25.74c1.68-1.63-1.69-16.72-3.66-24.86l-4.36.19c-1.55.06-3,.12-5,0.17V215.07A6.56,6.56,0,0,0,254.56,213.32Z"/><g class="cls-11"><path class="cls-3" d="M271.12,141.54s2.81,2.62,5,5c5-5.46,12.67-19.81,15.16-24.59A49.06,49.06,0,0,0,271.12,141.54Z"/><path class="cls-3" d="M286.45,263.14c-13-20.33-16.32-71.65-16.6-76.45a12.74,12.74,0,0,0,3.77-3.36c1-1.52,1.54-7.09,1.9-13.41,0.27-4.66.42-9.72,0.5-13.88,0.1-5,.1-8.71.1-8.71-0.09-.17-0.2-0.31-0.3-0.48l0.32-.34c-2.21-2.34-5-5-5-5a49.06,49.06,0,0,1,20.18-19.63c0.52-1,.82-1.59.82-1.59-13.79.84-23.23,13.45-25.82,17.36a1.06,1.06,0,0,1-.29-0.12h0a8.16,8.16,0,0,0,.24-0.9c0.08-1.5-.06-2.83,1.27-4.08a13.44,13.44,0,0,1,2.59-1.92l-5.2,2.08s4.88-4.33,6.21-5.83,1-1.42,0-2.5a3.23,3.23,0,0,1-1,2.33c-1,.75-2.5-1.67-0.5-4.08s1.5-2.33,1.5-2.33-4.33.25-4.5,2.17-0.42-4.25,1.25-5.5-2.83-2.42-3.08,1-2.42-2-.75-3.58-1.5-.5-1.5-0.5,1.92-2,1.25-3.58-1,1-1,1-3.08-1.58-.33-3.5-2.33,1.08-2.33,1.08,0.92-2.92,0-4.42,1,1.33-.42,2.17,0-.5-1.59-3.33-2.59-1.17-2.88-.33-2.39,1.92-2-.83-1.61,1.17-1.61,1.17S252,90.41,250,88.49V99.88l-1.12-4.15,1.12,4.58V308.82c2,0,3.49-.11,5-0.17l4.16-.18-4.11.18c0.59,3.16,1.59,8.57,2.26,12.42,1,5.75-.51,4-1,7s0.49,5.25,1.74,7.75,2,23.25,2,23.25L258,369.32V375h0.12l-2.48,8.75a3.44,3.44,0,0,0,3.61,4.67l4.22-.14c0.08,1.38.15,2.27,0.15,2.27l3.5,7.76-2.48,8.59a3.39,3.39,0,0,0,3.61,4.6l9.06-.38a4.29,4.29,0,0,0,4.14-5.14l-1.33-7.66s-1.75-8.37-2.28-9.37,2.28-10.62.78-15.62-0.74-17.25,1.51-20,1.77-21.24,0-25.24,1.53-11,1.53-11c4-12.75,4.9-53.71,4.9-53.71l-0.8,1.07ZM261.11,124.31a0.77,0.77,0,0,1,.75.33A0.77,0.77,0,0,0,261.11,124.31Zm0.76-4.91c-1.92,0-2.67,6.66-2.67,6.67h0s0.75-6.67,2.67-6.67a5.14,5.14,0,0,0-1.9-.52A5.14,5.14,0,0,1,261.87,119.41Zm-2.67-5.34A38.49,38.49,0,0,1,258,120h0v0c0,0.26-.28.58-0.34,1h0a3.41,3.41,0,0,1,.29-1,28.71,28.71,0,0,0,1.27-5.95,0.59,0.59,0,0,0-.08-0.48A0.55,0.55,0,0,1,259.2,114.06Zm-2.42,5.17h0a73.3,73.3,0,0,1,.24-9.05v0A72.61,72.61,0,0,0,256.78,119.23Zm-1.54-14.16c0.69,1.54-.86,10.31-1,10.79l0,0s1.65-9.25.94-10.83c-0.08-.18-0.17-0.24-0.27-0.21C255,104.82,255.15,104.87,255.24,105.07ZM259.4,308h0c1.84,8,4.92,21.36,3.92,24.4C264.32,329.36,261.24,316,259.4,308Zm3.69,67.32c0,0.52,0,1.07,0,1.63C263.06,376.38,263.07,375.84,263.08,375.32Z"/></g><path class="cls-12" d="M178.75,465.94V465h5.63v1.88h1.88v1.88h1.88v5.63h-1.87v1.88h-1.87v1.88h-5.62v-1.87h-1.87v-1.87H175v-5.62h1.88v-1.87h1.88v-0.94Zm3.75,1.88v-0.94h-3.75v7.5h1.88v1.88h3.75v-7.5H182.5v-0.94Z"/><path class="cls-12" d="M190,466.88V465h13.13v3.75h-1.87v1.88h-1.87v1.88H197.5v5.63h-3.75V472.5h1.88v-1.87h1.88v-1.87h1.88v-1.87h-5.62v1.88H190v-1.87Z"/><path class="cls-12" d="M205,466.88V465h13.13v3.75h-1.87v1.88h-1.87v1.88H212.5v5.63h-3.75V472.5h1.88v-1.87h1.88v-1.87h1.88v-1.87h-5.62v1.88H205v-1.87Z"/><path class="cls-12" d="M235,471.56V465h11.25v1.88h1.88v5.63h-1.87v1.88h-7.5v3.75H235v-6.56Zm9.38-1.87v-2.81h-5.62v5.63h5.63v-2.81Z"/><path class="cls-12" d="M251.88,465.94V465h9.38v1.88h1.88v9.38h-1.87v1.88h-9.37v-1.87H250v-9.37h1.88v-0.94Zm7.5,5.63v-4.69h-5.62v9.38h5.63v-4.69Z"/><path class="cls-12" d="M265,471.56V465h3.75v1.88h1.88v1.88h1.88v1.88h1.88V465h3.75v13.13h-3.75v-1.87H272.5v-1.87h-1.87V472.5h-1.87v5.63H265v-6.56Z"/><path class="cls-12" d="M281.88,467.81V465h3.75v5.63h3.75V465h3.75v5.63h-1.87v1.88h-1.87v5.63h-3.75V472.5h-1.87v-1.87h-1.87v-2.81Z"/><path class="cls-12" d="M296.88,465.94V465h11.25v1.88h-3.75v11.25h-3.75V466.88h-3.75v-0.94Z"/><path class="cls-12" d="M313.75,465.94V465h5.63v1.88h1.88v1.88h1.88v9.38h-3.75v-3.75h-5.62v3.75H310v-9.37h1.88v-1.87h1.88v-0.94Zm3.75,1.88v-0.94h-1.87v1.88h-1.87v3.75h5.63v-3.75H317.5v-0.94Z"/></svg>