<?xml version="1.0" ?><svg id="pkft" viewBox="0 0 500 500" xmlns="http://www.w3.org/2000/svg"><defs><style>.cls-1{fill:#f7687d;}.cls-2{fill:#ffe200;}.cls-3{fill:#f9e480;}.cls-4{fill:#867ba3;}.cls-5{fill:#766e91;}.cls-6{fill:none;}.cls-7{fill:#ff5400;}.cls-8{fill:#fcf1a9;}.cls-9{fill:#1a1a1a;}.cls-10{fill:#f4e192;}.cls-11{fill:#fff;}.cls-12{opacity:0.1;}.cls-13{fill:#ceaa72;}</style></defs><title/><path class="cls-1" d="M228.94,134.58a50.3,50.3,0,0,0-20.18-20.75c2.49,5.06,10.15,20.24,15.16,26C226.13,137.36,228.94,134.58,228.94,134.58Z"/><path class="cls-2" d="M242.14,111.83c0.18,0.62.3,1,.3,1A3.74,3.74,0,0,0,242.14,111.83Z"/><path class="cls-3" d="M237,367.37c2.31,2.38-1.06,21.15-2.06,27.23s0.25,8.83,1.5,12.27A22.57,22.57,0,0,1,237,412h5v-6.56l-2-10.84s0.74-21.94,2-24.58,2.24-5,1.74-8.19-2-1.32-1-7.4c0.67-4.07,1.67-9.79,2.26-13.13l-4.3-.2C238.69,349.69,235.32,365.64,237,367.37Z"/><path class="cls-4" d="M218.61,444.15a4.5,4.5,0,0,0,4.14,5.46l9.06,0.41c2.75,0.12,4.37-2.11,3.61-4.9L232.94,436h-13Z"/><path class="cls-5" d="M236.59,425.64l4.22,0.13c2.75,0.12,4.37-2,3.61-4.78l-2.48-9h-5C237.08,417,236.78,422.36,236.59,425.64Z"/><path class="cls-6" d="M239.4,130l-1.64,2,1.13,0.28Z"/><path class="cls-6" d="M233.88,120a2.28,2.28,0,0,0-1.42-1.36C233.79,120.29,234.64,121.49,233.88,120Z"/><path class="cls-6" d="M234,115.5c-0.11-.67-0.87-1-1.82-1.15C233.28,115.63,234.12,116.24,234,115.5Z"/><path class="cls-6" d="M237.76,101.5c-0.17-.94-1.34-1.52-2.91-1.88C236.52,102,238.07,103.22,237.76,101.5Z"/><path class="cls-2" d="M234,115.5c-0.11-.67-0.87-1-1.82-1.15C233.28,115.63,234.12,116.24,234,115.5Z"/><path class="cls-2" d="M237.76,101.5c-0.17-.94-1.34-1.52-2.91-1.88C236.52,102,238.07,103.22,237.76,101.5Z"/><path class="cls-2" d="M233.88,120a2.28,2.28,0,0,0-1.42-1.36C233.79,120.29,234.64,121.49,233.88,120Z"/><path class="cls-7" d="M221.84,92.71h0C221.7,92.68,221.72,92.68,221.84,92.71Z"/><path class="cls-7" d="M218.85,109.29l1,0.31A1.38,1.38,0,0,0,218.85,109.29Z"/><path class="cls-7" d="M234,115.5c-0.11-.67-0.87-1-1.82-1.15C233.28,115.63,234.12,116.24,234,115.5Z"/><path class="cls-7" d="M237.76,101.5c-0.17-.94-1.34-1.52-2.91-1.88C236.52,102,238.07,103.22,237.76,101.5Z"/><path class="cls-7" d="M233.88,120a2.28,2.28,0,0,0-1.42-1.36C233.79,120.29,234.64,121.49,233.88,120Z"/><path class="cls-7" d="M244.5,58.83l-2.21-7-1,8.17-4.52-5.33-0.57-.19,0.07,0c0.49,0.17,3.67,10,3.67,10l-2.42-3a35.1,35.1,0,0,0,.65,5.27,1,1,0,0,1,.35.77c0,0.93-.14.35-0.35-0.77-1.06-.85-4.22.77-4.22,0.77,3.68,0.7.15,5.8,0.15,5.8l-0.85-1.67c-1,3.17,1.54,5.76,1.54,5.76s-5.52-1.59-2.68.49a13.79,13.79,0,0,1,3.32,4.47,1.5,1.5,0,0,1,.83.94c0.35,1.55,0,.61-0.83-0.94-2.91-1.59-12.07-.07-8.16.94,4.5,1.17,3.67,7.5,1.74,6.67a15.37,15.37,0,0,1-3.91-2.83c-0.11,1.1,1.94,5.9,3.11,8.33a2.55,2.55,0,0,1,.69,1c0.29,0.89-.08.26-0.69-1-1.72-1.65-5.76-2.63-6.44-2.79,1,0.26,3.32,10.63,3.32,10.63s-2.83-6.83-2.57-4.5,4.24,15.67,3.74,14c-0.38-1.25-4.48-2.65-6.45-3.26,2.48,1.65,6.45,9,6.45,9L220,112.85s1.4,2.6,2.88,5.45a48.85,48.85,0,0,1,9.94,10.8,4.48,4.48,0,0,1,1.8-3.56c-1.43-2.52-3.13-5-4.61-5.55,0,0,1.19-1.65,2.46-1.36-1.51-1.87-3.64-4.31-4.79-4.14a17.67,17.67,0,0,1,4.51-.15c-1.87-2.16-4.51-6.23-4.51-8.85,0,0,5.83,4.17,7.33,4.5s-7-11-9.83-10.83c0,0,6-.41,9.69.45a21.28,21.28,0,0,1-3.39-7.28,46.22,46.22,0,0,1,5.2,3.33c1.24,1.08-1-9.07-3.69-11-0.4-.19-0.65-0.3-0.65-0.3a1.67,1.67,0,0,1,.65.3c1.93,0.94,7.66,4.21,8.35,10.15,0.83,7.17,4-24.33-6.33-20.33,0,0,6.68-7.3,8.49.16-0.29-1.41-.85-4.24-1.05-5.82-0.28-2.17,2.72,3.5,2.72,3.5s-0.59-9-2.88-8.5c0,0,5-2.33,4.54.83-0.3,1.93,1.62-5.3,3.17-11.24V43.83Z"/><polygon class="cls-7" points="240.37 125.84 250 84.38 240.37 125.84 240.37 125.84"/><path class="cls-2" d="M234,130.37a1.8,1.8,0,0,0,1.19.75L233.4,130l0.32,0.51Z"/><path class="cls-2" d="M246.83,64.67c0.5-3.17-4.54-.83-4.54-0.83,2.29-.5,2.88,8.5,2.88,8.5s-3-5.67-2.72-3.5c0.2,1.59.76,4.42,1.05,5.82,0.06,0.26.12,0.54,0.17,0.84l-0.17-.84C241.68,67.2,235,74.5,235,74.5c10.33-4,7.17,27.5,6.33,20.33-0.69-5.95-6.42-9.21-8.35-10.15,2.72,1.92,4.92,12.07,3.69,11a46.22,46.22,0,0,0-5.2-3.33,21.28,21.28,0,0,0,3.39,7.28c1.56,0.36,2.74.95,2.91,1.88,0.31,1.72-1.24.49-2.91-1.88-3.73-.86-9.69-0.45-9.69-0.45C228,99,236.5,110.33,235,110s-7.33-4.5-7.33-4.5c0,2.62,2.64,6.69,4.51,8.85,1,0.15,1.71.47,1.82,1.15s-0.72.13-1.82-1.15a17.67,17.67,0,0,0-4.51.15c1.15-.18,3.28,2.27,4.79,4.14a2.28,2.28,0,0,1,1.42,1.36c0.76,1.49-.09.29-1.42-1.36C231.19,118.35,230,120,230,120c1.48,0.59,3.18,3,4.61,5.55a4.48,4.48,0,0,0-1.8,3.56L233.4,130l1.76,1.12,0.37,0.16a14.64,14.64,0,0,0,2.23.71l1.13,0.28L239.4,130l1-4.18h0L250,84.38v-31C248.45,59.37,246.53,66.6,246.83,64.67Z"/><path class="cls-8" d="M232.87,129.66L233.4,130l-0.58-.88h0A4.48,4.48,0,0,0,232.87,129.66Z"/><path class="cls-6" d="M238.92,172.38c0.05-.12.09-0.24,0.14-0.36C239,172.14,239,172.26,238.92,172.38Z"/><path class="cls-6" d="M236.39,173.8l-1,.17Z"/><path class="cls-6" d="M239.59,169.83c0,0.18-.06.35-0.09,0.52a9.77,9.77,0,0,0,.16-1.69A9.9,9.9,0,0,1,239.59,169.83Z"/><path class="cls-6" d="M239.26,171.4c0-.16.09-0.32,0.13-0.48C239.36,171.09,239.31,171.25,239.26,171.4Z"/><path class="cls-6" d="M230.44,160.35l0.46,0.24Z"/><path class="cls-6" d="M235.29,174l-1,.11Z"/><path class="cls-6" d="M232,161.18l0.2,0.11Z"/><path class="cls-6" d="M234,162.26l1.26,0.71Z"/><path class="cls-6" d="M232.27,161.32l1.6,0.87Z"/><path class="cls-6" d="M239.17,165.36c-0.74-.5-1.56-1-2.41-1.51,0.81,0.49,1.59,1,2.3,1.44Z"/><path class="cls-6" d="M237.36,173.59l-0.81.18Z"/><path class="cls-6" d="M225.23,157.75l0.28,0.14Z"/><path class="cls-6" d="M237.57,173.54a18,18,0,0,0,1.86-.58c-0.31.12-.62,0.23-1,0.33Z"/><path class="cls-6" d="M231.88,174.2c-0.36,0-.73,0-1.09-0.05C231.15,174.18,231.51,174.19,231.88,174.2Z"/><path class="cls-6" d="M230.78,174.15q-0.58,0-1.15-.12Q230.2,174.1,230.78,174.15Z"/><path class="cls-6" d="M234.17,174.12a21.2,21.2,0,0,1-2.18.08A21.2,21.2,0,0,0,234.17,174.12Z"/><path class="cls-6" d="M227.8,159l0.11,0.05Z"/><path class="cls-6" d="M226.37,158.3l0.33,0.16Z"/><path class="cls-6" d="M229.62,174c-0.37-.05-0.73-0.12-1.09-0.19C228.89,173.9,229.26,174,229.62,174Z"/><path class="cls-6" d="M228.41,173.8c-0.37-.08-0.73-0.17-1.09-0.28C227.68,173.63,228,173.72,228.41,173.8Z"/><path class="cls-6" d="M227.29,173.51c-0.32-.1-0.64-0.21-0.95-0.33C226.65,173.3,227,173.41,227.29,173.51Z"/><path class="cls-6" d="M240,172.72l-0.3.13Z"/><path class="cls-6" d="M243.31,170.1l-0.06.14Z"/><path class="cls-6" d="M241.16,166.79l0.15,0.12Z"/><path class="cls-6" d="M243.33,169.15s0,0.07,0,.11S243.34,169.18,243.33,169.15Z"/><path class="cls-6" d="M242,167.47l0.12,0.1Z"/><path class="cls-6" d="M243,170.73l-0.12.15Z"/><path class="cls-6" d="M242.7,171l-0.15.15Z"/><path class="cls-6" d="M242.37,171.34l-0.18.15Z"/><path class="cls-6" d="M243.17,170.42l-0.09.14Z"/><path class="cls-6" d="M243.39,169.46s0,0.09,0,.13S243.4,169.51,243.39,169.46Z"/><path class="cls-6" d="M229.13,159.68l0.42,0.21Z"/><path class="cls-6" d="M242.66,168.16l0.11,0.12Z"/><path class="cls-6" d="M225.16,172.65c0.31,0.16.62,0.3,0.95,0.43C225.79,173,225.47,172.81,225.16,172.65Z"/><path class="cls-6" d="M243.39,169.78s0,0.09,0,.14S243.38,169.83,243.39,169.78Z"/><path class="cls-6" d="M240.07,166l0.23,0.17Z"/><path class="cls-6" d="M241.1,172.2l-0.25.14Z"/><polygon class="cls-6" points="242.3 205.82 243.18 206.43 242.3 205.82 242.3 205.82"/><path class="cls-6" d="M244.85,206.7a0.55,0.55,0,0,1-.07.2A0.55,0.55,0,0,0,244.85,206.7Z"/><path class="cls-6" d="M235.35,163l1.24,0.72Z"/><path class="cls-6" d="M240.58,172.47l-0.28.13Z"/><path class="cls-6" d="M241.57,171.93l-0.23.14Z"/><path class="cls-6" d="M242,171.64l-0.2.14Z"/><path class="cls-7" d="M215.61,198l0.38,0.23A0.59,0.59,0,0,0,215.61,198Z"/><path class="cls-7" d="M224.23,207.14a3.41,3.41,0,0,0-.35-1.58C224,207.65,224.13,208.74,224.23,207.14Z"/><path class="cls-7" d="M223,182a61.89,61.89,0,0,1,6.19,7.18c0.22-1.4.41-2.62,0.56-3.65Z"/><path class="cls-7" d="M218.85,228a3.12,3.12,0,0,0-1.41-2.43C218.13,227.78,218.71,229.07,218.85,228Z"/><path class="cls-7" d="M223,195.25c0.42,2.34.7,7.34,0.91,10.31a3.41,3.41,0,0,1,.35,1.58c-0.09,1.6-.2.52-0.35-1.58-1.38-3.07-6.47-6.43-7.9-7.32,1.81,1.93,5.45,15.65,4.61,14.1a78.32,78.32,0,0,0-5.28-6.76C214.37,209.14,222.85,222,220,220a23.73,23.73,0,0,1-5.26-6,89.85,89.85,0,0,0,2.7,11.57,3.12,3.12,0,0,1,1.41,2.43c-0.14,1.07-.72-0.22-1.41-2.43-2.12-1.84-5.77-3.2-4.76-2.32,1.44,1.25,4.31,14.25,2.06,15S211,230,211,230c-1.49,4,1.81,17.1,3.22,21.85,5.69-15,10-35.07,12.75-49.86C224.74,199.7,223,195.25,223,195.25Z"/><path class="cls-7" d="M225.45,190.89c0.52,1.52,1.52,4.1,2.34,6.5,0.33-1.86.62-3.6,0.88-5.19C226.69,192,225.82,191.42,225.45,190.89Z"/><path class="cls-9" d="M241.52,204c0.24,0.61.5,1.21,0.78,1.79v0l0.88,0.61,0.9,0.62a0.48,0.48,0,0,0,.27.09,0.49,0.49,0,0,0,.42-0.24,0.55,0.55,0,0,0,.07-0.2,0.56,0.56,0,0,0,0-.2,0.53,0.53,0,0,0-.22-0.33Z"/><path class="cls-10" d="M248,212a5.5,5.5,0,0,1-1.08-.44,7.11,7.11,0,0,1-1.49-1.11,15.6,15.6,0,0,1-3.19-4.68q-0.41-.87-0.77-1.8a41.49,41.49,0,0,1-2.73-13.26c0-2.34-2.39-4.26-5.11-6.11l-1.91-1.27c-0.52-.34-1-0.69-1.53-1l0,0c-0.07.5-.23,1.61-0.47,3.23-0.15,1-.34,2.25-0.56,3.65-0.15.93-.31,1.94-0.49,3-0.26,1.59-.56,3.33-0.88,5.19q-0.38,2.19-.82,4.59c-2.72,14.79-7.06,34.89-12.75,49.86a76.53,76.53,0,0,1-5.73,12.23l0.67,1.39-0.79-1.14s6,72.42,10,85.9c0,0,3.28,7.38,1.53,11.61s-2.23,23.78,0,26.69,3,15.85,1.51,21.14,1.31,15.41.78,16.47-2.28,9.86-2.28,9.86h13l3.5-8.14s0.06-.9.15-2.35c0.19-3.28.49-9.28,0.38-13.74a19.7,19.7,0,0,0-.53-5c-1.25-3.44-2.5-6.08-1.5-12.16s4.36-24.85,2.06-27.23c-1.68-1.73,1.69-17.69,3.66-26.28l4.33,0.2c1.55,0.07,3,.13,5,0.18V212.33A8.42,8.42,0,0,1,248,212Z"/><path class="cls-10" d="M229,201.71l-0.39,1.41C229,203.15,229.11,202.61,229,201.71Z"/><path class="cls-10" d="M241.52,204h0q0.36,0.93.77,1.8l0,0v0C242,205.23,241.76,204.63,241.52,204Z"/><path class="cls-11" d="M239.67,168.67a9.77,9.77,0,0,1-.16,1.69c0,0.19-.07.39-0.11,0.57s-0.08.32-.13,0.48-0.13.41-.2,0.61-0.09.25-.14,0.36a8.23,8.23,0,0,1-.44.91c0.33-.1.65-0.21,1-0.33l0.28-.11,0.3-.13,0.28-.12,0.28-.13,0.26-.13,0.25-.14,0.24-.14,0.23-.14,0.22-.14,0.2-.14,0.2-.15,0.18-.15,0.18-.16,0.15-.15,0.15-.16,0.12-.15,0.12-.17,0.09-.14,0.08-.17,0.06-.14a1.63,1.63,0,0,0,0-.18s0-.09,0-0.14a1.41,1.41,0,0,0,0-.19s0-.09,0-0.13a1.41,1.41,0,0,0,0-.21s0-.07,0-0.11a1.63,1.63,0,0,0-.14-0.31,4.3,4.3,0,0,0-.41-0.55l-0.11-.12c-0.17-.19-0.36-0.38-0.58-0.58l-0.12-.1q-0.3-.27-0.66-0.56l-0.15-.12-0.86-.64-0.23-.17-0.9-.62-0.11-.07A9.61,9.61,0,0,1,239.67,168.67Z"/><path class="cls-11" d="M226.34,173.18c0.31,0.12.63,0.23,0.95,0.33h0c0.36,0.11.72,0.2,1.09,0.28h0.12a5.37,5.37,0,0,0,1.09.18h0c-1-1-1.67-3.26-1.67-5.34,0-3.51,1.81-6.46,4.26-7.37h0l-0.2-.11-1.12-.59-0.46-.24-0.89-.46-0.42-.21-1.22-.62L227.8,159l-1.11-.55-0.33-.16-0.85-.42-0.28-.14-1-.48c0.08,2.43.18,4.92,0.31,7.32,0.16,2.95.37,5.74,0.63,8.07,0.31,0.16.62,0.3,0.95,0.43Z"/><path class="cls-7" d="M228,168.66c0,2.09.64,4.34,1.67,5.34h1.15c0.36,0,.73.12,1.09,0.12,0,0,.07,0,0.11,0a21.22,21.22,0,0,0,2.18-.06h0.16l1-.11h0.09l1-.17,0.16,0,0.81-.18,0.21-.05,0.91-.25a8.38,8.38,0,0,0,.44-0.91c0.05-.12.09-0.24,0.14-0.36s0.14-.4.2-0.61,0.09-.32.13-0.48,0.08-.38.11-0.57,0.07-.34.09-0.52a5.14,5.14,0,0,1-5.69-7.63h0l-1.6-.87,0,0C229.77,162.2,228,165.14,228,168.66Z"/><path class="cls-7" d="M238.48,173.29a8.23,8.23,0,0,0,.44-0.91A8.38,8.38,0,0,1,238.48,173.29Z"/><path class="cls-7" d="M239.39,170.93c0-.19.08-0.38,0.11-0.57C239.47,170.55,239.44,170.74,239.39,170.93Z"/><path class="cls-7" d="M239.06,172c0.07-.2.14-0.4,0.2-0.61Q239.17,171.72,239.06,172Z"/><path class="cls-11" d="M233.16,164.82a5.12,5.12,0,0,0,6.43,5,9.9,9.9,0,0,0,.07-1.16,9.61,9.61,0,0,0-.61-3.38c-0.71-.47-1.49-1-2.3-1.44l-0.16-.1-1.24-.72-0.09-.05-1.26-.71-0.11-.06A5.13,5.13,0,0,0,233.16,164.82Z"/><path class="cls-8" d="M233,129.66a4.66,4.66,0,0,1,0-.53h0a53.46,53.46,0,0,0-10-10.8,63.11,63.11,0,0,1,3.46,7.19Z"/><path class="cls-8" d="M240.37,125.84l-1,4.18-0.52,2.23-1.13-.28a14.64,14.64,0,0,1-2.23-.71l-0.37-.16a1.8,1.8,0,0,1-1.19-.75l-0.25.13L233.4,130l-0.53-.34-6.53-4.16a63.09,63.09,0,0,0-3.46-7.19,27.27,27.27,0,0,0-14.93-6.16s0.3,0.63.82,1.68a50.3,50.3,0,0,1,20.18,20.75s-2.81,2.77-5,5.25l0.32,0.36c-0.1.17-.21,0.33-0.3,0.5,0,0,0,3.9.1,9.21,0,2.26.1,4.78,0.19,7.36l1,0.48,0.28,0.14,0.85,0.42,0.33,0.16L227.8,159l0.11,0.05,1.22,0.62,0.42,0.21,0.89,0.46,0.46,0.24,1.12,0.59,0.2,0.11h0l0,0,1.6,0.87h0l0.11,0.06,1.26,0.71,0.09,0.05,1.24,0.72,0.16,0.1c0.85,0.51,1.67,1,2.41,1.51l0.9,0.62,0.23,0.17,0.86,0.64,0.15,0.12q0.36,0.29.66,0.56l0.12,0.1c0.22,0.2.41,0.39,0.58,0.58l0.11,0.12a4.28,4.28,0,0,1,.41.55,1.63,1.63,0,0,1,.14.31s0,0.07,0,.11a1.41,1.41,0,0,1,0,.21s0,0.09,0,.13a1.41,1.41,0,0,1,0,.19s0,0.09,0,.14a1.63,1.63,0,0,1,0,.18l-0.06.14-0.08.17-0.09.14-0.12.17-0.12.15-0.15.16-0.15.15-0.18.16-0.18.15-0.2.15-0.2.14-0.22.14-0.23.14-0.24.14-0.25.14-0.26.13-0.28.13-0.28.12-0.3.13-0.28.11a18,18,0,0,1-1.86.58l-0.21.05-0.81.18-0.16,0-1,.17h-0.09l-1,.11-0.16,0a21.2,21.2,0,0,1-2.18.08s-0.07-.08-0.11-0.08c-0.36,0-.73-0.12-1.09-0.12h-1.16c-0.37-.05-0.73-0.11-1.09-0.19l-0.12,0c-0.37-.08-0.73-0.17-1.09-0.28h0c-0.32-.1-0.64-0.21-0.95-0.33l-0.23-.09c-0.32-.13-0.64-0.27-0.95-0.43,0.33,3,.75,5.21,1.28,6.11a13,13,0,0,0,3.75,3.54l0-.3h0c0.53,0.43,1.09.84,1.65,1.24l1.82,1.29c2.71,1.91,5.08,3.72,5.08,6.05A42.4,42.4,0,0,0,241.51,204h0l3.12,2.15a0.53,0.53,0,0,1,.22.33,0.56,0.56,0,0,1,0,.2,0.55,0.55,0,0,1-.07.2,0.49,0.49,0,0,1-.42.24,0.48,0.48,0,0,1-.27-0.09l-0.9-.62-0.88-.61a15.56,15.56,0,0,0,3.17,4.67,7.11,7.11,0,0,0,1.49,1.11A5.5,5.5,0,0,0,248,212a8.42,8.42,0,0,0,2,.3v-128Z"/><path class="cls-8" d="M244.85,206.5a0.56,0.56,0,0,1,0,.2A0.56,0.56,0,0,0,244.85,206.5Z"/><path class="cls-8" d="M244.63,206.17a0.53,0.53,0,0,1,.22.33,0.53,0.53,0,0,0-.22-0.33L241.51,204h0Z"/><path class="cls-8" d="M244.09,207.05l-0.9-.62,0.9,0.62a0.48,0.48,0,0,0,.27.09,0.49,0.49,0,0,0,.42-0.24,0.49,0.49,0,0,1-.42.24A0.48,0.48,0,0,1,244.09,207.05Z"/><path class="cls-8" d="M231.76,183.37l0.12-.13c-0.56-.4-1.12-0.81-1.65-1.24h0l0,0.3,0,0C230.73,182.68,231.24,183,231.76,183.37Z"/><path class="cls-8" d="M238.78,190.75A41.49,41.49,0,0,0,241.5,204h0a42.4,42.4,0,0,1-2.73-13.43c0-2.34-2.37-4.14-5.08-6.05l0,0.11C236.39,186.49,238.78,188.4,238.78,190.75Z"/><path class="cls-8" d="M245.47,210.49a7.11,7.11,0,0,0,1.49,1.11,7.11,7.11,0,0,1-1.49-1.11,15.56,15.56,0,0,1-3.17-4.67l0,0A15.6,15.6,0,0,0,245.47,210.49Z"/><path class="cls-8" d="M233.67,184.64l0-.11-1.82-1.29-0.12.13Z"/><polygon class="cls-8" points="241.5 204.01 241.51 204.01 241.51 204.01 241.5 204.01 241.5 204.01"/><path class="cls-8" d="M243.18,168.83a1.63,1.63,0,0,1,.14.31A1.63,1.63,0,0,0,243.18,168.83Z"/><path class="cls-8" d="M242.77,168.28a4.3,4.3,0,0,1,.41.55A4.28,4.28,0,0,0,242.77,168.28Z"/><path class="cls-8" d="M242.09,167.58c0.22,0.2.41,0.39,0.58,0.58C242.5,168,242.31,167.78,242.09,167.58Z"/><path class="cls-8" d="M239.17,165.36l0.9,0.62Z"/><path class="cls-8" d="M241.31,166.91q0.36,0.29.66,0.56Q241.67,167.2,241.31,166.91Z"/><path class="cls-8" d="M240.31,166.15l0.86,0.64Z"/><path class="cls-8" d="M243.36,169.92a1.63,1.63,0,0,1,0,.18A1.63,1.63,0,0,0,243.36,169.92Z"/><path class="cls-8" d="M241.34,172.07l-0.24.14Z"/><path class="cls-8" d="M241.79,171.78l-0.22.14Z"/><path class="cls-8" d="M240.84,172.34l-0.26.13Z"/><path class="cls-8" d="M243.35,169.25a1.41,1.41,0,0,1,0,.21A1.41,1.41,0,0,0,243.35,169.25Z"/><path class="cls-8" d="M239.72,172.85l-0.28.11Z"/><path class="cls-8" d="M242.2,171.49l-0.2.15Z"/><path class="cls-8" d="M240.3,172.6l-0.28.12Z"/><path class="cls-8" d="M243.25,170.24l-0.08.17Z"/><path class="cls-8" d="M243.39,169.59a1.41,1.41,0,0,1,0,.19A1.41,1.41,0,0,0,243.39,169.59Z"/><path class="cls-8" d="M242.55,171.19l-0.18.16Z"/><path class="cls-8" d="M243.08,170.56l-0.12.17Z"/><path class="cls-8" d="M242.84,170.88l-0.15.16Z"/><path class="cls-8" d="M224.23,157.26l1,0.48Z"/><path class="cls-8" d="M226.69,158.46L227.8,159Z"/><path class="cls-8" d="M228.53,173.83l-0.12,0Z"/><path class="cls-8" d="M225.51,157.88l0.85,0.42Z"/><polygon class="cls-8" points="229.62 174.02 229.63 174.02 229.63 174.02 229.62 174.02"/><polygon class="cls-8" points="232.23 161.29 232.22 161.29 232.23 161.29 232.23 161.29"/><path class="cls-8" d="M227.91,159.06l1.22,0.62Z"/><path class="cls-8" d="M227.32,173.52h0Z"/><path class="cls-8" d="M226.34,173.18l-0.23-.09Z"/><path class="cls-8" d="M229.55,159.89l0.89,0.46Z"/><path class="cls-8" d="M230.9,160.59l1.12,0.59Z"/><polygon class="cls-8" points="229.63 174.02 229.63 174.02 229.63 174.02 229.63 174.02"/><path class="cls-8" d="M232,174.2h0Z"/><path class="cls-8" d="M232.27,161.32l0,0h0Z"/><path class="cls-8" d="M233.9,162.2h0Z"/><path class="cls-8" d="M237.57,173.54l-0.21.05Z"/><path class="cls-8" d="M236.55,173.77l-0.16,0Z"/><path class="cls-8" d="M234.33,174.1l-0.16,0Z"/><path class="cls-8" d="M235.38,174h0Z"/><path class="cls-8" d="M234,162.26l-0.11-.06h0Z"/><path class="cls-8" d="M236.6,163.75l0.16,0.1Z"/><path class="cls-8" d="M235.26,163l0.09,0.05Z"/><path class="cls-2" d="M243.49,74.66l0.17,0.84C243.62,75.2,243.56,74.92,243.49,74.66Z"/><path class="cls-2" d="M233,84.68a1.67,1.67,0,0,0-.65-0.3S232.58,84.49,233,84.68Z"/><path class="cls-7" d="M238.58,67.54a1,1,0,0,0-.35-0.77C238.44,67.89,238.62,68.47,238.58,67.54Z"/><path class="cls-7" d="M236.33,83.33a1.5,1.5,0,0,0-.83-0.94C236.31,83.94,236.67,84.88,236.33,83.33Z"/><path class="cls-7" d="M229,96.5a2.55,2.55,0,0,0-.69-1C228.89,96.76,229.26,97.39,229,96.5Z"/><path class="cls-1" d="M270.74,134.58a50.3,50.3,0,0,1,20.18-20.75c-2.49,5.06-10.15,20.24-15.16,26C273.55,137.36,270.74,134.58,270.74,134.58Z"/><path class="cls-2" d="M257.54,111.83c-0.18.62-.3,1-0.3,1A3.74,3.74,0,0,1,257.54,111.83Z"/><path class="cls-3" d="M262.68,367.37c-2.31,2.38,1.06,21.15,2.06,27.23s-0.25,8.83-1.5,12.27a22.57,22.57,0,0,0-.53,5.13H258v-6.56l1.87-10.84s-0.82-21.94-2.07-24.58-2.28-5-1.78-8.19,2-1.32,1-7.4c-0.67-4.07-1.68-9.79-2.27-13.13l4.29-.2C261,349.69,264.36,365.64,262.68,367.37Z"/><path class="cls-4" d="M281.06,444.15a4.5,4.5,0,0,1-4.14,5.46l-9.06.41c-2.75.12-4.37-2.11-3.61-4.9l2.48-9.12h13Z"/><path class="cls-5" d="M263.09,425.64l-4.22.13c-2.75.12-4.37-2-3.61-4.78l2.48-9h5C262.6,417,262.89,422.36,263.09,425.64Z"/><path class="cls-6" d="M260.28,130l1.64,2-1.13.28Z"/><path class="cls-6" d="M265.8,120a2.28,2.28,0,0,1,1.42-1.36C265.88,120.29,265,121.49,265.8,120Z"/><path class="cls-6" d="M265.68,115.5c0.11-.67.87-1,1.82-1.15C266.4,115.63,265.55,116.24,265.68,115.5Z"/><path class="cls-6" d="M261.92,101.5c0.17-.94,1.34-1.52,2.91-1.88C263.16,102,261.61,103.22,261.92,101.5Z"/><path class="cls-2" d="M265.68,115.5c0.11-.67.87-1,1.82-1.15C266.4,115.63,265.55,116.24,265.68,115.5Z"/><path class="cls-2" d="M261.92,101.5c0.17-.94,1.34-1.52,2.91-1.88C263.16,102,261.61,103.22,261.92,101.5Z"/><path class="cls-2" d="M265.8,120a2.28,2.28,0,0,1,1.42-1.36C265.88,120.29,265,121.49,265.8,120Z"/><path class="cls-7" d="M277.84,92.71h0C278,92.68,278,92.68,277.84,92.71Z"/><path class="cls-7" d="M280.83,109.29l-1,.31A1.38,1.38,0,0,1,280.83,109.29Z"/><path class="cls-7" d="M265.68,115.5c0.11-.67.87-1,1.82-1.15C266.4,115.63,265.55,116.24,265.68,115.5Z"/><path class="cls-7" d="M261.92,101.5c0.17-.94,1.34-1.52,2.91-1.88C263.16,102,261.61,103.22,261.92,101.5Z"/><path class="cls-7" d="M265.8,120a2.28,2.28,0,0,1,1.42-1.36C265.88,120.29,265,121.49,265.8,120Z"/><path class="cls-7" d="M255.34,58.83l2.13-7L258.38,60l4.5-5.33,0.56-.19-0.08,0c-0.49.17-3.68,10-3.68,10l2.42-3a35.11,35.11,0,0,1-.65,5.27,1,1,0,0,0-.35.77c0,0.93.14,0.35,0.35-.77,1.06-.85,4.22.77,4.22,0.77-3.68.7-.15,5.8-0.15,5.8l0.85-1.67c1,3.17-1.54,5.76-1.54,5.76s5.52-1.59,2.68.49a13.79,13.79,0,0,0-3.32,4.47,1.5,1.5,0,0,0-.83.94c-0.35,1.55,0,.61.83-0.94,2.91-1.59,12.07-.07,8.16.94-4.5,1.17-3.67,7.5-1.74,6.67a15.37,15.37,0,0,0,3.91-2.83c0.11,1.1-1.94,5.9-3.11,8.33a2.55,2.55,0,0,0-.69,1c-0.29.89,0.08,0.26,0.69-1,1.72-1.65,5.76-2.63,6.44-2.79-1,.26-3.32,10.63-3.32,10.63s2.83-6.83,2.57-4.5-4.24,15.67-3.74,14c0.38-1.25,4.48-2.65,6.45-3.26-2.48,1.65-6.45,9-6.45,9l6.33-5.78s-1.4,2.6-2.88,5.45a48.85,48.85,0,0,0-9.94,10.8,4.48,4.48,0,0,0-1.8-3.56c1.43-2.52,3.13-5,4.61-5.55,0,0-1.19-1.65-2.46-1.36,1.51-1.87,3.64-4.31,4.79-4.14a17.67,17.67,0,0,0-4.51-.15c1.87-2.16,4.51-6.23,4.51-8.85,0,0-5.83,4.17-7.33,4.5s7-11,9.83-10.83c0,0-6-.41-9.69.45a21.28,21.28,0,0,0,3.39-7.28,46.22,46.22,0,0,0-5.2,3.33c-1.24,1.08,1-9.07,3.69-11,0.4-.19.65-0.3,0.65-0.3a1.67,1.67,0,0,0-.65.3c-1.93.94-7.66,4.21-8.35,10.15-0.83,7.17-4-24.33,6.33-20.33,0,0-6.68-7.3-8.49.16,0.29-1.41.85-4.24,1.05-5.82,0.28-2.17-2.72,3.5-2.72,3.5s0.59-9,2.88-8.5c0,0-4.88-2.33-4.38.83,0.3,1.93-2-5.3-3-11.24V43.83Z"/><polygon class="cls-7" points="259.31 125.84 249.68 84.38 259.31 125.84 259.31 125.84"/><path class="cls-2" d="M265.71,130.37a1.8,1.8,0,0,1-1.19.75l1.76-1.12-0.32.51Z"/><path class="cls-2" d="M253,64.67c-0.5-3.17,4.46-.83,4.46-0.83-2.29-.5-2.92,8.5-2.92,8.5s3-5.67,2.7-3.5c-0.2,1.59-.77,4.42-1.06,5.82-0.06.26-.13,0.54-0.18,0.84l0.17-.84c1.81-7.46,8.49-.16,8.49-0.16-10.33-4-7.17,27.5-6.33,20.33,0.69-5.95,6.42-9.21,8.35-10.15-2.72,1.92-4.92,12.07-3.69,11a46.22,46.22,0,0,1,5.2-3.33,21.28,21.28,0,0,1-3.39,7.28c-1.56.36-2.74,0.95-2.91,1.88-0.31,1.72,1.24.49,2.91-1.88,3.73-.86,9.69-0.45,9.69-0.45-2.83-.17-11.33,11.17-9.83,10.83s7.33-4.5,7.33-4.5c0,2.62-2.64,6.69-4.51,8.85-1,.15-1.71.47-1.82,1.15s0.72,0.13,1.82-1.15a17.67,17.67,0,0,1,4.51.15c-1.15-.18-3.28,2.27-4.79,4.14A2.28,2.28,0,0,0,265.8,120c-0.76,1.49.09,0.29,1.42-1.36,1.27-.29,2.46,1.36,2.46,1.36-1.48.59-3.18,3-4.61,5.55a4.48,4.48,0,0,1,1.8,3.56l-0.58.88-1.76,1.12-0.37.16a14.64,14.64,0,0,1-2.23.71l-1.13.28L260.28,130l-0.81-4.18h0L250,84.38v-31C251,59.37,253.31,66.6,253,64.67Z"/><path class="cls-8" d="M266.81,129.66l-0.53.34,0.58-.88h0A4.48,4.48,0,0,1,266.81,129.66Z"/><path class="cls-6" d="M260.76,172.38c-0.05-.12-0.09-0.24-0.14-0.36C260.66,172.14,260.71,172.26,260.76,172.38Z"/><path class="cls-6" d="M263.28,173.8l1,0.17Z"/><path class="cls-6" d="M260.09,169.83c0,0.18.06,0.35,0.09,0.52a9.77,9.77,0,0,1-.16-1.69A9.9,9.9,0,0,0,260.09,169.83Z"/><path class="cls-6" d="M260.41,171.4c0-.16-0.09-0.32-0.13-0.48C260.32,171.09,260.37,171.25,260.41,171.4Z"/><path class="cls-6" d="M269.24,160.35l-0.46.24Z"/><path class="cls-6" d="M264.39,174l1,0.11Z"/><path class="cls-6" d="M267.66,161.18l-0.2.11Z"/><path class="cls-6" d="M265.67,162.26l-1.26.71Z"/><path class="cls-6" d="M267.41,161.32l-1.6.87Z"/><path class="cls-6" d="M260.51,165.36c0.74-.5,1.56-1,2.41-1.51-0.81.49-1.59,1-2.3,1.44Z"/><path class="cls-6" d="M262.32,173.59l0.81,0.18Z"/><path class="cls-6" d="M274.45,157.75l-0.28.14Z"/><path class="cls-6" d="M262.11,173.54a18,18,0,0,1-1.86-.58c0.31,0.12.62,0.23,1,.33Z"/><path class="cls-6" d="M267.8,174.2c0.36,0,.73,0,1.09-0.05C268.53,174.18,268.16,174.19,267.8,174.2Z"/><path class="cls-6" d="M268.9,174.15q0.58,0,1.15-.12Q269.47,174.1,268.9,174.15Z"/><path class="cls-6" d="M265.51,174.12a21.2,21.2,0,0,0,2.18.08A21.2,21.2,0,0,1,265.51,174.12Z"/><path class="cls-6" d="M271.88,159l-0.11.05Z"/><path class="cls-6" d="M273.31,158.3l-0.33.16Z"/><path class="cls-6" d="M270.05,174c0.37-.05.73-0.12,1.09-0.19C270.78,173.9,270.42,174,270.05,174Z"/><path class="cls-6" d="M271.27,173.8c0.37-.08.73-0.17,1.09-0.28C272,173.63,271.63,173.72,271.27,173.8Z"/><path class="cls-6" d="M272.39,173.51c0.32-.1.64-0.21,0.95-0.33C273,173.3,272.71,173.41,272.39,173.51Z"/><path class="cls-6" d="M259.65,172.72l0.3,0.13Z"/><path class="cls-6" d="M256.37,170.1l0.06,0.14Z"/><path class="cls-6" d="M258.52,166.79l-0.15.12Z"/><path class="cls-6" d="M256.35,169.15s0,0.07,0,.11S256.34,169.18,256.35,169.15Z"/><path class="cls-6" d="M257.71,167.47l-0.12.1Z"/><path class="cls-6" d="M256.72,170.73l0.12,0.15Z"/><path class="cls-6" d="M257,171l0.15,0.15Z"/><path class="cls-6" d="M257.31,171.34l0.18,0.15Z"/><path class="cls-6" d="M256.51,170.42l0.09,0.14Z"/><path class="cls-6" d="M256.28,169.46s0,0.09,0,.13S256.28,169.51,256.28,169.46Z"/><path class="cls-6" d="M270.55,159.68l-0.42.21Z"/><path class="cls-6" d="M257,168.16l-0.11.12Z"/><path class="cls-6" d="M274.52,172.65c-0.31.16-.62,0.3-0.95,0.43C273.89,173,274.21,172.81,274.52,172.65Z"/><path class="cls-6" d="M256.29,169.78s0,0.09,0,.14S256.3,169.83,256.29,169.78Z"/><path class="cls-6" d="M259.61,166l-0.23.17Z"/><path class="cls-6" d="M258.58,172.2l0.25,0.14Z"/><polygon class="cls-6" points="257.38 205.82 256.5 206.43 257.38 205.82 257.38 205.82"/><path class="cls-6" d="M254.83,206.7a0.55,0.55,0,0,0,.07.2A0.55,0.55,0,0,1,254.83,206.7Z"/><path class="cls-6" d="M264.33,163l-1.24.72Z"/><path class="cls-6" d="M259.1,172.47l0.28,0.13Z"/><path class="cls-6" d="M258.11,171.93l0.23,0.14Z"/><path class="cls-6" d="M257.68,171.64l0.2,0.14Z"/><path class="cls-7" d="M284.07,198l-0.38.23A0.59,0.59,0,0,1,284.07,198Z"/><path class="cls-7" d="M275.45,207.14a3.41,3.41,0,0,1,.35-1.58C275.65,207.65,275.55,208.74,275.45,207.14Z"/><path class="cls-7" d="M276.71,182a61.89,61.89,0,0,0-6.19,7.18c-0.22-1.4-.41-2.62-0.56-3.65Z"/><path class="cls-7" d="M280.83,228a3.12,3.12,0,0,1,1.41-2.43C281.55,227.78,281,229.07,280.83,228Z"/><path class="cls-7" d="M276.71,195.25c-0.42,2.34-.7,7.34-0.91,10.31a3.41,3.41,0,0,0-.35,1.58c0.09,1.6.2,0.52,0.35-1.58,1.38-3.07,6.47-6.43,7.9-7.32-1.81,1.93-5.45,15.65-4.61,14.1a78.32,78.32,0,0,1,5.28-6.76c0.94,3.57-7.54,16.45-4.69,14.43a23.73,23.73,0,0,0,5.26-6,89.85,89.85,0,0,1-2.7,11.57,3.12,3.12,0,0,0-1.41,2.43c0.14,1.07.72-.22,1.41-2.43,2.12-1.84,5.77-3.2,4.76-2.32-1.44,1.25-4.31,14.25-2.06,15s3.75-8.25,3.75-8.25c1.49,4-1.81,17.1-3.22,21.85-5.69-15-10-35.07-12.75-49.86C274.94,199.7,276.71,195.25,276.71,195.25Z"/><path class="cls-7" d="M274.23,190.89c-0.52,1.52-1.52,4.1-2.34,6.5-0.33-1.86-.62-3.6-0.88-5.19C273,192,273.86,191.42,274.23,190.89Z"/><path class="cls-9" d="M258.16,204c-0.24.61-.5,1.21-0.78,1.79v0l-0.88.61-0.9.62a0.48,0.48,0,0,1-.27.09,0.49,0.49,0,0,1-.42-0.24,0.55,0.55,0,0,1-.07-0.2,0.56,0.56,0,0,1,0-.2,0.53,0.53,0,0,1,.22-0.33Z"/><path class="cls-10" d="M251.8,212a4.81,4.81,0,0,0,1-.44,6.93,6.93,0,0,0,1.45-1.11,15.56,15.56,0,0,0,3.17-4.68c0.27-.58.52-1.18,0.76-1.8a41.47,41.47,0,0,0,2.72-13.26c0-2.34,2.38-4.26,5.1-6.11l1.91-1.27c0.52-.34,1-0.69,1.53-1l0,0c0.07,0.5.23,1.61,0.47,3.23,0.15,1,.34,2.25.56,3.65,0.15,0.93.31,1.94,0.49,3,0.26,1.59.56,3.33,0.88,5.19q0.38,2.19.82,4.59c2.72,14.79,7.06,34.89,12.75,49.86a76.53,76.53,0,0,0,5.73,12.23l-0.67,1.39,0.79-1.14s-6,72.42-10,85.9c0,0-3.28,7.38-1.53,11.61s2.23,23.78,0,26.69-3,15.85-1.51,21.14-1.31,15.41-.78,16.47,2.28,9.86,2.28,9.86h-13l-3.5-8.14s-0.06-.9-0.15-2.35c-0.19-3.28-.49-9.28-0.38-13.74a19.7,19.7,0,0,1,.53-5c1.25-3.44,2.5-6.08,1.5-12.16s-4.36-24.85-2.06-27.23c1.68-1.73-1.69-17.69-3.66-26.28-1.17.06-2.52,0.13-4.17,0.2s-2.85.13-4.85,0.18V212.33S251.23,212.2,251.8,212Z"/><path class="cls-10" d="M270.7,201.71l0.39,1.41C270.65,203.15,270.57,202.61,270.7,201.71Z"/><path class="cls-10" d="M258.16,204h0q-0.36.93-.77,1.8l0,0v0C257.66,205.23,257.92,204.63,258.16,204Z"/><path class="cls-11" d="M260,168.67a9.77,9.77,0,0,0,.16,1.69c0,0.19.07,0.39,0.11,0.57s0.08,0.32.13,0.48,0.13,0.41.2,0.61,0.09,0.25.14,0.36a8.23,8.23,0,0,0,.44.91c-0.33-.1-0.65-0.21-1-0.33l-0.28-.11-0.3-.13-0.28-.12-0.28-.13-0.26-.13-0.25-.14-0.24-.14-0.23-.14-0.22-.14-0.2-.14-0.2-.15-0.18-.15-0.18-.16L257,171l-0.15-.16-0.12-.15-0.12-.17-0.09-.14-0.08-.17-0.06-.14a1.63,1.63,0,0,1,0-.18s0-.09,0-0.14a1.41,1.41,0,0,1,0-.19s0-.09,0-0.13a1.41,1.41,0,0,1,0-.21s0-.07,0-0.11a1.63,1.63,0,0,1,.14-0.31,4.3,4.3,0,0,1,.41-0.55l0.11-.12c0.17-.19.36-0.38,0.58-0.58l0.12-.1q0.3-.27.66-0.56l0.15-.12,0.86-.64,0.23-.17,0.9-.62,0.11-.07A9.61,9.61,0,0,0,260,168.67Z"/><path class="cls-11" d="M273.34,173.18c-0.31.12-.63,0.23-0.95,0.33h0c-0.36.11-.72,0.2-1.09,0.28h-0.12a5.37,5.37,0,0,1-1.09.18h0c1-1,1.67-3.26,1.67-5.34,0-3.51-1.81-6.46-4.26-7.37h0l0.2-.11,1.12-.59,0.46-.24,0.89-.46,0.42-.21,1.22-.62,0.11-.05,1.11-.55,0.33-.16,0.85-.42,0.28-.14,1-.48c-0.08,2.43-.18,4.92-0.31,7.32-0.16,2.95-.37,5.74-0.62,8.07-0.31.16-.62,0.3-0.95,0.43Z"/><path class="cls-7" d="M271.72,168.66c0,2.09-.64,4.34-1.67,5.34h-1.15c-0.36,0-.73.12-1.09,0.12,0,0-.07,0-0.11,0a21.22,21.22,0,0,1-2.18-.06h-0.16l-1-.11H264.3l-1-.17-0.16,0-0.81-.18-0.21-.05-0.91-.25a8.38,8.38,0,0,1-.44-0.91c-0.05-.12-0.09-0.24-0.14-0.36s-0.14-.4-0.2-0.61-0.09-.32-0.13-0.48-0.08-.38-0.11-0.57-0.07-.34-0.09-0.52a5.14,5.14,0,0,0,5.69-7.63h0l1.6-.87,0,0C269.91,162.2,271.72,165.14,271.72,168.66Z"/><path class="cls-7" d="M261.2,173.29a8.23,8.23,0,0,1-.44-0.91A8.38,8.38,0,0,0,261.2,173.29Z"/><path class="cls-7" d="M260.28,170.93c0-.19-0.08-0.38-0.11-0.57C260.21,170.55,260.24,170.74,260.28,170.93Z"/><path class="cls-7" d="M260.62,172c-0.07-.2-0.14-0.4-0.2-0.61Q260.51,171.72,260.62,172Z"/><path class="cls-11" d="M266.51,164.82a5.12,5.12,0,0,1-6.43,5,9.9,9.9,0,0,1-.07-1.16,9.61,9.61,0,0,1,.61-3.38c0.71-.47,1.49-1,2.3-1.44l0.16-.1,1.24-.72,0.09-.05,1.26-.71,0.11-.06A5.13,5.13,0,0,1,266.51,164.82Z"/><path class="cls-8" d="M266.88,129.66a4.6,4.6,0,0,0,.12-0.53h0a51.91,51.91,0,0,1,9.87-10.8,63.11,63.11,0,0,0-3.46,7.19Z"/><path class="cls-8" d="M259.47,125.84l0.89,4.18,0.48,2.23,1.11-.28a14.45,14.45,0,0,0,2.22-.71l0.36-.16a1.79,1.79,0,0,0,1.19-.75L266,130.5l0.32-.51,0.53-.34,6.53-4.16a63.08,63.08,0,0,1,3.46-7.19,27.27,27.27,0,0,1,14.93-6.16s-0.3.63-.82,1.68a50.3,50.3,0,0,0-20.18,20.75s2.81,2.77,5,5.25l-0.32.36c0.1,0.17.21,0.33,0.3,0.5,0,0,0,3.9-.1,9.21,0,2.26-.1,4.78-0.19,7.36l-1,.48-0.28.14-0.85.42-0.33.16-1.11.55-0.11.05-1.22.62-0.42.21-0.89.46-0.46.24-1.12.59-0.2.11h0l0,0-1.6.87h0l-0.11.06-1.26.71-0.09.05-1.24.72-0.16.1c-0.85.51-1.67,1-2.41,1.51l-0.9.62-0.23.17-0.86.64-0.15.12q-0.36.29-.66,0.56l-0.12.1c-0.22.2-.41,0.39-0.58,0.58l-0.11.12a4.28,4.28,0,0,0-.41.55,1.63,1.63,0,0,0-.14.31s0,0.07,0,.11a1.41,1.41,0,0,0,0,.21s0,0.09,0,.13a1.41,1.41,0,0,0,0,.19s0,0.09,0,.14a1.63,1.63,0,0,0,0,.18l0.06,0.14,0.08,0.17,0.09,0.14,0.12,0.17,0.12,0.15L257,171l0.15,0.15,0.18,0.16,0.18,0.15,0.2,0.15,0.2,0.14,0.22,0.14,0.23,0.14,0.24,0.14,0.25,0.14,0.26,0.13,0.28,0.13,0.28,0.12,0.3,0.13,0.28,0.11a18,18,0,0,0,1.86.58l0.21,0.05,0.81,0.18,0.16,0,1,0.17h0.09l1,0.11,0.16,0a21.2,21.2,0,0,0,2.18.08s0.07-.08.11-0.08c0.36,0,.73-0.12,1.09-0.12h1.16c0.37-.05.73-0.11,1.09-0.19l0.12,0c0.37-.08.73-0.17,1.09-0.28h0c0.32-.1.64-0.21,0.95-0.33l0.23-.09c0.32-.13.64-0.27,0.95-0.43-0.33,3-.75,5.21-1.28,6.11a13,13,0,0,1-3.75,3.54l0-.3h0c-0.53,0-1.09.84-1.65,1.24L266,184.53c-2.71,1.91-5.08,3.72-5.08,6.05A42.4,42.4,0,0,1,258.17,204h0L255,206.17a0.53,0.53,0,0,0-.22.33,0.56,0.56,0,0,0,0,.2,0.55,0.55,0,0,0,.07.2,0.49,0.49,0,0,0,.42.24,0.48,0.48,0,0,0,.27-0.09l0.9-.62,0.88-.61a15.56,15.56,0,0,1-3.17,4.67,7.11,7.11,0,0,1-1.49,1.11,4.18,4.18,0,0,1-.92.44c-0.57.17-1.8,0.26-1.8,0.3v-128Z"/><path class="cls-8" d="M254.83,206.5a0.56,0.56,0,0,0,0,.2A0.56,0.56,0,0,1,254.83,206.5Z"/><path class="cls-8" d="M255,206.17a0.53,0.53,0,0,0-.22.33,0.53,0.53,0,0,1,.22-0.33l3.12-2.15h0Z"/><path class="cls-8" d="M255.59,207.05l0.9-.62-0.9.62a0.48,0.48,0,0,1-.27.09,0.49,0.49,0,0,1-.42-0.24,0.49,0.49,0,0,0,.42.24A0.48,0.48,0,0,0,255.59,207.05Z"/><path class="cls-8" d="M267.92,183.37l-0.12-.13c0.56-.4,1.12-0.81,1.65-1.24h0l0,0.3,0,0C269,182.68,268.44,183,267.92,183.37Z"/><path class="cls-8" d="M260.9,190.75A41.49,41.49,0,0,1,258.17,204h0a42.4,42.4,0,0,0,2.73-13.43c0-2.34,2.37-4.14,5.08-6.05l0,0.11C263.29,186.49,260.9,188.4,260.9,190.75Z"/><path class="cls-8" d="M254.21,210.49a7.11,7.11,0,0,1-1.49,1.11,7.11,7.11,0,0,0,1.49-1.11,15.56,15.56,0,0,0,3.17-4.67l0,0A15.6,15.6,0,0,1,254.21,210.49Z"/><path class="cls-8" d="M266,184.64l0-.11,1.82-1.29,0.12,0.13Z"/><polygon class="cls-8" points="258.17 204.01 258.16 204.01 258.16 204.01 258.17 204.01 258.17 204.01"/><path class="cls-8" d="M256.5,168.83a1.63,1.63,0,0,0-.14.31A1.63,1.63,0,0,1,256.5,168.83Z"/><path class="cls-8" d="M256.91,168.28a4.3,4.3,0,0,0-.41.55A4.28,4.28,0,0,1,256.91,168.28Z"/><path class="cls-8" d="M257.59,167.58c-0.22.2-.41,0.39-0.58,0.58C257.18,168,257.37,167.78,257.59,167.58Z"/><path class="cls-8" d="M260.51,165.36l-0.9.62Z"/><path class="cls-8" d="M258.37,166.91q-0.36.29-.66,0.56Q258,167.2,258.37,166.91Z"/><path class="cls-8" d="M259.37,166.15l-0.86.64Z"/><path class="cls-8" d="M256.32,169.92a1.63,1.63,0,0,0,0,.18A1.63,1.63,0,0,1,256.32,169.92Z"/><path class="cls-8" d="M258.34,172.07l0.24,0.14Z"/><path class="cls-8" d="M257.88,171.78l0.22,0.14Z"/><path class="cls-8" d="M258.84,172.34l0.26,0.13Z"/><path class="cls-8" d="M256.33,169.25a1.41,1.41,0,0,0,0,.21A1.41,1.41,0,0,1,256.33,169.25Z"/><path class="cls-8" d="M260,172.85l0.28,0.11Z"/><path class="cls-8" d="M257.48,171.49l0.2,0.15Z"/><path class="cls-8" d="M259.38,172.6l0.28,0.12Z"/><path class="cls-8" d="M256.43,170.24l0.08,0.17Z"/><path class="cls-8" d="M256.28,169.59a1.41,1.41,0,0,0,0,.19A1.41,1.41,0,0,1,256.28,169.59Z"/><path class="cls-8" d="M257.13,171.19l0.18,0.16Z"/><path class="cls-8" d="M256.6,170.56l0.12,0.17Z"/><path class="cls-8" d="M256.84,170.88L257,171Z"/><path class="cls-8" d="M275.45,157.26l-1,.48Z"/><path class="cls-8" d="M273,158.46l-1.11.55Z"/><path class="cls-8" d="M271.14,173.83l0.12,0Z"/><path class="cls-8" d="M274.17,157.88l-0.85.42Z"/><polygon class="cls-8" points="270.05 174.02 270.05 174.02 270.05 174.02 270.05 174.02"/><polygon class="cls-8" points="267.45 161.29 267.46 161.29 267.45 161.29 267.45 161.29"/><path class="cls-8" d="M271.77,159.06l-1.22.62Z"/><path class="cls-8" d="M272.35,173.52h0Z"/><path class="cls-8" d="M273.34,173.18l0.23-.09Z"/><path class="cls-8" d="M270.13,159.89l-0.89.46Z"/><path class="cls-8" d="M268.78,160.59l-1.12.59Z"/><polygon class="cls-8" points="270.05 174.02 270.04 174.02 270.05 174.02 270.05 174.02"/><path class="cls-8" d="M267.69,174.2h0Z"/><path class="cls-8" d="M267.41,161.32l0,0h0Z"/><path class="cls-8" d="M265.78,162.2h0Z"/><path class="cls-8" d="M262.11,173.54l0.21,0.05Z"/><path class="cls-8" d="M263.13,173.77l0.16,0Z"/><path class="cls-8" d="M265.35,174.1l0.16,0Z"/><path class="cls-8" d="M264.3,174h0Z"/><path class="cls-8" d="M265.67,162.26l0.11-.06h0Z"/><path class="cls-8" d="M263.08,163.75l-0.16.1Z"/><path class="cls-8" d="M264.42,163l-0.09.05Z"/><path class="cls-2" d="M256.19,74.66L256,75.5C256.06,75.2,256.12,74.92,256.19,74.66Z"/><path class="cls-2" d="M266.7,84.68a1.67,1.67,0,0,1,.65-0.3S267.09,84.49,266.7,84.68Z"/><path class="cls-7" d="M261.1,67.54a1,1,0,0,1,.35-0.77C261.24,67.89,261.06,68.47,261.1,67.54Z"/><path class="cls-7" d="M263.35,83.33a1.5,1.5,0,0,1,.83-0.94C263.37,83.94,263,84.88,263.35,83.33Z"/><path class="cls-7" d="M270.71,96.5a2.55,2.55,0,0,1,.69-1C270.79,96.76,270.41,97.39,270.71,96.5Z"/><g class="cls-12"><path class="cls-9" d="M277.84,92.7h0C278,92.68,278,92.68,277.84,92.7Z"/><path class="cls-9" d="M279.79,109.6l1-.31A1.38,1.38,0,0,0,279.79,109.6Z"/><path class="cls-9" d="M263.36,54.5h0l0.08,0Z"/><path class="cls-9" d="M283.7,198.23l0.38-.23A0.59,0.59,0,0,0,283.7,198.23Z"/><path class="cls-9" d="M291.74,112.15a27.2,27.2,0,0,0-14.82,6.08l2.8-5.37-6.35,5.78s4-7.39,6.44-9c-2,.61-6.07,2-6.45,3.26-0.5,1.65,3.48-11.69,3.74-14s-2.58,4.5-2.58,4.5,2.32-10.36,3.32-10.63c-0.68.16-4.72,1.14-6.44,2.79,1.17-2.43,3.22-7.24,3.11-8.33A15.38,15.38,0,0,1,270.6,90c-1.93.83-2.76-5.5,1.74-6.67,3.91-1-5.25-2.53-8.16-.94a13.79,13.79,0,0,1,3.32-4.47c2.84-2.08-2.68-.49-2.68-0.49s2.56-2.59,1.54-5.76l-0.85,1.67s-3.52-5.09.15-5.8c0,0-3.16-1.61-4.22-.77a35.11,35.11,0,0,0,.65-5.27l-2.42,3s3.17-9.79,3.67-10l-0.47.16L258.38,60l-0.92-8.17-2.13,7-5.34-15V341.47c1.95,0,3.23-.11,4.73-0.17,0.59,3.34,1.6,9.06,2.27,13.13,1,6.08-.48,4.23-1,7.4s0.53,5.55,1.78,8.19,2.07,24.58,2.07,24.58L258,405.44V412h-0.26l-2.48,9c-0.76,2.79.86,4.9,3.61,4.78l4.22-.13c-0.16-2.69-.38-6.77-0.4-10.91,0,3.89.25,8.18,0.4,10.77,0.08,1.45.15,2.35,0.15,2.35l3.5,8.14-2.48,9.12c-0.76,2.79.86,5,3.61,4.9l9.06-.42a4.5,4.5,0,0,0,4.14-5.46L279.74,436s-1.75-8.8-2.28-9.86,2.28-11.18.78-16.47-0.74-18.23,1.51-21.14,1.77-22.46,0-26.69,1.53-11.61,1.53-11.61c4-13.48,10-85.9,10-85.9l-0.79,1.14,0.67-1.39a76.53,76.53,0,0,1-5.73-12.23c1.41-4.75,4.7-17.82,3.22-21.85,0,0-1.5,9-3.75,8.25s0.63-13.75,2.06-15c1-.88-2.64.48-4.76,2.32a89.85,89.85,0,0,0,2.7-11.57,23.73,23.73,0,0,1-5.26,6c-2.85,2,5.63-10.86,4.69-14.43a78.32,78.32,0,0,0-5.28,6.76c-0.85,1.55,2.8-12.17,4.61-14.1-1.43.9-6.52,4.26-7.9,7.32,0.21-3,.49-8,0.91-10.31,0,0-1.77,4.45-4,6.74q-0.44-2.4-.82-4.59h0c0.81-2.4,1.82-5,2.34-6.5-0.37.52-1.24,1.12-3.22,1.31-0.18-1.08-.34-2.09-0.49-3a61.89,61.89,0,0,1,6.19-7.18L270,185.53c-0.24-1.62-.4-2.73-0.47-3.23l0,0c-0.5.35-1,.69-1.53,1L266,184.64c-2.72,1.85-5.1,3.76-5.1,6.11A41.47,41.47,0,0,1,258.18,204c-0.24.62-.49,1.22-0.76,1.8a15.56,15.56,0,0,1-3.17,4.68,6.92,6.92,0,0,1-1.45,1.11,6.44,6.44,0,0,1-.68.32c0.2-.09.37-0.2,0.6-0.32a7.11,7.11,0,0,0,1.49-1.11,15.6,15.6,0,0,0,3.19-4.68q0.41-.87.77-1.8a41.49,41.49,0,0,0,2.73-13.26c0-2.34,2.39-4.26,5.11-6.11l1.91-1.27c0.52-.34,1-0.69,1.53-1l0,0a13,13,0,0,0,3.75-3.54c0.53-.9.95-3.14,1.28-6.11,0.26-2.34.46-5.13,0.63-8.07,0.13-2.39.23-4.88,0.31-7.32s0.14-5.1.19-7.36c0.1-5.31.1-9.21,0.1-9.21-0.09-.18-0.2-0.33-0.3-0.5l0.32-.36c-1.18-1.32-2.53-2.73-3.53-3.75,1,1,2.35,2.43,3.53,3.75,5-5.77,12.67-20.94,15.16-26a45.71,45.71,0,0,0-6.8,4.53,45.69,45.69,0,0,1,6.8-4.53C291.44,112.78,291.74,112.15,291.74,112.15Zm-27,282.45a25,25,0,0,1,.36,4,25.16,25.16,0,0,0-.36-4c-0.72-4.37-2.66-15.3-2.83-22C262.08,379.3,264,390.23,264.74,394.6ZM259,341.08h0l-0.86,0ZM253,64.67A1.21,1.21,0,0,1,254.2,63,1.21,1.21,0,0,0,253,64.67Zm14,64.46a2.57,2.57,0,0,1-.11.48h0A2.57,2.57,0,0,0,267,129.13Zm-0.71.87h0l-0.32.51h0l0.32-.51h0Zm-0.58,0c-0.22,1-.62.71-1.19,0.93l-0.09.06,0.09-.06c0.57-.22,1,0.07,1.19-0.93h0Zm-3.59-27.7c0.47,0,1.56-1.06,2.71-2.69C263.68,101.25,262.59,102.34,262.12,102.3Zm0.7-6.56a0.22,0.22,0,0,0,.19-0.08,38.94,38.94,0,0,1,4.64-3,38.94,38.94,0,0,0-4.64,3A0.22,0.22,0,0,1,262.82,95.74Zm5.4-3.41-0.12.07ZM264.68,74.5h0a4.72,4.72,0,0,0-1.78-.35A4.72,4.72,0,0,1,264.68,74.5Zm-3.23-7.73h0a5,5,0,0,1-.31,1.23A5,5,0,0,0,261.45,66.77Zm-6.89,5.47c0.3-.56,2-3.76,2.55-3.89-0.59.25-2.55,4-2.55,4V72.25Zm1.66,2.31v0c0.63-2.46,1.81-3.25,3.09-3.22C258,71.27,256.84,72.08,256.22,74.56Zm1.85,21.33a1.84,1.84,0,0,0,.28-1.06c0.69-5.95,6.42-9.21,8.35-10.15h0c-1.94.94-7.66,4.21-8.35,10.15A1.83,1.83,0,0,1,258.06,95.89Zm7.45,78.23-0.16,0-1-.11H264.3l-1-.17-0.16,0-0.81-.18-0.21-.05,0.21,0.05,0.81,0.18,0.16,0,1,0.17h0.09l1,0.11h0.16a21.22,21.22,0,0,0,2.18.06s0.07,0,.11,0-0.07.08-.11,0.08A21.2,21.2,0,0,1,265.51,174.12Zm2.28,9.12c0.56-.4,1.12-1.24,1.65-1.24C268.91,182.43,268.35,182.84,267.8,183.24Zm2.26-9.23h0l0.18,0Zm1.09-.19-0.1,0,0.1,0h0Zm-0.28-39.11,1.05,1.06Zm-3.86-5.6a52.23,52.23,0,0,1,9.75-10.71h0A52.22,52.22,0,0,0,267,129.11Z"/></g><path class="cls-13" d="M163.75,465.94V465h5.63v1.88h1.88v1.88h1.88v5.63h-1.87v1.88h-1.87v1.88h-5.62v-1.87h-1.87v-1.87H160v-5.62h1.88v-1.87h1.88v-0.94Zm3.75,1.88v-0.94h-3.75v7.5h1.88v1.88h3.75v-7.5H167.5v-0.94Z"/><path class="cls-13" d="M175,466.88V465h13.13v3.75h-1.87v1.88h-1.87v1.88H182.5v5.63h-3.75V472.5h1.88v-1.87h1.88v-1.87h1.88v-1.87h-5.62v1.88H175v-1.87Z"/><path class="cls-13" d="M191.88,465.94V465h7.5v1.88h1.88v3.75h-1.87v1.88h3.75v3.75h-1.87v1.88h-9.37v-1.87H190V472.5h1.88v-1.87H190v-3.75h1.88v-0.94Zm3.75,7.5V472.5h-3.75v3.75h7.5v-1.87h-3.75v-0.94Zm3.75-4.69v-1.87h-5.62v1.88h1.88v1.88h3.75v-1.87Z"/><path class="cls-13" d="M220,471.56V465h11.25v1.88h1.88v5.63h-3.75v1.88h1.88v1.88h1.88v1.88H227.5v-1.87h-1.87v-1.87h-1.87v3.75H220v-6.56Zm9.38-2.81v-1.87h-5.62v5.63h3.75v-1.87h1.88v-1.87Z"/><path class="cls-13" d="M238.75,465.94V465h5.63v1.88h1.88v1.88h1.88v9.38h-3.75v-3.75h-5.62v3.75H235v-9.37h1.88v-1.87h1.88v-0.94Zm3.75,1.88v-0.94h-1.87v1.88h-1.87v3.75h5.63v-3.75H242.5v-0.94Z"/><path class="cls-13" d="M250,471.56V465h11.25v1.88h1.88v5.63h-1.87v1.88h-7.5v3.75H250v-6.56Zm9.38-1.87v-2.81h-5.62v5.63h5.63v-2.81Z"/><path class="cls-13" d="M266.88,465.94V465h11.25v1.88h-3.75v9.38h3.75v1.88H266.88v-1.87h3.75v-9.37h-3.75v-0.94Z"/><path class="cls-13" d="M280,471.56V465h9.38v1.88h1.88v1.88h1.88v5.63h-1.87v1.88h-1.87v1.88H280v-6.56Zm7.5-3.75v-0.94h-3.75v9.38h3.75v-1.87h1.88v-5.62H287.5v-0.94Z"/><path class="cls-13" d="M298.75,465.94V465h5.63v1.88h1.88v1.88h1.88v9.38h-3.75v-3.75h-5.62v3.75H295v-9.37h1.88v-1.87h1.88v-0.94Zm3.75,1.88v-0.94h-1.87v1.88h-1.87v3.75h5.63v-3.75H302.5v-0.94Z"/><path class="cls-13" d="M311.88,465.94V465h7.5v1.88h1.88v1.88H317.5v-1.87h-3.75v3.75h7.5v1.88h1.88v3.75h-1.87v1.88h-9.37v-1.87H310v-1.87h3.75v1.88h5.63V472.5h-7.5v-1.87H310v-3.75h1.88v-0.94Z"/><path class="cls-13" d="M325,471.56V465h3.75v5.63h5.63V465h3.75v13.13h-3.75V472.5h-5.62v5.63H325v-6.56Z"/></svg>