<?xml version="1.0" ?><svg id="pkft" viewBox="0 0 500 500" xmlns="http://www.w3.org/2000/svg"><defs><style>.cls-1{fill:#ccc;}.cls-2{fill:#dd6c8a;}.cls-3{fill:#e57a93;}.cls-4{fill:#ed8599;}.cls-5{fill:#fff;}.cls-6{fill:#fff1ac;}.cls-7{fill:#1a1a1a;}.cls-8{fill:#e6e6e6;}</style></defs><title/><path class="cls-1" d="M156,377.17s-20.17,21.25,19.33,3.67C174,377.51,156,377.17,156,377.17Z"/><path class="cls-1" d="M140,332.11s-23.12,14.31,10,8.78C150.67,339.27,140,332.11,140,332.11Z"/><path class="cls-2" d="M140,332.11s10.67,7.16,10,8.78c-0.44,1.07,5.44-2.22,9.47-4.57a293.15,293.15,0,0,1,10.08-48.21C160,297.11,141.24,316.68,140,332.11Z"/><path class="cls-3" d="M183.39,342.61a85.21,85.21,0,0,1,0-50.88,81.15,81.15,0,0,1,6.45-15.06c-0.5,0-1,.05-1.5.05A23.78,23.78,0,0,1,175,272.67q-2.89,7.13-5.46,15.44a293.15,293.15,0,0,0-10.08,48.21c-1.62,12.35-2.8,25.92-3.47,40.85,0,0,18,.33,19.33,3.67,0,0,28.88-21.09,30.5-26.68A81.43,81.43,0,0,1,183.39,342.61Z"/><path class="cls-3" d="M233.1,215.94c-9.8,1.8-21.18,6.4-32.15,16.62a23.87,23.87,0,0,1,11.25,19.08A65.51,65.51,0,0,1,250,239.51V215.22A61,61,0,0,0,233.1,215.94Z"/><path class="cls-4" d="M200.95,232.55A23.89,23.89,0,0,0,175,272.67C182.55,254.05,191.6,241.26,200.95,232.55Z"/><path class="cls-4" d="M207.91,348.92l-2.07,5.24a123.3,123.3,0,0,0,20.7,5.15c-4-1.21-6.53-2.14-6.53-2.14A133.44,133.44,0,0,1,207.91,348.92Z"/><path class="cls-4" d="M235.25,280.67a20.57,20.57,0,0,1-.45,4.26c4.23-2.27,10.63-2.83,15.2-2.9V242.46l-14.79,37.41C235.22,280.14,235.25,280.4,235.25,280.67Z"/><path class="cls-4" d="M200.95,232.55c-9.35,8.7-18.4,21.5-25.94,40.12a23.78,23.78,0,0,0,13.32,4.06c0.5,0,1,0,1.5-.05a81.15,81.15,0,0,0-6.45,15.06,85.21,85.21,0,0,0,0,50.88,81.43,81.43,0,0,0,22.44,11.55l2.07-5.24c-29.47-22.79-17.81-39.59-2.18-49.86a20.49,20.49,0,1,1,29.48-19.19L250,242.46v-3a65.51,65.51,0,0,0-37.81,12.13A23.87,23.87,0,0,0,200.95,232.55Z"/><path class="cls-5" d="M234.8,284.93a20.57,20.57,0,0,0,.45-4.26c0-.27,0-0.54,0-0.8l-2.61,6.59A10.73,10.73,0,0,1,234.8,284.93Z"/><path class="cls-5" d="M232.6,286.46l2.61-6.59a20.49,20.49,0,1,0-29.48,19.19c11.94-7.85,26.19-11.89,26.19-11.89A7.56,7.56,0,0,1,232.6,286.46Zm-12.74-6.85a1.44,1.44,0,1,1,1.44-1.44A1.44,1.44,0,0,1,219.86,279.62Z"/><path class="cls-6" d="M250,364.61v-3.43a147.29,147.29,0,0,1-23.47-1.86A143.17,143.17,0,0,0,250,364.61Z"/><path class="cls-6" d="M212.44,337.46l-4.53,11.46A133.44,133.44,0,0,0,220,357.17s2.57,0.92,6.53,2.14A147.29,147.29,0,0,0,250,361.17v-5.68C240.48,355.13,224.38,352.1,212.44,337.46Z"/><path class="cls-6" d="M232.6,286.46l-17.09,43.22A97.47,97.47,0,0,0,228.82,332c2.63,0.21,4.78.11,5.93-.51,0.77-.41,1.64-0.86,2.59-1.33A35.94,35.94,0,0,1,250,326.29V282c-4.57.07-11,.63-15.2,2.9A10.73,10.73,0,0,0,232.6,286.46Zm5.6,33.21a1,1,0,0,1-1.37.36l-9.42-5.5a1,1,0,0,1,1-1.73l9.42,5.5A1,1,0,0,1,238.2,319.68Z"/><path class="cls-6" d="M205.83,327.17s4.32,1.26,9.68,2.51l17.09-43.22a7.56,7.56,0,0,0-.69.71s-14.25,4-26.19,11.89c-15.63,10.27-27.29,27.07,2.18,49.86l4.53-11.46A55.37,55.37,0,0,1,205.83,327.17Z"/><path class="cls-5" d="M233.5,338H235a1.15,1.15,0,0,0,1.17-.9l1.17-7c-0.95.47-1.82,0.95-2.59,1.35-1.15.61-3.3,0.72-5.93,0.52l3.17,5.22A1.88,1.88,0,0,0,233.5,338Z"/><path class="cls-4" d="M236.17,337.1a1.15,1.15,0,0,1-1.17.9h-1.5a1.88,1.88,0,0,1-1.51-.77L228.82,332a97.29,97.29,0,0,1-13.31-2.3l-3.07,7.78c11.94,14.65,28,17.68,37.56,18v-29.2a35.94,35.94,0,0,0-12.66,3.84Z"/><path class="cls-4" d="M212.44,337.46l3.07-7.77c-5.35-1.25-9.68-2.51-9.68-2.51A55.37,55.37,0,0,0,212.44,337.46Z"/><path class="cls-7" d="M227.05,313.17a1,1,0,0,0,.36,1.37l9.42,5.5a1,1,0,1,0,1-1.73l-9.42-5.5A1,1,0,0,0,227.05,313.17Z"/><circle class="cls-7" cx="219.86" cy="278.17" r="1.44"/><path class="cls-2" d="M233.08,215.93h0a61,61,0,0,1,16.9-.72V140.95c-3.68,1.74-7.32,3.6-10.53,5.3C237.86,175,233.08,215.93,233.08,215.93Z"/><path class="cls-8" d="M240,130.67c0,4.39-.2,9.73-0.53,15.58,3.21-1.7,6.85-3.56,10.53-5.3V112.2C244.76,114.06,240,119,240,130.67Z"/><path class="cls-1" d="M344.15,377.17s20.17,21.25-19.33,3.67C326.15,377.51,344.15,377.17,344.15,377.17Z"/><path class="cls-1" d="M360.15,332.11s23.13,14.31-10,8.78C349.48,339.27,360.15,332.11,360.15,332.11Z"/><path class="cls-2" d="M360.15,332.11s-10.67,7.16-10,8.78c0.44,1.07-5.44-2.22-9.47-4.57a293.15,293.15,0,0,0-10.08-48.21C340.13,297.11,358.91,316.68,360.15,332.11Z"/><path class="cls-3" d="M316.76,342.61a85.21,85.21,0,0,0,0-50.88,81.15,81.15,0,0,0-6.45-15.06c0.5,0,1,.05,1.5.05a23.78,23.78,0,0,0,13.32-4.06q2.89,7.13,5.46,15.44a293.15,293.15,0,0,1,10.08,48.21c1.62,12.35,2.8,25.92,3.47,40.85,0,0-18,.33-19.33,3.67,0,0-28.88-21.09-30.5-26.68A81.43,81.43,0,0,0,316.76,342.61Z"/><path class="cls-3" d="M267,215.94c9.8,1.8,21.21,6.4,32.19,16.62a23.93,23.93,0,0,0-11.3,19.08A65.49,65.49,0,0,0,250,239.51V215.22A61,61,0,0,1,267,215.94Z"/><path class="cls-4" d="M299.2,232.55a23.89,23.89,0,0,1,25.94,40.12C317.6,254.05,308.55,241.26,299.2,232.55Z"/><path class="cls-4" d="M292.24,348.92l2.07,5.24a123.3,123.3,0,0,1-20.7,5.15c4-1.21,6.53-2.14,6.53-2.14A133.44,133.44,0,0,0,292.24,348.92Z"/><path class="cls-4" d="M264.9,280.67a20.57,20.57,0,0,0,.37,4.26C261,282.66,255,282.1,250,282V242.46l14.86,37.41C264.85,280.14,264.9,280.4,264.9,280.67Z"/><path class="cls-4" d="M299.2,232.55c9.35,8.7,18.4,21.5,25.94,40.12a23.78,23.78,0,0,1-13.32,4.06c-0.5,0-1,0-1.5-.05a81.15,81.15,0,0,1,6.45,15.06,85.21,85.21,0,0,1,0,50.88,81.43,81.43,0,0,1-22.44,11.55l-2.07-5.24c29.47-22.79,17.81-39.59,2.18-49.86a20.5,20.5,0,1,0-29.56-19.19L250,242.46v-3a65.55,65.55,0,0,1,37.88,12.13A24,24,0,0,1,299.2,232.55Z"/><path class="cls-5" d="M265.35,284.93a20.57,20.57,0,0,1-.45-4.26c0-.27,0-0.54,0-0.8l2.61,6.59A10.73,10.73,0,0,0,265.35,284.93Z"/><path class="cls-5" d="M268.23,287.17s14.25,4,26.19,11.89a20.49,20.49,0,1,0-29.48-19.19l2.61,6.59A7.56,7.56,0,0,1,268.23,287.17Zm10.61-9a1.44,1.44,0,1,1,1.44,1.44A1.44,1.44,0,0,1,278.85,278.17Z"/><path class="cls-6" d="M250,364.61v-3.43a148.84,148.84,0,0,0,23.47-1.86A129.7,129.7,0,0,1,250,364.61Z"/><path class="cls-6" d="M287.64,337.46l4.57,11.46a133,133,0,0,1-12.08,8.25s-2.63.92-6.6,2.14A149.67,149.67,0,0,1,250,361.17v-5.68C260,355.13,275.69,352.1,287.64,337.46Z"/><path class="cls-6" d="M265.27,284.93C261,282.66,255,282.1,250,282v44.26a35.05,35.05,0,0,1,12.73,3.89c0.95,0.47,1.86.92,2.63,1.33,1.15,0.61,3.32.71,6,.51a97.59,97.59,0,0,0,13.31-2.33l-17.12-43.22A11,11,0,0,0,265.27,284.93Zm-3,33.38,9.42-5.5a1,1,0,0,1,1,1.73l-9.42,5.5A1,1,0,1,1,262.31,318.31Z"/><path class="cls-6" d="M294.32,327.17s-4.32,1.26-9.68,2.51l-17.09-43.22a7.56,7.56,0,0,1,.69.71s14.25,4,26.19,11.89c15.63,10.27,27.29,27.07-2.18,49.86l-4.53-11.46A55.37,55.37,0,0,0,294.32,327.17Z"/><path class="cls-5" d="M266.65,338h-1.5a1.15,1.15,0,0,1-1.17-.9l-1.17-7c0.95,0.47,1.82.95,2.59,1.35,1.15,0.61,3.3.72,5.93,0.52l-3.17,5.22A1.88,1.88,0,0,1,266.65,338Z"/><path class="cls-4" d="M264,337.1a1.15,1.15,0,0,0,1.17.9h1.5a1.88,1.88,0,0,0,1.51-.77l3.17-5.26a97.29,97.29,0,0,0,13.31-2.3l3,7.78c-11.94,14.65-27.64,17.68-37.64,18v-29.2a35.06,35.06,0,0,1,12.73,3.84Z"/><path class="cls-4" d="M287.71,337.46l-3.07-7.77c5.35-1.25,9.68-2.51,9.68-2.51A55.37,55.37,0,0,1,287.71,337.46Z"/><path class="cls-7" d="M273.1,313.17a1,1,0,0,1-.36,1.37l-9.42,5.5a1,1,0,1,1-1-1.73l9.42-5.5A1,1,0,0,1,273.1,313.17Z"/><circle class="cls-7" cx="280.29" cy="278.17" r="1.44"/><path class="cls-2" d="M267.07,215.93H267a61,61,0,0,0-17-.72V140.95c4,1.74,7.39,3.6,10.6,5.3C262.22,175,267.07,215.93,267.07,215.93Z"/><path class="cls-8" d="M260.07,130.67c0,4.39.16,9.73,0.49,15.58-3.21-1.7-6.56-3.56-10.56-5.3V112.2C255,114.06,260.07,119,260.07,130.67Z"/><path class="cls-3" d="M163.75,465.94V465h5.63v1.88h1.88v1.88h1.88v5.63h-1.87v1.88h-1.87v1.88h-5.62v-1.87h-1.87v-1.87H160v-5.62h1.88v-1.87h1.88v-0.94Zm3.75,1.88v-0.94h-3.75v7.5h1.88v1.88h3.75v-7.5H167.5v-0.94Z"/><path class="cls-3" d="M175,466.88V465h13.13v3.75h-1.87v1.88h-1.87v1.88H182.5v5.63h-3.75V472.5h1.88v-1.87h1.88v-1.87h1.88v-1.87h-5.62v1.88H175v-1.87Z"/><path class="cls-3" d="M191.88,465.94V465h9.38v1.88h1.88v7.5h-1.87v1.88h-1.87v1.88h-7.5v-1.87h5.63v-1.87h1.88V472.5h-7.5v-1.87H190v-3.75h1.88v-0.94Zm7.5,2.81v-1.87h-5.62v3.75h5.63v-1.87Z"/><path class="cls-3" d="M221.88,465.94V465h7.5v1.88h1.88v1.88H227.5v-1.87h-3.75v3.75h7.5v1.88h1.88v3.75h-1.87v1.88h-9.37v-1.87H220v-1.87h3.75v1.88h5.63V472.5h-7.5v-1.87H220v-3.75h1.88v-0.94Z"/><path class="cls-3" d="M236.88,471.56V465h3.75v11.25h7.5v1.88H236.88v-6.56Z"/><path class="cls-3" d="M251.88,465.94V465h9.38v1.88h1.88v9.38h-1.87v1.88h-9.37v-1.87H250v-9.37h1.88v-0.94Zm7.5,5.63v-4.69h-5.62v9.38h5.63v-4.69Z"/><path class="cls-3" d="M265,471.56V465h3.75v5.63h1.88v-1.87h1.88v1.88h1.88V465h3.75v13.13h-3.75v-1.87H272.5v-1.87h-1.87v1.88h-1.87v1.88H265v-6.56Z"/><path class="cls-3" d="M280,471.56V465h11.25v1.88h1.88v5.63h-1.87v1.88h-7.5v3.75H280v-6.56Zm9.38-1.87v-2.81h-5.62v5.63h5.63v-2.81Z"/><path class="cls-3" d="M296.88,465.94V465h9.38v1.88h1.88v9.38h-1.87v1.88h-9.37v-1.87H295v-9.37h1.88v-0.94Zm7.5,5.63v-4.69h-5.62v9.38h5.63v-4.69Z"/><path class="cls-3" d="M310,471.56V465h3.75v5.63h1.88v-1.87h1.88v-1.87h1.88V465h3.75v1.88h-1.87v1.88h-1.87v1.88H317.5v1.88h1.88v1.88h1.88v1.88h1.88v1.88H317.5v-1.87h-1.87v-1.87h-1.87v3.75H310v-6.56Z"/><path class="cls-3" d="M325,471.56V465h13.13v1.88h-9.37v3.75h7.5v1.88h-7.5v3.75h9.38v1.88H325v-6.56Z"/></svg>