<?xml version="1.0" ?><svg id="pkft" viewBox="0 0 500 500" xmlns="http://www.w3.org/2000/svg"><defs><style>.cls-1{fill:#c1c1c1;}.cls-2{fill:#f9e0b4;}.cls-3{fill:#bbe0ec;}.cls-4{fill:#8da5ce;}.cls-5{fill:#fff;}.cls-6{fill:#734c44;}.cls-7{fill:#1d1d1b;}.cls-8{fill:#d84440;}.cls-9{fill:#e8b667;}.cls-10{fill:#abb1b2;}.cls-11{fill:#667e8e;}.cls-12{opacity:0.1;}</style></defs><title/><path class="cls-1" d="M184.83,283.38c0-23.46,8.53-44.43,18.5-61l-7-2a6.67,6.67,0,0,1-1.81-1c-10.91,17.29-17.47,39.62-17.47,64,0,51.82,29.7,94.36,67.76,98.92,2.07,0.25,3.16,4.39,5.16,4.41v-8.34C214,378,184.83,335.6,184.83,283.38Z"/><path class="cls-2" d="M235.11,346a1.5,1.5,0,0,1-1.25.14l-10.25-3.42a1.5,1.5,0,0,1,1-2.85l9.59,3.2L248,334.7V303.32a217.9,217.9,0,0,1-25.25,1.23c-18.73,0-36.52-1.42-36.78-1.44l-0.23,0C191.88,345,217.48,376.65,248,378.3V338.2Z"/><path class="cls-3" d="M210.06,135.92s-15.69-43.79-55.94-45.29l1.54,14.78a22.47,22.47,0,0,0,3.42,9l2.17,3.11c1.6,2.24,2.74,6.26,1.74,8.94h0c-1,2.68.43,6.56,2.26,8.61l13.39,15c1.83,2.05,2.6,5.31,1.71,7.24s-0.05,5.12,1.86,7.09l0.3,0.31c1.91,2,5.28,3.59,7.48,3.59a20,20,0,0,0,8.32-2.51l2.11-1.22a13.47,13.47,0,0,0,2.57-2c1.33-10.53,4.15-18.15,8.05-23.68C210.76,138,210.42,136.91,210.06,135.92Z"/><path class="cls-4" d="M241.69,125.71c-12.52.84-23.52,3.79-30.89,14.21-3.91,5.52-6.59,13.15-7.93,23.68a139.11,139.11,0,0,0-.56,24.28l-8,8.34c-1.77,2.1-4.32,6.07-4.32,8.82v9.33c0,2.11,2.12,4.57,4.06,6a8,8,0,0,0,2.06,1l4.65,1.52,11,4L246.9,239H250V125.38Z"/><path class="cls-5" d="M218.49,166a37.62,37.62,0,0,0-1.24,10.33c0,7.47,1.57,13.53,3.5,13.53s3.5-6.06,3.5-13.53c0-.32,0-0.63,0-0.95a4.58,4.58,0,0,0,.7-2.06l3.46,3.93c-0.2,9.69-3.54,17.41-7.65,17.41s-7.67-8.21-7.67-18.33a33.58,33.58,0,0,1,2.54-13.59Z"/><path class="cls-6" d="M222,171.73c-0.32-1.3-.77-2.12-1.27-2.12-1,0-1.75,3-1.75,6.77s0.78,6.77,1.75,6.77,1.75-3,1.75-6.77c0-.5,0-1,0-1.46a1.36,1.36,0,0,0,1,1,1,1,0,0,0,.74-0.48c0,0.31,0,.63,0,0.95,0,7.47-1.57,13.53-3.5,13.53s-3.5-6.06-3.5-13.53A37.62,37.62,0,0,1,218.49,166l3.78,4.29A6.79,6.79,0,0,0,222,171.73Z"/><path class="cls-7" d="M222.46,174.91c0,0.47,0,1,0,1.46,0,3.74-.78,6.77-1.75,6.77s-1.75-3-1.75-6.77,0.78-6.77,1.75-6.77c0.5,0,1,.82,1.27,2.12,0,0.2,0,.41,0,0.62A6.57,6.57,0,0,0,222.46,174.91Z"/><path class="cls-5" d="M224.93,173.36a4.58,4.58,0,0,1-.7,2.06c0-1-.07-2.06-0.15-3Z"/><path class="cls-5" d="M223.6,168.81h0.06v0.07Z"/><path class="cls-5" d="M223.5,175.91a1.36,1.36,0,0,1-1-1,18.07,18.07,0,0,0-.44-3.18,6.79,6.79,0,0,1,.25-1.39l1.82,2.07c0.08,1,.13,2,0.15,3A1,1,0,0,1,223.5,175.91Z"/><path class="cls-5" d="M222,172.35c0-.21,0-0.42,0-0.62a18.07,18.07,0,0,1,.44,3.18A6.57,6.57,0,0,1,222,172.35Z"/><path class="cls-8" d="M213.5,209.5a20.86,20.86,0,0,0,5.41.91l1.61,2.92a0.57,0.57,0,0,0,1.05.05l1.84-2.66c3.47,0.19,6.36.27,6.36,0.27A44.9,44.9,0,0,1,250,214.25v5.12s-5.44,3.13-23.06-1-20-12.87-20-12.87S211.38,208.38,213.5,209.5Z"/><path class="cls-5" d="M220.52,213.33l-1.61-2.92c1.45,0.13,3,.23,4.5.32l-1.84,2.66A0.57,0.57,0,0,1,220.52,213.33Z"/><path class="cls-2" d="M248,300.31V247.38a1.08,1.08,0,1,1,2,0V238h-3.1l-46-15.82a119.74,119.74,0,0,0-16.56,61.35,135.63,135.63,0,0,0,1,16.73,1.48,1.48,0,0,1,.85-0.16C186.6,300.14,224.93,303.21,248,300.31Z"/><path class="cls-9" d="M184.59,301.5a1.5,1.5,0,0,0,1.15,1.57q-0.2-1.38-.38-2.77A1.5,1.5,0,0,0,184.59,301.5Z"/><path class="cls-9" d="M250,303V247.38a1.08,1.08,0,1,0-2,0v52.93c-23.07,2.9-61.4-.15-61.79-0.18a1.49,1.49,0,0,0-.85.18q0.17,1.39.38,2.77l0.23,0c0.27,0,18.06,1.44,36.78,1.44A217.9,217.9,0,0,0,248,303.32V334.7l-13.85,8.37-9.59-3.2a1.5,1.5,0,0,0-1,2.85l10.25,3.42a1.5,1.5,0,0,0,1.25-.14L248,338.2v40.1c0.66,0,1.33.06,2,.07V303Z"/><path class="cls-4" d="M193.5,325.19S172,385,172,409h55a4,4,0,0,0,3.81-5.17s-6.56-26.64,11.19-35.89C242,367.94,227.5,329.94,193.5,325.19Z"/><path class="cls-10" d="M161.89,227.33l-9.64-5.81c-0.49-.29-0.79-0.08-0.67.47l2.19,10.17C156.18,229.33,159.07,227.6,161.89,227.33Z"/><path class="cls-10" d="M153.23,232.84a0.7,0.7,0,0,0-.49-0.19l-11.06-.15c-0.54,0-.67.35-0.29,0.79l7.47,8.85a26.34,26.34,0,0,1,.9-3A23.59,23.59,0,0,1,153.23,232.84Z"/><path class="cls-10" d="M148.64,243.14l-9.31,4.28c-0.47.22-.44,0.61,0.05,0.88l9.52,5.2A22.09,22.09,0,0,1,148.64,243.14Z"/><path class="cls-4" d="M212.89,266l2.21-11.84c-15.18-14.37-49-26.13-49-26.13a7.62,7.62,0,0,0-4.17-.73c-2.83.28-5.71,2-8.12,4.83-0.19.22-.37,0.45-0.55,0.69a23.59,23.59,0,0,0-3.47,6.31,26.34,26.34,0,0,0-.9,3c-0.08.33-.15,0.66-0.22,1a22.09,22.09,0,0,0,.26,10.36c0.93,3.18,2.7,5.68,5.19,6.91l31.57,17.23a11.55,11.55,0,0,0,8.83.63l13.18-5.6A10,10,0,0,0,212.89,266Z"/><polygon class="cls-11" points="210.8 225.17 245 247 250 247 250 237 245.9 237 210.8 225.17"/><path class="cls-1" d="M315.16,283.38c0-23.46-8.53-44.43-18.5-61l7-2a6.66,6.66,0,0,0,1.81-1c10.91,17.29,17.47,39.62,17.47,64,0,51.82-29.69,94.36-67.75,98.92-2.07.25-3.16,4.39-5.16,4.41v-8.34C286,378,315.16,335.6,315.16,283.38Z"/><path class="cls-2" d="M264.89,346a1.49,1.49,0,0,0,.77.22,1.51,1.51,0,0,0,.47-0.08l10.24-3.42a1.5,1.5,0,0,0-1-2.85l-9.58,3.2L252,334.7V303.32a212.4,212.4,0,0,0,25.25,1.23c18.73,0,36.51-1.42,36.78-1.44l0.23,0C308.11,345,283,376.65,252,378.3V338.2Z"/><path class="cls-3" d="M289.93,135.92s15.69-43.79,55.94-45.29l-1.54,14.78a22.47,22.47,0,0,1-3.42,9l-2.17,3.11c-1.6,2.24-2.73,6.26-1.73,8.94h0c1,2.68-.43,6.56-2.26,8.61l-13.39,15c-1.83,2.05-2.61,5.31-1.71,7.24s0.05,5.12-1.86,7.09l-0.31.31c-1.91,2-5.28,3.59-7.48,3.59a20,20,0,0,1-8.32-2.51l-2.11-1.22a13.47,13.47,0,0,1-2.57-2c-1.33-10.53-4.15-18.15-8.05-23.68C289.23,138,289.57,136.91,289.93,135.92Z"/><path class="cls-4" d="M258.31,125.71c12.52,0.84,23.52,3.79,30.89,14.21,3.91,5.52,6.59,13.15,7.93,23.68a139.11,139.11,0,0,1,.56,24.28l8,8.34c1.77,2.1,4.32,6.07,4.32,8.82v9.33c0,2.11-2.13,4.57-4.06,6a8,8,0,0,1-2.07,1l-4.65,1.52-11,4L253.09,239H250V125.38Z"/><path class="cls-5" d="M281.5,166a37.62,37.62,0,0,1,1.24,10.33c0,7.47-1.57,13.53-3.5,13.53s-3.5-6.06-3.5-13.53c0-.32,0-0.63,0-0.95a4.58,4.58,0,0,1-.7-2.06l-3.46,3.93c0.2,9.69,3.54,17.41,7.65,17.41s7.67-8.21,7.67-18.33a33.58,33.58,0,0,0-2.54-13.59Z"/><path class="cls-6" d="M278,171.73c0.32-1.3.77-2.12,1.27-2.12,1,0,1.75,3,1.75,6.77s-0.78,6.77-1.75,6.77-1.75-3-1.75-6.77c0-.5,0-1,0-1.46a1.36,1.36,0,0,1-1,1,1,1,0,0,1-.74-0.48c0,0.31,0,.63,0,0.95,0,7.47,1.57,13.53,3.5,13.53s3.5-6.06,3.5-13.53A37.62,37.62,0,0,0,281.5,166l-3.78,4.29A6.79,6.79,0,0,1,278,171.73Z"/><path class="cls-7" d="M277.53,174.91c0,0.47,0,1,0,1.46,0,3.74.78,6.77,1.75,6.77s1.75-3,1.75-6.77-0.78-6.77-1.75-6.77c-0.5,0-1,.82-1.27,2.12,0,0.2,0,.41,0,0.62A6.57,6.57,0,0,1,277.53,174.91Z"/><path class="cls-5" d="M275.06,173.36a4.58,4.58,0,0,0,.7,2.06c0-1,.07-2.06.15-3Z"/><path class="cls-5" d="M276.39,168.81h-0.06v0.07Z"/><path class="cls-5" d="M276.49,175.91a1.36,1.36,0,0,0,1-1,18.07,18.07,0,0,1,.44-3.18,6.79,6.79,0,0,0-.25-1.39l-1.82,2.07c-0.08,1-.13,2-0.15,3A1,1,0,0,0,276.49,175.91Z"/><path class="cls-5" d="M278,172.35c0-.21,0-0.42,0-0.62a18.07,18.07,0,0,0-.44,3.18A6.57,6.57,0,0,0,278,172.35Z"/><path class="cls-8" d="M286.49,209.5a20.86,20.86,0,0,1-5.41.91l-1.61,2.92a0.57,0.57,0,0,1-1.05.05l-1.84-2.66c-3.47.19-6.36,0.27-6.36,0.27A44.87,44.87,0,0,0,250,214.25v5.12s5.43,3.13,23.06-1,20-12.87,20-12.87S288.62,208.38,286.49,209.5Z"/><path class="cls-5" d="M279.47,213.33l1.61-2.92c-1.45.13-3,.23-4.5,0.32l1.84,2.66A0.57,0.57,0,0,0,279.47,213.33Z"/><path class="cls-2" d="M252,300.31V247.38a1.08,1.08,0,1,0-2,0V238h3.09l46-15.82a119.74,119.74,0,0,1,16.56,61.35,135.63,135.63,0,0,1-1,16.73,1.46,1.46,0,0,0-.84-0.16C313.4,300.14,275,303.21,252,300.31Z"/><path class="cls-9" d="M315.4,301.5a1.5,1.5,0,0,1-1.15,1.57q0.2-1.38.38-2.77A1.5,1.5,0,0,1,315.4,301.5Z"/><path class="cls-9" d="M250,303V247.38a1.08,1.08,0,1,1,2,0v52.93c23,2.9,61.4-.15,61.79-0.18a1.48,1.48,0,0,1,.84.18c-0.12.93-.24,1.85-0.38,2.77l-0.23,0c-0.27,0-18.05,1.44-36.78,1.44A212.41,212.41,0,0,1,252,303.32V334.7l13.84,8.37,9.59-3.2a1.5,1.5,0,1,1,.95,2.85l-10.25,3.42a1.52,1.52,0,0,1-.48.08,1.48,1.48,0,0,1-.77-0.22L252,338.2v40.1c-1,0-1,.06-2,0.07V303Z"/><path class="cls-4" d="M306.49,325.19S328,385,328,409H273a4,4,0,0,1-3.81-5.17s6.56-26.64-11.19-35.89C258,367.94,272.49,329.94,306.49,325.19Z"/><path class="cls-10" d="M338.1,227.33l9.64-5.81c0.49-.29.79-0.08,0.67,0.47l-2.19,10.17C343.81,229.33,340.92,227.6,338.1,227.33Z"/><path class="cls-10" d="M346.76,232.84a0.7,0.7,0,0,1,.49-0.19l11.06-.15c0.54,0,.67.35,0.29,0.79l-7.47,8.85a26.34,26.34,0,0,0-.9-3A23.59,23.59,0,0,0,346.76,232.84Z"/><path class="cls-10" d="M351.35,243.14l9.31,4.28c0.47,0.22.44,0.61-.05,0.88l-9.52,5.2A22.09,22.09,0,0,0,351.35,243.14Z"/><path class="cls-4" d="M287.1,266l-2.21-11.84c15.18-14.37,49-26.13,49-26.13a7.62,7.62,0,0,1,4.17-.73c2.83,0.28,5.71,2,8.12,4.83,0.19,0.22.37,0.45,0.55,0.69a23.59,23.59,0,0,1,3.47,6.31,26.34,26.34,0,0,1,.9,3c0.08,0.33.15,0.66,0.22,1a22.09,22.09,0,0,1-.26,10.36c-0.93,3.18-2.7,5.68-5.19,6.91l-31.57,17.23a11.55,11.55,0,0,1-8.83.63l-13.18-5.6A10,10,0,0,1,287.1,266Z"/><polygon class="cls-11" points="289.19 225.17 254.99 247 250 247 250 237 254.09 237 289.19 225.17"/><g class="cls-12"><path class="cls-7" d="M299.56,164.64l2.11,1.22a20,20,0,0,0,8.32,2.51c2.2,0,5.57-1.62,7.48-3.59l0.31-.31c1.91-2,2.75-5.17,1.86-7.09s-0.11-5.18,1.71-7.24l13.39-15c1.83-2.05,3.26-5.93,2.26-8.61h0c-1-2.68.13-6.7,1.73-8.94l2.17-3.11a22.48,22.48,0,0,0,3.42-9l1.54-14.78c-40.25,1.5-55.94,45.29-55.94,45.29-0.36,1-.7,2-1,3,3.91,5.52,6.72,13.15,8.05,23.68A13.47,13.47,0,0,0,299.56,164.64Z"/><path class="cls-7" d="M360.66,247.42l-9.31-4.28c-0.07-.33-0.14-0.66-0.22-1l7.47-8.85c0.37-.44.24-0.8-0.29-0.79l-11.06.15a0.7,0.7,0,0,0-.49.19c-0.18-.23-0.36-0.47-0.55-0.69L348.41,222c0.12-.55-0.18-0.76-0.67-0.47l-9.64,5.81a7.62,7.62,0,0,0-4.17.73s-9.06,3.15-19.91,8.17a106.36,106.36,0,0,0-8-15.91c1.91-1.43,4-3.86,4-5.94V205c0-2.75-2.55-6.72-4.32-8.82l-8-8.34a139.11,139.11,0,0,0-.56-24.28c-1.33-10.53-4-18.15-7.93-23.68-7.37-10.42-18.37-13.37-30.89-14.21l-8.31-.33V386.71c2,0,3.08-4.16,5.16-4.41a58,58,0,0,0,12.79-3.07c4.59,11.15,1.24,24.6,1.24,24.6A4,4,0,0,0,273,409h55c0-17-11-52.52-17.25-71.4a123.27,123.27,0,0,0,12.17-54.32c0-3.44-.14-6.79-0.4-10.15l23.39-12.75c2.49-1.23,4.26-3.72,5.19-6.9l9.52-5.19C361.11,248,361.13,247.64,360.66,247.42ZM266.3,346a2.68,2.68,0,0,1-.64,0h0a2.68,2.68,0,0,0,.64,0l7.7-2.37v0Zm9.13-6.16L266.09,343l9.34-3.12a1.5,1.5,0,0,1,.59-0.07A1.5,1.5,0,0,0,275.43,339.87Zm1.82-35.31h0c-7.14,0-14.72-.21-21.07-0.78C262.52,304.34,270.1,304.55,277.25,304.55Zm-11.4,38.51h0L252,334.7Zm-1,2.93h0L252,338.2Zm26-41.66c11.76-.36,21.14-1.06,22.88-1.19h0C312,303.27,302.61,304,290.86,304.33Zm-39.62,74,0.76,0Zm0.77,0c0.9,0,1.79-.13,2.67-0.22Q253.35,378.22,252,378.3Zm3-.25c0.7-.08,1.38-0.19,2.07-0.3C256.36,377.86,255.67,378,255,378Z"/></g><path class="cls-4" d="M156.25,465.94V465h5.63v1.88h1.88v1.88h1.88v5.63h-1.87v1.88h-1.87v1.88h-5.62v-1.87h-1.87v-1.87H152.5v-5.62h1.88v-1.87h1.88v-0.94Zm3.75,1.88v-0.94h-3.75v7.5h1.88v1.88h3.75v-7.5H160v-0.94Z"/><path class="cls-4" d="M171.25,465.94V465h5.63v1.88h1.88v1.88h1.88v5.63h-1.87v1.88h-1.87v1.88h-5.62v-1.87h-1.87v-1.87H167.5v-5.62h1.88v-1.87h1.88v-0.94Zm3.75,1.88v-0.94h-3.75v7.5h1.88v1.88h3.75v-7.5H175v-0.94Z"/><path class="cls-4" d="M184.38,465.94V465h7.5v1.88h1.88v3.75h-1.87v1.88h3.75v3.75h-1.87v1.88h-9.37v-1.87H182.5V472.5h1.88v-1.87H182.5v-3.75h1.88v-0.94Zm3.75,7.5V472.5h-3.75v3.75h7.5v-1.87h-3.75v-0.94Zm3.75-4.69v-1.87h-5.62v1.88h1.88v1.88h3.75v-1.87Z"/><path class="cls-4" d="M212.5,471.56V465h3.75v5.63h1.88v-1.87H220v1.88h1.88V465h3.75v13.13h-3.75v-1.87H220v-1.87h-1.87v1.88h-1.87v1.88H212.5v-6.56Z"/><path class="cls-4" d="M231.25,465.94V465h5.63v1.88h1.88v1.88h1.88v9.38h-3.75v-3.75h-5.62v3.75H227.5v-9.37h1.88v-1.87h1.88v-0.94Zm3.75,1.88v-0.94h-1.87v1.88h-1.87v3.75h5.63v-3.75H235v-0.94Z"/><path class="cls-4" d="M242.5,471.56V465h11.25v1.88h1.88v5.63h-3.75v1.88h1.88v1.88h1.88v1.88H250v-1.87h-1.87v-1.87h-1.87v3.75H242.5v-6.56Zm9.38-2.81v-1.87h-5.62v5.63H250v-1.87h1.88v-1.87Z"/><path class="cls-4" d="M259.38,465.94V465h11.25v1.88h-3.75v11.25h-3.75V466.88h-3.75v-0.94Z"/><path class="cls-4" d="M274.38,465.94V465h9.38v1.88h1.88v9.38h-1.87v1.88h-9.37v-1.87H272.5v-9.37h1.88v-0.94Zm7.5,5.63v-4.69h-5.62v9.38h5.63v-4.69Z"/><path class="cls-4" d="M287.5,471.56V465h11.25v1.88h1.88v5.63h-3.75v1.88h1.88v1.88h1.88v1.88H295v-1.87h-1.87v-1.87h-1.87v3.75H287.5v-6.56Zm9.38-2.81v-1.87h-5.62v5.63H295v-1.87h1.88v-1.87Z"/><path class="cls-4" d="M304.38,465.94V465h11.25v1.88h-3.75v11.25h-3.75V466.88h-3.75v-0.94Z"/><path class="cls-4" d="M319.38,471.56V465h3.75v11.25h7.5v1.88H319.38v-6.56Z"/><path class="cls-4" d="M332.5,471.56V465h13.13v1.88h-9.37v3.75h7.5v1.88h-7.5v3.75h9.38v1.88H332.5v-6.56Z"/></svg>