<?xml version="1.0" ?><svg id="pkft" viewBox="0 0 500 500" xmlns="http://www.w3.org/2000/svg"><defs><style>.cls-1{fill:none;}.cls-2{fill:#fff;}.cls-3{fill:#f1dfb9;}.cls-4{fill:#de8081;}.cls-5{fill:#1a1a1a;}.cls-6{fill:#96b2a8;}.cls-7{fill:#a6bcb5;}.cls-8{fill:#acc6bf;}.cls-9{fill:#eb8c8b;}.cls-10{fill:#ccc;}.cls-11{fill:#e88282;}.cls-12{fill:#ead4ad;}.cls-13{opacity:0.1;}</style></defs><title/><path class="cls-1" d="M214.33,253.07l-0.2-.21Z"/><path class="cls-1" d="M211.44,249.53l-0.23-.33Z"/><path class="cls-1" d="M209.1,245.72l-0.23-.43Z"/><path class="cls-1" d="M217.84,256.3l-0.17-.14Z"/><path class="cls-1" d="M210.08,247.46l0,0Z"/><path class="cls-1" d="M226.28,261.25l-1.35-.45a2.43,2.43,0,0,1,.17.26l1.18,0.39c6.17,2.57,13.94,3.77,23.72,3.42C240.23,265.22,232.46,263.82,226.28,261.25Z"/><polygon class="cls-1" points="219.73 257.71 219.73 257.71 219.73 257.71 219.73 257.71"/><path class="cls-2" d="M228.06,186.36c0-9.45-5.89-17.11-13.17-17.11s-13.16,7.66-13.16,17.11c0,7.48,3.7,13.82,8.84,16.15C216.16,199.25,224.83,196.36,228.06,186.36Zm-9.65-6.72a1.4,1.4,0,1,1,1.4-1.4A1.4,1.4,0,0,1,218.4,179.65Z"/><path class="cls-3" d="M250,264.87a79,79,0,0,1-23.72-3.62C232.46,263.82,240.23,265.22,250,264.87Z"/><path class="cls-3" d="M228.06,186.36c-3.22,10-11.9,12.88-17.49,16.15-2,1.18-3.64,2.41-4.45,4-1.57,3.14-5.06,21.61,1.88,37L250,258v-1.54c-7.61-1.28-20.35-6.73-32.91-27.12,0,0,1,.31,2.72.8l5.73,1.52A189.67,189.67,0,0,0,250,236.17V176.76C241.3,176.83,230.57,178.57,228.06,186.36Zm8.7,28.47a0.88,0.88,0,0,1,1.23.2l2.85,3.95a0.88,0.88,0,1,1-1.42,1l-2.85-3.95A0.88,0.88,0,0,1,236.76,214.83Z"/><path class="cls-3" d="M208.87,245.28l0.23,0.43c0.31,0.58.63,1.15,1,1.72l0,0c0.36,0.59.74,1.17,1.13,1.74l0.23,0.33a33.33,33.33,0,0,0,2.69,3.33l0.2,0.21a32.64,32.64,0,0,0,3.33,3.09l0.17,0.14c0.61,0.48,1.24,1,1.89,1.41h0l4.39,2.38a2.45,2.45,0,0,1,.61.48c0.51,0.24,1,.47,1.56.69A79,79,0,0,0,250,264.87V258L208,243.5C208.27,244.1,208.57,244.69,208.87,245.28Z"/><path class="cls-4" d="M225.57,231.69l-0.83,2.07a1,1,0,0,1-1.17.58l-1.78-.49a1.85,1.85,0,0,1-1.12-1.07l-0.87-2.62c-1.74-.49-2.72-0.8-2.72-0.8,12.56,20.38,25.3,25.84,32.91,27.12V236.17a189.67,189.67,0,0,1-24.46-4.49h0Z"/><path class="cls-2" d="M219.81,230.16c1.43,0.4,3.39.93,5.73,1.52Z"/><path class="cls-2" d="M221.8,233.85l1.78,0.49a1,1,0,0,0,1.17-.58l0.83-2.07h0c-2.34-.58-4.3-1.11-5.73-1.52l0.87,2.62A1.85,1.85,0,0,0,221.8,233.85Z"/><path class="cls-5" d="M239.42,220a0.88,0.88,0,0,0,1.42-1L238,215a0.88,0.88,0,1,0-1.42,1Z"/><circle class="cls-5" cx="218.4" cy="178.24" r="1.4"/><path class="cls-6" d="M230,87h20V60.49C240.95,66,230,87,230,87Z"/><path class="cls-7" d="M230,87H217.09c-1.89,0-2.25,7.44-2.27,12.76,10-.93,23.84-1.85,35.18-2.34V87H230Z"/><path class="cls-8" d="M201.73,101.85c-1.44,1.9,1.75,12.53,4.29,20.09,0.34,0.5.67,1,1,1.55a85.72,85.72,0,0,1,43-11.14V97.43c-11.35.49-25.21,1.25-35.18,2.18C207.54,100.28,202.34,101,201.73,101.85Z"/><path class="cls-9" d="M206,121.94a21.06,21.06,0,1,0-27,30.52,69.48,69.48,0,0,0-4.37,10.43c10.08,22.82,16.15,75.64,16.15,75.64s-11.44,70.49-12.1,75.15-1.79,3-1.79,3l-0.18,0c-0.37,5.22-.64,10.51-0.75,15.83,20.06,3.73,48,8,74.06,9V264.87c-9.77.35-17.54-.85-23.72-3.42l-1.18-.39a2.43,2.43,0,0,0-.17-0.26l1.35,0.45a36,36,0,0,1-6.55-3.55h0c-0.66-.45-1.29-0.92-1.89-1.41l-0.17-.14a32.64,32.64,0,0,1-3.33-3.09l-0.2-.21a33.33,33.33,0,0,1-2.69-3.33l-0.23-.33c-0.39-.57-0.77-1.15-1.13-1.74l0,0c-0.34-.57-0.66-1.14-1-1.72l-0.23-.43c-0.3-.59-0.6-1.18-0.87-1.78-6.95-15.34-3.45-33.81-1.88-37,0.81-1.63,2.44-2.86,4.45-4-5.14-2.33-8.84-8.67-8.84-16.15,0-9.45,5.89-17.11,13.16-17.11s13.17,7.66,13.17,17.11c2.51-7.8,13.24-9.54,21.94-9.6V112.35a85.72,85.72,0,0,0-43,11.14C206.69,123,206.36,122.44,206,121.94Z"/><path class="cls-9" d="M219.73,257.71c-0.66-.45-1.29-0.92-1.89-1.41C218.44,256.78,219.07,257.26,219.73,257.71Z"/><path class="cls-9" d="M214.14,252.86a33.33,33.33,0,0,1-2.69-3.33A33.33,33.33,0,0,0,214.14,252.86Z"/><path class="cls-9" d="M224.12,260.08l-4.39-2.38a36,36,0,0,0,6.55,3.55c-0.53-.22-1-0.45-1.56-0.69A2.45,2.45,0,0,0,224.12,260.08Z"/><path class="cls-9" d="M208.87,245.28c-0.3-.59-0.6-1.18-0.87-1.78C208.27,244.1,208.57,244.69,208.87,245.28Z"/><path class="cls-9" d="M214.33,253.07a32.64,32.64,0,0,0,3.33,3.09A32.64,32.64,0,0,1,214.33,253.07Z"/><path class="cls-9" d="M210.07,247.44c-0.34-.57-0.66-1.14-1-1.72C209.41,246.3,209.73,246.87,210.07,247.44Z"/><path class="cls-9" d="M211.22,249.2c-0.39-.57-0.77-1.15-1.13-1.74C210.44,248.05,210.82,248.63,211.22,249.2Z"/><path class="cls-3" d="M175.9,335.06C187.81,350.49,210.36,362,250,364.2V341.48c-26-1-54-5.27-74.06-9Q175.91,333.77,175.9,335.06Z"/><path class="cls-10" d="M111,439.51l28.35-3.42h0c-6.77-1.22-12.77-3.11-17.34-5.89Z"/><path class="cls-10" d="M115.77,420.24l-9.27,8.62,12.41-.9A8.56,8.56,0,0,1,115.77,420.24Z"/><path class="cls-11" d="M183.39,392.39q-0.58-1.68-1.1-3.4a129.46,129.46,0,0,1-3.6-15.15c-8.92,4.14-60.76,28.89-62.92,46.4a8.56,8.56,0,0,0,3.15,7.72c0.34,0.3.69,0.6,1.09,0.9,0.63,0.47,1.31.91,2,1.34,4.58,2.78,10.57,4.67,17.34,5.89,31.58,5.68,80-3.14,80-3.14a54.65,54.65,0,0,1-8.61-4.08C197.42,421,188.74,408,183.39,392.39Z"/><path class="cls-3" d="M250,411.2v-0.86a183.74,183.74,0,0,1-33.26-4A169.17,169.17,0,0,0,250,411.2Z"/><path class="cls-3" d="M210.79,428.86a54.65,54.65,0,0,0,8.61,4.08c8.32,3.11,18.11,4.56,29.6,3.94l1-2.1v-0.44a185.83,185.83,0,0,1-32.16-3.76Q214.17,429.79,210.79,428.86Z"/><path class="cls-12" d="M175.9,335.06a236.19,236.19,0,0,0,.86,24.08C188.88,374,211.29,385,250,387.2v-23C210.36,362,187.81,350.49,175.9,335.06Z"/><path class="cls-3" d="M176.75,359.14q0.24,2.64.54,5.25,0.57,4.8,1.39,9.46a129.46,129.46,0,0,0,3.6,15.15A66,66,0,0,0,197,399a98,98,0,0,0,19.73,7.32,183.74,183.74,0,0,0,33.26,4V387.2C211.29,385,188.88,374,176.75,359.14Z"/><path class="cls-12" d="M197,399a66,66,0,0,1-14.73-10q0.53,1.72,1.1,3.4c5.36,15.62,14,28.61,27.4,36.47q3.38,0.93,7.05,1.72A185.83,185.83,0,0,0,250,434.34V411.2a169.17,169.17,0,0,1-33.26-4.86A98,98,0,0,1,197,399Z"/><path class="cls-10" d="M166,147.68v4.94a5.72,5.72,0,0,1,2.79,1.33Z"/><path class="cls-10" d="M163.31,153.25l-5.19-9.05,0.71,16.13C160.26,156.76,161.77,154.31,163.31,153.25Z"/><path class="cls-10" d="M151.25,156.74l4.49,13.52c0.66-2.65,1.36-5.06,2.08-7.19Z"/><path class="cls-11" d="M174.62,162.89c-1.82-4.11-3.76-7.26-5.83-8.94a5.72,5.72,0,0,0-2.79-1.33,4.23,4.23,0,0,0-1.5.06,3.44,3.44,0,0,0-1.19.57c-1.55,1.07-3.06,3.51-4.48,7.07-0.34.85-.68,1.78-1,2.75-0.72,2.13-1.42,4.54-2.08,7.19-10.46,41.8-12.7,143.64,21,146.4l0.18,0s1.13,1.67,1.79-3,12.1-75.15,12.1-75.15S184.7,185.71,174.62,162.89Z"/><path class="cls-1" d="M286.17,253.07l0.2-.21Z"/><path class="cls-1" d="M289.06,249.53l0.23-.33Z"/><path class="cls-1" d="M291.4,245.72l0.23-.43Z"/><path class="cls-1" d="M282.66,256.3l0.17-.14Z"/><path class="cls-1" d="M290.42,247.46l0,0Z"/><path class="cls-1" d="M274.22,261.25l1.35-.45a2.43,2.43,0,0,0-.17.26l-1.18.39c-6.17,2.57-13.94,3.77-23.72,3.42C260.27,265.22,268,263.82,274.22,261.25Z"/><polygon class="cls-1" points="280.77 257.71 280.77 257.71 280.77 257.71 280.77 257.71"/><path class="cls-2" d="M289.93,202.51c5.14-2.33,8.84-8.67,8.84-16.15,0-9.45-5.89-17.11-13.16-17.11s-13.17,7.66-13.17,17.11C275.67,196.36,284.34,199.25,289.93,202.51Zm-9.24-24.27a1.4,1.4,0,1,1,1.4,1.4A1.4,1.4,0,0,1,280.69,178.24Z"/><path class="cls-3" d="M250.5,264.87a79,79,0,0,0,23.72-3.62C268,263.82,260.27,265.22,250.5,264.87Z"/><path class="cls-3" d="M250,176.76v59.41a175.43,175.43,0,0,0,24.71-4.49l5.86-1.52c1.74-.49,2.53-0.8,2.53-0.8-12.56,20.38-25.1,25.84-33.1,27.12V258l42.25-14.52c6.95-15.34,3.58-33.81,2-37a10.51,10.51,0,0,0-4.39-4c-5.59-3.27-14.48-6.15-17.71-16.15C269.65,178.57,259,176.83,250,176.76Zm13.94,39.3L261.08,220a0.88,0.88,0,0,1-1.42-1l2.85-3.95A0.88,0.88,0,1,1,263.94,216.06Z"/><path class="cls-3" d="M291.63,245.28l-0.23.43c-0.31.58-.63,1.15-1,1.72l0,0c-0.36.59-.74,1.17-1.13,1.74l-0.23.33a33.33,33.33,0,0,1-2.69,3.33l-0.2.21a32.64,32.64,0,0,1-3.33,3.09l-0.17.14c-0.61.48-1.24,1-1.89,1.41h0l-4.39,2.38a2.45,2.45,0,0,0-.61.48c-0.51.24-1.27,0.47-1.81,0.69a77.16,77.16,0,0,1-24,3.62V258l42.25-14.52C292,244.1,291.93,244.69,291.63,245.28Z"/><path class="cls-4" d="M274.93,231.69l0.83,2.07a1,1,0,0,0,1.17.58l1.78-.49a1.85,1.85,0,0,0,1.12-1.07l0.87-2.62a24,24,0,0,0,2.47-.8C270.6,249.75,258,255.21,250,256.48V236.17a175.43,175.43,0,0,0,24.71-4.49h0.22Z"/><path class="cls-2" d="M280.69,230.16c-1.43.4-3.39,0.93-5.73,1.52Z"/><path class="cls-2" d="M278.7,233.85l-1.78.49a1,1,0,0,1-1.17-.58l-0.83-2.07h0c2.34-.58,4.3-1.11,5.73-1.52l-0.87,2.62A1.85,1.85,0,0,1,278.7,233.85Z"/><path class="cls-5" d="M261.08,220a0.88,0.88,0,0,1-1.42-1l2.85-3.95a0.88,0.88,0,1,1,1.42,1Z"/><circle class="cls-5" cx="282.1" cy="178.24" r="1.4"/><path class="cls-6" d="M270.5,87H250V60.49C260,66,270.5,87,270.5,87Z"/><path class="cls-7" d="M270.5,87h12.91c1.89,0,2,7.44,2,12.76-10-.93-23.43-1.85-35.43-2.34V87h20.5Z"/><path class="cls-8" d="M298.77,101.85c1.44,1.9-1.75,12.53-4.29,20.09-0.34.5-.92,1-1.21,1.55A86.3,86.3,0,0,0,250,112.35V97.43c12,0.49,25.46,1.25,35.43,2.18C292.71,100.28,298.16,101,298.77,101.85Z"/><path class="cls-9" d="M294.48,121.94a21.06,21.06,0,1,1,27,30.52,69.48,69.48,0,0,1,4.37,10.43c-10.08,22.82-16.15,75.64-16.15,75.64s11.44,70.49,12.1,75.15,1.79,3,1.79,3l0.18,0c0.37,5.22.39,10.51,0.5,15.83-20.06,3.73-47.31,8-74.31,9V264.87c10,0.35,17.79-.85,24-3.42,0.4-.12.91-0.26,1.31-0.39a3.14,3.14,0,0,1,.23-0.26c-0.45.15-.87,0.45-1.32,0.6,2.43-1,4.62-2.4,6.57-3.4h0c0.66,0,1.29-1.07,1.9-1.55,0.06,0,.12-0.17.18-0.21a33,33,0,0,0,3.33-3.13l0.2-.23a33.43,33.43,0,0,0,2.69-3.34l0.23-.33c0.39-.57.77-1.15,1.13-1.74l0,0c0.34-.57.66-1.14,1-1.72l0.23-.43c0.3-.59.6-1.18,0.87-1.78,6.95-15.34,3.45-33.82,1.88-37-0.81-1.63-2.44-2.86-4.45-4,5.14-2.33,8.84-8.67,8.84-16.15,0-9.45-5.89-17.11-13.16-17.11s-13.42,7.66-13.42,17.11c-2.51-7.8-13.19-9.54-22.19-9.6V112.35a86.3,86.3,0,0,1,43.26,11.14C293.56,123,294.14,122.44,294.48,121.94Z"/><path class="cls-9" d="M280.77,257.71c0.66-.45,1.29-0.92,1.89-1.41C282.06,256.78,281.43,257.26,280.77,257.71Z"/><path class="cls-9" d="M286.36,252.86a33.33,33.33,0,0,0,2.69-3.33A33.33,33.33,0,0,1,286.36,252.86Z"/><path class="cls-9" d="M276.38,260.08l4.39-2.38a36,36,0,0,1-6.55,3.55c0.53-.22,1-0.45,1.56-0.69A2.45,2.45,0,0,1,276.38,260.08Z"/><path class="cls-9" d="M291.63,245.28c0.3-.59.6-1.18,0.87-1.78C292.23,244.1,291.93,244.69,291.63,245.28Z"/><path class="cls-9" d="M286.17,253.07a32.64,32.64,0,0,1-3.33,3.09A32.64,32.64,0,0,0,286.17,253.07Z"/><path class="cls-9" d="M290.43,247.44c0.34-.57.66-1.14,1-1.72C291.09,246.3,290.77,246.87,290.43,247.44Z"/><path class="cls-9" d="M289.28,249.2c0.39-.57.77-1.15,1.13-1.74C290.06,248.05,289.68,248.63,289.28,249.2Z"/><path class="cls-3" d="M324.35,335.06C312.44,350.49,290,362,250,364.2V341.48c27-1,54.13-5.27,74.18-9C324.2,333.34,324.34,334.2,324.35,335.06Z"/><path class="cls-10" d="M389.5,439.51l-28.35-3.42h0c6.77-1.22,12.77-3.11,17.34-5.89Z"/><path class="cls-10" d="M384.73,420.24l9.27,8.62-12.41-.9A8.56,8.56,0,0,0,384.73,420.24Z"/><path class="cls-11" d="M317.11,392.39q0.58-1.68,1.1-3.4a129.46,129.46,0,0,0,3.6-15.15c8.92,4.14,60.76,28.89,62.92,46.4a8.56,8.56,0,0,1-3.15,7.72c-0.34.3-.69,0.6-1.09,0.9-0.63.47-1.31,0.91-2,1.34-4.58,2.78-10.57,4.67-17.34,5.89-31.58,5.68-80-3.14-80-3.14a54.65,54.65,0,0,0,8.61-4.08C303.08,421,311.76,408,317.11,392.39Z"/><path class="cls-3" d="M250,411.2v-0.86a180.29,180.29,0,0,0,33.26-4A166.81,166.81,0,0,1,250,411.2Z"/><path class="cls-3" d="M289.71,428.86a54.65,54.65,0,0,1-8.61,4.08c-8.32,3.11-18.36,4.56-29.85,3.94l-1.25-2.1v-0.44a179.75,179.75,0,0,0,32.41-3.76C284.85,430.05,287.46,429.48,289.71,428.86Z"/><path class="cls-12" d="M324.35,335.06a236.07,236.07,0,0,1-1,24.08C311.25,374,289,385,250,387.2v-23C290,362,312.44,350.49,324.35,335.06Z"/><path class="cls-3" d="M323.5,359.14c-0.16,1.76-.21,3.51-0.42,5.25-0.38,3.2-.78,6.35-1.33,9.46A129.44,129.44,0,0,1,318.18,389a65.93,65.93,0,0,1-14.71,10,100.47,100.47,0,0,1-20,7.32,183.14,183.14,0,0,1-33.5,4V387.2C289,385,311.38,374,323.5,359.14Z"/><path class="cls-12" d="M303.48,399a66,66,0,0,0,14.73-10q-0.53,1.72-1.1,3.4c-5.36,15.62-14,28.61-27.4,36.47-2.26.62-4.86,1.19-7.3,1.72A179.75,179.75,0,0,1,250,434.34V411.2a169.54,169.54,0,0,0,33.51-4.86A100.55,100.55,0,0,0,303.48,399Z"/><path class="cls-10" d="M334,147.68v4.94a19.13,19.13,0,0,0-2.79,1.33Z"/><path class="cls-10" d="M337.19,153.25l5.19-9.05-0.71,16.13C340.24,156.76,338.73,154.31,337.19,153.25Z"/><path class="cls-10" d="M349.25,156.74l-4.49,13.52c-0.66-2.65-1.36-5.06-2.08-7.19Z"/><path class="cls-11" d="M325.88,162.89c1.82-4.11,3.76-7.26,5.83-8.94a5.72,5.72,0,0,1,2.79-1.33,4.23,4.23,0,0,1,1.5.06,3.44,3.44,0,0,1,1.19.57c1.55,1.07,3.06,3.51,4.48,7.07,0.34,0.85.68,1.78,1,2.75,0.72,2.13,1.42,4.54,2.08,7.19,10.46,41.8,12.7,143.64-21,146.4l-0.18,0s-1.13,1.67-1.79-3-12.1-75.15-12.1-75.15S315.8,185.71,325.88,162.89Z"/><g class="cls-13"><path class="cls-5" d="M380.5,428.86c0.39-.29.75-0.59,1.09-0.9l12.41,0.9-9.27-8.62c-2.17-17.51-54-42.26-62.92-46.4a129.46,129.46,0,0,1-3.6,15.15,66,66,0,0,1-14.73,10,100.55,100.55,0,0,1-20,7.32A169.54,169.54,0,0,1,250,411.2v23.58l1.25,2.1c11.49,0.63,21.53-.83,29.85-3.94,0,0,48.46,8.83,80,3.14h0l28.35,3.42-11-9.32C379.19,429.77,379.87,429.33,380.5,428.86Z"/><path class="cls-5" d="M323.37,359.14a236.07,236.07,0,0,0,1-24.08c0-.85-0.15-1.7-0.17-2.55l0.12,0c-0.12-5.32-.13-10.61-0.5-15.83,33.66-2.76,31.42-104.6,21-146.4l4.49-13.52-6.57,6.33c-0.33-1-.67-1.9-1-2.75l0.71-16.13-5.19,9.05a3.44,3.44,0,0,0-1.19-.57,4.23,4.23,0,0,0-1.5-.06,5.72,5.72,0,0,0-2.79,1.33c-2.07,1.68-4,4.82-5.83,8.94a69.48,69.48,0,0,0-4.37-10.43,21.06,21.06,0,1,0-27-30.52c2.54-7.56,5.73-18.19,4.29-20.09-0.61-.8-6.06-1.41-13.34-2.08,0-5.32-.13-12.76-2-12.76H270.5S260,66,250,60.49V176.76c9,0.07,19.68,1.81,22.19,9.6,0-9.45,6.14-17.11,13.42-17.11-7.27,0-13.17,7.66-13.17,17.11,3.22,10,11.9,12.88,17.49,16.15,2,1.18,3.64,2.41,4.45,4,1.57,3.14,5.06,21.61-1.88,37-0.27.6-.57,1.19-0.87,1.78,0.3-.59.35-1.18,0.62-1.78,6.95-15.34,3.58-33.81,2-37a10.51,10.51,0,0,0-4.39-4c-5.59-3.27-14.48-6.15-17.71-16.15-2.51-7.8-13.16-9.54-22.16-9.6v88.11a77.16,77.16,0,0,0,24-3.62c0.26-.11.58-0.22,0.89-0.33-0.23.1-.44,0.22-0.67,0.32l0.23-.07-0.2.09,0.2-.09,1.09-.36,0,0-1.26.42a79,79,0,0,1-23.72,3.62c1.13,0,2.24.06,3.32,0.05-1.24,0-2.51,0-3.82-.05V387.2C289,385,311.25,374,323.37,359.14Zm-42.81-129c1.74-.49,2.53-0.8,2.53-0.8l0,0c-0.22.09-1,.36-2.39,0.76L275,231.68h-0.25Zm2,26.24a4.07,4.07,0,0,1-1.71,1.27C281.41,257.26,282,256.84,282.53,256.4Z"/><path class="cls-5" d="M283.5,406.34a100.47,100.47,0,0,0,20-7.32,65.93,65.93,0,0,0,14.71-10,129.44,129.44,0,0,0,3.57-15.15c0.55-3.1,1-6.26,1.33-9.46,0.21-1.74.26-3.49,0.42-5.25C311.38,374,289,385,250,387.2v24a168.91,168.91,0,0,0,31.84-4.51Z"/><path class="cls-5" d="M334,152.62v-4.94L331.21,154A19.13,19.13,0,0,1,334,152.62Z"/></g><path class="cls-11" d="M171.25,465.94V465h5.63v1.88h1.88v1.88h1.88v5.63h-1.87v1.88h-1.87v1.88h-5.62v-1.87h-1.87v-1.87H167.5v-5.62h1.88v-1.87h1.88v-0.94Zm3.75,1.88v-0.94h-3.75v7.5h1.88v1.88h3.75v-7.5H175v-0.94Z"/><path class="cls-11" d="M184.38,465.94V465h7.5v1.88h1.88v3.75h-1.87v1.88h3.75v3.75h-1.87v1.88h-9.37v-1.87H182.5V472.5h1.88v-1.87H182.5v-3.75h1.88v-0.94Zm3.75,7.5V472.5h-3.75v3.75h7.5v-1.87h-3.75v-0.94Zm3.75-4.69v-1.87h-5.62v1.88h1.88v1.88h3.75v-1.87Z"/><path class="cls-11" d="M201.25,465.94V465h5.63v1.88h1.88v1.88h1.88v5.63h-1.87v1.88h-1.87v1.88h-5.62v-1.87h-1.87v-1.87H197.5v-5.62h1.88v-1.87h1.88v-0.94Zm3.75,1.88v-0.94h-3.75v7.5h1.88v1.88h3.75v-7.5H205v-0.94Z"/><path class="cls-11" d="M229.38,465.94V465h7.5v1.88h1.88v1.88H235v-1.87h-3.75v3.75h7.5v1.88h1.88v3.75h-1.87v1.88h-9.37v-1.87H227.5v-1.87h3.75v1.88h5.63V472.5h-7.5v-1.87H227.5v-3.75h1.88v-0.94Z"/><path class="cls-11" d="M244.38,471.56V465h3.75v11.25h7.5v1.88H244.38v-6.56Z"/><path class="cls-11" d="M259.38,465.94V465h9.38v1.88h1.88v9.38h-1.87v1.88h-9.37v-1.87H257.5v-9.37h1.88v-0.94Zm7.5,5.63v-4.69h-5.62v9.38h5.63v-4.69Z"/><path class="cls-11" d="M272.5,471.56V465h3.75v5.63h1.88v-1.87H280v1.88h1.88V465h3.75v13.13h-3.75v-1.87H280v-1.87h-1.87v1.88h-1.87v1.88H272.5v-6.56Z"/><path class="cls-11" d="M287.5,471.56V465h11.25v1.88h1.88v3.75h-1.87v1.88h1.88v3.75h-1.87v1.88H287.5v-6.56Zm9.38-2.81v-1.87h-5.62v3.75h5.63v-1.87Zm0,5.63V472.5h-5.62v3.75h5.63v-1.87Z"/><path class="cls-11" d="M302.5,471.56V465h11.25v1.88h1.88v5.63h-3.75v1.88h1.88v1.88h1.88v1.88H310v-1.87h-1.87v-1.87h-1.87v3.75H302.5v-6.56Zm9.38-2.81v-1.87h-5.62v5.63H310v-1.87h1.88v-1.87Z"/><path class="cls-11" d="M319.38,465.94V465h9.38v1.88h1.88v9.38h-1.87v1.88h-9.37v-1.87H317.5v-9.37h1.88v-0.94Zm7.5,5.63v-4.69h-5.62v9.38h5.63v-4.69Z"/></svg>