<?xml version="1.0" ?><svg id="pkft" viewBox="0 0 500 500" xmlns="http://www.w3.org/2000/svg"><defs><style>.cls-1{fill:#ccc;}.cls-2{fill:#f30;}.cls-3{fill:#00b0f0;}.cls-4{fill:#b3b3b3;}.cls-5{fill:#fff;}.cls-6,.cls-7{fill:#1a1a1a;}.cls-7{opacity:0.1;}.cls-8{fill:#999;}</style></defs><title/><path class="cls-1" d="M169.67,220H128v12h32.79c14.34,0,26,8.32,26,19s-11.62,19-26,19H128v12h41.67A31,31,0,0,0,169.67,220Z"/><rect class="cls-2" height="12" width="13" x="115" y="220"/><rect class="cls-3" height="12" width="13" x="115" y="270"/><path class="cls-4" d="M220.92,283.52a8.15,8.15,0,1,0,8.16,8.16A8.14,8.14,0,0,0,220.92,283.52ZM222,293v4a1,1,0,0,1-2,0v-4h-4a1,1,0,0,1,0-2h4v-4a1,1,0,0,1,2,0v4h4a1,1,0,0,1,0,2h-4Z"/><path class="cls-1" d="M226,291h-4v-4a1,1,0,0,0-2,0v4h-4a1,1,0,0,0,0,2h4v4a1,1,0,0,0,2,0v-4h4A1,1,0,0,0,226,291Z"/><path class="cls-5" d="M224.13,251A25.88,25.88,0,0,0,250,276.88V254h-3v-6h3V225.13A25.88,25.88,0,0,0,224.13,251Z"/><rect class="cls-6" height="6" width="3" x="247" y="248"/><path class="cls-1" d="M237,185h8v16.25a50,50,0,0,0-30.3,85.16,8.15,8.15,0,0,1,13.22,9.45A49.78,49.78,0,0,0,250,301V276.88a25.88,25.88,0,0,1,0-51.75v-48C238,177.08,237,185,237,185Z"/><path class="cls-1" d="M330.33,220H372v12H339.21c-14.34,0-26,8.32-26,19s11.62,19,26,19H372v12H330.33A31,31,0,0,1,330.33,220Z"/><rect class="cls-2" height="12" width="13" x="372" y="220"/><rect class="cls-3" height="12" width="13" x="372" y="270"/><path class="cls-4" d="M270.92,291.68a8.15,8.15,0,1,0,8.16-8.16A8.11,8.11,0,0,0,270.92,291.68Zm6.19,1.32H274a1,1,0,0,1,0-2h4v-4a1,1,0,0,1,2,0v4h4a1,1,0,0,1,0,2h-4v4a1,1,0,0,1-2,0v-4h-0.89Z"/><path class="cls-1" d="M274,291h4v-4a1,1,0,0,1,2,0v4h4a1,1,0,0,1,0,2h-4v4a1,1,0,0,1-2,0v-4h-4A1,1,0,0,1,274,291Z"/><path class="cls-5" d="M275.88,251A25.88,25.88,0,0,1,250,276.88V254h3v-6h-3V225.13A25.88,25.88,0,0,1,275.88,251Z"/><rect class="cls-6" height="6" width="3" x="250" y="248"/><path class="cls-1" d="M263,185h-8v16.25a50,50,0,0,1,30.3,85.16,8.15,8.15,0,0,0-13.22,9.45A49.78,49.78,0,0,1,250,301V276.88a25.88,25.88,0,0,0,0-51.75v-48C262,177.08,263,185,263,185Z"/><path class="cls-7" d="M339.21,232H385V220H330.33a31,31,0,0,0-30.59,26A50.26,50.26,0,0,0,255,201.25V185h8s-1-7.92-13-7.92V301a49.78,49.78,0,0,0,22.09-5.14,8.15,8.15,0,1,0,13.22-9.45A49.85,49.85,0,0,0,299.75,256a31,31,0,0,0,30.59,26H385V270H339.21c-14.34,0-26-8.32-26-19S324.87,232,339.21,232Z"/><path class="cls-8" d="M156.25,465.94V465h5.63v1.88h1.88v1.88h1.88v5.63h-1.87v1.88h-1.87v1.88h-5.62v-1.87h-1.87v-1.87H152.5v-5.62h1.88v-1.87h1.88v-0.94Zm3.75,1.88v-0.94h-3.75v7.5h1.88v1.88h3.75v-7.5H160v-0.94Z"/><path class="cls-8" d="M169.38,465.94V465h7.5v1.88h1.88v3.75h-1.87v1.88h3.75v3.75h-1.87v1.88h-9.37v-1.87H167.5V472.5h1.88v-1.87H167.5v-3.75h1.88v-0.94Zm3.75,7.5V472.5h-3.75v3.75h7.5v-1.87h-3.75v-0.94Zm3.75-4.69v-1.87h-5.62v1.88h1.88v1.88h3.75v-1.87Z"/><path class="cls-8" d="M188.13,465.94V465h3.75v11.25h3.75v1.88H184.38v-1.87h3.75v-7.5h-1.87v-1.87h1.88v-0.94Z"/><path class="cls-8" d="M212.5,471.56V465h3.75v1.88h1.88v1.88H220v-1.87h1.88V465h3.75v13.13h-3.75V472.5H220v1.88h-1.87V472.5h-1.87v5.63H212.5v-6.56Z"/><path class="cls-8" d="M231.25,465.94V465h5.63v1.88h1.88v1.88h1.88v9.38h-3.75v-3.75h-5.62v3.75H227.5v-9.37h1.88v-1.87h1.88v-0.94Zm3.75,1.88v-0.94h-1.87v1.88h-1.87v3.75h5.63v-3.75H235v-0.94Z"/><path class="cls-8" d="M246.25,465.94V465h9.38v1.88h-7.5v1.88h-1.87v5.63h1.88v1.88h3.75V472.5H250v-1.87h5.63v7.5h-9.37v-1.87h-1.87v-1.87H242.5v-5.62h1.88v-1.87h1.88v-0.94Z"/><path class="cls-8" d="M257.5,471.56V465h3.75v1.88h1.88v1.88H265v1.88h1.88V465h3.75v13.13h-3.75v-1.87H265v-1.87h-1.87V472.5h-1.87v5.63H257.5v-6.56Z"/><path class="cls-8" d="M272.5,471.56V465h13.13v1.88h-9.37v3.75h7.5v1.88h-7.5v3.75h9.38v1.88H272.5v-6.56Z"/><path class="cls-8" d="M287.5,471.56V465h3.75v1.88h1.88v1.88H295v-1.87h1.88V465h3.75v13.13h-3.75V472.5H295v1.88h-1.87V472.5h-1.87v5.63H287.5v-6.56Z"/><path class="cls-8" d="M304.38,465.94V465h11.25v1.88h-3.75v9.38h3.75v1.88H304.38v-1.87h3.75v-9.37h-3.75v-0.94Z"/><path class="cls-8" d="M319.38,465.94V465h11.25v1.88h-3.75v11.25h-3.75V466.88h-3.75v-0.94Z"/><path class="cls-8" d="M332.5,471.56V465h13.13v1.88h-9.37v3.75h7.5v1.88h-7.5v3.75h9.38v1.88H332.5v-6.56Z"/></svg>