<?xml version="1.0" ?><svg id="pkft" viewBox="0 0 500 500" xmlns="http://www.w3.org/2000/svg"><defs><style>.cls-1{fill:#f30;}.cls-2{fill:#00b0f0;}.cls-3{fill:#fff;}.cls-4{fill:#1a1a1a;}.cls-5{fill:#ccc;}.cls-6{fill:#e6e6e6;}.cls-7{opacity:0.1;}.cls-8{fill:gray;}</style></defs><title/><rect class="cls-1" height="10.66" transform="translate(-17.19 201.44) rotate(-62.4)" width="14" x="150.7" y="109.57"/><polygon class="cls-2" points="138.64 162.87 129.19 157.93 122.71 170.34 132.16 175.28 132.16 175.28 132.16 175.28 138.64 162.87"/><path class="cls-3" d="M226.5,191.56a23.5,23.5,0,0,0,23.5,23.5V193.65a2.08,2.08,0,1,1,0-4.17V168.06A23.5,23.5,0,0,0,226.5,191.56Z"/><path class="cls-4" d="M247.92,191.56a2.08,2.08,0,0,0,2.08,2.08v-4.17A2.08,2.08,0,0,0,247.92,191.56Z"/><path class="cls-5" d="M232,122h11v17.37a52.7,52.7,0,0,0-39,26.56c6.45-16.28,3.28-33-8-38.93l-30.29-15.83-6.49,12.41L183,136c10.43,5.45,14.38,18.47,8.61,29.51s-18.72,15.23-29.15,9.78l-23.84-12.46-6.49,12.41,30.29,15.83c12.15,6.35,29.2-2.15,38.61-19a52.66,52.66,0,0,0,6.42,50.54,12.82,12.82,0,0,1,20.13,15.7q0.87,0.82,1.7,1.67A52.48,52.48,0,0,0,250,244.23V215.06a23.5,23.5,0,0,1,0-47v-56.5C237.25,109.69,232,122,232,122Z"/><polygon class="cls-5" points="132.16 175.28 132.16 175.28 138.64 162.87 132.16 175.28"/><path class="cls-5" d="M227.14,239c0.72,0.35,1.45.67,2.18,1q-0.83-.86-1.7-1.67C227.46,238.56,227.31,238.8,227.14,239Z"/><path class="cls-6" d="M216.83,244.23A12.8,12.8,0,0,0,227.14,239c0.17-.23.32-0.46,0.48-0.7a12.82,12.82,0,0,0-20.13-15.7,12.91,12.91,0,0,0-2.38,3.61,12.7,12.7,0,0,0-1.1,5.16A12.83,12.83,0,0,0,216.83,244.23ZM207.17,230H215v-8.27a1.5,1.5,0,0,1,3,0V230h8.17a1.5,1.5,0,0,1,0,3H218v7.73a1.5,1.5,0,0,1-3,0V233h-7.83A1.5,1.5,0,0,1,207.17,230Z"/><path class="cls-5" d="M207.17,233H215v7.73a1.5,1.5,0,0,0,3,0V233h8.17a1.5,1.5,0,0,0,0-3H218v-8.27a1.5,1.5,0,0,0-3,0V230h-7.83A1.5,1.5,0,0,0,207.17,233Z"/><path class="cls-6" d="M230.83,278.56a12.83,12.83,0,1,0,11.31,6.78A12.78,12.78,0,0,0,230.83,278.56ZM240.95,290a1.69,1.69,0,0,1,.72,1.38,1.6,1.6,0,0,1-1.5,1.61H232v7.73a1.5,1.5,0,0,1-3,0V293h-7.83a1.5,1.5,0,1,1,0-3H229v-8.27a1.5,1.5,0,1,1,3,0V290h8.17A1.47,1.47,0,0,1,240.95,290Z"/><path class="cls-5" d="M232,281.73a1.5,1.5,0,1,0-3,0V290h-7.83a1.5,1.5,0,1,0,0,3H229v7.73a1.5,1.5,0,0,0,3,0V293h8.17a1.7,1.7,0,0,0,1.5-1.72,1.32,1.32,0,0,0-.72-1.17,1.44,1.44,0,0,0-.78-0.12H232v-8.27Z"/><path class="cls-3" d="M179,246.23a25.67,25.67,0,1,0,25.67,25.67A25.67,25.67,0,0,0,179,246.23Zm-16,28.08a2.42,2.42,0,1,1,2.42-2.42A2.42,2.42,0,0,1,163,274.31Z"/><circle class="cls-4" cx="163" cy="271.9" r="2.42"/><path class="cls-5" d="M159.86,238.19c8.09-12.87,7.35-28.25-2.25-35.72L132.11,182.6l-7.57,9.72L144.64,208c8.73,6.8,11,18.53,4.45,26.9s-18.43,9.07-27.17,2.27l-20.1-15.66-7.57,9.72,25.51,19.87c8.83,6.88,22.33,4.84,32.6-4.1A49.93,49.93,0,0,1,159.86,238.19Z"/><rect class="cls-1" height="9.86" transform="translate(-97.53 169.28) rotate(-52.09)" width="12.32" x="118.27" y="179.5"/><rect class="cls-2" height="9.86" transform="translate(-139.88 160.37) rotate(-52.09)" width="12.32" x="87.99" y="218.39"/><path class="cls-5" d="M193.41,324.35c-16.88,2.1-29.25,14.43-27.61,27.55l4,32.09L182,382.47l-3.14-25.29c-1.37-11,5.34-20.86,15.87-22.17s19.45,6.62,20.81,17.61l3.14,25.29,12.23-1.52-4-32.09c-1.49-12-14.22-20.51-29.32-20.24-0.89.07-1.78,0.11-2.68,0.13Z"/><rect class="cls-1" height="9.86" transform="translate(-46.54 24.74) rotate(-7.09)" width="12.32" x="170.34" y="383.19"/><rect class="cls-2" height="9.86" transform="translate(-45.42 30.73) rotate(-7.09)" width="12.32" x="219.25" y="377.11"/><path class="cls-5" d="M216.83,244.23A12.83,12.83,0,0,1,204,231.4a12.7,12.7,0,0,1,1.1-5.16,49.61,49.61,0,0,0-45.24,12,39.82,39.82,0,0,1-2.3,3.29,39.29,39.29,0,0,1-5.2,5.5,49.69,49.69,0,0,0-6.28,41.86l-10,7.91-4.86-6.15s-2.84,17.22,16.12,20.4l-5.06-6.41,7.81-6.17a49.65,49.65,0,0,0,43.57,25.82c0.42,0,.83,0,1.25,0,0.9-.08,1.8-0.12,2.68-0.13a49.6,49.6,0,0,0,36.14-20.17,12.83,12.83,0,1,1,8.4-18.55A49.61,49.61,0,0,0,229.32,240c-0.73-.31-1.46-0.63-2.18-1A12.8,12.8,0,0,1,216.83,244.23ZM179,297.56a25.67,25.67,0,1,1,25.67-25.67A25.67,25.67,0,0,1,179,297.56Z"/><path class="cls-5" d="M157.57,241.47a39.82,39.82,0,0,0,2.3-3.29,49.93,49.93,0,0,0-7.5,8.79A39.29,39.29,0,0,0,157.57,241.47Z"/><path class="cls-5" d="M197.6,324.06c-0.89,0-1.78.06-2.68,0.13C195.82,324.17,196.71,324.13,197.6,324.06Z"/><rect class="cls-1" height="14" transform="translate(-14.23 171.85) rotate(-27.6)" width="10.66" x="337.44" y="107.91"/><polygon class="cls-2" points="361.83 162.87 371.28 157.93 377.77 170.34 368.32 175.28 368.32 175.28 368.32 175.28 361.83 162.87"/><path class="cls-3" d="M273.5,191.56a23.49,23.49,0,0,1-23.5,23.5V193.65c2,0,2.08-.93,2.08-2.08s-0.08-2.08-2.08-2.08V168.06A23.49,23.49,0,0,1,273.5,191.56Z"/><path class="cls-4" d="M252.08,191.56c0,1.15-.08,2.08-2.08,2.08v-4.17C252,189.48,252.08,190.41,252.08,191.56Z"/><path class="cls-5" d="M268.47,122H257v17.37a52.75,52.75,0,0,1,39.25,26.56c-6.45-16.28-3.16-33,8.15-38.93l30.35-15.83,6.52,12.41L317.44,136c-10.43,5.45-14.37,18.47-8.6,29.51s18.72,15.23,29.15,9.78l23.84-12.46,6.49,12.41L338,191.11c-12.15,6.35-29.2-2.15-38.61-19A52.66,52.66,0,0,1,293,222.63a12.82,12.82,0,0,0-20.13,15.7c-0.58.54-1.39,1.1-1.94,1.67A51.3,51.3,0,0,1,250,244.23V215.06a23.5,23.5,0,0,0,0-47v-56.5C263,109.69,268.47,122,268.47,122Z"/><polygon class="cls-5" points="368.32 175.28 368.32 175.28 361.83 162.87 368.32 175.28"/><path class="cls-5" d="M273.34,239c-0.72.35-1.45,0.67-2.18,1q0.83-.86,1.7-1.67C273,238.56,273.17,238.8,273.34,239Z"/><path class="cls-6" d="M296.47,231.4a12.7,12.7,0,0,0-1.1-5.16,12.91,12.91,0,0,0-2.38-3.61,12.82,12.82,0,0,0-20.13,15.7c0.15,0.24.31,0.47,0.48,0.7A12.82,12.82,0,0,0,296.47,231.4Zm-1.67.1a1.5,1.5,0,0,1-1.5,1.5H285v7.73a1.5,1.5,0,0,1-3,0V233h-7.69a1.5,1.5,0,0,1,0-3H282v-8.27a1.5,1.5,0,0,1,3,0V230h8.31A1.5,1.5,0,0,1,294.81,231.5Z"/><path class="cls-5" d="M293.31,233H285v7.73a1.5,1.5,0,0,1-3,0V233h-7.69a1.5,1.5,0,0,1,0-3H282v-8.27a1.5,1.5,0,0,1,3,0V230h8.31A1.5,1.5,0,0,1,293.31,233Z"/><path class="cls-6" d="M258.33,285.34a12.82,12.82,0,1,0,11.31-6.78A12.77,12.77,0,0,0,258.33,285.34Zm2,4.66H268v-8.27a1.5,1.5,0,1,1,3,0V290h8.31a1.5,1.5,0,0,1,0,3H271v7.73a1.5,1.5,0,0,1-3,0V293h-7.69a1.7,1.7,0,0,1-1.5-1.72,1.32,1.32,0,0,1,.72-1.17A1.44,1.44,0,0,1,260.31,290Z"/><path class="cls-5" d="M268,281.73a1.5,1.5,0,1,1,3,0V290h8.31a1.5,1.5,0,0,1,0,3H271v7.73a1.5,1.5,0,0,1-3,0V293h-7.69a1.7,1.7,0,0,1-1.5-1.72,1.32,1.32,0,0,1,.72-1.17,1.44,1.44,0,0,1,.78-0.12H268v-8.27Z"/><path class="cls-3" d="M295.81,271.9a25.67,25.67,0,1,0,25.67-25.67A25.67,25.67,0,0,0,295.81,271.9Zm39.25,0a2.42,2.42,0,1,1,2.42,2.42A2.42,2.42,0,0,1,335.06,271.9Z"/><circle class="cls-4" cx="337.47" cy="271.9" r="2.42"/><path class="cls-5" d="M340.61,238.19c-8.09-12.87-7.35-28.25,2.25-35.72l25.51-19.87,7.57,9.72L355.84,208c-8.73,6.8-11,18.53-4.45,26.9s18.43,9.07,27.17,2.27l20.1-15.66,7.57,9.72-25.51,19.87c-8.83,6.88-22.33,4.84-32.6-4.1A49.93,49.93,0,0,0,340.61,238.19Z"/><rect class="cls-1" height="12.32" transform="translate(-33.96 269.99) rotate(-37.91)" width="9.86" x="371.11" y="178.27"/><rect class="cls-2" height="12.32" transform="translate(-51.46 296.8) rotate(-37.91)" width="9.86" x="401.4" y="217.15"/><path class="cls-5" d="M307.07,324.35c16.88,2.1,29.25,14.43,27.61,27.55l-4,32.09-12.23-1.52,3.14-25.29c1.37-11-5.34-20.86-15.87-22.17s-19.45,6.62-20.81,17.61l-3.14,25.29-12.23-1.52,4-32.09c1.49-12,14.22-20.51,29.32-20.24,0.89,0.07,1.78.11,2.68,0.13Z"/><rect class="cls-1" height="12.32" transform="translate(-101.15 661.72) rotate(-82.91)" width="9.86" x="319.04" y="381.96"/><rect class="cls-2" height="12.32" transform="translate(-137.99 607.86) rotate(-82.91)" width="9.86" x="270.14" y="375.88"/><path class="cls-5" d="M273.34,239c-0.72.35-1.45,0.67-2.18,1a49.61,49.61,0,0,0-12.83,45.34,12.85,12.85,0,1,1,8.4,18.55,49.6,49.6,0,0,0,36.14,20.17c0.89,0,1.78.06,2.68,0.13,0.42,0,.83,0,1.25,0a49.65,49.65,0,0,0,43.57-25.82l7.81,6.17L353.13,311c19-3.18,16.12-20.4,16.12-20.4l-4.86,6.15-10-7.91A49.69,49.69,0,0,0,348.11,247a39.29,39.29,0,0,1-5.2-5.5,39.82,39.82,0,0,1-2.3-3.29,49.61,49.61,0,0,0-45.24-12,12.7,12.7,0,0,1,1.1,5.16A12.82,12.82,0,0,1,273.34,239Zm22.47,32.87a25.67,25.67,0,1,1,25.67,25.67A25.67,25.67,0,0,1,295.81,271.9Z"/><path class="cls-5" d="M342.91,241.47a39.82,39.82,0,0,1-2.3-3.29,49.93,49.93,0,0,1,7.5,8.79A39.29,39.29,0,0,1,342.91,241.47Z"/><path class="cls-5" d="M302.87,324.06c0.89,0,1.78.06,2.68,0.13C304.65,324.17,303.76,324.13,302.87,324.06Z"/><g class="cls-7"><rect class="cls-4" height="14" transform="translate(-14.23 171.85) rotate(-27.6)" width="10.66" x="337.44" y="107.91"/><rect class="cls-4" height="14" transform="translate(-35.11 190.25) rotate(-27.6)" width="10.66" x="364.47" y="159.61"/><path class="cls-4" d="M406.43,215.42l-7.78,6.06-20.1,15.66c-8.73,6.8-20.65,6.1-27.17-2.27s-4.28-20.09,4.45-26.9l20.11-15.66,7.78-6.06-7.57-9.72-7.78,6.06-25.51,19.87c-9.59,7.47-10.33,22.85-2.25,35.72a49.61,49.61,0,0,0-45.24-12,12.91,12.91,0,0,0-2.38-3.61h0a52.66,52.66,0,0,0,6.42-50.54c9.41,16.87,26.46,25.37,38.61,19l30.29-15.83-6.49-12.41L338,175.33c-10.43,5.45-23.38,1.26-29.15-9.78S307,141.49,317.44,136l23.82-12.46-6.52-12.41L304.4,127c-11.31,5.91-14.6,22.64-8.15,38.93A52.75,52.75,0,0,0,257,139.37V122h11.47S263,109.69,250,111.56V244.23A51.3,51.3,0,0,0,270.92,240c0.55-.57,1.36-1.13,1.94-1.67q-0.87.82-1.7,1.67a49.61,49.61,0,0,0-12.83,45.34,12.84,12.84,0,0,0,8.4,18.55,49.6,49.6,0,0,0,36.14,20.17c-15.1-.27-27.83,8.22-29.32,20.24l-4,32.09-1.22,9.78,12.23,1.52,1.22-9.78,3.14-25.29c1.37-11,10.29-18.92,20.81-17.61s17.23,11.18,15.87,22.17l-3.14,25.29-1.22,9.78,12.23,1.52,1.22-9.78,4-32.09c1.63-13.11-10.73-25.45-27.61-27.55l-1.51-.16c0.42,0,.83,0,1.25,0a49.65,49.65,0,0,0,43.57-25.82l7.81,6.17L353.13,311c19-3.18,16.12-20.4,16.12-20.4l-4.86,6.15-10-7.91A49.69,49.69,0,0,0,348.11,247c10.27,8.94,23.77,11,32.6,4.1l25.51-19.87,7.78-6.06Z"/></g><path class="cls-8" d="M163.75,465.94V465h5.63v1.88h1.88v1.88h1.88v5.63h-1.87v1.88h-1.87v1.88h-5.62v-1.87h-1.87v-1.87H160v-5.62h1.88v-1.87h1.88v-0.94Zm3.75,1.88v-0.94h-3.75v7.5h1.88v1.88h3.75v-7.5H167.5v-0.94Z"/><path class="cls-8" d="M176.88,465.94V465h7.5v1.88h1.88v3.75h-1.87v1.88h3.75v3.75h-1.87v1.88h-9.37v-1.87H175V472.5h1.88v-1.87H175v-3.75h1.88v-0.94Zm3.75,7.5V472.5h-3.75v3.75h7.5v-1.87h-3.75v-0.94Zm3.75-4.69v-1.87h-5.62v1.88h1.88v1.88h3.75v-1.87Z"/><path class="cls-8" d="M191.88,465.94V465h9.38v1.88h1.88v3.75h-1.87v1.88h-1.87v1.88h-3.75v1.88h7.5v1.88H190v-3.75h1.88V472.5h1.88v-1.87h3.75v-1.87h1.88v-1.87h-5.62v1.88H190v-1.87h1.88v-0.94Z"/><path class="cls-8" d="M220,471.56V465h3.75v1.88h1.88v1.88h1.88v-1.87h1.88V465h3.75v13.13h-3.75V472.5H227.5v1.88h-1.87V472.5h-1.87v5.63H220v-6.56Z"/><path class="cls-8" d="M238.75,465.94V465h5.63v1.88h1.88v1.88h1.88v9.38h-3.75v-3.75h-5.62v3.75H235v-9.37h1.88v-1.87h1.88v-0.94Zm3.75,1.88v-0.94h-1.87v1.88h-1.87v3.75h5.63v-3.75H242.5v-0.94Z"/><path class="cls-8" d="M253.75,465.94V465h9.38v1.88h-7.5v1.88h-1.87v5.63h1.88v1.88h3.75V472.5H257.5v-1.87h5.63v7.5h-9.37v-1.87h-1.87v-1.87H250v-5.62h1.88v-1.87h1.88v-0.94Z"/><path class="cls-8" d="M265,471.56V465h3.75v1.88h1.88v1.88h1.88v1.88h1.88V465h3.75v13.13h-3.75v-1.87H272.5v-1.87h-1.87V472.5h-1.87v5.63H265v-6.56Z"/><path class="cls-8" d="M280,471.56V465h13.13v1.88h-9.37v3.75h7.5v1.88h-7.5v3.75h9.38v1.88H280v-6.56Z"/><path class="cls-8" d="M296.88,465.94V465h11.25v1.88h-3.75v11.25h-3.75V466.88h-3.75v-0.94Z"/><path class="cls-8" d="M311.88,465.94V465h9.38v1.88h1.88v9.38h-1.87v1.88h-9.37v-1.87H310v-9.37h1.88v-0.94Zm7.5,5.63v-4.69h-5.62v9.38h5.63v-4.69Z"/><path class="cls-8" d="M325,471.56V465h3.75v1.88h1.88v1.88h1.88v1.88h1.88V465h3.75v13.13h-3.75v-1.87H332.5v-1.87h-1.87V472.5h-1.87v5.63H325v-6.56Z"/></svg>