<?xml version="1.0" ?><svg id="pkft" viewBox="0 0 500 500" xmlns="http://www.w3.org/2000/svg"><defs><style>.cls-1{fill:#f9b924;}.cls-2{fill:#f7be4b;}.cls-3{fill:#fff;}.cls-4{fill:#1a1a1a;}.cls-5{fill:#af8975;}.cls-6{fill:#f9f8d2;}.cls-7{fill:#b3917d;}.cls-8{fill:#89cc48;}.cls-9{opacity:0.1;}</style></defs><title/><path class="cls-1" d="M240.39,236.09c-3-5.3-14.1-7.83-21.25-8.93-2.41,5.35-4.33,15.08,7,16.07,0,0,13.82,12.38,23.82,11.71V242.56C246,241.56,242.44,239.67,240.39,236.09Z"/><path class="cls-2" d="M221.12,224.34a4.56,4.56,0,0,0-1.28,1.4c-0.23.42-.47,0.9-0.7,1.41,7.15,1.1,18.21,3.63,21.24,8.93,2.05,3.59,5.61,5.48,9.61,6.48V217.23c-3,.13-8.91.74-11.58,3.26C238.42,220.49,225.72,220.84,221.12,224.34Z"/><path class="cls-3" d="M232.52,199.8c-14.28-1-11.4,24.54-11.4,24.54,4.6-3.49,17.3-3.84,17.3-3.84S246.81,200.82,232.52,199.8Zm3.61,10.09a2.48,2.48,0,0,1-.33,0,19.14,19.14,0,0,1-.13,2.48c-0.45,3.91-1.94,7-3.32,6.79s-2.13-3.46-1.68-7.37,1.94-7,3.32-6.79a1.11,1.11,0,0,1,.67.37A2.51,2.51,0,1,1,236.13,209.89Z"/><path class="cls-4" d="M233.62,207.38a2.51,2.51,0,0,1,1-2A1.11,1.11,0,0,0,234,205c-1.38-.16-2.86,2.88-3.32,6.79s0.3,7.21,1.68,7.37,2.86-2.88,3.32-6.79a19.14,19.14,0,0,0,.13-2.48A2.51,2.51,0,0,1,233.62,207.38Z"/><path class="cls-3" d="M236.13,204.86a2.49,2.49,0,0,0-1.47.48c0.69,0.72,1.1,2.4,1.14,4.52a2.48,2.48,0,0,0,.33,0A2.51,2.51,0,0,0,236.13,204.86Z"/><path class="cls-3" d="M233.62,207.38a2.51,2.51,0,0,0,2.19,2.48c0-2.11-.45-3.8-1.14-4.52A2.51,2.51,0,0,0,233.62,207.38Z"/><path class="cls-4" d="M228.36,191s15.19,6.67,17,12.35a5.69,5.69,0,0,0,4.59,4.2v-10.9C244,194.62,231.9,190.31,228.36,191Z"/><path class="cls-5" d="M216.56,281c6.14-7.87,15.37-13.23,28.64-14.78a59.11,59.11,0,0,1-19.31-4.34s-41.46,7.31-41,0-5.68-113.12-13.55-118.8-15.3,47.08-8.74,62.24c0,0-26.23-60.49-26.23-32.51,0,26.1,2.66,41.93,7.64,47.84-5.4-5.42-28.49-27.62-20.75-3.45,7.2,22.49,17.36,37.13,20.73,40.62-4.41-1.29-20.12-1.3-16.35,7.31,4.37,10,17.49,23.11,17.49,23.11s-19.68-8.74-15.74,0,46.35,51.59,73.45,21c0,11.57,1.85,22.25,6.37,30.91A78.28,78.28,0,0,1,206.29,318a79.3,79.3,0,0,1,2.62-21.29Z"/><path class="cls-1" d="M189.89,384s-11.37,8.09,13.55,3.94l1.57-.33c-3.15,1.77-4.81,3.67-.46,4.27,8.85,1.21,19-4.08,20.54-4.91-1.18.66-6.95,4.07-2.42,5.09,5,1.13,20.55-1.27,20.33-6.08s-5.68-4.59-5-10.06c0.43-3.6-.75-11.09-1.6-15.78a42.5,42.5,0,0,1-14.8-6C220.63,362,215.69,382.08,189.89,384Z"/><path class="cls-6" d="M245.19,266.25C216,269.66,206.29,291.52,206.29,318a78.27,78.27,0,0,0,2.87,22.16,37,37,0,0,0,12.42,14,42.47,42.47,0,0,0,14.8,6A65.47,65.47,0,0,0,250,361.48V266.4C248,266.4,246.78,266.35,245.19,266.25Z"/><path class="cls-7" d="M241.27,152l3.88,29.31c-0.88.12-1.75,0.24-2.61,0.42l0,0-5.9-25.25-12.88,4.15,11.88,23.19c-18.2,7.39-31.34,27.84-31.34,46.76,0,15.32,8.62,25.85,21.57,31.36a59.07,59.07,0,0,0,19.3,4.34c1.55-.18,2.81-0.33,4.81-0.4V254.94c-10,.66-23.82-11.71-23.82-11.71-11.37-1-9.45-10.72-7-16.07,0.23-.51.47-1,0.7-1.41a4.56,4.56,0,0,1,1.28-1.4s-2.88-25.56,11.4-24.54,5.9,20.7,5.9,20.7c2.67-2.52,8.58-3.13,11.58-3.26v-9.7a5.68,5.68,0,0,1-4.58-4.2c-1.86-5.68-17.05-12.35-17.05-12.35,3.53-.67,15.64,3.64,21.64,5.66V152h-8.73Z"/><path class="cls-7" d="M250,266.4v-0.56c-2,.08-3.26.22-4.81,0.4C246.77,266.35,248,266.4,250,266.4Z"/><path class="cls-8" d="M250,143H153.82S136,150.83,136,145.44V136h17.82l-8.74-10.44s5.68-22.64,11.37-17.39S167.38,131,167.38,131H250v12Z"/><path class="cls-1" d="M259.71,236.09c3-5.3,14.15-7.83,21.3-8.93,2.41,5.35,4.26,15.08-7.11,16.07,0,0-13.9,12.38-23.9,11.71V242.56C254,241.56,257.66,239.67,259.71,236.09Z"/><path class="cls-2" d="M279.08,224.34a4.56,4.56,0,0,1,1.28,1.4c0.23,0.42.47,0.9,0.7,1.41-7.15,1.1-18.31,3.63-21.34,8.93-2.05,3.59-5.71,5.48-9.71,6.48V217.23c4,0.13,9,.74,11.68,3.26C261.68,220.49,274.48,220.84,279.08,224.34Z"/><path class="cls-3" d="M261.78,220.49s12.7,0.35,17.3,3.84c0,0,2.88-25.56-11.4-24.54S261.78,220.49,261.78,220.49Zm-0.22-13.12a2.51,2.51,0,0,1,4-2,1.11,1.11,0,0,1,.67-0.37c1.38-.16,2.86,2.88,3.32,6.79s-0.3,7.21-1.68,7.37-2.86-2.88-3.32-6.79a19.14,19.14,0,0,1-.13-2.48,2.48,2.48,0,0,1-.33,0A2.51,2.51,0,0,1,261.56,207.38Z"/><path class="cls-4" d="M266.59,207.38a2.51,2.51,0,0,0-1-2,1.11,1.11,0,0,1,.67-0.37c1.38-.16,2.86,2.88,3.32,6.79s-0.3,7.21-1.68,7.37-2.86-2.88-3.32-6.79a19.14,19.14,0,0,1-.13-2.48A2.51,2.51,0,0,0,266.59,207.38Z"/><path class="cls-3" d="M264.07,204.86a2.49,2.49,0,0,1,1.47.48c-0.69.72-1.1,2.4-1.14,4.52a2.48,2.48,0,0,1-.33,0A2.51,2.51,0,0,1,264.07,204.86Z"/><path class="cls-3" d="M266.59,207.38a2.51,2.51,0,0,1-2.19,2.48c0-2.11.45-3.8,1.14-4.52A2.51,2.51,0,0,1,266.59,207.38Z"/><path class="cls-4" d="M271.74,191s-15.24,6.67-17.1,12.35a5.74,5.74,0,0,1-4.64,4.2v-10.9C256,194.62,268.2,190.31,271.74,191Z"/><path class="cls-5" d="M283.64,281c-6.14-7.87-15.37-13.23-28.64-14.78a59.11,59.11,0,0,0,19.31-4.34s41.46,7.31,41,0S321,148.79,328.89,143.1s15.3,47.08,8.74,62.24c0,0,26.23-60.49,26.23-32.51,0,26.1-2.66,41.93-7.64,47.84,5.4-5.42,28.49-27.62,20.75-3.45-7.2,22.49-17.36,37.13-20.73,40.62,4.41-1.29,20.12-1.3,16.35,7.31-4.37,10-17.49,23.11-17.49,23.11s19.68-8.74,15.74,0-46.35,51.59-73.45,21c0,11.57-1.85,22.25-6.37,30.91A78.28,78.28,0,0,0,293.91,318a79.3,79.3,0,0,0-2.62-21.29Z"/><path class="cls-1" d="M310.31,384s11.37,8.09-13.55,3.94l-1.57-.33c3.15,1.77,4.81,3.67.46,4.27-8.85,1.21-19-4.08-20.54-4.91,1.18,0.66,6.95,4.07,2.42,5.09-5,1.13-20.55-1.27-20.33-6.08s5.68-4.59,5-10.06c-0.43-3.6.75-11.09,1.6-15.78a42.5,42.5,0,0,0,14.8-6C279.57,362,284.52,382.08,310.31,384Z"/><path class="cls-6" d="M254.91,266.25c29.22,3.42,39,25.27,39,51.75A78.29,78.29,0,0,1,291,340.16a36.92,36.92,0,0,1-12.41,14,43,43,0,0,1-14.89,6A66.41,66.41,0,0,1,250,361.48V266.4C252,266.4,253.33,266.35,254.91,266.25Z"/><path class="cls-7" d="M258.93,152l-3.88,29.31c0.88,0.12,1.75.24,2.61,0.42l0,0,5.9-25.25,12.88,4.15-11.88,23.19c18.2,7.39,31.34,27.84,31.34,46.76,0,15.32-8.62,25.85-21.57,31.36a59.68,59.68,0,0,1-19.4,4.34c-1.55-.18-2.91-0.33-4.91-0.4V254.94c10,0.66,23.92-11.71,23.92-11.71,11.37-1,9.5-10.72,7.09-16.07-0.23-.51-0.45-1-0.68-1.41a4.51,4.51,0,0,0-1.27-1.4s2.89-25.56-11.39-24.54-6,20.7-6,20.7C259,218,254,217.36,250,217.23v-9.7a5.8,5.8,0,0,0,4.69-4.2c1.86-5.68,17-12.35,17-12.35-3.53-.67-15.69,3.64-21.69,5.66V152h8.93Z"/><path class="cls-7" d="M250,266.4v-0.56c2,0.08,3.26.22,4.81,0.4C253.23,266.35,252,266.4,250,266.4Z"/><path class="cls-8" d="M250,143h96.38S364,150.83,364,145.44V136H346.38l8.74-10.44s-5.68-22.64-11.37-17.39S332.83,131,332.83,131H250v12Z"/><g class="cls-9"><path class="cls-4" d="M356.23,220.68c5-5.91,7.64-21.74,7.64-47.84,0-28-26.23,32.45-26.23,32.45,5.89-13.6.5-58.29-6.35-62.29h15.1S364,150.83,364,145.44V136H346.38l8.74-10.44s-5.68-22.64-11.37-17.39S332.83,131,332.83,131H250v12h78.89c-7.87,5-14,111.54-13.55,118.85s-41,0-41,0A59.11,59.11,0,0,1,255,266.23c13.27,1.55,22.5,6.92,28.64,14.79l0.11,0.24c-6.14-8-15.45-13.45-28.85-15-1.58.1-2.91,0.16-4.91,0.16v95.08a66.42,66.42,0,0,0,13.72-1.34,43,43,0,0,0,14.89-6,36.93,36.93,0,0,0,12.41-14,87.32,87.32,0,0,0,.14-43.73l0.13,0.28A79.3,79.3,0,0,1,293.91,318,78.28,78.28,0,0,1,291,340.16c4.52-8.66,6.37-19.34,6.37-30.91,27.11,30.61,69.52-12.24,73.45-21s-15.74,0-15.74,0,13.12-13.12,17.49-23.11c3.77-8.61-11.94-8.6-16.35-7.31,3.36-3.49,13.52-18.12,20.73-40.62C384.73,193.06,361.63,215.26,356.23,220.68Z"/><path class="cls-4" d="M310.31,384c-25.79-1.93-30.74-22-31.69-29.87a42.5,42.5,0,0,1-14.8,6c-0.86,4.69-2,12.18-1.6,15.78,0.66,5.47-4.81,5.25-5,10.06s15.3,7.21,20.33,6.08c4.53-1-1.23-4.43-2.42-5.09,1.54,0.84,11.7,6.12,20.54,4.91,4.35-.59,2.69-2.49-0.46-4.27l1.57,0.33C321.68,392.1,310.31,384,310.31,384Z"/><path class="cls-4" d="M274.31,261.91c12.95-5.51,21.57-16,21.57-31.36,0-18.91-13.14-39.37-31.34-46.76l11.88-23.2-12.88-4.15-5.9,25.24h0c-0.86-.18-1.73-0.26-2.61-0.38L258.93,152H250v44.64c6-1.9,16.69-5.81,20.94-5.73-4.28-.05-14.94,3.84-20.94,5.73v10.9a5.75,5.75,0,0,0,4.64-4.2c0.93-2.84,5.21-5.93,9.25-8.31-4,2.38-8.28,5.47-9.21,8.31a5.8,5.8,0,0,1-4.68,4.2v58.31c2,0.08,3.35.22,4.91,0.4A59.68,59.68,0,0,0,274.31,261.91Zm-6.64-62.11a11.18,11.18,0,0,1,1.29,0,11.13,11.13,0,0,0-1.28,0c-14.28,1-5.9,20.7-5.9,20.7s12.69,0.35,17.29,3.84h0c-4.61-3.49-17.38-3.84-17.38-3.84h0C261.65,220.41,253.42,200.81,267.67,199.8ZM250.93,255c9.58-.12,23-11.74,23-11.74,11.36-1,9.52-10.72,7.11-16.07h0c2.41,5.35,4.28,15.07-7.09,16.07C273.93,243.23,260.51,254.84,250.93,255Z"/><path class="cls-4" d="M250,265.85v0.56c2,0,3.23-.05,4.81-0.15C253.26,266.06,252,265.92,250,265.85Z"/></g><path class="cls-5" d="M148.75,465.94V465h5.63v1.88h1.88v1.88h1.88v5.63h-1.87v1.88h-1.87v1.88h-5.62v-1.87h-1.87v-1.87H145v-5.62h1.88v-1.87h1.88v-0.94Zm3.75,1.88v-0.94h-3.75v7.5h1.88v1.88h3.75v-7.5H152.5v-0.94Z"/><path class="cls-5" d="M161.88,465.94V465h7.5v1.88h1.88v3.75h-1.87v1.88h3.75v3.75h-1.87v1.88h-9.37v-1.87H160V472.5h1.88v-1.87H160v-3.75h1.88v-0.94Zm3.75,7.5V472.5h-3.75v3.75h7.5v-1.87h-3.75v-0.94Zm3.75-4.69v-1.87h-5.62v1.88h1.88v1.88h3.75v-1.87Z"/><path class="cls-5" d="M176.88,465.94V465h11.25v1.88h-1.87v1.88h-1.87v1.88h1.88v1.88h1.88v3.75h-1.87v1.88h-9.37v-1.87H175v-1.87h3.75v1.88h5.63V472.5h-5.62v-1.87h1.88v-1.87h1.88v-1.87h-5.62v-0.94Z"/><path class="cls-5" d="M205,471.56V465h13.13v1.88h-9.37v3.75h7.5v1.88h-7.5v5.63H205v-6.56Z"/><path class="cls-5" d="M223.75,465.94V465h5.63v1.88h1.88v1.88h1.88v9.38h-3.75v-3.75h-5.62v3.75H220v-9.37h1.88v-1.87h1.88v-0.94Zm3.75,1.88v-0.94h-1.87v1.88h-1.87v3.75h5.63v-3.75H227.5v-0.94Z"/><path class="cls-5" d="M235,471.56V465h11.25v1.88h1.88v5.63h-3.75v1.88h1.88v1.88h1.88v1.88H242.5v-1.87h-1.87v-1.87h-1.87v3.75H235v-6.56Zm9.38-2.81v-1.87h-5.62v5.63h3.75v-1.87h1.88v-1.87Z"/><path class="cls-5" d="M250,471.56V465h13.13v1.88h-9.37v3.75h7.5v1.88h-7.5v5.63H250v-6.56Z"/><path class="cls-5" d="M265,471.56V465h13.13v1.88h-9.37v3.75h7.5v1.88h-7.5v3.75h9.38v1.88H265v-6.56Z"/><path class="cls-5" d="M281.88,465.94V465h11.25v1.88h-3.75v11.25h-3.75V466.88h-3.75v-0.94Z"/><path class="cls-5" d="M298.75,465.94V465h7.5v1.88h1.88v1.88h-3.75v-1.87h-3.75v1.88h-1.87v5.63h1.88v1.88h3.75v-1.87h3.75v1.88h-1.87v1.88h-7.5v-1.87h-1.87v-1.87H295v-5.62h1.88v-1.87h1.88v-0.94Z"/><path class="cls-5" d="M310,471.56V465h3.75v5.63h5.63V465h3.75v13.13h-3.75V472.5h-5.62v5.63H310v-6.56Z"/><path class="cls-5" d="M332.5,465.94V465h1.88v1.88H332.5v1.88h-1.87v-1.87h1.88v-0.94Z"/><path class="cls-5" d="M340,471.56V465h9.38v1.88h1.88v1.88h1.88v5.63h-1.87v1.88h-1.87v1.88H340v-6.56Zm7.5-3.75v-0.94h-3.75v9.38h3.75v-1.87h1.88v-5.62H347.5v-0.94Z"/></svg>