<?xml version="1.0" ?><svg id="pkft" viewBox="0 0 500 500" xmlns="http://www.w3.org/2000/svg"><defs><style>.cls-1{fill:#fef8cb;}.cls-2{fill:none;}.cls-3{fill:#efcca3;}.cls-4{fill:#db814a;}.cls-5{fill:#1a1a1a;}.cls-6{fill:#f4ebba;}.cls-7{fill:#fff;}.cls-8{fill:#ccc;}.cls-9{fill:#f7d2ad;}.cls-10{opacity:0.1;}</style></defs><title/><path class="cls-1" d="M120,158.12a3.73,3.73,0,0,1,.11-1.27A0.75,0.75,0,0,0,120,158.12Z"/><path class="cls-2" d="M208.23,372.68l-1.53,1.6a5.34,5.34,0,0,1-4.18.62,5.4,5.4,0,0,1-3.88-4.26l0-.42,0,0,0,0.43a5.33,5.33,0,0,0,8.07,3.61l1.54-1.56v0Z"/><polygon class="cls-2" points="208.23 372.73 208.26 372.71 208.25 372.66 208.23 372.68 208.23 372.73"/><polygon class="cls-2" points="198.59 370.09 198.56 370.12 198.57 370.17 198.59 370.14 198.59 370.09"/><path class="cls-3" d="M230,309.62c0,5.1-12.3,31.41-17.61,42.53a5.57,5.57,0,0,1,.39,3.44,4.93,4.93,0,0,1,.89-1.73,4.81,4.81,0,0,1,2.05-1.51l0.35-.14,0.15-.05a4.9,4.9,0,0,1,4.77,1.11l0.73,0.58c5.18-9.89,20.24-39,20-43-0.18-3.48-4.65-18.73-7-26.66a56.26,56.26,0,0,1-11.15-4.14C225.65,287.82,230,304.67,230,309.62Z"/><path class="cls-4" d="M155.76,147.45q0,0.82.06,1.62c0.34-.09.93-0.25,1.67-0.48A6.91,6.91,0,0,1,155.76,147.45Z"/><path class="cls-5" d="M160.19,131.13H160c-4,0-7.27,4-7.27,9a9.8,9.8,0,0,0,3,7.31c0-.11,0-0.22,0-0.33A30.85,30.85,0,0,1,160.19,131.13Z"/><path class="cls-5" d="M165.5,143.62a2.22,2.22,0,0,1,1.66-2,11.15,11.15,0,0,0,.11-1.49c0-4.9-3.15-8.88-7.08-9a30.85,30.85,0,0,0-4.44,16c0,0.11,0,.22,0,0.33a6.91,6.91,0,0,0,1.73,1.14C160.34,147.71,165.26,145.87,165.5,143.62ZM162.88,134a2.88,2.88,0,1,1-2.87,2.88A2.87,2.87,0,0,1,162.88,134Z"/><path class="cls-6" d="M156.92,155.57c-9-.3-18.84-0.53-26.16-0.26,3.86,2.66,14.63,9,31.25,10.5,2.28,0.2,4.66.32,7.16,0.32l10.79-10C179.25,156.49,168.87,156,156.92,155.57Z"/><path class="cls-1" d="M156.92,155.57c11.95,0.4,22.32.92,23,.6l0,0c0-1-1.33-6.17-5-6.32s-3.5-3.68-3.83-6.18c-0.22-1.63-2.41-2.47-4-2a2.22,2.22,0,0,0-1.66,2c-0.24,2.25-5.16,4.09-8,5-0.74.23-1.33,0.39-1.67,0.48l-0.32.08c-29.85-2.77-34.66,4.62-35.39,7.7,1.25-.89,5.26-1.35,10.65-1.55C138.08,155,147.95,155.27,156.92,155.57Z"/><circle class="cls-7" cx="162.88" cy="136.91" r="2.88"/><path class="cls-5" d="M192.33,131.12a8.67,8.67,0,1,0,8.67,8.67A8.67,8.67,0,0,0,192.33,131.12Zm-3.33,9a2.88,2.88,0,1,1,2.88-2.87A2.87,2.87,0,0,1,189,140.14Z"/><circle class="cls-7" cx="189" cy="137.26" r="2.88"/><path class="cls-4" d="M217.75,147.12a31,31,0,0,0-57.56-16c3.93,0.13,7.08,4.1,7.08,9a11.15,11.15,0,0,1-.11,1.49c1.6-.48,3.79.36,4,2,0.33,2.5.17,6,3.83,6.18s5,5.32,5,6.32a0.06,0.06,0,0,1,0,0l-10.79,10c-2.5,0-4.88-.12-7.16-0.32A31,31,0,0,0,217.75,147.12Zm-25.42,1.33a8.67,8.67,0,1,1,8.67-8.67A8.67,8.67,0,0,1,192.33,148.46Z"/><path class="cls-4" d="M180,156.12l0,0A0.06,0.06,0,0,0,180,156.12Z"/><path class="cls-4" d="M223.89,212c5,6.85,8.71,11.69,8.61,12.36-0.25,1.75-8.25,5.75-12.75,5.5-1.24-.07-3.9-4.29-7.08-10.35-7.88,7.07-12.67,16.38-12.67,26.6,0,14.33,9.42,26.89,23.57,34a56.26,56.26,0,0,0,11.15,4.14A61.5,61.5,0,0,0,250,286.12v-80A59.34,59.34,0,0,0,223.89,212Z"/><path class="cls-5" d="M219.75,229.87c4.5,0.25,12.5-3.75,12.75-5.5,0.1-.67-3.64-5.51-8.61-12.36-7.54-10.4-17.94-25.44-22.19-37.73a30.78,30.78,0,0,1-8.39,3.14c3,7.09,12.45,28.95,19.36,42.1C215.85,225.59,218.51,229.8,219.75,229.87Z"/><path class="cls-8" d="M134.82,355.29l0.1,0.25-0.08-.25h0Z"/><path class="cls-8" d="M192.85,372.35a5.38,5.38,0,0,1-3.89-4.23l1.16,10.62,6.91-7A5.35,5.35,0,0,1,192.85,372.35Z"/><path class="cls-3" d="M198.59,370.14l0,0v0.09l0,0v-0.09Z"/><path class="cls-3" d="M197,371.73a5.32,5.32,0,0,0,1.55-1.47v-0.09Z"/><path class="cls-8" d="M202.51,374.92a5.38,5.38,0,0,1-3.89-4.23l1.16,10.62,6.91-7A5.35,5.35,0,0,1,202.51,374.92Z"/><path class="cls-3" d="M206.69,374.29a5.32,5.32,0,0,0,1.55-1.47v-0.09Z"/><path class="cls-3" d="M208.23,372.73v0.09l0,0v-0.09Z"/><path class="cls-9" d="M198.85,369.86l0,0.06,0.06-.06h0Z"/><path class="cls-9" d="M198.59,370.14v0.09c0.07-.1.15-0.2,0.21-0.31Z"/><path class="cls-9" d="M198.89,369.69a7.62,7.62,0,0,0,.17-1.25,7.62,7.62,0,0,0-.47,1.17,2.56,2.56,0,0,1,0,.34v0.14l0.25-.26S198.89,369.69,198.89,369.69Z"/><path class="cls-8" d="M216.36,376.86a5.33,5.33,0,0,1-8.07-3.61l1.16,10.62Z"/><path class="cls-8" d="M218.18,375l0,0.06,0.06-.06h0Z"/><path class="cls-3" d="M218.14,375.06l-1.78,1.81A5.37,5.37,0,0,0,218.14,375.06Z"/><path class="cls-9" d="M212.64,356.26l-0.23.86h0.2A4.74,4.74,0,0,1,212.64,356.26Z"/><path class="cls-9" d="M215.72,352.35c0.12,0,.23-0.1.35-0.14Z"/><path class="cls-9" d="M221,353.27h0a4.9,4.9,0,0,0-4.77-1.11A5.46,5.46,0,0,1,221,353.27Z"/><path class="cls-9" d="M208.51,372.43l0,0.06,0.06-.06h0Z"/><path class="cls-9" d="M208.26,372.71v0.09c0.07-.1.15-0.2,0.21-0.31Z"/><path class="cls-9" d="M208.25,372.18a2.55,2.55,0,0,1,0,.34v0.14l0.25-.26s0.05-.14.06-0.14a7.63,7.63,0,0,0,.17-1.25A7.62,7.62,0,0,0,208.25,372.18Z"/><path class="cls-8" d="M234.27,370.13a5.38,5.38,0,0,1-5.43,1.88L239,375.18,235.35,366A5.35,5.35,0,0,1,234.27,370.13Z"/><path class="cls-8" d="M235.53,357.61l0.06,0-0.06-.06v0Z"/><path class="cls-3" d="M235.59,357.65l1.81,1.78A5.37,5.37,0,0,0,235.59,357.65Z"/><path class="cls-9" d="M216.07,352.21l0.15-.05Z"/><path class="cls-9" d="M221.64,354l0.09-.16-0.73-.58A4.7,4.7,0,0,1,221.64,354Z"/><path class="cls-9" d="M215.72,352.35a4.81,4.81,0,0,0-2.05,1.51,4.93,4.93,0,0,0-.89,1.73c0,0.15,0,.29-0.08.44A5.48,5.48,0,0,1,215.72,352.35Z"/><path class="cls-9" d="M212.7,356c0-.15,0-0.29.08-0.44a4.68,4.68,0,0,0-.14.67Z"/><path class="cls-9" d="M235.34,366l-1-2.4-0.1-.11a7.62,7.62,0,0,0-1.08-.65l-11.43-9-0.09.16a4.7,4.7,0,0,0-.65-0.74h0a5.46,5.46,0,0,0-4.77-1.11l-0.15.05c-0.12,0-.23.09-0.35,0.14a5.48,5.48,0,0,0-3,3.68l-0.06.17a4.83,4.83,0,0,0,0,.8h-0.2l0.23-.8a4.28,4.28,0,0,1,.14-0.64,5.52,5.52,0,0,0-.39-3.43,4.75,4.75,0,0,0-3.14-2.59,5.08,5.08,0,0,0-6.21,3.91,5,5,0,1,0-9.66-2.56l-4,15a7.63,7.63,0,0,0-.47,1.17,2.56,2.56,0,0,1,0,.34l0.06,0.69a5.4,5.4,0,0,0,3.88,4.26,5.34,5.34,0,0,0,4.18-.62l1.53-1.6,0,0V370a2.56,2.56,0,0,0,0-.34,7.62,7.62,0,0,1,.47-1.17,7.62,7.62,0,0,1-.17,1.25s0,0.12-.06.14l-0.25.26v0.05l0.22-.22,0-.06h0l-0.06.06c-0.06.11-.14,0.21-0.21,0.31l0,0.42a5.4,5.4,0,0,0,3.88,4.26,5.34,5.34,0,0,0,4.18-.62l1.53-1.6,0,0v-0.14a2.55,2.55,0,0,0,0-.34,7.62,7.62,0,0,1,.47-1.17,7.63,7.63,0,0,1-.17,1.25s0,0.12-.06.14l-0.25.26v0.05l0.22-.22,0-.06h0l-0.06.06c-0.06.11-.14,0.21-0.21,0.31l0,0.42a5.4,5.4,0,0,0,3.88,4.26,5.34,5.34,0,0,0,4.18-.62l1.8-1.88s0.05-.14.06-0.14a7.62,7.62,0,0,0,.17-1.25l2.11-7.95,6.45,5.09a7.61,7.61,0,0,0,.88.9,2.55,2.55,0,0,1,.31.15L228.8,372a5.4,5.4,0,0,0,5.45-1.87A5.34,5.34,0,0,0,235.34,366Z"/><path class="cls-1" d="M379.7,158.12a3.73,3.73,0,0,0-.11-1.27A0.75,0.75,0,0,1,379.7,158.12Z"/><path class="cls-2" d="M291.47,372.68l1.53,1.6a5.34,5.34,0,0,0,4.18.62,5.4,5.4,0,0,0,3.88-4.26l0-.42,0,0,0,0.43a5.33,5.33,0,0,1-8.07,3.61l-1.54-1.56v0Z"/><polygon class="cls-2" points="291.46 372.73 291.44 372.71 291.44 372.66 291.47 372.68 291.46 372.73"/><polygon class="cls-2" points="301.11 370.09 301.13 370.12 301.13 370.17 301.1 370.14 301.11 370.09"/><path class="cls-3" d="M269.7,309.62c0,5.1,12.3,31.41,17.61,42.53a5.57,5.57,0,0,0-.39,3.44,4.93,4.93,0,0,0-.89-1.73,4.81,4.81,0,0,0-2.05-1.51l-0.35-.14-0.15-.05a4.9,4.9,0,0,0-4.77,1.11l-0.73.58c-5.18-9.89-20.24-39-20-43,0.18-3.48,4.65-18.73,7-26.66a56.26,56.26,0,0,0,11.15-4.14C274,287.82,269.7,304.67,269.7,309.62Z"/><path class="cls-4" d="M343.94,147.45q0,0.82-.06,1.62c-0.34-.09-0.93-0.25-1.67-0.48A6.91,6.91,0,0,0,343.94,147.45Z"/><path class="cls-5" d="M339.51,131.13h0.19c4,0,7.27,4,7.27,9a9.8,9.8,0,0,1-3,7.31c0-.11,0-0.22,0-0.33A30.85,30.85,0,0,0,339.51,131.13Z"/><path class="cls-5" d="M342.21,148.59a6.91,6.91,0,0,0,1.73-1.14c0-.11,0-0.22,0-0.33a30.85,30.85,0,0,0-4.44-16c-3.93.13-7.08,4.1-7.08,9a11.15,11.15,0,0,0,.11,1.49,2.22,2.22,0,0,1,1.66,2C334.43,145.87,339.36,147.71,342.21,148.59Zm-2.51-11.68a2.88,2.88,0,1,1-2.87-2.87A2.88,2.88,0,0,1,339.7,136.91Z"/><path class="cls-6" d="M342.77,155.57c9-.3,18.84-0.53,26.16-0.26-3.86,2.66-14.63,9-31.25,10.5-2.28.2-4.66,0.32-7.16,0.32l-10.79-10C320.45,156.49,330.82,156,342.77,155.57Z"/><path class="cls-1" d="M342.77,155.57c-11.95.4-22.32,0.92-23,.6l0,0c0-1,1.33-6.17,5-6.32s3.5-3.68,3.83-6.18c0.22-1.63,2.41-2.47,4-2a2.22,2.22,0,0,1,1.66,2c0.24,2.25,5.16,4.09,8,5,0.74,0.23,1.33.39,1.67,0.48l0.32,0.08c29.85-2.77,34.66,4.62,35.39,7.7-1.25-.89-5.26-1.35-10.65-1.55C361.61,155,351.75,155.27,342.77,155.57Z"/><circle class="cls-7" cx="336.82" cy="136.91" r="2.88"/><path class="cls-5" d="M298.7,139.79a8.67,8.67,0,1,0,8.67-8.67A8.67,8.67,0,0,0,298.7,139.79Zm9.13-2.53a2.88,2.88,0,1,1,2.88,2.88A2.88,2.88,0,0,1,307.82,137.26Z"/><circle class="cls-7" cx="310.7" cy="137.26" r="2.88"/><path class="cls-4" d="M298,174.28a31,31,0,0,0,39.69-8.48c-2.28.2-4.66,0.32-7.16,0.32l-10.79-10a0.06,0.06,0,0,1,0,0c0-1,1.33-6.17,5-6.32s3.5-3.68,3.83-6.18c0.22-1.63,2.41-2.47,4-2a11.15,11.15,0,0,1-.11-1.49c0-4.9,3.15-8.88,7.08-9A31,31,0,1,0,298,174.28Zm0.7-34.49a8.67,8.67,0,1,1,8.67,8.67A8.67,8.67,0,0,1,298.7,139.79Z"/><path class="cls-4" d="M319.7,156.12l0,0A0.06,0.06,0,0,1,319.7,156.12Z"/><path class="cls-4" d="M276,212c-5,6.85-8.79,11.69-8.69,12.36,0.25,1.75,8.21,5.75,12.71,5.5,1.24-.07,3.88-4.29,7.06-10.35,7.88,7.07,12.66,16.38,12.66,26.6,0,14.33-9.43,26.89-23.58,34a54.88,54.88,0,0,1-11,4.14A62.3,62.3,0,0,1,250,286.12v-80A60.54,60.54,0,0,1,276,212Z"/><path class="cls-5" d="M279.95,229.87c-4.5.25-12.5-3.75-12.75-5.5-0.1-.67,3.64-5.51,8.61-12.36,7.54-10.4,17.94-25.44,22.19-37.73a30.78,30.78,0,0,0,8.39,3.14c-3,7.09-12.45,28.95-19.36,42.1C283.84,225.59,281.19,229.8,279.95,229.87Z"/><path class="cls-8" d="M364.87,355.29l-0.1.25,0.08-.25h0Z"/><path class="cls-8" d="M306.85,372.35a5.38,5.38,0,0,0,3.89-4.23l-1.16,10.62-6.91-7A5.35,5.35,0,0,0,306.85,372.35Z"/><path class="cls-3" d="M301.1,370.14l0,0v0.09l0,0v-0.09Z"/><path class="cls-3" d="M302.67,371.73a5.32,5.32,0,0,1-1.55-1.47v-0.09Z"/><path class="cls-8" d="M297.18,374.92a5.38,5.38,0,0,0,3.89-4.23l-1.16,10.62-6.91-7A5.35,5.35,0,0,0,297.18,374.92Z"/><path class="cls-3" d="M293,374.29a5.32,5.32,0,0,1-1.55-1.47v-0.09Z"/><path class="cls-3" d="M291.46,372.73v0.09l0,0v-0.09Z"/><path class="cls-9" d="M300.85,369.86l0,0.06-0.06-.06h0Z"/><path class="cls-9" d="M301.1,370.14v0.09c-0.07-.1-0.15-0.2-0.21-0.31Z"/><path class="cls-9" d="M300.8,369.69a7.62,7.62,0,0,1-.17-1.25,7.62,7.62,0,0,1,.47,1.17,2.56,2.56,0,0,0,0,.34v0.14l-0.25-.26S300.81,369.69,300.8,369.69Z"/><path class="cls-8" d="M283.34,376.86a5.33,5.33,0,0,0,8.07-3.61l-1.16,10.62Z"/><path class="cls-8" d="M281.52,375l0,0.06L281.5,375h0Z"/><path class="cls-3" d="M281.56,375.06l1.78,1.81A5.37,5.37,0,0,1,281.56,375.06Z"/><path class="cls-9" d="M287.05,356.26l0.23,0.86h-0.2A4.74,4.74,0,0,0,287.05,356.26Z"/><path class="cls-9" d="M284,352.35c-0.12,0-.23-0.1-0.35-0.14Z"/><path class="cls-9" d="M278.71,353.27h0a4.9,4.9,0,0,1,4.77-1.11A5.46,5.46,0,0,0,278.71,353.27Z"/><path class="cls-9" d="M291.18,372.43l0,0.06-0.06-.06h0Z"/><path class="cls-9" d="M291.44,372.71v0.09c-0.07-.1-0.15-0.2-0.21-0.31Z"/><path class="cls-9" d="M291.44,372.18a2.55,2.55,0,0,0,0,.34v0.14l-0.25-.26s-0.05-.14-0.06-0.14A7.63,7.63,0,0,1,291,371,7.62,7.62,0,0,1,291.44,372.18Z"/><path class="cls-8" d="M265.43,370.13a5.38,5.38,0,0,0,5.43,1.88l-10.21,3.16,3.69-9.13A5.35,5.35,0,0,0,265.43,370.13Z"/><path class="cls-8" d="M264.16,357.61l-0.06,0,0.06-.06v0Z"/><path class="cls-3" d="M264.1,357.65l-1.81,1.78A5.37,5.37,0,0,1,264.1,357.65Z"/><path class="cls-9" d="M283.63,352.21l-0.15-.05Z"/><path class="cls-9" d="M278.06,354l-0.09-.16,0.73-.58A4.7,4.7,0,0,0,278.06,354Z"/><path class="cls-9" d="M284,352.35a4.81,4.81,0,0,1,2.05,1.51,4.93,4.93,0,0,1,.89,1.73c0,0.15,0,.29.08,0.44A5.48,5.48,0,0,0,284,352.35Z"/><path class="cls-9" d="M287,356c0-.15,0-0.29-0.08-0.44a4.68,4.68,0,0,1,.14.67Z"/><path class="cls-9" d="M264.35,366l1-2.4,0.1-.11a7.62,7.62,0,0,1,1.08-.65l11.43-9,0.09,0.16a4.7,4.7,0,0,1,.65-0.74h0a5.46,5.46,0,0,1,4.77-1.11l0.15,0.05c0.12,0,.23.09,0.35,0.14a5.48,5.48,0,0,1,3,3.68l0.06,0.17a4.83,4.83,0,0,1,0,.8h0.2l-0.23-.8a4.28,4.28,0,0,0-.14-0.64,5.52,5.52,0,0,1,.39-3.43,4.75,4.75,0,0,1,3.14-2.59,5.08,5.08,0,0,1,6.21,3.91,5,5,0,1,1,9.66-2.56l4,15a7.63,7.63,0,0,1,.47,1.17,2.56,2.56,0,0,0,0,.34l-0.06.69a5.4,5.4,0,0,1-3.88,4.26,5.34,5.34,0,0,1-4.18-.62l-1.53-1.6,0,0V370a2.56,2.56,0,0,1,0-.34,7.62,7.62,0,0,0-.47-1.17,7.62,7.62,0,0,0,.17,1.25s0,0.12.06,0.14l0.25,0.26v0.05l-0.22-.22,0-.06h0l0.06,0.06c0.06,0.11.14,0.21,0.21,0.31l0,0.42a5.4,5.4,0,0,1-3.88,4.26,5.34,5.34,0,0,1-4.18-.62l-1.53-1.6,0,0v-0.14a2.55,2.55,0,0,1,0-.34A7.62,7.62,0,0,0,291,371a7.63,7.63,0,0,0,.17,1.25s0,0.12.06,0.14l0.25,0.26v0.05l-0.22-.22,0-.06h0l0.06,0.06c0.06,0.11.14,0.21,0.21,0.31l0,0.42a5.4,5.4,0,0,1-3.88,4.26,5.34,5.34,0,0,1-4.18-.62l-1.8-1.88s-0.05-.14-0.06-0.14a7.62,7.62,0,0,1-.17-1.25l-2.11-7.95-6.45,5.09a7.61,7.61,0,0,1-.88.9,2.55,2.55,0,0,0-.31.15l-0.66.22a5.4,5.4,0,0,1-5.45-1.87A5.34,5.34,0,0,1,264.35,366Z"/><g class="cls-10"><path class="cls-5" d="M379.58,156.85a3.73,3.73,0,0,1,.11,1.27A0.75,0.75,0,0,0,379.58,156.85Z"/><path class="cls-5" d="M344.2,149.15l-0.32-.08q0.05-.81.06-1.62a9.8,9.8,0,0,0,3-7.31c0-5-3.25-9-7.27-9h-0.19A31,31,0,1,0,298,174.28c-4.25,12.26-14.61,27.28-22.15,37.67A60.57,60.57,0,0,0,250,206.12v80a62.32,62.32,0,0,0,15-1.87c-2.39,7.94-6.84,23.15-7,26.62-0.21,3.93,14.85,33.09,20,43l-11.43,9a7.62,7.62,0,0,0-1.08.65l-0.1.11-1,2.4a5.34,5.34,0,0,0,1.09,4.08,5.4,5.4,0,0,0,5.45,1.87l0.66-.22a2.55,2.55,0,0,1,.31-0.15,7.61,7.61,0,0,0,.88-0.9l6.45-5.09,2.11,7.95a7.62,7.62,0,0,0,.17,1.25s0,0.12.06,0.14l1.8,1.88a5.34,5.34,0,0,0,4.18.62,5.4,5.4,0,0,0,3.88-4.26l0-.42,0,0a5.32,5.32,0,0,0,1.55,1.47l6.91,7,1.16-10.62,0-.43a5.32,5.32,0,0,0,1.55,1.47l-1.54-1.56v-0.05l1.53,1.6a5.34,5.34,0,0,0,4.18.62,5.4,5.4,0,0,0,3.88-4.26l0.06-.69a2.55,2.55,0,0,1,0-.34,7.63,7.63,0,0,0-.47-1.17l-4-15a5,5,0,1,0-9.66,2.57,5.08,5.08,0,0,0-6.21-3.91,4.76,4.76,0,0,0-3.14,2.6C282,341,269.7,314.72,269.7,309.62s4.35-21.8,6.43-29.54h0c14.15-7.06,23.58-19.63,23.58-34,0-10.21-4.78-19.47-12.66-26.54C283.86,225.65,281.23,230,280,230h0c1.24,0,3.9-4.35,7.08-10.41,6.91-13.16,16.34-35,19.36-42.13a31.11,31.11,0,0,0,31.3-11.65c16.61-1.49,27.39-7.84,31.25-10.5,5.4,0.19,9.41.65,10.65,1.55C378.85,153.77,374,146.38,344.2,149.15Z"/><path class="cls-5" d="M364.78,355.54l0.1-.25h0Z"/><path class="cls-5" d="M310.74,368.12a5.33,5.33,0,0,1-8.07,3.61l6.91,7Z"/><path class="cls-5" d="M287.52,377.49a5.35,5.35,0,0,1-4.18-.63l6.91,7,1.16-10.62A5.38,5.38,0,0,1,287.52,377.49Z"/><path class="cls-5" d="M281.5,375l0.06,0.06,0-.06h0Z"/><path class="cls-5" d="M283.34,376.86l-1.78-1.81A5.37,5.37,0,0,0,283.34,376.86Z"/><path class="cls-5" d="M265.43,370.13a5.35,5.35,0,0,1-1.09-4.09l-3.69,9.13L270.86,372A5.38,5.38,0,0,1,265.43,370.13Z"/><path class="cls-5" d="M264.16,357.6l-0.06.06,0.06,0v0Z"/><path class="cls-5" d="M262.3,359.43l1.81-1.78A5.37,5.37,0,0,0,262.3,359.43Z"/></g><path class="cls-4" d="M186.25,465.94V465h5.63v1.88h1.88v1.88h1.88v5.63h-1.87v1.88h-1.87v1.88h-5.62v-1.87h-1.87v-1.87H182.5v-5.62h1.88v-1.87h1.88v-0.94Zm3.75,1.88v-0.94h-3.75v7.5h1.88v1.88h3.75v-7.5H190v-0.94Z"/><path class="cls-4" d="M199.38,465.94V465h7.5v1.88h1.88v3.75h-1.87v1.88h3.75v3.75h-1.87v1.88h-9.37v-1.87H197.5V472.5h1.88v-1.87H197.5v-3.75h1.88v-0.94Zm3.75,7.5V472.5h-3.75v3.75h7.5v-1.87h-3.75v-0.94Zm3.75-4.69v-1.87h-5.62v1.88h1.88v1.88h3.75v-1.87Z"/><path class="cls-4" d="M218.13,465.94V465h5.63v7.5h1.88v1.88h-1.87v3.75H220v-3.75h-7.5v-3.75h1.88v-1.87h1.88v-1.87h1.88v-0.94Zm1.88,4.69v-1.87h-1.87v1.88h-1.87v1.88H220v-1.87Z"/><path class="cls-4" d="M242.5,471.56V465h9.38v1.88h1.88v1.88h1.88v5.63h-1.87v1.88h-1.87v1.88H242.5v-6.56Zm7.5-3.75v-0.94h-3.75v9.38H250v-1.87h1.88v-5.62H250v-0.94Z"/><path class="cls-4" d="M259.38,465.94V465h9.38v1.88h1.88v9.38h-1.87v1.88h-9.37v-1.87H257.5v-9.37h1.88v-0.94Zm7.5,5.63v-4.69h-5.62v9.38h5.63v-4.69Z"/><path class="cls-4" d="M272.5,471.56V465h9.38v1.88h1.88v1.88h1.88v5.63h-1.87v1.88h-1.87v1.88H272.5v-6.56Zm7.5-3.75v-0.94h-3.75v9.38H280v-1.87h1.88v-5.62H280v-0.94Z"/><path class="cls-4" d="M287.5,470.63V465h3.75v11.25h5.63V465h3.75v11.25h-1.87v1.88h-9.37v-1.87H287.5v-5.62Z"/><path class="cls-4" d="M304.38,465.94V465h9.38v1.88h1.88v9.38h-1.87v1.88h-9.37v-1.87H302.5v-9.37h1.88v-0.94Zm7.5,5.63v-4.69h-5.62v9.38h5.63v-4.69Z"/></svg>