<?xml version="1.0" ?><svg id="pkft" viewBox="0 0 500 500" xmlns="http://www.w3.org/2000/svg"><defs><style>.cls-1{fill:none;}.cls-2{fill:#333;}.cls-3{fill:#be9c59;}.cls-4{fill:#152139;}.cls-5{fill:#cf7100;}.cls-6{fill:#fff;}.cls-12,.cls-7{fill:#1a1a1a;}.cls-8{fill:#e48094;}.cls-9{fill:#fff3c2;}.cls-10{fill:#4d4d4d;}.cls-11{fill:#e1d8ad;}.cls-12{opacity:0.1;}</style></defs><title/><path class="cls-1" d="M186.35,118.73A30,30,0,0,1,220,148.5a29.85,29.85,0,0,1-3.85,14.69c3,8.65-6.36,30.81-8.18,36.81-1.21,4,3.27,8,7.1,10.59a45.56,45.56,0,0,1,31.34-16.1c-1.75-12.33-3.82-26.79-5.47-37.76a33,33,0,0,1-3.41-62.29c-1.68-2.06-3.42-4.33-5.18-6.76C220.73,100.81,198.94,112.6,186.35,118.73Z"/><path class="cls-1" d="M193.19,105.7c10-7.25,24.71-17.27,34.94-24.2q-1.5-2.33-2.94-4.8C215.6,85.52,202.46,97.54,193.19,105.7Z"/><path class="cls-2" d="M232.35,87.68c-1.41-2-2.83-4-4.22-6.19-10.23,6.93-24.91,17-34.94,24.2,9.26-8.16,22.4-20.17,32-29q-1.29-2.22-2.5-4.54c-14.07,7.93-34.51,23.23-45.19,49.07a29.77,29.77,0,0,1,8.84-2.49C198.94,112.6,220.73,100.81,232.35,87.68Z"/><path class="cls-2" d="M240,73.5l-3.37,2.26c0.7,1,1.35,1.82,1.95,2.58A19.63,19.63,0,0,0,240,73.5Z"/><path class="cls-2" d="M237.67,65.17s-2.47.82-6.46,2.64l1.37,2.08Z"/><path class="cls-3" d="M208,200c1.83-6,11.17-28.16,8.18-36.81a30.12,30.12,0,0,1-12.53,12c-3.89,7.94-10.19,22.86-6.62,29.77,3.08,5.95,7.29,14,10.07,19.39a45.61,45.61,0,0,1,8-13.79C211.24,208,206.76,204,208,200Z"/><path class="cls-4" d="M223.06,285.85c2.29,2.6,8.29,7.26,9.28,9.57a1.56,1.56,0,0,1,.16.58c0,2,2.5,0,2.5,0l1.75,0.89,1.77-2.14,1.48,2.14,0.94-2.64a17,17,0,0,0,4.6-8.8,45.42,45.42,0,0,1-23.32-9.21C221.84,280,221.73,284.35,223.06,285.85Z"/><path class="cls-5" d="M215.07,210.59a45.67,45.67,0,0,0,30.47,74.85c1.47,0.14,3,.22,4.45.22V220s-1.58-11.35-3.58-25.51A45.56,45.56,0,0,0,215.07,210.59Z"/><path class="cls-5" d="M214.67,160.83a5.4,5.4,0,0,1,1.49,2.36A30,30,0,0,0,190,118.5a30.25,30.25,0,0,0-3.65.23c-5.78,2.82-9.62,4.44-9.62,4.44q0.38-1,.78-1.95a30,30,0,0,0-17.38,24.59c0.92-.08,1.37-0.17,1.37-0.17,1.5,1.47,7.17,22.86,7.17,22.86a3.88,3.88,0,0,0-.86.19,30,30,0,0,0,35.81,6.54c1.55-3.17,2.71-5.23,2.71-5.23Zm-42.82-19.39,1.4-1.09c2-1.48,4.45-3.25,7.58-5.35l5.33,7.33S156.12,154,171.85,141.44Z"/><path class="cls-5" d="M186.35,118.73a29.77,29.77,0,0,0-8.84,2.49q-0.4,1-.78,1.95S180.57,121.54,186.35,118.73Z"/><path class="cls-4" d="M216.15,163.19a5.4,5.4,0,0,0-1.49-2.36L206.33,170s-1.17,2.06-2.71,5.23A30.12,30.12,0,0,0,216.15,163.19Z"/><path class="cls-6" d="M173.25,140.35c0.19,0.27.38,0.55,0.58,0.84,1.42,2.16,2.23,4.14,1.82,4.41s-1.91-1.26-3.33-3.42c-0.16-.25-0.32-0.5-0.47-0.74-15.73,12.54,14.32.89,14.32,0.89L180.83,135C177.7,137.1,175.2,138.87,173.25,140.35Z"/><path class="cls-7" d="M175.64,145.6c0.42-.27-0.4-2.25-1.82-4.41-0.19-.29-0.39-0.57-0.58-0.84l-1.4,1.09c0.15,0.24.3,0.49,0.47,0.74C173.73,144.35,175.22,145.88,175.64,145.6Z"/><path class="cls-8" d="M156.71,160c-2.07-.7-27.85,20.83-21.37,20.67s20.9-13.84,20.9-13.84v0c1.43-3.55,2.43-6,2.43-6Z"/><path class="cls-9" d="M161.5,145.64s-0.45.09-1.37,0.17c-3.58.33-14.36,0.59-34.63-4.68-25.5-6.63-35.17,1.29-35.5,2.42,0,0,26.48-.68,66.71,16.45h0l1.93,0.83-2.43,6c-3.53,8.77-9.72,24.44-10.07,27.53-0.5,4.33-6.17,19.17-6.17,19.17a77.4,77.4,0,0,0,16-27.83c4.23-13.36,9.72-16.32,11.81-17a3.88,3.88,0,0,1,.86-0.19S163,147.11,161.5,145.64Z"/><path class="cls-9" d="M156.73,160h0l2,0.83Z"/><path class="cls-9" d="M156.24,166.8l2.43-6S157.67,163.26,156.24,166.8Z"/><path class="cls-5" d="M237.53,94.44a33,33,0,0,0,3.41,62.29c-1.23-8.17-2.22-14.41-2.66-16.38-1.72-7.65,11.72-13.23,11.72-13.23V108A136.55,136.55,0,0,1,237.53,94.44ZM242.75,128c-4.25,1.25-13.25-1.25-12.75-3.75s0-8,0-8,4.49,2.78,8.28,5.64c0.56,0.43,1.11.85,1.63,1.27C242.67,125.43,244.49,127.49,242.75,128Z"/><path class="cls-5" d="M246.75,92.16C248.72,99.54,250,108,250,108V92C248.9,92,247.82,92.06,246.75,92.16Z"/><path class="cls-6" d="M239.91,123.17c-0.14,2.34-.44,4-0.78,4s-0.74-2.22-.84-5.23c-3.79-2.87-8.28-5.64-8.28-5.64s0.5,5.5,0,8,8.5,5,12.75,3.75C244.49,127.49,242.67,125.43,239.91,123.17Z"/><path class="cls-7" d="M239.13,127.13c0.34,0,.64-1.61.78-4-0.51-.42-1.06-0.85-1.63-1.27C238.38,124.91,238.72,127.13,239.13,127.13Z"/><path class="cls-10" d="M246.75,92.16c-1.4-5.24-3.13-9.93-5-10.66-0.67-.26-1.78-1.41-3.17-3.16-0.6-.75-1.25-1.62-1.95-2.58-1.24-1.71-2.61-3.71-4.06-5.88l-1.37-2.08c-8.23-12.6-18-29.31-18-29.31,0.16,11.94,4.15,23.5,9.45,33.65q1.21,2.32,2.5,4.54,1.44,2.47,2.94,4.8c1.39,2.16,2.81,4.23,4.22,6.19,1.76,2.43,3.51,4.7,5.18,6.76A136.55,136.55,0,0,0,250,108S248.72,99.54,246.75,92.16Z"/><path class="cls-9" d="M246.42,194.49c1.18-.09,2.38-0.16,3.58-0.16V158a33,33,0,0,1-9.06-1.27C242.59,167.7,244.67,182.16,246.42,194.49Z"/><path class="cls-9" d="M250,220V194.33c-1.21,0-2.4.06-3.58,0.16C248.42,208.65,250,220,250,220Z"/><path class="cls-9" d="M238.28,140.35c0.44,2,1.43,8.21,2.66,16.38A33,33,0,0,0,250,158V127.13S236.56,132.71,238.28,140.35Z"/><path class="cls-11" d="M183.38,382.39s-9.88,6.86-8.38,8.86a14.86,14.86,0,0,1,10.69-1.82C182.7,388.09,182.7,384.86,183.38,382.39Z"/><path class="cls-11" d="M193.36,401.58c-1.51,3-4.39,9.22-2.71,10.07,0,0,3-5.7,11.07-6.92l-0.28-.18c-2.38,0-4.4-1.09-7.11-2.22A2,2,0,0,1,193.36,401.58Z"/><path class="cls-11" d="M231.42,404.59c0.36,2.27,1.92,11.35,4.08,11A14.9,14.9,0,0,1,238.8,405,23,23,0,0,1,231.42,404.59Z"/><path class="cls-3" d="M188,390a18,18,0,0,0-2.31-.57A7.32,7.32,0,0,0,188,390Z"/><path class="cls-11" d="M245.55,385a25.21,25.21,0,0,0-3.33-4.09,23.3,23.3,0,0,1-1.68,4.09h5Z"/><path class="cls-3" d="M238.52,294.75l-1.77,2.14L235,296s-2.5,2-2.5,0a1.56,1.56,0,0,0-.16-0.58c0.86,4.84,1.88,11.35,1.41,12.58C233,310,220,370,220,370s-34.33,7.67-35.67,10a10.72,10.72,0,0,0-1,2.39c-0.68,2.47-.68,5.7,2.31,7A18,18,0,0,1,188,390c7,0.67,34-10,34-10s-31.54,16.82-28.61,21.58a2,2,0,0,0,1,.75c2.71,1.13,4.73,2.18,7.11,2.22,4.64,0.07,10.63-3.73,25.72-18.38,0,0-1.36,17.27,4.07,18.39l0.18,0a23,23,0,0,0,7.38.42c2-.29,3.41-1,3.67-2.34s-2.22-9.5-4.6-16.67H240s0.23-.39.54-1a23.3,23.3,0,0,0,1.68-4.09c0.09-.31.16-0.61,0.22-0.91,0.3-1.6-4.31-5.62-8-8.57,2.37-13.21,11.69-67.46,6.54-77.18L240,296.89Z"/><path class="cls-1" d="M313.65,118.73A30,30,0,0,0,280,148.5a29.85,29.85,0,0,0,3.85,14.69c-3,8.65,6.36,30.81,8.18,36.81,1.21,4-3.27,8-7.1,10.59a45.56,45.56,0,0,0-31.34-16.1c1.75-12.33,3.82-26.79,5.47-37.76a33,33,0,0,0,3.41-62.29c1.68-2.06,3.42-4.33,5.18-6.76C279.27,100.81,301.06,112.6,313.65,118.73Z"/><path class="cls-1" d="M306.81,105.7c-10-7.25-24.71-17.27-34.94-24.2q1.5-2.33,2.94-4.8C284.4,85.52,297.54,97.54,306.81,105.7Z"/><path class="cls-2" d="M267.65,87.68c1.41-2,2.83-4,4.22-6.19,10.23,6.93,24.91,17,34.94,24.2-9.26-8.16-22.4-20.17-32-29q1.29-2.22,2.5-4.54c14.07,7.93,34.51,23.23,45.19,49.07a29.77,29.77,0,0,0-8.84-2.49C301.06,112.6,279.27,100.81,267.65,87.68Z"/><path class="cls-2" d="M260,73.5l3.37,2.26c-0.7,1-1.35,1.82-1.95,2.58A19.63,19.63,0,0,1,260,73.5Z"/><path class="cls-2" d="M262.33,65.17s2.47,0.82,6.46,2.64l-1.37,2.08Z"/><path class="cls-3" d="M292,200c-1.83-6-11.17-28.16-8.18-36.81a30.12,30.12,0,0,0,12.53,12c3.89,7.94,10.19,22.86,6.62,29.77-3.08,5.95-7.29,14-10.07,19.39a45.61,45.61,0,0,0-8-13.79C288.76,208,293.24,204,292,200Z"/><path class="cls-4" d="M276.94,285.85c-2.29,2.6-8.29,7.26-9.28,9.57a3.32,3.32,0,0,0-.16.58c0,2-2.5,0-2.5,0l-1.75.89-1.77-2.14L260,296.89l-0.94-2.64a17,17,0,0,1-4.6-8.8,45.42,45.42,0,0,0,23.32-9.21C278.16,280,278.27,284.35,276.94,285.85Z"/><path class="cls-5" d="M284.93,210.59a45.67,45.67,0,0,1-30.47,74.85c-1.47.14-3,.22-4.45,0.22V220s1.58-11.35,3.58-25.51A45.56,45.56,0,0,1,284.93,210.59Z"/><path class="cls-5" d="M293.67,170s1.17,2.06,2.71,5.23a30,30,0,0,0,35.81-6.54,3.88,3.88,0,0,0-.86-0.19s5.67-21.39,7.17-22.86c0,0,.45.09,1.37,0.17a30,30,0,0,0-17.38-24.59q0.4,1,.78,1.95s-3.84-1.62-9.62-4.44A30,30,0,0,0,280,148.5a29.85,29.85,0,0,0,3.85,14.69,5.4,5.4,0,0,1,1.49-2.36Zm20.17-27.67,5.33-7.33c3.13,2.1,5.63,3.87,7.58,5.35l1.4,1.09C343.88,154,313.83,142.33,313.83,142.33Z"/><path class="cls-5" d="M313.65,118.73a29.77,29.77,0,0,1,8.84,2.49q0.4,1,.78,1.95S319.43,121.54,313.65,118.73Z"/><path class="cls-4" d="M283.85,163.19a5.4,5.4,0,0,1,1.49-2.36l8.33,9.17s1.17,2.06,2.71,5.23A30.12,30.12,0,0,1,283.85,163.19Z"/><path class="cls-6" d="M326.75,140.35c-0.19.27-.38,0.55-0.58,0.84-1.42,2.16-2.23,4.14-1.82,4.41s1.91-1.26,3.33-3.42c0.16-.25.32-0.5,0.47-0.74,15.73,12.54-14.32.89-14.32,0.89l5.33-7.33C322.3,137.1,324.8,138.87,326.75,140.35Z"/><path class="cls-7" d="M324.36,145.6c-0.42-.27.4-2.25,1.82-4.41,0.19-.29.39-0.57,0.58-0.84l1.4,1.09c-0.15.24-.3,0.49-0.47,0.74C326.27,144.35,324.78,145.88,324.36,145.6Z"/><path class="cls-8" d="M343.29,160c2.07-.7,27.85,20.83,21.37,20.67s-20.9-13.84-20.9-13.84v0c-1.43-3.55-2.43-6-2.43-6Z"/><path class="cls-9" d="M338.5,145.64s0.45,0.09,1.37.17c3.58,0.33,14.36.59,34.63-4.68,25.5-6.63,35.17,1.29,35.5,2.42,0,0-26.48-.68-66.71,16.45h0l-1.93.83,2.43,6c3.53,8.77,9.72,24.44,10.07,27.53,0.5,4.33,6.17,19.17,6.17,19.17a77.4,77.4,0,0,1-16-27.83c-4.23-13.36-9.72-16.32-11.81-17a3.88,3.88,0,0,0-.86-0.19S337,147.11,338.5,145.64Z"/><path class="cls-9" d="M343.27,160h0l-2,.83Z"/><path class="cls-9" d="M343.76,166.8l-2.43-6S342.33,163.26,343.76,166.8Z"/><path class="cls-5" d="M250,108v19.13s13.44,5.58,11.72,13.23c-0.44,2-1.43,8.21-2.66,16.38a33,33,0,0,0,3.41-62.29A136.55,136.55,0,0,1,250,108Zm10.09,15.17c0.51-.42,1.06-0.85,1.63-1.27,3.79-2.87,8.28-5.64,8.28-5.64s-0.5,5.5,0,8-8.5,5-12.75,3.75C255.51,127.49,257.33,125.43,260.09,123.17Z"/><path class="cls-5" d="M253.25,92.16C251.28,99.54,250,108,250,108V92C251,92,252.18,92.06,253.25,92.16Z"/><path class="cls-6" d="M260.09,123.17c0.14,2.34.44,4,.78,4s0.74-2.22.84-5.23c3.79-2.87,8.28-5.64,8.28-5.64s-0.5,5.5,0,8-8.5,5-12.75,3.75C255.51,127.49,257.33,125.43,260.09,123.17Z"/><path class="cls-7" d="M260.88,127.13c-0.34,0-.64-1.61-0.78-4,0.51-.42,1.06-0.85,1.63-1.27C261.62,124.91,261.28,127.13,260.88,127.13Z"/><path class="cls-10" d="M253.25,92.16c1.4-5.24,3.13-9.93,5-10.66,0.67-.26,1.78-1.41,3.17-3.16,0.6-.75,1.25-1.62,1.95-2.58,1.24-1.71,2.61-3.71,4.06-5.88l1.37-2.08c8.23-12.6,18-29.31,18-29.31-0.16,11.94-4.15,23.5-9.45,33.65q-1.21,2.32-2.5,4.54-1.44,2.47-2.94,4.8c-1.39,2.16-2.81,4.23-4.22,6.19-1.76,2.43-3.51,4.7-5.18,6.76A136.55,136.55,0,0,1,250,108S251.28,99.54,253.25,92.16Z"/><path class="cls-9" d="M253.58,194.49c-1.18-.09-2.58-0.16-3.58-0.16V158a33.78,33.78,0,0,0,9.06-1.27C257.41,167.7,255.33,182.16,253.58,194.49Z"/><path class="cls-9" d="M250,220V194.33c1,0,2.4.06,3.58,0.16C251.58,208.65,250,220,250,220Z"/><path class="cls-9" d="M261.72,140.35c-0.44,2-1.43,8.21-2.66,16.38A33.78,33.78,0,0,1,250,158V127.13S263.44,132.71,261.72,140.35Z"/><path class="cls-11" d="M316.62,382.39s9.88,6.86,8.38,8.86a14.86,14.86,0,0,0-10.69-1.82C317.3,388.09,317.3,384.86,316.62,382.39Z"/><path class="cls-11" d="M306.64,401.58c1.51,3,4.39,9.22,2.71,10.07,0,0-3-5.7-11.07-6.92l0.28-.18c2.38,0,4.4-1.09,7.11-2.22A2,2,0,0,0,306.64,401.58Z"/><path class="cls-11" d="M268.58,404.59c-0.36,2.27-1.92,11.35-4.08,11A14.9,14.9,0,0,0,261.2,405,23,23,0,0,0,268.58,404.59Z"/><path class="cls-3" d="M312,390a18,18,0,0,1,2.31-.57A7.32,7.32,0,0,1,312,390Z"/><path class="cls-11" d="M254.45,385a25.21,25.21,0,0,1,3.33-4.09,23.63,23.63,0,0,0,1.68,4.09h-5Z"/><path class="cls-3" d="M261.48,294.75l1.77,2.14L265,296s2.5,2,2.5,0a3.32,3.32,0,0,1,.16-0.58c-0.86,4.84-1.88,11.35-1.41,12.58C267,310,280,370,280,370s34.33,7.67,35.67,10a10.72,10.72,0,0,1,1,2.39c0.68,2.47.68,5.7-2.31,7A18,18,0,0,0,312,390c-7,.67-34-10-34-10s31.54,16.82,28.61,21.58a2,2,0,0,1-1,.75c-2.71,1.13-4.73,2.18-7.11,2.22-4.64.07-10.63-3.73-25.72-18.38,0,0,1.36,17.27-4.07,18.39l-0.18,0a23,23,0,0,1-7.38.42c-2-.29-3.41-1-3.67-2.34s2.22-9.67,4.6-16.67H260s-0.23-.39-0.54-1a23.3,23.3,0,0,1-1.68-4.09c-0.09-.31-0.16-0.61-0.22-0.91-0.3-1.6,4.31-5.62,8-8.57-2.37-13.21-11.69-67.46-6.54-77.18l0.94,2.64Z"/><path class="cls-12" d="M274.81,76.69q-1.44,2.47-2.94,4.8c10.23,6.93,24.91,17,34.94,24.2C297.54,97.54,284.4,85.52,274.81,76.69Z"/><path class="cls-12" d="M306.81,105.7c-10-7.25-24.71-17.27-34.94-24.2-1.39,2.16-2.81,4.23-4.22,6.19,11.62,13.12,33.42,24.92,46,31a29.77,29.77,0,0,1,8.84,2.49c-10.67-25.84-31.12-41.14-45.19-49.07q-1.21,2.32-2.5,4.54C284.4,85.52,297.54,97.54,306.81,105.7Z"/><path class="cls-12" d="M260,73.5a19.63,19.63,0,0,0,1.42,4.84c0.6-.75,1.25-1.62,1.95-2.58Z"/><path class="cls-12" d="M262.33,65.17l5.1,4.72,1.37-2.08C264.81,66,262.33,65.17,262.33,65.17Z"/><path class="cls-12" d="M283.85,163.19c-3,8.65,6.36,30.81,8.18,36.81,1.21,4-3.27,8-7.1,10.59a45.61,45.61,0,0,1,8,13.79c2.79-5.35,7-13.44,10.07-19.39,3.58-6.91-2.73-21.83-6.62-29.77A30.12,30.12,0,0,1,283.85,163.19Z"/><path class="cls-12" d="M259.06,294.25l0.94,2.64,1.48-2.14,1.77,2.14L265,296s2.5,2,2.5,0a3.32,3.32,0,0,1,.16-0.58c1-2.3,7-7,9.28-9.57,1.33-1.51,1.23-5.87.84-9.62a45.42,45.42,0,0,1-23.32,9.21A17,17,0,0,0,259.06,294.25Z"/><path class="cls-12" d="M253.58,194.49C251.58,208.65,250,220,250,220v65.67c1.5,0,3-.08,4.45-0.22A45.66,45.66,0,0,0,253.58,194.49Z"/><path class="cls-12" d="M338.5,145.64s0.45,0.09,1.37.17a30,30,0,0,0-17.38-24.59q0.4,1,.78,1.95s-3.84-1.62-9.62-4.44A30,30,0,0,0,280,148.5a29.85,29.85,0,0,0,3.85,14.69,5.4,5.4,0,0,1,1.49-2.36l8.33,9.17s1.17,2.06,2.71,5.23a30,30,0,0,0,35.81-6.54,3.88,3.88,0,0,0-.86-0.19S337,147.11,338.5,145.64Zm-24.67-3.3,5.33-7.33c3.13,2.1,5.63,3.87,7.58,5.35l1.4,1.09C343.88,154,313.83,142.33,313.83,142.33Z"/><path class="cls-12" d="M323.27,123.17q-0.38-1-.78-1.95a29.77,29.77,0,0,0-8.84-2.49C319.43,121.54,323.27,123.17,323.27,123.17Z"/><path class="cls-12" d="M285.33,160.83a5.4,5.4,0,0,0-1.49,2.36,30.12,30.12,0,0,0,12.53,12c-1.55-3.17-2.71-5.23-2.71-5.23Z"/><path class="cls-12" d="M328.15,141.44c-0.15.24-.3,0.49-0.47,0.74-1.42,2.16-2.91,3.7-3.33,3.42s0.4-2.25,1.82-4.41c0.19-.29.39-0.57,0.58-0.84-2-1.48-4.45-3.25-7.58-5.35l-5.33,7.33S343.88,154,328.15,141.44Z"/><path class="cls-12" d="M324.36,145.6c0.42,0.27,1.91-1.26,3.33-3.42,0.16-.25.32-0.5,0.47-0.74l-1.4-1.09c-0.19.27-.38,0.55-0.58,0.84C324.75,143.35,323.94,145.33,324.36,145.6Z"/><path class="cls-12" d="M343.76,166.8v0s14.4,13.67,20.9,13.84S345.37,159.3,343.29,160l-2,.83S342.33,163.26,343.76,166.8Z"/><path class="cls-12" d="M410,143.54c-0.33-1.12-10-9-35.5-2.42-20.27,5.27-31.05,5-34.63,4.68-0.92-.08-1.37-0.17-1.37-0.17-1.5,1.47-7.17,22.86-7.17,22.86a3.88,3.88,0,0,1,.86.19c2.09,0.66,7.58,3.62,11.81,17a77.4,77.4,0,0,0,16,27.83s-5.67-14.83-6.17-19.17c-0.36-3.09-6.54-18.76-10.07-27.53l-2.43-6,1.93-.83h0C383.52,142.87,410,143.54,410,143.54Z"/><path class="cls-12" d="M341.33,160.83l2-.83h0Z"/><path class="cls-12" d="M343.76,166.8c-1.43-3.55-2.43-6-2.43-6Z"/><path class="cls-12" d="M261.72,140.35c-0.44,2-1.43,8.21-2.66,16.38a33,33,0,0,0,3.41-62.29A136.55,136.55,0,0,1,250,108v19.13S263.44,132.71,261.72,140.35Zm-1.63-17.18c0.51-.42,1.06-0.85,1.63-1.27,3.79-2.87,8.28-5.64,8.28-5.64s-0.5,5.5,0,8-8.5,5-12.75,3.75C255.51,127.49,257.33,125.43,260.09,123.17Z"/><path class="cls-12" d="M250,92v16s1.28-8.46,3.25-15.84C252.18,92.06,251,92,250,92Z"/><path class="cls-12" d="M270,124.25c-0.5-2.5,0-8,0-8s-4.49,2.78-8.28,5.64c-0.1,3-.44,5.23-0.84,5.23s-0.64-1.61-.78-4c-2.76,2.26-4.58,4.32-2.84,4.83C261.5,129.25,270.5,126.75,270,124.25Z"/><path class="cls-12" d="M260.88,127.13c0.4,0,.74-2.22.84-5.23-0.56.43-1.11,0.85-1.63,1.27C260.24,125.51,260.53,127.13,260.88,127.13Z"/><path class="cls-12" d="M262.47,94.44c1.68-2.06,3.42-4.33,5.18-6.76,1.41-2,2.83-4,4.22-6.19q1.5-2.33,2.94-4.8,1.29-2.22,2.5-4.54c5.29-10.15,9.28-21.71,9.45-33.65,0,0-9.72,16.71-18,29.31l-1.37,2.08c-1.44,2.17-2.82,4.17-4.06,5.88-0.7,1-1.35,1.82-1.95,2.58-1.4,1.75-2.5,2.9-3.17,3.16-1.87.73-3.61,5.42-5,10.66C251.28,99.54,250,108,250,108A136.55,136.55,0,0,0,262.47,94.44Z"/><path class="cls-12" d="M259.06,156.73A33.78,33.78,0,0,1,250,158v36.33c1,0,2.4.06,3.58,0.16C255.33,182.16,257.41,167.7,259.06,156.73Z"/><path class="cls-12" d="M250,194.33V220s1.58-11.35,3.58-25.51C252.4,194.4,251,194.33,250,194.33Z"/><path class="cls-12" d="M261.72,140.35c1.72-7.65-11.72-13.23-11.72-13.23V158a33.78,33.78,0,0,0,9.06-1.27C260.28,148.56,261.28,142.32,261.72,140.35Z"/><path class="cls-12" d="M314.31,389.43A14.86,14.86,0,0,1,325,391.25c1.5-2-8.38-8.86-8.38-8.86C317.3,384.86,317.3,388.09,314.31,389.43Z"/><path class="cls-11" d="M305.67,402.33c-2.71,1.13-4.73,2.18-7.11,2.22l-0.28.18c8.05,1.22,11.07,6.92,11.07,6.92,1.69-.85-1.19-7.07-2.71-10.07A2,2,0,0,1,305.67,402.33Z"/><path class="cls-11" d="M261.2,405a14.9,14.9,0,0,1,3.3,10.54c2.15,0.39,3.72-8.69,4.08-11A23,23,0,0,1,261.2,405Z"/><path class="cls-12" d="M314.31,389.43A18,18,0,0,0,312,390,7.32,7.32,0,0,0,314.31,389.43Z"/><path class="cls-12" d="M254.45,385h5a23.3,23.3,0,0,1-1.68-4.09A25.21,25.21,0,0,0,254.45,385Z"/><path class="cls-12" d="M265,296l-1.75.89-1.77-2.14L260,296.89l-0.94-2.64c-5.15,9.72,4.17,64,6.54,77.18-3.72,2.95-8.32,7-8,8.57,0.05,0.3.13,0.6,0.22,0.91a23.63,23.63,0,0,0,1.68,4.09c0.31,0.61.54,1,.54,1h2.12c-2.38,7-4.88,15.23-4.6,16.67s1.67,2.05,3.67,2.34a23,23,0,0,0,7.38-.42l0.18,0c5.43-1.11,4.07-18.39,4.07-18.39,15.1,14.66,21.09,18.45,25.72,18.38,2.38,0,4.4-1.09,7.11-2.22a2,2,0,0,0,1-.75C309.57,396.82,278,380,278,380s27,10.67,34,10a18,18,0,0,1,2.31-.57c3-1.34,3-4.57,2.31-7a10.72,10.72,0,0,0-1-2.39c-1.33-2.33-35.67-10-35.67-10s-13-60-13.76-62c-0.46-1.23.56-7.74,1.41-12.58a3.32,3.32,0,0,0-.16.58C267.5,298,265,296,265,296Z"/><path class="cls-12" d="M259.46,385a23.63,23.63,0,0,1-1.68-4.09A23.3,23.3,0,0,0,259.46,385Z"/><path class="cls-5" d="M178.75,465.94V465h5.63v1.88h1.88v1.88h1.88v5.63h-1.87v1.88h-1.87v1.88h-5.62v-1.87h-1.87v-1.87H175v-5.62h1.88v-1.87h1.88v-0.94Zm3.75,1.88v-0.94h-3.75v7.5h1.88v1.88h3.75v-7.5H182.5v-0.94Z"/><path class="cls-5" d="M191.88,465.94V465h7.5v1.88h1.88v3.75h-1.87v1.88h3.75v3.75h-1.87v1.88h-9.37v-1.87H190V472.5h1.88v-1.87H190v-3.75h1.88v-0.94Zm3.75,7.5V472.5h-3.75v3.75h7.5v-1.87h-3.75v-0.94Zm3.75-4.69v-1.87h-5.62v1.88h1.88v1.88h3.75v-1.87Z"/><path class="cls-5" d="M205,467.81V465h11.25v1.88h-7.5v1.88h7.5v1.88h1.88v5.63h-1.87v1.88h-9.37v-1.87H205v-1.87h3.75v1.88h5.63v-5.62H205v-2.81Z"/><path class="cls-5" d="M235,471.56V465h9.38v1.88h1.88v1.88h1.88v5.63h-1.87v1.88h-1.87v1.88H235v-6.56Zm7.5-3.75v-0.94h-3.75v9.38h3.75v-1.87h1.88v-5.62H242.5v-0.94Z"/><path class="cls-5" d="M251.88,465.94V465h9.38v1.88h1.88v9.38h-1.87v1.88h-9.37v-1.87H250v-9.37h1.88v-0.94Zm7.5,5.63v-4.69h-5.62v9.38h5.63v-4.69Z"/><path class="cls-5" d="M265,471.56V465h9.38v1.88h1.88v1.88h1.88v5.63h-1.87v1.88h-1.87v1.88H265v-6.56Zm7.5-3.75v-0.94h-3.75v9.38h3.75v-1.87h1.88v-5.62H272.5v-0.94Z"/><path class="cls-5" d="M280,471.56V465h11.25v1.88h1.88v5.63h-3.75v1.88h1.88v1.88h1.88v1.88H287.5v-1.87h-1.87v-1.87h-1.87v3.75H280v-6.56Zm9.38-2.81v-1.87h-5.62v5.63h3.75v-1.87h1.88v-1.87Z"/><path class="cls-5" d="M296.88,465.94V465h11.25v1.88h-3.75v9.38h3.75v1.88H296.88v-1.87h3.75v-9.37h-3.75v-0.94Z"/><path class="cls-5" d="M311.88,465.94V465h9.38v1.88h1.88v9.38h-1.87v1.88h-9.37v-1.87H310v-9.37h1.88v-0.94Zm7.5,5.63v-4.69h-5.62v9.38h5.63v-4.69Z"/></svg>