<?xml version="1.0" ?><svg id="pkft" viewBox="0 0 500 500" xmlns="http://www.w3.org/2000/svg"><defs><style>.cls-1{fill:#1a1a1a;}.cls-2{fill:#d86687;}.cls-3{fill:#fff;}.cls-4{fill:none;}.cls-5{fill:#c6e5e2;}.cls-6{fill:#d3ebea;}.cls-7{fill:#f0e78e;}.cls-8{fill:#ed8599;}.cls-9{opacity:0.1;}.cls-10{fill:#71c6b8;}</style></defs><title/><path class="cls-1" d="M242.39,337.07c-1.48.77-2.39,1.8-2.39,2.93,0,2.39,4,4.33,9,4.33l1,0v-8.61l-1,0A14.7,14.7,0,0,0,242.39,337.07Z"/><path class="cls-2" d="M248,386v0a1.49,1.49,0,0,0,2,1.41V386l-1,0Z"/><path class="cls-2" d="M248,386l1,0,1,0v-8l-2,.06V386Z"/><path class="cls-2" d="M248,359v19.06l2-.06V357.59A1.49,1.49,0,0,0,248,359Z"/><circle class="cls-3" cx="221.74" cy="310" r="5"/><path class="cls-4" d="M206.71,304.23a1.5,1.5,0,0,0,2.58,1.53c0-.06,3.56-5.85,9.12-6.35,3.83-.34,7.85,1.87,12,6.56a1.5,1.5,0,0,0,2.26-2A25,25,0,0,0,225,297.8L211.56,299A19.39,19.39,0,0,0,206.71,304.23Z"/><path class="cls-1" d="M232.63,304a23.81,23.81,0,0,0-8.51-6.6h0q-0.42-.17-0.84-0.32h0l-0.81-.25-0.09,0-0.75-.18-0.18,0-0.68-.11-0.29,0-0.58-.05H219q-0.44,0-.88,0a11.71,11.71,0,0,0-1.16.17l-0.34.07-0.8.21-0.33.1c-0.34.11-.67,0.23-1,0.36l-0.3.14-0.65.31-0.41.22-0.48.28-0.42.25-0.69.48h0a19.39,19.39,0,0,0-4.85,5.2,1.5,1.5,0,0,0,2.58,1.53c0-.06,3.56-5.85,9.12-6.35,3.83-.34,7.85,1.87,12,6.56A1.5,1.5,0,0,0,232.63,304Z"/><path class="cls-5" d="M213.77,87.82a14.5,14.5,0,0,0-21.27,5.49,18.56,18.56,0,0,0,6.31,23.5l5.17,3.35c7.59,4.92,7.08,8.06-1.14,7l-4.89-.64c-8.22-1.08-14.38,4.9-13.69,13.29s7.82,12.91,15.85,10l2.55-.91c8-2.87,8.47-1,1,4.27S192.25,167.32,195,173s7.93,2.06,11.5-8l18.67-2.29c18.67-2.29,1.89,45.77,1.89,45.77-24.35,29-26.25,72.69-26.18,86.9,7.29-16.65,20.82-29,37-32.94,0.85-9,3.57-21.79,12.08-25.94V115.87C235.45,102.08,213.77,87.82,213.77,87.82Z"/><path class="cls-4" d="M225,297.8a12.84,12.84,0,0,0-6.86-1.36,13.2,13.2,0,0,0-6.56,2.59,19.39,19.39,0,0,0-4.85,5.2,1.5,1.5,0,0,0,2.58,1.53c0-.06,3.56-5.85,9.12-6.35,3.83-.34,7.85,1.87,12,6.56a1.5,1.5,0,0,0,2.26-2A25,25,0,0,0,225,297.8Z"/><path class="cls-5" d="M195.08,323.54c0-1.83.09-3.64,0.23-5.43-15.56.74-85.18,5.93-65.31,39.19,20.07,33.57,44.17,18.14,63.6-11.21a19.92,19.92,0,0,1,2.86-8.53A72.09,72.09,0,0,1,195.08,323.54Z"/><path class="cls-6" d="M220,375.45a6.67,6.67,0,0,1-1.26-.22,52.65,52.65,0,0,0,6.47,4.36c0-1,.1-2,0.22-3C223.49,376.3,221.69,375.9,220,375.45Z"/><path class="cls-7" d="M249,344.33c-5,0-9-1.94-9-4.33,0-1.13.91-2.16,2.39-2.93-11.21-4.3-28.89-9.07-28.89-9.07a19.87,19.87,0,0,0-13.71,5.47,20.18,20.18,0,0,0-3.33,4.09,19.92,19.92,0,0,0-2.86,8.53c-0.06.63-.1,1.26-0.1,1.91,0,0-1.83,19,24.28,26.84a4.35,4.35,0,0,1-1.78-1.92,14.05,14.05,0,0,1-1.07-6.25c0-7.73,2.72-19.17,6.07-19.17s6.07,11.43,6.07,19.17-2.72,8.83-6.07,8.83c-0.35,0-.68,0-1,0,1.71,0.44,3.51.84,5.44,1.19C227.61,359.23,243,357.27,250,357.3v-13Z"/><path class="cls-8" d="M225.43,376.64c-0.12.93-.18,1.93-0.22,3a43.68,43.68,0,0,0,.3,6.91c1.89,15.82,13.15,18.7,24.5,17.34V387.41a1.49,1.49,0,0,1-2-1.41V359a1.49,1.49,0,0,1,2-1.41V357.3C243,357.27,227.61,359.23,225.43,376.64Z"/><path class="cls-3" d="M217.78,374.84a4.54,4.54,0,0,0,.95.39l-0.22-.18Z"/><path class="cls-3" d="M218.51,375l0.22,0.18a6.67,6.67,0,0,0,1.26.22Z"/><path class="cls-3" d="M216,372.92a4.35,4.35,0,0,0,1.78,1.92l0.73,0.21C217.65,374.37,216.82,373.65,216,372.92Z"/><path class="cls-3" d="M220,375.45c0.33,0,.67,0,1,0,3.35,0,6.07-1.1,6.07-8.83S224.35,347.5,221,347.5s-6.07,11.43-6.07,19.17a14.05,14.05,0,0,0,1.07,6.25c0.82,0.74,1.65,1.45,2.51,2.13Z"/><circle class="cls-4" cx="221.74" cy="310" r="5"/><path class="cls-1" d="M220.5,302.07c-4.73,0-8.57,5.79-8.57,12.93s3.84,12.93,8.57,12.93,8.57-5.79,8.57-12.93S225.23,302.07,220.5,302.07ZM221.74,315a5,5,0,1,1,5-5A5,5,0,0,1,221.74,315Z"/><path class="cls-6" d="M237.92,262.41c-16.22,3.92-29.75,16.29-37,32.94a69.73,69.73,0,0,0-5.58,22.77c-0.13,1.79-.23,3.6-0.23,5.43a72.09,72.09,0,0,0,1.38,14,20.18,20.18,0,0,1,3.33-4.09A19.87,19.87,0,0,1,213.5,328s17.68,4.77,28.89,9.07a14.7,14.7,0,0,1,6.61-1.4l1,0V236.47C241.49,240.62,238.77,253.37,237.92,262.41ZM220.5,327.93c-4.73,0-8.57-5.79-8.57-12.93s3.84-12.93,8.57-12.93,8.57,5.79,8.57,12.93S225.23,327.93,220.5,327.93Zm12-21.8a1.5,1.5,0,0,1-2.12-.14c-4.11-4.7-8.13-6.9-12-6.56-5.56.5-9.09,6.29-9.12,6.35a1.5,1.5,0,0,1-2.58-1.53,19.39,19.39,0,0,1,4.85-5.2,13.2,13.2,0,0,1,6.56-2.59A12.84,12.84,0,0,1,225,297.8a25,25,0,0,1,7.66,6.21A1.5,1.5,0,0,1,232.49,306.13Z"/><path class="cls-1" d="M257.07,337.07c1.48,0.77,2.39,1.8,2.39,2.93,0,2.39-4.26,4.33-9.23,4.33l-1.23,0v-8.61l1.23,0A15.77,15.77,0,0,1,257.07,337.07Z"/><path class="cls-2" d="M251,386v0a1.5,1.5,0,0,1-1.5,1.5c-0.18,0,.5,0-0.5-0.09V386c1,0,.66,0,1,0Z"/><path class="cls-2" d="M251,386l-1,0c-0.34,0,0,0-1,0v-8c1,0,2,0,2,.06V386Z"/><path class="cls-2" d="M251,359v19.06s-1,0-2-.06V357.59c1-.06.32-0.09,0.5-0.09A1.5,1.5,0,0,1,251,359Z"/><circle class="cls-3" cx="277.73" cy="310" r="5"/><path class="cls-4" d="M292.75,304.23a1.5,1.5,0,0,1-2.58,1.53c0-.06-3.56-5.85-9.12-6.35-3.83-.34-7.85,1.87-12,6.56a1.5,1.5,0,0,1-2.26-2,25,25,0,0,1,7.66-6.21L287.9,299A19.39,19.39,0,0,1,292.75,304.23Z"/><path class="cls-1" d="M266.83,304a23.81,23.81,0,0,1,8.51-6.6h0q0.42-.17.84-0.32h0l0.81-.25,0.09,0,0.75-.18,0.18,0,0.68-.11,0.29,0,0.58-.05h0.87q0.44,0,.88,0a11.71,11.71,0,0,1,1.16.17l0.34,0.07,0.8,0.21L284,297c0.34,0.11.67,0.23,1,.36l0.3,0.14,0.65,0.31,0.41,0.22,0.48,0.28,0.42,0.25L287.9,299h0a19.39,19.39,0,0,1,4.85,5.2,1.5,1.5,0,0,1-2.58,1.53c0-.06-3.56-5.85-9.12-6.35-3.83-.34-7.85,1.87-12,6.56A1.5,1.5,0,0,1,266.83,304Z"/><path class="cls-5" d="M285.46,87.82a14.62,14.62,0,0,1,21.39,5.49,18.54,18.54,0,0,1-6.25,23.5l-5.14,3.35c-7.59,4.92-7.07,8.06,1.15,7l4.9-.64c8.22-1.08,14.39,4.9,13.7,13.29s-7.82,12.91-15.85,10l-2.55-.91c-8-2.87-8.47-1-1,4.27s11.38,14.13,8.63,19.79-7.92,2.06-11.5-8l-18.67-2.29c-18.67-2.29-1.89,45.77-1.89,45.77,24.35,29,26.25,72.69,26.18,86.9-7.29-16.65-21.05-29-37.27-32.94-0.85-9-3.31-21.79-12.31-25.94V115.87C264,102.08,285.46,87.82,285.46,87.82Z"/><path class="cls-4" d="M274.49,297.8a12.84,12.84,0,0,1,6.86-1.36A13.2,13.2,0,0,1,287.9,299a19.39,19.39,0,0,1,4.85,5.2,1.5,1.5,0,0,1-2.58,1.53c0-.06-3.56-5.85-9.12-6.35-3.83-.34-7.85,1.87-12,6.56a1.5,1.5,0,0,1-2.26-2A25,25,0,0,1,274.49,297.8Z"/><path class="cls-5" d="M304.38,323.54c0-1.83-.09-3.64-0.23-5.43,15.56,0.74,85.18,5.93,65.31,39.19-20.07,33.57-44.17,18.14-63.6-11.21a19.92,19.92,0,0,0-2.86-8.53A72.09,72.09,0,0,0,304.38,323.54Z"/><path class="cls-6" d="M279.48,375.45a6.67,6.67,0,0,0,1.26-.22,52.65,52.65,0,0,1-6.47,4.36c0-1-.1-2-0.22-3C276,376.3,277.77,375.9,279.48,375.45Z"/><path class="cls-7" d="M250.23,344.33c5,0,9.12-1.94,9.12-4.33,0-1.13-.85-2.16-2.33-2.93,11.21-4.3,28.92-9.07,28.92-9.07a19.9,19.9,0,0,1,13.72,5.47,20.21,20.21,0,0,1,3.34,4.09,19.92,19.92,0,0,1,2.87,8.53c0.06,0.63.1,1.26,0.1,1.91,0,0,1.84,19-24.28,26.84a4.35,4.35,0,0,0,1.78-1.92,14.05,14.05,0,0,0,1.07-6.25c0-7.73-2.72-19.17-6.07-19.17s-6.07,11.43-6.07,19.17,2.72,8.83,6.07,8.83c0.35,0,.68,0,1,0-1.71.44-3.74,0.84-5.67,1.19-2.18-17.41-17.8-19.37-24.8-19.34v-13Z"/><path class="cls-8" d="M273.8,376.64c0.12,0.93.3,1.93,0.34,3a45.14,45.14,0,0,1-.47,6.91C271.78,402.32,261,405.2,249,403.84V387.41c1,0.06.32,0.09,0.5,0.09A1.5,1.5,0,0,0,251,386V359a1.5,1.5,0,0,0-1.5-1.5c-0.18,0,.5,0-0.5.09V357.3C256,357.27,271.62,359.23,273.8,376.64Z"/><path class="cls-3" d="M281.68,374.84a4.54,4.54,0,0,1-.95.39L281,375Z"/><path class="cls-3" d="M281,375l-0.22.18a6.67,6.67,0,0,1-1.26.22Z"/><path class="cls-3" d="M283.46,372.92a4.35,4.35,0,0,1-1.78,1.92L281,375C281.81,374.37,282.64,373.65,283.46,372.92Z"/><path class="cls-3" d="M279.48,375.45c-0.33,0-.67,0-1,0-3.35,0-6.07-1.1-6.07-8.83s2.72-19.17,6.07-19.17,6.07,11.43,6.07,19.17a14.05,14.05,0,0,1-1.07,6.25c-0.82.74-1.65,1.45-2.51,2.13Z"/><circle class="cls-4" cx="277.73" cy="310" r="5"/><path class="cls-1" d="M270.39,315c0,7.14,3.84,12.93,8.57,12.93s8.57-5.79,8.57-12.93-3.84-12.93-8.57-12.93S270.39,307.86,270.39,315Zm2.33-5a5,5,0,1,1,5,5A5,5,0,0,1,272.73,310Z"/><path class="cls-6" d="M249,236.47v99.22l1.23,0a15.23,15.23,0,0,1,6.73,1.4c11.21-4.3,28.94-9.07,28.94-9.07a19.94,19.94,0,0,1,13.74,5.47,20.25,20.25,0,0,1,3.34,4.09,72.09,72.09,0,0,0,1.39-14c0-1.83-.09-3.64-0.22-5.43a69.73,69.73,0,0,0-5.58-22.77c-7.29-16.65-21.05-29-37.27-32.94C260.46,253.37,258,240.62,249,236.47ZM270.39,315c0-7.14,3.84-12.93,8.57-12.93s8.57,5.79,8.57,12.93-3.84,12.93-8.57,12.93S270.39,322.14,270.39,315Zm-3.56-11a25,25,0,0,1,7.66-6.21,12.84,12.84,0,0,1,6.86-1.36A13.2,13.2,0,0,1,287.9,299a19.39,19.39,0,0,1,4.85,5.2,1.5,1.5,0,0,1-2.58,1.53c0-.06-3.56-5.85-9.12-6.35-3.83-.34-7.85,1.87-12,6.56A1.5,1.5,0,0,1,266.83,304Z"/><g class="cls-9"><path class="cls-1" d="M304.15,318.12c0.13,1.79.23,3.6,0.23,5.43a72.09,72.09,0,0,1-1.38,14,19.92,19.92,0,0,1,2.86,8.53c19.43,29.35,43.54,44.78,63.6,11.21C389.34,324,319.72,318.86,304.15,318.12Z"/><path class="cls-1" d="M305.85,346.09a19.92,19.92,0,0,0-2.87-8.53h0a72.08,72.08,0,0,0,1.39-14c0-1.83-.09-3.64-0.22-5.43a69.73,69.73,0,0,0-5.58-22.77c-7.29-16.65-21.05-29-37.27-32.94-0.74-7.91-2.72-18.66-9.23-24,6.51,5.34,8.49,16.09,9.23,24,16.22,3.92,30,16.29,37.27,32.94,0.07-14.21-1.83-57.86-26.18-86.9,0,0-16.78-48.06,1.89-45.77L293,165c3.57,10.07,8.75,13.67,11.5,8s-1.13-14.57-8.63-19.79-7.06-7.14,1-4.27l2.55,0.91c8,2.87,15.16-1.64,15.85-10s-5.48-14.37-13.7-13.29l-4.9.64c-8.22,1.08-8.75-2.06-1.15-7l5.14-3.35a18.54,18.54,0,0,0,6.25-23.5,14.62,14.62,0,0,0-21.39-5.49S264,102.08,249,115.87v288c12,1.36,22.78-1.52,24.67-17.34a45.14,45.14,0,0,0,.47-6.91c0-1-.22-2-0.34-3,1.38-.25,2.81-0.52,4.14-0.82-1.25.3-2.54,0.58-3.91,0.82,0.12,0.93.18,1.93,0.22,3a52.65,52.65,0,0,0,6.47-4.36,4.54,4.54,0,0,0,.95-0.39h0C307.79,367,306,348,306,348,306,347.36,305.92,346.72,305.85,346.09ZM285.9,328h0c-0.09,0-17.7,4.77-28.88,9.05h0C268.23,332.75,285.9,328,285.9,328Zm-13.51,38.67c0-7.73,2.72-19.17,6.07-19.17h0c-3.35,0-6.07,11.43-6.07,19.17,0,4.83,1.06,7.07,2.68,8.08C273.45,373.74,272.39,371.5,272.39,366.67Zm3.71,8.54a6.27,6.27,0,0,0,1.14.23A6.27,6.27,0,0,1,276.1,375.21Z"/></g><path class="cls-10" d="M193.75,465.94V465h5.63v1.88h1.88v1.88h1.88v5.63h-1.87v1.88h-1.87v1.88h-5.62v-1.87h-1.87v-1.87H190v-5.62h1.88v-1.87h1.88v-0.94Zm3.75,1.88v-0.94h-3.75v7.5h1.88v1.88h3.75v-7.5H197.5v-0.94Z"/><path class="cls-10" d="M206.88,465.94V465h7.5v1.88h1.88v3.75h-1.87v1.88h3.75v3.75h-1.87v1.88h-9.37v-1.87H205V472.5h1.88v-1.87H205v-3.75h1.88v-0.94Zm3.75,7.5V472.5h-3.75v3.75h7.5v-1.87h-3.75v-0.94Zm3.75-4.69v-1.87h-5.62v1.88h1.88v1.88h3.75v-1.87Z"/><path class="cls-10" d="M223.75,465.94V465h7.5v1.88h-5.62v1.88h-1.87v1.88h7.5v1.88h1.88v3.75h-1.87v1.88h-9.37v-1.87H220v-7.5h1.88v-1.87h1.88v-0.94Zm5.63,8.44V472.5h-5.62v3.75h5.63v-1.87Z"/><path class="cls-10" d="M251.88,465.94V465h7.5v1.88h1.88v1.88H257.5v-1.87h-3.75v3.75h7.5v1.88h1.88v3.75h-1.87v1.88h-9.37v-1.87H250v-1.87h3.75v1.88h5.63V472.5h-7.5v-1.87H250v-3.75h1.88v-0.94Z"/><path class="cls-10" d="M265,471.56V465h13.13v1.88h-9.37v3.75h7.5v1.88h-7.5v3.75h9.38v1.88H265v-6.56Z"/><path class="cls-10" d="M280,471.56V465h13.13v1.88h-9.37v3.75h7.5v1.88h-7.5v3.75h9.38v1.88H280v-6.56Z"/><path class="cls-10" d="M296.88,471.56V465h3.75v11.25h7.5v1.88H296.88v-6.56Z"/></svg>