<?xml version="1.0" ?><svg id="pkft" viewBox="0 0 500 500" xmlns="http://www.w3.org/2000/svg"><defs><style>.cls-1{fill:#cef4f2;}.cls-2{fill:#ccf2f0;}.cls-3{fill:#fff;}.cls-4{fill:#333;}.cls-5{fill:#3b3532;}.cls-6{fill:#1a1a1a;}.cls-7{opacity:0.1;}.cls-8{fill:#71c6b8;}</style></defs><title/><path class="cls-1" d="M213.37,199.88c-0.24-7.66-.79-17.24-1.38-26.16C198.24,185.32,155,220,130,220c0,0,8.33,0,6.33,10,0,0,8.67,2.67,3.67,16.33,0,0,10,9.33,5,17.33,0,0,10,0,8,10.67,0,0,10,3.33,10,8.67,0,2.7,16.78-17.52,33.43-38.69C202.29,220.27,213.79,213.26,213.37,199.88Z"/><path class="cls-2" d="M210.19,149.09c0.34,4.28,1.1,14,1.81,24.64,0.59,8.91,1.14,18.49,1.38,26.16,0.42,13.38-11.08,20.39-16.94,44.43-2.9,11.89-4.42,27.93-2.43,51,6,69.65,26,66.18,26,66.18L209,436s10.93-14,25,0c0,0,16-18,16,0V158.47C233.76,158.47,219.32,158,210.19,149.09Z"/><path class="cls-1" d="M224.75,123a1.5,1.5,0,0,1,1.72,1.22,8.17,8.17,0,0,0,4.54,5.36c3.22,1.6,8.95,2.4,19-.85V30l-6.28,28.88A50,50,0,0,0,200,108.47c0,6.9,1.4,25.26,3.93,31.24a28.1,28.1,0,0,0,6.26,9.38c9.13,8.88,23.57,9.38,39.81,9.38V131.91A41.67,41.67,0,0,1,237.91,134a18.15,18.15,0,0,1-8.33-1.78,11.13,11.13,0,0,1-6.06-7.49A1.5,1.5,0,0,1,224.75,123Z"/><path class="cls-3" d="M230,147l7.91-13a18.4,18.4,0,0,1-7.91-1.6V147Z"/><path class="cls-4" d="M231,129.61a8.17,8.17,0,0,1-4.54-5.36,1.5,1.5,0,0,0-3,.5,11.13,11.13,0,0,0,6.06,7.49c0.13,0.07.28,0.11,0.42,0.18a18.4,18.4,0,0,0,7.91,1.6A41.67,41.67,0,0,0,250,131.91v-3.15C240,132,234.24,131.21,231,129.61Z"/><path class="cls-5" d="M234.76,92.55c-2.6,7.63-7.49,12.79-13.1,12.79-3.06,0-5.91-1.54-8.29-4.17,0,0.72,0,1.44,0,2.17,0,1.93.09,3.81,0.26,5.62a134.93,134.93,0,0,1,23.6-1.43q0.14-2.05.14-4.19a57.36,57.36,0,0,0-1.26-12.17A7.6,7.6,0,0,1,234.76,92.55Z"/><path class="cls-6" d="M221.67,105.33c5.61,0,10.5-5.15,13.1-12.79A7.57,7.57,0,1,1,230,79.1a7.65,7.65,0,0,1,.92.06c-1.67-2-3.57-3.16-5.59-3.16-6.31,0-11.47,11.08-12,25.16C215.75,103.79,218.6,105.33,221.67,105.33Z"/><path class="cls-3" d="M234.76,92.55a7.6,7.6,0,0,0,1.31-1.38c-0.13-.59-0.26-1.17-0.41-1.73C235.41,90.51,235.1,91.55,234.76,92.55Z"/><path class="cls-3" d="M222.43,86.67a7.57,7.57,0,0,0,12.33,5.88c0.34-1,.64-2,0.9-3.11a26.92,26.92,0,0,0-4.74-10.27A7.65,7.65,0,0,0,230,79.1,7.57,7.57,0,0,0,222.43,86.67Z"/><path class="cls-1" d="M284.63,199.88c0.24-7.66.79-17.24,1.38-26.16C299.76,185.32,343,220,368,220c0,0-8.33,0-6.33,10,0,0-8.67,2.67-3.67,16.33,0,0-10,9.33-5,17.33,0,0-10,0-8,10.67,0,0-10,3.33-10,8.67,0,2.7-16.78-17.52-33.43-38.69C295.71,220.27,284.21,213.26,284.63,199.88Z"/><path class="cls-2" d="M287.81,149.09c-0.34,4.28-1.1,14-1.81,24.64-0.59,8.91-1.14,18.49-1.38,26.16-0.42,13.38,11.08,20.39,16.94,44.43,2.9,11.89,4.42,27.93,2.43,51-6,69.65-26,66.18-26,66.18L289,436s-10.93-14-25,0c0,0-16-18-16,0V158.47C264.24,158.47,278.68,158,287.81,149.09Z"/><path class="cls-1" d="M273.25,123a1.5,1.5,0,0,0-1.72,1.22,8.17,8.17,0,0,1-4.54,5.36c-3.22,1.6-9,2.4-19-.85V30l6.28,28.88A50,50,0,0,1,298,108.47c0,6.9-1.4,25.26-3.93,31.24a28.1,28.1,0,0,1-6.26,9.38C278.68,158,264,158.47,248,158.47V131.91c5,1.4,8.58,2.11,12.09,2.11a18.15,18.15,0,0,0,8.33-1.78,11.13,11.13,0,0,0,6.06-7.49A1.5,1.5,0,0,0,273.25,123Z"/><path class="cls-3" d="M268,147l-7.91-13a17.66,17.66,0,0,0,7.91-1.6V147Z"/><path class="cls-4" d="M267,129.61a8.17,8.17,0,0,0,4.54-5.36,1.5,1.5,0,0,1,3,.5,11.13,11.13,0,0,1-6.06,7.49c-0.13.07-.28,0.11-0.42,0.18a18.4,18.4,0,0,1-7.91,1.6c-3.51,0-7.09-.71-12.09-2.11v-3.15C258,132,263.76,131.21,267,129.61Z"/><path class="cls-5" d="M263.24,92.55c2.6,7.63,7.49,12.79,13.1,12.79,3.06,0,5.91-1.54,8.29-4.17,0,0.72,0,1.44,0,2.17,0,1.93-.09,3.81-0.26,5.62a134.93,134.93,0,0,0-23.6-1.43q-0.14-2.05-.14-4.19a57.36,57.36,0,0,1,1.26-12.17A7.6,7.6,0,0,0,263.24,92.55Z"/><path class="cls-6" d="M276.33,105.33c-5.61,0-10.5-5.15-13.1-12.79A7.57,7.57,0,1,0,268,79.1a7.65,7.65,0,0,0-.92.06c1.67-2,3.57-3.16,5.59-3.16,6.31,0,11.47,11.08,12,25.16C282.25,103.79,279.4,105.33,276.33,105.33Z"/><path class="cls-3" d="M263.24,92.55a7.6,7.6,0,0,1-1.31-1.38c0.13-.59.26-1.17,0.41-1.73C262.59,90.51,262.9,91.55,263.24,92.55Z"/><path class="cls-3" d="M275.57,86.67a7.57,7.57,0,0,1-12.33,5.88c-0.34-1-.64-2-0.9-3.11a26.92,26.92,0,0,1,4.74-10.27A7.65,7.65,0,0,1,268,79.1,7.57,7.57,0,0,1,275.57,86.67Z"/><g class="cls-7"><path class="cls-6" d="M368,220c-25,0-68.24-34.68-82-46.27,0.7-10.66,1.46-20.35,1.81-24.64-9.13,8.88-23.57,9.38-39.81,9.38V436c0-18,16,0,16,0,14-14,25,0,25,0l-11-74.51s20,3.47,26-66.18c2-23,.47-39.09-2.43-51C318.22,265.48,335,285.7,335,283c0-5.33,10-8.67,10-8.67-2-10.67,8-10.67,8-10.67-5-8,5-17.33,5-17.33-5-13.67,3.67-16.33,3.67-16.33C359.67,220,368,220,368,220Z"/><path class="cls-6" d="M294.07,139.71c2.53-6,3.93-24.33,3.93-31.24a50,50,0,0,0-43.72-49.59L248,30V158.47c16,0,30.68-.51,39.81-9.38A28.1,28.1,0,0,0,294.07,139.71Zm-31.58-5.81h-0.16c0.61-.06,1.19-0.15,1.76-0.26C263.56,133.75,263,133.84,262.49,133.9Zm4.24-1.1a12.13,12.13,0,0,1-2.37.6A22.23,22.23,0,0,0,266.73,132.8Z"/></g><path class="cls-8" d="M171.25,465.94V465h5.63v1.88h1.88v1.88h1.88v5.63h-1.87v1.88h-1.87v1.88h-5.62v-1.87h-1.87v-1.87H167.5v-5.62h1.88v-1.87h1.88v-0.94Zm3.75,1.88v-0.94h-3.75v7.5h1.88v1.88h3.75v-7.5H175v-0.94Z"/><path class="cls-8" d="M184.38,465.94V465h7.5v1.88h1.88v3.75h-1.87v1.88h3.75v3.75h-1.87v1.88h-9.37v-1.87H182.5V472.5h1.88v-1.87H182.5v-3.75h1.88v-0.94Zm3.75,7.5V472.5h-3.75v3.75h7.5v-1.87h-3.75v-0.94Zm3.75-4.69v-1.87h-5.62v1.88h1.88v1.88h3.75v-1.87Z"/><path class="cls-8" d="M197.5,466.88V465h13.13v3.75h-1.87v1.88h-1.87v1.88H205v5.63h-3.75V472.5h1.88v-1.87H205v-1.87h1.88v-1.87h-5.62v1.88H197.5v-1.87Z"/><path class="cls-8" d="M227.5,471.56V465h9.38v1.88h1.88v1.88h1.88v5.63h-1.87v1.88h-1.87v1.88H227.5v-6.56Zm7.5-3.75v-0.94h-3.75v9.38H235v-1.87h1.88v-5.62H235v-0.94Z"/><path class="cls-8" d="M242.5,471.56V465h13.13v1.88h-9.37v3.75h7.5v1.88h-7.5v3.75h9.38v1.88H242.5v-6.56Z"/><path class="cls-8" d="M257.5,471.56V465h3.75v5.63h1.88v-1.87H265v1.88h1.88V465h3.75v13.13h-3.75v-1.87H265v-1.87h-1.87v1.88h-1.87v1.88H257.5v-6.56Z"/><path class="cls-8" d="M276.25,465.94V465h9.38v1.88h-7.5v1.88h-1.87v5.63h1.88v1.88h3.75V472.5H280v-1.87h5.63v7.5h-9.37v-1.87h-1.87v-1.87H272.5v-5.62h1.88v-1.87h1.88v-0.94Z"/><path class="cls-8" d="M289.38,465.94V465h9.38v1.88h1.88v9.38h-1.87v1.88h-9.37v-1.87H287.5v-9.37h1.88v-0.94Zm7.5,5.63v-4.69h-5.62v9.38h5.63v-4.69Z"/><path class="cls-8" d="M302.5,471.56V465h3.75v1.88h1.88v1.88H310v1.88h1.88V465h3.75v13.13h-3.75v-1.87H310v-1.87h-1.87V472.5h-1.87v5.63H302.5v-6.56Z"/><path class="cls-8" d="M321.25,465.94V465h9.38v1.88h-7.5v1.88h-1.87v5.63h1.88v1.88h3.75V472.5H325v-1.87h5.63v7.5h-9.37v-1.87h-1.87v-1.87H317.5v-5.62h1.88v-1.87h1.88v-0.94Z"/></svg>