<?xml version="1.0" ?><svg id="pkft" viewBox="0 0 500 500" xmlns="http://www.w3.org/2000/svg"><defs><style>.cls-1{fill:none;}.cls-2{fill:#c298ae;}.cls-3{fill:#fff;}.cls-4{fill:#1a1a1a;}.cls-5{fill:#bbafc5;}.cls-6{fill:#333;}.cls-7{fill:#906d84;}.cls-8{fill:#bc8fa9;}.cls-9{fill:#8c6881;}.cls-10{opacity:0.1;}</style></defs><title/><path class="cls-1" d="M187,346.5a9.48,9.48,0,0,1-2.09.16A9.42,9.42,0,0,0,187,346.5Z"/><path class="cls-1" d="M166.6,323.07c-2.26-2.24-5.27-3-8.37-3C161.32,320.12,164.33,320.86,166.6,323.07Z"/><path class="cls-1" d="M186.26,377l-0.87,0Z"/><path class="cls-1" d="M210,370c-7.19,3.59-17,6.67-23.74,7,6.78-.33,16.55-3.41,23.74-7,3.44-1.72,7.7-2.26,11.82-2.22C217.7,367.74,213.44,368.28,210,370Z"/><path class="cls-1" d="M196.5,370h0c-13.5,0-16.5-5.5-26.5-10a8.62,8.62,0,0,0-3.64-.79A8.62,8.62,0,0,1,170,360C180,364.5,183,370,196.5,370Z"/><path class="cls-1" d="M237.93,370.25c0.42,0-.94-0.79-12.43-5.64a24.57,24.57,0,0,0-9.05-2.3,24.57,24.57,0,0,1,9.05,2.3C237,369.46,238.35,370.26,237.93,370.25Z"/><path class="cls-2" d="M231.29,129.56C253.16,156.14,245,160.06,243,163s-13.5,3-25.5,0c-8.22-2.06-5.18-13.73-2.45-20.88-9.57,10.22-19.12,26.11-27,50.6,5.13,3.5,12.62,9.09,17,8.2,3.6-.74-12,4.89-18.65,10.75-0.07,4.55.05,8.33,0.65,8.33s-1.61.38-4.5,2.41c-5.92,4.15-15.18,15.22-12.5,44.09,0,0-2.12,3.25-5.12,8.19-5.57,9.18-14.16,24.24-17.81,35.32a40.93,40.93,0,0,0,19.43-2.51c10-4,3.5,23.5,20.5,18s26-16.17,39.5-8.83,5,10.83,23.5,13.33V292.09c-3-.21-6.2.78-8.81,4.41-7.19,10-27.85-14-29-13.25S207.5,283.5,200,290s-13-20-13-20a36.86,36.86,0,0,0,22.61,4.5s1.5-5,20.95,8A25.78,25.78,0,0,0,250,286.56V257.35a23.71,23.71,0,0,1-17.91-10.6c-5.14,1.27-9.7.81-13.57-1.35-6.67-3.73-8.78-11.18-8.86-11.5a1.5,1.5,0,0,1,2.89-.79c0,0.07,1.89,6.58,7.46,9.69,3.42,1.91,7.59,2.17,12.38.77a1.5,1.5,0,0,1,1.76.78c0.19,0.39,4.52,8.72,15.84,10V230H235a15.23,15.23,0,0,1-15.15-15l-0.18-18-0.14-14c-3,0-5.16-.7-6.62-2.25-3.71-3.95-.57-10.82-0.2-11.59a2,2,0,0,1,3.61,1.73c-0.79,1.66-1.94,5.58-.49,7.12,0.87,0.92,4.18,2.54,16.24-2.34a2,2,0,0,1,2.71,1.43c0.08,0.34,2,7.31,15.23,7.1V124.51A44.28,44.28,0,0,0,231.29,129.56Z"/><path class="cls-3" d="M217.5,163c12,3,23.5,3,25.5,0s10.16-6.86-11.71-33.44a60,60,0,0,0-16.23,12.56C212.32,149.27,209.28,160.94,217.5,163ZM237,142.44a4.19,4.19,0,1,1-4.19,4.19A4.19,4.19,0,0,1,237,142.44Z"/><circle class="cls-4" cx="237" cy="146.63" r="4.19"/><path class="cls-5" d="M219.66,197l0.18,18A15.23,15.23,0,0,0,235,230h15V200.92C239.95,187.49,226.47,192.86,219.66,197Z"/><path class="cls-6" d="M231.71,180.08c-5,1.88-9,2.84-12.19,2.89l0.14,14c6.81-4.11,20.29-9.48,30.34,4V188.17l-0.56,0C237.78,188.18,233.33,183.1,231.71,180.08Z"/><path class="cls-4" d="M234.77,177.08a2,2,0,0,0-2.71-1.43c-12.06,4.88-15.38,3.26-16.24,2.34-1.46-1.54-.3-5.46.49-7.12a2,2,0,0,0-3.61-1.73c-0.37.77-3.5,7.64,0.2,11.59,1.46,1.55,3.65,2.29,6.62,2.25,3.17-.05,7.21-1,12.19-2.89,1.62,3,6.07,8.11,17.73,8.1l0.56,0v-4C236.76,184.39,234.85,177.42,234.77,177.08Z"/><path class="cls-7" d="M205,200.92c-4.35.89-11.84-4.7-17-8.2-0.35,1.08-.69,2.17-1,3.28,0,0-.55,8.74-0.65,15.67C193,205.81,208.6,200.18,205,200.92Z"/><path class="cls-4" d="M234.16,244.33a1.5,1.5,0,0,0-1.76-.78c-4.79,1.39-9,1.13-12.38-.77-5.57-3.1-7.44-9.62-7.46-9.69a1.5,1.5,0,0,0-2.89.79c0.09,0.32,2.19,7.76,8.86,11.5,3.87,2.17,8.43,2.62,13.57,1.35A23.71,23.71,0,0,0,250,257.35v-3C238.68,253.05,234.35,244.72,234.16,244.33Z"/><path class="cls-7" d="M230.55,282.5c-19.45-13-20.95-8-20.95-8A36.86,36.86,0,0,1,187,270s5.5,26.5,13,20,11-6,12.17-6.75,21.83,23.25,29,13.25c2.61-3.63,5.8-4.62,8.81-4.41v-5.53A25.78,25.78,0,0,1,230.55,282.5Z"/><path class="cls-7" d="M226.5,316.67C213,309.33,204,320,187,325.5s-10.5-22-20.5-18A40.93,40.93,0,0,1,147.07,310c-1.67,5.07-2.31,9.31-1.15,11.77,0.49-.06,1-0.14,1.61-0.25,2.85-.53,6.83-1.53,10.69-1.47,3.11,0,6.11.77,8.37,3A13,13,0,0,1,170,330c3,14.63,11,16.59,14.87,16.66a9.48,9.48,0,0,0,2.09-.16C207,333,214.5,335,228.5,333c7.91-1.13,16,3.33,21.5,7.42V330C231.5,327.5,240,324,226.5,316.67Z"/><path class="cls-7" d="M134,374c7.5,3,16-4,29-4s12,3,17,6a9.53,9.53,0,0,0,4.56,1h0.83l0.87,0c6.78-.33,16.55-3.41,23.74-7,3.44-1.72,7.7-2.26,11.82-2.22A62.92,62.92,0,0,1,237,370a6.41,6.41,0,0,0,.93.25c0.42,0-.95-0.79-12.43-5.64a24.57,24.57,0,0,0-9.05-2.3c-8.31-.11-9.4,7.7-19.95,7.7h0c-13.5,0-16.5-5.5-26.5-10a8.62,8.62,0,0,0-3.64-.79c-6.79,0-12.58,8.1-19.07,7.82a8.25,8.25,0,0,1-4.36-1.53,32.91,32.91,0,0,0-9.08-4.36,10.07,10.07,0,0,0-.86,3.36c0,1.91-1.56,3.93-3.51,6.12A11.41,11.41,0,0,0,134,374Z"/><path class="cls-2" d="M228.5,333c-14,2-21.5,0-41.5,13.5a9.42,9.42,0,0,1-2.09.16c-3.84-.07-11.91-2-14.91-16.66a13.12,13.12,0,0,0-3.4-6.93c-2.27-2.21-5.28-3-8.37-3-3.8,0-7.76.94-10.69,1.47-0.56.1-1.08,0.19-1.54,0.25h0s7.54,4.22,4,11.22c-3,5.94-13.14,20.5-16.16,28.14a32.87,32.87,0,0,1,9.07,4.36,8.25,8.25,0,0,0,4.35,1.53c6.49,0.27,12.28-7.78,19.07-7.82A8.62,8.62,0,0,1,170,360c10,4.5,13,10,26.5,10,10.55,0,11.63-7.81,19.95-7.7a24.57,24.57,0,0,1,9.05,2.3c11.49,4.85,12.85,5.66,12.43,5.64A6.36,6.36,0,0,1,237,370a62.92,62.92,0,0,0-15.18-2.22c-4.12,0-8.38.5-11.82,2.22-7.19,3.59-17,6.67-23.74,7l-0.87,0h-0.83a9.53,9.53,0,0,1-4.56-1c-5-3-4-6-17-6s-21.5,7-29,4a11.41,11.41,0,0,1-4.51-3.38c-3.67,4.13-8.72,8.83-7.25,14.38,1.37,5.15-2.67,9.75-2.07,13,8.73-1.58,21.22-3.52,29.83-3.52,14.5,0,11.5-6,17.5-4.5s21,10,34,9.5,28.5-3,35.5.5c2.54,1.27,7.6,3.2,13,5.15V340.42C244.48,336.33,236.41,331.87,228.5,333Z"/><path class="cls-2" d="M184.91,346.66c-3.83-.07-11.87-2-14.87-16.66a13,13,0,0,0-3.44-6.93A13.12,13.12,0,0,1,170,330C173,344.63,181.07,346.6,184.91,346.66Z"/><path class="cls-2" d="M147.54,321.54c2.94-.52,6.89-1.51,10.69-1.47C154.37,320,150.39,321,147.54,321.54Z"/><path class="cls-2" d="M185.39,377h0Z"/><path class="cls-2" d="M216.45,362.3c-8.32-.11-9.4,7.69-19.95,7.7h0C207,370,208.14,362.19,216.45,362.3Z"/><path class="cls-2" d="M166.36,359.21c-6.79,0-12.58,8.09-19.07,7.82C153.78,367.31,159.57,359.26,166.36,359.21Z"/><path class="cls-2" d="M221.82,367.78A62.92,62.92,0,0,1,237,370a6.36,6.36,0,0,0,.93.25A6.41,6.41,0,0,1,237,370,62.92,62.92,0,0,0,221.82,367.78Z"/><path class="cls-7" d="M201.5,399.5c-13,.5-28-8-34-9.5s-3,4.5-17.5,4.5c-8.61,0-21.11,1.94-29.83,3.52,0.39,2.13,2.74,3.7,9.83,4.48,18,2,21-2.5,26.5-2.5s8-9.64,33.5,0,25,0,35,0c9.39,0,6,8.5,25,9.54v-4.39c-5.4-1.94-10.46-3.88-13-5.15C230,396.5,214.5,399,201.5,399.5Z"/><path class="cls-8" d="M169.13,133.82c-1-5.48-1.79-9.31-1.79-9.31C176,129.36,180,125.33,180,110s-31.33-15.33-34.77-3.67c-1.31,4.46-.93,14.79,0,26.08,5.06,1.59,11.59,3.41,15.46,3.59C165.66,136.24,166.59,134.45,169.13,133.82Z"/><path class="cls-8" d="M182.5,222.41c-0.58-2.16-1.18-4.33-1.65-6.19-5.42.9-15.89,4.47-17.27,8.78-1,3.26-8.47,2.27-13.51,1.18,0,0.36,0,.72-0.07,1.07-0.82,10.07,10.74,37.86,14.88,47.44,3-4.94,5.12-8.19,5.12-8.19C167.31,237.63,176.58,226.56,182.5,222.41Z"/><path class="cls-8" d="M174.22,173.61a44.39,44.39,0,0,1-.89-8.36,153.64,153.64,0,0,0-1.8-17.13c-5.1,1.11-12.87,2.2-13.93-1.12-1-3.07-6.62-5.75-11.76-7.38,1.35,14.44,3.13,28.73,3,33,5,1.54,11.14,3.23,14.86,3.4C169.82,176.29,169.8,173.5,174.22,173.61Z"/><path class="cls-8" d="M160.54,214c5.15-.25,14.86-3.37,19.65-5,0.56-5.68,2-16.77-.19-22.32-0.18-.45-0.36-0.87-0.55-1.27-0.24,1-.45,1.61-0.45,1.61s-16.81,5-18.41,0c-1.08-3.4-7.88-6.33-13.39-7.86-1.19,5.34-2.33,12.52-1.87,15.53,0.4,2.59,2.35,9.37,3.64,17C154.54,211.05,153.91,214.32,160.54,214Z"/><path class="cls-9" d="M157.59,147c1.06,3.32,8.83,2.23,13.93,1.12-0.76-5.09-1.64-10.17-2.4-14.3-2.54.63-3.47,2.42-8.46,2.18-3.88-.18-10.4-2-15.46-3.59,0.19,2.38.4,4.8,0.63,7.21C151,141.25,156.62,143.93,157.59,147Z"/><path class="cls-9" d="M160.59,187c1.59,5,18.41,0,18.41,0s0.21-.63.45-1.61c-1.86-4-4-6.29-5.23-11.78-4.42-.11-4.4,2.69-10.55,2.39-3.72-.18-9.9-1.86-14.86-3.4a4,4,0,0,1-.14,1.07,50.6,50.6,0,0,0-1.46,5.47C152.71,180.67,159.51,183.6,160.59,187Z"/><path class="cls-9" d="M163.59,225c1.38-4.31,11.85-7.88,17.27-8.78a24,24,0,0,1-.85-4.55c0-.61.08-1.54,0.19-2.68-4.79,1.64-14.5,4.77-19.65,5-6.63.32-6-2.95-11.57-2.31a68.13,68.13,0,0,1,1.1,14.49C155.12,227.27,162.55,228.26,163.59,225Z"/><path class="cls-1" d="M312.11,346.5a9.48,9.48,0,0,0,2.09.16A9.42,9.42,0,0,1,312.11,346.5Z"/><path class="cls-1" d="M332.5,323.07c2.26-2.24,5.27-3,8.37-3C337.78,320.12,334.78,320.86,332.5,323.07Z"/><path class="cls-1" d="M312.85,377l0.87,0Z"/><path class="cls-1" d="M289.11,370c7.19,3.59,17,6.67,23.74,7-6.78-.33-16.55-3.41-23.74-7-3.44-1.72-7.7-2.26-11.82-2.22C281.41,367.74,285.67,368.28,289.11,370Z"/><path class="cls-1" d="M302.61,370h0c13.5,0,16.5-5.5,26.5-10a8.62,8.62,0,0,1,3.64-.79,8.62,8.62,0,0,0-3.64.79C319.11,364.5,316.11,370,302.61,370Z"/><path class="cls-1" d="M261.18,370.25c-0.42,0,.94-0.79,12.43-5.64a24.57,24.57,0,0,1,9.05-2.3,24.57,24.57,0,0,0-9.05,2.3C262.13,369.46,260.76,370.26,261.18,370.25Z"/><path class="cls-2" d="M267.77,129.56c-21.87,26.58-13.65,30.5-11.69,33.44s13.51,3,25.51,0c8.22-2.06,5.18-13.73,2.45-20.88,9.57,10.22,19.13,26.11,27,50.6-5.13,3.5-12.62,9.09-17,8.2-3.6-.74,12,4.89,18.65,10.75,0.07,4.55-.05,8.33-0.65,8.33s1.61,0.38,4.5,2.41c5.92,4.15,15.18,15.22,12.5,44.09,0,0,2.12,3.25,5.12,8.19,5.57,9.18,14.16,24.24,17.81,35.32a40.93,40.93,0,0,1-19.43-2.51c-10-4-3.5,23.5-20.5,18s-26.05-16.17-39.55-8.83S268,327.5,249,330V292.09a9.65,9.65,0,0,1,8.87,4.41c7.19,10,27.88-14,29-13.25s4.68,0.25,12.18,6.75,13-20,13-20a36.85,36.85,0,0,1-22.6,4.5s-1.55-5-21,8a25.89,25.89,0,0,1-19.5,4.06V257.35a23.48,23.48,0,0,0,18-10.6c5.14,1.27,9.72.81,13.6-1.35,6.67-3.73,8.79-11.18,8.88-11.5a1.5,1.5,0,1,0-2.88-.79c0,0.07-1.88,6.58-7.46,9.69-3.42,1.91-7.59,2.17-12.38.77a1.57,1.57,0,0,0-1.82.78,21.32,21.32,0,0,1-15.9,10V230h15.11a15.23,15.23,0,0,0,15.15-15l0.18-18,0.14-14c3,0,5.16-.7,6.62-2.25,3.71-3.95.57-10.82,0.2-11.59a2,2,0,0,0-3.61,1.73c0.79,1.66,1.94,5.58.49,7.12-0.87.92-4.18,2.54-16.24-2.34a2,2,0,0,0-1.69.09,2.08,2.08,0,0,0-1.07,1.35c-0.08.34-2.29,7.31-15.29,7.1V124.51A45.16,45.16,0,0,1,267.77,129.56Z"/><path class="cls-3" d="M284.05,142.12a60,60,0,0,0-16.23-12.56C246,156.14,254.15,160.06,256.11,163s13.5,3,25.5,0C289.83,160.94,286.79,149.27,284.05,142.12Zm-17.76,4.51a4.19,4.19,0,1,1-4.19-4.19A4.19,4.19,0,0,1,266.3,146.63Z"/><circle class="cls-4" cx="262.11" cy="146.62" r="4.19"/><path class="cls-5" d="M279.39,197l-0.16,18a15.21,15.21,0,0,1-15.13,15H249V200.92C259,187.49,272.58,192.86,279.39,197Z"/><path class="cls-6" d="M267.4,180.08c5,1.88,9,2.84,12.19,2.89l-0.2,14c-6.81-4.11-20.39-9.48-30.39,4V188.17l0.62,0C261.27,188.18,265.78,183.1,267.4,180.08Z"/><path class="cls-4" d="M264.29,177.08a2,2,0,0,1,2.75-1.43c12.06,4.88,15.38,3.26,16.25,2.34,1.46-1.54.31-5.46-.48-7.12a2,2,0,0,1,3.61-1.73c0.37,0.77,3.5,7.64-.2,11.59-1.46,1.55-3.65,2.29-6.62,2.25-3.17-.05-7.21-1-12.19-2.89-1.62,3-6.12,8.11-17.78,8.1l-0.62,0v-4C262,184.39,264.2,177.42,264.29,177.08Z"/><path class="cls-7" d="M294.11,200.92c4.35,0.89,11.84-4.7,17-8.2,0.35,1.08.69,2.17,1,3.28,0,0,.55,8.74.65,15.67C306.13,205.81,290.5,200.18,294.11,200.92Z"/><path class="cls-4" d="M264.9,244.33a1.53,1.53,0,0,1,1.79-.78c4.79,1.39,9,1.13,12.4-.77,5.57-3.1,7.45-9.62,7.46-9.69a1.5,1.5,0,0,1,2.9.79c-0.09.32-2.19,7.76-8.86,11.5-3.87,2.17-8.48,2.62-13.62,1.35a23.48,23.48,0,0,1-18,10.6v-3A21.32,21.32,0,0,0,264.9,244.33Z"/><path class="cls-7" d="M268.5,282.5c19.45-13,21-8,21-8a36.93,36.93,0,0,0,22.62-4.5s-5.49,26.5-13,20-11-6-12.16-6.75-21.89,23.25-29.07,13.25a9.65,9.65,0,0,0-8.86-4.41v-5.53A25.9,25.9,0,0,0,268.5,282.5Z"/><path class="cls-7" d="M272.55,316.67c13.5-7.33,22.53,3.33,39.53,8.83s10.51-22,20.51-18A41,41,0,0,0,352,310c1.67,5.07,2.32,9.31,1.15,11.77-0.49-.06-1-0.14-1.61-0.25-2.85-.53-6.83-1.53-10.69-1.47-3.11,0-6.11.77-8.37,3a13,13,0,0,0-3.43,6.93c-3,14.63-11,16.59-14.87,16.66a9.47,9.47,0,0,1-2.09-.16c-20-13.5-27.55-11.5-41.55-13.5-7.91-1.13-15.55,3.33-21.55,7.42V330C268,327.5,259.05,324,272.55,316.67Z"/><path class="cls-7" d="M365.11,374c-7.5,3-16-4-29-4s-12,3-17,6a9.53,9.53,0,0,1-4.56,1h-0.83l-0.87,0c-6.78-.33-16.55-3.41-23.74-7-3.44-1.72-7.7-2.26-11.82-2.22A62.92,62.92,0,0,0,262.11,370a6.41,6.41,0,0,1-.93.25c-0.42,0,.95-0.79,12.43-5.64a24.57,24.57,0,0,1,9.05-2.3c8.31-.11,9.4,7.7,19.95,7.7h0c13.5,0,16.5-5.5,26.5-10a8.62,8.62,0,0,1,3.64-.79c6.79,0,12.58,8.1,19.07,7.82a8.25,8.25,0,0,0,4.36-1.53,32.91,32.91,0,0,1,9.08-4.36,10.07,10.07,0,0,1,.86,3.36c0,1.91,1.56,3.93,3.51,6.12A11.41,11.41,0,0,1,365.11,374Z"/><path class="cls-2" d="M270.55,333c14,2,21.53,0,41.53,13.5a9.62,9.62,0,0,0,2.1.16c3.84-.07,11.92-2,14.92-16.66a13.12,13.12,0,0,1,3.4-6.93c2.27-2.21,5.28-3,8.37-3,3.8,0,7.7.94,10.64,1.47,0.56,0.1,1.48.19,1.48,0.25h0S345.52,326,349,333c3,5.94,13.17,20.5,16.19,28.14a32.81,32.81,0,0,0-9.05,4.36,8.23,8.23,0,0,1-4.34,1.53c-6.49.27-12.28-7.78-19.07-7.82a8.61,8.61,0,0,0-3.64.79c-10,4.5-13,10-26.5,10-10.55,0-11.63-7.81-19.95-7.7a24.57,24.57,0,0,0-9.05,2.3c-11.49,4.85-12.85,5.66-12.43,5.64a6.36,6.36,0,0,0,.93-0.25,62.92,62.92,0,0,1,15.18-2.22c4.12,0,8.38.5,11.82,2.22,7.19,3.59,17,6.67,23.74,7l0.87,0h0.83a9.53,9.53,0,0,0,4.56-1c5-3,4-6,17-6s21.5,7,29,4a11.41,11.41,0,0,0,4.51-3.38c3.67,4.13,8.72,8.83,7.25,14.38-1.37,5.15,2.67,9.75,2.07,13-8.73-1.58-21.22-3.52-29.83-3.52-14.5,0-11.5-6-17.5-4.5s-21,10-34,9.5-28.55-3-35.55.5A98.84,98.84,0,0,1,249,405.15V340.42C255,336.33,262.64,331.87,270.55,333Z"/><path class="cls-2" d="M314.2,346.66c3.83-.07,11.87-2,14.87-16.66a13,13,0,0,1,3.44-6.93,13.12,13.12,0,0,0-3.4,6.93C326.11,344.63,318,346.6,314.2,346.66Z"/><path class="cls-2" d="M351.57,321.54c-2.94-.52-6.89-1.51-10.69-1.47C344.74,320,348.72,321,351.57,321.54Z"/><path class="cls-2" d="M313.72,377h0Z"/><path class="cls-2" d="M282.66,362.3c8.32-.11,9.4,7.7,19.95,7.7h0C292.06,370,291,362.19,282.66,362.3Z"/><path class="cls-2" d="M332.75,359.21c6.79,0,12.58,8.09,19.07,7.82C345.32,367.31,339.53,359.26,332.75,359.21Z"/><path class="cls-2" d="M277.29,367.78A62.92,62.92,0,0,0,262.11,370a6.36,6.36,0,0,1-.93.25,6.41,6.41,0,0,0,.93-0.25A62.92,62.92,0,0,1,277.29,367.78Z"/><path class="cls-7" d="M297.61,399.5c13,0.5,28-8,34-9.5s3,4.5,17.5,4.5c8.61,0,21.11,1.94,29.83,3.52-0.39,2.13-2.74,3.7-9.83,4.48-18,2-21-2.5-26.5-2.5s-8-9.64-33.5,0-25.05,0-35.05,0c-9.39,0-6.05,8.5-25.05,9.54v-4.39A98.84,98.84,0,0,0,262.05,400C269.05,396.5,284.61,399,297.61,399.5Z"/><path class="cls-8" d="M330,133.82c1-5.48,1.79-9.31,1.79-9.31-8.67,4.84-12.67.82-12.67-14.51s31.33-15.33,34.77-3.67c1.31,4.46.93,14.79,0,26.08-5.06,1.59-11.59,3.41-15.46,3.59C333.45,136.24,332.52,134.45,330,133.82Z"/><path class="cls-8" d="M316.61,222.41c0.58-2.16,1.18-4.33,1.65-6.19,5.42,0.9,15.89,4.47,17.27,8.78,1,3.26,8.47,2.27,13.51,1.18,0,0.36,0,.72.07,1.07,0.82,10.07-10.74,37.86-14.88,47.44-3-4.94-5.12-8.19-5.12-8.19C331.79,237.63,322.53,226.56,316.61,222.41Z"/><path class="cls-8" d="M324.89,173.61a44.39,44.39,0,0,0,.89-8.36,153.64,153.64,0,0,1,1.8-17.13c5.1,1.11,12.87,2.2,13.93-1.12,1-3.07,6.62-5.75,11.76-7.38-1.35,14.44-3.13,28.73-3,33-5,1.54-11.14,3.23-14.86,3.4C329.29,176.29,329.31,173.5,324.89,173.61Z"/><path class="cls-8" d="M338.57,214c-5.15-.25-14.86-3.37-19.65-5-0.56-5.68-2-16.77.19-22.32,0.18-.45.36-0.87,0.55-1.27,0.24,1,.45,1.61.45,1.61s16.81,5,18.41,0c1.08-3.4,7.88-6.33,13.39-7.86,1.19,5.34,2.33,12.52,1.87,15.53-0.4,2.59-2.35,9.37-3.64,17C344.57,211.05,345.19,214.32,338.57,214Z"/><path class="cls-9" d="M341.51,147c-1.06,3.32-8.83,2.23-13.93,1.12,0.76-5.09,1.64-10.17,2.4-14.3,2.54,0.63,3.47,2.42,8.46,2.18,3.88-.18,10.4-2,15.46-3.59-0.19,2.38-.4,4.8-0.63,7.21C348.13,141.25,342.49,143.93,341.51,147Z"/><path class="cls-9" d="M338.51,187c-1.59,5-18.41,0-18.41,0s-0.21-.63-0.45-1.61c1.86-4,4-6.29,5.23-11.78,4.42-.11,4.4,2.69,10.55,2.39,3.72-.18,9.9-1.86,14.86-3.4a4,4,0,0,0,.14,1.07,50.6,50.6,0,0,1,1.46,5.47C346.4,180.67,339.6,183.6,338.51,187Z"/><path class="cls-9" d="M335.52,225c-1.38-4.31-11.85-7.88-17.27-8.78a24,24,0,0,0,.85-4.55c0-.61-0.08-1.54-0.19-2.68,4.79,1.64,14.5,4.77,19.65,5,6.63,0.32,6-2.95,11.57-2.31a68.13,68.13,0,0,0-1.1,14.49C344,227.27,336.56,228.26,335.52,225Z"/><g class="cls-10"><path class="cls-4" d="M376.86,385c1.47-5.56-3.57-10.26-7.25-14.38-1.95-2.19-3.51-4.21-3.51-6.12a10.07,10.07,0,0,0-.86-3.36,32.83,32.83,0,0,0-9.08,4.34,7.74,7.74,0,0,1-4.36,1.52h0a7.71,7.71,0,0,0,4.34-1.51,32.77,32.77,0,0,1,9.05-4.35c-3-7.65-13.22-22.2-16.19-28.14-3.5-7,4-11.21,4-11.21h0a0.25,0.25,0,0,0-.13,0l0.31,0c1.16-2.46.52-6.78-1.15-11.78h0c-3.65-11-12.24-26.13-17.81-35.31-3-4.94-5.12-8.19-5.12-8.19,2.69-28.87-6.58-39.93-12.5-44.09-2.9-2-5-2.41-4.5-2.41s0.72-3.77.65-8.33c-6.22-5.5-20.34-10.79-19.11-10.82-1.22,0,12.89,5.32,19.11,10.82-0.1-6.93-.65-15.67-0.65-15.67-0.34-1.11-.69-2.2-1-3.28-4.81,3.28-11.69,8.4-16.11,8.29,4.42,0.1,11.3-5,16.11-8.29-7.89-24.48-17.44-40.37-27-50.59h0a60,60,0,0,0-16.23-12.56C246,156.14,254.15,160.06,256.11,163c1,1.5,4.37,2.25,9,2.25-4.63,0-8-.75-9-2.25-2-2.94-10.18-6.86,11.69-33.44a45.16,45.16,0,0,0-18.77-5V292.09l0.57,0-0.57,0V409.54c19-1,15.66-9.54,25.05-9.54,10,0,9.55,9.64,35.05,0s28,0,33.5,0,8.5,4.5,26.5,2.5c7.1-.79,9.44-2.36,9.83-4.48C379.54,394.75,375.5,390.15,376.86,385ZM272.5,247.45a22.31,22.31,0,0,1-4.84-.55A22.36,22.36,0,0,0,272.5,247.45Zm-5.82-3.89a1.51,1.51,0,0,0-.51-0.05,1.53,1.53,0,0,1,.54.05,21.06,21.06,0,0,0,5.12.87A21.07,21.07,0,0,1,266.69,243.56ZM299.1,290a3.85,3.85,0,0,0,2.05,1,3.84,3.84,0,0,1-2.06-1c-7.5-6.5-11-6-12.18-6.75h0C288.1,284,291.6,283.5,299.1,290Zm-36.91,8.92a7.39,7.39,0,0,0,.92,0A7.39,7.39,0,0,1,262.19,298.92ZM340.86,320a11.64,11.64,0,0,0-8.1,2.81h0a11.62,11.62,0,0,1,8.14-2.82h0Zm0,0.07h0Zm-41.81,49.59,0.13,0Zm1.67,0.25c0.23,0,.49,0,0.73,0C301.23,369.93,301,369.93,300.74,369.91Zm28.56-10c-10,4.5-13.3,10.05-26.3,10.05v0c13,0,16.3-5.59,26.3-10.09a8.07,8.07,0,0,1,3.45-.88h0A8.09,8.09,0,0,0,329.3,359.89Zm3-36.56a13.21,13.21,0,0,0-3.19,6.67c-2.42,11.78-8.1,15.35-12.23,16.33h0c4.13-1,9.82-4.54,12.24-16.33a13.18,13.18,0,0,1,3.22-6.7Zm-15.53,23h0l-0.09,0h0Zm-4.58.16a9.77,9.77,0,0,0,2,.15h0a9.62,9.62,0,0,1-2.1-.16c-19.37-13.08-27-11.61-40.23-13.32,13.19,1.71,20.88.25,40.26,13.32h0Zm-38.55,18.1a24.57,24.57,0,0,1,9.05-2.3h0a24.57,24.57,0,0,0-9.05,2.3c-11.49,4.85-12.85,5.66-12.43,5.64h0C260.76,370.27,262.12,369.46,273.61,364.61Zm78-43.07C348.64,321,345,320,341,320v0h-0.12c3.78,0,7.71,1,10.64,1.49l0,0,0.61,0.11Zm-19-14a41,41,0,0,0,15.48,2.77,41,41,0,0,1-15.49-2.77,5.12,5.12,0,0,0-1.69-.4A5.11,5.11,0,0,1,332.61,307.5Zm-16.32,18.73a13.28,13.28,0,0,1-4.21-.73c-12.75-4.12-21-11.16-30-11.32,9,0.16,17.32,7.2,30.07,11.32A13.32,13.32,0,0,0,316.29,326.23Zm-7.88-43.79A86.54,86.54,0,0,0,312.09,270h0A86.58,86.58,0,0,1,308.41,282.44Zm-14.11-7.7a38.63,38.63,0,0,1-4.82-.24s-0.29-1-2.24-.94c2,0,2.27.94,2.27,0.94A38.63,38.63,0,0,0,294.3,274.74ZM288.09,232a1.5,1.5,0,0,0-.84.19A1.49,1.49,0,0,1,288.09,232Zm-38.47-43.82h0c11.66,0,16.16-5.09,17.78-8.1h0C265.78,183.1,261.27,188.18,249.62,188.18ZM267,175.65a2,2,0,0,0-.84-0.14,2,2,0,0,1,.86.14c6.78,2.74,10.79,3.43,13.16,3.35C277.84,179.08,273.82,178.39,267,175.65ZM279.23,215l0.16-18,0.2-14h0c3,0,5.16-.7,6.62-2.25,3.71-3.95.57-10.82,0.2-11.59a2,2,0,0,0-1.9-1.13,2,2,0,0,1,1.9,1.13c0.37,0.77,3.5,7.64-.2,11.59-1.46,1.55-3.65,2.29-6.62,2.25l-0.14,14-0.18,18a15.23,15.23,0,0,1-15.15,15A15.21,15.21,0,0,0,279.23,215ZM264.9,244.33l0,0,0,0A21,21,0,0,1,254.54,253,21,21,0,0,0,264.9,244.33Zm2.06,2.41h0a23.12,23.12,0,0,1-14.1,9.94A23.12,23.12,0,0,0,267,246.75Zm1.54,35.75c3.09-2.07,5.73-3.68,8-4.93-2.25,1.25-4.89,2.86-8,4.93A25.7,25.7,0,0,1,253.64,287,25.7,25.7,0,0,0,268.5,282.5Zm-0.9,50.33a23.08,23.08,0,0,0-7.16,1.4A23.08,23.08,0,0,1,267.6,332.83Z"/><path class="cls-4" d="M316.61,222.41c5.92,4.15,15.18,15.22,12.5,44.09,0,0,2.12,3.25,5.12,8.19,4.14-9.58,15.7-37.36,14.88-47.44,0-.35-0.05-0.71-0.07-1.07a68.13,68.13,0,0,1,1.1-14.49c1.29-7.65,3.24-14.43,3.64-17,0.46-3-.68-10.19-1.87-15.53a50.6,50.6,0,0,0-1.46-5.47,4,4,0,0,1-.14-1.07c-0.16-4.25,1.62-18.53,3-33,0.23-2.42.44-4.84,0.63-7.21,0.9-11.28,1.29-21.62,0-26.08-3.44-11.67-34.77-11.67-34.77,3.67s4,19.36,12.67,14.51c0,0-.79,3.83-1.79,9.31-0.76,4.13-1.64,9.21-2.4,14.3a153.64,153.64,0,0,0-1.8,17.13,44.39,44.39,0,0,1-.89,8.36c-1.2,5.49-3.37,7.74-5.23,11.78-0.19.41-.37,0.83-0.55,1.27-2.22,5.55-.74,16.64-0.19,22.32,0.11,1.14.19,2.07,0.19,2.68a24,24,0,0,1-.85,4.55C317.79,218.08,317.19,220.25,316.61,222.41Z"/></g><path class="cls-7" d="M178.75,465.94V465h5.63v1.88h1.88v1.88h1.88v5.63h-1.87v1.88h-1.87v1.88h-5.62v-1.87h-1.87v-1.87H175v-5.62h1.88v-1.87h1.88v-0.94Zm3.75,1.88v-0.94h-3.75v7.5h1.88v1.88h3.75v-7.5H182.5v-0.94Z"/><path class="cls-7" d="M191.88,465.94V465h7.5v1.88h1.88v3.75h-1.87v1.88h3.75v3.75h-1.87v1.88h-9.37v-1.87H190V472.5h1.88v-1.87H190v-3.75h1.88v-0.94Zm3.75,7.5V472.5h-3.75v3.75h7.5v-1.87h-3.75v-0.94Zm3.75-4.69v-1.87h-5.62v1.88h1.88v1.88h3.75v-1.87Z"/><path class="cls-7" d="M206.88,465.94V465h7.5v1.88h1.88v3.75h-1.87v1.88h3.75v3.75h-1.87v1.88h-9.37v-1.87H205V472.5h1.88v-1.87H205v-3.75h1.88v-0.94Zm3.75,7.5V472.5h-3.75v3.75h7.5v-1.87h-3.75v-0.94Zm3.75-4.69v-1.87h-5.62v1.88h1.88v1.88h3.75v-1.87Z"/><path class="cls-7" d="M238.75,465.94V465h9.38v1.88h-7.5v1.88h-1.87v5.63h1.88v1.88h3.75V472.5H242.5v-1.87h5.63v7.5h-9.37v-1.87h-1.87v-1.87H235v-5.62h1.88v-1.87h1.88v-0.94Z"/><path class="cls-7" d="M250,471.56V465h11.25v1.88h1.88v5.63h-3.75v1.88h1.88v1.88h1.88v1.88H257.5v-1.87h-1.87v-1.87h-1.87v3.75H250v-6.56Zm9.38-2.81v-1.87h-5.62v5.63h3.75v-1.87h1.88v-1.87Z"/><path class="cls-7" d="M266.88,465.94V465h11.25v1.88h-3.75v9.38h3.75v1.88H266.88v-1.87h3.75v-9.37h-3.75v-0.94Z"/><path class="cls-7" d="M280,471.56V465h3.75v1.88h1.88v1.88h1.88v-1.87h1.88V465h3.75v13.13h-3.75V472.5H287.5v1.88h-1.87V472.5h-1.87v5.63H280v-6.56Z"/><path class="cls-7" d="M295,471.56V465h13.13v1.88h-9.37v3.75h7.5v1.88h-7.5v3.75h9.38v1.88H295v-6.56Z"/><path class="cls-7" d="M310,471.56V465h11.25v1.88h1.88v5.63h-3.75v1.88h1.88v1.88h1.88v1.88H317.5v-1.87h-1.87v-1.87h-1.87v3.75H310v-6.56Zm9.38-2.81v-1.87h-5.62v5.63h3.75v-1.87h1.88v-1.87Z"/></svg>