<?xml version="1.0" ?><svg id="pkft" viewBox="0 0 500 500" xmlns="http://www.w3.org/2000/svg"><defs><style>.cls-1{fill:#aa97ac;}.cls-2{fill:#7f6584;}.cls-3{fill:#44424d;}.cls-4{fill:#bfaec4;}.cls-5{fill:#fff;}.cls-6,.cls-8{fill:#1a1a1a;}.cls-7{fill:none;}.cls-8{opacity:0.1;}</style></defs><title/><path class="cls-1" d="M182.9,200c8.77-3.67,22.77-8.24,27.1-4s1,8.87,16.33,9.25A212.55,212.55,0,0,1,250,207.06V159.58c-56.89-5.79-70.1,28.13-75,30.42-2,.91-3.3,3.12-4.61,6.47C178.24,198,176.17,202.81,182.9,200Z"/><path class="cls-1" d="M170,323.67c-15.35.32-31.39-2.88-43.86-6.26-0.46,4.87-.47,9.91-0.47,16.52a18,18,0,0,1-2.51,9.15c11-.73,23.22-0.82,26.84,1.93,7,5.33-10.33,8,20,5s36.18-3.06,36.18-3.06S181,359,170,360s-28.33,1-29-5c-0.36-3.21-11-5.84-20.84-7.6-5,6.25-12.16,12.21-15.82,22.6-4.37,12.39-6.27,15-9.69,18.67,12.38-2.93,27.22-5.17,41-2.34,26,5.33,35,10.67,47.83,8.67s25.71-10.87,39.6-4.77c10,4.41,18.39,4.69,26.9,4.85V328.43c-12.18-3.28-25.83-10.48-35.72-11.58C200.9,315.36,201.67,323,170,323.67Z"/><path class="cls-1" d="M250,407.64v-0.76l-1.06.66Z"/><path class="cls-2" d="M205,220c9.29-1,20.71-4.33,25-8.24,2.52-2.27,12.29-1.9,20-1.19v-3.52a212.55,212.55,0,0,0-23.67-1.76c-15.33-.37-12-5-16.33-9.25s-18.33.28-27.1,4c-6.73,2.81-4.65-2-12.51-3.53-1.53,3.92-3,9.41-5.37,16.3,2.43,2.09,6,3.79,11.31,4.22C192.67,218.33,195.67,221,205,220Zm-7.46-20s7.18,2.7,13.94,5.29l2.82,1.09c5.28,2,9.57,3.76,8.74,3.62-2-.33-28.67,7-28.67,7Z"/><path class="cls-1" d="M250,270.72h0a95.16,95.16,0,0,0-35.72-6.92A95.2,95.2,0,0,1,250,270.72Z"/><path class="cls-3" d="M209.83,235.67c-30,.67-49.92,12.67-49.92,30a18.23,18.23,0,0,0,2.49,8.73c13.51-5.42,32-10.74,51.88-10.6A95.16,95.16,0,0,1,250,270.72v-25C242.79,241.33,229.2,235.24,209.83,235.67Z"/><path class="cls-4" d="M162.41,274.41h0c8.57,15.52,35.75,31.46,42.47,25.59,6.89-6,31-13,45.17-10V270.72a95.2,95.2,0,0,0-35.72-6.92C194.39,263.67,175.92,269,162.41,274.41Z"/><path class="cls-4" d="M214.28,263.8c-19.89-.13-38.37,5.18-51.88,10.6h0C175.92,269,194.39,263.67,214.28,263.8Z"/><path class="cls-5" d="M223,210c0.83,0.14-3.46-1.57-8.74-3.62,0,0.22,0,.44,0,0.67,0,2.6-.66,4.72-1.47,4.72s-1.47-2.11-1.47-4.72a14.1,14.1,0,0,1,.11-1.75C204.68,202.7,197.5,200,197.5,200l-3.17,17S221,209.67,223,210Z"/><path class="cls-6" d="M212.81,211.76c0.81,0,1.47-2.11,1.47-4.72,0-.23,0-0.45,0-0.67l-2.82-1.09a14.1,14.1,0,0,0-.11,1.75C211.33,209.65,212,211.76,212.81,211.76Z"/><path class="cls-2" d="M183.5,395c-12.83,2-21.83-3.33-47.83-8.67-13.8-2.83-28.64-.59-41,2.34-1.27,1.35-2.75,2.83-4.65,5l158.94,13.88,1.06-.66V395.08c-8.51-.16-16.86-0.44-26.9-4.85C209.21,384.13,196.33,393,183.5,395Z"/><path class="cls-2" d="M141,355c0.67,6,18,6,29,5s36.18-13.06,36.18-13.06S200.33,347,170,350s-13,.33-20-5c-3.61-2.75-15.85-2.66-26.84-1.93a33.06,33.06,0,0,1-3,4.33C130,349.16,140.64,351.79,141,355Z"/><path class="cls-2" d="M126.76,312.56c-0.27,1.63-.47,3.23-0.63,4.84,12.47,3.39,28.51,6.59,43.86,6.26,31.67-.67,30.9-8.31,44.28-6.82,9.89,1.1,23.54,8.3,35.72,11.58v-4.66A162.32,162.32,0,0,0,188.34,310C149.12,309.11,179,317.75,126.76,312.56Z"/><path class="cls-7" d="M144.88,247a22.74,22.74,0,0,1,5.12-7c0.7-.68,1.33-1.27,1.9-1.8a38.77,38.77,0,0,1-8.14,3.5C144.18,243.56,144.56,245.36,144.88,247Z"/><path class="cls-1" d="M137,130.83c4.66,3,7.39,4.47,9.78,4,1.71-5.45,2.79-9.7,3.22-10.34,0,0,5-4.53,15-8.19s9.31-6.67,8-12.67S156.33,100,156.33,100C176.33,89.67,175,80,170,75s-25,16-27,15-7.33-10-16.86-6.33S133,98,133,98s-8.8,18.07-14.75,32.42a62.52,62.52,0,0,0,8.75,2.24C131.67,133.33,130,126.33,137,130.83Z"/><path class="cls-1" d="M124,163.83a37.19,37.19,0,0,0,6.5,3.61,38.79,38.79,0,0,1,5.8-9.59c3-3.81,5.56-9.25,7.61-14.63A15.5,15.5,0,0,1,137,139c-7-7.37-11.33,9.91-20,5a10.17,10.17,0,0,1-2.94-2.45,28,28,0,0,0-1.06,4.17c-0.94,6.58.43,13.59-.43,19.74,0.5,0.1,1,.19,1.43.25C118.67,166.33,117,159.33,124,163.83Z"/><path class="cls-1" d="M124,202.83a44,44,0,0,0,5.84,3.34c-2.89-8.38-4.46-17.37-3.08-23.13,0.69-2.88,1.1-5.41,1.57-7.84A15.52,15.52,0,0,1,124,172c-6.18-6.49-10.26,6.11-17.06,5.85-3,6-4.45,12.09-3.94,16.47a56.82,56.82,0,0,0,2,8,63.88,63.88,0,0,0,9,2.32C118.67,205.33,117,198.33,124,202.83Z"/><path class="cls-1" d="M209.83,235.67c19.37-.43,33,5.67,40.17,10V210.58c-7.71-.71-17.48-1.09-20,1.19-4.33,3.9-15.75,7.24-25,8.24s-12.29-1.67-28.63-3c-5.3-.43-8.88-2.13-11.31-4.22-0.77,2.27-1.63,4.66-2.62,7.22-5.57,14.36-3.45,11.83-8.68,16.53l0.19,0.42s-0.74.52-2,1.25c-0.57.53-1.2,1.12-1.9,1.8a22.74,22.74,0,0,0-5.12,7c-0.32-1.63-.7-3.43-1.12-5.3a25,25,0,0,1-11.76.8c-11-2.16-10.1,13.9-22.24,14.55h-0.08a14.3,14.3,0,0,1,.31,3v23s2.67,11,6.33,14S130,300,130,300a81.88,81.88,0,0,0-3.24,12.56c52.24,5.19,22.36-3.45,61.58-2.56A162.32,162.32,0,0,1,250,323.77V290c-14.21-3.07-38.28,3.94-45.17,10-6.71,5.87-33.9-10.07-42.47-25.59h0a18.23,18.23,0,0,1-2.49-8.73C159.92,248.33,179.83,236.33,209.83,235.67Z"/><path class="cls-1" d="M129.13,236c6.33-.08,10.08-0.33,12.77-1.74-1.51-5.4-3.38-10.66-5.56-14.12-0.83-1.31-1.64-2.75-2.42-4.29A15.85,15.85,0,0,1,124,211c-6.12-6.42-10.18,5.87-16.86,5.86,0,0.42-.07.83-0.14,1.25-1.33,8.89-1.2,6.85-4.1,17.54a13.29,13.29,0,0,0,1.3,10.42,134.83,134.83,0,0,0,13.58-3.32C123.62,240.8,119.15,236.1,129.13,236Z"/><path class="cls-2" d="M117,144c8.67,5,13-12.32,20-5a15.5,15.5,0,0,0,6.91,4.22c1.1-2.89,2.06-5.76,2.88-8.36-2.39.43-5.13-1-9.78-4-7-4.5-5.33,2.5-10,1.83a62.52,62.52,0,0,1-8.75-2.24c-1.74,4.2-3.23,8.06-4.19,11.08A10.17,10.17,0,0,0,117,144Z"/><path class="cls-2" d="M124,172a15.52,15.52,0,0,0,4.33,3.21,40.11,40.11,0,0,1,2.17-7.77,37.19,37.19,0,0,1-6.5-3.61c-7-4.5-5.33,2.5-10,1.83-0.44-.06-0.93-0.15-1.43-0.25A16.65,16.65,0,0,1,110,172.6a46.79,46.79,0,0,0-3.06,5.25C113.74,178.11,117.82,165.51,124,172Z"/><path class="cls-2" d="M124,211a15.85,15.85,0,0,0,9.91,4.83,76.29,76.29,0,0,1-4.07-9.66,44,44,0,0,1-5.84-3.34c-7-4.5-5.33,2.5-10,1.83a63.88,63.88,0,0,1-9-2.32c1.28,4.42,2.57,9.48,2.13,14.51C113.82,216.87,117.88,204.58,124,211Z"/><path class="cls-2" d="M153.92,236.94l-0.19-.42c-0.53.47-1.13,1-1.82,1.67C153.18,237.46,153.92,236.94,153.92,236.94Z"/><path class="cls-2" d="M132,242.49a25,25,0,0,0,11.76-.8c-0.54-2.41-1.17-4.95-1.87-7.46-2.69,1.42-6.44,1.67-12.77,1.74-10,.12-5.51,4.82-11.34,6.76a134.83,134.83,0,0,1-13.58,3.32c1.86,3.52,4.58,6.66,5.49,11h0.08C121.91,256.4,121,240.34,132,242.49Z"/><path class="cls-1" d="M317.1,200c-8.77-3.67-22.77-8.24-27.1-4s-1,8.87-16.33,9.25A222.63,222.63,0,0,0,250,207.06V159.58c57-5.79,70.1,28.13,75,30.42,2,0.91,3.3,3.12,4.61,6.47C321.76,198,323.83,202.81,317.1,200Z"/><path class="cls-1" d="M330,323.67c15.35,0.32,31.39-2.88,43.86-6.26,0.46,4.87.47,9.91,0.47,16.52a18,18,0,0,0,2.51,9.15c-11-.73-23.22-0.82-26.84,1.93-7,5.33,10.33,8-20,5s-36.18-3.06-36.18-3.06S319,359,330,360s28.33,1,29-5c0.36-3.21,11-5.84,20.84-7.6,5,6.25,12.16,12.21,15.82,22.6,4.37,12.39,6.27,15,9.69,18.67-12.38-2.93-27.22-5.17-41-2.34-26,5.33-35,10.67-47.83,8.67s-25.71-10.87-39.6-4.77c-10,4.41-18.39,4.69-26.9,4.85V328.43c12.18-3.28,25.83-10.48,35.72-11.58C299.1,315.36,298.33,323,330,323.67Z"/><path class="cls-1" d="M250,407.64v-0.76l1.06,0.66Z"/><path class="cls-2" d="M323.67,217c5.3-.43,8.88-2.13,11.31-4.22-2.35-6.89-3.84-12.39-5.37-16.3-7.86,1.5-5.78,6.34-12.51,3.53-8.77-3.67-22.77-8.24-27.1-4s-1,8.87-16.33,9.25A222.63,222.63,0,0,0,250,207.06v3.52c8-.71,17.48-1.09,20,1.19,4.33,3.9,15.75,7.24,25,8.24S307.33,218.33,323.67,217Zm-18,0S279,209.67,277,210c-0.83.14,3.46-1.57,8.74-3.62l2.82-1.09c6.76-2.59,13.94-5.29,13.94-5.29Z"/><path class="cls-1" d="M250,270.72h0a95.16,95.16,0,0,1,35.72-6.92A95.2,95.2,0,0,0,250,270.72Z"/><path class="cls-3" d="M290.17,235.67c30,0.67,49.92,12.67,49.92,30a18.23,18.23,0,0,1-2.49,8.73c-13.51-5.42-32-10.74-51.88-10.6A95.16,95.16,0,0,0,250,270.72v-25C257.21,241.33,270.8,235.24,290.17,235.67Z"/><path class="cls-4" d="M337.59,274.41h0c-8.57,15.52-35.75,31.46-42.47,25.59-6.89-6-31-13-45.17-10V270.72a95.2,95.2,0,0,1,35.72-6.92C305.61,263.67,324.08,269,337.59,274.41Z"/><path class="cls-4" d="M285.72,263.8c19.89-.13,38.37,5.18,51.88,10.6h0C324.08,269,305.61,263.67,285.72,263.8Z"/><path class="cls-5" d="M277,210c-0.83.14,3.46-1.57,8.74-3.62,0,0.22,0,.44,0,0.67,0,2.6.66,4.72,1.47,4.72s1.47-2.11,1.47-4.72a14.1,14.1,0,0,0-.11-1.75c6.76-2.59,13.94-5.29,13.94-5.29l3.17,17S279,209.67,277,210Z"/><path class="cls-6" d="M287.19,211.76c-0.81,0-1.47-2.11-1.47-4.72,0-.23,0-0.45,0-0.67l2.82-1.09a14.1,14.1,0,0,1,.11,1.75C288.67,209.65,288,211.76,287.19,211.76Z"/><path class="cls-2" d="M316.5,395c12.83,2,21.83-3.33,47.83-8.67,13.8-2.83,28.64-.59,41,2.34,1.27,1.35,2.75,2.83,4.65,5L251.06,407.55l-1.06-.66V395.08c8.51-.16,16.86-0.44,26.9-4.85C290.79,384.13,303.67,393,316.5,395Z"/><path class="cls-2" d="M359,355c-0.67,6-18,6-29,5s-36.18-13.06-36.18-13.06S299.67,347,330,350s13,0.33,20-5c3.61-2.75,15.85-2.66,26.84-1.93a33.06,33.06,0,0,0,3,4.33C370,349.16,359.36,351.79,359,355Z"/><path class="cls-2" d="M373.24,312.56c0.27,1.63.47,3.23,0.63,4.84-12.47,3.39-28.51,6.59-43.86,6.26-31.67-.67-30.9-8.31-44.28-6.82-9.89,1.1-23.54,8.3-35.72,11.58v-4.66A162.32,162.32,0,0,1,311.66,310C350.88,309.11,321,317.75,373.24,312.56Z"/><path class="cls-7" d="M355.12,247a22.74,22.74,0,0,0-5.12-7c-0.7-.68-1.33-1.27-1.9-1.8a38.77,38.77,0,0,0,8.14,3.5C355.82,243.56,355.44,245.36,355.12,247Z"/><path class="cls-1" d="M363,130.83c-4.66,3-7.39,4.47-9.78,4-1.71-5.45-2.79-9.7-3.22-10.34,0,0-5-4.53-15-8.19s-9.31-6.67-8-12.67S343.67,100,343.67,100C323.67,89.67,325,80,330,75s25,16,27,15,7.33-10,16.86-6.33S367,98,367,98s8.8,18.07,14.75,32.42a62.52,62.52,0,0,1-8.75,2.24C368.33,133.33,370,126.33,363,130.83Z"/><path class="cls-1" d="M376,163.83a37.19,37.19,0,0,1-6.5,3.61,38.79,38.79,0,0,0-5.8-9.59c-3-3.81-5.56-9.25-7.61-14.63A15.5,15.5,0,0,0,363,139c7-7.37,11.33,9.91,20,5a10.17,10.17,0,0,0,2.94-2.45,28,28,0,0,1,1.06,4.17c0.94,6.58-.43,13.59.43,19.74-0.5.1-1,.19-1.43,0.25C381.33,166.33,383,159.33,376,163.83Z"/><path class="cls-1" d="M376,202.83a44,44,0,0,1-5.84,3.34c2.89-8.38,4.46-17.37,3.08-23.13-0.69-2.88-1.1-5.41-1.57-7.84A15.52,15.52,0,0,0,376,172c6.18-6.49,10.26,6.11,17.06,5.85,3,6,4.45,12.09,3.94,16.47a56.82,56.82,0,0,1-2,8,63.88,63.88,0,0,1-9,2.32C381.33,205.33,383,198.33,376,202.83Z"/><path class="cls-1" d="M290.17,235.67c-19.37-.43-33,5.67-40.17,10V210.58c7.71-.71,17.48-1.09,20,1.19,4.33,3.9,15.75,7.24,25,8.24s12.29-1.67,28.63-3c5.3-.43,8.88-2.13,11.31-4.22,0.77,2.27,1.63,4.66,2.62,7.22,5.57,14.36,3.45,11.83,8.68,16.53l-0.19.42s0.74,0.52,2,1.25c0.57,0.53,1.2,1.12,1.9,1.8a22.74,22.74,0,0,1,5.12,7c0.32-1.63.7-3.43,1.12-5.3a25,25,0,0,0,11.76.8c11-2.16,10.1,13.9,22.24,14.55h0.08a14.3,14.3,0,0,0-.31,3v23s-2.67,11-6.33,14S370,300,370,300a81.88,81.88,0,0,1,3.24,12.56c-52.24,5.19-22.36-3.45-61.58-2.56A162.32,162.32,0,0,0,250,323.77V290c14.21-3.07,38.28,3.94,45.17,10,6.71,5.87,33.9-10.07,42.47-25.59h0a18.23,18.23,0,0,0,2.49-8.73C340.08,248.33,320.17,236.33,290.17,235.67Z"/><path class="cls-1" d="M370.87,236c-6.33-.08-10.08-0.33-12.77-1.74,1.51-5.4,3.38-10.66,5.56-14.12,0.83-1.31,1.64-2.75,2.42-4.29A15.85,15.85,0,0,0,376,211c6.12-6.42,10.18,5.87,16.86,5.86,0,0.42.07,0.83,0.14,1.25,1.33,8.89,1.2,6.85,4.1,17.54a13.29,13.29,0,0,1-1.3,10.42,134.83,134.83,0,0,1-13.58-3.32C376.38,240.8,380.85,236.1,370.87,236Z"/><path class="cls-2" d="M383,144c-8.67,5-13-12.32-20-5a15.5,15.5,0,0,1-6.91,4.22c-1.1-2.89-2.06-5.76-2.88-8.36,2.39,0.43,5.13-1,9.78-4,7-4.5,5.33,2.5,10,1.83a62.52,62.52,0,0,0,8.75-2.24c1.74,4.2,3.23,8.06,4.19,11.08A10.17,10.17,0,0,1,383,144Z"/><path class="cls-2" d="M376,172a15.52,15.52,0,0,1-4.33,3.21,40.11,40.11,0,0,0-2.17-7.77,37.19,37.19,0,0,0,6.5-3.61c7-4.5,5.33,2.5,10,1.83,0.44-.06.93-0.15,1.43-0.25A16.65,16.65,0,0,0,390,172.6a46.79,46.79,0,0,1,3.06,5.25C386.26,178.11,382.18,165.51,376,172Z"/><path class="cls-2" d="M376,211a15.85,15.85,0,0,1-9.91,4.83,76.29,76.29,0,0,0,4.07-9.66,44,44,0,0,0,5.84-3.34c7-4.5,5.33,2.5,10,1.83a63.88,63.88,0,0,0,9-2.32c-1.28,4.42-2.57,9.48-2.13,14.51C386.18,216.87,382.12,204.58,376,211Z"/><path class="cls-2" d="M346.08,236.94l0.19-.42c0.53,0.47,1.13,1,1.82,1.67C346.82,237.46,346.08,236.94,346.08,236.94Z"/><path class="cls-2" d="M368,242.49a25,25,0,0,1-11.76-.8c0.54-2.41,1.17-4.95,1.87-7.46,2.69,1.42,6.44,1.67,12.77,1.74,10,0.12,5.51,4.82,11.34,6.76a134.83,134.83,0,0,0,13.58,3.32c-1.86,3.52-4.58,6.66-5.49,11h-0.08C378.09,256.4,379,240.34,368,242.49Z"/><path class="cls-8" d="M405.35,388.67c-3.42-3.63-5.31-6.28-9.69-18.67-3.67-10.39-10.82-16.36-15.82-22.6a33.06,33.06,0,0,1-3-4.33,18,18,0,0,1-2.51-9.15c0-6.6,0-11.65-.47-16.52-0.15-1.61-.36-3.21-0.63-4.84A81.88,81.88,0,0,0,370,300s10,0,13.67-3S390,283,390,283V260a14.3,14.3,0,0,1,.31-3c0.91-4.32,3.63-7.46,5.49-11a13.29,13.29,0,0,0,1.3-10.42c-2.9-10.69-2.77-8.65-4.1-17.54-0.06-.42-0.1-0.83-0.14-1.25-0.45-5,.85-10.08,2.13-14.51a56.82,56.82,0,0,0,2-8c0.51-4.38-1-10.5-3.94-16.47A46.79,46.79,0,0,0,390,172.6a16.65,16.65,0,0,1-2.57-7.19c-0.86-6.16.51-13.16-.43-19.74a28,28,0,0,0-1.06-4.17c-1-3-2.45-6.88-4.19-11.08C375.8,116.08,367,98,367,98s16.4-10.67,6.86-14.34S359,89,357,90s-22-20-27-15-6.33,14.67,13.67,25c0,0-15.33-2.33-16.67,3.67s-2,9,8,12.67,15,8.19,15,8.19c0.42,0.64,1.5,4.89,3.22,10.34,0.82,2.6,1.77,5.47,2.88,8.36,2.05,5.38,4.59,10.81,7.61,14.63a38.79,38.79,0,0,1,5.8,9.59,40.11,40.11,0,0,1,2.17,7.77c0.47,2.43.87,5,1.57,7.84,1.38,5.76-.19,14.74-3.08,23.13a76.29,76.29,0,0,1-4.07,9.66c-0.78,1.54-1.59,3-2.42,4.29-2.19,3.45-4.05,8.71-5.56,14.12-0.7,2.51-1.33,5-1.87,7.46a38.77,38.77,0,0,1-8.14-3.5c-0.69-.64-1.3-1.19-1.82-1.67-5.23-4.69-3.1-2.17-8.68-16.53-1-2.56-1.85-5-2.62-7.22-2.35-6.89-3.84-12.39-5.37-16.3-1.31-3.35-2.65-5.56-4.61-6.47-4.9-2.28-18-36.21-75-30.42V270.72h0V407.64l1.06-.09L410,393.67C408.1,391.5,406.62,390,405.35,388.67ZM270,211.76c-1.42-1.28-5.11-1.72-9.44-1.73C264.92,210,268.57,210.48,270,211.76Z"/><path class="cls-2" d="M201.25,465.94V465h5.63v1.88h1.88v1.88h1.88v5.63h-1.87v1.88h-1.87v1.88h-5.62v-1.87h-1.87v-1.87H197.5v-5.62h1.88v-1.87h1.88v-0.94Zm3.75,1.88v-0.94h-3.75v7.5h1.88v1.88h3.75v-7.5H205v-0.94Z"/><path class="cls-2" d="M214.38,465.94V465h7.5v1.88h1.88v3.75h-1.87v1.88h3.75v3.75h-1.87v1.88h-9.37v-1.87H212.5V472.5h1.88v-1.87H212.5v-3.75h1.88v-0.94Zm3.75,7.5V472.5h-3.75v3.75h7.5v-1.87h-3.75v-0.94Zm3.75-4.69v-1.87h-5.62v1.88h1.88v1.88h3.75v-1.87Z"/><path class="cls-2" d="M229.38,465.94V465h9.38v1.88h1.88v7.5h-1.87v1.88h-1.87v1.88h-7.5v-1.87H235v-1.87h1.88V472.5h-7.5v-1.87H227.5v-3.75h1.88v-0.94Zm7.5,2.81v-1.87h-5.62v3.75h5.63v-1.87Z"/><path class="cls-2" d="M257.5,471.56V465h3.75v1.88h1.88v1.88H265v-1.87h1.88V465h3.75v13.13h-3.75V472.5H265v1.88h-1.87V472.5h-1.87v5.63H257.5v-6.56Z"/><path class="cls-2" d="M272.5,470.63V465h3.75v11.25h5.63V465h3.75v11.25h-1.87v1.88h-9.37v-1.87H272.5v-5.62Z"/><path class="cls-2" d="M287.5,471.56V465h3.75v5.63h1.88v-1.87H295v-1.87h1.88V465h3.75v1.88h-1.87v1.88h-1.87v1.88H295v1.88h1.88v1.88h1.88v1.88h1.88v1.88H295v-1.87h-1.87v-1.87h-1.87v3.75H287.5v-6.56Z"/></svg>