<?xml version="1.0" ?><svg id="pkft" viewBox="0 0 500 500" xmlns="http://www.w3.org/2000/svg"><defs><style>.cls-1{fill:#87a9da;}.cls-2{fill:#ccc;}.cls-3{fill:#353535;}.cls-4{fill:#5a7ab3;}.cls-5,.cls-7{fill:none;}.cls-5{stroke:#1d1d1b;stroke-linecap:round;stroke-linejoin:round;opacity:0.5;}.cls-6{fill:#c9c9c9;}.cls-8{fill:#1d1d1b;}.cls-9{fill:#e8be8a;}.cls-10{fill:#aa8052;}.cls-11,.cls-25{fill:#1a1a1a;}.cls-12{fill:#a5a5a5;}.cls-13{fill:#e6e6e6;}.cls-14{fill:#5778a0;}.cls-15{fill:#6a8bba;}.cls-16{fill:#809fd2;}.cls-17{fill:#dbdbdb;}.cls-18{fill:#cbcbc8;}.cls-19{fill:#bfbfbf;}.cls-20{fill:#d3af88;}.cls-21{fill:#7494c4;}.cls-22{fill:#587ab3;}.cls-23{fill:#fff;}.cls-24{fill:#4a3d3b;}.cls-25{opacity:0.1;}</style></defs><title/><ellipse class="cls-1" cx="112.11" cy="381.35" rx="16.44" ry="11.35"/><path class="cls-2" d="M155.33,409.37S175,426,205,415.37c0,0-12.33-25.33-25-26S155.33,409.37,155.33,409.37Z"/><path class="cls-2" d="M109.8,392.7s-38.14,10.13-37.14,26.23c0,0,21.3,8.32,56.88-6.9Z"/><polygon class="cls-3" points="163 101.32 176.54 106.7 166.13 118.54 163 112.69 163 101.32"/><path class="cls-4" d="M159,338.94c0,26.75-17.57,48.43-39.25,48.43-16.94,0-30-14.14-35.48-32.7,4.83,34,28.06,60.7,57.73,60.7,26.86,0,49.6-21.19,57.25-50.4A127.91,127.91,0,0,1,159,338.58C159,338.7,159,338.82,159,338.94Z"/><path class="cls-5" d="M130,291.89c-0.11-.29-0.22-0.55-0.33-0.83l-0.66.57C129.38,291.72,129.71,291.8,130,291.89Z"/><path class="cls-6" d="M126.73,279.87a58.28,58.28,0,0,0,2.08-6.21l0.07-.27h0.05c2.38-8.14,5.79-23.14,3.34-36l-0.62.66L120,245.5l-2.25,5.44c0.17,1.71-3.89,16.49-6.47,31.36-0.6,3.44-1.11,6.88-1.48,10.17a31.78,31.78,0,0,1,19.25-.82l0.66-.57c-0.06-.14-0.11-0.28-0.17-0.43l0.63,0C128.91,287,127.67,283.6,126.73,279.87Z"/><path class="cls-1" d="M110.15,291.21a39.93,39.93,0,0,0-18.9,14.92A83.94,83.94,0,0,0,83,342.8a87.65,87.65,0,0,0,.89,12.36c5.57,18.79,20.19,32.21,37.35,32.21,22,0,39.76-22,39.76-49.05,0-.12,0-0.25,0-0.37-0.17-.17-0.38-0.33-0.55-0.5-13.29-13.06-22.73-29-29.82-46.77a0,0,0,0,0,0,0c-0.33-.1-0.64-0.17-1-0.26h0a32.21,32.21,0,0,0-19.5.82"/><path class="cls-5" d="M126.73,279.87c0.94,3.73,2.18,7.14,3.45,10.74l-0.63,0c0.05,0.15.11,0.29,0.17,0.43l0.65-.55q-1.94-5.46-3.38-11.14s0.87-2.28,2-6l-0.13,0C127.68,277.4,126.73,279.87,126.73,279.87Z"/><path class="cls-5" d="M130.07,291.9h0l0,0.07V291.9Z"/><path class="cls-7" d="M179.5,199.37c-8.25,22.95-20.53,30.52-30.82,32.32,10.42-1.8,22.86-9.38,31.28-32.32,0,0,.05-6.89-0.49-15.68C179.82,192.49,179.5,199.37,179.5,199.37Z"/><path class="cls-7" d="M249.5,195a103.57,103.57,0,0,1-12.34.63A103.57,103.57,0,0,0,249.5,195Z"/><path class="cls-8" d="M179.47,183.7c-0.09-2.39-.24-4.92-0.45-7.49h-0.14C179.13,178.77,179.32,181.3,179.47,183.7Z"/><path class="cls-8" d="M148.68,231.69a32.41,32.41,0,0,1-5.63.47A31.64,31.64,0,0,0,148.68,231.69Z"/><path class="cls-8" d="M237.17,195.66c-18.75-.24-30.62-10.08-37.53-20.11h0C206.55,185.58,218.42,195.43,237.17,195.66Z"/><path class="cls-8" d="M197.88,105.19h0c0-.1-0.08-0.21-0.13-0.3l-3.61-7.32h0l3.62,7.32C197.8,105,197.84,105.09,197.88,105.19Z"/><path class="cls-8" d="M178.23,164.5l2.13,4.52a6,6,0,0,0-1.64,0l0.24,0c3.45,0.38,10.66,2.27,19.5,4.76a53.92,53.92,0,0,1-7.56-19.5,27.46,27.46,0,0,1,.3-9.77l7.56-30.3a15.3,15.3,0,0,0,0-6L170,149.37C174.14,152.36,176.68,158,178.23,164.5Z"/><path class="cls-8" d="M178.73,169c-1.09-.11-0.69,0-0.64.37,0.31,2.26.58,4.55,0.79,6.82H179c-0.19-2.27-.43-4.57-0.74-6.83C178.26,169.18,178.41,169.06,178.73,169Z"/><path class="cls-8" d="M198.46,173.78h0c0.37,0.59.77,1.18,1.18,1.77h0c-0.41-.59-0.8-1.18-1.18-1.77h0Z"/><path class="cls-8" d="M198.78,108.21h0a13.46,13.46,0,0,0-.89-3h0A13.4,13.4,0,0,1,198.78,108.21Z"/><path class="cls-9" d="M176.77,353.32A104.17,104.17,0,0,0,197.83,365c14.79,6.05,36,9.4,52.17,9.4V356.8c-6.16.37-13.11,0.57-20.13,0.57A333.81,333.81,0,0,1,176.77,353.32Z"/><path class="cls-9" d="M169.81,347.16c1.74,1.35,3.5,2.64,5.2,3.86a329.66,329.66,0,0,0,54.86,4.35c6.65,0,13.24-.18,19.13-0.51v-3c-6,.34-12.36.51-19,0.51A328.43,328.43,0,0,1,169.81,347.16Z"/><path class="cls-9" d="M249,230.09v-3.63a379.45,379.45,0,0,1-46.67,2.72A397.65,397.65,0,0,1,161,227.09a35.81,35.81,0,0,1-5.18,3,384.66,384.66,0,0,0,46.46,2.7A383.44,383.44,0,0,0,249,230.09Z"/><path class="cls-9" d="M249.87,224.34H250V194.62a2.87,2.87,0,0,1-1.51.41,91.16,91.16,0,0,1-11.56.63c-18.9-.24-30.8-10.47-37.77-20.5A9,9,0,0,1,198,173h0c-8.91-2-16.17-4-19.65-4.37a2.46,2.46,0,0,0-.24.17,0.47,0.47,0,0,0-.45.47c0.31,2.26.56,4.61,0.74,6.88,0.21,2.57.36,5.13,0.46,7.52,0.54,8.79.49,15.69,0.49,15.69-4.78,12.91-10.84,21-17.09,25.85a396,396,0,0,0,40,2A375.55,375.55,0,0,0,249.87,224.34Z"/><path class="cls-9" d="M202.24,234.82a384,384,0,0,1-50.58-3.2,1,1,0,0,1-.78-0.6c-1,.28-2,0.5-3,0.67a32.16,32.16,0,0,1-5.68.47,36,36,0,0,1-12.65-2.36c-0.65-.26-0.86.07-0.86,0.07a31.69,31.69,0,0,1,2,7.91l0.64-.41c2.47,12.86-1,27.87-3.36,36-1.09,3.71-2,6-2,6,1,3.79,2.1,7.5,3.4,11.14l-0.65.55c0.11,0.27.22,0.54,0.33,0.83h0c0.19,0.5.39,1,.58,1.5a1,1,0,0,1,.58,0A144,144,0,0,0,145.47,298c2.75,0.67,5.75,1.38,9.06,2a321.89,321.89,0,0,0,60.35,5.37,336.87,336.87,0,0,0,35-1.75H250V232A384,384,0,0,1,202.24,234.82Z"/><path class="cls-9" d="M154.15,302c-3.35-.65-6.38-1.37-9.15-2-4.72-1.15-9.1-2.42-13.3-3.86,0.48,1.1,1,2.21,1.53,3.39,1.52,0.51,3.17,1,5,1.56,2.29,0.67,4.78,1.33,7.4,2,19.9,4.84,43.83,7.39,69.21,7.39A337.47,337.47,0,0,0,249,308.71v-3a339.53,339.53,0,0,1-34.11,1.65A323.89,323.89,0,0,1,154.15,302Z"/><path class="cls-9" d="M145.2,304.92c-2.65-.64-5.17-1.31-7.49-2-1.68-.49-3.18-1-4.58-1.41a126.19,126.19,0,0,0,26.11,36.57c0,0.16,0,.33,0,0.49q3.17,3.06,6.38,5.89a1,1,0,0,1,.59-0.06c18.77,3.9,40.81,6,63.73,6,7,0,13.76-.19,20-0.57H250v-39.2a338.84,338.84,0,0,1-35.12,1.75C189.35,312.37,165.25,309.8,145.2,304.92Z"/><path class="cls-10" d="M230,350.37c-22.92,0-45-2.06-63.73-6a1,1,0,0,0-.59.06,136.14,136.14,0,0,0,11.12,8.85,333.81,333.81,0,0,0,53.1,4.05c7,0,14-.2,20.13-0.57v-7h-0.06C243.72,350.18,237,350.37,230,350.37Zm19,4.49c-5.9.34-12.49,0.51-19.13,0.51A329.66,329.66,0,0,1,175,351c-1.7-1.23-3.46-2.52-5.2-3.86A328.43,328.43,0,0,0,230,352.37c6.68,0,13.08-.17,19-0.51v3Z"/><path class="cls-10" d="M214.89,305.37A321.89,321.89,0,0,1,154.54,300c-3.31-.65-6.31-1.35-9.06-2a144,144,0,0,1-15.22-4.55,1,1,0,0,0-.58,0q1.59,4.13,3.46,8.12c1.4,0.46,2.9.92,4.58,1.41,2.32,0.68,4.84,1.35,7.49,2,20.05,4.87,44.15,7.45,69.69,7.45A338.84,338.84,0,0,0,250,310.62v-7h-0.1A336.87,336.87,0,0,1,214.89,305.37ZM249,308.71a337.47,337.47,0,0,1-34.12,1.66c-25.38,0-49.31-2.56-69.21-7.39-2.62-.64-5.11-1.3-7.4-2-1.87-.54-3.52-1.06-5-1.56-0.54-1.18-1.05-2.29-1.53-3.39,4.2,1.44,8.57,2.71,13.3,3.86,2.77,0.67,5.8,1.39,9.15,2a323.89,323.89,0,0,0,60.74,5.41A339.53,339.53,0,0,0,249,305.72v3Z"/><path class="cls-10" d="M151.66,231.62a384,384,0,0,0,50.58,3.2A384,384,0,0,0,250,232v-7.63h-0.13a375.54,375.54,0,0,1-47.54,2.84,396,396,0,0,1-40-2A32.38,32.38,0,0,1,150.87,231,1,1,0,0,0,151.66,231.62Zm9.31-4.53a397.65,397.65,0,0,0,41.37,2.09A379.45,379.45,0,0,0,249,226.46v3.63a383.44,383.44,0,0,1-46.76,2.73,384.66,384.66,0,0,1-46.46-2.7A35.81,35.81,0,0,0,161,227.09Z"/><polygon class="cls-3" points="83.24 176.2 88.83 187.04 94.21 179.37 83.24 176.2"/><ellipse class="cls-11" cx="123.78" cy="140.34" rx="55.03" ry="22.78" transform="translate(-63.01 129.14) rotate(-45.16)"/><polygon class="cls-12" points="106.67 142.54 122.67 124.9 142.5 133.72 115.96 152.68 106.67 142.54"/><path class="cls-13" d="M178.73,169a6,6,0,0,1,1.64,0l-2.13-4.52c-1.56-6.48-4.09-12.14-8.27-15.13l28.83-41.15h0a13.4,13.4,0,0,0-.9-3c0-.1-0.09-0.21-0.13-0.3l-3.62-7.32c-5.68,1.33-35.11,9.25-44.13,31.8,0,0-47.33,11.67-40,40l39,30-16,18.33-5.22,8,3,4.09A34.42,34.42,0,0,0,143,232.16a32.41,32.41,0,0,0,5.63-.47c10.29-1.8,22.57-9.38,30.82-32.32,0,0,.32-6.89,0-15.68-0.15-2.4-.34-4.93-0.59-7.51-0.22-2.26-.48-4.56-0.79-6.82C178,169,177.63,168.88,178.73,169Z"/><circle class="cls-14" cx="126.02" cy="188.34" r="35.66"/><circle class="cls-15" cx="115.96" cy="201.4" r="32.72"/><circle class="cls-16" cx="105.96" cy="224.4" r="32.72"/><path class="cls-17" d="M79.88,242.27s8.37-14.76,20.85-2.82c0,0,8.4,11.9,6.89,21.48C107.62,260.93,81.31,263,79.88,242.27Z"/><path class="cls-17" d="M87.55,217.63s10.78-18.09,26-2.93c0,0,10.09,15,8,26.83C121.46,241.54,88.76,243.39,87.55,217.63Z"/><path class="cls-17" d="M134.64,214.06s-13.07-4-13.78,9.89c0,0,1.66,11.62,7.84,16.4C128.7,240.35,145.27,227,134.64,214.06Z"/><path class="cls-18" d="M92.3,79.69C87.88,76.55,77.22,84,68.49,96.25c-8.24,11.59-11.82,23.38-8.48,27.31l0,0,1.4,1c4.79,1.91,14.78-5.34,23-17C93.22,95.34,96.72,82.83,92.3,79.69Z"/><path class="cls-19" d="M127.3,104.69l-35-25c4.42,3.14.92,15.65-7.82,27.93-8.26,11.62-18.25,18.88-23,17l34.23,24.59c4.42,3.14,15.08-4.27,23.82-16.56S131.72,107.83,127.3,104.69Z"/><ellipse class="cls-11" cx="76.78" cy="101.34" rx="13.94" ry="4.52" transform="translate(-50.3 105.19) rotate(-54.59)"/><path class="cls-20" d="M198.09,174c0.38,1,.91,1.26.91,1.85v-0.26c7,10,19.44,19.85,38.7,20.09a58.11,58.11,0,0,0,9.16-.64,22.2,22.2,0,0,0,3.14-.41v-22s-25,4-30,8.63c0,0-18-8.5-15.83-19.67,0,0-5.41-.88-9.11,7.29,0.85,1.74,1.85,4.17,3,5.17h0Z"/><path class="cls-21" d="M222.53,148.54s14.6-8.72,27.47-7.78V89.37s-23.36-20-33.89-5L190.4,82.28c-2.82-.22-3.85,1.61-2.6,4.08l5.76,11.2h0.08l3.71,7.32,0.14,0.3a13.2,13.2,0,0,1,.92,3h0a14.9,14.9,0,0,1,0,6l-7.77,30.3a28.36,28.36,0,0,0-.31,10.06A52.17,52.17,0,0,0,195.06,169c3.69-8.17,9.11-7.48,9.11-7.48C202,172.71,220,181.21,220,181.21c5-4.67,30-8.63,30-8.63V145.13C245,144.33,235.9,144.12,222.53,148.54Z"/><path class="cls-22" d="M222.53,148.54c13.37-4.42,22.46-4.21,27.47-3.4v-4.38C237.13,139.82,222.53,148.54,222.53,148.54Z"/><path class="cls-8" d="M193.31,86.34c-1.09-.16-1.57.5-1.07,1.49l8.69,17.1a1.08,1.08,0,0,0,2,.12l9.43-14a1.17,1.17,0,0,0-.86-2Z"/><path class="cls-23" d="M219.21,130.49l-4.67-3.84c-0.85-.7-1.54-0.37-1.54.73v10a1.72,1.72,0,0,0,2,1.63h2.38a6.61,6.61,0,0,1-.22-2.15A10,10,0,0,1,219.21,130.49Z"/><path class="cls-23" d="M228.46,138.1l-0.64-.53a12.63,12.63,0,0,1-.2,1.8H228C229.1,139.37,229.31,138.8,228.46,138.1Z"/><path class="cls-24" d="M224,134.41a3.64,3.64,0,0,1,.06.63c0,1.33-.69,2.4-1.54,2.4S221,136.37,221,135c0,0,0-.09,0-0.14a1.43,1.43,0,0,1-.42-1,1.16,1.16,0,0,1,.95-1.29,0.73,0.73,0,0,1,.34.09l-2.63-2.17a10,10,0,0,0-2,6.37,6.61,6.61,0,0,0,.22,2.15h10.23a5.19,5.19,0,0,0,.2-1.61Z"/><path class="cls-11" d="M222.45,133.85a1.16,1.16,0,0,1-.95,1.29,0.78,0.78,0,0,1-.53-0.25s0,0.09,0,.14c0,1.33.69,2.4,1.54,2.4S224,136.37,224,135a3.64,3.64,0,0,0-.06-0.63l-2-1.62A1.42,1.42,0,0,1,222.45,133.85Z"/><path class="cls-23" d="M222,132.78a0.91,0.91,0,0,0-.15-0.12l0.15,0.13h0Z"/><path class="cls-23" d="M222,132.78l-0.15-.13a0.73,0.73,0,0,0-.34-0.09,1.16,1.16,0,0,0-.95,1.29,1.43,1.43,0,0,0,.42,1A2.5,2.5,0,0,1,222,132.78Z"/><path class="cls-23" d="M222,132.79h0Z"/><path class="cls-23" d="M222.45,133.85a1.42,1.42,0,0,0-.44-1.06h0a2.5,2.5,0,0,0-1,2.12,0.78,0.78,0,0,0,.53.25A1.16,1.16,0,0,0,222.45,133.85Z"/><ellipse class="cls-1" cx="386.11" cy="381.35" rx="16.44" ry="11.35"/><path class="cls-2" d="M344.43,409.37s-19.67,16.67-49.67,6c0,0,12.33-25.33,25-26S344.43,409.37,344.43,409.37Z"/><path class="cls-2" d="M390,392.7s38.14,10.13,37.14,26.23c0,0-21.3,8.32-56.88-6.9Z"/><polygon class="cls-3" points="337 101.32 323.34 106.7 333.81 118.54 337 112.69 337 101.32"/><path class="cls-4" d="M340.76,338.94c0,26.75,17.57,48.43,39.25,48.43,16.94,0,30-14.14,35.48-32.7-4.83,34-28.06,60.7-57.73,60.7-26.86,0-49.6-21.19-57.25-50.4a127.91,127.91,0,0,0,40.26-26.4C340.77,338.7,340.76,338.82,340.76,338.94Z"/><path class="cls-5" d="M369.72,291.89c0.11-.29.22-0.55,0.33-0.83l0.66,0.57C370.38,291.72,370.05,291.8,369.72,291.89Z"/><path class="cls-6" d="M369.58,290.61l0.63,0c-0.05.15-.11,0.29-0.17,0.43l0.66,0.57a31.78,31.78,0,0,1,19.25.82c-0.37-3.29-.88-6.72-1.48-10.17-2.58-14.87-6.64-29.65-6.47-31.36l-2.25-5.44L368.11,238l-0.62-.66c-2.45,12.86,1,27.87,3.34,36h0.05l0.07,0.27a58.28,58.28,0,0,0,2.08,6.21C372.09,283.6,370.85,287,369.58,290.61Z"/><path class="cls-1" d="M389.62,291.21a39.93,39.93,0,0,1,18.9,14.92,83.94,83.94,0,0,1,8.25,36.67,87.65,87.65,0,0,1-.89,12.36c-5.57,18.79-20.19,32.21-37.35,32.21-22,0-39.76-22-39.76-49.05,0-.12,0-0.25,0-0.37,0.17-.17.38-0.33,0.55-0.5,13.29-13.06,22.73-29,29.82-46.77a0,0,0,0,1,0,0c0.33-.1.64-0.17,1-0.26h0a32.21,32.21,0,0,1,19.5.82"/><path class="cls-5" d="M373,279.87c-0.94,3.73-2.18,7.14-3.45,10.74l0.63,0c-0.05.15-.11,0.29-0.17,0.43l-0.65-.55q1.94-5.46,3.38-11.14s-0.87-2.28-2-6l0.13,0C372.09,277.4,373,279.87,373,279.87Z"/><path class="cls-5" d="M369.7,291.9h0l0,0.07V291.9Z"/><path class="cls-7" d="M320.26,199.37c8.25,22.95,20.53,30.52,30.82,32.32-10.42-1.8-22.86-9.38-31.28-32.32,0,0-.05-6.89.49-15.68C319.95,192.49,320.26,199.37,320.26,199.37Z"/><path class="cls-7" d="M250.26,195a103.57,103.57,0,0,0,12.34.63A103.57,103.57,0,0,1,250.26,195Z"/><path class="cls-8" d="M320.29,183.7c0.09-2.39.24-4.92,0.45-7.49h0.14C320.63,178.77,320.44,181.3,320.29,183.7Z"/><path class="cls-8" d="M351.09,231.69a32.41,32.41,0,0,0,5.63.47A31.64,31.64,0,0,1,351.09,231.69Z"/><path class="cls-8" d="M262.6,195.66c18.75-.24,30.62-10.08,37.53-20.11h0C293.22,185.58,281.34,195.43,262.6,195.66Z"/><path class="cls-8" d="M301.88,105.19h0c0-.1.08-0.21,0.13-0.3l3.61-7.32h0L302,104.88C302,105,301.93,105.09,301.88,105.19Z"/><path class="cls-8" d="M321.53,164.5L319.4,169a6,6,0,0,1,1.64,0l-0.24,0c-3.45.38-10.66,2.27-19.5,4.76a53.92,53.92,0,0,0,7.56-19.5,27.46,27.46,0,0,0-.3-9.77L301,114.22a15.3,15.3,0,0,1,0-6l28.83,41.15C325.62,152.36,323.09,158,321.53,164.5Z"/><path class="cls-8" d="M321,169c1.09-.11.69,0,0.64,0.37-0.31,2.26-.58,4.55-0.79,6.82h-0.14c0.19-2.27.43-4.57,0.74-6.83C321.51,169.18,321.35,169.06,321,169Z"/><path class="cls-8" d="M301.3,173.78h0c-0.37.59-.77,1.18-1.18,1.77h0c0.41-.59.8-1.18,1.18-1.77h0Z"/><path class="cls-8" d="M301,108.21h0a13.46,13.46,0,0,1,.89-3h0A13.4,13.4,0,0,0,301,108.21Z"/><path class="cls-9" d="M323,353.32A103.22,103.22,0,0,1,302.05,365c-14.79,6.05-36.05,9.4-52.05,9.4V356.8c6,0.37,13,.57,20,0.57A332.3,332.3,0,0,0,323,353.32Z"/><path class="cls-9" d="M330,347.16c-1.74,1.35-3.5,2.64-5.2,3.86A328.22,328.22,0,0,1,270,355.37c-6.65,0-13-.18-19-0.51v-3c6,0.34,12.24.51,18.92,0.51A327.11,327.11,0,0,0,330,347.16Z"/><path class="cls-9" d="M251,230.09v-3.63a372.1,372.1,0,0,0,46.55,2.72,396.51,396.51,0,0,0,41.31-2.09,35.56,35.56,0,0,0,5.15,3,382.93,382.93,0,0,1-46.36,2.7A378.53,378.53,0,0,1,251,230.09Z"/><path class="cls-9" d="M250,224.34s0,0,0,0V194.62a2.27,2.27,0,0,0,1.39.41,90.26,90.26,0,0,0,11.5.63c18.9-.24,30.77-10.47,37.74-20.5a9,9,0,0,0,1.13-2.17h0c8.91-2,16.17-4,19.65-4.37a2.46,2.46,0,0,1,.24.17,0.47,0.47,0,0,1,.45.47c-0.31,2.26-.56,4.61-0.74,6.88-0.21,2.57-.36,5.13-0.46,7.52-0.54,8.79-.49,15.69-0.49,15.69,4.78,12.91,10.84,21,17.09,25.85a394.84,394.84,0,0,1-40,2A374.6,374.6,0,0,1,250,224.34Z"/><path class="cls-9" d="M297.64,234.82a383.09,383.09,0,0,0,50.52-3.2,1,1,0,0,0,.76-0.6c1,0.28,2,.5,3,0.67a32.08,32.08,0,0,0,5.67.47,36,36,0,0,0,12.65-2.36c0.65-.26.85,0.07,0.85,0.07a31.69,31.69,0,0,0-2,7.91l-0.64-.41c-2.47,12.86,1,27.87,3.36,36,1.09,3.71,2,6,2,6-1,3.79-2.1,7.5-3.4,11.14l0.65,0.55c-0.11.27-.22,0.54-0.33,0.83h0c-0.19.5-.39,1-0.58,1.5a1,1,0,0,0-.58,0A144,144,0,0,1,354.29,298c-2.75.67-5.75,1.38-9.06,2a321.89,321.89,0,0,1-60.35,5.37A334.58,334.58,0,0,1,250,303.62s0,0,0,0V232A375.9,375.9,0,0,0,297.64,234.82Z"/><path class="cls-9" d="M345.61,302c3.35-.65,6.38-1.37,9.15-2,4.72-1.15,9.1-2.42,13.3-3.86-0.48,1.1-1,2.21-1.53,3.39-1.52.51-3.17,1-5,1.56-2.29.67-4.78,1.33-7.4,2-19.9,4.84-43.71,7.39-69.09,7.39a333.64,333.64,0,0,1-34-1.66v-3a335.65,335.65,0,0,0,34,1.65A322.6,322.6,0,0,0,345.61,302Z"/><path class="cls-9" d="M354.57,304.92c2.65-.64,5.17-1.31,7.49-2,1.68-.49,3.18-1,4.58-1.41a126.19,126.19,0,0,1-26.11,36.57c0,0.16,0,.33,0,0.49q-3.17,3.06-6.38,5.89a1,1,0,0,0-.59-0.06c-18.77,3.9-40.81,6-63.73,6-7,0-13.64-.19-19.86-0.57H250v-39.2a330.53,330.53,0,0,0,35,1.75C310.54,312.37,334.52,309.8,354.57,304.92Z"/><path class="cls-10" d="M249.94,349.8H250v7c6,0.37,13,.57,20,0.57a333.05,333.05,0,0,0,53-4.05,135.74,135.74,0,0,0,11.09-8.85,1,1,0,0,0-.6-0.06c-18.77,3.9-40.76,6-63.68,6C262.83,350.37,256.16,350.18,249.94,349.8Zm1.06,2.06c6,0.34,12.24.51,18.92,0.51A327.77,327.77,0,0,0,330,347.16c-1.74,1.35-3.53,2.64-5.23,3.86A328.4,328.4,0,0,1,270,355.37c-6.65,0-13-.18-19-0.51v-3Z"/><path class="cls-10" d="M250,303.62s0,0,0,0v7a330.53,330.53,0,0,0,35,1.75c25.54,0,49.58-2.58,69.63-7.45,2.65-.64,5.14-1.31,7.46-2,1.68-.49,3.16-1,4.56-1.41,1.25-2.66,2.39-5.37,3.46-8.12a1,1,0,0,0-.58,0A144,144,0,0,1,354.29,298c-2.75.67-5.75,1.38-9.06,2a321.25,321.25,0,0,1-60.3,5.37A335.74,335.74,0,0,1,250,303.62Zm1,2.1a335.65,335.65,0,0,0,34,1.65A323.25,323.25,0,0,0,345.67,302c3.35-.65,6.35-1.37,9.12-2,4.72-1.15,9.08-2.42,13.28-3.86-0.48,1.1-1,2.21-1.53,3.39-1.52.51-3.18,1-5,1.56-2.29.67-4.78,1.33-7.4,2-19.9,4.84-43.72,7.39-69.1,7.39a333.66,333.66,0,0,1-34-1.66v-3Z"/><path class="cls-10" d="M348.89,231a32.38,32.38,0,0,1-11.43-5.81,396,396,0,0,1-40,2A373.63,373.63,0,0,1,250,224.34s0,0,0,0V232a375.9,375.9,0,0,0,47.64,2.84,383.09,383.09,0,0,0,50.52-3.2A0.91,0.91,0,0,0,348.89,231Zm-4.91-.9a382.68,382.68,0,0,1-46.34,2.7A378.28,378.28,0,0,1,251,230.09v-3.63a372.1,372.1,0,0,0,46.55,2.72,396.51,396.51,0,0,0,41.31-2.09A35.31,35.31,0,0,0,344,230.12Z"/><polygon class="cls-3" points="416.52 176.2 410.93 187.04 405.55 179.37 416.52 176.2"/><ellipse class="cls-11" cx="375.99" cy="140.34" rx="22.78" ry="55.03" transform="translate(10.44 305.97) rotate(-44.84)"/><polygon class="cls-12" points="393.1 142.54 377.1 124.9 357.26 133.72 383.8 152.68 393.1 142.54"/><path class="cls-13" d="M321,169a6,6,0,0,0-1.64,0l2.13-4.52c1.56-6.48,4.09-12.14,8.27-15.13L301,108.22h0a13.4,13.4,0,0,1,.9-3c0-.1.09-0.21,0.13-0.3l3.62-7.32c5.68,1.33,35.11,9.25,44.13,31.8,0,0,47.33,11.67,40,40l-39,30,16,18.33,5.22,8-3,4.09a34.42,34.42,0,0,1-12.31,2.37,32.41,32.41,0,0,1-5.63-.47c-10.29-1.8-22.57-9.38-30.82-32.32,0,0-.32-6.89,0-15.68,0.15-2.4.34-4.93,0.59-7.51,0.22-2.26.48-4.56,0.79-6.82C321.73,169,322.13,168.88,321,169Z"/><circle class="cls-14" cx="373.75" cy="188.34" r="35.66"/><circle class="cls-15" cx="383.8" cy="201.4" r="32.72"/><circle class="cls-16" cx="393.8" cy="224.4" r="32.72"/><path class="cls-17" d="M419.89,242.27s-8.37-14.76-20.85-2.82c0,0-8.4,11.9-6.89,21.48C392.14,260.93,418.45,263,419.89,242.27Z"/><path class="cls-17" d="M412.22,217.63s-10.78-18.09-26-2.93c0,0-10.09,15-8,26.83C378.3,241.54,411,243.39,412.22,217.63Z"/><path class="cls-17" d="M365.12,214.06s13.07-4,13.78,9.89c0,0-1.66,11.62-7.84,16.4C371.06,240.35,354.49,227,365.12,214.06Z"/><path class="cls-18" d="M407.46,79.69c4.42-3.14,15.08,4.27,23.82,16.56,8.24,11.59,11.82,23.38,8.48,27.31l0,0-1.4,1c-4.79,1.91-14.78-5.34-23-17C406.54,95.34,403,82.83,407.46,79.69Z"/><path class="cls-19" d="M372.46,104.69l35-25c-4.42,3.14-.92,15.65,7.82,27.93,8.26,11.62,18.25,18.88,23,17L404.1,149.18c-4.42,3.14-15.08-4.27-23.82-16.56S368,107.83,372.46,104.69Z"/><ellipse class="cls-11" cx="422.99" cy="101.34" rx="4.52" ry="13.94" transform="translate(19.53 263.86) rotate(-35.41)"/><path class="cls-20" d="M301.68,174a5.73,5.73,0,0,0-.68,1.85v-0.26c-7,10-19.56,19.85-38.82,20.09a57.38,57.38,0,0,1-9.1-.64,21.06,21.06,0,0,1-3.08-.41v-22s24.88,4,29.88,8.63c0,0,17.94-8.5,15.77-19.67,0,0,5.38-.88,9.08,7.29-0.85,1.74-1.88,3.17-3.05,5.17h0Z"/><path class="cls-21" d="M277.47,148.54S263,139.82,250,140.75V89.37s23.24-20,33.78-5l25.65-2.09c2.82-.22,3.82,1.61,2.57,4.08l-5.78,11.2h-0.09l-3.72,7.32-0.14.3a13.2,13.2,0,0,0-.92,3h0a14.9,14.9,0,0,0,0,6l7.77,30.3a28.36,28.36,0,0,1,.31,10.06A52.17,52.17,0,0,1,304.7,169c-3.69-8.17-9.11-7.48-9.11-7.48,2.17,11.17-15.72,19.67-15.72,19.67-5-4.67-29.88-8.63-29.88-8.63V145.13C255,144.33,264.1,144.12,277.47,148.54Z"/><path class="cls-22" d="M277.47,148.54c-13.37-4.42-22.47-4.21-27.47-3.4v-4.38C263,139.82,277.47,148.54,277.47,148.54Z"/><path class="cls-8" d="M306.45,86.34c1.09-.16,1.57.5,1.07,1.49l-8.69,17.1a1.08,1.08,0,0,1-2,.12l-9.43-14a1.17,1.17,0,0,1,.86-2Z"/><path class="cls-23" d="M280.55,130.49l4.79-3.84c0.85-.7,1.66-0.37,1.66.73v10c0,1.1-1.14,1.63-2.24,1.63h-2.38a13.05,13.05,0,0,0,.22-2.15A10,10,0,0,0,280.55,130.49Z"/><path class="cls-23" d="M271.31,138.1l0.64-.53a12.63,12.63,0,0,0,.2,1.8h-0.38C270.66,139.37,270.46,138.8,271.31,138.1Z"/><path class="cls-24" d="M275.79,134.41a3.64,3.64,0,0,0-.06.63c0,1.33.69,2.4,1.54,2.4s1.54-1.08,1.54-2.4c0,0,0-.09,0-0.14a1.43,1.43,0,0,0,.42-1,1.16,1.16,0,0,0-.95-1.29,0.73,0.73,0,0,0-.34.09l2.63-2.17a10,10,0,0,1,2,6.37,13.05,13.05,0,0,1-.22,2.15H272.15c-0.11-1-.17-1-0.2-1.61Z"/><path class="cls-11" d="M277.32,133.85a1.16,1.16,0,0,0,.95,1.29,0.78,0.78,0,0,0,.53-0.25s0,0.09,0,.14c0,1.33-.69,2.4-1.54,2.4s-1.54-1.08-1.54-2.4a3.64,3.64,0,0,1,.06-0.63l2-1.62A1.42,1.42,0,0,0,277.32,133.85Z"/><path class="cls-23" d="M277.77,132.78a0.91,0.91,0,0,1,.15-0.12l-0.15.13h0Z"/><path class="cls-23" d="M277.77,132.78l0.15-.13a0.73,0.73,0,0,1,.34-0.09,1.16,1.16,0,0,1,.95,1.29,1.43,1.43,0,0,1-.42,1A2.5,2.5,0,0,0,277.77,132.78Z"/><path class="cls-23" d="M277.75,132.79h0Z"/><path class="cls-23" d="M277.32,133.85a1.42,1.42,0,0,1,.44-1.06h0a2.5,2.5,0,0,1,1,2.12,0.78,0.78,0,0,1-.53.25A1.16,1.16,0,0,1,277.32,133.85Z"/><path class="cls-25" d="M431.28,96.25c-8.74-12.29-19.4-19.7-23.82-16.56l-35,25a4.35,4.35,0,0,0-1.58,2.42c-14.52-9-27.69-11.79-33.71-5.8l-0.18.2v-0.2l-10.59,4.18a89.25,89.25,0,0,0-20.34-7.82l0.06-.11h0.09L312,86.36c1.25-2.47.25-4.3-2.57-4.08l-25.65,2.09c-10.53-15-33.78,5-33.78,5V194.62a21.06,21.06,0,0,0,3.08.41c1.88,0.26,3.55.44,5.18,0.54-2.39-.1-4.95-0.28-6.87-0.55a2.27,2.27,0,0,1-1.39-.41v29.72s0,0,0,0v79.27h0s0,0,0,0v46.18h0v24.56c15.51,0,36-3.15,50.67-8.86a76.4,76.4,0,0,0,12.62,26.17c-10.08,6.37-18.52,23.69-18.52,23.69,21.78,7.75,38.11,1.08,45.42-3.15a50.8,50.8,0,0,0,17.58,3.15A48.21,48.21,0,0,0,372.61,413c34.14,13.85,54.49,5.91,54.49,5.91,0.7-11.3-17.86-19.65-29-23.64,8.34-10,14.29-22.93,16.88-37.37,0.32-.91.63-1.83,0.91-2.77a87.64,87.64,0,0,0,.89-12.36,83.94,83.94,0,0,0-8.25-36.67,40,40,0,0,0-18.71-14.85c-0.35-2.93-.8-6-1.33-9-1.85-10.68-4.47-21.32-5.73-27.09a32.58,32.58,0,0,0,9.27,1.87,16.54,16.54,0,0,0,.12,3.86s24.36,1.91,27.47-16.43a32.69,32.69,0,0,0-3.1-43.64,32.54,32.54,0,0,0-4.47-16l3-5.79c5.7-6.11,3-19.15-5.89-33.54l29.18-21,1.4-1,0,0C443.09,119.62,439.52,107.84,431.28,96.25ZM324.78,350.83A329,329,0,0,1,270,355h0a328.79,328.79,0,0,0,54.73-4.17c1.69-1.22,3.45-2.41,5.18-3.76,0,0,.05-0.06.08-0.06C328.27,348.36,326.48,349.61,324.78,350.83Zm6.91-4.25q1.23-1,2.45-2.11h0c1.57-1.38,3.13-2.82,4.68-4.28,0,0.09,0,.17,0,0.26Q335.37,343.64,331.69,346.58Zm-67-151c-0.68,0-1.35.08-2.05,0.09,0.71,0,1.39-.06,2.08-0.09,0.35,0,.71,0,1.05,0a47.42,47.42,0,0,0,8-1.26,46.41,46.41,0,0,0,9.09-3.19,45.71,45.71,0,0,1-19.91,4.6h-0.37C263.24,195.65,263.95,195.61,264.65,195.57Zm49.66-25.26-3,.76Zm-48.58,25.21a50.49,50.49,0,0,0,8-1.26A47.41,47.41,0,0,1,265.74,195.52ZM297.65,232h0A378.28,378.28,0,0,1,251,229.27,378.51,378.51,0,0,0,297.65,232Zm51.14-.8h0a0.92,0.92,0,0,1-.65.41A0.85,0.85,0,0,0,348.79,231.2Zm13.13,0.53,0,0.14a35.25,35.25,0,0,1-4.36.29h-0.47A34.2,34.2,0,0,0,361.92,231.73ZM354.09,303c2.62-.64,5.11-1.3,7.4-2,1.33-.39,2.54-0.76,3.68-1.12h0c-1.14.36-2.36,0.73-3.68,1.12-2.29.67-4.78,1.33-7.4,2-19.9,4.84-43.72,7.39-69.1,7.39h0C310.38,310.37,334.2,307.82,354.09,303ZM295.6,161.54h0.06c2.17,11.17-15.77,19.67-15.77,19.67S297.76,172.71,295.6,161.54ZM297.46,227h0A373.63,373.63,0,0,1,250,224.16,374.36,374.36,0,0,0,297.46,227Zm47.77,72.82c3.31-.65,6.42-1.26,9.17-1.93A128.73,128.73,0,0,0,368,294h0A128.19,128.19,0,0,1,354.4,298c-2.75.67-5.81,1.19-9.12,1.84-18,3.51-38.88,5.18-60.35,5.18h0C306.36,305,327.22,303.33,345.23,299.82Zm-11.7,44.4a1,1,0,0,1,.3.08,1.26,1.26,0,0,0-.29-0.13c-18.77,3.9-40.76,5.83-63.68,5.83h0C292.74,350,314.77,348.12,333.53,344.22Zm70.14,32.09c-6.33,6.84-14.41,11.06-23.66,11.06l-0.65,0C388.58,387.12,397,383,403.67,376.31Z"/><path class="cls-21" d="M156.25,465.94V465h5.63v1.88h1.88v1.88h1.88v5.63h-1.87v1.88h-1.87v1.88h-5.62v-1.87h-1.87v-1.87H152.5v-5.62h1.88v-1.87h1.88v-0.94Zm3.75,1.88v-0.94h-3.75v7.5h1.88v1.88h3.75v-7.5H160v-0.94Z"/><path class="cls-21" d="M171.25,465.94V465h5.63v1.88h1.88v1.88h1.88v5.63h-1.87v1.88h-1.87v1.88h-5.62v-1.87h-1.87v-1.87H167.5v-5.62h1.88v-1.87h1.88v-0.94Zm3.75,1.88v-0.94h-3.75v7.5h1.88v1.88h3.75v-7.5H175v-0.94Z"/><path class="cls-21" d="M184.38,465.94V465h9.38v1.88h1.88v7.5h-1.87v1.88h-1.87v1.88h-7.5v-1.87H190v-1.87h1.88V472.5h-7.5v-1.87H182.5v-3.75h1.88v-0.94Zm7.5,2.81v-1.87h-5.62v3.75h5.63v-1.87Z"/><path class="cls-21" d="M212.5,471.56V465h11.25v1.88h1.88v3.75h-1.87v1.88h1.88v3.75h-1.87v1.88H212.5v-6.56Zm9.38-2.81v-1.87h-5.62v3.75h5.63v-1.87Zm0,5.63V472.5h-5.62v3.75h5.63v-1.87Z"/><path class="cls-21" d="M229.38,471.56V465h3.75v11.25h7.5v1.88H229.38v-6.56Z"/><path class="cls-21" d="M246.25,465.94V465h5.63v1.88h1.88v1.88h1.88v9.38h-3.75v-3.75h-5.62v3.75H242.5v-9.37h1.88v-1.87h1.88v-0.94Zm3.75,1.88v-0.94h-1.87v1.88h-1.87v3.75h5.63v-3.75H250v-0.94Z"/><path class="cls-21" d="M259.38,465.94V465h7.5v1.88h1.88v1.88H265v-1.87h-3.75v3.75h7.5v1.88h1.88v3.75h-1.87v1.88h-9.37v-1.87H257.5v-1.87h3.75v1.88h5.63V472.5h-7.5v-1.87H257.5v-3.75h1.88v-0.94Z"/><path class="cls-21" d="M274.38,465.94V465h11.25v1.88h-3.75v11.25h-3.75V466.88h-3.75v-0.94Z"/><path class="cls-21" d="M289.38,465.94V465h9.38v1.88h1.88v9.38h-1.87v1.88h-9.37v-1.87H287.5v-9.37h1.88v-0.94Zm7.5,5.63v-4.69h-5.62v9.38h5.63v-4.69Z"/><path class="cls-21" d="M304.38,465.94V465h11.25v1.88h-3.75v9.38h3.75v1.88H304.38v-1.87h3.75v-9.37h-3.75v-0.94Z"/><path class="cls-21" d="M319.38,465.94V465h7.5v1.88h1.88v1.88H325v-1.87h-3.75v3.75h7.5v1.88h1.88v3.75h-1.87v1.88h-9.37v-1.87H317.5v-1.87h3.75v1.88h5.63V472.5h-7.5v-1.87H317.5v-3.75h1.88v-0.94Z"/><path class="cls-21" d="M332.5,471.56V465h13.13v1.88h-9.37v3.75h7.5v1.88h-7.5v3.75h9.38v1.88H332.5v-6.56Z"/></svg>