<?xml version="1.0" ?><svg id="pkft" viewBox="0 0 500 500" xmlns="http://www.w3.org/2000/svg"><defs><style>.cls-1{fill:#5f4955;}.cls-2{fill:#262423;}.cls-3{fill:#fff;}.cls-4{fill:#7e6484;}.cls-5{fill:#927cb9;}.cls-6{fill:#de8081;}.cls-7{fill:#1a1a1a;opacity:0.1;}</style></defs><title/><path class="cls-1" d="M159.75,236.23c-1.3.52-2.6,1.06-3.89,1.61-1.63.7-3.25,1.41-4.85,2.16,0,0-1,29.5-8.51,37.5s-6.5,16,7.5,12.5c11.85-3,45.2,7,56.37,11.61,0.16-.53.35-1,0.52-1.57a83.89,83.89,0,0,1,4.46-10.79C161.27,282.55,159.79,238.47,159.75,236.23Z"/><path class="cls-2" d="M159.75,236.23c0,2.25,1.52,46.33,51.6,53,0.82-1.64,1.64-3.17,2.45-4.58,2.67-4.66,5.12-7.9,6.2-8.68,4.3-3.12,22.31-3.5,30-3.52V219.94c-14.17.14-47.72,1.76-80.54,12.74Q164.59,234.32,159.75,236.23Zm47.58-8.73a22.5,22.5,0,1,1-22.5,22.5A22.5,22.5,0,0,1,207.33,227.5Z"/><path class="cls-3" d="M207.33,272.5a22.5,22.5,0,1,0-22.5-22.5A22.5,22.5,0,0,0,207.33,272.5ZM210,242.25a3.25,3.25,0,1,1-3.25,3.25A3.25,3.25,0,0,1,210,242.25Z"/><circle class="cls-2" cx="210" cy="245.5" r="3.25"/><path class="cls-4" d="M204.44,309.88c-3.43-.91-26.68-6.91-49.37-9.09,3.67,3.09,12.35,10.82,10.17,13.21-2.74,3-20.24,16-11.74,21s9.5,4,28-9.5L190,320s8.91,7.13,16.2,7.84C203.75,322.41,203.48,316.15,204.44,309.88Z"/><path class="cls-5" d="M150,290.06c-14,3.5-15-4.53-7.5-12.53S151,240,151,240q-2.33,1.09-4.63,2.25c0,0.15-7.89,32.74-12.88,35.24S112,300,140,300c4.84,0,9.94.55,15.07,1a6.84,6.84,0,0,0-1.54-1,6.81,6.81,0,0,1,1.54,1c22.69,2.18,45.95,8.19,49.37,9.09,0.21-1.36.48-2.73,0.79-4.08s0.71-2.94,1.13-4.32C195.2,297.1,161.85,287.1,150,290.06Z"/><path class="cls-6" d="M220,276c-1.08.78-3.53,4-6.2,8.68-0.81,1.41-1.63,2.94-2.45,4.58A83.89,83.89,0,0,0,206.89,300c-0.17.52-.36,1-0.52,1.57-0.42,1.38-.8,2.78-1.13,4.2s-0.58,2.72-.79,4.08c-1,6.26-.69,12.53,1.76,18,4.64,10.27,17.08,17.54,43.8,16.16V272.48C242.31,272.5,224.3,272.88,220,276Z"/><polygon class="cls-5" points="113 250.02 113.01 250.02 113 250.01 113 250.02"/><path class="cls-4" d="M113,250h0v0h0Z"/><path class="cls-4" d="M113,250v0h0l7,10a122,122,0,0,1,26.38-17.74c1.53-.78,3.07-1.53,4.63-2.26s3.23-1.46,4.85-2.16c1.29-.55,2.59-1.09,3.89-1.61q4.83-1.92,9.71-3.54c32.82-11,66.37-12.6,80.54-12.74V203C170.91,203.74,113.46,249.63,113,250Z"/><path class="cls-5" d="M186.11,174.49c-7.56-2.4-15.22-8.14-26.11-17-16-13-20-4-14.5,12.5A115.59,115.59,0,0,1,151,197.07c-27.24,24.14-37.76,52.2-38,52.93,0.45-.36,57.9-46.25,137-47V162.64C224.67,162,203.57,166.79,186.11,174.49Z"/><path class="cls-1" d="M340.25,236.23c1.3,0.52,2.6,1.06,3.89,1.61,1.63,0.7,3.25,1.41,4.85,2.16,0,0,1,29.5,8.51,37.5s6.5,16-7.5,12.5c-11.85-3-45.2,7-56.37,11.61-0.16-.53-0.35-1-0.52-1.57a83.89,83.89,0,0,0-4.46-10.79C338.73,282.55,340.21,238.47,340.25,236.23Z"/><path class="cls-2" d="M330.54,232.68c-32.82-11-66.54-12.6-80.54-12.74v52.54c8,0,25.7.4,30,3.52,1.08,0.78,3.53,4,6.2,8.68,0.81,1.41,1.63,2.94,2.45,4.58,50.08-6.7,51.56-50.78,51.6-53Q335.42,234.31,330.54,232.68ZM315.17,250a22.5,22.5,0,1,1-22.5-22.5A22.5,22.5,0,0,1,315.17,250Z"/><path class="cls-3" d="M315.17,250a22.5,22.5,0,1,0-22.5,22.5A22.5,22.5,0,0,0,315.17,250Zm-21.92-4.5a3.25,3.25,0,1,1-3.25-3.25A3.25,3.25,0,0,1,293.25,245.5Z"/><circle class="cls-2" cx="290" cy="245.5" r="3.25"/><path class="cls-4" d="M295.56,309.88c3.43-.91,26.68-6.91,49.37-9.09-3.67,3.09-12.35,10.82-10.17,13.21,2.74,3,20.24,16,11.74,21s-9.5,4-28-9.5L310,320s-8.91,7.13-16.2,7.84C296.25,322.41,296.52,316.15,295.56,309.88Z"/><path class="cls-5" d="M350,290.06c14,3.5,15-4.53,7.5-12.53S349,240,349,240q2.33,1.09,4.63,2.25c0,0.15,7.89,32.74,12.88,35.24S388,300,360,300c-4.84,0-9.94.55-15.07,1a6.84,6.84,0,0,1,1.54-1,6.81,6.81,0,0,0-1.54,1c-22.69,2.18-45.95,8.19-49.37,9.09-0.21-1.36-.48-2.73-0.79-4.08s-0.71-2.94-1.13-4.32C304.8,297.1,338.15,287.1,350,290.06Z"/><path class="cls-6" d="M280,276c1.08,0.78,3.53,4,6.2,8.68,0.81,1.41,1.63,2.94,2.45,4.58A83.89,83.89,0,0,1,293.11,300c0.17,0.52.36,1,.52,1.57,0.42,1.38.8,2.78,1.13,4.2s0.58,2.72.79,4.08c1,6.26.69,12.53-1.76,18C289.16,338.11,277,345.39,250,344V272.48C258,272.5,275.7,272.88,280,276Z"/><polygon class="cls-5" points="387 250.02 386.99 250.02 386.99 250.01 387 250.02"/><path class="cls-4" d="M387,250h0v0h0Z"/><path class="cls-4" d="M387,250v0h0l-7,10a122,122,0,0,0-26.38-17.74c-1.53-.78-3.07-1.53-4.63-2.26s-3.23-1.46-4.85-2.16c-1.29-.55-2.59-1.09-3.89-1.61q-4.83-1.92-9.71-3.54c-32.82-11-66.54-12.6-80.54-12.74V203C329,203.74,386.54,249.63,387,250Z"/><path class="cls-5" d="M313.88,174.49c7.56-2.4,15.21-8.14,26.11-17,16-13,20-4,14.5,12.5A115.6,115.6,0,0,0,349,197.07c27.24,24.14,37.76,52.2,38,52.93-0.45-.36-58-46.25-137-47V162.64C275,162,296.43,166.79,313.88,174.49Z"/><path class="cls-7" d="M353.62,242.26A122,122,0,0,1,380,260l7-10h0c-0.27-.72-10.78-28.79-38-52.93A115.6,115.6,0,0,1,354.5,170c5.5-16.5,1.5-25.5-14.5-12.5-10.9,8.86-18.55,14.59-26.11,17C296.43,166.79,275,162,250,162.64V344c27,1.39,39.16-5.89,43.8-16.16h0c7.29-.71,16.2-7.84,16.2-7.84l8.5,5.5C337,339,338,340,346.5,335s-9-18-11.74-21c-2.11-2.31,6-9.67,9.83-12.92l0.34,0a6.81,6.81,0,0,1,1.54-1,6.84,6.84,0,0,0-1.54,1c5.13-.49,10.23-1,15.07-1,28,0,11.5-20,6.5-22.5s-12.84-35.08-12.88-35.24A34.83,34.83,0,0,0,349,240v0A34.79,34.79,0,0,1,353.62,242.26ZM350,290.06c-11.84-3-45.14,7-56.34,11.66l0-.11C304.8,297,338.15,287,350,290c8.3,2.08,12,.11,12.13-3.51C362.06,290.14,358.34,292.15,350,290.06Z"/><path class="cls-5" d="M163.75,465.94V465h5.63v1.88h1.88v1.88h1.88v5.63h-1.87v1.88h-1.87v1.88h-5.62v-1.87h-1.87v-1.87H160v-5.62h1.88v-1.87h1.88v-0.94Zm3.75,1.88v-0.94h-3.75v7.5h1.88v1.88h3.75v-7.5H167.5v-0.94Z"/><path class="cls-5" d="M176.88,465.94V465h9.38v1.88h1.88v7.5h-1.87v1.88h-1.87v1.88h-7.5v-1.87h5.63v-1.87h1.88V472.5h-7.5v-1.87H175v-3.75h1.88v-0.94Zm7.5,2.81v-1.87h-5.62v3.75h5.63v-1.87Z"/><path class="cls-5" d="M193.75,465.94V465h5.63v1.88h1.88v1.88h1.88v5.63h-1.87v1.88h-1.87v1.88h-5.62v-1.87h-1.87v-1.87H190v-5.62h1.88v-1.87h1.88v-0.94Zm3.75,1.88v-0.94h-3.75v7.5h1.88v1.88h3.75v-7.5H197.5v-0.94Z"/><path class="cls-5" d="M221.88,465.94V465h7.5v1.88h1.88v1.88H227.5v-1.87h-3.75v3.75h7.5v1.88h1.88v3.75h-1.87v1.88h-9.37v-1.87H220v-1.87h3.75v1.88h5.63V472.5h-7.5v-1.87H220v-3.75h1.88v-0.94Z"/><path class="cls-5" d="M235,471.56V465h3.75v5.63h5.63V465h3.75v13.13h-3.75V472.5h-5.62v5.63H235v-6.56Z"/><path class="cls-5" d="M250,471.56V465h13.13v1.88h-9.37v3.75h7.5v1.88h-7.5v3.75h9.38v1.88H250v-6.56Z"/><path class="cls-5" d="M266.88,471.56V465h3.75v11.25h7.5v1.88H266.88v-6.56Z"/><path class="cls-5" d="M281.88,471.56V465h3.75v11.25h7.5v1.88H281.88v-6.56Z"/><path class="cls-5" d="M295,471.56V465h9.38v1.88h1.88v1.88h1.88v5.63h-1.87v1.88h-1.87v1.88H295v-6.56Zm7.5-3.75v-0.94h-3.75v9.38h3.75v-1.87h1.88v-5.62H302.5v-0.94Z"/><path class="cls-5" d="M310,471.56V465h13.13v1.88h-9.37v3.75h7.5v1.88h-7.5v3.75h9.38v1.88H310v-6.56Z"/><path class="cls-5" d="M325,471.56V465h11.25v1.88h1.88v5.63h-3.75v1.88h1.88v1.88h1.88v1.88H332.5v-1.87h-1.87v-1.87h-1.87v3.75H325v-6.56Zm9.38-2.81v-1.87h-5.62v5.63h3.75v-1.87h1.88v-1.87Z"/></svg>