<?xml version="1.0" ?><svg id="pkft" viewBox="0 0 500 500" xmlns="http://www.w3.org/2000/svg"><defs><style>.cls-1{fill:none;}.cls-2{fill:#8078a3;}.cls-10,.cls-3{fill:#1a1a1a;}.cls-4{fill:#333;}.cls-5{fill:#fff;}.cls-6{fill:#b4b4b5;}.cls-7{fill:#958cc4;}.cls-8{fill:#a499c9;}.cls-9{fill:#c9c9c9;}.cls-10{opacity:0.1;}</style></defs><title/><path class="cls-1" d="M231.58,179.24l0.15,0a155.19,155.19,0,0,1,6.6-18.73l-0.27.3A169.81,169.81,0,0,0,231.58,179.24Z"/><path class="cls-2" d="M227.31,365.51c-8.81-23.08-12.45-21.86-22.77-21.86s-11.85,4.84-15,0-4-25.49-4.82-27.32a13.4,13.4,0,0,1-.68-4.86s-9.3-6.68-13.55-9.72-28-78.94,24.84-104.45c0,0,43.7-38.64,45.7-43.5h0c-1,2.19-1.94,4.54-2.92,7l0.26-.3c1-2.32,2-4.56,2.92-6.67,1.44-3.13,2.83-6,4.07-8.4C240.23,140.46,230,130.11,225,125c0.07,11.55-1,26.72-7.25,28.81-10.18,3.42-53.81,23.46-56.29,33.17s3,39.17-2.47,41.45-33.4,22.92-13.36,62.4,35.83,25.5,26.72,40.08-15.79,26.72-5.47,29.76,36.48,20,38.89,44.33c0,0,26.09,7.89,26.09,1.82,0-4,7-13.33,11.82-19.38C238.5,384.05,231.94,377.65,227.31,365.51Z"/><path class="cls-3" d="M230.7,183.27c0.31-1.35.66-2.71,1-4.06l-0.15,0c-0.37,1.34-.72,2.69-1,4C221.82,193.36,210,206.4,210,206.4c-52.83,25.5-29.15,86.84-24.9,89.87S198.62,306,198.62,306a13.23,13.23,0,0,0,.66,4.86c0.81,1.82-3.85,15.18-.66,20s4.71,0,15,0,13.92-1.21,22.73,21.86c3.85,10.1,8.62,16.24,13.62,20V318.14a59.17,59.17,0,0,1-50.93-89.28c0-.15,0-0.29,0-0.44l0.17,0.11A59.85,59.85,0,0,1,250,199.72v-0.39c-10-.82-21.21-2.65-21.21-2.65A68,68,0,0,1,230.7,183.27Z"/><path class="cls-4" d="M199.24,228.53l20.71,11.1,4.35,2.33,12.12,6.5s-36.22,31.69-37.33-19.6A59.15,59.15,0,0,0,250,318.14v-28.9c-15-.43-43.12-4.38-51.46-26.21,0,0,27.46,9.51,51.46,11.81V199.72A59.84,59.84,0,0,0,199.24,228.53Z"/><path d="M216.59,243.66c-1.26,3.15-.67,6.35,1.31,7.15,1.82,0.73,4.18-.84,5.53-3.54a2.11,2.11,0,0,1,.75-4.08,2,2,0,0,1,.24,0,6.6,6.6,0,0,0-.12-1.28L220,239.63A7.67,7.67,0,0,0,216.59,243.66Z"/><path class="cls-5" d="M223.43,247.27a2.1,2.1,0,1,0,1-4,8.79,8.79,0,0,1-.64,3.3C223.67,246.8,223.55,247,223.43,247.27Z"/><path class="cls-5" d="M199.07,228.42c0,0.15,0,.29,0,0.44l0.19-.33Z"/><path class="cls-5" d="M236.42,248.46L224.3,242a6.6,6.6,0,0,1,.12,1.28,2.09,2.09,0,0,1,1.87,2.07,2.09,2.09,0,0,1-2.87,2c-1.35,2.7-3.7,4.27-5.53,3.54-2-.79-2.57-4-1.31-7.15a7.67,7.67,0,0,1,3.37-4l-20.69-11.1-0.19.33C200.2,280.14,236.42,248.46,236.42,248.46Z"/><path class="cls-5" d="M222.06,245.31a2.11,2.11,0,0,0,1.37,2c0.12-.24.25-0.48,0.35-0.74a8.79,8.79,0,0,0,.64-3.3,2,2,0,0,0-.24,0A2.12,2.12,0,0,0,222.06,245.31Z"/><path class="cls-5" d="M250,289.24v-14.4c-24-2.3-51.46-11.81-51.46-11.81C206.88,284.86,235,288.81,250,289.24Z"/><path class="cls-6" d="M236.38,352.75c-8.81-23.08-12.43-21.86-22.75-21.86s-11.83,4.84-15,0,1.48-18.21.66-20a13.2,13.2,0,0,1-.66-4.86s-9.26-6.68-13.51-9.72S157.17,231.91,210,206.4c0,0,11.82-13,20.55-23.14,0.31-1.34.65-2.68,1-4a169.84,169.84,0,0,1,6.49-18.47c1-2.43,1.92-4.77,2.92-7h0c-2,4.86-45.7,43.5-45.7,43.5-52.83,25.5-29.08,101.41-24.83,104.45S184,311.46,184,311.46a13.39,13.39,0,0,0,.68,4.86c0.81,1.82,1.63,22.47,4.81,27.32s4.71,0,15,0,14-1.21,22.77,21.86c4.63,12.15,11.15,18.55,16.33,21.91a41.25,41.25,0,0,0,6.36,3.12V372.71C245,369,240.23,362.85,236.38,352.75Z"/><path class="cls-7" d="M145.63,363.68c1.22-18.22,12.15-17.61,5.47-29.15-2.7-4.66-7.87-10.6-13.08-16.87,0,2.85.15,6.11,0.47,9.59,1.07,11.54-15.94,12.75-15.94,18.22s8.12,23.67,23.19,22.16A19.71,19.71,0,0,1,145.63,363.68Z"/><path class="cls-7" d="M197.56,152c-20.32,1.13-41.43-7.75-51.2-12.55,2.94-4,6.13-8.82,9.6-14.51L72.16,76.45S30.26,57,63.66,100.72s55.87,59.75,55.87,59.75,5.86,3.39,19-11.15h0c8.52,4,14.71,11.93,17.94,16.86,12.56-5.61,26.79-4.42,39-12.39A13.57,13.57,0,0,0,197.56,152Z"/><path class="cls-7" d="M123,249.14c-14,3.17-46,9-76.13,1.85,0,0-6.79,10.5-.11,16.05,6.1,5.07,52.92,10.59,76.68,27.72a14.18,14.18,0,0,1-.44-3.95V249.14Z"/><path class="cls-7" d="M149.28,213.08c1.92-7.42.12-15.8-1.2-23.46-39.85,6.32-13.38,35.83-10.45,39C142.71,224.92,147.53,219.82,149.28,213.08Z"/><path class="cls-7" d="M178,380.08c-8.71-2.72-22.06-1.39-27.79-8.08a82,82,0,0,1-9.86,12.94c-12.29,13.36-26.87,28.54-15.94,31.58S156,412,160.82,407.27s15.33-19.81,31-14.74C187.26,386.63,181.75,381.26,178,380.08Z"/><path class="cls-8" d="M224.42,111.67c-18.47-.57-16,29.6-26.86,40.38a13.57,13.57,0,0,1-2.13,1.75c-12.21,8-26.44,6.79-39,12.39a38,38,0,0,0-3.52,1.76c-7.31,4.21-6.44,12.42-4.85,21.67,1.32,7.66,3.13,16,1.2,23.46-1.75,6.74-6.35,11.83-11.43,15.5A57,57,0,0,1,123,236.16v54.65a13.69,13.69,0,0,0,.18,3.95c1.95,6.88,8.82,15,13.82,22.71v0.19c6,6.27,10.89,12.22,13.59,16.87,6.68,11.54-4,10.93-5.21,29.15a19.24,19.24,0,0,0,.24,3.94c0.31,0,.9-0.13.9-0.12-0.25,0-.5.1-0.76,0.12a11.6,11.6,0,0,0,2.6,6.2c0.35-.58.52-0.54,0.2,0,5.73,6.69,19.39,5.36,28.1,8.08,3.78,1.18,7.84,6.55,13.3,12.46,0,12.36,17.85,27.06,16.22,10.62-2.41-24.29-28.77-41.29-39.09-44.33s-3.75-15.18,5.36-29.76-6.73-.61-26.77-40.08,7.87-60.12,13.33-62.4,0-31.73,2.46-41.45,46.1-29.76,56.28-33.17c6.2-2.08,7.32-17.26,7.24-28.81C225,117.59,224.42,111.67,224.42,111.67ZM163,367.82l26.92,11.65L163,367.83h0Zm-5.92-12.44c0.1-.33.18-0.67,0.27-1a5.33,5.33,0,0,1-.17,1Z"/><path class="cls-9" d="M245,145.4c-1.31,2.43-2.77,5.27-4.29,8.4-1,2.1-2.06,4.34-3.09,6.67a149.43,149.43,0,0,0-7,18.73q-0.59,2-1.09,4.06a64.37,64.37,0,0,0-2,13.42S240,198.52,250,199.34V136.57S247.93,140,245,145.4Z"/><path class="cls-1" d="M268,179.24l-0.15,0a155.19,155.19,0,0,0-6.6-18.73l0.27,0.3A169.81,169.81,0,0,1,268,179.24Z"/><path class="cls-2" d="M272.32,365.51c8.81-23.08,12.45-21.86,22.77-21.86s11.85,4.84,15,0,4-25.49,4.82-27.32a13.4,13.4,0,0,0,.68-4.86s9.3-6.68,13.55-9.72,28.18-78.94-24.65-104.45c0,0-43.51-38.64-45.51-43.5h0c0,2.19,1.75,4.54,2.74,7-0.09-.1-0.26-0.2-0.35-0.3-1-2.32-2-4.56-3-6.67-1.44-3.13-2.85-6-4.09-8.4,5.1-4.94,15.29-15.29,20.32-20.41-0.07,11.55,1,26.72,7.24,28.81,10.18,3.42,53.81,23.46,56.28,33.17s-3,39.17,2.47,41.45S374,251.34,354,290.81s-35.83,25.5-26.72,40.08,15.79,26.72,5.47,29.76-36.48,20-38.89,44.33c0,0-26.09,7.89-26.09,1.82,0-4-7-13.33-11.82-19.38C261.13,384.05,267.68,377.65,272.32,365.51Z"/><path class="cls-3" d="M268.93,183.27c-0.31-1.35-.66-2.71-1-4.06l0.15,0c0.37,1.34.72,2.69,1,4,8.74,10.09,20.55,23.14,20.55,23.14,52.83,25.5,29.15,86.84,24.9,89.87S301,306,301,306a13.23,13.23,0,0,1-.66,4.86c-0.81,1.82,3.85,15.18.66,20s-4.71,0-15,0-13.74-1.21-22.54,21.86a51.71,51.71,0,0,1-13.44,20V318.14a59.05,59.05,0,0,0,50.65-89.28c0-.15,0-0.29,0-0.44v0.11A58.32,58.32,0,0,0,250,199.72v-0.39c9-.82,21-2.65,21-2.65A68.78,68.78,0,0,0,268.93,183.27Z"/><path class="cls-4" d="M300.58,228.53l-20.8,11.1-4.4,2.33-12.14,6.5s36.21,31.69,37.32-19.6A58.91,58.91,0,0,1,250,318.14v-28.9c15-.43,43.12-4.38,51.46-26.21,0,0-27.46,9.51-51.46,11.81V199.72A58.27,58.27,0,0,1,300.58,228.53Z"/><path d="M283,243.66c1.26,3.15.67,6.35-1.31,7.15-1.82.73-4.18-.84-5.53-3.54a2.11,2.11,0,0,0-.75-4.08,2,2,0,0,0-.24,0,6.6,6.6,0,0,1,.12-1.28l4.34-2.33A7.67,7.67,0,0,1,283,243.66Z"/><path class="cls-5" d="M276.2,247.27a2.1,2.1,0,1,1-1-4,8.79,8.79,0,0,0,.64,3.3C276,246.8,276.08,247,276.2,247.27Z"/><path class="cls-5" d="M300.55,228.42c0,0.15,0,.29,0,0.44l-0.19-.33Z"/><path class="cls-5" d="M263.21,248.46l12.12-6.5a6.6,6.6,0,0,0-.12,1.28,2.09,2.09,0,0,0-1.87,2.07,2.09,2.09,0,0,0,2.87,2c1.35,2.7,3.7,4.27,5.53,3.54,2-.79,2.57-4,1.31-7.15a7.67,7.67,0,0,0-3.37-4l20.69-11.1,0.19,0.33C299.43,280.14,263.21,248.46,263.21,248.46Z"/><path class="cls-5" d="M277.57,245.31a2.11,2.11,0,0,1-1.37,2c-0.12-.24-0.25-0.48-0.35-0.74a8.79,8.79,0,0,1-.64-3.3,2,2,0,0,1,.24,0A2.12,2.12,0,0,1,277.57,245.31Z"/><path class="cls-5" d="M250,289.24v-14.4c24-2.3,51.46-11.81,51.46-11.81C293.12,284.86,265,288.81,250,289.24Z"/><path class="cls-6" d="M263.44,352.75c8.81-23.08,12.33-21.86,22.66-21.86s11.78,4.84,15,0-1.5-18.21-.69-20A13.09,13.09,0,0,0,301,306s9.25-6.68,13.5-9.72,27.93-64.37-24.9-89.87c0,0-11.82-13-20.55-23.14-0.31-1.34-.66-2.68-1-4a169.42,169.42,0,0,0-6.31-18.47c-1-2.43-2.74-4.77-2.74-7h0c2,4.86,45.51,43.5,45.51,43.5,52.83,25.5,29,101.41,24.74,104.45l-13.59,9.72a13.62,13.62,0,0,1-.7,4.86c-0.81,1.82-1.64,22.47-4.83,27.32s-4.72,0-15,0-14-1.21-22.78,21.86c-4.63,12.15-11,18.55-16.15,21.91-2.63,1.71-4.17,2.65-6.17,3.12V372.71A51.71,51.71,0,0,0,263.44,352.75Z"/><path class="cls-7" d="M354,363.68c-1.22-18.22-12.15-17.61-5.47-29.15,2.7-4.66,7.87-10.6,13.08-16.87,0,2.85-.15,6.11-0.47,9.59-1.07,11.54,15.94,12.75,15.94,18.22s-8.12,23.67-23.19,22.16A19.71,19.71,0,0,0,354,363.68Z"/><path class="cls-7" d="M302.07,152c20.32,1.13,41.43-7.75,51.2-12.55-2.94-4-6.13-8.82-9.6-14.51l83.8-48.54S469.37,57,436,100.72s-55.87,59.75-55.87,59.75-5.86,3.39-19-11.15h0c-8.52,4-14.71,11.93-17.94,16.86-12.56-5.61-26.79-4.42-39-12.39A13.57,13.57,0,0,1,302.07,152Z"/><path class="cls-7" d="M378,249.14c12,3.17,45.33,9,75.44,1.85,0,0,6.45,10.5-.23,16.05-6.1,5.07-52.41,10.59-76.16,27.72a15.77,15.77,0,0,0,1-3.95V249.14Z"/><path class="cls-7" d="M350.35,213.08c-1.92-7.42-.12-15.8,1.2-23.46,39.85,6.32,13.38,35.83,10.45,39C356.92,224.92,352.1,219.82,350.35,213.08Z"/><path class="cls-7" d="M321.66,380.08c8.71-2.72,22.06-1.39,27.79-8.08a82,82,0,0,0,9.86,12.94c12.29,13.36,26.87,28.54,15.94,31.58s-31.58-4.52-36.44-9.24-15.33-19.81-31-14.74C312.37,386.63,317.88,381.26,321.66,380.08Z"/><path class="cls-8" d="M274.62,125c-0.07,11.55,1,26.72,7.24,28.81,10.18,3.42,53.81,23.46,56.28,33.17s-3,39.17,2.46,41.45,33.37,22.92,13.33,62.4-35.88,25.5-26.77,40.08,15.69,26.72,5.36,29.76-36.69,20-39.09,44.33c-1.63,16.44,16.22,1.74,16.22-10.62,5.47-5.9,9.52-11.28,13.3-12.46,8.71-2.72,22.37-1.39,28.1-8.08-0.32-.54-0.15-0.58.2,0a11.6,11.6,0,0,0,2.6-6.2c-0.26,0-.51-0.08-0.76-0.12,0,0,.58.09,0.89,0.12a19.31,19.31,0,0,0,.23-3.94c-1.22-18.22-11.67-17.61-5-29.15,2.7-4.66,8.77-10.6,13.77-16.87v-0.19c5-7.68,12.37-15.84,14.32-22.71a14.8,14.8,0,0,0,.68-3.95V236.16a55.72,55.72,0,0,1-15.53-7.57c-5.08-3.67-10.14-8.76-11.88-15.5-1.92-7.42-.23-15.8,1.09-23.46,1.59-9.25,2.41-17.46-4.9-21.67a38.5,38.5,0,0,0-3.54-1.76c-12.56-5.61-26.8-4.42-39-12.39a13.63,13.63,0,0,1-2.14-1.75c-10.85-10.77-8.4-40.95-26.86-40.38C275.21,111.67,274.67,117.59,274.62,125ZM337,367.83l-26.92,11.65L337,367.82h0Zm5.44-12.41a5.33,5.33,0,0,1-.17-1c0.09,0.34.17,0.68,0.27,1Z"/><path class="cls-9" d="M254.81,145.4c1.31,2.43,2.67,5.27,4.2,8.4,1,2.1,2,4.34,3,6.67a149.36,149.36,0,0,1,7,18.73c0.39,1.36.75,2.71,1.08,4.06a65.11,65.11,0,0,1,2.2,13.42S259,198.52,250,199.34V136.57S251.88,140,254.81,145.4Z"/><path class="cls-10" d="M453.44,251c-30.11,7.14-63.44,1.32-75.44-1.85v-13a55.72,55.72,0,0,1-15.53-7.57c-0.05,0,0-.08-0.06-0.12,3.37-3.62,27.6-32.55-10.4-38.83h0c2-9.25,2.24-17.46-5.07-21.67a39.89,39.89,0,0,0-3.63-1.76h-0.06c3.24-4.92,9.4-12.83,17.92-16.85h0c13.12,14.54,19,11.15,19,11.15s22.47-16,55.87-59.75-8.5-24.27-8.5-24.27L343.67,125c3.47,5.69,6.66,10.46,9.6,14.51-9.77,4.8-30.88,13.68-51.19,12.55h0c-10.85-10.77-8.71-40.95-27.17-40.38A99,99,0,0,0,274,125v0c-4,5-14.49,15-19.68,20.06-2.82-5.23-4.32-8.5-4.32-8.5v63.15a58.3,58.3,0,0,1,50.59,28.77,3.3,3.3,0,0,1,.07.37A59.43,59.43,0,0,1,308.78,254a59.92,59.92,0,0,0-8.22-25.15c-0.5,23.24-8.21,29.44-16.5,29.28,8.28,0.16,16-6.06,16.48-29.28,0-.1,0-0.2,0-0.29l0.29,0a1,1,0,0,1,.16-0.1V229h-0.45C290.19,211,272,199.72,250,199.72V390.54c2-.46,3.47-1.38,6-3,4.85,6.05,11.75,15.33,11.75,19.27,0,5.62,22.37-.73,25.68-1.7-1.52,16.22,16.24,1.58,16.24-10.75,0.87-.94,1.69-1.85,2.49-2.74,13.27-1.38,22.26,11.38,26.66,15.66,4.86,4.73,25.51,12.28,36.44,9.24s-3.64-18.22-15.93-31.58a84.89,84.89,0,0,1-8.53-10.83c0.09-.1.19-0.18,0.28-0.28-0.32-.54-0.15-0.58.2,0a11.6,11.6,0,0,0,2.6-6.2c-0.26,0-.45-0.08-0.7-0.12a5.48,5.48,0,0,1,.84.11h0c14,1.51,23.13-16.69,23.13-22.16s-17-6.68-16-18.22c0.26-2.83.36-5.49,0.41-7.93,0.49-.55,1.43-1.1,1.43-1.66v-0.19c5-7.68,12.18-15.84,14.13-22.71l0.07-.28c23.87-16.91,69.93-22.39,76-27.44C459.88,261.49,453.44,251,453.44,251ZM295.1,343.64c7.08,0,10,2.28,12.21,2.14-2.18.15-5.12-2.14-12.22-2.14h0Zm47.44,11.74-0.1,0a5.33,5.33,0,0,1-.17-1C342.36,354.71,342.45,355,342.54,355.38ZM337,367.82h0l-26.92,11.65ZM289.38,206.4S279,194.71,270,184.9h0c9,9.81,19.38,21.5,19.38,21.5,52.83,25.5,29.28,86.84,25,89.87S301,306,301,306a12.79,12.79,0,0,1-.61,4.86c-0.81,1.82,3.9,15.18.71,20-1,1.55-1.86,2.1-2.87,2.15,1-.07,1.82-0.64,2.81-2.15,3.19-4.85-1.47-18.21-.66-20A13.24,13.24,0,0,0,301,306s9.14-6.68,13.39-9.72S342.21,231.91,289.38,206.4Zm-6.05,124.48c-8.25,0-11.89,1-19.85,21.87C271.48,331.78,275,330.87,283.32,330.88Z"/><path class="cls-7" d="M163.75,465.94V465h5.63v1.88h1.88v1.88h1.88v5.63h-1.87v1.88h-1.87v1.88h-5.62v-1.87h-1.87v-1.87H160v-5.62h1.88v-1.87h1.88v-0.94Zm3.75,1.88v-0.94h-3.75v7.5h1.88v1.88h3.75v-7.5H167.5v-0.94Z"/><path class="cls-7" d="M176.88,465.94V465h9.38v1.88h1.88v7.5h-1.87v1.88h-1.87v1.88h-7.5v-1.87h5.63v-1.87h1.88V472.5h-7.5v-1.87H175v-3.75h1.88v-0.94Zm7.5,2.81v-1.87h-5.62v3.75h5.63v-1.87Z"/><path class="cls-7" d="M195.63,465.94V465h3.75v11.25h3.75v1.88H191.88v-1.87h3.75v-7.5h-1.87v-1.87h1.88v-0.94Z"/><path class="cls-7" d="M223.75,465.94V465h7.5v1.88h1.88v1.88h-3.75v-1.87h-3.75v1.88h-1.87v5.63h1.88v1.88h3.75v-1.87h3.75v1.88h-1.87v1.88h-7.5v-1.87h-1.87v-1.87H220v-5.62h1.88v-1.87h1.88v-0.94Z"/><path class="cls-7" d="M236.88,471.56V465h3.75v11.25h7.5v1.88H236.88v-6.56Z"/><path class="cls-7" d="M251.88,465.94V465h9.38v1.88h1.88v9.38h-1.87v1.88h-9.37v-1.87H250v-9.37h1.88v-0.94Zm7.5,5.63v-4.69h-5.62v9.38h5.63v-4.69Z"/><path class="cls-7" d="M266.88,467.81V465h3.75v5.63h3.75V465h3.75v5.63h-1.87v1.88h-1.87v5.63h-3.75V472.5h-1.87v-1.87h-1.87v-2.81Z"/><path class="cls-7" d="M281.88,465.94V465h7.5v1.88h1.88v1.88H287.5v-1.87h-3.75v3.75h7.5v1.88h1.88v3.75h-1.87v1.88h-9.37v-1.87H280v-1.87h3.75v1.88h5.63V472.5h-7.5v-1.87H280v-3.75h1.88v-0.94Z"/><path class="cls-7" d="M296.88,465.94V465h11.25v1.88h-3.75v11.25h-3.75V466.88h-3.75v-0.94Z"/><path class="cls-7" d="M310,471.56V465h13.13v1.88h-9.37v3.75h7.5v1.88h-7.5v3.75h9.38v1.88H310v-6.56Z"/><path class="cls-7" d="M325,471.56V465h11.25v1.88h1.88v5.63h-3.75v1.88h1.88v1.88h1.88v1.88H332.5v-1.87h-1.87v-1.87h-1.87v3.75H325v-6.56Zm9.38-2.81v-1.87h-5.62v5.63h3.75v-1.87h1.88v-1.87Z"/></svg>