<?xml version="1.0" ?><svg id="pkft" viewBox="0 0 500 500" xmlns="http://www.w3.org/2000/svg"><defs><style>.cls-1{fill:#7d51bc;}.cls-2{fill:#000025;}.cls-3{fill:#fff;}.cls-4{fill:#1a1a1a;}.cls-5{fill:#fe4f63;}.cls-6{opacity:0.1;}</style></defs><title/><path class="cls-1" d="M204,140s2.67-19-24-13.67S152,140,163.33,150s-0.67,26.33-.67,26.33c-32,10.67-24-8.67-26,13.67S136,212.33,160,200s8.67,13.24,0,15.12-35.33.88-34-8.62-11.33,18.17-6,25.83,22,11.33,36,7.67,39,9,11.5,10-62.17-14.33-54.83,10,26.67,30,12,50S84,363.67,110,344.33s55-46.67,57.5-18,1.17,25.33,12.5,18,14.67-33,20-8.67-23.78,15.67-6.56,30S240,377,232.33,356.33,230,340,240,350a30.82,30.82,0,0,0,10,6.49V312a64,64,0,0,1-59.23-88.26A138.66,138.66,0,0,1,190,206.5l6.91,5.75A63.94,63.94,0,0,1,250,184V160.23c-3.72-.65-9.3-2.53-17.67-6.56Z"/><path class="cls-2" d="M196.91,212.25L243.5,251c-40.1,32.29-50.23-3.66-52.73-27.26A64,64,0,0,0,250,312V299.61c-7.13-.92-22-3.88-29.32-13.12l-3.94,6.17-0.33-17.33,10,2.17h0A161.38,161.38,0,0,0,250,279.94V184A63.94,63.94,0,0,0,196.91,212.25Z"/><path class="cls-3" d="M196.91,212.25L190,206.5a138.66,138.66,0,0,0,.77,17.24c2.5,23.6,12.63,59.55,52.73,27.26ZM230,255.67c-1.29,0-2.33-2.09-2.33-4.67s1-4.67,2.33-4.67,2.33,2.09,2.33,4.67S231.29,255.67,230,255.67Z"/><ellipse class="cls-4" cx="230" cy="251" rx="2.33" ry="4.67"/><path class="cls-3" d="M216.4,275.33s3.78,1.06,10,2.17Z"/><path class="cls-3" d="M226.42,277.51c-6.23-1.11-10-2.17-10-2.17l0.33,17.33,3.94-6.17,5.74-9h0Z"/><path class="cls-5" d="M220.68,286.49c7.35,9.24,22.19,12.2,29.32,13.12V279.94a161.38,161.38,0,0,1-23.58-2.44Z"/><path class="cls-1" d="M257.17,156.33l0.08,1.65A3.81,3.81,0,0,0,257.17,156.33Z"/><path class="cls-1" d="M294.22,140s-2.67-19,24-13.67,28,13.67,16.67,23.67,0.67,26.33.67,26.33c32,10.67,24-8.67,26,13.67s0.67,22.33-23.33,10-8.67,13.24,0,15.12,35.33,0.88,34-8.62,11.33,18.17,6,25.83-22,11.33-36,7.67-39,9-11.5,10,62.17-14.33,54.83,10-26.67,30-12,50,40.67,53.67,14.67,34.33-55-46.67-57.5-18-1.17,25.33-12.5,18-14.67-33-20-8.67,23.78,15.67,6.56,30-46.56,11.33-38.89-9.33,2.22-16.33-7.78-6.33A26.85,26.85,0,0,1,248,356.49V312a64.12,64.12,0,0,0,59.4-88.26,142.47,142.47,0,0,0,.8-17.24l-7,5.75A64.25,64.25,0,0,0,248,184V160.23c4-.65,9.41-2.53,17.78-6.56C294.11,140,294.22,140,294.22,140Z"/><path class="cls-2" d="M301.2,212.25L254.67,251c40.1,32.29,50.25-3.66,52.76-27.26A64.21,64.21,0,0,1,248,312V299.61c7-.92,22.08-3.88,29.43-13.12l4,6.17,0.36-17.09-10,2.42h-0.11A173.8,173.8,0,0,1,248,279.94V184A64.28,64.28,0,0,1,301.2,212.25Z"/><path class="cls-3" d="M254.72,251c40.1,32.29,50.23-3.66,52.73-27.26a138.66,138.66,0,0,0,.77-17.24l-6.91,5.75Zm11.17,0c0-2.58,1-4.67,2.33-4.67s2.33,2.09,2.33,4.67-1,4.67-2.33,4.67S265.89,253.58,265.89,251Z"/><ellipse class="cls-4" cx="268.22" cy="251" rx="2.33" ry="4.67"/><path class="cls-3" d="M281.82,275.33s-3.78,1.06-10,2.17Z"/><path class="cls-3" d="M271.8,277.51c6.23-1.11,10-2.17,10-2.17l-0.33,17.33-3.94-6.17-5.74-9h0Z"/><path class="cls-5" d="M277.43,286.49c-7.35,9.24-22.43,12.2-29.43,13.12V279.94a152.57,152.57,0,0,0,23.64-2.44Z"/><path class="cls-1" d="M241.06,156.33L241,158A3.81,3.81,0,0,1,241.06,156.33Z"/><g class="cls-6"><path class="cls-4" d="M373.56,310c-14.67-20,4.67-25.67,12-50s-27.33-9-54.83-10-2.5-13.67,11.5-10,30.67,0,36-7.67-7.33-35.33-6-25.83-25.33,10.5-34,8.62-24-27.45,0-15.12,25.33,12.33,23.33-10,6-3-26-13.67c0,0-12-16.33-.67-26.33s10-18.33-16.67-23.67-24,13.67-24,13.67-0.11,0-28.45,13.67c-8.37,4-13.78,5.91-17.78,6.56V356.49A26.85,26.85,0,0,0,258.11,350c10-10,15.45-14.33,7.78,6.33s21.67,23.67,38.89,9.33-11.89-5.67-6.56-30,8.67,1.33,20,8.67,10,10.67,12.5-18,31.5-1.33,57.5,18S388.22,330,373.56,310ZM308,206.52l-6.78,5.72L254.68,251c11.27,9.08,20.2,12.76,27.23,12.84-7-.07-15.95-3.75-27.25-12.84l46.54-38.75h-0.1l6.9-5.74v0Zm-35.92,71.41,5.47,8.56,3.89,6.09v0.09l-4-6.17-5.5-8.53Zm-20.72,34A63.64,63.64,0,0,0,312.1,248a66.49,66.49,0,0,0-.72-9.77,65.5,65.5,0,0,1,.73,9.77A63.65,63.65,0,0,1,251.35,311.92Z"/><path class="cls-4" d="M241,158l0.08-1.65A3.81,3.81,0,0,0,241,158Z"/></g><path class="cls-1" d="M178.75,465.94V465h5.63v1.88h1.88v1.88h1.88v5.63h-1.87v1.88h-1.87v1.88h-5.62v-1.87h-1.87v-1.87H175v-5.62h1.88v-1.87h1.88v-0.94Zm3.75,1.88v-0.94h-3.75v7.5h1.88v1.88h3.75v-7.5H182.5v-0.94Z"/><path class="cls-1" d="M191.88,465.94V465h9.38v1.88h1.88v7.5h-1.87v1.88h-1.87v1.88h-7.5v-1.87h5.63v-1.87h1.88V472.5h-7.5v-1.87H190v-3.75h1.88v-0.94Zm7.5,2.81v-1.87h-5.62v3.75h5.63v-1.87Z"/><path class="cls-1" d="M206.88,465.94V465h9.38v1.88h1.88v3.75h-1.87v1.88h-1.87v1.88h-3.75v1.88h7.5v1.88H205v-3.75h1.88V472.5h1.88v-1.87h3.75v-1.87h1.88v-1.87h-5.62v1.88H205v-1.87h1.88v-0.94Z"/><path class="cls-1" d="M238.75,465.94V465h9.38v1.88h-7.5v1.88h-1.87v5.63h1.88v1.88h3.75V472.5H242.5v-1.87h5.63v7.5h-9.37v-1.87h-1.87v-1.87H235v-5.62h1.88v-1.87h1.88v-0.94Z"/><path class="cls-1" d="M253.75,465.94V465h5.63v1.88h1.88v1.88h1.88v9.38h-3.75v-3.75h-5.62v3.75H250v-9.37h1.88v-1.87h1.88v-0.94Zm3.75,1.88v-0.94h-1.87v1.88h-1.87v3.75h5.63v-3.75H257.5v-0.94Z"/><path class="cls-1" d="M266.88,465.94V465h7.5v1.88h1.88v1.88H272.5v-1.87h-3.75v3.75h7.5v1.88h1.88v3.75h-1.87v1.88h-9.37v-1.87H265v-1.87h3.75v1.88h5.63V472.5h-7.5v-1.87H265v-3.75h1.88v-0.94Z"/><path class="cls-1" d="M281.88,465.94V465h11.25v1.88h-3.75v11.25h-3.75V466.88h-3.75v-0.94Z"/><path class="cls-1" d="M296.88,471.56V465h3.75v11.25h7.5v1.88H296.88v-6.56Z"/><path class="cls-1" d="M311.88,467.81V465h3.75v5.63h3.75V465h3.75v5.63h-1.87v1.88h-1.87v5.63h-3.75V472.5h-1.87v-1.87h-1.87v-2.81Z"/></svg>