<?xml version="1.0" ?><svg id="pkft" viewBox="0 0 500 500" xmlns="http://www.w3.org/2000/svg"><defs><style>.cls-1{fill:#664497;}.cls-2{fill:#fff;}.cls-3{fill:#1a1a1a;}.cls-4{fill:#ed8599;}.cls-5{opacity:0.1;}</style></defs><title/><path class="cls-1" d="M164.23,283.71c-3.91-3.91-15,.84-24.75,10.61-1.33,1.33-2.56,2.68-3.69,4-0.95-11.34-5-19.86-9.79-19.86-5,0-9.16,9.2-9.89,21.21-1-1.1-2-2.2-3-3.28-9.76-9.76-20.84-14.51-24.75-10.61s0.84,15,10.61,24.75a60.63,60.63,0,0,0,5.17,4.61c-2,1.43-3.1,3.07-3.1,4.82,0,5.52,11.19,10,25,10s25-4.48,25-10c0-2.08-1.58-4-4.29-5.6a59.08,59.08,0,0,0,6.91-5.94C163.38,298.7,168.13,287.62,164.23,283.71Z"/><path class="cls-2" d="M202,170.5s-16.5,33-5,35a97.49,97.49,0,0,0,15.33.89c-0.1-1.63-.16-3.45-0.16-5.39,0-6.77.69-12.25,1.54-12.25s1.54,5.48,1.54,12.25c0,1.93-.06,3.74-0.16,5.36,10-.14,19.41-0.86,19.41-0.86S214.5,174.5,202,170.5Z"/><path class="cls-3" d="M213.71,188.75c-0.85,0-1.54,5.48-1.54,12.25,0,1.94.06,3.76,0.16,5.39l2.76,0c0.1-1.62.16-3.44,0.16-5.36C215.25,194.23,214.56,188.75,213.71,188.75Z"/><path class="cls-4" d="M250,269.34V252c-21.36-1.58-57.07-9.46-57.07-9.46C200.72,261.94,233.81,267.69,250,269.34Z"/><path class="cls-1" d="M250.2,120a57.49,57.49,0,0,0-36.32,12.88L171,90s0,83.22,7.37,102.26C166.58,182.09,131,156,131,156s25,84,37.5,89-42.5,0-42.5,0,45,41.46,55,43.23S250,410,250,410V269.34l-2.66-.3-1-5-2.72,4.57q-2.12-.3-4.4-0.68l-2.88-7.05-3.84,5.76q-2-.44-4.08-1l-3.58-7.8L219.38,263c-1.57-.54-3.11-1.13-4.63-1.76l-2.58-7.54s-2.65,2-5.14,3.74c-6.4-3.75-11.59-8.6-14.11-14.9,0,0,4.6,1,11.46,2.39l1.95,5.28,5.31-3.87,5.59,1,2.61,4.83,5.14-3.48c2.12,0.35,4.26.7,6.39,1l1.64,6.21,4-5.39c1.45,0.2,2.89.39,4.3,0.56l1.18,4.83,2.73-4.39c1.65,0.17,3.25.32,4.77,0.43V240C250.33,240,250.2,120,250.2,120Zm-35.11,86.36-2.76,0A97.49,97.49,0,0,1,197,205.5c-11.5-2,5-35,5-35,12.5,4,32.5,35,32.5,35S225.09,206.22,215.09,206.36Z"/><path class="cls-1" d="M336,283.71c3.91-3.91,15,.84,24.75,10.61,1.33,1.33,2.56,2.68,3.69,4,0.95-11.34,5-19.86,9.79-19.86,5,0,9.16,9.2,9.89,21.21,1-1.1,2-2.2,3-3.28,9.76-9.76,20.84-14.51,24.75-10.61s-0.84,15-10.61,24.75a60.63,60.63,0,0,1-5.17,4.61c2,1.43,3.1,3.07,3.1,4.82,0,5.52-11.19,10-25,10s-25-4.48-25-10c0-2.08,1.58-4,4.29-5.6a59.08,59.08,0,0,1-6.91-5.94C336.8,298.7,332.05,287.62,336,283.71Z"/><path class="cls-2" d="M298.18,170.5s16.5,33,5,35a97.49,97.49,0,0,1-15.33.89c0.1-1.63.16-3.45,0.16-5.39,0-6.77-.69-12.25-1.54-12.25s-1.54,5.48-1.54,12.25c0,1.93.06,3.74,0.16,5.36-10-.14-19.41-0.86-19.41-0.86S285.68,174.5,298.18,170.5Z"/><path class="cls-3" d="M286.47,188.75c0.85,0,1.54,5.48,1.54,12.25,0,1.94-.06,3.76-0.16,5.39l-2.76,0c-0.1-1.62-.16-3.44-0.16-5.36C284.93,194.23,285.62,188.75,286.47,188.75Z"/><path class="cls-4" d="M250,269.34V252c22-1.58,57.07-9.46,57.07-9.46C299.28,261.94,266,267.69,250,269.34Z"/><path class="cls-1" d="M250,240v12c2-.11,3.22-0.26,4.87-0.43l2.77,4.39,1.2-4.83c1.41-.17,2.86-0.36,4.31-0.56l4,5.39,1.64-6.21c2.13-.33,4.27-0.67,6.39-1l5.14,3.48,2.61-4.83,5.59-1,5.31,3.87,1.95-5.28c6.87-1.37,11.46-2.39,11.46-2.39-2.53,6.3-7.71,11.15-14.11,14.9-2.48-1.75-5.14-3.74-5.14-3.74l-2.58,7.54c-1.52.63-3.07,1.22-4.63,1.76l-5.45-5.13-3.58,7.8q-2.06.52-4.08,1l-3.84-5.76L261,267.89q-2.28.38-4.4,0.68L253.85,264l-1.1,5c-0.92.11-1.75,0.21-2.75,0.3V410s59.09-120,69.09-121.77,55-43.23,55-43.23-55,5-42.48,0,37.51-89,37.51-89-35.57,26.09-47.37,36.26c7.37-19,7.37-102.26,7.37-102.26L286.3,132.88A57.74,57.74,0,0,0,249.89,120Zm15.68-34.47s20-31,32.5-35c0,0,16.5,33,5,35a97.49,97.49,0,0,1-15.33.89l-2.76,0C275.09,206.22,265.68,205.5,265.68,205.5Z"/><g class="cls-5"><path class="cls-3" d="M411.86,285.82c-3.91-3.91-15,.84-24.75,10.61-1.08,1.08-2.09,2.18-3,3.28-0.73-12-4.88-21.21-9.89-21.21-4.82,0-8.84,8.52-9.79,19.86-1.13-1.36-2.36-2.71-3.69-4-9.76-9.76-20.84-14.51-24.75-10.61s0.84,15,10.61,24.75a59.08,59.08,0,0,0,6.91,5.94c-2.71,1.6-4.29,3.53-4.29,5.6,0,5.52,11.19,10,25,10s25-4.48,25-10c0-1.75-1.12-3.39-3.1-4.82a60.63,60.63,0,0,0,5.17-4.61C411,300.81,415.77,289.73,411.86,285.82Z"/><path class="cls-3" d="M331.66,245c12.5-5,37.51-89,37.51-89s-35.57,26.09-47.37,36.26c7.37-19,7.37-102.26,7.37-102.26L286.3,132.88A57.74,57.74,0,0,0,249.89,120L250,240v29.37l2.75-.31h0c-0.92.11-1.75,0.21-2.75,0.3V410s59.09-120,69.09-121.77,55-43.23,55-43.23S319.16,250,331.66,245Zm-56.45,3.69h0c-2.12.36-4.27,0.7-6.42,1h0C270.95,249.38,273.09,249,275.21,248.69Zm7.75-1.35,5.59-1h0l-5.61,1v0Zm-19.73,3.2h0c-1.46.2-3.27,0.38-4.27,0.55h0C260,250.92,261.77,250.73,263.23,250.53Zm-8.36,1h0l-0.76.08Zm1.71,17,0,0c1.42-.2,2.9-0.44,4.44-0.7l0,0Q258.69,268.27,256.57,268.57Zm11.12-2,0-.05q2.06-.45,4.15-1l0,0.08Q269.72,266.15,267.69,266.59ZM280.8,263l-0.07-.07c1.6-.56,3.19-1.16,4.74-1.81l0,0.12C283.92,261.83,282.37,262.42,280.8,263Zm12.34-5.56-0.1-.07c6.35-3.73,11.49-8.55,14-14.79l0.2,0C304.73,248.8,299.54,253.65,293.15,257.4Z"/></g><path class="cls-1" d="M171.25,465.94V465h5.63v1.88h1.88v1.88h1.88v5.63h-1.87v1.88h-1.87v1.88h-5.62v-1.87h-1.87v-1.87H167.5v-5.62h1.88v-1.87h1.88v-0.94Zm3.75,1.88v-0.94h-3.75v7.5h1.88v1.88h3.75v-7.5H175v-0.94Z"/><path class="cls-1" d="M184.38,465.94V465h9.38v1.88h1.88v7.5h-1.87v1.88h-1.87v1.88h-7.5v-1.87H190v-1.87h1.88V472.5h-7.5v-1.87H182.5v-3.75h1.88v-0.94Zm7.5,2.81v-1.87h-5.62v3.75h5.63v-1.87Z"/><path class="cls-1" d="M199.38,465.94V465h11.25v1.88h-1.87v1.88h-1.87v1.88h1.88v1.88h1.88v3.75h-1.87v1.88h-9.37v-1.87H197.5v-1.87h3.75v1.88h5.63V472.5h-5.62v-1.87h1.88v-1.87H205v-1.87h-5.62v-0.94Z"/><path class="cls-1" d="M227.5,471.56V465h3.75v5.63h5.63V465h3.75v13.13h-3.75V472.5h-5.62v5.63H227.5v-6.56Z"/><path class="cls-1" d="M246.25,465.94V465h5.63v1.88h1.88v1.88h1.88v9.38h-3.75v-3.75h-5.62v3.75H242.5v-9.37h1.88v-1.87h1.88v-0.94Zm3.75,1.88v-0.94h-1.87v1.88h-1.87v3.75h5.63v-3.75H250v-0.94Z"/><path class="cls-1" d="M257.5,470.63V465h3.75v11.25h5.63V465h3.75v11.25h-1.87v1.88h-9.37v-1.87H257.5v-5.62Z"/><path class="cls-1" d="M272.5,471.56V465h3.75v1.88h1.88v1.88H280v1.88h1.88V465h3.75v13.13h-3.75v-1.87H280v-1.87h-1.87V472.5h-1.87v5.63H272.5v-6.56Z"/><path class="cls-1" d="M289.38,465.94V465h11.25v1.88h-3.75v11.25h-3.75V466.88h-3.75v-0.94Z"/><path class="cls-1" d="M302.5,471.56V465h13.13v1.88h-9.37v3.75h7.5v1.88h-7.5v3.75h9.38v1.88H302.5v-6.56Z"/><path class="cls-1" d="M317.5,471.56V465h11.25v1.88h1.88v5.63h-3.75v1.88h1.88v1.88h1.88v1.88H325v-1.87h-1.87v-1.87h-1.87v3.75H317.5v-6.56Zm9.38-2.81v-1.87h-5.62v5.63H325v-1.87h1.88v-1.87Z"/></svg>