<?xml version="1.0" ?><svg id="pkft" viewBox="0 0 500 500" xmlns="http://www.w3.org/2000/svg"><defs><style>.cls-1{fill:#ea7963;}.cls-2,.cls-6{fill:#1a1a1a;}.cls-3{fill:#fff;}.cls-4{fill:#ae4e56;}.cls-5{fill:#492c4d;}.cls-6{opacity:0.1;}</style></defs><title/><path class="cls-1" d="M216.39,215.72a2.89,2.89,0,0,1-.61-0.07c-0.64,2.94-1.64,4.85-2.77,4.85-1.93,0-3.49-5.5-3.49-12.3,0-1.05,0-2.07.11-3L190,187.5c-30,62,40,36,40,36l-10.87-9.79A2.88,2.88,0,0,1,216.39,215.72Z"/><path class="cls-2" d="M213,220.5c1.13,0,2.14-1.9,2.77-4.85a2.89,2.89,0,0,1-.57-5.46l-5.59-5c-0.07,1-.11,2-0.11,3C209.51,215,211.08,220.5,213,220.5Z"/><path class="cls-3" d="M213.5,212.83a2.88,2.88,0,0,0,5.63.88l-2.74-2.46-1.17-1.06A2.89,2.89,0,0,0,213.5,212.83Z"/><path class="cls-3" d="M170,235.67c-4.17,4.45-.86,17.12,4.42,30.38,8.62,5.56,28.81,13.73,75.58,19.2V251C178.17,250.67,170,235.67,170,235.67Z"/><path class="cls-4" d="M193,304.25C215,318,239.65,317,250,315.76V285.24c-46.77-5.47-67-13.65-75.58-19.2C181.79,284.57,193,304.25,193,304.25Z"/><path class="cls-5" d="M250,251V100l-10,33-16.33-16.5L230,133,125,85l35,85s-1.1,6-2.65,15.65c-17.52-12-66.2-44.56-77.35-45.05l-5.67-14.93L70,144.33,53.67,140.6l10,13.73L50,163.67l13.67,12.67s38.17,65.85,86.7,60.35c-3.15,28.82-4.88,59.41-.62,74.74-6.5,27.46-9.74,96.41-9.74,96.41L130,430l17-5,3,10.67A88.28,88.28,0,0,1,160,430c5-2.33,15,5.67,15,5.67l12.5-11.33c7.5-2,21.56-44.33,21.56-44.33L250,390V315.76c-10.35,1.22-35,2.21-57-11.51,0,0-11.21-19.68-18.58-38.21-5.28-13.26-8.59-25.93-4.42-30.38C170,235.67,178.17,250.67,250,251ZM190,187.5l19.62,17.66,5.59,5,1.17,1.06,2.74,2.46L230,223.5S160,249.5,190,187.5Z"/><path class="cls-1" d="M283.61,215.72a2.89,2.89,0,0,0,.61-0.07c0.64,2.94,1.64,4.85,2.77,4.85,1.93,0,3.49-5.5,3.49-12.3,0-1.05,0-2.07-.11-3L310,187.5c30,62-40,36-40,36l10.87-9.79A2.88,2.88,0,0,0,283.61,215.72Z"/><path class="cls-2" d="M287,220.5c-1.13,0-2.14-1.9-2.77-4.85a2.89,2.89,0,0,0,.57-5.46l5.59-5c0.07,1,.11,2,0.11,3C290.49,215,288.92,220.5,287,220.5Z"/><path class="cls-3" d="M286.5,212.83a2.88,2.88,0,0,1-5.63.88l2.74-2.46,1.17-1.06A2.89,2.89,0,0,1,286.5,212.83Z"/><path class="cls-3" d="M330,235.67c4.17,4.45.86,17.12-4.42,30.38-8.62,5.56-28.81,13.73-75.58,19.2V251C321.83,250.67,330,235.67,330,235.67Z"/><path class="cls-4" d="M307,304.25C285,318,260.35,317,250,315.76V285.24c46.77-5.47,67-13.65,75.58-19.2C318.21,284.57,307,304.25,307,304.25Z"/><path class="cls-5" d="M330,235.67c4.17,4.45.86,17.12-4.42,30.38C318.21,284.57,307,304.25,307,304.25,285,318,260.35,317,250,315.76V390l40.94-10S305,422.33,312.5,424.33L325,435.67s10-8,15-5.67a88.28,88.28,0,0,1,10,5.67L353,425l17,5-10-22.17s-3.25-68.95-9.74-96.41c4.26-15.32,2.53-45.91-.62-74.74,48.53,5.5,86.7-60.35,86.7-60.35L450,163.67l-13.67-9.33,10-13.73L430,144.33l-4.33-18.67L420,140.6c-11.15.49-59.83,33.09-77.35,45.05C341.1,176,340,170,340,170l35-85L270,133l6.33-16.5L260,133l-10-33V251C322,250.67,330,235.67,330,235.67ZM270,223.5l10.87-9.79,2.74-2.46,1.17-1.06,5.59-5L310,187.5C340,249.5,270,223.5,270,223.5Z"/><path class="cls-6" d="M436.33,154.33l10-13.73L430,144.33l-4.33-18.67L420,140.6c-11.15.49-59.83,33.09-77.35,45.05C341.1,176,340,170,340,170l35-85L270,133l6.33-16.5L260,133l-10-33V390l40.94-10S305,422.33,312.5,424.33L325,435.67s10-8,15-5.67a88.28,88.28,0,0,1,10,5.67L353,425l17,5-10-22.17s-3.25-68.95-9.74-96.41c4.26-15.32,2.53-45.91-.62-74.74,48.53,5.5,86.7-60.35,86.7-60.35L450,163.67Z"/><path class="cls-5" d="M178.75,465.94V465h5.63v1.88h1.88v1.88h1.88v5.63h-1.87v1.88h-1.87v1.88h-5.62v-1.87h-1.87v-1.87H175v-5.62h1.88v-1.87h1.88v-0.94Zm3.75,1.88v-0.94h-3.75v7.5h1.88v1.88h3.75v-7.5H182.5v-0.94Z"/><path class="cls-5" d="M191.88,465.94V465h9.38v1.88h1.88v7.5h-1.87v1.88h-1.87v1.88h-7.5v-1.87h5.63v-1.87h1.88V472.5h-7.5v-1.87H190v-3.75h1.88v-0.94Zm7.5,2.81v-1.87h-5.62v3.75h5.63v-1.87Z"/><path class="cls-5" d="M210.63,465.94V465h5.63v7.5h1.88v1.88h-1.87v3.75H212.5v-3.75H205v-3.75h1.88v-1.87h1.88v-1.87h1.88v-0.94Zm1.88,4.69v-1.87h-1.87v1.88h-1.87v1.88h3.75v-1.87Z"/><path class="cls-5" d="M238.75,465.94V465h9.38v1.88h-7.5v1.88h-1.87v5.63h1.88v1.88h3.75V472.5H242.5v-1.87h5.63v7.5h-9.37v-1.87h-1.87v-1.87H235v-5.62h1.88v-1.87h1.88v-0.94Z"/><path class="cls-5" d="M250,471.56V465h13.13v1.88h-9.37v3.75h7.5v1.88h-7.5v3.75h9.38v1.88H250v-6.56Z"/><path class="cls-5" d="M265,471.56V465h3.75v1.88h1.88v1.88h1.88v1.88h1.88V465h3.75v13.13h-3.75v-1.87H272.5v-1.87h-1.87V472.5h-1.87v5.63H265v-6.56Z"/><path class="cls-5" d="M283.75,465.94V465h9.38v1.88h-7.5v1.88h-1.87v5.63h1.88v1.88h3.75V472.5H287.5v-1.87h5.63v7.5h-9.37v-1.87h-1.87v-1.87H280v-5.62h1.88v-1.87h1.88v-0.94Z"/><path class="cls-5" d="M298.75,465.94V465h5.63v1.88h1.88v1.88h1.88v9.38h-3.75v-3.75h-5.62v3.75H295v-9.37h1.88v-1.87h1.88v-0.94Zm3.75,1.88v-0.94h-1.87v1.88h-1.87v3.75h5.63v-3.75H302.5v-0.94Z"/><path class="cls-5" d="M310,471.56V465h11.25v1.88h1.88v5.63h-3.75v1.88h1.88v1.88h1.88v1.88H317.5v-1.87h-1.87v-1.87h-1.87v3.75H310v-6.56Zm9.38-2.81v-1.87h-5.62v5.63h3.75v-1.87h1.88v-1.87Z"/></svg>