<?xml version="1.0" ?><svg id="pkft" viewBox="0 0 500 500" xmlns="http://www.w3.org/2000/svg"><defs><style>.cls-1{fill:#b1aec1;}.cls-2{fill:#c4bfd7;}.cls-3{fill:#fff;}.cls-4{fill:#1a1a1a;}.cls-5{fill:#5f5f75;}.cls-6{fill:#717182;}.cls-7{fill:#84848c;}.cls-8{fill:#929296;}.cls-9{fill:#a1a0a8;}.cls-10{fill:#b1afba;}.cls-11{fill:#b9b6c6;}.cls-12{opacity:0.1;}</style></defs><title/><polygon class="cls-1" points="222.76 174.82 222.67 174.78 226.23 195.94 250 207.73 250 195.85 226.23 183.96 222.76 174.82"/><path class="cls-2" d="M248.81,33l-6.16,58.56c-11.22,4.2-31.57,12.22-33.85,15.93-3.17,5.15,0,38,0,38l5.55,7.13,8.42,22.16,3.47,9.14L250,195.85V35.48ZM242,142.36a6.44,6.44,0,0,1-3.36,5.13l-7,3.4a5.57,5.57,0,0,1-5.82-.9l-5.43-5.17a6.74,6.74,0,0,1-1.69-5.92L221.48,128a2.71,2.71,0,0,1,4.05-1.8l13.15,6.8A6.66,6.66,0,0,1,242,138.2v4.16Z"/><path class="cls-3" d="M238.68,133l-13.07-6.8a2.74,2.74,0,0,0-4.09,1.8l-2.85,10.93a6.73,6.73,0,0,0,1.67,5.92l5.4,5.17a5.5,5.5,0,0,0,5.78.9l7.11-3.4a6.44,6.44,0,0,0,3.36-5.13V138.2A6.66,6.66,0,0,0,238.68,133Zm-4.13,9.68a1.79,1.79,0,1,1,1.79-1.79A1.79,1.79,0,0,1,234.55,142.66Z"/><circle class="cls-4" cx="234.55" cy="140.87" r="1.79"/><polygon class="cls-5" points="244 430.01 244 438.33 247.3 445.46 250 446.75 250 433.97 244 430.01"/><polygon class="cls-6" points="248.81 418.12 238.74 410.29 238.11 421.69 244.06 430.01 250 433.97 250 430.01 250 417.37 248.81 418.12"/><polygon class="cls-7" points="238.99 386.03 234.31 383.32 232.76 390.39 238.11 409.8 238.74 410.29 248.81 418.12 250 417.37 250 415.45 250 388.13 238.99 386.03"/><polygon class="cls-8" points="228.58 350.57 226 346.99 226 362.26 229.98 380.88 234.26 383.32 238.97 386.03 250 388.13 250 386.86 250 356.07 228.58 350.57"/><polygon class="cls-9" points="248.81 302.82 230.09 297.67 220.95 294.1 218 311.94 218 334.92 226.27 346.99 228.72 350.57 250 356.07 250 340.24 250 302.63 248.81 302.82"/><polygon class="cls-10" points="228.69 239.03 214.88 231.84 207 252.5 207 274.3 212.66 290.94 220.85 294.1 230.06 297.67 248.8 302.82 250 302.63 250 299.06 250 247.68 228.69 239.03"/><polygon class="cls-11" points="222.76 174.82 207.38 198.62 214.34 231.5 214.99 231.84 228.69 239.03 250 247.68 250 240.44 250 196.94 222.76 174.82"/><polyline class="cls-1" points="227.61 178.79 234.55 194.28 250 201.59 250 197"/><polygon class="cls-1" points="277.24 174.82 277.33 174.78 273.77 195.94 250 207.73 250 195.85 273.77 183.96 277.24 174.82"/><path class="cls-2" d="M250,35.48V195.85L273.77,184l3.47-9.14,8.42-22.16,5.55-7.13s3.17-32.89,0-38c-2.28-3.71-22.63-11.73-33.85-15.93L251.19,33Zm8,102.72a6.66,6.66,0,0,1,3.32-5.22l13.07-6.8a2.74,2.74,0,0,1,4.09,1.8l2.85,10.93a6.73,6.73,0,0,1-1.67,5.92l-5.4,5.17a5.5,5.5,0,0,1-5.78.9l-7.11-3.4a6.44,6.44,0,0,1-3.36-5.13V138.2Z"/><path class="cls-3" d="M258,138.2v4.16a6.44,6.44,0,0,0,3.36,5.13l7,3.4a5.57,5.57,0,0,0,5.82-.9l5.43-5.17a6.74,6.74,0,0,0,1.69-5.92L278.52,128a2.71,2.71,0,0,0-4.05-1.8L261.32,133A6.66,6.66,0,0,0,258,138.2Zm5.67,2.67a1.79,1.79,0,1,1,1.79,1.79A1.79,1.79,0,0,1,263.67,140.87Z"/><circle class="cls-4" cx="265.45" cy="140.87" r="1.79"/><polygon class="cls-5" points="256 430.01 256 438.33 252.7 445.46 250 446.75 250 433.97 256 430.01"/><polygon class="cls-6" points="251.19 418.12 261.26 410.29 261.89 421.69 255.94 430.01 250 433.97 250 430.01 250 417.37 251.19 418.12"/><polygon class="cls-7" points="261.01 386.03 265.69 383.32 267.24 390.39 261.89 409.8 261.26 410.29 251.19 418.12 250 417.37 250 415.45 250 388.13 261.01 386.03"/><polygon class="cls-8" points="271.42 350.57 274 346.99 274 362.26 270.02 380.88 265.74 383.32 261.03 386.03 250 388.13 250 386.86 250 356.07 271.42 350.57"/><polygon class="cls-9" points="251.19 302.82 269.91 297.67 279.05 294.1 282 311.94 282 334.92 273.73 346.99 271.28 350.57 250 356.07 250 340.24 250 302.63 251.19 302.82"/><polygon class="cls-10" points="271.31 239.03 285.12 231.84 293 252.5 293 274.3 287.34 290.94 279.15 294.1 269.94 297.67 251.2 302.82 250 302.63 250 299.06 250 247.68 271.31 239.03"/><polygon class="cls-11" points="277.24 174.82 292.62 198.62 285.66 231.5 285.01 231.84 271.31 239.03 250 247.68 250 240.44 250 196.94 277.24 174.82"/><polyline class="cls-1" points="272.39 178.79 265.45 194.28 250 201.59 250 197"/><g class="cls-12"><polygon class="cls-4" points="252.7 445.46 256 438.33 256 430.01 250 433.97 250 446.75 252.7 445.46"/><polygon class="cls-4" points="250 388.13 250 415.45 250 417.37 250 430.01 250 433.97 255.94 430.01 261.89 421.69 261.26 410.29 261.89 409.8 267.24 390.39 265.69 383.35 265.74 383.32 270.02 380.88 274 362.26 274 346.99 271.42 350.57 250 356.07 250 386.86 250 388.13"/><path class="cls-4" d="M285.12,231.85L271.31,239l13.7-7.19,0.65-.34,7-32.89-15.31-23.7,0-.14-0.09,0,8.42-22.16,5.55-7.13s3.17-32.89,0-38c-2.28-3.71-22.63-11.73-33.85-15.93L251.19,33,250,35.48V302.63l1.19,0.19h0l-1.19-.19v53.44l21.28-5.5,2.44-3.58L282,334.92v-23l-2.95-17.8,0.09,0,8.19-3.16L293,274.3V252.5Zm-5.46-87-5.4,5.17a5.4,5.4,0,0,1-3.59,1.35,5.44,5.44,0,0,0,3.55-1.35l5.43-5.17a6.25,6.25,0,0,0,1.56-2.76A6.18,6.18,0,0,1,279.66,144.82Zm-3.91-19a3.16,3.16,0,0,0-1.28.37l-12.94,6.69,12.86-6.69A3.14,3.14,0,0,1,275.75,125.81Zm-14.38,21.68,0.11,0.05-0.11-.05a6.44,6.44,0,0,1-3.36-5.13A6.44,6.44,0,0,0,261.36,147.49Z"/></g><path class="cls-9" d="M193.75,465.94V465h5.63v1.88h1.88v1.88h1.88v5.63h-1.87v1.88h-1.87v1.88h-5.62v-1.87h-1.87v-1.87H190v-5.62h1.88v-1.87h1.88v-0.94Zm3.75,1.88v-0.94h-3.75v7.5h1.88v1.88h3.75v-7.5H197.5v-0.94Z"/><path class="cls-9" d="M206.88,465.94V465h9.38v1.88h1.88v7.5h-1.87v1.88h-1.87v1.88h-7.5v-1.87h5.63v-1.87h1.88V472.5h-7.5v-1.87H205v-3.75h1.88v-0.94Zm7.5,2.81v-1.87h-5.62v3.75h5.63v-1.87Z"/><path class="cls-9" d="M220,467.81V465h11.25v1.88h-7.5v1.88h7.5v1.88h1.88v5.63h-1.87v1.88h-9.37v-1.87H220v-1.87h3.75v1.88h5.63v-5.62H220v-2.81Z"/><path class="cls-9" d="M251.88,465.94V465h9.38v1.88h1.88v9.38h-1.87v1.88h-9.37v-1.87H250v-9.37h1.88v-0.94Zm7.5,5.63v-4.69h-5.62v9.38h5.63v-4.69Z"/><path class="cls-9" d="M265,471.56V465h3.75v1.88h1.88v1.88h1.88v1.88h1.88V465h3.75v13.13h-3.75v-1.87H272.5v-1.87h-1.87V472.5h-1.87v5.63H265v-6.56Z"/><path class="cls-9" d="M281.88,465.94V465h11.25v1.88h-3.75v9.38h3.75v1.88H281.88v-1.87h3.75v-9.37h-3.75v-0.94Z"/><path class="cls-9" d="M295,466.88V465h3.75v1.88h1.88v1.88h1.88v-1.87h1.88V465h3.75v3.75h-1.87v1.88h-1.87v1.88h1.88v1.88h1.88v3.75h-3.75v-1.87H302.5v-1.87h-1.87v1.88h-1.87v1.88H295v-3.75h1.88V472.5h1.88v-1.87h-1.87v-1.87H295v-1.87Z"/></svg>