<?xml version="1.0" ?><svg id="pkft" viewBox="0 0 500 500" xmlns="http://www.w3.org/2000/svg"><defs><style>.cls-1{fill:#fff;}.cls-10,.cls-2{fill:#1a1a1a;}.cls-3{fill:none;}.cls-4{fill:#ffb600;}.cls-5{fill:#603a30;}.cls-6{fill:#644237;}.cls-7{fill:#fcbe10;}.cls-8{fill:#fcc438;}.cls-9{fill:#d3b363;}.cls-10{opacity:0.1;}</style></defs><title/><path class="cls-1" d="M220.75,166.25c-0.55,0-1-1-1-2.33a4.8,4.8,0,0,1,.16-1.25c-3.31-2.18-8.38-2.18-15.16,7.33l19.75-1.5a15.7,15.7,0,0,0-2.76-4.27C221.67,165.37,221.26,166.25,220.75,166.25Z"/><path class="cls-2" d="M220.75,166.25c0.51,0,.92-0.88,1-2a10.1,10.1,0,0,0-1.83-1.56,4.8,4.8,0,0,0-.16,1.25C219.75,165.21,220.2,166.25,220.75,166.25Z"/><path class="cls-3" d="M219.91,162.67c-3.31-2.18-8.38-2.18-15.16,7.33l19.75-1.5a15.7,15.7,0,0,0-2.76-4.27A10.1,10.1,0,0,0,219.91,162.67Z"/><path class="cls-3" d="M143,377h10.09A27.66,27.66,0,0,0,143,377Z"/><path class="cls-4" d="M153.09,377H143s-15.33,17.25,0,16.58l7-5.46s-7.67,5.94-2,8.27,43.6-6.11,43.6-6.11C188.55,379.55,166.41,377,153.09,377Z"/><path class="cls-5" d="M219.75,370c-7.41-10.07-5-15.13-1.52-17.64C177.58,343,169,311.15,168.67,287c-7.82,3.32-45.81,22.57,3.14,65.47L176,360s-23,5.25-33,16.75a32.3,32.3,0,0,1,10.09.25c13.32,0,35.46,2.76,38.51,13.5L190,377l1.6,13.25S233,388,219.75,370Z"/><path class="cls-6" d="M236.69,262.16c-10.33-3.2-14.31-2.45-24,0s-11.58.24-27.58-3.43a31.84,31.84,0,0,0-13.28,0A117,117,0,0,0,168.67,287c0.32,24.12,8.91,55.93,49.56,65.33A122.29,122.29,0,0,0,250,355V266.6C246.36,266.08,243.84,264.37,236.69,262.16Z"/><path class="cls-7" d="M250,172V108.5a57.48,57.48,0,0,0-35.12,11.92C210.95,116,199.39,106.5,175.25,110c0,0,.24,1,0.7,2.61,9.42,1.49,24.27,5,31.3,13,0,0-8.51,12.34-10.86,19.34h-0.08a57.74,57.74,0,0,0,35.53,76.07c-0.49-5.05-.85-10.47-1.11-15.62-0.66-12.79-.73-24-0.73-24C233,175.49,250,172,250,172Zm-30.09-9.33a10.1,10.1,0,0,1,1.83,1.56,15.7,15.7,0,0,1,2.76,4.27L204.75,170C211.53,160.49,216.6,160.49,219.91,162.67Z"/><path class="cls-8" d="M230,181.49s0.07,11.17.73,24c0.26,5.15.62,10.57,1.11,15.62,0.94,9.72,2.36,18.11,4.49,20.73A28,28,0,0,0,250,251V172S233,175.49,230,181.49Z"/><path class="cls-9" d="M207.25,125.66c-7-8-21.87-11.56-31.3-13,2.09,7.28,8.86,27.63,20.43,32.18l-0.08.21h0.08C198.74,138,207.25,125.66,207.25,125.66Z"/><path class="cls-4" d="M236.33,241.8c-2.13-2.62-3.55-11-4.49-20.73A57.93,57.93,0,0,1,199,193.4l-2.16,5.19-47.94-24.1a12.59,12.59,0,0,1-6.19-14.11l14.51-50.77a9.51,9.51,0,0,0,.33-1.8l1.2-.42a6.29,6.29,0,0,0,4-6.59l0-.11C162.33,98,161.55,97,161,98.5s-2.65,3.25-4.85,4.2a7.05,7.05,0,0,0-3.84-2.41,5.42,5.42,0,0,1,.07-0.71l0.24-1.34a43.16,43.16,0,0,1,3.07-9.42l2.11-4.33c1.21-2.47.6-2.9-1.34-1l-2.93,2.93A31.3,31.3,0,0,0,148,94.59l-1.54,3.57c-0.5,1.15-1,1.76-1.33,1.84H145c-0.35-.08-0.58-0.74-0.62-2a94.65,94.65,0,0,1,.36-9.69L145.26,83c0.27-2.74-.6-3-1.93-0.6l-2.91,5.25A23,23,0,0,0,138,97v1c0,1.28-.34,2.1-0.89,2.4l-0.44.13a2.91,2.91,0,0,1-2.1-1.17L133.29,98a12,12,0,0,1-2.78-8.59l0.55-4.2c0.36-2.73-.37-3-1.62-0.5L127,89.61a13.33,13.33,0,0,0-.59,9.17l2.76,7.76a11.26,11.26,0,0,0-1.3,3.23l-15.66,70.48a13.51,13.51,0,0,0,6.77,14.23l65.73,32.87c-1.91,4.37-3.57,8-4.68,10.24A136.8,136.8,0,0,0,172,258s-0.07.26-.19,0.75a31.84,31.84,0,0,1,13.28,0c16,3.67,17.88,5.89,27.58,3.43s13.69-3.22,24,0c7.16,2.22,9.67,3.93,13.31,4.44V251A28,28,0,0,1,236.33,241.8Z"/><path class="cls-1" d="M277.16,166.25c0.55,0,1-1,1-2.33a4.8,4.8,0,0,0-.16-1.25c3.31-2.18,8.38-2.18,15.16,7.33l-19.75-1.5a15.7,15.7,0,0,1,2.76-4.27C276.24,165.37,276.65,166.25,277.16,166.25Z"/><path class="cls-2" d="M277.16,166.25c-0.51,0-.92-0.88-1-2a10.1,10.1,0,0,1,1.83-1.56,4.8,4.8,0,0,1,.16,1.25C278.16,165.21,277.71,166.25,277.16,166.25Z"/><path class="cls-3" d="M278,162.67c3.31-2.18,8.38-2.18,15.16,7.33l-19.75-1.5a15.7,15.7,0,0,1,2.76-4.27A10.1,10.1,0,0,1,278,162.67Z"/><path class="cls-3" d="M354.91,377H344.82A27.66,27.66,0,0,1,354.91,377Z"/><path class="cls-4" d="M344.82,377h10.09s15.33,17.25,0,16.58l-7-5.46s7.67,5.94,2,8.27-43.6-6.11-43.6-6.11C309.36,379.55,331.5,377,344.82,377Z"/><path class="cls-5" d="M278.16,370c7.41-10.07,5-15.13,1.52-17.64,40.65-9.4,49.24-41.21,49.56-65.33,7.82,3.32,45.81,22.57-3.14,65.47L322,360s23,5.25,33,16.75a32.3,32.3,0,0,0-10.09.25c-13.32,0-35.46,2.76-38.51,13.5l1.6-13.5-1.6,13.25S264.91,388,278.16,370Z"/><path class="cls-6" d="M261.27,262.16c10.33-3.2,14.29-2.45,24,0s11.57,0.24,27.57-3.43a31.81,31.81,0,0,1,13.27,0A117.05,117.05,0,0,1,329.25,287c-0.32,24.12-8.87,55.93-49.52,65.33A123.24,123.24,0,0,1,248,355V266.6C252,266.08,254.11,264.37,261.27,262.16Z"/><path class="cls-7" d="M268,181.49s-0.09,11.17-.75,24c-0.26,5.15-.64,10.57-1.12,15.62a57.75,57.75,0,0,0,39.58-54.82A59.25,59.25,0,0,0,301.6,145h-0.08c-2.35-7-10.86-19.34-10.86-19.34,7-8,21.87-11.56,31.3-13,0.47-1.63.7-2.61,0.7-2.61-24.14-3.5-35.65,6-39.58,10.42A57.83,57.83,0,0,0,248,108.5V172S265,175.49,268,181.49ZM293.16,170l-19.75-1.5a15.7,15.7,0,0,1,2.76-4.27,10.1,10.1,0,0,1,1.83-1.56C281.31,160.49,286.39,160.49,293.16,170Z"/><path class="cls-8" d="M268,181.49s-0.09,11.17-.75,24c-0.26,5.15-.64,10.57-1.12,15.62-0.94,9.72-2.32,18.11-4.45,20.73A27.93,27.93,0,0,1,248,251V172S265,175.49,268,181.49Z"/><path class="cls-9" d="M290.66,125.66c7-8,21.87-11.56,31.3-13-2.09,7.28-8.86,27.63-20.43,32.18a0.66,0.66,0,0,0,.08.21h-0.08C299.17,138,290.66,125.66,290.66,125.66Z"/><path class="cls-4" d="M261.62,241.8c2.13-2.62,3.53-11,4.47-20.73a57.91,57.91,0,0,0,32.8-27.67L301,198.6,349,174.49a12.59,12.59,0,0,0,6.19-14.11l-14.51-50.77a9.51,9.51,0,0,1-.33-1.8l-1.2-.42a6.29,6.29,0,0,1-4-6.59l0-.11c0.41-2.72,1.19-3.71,1.74-2.19s2.65,3.25,4.85,4.2a7.05,7.05,0,0,1,3.84-2.41,5.42,5.42,0,0,0-.07-0.71l-0.24-1.34a43.16,43.16,0,0,0-3.07-9.42l-2.11-4.33c-1.21-2.47-.6-2.9,1.34-1l2.93,2.93a31.3,31.3,0,0,1,5.52,8.13l1.54,3.57c0.5,1.15,1,1.76,1.33,1.84h0.16c0.35-.08.58-0.74,0.62-2a94.65,94.65,0,0,0-.36-9.69L352.65,83c-0.27-2.74.6-3,1.93-.6l3,5.25A23,23,0,0,1,360,97v1c0,1.28.29,2.1,0.85,2.4l0.42,0.13a2.89,2.89,0,0,0,2.09-1.17L364.62,98a12,12,0,0,0,2.78-8.59l-0.56-4.2c-0.36-2.73.37-3,1.62-.5L371,89.61a13.33,13.33,0,0,1,.59,9.17l-2.76,7.76a11.26,11.26,0,0,1,1.3,3.23l15.66,70.48A13.51,13.51,0,0,1,379,194.47l-65.73,32.87c1.91,4.37,3.57,8,4.68,10.24a136.8,136.8,0,0,1,8,20.38s0.07,0.26.19,0.75a31.84,31.84,0,0,0-13.28,0c-16,3.67-17.88,5.89-27.58,3.43s-13.64-3.22-24,0c-7.16,2.22-9.27,3.93-13.27,4.44V251A27.93,27.93,0,0,0,261.62,241.8Z"/><path class="cls-10" d="M385.74,180.24l-15.66-70.48a11.27,11.27,0,0,0-1.3-3.23l2.76-7.76a13.33,13.33,0,0,0-.59-9.17l-2.49-4.89c-1.25-2.45-2-2.22-1.62.5l0.56,4.2A12,12,0,0,1,364.62,98l-1.27,1.35a2.89,2.89,0,0,1-2.09,1.17l-0.42-.13c-0.55-.3-0.85-1.12-0.85-2.4V97a23,23,0,0,0-2.47-9.37l-3-5.25c-1.33-2.41-2.2-2.14-1.93.6l0.53,5.36a94.65,94.65,0,0,1,.36,9.69c0,1.23-.27,1.89-0.62,2h-0.16c-0.37-.08-0.83-0.69-1.33-1.84l-1.54-3.57a31.3,31.3,0,0,0-5.52-8.13l-2.93-2.93c-1.94-1.94-2.55-1.51-1.34,1l2.11,4.33a43.16,43.16,0,0,1,3.07,9.42l0.24,1.34a5.42,5.42,0,0,1,.07.71,7.05,7.05,0,0,0-3.84,2.41c-2.2-1-4.33-2.77-4.85-4.2s-1.33-.52-1.74,2.19l0,0.11a6.29,6.29,0,0,0,4,6.59l1.2,0.42a9.49,9.49,0,0,0,.33,1.8l14.51,50.77A12.59,12.59,0,0,1,349,174.49L301,198.6l-2.15-5.19a57.91,57.91,0,0,1-32.8,27.67,113.37,113.37,0,0,1-2.31,15.34,114.36,114.36,0,0,0,2.29-15.34,57.75,57.75,0,0,0,39.58-54.82A59.25,59.25,0,0,0,301.6,145a0.66,0.66,0,0,1-.08-0.21c11.57-4.55,18.35-24.9,20.43-32.18,0.47-1.63.7-2.61,0.7-2.61-24.14-3.5-35.65,6-39.58,10.42A57.83,57.83,0,0,0,248,108.5V355a123.27,123.27,0,0,0,31.69-2.63c3.52,2.51,5.88,7.57-1.53,17.63-13.25,18,28.15,20.25,28.15,20.25l1.6-13.25-1.56,13.17,0,0.11h0l0,0.21c0-.07,0-0.13.07-0.2,1.47,0.33,38,8.39,43.53,6.1s-2-8.27-2-8.27l7,5.46c15.33,0.67,0-16.58,0-16.58a27.66,27.66,0,0,0-10.09,0,32.3,32.3,0,0,1,10.09-.25c-10-11.5-33-16.75-33-16.75l4-7.5c48.94-42.9,11-62.14,3-65.47h0a131,131,0,0,0-2.89-28h0c-0.12-1-.19-0.89-0.19-0.89a136,136,0,0,0-8-20.45c-1.1-2.21-2.77-5.91-4.68-10.28L379,194.49A13.53,13.53,0,0,0,385.74,180.24ZM272.18,260a39.74,39.74,0,0,0-10.92,2.12A39.7,39.7,0,0,1,272.18,260Zm47.46-2a29.32,29.32,0,0,0-6.81.72c-11.5,2.64-15.7,4.53-20.76,4.47,5.05,0.06,9.26-1.83,20.74-4.47A29.33,29.33,0,0,1,319.64,258Z"/><path class="cls-6" d="M171.25,465.94V465h5.63v1.88h1.88v1.88h1.88v5.63h-1.87v1.88h-1.87v1.88h-5.62v-1.87h-1.87v-1.87H167.5v-5.62h1.88v-1.87h1.88v-0.94Zm3.75,1.88v-0.94h-3.75v7.5h1.88v1.88h3.75v-7.5H175v-0.94Z"/><path class="cls-6" d="M184.38,465.94V465h9.38v1.88h1.88v7.5h-1.87v1.88h-1.87v1.88h-7.5v-1.87H190v-1.87h1.88V472.5h-7.5v-1.87H182.5v-3.75h1.88v-0.94Zm7.5,2.81v-1.87h-5.62v3.75h5.63v-1.87Z"/><path class="cls-6" d="M201.25,465.94V465h7.5v1.88h-5.62v1.88h-1.87v1.88h7.5v1.88h1.88v3.75h-1.87v1.88h-9.37v-1.87H197.5v-7.5h1.88v-1.87h1.88v-0.94Zm5.63,8.44V472.5h-5.62v3.75h5.63v-1.87Z"/><path class="cls-6" d="M227.5,471.56V465h9.38v1.88h1.88v1.88h1.88v5.63h-1.87v1.88h-1.87v1.88H227.5v-6.56Zm7.5-3.75v-0.94h-3.75v9.38H235v-1.87h1.88v-5.62H235v-0.94Z"/><path class="cls-6" d="M242.5,471.56V465h11.25v1.88h1.88v5.63h-3.75v1.88h1.88v1.88h1.88v1.88H250v-1.87h-1.87v-1.87h-1.87v3.75H242.5v-6.56Zm9.38-2.81v-1.87h-5.62v5.63H250v-1.87h1.88v-1.87Z"/><path class="cls-6" d="M259.38,465.94V465h9.38v1.88h1.88v9.38h-1.87v1.88h-9.37v-1.87H257.5v-9.37h1.88v-0.94Zm7.5,5.63v-4.69h-5.62v9.38h5.63v-4.69Z"/><path class="cls-6" d="M272.5,471.56V465h3.75v5.63h1.88v-1.87H280v1.88h1.88V465h3.75v13.13h-3.75v-1.87H280v-1.87h-1.87v1.88h-1.87v1.88H272.5v-6.56Z"/><path class="cls-6" d="M287.5,465.94V465h13.13v3.75h-1.87v1.88h-1.87v1.88H295v1.88h-1.87v1.88h7.5v1.88H287.5v-3.75h1.88V472.5h1.88v-1.87h1.88v-1.87H295v-1.87h-7.5v-0.94Z"/><path class="cls-6" d="M302.5,471.56V465h13.13v1.88h-9.37v3.75h7.5v1.88h-7.5v3.75h9.38v1.88H302.5v-6.56Z"/><path class="cls-6" d="M317.5,471.56V465h13.13v1.88h-9.37v3.75h7.5v1.88h-7.5v3.75h9.38v1.88H317.5v-6.56Z"/></svg>