<?xml version="1.0" ?><svg id="pkft" viewBox="0 0 500 500" xmlns="http://www.w3.org/2000/svg"><defs><style>.cls-1,.cls-13{fill:#1a1a1a;}.cls-2{fill:none;}.cls-3{fill:#d9fcf5;}.cls-4{fill:#fff;}.cls-5{fill:#ffe317;}.cls-6{fill:#ceefe8;}.cls-7{fill:#fcd949;}.cls-8{fill:#ffde3e;}.cls-9{fill:#f9d503;}.cls-10{fill:#754c24;}.cls-11{fill:#b3b3b3;}.cls-12{fill:#ccc;}.cls-13{opacity:0.1;}.cls-14{fill:#edc603;}</style></defs><title/><path class="cls-1" d="M229.75,193.85c0.83,0,1.25-1.72,1.25-3.85h0c0-1-1.19-1.77-2.24-2.36a7.87,7.87,0,0,0-.39,2.36C228.38,192.13,228.92,193.85,229.75,193.85Z"/><path class="cls-1" d="M228.25,190c0,2.13.67,3.85,1.5,3.85-0.83,0-1.37-1.72-1.37-3.85a7.87,7.87,0,0,1,.39-2.36l-0.16-.09A8.07,8.07,0,0,0,228.25,190Z"/><path class="cls-2" d="M228.76,187.64l0-.09c-3.29-1.79-8.49-1.13-16.82,5.12,0,0,17.77,2.67,22.1,10.33,0,0,.93-8.24-3.07-13C231,189,229.81,188.22,228.76,187.64Z"/><path class="cls-2" d="M234.07,203s0.93-8.24-3.07-13c0-1-1.19-1.77-2.24-2.36l0-.09c-2.58-1.4-6.34-1.29-11.85,1.83l2.6,5C224.93,196,231.63,198.68,234.07,203Z"/><path class="cls-3" d="M226.77,225.1c0,0.14,0,.26,0,0.38C226.76,225.36,226.76,225.24,226.77,225.1Z"/><path class="cls-3" d="M226.76,226c0-.12,0-0.26,0-0.41C226.75,225.74,226.75,225.88,226.76,226Z"/><path class="cls-3" d="M227.13,222.58l0,0.17Z"/><path class="cls-3" d="M226.9,223.95c-0.06.42-.1,0.79-0.13,1.13C226.8,224.74,226.84,224.36,226.9,223.95Z"/><path class="cls-3" d="M227,223.29c0,0.15,0,.29-0.07.44C227,223.58,227,223.44,227,223.29Z"/><path class="cls-4" d="M231,190h0c0,2.13-.42,3.85-1.25,3.85s-1.5-1.72-1.5-3.85a8.07,8.07,0,0,1,.35-2.45l0.16,0.09,0-.09c-2.75-1.5-6.84-1.27-13,2.49l-0.14.08-1,.66-0.46.31-0.82.56c-0.45.32-.92,0.65-1.39,1l0.11,0h0.06l0.09,0,0.13,0,0.12,0,0.18,0,0.14,0,0.24,0,0.16,0,0.29,0.05,0.19,0,0.52,0.1h0l0.57,0.12,0.2,0,0.43,0.09,0.27,0.06,0.42,0.1,0.3,0.07,0.43,0.1,0.31,0.08,0.47,0.12,0.31,0.08,0.54,0.15,0.26,0.07c5.51,1.52,12.78,4.3,15.35,8.84C234.07,203,235,194.76,231,190Z"/><path class="cls-5" d="M194.05,254.11l-0.23.05c-0.27,1.77-.59,3.81-1,6l2.27-4.73C195.61,254.46,195.12,253.86,194.05,254.11Z"/><path class="cls-6" d="M192.86,260.2a1.58,1.58,0,0,0-.16.92l0.16-.93h0Z"/><path class="cls-7" d="M250,202h-0.24s-9.25.13-13.75,1.63c-2.24.75-4.6,5.3-6.38,10.17a61,61,0,0,0-2.5,8.78l0,0.17c0,0.18-.07.37-0.1,0.54s0,0.29-.07.44l0,0.22c-0.06.42-.1,0.79-0.13,1.13v0c0,0.14,0,.26,0,0.38s0,0.07,0,.1,0,0.29,0,.41c0.1,1.59,1.84,5.56,4.16,10,3.51,6.64,8.35,14.24,10.93,16a8.19,8.19,0,0,0,8.16,1s-0.1-15.33,0-15.33V202Z"/><path class="cls-8" d="M236,203.63c4.5-1.5,13.75-1.62,13.75-1.62h0.13v-0.25s-9.3.25-13.83,1.75c-2.26.75-4.64,5.36-6.43,10.29h0C231.41,208.92,233.77,204.37,236,203.63Z"/><path class="cls-8" d="M227.1,222.74c0,0.18-.07.37-0.1,0.54C227,223.11,227.07,222.93,227.1,222.74Z"/><path class="cls-8" d="M226.77,225.08v0Z"/><path class="cls-8" d="M226.75,225.59s0-.07,0-0.1S226.75,225.56,226.75,225.59Z"/><path class="cls-8" d="M226.94,223.72l0,0.22Z"/><path class="cls-8" d="M229.63,213.8h0a61.49,61.49,0,0,0-2.49,8.79A61,61,0,0,1,229.63,213.8Z"/><path class="cls-6" d="M167.1,228.61a1,1,0,0,0,.53,1.79l4.41,0.88a1.86,1.86,0,0,1,.4.13l-4.09-4Z"/><path class="cls-9" d="M172.44,231.4l0.64,0.63A1.17,1.17,0,0,0,172.44,231.4Z"/><path class="cls-2" d="M228.79,187.55c-2.58-1.4-6.34-1.29-11.85,1.83a46.32,46.32,0,0,0-5,3.29,64.9,64.9,0,0,1,7.58,1.72c5.39,1.56,12.08,4.29,14.52,8.61,0,0,.93-8.24-3.07-13,0-1-1.19-1.77-2.24-2.36Z"/><path class="cls-10" d="M203.75,153.25c7.5-9.25,25.88-20.75,25.88-20.75s-5.07-8.29-11.31-17.81L200,130.79C201.93,143.13,203.75,153.25,203.75,153.25Z"/><path class="cls-10" d="M195.75,87c-0.42.66-.58,2.4-0.53,4.9L198.57,88C197.18,86.75,196.19,86.32,195.75,87Z"/><path class="cls-5" d="M195.75,87c0.44-.68,1.43-0.25,2.82,1l3.08-3.61c-9.79-8.08-9.32-3.17-9.65.29-0.07.77,0.27,4.56,0.85,10l2.37-2.77C195.17,89.4,195.33,87.66,195.75,87Z"/><path class="cls-5" d="M229.63,132.5s-18.37,11.5-25.87,20.75c0,0-1.82-10.12-3.78-22.46l-2.6,2.28C198.82,145,200,154.33,200,154.33s-0.3,1.32-.7,3.61c-2.51,14.4-8.88,67.55,31.59,78-2.31-4.39-4-8.36-4.13-10,0-.12,0-0.26,0-0.41s0-.07,0-0.1,0-.24,0-0.38v0c0-.34.07-0.72,0.13-1.13l0-.22c0-.14,0-0.29.07-0.44s0.06-.36.1-0.54l0-.17a61.49,61.49,0,0,1,2.49-8.79c1.79-4.93,4.17-9.54,6.43-10.29,4.52-1.5,13.83-1.75,13.83-1.75V202H250V124.33a48.52,48.52,0,0,0-11.35,1.7c-2.43-3.41-7.78-10-13.81-17.07l-6.52,5.72C224.55,124.21,229.63,132.5,229.63,132.5ZM231,190c4,4.77,3.07,13,3.07,13-2.44-4.32-9.14-7-14.52-8.61a64.9,64.9,0,0,0-7.58-1.72,46.32,46.32,0,0,1,5-3.29c5.51-3.12,9.27-3.23,11.85-1.83l0,0.09C229.81,188.22,231,189,231,190Z"/><path class="cls-5" d="M250,280.16V276h-4v1.95a0.89,0.89,0,0,1,.17.09l-1.93,2.87a1.29,1.29,0,0,1-2.27,0l-1.29-1.84a7.42,7.42,0,0,0,5.32,9.76V290h4v-9.84Z"/><path class="cls-6" d="M244.37,280.91l2.05-2.87a1.25,1.25,0,0,1,2.21,0l0.36,0.56,1,1.54v-9.35a9.35,9.35,0,0,0-9.28,8.27l1.32,1.84A1.35,1.35,0,0,0,244.37,280.91Z"/><path class="cls-6" d="M194,262.21l4,0.42a1.13,1.13,0,0,1,.9,1.89l-1.49,2.31c-0.6.92-.19,1.6,0.91,1.5l7.18-.64a1.43,1.43,0,0,1,1.61,1.79l-0.24,1.24a1.14,1.14,0,0,0,1.55,1.42l5.65-1.59a1.13,1.13,0,0,1,1.53,1.42l-1,5.24c-0.22,1.08.37,1.49,1.31,0.91l5.5-3.4a1.41,1.41,0,0,1,2.22.88l1.9,7.14c0.28,1.06,1,1.2,1.69.31l4.16-5.76a1.34,1.34,0,0,1,.75-0.58A18.25,18.25,0,0,1,250,261.91V253a8.19,8.19,0,0,1-8.16-1c-2.57-1.81-7.42-9.41-10.93-16-2.32-4.39-4.06-8.36-4.16-10,0.1,1.59,1.83,5.56,4.13,10-40.48-10.47-34.11-63.61-31.59-78l-1.72-1.27c-0.89-.65-1.42-0.29-1.2.78l0.39,1.91a1,1,0,0,1-1.44,1.29,1.11,1.11,0,0,0-1.58,1.32l0.17,1.36A1.39,1.39,0,0,1,192.2,165l-1.73-.3a1,1,0,0,0-1.21,1.5l0.81,2c0.42,1-.12,1.65-1.19,1.4l-1.93-.44a1,1,0,0,0-1.22,1.42l1.54,3.94c0.4,1-.14,1.63-1.21,1.35l-2.47-.65a1.26,1.26,0,0,0-1.69,1.48l0.35,2.86c0.13,1.09-.46,1.43-1.32.74l-1.7-1.35c-0.86-.68-1.26-0.4-0.89.64l2,5.57A1.32,1.32,0,0,1,179,187h-1.5c-1.1,0-1.47.73-.82,1.62l3.48,4.77c0.65,0.89.29,1.48-.8,1.32l-3.88-.57a1,1,0,0,0-1.17,1.54l1.39,3.16c0.44,1,0,1.55-1.09,1.2l-0.71-.24c-0.83-.28-1.19,0-1,0.5a2,2,0,0,0,.27.48l0.46,0.62a1.93,1.93,0,0,1-.46,2.74l-1.54,1.06a1.2,1.2,0,0,0,.06,2.18l0.42,0.25a1,1,0,0,1-.07,2s-4.39,2.25-4.89,2.59,3.44,2.65,3.44,2.65a1.24,1.24,0,0,1,.12,2.21l-3.47,2.6a1.15,1.15,0,0,0,.18,2.11l2.61,1.34a1.35,1.35,0,0,1,.35,2.31l-2.05,2,4.09,4a1.17,1.17,0,0,1,.64.63,1.32,1.32,0,0,1-.25,1.26l-3.66,5.09c-0.64.89-.27,1.62,0.83,1.62h3.17a1.46,1.46,0,0,1,1.48,1.93l-0.8,3a1,1,0,0,0,1.4,1.36l2.84-.85c1.05-.32,1.52.23,1,1.22l-1.25,2.57a1,1,0,0,0,1.11,1.59l5.52-.58a1.22,1.22,0,0,1,1.39,1.7l-0.8,2.52a1,1,0,0,0,1.35,1.45l7.38-1.72,0.23-.05c1.07-.25,1.56.36,1.08,1.35l-2.27,4.73-0.16.93A1.32,1.32,0,0,0,194,262.21Z"/><path class="cls-11" d="M249,294.73v3.63c0.33,0,.66.05,1,0.05v-3.62C249.66,294.78,249.33,294.76,249,294.73Z"/><path class="cls-12" d="M249,289.46v2.32c0.33,0,.66.05,1,0.05v-2.32A9.46,9.46,0,0,1,249,289.46Z"/><path class="cls-12" d="M249,291.78v3c0.33,0,.66.05,1,0.05v-3C249.66,291.83,249.33,291.81,249,291.78Z"/><path class="cls-12" d="M235.38,280.16A14.63,14.63,0,0,0,249,294.73v-5.28a9.35,9.35,0,0,1,1-18.65v-5.27A14.63,14.63,0,0,0,235.38,280.16Z"/><path class="cls-11" d="M248,262.06a18.22,18.22,0,0,0,1,36.3v-3.62a14.62,14.62,0,0,1,1-29.2v-3.62s0,0,0,0V94.5a12.64,12.64,0,0,1-2,6.76v160.8Z"/><path class="cls-11" d="M250,261.91h0S250,261.91,250,261.91Z"/><path class="cls-9" d="M238,50H222a12,12,0,0,0-12,12V74.59l-8.35,9.78L198.57,88l-3.35,3.92-2.37,2.77L126.49,172.4a10.9,10.9,0,0,0,.65,14.61l41.21,40.39,2.05-2a1.35,1.35,0,0,0-.35-2.31l-2.61-1.34a1.15,1.15,0,0,1-.18-2.11l3.47-2.6a1.24,1.24,0,0,0-.12-2.21s-3.94-2.32-3.44-2.65,4.89-2.59,4.89-2.59a1,1,0,0,0,.07-2l-0.42-.25a1.2,1.2,0,0,1-.06-2.18l1.54-1.06a1.93,1.93,0,0,0,.46-2.74l-0.46-.62a2,2,0,0,1-.27-0.48l-16.25-18.18a9.94,9.94,0,0,1,.84-14.07l39.86-35,2.6-2.28,18.35-16.1,6.52-5.72,2.4-2.1a0.48,0.48,0,0,1,.12.14H238a12,12,0,0,0,10-5.74,12.64,12.64,0,0,0,2-6.76V62A12,12,0,0,0,238,50Z"/><path class="cls-5" d="M249,298.36a18.19,18.19,0,0,1-16.92-21.64,1.34,1.34,0,0,0-.75.58L227.17,283c-0.64.89-1.4,0.75-1.69-.31l-1.9-7.14a1.41,1.41,0,0,0-2.22-.88l-5.5,3.4c-0.94.58-1.52,0.17-1.31-.91l1-5.24a1.13,1.13,0,0,0-1.53-1.42l-5.65,1.59a1.14,1.14,0,0,1-1.55-1.42l0.24-1.24a1.43,1.43,0,0,0-1.61-1.79l-7.18.64c-1.1.1-1.5-.58-0.91-1.5l1.49-2.31a1.13,1.13,0,0,0-.9-1.89l-4-.42a1.32,1.32,0,0,1-1.28-1.09c-2.33,13.45-6.64,32.72-12.92,39-10,10-44.39,32.44-46.39,39.94s-3.44,22.47.06,33,19,27,19,27-15.49,16-19,23-9.49,14,0,14,56,2.5,58.49,0,12.51-13.5,13.51-24S193,382.5,192,374s28.83-34,35.95-34S249,336.5,249,336.5l1-.5V298.41Z"/><path class="cls-1" d="M270.25,193.85c-0.83,0-1.25-1.72-1.25-3.85h0c0-1,1.19-1.77,2.23-2.36a7.87,7.87,0,0,1,.39,2.36C271.62,192.13,271.08,193.85,270.25,193.85Z"/><path class="cls-1" d="M271.74,190c0,2.13-.67,3.85-1.5,3.85,0.83,0,1.38-1.72,1.38-3.85a7.87,7.87,0,0,0-.39-2.36l0.16-.09A8.07,8.07,0,0,1,271.74,190Z"/><path class="cls-2" d="M271.23,187.64l0-.09c3.29-1.79,8.49-1.13,16.82,5.12,0,0-17.77,2.67-22.1,10.33,0,0-.93-8.24,3.07-13C269,189,270.19,188.22,271.23,187.64Z"/><path class="cls-2" d="M265.93,203S265,194.76,269,190c0-1,1.19-1.77,2.24-2.36l0-.09c2.58-1.4,6.34-1.29,11.85,1.83l-2.6,5C275.06,196,268.37,198.68,265.93,203Z"/><path class="cls-3" d="M273.22,225.1c0,0.14,0,.26,0,0.38C273.24,225.36,273.23,225.24,273.22,225.1Z"/><path class="cls-3" d="M273.24,226c0-.12,0-0.26,0-0.41C273.25,225.74,273.24,225.88,273.24,226Z"/><path class="cls-3" d="M272.86,222.58l0,0.17Z"/><path class="cls-3" d="M273.09,223.95c0.06,0.42.1,0.79,0.13,1.13C273.2,224.74,273.15,224.36,273.09,223.95Z"/><path class="cls-3" d="M273,223.29c0,0.15,0,.29.07,0.44C273,223.58,273,223.44,273,223.29Z"/><path class="cls-4" d="M269,190h0c0,2.13.42,3.85,1.25,3.85s1.5-1.72,1.5-3.85a8.07,8.07,0,0,0-.35-2.45l-0.16.09,0-.09c2.75-1.5,6.84-1.27,13,2.49l0.14,0.08,1,0.66,0.46,0.31,0.82,0.56c0.45,0.32.92,0.65,1.39,1l-0.11,0h-0.06l-0.09,0-0.13,0-0.12,0-0.18,0-0.14,0-0.24,0-0.16,0-0.29.05-0.19,0-0.52.1h0l-0.57.12-0.2,0-0.43.09-0.27.06-0.42.1-0.3.07-0.43.1-0.31.08-0.47.12-0.31.08-0.54.15-0.26.07c-5.51,1.52-12.78,4.3-15.35,8.84C265.93,203,265,194.76,269,190Z"/><path class="cls-5" d="M305.94,254.11l0.23,0.05c0.27,1.77.59,3.81,1,6l-2.27-4.73C304.38,254.46,304.87,253.86,305.94,254.11Z"/><path class="cls-6" d="M307.14,260.2a1.58,1.58,0,0,1,.16.92l-0.16-.93h0Z"/><path class="cls-7" d="M250,202h0.24s9.25,0.13,13.75,1.63c2.24,0.75,4.6,5.3,6.38,10.17a61,61,0,0,1,2.5,8.78l0,0.17c0,0.18.07,0.37,0.1,0.54s0,0.29.07,0.44l0,0.22c0.06,0.42.1,0.79,0.13,1.13v0c0,0.14,0,.26,0,0.38s0,0.07,0,.1,0,0.29,0,.41c-0.1,1.59-1.84,5.56-4.16,10-3.51,6.64-8.35,14.24-10.93,16a8.18,8.18,0,0,1-8.16,1V202Z"/><path class="cls-8" d="M264,203.63c-4.5-1.5-13.75-1.62-13.75-1.62h-0.13v-0.25s9.3,0.25,13.83,1.75c2.26,0.75,4.64,5.36,6.43,10.29h0C268.59,208.92,266.22,204.37,264,203.63Z"/><path class="cls-8" d="M272.89,222.74c0,0.18.07,0.37,0.1,0.54C273,223.11,272.92,222.93,272.89,222.74Z"/><path class="cls-8" d="M273.22,225.08v0Z"/><path class="cls-8" d="M273.24,225.59s0-.07,0-0.1S273.24,225.56,273.24,225.59Z"/><path class="cls-8" d="M273.06,223.72l0,0.22Z"/><path class="cls-8" d="M270.36,213.8h0a61.49,61.49,0,0,1,2.49,8.79A61,61,0,0,0,270.36,213.8Z"/><path class="cls-6" d="M332.89,228.61a1,1,0,0,1-.53,1.79l-4.41.88a1.86,1.86,0,0,0-.4.13l4.09-4Z"/><path class="cls-9" d="M327.56,231.4l-0.64.63A1.17,1.17,0,0,1,327.56,231.4Z"/><path class="cls-2" d="M271.2,187.55c2.58-1.4,6.34-1.29,11.85,1.83a46.32,46.32,0,0,1,5,3.29,64.9,64.9,0,0,0-7.58,1.72c-5.39,1.56-12.08,4.29-14.52,8.61,0,0-.93-8.24,3.07-13,0-1,1.19-1.77,2.24-2.36Z"/><path class="cls-10" d="M296.24,153.25c-7.5-9.25-25.87-20.75-25.87-20.75s5.07-8.29,11.31-17.81L300,130.79C298.07,143.13,296.24,153.25,296.24,153.25Z"/><path class="cls-10" d="M304.24,87c0.42,0.66.58,2.4,0.53,4.9L301.43,88C302.81,86.75,303.81,86.32,304.24,87Z"/><path class="cls-5" d="M304.24,87c-0.44-.68-1.43-0.25-2.82,1l-3.08-3.61c9.79-8.08,9.32-3.17,9.65.29,0.07,0.77-.27,4.56-0.85,10l-2.37-2.77C304.82,89.4,304.67,87.66,304.24,87Z"/><path class="cls-5" d="M281.68,114.69L275.16,109c-6,7.06-11.38,13.66-13.81,17.07a48.51,48.51,0,0,0-11.35-1.7V202h0.11v-0.25s9.3,0.25,13.83,1.75c2.26,0.75,4.64,5.36,6.43,10.29a61.49,61.49,0,0,1,2.49,8.79l0,0.17c0,0.18.07,0.37,0.1,0.54s0,0.29.07,0.44l0,0.22c0.06,0.42.1,0.79,0.13,1.13v0c0,0.14,0,.26,0,0.38s0,0.07,0,.1,0,0.29,0,.41c-0.1,1.59-1.83,5.56-4.13,10,40.48-10.47,34.11-63.61,31.59-78-0.4-2.29-.7-3.61-0.7-3.61s1.18-9.38,2.64-21.26l-2.6-2.28c-2,12.34-3.78,22.46-3.78,22.46-7.5-9.25-25.87-20.75-25.87-20.75S275.44,124.21,281.68,114.69Zm-10.45,73,0-.09c2.58-1.4,6.34-1.29,11.85,1.83a46.32,46.32,0,0,1,5,3.29,64.9,64.9,0,0,0-7.58,1.72c-5.39,1.56-12.08,4.29-14.52,8.61,0,0-.93-8.24,3.07-13C269,189,270.19,188.22,271.23,187.64Z"/><path class="cls-5" d="M250,280.16V276h4v1.95a0.92,0.92,0,0,0-.17.09l1.92,2.87a1.29,1.29,0,0,0,2.27,0l1.29-1.84a10,10,0,0,1,.3,1.08,9.85,9.85,0,0,1-5.62,8.67V290h-4v-9.84Z"/><path class="cls-6" d="M255.62,280.91L253.57,278a1.25,1.25,0,0,0-2.21,0l-0.36.56-1,1.54v-9.35a9.2,9.2,0,0,1,9.28,8.27L258,280.92A1.35,1.35,0,0,1,255.62,280.91Z"/><path class="cls-6" d="M306,262.21l-4,.42a1.13,1.13,0,0,0-.9,1.89l1.49,2.31c0.6,0.92.19,1.6-.91,1.5l-7.18-.64a1.43,1.43,0,0,0-1.61,1.79l0.24,1.24a1.14,1.14,0,0,1-1.55,1.42l-5.65-1.59a1.13,1.13,0,0,0-1.53,1.42l1,5.24c0.22,1.08-.37,1.49-1.31.91l-5.5-3.4a1.41,1.41,0,0,0-2.22.88l-1.9,7.14c-0.28,1.06-1,1.2-1.69.31l-4.16-5.76a1.33,1.33,0,0,0-.75-0.58A18.17,18.17,0,0,0,250,261.91V253a8.18,8.18,0,0,0,8.16-1c2.57-1.81,7.42-9.41,10.93-16,2.32-4.39,4.05-8.36,4.15-10-0.1,1.59-1.83,5.56-4.13,10,40.48-10.47,34.11-63.61,31.59-78l1.72-1.27c0.89-.65,1.42-0.29,1.2.78l-0.39,1.91a1,1,0,0,0,1.44,1.29,1.11,1.11,0,0,1,1.58,1.32l-0.17,1.36A1.39,1.39,0,0,0,307.8,165l1.73-.3a1,1,0,0,1,1.21,1.5l-0.81,2c-0.42,1,.12,1.65,1.19,1.4l1.93-.44a1,1,0,0,1,1.22,1.42l-1.54,3.94c-0.4,1,.14,1.63,1.21,1.35l2.47-.65a1.26,1.26,0,0,1,1.69,1.48l-0.35,2.86c-0.13,1.09.46,1.43,1.32,0.74l1.7-1.35c0.86-.68,1.26-0.4.89,0.64l-2,5.57A1.32,1.32,0,0,0,321,187h1.5c1.1,0,1.47.73,0.82,1.62l-3.48,4.77c-0.65.89-.29,1.48,0.8,1.32l3.88-.57a1,1,0,0,1,1.17,1.54l-1.39,3.16c-0.44,1,0,1.55,1.09,1.2l0.71-.24c0.83-.28,1.19,0,1,0.5a2,2,0,0,1-.27.48l-0.46.62a1.93,1.93,0,0,0,.46,2.74l1.54,1.06a1.2,1.2,0,0,1-.06,2.18l-0.42.25a1,1,0,0,0,.07,2s4.39,2.25,4.89,2.59-3.44,2.65-3.44,2.65a1.24,1.24,0,0,0-.12,2.21l3.47,2.6a1.15,1.15,0,0,1-.18,2.11l-2.61,1.34a1.35,1.35,0,0,0-.35,2.31l2.05,2-4.09,4a1.17,1.17,0,0,0-.64.63,1.32,1.32,0,0,0,.25,1.26l3.66,5.09c0.64,0.89.27,1.62-.83,1.62h-3.17a1.46,1.46,0,0,0-1.48,1.93l0.8,3a1,1,0,0,1-1.4,1.36l-2.84-.85c-1.05-.32-1.52.23-1,1.22l1.25,2.57a1,1,0,0,1-1.11,1.59l-5.52-.58a1.22,1.22,0,0,0-1.39,1.7l0.8,2.52a1,1,0,0,1-1.35,1.45l-7.38-1.72-0.23-.05c-1.07-.25-1.56.36-1.08,1.35l2.27,4.73,0.16,0.93A1.32,1.32,0,0,1,306,262.21Z"/><path class="cls-11" d="M251,294.73v3.63s-1,.05-1,0.05v-3.62S251,294.76,251,294.73Z"/><path class="cls-12" d="M251,289.46v2.32s-1,.05-1,0.05v-2.32A9.6,9.6,0,0,0,251,289.46Z"/><path class="cls-12" d="M251,291.78v3s-1,.05-1,0.05v-3S251,291.81,251,291.78Z"/><path class="cls-12" d="M264.62,280.16a14.65,14.65,0,0,1-.34,3.13A14.19,14.19,0,0,1,251,294.73v-5.28a9.11,9.11,0,0,0,8.35-9.3,9.44,9.44,0,0,0-.07-1.08,9.2,9.2,0,0,0-9.28-8.27v-5.27A14.67,14.67,0,0,1,264.62,280.16Z"/><path class="cls-11" d="M252,262.06a18.67,18.67,0,0,1,16.19,18.1A17.91,17.91,0,0,1,251,298.36v-3.62a14.19,14.19,0,0,0,13.28-11.44A14.6,14.6,0,0,0,250,265.53v-3.62h0V94.5a15.43,15.43,0,0,0,2,6.76v160.8Z"/><path class="cls-9" d="M262,50h16a12,12,0,0,1,12,12V74.59l8.35,9.78L301.43,88l3.35,3.92,2.37,2.77L373.5,172.4a10.9,10.9,0,0,1-.65,14.61l-41.21,40.39-2.05-2a1.35,1.35,0,0,1,.35-2.31l2.61-1.34a1.15,1.15,0,0,0,.18-2.11l-3.47-2.6a1.24,1.24,0,0,1,.12-2.21s3.94-2.32,3.44-2.65-4.89-2.59-4.89-2.59a1,1,0,0,1-.07-2l0.42-.25a1.2,1.2,0,0,0,.06-2.18l-1.54-1.06a1.93,1.93,0,0,1-.46-2.74l0.46-.62a2,2,0,0,0,.27-0.48l16.25-18.18a9.94,9.94,0,0,0-.84-14.07l-39.86-35-2.6-2.28-18.35-16.1L275.16,109l-2.4-2.1a0.48,0.48,0,0,0-.12.14H262a12,12,0,0,1-10-5.74,12.63,12.63,0,0,1-2-6.76V62A12,12,0,0,1,262,50Z"/><path class="cls-5" d="M251,298.36a18.19,18.19,0,0,0,16.91-21.64,1.34,1.34,0,0,1,.75.58l4.16,5.76c0.64,0.89,1.4.75,1.69-.31l1.9-7.14a1.41,1.41,0,0,1,2.22-.88l5.5,3.4c0.94,0.58,1.52.17,1.31-.91l-1-5.24a1.13,1.13,0,0,1,1.53-1.42l5.65,1.59a1.14,1.14,0,0,0,1.55-1.42l-0.24-1.24a1.43,1.43,0,0,1,1.61-1.79l7.18,0.64c1.1,0.1,1.5-.58.91-1.5l-1.49-2.31a1.13,1.13,0,0,1,.9-1.89l4-.42a1.32,1.32,0,0,0,1.28-1.09c2.33,13.45,6.64,32.72,12.92,39,10,10,44.39,32.44,46.39,39.94s3.44,22.47-.06,33-19,27-19,27,15.49,16,19,23,9.49,14,0,14-56,2.5-58.49,0-12.51-13.5-13.51-24S307,382.5,308,374s-28.83-34-35.95-34S251,336.5,251,336.5l-1-.5V298.41Z"/><path class="cls-13" d="M331.65,227.39L372.85,187a10.9,10.9,0,0,0,.65-14.61L307.14,94.68h0c0.58-5.45.93-9.24,0.85-10-0.33-3.46.15-8.37-9.65-.29L290,74.59V62a12,12,0,0,0-12-12H262a12,12,0,0,0-12,12V237.71c0,0.9,0,15.29,0,15.29h0v8.91h0v3.62a14.67,14.67,0,0,1,14.62,14.63,14.15,14.15,0,0,1-.09,1.59,14.33,14.33,0,0,0,.09-1.59A14.67,14.67,0,0,0,250,265.53V336l1,0.5s13.94,3.5,21.06,3.5S309,365.5,308,374s-14.51,28.5-13.51,39,11,21.5,13.51,24,49,0,58.49,0,3.51-7,0-14-19-23-19-23,15.53-16.48,19-27,2.06-25.47.06-33-36.39-29.94-46.39-39.94c-6.28-6.28-10.59-25.55-12.92-39a1.58,1.58,0,0,0-.16-0.92h0c-0.38-2.22-.7-4.26-1-6l7.38,1.72a1,1,0,0,0,1.35-1.45l-0.8-2.52a1.22,1.22,0,0,1,1.39-1.7l5.52,0.58a1,1,0,0,0,1.11-1.59l-1.25-2.57c-0.48-1,0-1.54,1-1.22l2.84,0.85a1,1,0,0,0,1.4-1.36l-0.8-3a1.46,1.46,0,0,1,1.48-1.93H330c1.1,0,1.47-.73.83-1.62l-3.66-5.09a1.32,1.32,0,0,1-.25-1.26l0.64-.63a1.86,1.86,0,0,1,.4-0.13l4.41-.88a1,1,0,0,0,.53-1.79l-1.25-1.21-2.05-2a1.91,1.91,0,0,1-.25-0.3,1.91,1.91,0,0,0,.25.3Zm-58.54-.65a48.73,48.73,0,0,1-4,9.21c-3.51,6.64-8.35,14.24-10.93,16a8.58,8.58,0,0,1-5.09,1.65,8.58,8.58,0,0,0,5.09-1.65c2.57-1.81,7.42-9.41,10.93-16,2.32-4.39,4.06-8.36,4.16-10A4.73,4.73,0,0,1,273.11,226.75ZM262,107h10.65a0.48,0.48,0,0,1,.12-0.14l2.4,2.1c-6,7.06-11.38,13.66-13.81,17.07a55,55,0,0,0-9.35-1.61V101.26A12,12,0,0,0,262,107Zm-2.71,172.08s0,0,0,0L258,280.92a1.4,1.4,0,0,1-1.18.66,1.46,1.46,0,0,0,1.12-.66l1.33-1.84a9.19,9.19,0,0,0-8.36-8.23A9.19,9.19,0,0,1,259.28,279.08Zm9,1.08a18.15,18.15,0,0,1-1.22,6.52,18.86,18.86,0,0,0,1.16-6.52A18.67,18.67,0,0,0,252,262.06v0a18.16,18.16,0,0,1,15.91,14.69,1.26,1.26,0,0,1,.64.46,1.27,1.27,0,0,0-.64-0.46A18.31,18.31,0,0,1,268.25,280.16Zm8.17-4.56-1.9,7.14a1.07,1.07,0,0,1-.71.89,1.07,1.07,0,0,0,.71-0.89l1.9-7.14a1.39,1.39,0,0,1,1.52-1.14A1.39,1.39,0,0,0,276.41,275.6Zm49-75.57c-1,.35-1.54-0.19-1.09-1.2l1.39-3.16a1,1,0,0,0-1.17-1.54l-3.88.57c-1.09.16-1.45-.44-0.8-1.32l3.48-4.77c0.65-.89.28-1.62-0.82-1.62H321a1.32,1.32,0,0,1-1.33-1.88l2-5.57c0.37-1,0-1.32-.89-0.64l-1.7,1.35c-0.86.68-1.46,0.35-1.32-.74l0.35-2.86a1.26,1.26,0,0,0-1.69-1.48l-2.47.65c-1.06.28-1.61-.33-1.21-1.35l1.54-3.94a1,1,0,0,0-1.22-1.42l-1.93.44c-1.07.25-1.61-.39-1.19-1.4l0.81-2a1,1,0,0,0-1.21-1.5l-1.73.3a1.39,1.39,0,0,1-1.72-1.64l0.17-1.36a1.11,1.11,0,0,0-1.58-1.32,1,1,0,0,1-1.44-1.29l0.39-1.91c0.22-1.08-.31-1.43-1.2-0.78l-1.72,1.27c2.51,14.4,8.88,67.55-31.59,78h0c40.48-10.47,34.11-63.61,31.59-78-0.4-2.29-.7-3.61-0.7-3.61s1.18-9.38,2.64-21.26l39.86,35a9.94,9.94,0,0,1,.84,14.07L327.08,200.3c0.21-.55-0.15-0.78-1-0.5Zm3.71,24.11a1.27,1.27,0,0,0,.07.64A1.27,1.27,0,0,1,329.1,224.14Z"/><path class="cls-14" d="M186.25,465.94V465h5.63v1.88h1.88v1.88h1.88v5.63h-1.87v1.88h-1.87v1.88h-5.62v-1.87h-1.87v-1.87H182.5v-5.62h1.88v-1.87h1.88v-0.94Zm3.75,1.88v-0.94h-3.75v7.5h1.88v1.88h3.75v-7.5H190v-0.94Z"/><path class="cls-14" d="M199.38,465.94V465h9.38v1.88h1.88v7.5h-1.87v1.88h-1.87v1.88h-7.5v-1.87H205v-1.87h1.88V472.5h-7.5v-1.87H197.5v-3.75h1.88v-0.94Zm7.5,2.81v-1.87h-5.62v3.75h5.63v-1.87Z"/><path class="cls-14" d="M212.5,466.88V465h13.13v3.75h-1.87v1.88h-1.87v1.88H220v5.63h-3.75V472.5h1.88v-1.87H220v-1.87h1.88v-1.87h-5.62v1.88H212.5v-1.87Z"/><path class="cls-14" d="M242.5,471.56V465h3.75v5.63h5.63V465h3.75v13.13h-3.75V472.5h-5.62v5.63H242.5v-6.56Z"/><path class="cls-14" d="M259.38,467.81V465h3.75v5.63h3.75V465h3.75v5.63h-1.87v1.88h-1.87v5.63h-3.75V472.5h-1.87v-1.87h-1.87v-2.81Z"/><path class="cls-14" d="M272.5,471.56V465h11.25v1.88h1.88v5.63h-1.87v1.88h-7.5v3.75H272.5v-6.56Zm9.38-1.87v-2.81h-5.62v5.63h5.63v-2.81Z"/><path class="cls-14" d="M287.5,471.56V465h3.75v1.88h1.88v1.88H295v1.88h1.88V465h3.75v13.13h-3.75v-1.87H295v-1.87h-1.87V472.5h-1.87v5.63H287.5v-6.56Z"/><path class="cls-14" d="M304.38,465.94V465h9.38v1.88h1.88v9.38h-1.87v1.88h-9.37v-1.87H302.5v-9.37h1.88v-0.94Zm7.5,5.63v-4.69h-5.62v9.38h5.63v-4.69Z"/></svg>