<?xml version="1.0" ?><svg id="pkft" viewBox="0 0 500 500" xmlns="http://www.w3.org/2000/svg"><defs><style>.cls-1{fill:#f2f2f2;}.cls-2,.cls-8{fill:#1a1a1a;}.cls-3{fill:#ef8337;}.cls-4{fill:none;}.cls-5{fill:#e87425;}.cls-6{fill:#f7cdaa;}.cls-7{fill:#fad7b5;}.cls-8{opacity:0.1;}</style></defs><title/><path class="cls-1" d="M221.26,221.92a16.14,16.14,0,0,0-3.51-.42c-4.77,0-10.4,5.41-14,9.56-2.26,2.59-3.73,4.69-3.73,4.69-2,7,9,10.25,12,12s23,7.75,24.5-5.75C237.79,230.4,228.75,223.61,221.26,221.92ZM228.5,236a1.8,1.8,0,1,1,1.8-1.8A1.8,1.8,0,0,1,228.5,236Z"/><circle class="cls-2" cx="228.5" cy="234.25" r="1.8"/><path class="cls-3" d="M237.75,196c0-4-8-13.49-7.75,5.76,0.11,8.24-4,15.05-8.74,20.15,7.49,1.69,16.53,8.48,15.24,20.08-1.5,13.5-21.5,7.5-24.5,5.75s-14-5-12-12c0,0,1.48-2.1,3.73-4.69-2.55-.28-6.78-0.1-13.73,1.46-10.41,2.33-13.61,17.62-14.58,27.62a83.31,83.31,0,0,0-.42,8.74l1.53,0.19,0.47-.68a18.94,18.94,0,0,1,5.19-5.26s4-13.81,7.78-15.06c0,0-1.23,7,3.27,11.47a42.41,42.41,0,0,1,29,2.73c14.75,7.25,23.51,12.48,27.76,12.48V223C238,224.75,237.75,200,237.75,196Z"/><path class="cls-4" d="M122.55,229.32l-2.48-2.7,1.51,1.8A5.42,5.42,0,0,0,122.55,229.32Z"/><path class="cls-5" d="M147.53,228.27l-7.31,2.54c-1.06.37-2.29,0.85-3.51,1.35a5.19,5.19,0,0,1,1.22,1.22l5.15,7.63a11.7,11.7,0,0,0,4.52,3.64l0.84,0.34a2.25,2.25,0,0,1,1,3.58l6.14-3.39a17,17,0,0,1,9.31-1.63S172.5,244.75,175,240s13.33-35.29,13.33-35.29c0.92-2.59,1.16-6.06.55-7.71s-2.66-1.36-4.54.65l-10.92,11.69a18.55,18.55,0,0,1-8.31,4.68l-7,1.45a18.71,18.71,0,0,0-2,.55,38,38,0,0,1-1.92,6A13.12,13.12,0,0,1,147.53,228.27Z"/><path class="cls-3" d="M126.57,230.78l6.62,0.06a6.47,6.47,0,0,1,3.53,1.31c1.21-.5,2.45-1,3.51-1.35l7.31-2.54a13.12,13.12,0,0,0,6.72-6.21,38,38,0,0,0,1.92-6,30.94,30.94,0,0,0,.64-3.5l2.14-19.06a29.71,29.71,0,0,1,3-9.33l7.13-12.77a10.23,10.23,0,0,1,7.43-4.67l10.27-.63a28.92,28.92,0,0,1,9.69,1.39l5.84,2.11c2.59,0.93,3.38-.12,1.76-2.35L187.19,144a12.86,12.86,0,0,0-7.92-4.56l-30.8-3.21a8,8,0,0,0-7.29,3.91l-26.87,51.39a15,15,0,0,0-1,9.27l6.79,25.79,2.48,2.7A7.6,7.6,0,0,0,126.57,230.78Z"/><path class="cls-4" d="M141.44,276.88a6.12,6.12,0,0,0,1.24.31s1.87-.73,4.53-1.84A4,4,0,0,0,141.44,276.88Z"/><path class="cls-6" d="M137.65,267.75c0.59,1.73-.54,7.57,3.79,9.13a4,4,0,0,1,5.76-1.52c4.79-2,12.13-5.17,15.8-7.45l-5.46-4.66A14.68,14.68,0,0,0,149.5,260l-9.5,1.5a5.52,5.52,0,0,0-2.37,1.16A19.37,19.37,0,0,0,137.65,267.75Z"/><path class="cls-6" d="M232,315s-8.87-15-22.06-22.25a34.75,34.75,0,0,0-22.13-3.68,26.27,26.27,0,0,0-4.05.93s-14.84-5-13.87-7.5c0,0,.77-2.17,2.09-5.09l-0.34,0a55.3,55.3,0,0,0-14.9,3.76l40.1,24.64v0C204.55,311.88,216,316.94,232,315Z"/><path class="cls-7" d="M222.24,262.27a42.41,42.41,0,0,0-29-2.73c-4.5-4.5-3.27-11.47-3.27-11.47-3.75,1.25-7.78,15.06-7.78,15.06a18.94,18.94,0,0,0-5.19,5.26l-0.47.68-1.53-.19a83.31,83.31,0,0,1,.42-8.74,2.55,2.55,0,0,0-1,.33A91.47,91.47,0,0,0,164.3,267a15,15,0,0,1-1.28.87c-3.67,2.28-11,5.46-15.8,7.45-2.66,1.1-4.53,1.84-4.53,1.84a6.12,6.12,0,0,1-1.24-.31c-4.33-1.55-3.21-7.4-3.79-9.12a19.37,19.37,0,0,1,0-5.09c0.26-3.5.78-7.41,0.78-7.41,6.62-.62,11.07-6.69,11.07-6.69a2.25,2.25,0,0,0-1-3.58l-0.84-.34a11.7,11.7,0,0,1-4.52-3.64l-5.15-7.62a5.19,5.19,0,0,0-1.22-1.22,6.47,6.47,0,0,0-3.53-1.31l-6.62-.06a7.6,7.6,0,0,1-4-1.46,5.42,5.42,0,0,1-1-.89l-1.51-1.8c-10.19,16.63,1.65,24.34,1.65,24.34a5.43,5.43,0,0,1,2.23,4.64s-0.21,2,1.06,10.27A26,26,0,0,1,123.45,280c0.34,0.63.69,1.21,1,1.75,4.55,6.84,10.34,6.5,12.64,6a7.43,7.43,0,0,0,1-.27c1.4,5.63,7.51,1.12,7.51,1.12a30.76,30.76,0,0,1,11.08-7.42,55.3,55.3,0,0,1,14.9-3.76l0.34,0c-1.32,2.92-2.09,5.09-2.09,5.09-1,2.5,13.88,7.5,13.88,7.5a26.27,26.27,0,0,1,4.05-.93,34.75,34.75,0,0,1,22.13,3.68C223.13,300,232,315,232,315h18V274.75C245.75,274.75,237,269.52,222.24,262.27Z"/><path class="cls-6" d="M124.5,281.75c-7.77,14.56-14.84,31.63-14.84,31.63a15.46,15.46,0,0,0-1,4.35L105,320s-7.87-6.12-16-1.56S74.25,328.5,74.25,330s2.63,2.75,6.38,1,3.63-2.37,6.5-2.12c0.95,0.08,2.29.14,3.67,0.17,3-3.8,1.1-4.6,4.46-3.67,3.63,1,.38,1.63,7.38,1.75s6.38-2.37,10.25-1.37,7.13,1.63,8.25,5a13.8,13.8,0,0,1,.51,4.8l0,0a27.8,27.8,0,0,1,4.68-6.82h0a6.09,6.09,0,0,0,1.41-3.66l0.5-10a37.07,37.07,0,0,1,2.06-9.65l6.83-17.57C134.84,288.25,129,288.59,124.5,281.75Z"/><path class="cls-7" d="M121.13,330.75c-1.12-3.37-4.37-4-8.25-5s-3.25,1.5-10.25,1.38-3.75-.75-7.37-1.75c-3.36-.93-1.47-0.13-4.46,3.67-0.24.3-.49,0.61-0.79,1-4.12,4.63-4.37,8.5-1.87,8.38s5.75-3.87,5.75-3.87c-0.37-5.5,13.63,3.25,21,6.25,4.9,2,6.54-1.58,6.76-5.2A13.8,13.8,0,0,0,121.13,330.75Z"/><path class="cls-1" d="M263.75,242c1.5,13.5,21.5,7.5,24.5,5.75s14-5,12-12c0,0-1.48-2.1-3.73-4.69-3.62-4.15-9.24-9.56-14-9.56a16.14,16.14,0,0,0-3.51.42C271.5,223.61,262.46,230.4,263.75,242Zm6.2-7.75a1.8,1.8,0,1,1,1.8,1.8A1.8,1.8,0,0,1,270,234.25Z"/><circle class="cls-2" cx="271.75" cy="234.25" r="1.8"/><path class="cls-3" d="M262.38,196c0-4,8.06-13.49,7.81,5.76-0.11,8.24,4,15.05,8.77,20.15-7.49,1.69-16.52,8.48-15.23,20.08,1.5,13.5,21.51,7.5,24.51,5.75s14-5,12-12c0,0-1.48-2.1-3.73-4.69,2.55-.28,6.78-0.1,13.73,1.46,10.41,2.33,13.61,17.62,14.58,27.62a83.36,83.36,0,0,1,.42,8.74l-1.53.19-0.47-.68a18.94,18.94,0,0,0-5.19-5.26s-4-13.81-7.78-15.06c0,0,1.23,7-3.27,11.47a42.78,42.78,0,0,0-29.13,2.73C263.13,269.52,254,274.75,250,274.75V223C262,224.75,262.38,200,262.38,196Z"/><path class="cls-4" d="M377.7,229.32l2.48-2.7-1.51,1.8A5.42,5.42,0,0,1,377.7,229.32Z"/><path class="cls-5" d="M352.72,228.27l7.31,2.54c1.06,0.37,2.29.85,3.51,1.35a5.19,5.19,0,0,0-1.22,1.22L357.16,241a11.7,11.7,0,0,1-4.52,3.64l-0.84.34a2.25,2.25,0,0,0-1,3.58l-6.14-3.39a17,17,0,0,0-9.31-1.63s-7.56,1.21-10.06-3.54-13.33-35.29-13.33-35.29c-0.92-2.59-1.16-6.06-.55-7.71s2.66-1.36,4.54.65l10.92,11.69a18.55,18.55,0,0,0,8.31,4.68l7,1.45a18.71,18.71,0,0,1,2,.55,38,38,0,0,0,1.92,6A13.12,13.12,0,0,0,352.72,228.27Z"/><path class="cls-3" d="M373.68,230.78l-6.62.06a6.47,6.47,0,0,0-3.53,1.31c-1.21-.5-2.45-1-3.51-1.35l-7.31-2.54a13.12,13.12,0,0,1-6.72-6.21,38,38,0,0,1-1.92-6,30.94,30.94,0,0,1-.64-3.5l-2.14-19.06a29.71,29.71,0,0,0-3-9.33l-7.13-12.77a10.23,10.23,0,0,0-7.43-4.67l-10.27-.63a28.92,28.92,0,0,0-9.69,1.39L298,169.55c-2.59.93-3.38-.12-1.76-2.35L313.06,144a12.86,12.86,0,0,1,7.92-4.56l30.8-3.21a8,8,0,0,1,7.29,3.91l26.87,51.39a15,15,0,0,1,1,9.27l-6.79,25.79-2.48,2.7A7.6,7.6,0,0,1,373.68,230.78Z"/><path class="cls-4" d="M358.81,276.88a6.12,6.12,0,0,1-1.24.31s-1.87-.73-4.53-1.84A4,4,0,0,1,358.81,276.88Z"/><path class="cls-6" d="M362.6,267.75c-0.59,1.73.54,7.57-3.79,9.13a4,4,0,0,0-5.76-1.52c-4.79-2-12.13-5.17-15.8-7.45l5.46-4.66a14.68,14.68,0,0,1,8.05-3.25l9.5,1.5a5.52,5.52,0,0,1,2.37,1.16A19.37,19.37,0,0,1,362.6,267.75Z"/><path class="cls-6" d="M268.25,315s8.88-15,22.06-22.25a34.75,34.75,0,0,1,22.13-3.68,26.27,26.27,0,0,1,4.05.93s14.84-5,13.88-7.5c0,0-.77-2.17-2.09-5.09l0.34,0a55.3,55.3,0,0,1,14.9,3.76l-40.1,24.64v0C295.7,311.88,284.25,316.94,268.25,315Z"/><path class="cls-7" d="M277.88,262.27A42.59,42.59,0,0,1,307,259.53c4.5-4.5,3.3-11.47,3.3-11.47,3.75,1.25,7.8,15.06,7.8,15.06a19,19,0,0,1,5.2,5.26l0.48,0.68,1.53-.19a83.12,83.12,0,0,0-.42-8.74,2.55,2.55,0,0,1,1,.33A91.46,91.46,0,0,1,336,267a15,15,0,0,0,1.28.87c3.67,2.28,11,5.46,15.8,7.45,2.66,1.1,4.53,1.84,4.53,1.84a6.12,6.12,0,0,0,1.24-.31c4.33-1.55,3.21-7.4,3.79-9.12a19.37,19.37,0,0,0,0-5.09c-0.26-3.5-.78-7.41-0.78-7.41-6.62-.62-11.07-6.69-11.07-6.69a2.25,2.25,0,0,1,1-3.58l0.84-.34a11.7,11.7,0,0,0,4.52-3.64l5.15-7.62a5.19,5.19,0,0,1,1.22-1.22,6.47,6.47,0,0,1,3.53-1.31l6.62-.06a7.6,7.6,0,0,0,4-1.46,5.42,5.42,0,0,0,1-.89l1.51-1.8c10.19,16.63-1.65,24.34-1.65,24.34a5.43,5.43,0,0,0-2.23,4.64s0.21,2-1.06,10.27A26,26,0,0,0,376.8,280c-0.34.63-.69,1.21-1,1.75-4.55,6.84-10.34,6.5-12.64,6a7.43,7.43,0,0,1-1-.27c-1.4,5.63-7.51,1.12-7.51,1.12a30.76,30.76,0,0,0-11.08-7.42,55.3,55.3,0,0,0-14.9-3.76l-0.34,0c1.32,2.92,2.09,5.09,2.09,5.09,1,2.5-13.87,7.5-13.87,7.5a26.27,26.27,0,0,0-4.05-.93,34.75,34.75,0,0,0-22.13,3.68C277.13,300,268.25,315,268.25,315H250V274.75C254,274.75,263.13,269.52,277.88,262.27Z"/><path class="cls-6" d="M375.75,281.75c7.77,14.56,14.84,31.63,14.84,31.63a15.46,15.46,0,0,1,1,4.35l3.63,2.27s7.88-6.12,16-1.56S426,328.5,426,330s-2.62,2.75-6.37,1-3.62-2.37-6.5-2.12c-0.95.08-2.29,0.14-3.67,0.17-3-3.8-1.1-4.6-4.46-3.67-3.62,1-.37,1.63-7.37,1.75s-6.37-2.37-10.25-1.37-7.12,1.63-8.25,5a13.8,13.8,0,0,0-.51,4.8l0,0a27.8,27.8,0,0,0-4.68-6.82h0A6.09,6.09,0,0,1,372.5,325L372,315a37.07,37.07,0,0,0-2.06-9.65l-6.83-17.57C365.41,288.25,371.21,288.59,375.75,281.75Z"/><path class="cls-7" d="M379.13,330.75c1.13-3.37,4.38-4,8.25-5s3.25,1.5,10.25,1.38,3.75-.75,7.38-1.75c3.36-.93,1.47-0.13,4.46,3.67,0.24,0.3.49,0.61,0.79,1,4.13,4.63,4.38,8.5,1.88,8.38s-5.75-3.87-5.75-3.87c0.38-5.5-13.62,3.25-21,6.25-4.9,2-6.54-1.58-6.76-5.2A13.8,13.8,0,0,1,379.13,330.75Z"/><path class="cls-8" d="M411.25,318.44c-8.12-4.56-16,1.56-16,1.56l-3.63-2.27a15.46,15.46,0,0,0-1-4.35s-7.06-17.07-14.84-31.63c0.36-.54.71-1.12,1-1.75a26,26,0,0,1-1.56-14.12c1.27-8.25,1.06-10.27,1.06-10.27a5.43,5.43,0,0,1,2.23-4.64s11.84-7.72,1.65-24.34L387,200.83a15,15,0,0,0-1-9.27l-26.87-51.39a8,8,0,0,0-7.29-3.91L321,139.48a12.86,12.86,0,0,0-7.92,4.56l-16.86,23.17c-1.62,2.22-.83,3.28,1.76,2.35l5.84-2.11a28.92,28.92,0,0,1,9.69-1.39l10.27,0.63a10.23,10.23,0,0,1,7.43,4.67l7.13,12.77a29.71,29.71,0,0,1,3,9.33l2.14,19.06a30.94,30.94,0,0,0,.64,3.5,18.71,18.71,0,0,0-2-.55l-7-1.45a18.55,18.55,0,0,1-8.31-4.68l-10.92-11.69c-1.88-2-3.92-2.3-4.54-.65s-0.37,5.12.55,7.71c0,0,10.83,30.54,13.33,35.29s10.06,3.54,10.06,3.54a17,17,0,0,1,9.31,1.63l6.14,3.39s4.45,6.07,11.07,6.69c0,0,.52,3.91.78,7.41a5.52,5.52,0,0,0-2.37-1.16l-9.5-1.5a14.68,14.68,0,0,0-8.05,3.25l-5.46,4.66c3.67,2.28,11,5.46,15.8,7.45l1,0.4,1.64,0.67-1.64-.67-1-.4c-4.79-2-12.13-5.17-15.8-7.45A15,15,0,0,1,336,267a91.46,91.46,0,0,0-10.1-6.57,2.55,2.55,0,0,0-1-.33h0c-1-10-4.17-25.28-14.58-27.62-7-1.56-11.18-1.74-13.73-1.46-3.62-4.15-9.24-9.56-14-9.56a16.14,16.14,0,0,0-3.51.42c-7.49,1.69-16.53,8.48-15.24,20.08,0.75,6.75,6.12,8.62,11.68,8.59-5.57,0-10.95-1.84-11.7-8.59-1.29-11.6,7.74-18.39,15.23-20.08-4.74-5.1-8.88-11.91-8.77-20.15,0.25-19.25-7.81-9.76-7.81-5.76S262,224.75,250,223v92h18.25c16,1.94,27.45-3.12,35.17-9.19v0l40.1-24.64a30.76,30.76,0,0,1,11.08,7.42s6.1,4.51,7.51-1.12a7.43,7.43,0,0,0,1,.27l6.83,17.57A37.07,37.07,0,0,1,372,315l0.5,10a6.09,6.09,0,0,0,1.41,3.66h0a27.8,27.8,0,0,1,4.68,6.82l0,0c0.22,3.62,1.87,7.19,6.76,5.2,7.38-3,21.38-11.75,21-6.25,0,0,3.25,3.75,5.75,3.88s2.25-3.75-1.87-8.37c-0.3-.34-0.56-0.65-0.79-1,1.38,0,2.72-.09,3.67-0.17,2.88-.25,2.75.38,6.5,2.13s6.38,0.5,6.38-1S419.38,323,411.25,318.44Zm-93.19-55.31a18.8,18.8,0,0,1,5.19,5.23,1.63,1.63,0,0,0,.47.64h0a1.63,1.63,0,0,1-.48-0.64,18.89,18.89,0,0,0-5.2-5.25s-4-13.72-7.76-15h0C314,249.31,318.06,263.13,318.06,263.13ZM307,259.52h0a39.77,39.77,0,0,0-11.1-1.39A40.53,40.53,0,0,1,307,259.52Z"/><path class="cls-3" d="M178.75,465.94V465h5.63v1.88h1.88v1.88h1.88v5.63h-1.87v1.88h-1.87v1.88h-5.62v-1.87h-1.87v-1.87H175v-5.62h1.88v-1.87h1.88v-0.94Zm3.75,1.88v-0.94h-3.75v7.5h1.88v1.88h3.75v-7.5H182.5v-0.94Z"/><path class="cls-3" d="M191.88,465.94V465h9.38v1.88h1.88v7.5h-1.87v1.88h-1.87v1.88h-7.5v-1.87h5.63v-1.87h1.88V472.5h-7.5v-1.87H190v-3.75h1.88v-0.94Zm7.5,2.81v-1.87h-5.62v3.75h5.63v-1.87Z"/><path class="cls-3" d="M206.88,465.94V465h7.5v1.88h1.88v3.75h-1.87v1.88h3.75v3.75h-1.87v1.88h-9.37v-1.87H205V472.5h1.88v-1.87H205v-3.75h1.88v-0.94Zm3.75,7.5V472.5h-3.75v3.75h7.5v-1.87h-3.75v-0.94Zm3.75-4.69v-1.87h-5.62v1.88h1.88v1.88h3.75v-1.87Z"/><path class="cls-3" d="M235,471.56V465h3.75v5.63h1.88v-1.87h1.88v-1.87h1.88V465h3.75v1.88h-1.87v1.88h-1.87v1.88H242.5v1.88h1.88v1.88h1.88v1.88h1.88v1.88H242.5v-1.87h-1.87v-1.87h-1.87v3.75H235v-6.56Z"/><path class="cls-3" d="M250,471.56V465h11.25v1.88h1.88v5.63h-3.75v1.88h1.88v1.88h1.88v1.88H257.5v-1.87h-1.87v-1.87h-1.87v3.75H250v-6.56Zm9.38-2.81v-1.87h-5.62v5.63h3.75v-1.87h1.88v-1.87Z"/><path class="cls-3" d="M268.75,465.94V465h5.63v1.88h1.88v1.88h1.88v9.38h-3.75v-3.75h-5.62v3.75H265v-9.37h1.88v-1.87h1.88v-0.94Zm3.75,1.88v-0.94h-1.87v1.88h-1.87v3.75h5.63v-3.75H272.5v-0.94Z"/><path class="cls-3" d="M280,471.56V465h11.25v1.88h1.88v3.75h-1.87v1.88h1.88v3.75h-1.87v1.88H280v-6.56Zm9.38-2.81v-1.87h-5.62v3.75h5.63v-1.87Zm0,5.63V472.5h-5.62v3.75h5.63v-1.87Z"/><path class="cls-3" d="M295,471.56V465h11.25v1.88h1.88v3.75h-1.87v1.88h1.88v3.75h-1.87v1.88H295v-6.56Zm9.38-2.81v-1.87h-5.62v3.75h5.63v-1.87Zm0,5.63V472.5h-5.62v3.75h5.63v-1.87Z"/><path class="cls-3" d="M311.88,467.81V465h3.75v5.63h3.75V465h3.75v5.63h-1.87v1.88h-1.87v5.63h-3.75V472.5h-1.87v-1.87h-1.87v-2.81Z"/></svg>