<?xml version="1.0" ?><svg id="pkft" viewBox="0 0 500 500" xmlns="http://www.w3.org/2000/svg"><defs><style>.cls-1{fill:none;}.cls-2{fill:#f15a24;}.cls-3{fill:#f2d4b4;}.cls-4{fill:#ffc897;}.cls-5{fill:#e83005;}.cls-6{fill:#fff;}.cls-7{fill:red;}.cls-8{fill:#52392b;}.cls-9{opacity:0.1;}.cls-10{fill:#1a1a1a;}</style></defs><title/><path class="cls-1" d="M166.38,350.05l0.05-.05a6.66,6.66,0,0,0,.78-1l-0.49-.18-3.43-1.24,2.82,2.28Z"/><path class="cls-2" d="M224.48,270s2.18-11.67-4.48-17.33c0,0,3.67,9,0,7.33s-10-14-10-14,7,15.33,2.33,16.33-7.5-6.67-7.5-6.67,1.84,13.67,6.5,14.33c1.93,0.28,3.68,4.22,5.07,8.74a124,124,0,0,1,3.19,13.92s-4.86,2.65-14.91-4.95c-5-3.8-11.35-10.16-19-20.72,0,0,1,6.09-1.67,5.71s-7.33-8-7.33-10.38S171,274,176.67,277c3.4,1.8,10.28,7.2,15.31,12.38,3.35,3.46,5.89,6.82,6,9,0.21,3.32-7.21,3.92-14-.34a22.81,22.81,0,0,1-9.85-13.66s-2.81,5-2.15,8.33-5.33-7.67-4.5-15.33-12.17,11-4.17,19.67c4,4.3,8.43,7.61,12.24,10.88l-0.55.73C168.18,321.32,201,358,196.33,350S201,336.33,201,336.33l1.33,8.67L208,333.7c1.31-2.64-1.63,14.28-1.63,14.28S216,335,216,338s4.56,12,4.56,12l3-7s2.54,8.67,7.21,7S250,355,250,355V320l-17.9-35.07Zm-0.15,63.67C223,334.33,184,323,184,323a30.16,30.16,0,0,1,6.06-9.17c3.29-3.31,8-6,14.1-5.16,6.7,1,11.94,6.7,15.43,12.44C223.31,327.21,225,333.32,224.33,333.67Z"/><path class="cls-2" d="M172,312.61h0v0h0Z"/><path class="cls-3" d="M175.08,308.5a22.34,22.34,0,0,0-3.06,4.1l3-4Z"/><path class="cls-3" d="M230.75,350c-4.67,1.67-7.21-7-7.21-7l-3,7S216,341,216,338s-9.62,10-9.62,10,2.94-16.92,1.63-14.28L202.33,345,201,336.33S191.67,342,196.33,350,168.18,321.32,175,308.61l-3,4v0a40.7,40.7,0,0,0-5.51,18.26c-0.12-.12-0.24-0.25-0.37-0.35l-35.52-29.18c-2.12-1.75-3.92-5-4-7.26s1.44-5.7,3.35-7.68l0.55-.56a4.82,4.82,0,0,0-.23-7l-0.59-.53c-2-1.85-1.45-3.36,1.3-3.36h0.25a4.09,4.09,0,0,0,4.25-4.79,11.58,11.58,0,0,1,2.64-8.47l6.42-7a55.81,55.81,0,0,1-18.79-9.53,3.68,3.68,0,0,0-1.08,2.19l-1.11,6.66a14,14,0,0,1-4.88,7.85l-0.55.39A8.28,8.28,0,0,0,115,270c0.52,2.59-.39,5-2,5.29l1.5,3.5c1.5,3.5.37,18.76,0.37,18.76a17,17,0,0,0,2.4,9.15,3,3,0,0,1-.09,1.84c-0.08.36,2.78,3,7.15,6.78,11,9.5,31.5,26.23,39,32.29l3.43,1.24,0.49,0.18a6.66,6.66,0,0,1-.78,1l-0.05.05-0.27-.2-2.82-2.28-12-4.36c-10-3.65-20.86-7.57-23.27-8.46-4.75-1.75-4.82-1.2-4.82-1.2-0.37,2.72-2.14,4.67-3.93,4.33a2.68,2.68,0,0,0-.42,0c-1.76,0-4.08,1.51-5.37,3.7L111,345.78,90.79,380a9.59,9.59,0,0,0-1.06,5.39,8.14,8.14,0,0,0-5.23-.54c-5.17,1.3-6.67-.87-7.67-1.37S59.17,397.33,66,414.83c0,0,4.33-23.33,9.67-21.83s1.83,9.17,8.33,7c3.47-1.16,6.93-1.7,9-3.37v0.12a10.32,10.32,0,0,0,7.73-4.19S127,352.2,127.75,348c0.54-3.06,22.46,8.55,34.51,15.18,5,4.22,8.55,4.92,8.22,6.85,0,0.21.45,0.6,1.37,1.11,3-2.2,7.73-3.63,13.11-3.63,9,0,16.29,4,16.29,8.88a6.06,6.06,0,0,1-2,4.28c2.78,0.74,5.69,1.46,8.69,2.14,1.52-2.1,5.28-3.59,9.67-3.59,5.75,0,10.4,2.54,10.4,5.67a3.3,3.3,0,0,1-.34,1.42c4.54,0.57,9.11,1,13.59,1.1a4.09,4.09,0,0,1-1.65-3.06c0-3.13,4.66-5.67,10.4-5.67V355S235.42,348.33,230.75,350Z"/><path class="cls-4" d="M168.67,376.37c0,4.91,7.29,8.88,16.29,8.88,6.15,0,11.5-1.86,14.27-4.6-13.31-3.54-23.77-7.53-27.38-9.54C169.86,372.58,168.67,374.4,168.67,376.37Z"/><path class="cls-4" d="M185,367.48c-5.38,0-10.14,1.43-13.11,3.63,3.61,2,14.07,6,27.38,9.54a6.06,6.06,0,0,0,2-4.28C201.25,371.46,194,367.48,185,367.48Z"/><path class="cls-4" d="M207.19,384.87c0,3.13,4.66,5.67,10.4,5.67,4.84,0,8.9-1.81,10.06-4.25-6.74-.84-13.43-2.08-19.74-3.5A3.53,3.53,0,0,0,207.19,384.87Z"/><path class="cls-4" d="M217.6,379.19c-4.4,0-8.15,1.49-9.67,3.59,6.3,1.42,13,2.66,19.74,3.5a3.3,3.3,0,0,0,.34-1.42C228,381.73,223.34,379.19,217.6,379.19Z"/><path class="cls-4" d="M241.24,387.38C243.09,389,246.32,390,250,390v-2.67C247.14,387.47,244.21,387.48,241.24,387.38Z"/><path class="cls-4" d="M239.6,384.33a4.09,4.09,0,0,0,1.65,3.06c3,0.09,5.89.09,8.76-.05v-8.68C244.25,378.65,239.6,381.19,239.6,384.33Z"/><path class="cls-5" d="M198,298.33c-0.13-2.13-2.67-5.49-6-9l-8-.38v9C190.79,302.26,198.21,301.65,198,298.33Z"/><path class="cls-5" d="M219.6,292.67a124,124,0,0,0-3.19-13.92c-5.05-2.05-10.24-4.08-11-4.08-1.24,0-.91,8.78-0.67,13.05C214.73,295.32,219.6,292.67,219.6,292.67Z"/><path class="cls-5" d="M240,260c0,4.7-5,17.68-7.9,24.93L250,320V283S240,253.33,240,260Z"/><path class="cls-6" d="M210,318.73c-0.22,3.36-1.46,5.94-3,5.94-1.66,0-3-3.13-3-7,0-.14,0-0.27,0-0.4l-13.95-3.44A30.16,30.16,0,0,0,184,323s39,11.33,40.33,10.67c0.69-.34-1-6.45-4.74-12.56Z"/><path class="cls-7" d="M204,317.67c0,3.87,1.34,7,3,7,1.5,0,2.74-2.58,3-5.94l-6-1.47C204,317.4,204,317.53,204,317.67Z"/><path class="cls-5" d="M210,318.73l9.63,2.37c-3.48-5.73-8.73-11.47-15.43-12.44-6.15-.89-10.82,1.85-14.1,5.16L204,317.26Z"/><path class="cls-1" d="M128.42,327.06c-0.54,1.26-4.49,5.55-9.59,10.79a2.68,2.68,0,0,1,.42,0c1.79,0.34,3.55-1.6,3.93-4.33,0,0,.07-0.55,4.82,1.2,2.41,0.89,13.22,4.81,23.27,8.46C141.28,334.5,129.39,324.8,128.42,327.06Z"/><path class="cls-4" d="M118.83,337.85c5.1-5.24,9.05-9.53,9.59-10.79,1-2.26,12.86,7.44,22.85,16.15l12,4.36c-7.47-6.07-28-22.79-39-32.29a2.41,2.41,0,0,1-1.89,0c-1.66-.74-4.58.28-6.47,2.27l-30.82,32.3a9.59,9.59,0,0,0-2.26,5,8.14,8.14,0,0,0-5-1.71c-5.33.09-6.3-2.36-7.16-3.07s-20.35,9.46-17.67,28.05c0,0,9.52-21.74,14.37-19.07s-0.3,9.34,6.52,8.71c3.64-.34,7.14-0.08,9.52-1.24v0.12A10.32,10.32,0,0,0,92,364.34s9.63-9.24,19-18.56l2.49-4.22C114.75,339.37,117.07,337.8,118.83,337.85Z"/><path class="cls-3" d="M166.43,350.09c1.4,1,2.58.84,3.17-.23l-2.87-1Z"/><path class="cls-3" d="M166.11,349.85l0.32,0.24,0.3-1.28-3.43-1.24Z"/><path class="cls-1" d="M166.38,350.05l0.05-.05a6.66,6.66,0,0,0,.78-1l-0.49-.18-3.43-1.24,2.82,2.28Z"/><path class="cls-8" d="M190,137.67c-16.33,9.67-38,37.33-40,44.67a3,3,0,0,1-1,1.43c1.54,0.7,3.28,1.47,5.29,2.33,11.82,5.06,15.58,17.44,16.77,24.8,4.89,3.37,14.22,8,24.65,3.68h0c-8.91-4.1-7.09-7.23-7.09-7.23s0.67-22.33-.33-24-4.67-1.33-5-11c-0.26-7.8,18.57-27.31,25.85-34.56C204.31,134.76,197.67,133.13,190,137.67Z"/><path class="cls-2" d="M115.14,95.18a1.78,1.78,0,0,0-.48.16C114.46,95.45,114.64,95.38,115.14,95.18Z"/><path class="cls-2" d="M232.1,111.67C236.2,89.33,218,83,218,83c-29.76-19.22-96.13,9.42-102.86,12.18,4.87-1,33,4.76,20.86,3.16C123.33,96.67,103,125,106.33,124s22-1,16,0S100,144.33,103,142s19,0.34,12.67,0S98.33,173.67,100,170s10-8,10-8l5.67,22,0.7,0.12a19.28,19.28,0,0,1,5.3-1.45L130,170l3.67,12s3.33-9.67,4-7c0.52,2.08-.18,3.15,7.73,7q1.58,0.78,3.65,1.72a3,3,0,0,0,1-1.43c2-7.33,23.67-35,40-44.67,7.67-4.54,14.31-2.9,19.2.11a30.69,30.69,0,0,1,8.8,8.56L220,136c22.67,8,20,24,20,24C258,132.67,232.1,111.67,232.1,111.67Z"/><path class="cls-2" d="M217.67,190c-7.1,14.53-14.76,21.63-21.91,24.56-10.43,4.29-19.76-.31-24.65-3.68a40.18,40.18,0,0,1,.56,5.78s2.77,4.94,5.61,11.2c4.2,9.24,8.56,21.36,4.37,24.64,9.48,1.29,21.25-4.39,33-16.84C232,217.33,217.67,190,217.67,190Z"/><path class="cls-5" d="M145.4,182l0.41,3.23a7.85,7.85,0,0,0,3.23-1.51Q147,182.82,145.4,182Z"/><path class="cls-5" d="M177.28,227.86c-2.84-6.25-5.61-11.2-5.61-11.2a40.18,40.18,0,0,0-.56-5.78c-1.2-7.36-5-19.74-16.77-24.8-2-.86-3.75-1.63-5.29-2.33a7.85,7.85,0,0,1-3.23,1.51L145.4,182c-7.91-3.9-7.21-5-7.73-7-0.67-2.67-4,7-4,7L130,170l-8.33,12.67a19.28,19.28,0,0,0-5.3,1.45,2.52,2.52,0,0,0-1.7,2c0,2.13-14.59,38.52,11.1,59.16a55.81,55.81,0,0,0,18.79,9.53c1,0.31,2,.61,3.11.89,0,0,27,2.35,34-3.16C185.83,249.22,181.48,237.11,177.28,227.86Z"/><path class="cls-1" d="M333.46,350.05l-0.05-.05a6.66,6.66,0,0,1-.78-1l0.49-.18,3.43-1.24-2.82,2.28Z"/><path class="cls-2" d="M267.82,284.93L250,320v35s14.5-6.67,19.17-5,7.17-7,7.17-7l3,7s4.55-9,4.55-12,9.62,10,9.62,10-2.95-16.92-1.63-14.28l5.64,11.3,1.33-8.67s9.33,5.67,4.67,13.67,28.16-28.68,21.31-41.39l-0.55-.73c3.81-3.27,8.27-6.58,12.24-10.88,8-8.67-5-27.33-4.17-19.67s-5.17,18.67-4.5,15.33-2.15-8.33-2.15-8.33A22.81,22.81,0,0,1,315.84,298c-6.79,4.26-14.21,3.66-14,.34,0.13-2.13,2.67-5.49,6-9,5-5.18,11.91-10.58,15.31-12.38,5.67-3,0-17,0-14.67s-4.67,10-7.33,10.38-1.67-5.71-1.67-5.71c-7.67,10.56-14,16.92-19,20.72-10,7.6-14.91,4.95-14.91,4.95a124,124,0,0,1,3.19-13.92c1.39-4.52,3.14-8.47,5.07-8.74,4.67-.67,6.5-14.33,6.5-14.33s-2.84,7.67-7.5,6.67S289.84,246,289.84,246s-6.33,12.33-10,14,0-7.33,0-7.33c-6.67,5.67-4.44,17.33-4.44,17.33Zm12.43,36.18c3.48-5.73,8.73-11.47,15.43-12.44,6.15-.89,10.82,1.85,14.1,5.16a30.16,30.16,0,0,1,6.06,9.17s-39,11.33-40.33,10.67C274.82,333.32,276.53,327.21,280.25,321.1Z"/><path class="cls-2" d="M327.83,312.61h0v0h0Z"/><path class="cls-3" d="M324.76,308.5a22.34,22.34,0,0,1,3.06,4.1l-3-4Z"/><path class="cls-3" d="M269.17,350c4.67,1.67,7.17-7,7.17-7l3,7s4.55-9,4.55-12,9.62,10,9.62,10-2.95-16.92-1.63-14.28l5.64,11.3,1.33-8.67s9.33,5.67,4.67,13.67,28.16-28.68,21.31-41.39l3,4v0a40.7,40.7,0,0,1,5.51,18.26c0.12-.12.24-0.25,0.37-0.35l35.52-29.18c2.12-1.75,3.92-5,4-7.26s-1.44-5.7-3.35-7.68l-0.55-.56a4.82,4.82,0,0,1,.23-7l0.59-.53c2-1.85,1.45-3.36-1.3-3.36h-0.25a4.09,4.09,0,0,1-4.25-4.79,11.58,11.58,0,0,0-2.64-8.47l-6.42-7a55.81,55.81,0,0,0,18.79-9.53,3.68,3.68,0,0,1,1.08,2.19l1.11,6.66a14,14,0,0,0,4.88,7.85l0.55,0.39a8.28,8.28,0,0,1,3.11,7.62c-0.52,2.59.39,5,2,5.29l-1.5,3.5c-1.5,3.5-.37,18.76-0.37,18.76a17,17,0,0,1-2.4,9.15,3,3,0,0,0,.09,1.84c0.08,0.36-2.78,3-7.15,6.78-11,9.5-31.5,26.23-39,32.29l-3.43,1.24-0.49.18a6.66,6.66,0,0,0,.78,1l0.05,0.05,0.27-.2,2.82-2.28,12-4.36c10-3.65,20.86-7.57,23.27-8.46,4.75-1.75,4.82-1.2,4.82-1.2,0.37,2.72,2.14,4.67,3.93,4.33a2.68,2.68,0,0,1,.42,0c1.76,0,4.08,1.51,5.37,3.7l2.49,4.22L409.05,380a9.59,9.59,0,0,1,1.06,5.39,8.14,8.14,0,0,1,5.23-.54c5.17,1.3,6.67-.87,7.67-1.37s17.67,13.83,10.83,31.33c0,0-4.33-23.33-9.67-21.83s-1.83,9.17-8.33,7c-3.47-1.16-6.93-1.7-9-3.37v0.12a10.32,10.32,0,0,1-7.73-4.19s-26.27-40.36-27-44.59c-0.54-3.06-22.46,8.55-34.51,15.18-5,4.22-8.55,4.92-8.22,6.85,0,0.21-.45.6-1.37,1.11-3-2.2-7.73-3.63-13.11-3.63-9,0-16.29,4-16.29,8.88a6.06,6.06,0,0,0,2,4.28c-2.78.74-5.69,1.46-8.69,2.14-1.52-2.1-5.28-3.59-9.67-3.59-5.75,0-10.4,2.54-10.4,5.67a3.3,3.3,0,0,0,.34,1.42c-4.54.57-9.11,1-13.59,1.1a4.19,4.19,0,0,0,1.73-3.06c0-3.13-4.33-5.67-10.33-5.67V355S264.5,348.33,269.17,350Z"/><path class="cls-4" d="M331.17,376.37c0,4.91-7.29,8.88-16.29,8.88-6.15,0-11.5-1.86-14.27-4.6,13.31-3.54,23.77-7.53,27.38-9.54C330,372.58,331.17,374.4,331.17,376.37Z"/><path class="cls-4" d="M314.88,367.48c5.38,0,10.14,1.43,13.11,3.63-3.61,2-14.07,6-27.38,9.54a6.06,6.06,0,0,1-2-4.28C298.59,371.46,305.89,367.48,314.88,367.48Z"/><path class="cls-4" d="M292.65,384.87c0,3.13-4.66,5.67-10.4,5.67-4.84,0-8.9-1.81-10.06-4.25,6.74-.84,13.43-2.08,19.74-3.5A3.53,3.53,0,0,1,292.65,384.87Z"/><path class="cls-4" d="M282.25,379.19c4.4,0,8.15,1.49,9.67,3.59-6.3,1.42-13,2.66-19.74,3.5a3.3,3.3,0,0,1-.34-1.42C271.84,381.73,276.5,379.19,282.25,379.19Z"/><path class="cls-4" d="M258.76,387.38C256.91,389,254,390,250,390v-2.67C253,387.47,255.79,387.48,258.76,387.38Z"/><path class="cls-4" d="M260.33,384.33a4,4,0,0,1-1.61,3.06c-3,.09-5.72.09-8.72-0.05v-8.68C256,378.65,260.33,381.19,260.33,384.33Z"/><path class="cls-5" d="M301.92,298.33c0.13-2.13,2.71-5.49,6.06-9l8-.38v9C309,302.26,301.71,301.65,301.92,298.33Z"/><path class="cls-5" d="M280.25,292.67a124,124,0,0,1,3.19-13.92c5.05-2.05,10.24-4.08,11-4.08,1.24,0,.91,8.78.67,13.05C285.11,295.32,280.25,292.67,280.25,292.67Z"/><path class="cls-5" d="M259.92,260c0,4.7,5,17.68,7.94,24.93L250,320V283S259.92,253.33,259.92,260Z"/><path class="cls-6" d="M289.88,318.73c0.22,3.36,1.46,5.94,3,5.94,1.66,0,3-3.13,3-7,0-.14,0-0.27,0-0.4l13.95-3.44a30.16,30.16,0,0,1,6.06,9.17s-39,11.33-40.33,10.67c-0.69-.34,1-6.45,4.74-12.56Z"/><path class="cls-7" d="M295.84,317.67c0,3.87-1.34,7-3,7-1.5,0-2.74-2.58-3-5.94l6-1.47C295.84,317.4,295.84,317.53,295.84,317.67Z"/><path class="cls-5" d="M289.88,318.73l-9.63,2.37c3.48-5.73,8.73-11.47,15.43-12.44,6.15-.89,10.82,1.85,14.1,5.16l-13.95,3.44Z"/><path class="cls-1" d="M371.42,327.06c0.54,1.26,4.49,5.55,9.59,10.79a2.68,2.68,0,0,0-.42,0c-1.79.34-3.55-1.6-3.93-4.33,0,0-.07-0.55-4.82,1.2-2.41.89-13.22,4.81-23.27,8.46C358.56,334.5,370.45,324.8,371.42,327.06Z"/><path class="cls-4" d="M381,337.85c-5.1-5.24-9.05-9.53-9.59-10.79-1-2.26-12.86,7.44-22.85,16.15l-12,4.36c7.47-6.07,28-22.79,39-32.29a2.41,2.41,0,0,0,1.89,0c1.66-.74,4.58.28,6.47,2.27l30.82,32.3a9.59,9.59,0,0,1,2.26,5,8.14,8.14,0,0,1,5-1.71c5.33,0.09,6.3-2.36,7.16-3.07s20.35,9.46,17.67,28.05c0,0-9.52-21.74-14.37-19.07s0.3,9.34-6.52,8.71c-3.64-.34-7.14-0.08-9.52-1.24v0.12a10.32,10.32,0,0,1-8.48-2.33s-9.63-9.24-19-18.56l-2.49-4.22C385.09,339.37,382.77,337.8,381,337.85Z"/><path class="cls-3" d="M333.41,350.09c-1.4,1-2.58.84-3.17-.23l2.88-1Z"/><path class="cls-3" d="M333.73,349.85l-0.32.24-0.3-1.28,3.43-1.24Z"/><path class="cls-1" d="M333.46,350.05l-0.05-.05a6.66,6.66,0,0,1-.78-1l0.49-.18,3.43-1.24-2.82,2.28Z"/><path class="cls-8" d="M309.84,137.67c16.33,9.67,38,37.33,40,44.67a3,3,0,0,0,1,1.43c-1.54.7-3.28,1.47-5.29,2.33-11.82,5.06-15.58,17.44-16.77,24.8-4.89,3.37-14.22,8-24.65,3.68h0c8.91-4.1,7.09-7.23,7.09-7.23s-0.67-22.33.33-24,4.67-1.33,5-11c0.26-7.8-18.57-27.31-25.85-34.56C295.53,134.76,302.17,133.13,309.84,137.67Z"/><path class="cls-2" d="M384.7,95.18a1.78,1.78,0,0,1,.48.16C385.39,95.45,385.2,95.38,384.7,95.18Z"/><path class="cls-2" d="M267.74,111.67C263.64,89.33,281.84,83,281.84,83,311.6,63.78,378,92.42,384.7,95.18c-4.87-1-33,4.76-20.86,3.16,12.67-1.67,33,26.67,29.67,25.67s-22-1-16,0,22.33,20.33,19.33,18-19,.34-12.67,0,17.33,31.67,15.67,28-10-8-10-8l-5.67,22-0.7.12a19.28,19.28,0,0,0-5.3-1.45L369.84,170l-3.67,12s-3.33-9.67-4-7c-0.52,2.08.18,3.15-7.73,7q-1.58.78-3.65,1.72a3,3,0,0,1-1-1.43c-2-7.33-23.67-35-40-44.67-7.67-4.54-14.31-2.9-19.2.11a30.69,30.69,0,0,0-8.8,8.56l-2-10.33c-22.67,8-20,24-20,24C241.84,132.67,267.74,111.67,267.74,111.67Z"/><path class="cls-2" d="M282.18,190c7.1,14.53,14.76,21.63,21.91,24.56,10.43,4.29,19.76-.31,24.65-3.68a40.18,40.18,0,0,0-.56,5.78s-2.77,4.94-5.61,11.2c-4.2,9.24-8.56,21.36-4.37,24.64-9.48,1.29-21.25-4.39-33-16.84C267.84,217.33,282.18,190,282.18,190Z"/><path class="cls-5" d="M354.44,182L354,185.28a7.85,7.85,0,0,1-3.23-1.51Q352.87,182.82,354.44,182Z"/><path class="cls-5" d="M322.57,227.86c2.84-6.25,5.61-11.2,5.61-11.2a40.18,40.18,0,0,1,.56-5.78c1.2-7.36,5-19.74,16.77-24.8,2-.86,3.75-1.63,5.29-2.33a7.85,7.85,0,0,0,3.23,1.51l0.41-3.23c7.91-3.9,7.21-5,7.73-7,0.67-2.67,4,7,4,7l3.67-12,8.33,12.67a19.28,19.28,0,0,1,5.3,1.45,2.52,2.52,0,0,1,1.7,2c0,2.13,14.59,38.52-11.1,59.16a55.81,55.81,0,0,1-18.79,9.53c-1,.31-2,0.61-3.11.89,0,0-27,2.35-34-3.16C314,249.22,318.37,237.11,322.57,227.86Z"/><g class="cls-9"><path class="cls-10" d="M429.08,350.09c-0.86.71-1.83,3.17-7.16,3.07a8.15,8.15,0,0,0-5,1.71,9.58,9.58,0,0,0-2.26-5l-30.82-32.3c-1.9-2-4.81-3-6.47-2.27a2.41,2.41,0,0,1-1.89,0c4.37-3.78,7.23-6.42,7.15-6.78a3,3,0,0,1-.09-1.84,17,17,0,0,0,2.4-9.15s-1.13-15.26.37-18.76l1.5-3.5c-1.64-.32-2.55-2.7-2-5.29a8.28,8.28,0,0,0-3.11-7.62l-0.55-.39a14,14,0,0,1-4.88-7.85l-1.11-6.66a3.68,3.68,0,0,0-1.08-2.19c25.69-20.63,11.1-57,11.1-59.16a2.52,2.52,0,0,0-1.7-2l0.7-.12,5.67-22s8.33,4.33,10,8-9.33-28.33-15.67-28,9.67-2.34,12.67,0-13.33-17-19.33-18,12.67-1,16,0-17-27.33-29.67-25.67c-12.17,1.6,16-4.18,20.86-3.16C378,92.42,311.6,63.78,281.84,83c0,0-18.2,6.33-14.1,28.67,0,0-25.9,21-7.9,48.33,0,0-2.67-16,20-24l2,10.33a30.69,30.69,0,0,1,8.8-8.56c7.28,7.25,26.11,26.76,25.85,34.56-0.32,9.67-4,9.33-5,11s-0.33,24-.33,24,1.82,3.12-7.09,7.23c-7.14-2.94-14.8-10-21.91-24.56,0,0-14.33,27.33,3,45.67,11.77,12.45,23.55,18.13,33,16.84,7,5.51,34,3.16,34,3.16,1.07-.28,2.1-0.58,3.11-0.89l6.42,7a11.58,11.58,0,0,1,2.64,8.47,4.09,4.09,0,0,0,4.25,4.79h0.25c2.75,0,3.33,1.51,1.29,3.36l-0.59.53a4.82,4.82,0,0,0-.23,7l0.55,0.56c1.91,2,3.42,5.43,3.35,7.68s-1.86,5.51-4,7.26l-35.52,29.18c-0.13.1-.16,0.24-0.28,0.35A43.56,43.56,0,0,0,328,312.61h0l-0.1.39h-0.06a18.59,18.59,0,0,0-3.07-4.3s0,0,.05,0l-0.55-.78c3.81-3.27,8.27-6.61,12.24-10.91,8-8.67-5-27.35-4.17-19.68s-5.17,18.66-4.5,15.33-2.15-8.34-2.15-8.34A22.81,22.81,0,0,1,316,297.88V289l-8,.38c-3.35,3.46-5.93,6.82-6.06,9-0.1,1.66,1.66,2.64,4.32,2.67-2.69,0-4.51-1-4.4-2.67,0.13-2.13,2.67-5.49,6-9,5-5.18,11.91-10.58,15.31-12.38,5.67-3,0-17,0-14.67s-4.67,10-7.33,10.38-1.67-5.71-1.67-5.71c-7.67,10.56-14,16.92-19,20.72,0.24-4.27.57-13.05-.67-13.05-0.81,0-6,2-11,4.08,1.39-4.52,3.14-8.47,5.07-8.74,4.67-.67,6.5-14.33,6.5-14.33s-2.84,7.67-7.5,6.67S289.84,246,289.84,246s-6.33,12.33-10,14,0-7.33,0-7.33c-6.67,5.67-4.44,17.33-4.44,17.33l-7.56,14.88c-2.93-7.26-7.92-20.19-7.92-24.88,0-6.67-9.92,23-9.92,23V390c4,0,6.91-1,8.76-2.62-1.48,0-2.92.07-4.37,0.06,1.43,0,2.85,0,4.33-.06h0c4.44-.15,9-0.53,13.46-1.09,1.16,2.44,5.22,4.25,10.06,4.25,5.75,0,10.41-2.54,10.41-5.67a3.53,3.53,0,0,0-.73-2.08c3-.68,5.91-1.4,8.69-2.14,2.77,2.74,8.12,4.6,14.27,4.6,9,0,16.29-4,16.29-8.88,0-2-1.19-3.78-3.18-5.26,0.92-.51,1.4-0.9,1.37-1.11-0.32-1.93,3.24-2.63,8.22-6.85,12-6.63,34-18.24,34.51-15.18,0.75,4.22,27,44.59,27,44.59a10.32,10.32,0,0,0,7.73,4.19v-0.12c2.05,1.67,5.52,2.21,9,3.37,6.5,2.17,3-5.5,8.33-7s9.67,21.83,9.67,21.83C440.68,397.33,424,383,423,383.5s-2.5,2.67-7.67,1.37a8.14,8.14,0,0,0-5.23.54,9.59,9.59,0,0,0-1.06-5.39l-20.18-34.24c9.37,9.32,19,18.56,19,18.56a10.32,10.32,0,0,0,8.48,2.33v-0.12c2.38,1.16,5.88.9,9.52,1.24,6.82,0.63,1.67-6,6.52-8.71s14.37,19.07,14.37,19.07C449.43,359.55,429.94,349.37,429.08,350.09ZM260.24,385a3.29,3.29,0,0,0,.08-0.64A2.84,2.84,0,0,1,260.24,385Z"/><path class="cls-10" d="M385.18,95.33a1.78,1.78,0,0,0-.48-0.16C385.2,95.38,385.39,95.45,385.18,95.33Z"/></g><path class="cls-5" d="M171.25,465.94V465h5.63v1.88h1.88v1.88h1.88v5.63h-1.87v1.88h-1.87v1.88h-5.62v-1.87h-1.87v-1.87H167.5v-5.62h1.88v-1.87h1.88v-0.94Zm3.75,1.88v-0.94h-3.75v7.5h1.88v1.88h3.75v-7.5H175v-0.94Z"/><path class="cls-5" d="M184.38,465.94V465h9.38v1.88h1.88v7.5h-1.87v1.88h-1.87v1.88h-7.5v-1.87H190v-1.87h1.88V472.5h-7.5v-1.87H182.5v-3.75h1.88v-0.94Zm7.5,2.81v-1.87h-5.62v3.75h5.63v-1.87Z"/><path class="cls-5" d="M199.38,465.94V465h9.38v1.88h1.88v7.5h-1.87v1.88h-1.87v1.88h-7.5v-1.87H205v-1.87h1.88V472.5h-7.5v-1.87H197.5v-3.75h1.88v-0.94Zm7.5,2.81v-1.87h-5.62v3.75h5.63v-1.87Z"/><path class="cls-5" d="M227.5,471.56V465h3.75v5.63h1.88v-1.87H235v-1.87h1.88V465h3.75v1.88h-1.87v1.88h-1.87v1.88H235v1.88h1.88v1.88h1.88v1.88h1.88v1.88H235v-1.87h-1.87v-1.87h-1.87v3.75H227.5v-6.56Z"/><path class="cls-5" d="M244.38,471.56V465h3.75v11.25h7.5v1.88H244.38v-6.56Z"/><path class="cls-5" d="M259.38,465.94V465h11.25v1.88h-3.75v9.38h3.75v1.88H259.38v-1.87h3.75v-9.37h-3.75v-0.94Z"/><path class="cls-5" d="M272.5,471.56V465h3.75v1.88h1.88v1.88H280v1.88h1.88V465h3.75v13.13h-3.75v-1.87H280v-1.87h-1.87V472.5h-1.87v5.63H272.5v-6.56Z"/><path class="cls-5" d="M291.25,465.94V465h9.38v1.88h-7.5v1.88h-1.87v5.63h1.88v1.88h3.75V472.5H295v-1.87h5.63v7.5h-9.37v-1.87h-1.87v-1.87H287.5v-5.62h1.88v-1.87h1.88v-0.94Z"/><path class="cls-5" d="M302.5,471.56V465h13.13v1.88h-9.37v3.75h7.5v1.88h-7.5v3.75h9.38v1.88H302.5v-6.56Z"/><path class="cls-5" d="M317.5,471.56V465h11.25v1.88h1.88v5.63h-3.75v1.88h1.88v1.88h1.88v1.88H325v-1.87h-1.87v-1.87h-1.87v3.75H317.5v-6.56Zm9.38-2.81v-1.87h-5.62v5.63H325v-1.87h1.88v-1.87Z"/></svg>