<?xml version="1.0" ?><!DOCTYPE svg  PUBLIC '-//W3C//DTD SVG 1.1//EN'  'http://www.w3.org/Graphics/SVG/1.1/DTD/svg11.dtd'><svg height="135px" id="Layer_1" style="enable-background:new 0 0 135 135;" version="1.1" viewBox="0 0 135 135" width="135px" xml:space="preserve" xmlns="http://www.w3.org/2000/svg" xmlns:xlink="http://www.w3.org/1999/xlink"><style type="text/css">
<![CDATA[
	.st0{fill:#465652;}
	.st1{fill:#AAB9BA;}
	.st2{fill:#47C67B;}
	.st3{fill:#AAC8D1;}
	.st4{fill:none;stroke:#E83834;stroke-width:6;stroke-linecap:round;stroke-linejoin:round;stroke-miterlimit:10;}
	.st5{fill:#7BC67B;}
	.st6{fill:#7BC7FF;}
	.st7{fill:#7C34C1;}
	.st8{fill:#7C8D96;}
	.st9{fill:#AD2707;}
	.st10{fill:#ADB8BC;}
	.st11{fill:#107510;}
	.st12{fill:#7FE5D8;}
	.st13{fill:#AF4AD1;}
	.st14{fill:#E02B7E;}
	.st15{fill:#E04038;}
	.st16{fill:#AFD7DD;}
	.st17{fill:#E0A010;}
	.st18{fill:#E0D5A4;}
	.st19{fill:#12B2B2;}
	.st20{fill:#12D66B;}
	.st21{fill:#E1A9FF;}
	.st22{fill:#1362A8;}
	.st23{fill:#E2378D;}
	.st24{fill:#E29C37;}
	.st25{fill:#E2B90E;}
	.st26{fill:#E2BF91;}
	.st27{fill:#E2CBAA;}
	.st28{fill:#14A594;}
	.st29{fill:#E4E9ED;}
	.st30{fill:#4A5D60;}
	.st31{fill:#E5B076;}
	.st32{fill:#E5B1C4;}
	.st33{fill:#E5E4C3;}
	.st34{fill:#4B6466;}
	.st35{fill:#E6FF2E;}
	.st36{fill:#18AA67;}
	.st37{fill:#E86207;}
	.st38{fill:#E8A113;}
	.st39{fill:#E8B5A6;}
	.st40{fill:#E8E8ED;}
	.st41{fill:#4E5154;}
	.st42{fill:#E9F1F4;}
	.st43{fill:#4F4B48;}
	.st44{fill:#4F74E8;}
	.st45{fill:#808E93;}
	.st46{fill:#80949B;}
	.st47{fill:#80EDAC;}
	.st48{fill:#B122E0;}
	.st49{fill:#B2C4CC;}
	.st50{fill:#83D839;}
	.st51{fill:#B3C6C6;}
	.st52{fill:none;stroke:#33363A;stroke-width:3;stroke-linecap:round;stroke-linejoin:round;stroke-miterlimit:10;}
	.st53{fill:#1A8E1C;}
	.st54{fill:#1A93D6;}
	.st55{fill:#B50B0B;}
	.st56{fill:#1AD88F;}
	.st57{fill:#B5DAF4;}
	.st58{fill:#EA7B1F;}
	.st59{fill:#EA81BD;}
	.st60{fill:#87B8D6;}
	.st61{fill:#87C3F4;}
	.st62{fill:#EAC79D;}
	.st63{fill:#EADF11;}
	.st64{fill:#EAE4C5;}
	.st65{fill:#B78094;}
	.st66{fill:#8844D8;}
	.st67{fill:#EBF4F7;}
	.st68{fill:#893015;}
	.st69{fill:#89410B;}
	.st70{fill:#899BA3;}
	.st71{fill:#EDE3B9;}
	.st72{enable-background:new    ;}
	.st73{fill:#50FF9F;}
	.st74{fill:#EEDCF4;}
	.st75{fill:#EFA37D;}
	.st76{fill:#EFA3CC;}
	.st77{fill:#EFC99A;}
	.st78{fill:#54AF79;}
	.st79{fill:#BA503A;}
	.st80{fill:#BA8663;}
	.st81{fill:#8B4FE0;}
	.st82{fill:#58ED9B;}
	.st83{fill:#BC7DFF;}
	.st84{fill:#8D9AA3;}
	.st85{fill:#BCCAD3;}
	.st86{fill:#8DE4FF;}
	.st87{fill:#20B518;}
	.st88{fill:#BF44F2;}
	.st89{fill:#21CEA1;}
	.st90{fill:#BFDAE0;}
	.st91{fill:#F0FBFC;}
	.st92{fill:#F2D9A7;}
	.st93{fill:#F2EAC9;}
	.st94{fill:#24D1AF;}
	.st95{fill:#25931C;}
	.st96{fill:#F4C4B3;}
	.st97{fill:#F4D3A2;}
	.st98{fill:#F4D647;}
	.st99{fill:#F4D7B8;}
	.st100{fill:#F4EC8E;}
	.st101{fill:#5B524D;}
	.st102{fill:#F77819;}
	.st103{fill:#F79AE1;}
	.st104{fill:#5E707A;}
	.st105{fill:#F93585;}
	.st106{fill:#F95D5D;}
	.st107{fill:#F9C19B;}
	.st108{fill:#F9CB58;}
	.st109{fill:#F9D2B2;}
	.st110{fill:#F9F07D;}
	.st111{fill:#F9F1D2;}
	.st112{fill:#F9F4B7;}
	.st113{fill:#F9F9E4;}
	.st114{fill:#5F1DAA;}
	.st115{fill:#5F9AD6;}
	.st116{fill:#C0C0C4;}
	.st117{fill:#91EA57;}
	.st118{fill:#C12727;}
	.st119{fill:#C191A0;}
	.st120{fill:#923BB7;}
	.st121{fill:#93A0A3;}
	.st122{fill:#93F9EA;}
	.st123{fill:#93FF5A;}
	.st124{fill:#C4833D;}
	.st125{fill:#95A2A5;}
	.st126{fill:#965514;}
	.st127{fill:#96562C;}
	.st128{fill:#2AF42F;}
	.st129{fill:#C5D7DD;}
	.st130{fill:#C68510;}
	.st131{fill:#C6A86D;}
	.st132{fill:#C6BB8D;}
	.st133{fill:#2C9DCE;}
	.st134{fill:#FBFCF2;}
	.st135{fill:#FC70B0;}
	.st136{fill:#FCE6C8;}
	.st137{fill:#FCF7E3;}
	.st138{fill:#C90D6B;}
	.st139{fill:#FDFEFF;}
	.st140{fill:#FDFFDC;}
	.st141{fill:#FF1A1A;}
	.st142{fill:#FF5252;}
	.st143{fill:#FF5B00;}
	.st144{fill:#FF6155;}
	.st145{fill:#FF630D;}
	.st146{fill:#FF6666;}
	.st147{fill:#FF7676;}
	.st148{fill:#FF7900;}
	.st149{fill:#FF860D;}
	.st150{fill:#FF8B00;}
	.st151{fill:#FF8F8F;}
	.st152{fill:#FF900B;}
	.st153{fill:#FF908A;}
	.st154{fill:#FF960B;}
	.st155{fill:#FF9C0D;}
	.st156{fill:#FFA9D4;}
	.st157{fill:#FFAA00;}
	.st158{fill:#FFAD40;}
	.st159{fill:#FFAF10;}
	.st160{fill:#FFB000;}
	.st161{fill:#FFBE08;}
	.st162{fill:#FFBF31;}
	.st163{fill:#FFC200;}
	.st164{fill:#FFCAE8;}
	.st165{fill:#FFCCF5;}
	.st166{fill:#FFD00B;}
	.st167{fill:#FFD039;}
	.st168{fill:#FFD400;}
	.st169{fill:#FFD833;}
	.st170{fill:#FFDB80;}
	.st171{fill:#FFDDD2;}
	.st172{fill:#FFE6D4;}
	.st173{fill:#FFE6EB;}
	.st174{fill:#FFE98D;}
	.st175{fill:#FFECD2;}
	.st176{fill:#FFF1D9;}
	.st177{fill:#FFF24D;}
	.st178{fill:#FFF3C2;}
	.st179{fill:#FFF4C7;}
	.st180{fill:#FFF800;}
	.st181{fill:#FFF80D;}
	.st182{fill:#FFF9DE;}
	.st183{fill:#FFFBD7;}
	.st184{fill:#FFFBEB;}
	.st185{fill:#FFFCC0;}
	.st186{fill:#FFFCDC;}
	.st187{fill:#FFFFFA;}
	.st188{fill:#FFFFFF;}
	.st189{fill:#63797F;}
	.st190{fill:#65E529;}
	.st191{fill:#66310E;}
	.st192{fill:#663C17;}
	.st193{fill:#9A5AE5;}
	.st194{fill:#CA30EF;}
	.st195{fill:#6892FC;}
	.st196{fill:#9CFFC4;}
	.st197{fill:#CC4306;}
	.st198{fill:#CC549E;}
	.st199{fill:#9E3256;}
	.st200{fill:#CDFFBB;}
	.st201{fill:#CE86AF;}
	.st202{fill:#CED9DD;}
	
		.st203{fill:none;stroke:#33363A;stroke-width:3;stroke-linecap:round;stroke-linejoin:round;stroke-miterlimit:10;stroke-dasharray:6;}
	.st204{fill:#CFE1E2;}
	.st205{fill:#33363A;}
	.st206{fill:#34C166;}
	.st207{fill:#364B5B;}
	.st208{fill:#3662CE;}
	.st209{fill:#36C6FF;}
	.st210{fill:#6ADB9A;}
	.st211{fill:#6D5C4D;}
	.st212{fill:#6EBDF9;}
	.st213{fill:#0031FF;}
	.st214{fill:#0062FF;}
	.st215{fill:#0068FF;}
	.st216{fill:#0086FF;}
	.st217{fill:#009BE8;}
	.st218{fill:#00AAFF;}
	.st219{fill:#D271FF;}
	.st220{fill:#D363A9;}
	.st221{fill:#D3964C;}
	.st222{fill:#D3DFE2;}
	.st223{fill:#D3E0E2;}
	.st224{fill:#D3EFF4;}
	.st225{fill:#063B66;}
	.st226{fill:#D60909;}
	.st227{fill:#D61D1D;}
	.st228{fill:#D7F0FF;}
	.st229{fill:#09B285;}
	.st230{fill:#D8D593;}
	.st231{fill:#D8E2EA;}
	.st232{fill:#D8E5EA;}
	.st233{fill:#3E5054;}
	.st234{fill:#D988FF;}
	.st235{fill:#D9E7E8;}
	.st236{fill:#702252;}
	.st237{fill:#70D3E0;}
	.st238{fill:#A02FF2;}
	.st239{fill:#A2F255;}
	.st240{fill:#A35616;}
	.st241{fill:#A3CCCC;}
	.st242{fill:#0A6ADD;}
	.st243{fill:#A5145D;}
	.st244{fill:#A57555;}
	.st245{fill:#77D6FC;}
	.st246{fill:#7815CE;}
	.st247{fill:#A7BBC1;}
	.st248{fill:#DBD279;}
	.st249{fill:#0D5C9E;}
	.st250{fill:#A83C11;}
	.st251{fill:#A8633D;}
	.st252{fill:#A8A3E5;}
	.st253{fill:#DCE6EA;}
	.st254{fill:#DCE7EA;}
	.st255{fill:#A962E8;}
	.st256{fill:#DD2466;}
	.st257{fill:#DDC38A;}
	.st258{fill:#DDD2B1;}
	.st259{fill:#DFE7E8;}
	.st260{fill:#42B1E8;}
	.st261{fill:#436377;}
	.st262{fill:#43B530;}
]]>
</style><g><g><g><g><g><path class="st161" d="M51.475,48.903c0,1.251-1.015,2.264-2.266,2.264H7.704c-1.25,0-2.265-1.013-2.265-2.264v-5.661       c0-1.251,1.015-2.265,2.265-2.265h41.505c1.251,0,2.266,1.014,2.266,2.265V48.903z"/></g><g><path class="st166" d="M7.704,40.977c-1.193,0-2.161,0.926-2.248,2.098c0.087,1.173,1.055,2.1,2.248,2.1h41.505       c1.194,0,2.162-0.927,2.248-2.1c-0.086-1.172-1.054-2.098-2.248-2.098H7.704z"/></g><g><path class="st205" d="M49.209,52.667H7.704c-2.076,0-3.765-1.688-3.765-3.764v-5.661c0-2.076,1.688-3.765,3.765-3.765h41.505       c2.076,0,3.766,1.689,3.766,3.765v5.661C52.975,50.978,51.285,52.667,49.209,52.667z M7.704,42.477       c-0.422,0-0.765,0.343-0.765,0.765v5.661c0,0.421,0.343,0.764,0.765,0.764h41.505c0.422,0,0.766-0.343,0.766-0.764v-5.661       c0-0.422-0.344-0.765-0.766-0.765H7.704z"/></g></g><g><g><path class="st205" d="M12.032,48.708c-0.828,0-1.5-0.671-1.5-1.5v-2.272c0-0.829,0.672-1.5,1.5-1.5s1.5,0.671,1.5,1.5v2.272       C13.532,48.036,12.86,48.708,12.032,48.708z"/></g><g><path class="st205" d="M17.561,48.708c-0.828,0-1.5-0.671-1.5-1.5v-2.272c0-0.829,0.672-1.5,1.5-1.5s1.5,0.671,1.5,1.5v2.272       C19.061,48.036,18.389,48.708,17.561,48.708z"/></g><g><path class="st205" d="M23.089,48.708c-0.828,0-1.5-0.671-1.5-1.5v-2.272c0-0.829,0.672-1.5,1.5-1.5s1.5,0.671,1.5,1.5v2.272       C24.589,48.036,23.917,48.708,23.089,48.708z"/></g><g><path class="st205" d="M28.617,48.708c-0.828,0-1.5-0.671-1.5-1.5v-2.272c0-0.829,0.672-1.5,1.5-1.5s1.5,0.671,1.5,1.5v2.272       C30.117,48.036,29.445,48.708,28.617,48.708z"/></g><g><path class="st205" d="M34.145,48.708c-0.828,0-1.5-0.671-1.5-1.5v-2.272c0-0.829,0.672-1.5,1.5-1.5s1.5,0.671,1.5,1.5v2.272       C35.645,48.036,34.973,48.708,34.145,48.708z"/></g><g><path class="st205" d="M39.672,48.708c-0.828,0-1.5-0.671-1.5-1.5v-2.272c0-0.829,0.672-1.5,1.5-1.5s1.5,0.671,1.5,1.5v2.272       C41.172,48.036,40.5,48.708,39.672,48.708z"/></g><g><path class="st205" d="M45.201,48.708c-0.828,0-1.5-0.671-1.5-1.5v-2.272c0-0.829,0.672-1.5,1.5-1.5s1.5,0.671,1.5,1.5v2.272       C46.701,48.036,46.029,48.708,45.201,48.708z"/></g></g></g><g><g><g><path class="st161" d="M51.475,59.092c0,1.251-1.015,2.264-2.266,2.264H7.704c-1.25,0-2.265-1.013-2.265-2.264v-5.661       c0-1.251,1.015-2.265,2.265-2.265h41.505c1.251,0,2.266,1.014,2.266,2.265V59.092z"/></g><g><path class="st166" d="M7.704,51.167c-1.193,0-2.161,0.926-2.248,2.098c0.087,1.173,1.055,2.1,2.248,2.1h41.505       c1.194,0,2.162-0.927,2.248-2.1c-0.086-1.172-1.054-2.098-2.248-2.098H7.704z"/></g><g><path class="st205" d="M49.209,62.856H7.704c-2.076,0-3.765-1.688-3.765-3.764v-5.661c0-2.076,1.688-3.765,3.765-3.765h41.505       c2.076,0,3.766,1.689,3.766,3.765v5.661C52.975,61.167,51.285,62.856,49.209,62.856z M7.704,52.667       c-0.422,0-0.765,0.343-0.765,0.765v5.661c0,0.421,0.343,0.764,0.765,0.764h41.505c0.422,0,0.766-0.343,0.766-0.764v-5.661       c0-0.422-0.344-0.765-0.766-0.765H7.704z"/></g></g><g><g><path class="st205" d="M12.032,58.897c-0.828,0-1.5-0.671-1.5-1.5v-2.272c0-0.829,0.672-1.5,1.5-1.5s1.5,0.671,1.5,1.5v2.272       C13.532,58.226,12.86,58.897,12.032,58.897z"/></g><g><path class="st205" d="M17.561,58.897c-0.828,0-1.5-0.671-1.5-1.5v-2.272c0-0.829,0.672-1.5,1.5-1.5s1.5,0.671,1.5,1.5v2.272       C19.061,58.226,18.389,58.897,17.561,58.897z"/></g><g><path class="st205" d="M23.089,58.897c-0.828,0-1.5-0.671-1.5-1.5v-2.272c0-0.829,0.672-1.5,1.5-1.5s1.5,0.671,1.5,1.5v2.272       C24.589,58.226,23.917,58.897,23.089,58.897z"/></g><g><path class="st205" d="M28.617,58.897c-0.828,0-1.5-0.671-1.5-1.5v-2.272c0-0.829,0.672-1.5,1.5-1.5s1.5,0.671,1.5,1.5v2.272       C30.117,58.226,29.445,58.897,28.617,58.897z"/></g><g><path class="st205" d="M34.145,58.897c-0.828,0-1.5-0.671-1.5-1.5v-2.272c0-0.829,0.672-1.5,1.5-1.5s1.5,0.671,1.5,1.5v2.272       C35.645,58.226,34.973,58.897,34.145,58.897z"/></g><g><path class="st205" d="M39.672,58.897c-0.828,0-1.5-0.671-1.5-1.5v-2.272c0-0.829,0.672-1.5,1.5-1.5s1.5,0.671,1.5,1.5v2.272       C41.172,58.226,40.5,58.897,39.672,58.897z"/></g><g><path class="st205" d="M45.201,58.897c-0.828,0-1.5-0.671-1.5-1.5v-2.272c0-0.829,0.672-1.5,1.5-1.5s1.5,0.671,1.5,1.5v2.272       C46.701,58.226,46.029,58.897,45.201,58.897z"/></g></g></g><g><g><g><path class="st161" d="M51.475,69.282c0,1.251-1.015,2.264-2.266,2.264H7.704c-1.25,0-2.265-1.013-2.265-2.264v-5.661       c0-1.251,1.015-2.265,2.265-2.265h41.505c1.251,0,2.266,1.014,2.266,2.265V69.282z"/></g><g><path class="st166" d="M7.704,61.356c-1.193,0-2.161,0.926-2.248,2.098c0.087,1.173,1.055,2.1,2.248,2.1h41.505       c1.194,0,2.162-0.927,2.248-2.1c-0.086-1.172-1.054-2.098-2.248-2.098H7.704z"/></g><g><path class="st205" d="M49.209,73.045H7.704c-2.076,0-3.765-1.688-3.765-3.764v-5.661c0-2.076,1.688-3.765,3.765-3.765h41.505       c2.076,0,3.766,1.689,3.766,3.765v5.661C52.975,71.357,51.285,73.045,49.209,73.045z M7.704,62.856       c-0.422,0-0.765,0.343-0.765,0.765v5.661c0,0.421,0.343,0.764,0.765,0.764h41.505c0.422,0,0.766-0.343,0.766-0.764v-5.661       c0-0.422-0.344-0.765-0.766-0.765H7.704z"/></g></g><g><g><path class="st205" d="M12.032,69.087c-0.828,0-1.5-0.671-1.5-1.5v-2.273c0-0.829,0.672-1.5,1.5-1.5s1.5,0.671,1.5,1.5v2.273       C13.532,68.416,12.86,69.087,12.032,69.087z"/></g><g><path class="st205" d="M17.561,69.087c-0.828,0-1.5-0.671-1.5-1.5v-2.273c0-0.829,0.672-1.5,1.5-1.5s1.5,0.671,1.5,1.5v2.273       C19.061,68.416,18.389,69.087,17.561,69.087z"/></g><g><path class="st205" d="M23.089,69.087c-0.828,0-1.5-0.671-1.5-1.5v-2.273c0-0.829,0.672-1.5,1.5-1.5s1.5,0.671,1.5,1.5v2.273       C24.589,68.416,23.917,69.087,23.089,69.087z"/></g><g><path class="st205" d="M28.617,69.087c-0.828,0-1.5-0.671-1.5-1.5v-2.273c0-0.829,0.672-1.5,1.5-1.5s1.5,0.671,1.5,1.5v2.273       C30.117,68.416,29.445,69.087,28.617,69.087z"/></g><g><path class="st205" d="M34.145,69.087c-0.828,0-1.5-0.671-1.5-1.5v-2.273c0-0.829,0.672-1.5,1.5-1.5s1.5,0.671,1.5,1.5v2.273       C35.645,68.416,34.973,69.087,34.145,69.087z"/></g><g><path class="st205" d="M39.672,69.087c-0.828,0-1.5-0.671-1.5-1.5v-2.273c0-0.829,0.672-1.5,1.5-1.5s1.5,0.671,1.5,1.5v2.273       C41.172,68.416,40.5,69.087,39.672,69.087z"/></g><g><path class="st205" d="M45.201,69.087c-0.828,0-1.5-0.671-1.5-1.5v-2.273c0-0.829,0.672-1.5,1.5-1.5s1.5,0.671,1.5,1.5v2.273       C46.701,68.416,46.029,69.087,45.201,69.087z"/></g></g></g><g><g><g><path class="st161" d="M51.475,79.471c0,1.251-1.015,2.264-2.266,2.264H7.704c-1.25,0-2.265-1.013-2.265-2.264V73.81       c0-1.251,1.015-2.265,2.265-2.265h41.505c1.251,0,2.266,1.014,2.266,2.265V79.471z"/></g><g><path class="st166" d="M7.704,71.545c-1.193,0-2.161,0.926-2.248,2.098c0.087,1.173,1.055,2.1,2.248,2.1h41.505       c1.194,0,2.162-0.927,2.248-2.1c-0.086-1.172-1.054-2.098-2.248-2.098H7.704z"/></g><g><path class="st205" d="M49.209,83.235H7.704c-2.076,0-3.765-1.688-3.765-3.764V73.81c0-2.076,1.688-3.765,3.765-3.765h41.505       c2.076,0,3.766,1.689,3.766,3.765v5.661C52.975,81.546,51.285,83.235,49.209,83.235z M7.704,73.045       c-0.422,0-0.765,0.343-0.765,0.765v5.661c0,0.421,0.343,0.764,0.765,0.764h41.505c0.422,0,0.766-0.343,0.766-0.764V73.81       c0-0.422-0.344-0.765-0.766-0.765H7.704z"/></g></g><g><g><path class="st205" d="M12.032,79.276c-0.828,0-1.5-0.671-1.5-1.5v-2.272c0-0.829,0.672-1.5,1.5-1.5s1.5,0.671,1.5,1.5v2.272       C13.532,78.604,12.86,79.276,12.032,79.276z"/></g><g><path class="st205" d="M17.561,79.276c-0.828,0-1.5-0.671-1.5-1.5v-2.272c0-0.829,0.672-1.5,1.5-1.5s1.5,0.671,1.5,1.5v2.272       C19.061,78.604,18.389,79.276,17.561,79.276z"/></g><g><path class="st205" d="M23.089,79.276c-0.828,0-1.5-0.671-1.5-1.5v-2.272c0-0.829,0.672-1.5,1.5-1.5s1.5,0.671,1.5,1.5v2.272       C24.589,78.604,23.917,79.276,23.089,79.276z"/></g><g><path class="st205" d="M28.617,79.276c-0.828,0-1.5-0.671-1.5-1.5v-2.272c0-0.829,0.672-1.5,1.5-1.5s1.5,0.671,1.5,1.5v2.272       C30.117,78.604,29.445,79.276,28.617,79.276z"/></g><g><path class="st205" d="M34.145,79.276c-0.828,0-1.5-0.671-1.5-1.5v-2.272c0-0.829,0.672-1.5,1.5-1.5s1.5,0.671,1.5,1.5v2.272       C35.645,78.604,34.973,79.276,34.145,79.276z"/></g><g><path class="st205" d="M39.672,79.276c-0.828,0-1.5-0.671-1.5-1.5v-2.272c0-0.829,0.672-1.5,1.5-1.5s1.5,0.671,1.5,1.5v2.272       C41.172,78.604,40.5,79.276,39.672,79.276z"/></g><g><path class="st205" d="M45.201,79.276c-0.828,0-1.5-0.671-1.5-1.5v-2.272c0-0.829,0.672-1.5,1.5-1.5s1.5,0.671,1.5,1.5v2.272       C46.701,78.604,46.029,79.276,45.201,79.276z"/></g></g></g><g><g><g><path class="st161" d="M51.475,89.661c0,1.251-1.015,2.264-2.266,2.264H7.704c-1.25,0-2.265-1.013-2.265-2.264V84       c0-1.251,1.015-2.265,2.265-2.265h41.505c1.251,0,2.266,1.014,2.266,2.265V89.661z"/></g><g><path class="st166" d="M7.704,81.735c-1.193,0-2.161,0.926-2.248,2.098c0.087,1.173,1.055,2.1,2.248,2.1h41.505       c1.194,0,2.162-0.927,2.248-2.1c-0.086-1.172-1.054-2.098-2.248-2.098H7.704z"/></g><g><path class="st205" d="M49.209,93.424H7.704c-2.076,0-3.765-1.688-3.765-3.764V84c0-2.076,1.688-3.765,3.765-3.765h41.505       c2.076,0,3.766,1.689,3.766,3.765v5.661C52.975,91.736,51.285,93.424,49.209,93.424z M7.704,83.235       c-0.422,0-0.765,0.343-0.765,0.765v5.661c0,0.421,0.343,0.764,0.765,0.764h41.505c0.422,0,0.766-0.343,0.766-0.764V84       c0-0.422-0.344-0.765-0.766-0.765H7.704z"/></g></g><g><g><path class="st205" d="M12.032,89.465c-0.828,0-1.5-0.671-1.5-1.5v-2.272c0-0.829,0.672-1.5,1.5-1.5s1.5,0.671,1.5,1.5v2.272       C13.532,88.794,12.86,89.465,12.032,89.465z"/></g><g><path class="st205" d="M17.561,89.465c-0.828,0-1.5-0.671-1.5-1.5v-2.272c0-0.829,0.672-1.5,1.5-1.5s1.5,0.671,1.5,1.5v2.272       C19.061,88.794,18.389,89.465,17.561,89.465z"/></g><g><path class="st205" d="M23.089,89.465c-0.828,0-1.5-0.671-1.5-1.5v-2.272c0-0.829,0.672-1.5,1.5-1.5s1.5,0.671,1.5,1.5v2.272       C24.589,88.794,23.917,89.465,23.089,89.465z"/></g><g><path class="st205" d="M28.617,89.465c-0.828,0-1.5-0.671-1.5-1.5v-2.272c0-0.829,0.672-1.5,1.5-1.5s1.5,0.671,1.5,1.5v2.272       C30.117,88.794,29.445,89.465,28.617,89.465z"/></g><g><path class="st205" d="M34.145,89.465c-0.828,0-1.5-0.671-1.5-1.5v-2.272c0-0.829,0.672-1.5,1.5-1.5s1.5,0.671,1.5,1.5v2.272       C35.645,88.794,34.973,89.465,34.145,89.465z"/></g><g><path class="st205" d="M39.672,89.465c-0.828,0-1.5-0.671-1.5-1.5v-2.272c0-0.829,0.672-1.5,1.5-1.5s1.5,0.671,1.5,1.5v2.272       C41.172,88.794,40.5,89.465,39.672,89.465z"/></g><g><path class="st205" d="M45.201,89.465c-0.828,0-1.5-0.671-1.5-1.5v-2.272c0-0.829,0.672-1.5,1.5-1.5s1.5,0.671,1.5,1.5v2.272       C46.701,88.794,46.029,89.465,45.201,89.465z"/></g></g></g><g><g><g><path class="st161" d="M51.475,99.85c0,1.251-1.015,2.264-2.266,2.264H7.704c-1.25,0-2.265-1.013-2.265-2.264v-5.661       c0-1.251,1.015-2.265,2.265-2.265h41.505c1.251,0,2.266,1.014,2.266,2.265V99.85z"/></g><g><path class="st166" d="M7.704,91.924c-1.193,0-2.161,0.926-2.248,2.098c0.087,1.173,1.055,2.1,2.248,2.1h41.505       c1.194,0,2.162-0.927,2.248-2.1c-0.086-1.172-1.054-2.098-2.248-2.098H7.704z"/></g><g><path class="st205" d="M49.209,103.614H7.704c-2.076,0-3.765-1.688-3.765-3.764v-5.661c0-2.076,1.688-3.765,3.765-3.765h41.505       c2.076,0,3.766,1.689,3.766,3.765v5.661C52.975,101.925,51.285,103.614,49.209,103.614z M7.704,93.424       c-0.422,0-0.765,0.343-0.765,0.765v5.661c0,0.421,0.343,0.764,0.765,0.764h41.505c0.422,0,0.766-0.343,0.766-0.764v-5.661       c0-0.422-0.344-0.765-0.766-0.765H7.704z"/></g></g><g><g><path class="st205" d="M12.032,99.655c-0.828,0-1.5-0.671-1.5-1.5v-2.272c0-0.829,0.672-1.5,1.5-1.5s1.5,0.671,1.5,1.5v2.272       C13.532,98.983,12.86,99.655,12.032,99.655z"/></g><g><path class="st205" d="M17.561,99.655c-0.828,0-1.5-0.671-1.5-1.5v-2.272c0-0.829,0.672-1.5,1.5-1.5s1.5,0.671,1.5,1.5v2.272       C19.061,98.983,18.389,99.655,17.561,99.655z"/></g><g><path class="st205" d="M23.089,99.655c-0.828,0-1.5-0.671-1.5-1.5v-2.272c0-0.829,0.672-1.5,1.5-1.5s1.5,0.671,1.5,1.5v2.272       C24.589,98.983,23.917,99.655,23.089,99.655z"/></g><g><path class="st205" d="M28.617,99.655c-0.828,0-1.5-0.671-1.5-1.5v-2.272c0-0.829,0.672-1.5,1.5-1.5s1.5,0.671,1.5,1.5v2.272       C30.117,98.983,29.445,99.655,28.617,99.655z"/></g><g><path class="st205" d="M34.145,99.655c-0.828,0-1.5-0.671-1.5-1.5v-2.272c0-0.829,0.672-1.5,1.5-1.5s1.5,0.671,1.5,1.5v2.272       C35.645,98.983,34.973,99.655,34.145,99.655z"/></g><g><path class="st205" d="M39.672,99.655c-0.828,0-1.5-0.671-1.5-1.5v-2.272c0-0.829,0.672-1.5,1.5-1.5s1.5,0.671,1.5,1.5v2.272       C41.172,98.983,40.5,99.655,39.672,99.655z"/></g><g><path class="st205" d="M45.201,99.655c-0.828,0-1.5-0.671-1.5-1.5v-2.272c0-0.829,0.672-1.5,1.5-1.5s1.5,0.671,1.5,1.5v2.272       C46.701,98.983,46.029,99.655,45.201,99.655z"/></g></g></g><g><g><g><path class="st161" d="M51.475,110.04c0,1.251-1.015,2.264-2.266,2.264H7.704c-1.25,0-2.265-1.013-2.265-2.264v-5.661       c0-1.25,1.015-2.265,2.265-2.265h41.505c1.251,0,2.266,1.015,2.266,2.265V110.04z"/></g><g><path class="st166" d="M7.704,102.114c-1.193,0-2.161,0.926-2.248,2.098c0.087,1.173,1.055,2.1,2.248,2.1h41.505       c1.194,0,2.162-0.927,2.248-2.1c-0.086-1.172-1.054-2.098-2.248-2.098H7.704z"/></g><g><path class="st205" d="M49.209,113.803H7.704c-2.076,0-3.765-1.688-3.765-3.764v-5.661c0-2.076,1.688-3.765,3.765-3.765h41.505       c2.076,0,3.766,1.689,3.766,3.765v5.661C52.975,112.115,51.285,113.803,49.209,113.803z M7.704,103.614       c-0.422,0-0.765,0.343-0.765,0.765v5.661c0,0.421,0.343,0.764,0.765,0.764h41.505c0.422,0,0.766-0.343,0.766-0.764v-5.661       c0-0.422-0.344-0.765-0.766-0.765H7.704z"/></g></g><g><g><path class="st205" d="M12.032,109.844c-0.828,0-1.5-0.671-1.5-1.5v-2.272c0-0.829,0.672-1.5,1.5-1.5s1.5,0.671,1.5,1.5v2.272       C13.532,109.173,12.86,109.844,12.032,109.844z"/></g><g><path class="st205" d="M17.561,109.844c-0.828,0-1.5-0.671-1.5-1.5v-2.272c0-0.829,0.672-1.5,1.5-1.5s1.5,0.671,1.5,1.5v2.272       C19.061,109.173,18.389,109.844,17.561,109.844z"/></g><g><path class="st205" d="M23.089,109.844c-0.828,0-1.5-0.671-1.5-1.5v-2.272c0-0.829,0.672-1.5,1.5-1.5s1.5,0.671,1.5,1.5v2.272       C24.589,109.173,23.917,109.844,23.089,109.844z"/></g><g><path class="st205" d="M28.617,109.844c-0.828,0-1.5-0.671-1.5-1.5v-2.272c0-0.829,0.672-1.5,1.5-1.5s1.5,0.671,1.5,1.5v2.272       C30.117,109.173,29.445,109.844,28.617,109.844z"/></g><g><path class="st205" d="M34.145,109.844c-0.828,0-1.5-0.671-1.5-1.5v-2.272c0-0.829,0.672-1.5,1.5-1.5s1.5,0.671,1.5,1.5v2.272       C35.645,109.173,34.973,109.844,34.145,109.844z"/></g><g><path class="st205" d="M39.672,109.844c-0.828,0-1.5-0.671-1.5-1.5v-2.272c0-0.829,0.672-1.5,1.5-1.5s1.5,0.671,1.5,1.5v2.272       C41.172,109.173,40.5,109.844,39.672,109.844z"/></g><g><path class="st205" d="M45.201,109.844c-0.828,0-1.5-0.671-1.5-1.5v-2.272c0-0.829,0.672-1.5,1.5-1.5s1.5,0.671,1.5,1.5v2.272       C46.701,109.173,46.029,109.844,45.201,109.844z"/></g></g></g><g><g><g><path class="st161" d="M51.475,120.229c0,1.251-1.015,2.264-2.266,2.264H7.704c-1.25,0-2.265-1.013-2.265-2.264v-5.661       c0-1.251,1.015-2.265,2.265-2.265h41.505c1.251,0,2.266,1.014,2.266,2.265V120.229z"/></g><g><path class="st166" d="M7.704,112.303c-1.193,0-2.161,0.926-2.248,2.098c0.087,1.173,1.055,2.1,2.248,2.1h41.505       c1.194,0,2.162-0.927,2.248-2.1c-0.086-1.172-1.054-2.098-2.248-2.098H7.704z"/></g><g><path class="st205" d="M49.209,123.993H7.704c-2.076,0-3.765-1.688-3.765-3.764v-5.661c0-2.076,1.688-3.765,3.765-3.765h41.505       c2.076,0,3.766,1.689,3.766,3.765v5.661C52.975,122.304,51.285,123.993,49.209,123.993z M7.704,113.803       c-0.422,0-0.765,0.343-0.765,0.765v5.661c0,0.421,0.343,0.764,0.765,0.764h41.505c0.422,0,0.766-0.343,0.766-0.764v-5.661       c0-0.422-0.344-0.765-0.766-0.765H7.704z"/></g></g><g><g><path class="st205" d="M12.032,120.034c-0.828,0-1.5-0.671-1.5-1.5v-2.272c0-0.829,0.672-1.5,1.5-1.5s1.5,0.671,1.5,1.5v2.272       C13.532,119.362,12.86,120.034,12.032,120.034z"/></g><g><path class="st205" d="M17.561,120.034c-0.828,0-1.5-0.671-1.5-1.5v-2.272c0-0.829,0.672-1.5,1.5-1.5s1.5,0.671,1.5,1.5v2.272       C19.061,119.362,18.389,120.034,17.561,120.034z"/></g><g><path class="st205" d="M23.089,120.034c-0.828,0-1.5-0.671-1.5-1.5v-2.272c0-0.829,0.672-1.5,1.5-1.5s1.5,0.671,1.5,1.5v2.272       C24.589,119.362,23.917,120.034,23.089,120.034z"/></g><g><path class="st205" d="M28.617,120.034c-0.828,0-1.5-0.671-1.5-1.5v-2.272c0-0.829,0.672-1.5,1.5-1.5s1.5,0.671,1.5,1.5v2.272       C30.117,119.362,29.445,120.034,28.617,120.034z"/></g><g><path class="st205" d="M34.145,120.034c-0.828,0-1.5-0.671-1.5-1.5v-2.272c0-0.829,0.672-1.5,1.5-1.5s1.5,0.671,1.5,1.5v2.272       C35.645,119.362,34.973,120.034,34.145,120.034z"/></g><g><path class="st205" d="M39.672,120.034c-0.828,0-1.5-0.671-1.5-1.5v-2.272c0-0.829,0.672-1.5,1.5-1.5s1.5,0.671,1.5,1.5v2.272       C41.172,119.362,40.5,120.034,39.672,120.034z"/></g><g><path class="st205" d="M45.201,120.034c-0.828,0-1.5-0.671-1.5-1.5v-2.272c0-0.829,0.672-1.5,1.5-1.5s1.5,0.671,1.5,1.5v2.272       C46.701,119.362,46.029,120.034,45.201,120.034z"/></g></g></g></g><g><g><g><rect class="st145" height="24.821" width="116.722" x="12.839" y="40.977"/></g><g><rect class="st152" height="17.013" width="116.722" x="12.839" y="48.786"/></g><g><rect class="st145" height="8.055" width="116.722" x="12.839" y="57.744"/></g><g><path class="st205" d="M129.561,67.298H12.839c-0.828,0-1.5-0.671-1.5-1.5V40.977c0-0.829,0.672-1.5,1.5-1.5h116.722      c0.828,0,1.5,0.671,1.5,1.5v24.821C131.061,66.627,130.389,67.298,129.561,67.298z M14.339,64.298h113.722V42.477H14.339V64.298      z"/></g></g><g><g><g><g><path class="st161" d="M71.324,40.396c0,1.251-1.014,2.264-2.265,2.264H27.555c-1.25,0-2.264-1.013-2.264-2.264v-5.661        c0-1.251,1.014-2.265,2.264-2.265H69.06c1.251,0,2.265,1.014,2.265,2.265V40.396z"/></g><g><path class="st166" d="M27.555,32.47c-1.193,0-2.161,0.926-2.248,2.098c0.087,1.173,1.055,2.1,2.248,2.1H69.06        c1.194,0,2.162-0.927,2.249-2.1c-0.087-1.172-1.055-2.098-2.249-2.098H27.555z"/></g><g><path class="st205" d="M69.06,44.16H27.555c-2.075,0-3.764-1.688-3.764-3.764v-5.661c0-2.076,1.688-3.765,3.764-3.765H69.06        c2.076,0,3.765,1.689,3.765,3.765v5.661C72.824,42.471,71.136,44.16,69.06,44.16z M27.555,33.97        c-0.421,0-0.764,0.343-0.764,0.765v5.661c0,0.421,0.343,0.764,0.764,0.764H69.06c0.422,0,0.765-0.343,0.765-0.764v-5.661        c0-0.422-0.343-0.765-0.765-0.765H27.555z"/></g></g><g><g><path class="st205" d="M31.883,40.201c-0.828,0-1.5-0.671-1.5-1.5v-2.272c0-0.829,0.672-1.5,1.5-1.5s1.5,0.671,1.5,1.5v2.272        C33.383,39.529,32.711,40.201,31.883,40.201z"/></g><g><path class="st205" d="M37.411,40.201c-0.828,0-1.5-0.671-1.5-1.5v-2.272c0-0.829,0.672-1.5,1.5-1.5s1.5,0.671,1.5,1.5v2.272        C38.911,39.529,38.239,40.201,37.411,40.201z"/></g><g><path class="st205" d="M42.939,40.201c-0.828,0-1.5-0.671-1.5-1.5v-2.272c0-0.829,0.672-1.5,1.5-1.5s1.5,0.671,1.5,1.5v2.272        C44.439,39.529,43.768,40.201,42.939,40.201z"/></g><g><path class="st205" d="M48.467,40.201c-0.828,0-1.5-0.671-1.5-1.5v-2.272c0-0.829,0.672-1.5,1.5-1.5s1.5,0.671,1.5,1.5v2.272        C49.967,39.529,49.295,40.201,48.467,40.201z"/></g><g><path class="st205" d="M53.995,40.201c-0.828,0-1.5-0.671-1.5-1.5v-2.272c0-0.829,0.672-1.5,1.5-1.5s1.5,0.671,1.5,1.5v2.272        C55.495,39.529,54.823,40.201,53.995,40.201z"/></g><g><path class="st205" d="M59.523,40.201c-0.828,0-1.5-0.671-1.5-1.5v-2.272c0-0.829,0.672-1.5,1.5-1.5s1.5,0.671,1.5,1.5v2.272        C61.023,39.529,60.352,40.201,59.523,40.201z"/></g><g><path class="st205" d="M65.051,40.201c-0.828,0-1.5-0.671-1.5-1.5v-2.272c0-0.829,0.672-1.5,1.5-1.5s1.5,0.671,1.5,1.5v2.272        C66.551,39.529,65.879,40.201,65.051,40.201z"/></g></g></g><g><g><g><path class="st161" d="M71.324,50.585c0,1.252-1.014,2.264-2.265,2.264H27.555c-1.25,0-2.264-1.012-2.264-2.264v-5.661        c0-1.251,1.014-2.265,2.264-2.265H69.06c1.251,0,2.265,1.014,2.265,2.265V50.585z"/></g><g><path class="st166" d="M27.555,42.66c-1.193,0-2.161,0.926-2.248,2.098c0.087,1.173,1.055,2.1,2.248,2.1H69.06        c1.194,0,2.162-0.927,2.249-2.1c-0.087-1.172-1.055-2.098-2.249-2.098H27.555z"/></g><g><path class="st205" d="M69.06,54.349H27.555c-2.075,0-3.764-1.688-3.764-3.764v-5.661c0-2.076,1.688-3.765,3.764-3.765H69.06        c2.076,0,3.765,1.689,3.765,3.765v5.661C72.824,52.661,71.136,54.349,69.06,54.349z M27.555,44.16        c-0.421,0-0.764,0.343-0.764,0.765v5.661c0,0.421,0.343,0.764,0.764,0.764H69.06c0.422,0,0.765-0.343,0.765-0.764v-5.661        c0-0.422-0.343-0.765-0.765-0.765H27.555z"/></g></g><g><g><path class="st205" d="M31.883,50.39c-0.828,0-1.5-0.671-1.5-1.5v-2.272c0-0.829,0.672-1.5,1.5-1.5s1.5,0.671,1.5,1.5v2.272        C33.383,49.719,32.711,50.39,31.883,50.39z"/></g><g><path class="st205" d="M37.411,50.39c-0.828,0-1.5-0.671-1.5-1.5v-2.272c0-0.829,0.672-1.5,1.5-1.5s1.5,0.671,1.5,1.5v2.272        C38.911,49.719,38.239,50.39,37.411,50.39z"/></g><g><path class="st205" d="M42.939,50.39c-0.828,0-1.5-0.671-1.5-1.5v-2.272c0-0.829,0.672-1.5,1.5-1.5s1.5,0.671,1.5,1.5v2.272        C44.439,49.719,43.768,50.39,42.939,50.39z"/></g><g><path class="st205" d="M48.467,50.39c-0.828,0-1.5-0.671-1.5-1.5v-2.272c0-0.829,0.672-1.5,1.5-1.5s1.5,0.671,1.5,1.5v2.272        C49.967,49.719,49.295,50.39,48.467,50.39z"/></g><g><path class="st205" d="M53.995,50.39c-0.828,0-1.5-0.671-1.5-1.5v-2.272c0-0.829,0.672-1.5,1.5-1.5s1.5,0.671,1.5,1.5v2.272        C55.495,49.719,54.823,50.39,53.995,50.39z"/></g><g><path class="st205" d="M59.523,50.39c-0.828,0-1.5-0.671-1.5-1.5v-2.272c0-0.829,0.672-1.5,1.5-1.5s1.5,0.671,1.5,1.5v2.272        C61.023,49.719,60.352,50.39,59.523,50.39z"/></g><g><path class="st205" d="M65.051,50.39c-0.828,0-1.5-0.671-1.5-1.5v-2.272c0-0.829,0.672-1.5,1.5-1.5s1.5,0.671,1.5,1.5v2.272        C66.551,49.719,65.879,50.39,65.051,50.39z"/></g></g></g><g><g><g><path class="st161" d="M71.324,60.775c0,1.251-1.014,2.264-2.265,2.264H27.555c-1.25,0-2.264-1.013-2.264-2.264v-5.661        c0-1.251,1.014-2.265,2.264-2.265H69.06c1.251,0,2.265,1.014,2.265,2.265V60.775z"/></g><g><path class="st166" d="M27.555,52.849c-1.193,0-2.161,0.926-2.248,2.098c0.087,1.173,1.055,2.1,2.248,2.1H69.06        c1.194,0,2.162-0.927,2.249-2.1c-0.087-1.172-1.055-2.098-2.249-2.098H27.555z"/></g><g><path class="st205" d="M69.06,64.539H27.555c-2.075,0-3.764-1.688-3.764-3.764v-5.661c0-2.076,1.688-3.765,3.764-3.765H69.06        c2.076,0,3.765,1.689,3.765,3.765v5.661C72.824,62.85,71.136,64.539,69.06,64.539z M27.555,54.349        c-0.421,0-0.764,0.343-0.764,0.765v5.661c0,0.421,0.343,0.764,0.764,0.764H69.06c0.422,0,0.765-0.343,0.765-0.764v-5.661        c0-0.422-0.343-0.765-0.765-0.765H27.555z"/></g></g><g><g><path class="st205" d="M31.883,60.58c-0.828,0-1.5-0.671-1.5-1.5v-2.272c0-0.829,0.672-1.5,1.5-1.5s1.5,0.671,1.5,1.5v2.272        C33.383,59.908,32.711,60.58,31.883,60.58z"/></g><g><path class="st205" d="M37.411,60.58c-0.828,0-1.5-0.671-1.5-1.5v-2.272c0-0.829,0.672-1.5,1.5-1.5s1.5,0.671,1.5,1.5v2.272        C38.911,59.908,38.239,60.58,37.411,60.58z"/></g><g><path class="st205" d="M42.939,60.58c-0.828,0-1.5-0.671-1.5-1.5v-2.272c0-0.829,0.672-1.5,1.5-1.5s1.5,0.671,1.5,1.5v2.272        C44.439,59.908,43.768,60.58,42.939,60.58z"/></g><g><path class="st205" d="M48.467,60.58c-0.828,0-1.5-0.671-1.5-1.5v-2.272c0-0.829,0.672-1.5,1.5-1.5s1.5,0.671,1.5,1.5v2.272        C49.967,59.908,49.295,60.58,48.467,60.58z"/></g><g><path class="st205" d="M53.995,60.58c-0.828,0-1.5-0.671-1.5-1.5v-2.272c0-0.829,0.672-1.5,1.5-1.5s1.5,0.671,1.5,1.5v2.272        C55.495,59.908,54.823,60.58,53.995,60.58z"/></g><g><path class="st205" d="M59.523,60.58c-0.828,0-1.5-0.671-1.5-1.5v-2.272c0-0.829,0.672-1.5,1.5-1.5s1.5,0.671,1.5,1.5v2.272        C61.023,59.908,60.352,60.58,59.523,60.58z"/></g><g><path class="st205" d="M65.051,60.58c-0.828,0-1.5-0.671-1.5-1.5v-2.272c0-0.829,0.672-1.5,1.5-1.5s1.5,0.671,1.5,1.5v2.272        C66.551,59.908,65.879,60.58,65.051,60.58z"/></g></g></g><g><g><g><path class="st161" d="M71.324,70.964c0,1.251-1.014,2.264-2.265,2.264H27.555c-1.25,0-2.264-1.013-2.264-2.264v-5.661        c0-1.251,1.014-2.265,2.264-2.265H69.06c1.251,0,2.265,1.014,2.265,2.265V70.964z"/></g><g><path class="st166" d="M27.555,63.039c-1.193,0-2.161,0.926-2.248,2.098c0.087,1.173,1.055,2.1,2.248,2.1H69.06        c1.194,0,2.162-0.927,2.249-2.1c-0.087-1.172-1.055-2.098-2.249-2.098H27.555z"/></g><g><path class="st205" d="M69.06,74.728H27.555c-2.075,0-3.764-1.688-3.764-3.764v-5.661c0-2.076,1.688-3.765,3.764-3.765H69.06        c2.076,0,3.765,1.689,3.765,3.765v5.661C72.824,73.04,71.136,74.728,69.06,74.728z M27.555,64.539        c-0.421,0-0.764,0.343-0.764,0.765v5.661c0,0.421,0.343,0.764,0.764,0.764H69.06c0.422,0,0.765-0.343,0.765-0.764v-5.661        c0-0.422-0.343-0.765-0.765-0.765H27.555z"/></g></g><g><g><path class="st205" d="M31.883,70.769c-0.828,0-1.5-0.671-1.5-1.5v-2.272c0-0.829,0.672-1.5,1.5-1.5s1.5,0.671,1.5,1.5v2.272        C33.383,70.098,32.711,70.769,31.883,70.769z"/></g><g><path class="st205" d="M37.411,70.769c-0.828,0-1.5-0.671-1.5-1.5v-2.272c0-0.829,0.672-1.5,1.5-1.5s1.5,0.671,1.5,1.5v2.272        C38.911,70.098,38.239,70.769,37.411,70.769z"/></g><g><path class="st205" d="M42.939,70.769c-0.828,0-1.5-0.671-1.5-1.5v-2.272c0-0.829,0.672-1.5,1.5-1.5s1.5,0.671,1.5,1.5v2.272        C44.439,70.098,43.768,70.769,42.939,70.769z"/></g><g><path class="st205" d="M48.467,70.769c-0.828,0-1.5-0.671-1.5-1.5v-2.272c0-0.829,0.672-1.5,1.5-1.5s1.5,0.671,1.5,1.5v2.272        C49.967,70.098,49.295,70.769,48.467,70.769z"/></g><g><path class="st205" d="M53.995,70.769c-0.828,0-1.5-0.671-1.5-1.5v-2.272c0-0.829,0.672-1.5,1.5-1.5s1.5,0.671,1.5,1.5v2.272        C55.495,70.098,54.823,70.769,53.995,70.769z"/></g><g><path class="st205" d="M59.523,70.769c-0.828,0-1.5-0.671-1.5-1.5v-2.272c0-0.829,0.672-1.5,1.5-1.5s1.5,0.671,1.5,1.5v2.272        C61.023,70.098,60.352,70.769,59.523,70.769z"/></g><g><path class="st205" d="M65.051,70.769c-0.828,0-1.5-0.671-1.5-1.5v-2.272c0-0.829,0.672-1.5,1.5-1.5s1.5,0.671,1.5,1.5v2.272        C66.551,70.098,65.879,70.769,65.051,70.769z"/></g></g></g><g><g><g><path class="st161" d="M71.324,81.154c0,1.251-1.014,2.264-2.265,2.264H27.555c-1.25,0-2.264-1.013-2.264-2.264v-5.661        c0-1.251,1.014-2.265,2.264-2.265H69.06c1.251,0,2.265,1.014,2.265,2.265V81.154z"/></g><g><path class="st166" d="M27.555,73.228c-1.193,0-2.161,0.926-2.248,2.098c0.087,1.173,1.055,2.1,2.248,2.1H69.06        c1.194,0,2.162-0.927,2.249-2.1c-0.087-1.172-1.055-2.098-2.249-2.098H27.555z"/></g><g><path class="st205" d="M69.06,84.917H27.555c-2.075,0-3.764-1.688-3.764-3.764v-5.661c0-2.076,1.688-3.765,3.764-3.765H69.06        c2.076,0,3.765,1.689,3.765,3.765v5.661C72.824,83.229,71.136,84.917,69.06,84.917z M27.555,74.728        c-0.421,0-0.764,0.343-0.764,0.765v5.661c0,0.421,0.343,0.764,0.764,0.764H69.06c0.422,0,0.765-0.343,0.765-0.764v-5.661        c0-0.422-0.343-0.765-0.765-0.765H27.555z"/></g></g><g><g><path class="st205" d="M31.883,80.958c-0.828,0-1.5-0.671-1.5-1.5v-2.272c0-0.829,0.672-1.5,1.5-1.5s1.5,0.671,1.5,1.5v2.272        C33.383,80.287,32.711,80.958,31.883,80.958z"/></g><g><path class="st205" d="M37.411,80.958c-0.828,0-1.5-0.671-1.5-1.5v-2.272c0-0.829,0.672-1.5,1.5-1.5s1.5,0.671,1.5,1.5v2.272        C38.911,80.287,38.239,80.958,37.411,80.958z"/></g><g><path class="st205" d="M42.939,80.958c-0.828,0-1.5-0.671-1.5-1.5v-2.272c0-0.829,0.672-1.5,1.5-1.5s1.5,0.671,1.5,1.5v2.272        C44.439,80.287,43.768,80.958,42.939,80.958z"/></g><g><path class="st205" d="M48.467,80.958c-0.828,0-1.5-0.671-1.5-1.5v-2.272c0-0.829,0.672-1.5,1.5-1.5s1.5,0.671,1.5,1.5v2.272        C49.967,80.287,49.295,80.958,48.467,80.958z"/></g><g><path class="st205" d="M53.995,80.958c-0.828,0-1.5-0.671-1.5-1.5v-2.272c0-0.829,0.672-1.5,1.5-1.5s1.5,0.671,1.5,1.5v2.272        C55.495,80.287,54.823,80.958,53.995,80.958z"/></g><g><path class="st205" d="M59.523,80.958c-0.828,0-1.5-0.671-1.5-1.5v-2.272c0-0.829,0.672-1.5,1.5-1.5s1.5,0.671,1.5,1.5v2.272        C61.023,80.287,60.352,80.958,59.523,80.958z"/></g><g><path class="st205" d="M65.051,80.958c-0.828,0-1.5-0.671-1.5-1.5v-2.272c0-0.829,0.672-1.5,1.5-1.5s1.5,0.671,1.5,1.5v2.272        C66.551,80.287,65.879,80.958,65.051,80.958z"/></g></g></g><g><g><g><path class="st161" d="M71.324,91.343c0,1.251-1.014,2.264-2.265,2.264H27.555c-1.25,0-2.264-1.013-2.264-2.264v-5.661        c0-1.251,1.014-2.265,2.264-2.265H69.06c1.251,0,2.265,1.014,2.265,2.265V91.343z"/></g><g><path class="st166" d="M27.555,83.417c-1.193,0-2.161,0.926-2.248,2.098c0.087,1.173,1.055,2.1,2.248,2.1H69.06        c1.194,0,2.162-0.927,2.249-2.1c-0.087-1.172-1.055-2.098-2.249-2.098H27.555z"/></g><g><path class="st205" d="M69.06,95.107H27.555c-2.075,0-3.764-1.688-3.764-3.764v-5.661c0-2.076,1.688-3.765,3.764-3.765H69.06        c2.076,0,3.765,1.689,3.765,3.765v5.661C72.824,93.418,71.136,95.107,69.06,95.107z M27.555,84.917        c-0.421,0-0.764,0.343-0.764,0.765v5.661c0,0.421,0.343,0.764,0.764,0.764H69.06c0.422,0,0.765-0.343,0.765-0.764v-5.661        c0-0.422-0.343-0.765-0.765-0.765H27.555z"/></g></g><g><g><path class="st205" d="M31.883,91.148c-0.828,0-1.5-0.671-1.5-1.5v-2.272c0-0.829,0.672-1.5,1.5-1.5s1.5,0.671,1.5,1.5v2.272        C33.383,90.477,32.711,91.148,31.883,91.148z"/></g><g><path class="st205" d="M37.411,91.148c-0.828,0-1.5-0.671-1.5-1.5v-2.272c0-0.829,0.672-1.5,1.5-1.5s1.5,0.671,1.5,1.5v2.272        C38.911,90.477,38.239,91.148,37.411,91.148z"/></g><g><path class="st205" d="M42.939,91.148c-0.828,0-1.5-0.671-1.5-1.5v-2.272c0-0.829,0.672-1.5,1.5-1.5s1.5,0.671,1.5,1.5v2.272        C44.439,90.477,43.768,91.148,42.939,91.148z"/></g><g><path class="st205" d="M48.467,91.148c-0.828,0-1.5-0.671-1.5-1.5v-2.272c0-0.829,0.672-1.5,1.5-1.5s1.5,0.671,1.5,1.5v2.272        C49.967,90.477,49.295,91.148,48.467,91.148z"/></g><g><path class="st205" d="M53.995,91.148c-0.828,0-1.5-0.671-1.5-1.5v-2.272c0-0.829,0.672-1.5,1.5-1.5s1.5,0.671,1.5,1.5v2.272        C55.495,90.477,54.823,91.148,53.995,91.148z"/></g><g><path class="st205" d="M59.523,91.148c-0.828,0-1.5-0.671-1.5-1.5v-2.272c0-0.829,0.672-1.5,1.5-1.5s1.5,0.671,1.5,1.5v2.272        C61.023,90.477,60.352,91.148,59.523,91.148z"/></g><g><path class="st205" d="M65.051,91.148c-0.828,0-1.5-0.671-1.5-1.5v-2.272c0-0.829,0.672-1.5,1.5-1.5s1.5,0.671,1.5,1.5v2.272        C66.551,90.477,65.879,91.148,65.051,91.148z"/></g></g></g><g><g><g><path class="st161" d="M71.324,101.533c0,1.251-1.014,2.264-2.265,2.264H27.555c-1.25,0-2.264-1.013-2.264-2.264v-5.661        c0-1.251,1.014-2.265,2.264-2.265H69.06c1.251,0,2.265,1.014,2.265,2.265V101.533z"/></g><g><path class="st166" d="M27.555,93.607c-1.193,0-2.161,0.926-2.248,2.098c0.087,1.174,1.055,2.1,2.248,2.1H69.06        c1.194,0,2.162-0.926,2.249-2.1c-0.087-1.172-1.055-2.098-2.249-2.098H27.555z"/></g><g><path class="st205" d="M69.06,105.296H27.555c-2.075,0-3.764-1.688-3.764-3.764v-5.661c0-2.076,1.688-3.765,3.764-3.765H69.06        c2.076,0,3.765,1.689,3.765,3.765v5.661C72.824,103.608,71.136,105.296,69.06,105.296z M27.555,95.107        c-0.421,0-0.764,0.343-0.764,0.765v5.661c0,0.421,0.343,0.764,0.764,0.764H69.06c0.422,0,0.765-0.343,0.765-0.764v-5.661        c0-0.422-0.343-0.765-0.765-0.765H27.555z"/></g></g><g><g><path class="st205" d="M31.883,101.337c-0.828,0-1.5-0.671-1.5-1.5v-2.272c0-0.829,0.672-1.5,1.5-1.5s1.5,0.671,1.5,1.5v2.272        C33.383,100.666,32.711,101.337,31.883,101.337z"/></g><g><path class="st205" d="M37.411,101.337c-0.828,0-1.5-0.671-1.5-1.5v-2.272c0-0.829,0.672-1.5,1.5-1.5s1.5,0.671,1.5,1.5v2.272        C38.911,100.666,38.239,101.337,37.411,101.337z"/></g><g><path class="st205" d="M42.939,101.337c-0.828,0-1.5-0.671-1.5-1.5v-2.272c0-0.829,0.672-1.5,1.5-1.5s1.5,0.671,1.5,1.5v2.272        C44.439,100.666,43.768,101.337,42.939,101.337z"/></g><g><path class="st205" d="M48.467,101.337c-0.828,0-1.5-0.671-1.5-1.5v-2.272c0-0.829,0.672-1.5,1.5-1.5s1.5,0.671,1.5,1.5v2.272        C49.967,100.666,49.295,101.337,48.467,101.337z"/></g><g><path class="st205" d="M53.995,101.337c-0.828,0-1.5-0.671-1.5-1.5v-2.272c0-0.829,0.672-1.5,1.5-1.5s1.5,0.671,1.5,1.5v2.272        C55.495,100.666,54.823,101.337,53.995,101.337z"/></g><g><path class="st205" d="M59.523,101.337c-0.828,0-1.5-0.671-1.5-1.5v-2.272c0-0.829,0.672-1.5,1.5-1.5s1.5,0.671,1.5,1.5v2.272        C61.023,100.666,60.352,101.337,59.523,101.337z"/></g><g><path class="st205" d="M65.051,101.337c-0.828,0-1.5-0.671-1.5-1.5v-2.272c0-0.829,0.672-1.5,1.5-1.5s1.5,0.671,1.5,1.5v2.272        C66.551,100.666,65.879,101.337,65.051,101.337z"/></g></g></g><g><g><g><path class="st161" d="M71.324,111.722c0,1.251-1.014,2.264-2.265,2.264H27.555c-1.25,0-2.264-1.013-2.264-2.264v-5.661        c0-1.251,1.014-2.265,2.264-2.265H69.06c1.251,0,2.265,1.014,2.265,2.265V111.722z"/></g><g><path class="st166" d="M27.555,103.796c-1.193,0-2.161,0.926-2.248,2.098c0.087,1.173,1.055,2.1,2.248,2.1H69.06        c1.194,0,2.162-0.927,2.249-2.1c-0.087-1.172-1.055-2.098-2.249-2.098H27.555z"/></g><g><path class="st205" d="M69.06,115.486H27.555c-2.075,0-3.764-1.688-3.764-3.764v-5.661c0-2.076,1.688-3.765,3.764-3.765H69.06        c2.076,0,3.765,1.689,3.765,3.765v5.661C72.824,113.797,71.136,115.486,69.06,115.486z M27.555,105.296        c-0.421,0-0.764,0.343-0.764,0.765v5.661c0,0.421,0.343,0.764,0.764,0.764H69.06c0.422,0,0.765-0.343,0.765-0.764v-5.661        c0-0.422-0.343-0.765-0.765-0.765H27.555z"/></g></g><g><g><path class="st205" d="M31.883,111.527c-0.828,0-1.5-0.671-1.5-1.5v-2.272c0-0.829,0.672-1.5,1.5-1.5s1.5,0.671,1.5,1.5v2.272        C33.383,110.855,32.711,111.527,31.883,111.527z"/></g><g><path class="st205" d="M37.411,111.527c-0.828,0-1.5-0.671-1.5-1.5v-2.272c0-0.829,0.672-1.5,1.5-1.5s1.5,0.671,1.5,1.5v2.272        C38.911,110.855,38.239,111.527,37.411,111.527z"/></g><g><path class="st205" d="M42.939,111.527c-0.828,0-1.5-0.671-1.5-1.5v-2.272c0-0.829,0.672-1.5,1.5-1.5s1.5,0.671,1.5,1.5v2.272        C44.439,110.855,43.768,111.527,42.939,111.527z"/></g><g><path class="st205" d="M48.467,111.527c-0.828,0-1.5-0.671-1.5-1.5v-2.272c0-0.829,0.672-1.5,1.5-1.5s1.5,0.671,1.5,1.5v2.272        C49.967,110.855,49.295,111.527,48.467,111.527z"/></g><g><path class="st205" d="M53.995,111.527c-0.828,0-1.5-0.671-1.5-1.5v-2.272c0-0.829,0.672-1.5,1.5-1.5s1.5,0.671,1.5,1.5v2.272        C55.495,110.855,54.823,111.527,53.995,111.527z"/></g><g><path class="st205" d="M59.523,111.527c-0.828,0-1.5-0.671-1.5-1.5v-2.272c0-0.829,0.672-1.5,1.5-1.5s1.5,0.671,1.5,1.5v2.272        C61.023,110.855,60.352,111.527,59.523,111.527z"/></g><g><path class="st205" d="M65.051,111.527c-0.828,0-1.5-0.671-1.5-1.5v-2.272c0-0.829,0.672-1.5,1.5-1.5s1.5,0.671,1.5,1.5v2.272        C66.551,110.855,65.879,111.527,65.051,111.527z"/></g></g></g></g><g><g><g><g><path class="st161" d="M117.916,20.433c0,1.251-1.015,2.264-2.266,2.264H74.146c-1.25,0-2.265-1.013-2.265-2.264v-5.661        c0-1.251,1.015-2.265,2.265-2.265h41.505c1.251,0,2.266,1.014,2.266,2.265V20.433z"/></g><g><path class="st166" d="M74.146,12.507c-1.193,0-2.161,0.926-2.248,2.098c0.087,1.173,1.055,2.1,2.248,2.1h41.505        c1.194,0,2.162-0.927,2.248-2.1c-0.086-1.172-1.054-2.098-2.248-2.098H74.146z"/></g><g><path class="st205" d="M115.65,24.197H74.146c-2.076,0-3.765-1.688-3.765-3.764v-5.661c0-2.076,1.688-3.765,3.765-3.765        h41.505c2.076,0,3.766,1.689,3.766,3.765v5.661C119.416,22.508,117.727,24.197,115.65,24.197z M74.146,14.007        c-0.422,0-0.765,0.343-0.765,0.765v5.661c0,0.421,0.343,0.764,0.765,0.764h41.505c0.422,0,0.766-0.343,0.766-0.764v-5.661        c0-0.422-0.344-0.765-0.766-0.765H74.146z"/></g></g><g><g><path class="st205" d="M78.474,20.238c-0.828,0-1.5-0.671-1.5-1.5v-2.272c0-0.829,0.672-1.5,1.5-1.5s1.5,0.671,1.5,1.5v2.272        C79.974,19.566,79.302,20.238,78.474,20.238z"/></g><g><path class="st205" d="M84.002,20.238c-0.828,0-1.5-0.671-1.5-1.5v-2.272c0-0.829,0.672-1.5,1.5-1.5s1.5,0.671,1.5,1.5v2.272        C85.502,19.566,84.83,20.238,84.002,20.238z"/></g><g><path class="st205" d="M89.53,20.238c-0.828,0-1.5-0.671-1.5-1.5v-2.272c0-0.829,0.672-1.5,1.5-1.5s1.5,0.671,1.5,1.5v2.272        C91.03,19.566,90.358,20.238,89.53,20.238z"/></g><g><path class="st205" d="M95.059,20.238c-0.828,0-1.5-0.671-1.5-1.5v-2.272c0-0.829,0.672-1.5,1.5-1.5s1.5,0.671,1.5,1.5v2.272        C96.559,19.566,95.887,20.238,95.059,20.238z"/></g><g><path class="st205" d="M100.586,20.238c-0.828,0-1.5-0.671-1.5-1.5v-2.272c0-0.829,0.672-1.5,1.5-1.5s1.5,0.671,1.5,1.5v2.272        C102.086,19.566,101.414,20.238,100.586,20.238z"/></g><g><path class="st205" d="M106.113,20.238c-0.828,0-1.5-0.671-1.5-1.5v-2.272c0-0.829,0.672-1.5,1.5-1.5s1.5,0.671,1.5,1.5v2.272        C107.613,19.566,106.941,20.238,106.113,20.238z"/></g><g><path class="st205" d="M111.643,20.238c-0.828,0-1.5-0.671-1.5-1.5v-2.272c0-0.829,0.672-1.5,1.5-1.5s1.5,0.671,1.5,1.5v2.272        C113.143,19.566,112.471,20.238,111.643,20.238z"/></g></g></g><g><g><g><path class="st161" d="M117.916,30.623c0,1.251-1.015,2.264-2.266,2.264H74.146c-1.25,0-2.265-1.013-2.265-2.264v-5.661        c0-1.251,1.015-2.265,2.265-2.265h41.505c1.251,0,2.266,1.014,2.266,2.265V30.623z"/></g><g><path class="st166" d="M74.146,22.697c-1.193,0-2.161,0.926-2.248,2.098c0.087,1.173,1.055,2.1,2.248,2.1h41.505        c1.194,0,2.162-0.927,2.248-2.1c-0.086-1.172-1.054-2.098-2.248-2.098H74.146z"/></g><g><path class="st205" d="M115.65,34.386H74.146c-2.076,0-3.765-1.688-3.765-3.764v-5.661c0-2.076,1.688-3.765,3.765-3.765        h41.505c2.076,0,3.766,1.689,3.766,3.765v5.661C119.416,32.698,117.727,34.386,115.65,34.386z M74.146,24.197        c-0.422,0-0.765,0.343-0.765,0.765v5.661c0,0.421,0.343,0.764,0.765,0.764h41.505c0.422,0,0.766-0.343,0.766-0.764v-5.661        c0-0.422-0.344-0.765-0.766-0.765H74.146z"/></g></g><g><g><path class="st205" d="M78.474,30.427c-0.828,0-1.5-0.671-1.5-1.5v-2.272c0-0.829,0.672-1.5,1.5-1.5s1.5,0.671,1.5,1.5v2.272        C79.974,29.756,79.302,30.427,78.474,30.427z"/></g><g><path class="st205" d="M84.002,30.427c-0.828,0-1.5-0.671-1.5-1.5v-2.272c0-0.829,0.672-1.5,1.5-1.5s1.5,0.671,1.5,1.5v2.272        C85.502,29.756,84.83,30.427,84.002,30.427z"/></g><g><path class="st205" d="M89.53,30.427c-0.828,0-1.5-0.671-1.5-1.5v-2.272c0-0.829,0.672-1.5,1.5-1.5s1.5,0.671,1.5,1.5v2.272        C91.03,29.756,90.358,30.427,89.53,30.427z"/></g><g><path class="st205" d="M95.059,30.427c-0.828,0-1.5-0.671-1.5-1.5v-2.272c0-0.829,0.672-1.5,1.5-1.5s1.5,0.671,1.5,1.5v2.272        C96.559,29.756,95.887,30.427,95.059,30.427z"/></g><g><path class="st205" d="M100.586,30.427c-0.828,0-1.5-0.671-1.5-1.5v-2.272c0-0.829,0.672-1.5,1.5-1.5s1.5,0.671,1.5,1.5v2.272        C102.086,29.756,101.414,30.427,100.586,30.427z"/></g><g><path class="st205" d="M106.113,30.427c-0.828,0-1.5-0.671-1.5-1.5v-2.272c0-0.829,0.672-1.5,1.5-1.5s1.5,0.671,1.5,1.5v2.272        C107.613,29.756,106.941,30.427,106.113,30.427z"/></g><g><path class="st205" d="M111.643,30.427c-0.828,0-1.5-0.671-1.5-1.5v-2.272c0-0.829,0.672-1.5,1.5-1.5s1.5,0.671,1.5,1.5v2.272        C113.143,29.756,112.471,30.427,111.643,30.427z"/></g></g></g><g><g><g><path class="st161" d="M117.916,40.812c0,1.251-1.015,2.264-2.266,2.264H74.146c-1.25,0-2.265-1.013-2.265-2.264v-5.661        c0-1.251,1.015-2.265,2.265-2.265h41.505c1.251,0,2.266,1.014,2.266,2.265V40.812z"/></g><g><path class="st166" d="M74.146,32.886c-1.193,0-2.161,0.926-2.248,2.098c0.087,1.173,1.055,2.1,2.248,2.1h41.505        c1.194,0,2.162-0.927,2.248-2.1c-0.086-1.172-1.054-2.098-2.248-2.098H74.146z"/></g><g><path class="st205" d="M115.65,44.576H74.146c-2.076,0-3.765-1.688-3.765-3.764v-5.661c0-2.076,1.688-3.765,3.765-3.765        h41.505c2.076,0,3.766,1.689,3.766,3.765v5.661C119.416,42.887,117.727,44.576,115.65,44.576z M74.146,34.386        c-0.422,0-0.765,0.343-0.765,0.765v5.661c0,0.421,0.343,0.764,0.765,0.764h41.505c0.422,0,0.766-0.343,0.766-0.764v-5.661        c0-0.422-0.344-0.765-0.766-0.765H74.146z"/></g></g><g><g><path class="st205" d="M78.474,40.617c-0.828,0-1.5-0.671-1.5-1.5v-2.272c0-0.829,0.672-1.5,1.5-1.5s1.5,0.671,1.5,1.5v2.272        C79.974,39.945,79.302,40.617,78.474,40.617z"/></g><g><path class="st205" d="M84.002,40.617c-0.828,0-1.5-0.671-1.5-1.5v-2.272c0-0.829,0.672-1.5,1.5-1.5s1.5,0.671,1.5,1.5v2.272        C85.502,39.945,84.83,40.617,84.002,40.617z"/></g><g><path class="st205" d="M89.53,40.617c-0.828,0-1.5-0.671-1.5-1.5v-2.272c0-0.829,0.672-1.5,1.5-1.5s1.5,0.671,1.5,1.5v2.272        C91.03,39.945,90.358,40.617,89.53,40.617z"/></g><g><path class="st205" d="M95.059,40.617c-0.828,0-1.5-0.671-1.5-1.5v-2.272c0-0.829,0.672-1.5,1.5-1.5s1.5,0.671,1.5,1.5v2.272        C96.559,39.945,95.887,40.617,95.059,40.617z"/></g><g><path class="st205" d="M100.586,40.617c-0.828,0-1.5-0.671-1.5-1.5v-2.272c0-0.829,0.672-1.5,1.5-1.5s1.5,0.671,1.5,1.5v2.272        C102.086,39.945,101.414,40.617,100.586,40.617z"/></g><g><path class="st205" d="M106.113,40.617c-0.828,0-1.5-0.671-1.5-1.5v-2.272c0-0.829,0.672-1.5,1.5-1.5s1.5,0.671,1.5,1.5v2.272        C107.613,39.945,106.941,40.617,106.113,40.617z"/></g><g><path class="st205" d="M111.643,40.617c-0.828,0-1.5-0.671-1.5-1.5v-2.272c0-0.829,0.672-1.5,1.5-1.5s1.5,0.671,1.5,1.5v2.272        C113.143,39.945,112.471,40.617,111.643,40.617z"/></g></g></g><g><g><g><path class="st161" d="M117.916,51.001c0,1.252-1.015,2.264-2.266,2.264H74.146c-1.25,0-2.265-1.012-2.265-2.264V45.34        c0-1.251,1.015-2.265,2.265-2.265h41.505c1.251,0,2.266,1.014,2.266,2.265V51.001z"/></g><g><path class="st166" d="M74.146,43.076c-1.193,0-2.161,0.926-2.248,2.098c0.087,1.173,1.055,2.1,2.248,2.1h41.505        c1.194,0,2.162-0.927,2.248-2.1c-0.086-1.172-1.054-2.098-2.248-2.098H74.146z"/></g><g><path class="st205" d="M115.65,54.765H74.146c-2.076,0-3.765-1.688-3.765-3.764V45.34c0-2.076,1.688-3.765,3.765-3.765h41.505        c2.076,0,3.766,1.689,3.766,3.765v5.661C119.416,53.077,117.727,54.765,115.65,54.765z M74.146,44.576        c-0.422,0-0.765,0.343-0.765,0.765v5.661c0,0.421,0.343,0.764,0.765,0.764h41.505c0.422,0,0.766-0.343,0.766-0.764V45.34        c0-0.422-0.344-0.765-0.766-0.765H74.146z"/></g></g><g><g><path class="st205" d="M78.474,50.806c-0.828,0-1.5-0.671-1.5-1.5v-2.272c0-0.829,0.672-1.5,1.5-1.5s1.5,0.671,1.5,1.5v2.272        C79.974,50.135,79.302,50.806,78.474,50.806z"/></g><g><path class="st205" d="M84.002,50.806c-0.828,0-1.5-0.671-1.5-1.5v-2.272c0-0.829,0.672-1.5,1.5-1.5s1.5,0.671,1.5,1.5v2.272        C85.502,50.135,84.83,50.806,84.002,50.806z"/></g><g><path class="st205" d="M89.53,50.806c-0.828,0-1.5-0.671-1.5-1.5v-2.272c0-0.829,0.672-1.5,1.5-1.5s1.5,0.671,1.5,1.5v2.272        C91.03,50.135,90.358,50.806,89.53,50.806z"/></g><g><path class="st205" d="M95.059,50.806c-0.828,0-1.5-0.671-1.5-1.5v-2.272c0-0.829,0.672-1.5,1.5-1.5s1.5,0.671,1.5,1.5v2.272        C96.559,50.135,95.887,50.806,95.059,50.806z"/></g><g><path class="st205" d="M100.586,50.806c-0.828,0-1.5-0.671-1.5-1.5v-2.272c0-0.829,0.672-1.5,1.5-1.5s1.5,0.671,1.5,1.5v2.272        C102.086,50.135,101.414,50.806,100.586,50.806z"/></g><g><path class="st205" d="M106.113,50.806c-0.828,0-1.5-0.671-1.5-1.5v-2.272c0-0.829,0.672-1.5,1.5-1.5s1.5,0.671,1.5,1.5v2.272        C107.613,50.135,106.941,50.806,106.113,50.806z"/></g><g><path class="st205" d="M111.643,50.806c-0.828,0-1.5-0.671-1.5-1.5v-2.272c0-0.829,0.672-1.5,1.5-1.5s1.5,0.671,1.5,1.5v2.272        C113.143,50.135,112.471,50.806,111.643,50.806z"/></g></g></g><g><g><g><path class="st161" d="M117.916,61.191c0,1.251-1.015,2.264-2.266,2.264H74.146c-1.25,0-2.265-1.013-2.265-2.264V55.53        c0-1.251,1.015-2.265,2.265-2.265h41.505c1.251,0,2.266,1.014,2.266,2.265V61.191z"/></g><g><path class="st166" d="M74.146,53.265c-1.193,0-2.161,0.926-2.248,2.098c0.087,1.173,1.055,2.1,2.248,2.1h41.505        c1.194,0,2.162-0.927,2.248-2.1c-0.086-1.172-1.054-2.098-2.248-2.098H74.146z"/></g><g><path class="st205" d="M115.65,64.955H74.146c-2.076,0-3.765-1.688-3.765-3.764V55.53c0-2.076,1.688-3.765,3.765-3.765h41.505        c2.076,0,3.766,1.689,3.766,3.765v5.661C119.416,63.266,117.727,64.955,115.65,64.955z M74.146,54.765        c-0.422,0-0.765,0.343-0.765,0.765v5.661c0,0.421,0.343,0.764,0.765,0.764h41.505c0.422,0,0.766-0.343,0.766-0.764V55.53        c0-0.422-0.344-0.765-0.766-0.765H74.146z"/></g></g><g><g><path class="st205" d="M78.474,60.996c-0.828,0-1.5-0.671-1.5-1.5v-2.272c0-0.829,0.672-1.5,1.5-1.5s1.5,0.671,1.5,1.5v2.272        C79.974,60.324,79.302,60.996,78.474,60.996z"/></g><g><path class="st205" d="M84.002,60.996c-0.828,0-1.5-0.671-1.5-1.5v-2.272c0-0.829,0.672-1.5,1.5-1.5s1.5,0.671,1.5,1.5v2.272        C85.502,60.324,84.83,60.996,84.002,60.996z"/></g><g><path class="st205" d="M89.53,60.996c-0.828,0-1.5-0.671-1.5-1.5v-2.272c0-0.829,0.672-1.5,1.5-1.5s1.5,0.671,1.5,1.5v2.272        C91.03,60.324,90.358,60.996,89.53,60.996z"/></g><g><path class="st205" d="M95.059,60.996c-0.828,0-1.5-0.671-1.5-1.5v-2.272c0-0.829,0.672-1.5,1.5-1.5s1.5,0.671,1.5,1.5v2.272        C96.559,60.324,95.887,60.996,95.059,60.996z"/></g><g><path class="st205" d="M100.586,60.996c-0.828,0-1.5-0.671-1.5-1.5v-2.272c0-0.829,0.672-1.5,1.5-1.5s1.5,0.671,1.5,1.5v2.272        C102.086,60.324,101.414,60.996,100.586,60.996z"/></g><g><path class="st205" d="M106.113,60.996c-0.828,0-1.5-0.671-1.5-1.5v-2.272c0-0.829,0.672-1.5,1.5-1.5s1.5,0.671,1.5,1.5v2.272        C107.613,60.324,106.941,60.996,106.113,60.996z"/></g><g><path class="st205" d="M111.643,60.996c-0.828,0-1.5-0.671-1.5-1.5v-2.272c0-0.829,0.672-1.5,1.5-1.5s1.5,0.671,1.5,1.5v2.272        C113.143,60.324,112.471,60.996,111.643,60.996z"/></g></g></g><g><g><g><path class="st161" d="M117.916,71.38c0,1.251-1.015,2.264-2.266,2.264H74.146c-1.25,0-2.265-1.013-2.265-2.264v-5.661        c0-1.251,1.015-2.265,2.265-2.265h41.505c1.251,0,2.266,1.014,2.266,2.265V71.38z"/></g><g><path class="st166" d="M74.146,63.455c-1.193,0-2.161,0.926-2.248,2.098c0.087,1.173,1.055,2.1,2.248,2.1h41.505        c1.194,0,2.162-0.927,2.248-2.1c-0.086-1.172-1.054-2.098-2.248-2.098H74.146z"/></g><g><path class="st205" d="M115.65,75.144H74.146c-2.076,0-3.765-1.688-3.765-3.764v-5.661c0-2.076,1.688-3.765,3.765-3.765        h41.505c2.076,0,3.766,1.689,3.766,3.765v5.661C119.416,73.456,117.727,75.144,115.65,75.144z M74.146,64.955        c-0.422,0-0.765,0.343-0.765,0.765v5.661c0,0.421,0.343,0.764,0.765,0.764h41.505c0.422,0,0.766-0.343,0.766-0.764v-5.661        c0-0.422-0.344-0.765-0.766-0.765H74.146z"/></g></g><g><g><path class="st205" d="M78.474,71.185c-0.828,0-1.5-0.671-1.5-1.5v-2.272c0-0.829,0.672-1.5,1.5-1.5s1.5,0.671,1.5,1.5v2.272        C79.974,70.514,79.302,71.185,78.474,71.185z"/></g><g><path class="st205" d="M84.002,71.185c-0.828,0-1.5-0.671-1.5-1.5v-2.272c0-0.829,0.672-1.5,1.5-1.5s1.5,0.671,1.5,1.5v2.272        C85.502,70.514,84.83,71.185,84.002,71.185z"/></g><g><path class="st205" d="M89.53,71.185c-0.828,0-1.5-0.671-1.5-1.5v-2.272c0-0.829,0.672-1.5,1.5-1.5s1.5,0.671,1.5,1.5v2.272        C91.03,70.514,90.358,71.185,89.53,71.185z"/></g><g><path class="st205" d="M95.059,71.185c-0.828,0-1.5-0.671-1.5-1.5v-2.272c0-0.829,0.672-1.5,1.5-1.5s1.5,0.671,1.5,1.5v2.272        C96.559,70.514,95.887,71.185,95.059,71.185z"/></g><g><path class="st205" d="M100.586,71.185c-0.828,0-1.5-0.671-1.5-1.5v-2.272c0-0.829,0.672-1.5,1.5-1.5s1.5,0.671,1.5,1.5v2.272        C102.086,70.514,101.414,71.185,100.586,71.185z"/></g><g><path class="st205" d="M106.113,71.185c-0.828,0-1.5-0.671-1.5-1.5v-2.272c0-0.829,0.672-1.5,1.5-1.5s1.5,0.671,1.5,1.5v2.272        C107.613,70.514,106.941,71.185,106.113,71.185z"/></g><g><path class="st205" d="M111.643,71.185c-0.828,0-1.5-0.671-1.5-1.5v-2.272c0-0.829,0.672-1.5,1.5-1.5s1.5,0.671,1.5,1.5v2.272        C113.143,70.514,112.471,71.185,111.643,71.185z"/></g></g></g><g><g><g><path class="st161" d="M117.916,81.57c0,1.251-1.015,2.264-2.266,2.264H74.146c-1.25,0-2.265-1.013-2.265-2.264v-5.661        c0-1.251,1.015-2.265,2.265-2.265h41.505c1.251,0,2.266,1.014,2.266,2.265V81.57z"/></g><g><path class="st166" d="M74.146,73.644c-1.193,0-2.161,0.926-2.248,2.098c0.087,1.173,1.055,2.1,2.248,2.1h41.505        c1.194,0,2.162-0.927,2.248-2.1c-0.086-1.172-1.054-2.098-2.248-2.098H74.146z"/></g><g><path class="st205" d="M115.65,85.333H74.146c-2.076,0-3.765-1.688-3.765-3.764v-5.661c0-2.076,1.688-3.765,3.765-3.765        h41.505c2.076,0,3.766,1.689,3.766,3.765v5.661C119.416,83.645,117.727,85.333,115.65,85.333z M74.146,75.144        c-0.422,0-0.765,0.343-0.765,0.765v5.661c0,0.421,0.343,0.764,0.765,0.764h41.505c0.422,0,0.766-0.343,0.766-0.764v-5.661        c0-0.422-0.344-0.765-0.766-0.765H74.146z"/></g></g><g><g><path class="st205" d="M78.474,81.375c-0.828,0-1.5-0.671-1.5-1.5v-2.272c0-0.829,0.672-1.5,1.5-1.5s1.5,0.671,1.5,1.5v2.272        C79.974,80.703,79.302,81.375,78.474,81.375z"/></g><g><path class="st205" d="M84.002,81.375c-0.828,0-1.5-0.671-1.5-1.5v-2.272c0-0.829,0.672-1.5,1.5-1.5s1.5,0.671,1.5,1.5v2.272        C85.502,80.703,84.83,81.375,84.002,81.375z"/></g><g><path class="st205" d="M89.53,81.375c-0.828,0-1.5-0.671-1.5-1.5v-2.272c0-0.829,0.672-1.5,1.5-1.5s1.5,0.671,1.5,1.5v2.272        C91.03,80.703,90.358,81.375,89.53,81.375z"/></g><g><path class="st205" d="M95.059,81.375c-0.828,0-1.5-0.671-1.5-1.5v-2.272c0-0.829,0.672-1.5,1.5-1.5s1.5,0.671,1.5,1.5v2.272        C96.559,80.703,95.887,81.375,95.059,81.375z"/></g><g><path class="st205" d="M100.586,81.375c-0.828,0-1.5-0.671-1.5-1.5v-2.272c0-0.829,0.672-1.5,1.5-1.5s1.5,0.671,1.5,1.5v2.272        C102.086,80.703,101.414,81.375,100.586,81.375z"/></g><g><path class="st205" d="M106.113,81.375c-0.828,0-1.5-0.671-1.5-1.5v-2.272c0-0.829,0.672-1.5,1.5-1.5s1.5,0.671,1.5,1.5v2.272        C107.613,80.703,106.941,81.375,106.113,81.375z"/></g><g><path class="st205" d="M111.643,81.375c-0.828,0-1.5-0.671-1.5-1.5v-2.272c0-0.829,0.672-1.5,1.5-1.5s1.5,0.671,1.5,1.5v2.272        C113.143,80.703,112.471,81.375,111.643,81.375z"/></g></g></g><g><g><g><path class="st161" d="M117.916,91.759c0,1.251-1.015,2.264-2.266,2.264H74.146c-1.25,0-2.265-1.013-2.265-2.264v-5.661        c0-1.251,1.015-2.265,2.265-2.265h41.505c1.251,0,2.266,1.014,2.266,2.265V91.759z"/></g><g><path class="st166" d="M74.146,83.833c-1.193,0-2.161,0.926-2.248,2.098c0.087,1.173,1.055,2.1,2.248,2.1h41.505        c1.194,0,2.162-0.927,2.248-2.1c-0.086-1.172-1.054-2.098-2.248-2.098H74.146z"/></g><g><path class="st205" d="M115.65,95.523H74.146c-2.076,0-3.765-1.688-3.765-3.764v-5.661c0-2.076,1.688-3.765,3.765-3.765        h41.505c2.076,0,3.766,1.689,3.766,3.765v5.661C119.416,93.834,117.727,95.523,115.65,95.523z M74.146,85.333        c-0.422,0-0.765,0.343-0.765,0.765v5.661c0,0.421,0.343,0.764,0.765,0.764h41.505c0.422,0,0.766-0.343,0.766-0.764v-5.661        c0-0.422-0.344-0.765-0.766-0.765H74.146z"/></g></g><g><g><path class="st205" d="M78.474,91.564c-0.828,0-1.5-0.671-1.5-1.5v-2.272c0-0.829,0.672-1.5,1.5-1.5s1.5,0.671,1.5,1.5v2.272        C79.974,90.893,79.302,91.564,78.474,91.564z"/></g><g><path class="st205" d="M84.002,91.564c-0.828,0-1.5-0.671-1.5-1.5v-2.272c0-0.829,0.672-1.5,1.5-1.5s1.5,0.671,1.5,1.5v2.272        C85.502,90.893,84.83,91.564,84.002,91.564z"/></g><g><path class="st205" d="M89.53,91.564c-0.828,0-1.5-0.671-1.5-1.5v-2.272c0-0.829,0.672-1.5,1.5-1.5s1.5,0.671,1.5,1.5v2.272        C91.03,90.893,90.358,91.564,89.53,91.564z"/></g><g><path class="st205" d="M95.059,91.564c-0.828,0-1.5-0.671-1.5-1.5v-2.272c0-0.829,0.672-1.5,1.5-1.5s1.5,0.671,1.5,1.5v2.272        C96.559,90.893,95.887,91.564,95.059,91.564z"/></g><g><path class="st205" d="M100.586,91.564c-0.828,0-1.5-0.671-1.5-1.5v-2.272c0-0.829,0.672-1.5,1.5-1.5s1.5,0.671,1.5,1.5v2.272        C102.086,90.893,101.414,91.564,100.586,91.564z"/></g><g><path class="st205" d="M106.113,91.564c-0.828,0-1.5-0.671-1.5-1.5v-2.272c0-0.829,0.672-1.5,1.5-1.5s1.5,0.671,1.5,1.5v2.272        C107.613,90.893,106.941,91.564,106.113,91.564z"/></g><g><path class="st205" d="M111.643,91.564c-0.828,0-1.5-0.671-1.5-1.5v-2.272c0-0.829,0.672-1.5,1.5-1.5s1.5,0.671,1.5,1.5v2.272        C113.143,90.893,112.471,91.564,111.643,91.564z"/></g></g></g></g><g><g><rect class="st1" height="70.058" width="105.242" x="18.578" y="52.435"/></g><g><rect class="st259" height="61.657" width="105.242" x="18.578" y="60.835"/></g><g><rect class="st188" height="17.733" width="105.242" x="18.578" y="104.759"/></g><g><path class="st205" d="M123.82,123.993H18.578c-0.828,0-1.5-0.671-1.5-1.5V52.435c0-0.829,0.672-1.5,1.5-1.5H123.82      c0.828,0,1.5,0.671,1.5,1.5v70.058C125.32,123.321,124.648,123.993,123.82,123.993z M20.078,120.993H122.32V53.935H20.078      V120.993z"/></g></g><g><g><g><path class="st1" d="M44.285,76.287c0,1.322-1.07,2.393-2.392,2.393h-8.649c-1.32,0-2.392-1.07-2.392-2.393V59.128       c0-1.322,1.071-2.393,2.392-2.393h8.649c1.321,0,2.392,1.07,2.392,2.393V76.287z"/></g><g><path class="st90" d="M44.285,70.8c0,1.322-1.07,2.393-2.392,2.393h-8.649c-1.32,0-2.392-1.07-2.392-2.393V53.642       c0-1.321,1.071-2.393,2.392-2.393h8.649c1.321,0,2.392,1.071,2.392,2.393V70.8z"/></g><g><path class="st188" d="M41.894,51.25h-8.649c-1.32,0-2.392,1.071-2.392,2.393v6.187c0,1.323,1.071,2.394,2.392,2.394h8.649       c1.321,0,2.392-1.07,2.392-2.394v-6.187C44.285,52.321,43.215,51.25,41.894,51.25z"/></g><g><path class="st205" d="M41.894,74.693h-8.649c-2.146,0-3.892-1.746-3.892-3.893V53.642c0-2.146,1.746-3.893,3.892-3.893h8.649       c2.146,0,3.892,1.746,3.892,3.893V70.8C45.785,72.947,44.039,74.693,41.894,74.693z M33.244,52.75       c-0.491,0-0.892,0.4-0.892,0.893V70.8c0,0.492,0.4,0.893,0.892,0.893h8.649c0.491,0,0.892-0.4,0.892-0.893V53.642       c0-0.492-0.4-0.893-0.892-0.893H33.244z"/></g><g><g><path class="st205" d="M35.327,65.314c-0.828,0-1.5-0.671-1.5-1.5v-2.726c0-0.829,0.672-1.5,1.5-1.5s1.5,0.671,1.5,1.5v2.726        C36.827,64.643,36.155,65.314,35.327,65.314z"/></g><g><path class="st205" d="M39.811,65.314c-0.828,0-1.5-0.671-1.5-1.5v-2.726c0-0.829,0.672-1.5,1.5-1.5s1.5,0.671,1.5,1.5v2.726        C41.311,64.643,40.639,65.314,39.811,65.314z"/></g></g></g><g><g><path class="st1" d="M111.546,76.287c0,1.322-1.071,2.393-2.394,2.393h-8.648c-1.32,0-2.393-1.07-2.393-2.393V59.128       c0-1.322,1.072-2.393,2.393-2.393h8.648c1.322,0,2.394,1.07,2.394,2.393V76.287z"/></g><g><path class="st90" d="M111.546,70.8c0,1.322-1.071,2.393-2.394,2.393h-8.648c-1.32,0-2.393-1.07-2.393-2.393V53.642       c0-1.321,1.072-2.393,2.393-2.393h8.648c1.322,0,2.394,1.071,2.394,2.393V70.8z"/></g><g><path class="st188" d="M109.152,51.25h-8.648c-1.32,0-2.393,1.071-2.393,2.393v6.187c0,1.323,1.072,2.394,2.393,2.394h8.648       c1.322,0,2.394-1.07,2.394-2.394v-6.187C111.546,52.321,110.475,51.25,109.152,51.25z"/></g><g><path class="st205" d="M109.152,74.693h-8.648c-2.146,0-3.893-1.746-3.893-3.893V53.642c0-2.146,1.746-3.893,3.893-3.893h8.648       c2.146,0,3.894,1.746,3.894,3.893V70.8C113.046,72.947,111.299,74.693,109.152,74.693z M100.504,52.75       c-0.492,0-0.893,0.4-0.893,0.893V70.8c0,0.492,0.4,0.893,0.893,0.893h8.648c0.493,0,0.894-0.4,0.894-0.893V53.642       c0-0.492-0.4-0.893-0.894-0.893H100.504z"/></g><g><g><path class="st205" d="M102.586,65.314c-0.828,0-1.5-0.671-1.5-1.5v-2.726c0-0.829,0.672-1.5,1.5-1.5s1.5,0.671,1.5,1.5v2.726        C104.086,64.643,103.414,65.314,102.586,65.314z"/></g><g><path class="st205" d="M107.071,65.314c-0.828,0-1.5-0.671-1.5-1.5v-2.726c0-0.829,0.672-1.5,1.5-1.5s1.5,0.671,1.5,1.5v2.726        C108.571,64.643,107.899,65.314,107.071,65.314z"/></g></g></g></g></g><g><g><g><circle class="st166" cx="71.2" cy="88.594" r="27.611"/></g><g><path class="st161" d="M71.199,60.984v55.222c15.249,0,27.611-12.362,27.611-27.611C98.811,73.347,86.448,60.984,71.199,60.984z      "/></g><g><path class="st205" d="M71.199,117.706c-16.052,0-29.11-13.059-29.11-29.111c0-16.051,13.059-29.11,29.11-29.11      s29.111,13.059,29.111,29.11C100.311,104.646,87.251,117.706,71.199,117.706z M71.199,62.484      c-14.397,0-26.11,11.713-26.11,26.11c0,14.398,11.713,26.111,26.11,26.111s26.111-11.713,26.111-26.111      C97.311,74.197,85.597,62.484,71.199,62.484z"/></g></g><g><g><circle class="st166" cx="71.199" cy="88.595" r="21.374"/></g><g><path class="st161" d="M56.086,73.482l30.228,30.227c8.348-8.347,8.348-21.881-0.001-30.227      C77.967,65.135,64.433,65.134,56.086,73.482z"/></g><g><path class="st205" d="M71.199,111.47c-6.109,0-11.854-2.38-16.175-6.701c-4.32-4.32-6.699-10.064-6.699-16.174      s2.38-11.854,6.7-16.173c4.319-4.32,10.063-6.7,16.174-6.7s11.854,2.379,16.174,6.7c4.321,4.319,6.701,10.063,6.701,16.173      s-2.38,11.854-6.7,16.174C83.054,109.09,77.31,111.47,71.199,111.47z M71.199,68.722c-5.309,0-10.299,2.067-14.053,5.821      c-3.754,3.753-5.821,8.744-5.821,14.052s2.066,10.299,5.82,14.053c3.754,3.754,8.745,5.822,14.054,5.822      c5.31,0,10.3-2.068,14.054-5.822c3.754-3.754,5.821-8.745,5.821-14.053s-2.068-10.299-5.822-14.052      C81.498,70.789,76.508,68.722,71.199,68.722z"/></g></g><g><g><g><path class="st205" d="M71.199,66.398c-0.828,0-1.5-0.671-1.5-1.5v-1.572c0-0.829,0.672-1.5,1.5-1.5s1.5,0.671,1.5,1.5v1.572       C72.699,65.727,72.027,66.398,71.199,66.398z"/></g><g><path class="st205" d="M71.199,115.364c-0.828,0-1.5-0.671-1.5-1.5v-1.569c0-0.829,0.672-1.5,1.5-1.5s1.5,0.671,1.5,1.5v1.569       C72.699,114.692,72.027,115.364,71.199,115.364z"/></g></g><g><g><path class="st205" d="M87.957,73.337c-0.384,0-0.768-0.146-1.061-0.439c-0.586-0.585-0.586-1.536,0-2.121l1.109-1.109       c0.586-0.586,1.535-0.586,2.121,0c0.586,0.585,0.586,1.536,0,2.121l-1.109,1.109C88.725,73.191,88.341,73.337,87.957,73.337z"/></g><g><path class="st205" d="M53.332,107.962c-0.384,0-0.768-0.146-1.061-0.439c-0.586-0.585-0.586-1.536,0-2.121l1.109-1.109       c0.586-0.586,1.535-0.586,2.121,0c0.586,0.585,0.586,1.536,0,2.121l-1.109,1.109C54.1,107.816,53.716,107.962,53.332,107.962z"/></g></g><g><g><path class="st205" d="M96.468,90.095h-1.569c-0.828,0-1.5-0.671-1.5-1.5s0.672-1.5,1.5-1.5h1.569c0.828,0,1.5,0.671,1.5,1.5       S97.296,90.095,96.468,90.095z"/></g><g><path class="st205" d="M47.5,90.095h-1.569c-0.828,0-1.5-0.671-1.5-1.5s0.672-1.5,1.5-1.5H47.5c0.828,0,1.5,0.671,1.5,1.5       S48.328,90.095,47.5,90.095z"/></g></g><g><g><path class="st205" d="M89.066,107.962c-0.384,0-0.768-0.146-1.061-0.439l-1.109-1.109c-0.586-0.585-0.586-1.536,0-2.121       c0.586-0.586,1.535-0.586,2.121,0l1.109,1.109c0.586,0.585,0.586,1.536,0,2.121C89.834,107.816,89.45,107.962,89.066,107.962z"/></g><g><path class="st205" d="M54.441,73.337c-0.384,0-0.768-0.146-1.061-0.439l-1.109-1.109c-0.586-0.585-0.586-1.536,0-2.121       c0.586-0.586,1.535-0.586,2.121,0l1.109,1.109c0.586,0.585,0.586,1.536,0,2.121C55.209,73.191,54.825,73.337,54.441,73.337z"/></g></g></g><g><g><g><path class="st205" d="M59.351,69.571c-0.518,0-1.021-0.269-1.3-0.75l-0.784-1.357c-0.414-0.717-0.169-1.635,0.549-2.049       c0.717-0.415,1.634-0.169,2.049,0.548l0.784,1.357c0.414,0.717,0.169,1.635-0.549,2.049       C59.863,69.506,59.605,69.571,59.351,69.571z"/></g><g><path class="st205" d="M83.835,111.979c-0.518,0-1.022-0.269-1.3-0.75l-0.785-1.359c-0.414-0.717-0.169-1.635,0.549-2.049       c0.717-0.415,1.635-0.169,2.049,0.549l0.785,1.359c0.414,0.717,0.169,1.635-0.549,2.049       C84.348,111.914,84.09,111.979,83.835,111.979z"/></g></g><g><g><path class="st205" d="M77.334,67.205c-0.129,0-0.259-0.017-0.389-0.051c-0.801-0.214-1.275-1.037-1.062-1.837l0.406-1.518       c0.215-0.801,1.042-1.273,1.837-1.062c0.801,0.214,1.275,1.037,1.062,1.837l-0.406,1.518       C78.603,66.763,77.996,67.205,77.334,67.205z"/></g><g><path class="st205" d="M64.66,114.504c-0.129,0-0.259-0.017-0.39-0.052c-0.8-0.214-1.274-1.037-1.061-1.837l0.406-1.516       c0.215-0.801,1.036-1.274,1.838-1.061c0.8,0.214,1.274,1.037,1.061,1.837l-0.406,1.516       C65.929,114.062,65.322,114.504,64.66,114.504z"/></g></g><g><g><path class="st205" d="M91.724,78.247c-0.518,0-1.021-0.269-1.3-0.75c-0.414-0.717-0.169-1.635,0.548-2.049l1.359-0.786       c0.716-0.414,1.634-0.169,2.05,0.547c0.414,0.717,0.169,1.635-0.548,2.049l-1.359,0.786       C92.237,78.182,91.979,78.247,91.724,78.247z"/></g><g><path class="st205" d="M49.317,102.73c-0.518,0-1.022-0.269-1.3-0.75c-0.414-0.717-0.169-1.635,0.549-2.049l1.359-0.785       c0.716-0.414,1.635-0.17,2.049,0.549c0.414,0.717,0.169,1.635-0.549,2.049l-1.359,0.785       C49.83,102.666,49.572,102.73,49.317,102.73z"/></g></g><g><g><path class="st205" d="M95.607,96.637c-0.129,0-0.261-0.017-0.391-0.052l-1.516-0.408c-0.801-0.215-1.274-1.039-1.059-1.838       c0.215-0.8,1.042-1.273,1.838-1.058l1.516,0.408c0.801,0.215,1.274,1.039,1.059,1.838       C96.875,96.196,96.269,96.637,95.607,96.637z"/></g><g><path class="st205" d="M48.309,83.962c-0.129,0-0.26-0.017-0.391-0.052l-1.516-0.407c-0.8-0.215-1.274-1.038-1.059-1.838       c0.215-0.8,1.037-1.275,1.838-1.06l1.516,0.407c0.8,0.215,1.274,1.038,1.059,1.838C49.576,83.521,48.971,83.962,48.309,83.962z       "/></g></g></g><g><g><g><path class="st205" d="M50.675,78.247c-0.255,0-0.514-0.065-0.75-0.202l-1.359-0.786c-0.717-0.415-0.962-1.332-0.548-2.049       c0.415-0.717,1.334-0.961,2.05-0.547l1.359,0.786c0.717,0.415,0.962,1.332,0.548,2.049       C51.696,77.978,51.192,78.247,50.675,78.247z"/></g><g><path class="st205" d="M93.081,102.73c-0.255,0-0.514-0.065-0.75-0.202l-1.358-0.785c-0.717-0.415-0.962-1.332-0.548-2.049       c0.415-0.717,1.333-0.962,2.05-0.548l1.358,0.785c0.717,0.415,0.962,1.332,0.548,2.049       C94.103,102.461,93.599,102.73,93.081,102.73z"/></g></g><g><g><path class="st205" d="M65.064,67.205c-0.662,0-1.269-0.442-1.448-1.113l-0.406-1.518c-0.214-0.8,0.261-1.623,1.062-1.837       c0.799-0.212,1.623,0.261,1.837,1.062l0.406,1.518c0.214,0.8-0.261,1.623-1.062,1.837       C65.323,67.188,65.193,67.205,65.064,67.205z"/></g><g><path class="st205" d="M77.738,114.504c-0.662,0-1.269-0.442-1.448-1.112l-0.406-1.516c-0.214-0.8,0.261-1.623,1.061-1.837       c0.804-0.214,1.623,0.26,1.838,1.061l0.406,1.516c0.214,0.8-0.261,1.623-1.061,1.837       C77.997,114.487,77.867,114.504,77.738,114.504z"/></g></g><g><g><path class="st205" d="M83.048,69.571c-0.255,0-0.514-0.065-0.75-0.202c-0.717-0.415-0.962-1.332-0.548-2.049l0.785-1.357       c0.416-0.717,1.334-0.961,2.05-0.547c0.717,0.415,0.962,1.332,0.548,2.049l-0.785,1.357       C84.069,69.302,83.565,69.571,83.048,69.571z"/></g><g><path class="st205" d="M58.564,111.979c-0.255,0-0.513-0.065-0.749-0.202c-0.718-0.415-0.963-1.332-0.549-2.049l0.784-1.357       c0.415-0.718,1.332-0.962,2.049-0.548c0.718,0.415,0.963,1.332,0.549,2.049l-0.784,1.357       C59.586,111.709,59.082,111.979,58.564,111.979z"/></g></g><g><g><path class="st205" d="M94.09,83.962c-0.662,0-1.268-0.441-1.447-1.111c-0.216-0.8,0.259-1.623,1.059-1.838l1.516-0.407       c0.806-0.213,1.623,0.259,1.838,1.06c0.216,0.8-0.259,1.623-1.059,1.838L94.48,83.91C94.35,83.945,94.219,83.962,94.09,83.962z       "/></g><g><path class="st205" d="M46.791,96.637c-0.661,0-1.268-0.441-1.447-1.11c-0.216-0.8,0.258-1.623,1.059-1.838l1.516-0.408       c0.794-0.216,1.623,0.258,1.838,1.058c0.216,0.8-0.258,1.623-1.059,1.838l-1.516,0.408       C47.052,96.62,46.92,96.637,46.791,96.637z"/></g></g></g><g><path class="st205" d="M81.794,108.523c-0.323,0-0.648-0.104-0.922-0.318c-0.653-0.51-0.77-1.453-0.26-2.105     c3.953-5.062,5.015-9.845,3.069-13.832c-2.185-4.478-7.468-6.862-10.442-6.862c-1.252,0-2.286,0.096-3.266,0.567     c-0.372,0.179-0.803,0.196-1.188,0.048s-0.693-0.45-0.85-0.833c-0.642-1.57-1.565-2.964-2.745-4.143     c-1.577-1.579-3.483-2.682-5.591-3.251c0.576,2.104,1.692,4.042,3.246,5.596c1.021,1.021,2.201,1.853,3.509,2.473     c0.442,0.21,0.755,0.624,0.836,1.107s-0.08,0.977-0.431,1.32c-1.706,1.67-3.097,3.839-4.857,6.585     c-1.581,2.466-3.373,5.261-5.868,8.425c-0.513,0.65-1.455,0.762-2.106,0.249c-0.65-0.513-0.762-1.456-0.249-2.107     c2.404-3.048,4.154-5.778,5.698-8.186c1.36-2.123,2.58-4.025,3.943-5.653c-0.936-0.601-1.805-1.301-2.596-2.092     c-2.526-2.527-4.12-5.876-4.488-9.43c-0.046-0.449,0.112-0.896,0.432-1.215c0.319-0.32,0.766-0.479,1.215-0.432     c3.556,0.368,6.904,1.962,9.429,4.488c1.125,1.124,2.062,2.404,2.795,3.818c1.079-0.286,2.133-0.336,3.133-0.336     c4.313,0,10.563,3.268,13.139,8.547c1.731,3.549,2.547,9.377-3.4,16.994C82.682,108.325,82.24,108.523,81.794,108.523z"/></g><g><path class="st205" d="M63.795,90.798c-0.051,0-0.103-0.002-0.154-0.008c-2.936-0.304-5.7-1.62-7.784-3.706     c-2.084-2.083-3.399-4.847-3.703-7.781c-0.046-0.449,0.112-0.896,0.432-1.215c0.32-0.32,0.769-0.481,1.216-0.431     c2.463,0.256,4.786,1.211,6.718,2.762c0.144,0.115,0.264,0.255,0.356,0.413c0.546,0.935,1.209,1.795,1.972,2.558     c0.206,0.207,0.424,0.396,0.64,0.583c0.14,0.121,0.255,0.266,0.341,0.427c0.797,1.495,1.288,3.09,1.46,4.743     c0.047,0.449-0.112,0.896-0.432,1.215C64.573,90.642,64.19,90.798,63.795,90.798z M55.591,81.096     c0.483,1.449,1.299,2.78,2.388,3.868c1.107,1.108,2.421,1.918,3.87,2.396c-0.149-0.445-0.332-0.883-0.546-1.31     c-0.196-0.173-0.39-0.35-0.578-0.538c-0.874-0.875-1.644-1.854-2.289-2.912C57.571,81.942,56.61,81.436,55.591,81.096z"/></g><g><path class="st205" d="M80.146,93.41c-0.324,0-0.624-0.103-0.869-0.278c-0.246,0.175-0.546,0.278-0.87,0.278     c-0.828,0-1.5-0.671-1.5-1.5c0-1.306,1.062-2.369,2.369-2.369s2.37,1.063,2.37,2.369C81.646,92.738,80.974,93.41,80.146,93.41z"/></g><g><circle class="st15" cx="78.272" cy="96.71" r="2.334"/></g><g><path class="st144" d="M78.272,94.378c1.289,0,2.334,1.045,2.334,2.332c0,1.289-1.045,2.334-2.334,2.334"/></g><g><path class="st205" d="M85.656,93.838c-0.506,0-1-0.256-1.282-0.72c-0.217-0.356-0.268-0.766-0.175-1.141     c-0.376-0.09-0.718-0.325-0.935-0.682c-0.429-0.708-0.202-1.631,0.506-2.06c1.21-0.731,2.789-0.346,3.522,0.86     c0.734,1.208,0.35,2.789-0.857,3.523C86.191,93.768,85.923,93.838,85.656,93.838z"/></g><g><path class="st205" d="M58.496,80.768c-0.108,0-0.218-0.012-0.326-0.036c-0.501-0.111-0.91-0.471-1.084-0.954     c-0.433-1.196-0.719-2.439-0.85-3.696c-0.047-0.449,0.111-0.896,0.431-1.215s0.76-0.478,1.216-0.432     c1.255,0.13,2.498,0.415,3.697,0.848c0.482,0.174,0.843,0.583,0.954,1.084c0.112,0.5-0.04,1.024-0.403,1.387l-2.574,2.574     C59.272,80.613,58.89,80.768,58.496,80.768z"/></g><g><path class="st205" d="M58.496,79.268l2.574-2.574c-1.084-0.392-2.207-0.649-3.342-0.767     C57.847,77.062,58.104,78.185,58.496,79.268z"/></g><g><path class="st205" d="M54.506,83.943c-0.095,0-0.19-0.009-0.286-0.027c-0.489-0.095-0.898-0.427-1.094-0.885     c-0.514-1.206-0.841-2.458-0.973-3.725c-0.047-0.449,0.112-0.896,0.432-1.216c0.318-0.32,0.769-0.478,1.216-0.432     c1.281,0.133,2.537,0.462,3.731,0.976c0.457,0.197,0.787,0.607,0.881,1.096c0.093,0.488-0.062,0.992-0.413,1.343l-2.434,2.432     C55.282,83.788,54.899,83.943,54.506,83.943z"/></g><g><path class="st205" d="M53.646,79.15c0.117,1.125,0.41,2.235,0.86,3.293l2.434-2.432C55.882,79.556,54.772,79.267,53.646,79.15z"/></g><g><path class="st205" d="M64.499,99.52c-0.547,0-1.073-0.3-1.338-0.82c-0.105-0.2-1.037-1.865-2.695-1.388     c-0.797,0.224-1.627-0.233-1.854-1.03c-0.228-0.796,0.233-1.626,1.03-1.854c3.282-0.938,5.488,1.502,6.198,2.922     c0.37,0.741,0.07,1.642-0.671,2.012C64.953,99.468,64.725,99.52,64.499,99.52z"/></g><g><path class="st205" d="M62.088,103.871c-0.547,0-1.073-0.3-1.338-0.82c-0.104-0.198-1.026-1.864-2.694-1.39     c-0.796,0.225-1.627-0.233-1.854-1.031c-0.228-0.796,0.234-1.626,1.03-1.854c3.279-0.934,5.488,1.503,6.197,2.925     c0.37,0.741,0.069,1.642-0.672,2.012C62.542,103.82,62.313,103.871,62.088,103.871z"/></g></g></g></svg>