<?xml version="1.0" ?><!DOCTYPE svg  PUBLIC '-//W3C//DTD SVG 1.1//EN'  'http://www.w3.org/Graphics/SVG/1.1/DTD/svg11.dtd'><svg height="135px" id="Layer_1" style="enable-background:new 0 0 135 135;" version="1.1" viewBox="0 0 135 135" width="135px" xml:space="preserve" xmlns="http://www.w3.org/2000/svg" xmlns:xlink="http://www.w3.org/1999/xlink"><style type="text/css">
<![CDATA[
	.st0{fill:#465652;}
	.st1{fill:#AAB9BA;}
	.st2{fill:#47C67B;}
	.st3{fill:#AAC8D1;}
	.st4{fill:none;stroke:#E83834;stroke-width:6;stroke-linecap:round;stroke-linejoin:round;stroke-miterlimit:10;}
	.st5{fill:#7BC67B;}
	.st6{fill:#7BC7FF;}
	.st7{fill:#7C34C1;}
	.st8{fill:#7C8D96;}
	.st9{fill:#AD2707;}
	.st10{fill:#ADB8BC;}
	.st11{fill:#107510;}
	.st12{fill:#7FE5D8;}
	.st13{fill:#AF4AD1;}
	.st14{fill:#E02B7E;}
	.st15{fill:#E04038;}
	.st16{fill:#AFD7DD;}
	.st17{fill:#E0A010;}
	.st18{fill:#E0D5A4;}
	.st19{fill:#12B2B2;}
	.st20{fill:#12D66B;}
	.st21{fill:#E1A9FF;}
	.st22{fill:#1362A8;}
	.st23{fill:#E2378D;}
	.st24{fill:#E29C37;}
	.st25{fill:#E2B90E;}
	.st26{fill:#E2BF91;}
	.st27{fill:#E2CBAA;}
	.st28{fill:#14A594;}
	.st29{fill:#E4E9ED;}
	.st30{fill:#4A5D60;}
	.st31{fill:#E5B076;}
	.st32{fill:#E5B1C4;}
	.st33{fill:#E5E4C3;}
	.st34{fill:#4B6466;}
	.st35{fill:#E6FF2E;}
	.st36{fill:#18AA67;}
	.st37{fill:#E86207;}
	.st38{fill:#E8A113;}
	.st39{fill:#E8B5A6;}
	.st40{fill:#E8E8ED;}
	.st41{fill:#4E5154;}
	.st42{fill:#E9F1F4;}
	.st43{fill:#4F4B48;}
	.st44{fill:#4F74E8;}
	.st45{fill:#808E93;}
	.st46{fill:#80949B;}
	.st47{fill:#80EDAC;}
	.st48{fill:#B122E0;}
	.st49{fill:#B2C4CC;}
	.st50{fill:#83D839;}
	.st51{fill:#B3C6C6;}
	.st52{fill:none;stroke:#33363A;stroke-width:3;stroke-linecap:round;stroke-linejoin:round;stroke-miterlimit:10;}
	.st53{fill:#1A8E1C;}
	.st54{fill:#1A93D6;}
	.st55{fill:#B50B0B;}
	.st56{fill:#1AD88F;}
	.st57{fill:#B5DAF4;}
	.st58{fill:#EA7B1F;}
	.st59{fill:#EA81BD;}
	.st60{fill:#87B8D6;}
	.st61{fill:#87C3F4;}
	.st62{fill:#EAC79D;}
	.st63{fill:#EADF11;}
	.st64{fill:#EAE4C5;}
	.st65{fill:#B78094;}
	.st66{fill:#8844D8;}
	.st67{fill:#EBF4F7;}
	.st68{fill:#893015;}
	.st69{fill:#89410B;}
	.st70{fill:#899BA3;}
	.st71{fill:#EDE3B9;}
	.st72{enable-background:new    ;}
	.st73{fill:#50FF9F;}
	.st74{fill:#EEDCF4;}
	.st75{fill:#EFA37D;}
	.st76{fill:#EFA3CC;}
	.st77{fill:#EFC99A;}
	.st78{fill:#54AF79;}
	.st79{fill:#BA503A;}
	.st80{fill:#BA8663;}
	.st81{fill:#8B4FE0;}
	.st82{fill:#58ED9B;}
	.st83{fill:#BC7DFF;}
	.st84{fill:#8D9AA3;}
	.st85{fill:#BCCAD3;}
	.st86{fill:#8DE4FF;}
	.st87{fill:#20B518;}
	.st88{fill:#BF44F2;}
	.st89{fill:#21CEA1;}
	.st90{fill:#BFDAE0;}
	.st91{fill:#F0FBFC;}
	.st92{fill:#F2D9A7;}
	.st93{fill:#F2EAC9;}
	.st94{fill:#24D1AF;}
	.st95{fill:#25931C;}
	.st96{fill:#F4C4B3;}
	.st97{fill:#F4D3A2;}
	.st98{fill:#F4D647;}
	.st99{fill:#F4D7B8;}
	.st100{fill:#F4EC8E;}
	.st101{fill:#5B524D;}
	.st102{fill:#F77819;}
	.st103{fill:#F79AE1;}
	.st104{fill:#5E707A;}
	.st105{fill:#F93585;}
	.st106{fill:#F95D5D;}
	.st107{fill:#F9C19B;}
	.st108{fill:#F9CB58;}
	.st109{fill:#F9D2B2;}
	.st110{fill:#F9F07D;}
	.st111{fill:#F9F1D2;}
	.st112{fill:#F9F4B7;}
	.st113{fill:#F9F9E4;}
	.st114{fill:#5F1DAA;}
	.st115{fill:#5F9AD6;}
	.st116{fill:#C0C0C4;}
	.st117{fill:#91EA57;}
	.st118{fill:#C12727;}
	.st119{fill:#C191A0;}
	.st120{fill:#923BB7;}
	.st121{fill:#93A0A3;}
	.st122{fill:#93F9EA;}
	.st123{fill:#93FF5A;}
	.st124{fill:#C4833D;}
	.st125{fill:#95A2A5;}
	.st126{fill:#965514;}
	.st127{fill:#96562C;}
	.st128{fill:#2AF42F;}
	.st129{fill:#C5D7DD;}
	.st130{fill:#C68510;}
	.st131{fill:#C6A86D;}
	.st132{fill:#C6BB8D;}
	.st133{fill:#2C9DCE;}
	.st134{fill:#FBFCF2;}
	.st135{fill:#FC70B0;}
	.st136{fill:#FCE6C8;}
	.st137{fill:#FCF7E3;}
	.st138{fill:#C90D6B;}
	.st139{fill:#FDFEFF;}
	.st140{fill:#FDFFDC;}
	.st141{fill:#FF1A1A;}
	.st142{fill:#FF5252;}
	.st143{fill:#FF5B00;}
	.st144{fill:#FF6155;}
	.st145{fill:#FF630D;}
	.st146{fill:#FF6666;}
	.st147{fill:#FF7676;}
	.st148{fill:#FF7900;}
	.st149{fill:#FF860D;}
	.st150{fill:#FF8B00;}
	.st151{fill:#FF8F8F;}
	.st152{fill:#FF900B;}
	.st153{fill:#FF908A;}
	.st154{fill:#FF960B;}
	.st155{fill:#FF9C0D;}
	.st156{fill:#FFA9D4;}
	.st157{fill:#FFAA00;}
	.st158{fill:#FFAD40;}
	.st159{fill:#FFAF10;}
	.st160{fill:#FFB000;}
	.st161{fill:#FFBE08;}
	.st162{fill:#FFBF31;}
	.st163{fill:#FFC200;}
	.st164{fill:#FFCAE8;}
	.st165{fill:#FFCCF5;}
	.st166{fill:#FFD00B;}
	.st167{fill:#FFD039;}
	.st168{fill:#FFD400;}
	.st169{fill:#FFD833;}
	.st170{fill:#FFDB80;}
	.st171{fill:#FFDDD2;}
	.st172{fill:#FFE6D4;}
	.st173{fill:#FFE6EB;}
	.st174{fill:#FFE98D;}
	.st175{fill:#FFECD2;}
	.st176{fill:#FFF1D9;}
	.st177{fill:#FFF24D;}
	.st178{fill:#FFF3C2;}
	.st179{fill:#FFF4C7;}
	.st180{fill:#FFF800;}
	.st181{fill:#FFF80D;}
	.st182{fill:#FFF9DE;}
	.st183{fill:#FFFBD7;}
	.st184{fill:#FFFBEB;}
	.st185{fill:#FFFCC0;}
	.st186{fill:#FFFCDC;}
	.st187{fill:#FFFFFA;}
	.st188{fill:#FFFFFF;}
	.st189{fill:#63797F;}
	.st190{fill:#65E529;}
	.st191{fill:#66310E;}
	.st192{fill:#663C17;}
	.st193{fill:#9A5AE5;}
	.st194{fill:#CA30EF;}
	.st195{fill:#6892FC;}
	.st196{fill:#9CFFC4;}
	.st197{fill:#CC4306;}
	.st198{fill:#CC549E;}
	.st199{fill:#9E3256;}
	.st200{fill:#CDFFBB;}
	.st201{fill:#CE86AF;}
	.st202{fill:#CED9DD;}
	
		.st203{fill:none;stroke:#33363A;stroke-width:3;stroke-linecap:round;stroke-linejoin:round;stroke-miterlimit:10;stroke-dasharray:6;}
	.st204{fill:#CFE1E2;}
	.st205{fill:#33363A;}
	.st206{fill:#34C166;}
	.st207{fill:#364B5B;}
	.st208{fill:#3662CE;}
	.st209{fill:#36C6FF;}
	.st210{fill:#6ADB9A;}
	.st211{fill:#6D5C4D;}
	.st212{fill:#6EBDF9;}
	.st213{fill:#0031FF;}
	.st214{fill:#0062FF;}
	.st215{fill:#0068FF;}
	.st216{fill:#0086FF;}
	.st217{fill:#009BE8;}
	.st218{fill:#00AAFF;}
	.st219{fill:#D271FF;}
	.st220{fill:#D363A9;}
	.st221{fill:#D3964C;}
	.st222{fill:#D3DFE2;}
	.st223{fill:#D3E0E2;}
	.st224{fill:#D3EFF4;}
	.st225{fill:#063B66;}
	.st226{fill:#D60909;}
	.st227{fill:#D61D1D;}
	.st228{fill:#D7F0FF;}
	.st229{fill:#09B285;}
	.st230{fill:#D8D593;}
	.st231{fill:#D8E2EA;}
	.st232{fill:#D8E5EA;}
	.st233{fill:#3E5054;}
	.st234{fill:#D988FF;}
	.st235{fill:#D9E7E8;}
	.st236{fill:#702252;}
	.st237{fill:#70D3E0;}
	.st238{fill:#A02FF2;}
	.st239{fill:#A2F255;}
	.st240{fill:#A35616;}
	.st241{fill:#A3CCCC;}
	.st242{fill:#0A6ADD;}
	.st243{fill:#A5145D;}
	.st244{fill:#A57555;}
	.st245{fill:#77D6FC;}
	.st246{fill:#7815CE;}
	.st247{fill:#A7BBC1;}
	.st248{fill:#DBD279;}
	.st249{fill:#0D5C9E;}
	.st250{fill:#A83C11;}
	.st251{fill:#A8633D;}
	.st252{fill:#A8A3E5;}
	.st253{fill:#DCE6EA;}
	.st254{fill:#DCE7EA;}
	.st255{fill:#A962E8;}
	.st256{fill:#DD2466;}
	.st257{fill:#DDC38A;}
	.st258{fill:#DDD2B1;}
	.st259{fill:#DFE7E8;}
	.st260{fill:#42B1E8;}
	.st261{fill:#436377;}
	.st262{fill:#43B530;}
]]>
</style><g><g><g><g><g><path class="st6" d="M129.457,78.676c0,6.701-5.434,12.137-12.135,12.137H17.678c-6.701,0-12.135-5.436-12.135-12.137V49.598       c0-6.703,5.434-12.137,12.135-12.137h99.645c6.701,0,12.135,5.434,12.135,12.137V78.676z"/></g><g><path class="st216" d="M117.322,37.461H17.678c-6.701,0-12.135,5.434-12.135,12.137v23.828c0,6.701,5.434,12.137,12.135,12.137       h99.645c6.701,0,12.135-5.436,12.135-12.137V49.598C129.457,42.895,124.023,37.461,117.322,37.461z"/></g><g><path class="st205" d="M117.322,92.312H17.678c-7.519,0-13.635-6.117-13.635-13.637V49.598c0-7.52,6.116-13.637,13.635-13.637       h99.645c7.519,0,13.635,6.117,13.635,13.637v29.078C130.957,86.195,124.841,92.312,117.322,92.312z M17.678,38.961       c-5.864,0-10.635,4.771-10.635,10.637v29.078c0,5.865,4.771,10.637,10.635,10.637h99.645c5.864,0,10.635-4.771,10.635-10.637       V49.598c0-5.865-4.771-10.637-10.635-10.637H17.678z"/></g></g><g><polyline class="st6" points="80.758,86.965 67.5,100.223 54.242,86.965     "/></g><g><path class="st205" d="M67.5,101.723c-0.384,0-0.768-0.146-1.061-0.439L53.182,88.025c-0.586-0.586-0.586-1.535,0-2.121      s1.535-0.586,2.121,0L67.5,98.102l12.197-12.197c0.586-0.586,1.535-0.586,2.121,0s0.586,1.535,0,2.121l-13.258,13.258      C68.268,101.576,67.884,101.723,67.5,101.723z"/></g></g><g><g><g><g><path class="st205" d="M67.502,15.828c-0.828,0-1.5-0.672-1.5-1.5v-0.992c0-0.828,0.672-1.5,1.5-1.5s1.5,0.672,1.5,1.5v0.992        C69.002,15.156,68.33,15.828,67.502,15.828z"/></g><g><path class="st205" d="M67.502,30.693c-0.828,0-1.5-0.672-1.5-1.5v-5.824c0-0.828,0.672-1.5,1.5-1.5s1.5,0.672,1.5,1.5v5.824        C69.002,30.021,68.33,30.693,67.502,30.693z"/></g></g><g><g><g><path class="st205" d="M40.143,21.162c-0.381,0-0.763-0.145-1.055-0.434l-0.709-0.701c-0.589-0.582-0.595-1.532-0.012-2.121         c0.582-0.589,1.533-0.595,2.121-0.012l0.709,0.701c0.589,0.582,0.595,1.532,0.012,2.121         C40.916,21.014,40.529,21.162,40.143,21.162z"/></g><g><path class="st205" d="M50.654,31.678c-0.384,0-0.769-0.146-1.062-0.439l-4.123-4.127c-0.585-0.587-0.585-1.536,0.001-2.122         c0.586-0.584,1.536-0.585,2.122,0.001l4.123,4.127c0.585,0.587,0.585,1.536-0.001,2.122         C51.422,31.531,51.038,31.678,50.654,31.678z"/></g></g><g><g><path class="st205" d="M94.861,21.166c-0.384,0-0.768-0.146-1.061-0.439c-0.586-0.586-0.586-1.535,0-2.121l0.705-0.705         c0.586-0.586,1.535-0.586,2.121,0s0.586,1.535,0,2.121l-0.705,0.705C95.629,21.02,95.245,21.166,94.861,21.166z"/></g><g><path class="st205" d="M84.352,31.678c-0.384,0-0.767-0.146-1.06-0.438c-0.587-0.586-0.587-1.535-0.002-2.121l4.119-4.125         c0.586-0.588,1.535-0.586,2.121-0.002c0.587,0.586,0.587,1.535,0.002,2.121l-4.119,4.125         C85.12,31.531,84.735,31.678,84.352,31.678z"/></g></g></g></g><g><g><g><path class="st205" d="M67.496,123.164c-0.828,0-1.5-0.672-1.5-1.5v-0.992c0-0.828,0.672-1.5,1.5-1.5s1.5,0.672,1.5,1.5v0.992        C68.996,122.492,68.324,123.164,67.496,123.164z"/></g><g><path class="st205" d="M67.496,113.131C67.496,113.131,67.496,113.131,67.496,113.131c-0.829,0-1.5-0.672-1.5-1.501        l0.002-5.824c0-0.828,0.672-1.499,1.5-1.499c0,0,0,0,0.001,0c0.828,0,1.499,0.672,1.499,1.501l-0.002,5.824        C68.996,112.46,68.324,113.131,67.496,113.131z"/></g></g><g><g><g><path class="st205" d="M95.566,117.539c-0.381,0-0.763-0.145-1.055-0.434l-0.709-0.701c-0.589-0.582-0.595-1.532-0.012-2.121         c0.581-0.59,1.532-0.594,2.121-0.012l0.709,0.701c0.589,0.582,0.595,1.532,0.012,2.121         C96.34,117.391,95.953,117.539,95.566,117.539z"/></g><g><path class="st205" d="M88.469,110.451c-0.384,0-0.769-0.146-1.062-0.439l-4.123-4.127c-0.585-0.587-0.585-1.536,0.001-2.122         c0.586-0.584,1.536-0.585,2.122,0.001l4.123,4.127c0.585,0.587,0.585,1.536-0.001,2.122         C89.236,110.305,88.853,110.451,88.469,110.451z"/></g></g><g><g><path class="st205" d="M39.434,117.539c-0.384,0-0.768-0.146-1.061-0.439c-0.586-0.586-0.586-1.535,0-2.121l0.705-0.705         c0.586-0.586,1.535-0.586,2.121,0s0.586,1.535,0,2.121l-0.705,0.705C40.201,117.393,39.817,117.539,39.434,117.539z"/></g><g><path class="st205" d="M46.529,110.447c-0.384,0-0.767-0.146-1.06-0.438c-0.587-0.586-0.587-1.535-0.002-2.121l4.119-4.125         c0.586-0.588,1.535-0.586,2.121-0.002c0.587,0.586,0.587,1.535,0.002,2.121l-4.119,4.125         C47.298,110.301,46.913,110.447,46.529,110.447z"/></g></g></g></g></g></g><g><g><g><path class="st205" d="M29.775,71.5H20.33c-0.828,0-1.5-0.672-1.5-1.5V56.229c0-0.828,0.672-1.5,1.5-1.5h9.445      c0.828,0,1.5,0.672,1.5,1.5V70C31.275,70.828,30.604,71.5,29.775,71.5z M21.83,68.5h6.445V57.729H21.83V68.5z"/></g></g><g><g><path class="st205" d="M46.754,71.5c-0.828,0-1.5-0.672-1.5-1.5V57.729h-6.445V70c0,0.828-0.672,1.5-1.5,1.5s-1.5-0.672-1.5-1.5      V56.229c0-0.828,0.672-1.5,1.5-1.5h9.445c0.828,0,1.5,0.672,1.5,1.5V70C48.254,70.828,47.582,71.5,46.754,71.5z"/></g></g><g><g><path class="st205" d="M97.689,71.5h-9.445c-0.828,0-1.5-0.672-1.5-1.5V56.229c0-0.828,0.672-1.5,1.5-1.5s1.5,0.672,1.5,1.5      V68.5h7.945c0.828,0,1.5,0.672,1.5,1.5S98.518,71.5,97.689,71.5z"/></g></g><g><g><path class="st205" d="M114.668,71.5h-9.445c-0.828,0-1.5-0.672-1.5-1.5V56.229c0-0.828,0.672-1.5,1.5-1.5h9.445      c0.828,0,1.5,0.672,1.5,1.5s-0.672,1.5-1.5,1.5h-7.945V68.5h7.945c0.828,0,1.5,0.672,1.5,1.5S115.496,71.5,114.668,71.5z"/></g></g><g><path class="st205" d="M29.775,64.613H20.33c-0.828,0-1.5-0.672-1.5-1.5s0.672-1.5,1.5-1.5h9.445c0.828,0,1.5,0.672,1.5,1.5     S30.604,64.613,29.775,64.613z"/></g><g><path class="st205" d="M46.754,64.613h-9.445c-0.828,0-1.5-0.672-1.5-1.5s0.672-1.5,1.5-1.5h9.445c0.828,0,1.5,0.672,1.5,1.5     S47.582,64.613,46.754,64.613z"/></g><g><g><g><path class="st52" d="M63.732,70"/></g><g><path class="st205" d="M63.732,57.729h-9.445c-0.828,0-1.5-0.672-1.5-1.5s0.672-1.5,1.5-1.5h9.445c0.828,0,1.5,0.672,1.5,1.5       S64.561,57.729,63.732,57.729z"/></g></g><g><path class="st205" d="M59.01,71.5c-0.828,0-1.5-0.672-1.5-1.5V56.229c0-0.828,0.672-1.5,1.5-1.5s1.5,0.672,1.5,1.5V70      C60.51,70.828,59.838,71.5,59.01,71.5z"/></g></g><g><g><g><path class="st52" d="M80.711,70"/></g><g><path class="st205" d="M80.711,57.729h-9.445c-0.828,0-1.5-0.672-1.5-1.5s0.672-1.5,1.5-1.5h9.445c0.828,0,1.5,0.672,1.5,1.5       S81.539,57.729,80.711,57.729z"/></g></g><g><path class="st205" d="M75.988,71.5c-0.828,0-1.5-0.672-1.5-1.5V56.229c0-0.828,0.672-1.5,1.5-1.5s1.5,0.672,1.5,1.5V70      C77.488,70.828,76.816,71.5,75.988,71.5z"/></g></g><g><path class="st205" d="M114.668,64.613h-9.445c-0.828,0-1.5-0.672-1.5-1.5s0.672-1.5,1.5-1.5h9.445c0.828,0,1.5,0.672,1.5,1.5     S115.496,64.613,114.668,64.613z"/></g></g></g></svg>